<svg xmlns="http://www.w3.org/2000/svg" width="1600" height="900"><g fill-rule="evenodd"><path d="M63 216l-9-14-14 8-16 5c0 5-1 11 1 16 5 2 11 0 16 1l8-1 14-15zM53 531c8 4 15 12 23 17l18 14c5 5 11 2 17 0l25-6c8 1 16 7 24 8v25c3 12 12 24 13 36l1 32c0 7 0 16 2 23l23 59 18-6 16-6 12-5c9-15 16-32 24-48 4-7 12-12 17-19 3-3 7-6 8-10v-14-31c2-6 10-12 14-16l21-23 7-13c1-5 4-10 4-15-10 1-22 4-30 3l-13-17c-14-17-22-37-31-56 20 14 28 40 43 59 7 1 13-2 20-3 4-2 9-2 14-5l33-23-13-22-10 5-10 7c-4-10-6-22-10-31 12 4 23 13 35 18a495 495 0 0061 22c5 8 8 21 12 29 3 9 9 18 11 28h2c19-18 34-41 52-61 5 10 14 17 19 27l10-2 4 10c3 7 1 13-1 19-1 5 2 9 5 12l5 10 2 8c1 3 6 4 9 6l10 6c-2-10-2-21-11-28-3-4-9-8-10-12l4-15 21 20c6-6 9-15 14-22 2-4 0-8-3-11l-6-12-5-6c11-4 26-3 36-6l19-19c5-4 11-9 14-14 2-4 0-9-2-14l-7-21c-2-6 4-13 8-18l11 15c5 3 11 3 17 5l-1-17c-2-5 3-8 6-10 7-4 16-8 20-13 6-10 14-20 16-32 4-11 6-25 10-35-2-3-7-4-10-6-4-2-7-5-11-6v-1l20-22c5-6 10-13 20-11l35 4c5 1 9-6 12-9l11-12c-5 13-15 25-20 38-2 7 5 14 7 21 4 6 7 15 11 20 10-19 15-45 27-61 6-9 17-13 27-18l30-14-4-18c13 0 25 5 38 6l10-25-45-30-17-12c-6-4-12-3-18-2l-34 4c-8 0-15-5-22-8l-63-30c-3 5 0 16-6 17l-38-1c-16 2-22-28-40-25l-27-2c-9 0-15-7-21-12-7 4-12 11-19 15 1-15 8-30 10-45l-25-4c-6-1-14-5-21 0l-63 40-23 15c-7 5-14 13-19 18l-32 32c-3 2-7 1-10 1-5 0-13-3-17-2-31 17-61 37-92 54-10-10-18-21-28-30l35 8c1-6 5-11 6-17 2-4-5-7-7-9l-30-21c-7-4-15-11-20-13-3-1-6 2-8 2l-27 16-13 8c-4 4-5 9-8 13l-20 38c-3 7-8 13-13 18l-15 16c2 4 6 8 7 12 3 4 6 8 7 12h11v-2h-2l13-9h1c2 10 8 19 10 29h2c3-8 8-15 12-23 2-5 7-11 5-18-2-4-4-10-4-14-1-4 2-7 3-10l15-26 12 8-14 28c-1 5 3 12 5 15 5 2 11 3 17 3 3 0 8 0 11 2-9 4-19 8-25 15-9 8-10 17-12 27l-17-1c-5-1-12 1-16-1-6 13-12 26-21 37-5-4-7-11-10-15-7 3-12 10-20 12l-22 8c1 5 5 9 8 13l8 13v1l-34 3 1 20 2 20 24 1c8-7 7-21 18-26l30-14c12 8 27 17 32 34h2l2-12 6-1v-1l-26-27 3-3 20 16c6 5 11 15 13 24l23-11 8-5c4-3 3-11 4-15 1-10 11-10 18-13l23-8 15 35c-13 0-27-2-40-1l-11 1c-6 5-11 13-17 20v1l41 9c-3 6-3 14-6 21-5 2-11-1-17 0l-26-2c-4 0-10-2-13 1-3 1-6 6-8 7l-29-23-11-9c-3-3-9-1-12 0l-44 11-21 5c-4 1-4 7-5 10l-3 10-14 41c-3 14-10 27-12 41zm24-206l1 1c3-2 7-1 11-3s3-10 5-14v-7l-6-4-3-1-8 28zm15-41l5 13c4 6 4 12 2 18l-3 21c10-2 20-8 30-10-3-14-19-27-15-45-5 0-7-7-9-8l-10 11zm61 23h5c4-2 4-6 4-10 0-3-1-6-5-5 1 2-1 5-1 7-1 3-1 6-3 8zm159 386c6-2 17-5 18-11l5-23c0-5 1-10 3-14s0-8-4-9c-5-2-9 7-12 9-3 3-8 6-12 7 0 7 2 17 0 23-1 3-3 7-2 9l4 9zm152-150c0 4-2 8 0 12 1 4 9 4 9 0 0-5-5-11-9-12zm103 66h1c1-5 6-9 7-15-7-6-17-10-24-15s-8-20-20-18c0 11 5 20 13 27l23 21zm4 5c5 3 14 3 19 4 7 1 15 4 21 3-2-3-4-7-7-9-10-7-24-1-33 2zm14-113c3 2 8 2 10 0l2-2c-2-2-5-2-6-4l-6 6zm0 80c3 4 6 12 11 14 6 2 14 4 18 0l14-16c-2-3-3-6-3-10 0-3 4-4 5-7l-10-9c-5 6-12 13-16 21h-11l-8 5v2zm27 154l42-3 31-2c3-1 7 4 9 5l14 13 11 9c3 3 8 2 11 2h36c5-19 7-38 13-56-16-23-34-45-47-70h-2l-5 17c-3 5-4 12-6 16-6-4-17-2-17-10l2-22h-15c-14 7-27 16-41 24-13 8-28 15-42 22 3 18 3 37 6 55zm22-131l5-5 5 4c0-2 2-6 1-8l-3-7c5-1 10-7 13-9-5-2-10 1-14 3-2 3-9 5-11 8 0 5 2 9 4 14zm7-117l1-16-8 3-1 10c0 3 6 3 8 3zm0 36l3-12c1-4-2-8-4-10-3 3-4 9-6 13s4 9 7 9zm0 25c2 4 7 4 10 3 0 4 1 6 5 7l7-7c-1-4-4-7-4-11h-1c-5 4-11 7-17 8zm12-19c-2-3-3-9-7-9-3 0-4 1-4 4l4 4c2 2 5 2 7 1zm4 9l-1-8c-3 1-7 9 0 8h1zm34-93l-16-14-4 4c0 2 2 4 3 5 4 4 7 9 13 6l4-1zm-9-14c5-3 14-2 20-5v6c8 0 15-4 22-5l2-36h-10l-2 14c0 7-9 11-13 14-7 3-14 3-20 6l1 6zm3 166c9 2 18 8 27 10 0 2-1 5-3 7l16 5 8 2 4-7h2l13 10c5 5 10 4 16 4v-1c-11-12-22-23-37-29l-22-11c-7-4-16-1-23-4l-2 1 1 13zm0-164c1 5 5 8 9 5 5-1 3-5 1-8v-1l-10 4zm32-51l12 5c2 1 5-2 7-3l5-4 3-2c-6-4-13-11-19-12l-8 16zm17-23c0-4 0-10-2-12h5l-3-18c-2-5-2-13-4-17-5 3-6 7-5 12l1 16 1 13 1 5 6 1zm5 428l12-3c2-3 1-7 3-11l-14-2c0 5-2 11-1 16zm89 13l1 1c5 2 10 1 15 1l2-12 10-1c0-7 2-18-7-21-8 10-13 22-21 32zm33-27h2c5-5 9-12 12-18l-8-2-1-7c-9 6-9 18-5 27zm92-502l45-14c6-2 13-5 20-3l37 8 17 4c5 1 10 2 12 7l27 48c9 12 9 28 10 43l3 34c2 8 1 18 5 24 13 19 31 36 44 55h2c1-12-1-24 1-36 3 10 9 20 13 30l6 14c2 4 4 11 7 14l106 46 5 3c2 3-2 9-1 11l-5 21c-1 6-4 15-2 19 11 21 26 39 38 59l7 11-18 105-4 25c0 13 6 25 8 38 1 6 1 14 9 14 6 1 13 4 19 4l29-66 23-50c5-12 15-24 21-34l9-13c3-3 6-8 9-9 7-2 19 0 23-6 9-21 18-43 28-63-24-12-50-21-74-33-7-4-13-15-19-22l-9-10c-16-5-32-7-48-11-12-3-26-4-36-9l-50-28-13-7c-3-2-7-3-9-6l-5-31 37-2 9 1c4 2 6 6 9 9 2 3 6 6 7 9h2c0-9 2-17 3-26 0-8 3-14 8-19l45-60 22-30c4-6 9-8 14-11l17-8c-2-6-7-11-10-16l-32-45c-7 2-14 8-20 9-3-10-10-19-14-29-9 6-21 12-29 19 2 3 0 9 1 13 0 14 2 29 1 43-24-17-48-31-71-48l26-25c9-8 19-18 29-21l-3-62-54 20c-8 3-17 8-24 8-16-3-35-5-49-9l-41-12-18-6c-22-10-47 9-70 0l-52-15c-5-1-12-5-16 2l-20 27c-4 6-12 13-12 20l15 78zm200-158c-1-4-4-9-6-10l-13-2c-7 0-14 3-18 6-4 5-3 12-5 17-2 7 2 12 6 17 2 3 4 7 8 6l10-1c3-1 2-8 2-10 1-6 0-13 4-15l12-8zm5 33c-3 4-6 12-7 16 12 4 25 13 37 11 7 0 15 1 21-1 4-4 8-11 10-15-3-3-6-3-10-5l-7-3c-2-8 0-19-1-27-14-4-28-6-41-11l-8 8c-2 2-5 4-4 6 2 7 6 14 10 21zm50-24c7 7 13 17 20 23l14-14-18-27h-2l-4 18h-10zm70 32l28 4c9 3 15 12 23 15l2 34-13 1c-1 5-5 10-5 16h16c3 0 8 0 11 2l22 21 11-9c2-3 7-5 7-8-4-9-14-18-16-26 5 3 13 8 18 9 0-7 4-14 4-21-10-4-17-14-27-18 0-6 3-13-1-16l-38-32c-4 0-7 2-10 3-4-4-6-12-9-18-5 3-12 2-15 5-4-3-4-9-6-12l-9 12-6 9c3 10 10 19 13 29zm45-44c14 4 27 12 41 17 9 4 22 8 31 13 4 7 4 17 7 24l20 73c6 0 11-3 17-4l14-5c7-5 12-12 19-18l14-14c7-6 17-8 26-13l26-11 10-60c2-10 2-23 8-30 6-8 14-15 19-23a861 861 0 01-97-8c-30-4-59 10-89 13h-24c-6 0-9 5-13 10l-15 18-8 9c-2 3-6 5-6 9z" fill="#99cc9b"/><path d="M131 298c1 11 7 21 12 30a100 100 0 008 11c3 2 6-3 7-5l5-7c5-9 12-21 12-31-2-13-13-20-25-19-10 1-19 11-19 21zm14 1c0 5 5 8 9 8 5-1 7-5 7-9-1-6-5-7-10-7-3 1-6 5-6 8z" fill="#ff5656"/></g></svg>