<svg xmlns="http://www.w3.org/2000/svg" height="500" width="1000"><g fill-rule="evenodd"><path d="M0 0h1000v500H0z"/><path d="M333.33 0H1000v500H333.33z" fill="#bf0000"/><path d="M666.67 0H1000v500H666.67z" fill="#090"/><g fill="#fff"><g stroke="#000" stroke-width=".6"><path d="M611.5 253.66c-.1.45 1.12 1.12 1.41.77 1.31-1.56 3.02-4.64 3.37-6.5.1-.54-1.64-1.16-2-.71-1.23 1.46-2.42 4.49-2.79 6.44zm-163.6 95.4c-1.31 4.61-20.53-4.33-22.67-8.96 11 5.82 22.92 4.6 22.66 8.97zm-60.76-94c.96 1.15 2.58.38 1.1-1.17-1.2-1.25-.8-1.64-1.54-3.16-.73-1.7-.69-2.64-1.57-3.86-.77-1.16-1.94.02-1.16 1 .98 1.14.71 1.99 1.31 3.1 1.11 1.9.84 2.9 1.86 4.1zm25.85 31.2a10.87 10.87 0 015.6 8.4c.26 3.56.77 6.57 2.37 9.1-2.54-.71-3.76-4.77-4.13-8.65-.36-4.02-2.53-5.76-3.84-8.85zm6.44 7.44c2.14 3.95 5.13 5.45 5.29 8.38.26 3.37.51 3.55 1.43 6.86-2.52-.67-3.16-.89-3.84-5.93-.42-3.55-3.25-6.05-2.88-9.31z" stroke-width="1"/><path d="M469.4 314.92c3.28 2.68 5.4 5.74 6.39 9.7a34.93 34.93 0 004.61 9.94 16.52 16.52 0 01-6.74-9.47 33.06 33.06 0 00-4.26-10.17zm61.26 0c-3.34 2.7-5.51 5.78-6.52 9.76a34.9 34.9 0 01-4.72 10 16.62 16.62 0 006.9-9.53c.97-3.83 2.13-6.7 4.34-10.23zm-4.1 0c-3.6 2.82-6.97 6.02-7.98 10-1.06 3.7-1.7 6.54-4.12 10.23 3.8-2.38 5.3-5.98 6.41-9.88.98-3.83 3.23-6.7 5.68-10.35zm-40.54 15.32c1.2 2.26 2.58 5.71 5.08 5.08.04-1.73-2.7-2.93-5.08-5.08zm3.73.76c4.86 2 9.05 1.5 9.58 4.56-4.56.5-6.23-1.38-9.58-4.55zm23.83-.47c-1.22 2.14-2.62 5.4-5.16 4.8-.04-1.64 2.74-2.77 5.16-4.8zm-3.41.65c-4.93 1.9-9.2 1.43-9.72 4.32 4.62.47 6.32-1.3 9.72-4.32z" stroke-width="1" stroke-linejoin="round"/><path d="M514.67 324.26c.1-.69-.37-1.3-.94-1.47a42.02 42.02 0 00-3.3-1.07c-1.24-.3-1.93.6-1.94 1.19 0 .97-.05 1.8 0 2.54.07.92.25.99.83 1.12.93.16 2.12.32 3.06.95.74.45 1.45.1 1.82-.71.24-.62.37-1.82.47-2.55zm-13.4 0c-.08-.69.29-1.35.8-1.53a6.8 6.8 0 013-.48c1.14-.01 1.43.25 1.44.83 0 .98.04 1.92 0 2.66-.06.92-.04 1-.56 1.13-.83.15-2.25.2-3.09.83-.66.45-1.42.1-1.45-.77a23.2 23.2 0 00-.13-2.67zm-16.25-.17c-.1-.7.37-1.3.94-1.48a42.36 42.36 0 013.31-1.06c1.25-.3 1.95.6 1.95 1.18.01.97.06 1.8 0 2.54-.06.92-.24.99-.82 1.12-.94.16-2.14.32-3.08.95-.74.46-1.46.1-1.83-.7-.24-.62-.37-1.82-.48-2.55zm13.45 0c.09-.7-.28-1.36-.78-1.54a6.85 6.85 0 00-3.02-.47c-1.15-.02-1.45.24-1.45.83 0 .97-.05 1.92 0 2.66.06.92.04.98.56 1.12.84.16 2.27.2 3.1.83.67.46 1.43.1 1.47-.77-.02-.65.03-1.93.12-2.66z" stroke-width="1"/></g><path d="M445.92 232.93c-1.57-2.52-3.44 3.48-9.87 7.94-3 2.04-5.08 7.47-5.1 11.04-.1 2.46.27 4.9 0 7.28-.17 1.5-1.74 4.83-.67 5.68 2.83 2.1 6.5 6.89 8.2 8.53 1.47 1.3 2.74-6.65 3.84-10.2 1.18-3.8.66-8.36 3.93-11.87 2.33-2.38 8.19-4.72 7.53-5.77z" stroke="#000" stroke-width=".9990882000000001"/><path d="M445.92 232.93c-1.56-2.52-3.44 3.48-9.87 7.94-3 2.04-5.08 7.47-5.1 11.04-.1 2.46.27 4.9 0 7.28-.17 1.5-1.74 4.83-.67 5.68 2.83 2.1 6.5 6.89 8.2 8.53 1.47 1.3 2.74-6.65 3.84-10.2 1.19-3.8.66-8.35 3.94-11.87 2.32-2.38 8.18-4.72 7.52-5.77z"/><g stroke="#000"><path d="M436.41 240.36c-.61 4.25 1.75 5.67 3.99 6.5 2.31.81 4.2 3.3 5.18 5.54M430.69 254.36c.98 3.67 3.55 3.2 5.78 4.03 2.31.82 4.75 3.75 5.72 6" stroke-width=".49954410000000005"/><path d="M443.74 230.33l1.18-.75 22.49 37.89-1.17.75z" stroke-width=".9990882000000001"/></g><path d="M443.75 230.34l1.17-.76 22.5 37.89-1.18.75z"/><path d="M446.17 228.83a2.6 2.6 0 01-2.6 2.6 2.6 2.6 0 01-2.59-2.6 2.6 2.6 0 012.6-2.6 2.6 2.6 0 012.59 2.6z" stroke="#000" stroke-width=".9990882000000001"/><path d="M446.17 228.83a2.6 2.6 0 01-2.6 2.6 2.6 2.6 0 01-2.58-2.6 2.6 2.6 0 012.59-2.6 2.6 2.6 0 012.6 2.6z"/><path d="M274.8 144.77c-1.04-1.66-2.28 2.3-6.53 5.25-1.98 1.35-3.35 4.93-3.37 7.3-.06 1.62.18 3.23 0 4.8-.11 1-1.15 3.2-.44 3.76 1.87 1.39 4.3 4.54 5.42 5.63.97.85 1.8-4.39 2.54-6.74.78-2.51.43-5.52 2.6-7.84 1.53-1.57 5.4-3.12 4.97-3.81z" stroke="#000" stroke-width=".65" transform="matrix(-1.513 0 0 1.56676 970.14 6.87)"/><path d="M554.39 233.7c1.56-2.6 3.43 3.6 9.86 8.22 3 2.1 5.08 7.73 5.1 11.42.1 2.54-.28 5.07 0 7.53.17 1.56 1.73 5 .67 5.89-2.83 2.18-6.5 7.12-8.2 8.83-1.47 1.33-2.74-6.89-3.84-10.56-1.18-3.94-.65-8.65-3.93-12.3-2.32-2.45-8.18-4.87-7.52-5.97z"/><g stroke="#000"><path d="M273.36 143.06l.77-.5 14.86 25.03-.77.5z" stroke-width=".65" transform="matrix(-1.513 0 0 1.56676 970.14 6.87)"/><path d="M268.43 149.76c-.4 2.81 1.24 3.67 2.72 4.21 1.52.55 2.86 2.07 3.5 3.55" stroke-width=".33" transform="matrix(-1.513 0 0 1.56676 970.14 6.87)"/></g><path d="M267.35 151.26c.65 2.42 2.26 2 3.74 2.55 1.53.54 3.14 2.32 3.78 3.8" transform="matrix(-1.513 0 0 1.56676 973.99 19.07)" stroke="#000" stroke-width=".33"/><path d="M556.56 231.01l-1.17-.78-22.49 39.21 1.17.78z"/><path d="M274.96 142.07a1.71 1.71 0 01-1.71 1.7 1.71 1.71 0 01-1.72-1.7 1.71 1.71 0 011.72-1.72 1.71 1.71 0 011.7 1.72z" stroke="#000" stroke-width=".65" transform="matrix(-1.513 0 0 1.56676 970.14 6.87)"/><path d="M554.13 229.45a2.6 2.68 0 002.6 2.69 2.6 2.68 0 002.59-2.69 2.6 2.68 0 00-2.6-2.68 2.6 2.68 0 00-2.59 2.68z"/><g stroke="#000" stroke-width=".66"><path d="M465.4 198.4h9.12v2.08h-9.12zm0 3.95h9.12v17.47h-9.12zm-.55-6.35l10.11.06c.4-3.43-3.02-7.13-5.02-7.1-1.98.1-5.17 3.75-5.09 7.04zm60.43 2.45h9.12v2.09h-9.12zm0 3.96h9.12v17.47h-9.12zM524.73 196.06l10.11.06c.4-3.43-3.03-7.13-5.02-7.1-1.98.1-5.17 3.75-5.09 7.04z" stroke-width=".9990882000000001"/></g><path d="M465.4 198.4h9.12v2.08h-9.12zm0 3.95h9.12v17.47h-9.12zm-.55-6.35l10.11.06c.4-3.43-3.02-7.13-5.02-7.1-1.98.1-5.17 3.75-5.09 7.04zm60.43 2.45h9.12v2.09h-9.12zm0 3.96h9.12v17.47h-9.12zm-.55-6.35l10.11.06c.4-3.43-3.02-7.13-5.02-7.1-1.98.1-5.17 3.75-5.09 7.04z"/><path d="M525.28 202.41h9.12v17.47h-9.12zm0-3.96h9.12v2.09h-9.12zm-.55-2.39l10.11.06c.4-3.43-3.02-7.13-5.02-7.1-1.98.1-5.17 3.75-5.09 7.04zm-59.33 6.3h9.12v17.46h-9.12zm0-3.97h9.12v2.1h-9.12zm-.55-2.39l10.11.06c.4-3.43-3.02-7.13-5.02-7.1-1.98.1-5.17 3.75-5.09 7.04z" stroke-width="1.33"/><path d="M457.82 222.79l5.8 6.39 72.14.11 5.91-6.38-18.45-.24-8.99-6.27-28.98-.12-8.4 6.5z" stroke="#000" stroke-width=".9990882000000001"/><path d="M457.82 222.79l5.8 6.39 72.14.11 5.91-6.38-18.45-.24-8.99-6.27-28.98-.12-8.4 6.5z"/><path d="M487.35 212.93l24.9-.03c3.38-1.78 4.43-7.48 4.42-10.66-.05-9.41-6.63-13.93-13.24-14.17-1-.05-2.14-.82-2.4-1.72-.65-2.05-.48-7.37-1.2-7.3-.63 0-.45 5.21-1.01 7.13a3 3 0 01-2.45 1.95c-8.23.41-13.53 6.41-13.32 14.1.14 5.1.73 8.13 4.3 10.7z" stroke="#000" stroke-width=".9990882000000001"/><path d="M487.35 212.93l24.91-.03c3.37-1.78 4.42-7.48 4.4-10.66-.04-9.42-6.62-13.93-13.23-14.17-.99-.05-2.14-.82-2.4-1.72-.65-2.05-.48-7.25-1.2-7.3-.51.06-.45 5.21-1.01 7.13a3 3 0 01-2.45 1.95c-8.22.41-13.53 6.41-13.32 14.1.14 5.1.73 8.13 4.3 10.7z"/><g stroke="#000" stroke-width=".33"><path d="M485.79 204.63c.62 3.1 2.12 2.63 2 1.13-.36-4.8.03-9.51 4.26-12.66 1.35-.98-.15-1.89-1.3-1.41-3.6 1.51-5.79 8.46-4.96 12.94z" stroke-width=".49954410000000005"/><path d="M489.98 206.58c.63 3.1 3.2 2.97 2.73.95-.97-3.87-.81-9.5 2.6-11.94 1.34-.98-.16-1.9-1.3-1.42-3.6 1.51-4.85 7.93-4.03 12.41z" stroke-width=".49954410000000005"/><path d="M301.46 125.42c.41 2.05 1.4 1.74 1.33.74-.24-3.16.01-6.28 2.81-8.36.89-.65-.1-1.25-.86-.93-2.38 1-3.82 5.59-3.28 8.55z" transform="matrix(-1.51538 0 0 1.51377 970.83 14.9)"/><path d="M302.08 125.07c.42 2.05 2.11 1.96 1.8.62-.63-2.55-.53-6.28 1.72-7.89.89-.64-.1-1.25-.86-.93-2.38 1-3.2 5.23-2.65 8.2z" transform="matrix(-1.51538 0 0 1.51377 967.57 17.38)"/></g><path d="M446.34 304.28h107.04l-9.58-7.81h-87.88z" stroke="#000" stroke-width=".9990882000000001"/><path d="M446.35 304.28h107.03l-9.58-7.81h-87.88z"/><g stroke="#000" stroke-width=".66"><path d="M464.91 234.02h10.18v14.08H464.9zm.6 22.12h9.81v2.96h-9.82zm-.24 5.2h10.05v11h-10.05zm-.71 13.25h11v6.15h-11zM465.9 253.5h8.87l1.76-2.92h-12.21zM477.86 242.71l.09-7.69h6.1a22.04 22.04 0 00-6.19 7.7zM534.57 234.02h-10v14.08h10zm-.17 22.12h-9.65v2.96h9.65zm.17 5.2h-9.82v11h9.82zm.64 13.25H524.4v6.15h10.8z" stroke-width=".9990882000000001"/><path d="M288.44 157.7h5.85l1.16-1.93h-8.06z" transform="matrix(-1.48822 0 0 1.51377 962.85 14.78)"/><path d="M296.23 150.57l.05-5.08h4.04a14.56 14.56 0 00-4.1 5.08z" transform="matrix(-1.48822 0 0 1.51377 962.68 14.78)"/></g><path d="M464.91 234.02h10.17v14.08h-10.17zm.6 22.12h9.81v2.96h-9.82zm-.24 5.2h10.05v11h-10.05zm-.71 13.25h11v6.15h-11z" stroke-width="1.33"/><path d="M465.9 253.5h8.87l1.76-2.92h-12.21zm11.97-10.79l.08-7.69h6.1a22.04 22.04 0 00-6.18 7.7z"/><path d="M534.57 234.02h-10v14.08h10zm-.17 22.12h-9.65v2.96h9.65zm.18 5.2h-9.83v11h9.83zm.63 13.25H524.4v6.15h10.81z" stroke-width="1.33"/><path d="M533.59 253.5h-8.71l-1.73-2.92h12zm-11.76-10.79l-.08-7.69h-6a21.97 21.97 0 016.08 7.7z"/><g stroke="#000" stroke-width=".33"><path d="M466.49 245.87c.06 1.65 1.92.91 1.92.09 0-2.54.04-5.29-.06-7.08-.02-1.33 3.15-1 3.13-.18l.05 7.59c-.02 1.22 2.05 1.12 2.02 0a1030.29 1030.29 0 010-8.94c.02-2.65-6.97-2.6-7.03-.05l-.03 8.57zM526.34 246.17c.06 1.64 1.92.9 1.92.08 0-2.54.03-5.28-.07-7.08-.01-1.32 3.16-1 3.14-.18l.05 7.6c-.03 1.22 1.98 1.11 1.96 0-.02-2.87.04-6.88.06-8.94.01-2.65-6.98-2.6-7.03-.06 0 2.09-.04 5.82-.03 8.58zM466.51 262.64h7.21v9h-7.21z" stroke-width=".49954410000000005"/></g><g stroke-width="1.33"><path d="M471.12 266.37h2.55v1.48h-2.55zm-4.43 0h2.48v1.48h-2.48zM469.17 262.76h1.95v3.67h-1.95zm0 5.03h1.95v3.9h-1.95z"/></g><path d="M526.12 262.59h7.21v8.98h-7.21z" stroke="#000" stroke-width=".49954410000000005"/><g stroke-width="1.33"><path d="M530.73 266.31h2.54v1.48h-2.54zm-4.43 0h2.48v1.48h-2.48z"/><path d="M528.78 262.7h1.95v3.67h-1.95zm0 5.03h1.95v3.9h-1.95z"/></g><path d="M519.56 263.12h1.24v8.93h-1.24z" stroke="#000" stroke-width=".9990882000000001"/><path d="M495.43 274.95l1.95 5.85h4.43l-3.54-5.86zm-2.48 5.85l1.12 5.8 5.2.05-1.89-5.85zm8.8.06l3.61 5.73h7.4l-5.8-5.8zm-43.64 13.13c3.93-3.65 6.43-6.76 6.45-11.24h9.58c.02 2.5.93 4 2.3 3.9l9.7-.06-.05-5.73h-7.04v-31.29c-.26-11.05 13.44-17.5 19.04-17.44l-33.3-.06v-1h70.02l.06 1-33.76.06c10 .02 19.67 9.5 19.75 17.5v8.87h-1.3l-.06-8.75c0-8.75-11.03-16.93-19.87-16.67-7.65.22-19.52 7.5-19.4 16.61v2.72l18.16.12-.18 3.14 2.85 1.82 5.68 1.8-.08 4.7 4.07 1.2.04 4.7 4.88 2.1v4.86l3.1 1.91-.14 4.94 4.2 2.95h-9.94l6.21 6.92h-9.16l-4.56-6.92h-6.03l2.72 6.86-6.44-.06-1.54-6.8h-7.87l.06 7.33zm28.1-18.99v5.8h6.74l-1.37-5.8z" stroke="#000" stroke-width=".9990882000000001"/><path d="M495.43 274.95l1.95 5.85h4.43l-3.54-5.86zm-2.48 5.85l1.12 5.8 5.2.05-1.89-5.85zm8.8.06l3.61 5.73h7.4l-5.8-5.8zm-43.63 13.13c3.92-3.65 6.42-6.76 6.44-11.24h9.58c.02 2.5.93 4 2.3 3.9l9.7-.06-.05-5.73h-7.04v-31.29c-.26-11.05 13.44-17.5 19.04-17.44l-33.3-.06v-1h70.02l.06 1-33.76.06c10.01.02 19.67 9.5 19.75 17.5v8.88h-1.3l-.06-8.76c0-8.75-11.03-16.93-19.87-16.67-7.65.22-19.52 7.5-19.4 16.61v2.72l18.16.12-.18 3.14 2.85 1.82 5.69 1.8-.09 4.7 4.07 1.2.04 4.7 4.88 2.1v4.86l3.1 1.91-.14 4.94 4.2 2.95h-9.94l6.21 6.92h-9.16l-4.56-6.92h-6.03l2.72 6.86-6.44-.06-1.54-6.8h-7.86l.05 7.33zM486.2 275v5.8h6.74l-1.36-5.8z"/><g stroke="#000" stroke-width=".33"><path d="M486.56 264.77h4.2v9.64h-4.2z" stroke-width=".49954410000000005"/><path d="M298.05 171.73h2.71l-.02-4.6c-.03-2 1.8-4 2.67-4.07.97-.04 2.4 1.88 2.45 3.92l.04 4.76h2.87V159.9l-10.72.06z" transform="matrix(1.51377 0 0 1.54377 29.45 9.98)"/><path d="M513.05 279.32h5.09v3.96h-5.09zm-3.01-6.8h5.08v3.96h-5.08zm-4.9-6.8h5.08v3.96h-5.09zm-4.2-5.74h5.08v3.96h-5.09z" stroke-width=".49954410000000005"/><path d="M497.56 275.12l5.2.18 9.29 8.22v-4.85l-3.14-2.25v-3.84l-4.55-2.6v-4.14l-4.43-1.48v-5.62l-2.25-1.83z" stroke-width=".49954410000000005"/></g><path d="M519.56 263.12h1.24v8.93h-1.24z"/><g stroke="#000" stroke-width=".66" stroke-linejoin="round"><path d="M429.02 172.67c.46 7.05-1.73 10.93-5.47 10.34-1.03-3.92 1.31-6.54 5.47-10.34zM420.82 188.3c-3.32-1.69-.92-14.59.35-20 .94 6.97 2.52 16.87-.35 20z" stroke-width=".9990882000000001"/><path d="M422.01 188.9c5.58 1.95 10-4.06 11.5-11.03-4.61 6.36-12.11 6.37-11.5 11.04zM417.77 195.42c-4.36-1.16-1.73-14.84-.94-20.32.96 5.66 3.97 18.44.94 20.32zM419.26 195c.25-4.72 4.95-3.36 8.2-5.88-.53 2.36-2.53 6.54-8.2 5.88zM413.91 201.31c-4.32-1.16-1.72-15.89-1.97-21.95 1.27 5.24 5.29 20.53 1.97 21.95zM415.94 200.68c3.54 1.15 8.24-1.15 8.6-5.37-3.04 2.07-7.92.49-8.6 5.37z" stroke-width=".9990882000000001"/><path d="M410.68 207.82c-4.13.33-2.28-12.22-2.28-23.9 1.52 10.92 5.66 20.91 2.28 23.9z" stroke-width=".9990882000000001"/><path d="M412.12 207.25c2.8 1.4 7.8-.84 9.23-5.56-5.05 2.2-8.42.05-9.23 5.56z" stroke-width=".9990882000000001"/></g><path d="M429.02 172.67c.45 7.05-1.73 10.93-5.47 10.34-1.03-3.92 1.31-6.54 5.47-10.34zm-8.2 15.63c-3.32-1.69-.92-14.59.35-20 .95 6.97 2.52 16.87-.35 20z"/><path d="M422.01 188.9c5.58 1.95 10-4.06 11.5-11.03-4.61 6.36-12.1 6.37-11.5 11.04zm-4.24 6.52c-4.36-1.16-1.73-14.84-.94-20.31.96 5.65 3.97 18.44.94 20.3zm1.5-.42c.24-4.72 4.94-3.36 8.19-5.88-.53 2.36-2.53 6.54-8.2 5.88zm-5.35 6.31c-4.33-1.16-1.73-15.89-1.98-21.95 1.27 5.24 5.29 20.53 1.97 21.95zm2.02-.63c3.54 1.15 8.24-1.15 8.6-5.37-3.04 2.07-7.92.49-8.6 5.37z"/><path d="M410.69 207.82c-4.14.33-2.29-12.22-2.29-23.9 1.52 10.92 5.66 20.92 2.29 23.9z"/><path d="M412.12 207.25c2.8 1.4 7.8-.84 9.23-5.56-5.05 2.2-8.42.05-9.23 5.56z"/><g stroke="#000" stroke-width=".66" stroke-linejoin="round"><path d="M444.6 179.2c-.73 6.12-3.23 9.68-6.97 9.09-1.03-3.91 2-6.42 6.97-9.1zm-9.88 15.7c6.2.89 8.44-3.87 12.62-9.96-5.86 4.23-12.86 5.11-12.62 9.97z" stroke-width=".9990882000000001"/><path d="M432.95 194.2c-3.38-4.06-.11-9.16 2.47-13.5-.55 6.46 1.65 10.06-2.47 13.5zm-1.5 6.7c-.38-3.96 6.39-4.84 9.45-7.05-1.03 2.3-2.6 8.47-9.45 7.06z" stroke-width=".9990882000000001"/><path d="M430.04 201c-4.68-.53-2.74-8.47.62-12.89-1.41 6.1 2.47 10.33-.62 12.89z" stroke-width=".9990882000000001"/><path d="M426.51 207.62c-5.32-2.36-1.91-9.03.09-12.98-.85 5.18 3.41 9.12-.09 12.98z" stroke-width=".9990882000000001"/><path d="M427.57 207c2.8 3.65 8.24-1.09 9.35-6.62-4.73 3.94-8.23 3.3-9.35 6.62z" stroke-width=".9990882000000001"/></g><path d="M444.6 179.2c-.73 6.12-3.23 9.68-6.97 9.09-1.03-3.91 2-6.41 6.97-9.1zm-9.88 15.7c6.2.89 8.44-3.88 12.62-9.96-5.85 4.23-12.86 5.11-12.62 9.97z"/><path d="M432.95 194.2c-3.38-4.06-.11-9.16 2.47-13.5-.55 6.46 1.65 10.06-2.47 13.5zm-1.5 6.7c-.38-3.96 6.39-4.84 9.45-7.05-1.03 2.3-2.6 8.47-9.45 7.06z"/><path d="M430.04 201c-4.68-.53-2.73-8.47.62-12.89-1.41 6.1 2.47 10.33-.62 12.89z"/><path d="M426.51 207.62c-5.32-2.36-1.91-9.03.09-12.98-.85 5.18 3.41 9.12-.09 12.98z"/><path d="M427.57 207c2.8 3.65 8.24-1.09 9.36-6.62-4.74 3.94-8.24 3.3-9.36 6.62z"/><g stroke="#000" stroke-width=".66" stroke-linejoin="round"><path d="M555.72 179.81c.7 3.18.88 9.45 6.53 8.21.82-5.82-3.91-6.09-6.53-8.2z" stroke-width=".9990882000000001"/><path d="M565.34 194.82c-.2-6-6.68-4.68-12.27-9.62 1.53 5.2 6.94 11.56 12.27 9.62z" stroke-width=".9990882000000001"/><path d="M566.66 194.11c3.8-2.62.88-8.32-2.65-13.32 1.33 5.44-1.58 10.44 2.65 13.32zm1.68 6.8c-6.12.47-7.2-2.59-9.62-6.53 4.18 2.7 9.76 1 9.62 6.53zm1.5.18c-2.91-2.39.7-7.5-.53-12.62 2.3 3.23 5.82 10.97.53 12.62z" stroke-width=".9990882000000001"/><path d="M572.4 207.44c-6.12 1.44-8.1-1.8-9.62-7.24 4.97 4.56 7.73 2.41 9.62 7.24z" stroke-width=".9990882000000001"/><path d="M573.28 207.35c4.27-.06 2.35-8.5.18-12.35.58 4.64-3.15 10-.18 12.35z" stroke-width=".9990882000000001"/></g><path d="M555.72 179.81c.7 3.18.88 9.45 6.53 8.21.82-5.82-3.91-6.09-6.53-8.2z"/><path d="M565.34 194.82c-.2-6-6.68-4.68-12.27-9.62 1.53 5.2 6.94 11.56 12.27 9.62z"/><path d="M566.66 194.11c3.8-2.62.88-8.32-2.65-13.32 1.33 5.44-1.58 10.44 2.65 13.32zm1.68 6.8c-6.12.47-7.2-2.59-9.62-6.53 4.18 2.7 9.77 1 9.62 6.53zm1.5.18c-2.91-2.39.7-7.5-.53-12.62 2.3 3.23 5.83 10.97.53 12.62z"/><path d="M572.4 207.44c-6.12 1.44-8.1-1.8-9.62-7.24 4.97 4.56 7.74 2.42 9.62 7.24z"/><path d="M573.28 207.35c4.27-.06 2.35-8.5.18-12.35.59 4.65-3.15 10-.18 12.35z"/><g stroke="#000" stroke-width=".66" stroke-linejoin="round"><path d="M570.68 172.72c.76 3.53-.72 10.5 4.93 10.45 2.36-3.99-2.67-7.74-4.93-10.45z" stroke-width=".9990882000000001"/><path d="M579.15 188.47c3.56-2.44.35-10.45-.75-19.47-.86 8.04-2.77 16.83.75 19.47z" stroke-width=".9990882000000001"/><path d="M577.24 189.1c.44-4.41-6.5-5.4-11.26-11.22 1.23 4.67 4.75 11.5 11.26 11.21zM582 195.95c-3.75-3.39.7-13.12.88-20.66.58 6.96 3.64 19.43-.89 20.66zM579.87 194.98c-5.47.35-6.92-3.66-7.55-5.94 2.93 2.11 7.58 1.12 7.55 5.94zM585.35 201.02c4.2-.18 2.65-16.13 2.07-21.17-.42 5.36-4.8 19.23-2.07 21.17zM583.51 200.73c-3.63.55-7.32-1.56-8.32-5.17 3.14 1.37 8.33.29 8.32 5.17z" stroke-width=".9990882000000001"/><path d="M588.73 207.64c4.5 1.83 2.9-18.97 2.3-23.77-.4 6.13-5.74 21.18-2.3 23.77z" stroke-width=".9990882000000001"/><path d="M587.68 207.64c-4.52.67-7.85-2.09-9.15-5.87 4.62 1.72 8.21 1.1 9.15 5.87z" stroke-width=".9990882000000001"/></g><path d="M584.42 232.31c.55-5.43-3.6-15.3-.66-20.57.4-.73-.88-2.65-1.71-1.48-1.3 1.86-2.63 7.16-3.2 5.2-.58-2.13-.68-5.9-2.6-6.62-1.22-.43-2.95-.71-2.48 1.18.47 1.82 1.52 4.33.36 4.5-.68.1-2.62-2.48-4.26-3.67-1.32-1.06-3.3.6-1.36 2.19 6.27 5.11 12.35 7.41 15.9 19.27z" stroke="#000" stroke-width=".9990882000000001"/><path d="M584.42 232.31c.55-5.43-3.6-15.3-.65-20.58.4-.72-.89-2.64-1.72-1.47-1.3 1.86-2.63 7.16-3.2 5.2-.58-2.13-.67-5.9-2.6-6.62-1.22-.43-2.95-.71-2.48 1.18.47 1.82 1.52 4.33.36 4.5-.68.1-2.62-2.48-4.26-3.67-1.32-1.06-3.3.6-1.36 2.19 6.27 5.11 12.35 7.41 15.9 19.27zm-13.74-59.59c.76 3.53-.71 10.51 4.93 10.46 2.36-4-2.67-7.75-4.93-10.46z"/><path d="M579.15 188.47c3.56-2.44.35-10.45-.75-19.47-.86 8.04-2.77 16.83.76 19.47z"/><path d="M577.24 189.1c.45-4.41-6.5-5.4-11.26-11.22 1.23 4.67 4.75 11.5 11.26 11.21zm4.76 6.85c-3.75-3.39.7-13.12.88-20.66.58 6.96 3.64 19.43-.88 20.66zm-2.13-.97c-5.47.35-6.91-3.66-7.55-5.94 2.93 2.11 7.58 1.12 7.55 5.94zm5.48 6.04c4.2-.18 2.65-16.13 2.07-21.17-.42 5.36-4.8 19.23-2.07 21.17zm-1.84-.29c-3.63.55-7.32-1.56-8.31-5.17 3.13 1.37 8.32.29 8.31 5.17z"/><path d="M588.74 207.64c4.5 1.83 2.88-18.97 2.3-23.77-.42 6.13-5.75 21.18-2.3 23.77z"/><path d="M587.68 207.64c-4.52.67-7.85-2.09-9.14-5.87 4.61 1.72 8.2 1.1 9.14 5.87z"/><path d="M244.38 141.09c-1.01-1.06-.72-1.47.78-1.49 1.2-.07 3.56.73 4.46.08.82-.6.5-3.13.86-4.3.16-.65.61-1.67 1.64-.07 3.03 4.85 6.82 10.69 8.44 16.4.88 3.2.44 8.36-2.97 11.1l-2.42-7.04c-1.15-3.34-7.35-11.36-10.79-14.68z" stroke="#000" stroke-width=".66" transform="matrix(-1.50655 0 0 1.51377 968.35 15.11)"/><path d="M600.17 228.69c1.53-1.61 1.1-2.23-1.17-2.25-1.8-.11-5.36 1.1-6.71.12-1.24-.9-.75-4.74-1.3-6.5-.24-1-.93-2.54-2.47-.13-4.57 7.36-10.28 16.19-12.71 24.84-1.34 4.85-.67 12.65 4.47 16.8l3.65-10.65c1.73-5.06 11.07-17.2 16.24-22.23z"/><g stroke="#000" stroke-width=".66" stroke-linejoin="round"><path d="M605.29 215.46c-2.06 6.62-3.3 12.04-.32 12.68 3.17-.55 1.8-6.94.32-12.68zM605.08 234.03c3.38 1.8 7.03-6.83 6.27-13.63-1.7 5.83-7.45 9.43-6.27 13.63zM603.83 233.87c.52-4.71-1.41-4.59-3.94-9.08.27 5.08 1.53 9.34 3.94 9.08z" stroke-width=".9990882000000001"/><path d="M604.94 240.75c3.95 1.13 8.48-8.28 8.31-15.24-1.64 7.7-10.22 10.78-8.3 15.24z" stroke-width=".9990882000000001"/><path d="M603.64 240.6c1.59-3.66-1.64-3.21-3.79-9.74-.7 6.76.32 9.85 3.8 9.73zM604.8 247.68c5.12.89 7.77-10.44 10.31-15.86-5.04 7.11-11.08 11.07-10.32 15.86z" stroke-width=".9990882000000001"/><path d="M603.6 247.3c1.5-4.18-2.74-3.95-4.97-10.19.35 7.92 1.38 10.77 4.97 10.18zM605.07 254.48c3.25.24 9.08-8.82 9.2-14.41-2.77 6.16-11.46 10.24-9.2 14.41z" stroke-width=".9990882000000001"/><path d="M602.68 253.43c1.34-4.35-2.42-4.38-4.1-9.26-.11 7.36 1.04 9.85 4.1 9.26zM602.8 261.3c5.71 1 7.18-6.55 10.55-14.22-3.33 6.1-10.85 9.53-10.56 14.21z" stroke-width=".9990882000000001"/><path d="M602.38 260.24c1.85-3.93-2.44-3.94-4.73-9.82-.12 8.32 1.32 10.77 4.73 9.82z" stroke-width=".9990882000000001"/></g><path d="M605.3 215.46c-2.07 6.62-3.3 12.04-.33 12.68 3.17-.55 1.8-6.94.32-12.68zm-.22 18.57c3.38 1.8 7.03-6.83 6.27-13.63-1.7 5.83-7.44 9.43-6.27 13.63zm-1.25-.16c.52-4.71-1.4-4.59-3.94-9.08.27 5.08 1.53 9.34 3.94 9.08z"/><path d="M604.94 240.75c3.95 1.13 8.48-8.28 8.31-15.24-1.64 7.7-10.22 10.78-8.3 15.24z"/><path d="M603.65 240.6c1.58-3.65-1.65-3.2-3.8-9.74-.7 6.76.32 9.85 3.8 9.73zm1.14 7.09c5.13.88 7.78-10.44 10.32-15.87-5.04 7.11-11.08 11.07-10.32 15.87z"/><path d="M603.6 247.3c1.5-4.18-2.74-3.95-4.97-10.19.36 7.92 1.38 10.77 4.97 10.18zm1.48 7.18c3.24.24 9.07-8.82 9.2-14.41-2.77 6.16-11.47 10.24-9.2 14.41z"/><path d="M602.68 253.43c1.35-4.35-2.42-4.38-4.1-9.26-.11 7.36 1.04 9.85 4.1 9.26zm.11 7.86c5.72 1 7.19-6.54 10.56-14.2-3.33 6.1-10.85 9.52-10.56 14.2z"/><path d="M602.38 260.25c1.86-3.94-2.44-3.95-4.73-9.83-.12 8.33 1.32 10.77 4.73 9.83z"/><path d="M256.8 166.87c3.34.01 4-4.69 4-5.94-1.65.31-4.62 3.28-4 5.94z" stroke="#000" stroke-width=".66" transform="matrix(-1.5066 0 0 1.51377 968.51 14.9)"/><path d="M581.61 267.5c-5.02.02-6-7.1-6-8.99 2.47.47 6.94 4.97 6 8.99z"/><g stroke="#000" stroke-width=".66" stroke-linejoin="round"><path d="M591.64 235.15c-2.06 6.62-2.88 9.8-.09 11.92 3.65-2.03 1.56-6.18.09-11.92zm-1.15 17.3c1.53-4.88-2.23-6.06-4.23-11.56-.2 7.26.82 12.59 4.23 11.56z" stroke-width=".9990882000000001"/><path d="M592 253.5c2.67 1.04 5.96-5.17 4.14-11.38-1.88 5.6-6.5 6.95-4.15 11.39zM589.17 259.07c2.59-4-1.53-4.2-3.62-9.8-.12 7.36.56 10.39 3.62 9.8z" stroke-width=".9990882000000001"/><path d="M589.17 265.95c1.97-4.53-2.33-3.94-4.85-9.53-.12 8.33 1.26 10.12 4.85 9.53zM591.11 259.33c2.24.06 6.59-3.85 5.3-8.73-1.89 4.09-7.21 3.67-5.3 8.73z" stroke-width=".9990882000000001"/><path d="M590.5 265.25c3.64.76 6.4-4.83 6-8.65-2.86 3.56-6.77 3.85-6 8.65z" stroke-width=".9990882000000001"/></g><path d="M591.64 235.15c-2.06 6.62-2.88 9.8-.09 11.92 3.65-2.03 1.56-6.18.09-11.92zm-1.15 17.3c1.53-4.88-2.23-6.06-4.23-11.56-.2 7.26.82 12.59 4.23 11.56z"/><path d="M592 253.5c2.67 1.04 5.97-5.17 4.14-11.38-1.88 5.6-6.5 6.95-4.15 11.39zm-2.83 5.57c2.59-4-1.53-4.2-3.62-9.8-.11 7.36.56 10.39 3.62 9.8z"/><path d="M589.17 265.95c1.97-4.53-2.32-3.94-4.85-9.53-.12 8.33 1.26 10.12 4.85 9.53zm1.94-6.62c2.24.06 6.59-3.85 5.3-8.73-1.89 4.09-7.21 3.67-5.3 8.73z"/><path d="M590.5 265.25c3.64.76 6.4-4.83 6-8.65-2.86 3.56-6.77 3.85-6 8.65z"/><path d="M235.63 159.06c-.3-.39-1.15 0-.93.93.2 1.26 2.05 7.7 5.23 9.93 2.27 1.63 14.2 4.27 19.61 5.39a12.6 12.6 0 017.42 4.45 79.2 79.2 0 00-2.5-8.2c-1.01-2.47-3.7-5.17-6.48-5.32-5.17-.18-11.86-.62-16.72-2.73-2.51-1.05-4.01-2.46-5.63-4.45z" stroke="#000" stroke-width=".66" transform="matrix(-1.50655 0 0 1.51377 968.35 15.11)"/><path d="M613.35 255.89c.45-.58 1.74.01 1.42 1.42-.3 1.9-3.1 11.66-7.89 15.02-3.42 2.47-21.4 6.46-29.54 8.16-4.49.9-8.24 3.15-11.19 6.74 1.22-4.7 2.2-8.17 3.77-12.42 1.53-3.74 5.58-7.82 9.77-8.04 7.79-.28 17.87-.95 25.19-4.14 3.78-1.59 6.04-3.73 8.47-6.74z"/><g stroke="#000" stroke-width=".66" stroke-linejoin="round"><path d="M602.35 278.92c.82-3.28-.23-4.34.67-9.49-4.93 6.62-3.08 9.75-.67 9.5z" stroke-width=".9990882000000001"/><path d="M602.89 279.74c3.26.91 11.76-6.53 12.01-12.1-2.3 4-13.78 8.31-12.01 12.1zM597.55 284.65c2.24-1.23 1.6-6.4-.42-8.14-.41 5.04-3.46 8.01.42 8.14z" stroke-width=".9990882000000001"/><path d="M599.85 286.05c3.96 1.24 8.43-5.92 11.69-9.03-3.72 3.2-14.96 4.74-11.69 9.03zM594.42 289.61c2.77-1.81.18-5.39 0-12.45-2.79 5.1-3.35 12.1 0 12.45z" stroke-width=".9990882000000001"/><path d="M594.95 291.43c1.4 1.9 11.85-4.62 14.46-9.45-8.92 6.64-16.79 5.75-14.46 9.45zM593.9 297.32c2.57-1.87-2.2-6.78-3.2-13.38.07 8.04-1.03 14.14 3.2 13.38z" stroke-width=".9990882000000001"/><path d="M596.69 295.1c1.29 2.07 9.25-3.4 12.69-9.35-5.28 4.63-14.17 5.86-12.69 9.36zM588.54 304.1c2.89-.5 2.5-7.8.3-13.75-2.5 7.18-3.6 14.46-.3 13.76z" stroke-width=".9990882000000001"/><path d="M595.8 300.13c.99 1.18 12.73-7.05 12.56-10.4-3.72 5.34-16.14 6.4-12.57 10.4zM582.16 310.92c3.98-1.63 2.1-8.08 2.9-15.03-3.14 6.8-6.85 13.6-2.9 15.03z" stroke-width=".9990882000000001"/><path d="M589.6 305.34c.64 2.19 10.2-1.86 14.82-8.53-5.58 4.33-16.4 4.92-14.81 8.53z" stroke-width=".9990882000000001"/><path d="M583.43 311.96c2.06 3.43 13.92-2.85 15.65-8.74-3.84 5.1-17.09 4.33-15.65 8.74z" stroke-width=".9990882000000001"/><path d="M588.87 314.62c2.18.24 7.24-3.91 8.67-6.08-4.07 2.02-9.57 4.8-8.67 6.08z" stroke-width=".9990882000000001"/></g><g stroke="#000" stroke-width=".66" stroke-linejoin="round"><path d="M571 289.14c2.6.37 5.98-4.38 3.72-9.2-1.12 4.8-8.67 8.3-3.72 9.2zM576.56 286.29c2 1.12 7.06-4.27 6.42-7.8-2.83 4.51-8.51 5.81-6.42 7.8z" stroke-width=".9990882000000001"/><path d="M570.64 294.21c1.95 1.9 11.5-7.81 14.35-12.23-8.27 7.05-16.73 8.83-14.35 12.23zM568.37 300.02c1.52 2.3 7.89-4.65 11.91-10.43-5.1 5.04-13.74 7.35-11.91 10.43z" stroke-width=".9990882000000001"/><path d="M569 294.48c1.57-4.11-1.02-4.77-2.18-9.88-2.3 2.82-2.05 10.64 2.19 9.88zM566.46 300.16c3.1-.87-1.9-6.13-2.96-9.89-.47 6.91-.39 10.36 2.96 9.89zM563.45 305.12c2.86-1.04-1.62-3.64-2.07-9.4-1.42 2.11-2.17 10.17 2.07 9.4z" stroke-width=".9990882000000001"/><path d="M559.18 306.35c1.82-.99 1.07-5.69-1.73-6.3-.65 3.68-.56 6.35 1.73 6.3z" stroke-width=".9990882000000001"/></g><path d="M571 289.14c2.6.37 5.99-4.38 3.72-9.2-1.12 4.8-8.67 8.3-3.72 9.2zm5.56-2.85c2 1.12 7.06-4.27 6.42-7.8-2.83 4.51-8.51 5.81-6.42 7.8z"/><path d="M570.64 294.21c1.95 1.9 11.5-7.82 14.35-12.23-8.27 7.05-16.73 8.83-14.34 12.23zm-2.27 5.8c1.52 2.3 7.89-4.64 11.92-10.42-5.1 5.04-13.75 7.35-11.92 10.42z"/><path d="M569 294.48c1.57-4.11-1.01-4.77-2.18-9.88-2.3 2.82-2.05 10.64 2.19 9.88zm-2.53 5.68c3.1-.87-1.91-6.13-2.96-9.89-.48 6.91-.4 10.36 2.96 9.89zm-3.02 4.96c2.86-1.04-1.61-3.64-2.07-9.4-1.42 2.11-2.17 10.17 2.07 9.4z"/><path d="M559.18 306.35c1.82-.99 1.07-5.69-1.73-6.3-.65 3.68-.56 6.35 1.73 6.3zm43.17-27.43c.82-3.28-.23-4.34.67-9.49-4.93 6.62-3.08 9.75-.67 9.5z"/><path d="M602.89 279.74c3.27.91 11.77-6.53 12.01-12.1-2.3 4-13.77 8.31-12.01 12.1zm-5.34 4.9c2.24-1.22 1.61-6.39-.42-8.14-.41 5.05-3.46 8.02.42 8.14z"/><path d="M599.86 286.05c3.95 1.24 8.42-5.92 11.68-9.03-3.72 3.2-14.96 4.74-11.68 9.03zm-5.44 3.56c2.77-1.81.19-5.39 0-12.45-2.79 5.1-3.35 12.1 0 12.45z"/><path d="M594.95 291.43c1.4 1.9 11.85-4.62 14.46-9.45-8.92 6.64-16.79 5.75-14.46 9.45zm-1.05 5.89c2.57-1.87-2.2-6.78-3.2-13.37.07 8.03-1.03 14.13 3.2 13.37z"/><path d="M596.7 295.1c1.28 2.07 9.24-3.4 12.68-9.35-5.28 4.63-14.16 5.86-12.69 9.36zm-8.16 9.01c2.9-.51 2.5-7.81.3-13.76-2.5 7.18-3.6 14.47-.3 13.76z"/><path d="M595.8 300.13c.99 1.18 12.73-7.05 12.56-10.39-3.71 5.33-16.13 6.4-12.57 10.4zm-13.64 10.8c3.98-1.64 2.1-8.09 2.9-15.04-3.14 6.8-6.84 13.6-2.9 15.03z"/><path d="M589.6 305.34c.64 2.19 10.2-1.86 14.82-8.53-5.57 4.33-16.4 4.92-14.81 8.53z"/><path d="M583.43 311.96c2.06 3.43 13.93-2.85 15.65-8.74-3.84 5.1-17.08 4.33-15.65 8.74z"/><path d="M588.87 314.62c2.18.24 7.24-3.91 8.67-6.08-4.07 2.02-9.57 4.8-8.67 6.08z"/><path d="M235.83 159.52c-.38-.31-.88-.76-.7.17 1.4 7.41 1.85 9.49 8.35 12.05 6.6 2.5 8.96 1.63 14.58 1.53 3.04-.11 6.57 1.4 8.68 3.62.98 1.03 1.68 1.44 1.29.13-.4-1.32-.78-3.02-1.4-4.38-1.35-3-4.83-5.87-8.32-7.01-4.88-1.72-10.14-.86-15.16-2.17a20.72 20.72 0 01-7.32-3.94z" stroke="#000" stroke-width=".66" transform="matrix(-1.32647 -.71768 -.71426 1.33283 1022 271.4)"/><path d="M595.25 314.76c.72-.13 1.7-.38.8.74-7.16 8.87-9.23 11.31-19.67 10.06-10.55-1.39-13.07-4.26-20.45-8.42-3.95-2.33-9.71-2.84-14.09-1.4-2.03.67-3.26.7-1.8-.76 1.46-1.47 3.18-3.46 4.98-4.83 3.93-3.04 10.6-4.35 16.04-3.38 7.7 1.22 14.06 6.14 21.66 8 4 .92 8.37.78 12.52 0z"/><path d="M287.66 208.42c.88.1 1.44 1.82 1.88.66.74-1.87.22-3.37-.6-3.2-.99.26-2.64 2.45-1.28 2.54z" stroke="#000" stroke-width=".66" transform="matrix(-1.49606 0 0 1.51377 965.28 14.86)"/><path d="M534.93 330.36c-1.32.17-2.16 2.76-2.81 1-1.1-2.84-.33-5.1.9-4.85 1.47.4 3.95 3.72 1.9 3.85z"/><g stroke="#000" stroke-width=".66" stroke-linejoin="round"><path d="M549.4 318.8c3.75.98 4.72-3.34 5.09-6.47-3.38.72-6.91 2.68-5.08 6.47z" stroke-width=".9990882000000001"/><path d="M369.88 155.77c.66 1.9 5.24-.65 5.86-3.5-3.2 2.38-6.8.58-5.86 3.5z" transform="matrix(1.50432 .16895 -.16895 1.50431 17.8 25.82)"/><path d="M369.35 155.59c.74 2.11 3.19-.63 6.12-2.39-3.04.26-6.9.36-6.12 2.39z" transform="matrix(.72865 -1.32687 1.32687 .72864 69.72 699.2)"/><path d="M541.07 327.44c3.64.46 1.33-6.57.34-11.3-1.2 4.38-3.83 10.91-.34 11.3z" stroke-width=".9990948"/><path d="M543.22 327.6c.44 3.97 7.98-.48 12.36-2.92-5.8.9-13-.98-12.36 2.92zM539.08 333.16c.45 3.97 7.98-.48 12.36-2.92-5.79.9-13-.98-12.36 2.92z" stroke-width=".9990882000000001"/><path d="M537.16 333c3.47.1.92-7.46-.07-12.18-1.2 4.38-3.47 12.03.07 12.18zM534.17 337.83c.45 3.97 7.33.06 11.6-2.68-5.86 1.25-12.25-1.22-11.6 2.68z" stroke-width=".9990882000000001"/></g><path d="M549.4 318.8c3.75.97 4.73-3.34 5.1-6.48-3.38.73-6.92 2.69-5.1 6.48zm-1.49 3.83c.66 2.98 7.99-.1 9.41-4.27-5.2 3.03-10.34-.27-9.4 4.27z"/><path d="M545.3 322.48c3.34.55 1.48-4.69 1.28-9.86-1.87 4.22-4.55 9.41-1.29 9.86zm-4.23 4.96c3.64.46 1.33-6.57.34-11.29-1.2 4.38-3.83 10.9-.34 11.29z"/><path d="M543.22 327.6c.45 3.98 7.98-.47 12.36-2.92-5.79.9-13-.98-12.36 2.92zm-4.14 5.56c.45 3.97 7.98-.48 12.36-2.92-5.79.9-13-.98-12.36 2.92z"/><path d="M537.16 333c3.47.1.92-7.46-.07-12.18-1.2 4.38-3.47 12.03.07 12.18zm-2.98 4.83c.44 3.98 7.32.06 11.58-2.68-5.84 1.25-12.23-1.22-11.58 2.68z"/><g stroke="#000" stroke-width=".66" stroke-linejoin="round"><path d="M572.9 331.17c2.06 3.42 9.66-2.5 13.8-5.55-5.96 1.84-15.24 1.14-13.8 5.55z" stroke-width=".9990882000000001"/><path d="M565.14 334.73c.74 3.93 13.57.68 15.4-2.23-5.9 2.5-16.1-1.17-15.4 2.23z" stroke-width=".9990882000000001"/><path d="M559.1 337.73c.38 2.15 10.2 1.33 15.16-.34-5.37.67-16.16-3.12-15.17.34z" stroke-width=".9990882000000001"/><path d="M553.97 340.3c.03 1.97 11.44 3.1 15.28-.1-7.67 1.14-16.04-4.66-15.28.1z" stroke-width=".9990882000000001"/><path d="M544.95 342.14c-.44 2.75 11.97 2.17 15.87.8-6.66-.52-15.27-4.84-15.87-.8z" stroke-width=".9990882000000001"/><path d="M369.84 156.21c.94 2.33 8.48-2.48 11.31-4.83-4.94 1.88-12.58 2.59-11.31 4.83z" transform="matrix(1.3675 -.64919 .6492 1.3675 -62.4 366.12)"/><path d="M370.05 156.49c1.36 2.26 5.48-1.7 8.17-4.77-3.34 2.16-9.12 1.85-8.17 4.77z" transform="matrix(1.3675 -.64919 .6492 1.3675 -54.71 363.95)"/><path d="M369.77 156.44c1.36 2.26 4.56-1.58 6.34-4.09-2.48 1.71-7.29 1.17-6.34 4.09z" transform="matrix(1.3675 -.64919 .6492 1.3675 -47.85 361.6)"/><path d="M369.35 155.59c1.36 2.26 5.6-.22 6.74-4.1-2.54 3.36-7.69 1.19-6.74 4.1z" transform="matrix(1.3675 -.64919 .6492 1.3675 -40.5 358.6)"/><path d="M552.96 348.83c1.64 4.18 18.9-3.65 21.79-8.88-5.55 4.69-23.4 4.05-21.8 8.88z" stroke-width=".9990882000000001"/></g><path d="M572.9 331.17c2.06 3.42 9.66-2.5 13.8-5.55-5.95 1.84-15.24 1.13-13.8 5.55z"/><path d="M565.14 334.73c.74 3.93 13.57.68 15.4-2.23-5.9 2.5-16.1-1.17-15.4 2.23z"/><path d="M559.1 337.73c.38 2.15 10.2 1.33 15.16-.34-5.37.67-16.16-3.11-15.16.34z"/><path d="M553.97 340.3c.03 1.97 11.44 3.1 15.28-.1-7.67 1.14-16.04-4.66-15.28.1z"/><path d="M544.95 342.14c-.44 2.75 11.97 2.17 15.87.8-6.66-.52-15.27-4.84-15.87-.8z"/><path d="M544.76 339.64c2.8 2.57 10-8.9 12.34-13.95-5.54 5.78-15.53 11.71-12.34 13.95z"/><path d="M552.93 337.7c3.33 2.22 6.38-5.88 8.08-11.82-3.18 5.13-11.27 8.46-8.08 11.83z"/><path d="M559.37 335.48c3.33 2.22 5.2-5.11 6-9.7-2.27 3.95-9.2 6.34-6 9.7z"/><path d="M565.6 331.59c3.33 2.2 7.52-3.94 6.55-10-1.28 6.25-9.74 6.63-6.55 10zm-12.64 17.24c1.64 4.18 18.9-3.65 21.79-8.88-5.54 4.69-23.4 4.05-21.8 8.88z"/><path d="M366.62 143.7c.36-3.58-2.39-10.11-.43-13.59.26-.48-.59-1.75-1.14-.98-.86 1.23-1.74 4.74-2.1 3.44-.4-1.4-.46-3.9-1.73-4.37-.8-.29-1.95-.47-1.64.78.31 1.2 1 2.86.24 2.97-.45.06-1.73-1.64-2.81-2.42-.88-.7-2.18.4-.9 1.44 4.14 3.38 8.16 4.9 10.5 12.73z" stroke="#000" stroke-width=".66" transform="matrix(-1.48635 0 0 1.51377 960.32 15.13)"/><path d="M415.4 232.67c-.54-5.43 3.54-15.31.64-20.58-.4-.72.87-2.64 1.68-1.48 1.28 1.86 2.6 7.16 3.14 5.2.58-2.12.67-5.89 2.55-6.62 1.2-.43 2.9-.7 2.44 1.19-.46 1.82-1.49 4.33-.35 4.49.67.1 2.58-2.48 4.19-3.67 1.3-1.06 3.23.6 1.33 2.19-6.16 5.12-12.13 7.42-15.62 19.28z"/><path d="M404.34 314.43c-.73-.14-1.72-.38-.82.74 7.2 8.87 9.28 11.3 19.77 10.06 10.6-1.4 13.13-4.26 20.55-8.43 3.96-2.32 9.76-2.84 14.15-1.4 2.05.67 3.29.71 1.82-.75-1.47-1.47-3.2-3.47-5-4.84-3.95-3.03-10.66-4.35-16.13-3.37-7.73 1.21-14.12 6.14-21.76 8-4.01.91-8.41.77-12.58 0z" stroke="#000" stroke-width=".9990882000000001"/><path d="M404.34 314.43c-.73-.14-1.72-.38-.81.74 7.2 8.87 9.27 11.3 19.77 10.06 10.6-1.4 13.12-4.26 20.54-8.43 3.97-2.32 9.76-2.84 14.16-1.4 2.04.67 3.28.71 1.81-.75-1.47-1.47-3.2-3.46-5-4.84-3.95-3.03-10.66-4.35-16.12-3.37-7.74 1.21-14.13 6.14-21.77 8-4.01.91-8.41.77-12.58-.01z"/><path d="M464.9 330.28c1.34.16 2.18 2.75 2.84 1 1.12-2.84.34-5.1-.92-4.85-1.48.4-3.99 3.72-1.92 3.85z" stroke="#000" stroke-width=".9990882000000001"/><path d="M464.9 330.28c1.34.16 2.18 2.75 2.84 1 1.12-2.84.34-5.1-.92-4.85-1.48.4-3.99 3.72-1.92 3.85z"/><g stroke="#000" stroke-width=".66"><path d="M461.92 332.7c3.59.8 3.54-7.84-.13-11.5 1.61 5.55-2.7 10.63.13 11.5z" stroke-width=".9990948"/><path d="M460.52 332.61c.24 4.11-10.08-.53-12.73-3.73 6.1 2.6 12.43.45 12.73 3.73zM456 326.75c.37 3.98-8.95.48-11.7-2.63 6.12 1.98 11.3-.65 11.7 2.63z" stroke-width=".9990882000000001"/><path d="M457.72 327.31c3.59.82 3-8.12-.48-11.2 1.67 5.97-2.35 10.34.48 11.2zM453.93 321.87c3.6.82 1.53-6.88-1.13-9.96.43 5.62-1.33 9.51 1.13 9.96z" stroke-width=".9990948"/><path d="M452.04 321.84c.37 4.1-6.88.95-9.7-2.92 6.06 1.97 9.3-.35 9.7 2.92zM450.06 318.73c2.35-1.69-.14-6.16-4.62-5.88.44 2.7 1.99 7.45 4.62 5.88zM467.74 337.27c.24 4.1-10.09 2.06-13.33-2.32 6.51 1.23 13.03-.97 13.33 2.32z" stroke-width=".9990882000000001"/></g><g stroke="#000" stroke-width=".66"><path d="M399.39 228.35c-1.54-1.6-1.1-2.22 1.18-2.25 1.8-.11 5.38 1.11 6.74.12 1.25-.9.75-4.73 1.3-6.5.24-.99.93-2.54 2.49-.12 4.58 7.35 10.32 16.18 12.77 24.84 1.34 4.84.08 12.41-4.38 17.5.16-4.34-1.46-7.25-3.43-10.88-2.43-4.77-11.47-17.68-16.67-22.7z" stroke-width=".9990882000000001"/><path d="M418.3 267.02c5.06.03 5.92-6.74 5.92-8.63-2.48.47-6.86 4.61-5.91 8.63z" stroke-width=".9990882000000001"/></g><path d="M399.39 228.35c-1.54-1.6-1.1-2.22 1.18-2.25 1.8-.1 5.38 1.11 6.74.12 1.25-.9.75-4.73 1.3-6.5.24-.99.93-2.53 2.49-.12 4.59 7.36 10.32 16.19 12.77 24.84 1.34 4.84.08 12.41-4.38 17.5.16-4.34-1.46-7.25-3.43-10.88-2.43-4.77-11.47-17.68-16.67-22.7z"/><path d="M418.3 267.02c5.06.03 5.92-6.74 5.92-8.63-2.48.47-6.86 4.61-5.91 8.63zm43.62 65.67c3.58.82 3.54-7.83-.13-11.5 1.61 5.56-2.7 10.64.13 11.5zm-1.4-.08c.24 4.11-10.08-.53-12.73-3.73 6.1 2.6 12.43.45 12.73 3.73zm-4.52-5.86c.37 3.98-8.95.48-11.7-2.63 6.11 1.98 11.3-.65 11.7 2.63zm1.72.56c3.59.82 3-8.13-.48-11.2 1.67 5.97-2.35 10.34.48 11.2zm-3.79-5.44c3.6.82 1.53-6.88-1.13-9.96.43 5.62-1.33 9.51 1.13 9.96zm-1.9-.03c.38 4.1-6.87.95-9.69-2.92 6.06 1.97 9.29-.36 9.7 2.92zm-1.97-3.1c2.35-1.7-.14-6.17-4.62-5.9.44 2.7 1.99 7.46 4.62 5.9zm17.68 18.52c.24 4.11-10.09 2.07-13.33-2.3 6.51 1.22 13.03-.98 13.33 2.3z"/><g stroke="#000" stroke-width=".66" stroke-linejoin="round"><path d="M426.73 329.92c.37 4.1-10.9-.41-13.71-4.29 6.06 1.98 13.3 1.01 13.71 4.29zM433.64 331.67c2.35-1.7-2.45-6.05-6.27-7.07.44 2.7 3.64 8.63 6.27 7.07zM434.36 334.5c.25 3.69-12.08 1.67-15.31-1.74 10.61 1.92 14.96-1.41 15.31 1.74z" stroke-width=".9990882000000001"/><path d="M440.14 336.96c1.36 3.43-10.48 2.59-14.63.6 6.71-.06 13.68-2.98 14.63-.6z" stroke-width=".9990882000000001"/><path d="M445.67 339.46c1.31 3.07-9.64 3-14.98 1.3 7.07-.05 13.69-4.34 14.98-1.3zM453.64 341.11c1.94 3.63-9.61 3.98-13.36 2.2 6.68-.92 11.7-5.06 13.36-2.2zM440.1 334.9c-3.67 2.32-3.47-4.52-6.4-9.25 4.6 4.18 8.9 7.04 6.4 9.25z" stroke-width=".9990882000000001"/><path d="M446.63 337.35c-3.09 2.74-5.55-6.64-8.36-11.9 4.54 5 11.2 9.63 8.36 11.9zM455.24 339.97c-2.61 3.02-10.17-8.9-12.91-15.1 4.18 4.83 14.98 12.53 12.9 15.1z" stroke-width=".9990882000000001"/></g><path d="M426.73 329.92c.37 4.1-10.9-.41-13.71-4.29 6.06 1.98 13.3 1.01 13.71 4.29zm6.91 1.75c2.35-1.7-2.45-6.04-6.27-7.07.44 2.7 3.64 8.63 6.27 7.07zm.72 2.83c.25 3.69-12.08 1.67-15.31-1.74 10.62 1.92 14.96-1.41 15.31 1.75z"/><path d="M440.14 336.96c1.37 3.43-10.48 2.6-14.63.6 6.72-.06 13.69-2.98 14.63-.6z"/><path d="M445.68 339.46c1.3 3.07-9.65 3-14.99 1.3 7.08-.05 13.69-4.33 14.99-1.3zm7.96 1.65c1.94 3.63-9.62 3.98-13.36 2.2 6.68-.92 11.7-5.06 13.36-2.2zm-13.53-6.21c-3.68 2.32-3.48-4.52-6.4-9.25 4.59 4.18 8.89 7.04 6.4 9.25z"/><path d="M446.63 337.35c-3.09 2.74-5.55-6.64-8.36-11.9 4.54 5 11.2 9.63 8.36 11.9zm8.6 2.62c-2.6 3.02-10.15-8.9-12.9-15.1 4.18 4.83 14.98 12.53 12.9 15.1zm-7.34 9.1c-1.3 4.6-20.52-4.34-22.66-8.97 11 5.82 22.92 4.6 22.66 8.97z"/><path d="M386.14 255.55c-.45-.58-1.74.02-1.42 1.42.3 1.9 3.1 11.66 7.92 15.02 3.44 2.48 21.5 6.47 29.69 8.16 4.5.9 8.28 3.16 11.24 6.74a119.9 119.9 0 00-3.79-12.41c-1.53-3.74-5.6-7.83-9.81-8.05-7.83-.28-17.96-.94-25.31-4.14-3.8-1.58-6.08-3.73-8.52-6.74z" stroke="#000" stroke-width=".9990882000000001"/><path d="M386.14 255.55c-.45-.58-1.74.02-1.42 1.42.3 1.9 3.1 11.66 7.92 15.02 3.44 2.48 21.5 6.47 29.69 8.16 4.5.9 8.28 3.16 11.24 6.74-1.23-4.69-2.2-8.16-3.79-12.41-1.53-3.74-5.6-7.83-9.81-8.05-7.83-.28-17.95-.94-25.31-4.14-3.8-1.58-6.08-3.73-8.52-6.74z"/><g stroke="#000" stroke-width=".66" stroke-linejoin="round"><path d="M430.99 294.18c2.47 1.82 5.19-4.69 2.06-10.88-.1 5.96-4.84 7.96-2.06 10.88z" stroke-width=".9990882000000001"/><path d="M433.35 300.16c3.42 1.04 4.49-5 2.24-9.82.37 5.19-5.37 8.31-2.24 9.82z" stroke-width=".9990882000000001"/><path d="M435.95 304.94c3.3 1.64 4.55-4.46 2.18-8.98.26 5.77-4.72 7.48-2.18 8.98z" stroke-width=".9990882000000001"/><path d="M434.6 305.32c-1.3 3.9-8.88-3.37-10.16-7.32 4.7 4.67 11.1 4.15 10.16 7.32z" stroke-width=".9990882000000001"/><path d="M431.17 299.34c-1.49 3.9-11-6.14-13.11-10.98 4.7 4.67 14.17 8.23 13.1 10.98z" stroke-width=".9990882000000001"/><path d="M429.28 293.49c-1.49 4.43-11.84-7.39-14.77-11.58 4.94 4.61 15.89 8.36 14.77 11.58z" stroke-width=".9990882000000001"/><path d="M250.81 156.4c1.38 2.03 2.23-1.1 4.06-5.1-3.2 1.23-5.2 2.7-4.06 5.1z" transform="matrix(.59497 -1.39194 1.39195 .59497 62.02 545.17)"/><path d="M251.34 156.64c1.45.51 1.1-1.55 2.7-4.98-1.9.4-4.04 4.28-2.7 4.98z" transform="matrix(.59497 -1.39194 1.39195 .59497 55.22 542.8)"/><path d="M440.45 305.42c2 1.16 3.36-2.92.87-6.62-.57 4-2.7 5.11-.87 6.62z" stroke-width=".9990882000000001"/></g><path d="M430.99 294.18c2.47 1.82 5.19-4.7 2.06-10.88-.1 5.96-4.84 7.96-2.06 10.88z"/><path d="M433.36 300.15c3.4 1.05 4.48-4.98 2.23-9.81.37 5.18-5.37 8.3-2.23 9.81z"/><path d="M435.95 304.94c3.3 1.64 4.55-4.46 2.18-8.98.26 5.77-4.72 7.48-2.18 8.98z"/><path d="M434.6 305.31c-1.3 3.9-8.88-3.36-10.15-7.31 4.7 4.67 11.1 4.15 10.15 7.31z"/><path d="M431.17 299.34c-1.48 3.9-11-6.14-13.11-10.98 4.7 4.67 14.17 8.23 13.11 10.98z"/><path d="M429.28 293.49c-1.48 4.43-11.84-7.39-14.77-11.58 4.94 4.61 15.89 8.36 14.77 11.58zm-.33-4.38c3.64-.71-.2-3.75-4.68-8.68-.2 5.2.65 8.83 4.68 8.68z"/><path d="M422.8 286.15c1.57-1.71-1.51-2.44-5.33-6.73-.56 2.9 3.54 8.18 5.33 6.73zm17.65 19.27c2 1.16 3.36-2.92.87-6.62-.57 4-2.7 5.11-.87 6.62z"/><g stroke="#000" stroke-width=".66" stroke-linejoin="round"><path d="M250.84 158.3c-3.21.55-4.94-7.3-5.05-10.3 1.15 3.84 6.17 8.88 5.05 10.3z" transform="matrix(1.41146 -.54706 .54707 1.41146 -43.54 193.42)"/><path d="M400.72 285.54c-2.34 2.6-9.72-4.46-12.28-8.04 3.95 3.43 13.32 3.83 12.28 8.04z" stroke-width=".9990882000000001"/><path d="M404.74 290.83c-.78 3.55-11.54-4.43-14.06-8.2 4.64 4.37 14.76 3.97 14.06 8.2z" stroke-width=".9990882000000001"/><path d="M403.08 294.67c-1.66 3.2-10.42-4.72-12.52-8.85 5.35 4.66 13.88 5.69 12.52 8.85zM398.58 279.1c2.77-2.91 1.59-4.28-.43-8.87-1.1 4.72-2.76 6.6.43 8.87zM402.25 284.6c5 .22.05-5.87-1.14-11 .44 5.84-1.28 10.44 1.14 11z" stroke-width=".9990882000000001"/><path d="M405.44 289.45c3.48-.78 2.47-5.7-.19-11.65.56 6.43-2.94 10.15.2 11.65zM404.26 299.17c-1.3 3.9-11.18-5.14-12.75-8.57 5 4.2 13.64 5.64 12.75 8.57z" stroke-width=".9990882000000001"/><path d="M410.18 305.25c-1.49 3.91-11.84-4-15-8.32 6.23 4.9 15.76 4.45 15 8.32z" stroke-width=".9990882000000001"/><path d="M416.2 311.4c-1.65 5.45-12.48-3.24-15.7-7.49 6.88 5.26 16.59 3.62 15.7 7.5zM406.03 297.43c2.94 1.52 4.13-6.82 2.47-12.71.03 6.43-5.9 11.2-2.47 12.71z" stroke-width=".9990882000000001"/><path d="M411.06 304.06c3.53 1.05 2.41-7.95-.6-13.78-.4 5.78-3 11.27.6 13.78zM417.33 310.27c3.94.22 1.23-7.71-2.03-12.19.56 5.84-1.28 11.5 2.03 12.19zM410.41 313.65c-1.18 2.01-4.09-1.7-8.85-4.42 4.29 1.12 9.38 2.56 8.85 4.42z" stroke-width=".9990882000000001"/></g><path d="M397.12 279.62c-4.24 2.54-10.97-7.59-12.76-11.76 3.71 4.79 13.55 9.16 12.75 11.76z"/><path d="M400.72 285.54c-2.34 2.6-9.72-4.46-12.28-8.04 3.95 3.42 13.32 3.83 12.28 8.04z"/><path d="M404.74 290.83c-.78 3.55-11.54-4.43-14.06-8.2 4.64 4.37 14.76 3.97 14.06 8.2z"/><path d="M403.08 294.67c-1.66 3.2-10.41-4.72-12.52-8.85 5.35 4.67 13.88 5.69 12.52 8.85zm-4.5-15.57c2.77-2.91 1.59-4.28-.42-8.87-1.1 4.72-2.77 6.6.42 8.87zm3.67 5.5c5.01.22.05-5.88-1.14-11 .44 5.84-1.28 10.44 1.14 11z"/><path d="M405.44 289.45c3.48-.78 2.47-5.7-.19-11.65.56 6.43-2.94 10.15.2 11.65zm-1.18 9.72c-1.3 3.9-11.18-5.14-12.75-8.56 5 4.2 13.64 5.63 12.76 8.56z"/><path d="M410.18 305.25c-1.48 3.91-11.84-4-15-8.32 6.23 4.9 15.76 4.45 15 8.32z"/><path d="M416.2 311.4c-1.65 5.45-12.48-3.24-15.7-7.49 6.89 5.26 16.6 3.62 15.7 7.5zm-10.16-13.97c2.94 1.52 4.12-6.82 2.46-12.7.03 6.42-5.9 11.2-2.47 12.7z"/><path d="M411.06 304.06c3.53 1.05 2.41-7.95-.6-13.78-.4 5.78-3 11.27.6 13.78zm6.27 6.2c3.95.23 1.23-7.7-2.03-12.18.56 5.84-1.28 11.5 2.03 12.19zm-6.92 3.4c-1.18 2-4.08-1.72-8.85-4.43 4.29 1.12 9.38 2.56 8.85 4.42z"/><g stroke="#000" stroke-width=".66" stroke-linejoin="round"><path d="M408.15 246.82c3.68-2.73.87-7.83 0-12.67-1.19 4.6-4.3 10.63 0 12.67zm-.13 6.8c-5.53-.67-4.7-7.82-4.86-12.36 1.66 6.16 6.2 7.2 4.86 12.36zm.88-.94c4.68-.27 4.43-5.6 4.68-10.98-2.37 4.95-5.18 5.72-4.68 10.98z" stroke-width=".9990882000000001"/><path d="M408.71 259.3c-3.64.29-5.53-3.29-6.36-8.87 3.45 5.14 6.59 3.54 6.36 8.87zm1.31-.44c4.68.6 3.93-4.85 3.75-8.86-1.44 3.83-5.25 5.03-3.75 8.86z" stroke-width=".9990882000000001"/><path d="M402.72 256.55c.37 3.56 2.62 9.67 6.24 8.3 1.5-4.37-3.18-5.24-6.24-8.3z" stroke-width=".9990882000000001"/><path d="M410.08 265.23c-1.62-3.12 3.69-4.69 4.8-8.74.65 5.8.11 9.6-4.8 8.74z" stroke-width=".9990882000000001"/></g><path d="M408.15 246.81c3.68-2.72.87-7.82 0-12.66-1.19 4.6-4.3 10.63 0 12.66zm-.13 6.8c-5.53-.66-4.7-7.81-4.86-12.35 1.66 6.16 6.2 7.2 4.86 12.36zm.88-.93c4.68-.27 4.43-5.6 4.68-10.98-2.37 4.95-5.18 5.72-4.68 10.98z"/><path d="M408.71 259.3c-3.64.29-5.53-3.29-6.36-8.86 3.45 5.13 6.6 3.53 6.36 8.86zm1.31-.44c4.68.6 3.93-4.85 3.75-8.86-1.44 3.83-5.24 5.03-3.75 8.86z"/><path d="M402.72 256.55c.38 3.56 2.62 9.67 6.24 8.3 1.5-4.37-3.18-5.24-6.24-8.3z"/><path d="M410.08 265.23c-1.62-3.12 3.69-4.69 4.81-8.74.65 5.8.1 9.6-4.8 8.74z"/><g stroke="#000" stroke-width=".66" stroke-linejoin="round"><path d="M394.99 228.25c2.91-3.14.34-8.12-.53-12.96-1.19 4.6-3.24 10.69.53 12.96zM394.9 234.1c-5.12.51-6.36-9.9-6.88-14.37 1.66 6.15 7.56 8.97 6.87 14.36zM395.95 234c3.61-1.87 2.77-5.9 3.91-8.92-2.43 3.71-4.65 4.25-3.91 8.92z" stroke-width=".9990882000000001"/><path d="M394.94 240.8c-5.35.47-8.54-11.07-8.7-15.6 1.66 6.15 9.33 9.5 8.7 15.6zM395.96 240.64c5.03-1.16 4.43-4.42 3.68-9.68-1.6 5.3-4.42 4.18-3.68 9.68z" stroke-width=".9990882000000001"/><path d="M394.87 247.47c-5.88 1-5.47-8.32-10.15-15.07 4.05 5.01 11.33 11.34 10.15 15.07zM396.2 247.15c4.45.13 4.88-6.56 4.64-9.28-1.03 2.7-6.25 5.27-4.64 9.28z" stroke-width=".9990882000000001"/><path d="M385.68 240.29c2.2 7.16 5.34 14.34 9.2 13.8 1.84-4.08-3.66-4.6-9.2-13.8z" stroke-width=".9990882000000001"/><path d="M396.27 253.04c-1.63-3.12 3.68-4.68 4.8-8.73.65 5.8.1 9.6-4.8 8.73zM387.2 248.47c3.15 6.46 4.57 13.88 8.9 12.8 1.61-5.02-4.78-6.07-8.9-12.8z" stroke-width=".9990882000000001"/><path d="M397 260.05c-1.87-3.42 3.44-4.62 4.74-9.33.7 6.16.04 10.56-4.75 9.33z" stroke-width=".9990882000000001"/></g><path d="M394.99 228.25c2.91-3.14.34-8.11-.54-12.96-1.18 4.6-3.23 10.69.54 12.96zm-.1 5.84c-5.11.52-6.35-9.89-6.87-14.36 1.66 6.15 7.56 8.97 6.88 14.36zm1.06-.09c3.62-1.87 2.78-5.9 3.91-8.91-2.43 3.7-4.65 4.24-3.91 8.9z"/><path d="M394.94 240.8c-5.35.47-8.54-11.07-8.7-15.6 1.66 6.15 9.33 9.5 8.7 15.6zm1.02-.16c5.04-1.16 4.43-4.42 3.68-9.68-1.6 5.3-4.42 4.18-3.68 9.68z"/><path d="M394.87 247.47c-5.88 1-5.47-8.32-10.15-15.07 4.05 5.02 11.33 11.34 10.15 15.07zm1.33-.32c4.45.13 4.88-6.56 4.64-9.28-1.03 2.7-6.25 5.27-4.64 9.28z"/><path d="M385.68 240.29c2.2 7.16 5.34 14.34 9.2 13.8 1.84-4.08-3.66-4.6-9.2-13.8z"/><path d="M396.27 253.04c-1.62-3.12 3.68-4.68 4.8-8.73.65 5.8.1 9.6-4.8 8.73zm-9.07-4.56c3.15 6.45 4.57 13.87 8.9 12.79 1.61-5.02-4.78-6.07-8.9-12.8z"/><path d="M397 260.05c-1.86-3.42 3.44-4.62 4.74-9.33.7 6.16.04 10.56-4.75 9.33z"/><path d="M406.07 216.36c3.1.84 6.36-2.65 5.23-7.87-3.55.89-5.18 4.1-5.23 7.87zm-9.94-2.61c.27 1.47 2.06 1.6 1.54-.47-.43-1.69-.5-2.95 0-4.32.7-1.72.46-4.64-.06-5.86-.53-1.28-2.27-.53-1.54.48.81 1.16.85 3.6.3 4.73-.73 1.67-.54 3.9-.24 5.44z" stroke="#000"/><path d="M406.07 216.36c3.1.84 6.36-2.65 5.23-7.87-3.55.89-5.18 4.1-5.23 7.87zm-9.94-2.61c.27 1.47 2.06 1.6 1.54-.47-.43-1.69-.5-2.95 0-4.32.7-1.72.46-4.64-.06-5.86-.53-1.28-2.27-.53-1.54.48.81 1.16.85 3.6.3 4.73-.73 1.67-.54 3.9-.24 5.44z"/><path d="M406.87 208.16c-.3 2.3-2.24 2.5-1.67-.73.47-2.63.55-4.6 0-6.75-.76-2.68-.5-7.24.06-9.14.57-2 2.47-.83 1.67.74-.88 1.82-.92 5.62-.32 7.39.8 2.61.58 6.08.26 8.5zm14.46 22.92c-1.2 1.77-3.11.74-2.03-2.1.92-1.95 1.02-4.39 2.04-5.82 1.42-2.18 3.84-3.99 5.2-5.3 1.42-1.4 2.6-.06 1.3 1.15a34.14 34.14 0 00-4.24 5.03c-1.77 2.89-1 5.2-2.27 7.04z" stroke="#000"/><path d="M242.54 131.62c.18.97 1.48.92 1.14-.45-.29-1.1-.94-2.18-.6-3.08.46-1.13.57-3.08.22-3.89-.34-.85-1.47-.28-.98.39.53.77.11 2.92-.25 3.67-.49 1.11.27 2.34.47 3.36z" stroke="#000" stroke-width=".47" transform="matrix(-1.9079 -.76122 -.88509 1.96042 1004.34 160.52)"/><path d="M425.11 233.92c-1.2 1.76-3.65.69-1.78-1.74 1.53-1.96 3.71-3.57 3.87-5.6.13-2.56 1.64-6.46 3-7.78 1.42-1.4 3.06.57 1.55 1.5-1.7 1.11-2.81 5.65-2.77 7.4-.06 2.54-2.59 4.37-3.87 6.22zM421.33 231.08c-1.2 1.77-3.11.74-2.03-2.1.92-1.95 1.02-4.39 2.04-5.82 1.42-2.18 3.84-3.99 5.2-5.3 1.42-1.4 2.6-.06 1.3 1.15a34.14 34.14 0 00-4.24 5.03c-1.77 2.89-1 5.2-2.27 7.04z"/><path d="M242.23 131.78c-.1.78 1.23.97 1.18-.17-.06-1.19-1.83-2.27-.75-4.08.57-.88.58-2.5.24-3.36-.3-.86-1.58-.3-1.1.37.54.77-.1 2.25-.5 2.99-1.23 2.17 1 3.22.93 4.25z" stroke="#000" stroke-width=".45" transform="matrix(1.51377 0 0 3.17871 34.7 -196.93)"/><path d="M401.4 221.94c-.15 2.5 1.86 3.1 1.77-.51-.1-3.78-2.76-7.23-1.13-12.97.87-2.81.88-7.96.36-10.7-.46-2.71-2.4-.94-1.66 1.18.81 2.45-.15 7.15-.77 9.51-1.85 6.89 1.53 10.24 1.42 13.5z"/><path d="M406.87 208.16c-.3 2.3-2.24 2.5-1.67-.73.47-2.63.55-4.6 0-6.75-.76-2.68-.5-7.24.06-9.14.57-2 2.47-.83 1.67.74-.88 1.82-.92 5.62-.32 7.39.8 2.61.58 6.08.26 8.5zm-19.73 46.9c.96 1.15 2.58.38 1.1-1.17-1.2-1.25-.8-1.64-1.54-3.16-.73-1.7-.69-2.64-1.57-3.86-.77-1.16-1.94.02-1.16 1 .98 1.14.71 1.99 1.31 3.1 1.11 1.9.84 2.9 1.86 4.1zm25.85 31.2a10.87 10.87 0 015.6 8.4c.26 3.56.77 6.57 2.37 9.1-2.54-.71-3.76-4.77-4.13-8.65-.36-4.02-2.53-5.76-3.84-8.85zm6.44 7.44c2.14 3.95 5.13 5.45 5.29 8.38.26 3.37.51 3.55 1.43 6.86-2.52-.67-3.16-.89-3.84-5.93-.42-3.55-3.25-6.05-2.88-9.31z" stroke-width="1.33"/><path d="M536.17 359.8c.06 1.5.24 2.7 1.12 3.9-5.16-2.06-12.45-.95-17.44 1.37-2.23 1.06-4.92-1.22-2.3-3.37 3.7-3.01 12.3-1.3 18.62-1.9zm-72.87-.07a8.73 8.73 0 01-.6 3.93c5.6-2.32 11.63-.4 17.3 1.9 3.9 1.6 4.22-1.18 3.53-2.15-1.18-1.71-3.47-3.6-6.37-3.64-1.93-.02-9.35-.09-13.86-.04zm4.74-27.43c-1.57-.67-3.39-.02-5.02 1.7-5.48 5.37-11.91 10.6-17.1 14.68-1.94 1.68-3.92 4.7 4.34 7.72.3.1 6.33 2.34 10.14 2.49 1.56-.05 1.56 2.28 1.27 2.9-.66 1.24-.18 1.71-1.51 2.9-1.39 1.18.15 2.7 1.24 1.66 4.65-4.04 12.2-1.45 19.47.91 1.72.48 4.86.34 4.83-2.03.03-2.58 1.9-4.4 3.05-4.47 2.97.51 17.63.68 22.15.13 2.64-.34 2.8 3.6 4.2 5.16.98 1.04 4.72 1.31 7.28.18 5.07-2.36 12.8-2.36 15.94-.1 1.3.98 2.32.18 1.58-.82-.94-1.37-.92-2-1.4-3.09-1.17-2.4-.23-2.99 1-3.16 14.02-1.8 18.49-6.59 14.2-10.48-5.53-4.85-11.68-9.73-16.99-15.46-1.43-1.52-2.39-2.13-5.38-.89a84.22 84.22 0 01-32.13 7.43c-10.58.1-25.12-4.8-31.16-7.36z" stroke="#000"/><path d="M536.17 359.8c.06 1.5.24 2.7 1.12 3.9-5.16-2.06-12.45-.95-17.44 1.37-2.23 1.06-4.92-1.22-2.3-3.37 3.7-3.01 12.3-1.3 18.62-1.9zm-72.87-.07a8.73 8.73 0 01-.6 3.93c5.6-2.32 11.63-.4 17.3 1.9 3.9 1.6 4.22-1.18 3.53-2.15-1.18-1.71-3.47-3.6-6.37-3.64-1.93-.02-9.35-.09-13.86-.04zm4.74-27.43c-1.57-.67-3.39-.02-5.02 1.7-5.48 5.37-11.91 10.6-17.1 14.68-1.94 1.68-3.92 4.7 4.34 7.72.3.1 6.33 2.34 10.14 2.49 1.56-.05 1.56 2.28 1.27 2.9-.66 1.24-.18 1.71-1.51 2.9-1.39 1.18.15 2.7 1.24 1.66 4.65-4.04 12.2-1.45 19.47.91 1.72.48 4.86.34 4.83-2.03.03-2.58 1.9-4.4 3.05-4.47 2.97.51 17.63.68 22.15.13 2.64-.34 2.8 3.6 4.2 5.16.98 1.04 4.72 1.31 7.28.18 5.07-2.36 12.8-2.36 15.94-.1 1.3.98 2.32.18 1.58-.82-.94-1.37-.92-2-1.4-3.09-1.17-2.4-.23-2.99 1-3.16 14.02-1.8 18.49-6.59 14.2-10.48-5.53-4.85-11.68-9.73-16.99-15.46-1.43-1.52-2.39-2.13-5.38-.89a84.22 84.22 0 01-32.13 7.43c-10.58.1-25.12-4.8-31.16-7.36z"/><path d="M565 305.64c.64 2.18 9.38-1.8 13.82-10.54-5.82 6.34-15.23 6.28-13.81 10.54z" stroke="#000" stroke-width=".9990882000000001"/><path d="M565 305.64c.64 2.18 9.38-1.8 13.82-10.54-5.82 6.34-15.23 6.28-13.81 10.54z"/><path d="M253.45 178.87c1.7 2.58 3.96 4.45 4.06 6.49.18 2.35.35 2.47.96 4.78-1.68-.47-2.1-.62-2.56-4.14-.28-2.47-2.7-4.85-2.46-7.13z" stroke="#000" stroke-width=".66" transform="matrix(-1.56914 0 0 1.4342 977.27 35.82)"/><path d="M579.56 292.36c-2.66 3.7-6.2 6.38-6.37 9.3-.27 3.38-.54 3.55-1.5 6.87 2.64-.67 3.3-.9 4.02-5.94.44-3.54 4.25-6.96 3.85-10.23z"/><path d="M254.38 180.28c2.04 1 2.5 2.66 2.58 4.72.04 2.39.62 4.23 1.68 5.9-2.1.3-2.5-3.15-2.73-5.71-.24-2.66-.67-2.87-1.53-4.91z" stroke="#000" stroke-width=".64" transform="matrix(-1.58579 0 0 1.51377 987.27 14.36)"/><path d="M583.88 287.26c-3.23 1.52-3.97 4.04-4.1 7.16-.06 3.6-.98 6.4-2.65 8.92 3.33.46 3.94-4.76 4.32-8.65.38-4.02 1.06-4.34 2.43-7.43z"/><path d="M242.23 131.44c.18.97 1.36 1.06 1.02-.31a4.47 4.47 0 010-2.85 6.3 6.3 0 00-.04-3.87c-.35-.85-1.5-.35-1.02.31.54.77.57 2.38.2 3.13-.48 1.1-.35 2.57-.16 3.59z" stroke="#000" stroke-width=".51" transform="matrix(1.61914 0 0 2.36426 200.72 -102.76)"/><path d="M592.93 208c.29 2.3 2.2 2.5 1.65-.74-.47-2.63-.55-4.6 0-6.74.74-2.68.49-7.24-.07-9.15-.56-2-2.43-.83-1.64.74.86 1.83.9 5.62.31 7.39-.78 2.62-.57 6.09-.25 8.5z"/><path d="M242.23 131.78c-.1.78 1.23.97 1.18-.17-.06-1.19-1.83-2.27-.75-4.08.57-.88.58-2.5.24-3.36-.3-.86-1.58-.3-1.1.37.54.77-.1 2.25-.5 2.99-1.23 2.17 1 3.22.93 4.25z" stroke="#000" stroke-width=".46" transform="matrix(-1.48999 0 0 3.17871 959.24 -197.1)"/><path d="M598.32 221.78c.14 2.49-1.84 3.1-1.75-.52.1-3.77 2.72-7.22 1.1-12.97-.84-2.81-.86-7.96-.34-10.7.45-2.71 2.35-.94 1.63 1.18-.8 2.45.15 7.15.75 9.51 1.83 6.89-1.5 10.24-1.4 13.5z"/><path d="M242.23 131.44c.18.97 1.36 1.06 1.02-.31a4.47 4.47 0 010-2.85 6.3 6.3 0 00-.04-3.87c-.35-.85-1.5-.35-1.02.31.54.77.57 2.38.2 3.13-.48 1.1-.35 2.57-.16 3.59z" stroke="#000" stroke-width=".66" transform="matrix(-1.48999 0 0 1.51377 964.42 14.61)"/><path d="M603.5 213.58c-.27 1.47-2.03 1.6-1.52-.47.43-1.69.5-2.95 0-4.32a9.68 9.68 0 01.06-5.85c.52-1.29 2.24-.54 1.52.47-.8 1.17-.84 3.6-.3 4.73.73 1.67.53 3.9.24 5.44z"/><path d="M592.73 216.45c-2.58 1.1-5.92-6.25-3.45-7.63 1.9-.48 6.3 6.23 3.45 7.63z" stroke="#000" stroke-width=".9990882000000001"/><path d="M592.73 216.45c-2.58 1.1-5.92-6.25-3.46-7.63 1.92-.48 6.3 6.23 3.46 7.63z"/><path d="M242.22 131.74c.18.97 1.24.85 1.32-.56 0-1 .44-2.07.27-2.87-.2-1.18-.9-2.38-1.25-3.19-.35-.85-1.14-.47-.8.28.38.95.74 2.1.87 2.9.2 1.56-.6 2.42-.4 3.44z" stroke="#000" stroke-width=".48" transform="matrix(1.84096 -.76122 .85404 1.96042 19.8 157.11)"/><path d="M578.23 230.99c1.16 1.76 3 .74 1.96-2.1-.88-1.96-.98-4.39-1.96-5.82-1.38-2.18-3.7-4-5.03-5.3-1.37-1.4-2.5-.06-1.25 1.14a33.89 33.89 0 014.1 5.03c1.7 2.9.95 5.2 2.18 7.05z"/><path d="M242.54 131.62c.18.97 1.48.92 1.14-.45-.29-1.1-.94-2.18-.6-3.08.46-1.13.57-3.08.22-3.89-.34-.85-1.47-.28-.98.39.53.77.11 2.92-.25 3.67-.49 1.11.27 2.34.47 3.36z" stroke="#000" stroke-width=".48" transform="matrix(1.84096 -.76122 .85404 1.96042 16.14 159.48)"/><path d="M575.04 232.88c1.16 1.77 3.52.69 1.72-1.74-1.47-1.96-3.58-3.56-3.73-5.59-.13-2.57-1.58-6.47-2.9-7.79-1.37-1.4-2.95.57-1.49 1.5 1.64 1.11 2.7 5.65 2.67 7.4.06 2.54 2.5 4.37 3.73 6.22z"/><path d="M473.42 314.92c3.51 2.8 6.82 5.98 7.8 9.94 1.04 3.68 1.66 6.5 4.03 10.17-3.7-2.37-5.18-5.94-6.27-9.82-.96-3.81-3.15-6.66-5.56-10.29z" stroke="#000" stroke-linejoin="round"/><path d="M473.42 314.92c3.51 2.8 6.82 5.98 7.8 9.94 1.04 3.68 1.66 6.5 4.03 10.17-3.7-2.37-5.18-5.94-6.27-9.82-.96-3.81-3.15-6.66-5.56-10.29zm-4.02 0c3.28 2.68 5.4 5.74 6.39 9.7a34.93 34.93 0 004.61 9.94 16.52 16.52 0 01-6.74-9.47 33.06 33.06 0 00-4.26-10.17zm61.26 0c-3.34 2.7-5.51 5.78-6.52 9.76a34.9 34.9 0 01-4.72 10 16.62 16.62 0 006.9-9.53c.97-3.83 2.13-6.7 4.34-10.23zm-4.1 0c-3.6 2.82-6.97 6.02-7.98 10-1.06 3.7-1.7 6.54-4.12 10.23 3.8-2.38 5.3-5.98 6.41-9.88.98-3.83 3.23-6.7 5.68-10.35zm-11.88 9.34c.1-.69-.38-1.3-.95-1.47a42.02 42.02 0 00-3.3-1.07c-1.24-.3-1.93.6-1.94 1.19 0 .97-.05 1.8 0 2.54.07.92.25.99.83 1.12.93.16 2.12.32 3.06.95.74.45 1.45.1 1.82-.71.24-.62.37-1.82.47-2.55zm-13.4 0c-.09-.69.28-1.35.78-1.53a6.8 6.8 0 013-.48c1.15-.01 1.44.25 1.45.83 0 .98.04 1.92 0 2.66-.06.92-.04 1-.56 1.13-.83.15-2.25.2-3.09.83-.66.45-1.42.1-1.45-.77a23.2 23.2 0 00-.13-2.67zm-16.26-.17c-.1-.7.37-1.3.94-1.48a42.36 42.36 0 013.31-1.06c1.25-.3 1.95.6 1.95 1.18.01.97.06 1.8 0 2.54-.06.92-.24.99-.82 1.12-.94.16-2.14.32-3.08.95-.74.46-1.46.1-1.83-.7-.24-.62-.37-1.82-.48-2.55zm13.45 0c.09-.7-.28-1.36-.78-1.54a6.85 6.85 0 00-3.02-.47c-1.15-.02-1.45.24-1.45.83 0 .97-.05 1.92 0 2.66.06.92.04.98.56 1.12.84.16 2.27.2 3.1.83.67.46 1.43.1 1.47-.77-.02-.65.03-1.93.12-2.66zm-12.45 6.15c1.2 2.26 2.58 5.71 5.08 5.08.04-1.73-2.7-2.93-5.08-5.08zm3.73.76c4.86 2 9.05 1.5 9.58 4.56-4.56.5-6.23-1.38-9.58-4.55zm23.83-.47c-1.22 2.14-2.62 5.4-5.16 4.8-.04-1.64 2.74-2.77 5.16-4.8zm-3.41.65c-4.93 1.9-9.2 1.43-9.72 4.32 4.62.47 6.32-1.3 9.72-4.32z" stroke-width="1.33"/><path d="M524.71 282.75h10.59c.04 4 2.38 8.3 5.68 10.76h-20.29c3.18-2.88 4.04-6.29 4.02-10.77z" stroke="#000"/><path d="M524.71 282.75h10.59c.04 4 2.38 8.3 5.68 10.76h-20.29c3.18-2.88 4.04-6.29 4.02-10.77z"/><path d="M449.2 347.44c-.58.45-.55 1.78.59 2.25 10.57 3.79 20.78 10.8 50.15 10.52 29.64-.28 40.06-7.12 49.55-10.29 1.27-.48 2.46-1.46.83-2.83-5.33-4.36-11.1-7.86-14.9-13.25-.68-.97-2.52-.42-3.67 0-11.32 3.97-21.77 6.76-32.64 6.74-10.62-.02-21.68-2.94-31.64-7.04-.95-.4-2.52.06-3.25.77a146.7 146.7 0 01-15.02 13.13z" stroke="#000" stroke-width=".5"/><g stroke-width="1.33"><path d="M463.45 340.17c-1.27-.82-1.85.24-.95 1.36 1.17 1.28 3.06 2.05 5.03 2.6 1.15.32 3.52-.09 4.73.06.95.11 1.48 2.02 3.2 1.95 1.72-.08 2.83-4.67 2.9-6.98.07-1.53-2.04-.55-1.84.06.55 1.52-.46 4.91-1.54 4.9-.8-.04-1.64-1.68-2.84-1.88-.93-.16-2.35.1-3.3.11-2.82.03-4.03-1.37-5.39-2.19z"/><path d="M465.81 338.92c1.5.75 2.82-.59 3.67.36 2.2 2.48 5-1.19 1.72-1.06-1.33.05-1.54-1.01-3.85-.78-1.23.16-2.25 1.07-1.54 1.48zm.36 10.88c-1.19-.51-1.58.61-.89 1.3.98.9 5.04 1.26 6.04.54 1.64-1.25.44-4.52-.3-5.44-.46-.56-1.85-.6-1.3.89.22.69 1.23 2.4.41 3.19-.75.72-2.83 0-3.96-.47zm9.1 1.01c.27-.67-.43-1.82-1.65-.47-1 1.06-.19 5.53 3.02 6.33 3.13.77 5.48-.36 5.91-2.07.3-1.14-1.42-2.13-.53-3.14.74-.78 2.17 0 2.78-1.24.36-.7.38-2.14-1.54-3.08-.83-.42-2.28.54-2.25 1.25.05.97 1.55.33 1 1.18-.39.64-2.17.37-2.71 1.9-.33.95 2 2.73.77 3.18a4.8 4.8 0 01-4.02-.17c-.91-.48-1.3-2.48-.77-3.67zm-11.29-6.15c-.74.11-1.77.65-1.83 1.54-.05.71.54 1.94 1.54 1.12 1.03-.8.24-1.18.47-.89.51.52-.24.56-1.18 1.84-.66.97-2.06.81-2.78.47-1.24-.64-.78-1.05-2.13-1.65-1.35-.67-2.17.89-.89 1.6 1.42.8 3.74 2.43 6.03 1.24 1.36-.77 2.96-1.47 2.9-3.2-.08-1.12-.57-2.29-2.13-2.07zm73.57-.59c-1.05-.75-.4-2.1 1.12-1.6 1.3.48 3.47 2.02 3.6 4.02.17 2.2-3.37 3.8-4.72 3.73-2.32-.19-1.9-2.02-.18-1.9 1.34.1 2.98-.37 3.08-1.77.07-1.2-2.15-1.91-2.9-2.48zm-7.63-5.38c-1.35-1.37 1.48-2.84 2.3-1.18 1.1 2.1 2.4 4.17 3.38 6.5.78 1.91-.25 2.17-.9 1.12a36.88 36.88 0 00-4.78-6.44zm-6.62 4.08c1.45-.63 1.42 1.18.88 1.54-.96.53-2.24-.89-.88-1.54zm4.31-1.6c1.46-.63 1.42 1.18.9 1.54-.97.54-2.26-.89-.9-1.54z"/><path d="M482.5 343.71c-2.2-1.39.43-3.47 1.94-1.89 2.16 2.2 4.23 7.04 5.86 8.87 1.55 1.8.3-4.88.77-6.86.32-1.1 1.18-.94 1.18.12 0 2.72-.41 8.26.3 8.7 1.32.75 1.08 1.98 2.18 1.77 1.19-.28 1-.6 2.07-.65 1.06 0 1.1 1.06 2.31.88.78-.1 1-.98 1.95-1 .86-.07.49 1.82-.06 2.13-.89.5-3.67-.55-4.5-.47-.98.02-2.75.93-3.84.53-1.33-.48-1.03-2.16-1.95-1.9-1.04.24-.84 2.13-3.3 2.72-1.17.27-1.56-.77-.96-1.47 1.08-1.15 3.24-2.07 2.9-3.14-1-2.98-4.02-6.57-6.86-8.33zm18.97.42c1.05 3.45 1 8.04 1.6 11.18.3 1.23 1.48.13 1.36-.83-.46-3.37-.67-7.5-1.54-10.7-.36-1.11-1.82-.9-1.42.35zm2.9.89c-.28-1.44 1.1-1.58 1.3-.71.71 2.77.62 9.13 2.01 9.34 2.4.27 5.77-.22 8.76-.83 1.46-.29 1.77-1.35 1.71-1.77-.28-1.71 1.31-1.58 1.72.23.21.95-.22 2.64-2.01 3.02-3.52.68-8.35 1.72-11.12 1.12-2.43-.51-1.64-6.77-2.37-10.4z"/><path d="M508.27 347.5c.06-1.82 1.43-2.09 1.42-.53.04 3.72 4.4 2.75 5.33 1.36.68-1.1.18-1.56-.48-2.78-.81-1.58.92-2.03 1.66-.65.56.98.94 4.11-.06 4.9-1.38 1.1-5.13 1.64-6.74.42-.86-.59-1.2-1.72-1.13-2.72zm-1.89-4.85c.2 1.17 3.37.77 3.25-.12-.1-.76-3.42-.6-3.25.12zm4.14.95c.13 1.17 2.18.83 2.07-.06-.1-.94-2.19-1.13-2.07.06zm6.21-1.42c-1.04-1.44.99-1.53 1.66-.47 1.73 2.58 2.87 6.76 4.55 9.57.71 1.3 1.61.14 1.72-.17.1-.34-.55-.85-.6-2.01-.08-.9 1.77-2.03 3.08-1.19 1.22.83.22 1.56.83 2.01.57.44 2.03.17 2.25-.11.64-1.02-.24-.42-1.13-1.01-1.03-.74-.41-3.93 1.72-2.6 1.26.73 1.63 3.07 1.18 4.37-.4 1.21-2.52 1.62-3.67 1.36-1.29-.39-2.33-1.94-2.07-1.53.64 1.05-.15 2.08-.77 2.48-1.5.95-2.56 1.45-3.66-.12-1.96-2.92-3.03-7.85-5.09-10.58z"/></g><g stroke="#000" stroke-width="1"><path d="M461.62 141.74c-.09-1.75 2.62-1.88 2.3.52-.39 3 5.66 10.57 6.16 15.25.34 3.13-1.84 5.87-4 7.58-2.64 2.04-6.7 1.76-8.6.59-1.16-.93-2.2-4.1-1.34-5.35.3-.43 1.68 4.65 4.71 4.63 4.13-.03 7.47-3.13 7.6-5.9.2-4.8-6.76-12.42-6.83-17.32zm12.08 11.9c.68-.5 1.77 1.64 1 2.17-.64.43-1.89-1.58-1-2.17zm1.83-4.32c-.35.16-1.03-.07-.83-.37.97-1.38 3.03-3.45 4.52-4.18.46-.22 1.26.59.98.98-.89 1.28-3.06 2.79-4.67 3.57zm15.96-12.67c.38-.8 2.68-1.7 3.27-2.24.54-.55.8.47.57.95-.39.8-2.37 2.15-3.24 2.19-.47.02-.83-.41-.6-.9zm5.46.26c.5-1.4 2.1-3.53 3.2-4.23.58-.36 1.6-.08 1.4.46-.42 1.19-2.38 3.27-3.7 4.25-.4.36-1.02-.15-.9-.48zm-4.68 3.51c-.34.17-.16.88.16.99.69.22 1.93.27 2.5-.04.81-.5.44-3.6-.66-1.95-.73 1.02-1.27.7-2 1zm-9.24 7.12c-1.67-1.3.45-3.13 2.2-1.85 3.4 2.56-5.08 12.39-9.69 16.98-.84.9-1.58-1.37-.5-2.34 3.3-2.8 6.4-6.16 8.55-9.62.41-.66.8-2.1-.56-3.18zm19.35-8.46c.2-1.24-2.01.03-2.05-1.62-.02-.87 2.42-1.49 3.45-.48 1.73 1.75.43 4.71-2.44 4.9-2.4.1-6.4 3.4-5.79 4.1.7.85 6.9 1.41 10.52.85 2.24-.32 1.77 1.68-.52 1.95-2.22.26-4.02.02-6.1.67-2.43.7-3.49 3.97-4.84 5.19-.3.21-1.12-1.07-.8-1.55.97-1.53 2.52-3.86 4.23-4.53 1.08-.44-2.97-.58-4.27-.95-1.02-.3-.73-1.6-.33-2.34.52-1.13 4.34-4.96 5.88-4.9 1.45.06 2.92-.36 3.06-1.29zm6.44.34c.72-.64 1.1-1.7 1.84-2.34.42-.42 1.08.08.97 1.08-.1.78-1.15 1.46-1.86 2.05-.58.44-1.25-.5-.94-.8zm8.2-2.92c1.07-.12 1.34 1.94.17 2.28-.71.24-1.33-2.16-.17-2.28zm-2.7 6.38c-.02 1.78.86 1.62 2.53 1.56 1.63-.06 3.06.04 3.05-1.57 0-1.66-.92-3.12-1.19-1.99-.23 1.07-.42 2.81-1.04 2.05-.58-.65-.35-.8-1.36.28-.55.59-.62-.29-.95-.84-.24-.33-1.04.26-1.04.51zm-11.68 9.08c-.4 2.36-.04 5.65 1.17 5.69 1.49.05 4.57-5.15 6.03-7.84.87-1.5 2.38-1.77 1.75-.2-.95 2.42-.86 7.6-.03 9.12.45.82 3.76-.75 4.3-1.92.96-2.12.17-6.03.51-8.42.17-1.57 1.6-1.9 1.53-.44-.14 2.6-.4 7.37-.2 9.53.1 1.25 3.66 3.08 4.23-.69.3-2.37 1.52-4.7-.06-7.34-.98-1.64 1.44-1.43 2.75.81.9 1.53-.77 4.06-.71 6.01.15 3.01-2.2 4.72-3.89 4.75-1.51.03-2.5-1.83-3.75-1.85-1.37-.1-2.8 2.14-3.93 2.06-4.42-.3-2.08-6.76-3.43-6.84-1.5-.08-3.26 6.33-5.1 6.1-1.82-.21-3.7-5.23-2.95-7.35.69-1.97 1.98-2.43 1.78-1.18zM524.03 141.78c-2.16-1.31.13-4.73 1.19-3.53 2.03 2.43 4.08 8.22 5.52 8.7.9.3.86-4.28 1.5-6.36.42-1.54 2.28-1.04 1.92.93-.12.66-2.43 8.14-2.25 8.44 1.6 3.2 3.18 6.43 4.18 9.86.41 1.48-1.36.49-1.57.18-1.14-1.7-3.12-8.18-3.12-7.88-.92 4.56-1.13 5.9-2.1 9.78-.3 1.24-2.12 1.01-1.71-1.17.4-1.8 3-10.64 2.86-10.9-2.05-3.62-3.93-6.49-6.42-8.05z"/><path d="M527.91 162.81c-.6-.06-1.53 1.34 1.46 1.9 4 .72 8.38-.63 9.72-4.55 1.54-4.67 2.55-9.1 3.36-10.76 1-1.95 2.28-1.8 1.33-4.63-.66-2.04-1.9-1.43-2.17-.33-.7 2.97-3.35 12.6-4.18 14.38-1.57 3.24-4.71 4.52-9.52 4z"/><path d="M535.92 147.45c-.42-.92-1.42-.21-1.25.8.11.9.85 1.4 1.59 1.37.87-.03 2.73.03 2.73-1.42 0-1.03-.8-1.88-1.4-.75-.57 1.02-1.3.91-1.67 0zm1-3.85c-.3.21-.02 1.35.34 1.34a8.86 8.86 0 004.15-1.15c.3-.2.17-.9-.24-.88-1.26.04-3.27.01-4.24.69zm11.1 2.86c.95-1.47 3.56-1.63 2.62.48-.66 1.46-7.16 14.01-8.05 15.61-.97 1.8-1.76.9-1.07-.5.93-1.8 6.2-15.15 6.5-15.59z"/><path d="M538.25 165.15c-.28-1-1.83-2.48-1.66.2.31 4.85 6.98 3.31 9 1.59 1.83-1.63.24 5.47 2.67 6.23 1.34.43 3.87-1.4 5.1-3 3.45-4.47 5.64-10.87 8.95-15.28 1.25-1.73-.68-2.96-1.47-1.59-2.88 4.83-6.45 14.68-10.36 17.24-3.18 2.04-2.24-2.62-2.35-4.02-.14-1.03-1.39-2.54-3.06-1.16a7.03 7.03 0 01-4.62 1.51c-.95-.05-1.76-.04-2.2-1.72z"/><path d="M550.14 156.15c.04-.28-1.4-.4-1.34 1 .05 1.04 1.3 1.32 1.5 1.17 1.96-1.42-.4-.71-.16-2.18zm-2.84 5.68c-.39.1-.74 1.32.16 1.39.83.06 4.08-.29 4.97-.24.58-.02.8-1.13-.44-1.07-1.5.08-3.49-.3-4.7-.08zm21.48-1.44c1.33-4.99 4.55.77 1.71 3.6-4.38 4.3-5.7 12.5-12.65 13.73-1.88.4-5.18-.85-6.15-1.54-.39-.27.24-2.05 1.41-1.18 1.7 1.32 5.2 1.62 7.04.11a32.2 32.2 0 008.64-14.72zm-72.24 11.07c-.32.36-1.27.3-1.36.81-.38 1.87 0 2.83-.41 4.63-.4 1.73-1.6 1.8-1.52.39.11-1.83 1.62-4.41.55-4.59-.7-.16-1.25-1.11-.52-1.58 1.39-.96 2.13-.81 3.08-.52.33.1.41.59.18.86z"/><path d="M495.56 169.01c-1.83 1.61-3.53 2.26-5.22 4.3-.7.82-.67 1.98-1.08 3.04-.42 1.13-1.75 1.35-2.16 1.11-.69-.45-.59-2.54-1.36-1.41-.65 1.03-1.07 2.46-2.03 2.44-.87-.02-2.52-1.8-1.69-1.89 2.86-.3 2.82-2.58 3.9-2.73 1.19-.16 1.27 1.9 2 1.48.59-.3.86-2.68 1.5-3.33 1.93-1.97 3.46-3.02 5.43-4.47 1-.8 1.72.64.71 1.46zm6.7 6.15c-1.47.3-1.22 2.19-.8 2.42.72.33 1.82.47 2.23-1.7.2-.89.37 4.43 2.32 2.38 1.13-1.24 3.91.23 5.08-1.33.83-1.05 1.1-1.77.44-3.31-.19-.47-1.33-.24-1.27.9.06.95-.68 2.13-1.63 1.93-.47-.08.26-2.34-.2-2.95-.26-.34-.65-.3-.91.05-.36.49.36 2.65-.82 2.93-1.49.35-.7-1.44-1.34-1.77-2.02-1.02-2.22.27-3.1.45zm11.46-3.63c1.08-.3.74-.3 2.43-1.69.66-.5.8.96.72 1.54-.12.98-1.29.3-1.65 1.16-.53 1.12-.31 3.73-.49 4.8-.12.54-1 .5-1.08.06-.25-1.3.18-2.56.14-4.19-.02-.55-.8-1.41-.07-1.68zm-5.06-5.85c-.26 1.17-.24 2.14-.24 2.94.06.65 1.25.24 1.24.15-.06-1.03.18-2.45-.13-2.85-.16-.22-.81-.46-.87-.24z"/></g><path d="M461.62 141.74c-.09-1.75 2.62-1.88 2.3.52-.39 3 5.66 10.57 6.16 15.25.34 3.13-1.84 5.87-4 7.58-2.64 2.04-6.7 1.76-8.6.59-1.16-.93-2.2-4.1-1.34-5.35.3-.43 1.68 4.65 4.71 4.63 4.13-.03 7.47-3.13 7.6-5.9.2-4.8-6.76-12.42-6.83-17.32z"/><path d="M468.8 140.73c.5.02 1.92 1.85 1.83 2.42-.07.27-1.51-.04-1.95-.41-.33-.28-.2-2.03.12-2.01zm-6.8 13.24c-1.3.7.2 2.1 1.16 1.5 3.63-2.34 9.07-4.8 10.2-9.46.37-1.57 1.83-3.99 3.22-4.52 1.35-.52 3.3 2.43 4.57.1.75-1.32 3.36.87 4-.55.76-1.71.4-2.65.43-4.3-.06-1.07-.88-1.4-1.48.35-.3.79.06 1.58-.2 2-.19.3-.79.61-1.14.35-.32-.24-.1-.91-.86-1.21-.3-.15-.78-.28-.99.1-.91 1.63-1.42 3.15-2.7 1.42-1.13-1.49-1.7-4.06-2.54-.54-.3 1.25-2.2 3.05-3.3 3.05-1.4 0-1.05-3.66-4.11-3.1-1.57.33-1.46 3.34-1.23 4.45.39 1.55 4.98.44 4.75 1.45-.78 3.5-5.66 6.85-9.79 8.91z" stroke="#000"/><path d="M433.22 170.7c-.2.58.59 2.18 1.4 2.3.8.06 1.2-1.72.94-2.3-.19-.43-2.2-.42-2.34 0zm4.22 6.19c-.5-.55-2.01.92-.8 1.96.69.56 3.19 1.36 3.87.2.93-1.51-.91-6.96-.1-7.68.64-.57 3.59 3.64 5.04 3.94 3.42.47 2.6-5.85 6.28-5.42 2.51.33 2.79-2.8 2.44-4.76-.28-1.88-3.32-4.6-4.72-5.8-1.84-1.54-2.66 1.12-1.51 2 1.49 1.2 4.1 3.6 4.52 5.19.2.75-1.82 2.24-2.56 1.84-1.71-.94-3.3-4.94-4.8-5.86-.51-.31-1.77.4-1.16 1.64.68 1.34 3.68 3.42 3.85 4.84.16 1.3-1.33 4.13-2.32 4.13-1.08 0-3.83-3.4-4.7-5.01-.42-.77-1.91-.7-2.07.36-.24 1.6.23 4.96.61 7.05.3 1.97-1.11 2.07-1.87 1.38zm-5.16-10.86c-.43.48 1 1.43 1.28 1.19.56-.48 2.7-2.93 2.29-3.78-.37-.76-3.32-2.43-3.8-1.6-.89 1.42 2.78 2.06 2.2 2.48-.28.16-1.29.86-1.97 1.7zm5.29-10.72s.92 3.15 1.67 1.84c.6-.91-1.67-1.84-1.67-1.84zm1.5 5.02c-.33.18-1.28.93-.66 1.33.98.58 3.64 1.04 3.07-.85-.35-1.12 4.01.03 2.95-3a4.64 4.64 0 00-2.25-2.2c-.4-.11-1.8.65-.93 1.08.64.33 2.57 1.46 1.85 2.2-.81.78-1.38-.35-2.4-.17-.5.1-.17 1.55-.45 1.94-.16.22-.9-.48-1.17-.33zm6.94-12a4.45 4.45 0 00-1.57 2.46c-.02.37.38.88.7.72a4.1 4.1 0 001.5-2.35c.02-.41-.29-1-.63-.83zm3.6-.38c-1.06-1.3 1.13-3.23 2.12-.63.6 1.63 6.95 10 8.25 12.84.92 1.92-.03 2.71-1.17 1.34-3.22-4.11-5.86-9.23-9.2-13.55zm6.53.17c1.13-1.23 3.44-3.74 2.82-5.14-.48-1.2-1.88-1.08-2.12-.8-1.38 1.64.97 1.22.63 1.79-.7 1.31-1.4 2.04-1.76 3.3-.08.3.22 1.07.43.85z" stroke="#000" stroke-width=".9990882000000001" stroke-linejoin="round"/><path d="M433.22 170.7c-.2.58.59 2.18 1.4 2.3.8.06 1.2-1.72.94-2.3-.19-.43-2.2-.42-2.34 0zm4.22 6.19c-.5-.55-2.01.92-.8 1.96.69.56 3.19 1.36 3.87.2.93-1.51-.91-6.96-.1-7.68.64-.57 3.59 3.64 5.04 3.94 3.42.47 2.6-5.85 6.28-5.42 2.51.33 2.79-2.8 2.44-4.76-.28-1.88-3.32-4.6-4.72-5.8-1.84-1.54-2.66 1.12-1.5 2 1.48 1.19 4.1 3.6 4.5 5.19.2.75-1.8 2.24-2.55 1.84-1.71-.94-3.3-4.94-4.8-5.86-.51-.31-1.77.4-1.16 1.64.68 1.34 3.68 3.42 3.85 4.84.16 1.3-1.33 4.13-2.32 4.13-1.08 0-3.83-3.4-4.7-5.01-.42-.77-1.91-.7-2.07.36-.24 1.6.23 4.96.61 7.05.3 1.97-1.11 2.07-1.87 1.37zm-5.16-10.86c-.43.48 1 1.43 1.29 1.19.55-.48 2.7-2.93 2.28-3.78-.37-.76-3.32-2.43-3.8-1.6-.89 1.42 2.78 2.06 2.2 2.48-.28.17-1.29.86-1.97 1.7zm5.29-10.72s.92 3.15 1.67 1.84c.61-.91-1.67-1.84-1.67-1.84zm1.5 5.02c-.33.18-1.28.93-.66 1.33.98.58 3.64 1.04 3.07-.85-.35-1.12 4.01.03 2.95-3a4.65 4.65 0 00-2.24-2.2c-.42-.11-1.81.65-.94 1.08.64.33 2.57 1.46 1.85 2.2-.81.78-1.38-.35-2.39-.17-.5.1-.18 1.55-.46 1.94-.16.22-.9-.48-1.17-.33zm6.94-12a4.45 4.45 0 00-1.57 2.46c-.02.37.38.88.7.72a4.1 4.1 0 001.5-2.35c.02-.41-.28-1-.63-.83zm3.6-.38c-1.06-1.3 1.13-3.23 2.12-.63.6 1.63 6.95 10 8.25 12.84.92 1.92-.03 2.71-1.17 1.34-3.22-4.11-5.86-9.23-9.2-13.55zm6.53.17c1.13-1.23 3.45-3.74 2.82-5.14-.48-1.2-1.88-1.08-2.12-.8-1.38 1.64.97 1.22.64 1.78-.7 1.32-1.4 2.04-1.76 3.31-.1.3.21 1.07.42.85zM538.25 165.15c-.28-1-1.83-2.48-1.66.2.31 4.85 6.98 3.31 9 1.59 1.83-1.63.24 5.47 2.67 6.23 1.34.43 3.87-1.4 5.1-3 3.45-4.47 5.64-10.87 8.95-15.28 1.25-1.73-.68-2.96-1.47-1.59-2.88 4.83-6.45 14.68-10.36 17.24-3.18 2.04-2.24-2.62-2.35-4.02-.14-1.03-1.39-2.54-3.06-1.16a7.03 7.03 0 01-4.62 1.51c-.95-.05-1.76-.04-2.2-1.72zm-64.55-11.51c.68-.5 1.77 1.64 1 2.17-.64.43-1.89-1.58-1-2.17z"/><path d="M554.7 152.23c-.81-.66.8-3.86 1.9-2.6 3 3.47 4.39 14.74 5.26 23.18 0 0-1.35 1.12-1.36.94 0-4.5-1.81-18.24-5.8-21.52z" stroke="#000"/><path d="M475.53 149.32c-.35.16-1.03-.07-.83-.37.97-1.38 3.03-3.45 4.52-4.18.46-.22 1.26.59.98.98-.89 1.28-3.06 2.79-4.67 3.57zm79.17 2.9c-.81-.65.8-3.85 1.9-2.6 3 3.48 4.39 14.75 5.26 23.19 0 0-1.35 1.12-1.36.94 0-4.5-1.81-18.24-5.8-21.52z"/><path d="M556.53 171.92c.55-1.5 7.75-13.6 8.7-16.26.48-1.29 2.55 2.2.53 4.08-1.77 1.6-7 10.18-7.99 13.19-.45 1.35-1.8.7-1.24-1z" stroke="#000"/><path d="M502.38 139.08c.2-1.24-2.01.03-2.05-1.62-.02-.87 2.42-1.49 3.45-.48 1.73 1.75.43 4.71-2.44 4.9-2.4.1-6.4 3.4-5.79 4.1.7.85 6.9 1.41 10.52.85 2.24-.32 1.77 1.68-.52 1.95-2.22.26-4.02.02-6.1.67-2.43.7-3.49 3.97-4.84 5.19-.3.21-1.12-1.07-.8-1.55.97-1.53 2.52-3.86 4.23-4.53 1.08-.44-2.97-.58-4.27-.95-1.02-.3-.73-1.6-.33-2.34.52-1.13 4.34-4.96 5.88-4.9 1.45.06 2.92-.36 3.06-1.29zm-19.35 8.45c-1.67-1.3.45-3.12 2.2-1.85 3.4 2.57-5.08 12.4-9.69 16.99-.84.9-1.58-1.37-.5-2.34 3.3-2.8 6.4-6.16 8.55-9.62.41-.66.8-2.1-.56-3.18z"/><path d="M487.42 141.26c-.97-2.23 1.45-3.06 1.82-1.47 1.68 7.33 5.72 12.88 8.8 17.86.92 1.56.17 2.49-2.08 1.05-1.55-1.06-3.14-4.96-3.9-5.11-1.39-.26-4.7 6.32-11.5 4.44-1.75-.49-1.63-5.7-1.66-8.02-.08-1.08 1.12-1.36 1.16.11.06 2.13 0 6.55 2.71 6.7 2.22.12 7.13-3.02 8.17-5.47.92-2.52-2.47-7.53-3.52-10.1z" stroke="#000"/><path d="M468.8 140.73c.5.02 1.92 1.85 1.83 2.42-.07.27-1.51-.04-1.95-.41-.33-.28-.2-2.03.12-2.01zm-6.8 13.24c-1.3.7.2 2.1 1.16 1.5 3.63-2.34 9.07-4.8 10.2-9.46.37-1.57 1.83-3.99 3.22-4.52 1.35-.52 3.3 2.43 4.57.1.75-1.32 3.36.87 4-.55.76-1.71.4-2.65.43-4.3-.06-1.07-.88-1.4-1.48.35-.3.79.06 1.58-.2 2-.19.3-.79.61-1.14.35-.32-.24-.1-.91-.86-1.21-.3-.15-.78-.28-.99.1-.91 1.63-1.42 3.15-2.7 1.42-1.13-1.49-1.7-4.06-2.54-.54-.3 1.25-2.2 3.05-3.3 3.05-1.4 0-1.05-3.66-4.11-3.1-1.57.33-1.46 3.34-1.23 4.45.39 1.55 4.98.44 4.75 1.45-.78 3.5-5.66 6.85-9.79 8.91zm25.42-12.71c-.97-2.23 1.45-3.06 1.82-1.47 1.68 7.33 5.72 12.88 8.8 17.86.92 1.56.17 2.49-2.08 1.05-1.55-1.06-3.14-4.96-3.9-5.11-1.39-.26-4.7 6.32-11.5 4.44-1.75-.49-1.63-5.7-1.66-8.02-.08-1.08 1.12-1.36 1.16.11.06 2.13 0 6.55 2.71 6.7 2.22.12 7.13-3.02 8.17-5.47.92-2.52-2.47-7.53-3.52-10.1zm4.07-4.6c.38-.8 2.68-1.7 3.27-2.25.54-.55.8.47.57.95-.39.8-2.37 2.15-3.24 2.19-.47.02-.83-.41-.6-.9zm5.46.25c.5-1.4 2.1-3.53 3.2-4.23.58-.36 1.6-.08 1.4.46-.42 1.19-2.38 3.27-3.7 4.25-.4.36-1.02-.15-.9-.48zm-4.68 3.51c-.34.17-.16.88.16.99.69.22 1.93.27 2.5-.04.81-.5.44-3.6-.66-1.95-.73 1.02-1.27.7-2 1zm16.56-1c.71-.64 1.08-1.7 1.84-2.34.4-.42 1.07.08.96 1.08-.1.78-1.15 1.46-1.86 2.05-.58.44-1.25-.5-.94-.8zm8.2-2.92c1.06-.12 1.33 1.94.16 2.28-.71.24-1.33-2.16-.17-2.28zm-2.71 6.38c-.02 1.78.86 1.62 2.53 1.56 1.63-.06 3.06.04 3.05-1.57 0-1.66-.92-3.12-1.19-1.99-.23 1.07-.42 2.81-1.04 2.05-.58-.65-.35-.8-1.36.28-.55.59-.62-.29-.95-.84-.24-.33-1.04.26-1.04.51zm-11.68 9.08c-.4 2.36-.04 5.65 1.17 5.69 1.49.05 4.57-5.15 6.03-7.84.87-1.5 2.38-1.77 1.75-.2-.95 2.42-.86 7.6-.03 9.12.45.82 3.76-.75 4.3-1.92.96-2.12.17-6.03.51-8.42.17-1.57 1.6-1.9 1.53-.44-.14 2.6-.4 7.37-.2 9.53.1 1.25 3.66 3.08 4.23-.69.3-2.37 1.52-4.7-.06-7.34-.98-1.64 1.44-1.43 2.75.81.9 1.53-.77 4.06-.71 6.01.15 3.01-2.2 4.72-3.89 4.75-1.51.03-2.5-1.83-3.75-1.85-1.37-.1-2.8 2.14-3.93 2.06-4.42-.3-2.08-6.76-3.43-6.84-1.5-.08-3.26 6.33-5.1 6.1-1.82-.21-3.7-5.23-2.95-7.35.69-1.97 1.98-2.43 1.78-1.18zM524.03 141.78c-2.16-1.31.13-4.73 1.19-3.53 2.03 2.43 4.08 8.22 5.52 8.7.9.3.86-4.28 1.5-6.36.42-1.54 2.28-1.04 1.92.93-.12.66-2.43 8.14-2.25 8.44 1.6 3.2 3.18 6.43 4.18 9.86.41 1.48-1.36.49-1.57.18-1.14-1.7-3.12-8.18-3.12-7.88-.92 4.56-1.13 5.9-2.1 9.78-.3 1.24-2.12 1.01-1.71-1.17.4-1.8 3-10.64 2.86-10.9-2.05-3.62-3.93-6.49-6.42-8.05z"/><path d="M527.91 162.81c-.6-.06-1.53 1.34 1.46 1.9 4 .72 8.38-.63 9.72-4.55 1.54-4.67 2.55-9.1 3.36-10.76 1-1.95 2.28-1.8 1.33-4.63-.66-2.04-1.9-1.43-2.17-.33-.7 2.97-3.35 12.6-4.18 14.38-1.57 3.24-4.71 4.52-9.52 4z"/><path d="M535.92 147.45c-.42-.92-1.42-.21-1.25.8.11.9.85 1.4 1.59 1.37.87-.03 2.73.03 2.73-1.42 0-1.03-.8-1.88-1.4-.75-.57 1.02-1.3.91-1.67 0zm1-3.85c-.3.21-.02 1.35.34 1.34a8.86 8.86 0 004.15-1.15c.3-.2.17-.9-.24-.88-1.26.04-3.27.01-4.24.69zm11.1 2.86c.95-1.47 3.56-1.63 2.62.48-.66 1.46-7.16 14.01-8.05 15.61-.97 1.8-1.76.9-1.07-.5.93-1.8 6.2-15.15 6.5-15.59zm2.12 9.69c.04-.28-1.4-.4-1.34 1 .05 1.04 1.3 1.32 1.5 1.17 1.96-1.42-.4-.71-.16-2.18z"/><path d="M556.53 171.92c.55-1.5 7.75-13.6 8.7-16.26.48-1.29 2.55 2.2.53 4.08-1.77 1.6-7 10.18-7.99 13.19-.45 1.35-1.8.7-1.24-1z" stroke="#000"/><path d="M547.3 161.83c-.39.1-.74 1.32.16 1.39.83.06 4.08-.29 4.97-.24.58-.02.8-1.13-.44-1.07-1.5.08-3.49-.3-4.7-.08zm9.23 10.1c.55-1.52 7.75-13.61 8.7-16.27.48-1.29 2.55 2.2.53 4.08-1.77 1.6-7 10.18-7.99 13.19-.45 1.35-1.8.7-1.24-1z"/><path d="M568.77 160.39c1.33-4.99 4.56.77 1.72 3.6-4.38 4.3-5.7 12.5-12.65 13.73-1.88.4-5.18-.85-6.15-1.54-.39-.27.24-2.05 1.41-1.18 1.7 1.32 5.2 1.62 7.04.11a32.2 32.2 0 008.64-14.72z" stroke="#000"/><path d="M568.77 160.39c1.33-4.99 4.56.77 1.72 3.6-4.38 4.3-5.7 12.5-12.65 13.73-1.88.4-5.18-.85-6.15-1.54-.39-.27.24-2.05 1.41-1.18 1.7 1.32 5.2 1.62 7.04.11a32.2 32.2 0 008.64-14.72zm-66.52 14.77c-1.46.3-1.21 2.19-.78 2.42.7.33 1.8.47 2.22-1.7.2-.89.37 4.43 2.32 2.38 1.13-1.24 3.91.23 5.08-1.33.83-1.05 1.1-1.77.44-3.31-.19-.47-1.33-.24-1.27.9.06.95-.68 2.13-1.63 1.93-.47-.08.26-2.34-.2-2.95-.26-.34-.65-.3-.91.05-.36.49.36 2.65-.82 2.93-1.49.35-.7-1.44-1.34-1.77-2.02-1.02-2.22.27-3.1.45zm11.47-3.63c1.08-.3.74-.3 2.43-1.69.66-.5.8.96.72 1.54-.12.98-1.29.3-1.65 1.16-.53 1.12-.31 3.73-.49 4.8-.12.54-1 .5-1.08.06-.25-1.3.18-2.56.14-4.19-.02-.55-.8-1.41-.07-1.68zm-5.06-5.85c-.26 1.17-.24 2.14-.24 2.94.06.65 1.25.24 1.24.15-.06-1.03.18-2.45-.13-2.85-.16-.22-.81-.46-.87-.24zm-13.1 3.33c-1.83 1.61-3.53 2.26-5.22 4.3-.7.82-.67 1.98-1.08 3.04-.42 1.13-1.75 1.35-2.16 1.11-.69-.45-.59-2.54-1.36-1.41-.65 1.03-1.07 2.46-2.03 2.44-.87-.02-2.52-1.8-1.69-1.89 2.86-.3 2.82-2.58 3.9-2.73 1.19-.16 1.27 1.9 2 1.48.59-.3.86-2.68 1.5-3.33 1.93-1.97 3.46-3.02 5.43-4.47 1-.8 1.72.64.71 1.46z"/><path d="M496.54 171.46c-.32.36-1.27.3-1.36.81-.38 1.87 0 2.83-.41 4.63-.4 1.73-1.6 1.8-1.52.39.11-1.83 1.62-4.41.55-4.59-.7-.16-1.25-1.11-.52-1.58 1.39-.96 2.13-.81 3.08-.52.33.1.41.59.18.86z"/><g stroke="#000" stroke-width=".66"><path d="M486.87 317.65c.64 1.41 1.57 1.35 1.43 0-.27-1.73-.8-4.11-1.1-6.19-.16-1.75-1.97-1.41-1.5.42.61 1.98.48 4.15 1.17 5.77zm5.44.09c0 .71 1.1.64 1.09.08-.12-1.8-.25-4.22.25-5.1.39-.69 1.96-.2 3.43-.34.58-.08.46-1.69-.76-1.58-1.43.12-5.2-.34-5.43 1-.33 2.4 1.49-.15 1.42 5.94zm10.95-6.94c.92.66.8 1.51-.33 1.25-1.34-.33-2.24-.23-2.22.5.02.73.58.87 1.4 1.67.8.83-.48.7-1.45 2.38-.83 1.4.86 1.58 2.86 1.05.5-.14 1.17.73-.09 1.45-.88.48-3.36 1.06-3.97-.74-1.17-3.1 1.95-3.53.64-4.36-.72-.43-.98-1.08-.85-1.95.28-2 3.26-1.73 4.01-1.25zm4.13 6.84c1.2-2.2 2.04-3.84 2.37-5.7.3-1.7 1.5-1.85 1.76-.43.33 1.9 1.41 3.78 2.73 5.5.77 1.07-.78 2-1.4 1.17-1.11-1.41-1.16-3.4-1.82-3.38-.76.02-1.62 2.2-2.44 3.82-.23.47-1.68 0-1.2-.98z" stroke-width=".9990882000000001"/></g><g><path d="M486.88 317.65c.63 1.41 1.56 1.35 1.42 0-.27-1.72-.8-4.11-1.09-6.19-.17-1.75-1.98-1.41-1.5.42.6 1.98.47 4.15 1.17 5.77zm5.43.09c0 .71 1.1.65 1.09.08-.12-1.8-.25-4.22.25-5.1.39-.69 1.96-.2 3.43-.34.58-.08.46-1.69-.76-1.58-1.43.12-5.2-.34-5.43 1-.33 2.4 1.49-.15 1.42 5.94zm10.95-6.94c.92.66.8 1.52-.33 1.25-1.34-.34-2.24-.23-2.22.5.02.73.58.87 1.4 1.67.8.83-.48.7-1.45 2.38-.83 1.4.86 1.58 2.86 1.05.5-.14 1.17.73-.09 1.45-.88.48-3.36 1.06-3.97-.74-1.17-3.1 1.95-3.53.64-4.36-.72-.43-.98-1.08-.85-1.95.28-2 3.26-1.73 4.02-1.25zm4.13 6.84c1.2-2.2 2.04-3.84 2.37-5.7.3-1.7 1.5-1.85 1.76-.43.33 1.9 1.41 3.78 2.73 5.5.77 1.07-.78 2-1.4 1.18-1.11-1.42-1.16-3.4-1.82-3.39-.76.02-1.62 2.2-2.44 3.82-.23.47-1.67 0-1.2-.98z"/></g><path d="M611.5 253.66c-.1.45 1.12 1.12 1.41.77 1.31-1.56 3.02-4.64 3.37-6.5.1-.54-1.64-1.16-2-.71-1.23 1.46-2.42 4.49-2.79 6.44z"/></g><g stroke-width="1.33"><path d="M460.96 340.54c-1.38-.84-2 .25-1.03 1.38 1.28 1.3 3.33 2.1 5.47 2.65 1.25.33 3.83-.08 5.16.06 1.02.12 1.6 2.06 3.47 1.99 1.88-.08 3.09-4.76 3.15-7.1.09-1.56-2.21-.57-2 .05.61 1.55-.5 5-1.67 5-.86-.05-1.78-1.72-3.08-1.93-1.02-.15-2.56.11-3.6.12-3.07.03-4.38-1.4-5.86-2.22z"/><path d="M463.54 339.27c1.63.77 3.06-.6 3.99.36 2.38 2.53 5.45-1.2 1.87-1.08-1.45.05-1.68-1.02-4.19-.78-1.33.16-2.45 1.08-1.67 1.5zm.39 11.08c-1.3-.53-1.73.62-.97 1.32 1.06.91 5.48 1.28 6.57.55 1.78-1.27.48-4.6-.33-5.54-.5-.57-2-.62-1.41.9.24.7 1.34 2.46.45 3.25-.82.73-3.08 0-4.31-.48zm9.9 1.02c.29-.68-.47-1.85-1.8-.48-1.09 1.08-.2 5.63 3.29 6.44 3.4.79 5.96-.36 6.43-2.1.33-1.16-1.54-2.17-.58-3.2.8-.8 2.36.02 3.03-1.26.39-.71.42-2.17-1.68-3.13-.9-.43-2.48.55-2.44 1.27.05.98 1.68.34 1.1 1.2-.44.65-2.37.38-2.97 1.93-.35.98 2.19 2.79.84 3.25-1.2.39-2.78.64-4.38-.18-.99-.5-1.4-2.52-.83-3.74zm-12.29-6.26c-.8.11-1.93.67-1.99 1.57-.05.72.59 1.98 1.67 1.14 1.12-.81.26-1.2.52-.9.56.52-.26.56-1.29 1.87-.71.98-2.24.82-3.02.48-1.35-.66-.85-1.07-2.32-1.69-1.47-.68-2.36.91-.97 1.63 1.55.82 4.08 2.48 6.57 1.26 1.48-.78 3.22-1.5 3.15-3.25-.08-1.14-.62-2.33-2.32-2.1zm80.06-.6c-1.14-.76-.44-2.14 1.22-1.63 1.42.5 3.77 2.06 3.92 4.1.18 2.23-3.67 3.87-5.14 3.8-2.52-.2-2.07-2.07-.2-1.93 1.46.1 3.25-.4 3.35-1.81.09-1.23-2.33-1.95-3.15-2.53zm-8.3-5.48c-1.47-1.39 1.6-2.89 2.5-1.2 1.2 2.14 2.6 4.25 3.67 6.62.85 1.94-.26 2.2-.96 1.14a37.87 37.87 0 00-5.21-6.56zm-7.21 4.16c1.58-.65 1.54 1.2.96 1.56-1.04.55-2.44-.9-.96-1.56zm4.7-1.63c1.58-.64 1.54 1.2.96 1.57-1.04.54-2.44-.9-.96-1.57z"/><path d="M481.69 344.15c-2.38-1.42.48-3.54 2.12-1.93 2.35 2.25 4.6 7.17 6.37 9.03 1.69 1.84.33-4.97.84-6.98.35-1.12 1.28-.96 1.28.12.01 2.77-.44 8.4.32 8.85 1.44.77 1.18 2.02 2.39 1.8 1.28-.28 1.1-.6 2.25-.66 1.15 0 1.19 1.08 2.51.9.84-.1 1.1-.99 2.12-1.02.94-.07.53 1.86-.06 2.17-.97.51-4-.55-4.9-.48-1.06.03-2.99.96-4.18.54-1.44-.48-1.12-2.2-2.12-1.93-1.13.25-.92 2.17-3.6 2.77-1.26.27-1.68-.79-1.03-1.5 1.17-1.17 3.52-2.1 3.15-3.2-1.09-3.03-4.38-6.68-7.46-8.48zm20.65.42c1.15 3.51 1.09 8.19 1.74 11.38.32 1.26 1.6.14 1.48-.84-.5-3.43-.73-7.64-1.67-10.9-.4-1.13-1.98-.91-1.55.36zm3.16.9c-.3-1.46 1.2-1.6 1.41-.72.77 2.83.68 9.3 2.19 9.52 2.61.27 6.28-.23 9.52-.85 1.6-.3 1.93-1.38 1.87-1.8-.3-1.74 1.43-1.6 1.87.24a2.6 2.6 0 01-2.19 3.07c-3.82.69-9.09 1.75-12.1 1.14-2.64-.52-1.78-6.9-2.57-10.6z"/><path d="M509.74 348c.07-1.85 1.56-2.12 1.55-.54.04 3.8 4.78 2.8 5.8 1.39.73-1.11.2-1.6-.53-2.83-.88-1.61 1-2.06 1.8-.67.61 1 1.03 4.2-.06 5-1.5 1.12-5.58 1.67-7.33.42-.94-.6-1.3-1.75-1.23-2.77zm-2.06-4.94c.21 1.2 3.67.79 3.54-.12-.12-.77-3.73-.6-3.54.12zm4.51.97c.13 1.2 2.37.84 2.25-.06-.12-.96-2.38-1.15-2.25.06zm6.76-1.45c-1.14-1.46 1.07-1.56 1.8-.48 1.88 2.64 3.12 6.89 4.95 9.76.78 1.32 1.75.14 1.87-.18.12-.35-.6-.87-.64-2.05-.1-.92 1.92-2.07 3.34-1.2 1.34.83.24 1.58.9 2.04.63.44 2.22.16 2.45-.12.7-1.03-.26-.43-1.22-1.02-1.12-.75-.45-4 1.86-2.65 1.38.74 1.78 3.13 1.29 4.45-.44 1.23-2.74 1.65-4 1.39-1.4-.4-2.53-1.98-2.24-1.57.7 1.07-.17 2.13-.84 2.53-1.64.97-2.79 1.47-3.99-.12-2.12-2.98-3.3-8-5.53-10.78z"/></g></g></svg>