<svg xmlns="http://www.w3.org/2000/svg" width="1200" height="600" version="1"><path style="marker:none" overflow="visible" d="M0 0h1200v600H0z" fill-rule="evenodd"/><path style="marker:none" overflow="visible" d="M0 200h1200v400H0z" fill="#bf0000" fill-rule="evenodd"/><path d="M331.7 187.2a38.8 38.8 0 01-38.8 38.8 38.8 38.8 0 01-38.7-38.8 38.8 38.8 0 0138.7-38.7 38.8 38.8 0 0138.8 38.7z" style="marker:none" overflow="visible" fill="#b9b8ac" fill-rule="evenodd"/><path d="M307 113.2l-28.2 160m46.6-169.3l-65 178.5m73.1-159.6l-81.2 140.7M355 141L230.7 245.4m155.7-68.7l-187 33m169.9-44.3L216.6 221m158.6-75.3l-164.5 95M354 120.4L231.9 266m61-167.7v173.3m-32.5-167.6l65 178.5m-46.6-169.2l28.2 160M232 120.4l122 145.5M252.4 123l81.2 140.6M210.7 145.7l164.5 95m-144.5-99.8L355 245.4m-138.5-80L369.3 221m-170-44.3l187.1 33" fill="none" stroke="#fecb00" stroke-width="5"/><path d="M351 214.3a61.8 61.8 0 01-79.2 37 61.8 61.8 0 01-37-79.3 61.8 61.8 0 0179.3-37 61.8 61.8 0 0137 79.3z" style="marker:none" overflow="visible" fill="#fff" fill-rule="evenodd" stroke="#fecb00" stroke-width="5"/><path d="M293 182c-36 0-69.2 6.6-96 17.7a96.7 96.7 0 00191.8 0c-26.8-11.1-60-17.7-95.9-17.7z" style="marker:none" overflow="visible" fill="#090" fill-rule="evenodd" stroke="#000" stroke-width=".8"/><path d="M241.5 100.5a100.8 100.8 0 00-47.4 106.7l4.2-5a96.3 96.3 0 01-1.2-15 95.7 95.7 0 0148.5-83.3l-4-3.4zm102.8 0l-4 3.4a95.7 95.7 0 0147.3 98.4l4.2 4.9a101.1 101.1 0 002-20c0-36.8-20-69-49.5-86.6zM208.6 232.8l-2 1.7-.6 4c16.5 27.9 46 47.2 80 49.5v-5.1a95.8 95.8 0 01-77.4-50zm168.6 0a95.8 95.8 0 01-77.5 50v5.2c34.1-2.3 63.6-21.6 80-49.5l-.4-4-2-1.7zM446 169c.7 6 1 12 1 18.2a154.4 154.4 0 01-4 35l6-3.2a159.4 159.4 0 003-31.8c0-5.6-.2-11.1-.8-16.6zm-306.2 0l-5.2 1.6A161 161 0 00137 219l5.8 3.2a154.3 154.3 0 01-4-35c0-6.1.4-12.2 1-18.2zm8.3 84.2a160 160 0 0059.2 68.2l-1.9-3-6.7-7.7 1-.7a155 155 0 01-45-54.4l-6.6-2.4zm289.7 0l-6.7 2.4a155 155 0 01-45 54.4l1 .7-6.7 7.7-2 3a160 160 0 0059.4-68.2zM240 332.1l-5.6 3.1c15.1 6 31.5 9.8 48.5 10.8v-3.6h6.5v-1A153.4 153.4 0 01240 332zm105.8 0a153.3 153.3 0 01-49.3 9.3v1h5.8v3.7a158.2 158.2 0 0049.1-10.9z" style="marker:none" overflow="visible" fill="#fecb00" fill-rule="evenodd" stroke="#000" stroke-width=".8"/><path d="M145 167.4l-5.2 1.6a155.6 155.6 0 00-1.1 18.3c0 12 1.4 23.7 4 35l5.2 2.8.5-.7a149.5 149.5 0 01-3.3-57zm295.7 0a150.7 150.7 0 01-3.3 57l.5.7 5.2-2.8A154.3 154.3 0 00446 169l-5.3-1.6zm-286 88.2a155 155 0 0045 54.4l4.2-3.1a149.9 149.9 0 01-42.2-48.7l-7-2.6zm276.4 0l-7 2.6a149.8 149.8 0 01-42.1 48.7l4.1 3a155 155 0 0045-54.3zm-185.7 73v.4l-5.3 3a153.8 153.8 0 0049.3 9.3v-5a148.7 148.7 0 01-44-7.7zm95 0a148.8 148.8 0 01-44 7.7v5a153.7 153.7 0 0049.3-9.2l-5.4-3.1z" style="marker:none" overflow="visible" fill="#fecb00" fill-rule="evenodd" stroke="#000" stroke-width=".8"/><path d="M150.4 165.8l-5.3 1.6a149.8 149.8 0 00-1.3 19.8 149 149 0 004.6 37.2l3.8-5.7a144.6 144.6 0 01-3.4-31.5c0-7.3.5-14.4 1.6-21.4zm285 0a144.6 144.6 0 01-1.8 53l3.8 5.6a149 149 0 004.7-37.2c0-6.7-.4-13.3-1.3-19.8zM164.2 252l-2.4 6.2a150 150 0 0042.2 48.7l.6-.5-.6-5.8a144.7 144.7 0 01-39.8-48.6zm257.6 0a145 145 0 01-39.8 48.7l-.6 5.7.6.5a150 150 0 0042.2-48.7zM244 322.8l1.4 5.8a148.6 148.6 0 0044 7.7v-5a143.7 143.7 0 01-45.4-8.5zm97.8.1c-14.2 5.1-29.5 8-45.3 8.4v5a148.5 148.5 0 0044-7.7z" style="marker:none" overflow="visible" fill="#fecb00" fill-rule="evenodd" stroke="#000" stroke-width=".8"/><path d="M155.7 164.1l-5.4 1.7a144.3 144.3 0 001.9 53l4-5.9a139.8 139.8 0 01-2.4-25.6c0-8 .6-15.6 1.9-23.2zm274.5 0a140.3 140.3 0 01-.6 48.8l4 5.9a144.3 144.3 0 003.5-31.5c0-7.3-.6-14.5-1.6-21.5zm-263.6 81.5L164 252c9.5 19 23.2 35.5 39.8 48.6l-.7-7c-15.5-13.1-28-29.5-36.6-48zm252.6 0a139.8 139.8 0 01-36.5 48l-.8 7c16.6-13 30.2-29.6 39.8-48.6zM242.6 317l1.4 5.8a143.6 143.6 0 0045.4 8.5v-.8h-6v-4.4a138.3 138.3 0 01-40.8-9zm100.6 0a138.4 138.4 0 01-41.4 9.2v4.3h-5.3v.8a143.4 143.4 0 0045.3-8.5l1.4-5.7z" style="marker:none" overflow="visible" fill="#fecb00" fill-rule="evenodd" stroke="#000" stroke-width=".8"/><g fill-rule="evenodd" stroke="#000" stroke-width=".5"><path d="M239 320.4c-11.2 2.6-23 5.7-33.1 9.2l2.2 6.3a312 312 0 0131.8-8.8z" fill="#090" stroke-width=".833335"/><path d="M238.3 314a331.6 331.6 0 00-34.3 9.4l2 6.3c10.2-3.4 21.8-6.6 33-9z" fill="#bf0000" stroke-width=".833335"/><path d="M237.4 307.3a343.6 343.6 0 00-35.6 9.6l2 6.3c10.8-3.6 22.4-6.7 34.5-9.3z" stroke-width=".833335"/></g><path d="M271 52.3A136.8 136.8 0 00157 173l4.7 4A131.7 131.7 0 01271.4 57.3zm43.7 0l-.3 5c59.2 9.7 105 58.8 109.7 119.5l4.7-4a136.8 136.8 0 00-114-120.5z" style="marker:none" overflow="visible" fill="#fecb00" fill-rule="evenodd" stroke="#000" stroke-width=".8"/><path d="M271.4 57.3A131.7 131.7 0 00161.7 177l4.4 3.6.4-.3A126.7 126.7 0 01271.8 62.4l-.4-5zm43 0l-.3 5c57.6 9.8 102 58.4 105.3 118l.3.2 4.4-3.7A131.8 131.8 0 00314.4 57.3z" style="marker:none" overflow="visible" fill="#fecb00" fill-rule="evenodd" stroke="#000" stroke-width=".8"/><path d="M271.8 62.4a126.8 126.8 0 00-105.3 117.8l5.2-3.7A121.7 121.7 0 01272.1 67.4l-.3-5zm42.3 0l-.4 5c53.9 9.3 95.6 53.9 100.4 109l5.3 3.8A126.8 126.8 0 00314 62.4z" style="marker:none" overflow="visible" fill="#fecb00" fill-rule="evenodd" stroke="#000" stroke-width=".8"/><path d="M272 67.4c-53.7 9.3-95.5 54-100.3 109l5.5-3.8a116.7 116.7 0 0195.2-100.2zm41.7 0l-.3 5c50 8.9 89 49.5 95.2 100.2l5.5 3.9A121.8 121.8 0 00313.7 67.4zM176.4 181.9l-.1.2h0v-.2z" style="marker:none" overflow="visible" fill="#fecb00" fill-rule="evenodd" stroke="#000" stroke-width=".8"/><path d="M229.5 90.3a115.8 115.8 0 00-50.9 116l5.5 2.1a111.4 111.4 0 01-2-21.2c0-39.3 20.5-73.8 51.4-93.5zm126.9 0l-4 3.4a110.7 110.7 0 0149.3 114.7l5.4-2a115.8 115.8 0 00-50.8-116zm-157 156.4l-5.8.2a115.9 115.9 0 00198.6 0l-5.8-.2A110.7 110.7 0 01296 298v.4h-6.4v-.4c-38-1.1-71.1-21.3-90.3-51.3z" style="marker:none" overflow="visible" fill="#fecb00" fill-rule="evenodd" stroke="#000" stroke-width=".8"/><path d="M233.5 93.7A110.8 110.8 0 00184 208.4l5.6 2.2a106.3 106.3 0 01-2.6-23.4c0-38.1 20.2-71.5 50.4-90l-4-3.5zm118.8 0l-4 3.4a105.7 105.7 0 0147.8 113.5l5.6-2.2a111.3 111.3 0 002-21.2c0-39.3-20.5-73.8-51.4-93.5zM205.1 246.3v.2l-5.7.2c19.2 30 52.4 50.3 90.3 51.4V293c-35.3-1-66.1-19.3-84.6-46.7zm175.6 0a105.7 105.7 0 01-84.6 46.7v5c38-1 71.2-21.3 90.3-51.3l-5.7-.2z" style="marker:none" overflow="visible" fill="#fecb00" fill-rule="evenodd" stroke="#000" stroke-width=".8"/><path d="M237.4 97.1a105.8 105.8 0 00-47.7 113.5l1.1.4 3.3-3.8a101.2 101.2 0 01-2-20c0-36.9 19.8-69.1 49.4-86.7zm111 0l-4 3.4a100.7 100.7 0 0147.4 106.7l3.2 3.8 1.1-.5a106 106 0 002.6-23.3c0-38-20.1-71.4-50.3-90zM206 238.4l-.9 7.9a105.8 105.8 0 0084.6 46.8v-3.7H286v-1.6a100.8 100.8 0 01-80-49.4zm173.7 0a100.8 100.8 0 01-80 49.4v1.6h-3.6v3.7c35.2-1.1 66.2-19.4 84.6-46.8z" style="marker:none" overflow="visible" fill="#fecb00" fill-rule="evenodd" stroke="#000" stroke-width=".8"/><g stroke="#fecb00" stroke-width="2"><path style="marker:none" d="M280.6 203.8c2.8-3.8 12.6-14 12.6-14s9.8 10.2 12.6 14c2.1 2.8 8 7.9 8 15v45.6H272v-45.7c0-7 6.4-12 8.5-14.9z" overflow="visible" fill="#fff" fill-rule="evenodd" stroke-width="3.33334"/><path style="marker:none" d="M285.6 218.3l7.6-9.9 7.6 10c1.4 1.9 3 3.4 3 8.1v31.3H282v-31.3c0-4.7 2.2-6.3 3.6-8.2z" overflow="visible" fill="#fff" fill-rule="evenodd" stroke-width="3.33334"/><path d="M283 248h6.6v-6.6h6.7v-6.7h6.6" fill="none" stroke-width="3.33334"/></g><path d="M174.4 163.3a7 7 0 00-5.8 4.7l-1.2 4.3 4.5-.4a7 7 0 005.8-4.7l1.2-4.3zm-1.2 9.1a7 7 0 00-6 4.5l-1.3 4.3 4.5-.2a7 7 0 006-4.6l1.3-4.2-4.5.2zm3.5-17.7a7 7 0 00-6.2 4l-1.7 4.2 4.5.1a7 7 0 006.3-4l1.7-4.1-4.6-.2z" style="marker:none" overflow="visible" fill="#fecb00" fill-rule="evenodd" stroke="#000" stroke-width=".8"/><path d="M179.5 146.7a7 7 0 00-6.4 3.8l-1.8 4 4.5.3a7 7 0 006.4-3.8l1.8-4zm2.7-8.2a7 7 0 00-6.5 3.5l-2 4 4.5.5a7 7 0 006.6-3.6l2-4-4.6-.4zm4.7-8.1a7 7 0 00-7 2.6l-2.5 3.7 4.4 1a7 7 0 007-2.6l2.5-3.7zm4.8-7.7a7 7 0 00-7.2 1.7l-3 3.3 4.2 1.7a7 7 0 007.3-1.8l3-3.3-4.3-1.6zm4.7-7.3a7 7 0 00-7.2 1.8l-3 3.4 4.3 1.6a7 7 0 007.2-1.8l3-3.4-4.3-1.6zm5.3-7.1a7 7 0 00-7.3 1.6l-3 3.3 4.2 1.7a7 7 0 007.3-1.6l3-3.3z" style="marker:none" overflow="visible" fill="#fecb00" fill-rule="evenodd" stroke="#000" stroke-width=".8"/><path d="M199 99.2a7 7 0 00-4.7 5.7l-.4 4.5 4.4-1.3a7 7 0 004.8-5.7l.3-4.5z" style="marker:none" overflow="visible" fill="#fecb00" fill-rule="evenodd" stroke="#000" stroke-width=".8"/><path d="M193 101.6a7 7 0 01.2 7.4l-2.4 3.8-2.7-3.6a7 7 0 01-.3-7.5l2.4-3.8zm-6.3 6.8a7 7 0 01.9 7.4l-2.2 4-3-3.4a7 7 0 01-.9-7.4l2.2-4 3 3.4zm-5.6 7.7a7 7 0 011.9 7.2l-1.6 4.2-3.4-3a7 7 0 01-1.9-7.2l1.6-4.2zm-5.8 8.6a7 7 0 012.6 7l-1.2 4.3-3.7-2.6a7 7 0 01-2.6-7l1.2-4.3zm-3.7 9.3a7 7 0 012.8 6.8l-1 4.4-3.8-2.5a7 7 0 01-2.8-6.9l1-4.3 3.8 2.5zm-4 9.7a7 7 0 014 6.2v4.5l-4.2-1.7a7 7 0 01-4.2-6.2l.1-4.5zM163.8 152.4c2.2.6 4.1 3 4.4 5.6l.5 4.6-3.9-.9c-2.2-.5-4.2-3-4.4-5.6l-.5-4.6zm-2.5 9.5c2.2.3 4.4 2.6 5 5l1 4.6-4-.5c-2.2-.2-4.4-2.5-5-5l-1-4.5 4 .4zm-1.6 9.8c2.3.2 4.6 2.4 5.3 4.8l1.2 4.5-4-.3c-2.2-.2-4.6-2.3-5.3-4.8l-1.2-4.5 4 .3z" style="marker:none" overflow="visible" fill="#fecb00" fill-rule="evenodd" stroke="#000" stroke-width=".8"/><g fill-rule="evenodd" stroke="#000" stroke-width=".5"><path d="M346.7 320.4c11.3 2.6 23 5.7 33.2 9.2l-2.2 6.3A312 312 0 00346 327z" fill="#090" stroke-width=".833335"/><path d="M348.4 307.3c12.4 2.7 24.4 5.9 35.6 9.6l-2 6.3a333.5 333.5 0 00-34.5-9.3z" stroke-width=".833335"/><path d="M347.5 314c11.7 2.6 23.8 5.8 34.4 9.4l-2.2 6.3a322.8 322.8 0 00-33-9z" fill="#bf0000" stroke-width=".833335"/></g><path d="M158 182.5a135 135 0 00-.2 4.7c0 3.2.2 6.4.4 9.6l8.4-1 2.1 16.3-8.3 1a133.6 133.6 0 005 18.4l7.7-3.1 6.3 15.2-7.7 3.2a134.8 134.8 0 009.7 16.4l6.5-5 10 13-6.4 5a136 136 0 0013.5 13.3l4.8-6.3 13.1 10-4.8 6.3a135.2 135.2 0 0016.4 9.3l3-7.1 15.3 6.3-3 7c6 2 12 3.7 18.3 4.8l1-7.4 16.3 2.2-1 7.3a136.7 136.7 0 008.5.2c3.5 0 7-.1 10.3-.4l-1-7.1v0l16.4-2.2 1 7c6.2-1.2 12.2-2.9 18-5L335 308l15.3-6.3 2.6 6.4a135.2 135.2 0 0016.2-9.4l-4.2-5.5 13-10 4.2 5.3a135.8 135.8 0 0013-13.2l-5.2-4 10-13 5.3 4a134.8 134.8 0 009.3-16.2l-6.1-2.5 6.3-15.2 6 2.5a133.7 133.7 0 005-18l-6.6-.9 2.1-16.3 6.5.8c.2-3 .4-6.2.4-9.3v-4.7l-17 1.4.2 3.3a118.3 118.3 0 11-236.6 0l.1-3.3z" style="marker:none" overflow="visible" fill="#0082d6" fill-rule="evenodd" stroke="#000" stroke-width=".8"/><path d="M392.7 184.1a7 7 0 015.2 5.3l.7 4.4-4.4-.8a7 7 0 01-5.3-5.3l-.7-4.4zm-.2 8.6a7 7 0 014.6 5.8l.3 4.5-4.3-1.3a7 7 0 01-4.7-5.8l-.3-4.5 4.4 1.3zm-.2-17.2a7 7 0 015.8 4.7l1.2 4.3-4.5-.4a7 7 0 01-5.8-4.6l-1.3-4.3 4.6.3zm-1.8-9a7 7 0 015.9 4.6l1.4 4.3-4.6-.3a7 7 0 01-5.9-4.5l-1.4-4.2zm-2.2-8.4a7 7 0 016.1 4.3l1.6 4.2h-4.6a7 7 0 01-6-4.3l-1.6-4.2h4.5zm-3-8.5a7 7 0 016.6 3.4l2.1 4-4.5.5a7 7 0 01-6.6-3.3l-2.1-4zm-4-8.1a7 7 0 017 2.5l2.6 3.6-4.4 1.2a7 7 0 01-7-2.5l-2.6-3.7 4.4-1.1zm-3.9-7.8a7 7 0 017 2.6l2.6 3.7-4.5 1.1a7 7 0 01-7-2.6L373 135zm-4.5-7.6a7 7 0 017 2.4l2.8 3.6-4.4 1.2a7 7 0 01-7-2.3l-2.8-3.6 4.4-1.3z" style="marker:none" overflow="visible" fill="#fecb00" fill-rule="evenodd" stroke="#000" stroke-width=".8"/><path d="M376.6 117.3a7 7 0 014 6.2v4.5l-4.3-1.7a7 7 0 01-4-6.2v-4.5l4.3 1.7z" style="marker:none" overflow="visible" fill="#fecb00" fill-rule="evenodd" stroke="#000" stroke-width=".8"/><path d="M382.3 120.4a7 7 0 00-1 7.4l2 4 3-3.4a7 7 0 001.1-7.3l-2-4zm5.6 7.5a7 7 0 00-1.7 7.2l1.7 4.2 3.3-3a7 7 0 001.7-7.3l-1.7-4.2zm4.7 8.2a7 7 0 00-2.7 7l1.1 4.3 3.8-2.6a7 7 0 002.6-7l-1-4.3-3.8 2.6zm4.8 9.2a7 7 0 00-3.3 6.6l.7 4.5 4-2.2a7 7 0 003.3-6.7l-.7-4.4-4 2.2zm2.4 10a7 7 0 00-3.6 6.5l.6 4.5 4-2.1a7 7 0 003.5-6.5l-.5-4.5-4 2zm3.2 10a7 7 0 00-4.7 5.7l-.4 4.5 4.4-1.3a7 7 0 004.7-5.7l.4-4.4-4.4 1.2zM404.8 174.8c-2.3.3-4.5 2.6-5 5.1l-1 4.6 4-.5c2.2-.3 4.4-2.6 5-5.1l1-4.6-4 .6zm.7 9.8c-2.2 0-4.7 2-5.6 4.5l-1.5 4.4h4c2.3 0 4.8-2 5.6-4.5l1.5-4.4zm-.4 9.7c-2.2 0-4.8 1.8-5.8 4.2l-1.6 4.4h4c2.2.1 4.8-1.8 5.7-4.2l1.7-4.3z" style="marker:none" overflow="visible" fill="#fecb00" fill-rule="evenodd" stroke="#000" stroke-width=".8"/><path d="M411.4 163.3a7 7 0 015.8 4.7l1.2 4.3-4.5-.4a7 7 0 01-5.8-4.7l-1.2-4.3 4.5.4zm1.2 9.1a7 7 0 016 4.5l1.3 4.3-4.5-.2a7 7 0 01-6-4.6l-1.3-4.2 4.5.2zm-3.5-17.7a7 7 0 016.2 4l1.8 4.2-4.6.1a7 7 0 01-6.3-4l-1.7-4.1 4.6-.2z" style="marker:none" overflow="visible" fill="#fecb00" fill-rule="evenodd" stroke="#000" stroke-width=".8"/><path d="M406.3 146.7a7 7 0 016.4 3.8l1.8 4-4.5.3a7 7 0 01-6.4-3.8l-1.8-4zm-2.7-8.2a7 7 0 016.5 3.5l2 4-4.5.5a7 7 0 01-6.5-3.6l-2-4zm-4.7-8.1a7 7 0 017 2.6l2.5 3.7-4.4 1a7 7 0 01-7-2.6l-2.5-3.7zm-4.8-7.7a7 7 0 017.2 1.7l3 3.3-4.2 1.7a7 7 0 01-7.3-1.8l-3-3.3 4.3-1.6zm-4.7-7.3a7 7 0 017.2 1.8l3 3.4-4.3 1.6a7 7 0 01-7.2-1.8l-3-3.4zm-5.3-7.1a7 7 0 017.3 1.6l3 3.3-4.2 1.7a7 7 0 01-7.3-1.6l-3-3.3z" style="marker:none" overflow="visible" fill="#fecb00" fill-rule="evenodd" stroke="#000" stroke-width=".8"/><path d="M386.8 99.2a7 7 0 014.7 5.7l.4 4.5-4.4-1.3a7 7 0 01-4.7-5.7l-.4-4.5z" style="marker:none" overflow="visible" fill="#fecb00" fill-rule="evenodd" stroke="#000" stroke-width=".8"/><path d="M392.9 101.6a7 7 0 00-.3 7.4l2.4 3.8 2.7-3.6a7 7 0 00.3-7.5l-2.4-3.8zm6.3 6.8a7 7 0 00-1 7.4l2.2 4 3-3.4a7 7 0 00.9-7.4l-2.1-4-3 3.4zm5.5 7.7a7 7 0 00-1.9 7.2l1.6 4.2 3.4-3a7 7 0 001.9-7.2l-1.6-4.2zm5.8 8.6a7 7 0 00-2.6 7l1.2 4.3 3.7-2.6a7 7 0 002.6-7l-1.2-4.3zm3.7 9.3a7 7 0 00-2.8 6.8l1 4.4 3.8-2.5a7 7 0 002.8-6.9l-1-4.3-3.8 2.5zm4 9.7a7 7 0 00-4 6.2v4.5l4.2-1.7a7 7 0 004.2-6.2l-.1-4.5-4.2 1.7zM422 152.4c-2.1.6-4.1 3-4.4 5.6l-.5 4.6 4-.9c2-.5 4-3 4.3-5.6l.6-4.6zm2.5 9.5c-2.2.3-4.4 2.6-5 5l-1 4.6 4-.5c2.2-.2 4.5-2.5 5-5l1-4.5-4 .4zm1.6 9.8c-2.3.2-4.6 2.4-5.3 4.8l-1.2 4.5 4-.3c2.2-.2 4.6-2.3 5.3-4.8l1.2-4.5zM209.3 117.3a7 7 0 00-4.1 6.2v4.5l4.3-1.7a7 7 0 004-6.2v-4.5l-4.2 1.7z" style="marker:none" overflow="visible" fill="#fecb00" fill-rule="evenodd" stroke="#000" stroke-width=".8"/><g fill="#fecb00" fill-rule="evenodd" stroke="#000" stroke-width=".5"><path style="marker:none" d="M198 127.9a7 7 0 011.6 7.2l-1.6 4.2-3.4-3a7 7 0 01-1.7-7.3l1.7-4.2zM180.3 184.6c2.3 0 4.7 2 5.6 4.5l1.5 4.4h-4c-2.3 0-4.8-2-5.6-4.5l-1.5-4.4z" overflow="visible" stroke-width=".833335"/><path style="marker:none" d="M193.2 184.1a7 7 0 00-5.3 5.3l-.7 4.4 4.4-.8a7 7 0 005.3-5.3l.7-4.4-4.4.8zm.1 8.6a7 7 0 00-4.6 5.8l-.3 4.5 4.3-1.3a7 7 0 004.7-5.8l.3-4.5zm.2-17.2a7 7 0 00-5.7 4.7l-1.3 4.3 4.5-.4a7 7 0 005.8-4.6l1.3-4.3zm1.8-8.9a7 7 0 00-5.9 4.5l-1.4 4.3 4.6-.3a7 7 0 005.9-4.5l1.4-4.2-4.6.2zm2.2-8.5a7 7 0 00-6.1 4.3l-1.6 4.2h4.6a7 7 0 006-4.3l1.7-4.2h-4.6zm3-8.5a7 7 0 00-6.6 3.4l-2.1 4 4.5.5a7 7 0 006.6-3.3l2.1-4zm4-8.1a7 7 0 00-7 2.5l-2.6 3.6 4.4 1.2a7 7 0 007-2.5l2.6-3.7-4.4-1.1zm3.9-7.8a7 7 0 00-7 2.6L199 140l4.4 1.1a7 7 0 007-2.6l2.5-3.6zm4.5-7.6a7 7 0 00-7 2.4l-2.7 3.6 4.3 1.2a7 7 0 007-2.3l2.8-3.6zm-9.4-5.7a7 7 0 011 7.4l-2 4-3-3.4a7 7 0 01-1.1-7.3l2-4zm-10.3 15.7a7 7 0 012.7 7l-1.1 4.3-3.7-2.6a7 7 0 01-2.7-7l1.1-4.3 3.7 2.6zm-4.8 9.2a7 7 0 013.3 6.6l-.7 4.5-4-2.2a7 7 0 01-3.2-6.7l.6-4.4zm-2.4 10a7 7 0 013.6 6.5l-.5 4.5-4-2.1a7 7 0 01-3.6-6.5l.5-4.5 4 2zm-3.2 10a7 7 0 014.7 5.7l.4 4.5-4.3-1.3a7 7 0 01-4.8-5.7l-.4-4.4 4.4 1.2z" overflow="visible" stroke-width=".833335"/><path style="marker:none" d="M181 174.9c2.3.2 4.5 2.5 5 5l1 4.6-4-.5c-2.2-.3-4.4-2.6-5-5.1l-1-4.6 4 .6zm-.3 19.4c2.3 0 4.8 1.8 5.8 4.2l1.7 4.4h-4c-2.3.1-4.9-1.8-5.8-4.2l-1.7-4.3zM194.4 202.1a7 7 0 00-4.3 6v4.5l4.2-1.5a7 7 0 004.3-6v-4.6zM181.9 204.3c2.2-.1 4.9 1.6 6 4l1.9 4.2-4 .3c-2.3.2-5-1.5-6-3.9l-2-4.2z" overflow="visible" stroke-width=".833335"/></g><path d="M391.4 202a7 7 0 014.3 6l.1 4.5-4.3-1.6a7 7 0 01-4.3-6v-4.5zM403.9 204.2c-2.2-.2-4.9 1.6-6 4l-1.9 4.2 4 .3c2.3.2 5-1.6 6-4l2-4.2z" style="marker:none" overflow="visible" fill="#fecb00" fill-rule="evenodd" stroke="#000" stroke-width=".8"/><g fill="#fecb00" fill-rule="evenodd" stroke="#000" stroke-width=".5"><path style="marker:none" d="M392.7 290a7 7 0 01-1.2 7.4l-3.2 3.2-1.9-4.2a7 7 0 011.2-7.3l3.1-3.2zm-7.2 6.3a7 7 0 01-1 7.3l-3 3.4-2-4.1a7 7 0 011-7.4l3-3.3 2 4zm13.4-12.6a7 7 0 01-.4 7.5l-2.7 3.5-2.4-3.9a7 7 0 01.4-7.4l2.7-3.5z" overflow="visible" stroke-width=".833335"/><path style="marker:none" d="M404.5 277.3a7 7 0 01-.1 7.5l-2.7 3.6-2.5-3.8a7 7 0 01.2-7.5l2.6-3.6 2.5 3.8zm5.4-7.1a7 7 0 01.2 7.4l-2.5 3.8-2.6-3.7a7 7 0 01-.2-7.4l2.5-3.8 2.6 3.7zm4.7-7.7a7 7 0 011.2 7.4l-2 4-3-3.3a7 7 0 01-1.3-7.3l2-4zm4.6-7.8a7 7 0 012.1 7.2l-1.4 4.2-3.5-2.8a7 7 0 01-2.2-7.2l1.5-4.2zm4-7.7a7 7 0 012 7.2l-1.5 4.2-3.5-2.9a7 7 0 01-2-7.2l1.4-4.2 3.5 3zm10.8 5a7 7 0 00-6.8 3l-2.4 3.7 4.5 1a7 7 0 006.8-3l2.4-3.8zm-3.8 8.6a7 7 0 00-7.2 2l-2.9 3.5 4.3 1.4a7 7 0 007.2-2l2.9-3.4zm-4.6 9.4a7 7 0 00-7.3 1.2l-3.2 3.2 4.1 1.9a7 7 0 007.3-1.3l3.2-3.1zm-6.2 7.8a7 7 0 00-7.3 1l-3.3 3 4 2.1a7 7 0 007.4-1l3.3-3z" overflow="visible" stroke-width=".833335"/><path style="marker:none" d="M413 286.2a7 7 0 00-7.4-.5l-3.8 2.3 3.5 2.8a7 7 0 007.4.5l3.9-2.3zM407.3 293.8c-1.5-1.6-4.7-2.1-7-1l-4.3 1.8 2.8 3c1.5 1.6 4.7 2 7 1l4.3-1.9-2.8-3zm-7 7c-1.3-1.9-4.4-2.7-6.8-2l-4.5 1.4 2.4 3.3c1.4 1.8 4.5 2.6 7 1.8l4.4-1.4-2.5-3.2zm-7 5.6c-1.5-1.7-4.6-2.3-7-1.3l-4.3 1.6 2.6 3c1.5 1.8 4.6 2.4 7 1.5l4.3-1.7z" overflow="visible" stroke-width=".833335"/></g><g fill="#fecb00" fill-rule="evenodd" stroke="#000" stroke-width=".5"><path d="M386.5 250.2a7 7 0 00-7.3 1.3l-3.2 3.2 4.2 1.9a7 7 0 007.3-1.3l3.2-3.2zM341.3 288.8c-1-2-3.7-3.5-6.3-3.3l-4.6.3 1.6 3.7c.9 2 3.7 3.5 6.3 3.4l4.6-.4z" style="marker:none" overflow="visible" stroke-width=".833335"/><path d="M336.7 276.8a7 7 0 01-2.8 6.9l-3.8 2.4-1-4.4a7 7 0 012.9-6.9l3.7-2.4zm-8 3.3a7 7 0 01-3.5 6.5l-4 2-.5-4.5a7 7 0 013.5-6.5l4-2zm15.8-7a7 7 0 01-2 7.1l-3.5 2.9-1.5-4.3a7 7 0 012-7.2l3.5-2.9zm7.5-5.2a7 7 0 01-1.8 7.2l-3.4 3-1.6-4.3a7 7 0 011.8-7.2l3.4-3 1.6 4.3zm6.9-5.3a7 7 0 01-1.5 7.3l-3.2 3-1.8-4.1a7 7 0 011.5-7.3l3.2-3.1zm6.6-6.2a7 7 0 01-.5 7.5l-2.8 3.5-2.3-4a7 7 0 01.5-7.4l2.8-3.5zm6-6.8a7 7 0 01.4 7.4l-2.3 3.8-2.8-3.5a7 7 0 01-.5-7.5l2.3-3.8 2.8 3.6zm5.5-6.7a7 7 0 01.4 7.5l-2.4 3.8-2.8-3.6a7 7 0 01-.3-7.5l2.3-3.8zm14.2-.7a7 7 0 00-7.2 2l-2.9 3.3 4.3 1.6a7 7 0 007.2-2l2.9-3.4zm-10.4 15.6a7 7 0 00-7.4.3l-3.6 2.7 3.9 2.4a7 7 0 007.4-.3l3.6-2.7zm-6.5 8a7 7 0 00-7.4-.3l-3.9 2.3 3.7 2.8a7 7 0 007.4.4l3.8-2.4-3.6-2.7zM366 272a7 7 0 00-7.4-.7l-3.9 2.2 3.5 3a7 7 0 007.4.6l4-2.2zm-7.9 7a7 7 0 00-7.1-2.2l-4.3 1.4 2.9 3.5a7 7 0 007.1 2.2l4.3-1.4-2.9-3.6z" style="marker:none" overflow="visible" stroke-width=".833335"/><path d="M350 284.3c-1.1-2-4.1-3.1-6.6-2.6l-4.6.9 2 3.4c1.2 2 4.1 3.1 6.7 2.6l4.6-.8zm-17.7 8c-.8-2.1-3.6-3.7-6.2-3.7l-4.6.2 1.5 3.8c.8 2 3.5 3.6 6.1 3.6l4.7-.2zM319.7 282.8a7 7 0 01-3.9 6.3l-4 1.9-.3-4.6a7 7 0 013.8-6.4l4.1-1.8.3 4.6zM312.8 297.8c-.4-2.2-2.8-4.3-5.3-4.7l-4.6-.8.7 4c.4 2.2 2.8 4.3 5.4 4.7l4.6.7-.8-4zm9.8-2.7c-.7-2-3.4-3.8-6-4H312l1.2 3.8c.7 2.1 3.4 3.9 6 4h4.6l-1.2-3.8zm-19 3c-.6-2.2-3.1-4.2-5.7-4.4l-4.6-.4 1 4c.6 2 3.1 4 5.7 4.2l4.6.4zM311.2 285a7 7 0 01-4.4 6l-4.2 1.4.1-4.5a7 7 0 014.4-6l4.2-1.5-.1 4.5zM302.4 286.2c0 2.4-2.1 5-4.6 5.7l-4.6 1.4.2-4.3c0-2.3 2.1-4.9 4.6-5.7l4.6-1.4-.2 4.3zM380.9 235.5a7 7 0 012 7.1l-1.6 4.3-3.5-3a7 7 0 01-2-7.2l1.6-4.2z" style="marker:none" overflow="visible" stroke-width=".833335"/></g><g fill="#fecb00" fill-rule="evenodd" stroke="#000" stroke-width=".5"><path style="marker:none" d="M205 235.5a7 7 0 00-2 7.1l1.5 4.3 3.5-3a7 7 0 002-7.2l-1.6-4.2zm-5.7 14.7a7 7 0 017.3 1.3l3.2 3.2-4.2 1.9a7 7 0 01-7.3-1.3l-3.1-3.2zM244.5 288.8c1-2 3.7-3.5 6.3-3.3l4.7.3-1.7 3.7c-.9 2-3.7 3.5-6.3 3.4l-4.6-.4 1.6-3.7z" overflow="visible" stroke-width=".833335"/><path d="M249.1 276.8a7 7 0 002.8 6.9l3.8 2.4 1-4.4a7 7 0 00-2.9-6.9l-3.7-2.4-1 4.4zm8 3.3a7 7 0 003.5 6.5l4 2 .5-4.5a7 7 0 00-3.5-6.5l-4-2zm-15.8-7a7 7 0 002 7.1l3.5 2.9 1.5-4.3a7 7 0 00-2-7.2l-3.5-2.9zm-7.4-5.2a7 7 0 001.8 7.2l3.3 3 1.6-4.3a7 7 0 00-1.8-7.2l-3.4-3-1.5 4.3zm-7-5.3a7 7 0 001.5 7.3l3.2 3 1.8-4.1a7 7 0 00-1.5-7.3l-3.2-3.1zm-6.6-6.2a7 7 0 00.5 7.5l2.8 3.5 2.3-4a7 7 0 00-.5-7.4l-2.7-3.5zm-6-6.8a7 7 0 00-.4 7.4l2.3 3.8 2.8-3.5a7 7 0 00.5-7.5l-2.3-3.8zm-5.5-6.7a7 7 0 00-.4 7.5l2.4 3.8 2.8-3.6a7 7 0 00.4-7.5l-2.4-3.8zm-14.2-.7a7 7 0 017.2 2l2.9 3.3-4.3 1.6a7 7 0 01-7.2-2l-2.9-3.4zm10.4 15.6a7 7 0 017.4.3l3.6 2.7-3.9 2.4a7 7 0 01-7.4-.3l-3.6-2.7zm6.5 8a7 7 0 017.5-.3l3.8 2.3-3.6 2.8a7 7 0 01-7.5.4l-3.8-2.4 3.6-2.7zm8.3 6.2a7 7 0 017.4-.7l3.9 2.2-3.5 3a7 7 0 01-7.4.6l-4-2.2zm7.9 7a7 7 0 017.1-2.2l4.3 1.4-2.9 3.5a7 7 0 01-7.1 2.2l-4.3-1.4 2.9-3.6z" style="marker:none" overflow="visible" stroke-width=".833335"/><path d="M235.8 284.3c1.1-2 4.1-3.1 6.6-2.6l4.6.9-2 3.4c-1.2 2-4.1 3.1-6.7 2.6l-4.5-.8zm17.7 8c.9-2.1 3.6-3.7 6.2-3.7l4.6.2-1.4 3.8c-.9 2-3.6 3.6-6.2 3.6l-4.6-.2zM266.1 282.8a7 7 0 003.9 6.3l4 1.9.3-4.6a7 7 0 00-3.8-6.4l-4.1-1.8-.3 4.6zM273 297.8c.4-2.2 2.8-4.3 5.3-4.7l4.6-.8-.7 4c-.4 2.2-2.8 4.3-5.4 4.7l-4.6.7.8-4zm-9.8-2.7c.7-2 3.4-3.8 6-4h4.6l-1.2 3.8c-.7 2.1-3.4 3.9-6 4H262l1.2-3.8zm19 3c.6-2.2 3.1-4.2 5.7-4.4l4.6-.4-1 4c-.6 2-3.1 4-5.7 4.2l-4.6.4 1-3.9zM274.6 285a7 7 0 004.4 6l4.2 1.4-.1-4.5a7 7 0 00-4.4-6l-4.2-1.5.1 4.5zM283.4 286.2c0 2.4 2.1 5 4.6 5.7l4.6 1.4-.1-4.3c-.1-2.3-2.2-4.9-4.7-5.7l-4.5-1.4v4.3z" style="marker:none" overflow="visible" stroke-width=".833335"/></g><g fill-rule="evenodd" stroke="#000" stroke-width=".5"><g fill="#fecb00"><path d="M151.9 215a7 7 0 00-3.3 6.6l.7 4.5 4-2.3a7 7 0 003.2-6.7l-.7-4.4zm-2-8.7a7 7 0 00-3.5 6.6l.5 4.5 4-2.2a7 7 0 003.5-6.5l-.5-4.5-4 2.1z" style="marker:none" overflow="visible" stroke-width=".833335"/><path d="M141.1 202.5a7 7 0 001.4 7.3l3.2 3.2 1.8-4.2a7 7 0 00-1.3-7.3l-3.2-3.2z" style="marker:none" overflow="visible" stroke-width=".833335"/><path d="M139.1 208.7a7 7 0 015.9 4.6l1.3 4.3-4.6-.3a7 7 0 01-5.8-4.6l-1.3-4.3zm1.2 9.2a7 7 0 016.2 4.1l1.7 4.2h-4.6a7 7 0 01-6.2-4l-1.7-4.2z" style="marker:none" overflow="visible" stroke-width=".833335"/></g><path d="M159.7 216.4a79.2 79.2 0 00-35 14.3l2 4a83.8 83.8 0 0134.9-14z" transform="matrix(1.80413 .10193 -.14078 1.66508 -56 -163.8)"/><path d="M161.4 220.1a79 79 0 00-34.8 14.5l1.7 3.8a85.5 85.5 0 0135.3-14.2z" transform="matrix(1.80413 .10193 -.14078 1.66508 -56 -163.8)" fill="#bf0000"/><path d="M163.4 224.1a80 80 0 00-35 14.2l1.8 4a86.7 86.7 0 0135.5-14.5z" transform="matrix(1.80413 .10193 -.14078 1.66508 -56 -163.8)" fill="#090"/></g><g fill-rule="evenodd" stroke="#000" stroke-width=".5"><path d="M292.9 310.6c-22.7 0-45.9 2-66.1 6.2l1.3 6.5c39.5-8 90.7-8 130.1 0l1.3-6.5c-20.2-4.1-44-6.2-66.6-6.2z" fill="#090" stroke-width=".833335"/><path d="M292.9 304.2c-23.1 0-46.8 2.2-67.4 6.3l1.3 6.5c40.2-7.9 92.5-7.9 132.7 0l1.2-6.5c-20.6-4-44.7-6.3-67.8-6.3z" fill="#bf0000" stroke-width=".833335"/><path d="M292.9 297.6a377 377 0 00-68.8 6l1.2 6.5c41.5-7.8 93.7-7.8 135.2 0l1.2-6.5c-21.2-4-45-6-68.8-6z" stroke-width=".833335"/></g><g fill="#fecb00" fill-rule="evenodd" stroke="#000" stroke-width=".5"><path style="marker:none" d="M193.1 290a7 7 0 001.2 7.4l3.2 3.2 1.9-4.2a7 7 0 00-1.2-7.3l-3.1-3.2zm7.2 6.3a7 7 0 001 7.3l3 3.4 2-4.1a7 7 0 00-1-7.4l-3-3.3-2 4zm-13.4-12.6a7 7 0 00.4 7.5l2.7 3.5 2.4-3.9a7 7 0 00-.3-7.4l-2.8-3.5z" overflow="visible" stroke-width=".833335"/><path style="marker:none" d="M181.3 277.3a7 7 0 00.1 7.5l2.7 3.6 2.5-3.8a7 7 0 00-.2-7.5l-2.6-3.6-2.5 3.8zm-5.4-7.1a7 7 0 00-.2 7.4l2.5 3.8 2.6-3.7a7 7 0 00.2-7.4l-2.4-3.8-2.7 3.7zm-4.7-7.7a7 7 0 00-1.2 7.4l2 4 3-3.3a7 7 0 001.3-7.3l-2-4zm-4.6-7.8a7 7 0 00-2 7.2l1.3 4.2 3.6-2.8a7 7 0 002-7.2l-1.3-4.2zm-4-7.7a7 7 0 00-2 7.2l1.5 4.2 3.5-2.9a7 7 0 002-7.2l-1.4-4.2-3.5 3zm-10.8 5a7 7 0 016.8 3l2.4 3.7-4.5 1a7 7 0 01-6.8-3l-2.4-3.8zm3.8 8.6a7 7 0 017.2 2l2.9 3.5-4.3 1.4a7 7 0 01-7.2-2l-2.9-3.4 4.3-1.5zm4.6 9.4a7 7 0 017.3 1.2l3.2 3.2-4.1 1.9a7 7 0 01-7.3-1.3L156 272zm6.2 7.8a7 7 0 017.3 1l3.3 3-4 2.1a7 7 0 01-7.4-1l-3.3-3z" overflow="visible" stroke-width=".833335"/><path style="marker:none" d="M172.8 286.2a7 7 0 017.4-.5l3.9 2.3-3.6 2.8a7 7 0 01-7.4.5l-3.9-2.3zM178.5 293.8c1.5-1.6 4.7-2.1 7-1l4.3 1.8-2.8 3c-1.5 1.6-4.7 2-7 1l-4.3-1.9 2.8-3zm7 7c1.3-1.9 4.4-2.7 6.8-2l4.5 1.4-2.4 3.3c-1.4 1.8-4.4 2.6-6.9 1.8L183 304l2.5-3.2zm7 5.6c1.5-1.7 4.6-2.3 7-1.3l4.4 1.6-2.7 3c-1.5 1.8-4.6 2.4-7 1.5l-4.3-1.7z" overflow="visible" stroke-width=".833335"/></g><g fill-rule="evenodd" stroke="#000" stroke-width=".5"><path d="M219.4 318c-11.3 2.6-23 5.7-33.1 9.2l2.1 6.3c9.7-3.4 21-6.3 31.9-8.8z" fill="#090" stroke-width=".833335"/><path d="M218.6 311.6a332 332 0 00-34.3 9.4l2.2 6.3c10-3.4 21.6-6.6 33-9l-.9-6.7z" fill="#bf0000" stroke-width=".833335"/><path d="M217.8 305a343.2 343.2 0 00-35.7 9.5l2.1 6.3c10.8-3.6 22.4-6.7 34.4-9.3l-.8-6.6z" stroke-width=".833335"/></g><g fill-rule="evenodd" stroke="#000" stroke-width=".5"><path d="M366.4 318c11.3 2.6 23 5.7 33.2 9.2l-2.2 6.3c-9.7-3.4-21-6.3-31.9-8.8z" fill="#090" stroke-width=".833335"/><path d="M367.2 311.6c11.7 2.6 23.7 5.9 34.3 9.4l-2.1 6.3a323.4 323.4 0 00-33-9z" fill="#bf0000" stroke-width=".833335"/><path d="M368 305c12.4 2.6 24.5 5.8 35.7 9.5l-2.1 6.3a333.6 333.6 0 00-34.4-9.3z" stroke-width=".833335"/></g><g fill-rule="evenodd" stroke="#000" stroke-width=".5"><g fill="#fecb00"><path d="M434 215a7 7 0 013.2 6.6l-.7 4.5-4-2.3a7 7 0 01-3.2-6.7l.7-4.4 4 2.2zm2-8.7a7 7 0 013.4 6.6l-.5 4.5-4-2.2a7 7 0 01-3.5-6.5l.5-4.5 4 2.1z" style="marker:none" overflow="visible" stroke-width=".833335"/><path d="M444.7 202.5a7 7 0 01-1.4 7.3l-3.2 3.2-1.8-4.2a7 7 0 011.3-7.3l3.2-3.2z" style="marker:none" overflow="visible" stroke-width=".833335"/><path d="M446.7 208.7a7 7 0 00-5.8 4.6l-1.4 4.3 4.6-.3a7 7 0 005.8-4.6l1.4-4.3zm-1.1 9.2a7 7 0 00-6.3 4.1l-1.7 4.2h4.6a7 7 0 006.2-4l1.7-4.2h-4.6z" style="marker:none" overflow="visible" stroke-width=".833335"/></g><path d="M159.7 216.4a79.2 79.2 0 00-35 14.3l2 4a83.8 83.8 0 0134.9-14z" transform="matrix(-1.80413 .10193 .14078 1.66508 641.8 -163.8)"/><path d="M161.4 220.1a79 79 0 00-34.8 14.5l1.7 3.8a85.5 85.5 0 0135.3-14.2z" transform="matrix(-1.80413 .10193 .14078 1.66508 641.8 -163.8)" fill="#bf0000"/><path d="M163.4 224.1a80 80 0 00-35 14.2l1.8 4a86.7 86.7 0 0135.5-14.5z" transform="matrix(-1.80413 .10193 .14078 1.66508 641.8 -163.8)" fill="#090"/></g><g fill="#fecb00" fill-rule="evenodd" stroke="#000" stroke-width=".5"><path style="marker:none" d="M244.3 335.3c.7-2 3.4-3.8 6-3.8h4.7l-1.4 3.9c-.8 2-3.5 3.7-6 3.7h-4.7z" overflow="visible" stroke-width=".833335"/><path style="marker:none" d="M248 323a7 7 0 003.3 6.7l3.9 2.2.6-4.5a7 7 0 00-3.2-6.7l-4-2.2zm8.2 2.7a7 7 0 004 6.3l4 1.8.2-4.6a7 7 0 00-3.9-6.3l-4.1-1.7zm-16.2-5.9a7 7 0 002.5 7l3.6 2.6 1.2-4.4a7 7 0 00-2.5-7l-3.7-2.6-1.1 4.4z" overflow="visible" stroke-width=".833335"/><path style="marker:none" d="M235.3 331.4c1-2 3.8-3.4 6.4-3l4.6.5-1.8 3.6c-1 2-3.9 3.4-6.4 3l-4.7-.5zm18.2 6.7c.7-2.1 3.3-4 5.9-4l4.6-.2-1.2 3.9c-.7 2-3.3 3.9-5.9 4l-4.6.2zM265.4 327.8a7 7 0 004.3 6l4.2 1.6v-4.6a7 7 0 00-4.4-6l-4.2-1.6v4.6zM273.3 342.3c.2-2.3 2.5-4.5 5-5.1l4.5-1-.4 4c-.3 2.2-2.5 4.4-5 5l-4.6 1 .5-4zm-10-2c.6-2.2 3.2-4.1 5.7-4.3l4.7-.5-1 4c-.6 2.1-3.1 4-5.7 4.3l-4.6.4 1-3.9zm19.2 1.6c.4-2.2 2.8-4.3 5.4-4.7l4.6-.8-.8 4c-.4 2.2-2.8 4.3-5.3 4.7l-4.6.7.7-4zM274 329.3a7 7 0 004.8 5.7l4.3 1.2-.4-4.5a7 7 0 00-4.8-5.7l-4.3-1.2zM282.8 330c.3 2.4 2.5 4.8 5.1 5.4l4.6 1-.4-4.2c-.2-2.4-2.5-4.8-5-5.4l-4.7-1z" overflow="visible" stroke-width=".833335"/></g><g fill="#fecb00" fill-rule="evenodd" stroke="#000" stroke-width=".5"><path style="marker:none" d="M341.6 335.3c-.8-2-3.5-3.8-6-3.8h-4.8l1.4 3.9c.8 2 3.5 3.7 6 3.7h4.7l-1.3-3.8z" overflow="visible" stroke-width=".833335"/><path style="marker:none" d="M337.8 323a7 7 0 01-3.3 6.7l-3.9 2.2-.6-4.5a7 7 0 013.2-6.7l4-2.2zm-8.2 2.7a7 7 0 01-4 6.3l-4 1.8-.2-4.6a7 7 0 014-6.3l4-1.7zm16.2-5.9a7 7 0 01-2.5 7l-3.6 2.6-1.2-4.4a7 7 0 012.5-7l3.7-2.6z" overflow="visible" stroke-width=".833335"/><path style="marker:none" d="M350.6 331.4c-1-2-4-3.4-6.5-3l-4.6.5 1.8 3.6c1 2 3.9 3.4 6.4 3l4.7-.5zm-18.3 6.7c-.7-2.1-3.3-4-5.9-4l-4.6-.2 1.2 3.9c.7 2 3.3 3.9 5.9 4l4.6.2zM320.4 327.8a7 7 0 01-4.3 6l-4.2 1.6.1-4.6a7 7 0 014.3-6l4.2-1.6v4.6zM312.5 342.3c-.2-2.3-2.5-4.5-5-5.1l-4.5-1 .4 4c.3 2.2 2.5 4.4 5 5l4.6 1zm10-2c-.6-2.2-3.2-4.1-5.7-4.3l-4.7-.5 1 4c.6 2.1 3.1 4 5.7 4.3l4.6.4zm-19.2 1.6c-.4-2.2-2.8-4.3-5.4-4.7l-4.6-.8.8 4c.4 2.2 2.8 4.3 5.3 4.7l4.6.7-.7-4zM311.8 329.3a7 7 0 01-4.8 5.7l-4.3 1.2.4-4.5a7 7 0 014.8-5.7l4.3-1.2zM303 330c-.3 2.4-2.5 4.8-5 5.4l-4.7 1 .4-4.2c.3-2.4 2.5-4.8 5-5.4l4.7-1z" overflow="visible" stroke-width=".833335"/></g><g fill-rule="evenodd" stroke="#000" stroke-width=".5"><path d="M293 310.6c22.6 0 45.8 2 66 6.2l-1.3 6.5c-39.5-8-90.7-8-130 0l-1.4-6.5c20.2-4.1 44-6.2 66.6-6.2z" fill="#090" stroke-width=".833335"/><path d="M293 304.2c23 0 46.7 2.2 67.3 6.3L359 317c-40.2-7.9-92.5-7.9-132.6 0l-1.3-6.5c20.6-4 44.7-6.3 67.8-6.3z" fill="#bf0000" stroke-width=".833335"/><path d="M293 297.6c23.7 0 47.5 2 68.7 6l-1.2 6.5a391.2 391.2 0 00-135.2 0l-1.2-6.5c21.2-4 45-6 68.8-6z" stroke-width=".833335"/></g><path style="marker:none" overflow="visible" d="M0 400h1200v200H0z" fill="#090" fill-rule="evenodd"/></svg>