<svg xmlns="http://www.w3.org/2000/svg" version="1" width="825.4" height="550.3"><path d="M0 275.1V0h825.4v550.3H0V275z" fill="#fff"/><path d="M189.6 399.6c-22.9-6.1-35.4-24.6-35.4-52.1 0-17.6 8.8-51.2 13.4-51.2 1.4 0 .6 3.7-1.8 8.2a83.8 83.8 0 00-5.4 26.1c-1.4 24 5.5 37.7 23.7 47 10.8 5.5 15.9 6.4 35.5 6.3 14.2 0 28.8-1.8 38.2-4.6 19.4-5.7 52.3-20.8 52.3-24 0-1.3-5.3-3-11.7-3.6-26.1-3-38.5-31.8-27.5-64 5.3-15.8 7.2-13.8 2.3 2.4-6.5 21.5 3.1 41.6 21.6 45.3 11.2 2.2 15.3-.3 15.2-9.5 0-9.7-7.3-112.1-9.2-131-1.5-14.4.7-28.2 3.8-24.5 4 4.7 8.3 27.3 5.6 29-3.2 2 4.5 124.6 8 128.7 3.5 4 24.1-8.4 35.5-21.3 12.8-14.6 12.3-20.4-2.3-24.7a55 55 0 01-14.7-6.3c-5.4-4.5-4.8-23.5 1.1-30.8 4.1-5 5.9-5.6 11.9-3.5 4.1 1.5 9 6.5 12 12 5.8 11.3 10.4 12 22.3 3.3 11-8.2 12.2-8 13.2 1.9 1 10.9 9.5 12.6 16.8 3.3 5.7-7.3 8.2-8.2 8.2-2.9 0 4.8 7 11.7 11.8 11.7 2.6 0 3.7-2.3 3.4-7-1.4-20.8 3.5-20.3 7.5.7 2.1 11.2 1.8 13.3-3 18.4-6.7 7.1-11.4 7.2-18.7.3-5.4-5-6.1-5-11.6-1.2-8.8 6-12 5-16.8-5.5-2.4-5.2-4.6-10-5-10.5-1-1.6-18.8 12.6-20 15.9-.4 1.6-2.2 7.9-3.7 14-3.2 12.5-17.3 29.1-37.2 43.8-8.7 6.5-13.5 12-14.5 16.9-1.5 7.9-25 26.2-42 32.8l-9.5 3.7 10-1.5c5.4-.8 19.3-4.9 30.9-9 20.5-7.5 21-7.8 22.2-17 .7-5.2 3-13.5 5.2-18.4 3.9-8.9 3.9-8.9 2.5 8.3-1 12.3-.6 17.2 1.6 17.2 5.3 0 27.8-12.5 37-20.7 10.4-9 11-13 4-24.6-5-8-7-21-3.3-21 1 0 5 3.1 8.9 6.9 5.4 5.2 7.1 9.2 7.1 16.7 0 16.6-7.5 27.3-29 41.2-12.4 8-18.6 13.4-17 15 7.5 7.5 69-34.5 69-47.2 0-6.7-11.6-29.6-19-37.7a36.9 36.9 0 01-7.6-13.7l-1.7-7.3 8.4 7c10.5 8.8 18.9 23 33 55.6 8.3 19.3 12.8 26.6 18.7 30.2 10.3 6.3 10.8 6.1 11.9-4.9.9-9.4.7-9.5-8-9.5-7 0-9-1.1-9.5-5.1-.7-5.1-.7-5.1 1.6 0 2.1 4.9 2.3 4.8 4.9-1.3 1.8-4.5 2.7-5 2.8-2 0 2.5 1.3 4.5 2.7 4.5 1.4 0 2.7-2 2.8-4.4.3-4.1.4-4 1.5.1 1.5 5.7 5.5 4.6 10.4-2.8l3.7-5.6h-39.4l1.6-8c.9-4.5 2-8.6 2.6-9.2.6-.6 12.4-7 26.1-14.2l25-13.2 1.4-11.4a53 53 0 013.4-14.7c4.5-7.2 37.3-.3 37.3 7.8 0 5.4-9.6 16.6-18 21-4.1 2.1-7.5 5.6-7.5 7.7 0 3-1 3.3-5 1.1-4-2.2-9.2-1-24.9 5.6l-19.7 8.4 39.8 1.3 39.7 1.3-2 5.7c-1.3 3.1-2.9 5.7-3.7 5.7-8.5 0-39.9 6.5-45.8 9.5-11.8 6-19.1 13.7-19.1 20.3 0 6.1 1 6.8 13.4 9.5 5.3 1.2 7 3 7 7.8 0 8.3-8.3 12.4-21.4 10.7-8.3-1-12.7-3.8-21.1-13a90 90 0 01-15-23.2c-2.4-6.2-5.1-11.4-6-11.4-1 0-3.7 3.4-6.2 7.6a95.3 95.3 0 01-19 18.8c-8.1 6.2-16.3 13.2-18.3 15.6a55.8 55.8 0 01-28.5 14c-3 0-8.6-2.7-12.2-6.1l-6.5-6.2-13 5.5c-10.6 4.6-16.8 5.4-34 4.7-16.8-.6-20.6-1.5-19.5-4.4.8-2 1.2-3.6.8-3.6l-18.3 5a91.3 91.3 0 01-53 1.5zm319.2-111c3.4-2.3 3.4-2.8 0-5a17.5 17.5 0 00-8-2.6c-4.8 0-10.6 6-8.1 8.5s11.7 2 16-1zm-158-25c0-3.6-6-8.1-10.8-8.1-3.8 0-4.2.9-1.9 5 2.6 5 12.7 7.4 12.7 3.1zm30.6 132.7c0-4 1.4-9.3 3.2-11.7 2.7-3.7 3.2-2.8 3.1 6.3 0 6.1-1.4 11.1-3.2 11.7-2 .7-3-1.6-3-6.3zm120.1 1a48.3 48.3 0 01-8.5-21.5l-2.9-15.6-8.8 3.7c-11 4.6-12.1 4.6-8.3 0 1.7-2 7-5 11.8-6.6 5.3-1.7 8.7-4.5 8.7-7.1 0-3.5.5-3.6 2.4-.7 1.9 3 4.3 2.7 15.3-2 7.2-3 14-5 15.2-4.3 1.1.7 4.1-1 6.6-3.7 6.5-7 8-6.4 10.1 4.5 3.1 17 10.7 31 18.4 34 12.6 4.9 29.7 3.1 47-4.8C631 363 633 360 636.1 333.1c3.8-33.7 3.4-53.4-1.3-57.3-2.1-1.8-4.6-2.4-5.6-1.4s-2.4 14-3.2 29c-2.3 42.4-6.6 42.4-5.5 0 1-41-.5-45.2-12.2-34l-7.6 7.2 6.6 11.2c9.6 16.4 7.4 29.4-7 42.2-19.9 17.8-37 9.7-33.7-16 1.6-12.7 6-22.8 12-27.8 2.3-1.8 4-4.3 4-5.5 0-3-20.5-17.7-22.8-16.3-1 .6-2.6 12.4-3.6 26.2-2.9 42-6.7 44.7-5 3.5 1.3-29.4.9-37-1.9-38.8-2.1-1.3-5-.7-7.7 1.7-2.3 2-8.3 4.5-13.4 5.3-10.5 1.7-17.1-2.6-23.8-15.6l-3.9-7.5-4.5 8.8c-6.5 12.6-16.2 20.8-23.3 19.8-8.2-1.2-19.6-24.5-23.2-47.7C448 210 446 202 445 202c-4.4 0-8 8.5-10.6 24.6a79 79 0 01-5.3 20.6c-7.9 10.2-22.4-5.5-21.9-23.6l.3-10.1 1.8 10.9c1 6 3.6 12.8 6 15 6.1 6.3 11.1.6 14.6-16.6 3.8-18.5 12.4-38.6 16.4-38.6 2 0 3.7 6.1 4.8 17.2 2.2 23.2 5.7 34.6 13.4 43.8 19.1 22.7 40.9-10 27.7-41.5-2-5-3.7-13-3.6-17.5l.2-8.4 5 11.5c2.9 6.3 6.9 18.8 9 27.8 5 21.8 6.9 24.7 17.7 28.3 14 4.6 16.5-.4 5.2-10.4-5.8-5-9.3-10.3-9.3-14.2 0-3.3 1-6 2.1-6 3.1 0 13.2 11.2 13.2 14.7 0 1.6 2.3 4.1 5.1 5.6 7.7 4.1 6.7-3.7-4-30.7-11.1-28.1-10.8-33 1.5-22.5 5.6 4.9 7.7 8.2 5.7 9-2.4 1-2.3 3.3.6 10.2 2 4.8 4.5 14.8 5.4 22 3 24.1 5.3 20.6 6.7-10.4 1.7-37.2 5.1-46.4 8.7-23.8 1.8 10.9 1.7 15.8-.2 16.4-1.5.5-3.1 10.2-3.6 22.5l-.9 21.6 9.8 6.7c5.4 3.6 14.1 8.7 19.4 11.2l9.7 4.5 6.9-7 6.9-6.9-16.9-15.8c-22.1-20.8-27.6-35.5-9.4-25.6 5.1 2.8 8.5 6.6 8.5 9.6 0 4.7 19.1 21.7 24.4 21.7 3.1 0 3-17.1 0-18.2-1.4-.5-3.2-8.9-4.1-18.7-1.2-13-.9-16.8 1.1-14 1.5 2.1 2.9 7.3 3 11.5.3 4.2 1.3-.5 2.4-10.5 2.4-22.6 4.9-31.3 7.6-26.3 3.5 6.8 5.4 22.7 2.6 22.7-2.9 0-3.8 43.9-1 46.8 1 .9 3.9-.2 6.5-2.6 3.9-3.5 4.6-8.2 4.6-29 0-24.8 3-39.7 7.4-37 3.7 2.3 6 19.8 2.9 21.8-1.8 1.1-2.6 7.6-2.1 16.8l.7 15 5.8-5.6c4.5-4.6 5.7-8.6 5.7-19.9 0-7.7 1.9-18.3 4.2-23.5l4.2-9.5 2.1 11.5c1.4 7.2 1.3 11.7-.3 12.3-1.4.4-2.6 3.8-2.6 7.4v6.6l6.8-6.1c6.7-6 6.6-5.9-1.6 8.7l-8.4 15 1.8 36c1 19.8 2.7 37.1 3.8 38.5 1 1.4 3.5 8.3 5.4 15.2 3.4 12.6 3.4 12.6 5.7 5.1 1.2-4.1 2.6-38 3-75.3.4-41.5 1.8-69.7 3.4-72.7 3-5.3 4.2-3.4 6.5 10.5.6 4.2 1.9 10.5 2.7 14 .9 3.6.9 5 0 3.2-4.2-8.9-5.5 2.3-7 62.7-1.2 49-2.6 68.6-5.5 76.8-4.5 12.7-21.3 34-37.3 47.4-13.1 11-17 12.6-35.3 14.8l-14 1.6 14-7.4c26.6-14.1 56.8-38.8 63.7-52 4.3-8.3 5.5-12.7 3.5-14-1.5-1-5-6.4-7.5-12l-4.8-10.1-3.4 12.7c-1.8 7-4.4 15-5.6 17.7-2 4.7-2.3 4.6-2.4-1.2-.1-3.5 1-13.2 2.3-21.5 2.1-12.8 1.8-15.9-1.7-19.8-2.3-2.5-5-4.6-6-4.6s-2.5 11.5-3.5 25.5c-3 43.5-10.1 58.2-35.6 73.5a60.7 60.7 0 01-30.4 9.9c-15.4 1.2-16.6.9-23-6-6-6.5-17-30.1-17-36.7 0-4.5-4.8-2.6-8.7 3.3-2 3.1-5 12-6.7 19.7-3.2 15.6-8.4 25.5-13.5 25.5-1.8 0-5.8-2.7-8.9-6zm18-29.6c3.9-11.8 6.7-21.7 6.4-22-.3-.2-7.1 2.4-15.2 6L496 358v11.4c0 14.5 3.8 21.7 11 20.6 4.6-.6 6.9-4.7 12.6-22.3zm-15.8 6.5c0-5 2.7-11.7 4.7-11.7 1 0 1.7 3.4 1.7 7.6 0 4.4-1.4 7.7-3.2 7.7-1.8 0-3.2-1.6-3.2-3.6zm100-56.9c6.2-5.6 5.5-14-1.8-22-8.1-8.7-14.7-8.5-22.7 1-9.9 11.8-11 18-4 23.5 6.8 5.6 20.9 4.3 28.5-2.5zm55.4-63.5V224l-6.4 6c-5.6 5.3-6.3 8.1-6.3 23.9 0 14.8.9 18.8 5.5 23.7 3 3.3 6 6 6.4 6 .4 0 .8-13.5.8-29.8zm-21.4-7.8c-2.4-2.4-9.2 4.8-9.2 9.7 0 2.5 2 5.8 4.5 7.2 3.8 2.1 4.6 1.2 5.2-6.5.5-5 .2-9.7-.5-10.4zM233.8 366.4c4.4-4.4 40.6-14.7 40.6-11.6 0 2.1-14 7.2-34.2 12.6-8.7 2.2-9.5 2-6.4-1zm334.9-.6c1.4-1.5 10.5-5.5 20.3-9 28.2-10.3 34.4-12 34.4-9.7 0 1.2-11.1 6-24.8 10.5l-28.7 9.5c-2.5.8-3 .4-1.2-1.3zm-382.2-11.4c-5.6-8.6-6.6-12-4.7-17.2 2.9-8.2 11-10.4 11-3 0 3-1.6 5.4-3.6 5.4-6.8 0-7 5.1-.3 13 5.8 6.8 8.3 12.4 5.6 12.4-.5 0-4.1-4.7-8-10.6zm28.3-36.2c-1.7-43.4-2.1-45.7-8-52.1-7.5-8-10.6-16.9-14.7-41.4-1.7-10.2-4.4-19-6-19.5-1.8-.6-4.1 4.8-6 13.8-6 30.5-7.5 34.3-13.2 33.5-9.5-1.4-15.3-12.8-16.7-32.4-.7-10.2-.3-18.1 1-18.1s2 4.3 1.4 9.5c-2.1 23.6 13.6 42.2 19.4 23.1 1.5-4.6 3.4-14.1 4.4-21.1 1.8-13.5 7.4-26.8 11.3-26.8 1.3 0 3 4.3 3.8 9.6 5 34.5 9.6 48.8 16.3 51 2.8 1 3-3 1.4-21.4-2.5-27.6-2.3-33.9 1-37.2 3-3 11.9 24.6 9.3 28.8-.9 1.5-.8 10.5.1 20.1 1.5 14.8 2.4 17.3 6 16 15.1-5.2 17-25.4 4.9-49.5-5.5-10.9-8-19.2-7.5-24.6l.8-8.2 5.8 10.9c3.2 6 8.4 18.9 11.6 28.7 8.6 26 14.5 36.6 21.5 38.4 11 2.7 17.8.3 20.5-7.4 2.2-6.2 1-10.4-9.5-30.8-15.3-30-16.3-43.6-2-28.4 3.2 3.4 5.3 7.7 4.6 9.6-.6 1.8 1.5 8.7 4.8 15.2 8.3 16.6 11.2 31.1 8.3 41.7-2.6 9.3-10.6 16.5-18.4 16.5-8.3 0-19.2-10-22.4-20.5-2.6-8.6-5.8-11.4-6.2-5.4-.8 12.5-5 21.6-12.7 27.8l-8.8 7-.2 39.5c-.2 56-3.7 58.4-5.9 4.1zM384 357.1c0-.9 3.4-5.8 7.5-11 5.9-7.4 7-10.7 5.2-14.2-1.8-3.4-1.4-5 1.7-6.1 7.2-2.8 2.2 16.2-6.7 25-4.3 4.3-7.7 7-7.7 6.3zm-36.5-7.3c-.7-2.8-.2-5.8 1-6.6 1.4-.8 2.1-.5 1.8.6-.4 1.2.4 2.7 1.7 3.4 1.3.7 3.2-1.6 4.2-5 1.1-4.1 1.9-4.8 2-2 .4 6.4 4.8 5.5 6.1-1.3.8-4 1.2-3.3 1.5 2.6.3 6.8-1 8.8-6.2 10.9-9.2 3.4-10.5 3.1-12-2.6zm298.9 3.1c0-1 5.8-5 12.9-8.7 15-7.9 15.7-3.6.9 4.9-10.6 6-13.9 7-13.8 3.8zM250.6 348c-2.8-2.8-1.9-20.7 1.1-22.6 2-1.2 2.3.7 1.1 6.2-1.4 6.3-.9 8 2.3 8 2.2 0 4 1 4 2.2 0 3.3-6.6 8.2-8.5 6.2zm87.5-9.7c0-2 20.8-12 22.1-10.6.7.7-1 2.5-3.9 4-7.6 4-18.2 8-18.2 6.6zm82.8-31.8c6-6.8 39.9-24.4 38-19.8-1 2.8-32.3 21.9-40.2 24.6-1.6.5-.6-1.6 2.2-4.8zm37.8-11.2c5.4-5 9.1-10 8.3-11.3-.8-1.4.2-3.9 2.3-5.6 3.2-2.7 3.8-2 3.8 4.8 0 5-1.3 8-3.5 8-2 0-5 1.7-6.8 4a30 30 0 01-8.6 6.4c-2.9 1.4-.9-1.5 4.5-6.3zm-276-2.8c-2.4-3-2.5-6.4-.4-14.6 1.5-6 2.2-11.3 1.5-12-.6-.5-8.1.9-16.7 3.3-21.7 6-22 3.1-.3-3.3 21.8-6.5 24.6-6.6 22.3-.9-4 10.4-4.6 21.6-1 23.8 2.5 1.5 2.7 3 .7 5-2 1.9-3.7 1.6-6-1.3zm351.9-5.6c.1-2.6 1.1-8.1 2.2-12.3 2-7.6 2-7.6 2.3 2l.3 11.4c0 1-1.2 2.3-2.6 2.7-1.4.5-2.4-1.2-2.2-3.8zm25.1-4.4c0-3.5 1-7 2.3-7.7 1.2-.8 2.2 1.5 2.2 5s-1 7-2.2 7.7c-1.3.8-2.3-1.5-2.3-5zm-110-21.7c-.4-5.5-.1-9.5.8-9 2.3 1.5 4.2 19 2 19-1 0-2.2-4.5-2.7-10zm120.8-19.5c-2.2-7.4-2.1-8.5.6-6.3 3.7 3 6.9 15.4 4 15.4-1 0-3-4-4.6-9zm103-9.2c-2.7-8-3.4-14.1-2-15.6 1.5-1.4 3.6 3.3 5.4 12.2 3.9 18.6 2 20.4-3.4 3.4zM317.7 234c-2-2.4-2.5-7.1-1.4-12.7 2.3-12.5 6.3-13.7 4.7-1.4-1 6.7-.4 10.2 1.5 10.2 1.6 0 2.9 1.7 2.9 3.8 0 5-3.6 5-7.7 0zm45.9 2.5c0-.6 5.7-4.1 12.8-7.7 10-5 13.1-8.1 14.3-14.1.9-4.3 3.7-8.8 6.3-10.2 4-2.2 4.8-1.7 4.7 3.2 0 6.2-12.9 18.5-27.2 25.8-8.5 4.4-11 5.1-11 3zm76.6-6.8c-3.8-11-3.5-11.4 2.3-4 5.5 6.9 6.7 12 2.8 12-1.2 0-3.5-3.6-5-8zm-22.1-16c-.8-2-1-6.8-.3-10.8 1-7 1-7 1.4 1.1.2 4.6 1.6 8.3 3 8.3a2.6 2.6 0 012.5 2.5c0 3.9-5 3-6.6-1zm164.5-10.4c-1.6-2-2.4-5-1.6-6.9.8-2 1.3-1.6 1.5 1.2.3 7 7.1 5.3 10-2.5 2.3-6.4 2.5-6.5 2.7-1.3.1 3.4 1.8 5.7 4.1 5.7 3.2 0 3.7-2 2.4-9.5-1.2-7.7-1-8.7 1.4-5a24 24 0 012 12.6c-.7 7.4-1.6 8.2-10.1 8.7-5.6.3-10.6-.9-12.4-3zm-74.7-12c-4.6-12.2-5.4-18.3-2-16.2 2.7 1.7 9.2 24.1 7.4 25.8-.7.7-3.1-3.6-5.4-9.7zm-106.1-.6C412 184.2 416 180 417 174.8c1-5.2 3-7.4 7.4-8 5.2-.8 5.8-.1 4.4 5-.9 3.3-1.7 8.9-1.8 12.4-.1 3.5-.8 4.9-1.5 3.1-2-4.8-6.4-3.8-19.6 4.5a56.2 56.2 0 01-15.1 7.6c-1.7 0 3.2-4 10.9-8.8zm23-17.3c0-3-3.8-2.2-4.9 1-.5 1.6.4 2.4 2 1.9 1.5-.5 2.8-1.8 2.8-2.9zM163.2 195c-1.8-1-3-10.6-3-24.2l-.2-22.4 10.6 5.9c13.7 7.5 15.2 13.6 3.9 16-4.7 1-9.3 3.1-10.3 4.7-3.4 5.2-2 15 2.5 18.5 4.6 3.5 1.5 4.9-3.5 1.5zm14.3-31.1a2.6 2.6 0 00-2.6-2.6 2.6 2.6 0 00-2.5 2.6 2.6 2.6 0 002.5 2.5 2.6 2.6 0 002.6-2.5zm-10.2-2.6a2.6 2.6 0 00-2.5-2.5 2.6 2.6 0 00-2.6 2.5 2.6 2.6 0 002.6 2.6 2.6 2.6 0 002.5-2.6zM459 190.8c-1-3.5-1-7.9-.3-9.7.7-1.8 1.4-.2 1.5 3.7.2 8.6 7.7 9.8 8.1 1.3.2-4.3.6-4.7 1.5-1.3 1.8 7 5.8 5.2 6-2.6l.3-7 2.3 7.6c2.6 8.9 1.4 10.4-9.6 12.7-7.3 1.6-8.4 1-9.8-4.7zm-217.8-14.5c-8.3-16.4-8.8-21-1.4-12.8 4.1 4.6 12.8 28.3 10.3 28.3-.6 0-4.6-7-9-15.5zm74 9.5c0-6.7 7.2-14.4 13.5-14.4 5.6 0 5.7 11 .3 16.4-6.2 6.2-13.8 5.1-13.8-2zm13.8-3.3c1.7-4.4-3-9.2-6.7-7-1.1.8-2 3.5-2 6.3 0 6 6.4 6.5 8.7.7zm213-1.5c0-3.2 1.2-7.5 2.7-9.6 2-3 2.4-2.2 1.2 3.2-1 4.3-.5 7 1.2 7 1.5 0 2 1.2 1.2 2.6-2.8 4.5-6.4 2.7-6.4-3.2zm-343.5-2.6a30.6 30.6 0 01-4.2-10.8c-1.4-7-1.3-7.2 1.5-2 4.4 8.6 9.8 7.3 10-2.5l.2-8.2 4.2 8.9 4 8.9 1.6-10.2 1.4-10.2 2 9.6c2.3 11 .8 14.6-6 14.6-2.6 0-5.4 1.2-6.3 2.6-2.1 3.4-5.2 3.2-8.4-.7zm384.2-3c7.7-1.9 16.2-4.2 18.9-5.4 3.3-1.4 4.3-1.1 3 .9-2.2 3.7-18.4 8.2-28.3 7.9-5.7-.2-4-1.1 6.4-3.5z"/></svg>