<svg height="300" width="600" xmlns="http://www.w3.org/2000/svg"><g fill-rule="evenodd"><path d="M0 0h600v300H0z" fill="#fff"/><path d="M0 0h600v100H0z" fill="#090"/><path d="M0 200h600v100H0z"/><path d="M371.5 136.7c0 .3.7.8.9.5.8-1 2-3 2.2-4.2 0-.3-1-.7-1.3-.4-.8 1-1.6 2.9-1.8 4.1z" fill="#e8d94c"/><path d="M265.5 198.5c-.8 3-13.3-2.8-14.6-5.8 7 3.8 14.8 3 14.6 5.8zm-39.3-60.8c.6.7 1.7.2.7-.8-.8-.8-.5-1-1-2-.5-1.2-.4-1.8-1-2.6-.5-.7-1.3 0-.8.7.7.7.5 1.3.9 2 .7 1.2.5 1.9 1.2 2.7zm16.7 20.2a7 7 0 013.7 5.4c.1 2.3.5 4.2 1.5 5.9-1.7-.5-2.4-3.1-2.7-5.6-.2-2.6-1.6-3.7-2.5-5.7zm4.2 4.8c1.4 2.5 3.3 3.5 3.4 5.4.2 2.2.4 2.3 1 4.4-1.7-.4-2-.5-2.5-3.8-.3-2.3-2.1-4-1.9-6z" fill="#d4aa00" fill-opacity=".9"/><path d="M279.5 176.4c2 1.8 3.5 3.7 4.1 6.3.7 2.4 1.6 4.3 3 6.4a10.7 10.7 0 01-4.4-6.1c-.6-2.5-1.3-4.3-2.7-6.6zm39.6 0a11.5 11.5 0 00-4.2 6.3c-.7 2.4-1.6 4.3-3 6.5 2.2-1.5 3.7-3.6 4.4-6.2.6-2.4 1.4-4.3 2.8-6.6zm-2.6 0c-2.4 1.8-4.5 4-5.2 6.5-.7 2.4-1 4.2-2.7 6.6 2.5-1.5 3.5-3.9 4.2-6.4.6-2.5 2-4.3 3.7-6.7z" fill="#e8d94c"/><path d="M290.2 186.3c.8 1.5 1.7 3.7 3.3 3.3 0-1.1-1.7-1.9-3.3-3.3zm2.4.5c3.2 1.3 5.9 1 6.2 3-3 .3-4-1-6.2-3z" fill="#d4aa00" fill-opacity=".9"/><path d="M308 186.5c-.7 1.4-1.6 3.5-3.3 3.1 0-1 1.8-1.8 3.4-3zm-2.1.4c-3.2 1.3-6 1-6.3 2.8 3 .3 4-.8 6.3-2.8zm2.9-4.4c0-.5-.3-.9-.6-1a27.2 27.2 0 00-2.2-.7c-.8-.2-1.2.4-1.2.8v1.6c0 .6.1.7.5.8.6 0 1.4.2 2 .6.5.3 1 0 1.2-.5l.3-1.6zm-8.7 0c0-.5.2-1 .5-1 .6-.3 1.3-.4 2-.3.7 0 .9.1.9.5v1.7c0 .6 0 .7-.4.8-.5 0-1.4 0-2 .5-.4.3-.9 0-1-.5a15 15 0 000-1.7zm-10.5-.1c0-.5.2-.9.6-1a27.4 27.4 0 012.1-.7c.8-.2 1.3.4 1.3.8v1.6c0 .6-.2.7-.5.7-.7.1-1.4.3-2 .7-.5.3-1 0-1.2-.5-.2-.4-.3-1.2-.3-1.6zm8.7 0c0-.5-.2-1-.5-1-.7-.3-1.3-.4-2-.4s-1 .2-1 .6v1.7c.1.6.1.6.4.7.6.1 1.5.2 2 .6.5.3 1 0 1-.5v-1.7z" fill="#e8d94c"/><g fill="#d4aa00" fill-opacity=".9"><path d="M276.9 101h5.9v1.3h-6zm0 2.5h5.9v11.3h-6zm-.4-4.1h6.6c.2-2.2-2-4.6-3.3-4.6-1.3.1-3.3 2.5-3.3 4.6zm39.1 1.6h6v1.3h-6zm0 2.6h6v11.3h-6zm-.3-4.2h6.5c.3-2.1-2-4.5-3.2-4.5-1.3 0-3.4 2.4-3.3 4.5z"/><path d="M276.9 101h5.9v1.3h-6zm0 2.5h5.9v11.3h-6zm-.4-4.1h6.6c.2-2.2-2-4.6-3.3-4.6-1.3.1-3.3 2.5-3.3 4.6zm39.1 1.6h6v1.3h-6zm0 2.6h6v11.3h-6zm-.3-4.2h6.5c.3-2.1-2-4.5-3.2-4.5-1.3 0-3.4 2.4-3.3 4.5z"/></g></g><g fill="none" stroke-width=".9"><path d="M264.7 123.8c-1-1.7-2.3 2.2-6.4 5.1-2 1.3-3.3 4.9-3.3 7.2v4.7c-.1 1-1.2 3.1-.5 3.7 1.9 1.3 4.2 4.4 5.3 5.5 1 .8 1.8-4.3 2.5-6.6.8-2.5.5-5.4 2.6-7.7 1.5-1.6 5.3-3 4.9-3.7z" stroke="#e8d94c"/><path d="M264.7 123.8c-1-1.7-2.3 2.2-6.4 5.1-2 1.3-3.3 4.9-3.3 7.2v4.7c-.1 1-1.2 3.1-.5 3.7 1.9 1.3 4.2 4.4 5.3 5.5 1 .8 1.8-4.3 2.5-6.6.8-2.5.5-5.4 2.6-7.7 1.5-1.6 5.3-3 4.9-3.7z" stroke="#d4aa00" stroke-opacity=".9"/><path d="M263.3 122l.7-.4 14.6 24.5-.8.5z" stroke="#e8d94c"/><g stroke="#d4aa00" stroke-opacity=".9"><path d="M263.3 122l.7-.4 14.6 24.5-.8.5zM265.2 125.7s-1.3 2.4-2.9 3.7c-1.6 1.3-3.1 2.4-3.8 3.6s-.5 5.5-.7 6.9l-1.6 6.3m11-17s-2.4 2.5-4 3.8c-1.6 1.3-1.8 2.8-2.5 4-.7 1.3-.6 4.9-.9 6.3a765.8 765.8 0 00-1.1 5.6"/></g></g><g fill-opacity=".9" fill-rule="evenodd"><g fill="#fff" stroke="#d4aa00" stroke-opacity=".9"><path d="M271.9 116.7l3.7 4.1 46.8.1 3.8-4.1-12-.2-5.8-4-18.7-.1-5.5 4.2H272z"/><path d="M271.9 116.7l3.7 4.1 46.8.1 3.8-4.1-12-.2-5.8-4-18.7-.1-5.5 4.2H272z"/></g><g fill="#d4aa00"><path d="M291 110.4h16.2c2.2-1.2 2.9-4.9 2.9-7 0-6-4.3-9-8.6-9.1-.6 0-1.4-.6-1.6-1.1-.4-1.4-.3-4.8-.7-4.8-.4 0-.3 3.4-.7 4.6a2 2 0 01-1.6 1.3 8.7 8.7 0 00-8.6 9.1c0 3.3.5 5.3 2.8 7z"/><path d="M291 110.4h16.2c2.2-1.2 2.9-4.9 2.9-7 0-6-4.3-9-8.6-9.1-.6 0-1.4-.6-1.6-1.1-.4-1.4-.3-4.7-.7-4.8-.4 0-.3 3.4-.7 4.6a2 2 0 01-1.6 1.3 8.7 8.7 0 00-8.6 9.1c0 3.3.5 5.3 2.8 7z"/><path d="M290 105c.5 2 1.4 1.7 1.4.7-.3-3 0-6.1 2.7-8.2.9-.6 0-1.2-.8-.9-2.3 1-3.8 5.5-3.2 8.4z"/><path d="M292.8 106.3c.4 2 2 1.9 1.8.6-.7-2.5-.6-6.2 1.6-7.8 1-.6 0-1.2-.8-.9-2.3 1-3.1 5.2-2.6 8zm15.5-1.2c-.4 2-1.3 1.7-1.3.7.3-3.1 0-6.2-2.7-8.2-.9-.6 0-1.2.8-1 2.4 1 3.8 5.6 3.2 8.5z"/><path d="M305.6 106.3c-.4 2-2 2-1.7.6.6-2.5.5-6.1-1.7-7.7-.9-.6 0-1.2.8-1 2.3 1 3.2 5.2 2.6 8.1zM264.5 169.5h69.3l-6.2-5h-56.9l-6.2 5z"/><path d="M264.5 169.5h69.3l-6.2-5h-56.9l-6.2 5z"/></g></g><g fill="none" stroke-width=".9"><path d="M334.2 123.5c1-1.6 2.2 2.3 6.4 5.2 2 1.3 3.3 4.8 3.3 7.1 0 1.6-.2 3.2 0 4.7.1 1 1.1 3.1.4 3.7-1.8 1.4-4.2 4.5-5.3 5.5-1 .9-1.8-4.3-2.5-6.6-.7-2.5-.4-5.4-2.5-7.7-1.5-1.5-5.3-3-4.9-3.7z" stroke="#e8d94c"/><path d="M334.2 123.5c1-1.6 2.2 2.3 6.4 5.2 2 1.3 3.3 4.8 3.3 7.1 0 1.6-.2 3.2 0 4.7.1 1 1.1 3.1.4 3.7-1.8 1.4-4.2 4.5-5.3 5.5-1 .9-1.8-4.3-2.5-6.6-.7-2.5-.4-5.4-2.5-7.7-1.5-1.5-5.3-3-4.9-3.7z" stroke="#d4aa00" stroke-opacity=".9"/><path d="M335.6 121.8l-.7-.5-14.6 24.6.7.5 14.6-24.6z" stroke="#e8d94c"/><g stroke="#d4aa00" stroke-opacity=".9"><path d="M335.6 121.8l-.7-.5-14.6 24.6.7.5 14.6-24.6zM333.7 125.5s1.2 2.4 2.8 3.7 3.2 2.3 3.9 3.5.4 5.5.7 6.9l1.6 6.3m-11-17s2.3 2.5 4 3.8c1.5 1.4 1.7 2.9 2.4 4.1.7 1.2.7 4.8 1 6.2a765.8 765.8 0 011 5.7"/></g></g><g fill-rule="evenodd"><g fill="#d4aa00" fill-opacity=".9"><path d="M276.6 124h6.5v9.1h-6.5zm.3 14.3h6.4v2h-6.4zm-.1 3.4h6.5v7.1h-6.5zm-.5 8.6h7.1v4h-7zm.9-13.7h5.7l1.2-1.9h-8zm7.7-7v-5h4c-1.5 1.4-3 3-4 5zm36.8-5.6h-6.5v9.1h6.5zm-.2 14.3h-6.2v2h6.2zm.2 3.4h-6.4v7.1h6.4zm.4 8.6h-7v4h7zm-1-13.7h-5.7l-1.1-1.9h7.7zm-7.7-7v-5h-4c1.6 1.4 3 3 4 5z"/><path d="M276.6 124h6.5v9.1h-6.5zm.3 14.3h6.4v2h-6.4zm-.1 3.4h6.5v7.1h-6.5zm-.5 8.6h7.1v4h-7zm.9-13.7h5.7l1.2-1.9h-8zm7.7-7v-5h4c-1.5 1.4-3 3-4 5zm36.8-5.6h-6.5v9.1h6.5zm-.2 14.3h-6.2v2h6.2zm.2 3.4h-6.4v7.1h6.4zm.4 8.6h-7v4h7zm-1-13.7h-5.7l-1.1-1.9h7.7zm-7.7-7v-5h-4c1.6 1.4 3 3 4 5z"/></g><path d="M277.6 131.7c0 1 1.2.6 1.2 0v-4.5c0-.9 2-.7 2-.1v4.9c0 .8 1.4.7 1.3 0a654 654 0 010-5.8c0-1.7-4.5-1.7-4.5 0v5.5zm38.7.2c0 1 1.3.6 1.3 0v-4.5c0-.9 2-.7 2-.2v5c0 .8 1.3.7 1.3 0v-5.8c0-1.7-4.5-1.7-4.5 0v5.5z" fill="#fff"/><path d="M277.6 142.6h4.7v5.8h-4.7z" fill="#fffffd"/><path d="M280.6 145h1.6v1h-1.6zm-2.9 0h1.6v1h-1.6z" fill="#d4aa00" fill-opacity=".9"/><path d="M279.3 142.6h1.3v2.4h-1.3zm0 3.3h1.3v2.5h-1.3z" fill="#d4aa00" fill-opacity=".9"/><path d="M316.2 142.5h4.7v5.8h-4.7z" fill="#fffffd"/><path d="M319.2 145h1.6v.9h-1.6zm-2.9 0h1.6v.9h-1.6zm1.6-2.4h1.3v2.4h-1.3zm0 3.3h1.3v2.5h-1.3z" fill="#d4aa00" fill-opacity=".9"/><path d="M312 142.9h.7v5.7h-.8z" fill="#e8d94c"/><path d="M296.3 150.5l1.3 3.8h2.8l-2.2-3.8h-1.9zm-1.6 3.8l.7 3.8h3.4l-1.2-3.8h-2.9zm5.7 0l2.3 3.8h4.8l-3.7-3.8h-3.4zm-28.2 8.6c2.5-2.4 4.1-4.4 4.1-7.3h6.2c0 1.6.6 2.6 1.5 2.5h6.3v-3.7h-4.6V134c-.2-7.2 8.7-11.3 12.3-11.3h-21.5v-.7h45.3v.7H300c6.5 0 12.7 6.2 12.8 11.3v5.8h-.9v-5.7c0-5.7-7.1-11-12.9-10.8-5 .2-12.6 4.9-12.5 10.8v1.7l11.7.1v2l1.8 1.2 3.6 1.2v3l2.6.8v3l3.2 1.4v3.2l2 1.2v3.2l2.6 2h-6.4l4 4.4h-5.9l-3-4.5h-3.9l1.8 4.5h-4.2l-1-4.5h-5v4.8zm18.1-12.3v3.7h4.4l-.9-3.7z" fill="#d4aa00" fill-opacity=".9"/><path d="M290.6 144h2.7v6.2h-2.7z" fill="#fff"/><path d="M286.7 150.6h2.7V146c0-2 1.7-4 2.6-4 1 0 2.3 1.8 2.4 3.9v4.7h2.8v-11.8h-10.5v11.8z" fill="#fff"/><g fill="#d4aa00" fill-opacity=".9"><path d="M307.7 153.4h3.3v2.5h-3.3zm-2-4.4h3.4v2.5h-3.3zm-3.1-4.4h3.3v2.5h-3.3zm-2.7-3.8h3.3v2.6h-3.3zm12 2h.8v5.9h-.8zM253.3 84.3c.3 4.6-1.1 7-3.5 6.7-.7-2.5.8-4.2 3.5-6.7zM248 94.4c-2.1-1-.6-9.4.2-13 .6 4.6 1.7 11-.2 13z"/><path d="M248.8 94.8c3.6 1.3 6.4-2.6 7.4-7.1-3 4-7.8 4-7.4 7.1zM246 99c-2.8-.7-1.1-9.6-.6-13.1.6 3.6 2.6 12 .6 13.1zm1-.2c.1-3.1 3.2-2.2 5.3-3.9-.3 1.6-1.6 4.3-5.3 3.9zm-3.5 4c-2.8-.7-1-10.2-1.2-14.2.8 3.4 3.4 13.3 1.2 14.2zm1.3-.4c2.3.8 5.4-.7 5.6-3.4-2 1.3-5.1.3-5.6 3.4z"/><path d="M241.4 107c-2.6.3-1.4-7.9-1.4-15.4 1 7 3.6 13.5 1.4 15.5z"/><path d="M242.4 106.7c1.8.9 5-.6 6-3.6-3.3 1.4-5.5 0-6 3.6zM263.4 88.5c-.5 4-2.1 6.3-4.5 6-.7-2.6 1.3-4.2 4.5-6zM257 98.7c4 .6 5.5-2.5 8.2-6.5-3.8 2.8-8.4 3.4-8.2 6.5z"/><path d="M255.9 98.2c-2.2-2.6-.1-5.9 1.6-8.7-.4 4.2 1 6.5-1.6 8.7zm-1 4.4c-.3-2.6 4.1-3.2 6.1-4.6-.7 1.5-1.7 5.5-6.1 4.6z"/><path d="M254 102.6c-3-.3-1.8-5.4.4-8.3-1 4 1.6 6.7-.4 8.3z"/><path d="M251.7 107c-3.5-1.6-1.3-6 0-8.5-.5 3.4 2.3 6 0 8.4z"/><path d="M252.4 106.5c1.8 2.4 5.3-.7 6-4.3-3 2.6-5.3 2.2-6 4.3zM335.4 89c.4 2 .5 6 4.2 5.2.5-3.7-2.5-4-4.2-5.3z"/><path d="M341.6 98.6c-.1-3.8-4.3-3-8-6.2 1 3.4 4.5 7.5 8 6.2z"/><path d="M342.4 98.2c2.5-1.7.6-5.4-1.7-8.6.9 3.5-1 6.7 1.7 8.6zm1.1 4.4c-4 .3-4.6-1.7-6.2-4.2 2.7 1.7 6.3.6 6.2 4.2zm1 .1c-1.9-1.5.5-4.9-.3-8.2 1.4 2.1 3.7 7.1.3 8.2z"/><path d="M346.2 106.8c-4 1-5.3-1.2-6.3-4.7 3.2 3 5 1.6 6.3 4.7z"/><path d="M346.7 106.8c2.8 0 1.6-5.6.1-8 .4 3-2 6.4 0 8zM345 84.3c.5 2.3-.4 6.8 3.2 6.8 1.6-2.6-1.7-5-3.2-6.8z"/><path d="M350.5 94.5c2.3-1.6.3-6.7-.5-12.6-.5 5.2-1.8 11 .5 12.6z"/><path d="M349.3 95c.3-3-4.2-3.6-7.3-7.3.8 3 3 7.4 7.3 7.2zm3 4.4c-2.4-2.2.5-8.5.6-13.4.4 4.5 2.4 12.6-.5 13.4zm-1.3-.7c-3.5.3-4.5-2.3-4.9-3.8 2 1.4 5 .7 4.9 3.8zm3.5 4c2.8-.2 1.8-10.5 1.4-13.8-.3 3.5-3.1 12.5-1.4 13.8zm-1.1-.2c-2.4.3-4.8-1-5.4-3.4 2 .9 5.4.2 5.4 3.4z"/><path d="M356.7 107c3 1.1 2-12.3 1.5-15.5-.2 4-3.7 13.8-1.5 15.4z"/><path d="M356 107c-2.9.4-5-1.4-5.9-3.9 3 1.2 5.3.8 6 3.8zM354 123c.3-3.6-2.4-10-.5-13.4.3-.5-.6-1.7-1-1-1 1.2-1.8 4.7-2.2 3.4-.3-1.4-.4-3.8-1.6-4.3-.8-.3-2-.4-1.7.8.3 1.2 1 2.8.3 2.9-.5 0-1.7-1.6-2.8-2.4-.8-.7-2.1.4-.9 1.4 4.1 3.3 8 4.8 10.3 12.5z"/><path d="M354 123c.3-3.6-2.4-10-.5-13.4.3-.5-.6-1.7-1-1-1 1.2-1.8 4.7-2.2 3.4-.3-1.4-.4-3.8-1.6-4.3-.8-.3-2-.4-1.7.8.3 1.2 1 2.8.3 2.9-.5 0-1.7-1.6-2.8-2.4-.8-.7-2.1.4-.9 1.4 4.1 3.3 8 4.8 10.3 12.5z"/><path d="M364.1 120.6c1-1 .7-1.5-.7-1.5-1.2 0-3.5.7-4.4 0-.8-.5-.4-3-.8-4.1-.2-.7-.6-1.7-1.6-.1-3 4.8-6.7 10.5-8.2 16-.9 3.2-.5 8.3 2.9 11l2.3-7a58.7 58.7 0 0110.5-14.3z"/><path d="M364.1 120.6c1-1 .7-1.5-.7-1.5-1.2 0-3.5.7-4.4 0-.8-.5-.4-3-.8-4.1-.2-.7-.6-1.7-1.6-.1-3 4.8-6.7 10.5-8.2 16-.9 3.2-.5 8.3 2.9 11l2.3-7a58.7 58.7 0 0110.5-14.3z"/><path d="M367.5 112c-1.4 4.3-2.2 7.8-.3 8.2 2.1-.3 1.2-4.5.3-8.2zm-.2 12c2.2 1.2 4.6-4.4 4-8.8-1 3.8-4.7 6.1-4 8.8zm-.8 0c.4-3.1-.9-3-2.5-6 .1 3.3 1 6 2.5 6z"/><path d="M367.2 128.4c2.6.7 5.5-5.4 5.4-9.9-1 5-6.6 7-5.4 9.9z"/><path d="M366.4 128.3c1-2.4-1-2-2.5-6.3-.4 4.4.2 6.4 2.5 6.3zm.7 4.6c3.4.5 5-6.8 6.7-10.3-3.2 4.6-7.2 7.2-6.7 10.3z"/><path d="M366.4 132.6c1-2.7-1.8-2.5-3.3-6.6.3 5.2 1 7 3.3 6.6zm1 4.7c2 .1 5.8-5.7 5.9-9.4-1.8 4-7.4 6.7-6 9.4z"/><path d="M365.8 136.6c.8-2.8-1.6-2.8-2.7-6 0 4.8.7 6.4 2.7 6zm0 5c3.7.7 4.7-4.1 6.9-9.1-2.2 4-7 6.2-6.9 9.2z"/><path d="M365.6 141c1.2-2.5-1.6-2.5-3-6.4-.2 5.4.8 7 3 6.4zM352.1 145.7c-3.2 0-3.9-4.6-3.9-5.8 1.6.3 4.5 3.2 4 5.8z"/><path d="M352.1 145.7c-3.2 0-3.9-4.6-3.9-5.8 1.6.3 4.5 3.2 4 5.8zM358.6 124.8c-1.3 4.2-1.8 6.3 0 7.7 2.3-1.3 1-4 0-7.7zM358 136c1-3.2-1.5-4-2.8-7.5-.1 4.7.6 8.1 2.8 7.5z"/><path d="M358.8 136.6c1.8.7 4-3.3 2.7-7.3-1.2 3.6-4.2 4.5-2.7 7.3zm-1.8 3.6c1.7-2.5-1-2.7-2.3-6.3-.1 4.8.3 6.7 2.3 6.3z"/><path d="M357 144.7c1.3-3-1.5-2.5-3.1-6.2-.1 5.4.8 6.6 3.1 6.2zm1.3-4.3c1.4 0 4.2-2.5 3.4-5.6-1.2 2.6-4.7 2.3-3.4 5.6z"/><path d="M357.9 144.2c2.3.5 4.1-3 3.9-5.6-1.9 2.4-4.4 2.5-4 5.6z"/><path d="M372.7 138.2c.3-.4 1.1 0 .9 1-.2 1.1-2 7.5-5.1 9.6a99.8 99.8 0 01-19.1 5.3c-3 .6-5.4 2-7.3 4.4.8-3 1.4-5.3 2.5-8 1-2.5 3.6-5.1 6.3-5.3a48 48 0 0016.3-2.6c2.4-1 3.9-2.5 5.5-4.4z"/><path d="M372.7 138.2c.3-.4 1.1 0 .9 1-.2 1.1-2 7.5-5.1 9.6a99.8 99.8 0 01-19.1 5.3c-3 .6-5.4 2-7.3 4.4.8-3 1.4-5.3 2.5-8 1-2.5 3.6-5.1 6.3-5.3a48 48 0 0016.3-2.6c2.4-1 3.9-2.5 5.5-4.4z"/><path d="M365.6 153.1c.5-2.1-.2-2.8.4-6.1-3.2 4.2-2 6.3-.4 6.1z"/><path d="M365.9 153.6c2.1.6 7.6-4.2 7.8-7.8-1.5 2.6-9 5.4-7.8 7.8zm-3.5 3.2c1.5-.8 1-4.1-.2-5.3-.3 3.3-2.3 5.2.2 5.3z"/><path d="M364 157.7c2.5.8 5.4-3.8 7.5-5.8-2.4 2-9.7 3-7.6 5.8zm-3.6 2.3c1.8-1.1.1-3.5 0-8-1.8 3.3-2.2 7.8 0 8z"/><path d="M360.8 161.2c.9 1.2 7.6-3 9.3-6.1-5.8 4.3-10.8 3.7-9.3 6.1zm-.7 3.8c1.6-1.2-1.4-4.4-2-8.6 0 5.2-.8 9.1 2 8.6z"/><path d="M361.9 163.6c.8 1.3 6-2.2 8.2-6-3.4 3-9.2 3.7-8.2 6zm-5.3 5.8c1.9-.3 1.6-5 .2-8.9-1.6 4.7-2.3 9.4-.2 9z"/><path d="M361.3 166.8c.7.8 8.3-4.5 8.1-6.7-2.4 3.5-10.4 4.2-8 6.7zm-8.8 7c2.6-1 1.3-5.2 1.9-9.7-2 4.4-4.5 8.8-2 9.7z"/><path d="M357.3 170.2c.4 1.4 6.6-1.2 9.6-5.5-3.6 2.8-10.6 3.2-9.6 5.5z"/><path d="M353.3 174.5c1.3 2.2 9-1.8 10.1-5.7-2.4 3.3-11 2.8-10.1 5.7z"/><path d="M356.8 176.2c1.4.2 4.7-2.5 5.6-4-2.6 1.4-6.2 3.2-5.6 4zM345.3 159.7c1.6.3 3.8-2.8 2.4-6-.8 3.2-5.7 5.4-2.4 6zm3.6-1.8c1.2.7 4.5-2.8 4.1-5-1.8 2.8-5.5 3.7-4.1 5z"/><path d="M345 163c1.3 1.2 7.5-5 9.3-8-5.3 4.6-10.8 5.8-9.3 8zm-1.5 3.8c1 1.5 5.2-3 7.8-6.8-3.3 3.3-9 4.8-7.8 6.8z"/><path d="M344 163.2c1-2.7-.7-3.1-1.5-6.4-1.4 1.8-1.3 6.9 1.5 6.4zm-1.7 3.7c2-.6-1.2-4-1.9-6.4-.3 4.4-.3 6.7 2 6.4zm-2 3.2c2-.7-1-2.4-1.3-6.1-.9 1.3-1.4 6.6 1.4 6z"/><path d="M337.6 170.9c1.2-.7.7-3.7-1.1-4.1-.4 2.4-.4 4.1 1.1 4z"/><path d="M361 176.3c.4 0 1-.2.5.5-4.7 5.7-6 7.3-12.8 6.5-6.8-.9-8.4-2.8-13.2-5.5a11.9 11.9 0 00-9.1-.9c-1.3.5-2.1.5-1.2-.4 1-1 2-2.3 3.2-3.2 2.6-2 6.9-2.8 10.4-2.2 5 .8 9.1 4 14 5.2 2.6.6 5.5.5 8.2 0z"/><path d="M361 176.3c.4 0 1-.2.5.5-4.7 5.7-6 7.3-12.8 6.5-6.8-.9-8.4-2.8-13.2-5.5a11.9 11.9 0 00-9.1-.9c-1.3.5-2.1.5-1.2-.4 1-1 2-2.3 3.2-3.2 2.6-2 6.9-2.8 10.4-2.2 5 .8 9.1 4 14 5.2 2.6.6 5.5.5 8.2 0zM321.9 186.4c-.9.1-1.4 1.8-1.8.7-.7-1.9-.2-3.3.6-3.2 1 .3 2.5 2.4 1.2 2.5z"/><path d="M321.9 186.4c-.9.1-1.4 1.8-1.8.7-.7-1.9-.2-3.3.6-3.2 1 .3 2.5 2.4 1.2 2.5zM331.3 179c2.4.6 3-2.2 3.3-4.3-2.2.5-4.5 1.8-3.3 4.2zm-1 2.4c.4 2 5.2 0 6-2.8-3.3 2-6.6-.1-6 2.8z"/><path d="M328.6 181.3c2.2.4 1-3 .8-6.4-1.2 2.8-3 6.1-.8 6.4zm-2.7 3.2c2.3.3.8-4.2.2-7.3-.8 2.8-2.5 7-.2 7.3z"/><path d="M327.3 184.6c.3 2.6 5.1-.3 8-1.9-3.8.6-8.5-.6-8 2zm-2.7 3.6c.3 2.6 5.1-.3 8-1.9-3.8.6-8.4-.6-8 2z"/><path d="M323.3 188.1c2.3 0 .6-4.8 0-7.9-.8 2.9-2.3 7.8 0 8zm-1.9 3.2c.3 2.5 4.7 0 7.5-1.8-3.8.8-8-.8-7.5 1.8zM346.5 187c1.3 2.2 6.2-1.7 9-3.7-4 1.2-10 .8-9 3.6z"/><path d="M341.5 189.2c.4 2.6 8.7.5 10-1.4-3.9 1.6-10.5-.8-10 1.4z"/><path d="M337.5 191.2c.3 1.4 6.6.8 9.9-.2-3.5.4-10.5-2-9.9.2z"/><path d="M334.2 192.8c0 1.3 7.4 2 10 0-5 .7-10.5-3-10 0z"/><path d="M328.4 194c-.3 1.8 7.7 1.4 10.3.6-4.4-.4-10-3.2-10.3-.6z"/><path d="M328.3 192.4c1.8 1.7 6.4-5.7 8-9-3.6 3.7-10.1 7.6-8 9z"/><path d="M333.5 191.2c2.2 1.4 4.2-3.8 5.3-7.7-2 3.3-7.3 5.5-5.3 7.7z"/><path d="M337.7 189.7c2.2 1.5 3.4-3.3 4-6.2-1.6 2.5-6 4-4 6.2z"/><path d="M341.8 187.2c2.1 1.4 4.8-2.5 4.2-6.5-.8 4-6.3 4.3-4.2 6.5zm-8.2 11.2c1 2.7 12.2-2.4 14-5.8-3.5 3-15 2.6-14 5.8zM244.5 123.1c-.4-3.5 2.3-9.9.4-13.3-.3-.4.6-1.7 1-1 1 1.3 1.8 4.7 2.1 3.4.4-1.3.5-3.8 1.7-4.3.8-.2 1.9-.4 1.6.8-.3 1.2-1 2.8-.3 3 .5 0 1.7-1.7 2.7-2.5.9-.6 2.1.4.9 1.5-4 3.3-7.8 4.8-10.1 12.4z"/><path d="M244.5 123.1c-.4-3.5 2.3-9.9.4-13.3-.3-.4.6-1.7 1-1 1 1.3 1.8 4.7 2.1 3.4.4-1.3.5-3.8 1.7-4.3.8-.2 1.9-.4 1.6.8-.3 1.2-1 2.8-.3 3 .5 0 1.7-1.7 2.7-2.5.9-.6 2.1.4.9 1.5-4 3.3-7.8 4.8-10.1 12.4zM237.3 176.1c-.4 0-1-.3-.5.5 4.7 5.7 6 7.3 12.8 6.5 6.9-1 8.5-2.8 13.3-5.5a12 12 0 019.2-.9c1.3.5 2.1.5 1.1-.5-.9-1-2-2.2-3.2-3-2.6-2-6.9-3-10.4-2.3-5 .8-9.2 4-14.1 5.2-2.6.6-5.5.5-8.2 0z"/><path d="M237.3 176.1c-.4 0-1-.3-.5.5 4.7 5.7 6 7.3 12.8 6.5 6.9-1 8.5-2.8 13.3-5.5a12 12 0 019.2-.9c1.3.5 2.1.5 1.1-.5-.9-1-2-2.2-3.2-3-2.6-2-6.9-3-10.4-2.3-5 .8-9.2 4-14.1 5.2-2.6.6-5.5.5-8.2 0zM276.5 186.4c1 0 1.5 1.7 1.9.6.7-1.8.2-3.3-.6-3.1-1 .2-2.6 2.4-1.3 2.5z"/><path d="M276.5 186.4c1 0 1.5 1.7 1.9.6.7-1.8.2-3.3-.6-3.1-1 .2-2.6 2.4-1.3 2.5z"/></g><path d="M274.6 188c2.3.5 2.3-5.1 0-7.5 1 3.6-1.8 6.9 0 7.4zm-.9-.1c.2 2.6-6.5-.4-8.2-2.4 4 1.6 8 .2 8.2 2.4zm-3-3.8c.3 2.6-5.7.3-7.5-1.7 4 1.3 7.3-.4 7.6 1.7zm1.2.3c2.3.6 2-5.2-.3-7.2 1 3.9-1.5 6.7.3 7.2zm-2.5-3.5c2.4.5 1-4.4-.7-6.4.3 3.6-.9 6.1.7 6.4zm-1.2 0c.3 2.6-4.4.6-6.3-1.9 4 1.3 6-.2 6.3 1.9zm-1.3-2c1.6-1.1 0-4-3-3.8.3 1.7 1.3 4.8 3 3.8zm11.5 12c.1 2.6-6.5 1.3-8.6-1.5 4.2.8 8.4-.6 8.6 1.5z" fill="#e8d94c"/><g fill="#d4aa00" fill-opacity=".9"><path d="M234.1 120.4c-1-1-.7-1.5.8-1.5 1.2 0 3.5.7 4.3 0 .9-.5.5-3 .9-4.1.1-.7.6-1.7 1.6-.1 3 4.7 6.7 10.5 8.3 16 .8 3.2 0 8.1-2.9 11.4.1-2.8-1-4.7-2.2-7-1.6-3.1-7.4-11.5-10.8-14.7z"/><path d="M246.4 145.4c3.2 0 3.8-4.4 3.8-5.6-1.6.3-4.4 3-3.8 5.6z"/><path d="M234.1 120.4c-1-1-.7-1.5.8-1.5 1.2 0 3.5.7 4.3 0 .9-.5.5-3 .9-4.1.1-.7.6-1.7 1.6-.1 3 4.7 6.7 10.5 8.3 16 .8 3.2 0 8.1-2.9 11.4.1-2.8-1-4.7-2.2-7-1.6-3.1-7.4-11.5-10.8-14.7z"/><path d="M246.4 145.4c3.2 0 3.8-4.4 3.8-5.6-1.6.3-4.4 3-3.8 5.6z"/></g><path d="M274.6 188c2.3.5 2.3-5.1 0-7.5 1 3.6-1.8 6.9 0 7.4zm-.9-.1c.2 2.6-6.5-.4-8.2-2.4 4 1.6 8 .2 8.2 2.4zm-3-3.8c.3 2.6-5.7.3-7.5-1.7 4 1.3 7.3-.4 7.6 1.7zm1.2.3c2.3.6 2-5.2-.3-7.2 1 3.9-1.5 6.7.3 7.2zm-2.5-3.5c2.4.5 1-4.4-.7-6.4.3 3.6-.9 6.1.7 6.4zm-1.2 0c.3 2.6-4.4.6-6.3-1.9 4 1.3 6-.2 6.3 1.9zm-1.3-2c1.6-1.1 0-4-3-3.8.3 1.7 1.3 4.8 3 3.8zm11.5 12c.1 2.6-6.5 1.3-8.6-1.5 4.2.8 8.4-.6 8.6 1.5z" fill="#d4aa00" fill-opacity=".9"/><g fill="#e8d94c"><path d="M251.8 186.1c.3 2.7-7-.2-8.9-2.7 4 1.2 8.7.6 9 2.7zm4.5 1.2c1.5-1.1-1.6-4-4-4.6.2 1.7 2.3 5.6 4 4.6zm.5 1.8c.1 2.4-7.9 1-10-1.1 7 1.2 9.7-1 10 1.1z"/><path d="M260.5 190.7c.9 2.2-6.8 1.7-9.5.4 4.4 0 8.9-2 9.5-.4z"/><path d="M264 192.3c1 2-6.2 2-9.6.9 4.6 0 8.9-2.9 9.7-.9zm5.3 1c1.2 2.4-6.3 2.7-8.7 1.5 4.3-.6 7.6-3.3 8.7-1.4zm-8.8-4c-2.4 1.6-2.3-2.9-4.2-6 3 2.8 5.8 4.6 4.2 6z"/><path d="M264.7 191c-2 1.7-3.6-4.4-5.4-7.8 3 3.3 7.3 6.3 5.4 7.7zm5.6 1.6c-1.7 2-6.6-5.7-8.4-9.7 2.7 3 9.7 8 8.4 9.7z"/></g><g fill="#d4aa00" fill-opacity=".9"><path d="M251.8 186.1c.3 2.7-7-.2-8.9-2.7 4 1.2 8.7.6 9 2.7zm4.5 1.2c1.5-1.1-1.6-4-4-4.6.2 1.7 2.3 5.6 4 4.6zm.5 1.8c.1 2.4-7.9 1-10-1.1 7 1.2 9.7-1 10 1.1z"/><path d="M260.5 190.7c.9 2.2-6.8 1.7-9.5.4 4.4 0 8.9-2 9.5-.4z"/><path d="M264 192.3c1 2-6.2 2-9.6.9 4.6 0 8.9-2.9 9.7-.9zm5.3 1c1.2 2.4-6.3 2.7-8.7 1.5 4.3-.6 7.6-3.3 8.7-1.4zm-8.8-4c-2.4 1.6-2.3-2.9-4.2-6 3 2.8 5.8 4.6 4.2 6z"/><path d="M264.7 191c-2 1.7-3.6-4.4-5.4-7.8 3 3.3 7.3 6.3 5.4 7.7zm5.6 1.6c-1.7 2-6.6-5.7-8.4-9.7 2.7 3 9.7 8 8.4 9.7zM265.5 198.5c-.8 3-13.3-2.8-14.6-5.8 7 3.8 14.8 3 14.6 5.8zM225.5 138c-.3-.4-1 0-.9.9.2 1.2 2 7.5 5.2 9.7 2.2 1.6 13.9 4.2 19.2 5.3 2.9.6 5.3 2 7.3 4.4-.8-3-1.5-5.3-2.5-8-1-2.5-3.6-5.1-6.4-5.3-5-.2-11.6-.6-16.3-2.7-2.5-1-4-2.4-5.6-4.3z"/><path d="M225.5 138c-.3-.4-1 0-.9.9.2 1.2 2 7.5 5.2 9.7 2.2 1.6 13.9 4.2 19.2 5.3 2.9.6 5.3 2 7.3 4.4-.8-3-1.5-5.3-2.5-8-1-2.5-3.6-5.1-6.4-5.3-5-.2-11.6-.6-16.3-2.7-2.5-1-4-2.4-5.6-4.3z"/><path d="M254.6 163c1.6 1.2 3.3-3 1.3-7 0 3.8-3.1 5-1.3 7z"/><path d="M256.1 166.9c2.2.6 3-3.3 1.5-6.4.2 3.4-3.5 5.4-1.5 6.4z"/><path d="M257.8 170c2.1 1 3-3 1.4-5.9.2 3.8-3 4.9-1.4 5.9z"/><path d="M257 170.2c-1 2.5-5.8-2.2-6.7-4.7 3 3 7.2 2.6 6.6 4.7z"/><path d="M254.7 166.3c-1 2.6-7.1-4-8.5-7 3 3 9.2 5.2 8.5 7z"/><path d="M253.5 162.5c-1 3-7.7-4.7-9.6-7.5 3.2 3 10.3 5.4 9.6 7.5zm-.2-2.8c2.3-.5-.2-2.4-3-5.6-.2 3.3.4 5.7 3 5.6z"/><path d="M249.3 157.8c1-1.1-1-1.6-3.5-4.4-.3 1.9 2.3 5.3 3.5 4.4zm11.4 12.5c1.3.7 2.2-2 .6-4.3-.4 2.6-1.8 3.3-.6 4.3zM232.6 153.6c-2.7 1.6-7-5-8.2-7.7 2.4 3.1 8.8 6 8.2 7.7z"/><path d="M235 157.4c-1.5 1.7-6.3-2.9-8-5.2 2.6 2.2 8.7 2.5 8 5.2z"/><path d="M237.6 160.8c-.5 2.3-7.5-2.9-9.1-5.3 3 2.8 9.5 2.6 9 5.3z"/><path d="M236.5 163.3c-1 2-6.7-3-8-5.7 3.4 3 8.9 3.7 8 5.7zm-2.9-10c1.8-2 1-2.9-.3-5.8-.7 3-1.8 4.2.3 5.7zm2.4 3.5c3.2.1 0-3.8-.8-7.1.3 3.7-.8 6.7.8 7z"/><path d="M238 160c2.3-.6 1.6-3.8 0-7.6.3 4.1-2 6.5 0 7.5zm-.7 6.2c-.9 2.5-7.3-3.3-8.3-5.5 3.3 2.7 8.8 3.6 8.3 5.5z"/><path d="M241.1 170.2c-1 2.5-7.7-2.6-9.7-5.4 4 3.1 10.2 2.8 9.7 5.4z"/><path d="M245 174.1c-1 3.6-8-2-10.2-4.8 4.5 3.4 10.8 2.3 10.2 4.8zm-6.6-9c2 1 2.7-4.4 1.6-8.2 0 4.1-3.8 7.2-1.6 8.2z"/><path d="M241.7 169.4c2.3.7 1.5-5.2-.4-9-.3 3.8-2 7.4.4 9zm4 4c2.6.1.8-5-1.3-7.9.4 3.8-.8 7.5 1.3 7.9zm-4.4 2.2c-.8 1.3-2.7-1.1-5.8-2.9 2.8.8 6.1 1.7 5.8 2.9zM239.8 132.3c2.4-1.8.6-5 0-8.2-.8 3-2.8 6.9 0 8.2zm0 4.4c-3.7-.4-3.1-5-3.2-8 1 4 4 4.7 3.1 8zm.5-.6c3-.2 2.8-3.6 3-7.1-1.5 3.2-3.3 3.7-3 7.1z"/><path d="M240.2 140.4c-2.4.2-3.6-2.1-4.2-5.7 2.3 3.3 4.3 2.2 4.2 5.7zm.8-.3c3 .4 2.6-3.1 2.4-5.7-.9 2.4-3.4 3.2-2.4 5.7z"/><path d="M236.3 138.6c.2 2.3 1.7 6.3 4 5.4 1-2.8-2-3.4-4-5.4z"/><path d="M241 144.2c-1-2 2.4-3 3.2-5.6.4 3.7 0 6.2-3.2 5.6zM231.3 120.3c1.9-2 .2-5.3-.4-8.4-.7 3-2 7 .4 8.4zm0 3.8c-3.4.3-4.2-6.4-4.5-9.3 1 4 4.9 5.8 4.4 9.3zm.6 0c2.3-1.3 1.8-3.9 2.5-5.9-1.5 2.4-3 2.8-2.5 5.8z"/><path d="M231.2 128.4c-3.4.3-5.5-7.2-5.6-10 1 3.9 6 6 5.6 10zm.7 0c3.3-.8 2.9-3 2.4-6.4-1 3.5-2.9 2.7-2.4 6.3z"/><path d="M231.2 132.7c-3.8.7-3.5-5.4-6.6-9.7 2.6 3.2 7.4 7.3 6.6 9.7zm.9-.2c2.8.1 3.1-4.2 3-6-.7 1.8-4 3.4-3 6z"/><path d="M225.2 128c1.5 4.7 3.5 9.4 6 9 1.2-2.6-2.4-3-6-9z"/><path d="M232.1 136.3c-1-2 2.4-3 3.1-5.6.4 3.7 0 6.2-3.1 5.6zm-5.9-3c2 4.3 3 9 5.8 8.4 1-3.3-3.1-4-5.8-8.3z"/><path d="M232.6 140.9c-1.2-2.2 2.2-3 3-6 .5 4 0 6.8-3 6zM238.4 112.6c2 .5 4.2-1.7 3.4-5.1-2.3.6-3.3 2.7-3.4 5zm-6.4-1.7c.2 1 1.3 1 1-.3-.3-1.1-.3-2 0-2.8.5-1.1.3-3 0-3.8-.4-.8-1.5-.3-1 .3.5.8.5 2.3.2 3-.5 1.2-.4 2.6-.2 3.6zm7-3.6c-.2 1.5-1.5 1.6-1.1-.5.3-1.7.3-3 0-4.4-.5-1.7-.3-4.7 0-5.9.4-1.3 1.6-.5 1.1.5a8.2 8.2 0 00-.2 4.8c.5 1.7.4 4 .2 5.5zm9.3 14.8c-.7 1.2-2 .5-1.3-1.3.6-1.3.7-2.9 1.3-3.8 1-1.4 2.5-2.6 3.4-3.4 1-1 1.7 0 .8.7-1 1-2 2.3-2.7 3.3-1.1 1.8-.6 3.3-1.5 4.5zM250.8 124c-.8 1.1-2.4.4-1.2-1.2 1-1.2 2.4-2.3 2.5-3.6.1-1.7 1-4.2 2-5 .9-1 2 .3 1 1-1.1.7-1.8 3.6-1.8 4.7 0 1.7-1.7 2.9-2.5 4z"/><path d="M250.8 124c-.8 1.1-2.4.4-1.2-1.2 1-1.2 2.4-2.3 2.5-3.6.1-1.7 1-4.2 2-5 .9-1 2 .3 1 1-1.1.7-1.8 3.6-1.8 4.7 0 1.7-1.7 2.9-2.5 4zM235.4 116.2c0 1.6 1.2 2 1.2-.3 0-2.5-1.8-4.7-.8-8.4.6-1.9.6-5.2.3-7-.3-1.7-1.6-.6-1.1.8a14 14 0 01-.5 6.2c-1.2 4.4 1 6.6 1 8.7z"/><path d="M235.4 116.2c0 1.6 1.2 2 1.2-.3 0-2.5-1.8-4.7-.8-8.4.6-1.9.6-5.2.3-7-.3-1.7-1.6-.6-1.1.8a14 14 0 01-.5 6.2c-1.2 4.4 1 6.6 1 8.7zM321.3 187.2c-.5 0-1 .1-1.7.4-6 2.7-13.5 4.7-20.9 4.8a61 61 0 01-20.1-4.7c-1-.5-2.2 0-3.3 1-3.5 3.5-7.7 7-11 9.6-1.3 1-2.6 3 2.8 5 .1 0 4 1.5 6.5 1.6 1 0 1 1.5.9 1.9-.5.8-.2 1-1 1.9-1 .7 0 1.7.8 1 3-2.6 7.9-1 12.6.6 1.1.3 3.1.2 3.1-1.3 0-1.7 1.3-2.9 2-2.9 2 .3 11.4.5 14.3 0 1.7-.1 1.8 2.4 2.8 3.4.6.7 3 .9 4.7.1 3.3-1.5 8.2-1.5 10.3 0 .8.6 1.5 0 1-.6-.6-.8-.6-1.3-.9-2-.8-1.5-.1-1.9.7-2 9-1.2 12-4.3 9.2-6.8-3.6-3.1-7.6-6.3-11-10-.6-.6-1-1-1.8-1zm-.2 1.1c.5 0 .9 0 1.1.4 2.5 3.5 6.2 5.7 9.7 8.6 1 .8.3 1.5-.6 1.8-6.1 2-12.9 6.5-32 6.7-19 .1-25.7-4.4-32.5-6.9-.8-.3-.8-1.1-.4-1.4a95.4 95.4 0 009.7-8.5c.5-.5 1.5-.8 2.1-.5a55.6 55.6 0 0020.5 4.5 63 63 0 0022.4-4.7zm-40.5 17.1h3.9c1.9.1 3.4 1.3 4.1 2.4.5.6.3 2.4-2.3 1.4-3.6-1.5-7.5-2.7-11.2-1.2.4-.8.5-1.6.4-2.6h5.1zm42.1 0c0 1 .2 1.8.7 2.6-3.3-1.3-8-.6-11.3.9-1.4.7-3.1-.8-1.5-2.2 2.5-2 8-.8 12.1-1.2z"/></g><g fill="#e8d94c"><path d="M341.4 170.4c.4 1.4 6-1.2 9-6.8-3.9 4-10 4-9 6.8z"/><path d="M341.4 170.4c.4 1.4 6-1.2 9-6.8-3.9 4-10 4-9 6.8z"/></g><g fill="#d4aa00" fill-opacity=".9"><path d="M350.8 161.8c-1.7 2.4-4 4.1-4.1 6-.2 2.2-.4 2.3-1 4.5 1.7-.5 2.1-.6 2.6-3.9.3-2.3 2.8-4.5 2.5-6.6z"/><path d="M350.8 161.8c-1.7 2.4-4 4.1-4.1 6-.2 2.2-.4 2.3-1 4.5 1.7-.5 2.1-.6 2.6-3.9.3-2.3 2.8-4.5 2.5-6.6z"/><path d="M353.6 158.5c-2.1 1-2.6 2.6-2.7 4.6 0 2.4-.6 4.2-1.7 5.8 2.2.3 2.6-3 2.8-5.6.3-2.6.7-2.8 1.6-4.8z"/><path d="M353.6 158.5c-2.1 1-2.6 2.6-2.7 4.6 0 2.4-.6 4.2-1.7 5.8 2.2.3 2.6-3 2.8-5.6.3-2.6.7-2.8 1.6-4.8zM359.5 107.2c.1 1.5 1.4 1.6 1-.5-.3-1.7-.3-3 0-4.4a14 14 0 000-5.9c-.4-1.3-1.6-.5-1 .5.5 1.2.5 3.6.1 4.8-.5 1.7-.4 4-.1 5.5z"/><path d="M359.5 107.2c.1 1.5 1.4 1.6 1-.5-.3-1.7-.3-3 0-4.4a14 14 0 000-5.9c-.4-1.3-1.6-.5-1 .5.5 1.2.5 3.6.1 4.8-.5 1.7-.4 4-.1 5.5zM363 116.1c0 1.6-1.2 2-1.2-.3 0-2.5 1.8-4.7.7-8.4-.5-1.9-.5-5.2-.2-7 .3-1.7 1.5-.6 1 .8-.5 1.6.2 4.6.5 6.2 1.2 4.4-1 6.6-.9 8.7z"/><path d="M363 116.1c0 1.6-1.2 2-1.2-.3 0-2.5 1.8-4.7.7-8.4-.5-1.9-.5-5.2-.2-7 .3-1.7 1.5-.6 1 .8-.5 1.6.2 4.6.5 6.2 1.2 4.4-1 6.6-.9 8.7zM366.3 110.8c-.2 1-1.3 1-1-.3.3-1.1.3-2 0-2.8-.4-1.1-.3-3 0-3.8.4-.8 1.5-.4 1 .3-.5.8-.5 2.3-.2 3 .5 1.1.4 2.6.2 3.6z"/><path d="M366.3 110.8c-.2 1-1.3 1-1-.3.3-1.1.3-2 0-2.8-.4-1.1-.3-3 0-3.8.4-.8 1.5-.4 1 .3-.5.8-.5 2.3-.2 3 .5 1.1.4 2.6.2 3.6zM359.3 112.6c-1.6.8-3.8-4-2.2-4.9 1.2-.3 4 4 2.2 5z"/><path d="M359.3 112.6c-1.6.8-3.8-4-2.2-4.9 1.2-.3 4 4 2.2 5zM350 122c.7 1.2 1.9.5 1.2-1.3-.6-1.3-.6-2.8-1.3-3.8-.9-1.4-2.4-2.6-3.2-3.4-1-1-1.6 0-.8.7 1 1 2 2.3 2.6 3.3 1.1 1.9.6 3.4 1.4 4.6z"/><path d="M350 122c.7 1.2 1.9.5 1.2-1.3-.6-1.3-.6-2.8-1.3-3.8-.9-1.4-2.4-2.6-3.2-3.4-1-1-1.6 0-.8.7 1 1 2 2.3 2.6 3.3 1.1 1.9.6 3.4 1.4 4.6z"/></g><g fill="#e8d94c"><path d="M347.9 123.3c.7 1.1 2.3.4 1-1.1-.9-1.3-2.2-2.3-2.3-3.7-.1-1.6-1-4.2-2-5-.8-1-1.8.4-.9 1 1 .7 1.8 3.6 1.8 4.8 0 1.6 1.6 2.8 2.4 4z"/><path d="M347.9 123.3c.7 1.1 2.3.4 1-1.1-.9-1.3-2.2-2.3-2.3-3.7-.1-1.6-1-4.2-2-5-.8-1-1.8.4-.9 1 1 .7 1.8 3.6 1.8 4.8 0 1.6 1.6 2.8 2.4 4z" fill="#d4aa00" fill-opacity=".9"/></g><path d="M282 176.4c2.3 1.8 4.5 3.9 5.1 6.4.7 2.4 1 4.3 2.6 6.6-2.4-1.5-3.3-3.8-4-6.3-.7-2.5-2-4.3-3.6-6.7z" fill="#e8d94c"/><path d="M282 176.4c2.3 1.8 4.5 3.9 5.1 6.4.7 2.4 1 4.3 2.6 6.6-2.4-1.5-3.3-3.8-4-6.3-.7-2.5-2-4.3-3.6-6.7zm-2.5 0c2 1.8 3.5 3.7 4.1 6.3.7 2.4 1.6 4.3 3 6.4a10.7 10.7 0 01-4.4-6.1c-.6-2.5-1.3-4.3-2.7-6.6zm39.6 0a11.5 11.5 0 00-4.2 6.3c-.7 2.4-1.6 4.3-3 6.5 2.2-1.5 3.7-3.6 4.4-6.2.6-2.4 1.4-4.3 2.8-6.6zm-2.6 0c-2.4 1.8-4.5 4-5.2 6.5-.7 2.4-1 4.2-2.7 6.6 2.5-1.5 3.5-3.9 4.2-6.4.6-2.5 2-4.3 3.7-6.7zm-7.7 6c0-.4-.3-.8-.6-.9a27.2 27.2 0 00-2.2-.7c-.8-.2-1.2.4-1.2.8v1.6c0 .6.1.7.5.8.6 0 1.4.2 2 .6.5.3 1 0 1.2-.5l.3-1.6zm-8.7 0c0-.4.2-.8.5-1 .6-.2 1.3-.3 2-.2.7 0 .9.1.9.5v1.7c0 .6 0 .7-.4.8-.5 0-1.4 0-2 .5-.4.3-.9 0-1-.5a15 15 0 000-1.7zm-10.5 0c0-.5.2-.9.6-1a27.4 27.4 0 012.1-.7c.8-.2 1.3.4 1.3.8v1.6c0 .6-.2.7-.5.7-.6.1-1.4.3-2 .7-.5.3-1 0-1.2-.5-.2-.4-.3-1.2-.3-1.6zm8.7 0c0-.5-.2-1-.5-1-.7-.3-1.3-.4-2-.4s-1 .2-1 .6v1.7c.1.6.1.6.4.7.6.1 1.5.2 2 .6.5.3 1 0 1-.5v-1.7zm-8 4c.7 1.4 1.6 3.6 3.2 3.2 0-1.1-1.7-1.9-3.3-3.3zm2.3.4c3.2 1.3 5.9 1 6.2 3-3 .3-4-1-6.2-3z" fill="#d4aa00" fill-opacity=".9"/><path d="M308 186.5c-.7 1.4-1.6 3.5-3.3 3.1 0-1 1.8-1.8 3.4-3z" fill="#e8d94c"/><path d="M305.9 187c-3.2 1.2-6 .9-6.3 2.7 3 .3 4-.8 6.3-2.8zm9.4-31.4h6.8c0 2.6 1.6 5.4 3.7 7h-13.1c2-2 2.6-4.1 2.6-7zm-39.7 37.2c-.8-.6-1.2.1-.6.8.7.9 2 1.4 3.2 1.7.8.2 2.3 0 3.1 0 .6.1 1 1.4 2 1.3 1.2 0 2-3 2-4.5 0-1-1.4-.3-1.2 0 .3 1-.3 3.2-1 3.2-.5 0-1-1-1.9-1.2h-2.1c-1.8.1-2.6-.8-3.5-1.3z" fill="#d4aa00" fill-opacity=".9"/><path d="M277.1 192c1 .4 1.9-.4 2.4.2 1.4 1.6 3.3-.8 1.1-.7-.8 0-1-.7-2.5-.5-.8.1-1.4.7-1 1zm.3 7c-.8-.3-1 .4-.6.8.6.6 3.3.9 3.9.4 1-.8.3-3-.2-3.5-.3-.4-1.2-.4-.8.5.1.5.8 1.6.2 2.1-.5.5-1.8 0-2.5-.3zm5.9.7c.1-.5-.3-1.2-1.1-.4-.7.7-.1 3.6 2 4.1 2 .5 3.5-.2 3.8-1.3.2-.7-1-1.4-.4-2 .5-.5 1.4 0 1.8-.8.3-.5.3-1.4-1-2-.5-.3-1.4.3-1.4.8 0 .6 1 .2.6.8-.2.4-1.4.2-1.7 1.2-.2.6 1.3 1.8.5 2-.8.3-1.7.5-2.6 0-.6-.4-.9-1.7-.5-2.4zm-7.3-4c-.5 0-1.2.4-1.2 1 0 .4.3 1.2 1 .7.6-.5.1-.8.3-.6.3.4-.2.4-.8 1.2-.4.6-1.3.5-1.8.3-.8-.4-.5-.7-1.4-1-.9-.5-1.4.5-.6 1 1 .5 2.5 1.6 4 .8.8-.5 1.9-1 1.8-2 0-.8-.3-1.6-1.4-1.4zm47.6-.4c-.7-.5-.3-1.4.7-1 .9.3 2.3 1.3 2.4 2.6 0 1.4-2.2 2.4-3.1 2.4-1.5-.1-1.2-1.3-.1-1.3.8.1 2-.2 2-1.1 0-.8-1.4-1.2-2-1.6zm-5-3.5c-.8-.9 1-1.8 1.5-.8.8 1.4 1.6 2.7 2.2 4.3.5 1.2-.1 1.4-.5.7a24 24 0 00-3.2-4.2z" fill="#d4aa00" fill-opacity=".9"/><path d="M314.4 194.4c.9-.4.9.8.5 1-.6.4-1.4-.5-.5-1zm2.8-1c.9-.4.9.8.5 1-.6.4-1.4-.6-.5-1z" fill="#e8d94c"/><g fill="#d4aa00" fill-opacity=".9"><path d="M288 195c-1.5-.8.2-2.2 1.2-1.2 1.4 1.5 2.7 4.6 3.8 5.8 1 1.1.2-3.2.5-4.5.2-.7.8-.6.8.1 0 1.8-.3 5.4.1 5.6.9.5.7 1.3 1.5 1.2.7-.2.6-.4 1.3-.4.7 0 .7.7 1.5.5.5 0 .7-.6 1.3-.6.5 0 .3 1.2 0 1.4-.7.3-2.5-.4-3-.3-.6 0-1.8.6-2.5.3-.8-.3-.6-1.4-1.2-1.2-.7.1-.6 1.4-2.2 1.7-.7.2-1-.5-.6-1 .7-.7 2.1-1.2 1.9-2-.7-1.9-2.6-4.2-4.5-5.3zm12.2.3c.7 2.3.7 5.2 1 7.3.3.8 1 0 1-.6-.4-2.1-.5-4.8-1-6.9-.3-.7-1.2-.6-1 .2zm1.9.6c-.2-1 .7-1 .8-.5.5 1.8.4 6 1.3 6 1.6.3 3.8 0 5.7-.4 1-.2 1.2-1 1.1-1.2-.2-1.1.9-1 1.1.2.2.6-.1 1.7-1.3 2-2.2.4-5.4 1-7.2.6-1.5-.3-1-4.3-1.5-6.7z"/><path d="M304.6 197.5c0-1.2 1-1.3 1-.3 0 2.4 2.8 1.8 3.4.8.4-.7.1-1-.3-1.8-.5-1 .6-1.3 1-.4.4.7.7 2.7 0 3.2-.9.7-3.3 1-4.3.3-.6-.4-.8-1.1-.8-1.8zm-1.2-3.1c.1.7 2.2.5 2.1-.1 0-.5-2.2-.4-2 0zm2.7.6c0 .7 1.4.5 1.3 0 0-.7-1.4-.8-1.3 0zm4-1c-.7-.9.6-1 1-.2 1.2 1.6 2 4.3 3 6.2.5.8 1 0 1.1-.2.1-.2-.3-.5-.3-1.3 0-.5 1.1-1.3 2-.7.7.5 0 1 .5 1.3.4.3 1.3 0 1.4 0 .5-.8-.1-.4-.7-.7-.7-.5-.3-2.6 1.1-1.7.8.4 1 2 .8 2.8-.3.8-1.6 1-2.4.9-.8-.3-1.5-1.3-1.3-1 .4.7-.1 1.3-.5 1.6-1 .6-1.7 1-2.4 0-1.3-2-2-5.2-3.3-7zM274.4 64.3c0-1.2 1.7-1.3 1.5.3-.2 2 3.7 6.8 4 9.9.2 2-1.2 3.8-2.6 4.9a5.4 5.4 0 01-5.6.4c-.7-.6-1.4-2.7-.8-3.5.2-.3 1 3 3 3 2.7 0 4.9-2 5-3.8 0-3.1-4.4-8-4.5-11.2zm7.8 7.7c.5-.3 1.2 1 .7 1.4-.4.3-1.2-1-.7-1.4zm1.2-2.8c-.2 0-.6 0-.5-.3.6-.9 2-2.2 3-2.7.2-.1.7.4.6.7a9 9 0 01-3 2.3zm10.4-8.2c.2-.5 1.7-1.1 2-1.5.4-.3.6.3.4.6-.2.6-1.5 1.4-2 1.5-.4 0-.6-.3-.4-.6zm3.5.1c.3-.9 1.4-2.2 2-2.7.4-.2 1.1 0 1 .3-.3.8-1.6 2.1-2.4 2.7-.3.3-.7 0-.6-.3zm-3 2.3c-.3.1-.1.6 0 .6.5.2 1.3.2 1.7 0 .5-.3.3-2.3-.4-1.2-.5.6-.9.4-1.3.6zm-6 4.6c-1.1-.8.3-2 1.4-1.2 2.2 1.7-3.3 8-6.3 11-.5.6-1-.9-.3-1.5 2.1-1.8 4.2-4 5.5-6.2.3-.5.6-1.4-.3-2zm12.5-5.5c.2-.8-1.3 0-1.3-1 0-.6 1.6-1 2.2-.3 1.1 1.1.3 3-1.6 3.2-1.5 0-4.1 2.2-3.7 2.6.4.6 4.5 1 6.8.6 1.5-.2 1.2 1-.3 1.2-1.5.2-2.6 0-4 .5-1.6.4-2.2 2.5-3.1 3.3-.2.2-.7-.7-.5-1 .6-1 1.6-2.5 2.7-3 .7-.2-2-.3-2.8-.5-.6-.2-.4-1-.2-1.5.4-.8 2.8-3.3 3.8-3.2 1 0 2-.3 2-.9zm4.2.3c.5-.4.7-1.1 1.2-1.6.2-.2.7.1.6.7 0 .6-.7 1-1.2 1.4-.4.3-.8-.3-.6-.5zm5.3-2c.7 0 .9 1.3.1 1.5-.5.2-.9-1.4-.1-1.4zm-1.8 4.2c0 1.2.6 1 1.7 1 1 0 2 0 2-1s-.6-2-.8-1.3c-.2.7-.3 1.8-.7 1.3-.4-.4-.2-.5-.9.2-.3.4-.4-.2-.6-.5-.1-.2-.7.1-.7.3zM301 71c-.3 1.5 0 3.6.7 3.7 1 0 3-3.4 4-5.1.5-1 1.5-1.2 1-.1-.5 1.5-.5 4.9 0 5.9.4.5 2.5-.5 2.8-1.3.7-1.3.2-3.9.4-5.4 0-1 1-1.3 1-.3a62 62 0 00-.2 6.2c.1.8 2.4 2 2.8-.5.2-1.5 1-3 0-4.7-.7-1.1.9-1 1.7.5.6 1-.5 2.6-.4 3.9 0 2-1.5 3-2.6 3-1 0-1.6-1.1-2.4-1.1-.9-.1-1.8 1.3-2.5 1.3-2.9-.2-1.4-4.4-2.3-4.4-1-.1-2 4-3.3 4-1.1-.2-2.4-3.5-1.9-4.8.5-1.3 1.3-1.6 1.2-.8zM314.8 64.3c-1.4-.9.1-3 .8-2.3 1.3 1.6 2.7 5.3 3.6 5.6.6.2.5-2.7 1-4 .2-1 1.4-.7 1.2.5 0 .5-1.6 5.3-1.5 5.5 1 2 2.1 4.2 2.7 6.4.3 1-.8.3-1 0-.7-1-2-5.2-2-5-.6 3-.7 3.8-1.4 6.3-.1.8-1.3.7-1-.7.2-1.2 1.9-7 1.8-7a14.1 14.1 0 00-4.2-5.3z"/><path d="M317.4 78c-.4-.1-1 .8.9 1.1 2.6.5 5.4-.4 6.3-3 1-3 1.6-5.8 2.2-6.9.6-1.2 1.4-1.1.8-3-.4-1.3-1.2-.9-1.4-.2-.4 2-2.2 8.2-2.7 9.3-1 2.1-3 3-6.1 2.6z"/><path d="M322.5 68c-.2-.6-.9-.2-.8.5a1 1 0 001 .9c.6 0 1.8 0 1.8-1 0-.6-.5-1.2-.9-.4-.3.6-.8.6-1 0zm.7-2.5c-.2.1 0 .8.2.8.9 0 2-.3 2.7-.7.2-.1.1-.6-.2-.6-.8 0-2 0-2.7.5zm7.2 1.8c.6-1 2.3-1 1.7.3l-5.2 10.1c-.7 1.2-1.2.6-.7-.3.6-1.1 4-9.8 4.2-10z"/><path d="M324 79.4c-.1-.6-1.1-1.6-1 .2.2 3 4.5 2.1 5.8 1 1.2-1 .2 3.5 1.7 4 .9.3 2.5-.9 3.3-2 2.3-2.8 3.7-7 5.8-9.8.8-1.1-.4-2-1-1-1.8 3-4.1 9.5-6.6 11.1-2 1.3-1.5-1.7-1.6-2.6 0-.7-.9-1.6-2-.7-.7.6-1.9 1-3 1-.5-.1-1 0-1.4-1.2z"/><path d="M331.7 73.6c0-.2-.9-.3-.8.6 0 .7.8.9 1 .8 1.2-1-.3-.5-.2-1.4zm-1.8 3.7c-.2 0-.5.8.1.9l3.2-.2c.4 0 .5-.7-.3-.7-1 0-2.2-.2-3 0zm14-1c.8-3.2 2.9.5 1 2.4-2.8 2.8-3.7 8-8.2 8.9-1.2.2-3.3-.6-4-1-.2-.2.2-1.4 1-.8 1 .9 3.3 1 4.5 0 2.6-2.4 4.7-5.8 5.6-9.5zM279 63.6c.4 0 1.3 1.2 1.3 1.6 0 .2-1 0-1.3-.3-.2-.2-.1-1.3 0-1.3zm-4.3 8.6c-.9.4 0 1.3.7 1 2.4-1.6 5.9-3.2 6.6-6.2.3-1 1.2-2.5 2.1-2.9.9-.3 2.1 1.6 3 0 .4-.8 2.1.6 2.6-.3.5-1.1.2-1.7.2-2.8 0-.7-.5-.9-1 .3v1.2c-.2.2-.6.4-.8.3-.2-.2 0-.6-.5-.8-.2-.1-.6-.2-.7 0-.6 1.1-.9 2.1-1.7 1-.8-1-1.1-2.7-1.7-.4-.2.8-1.4 2-2.1 2-1 0-.7-2.4-2.7-2-1 .2-1 2.2-.8 2.9.3 1 3.3.3 3.1 1-.5 2.2-3.7 4.3-6.3 5.7zM256 83c-.1.4.4 1.4 1 1.5.4 0 .7-1.1.5-1.5 0-.3-1.4-.3-1.5 0zm2.8 4c-.4-.3-1.3.6-.6 1.3.5.4 2.1.9 2.6.1.6-1-.6-4.5-.1-5 .4-.3 2.3 2.4 3.2 2.6 2.3.3 1.7-3.8 4.1-3.5 1.6.2 1.8-1.8 1.6-3-.2-1.3-2.2-3-3-3.8-1.3-1-1.8.7-1 1.3 1 .7 2.6 2.3 2.9 3.3.1.5-1.2 1.5-1.7 1.2-1-.6-2.1-3.2-3-3.8-.4-.2-1.2.3-.8 1 .4 1 2.4 2.3 2.5 3.2 0 .9-.9 2.7-1.5 2.7-.7 0-2.5-2.2-3-3.3-.4-.5-1.3-.4-1.4.3-.2 1 .1 3.2.4 4.5.2 1.3-.7 1.4-1.2 1zm-3.4-7c-.3.3.7 1 .9.8.3-.3 1.7-2 1.4-2.5-.2-.5-2.1-1.6-2.4-1-.6.9 1.8 1.3 1.4 1.6-.2 0-.8.5-1.3 1zm3.4-7s.6 2 1.1 1.2c.4-.5-1-1.1-1-1.1zm1 3.3c-.2.1-.8.6-.4.9.6.3 2.3.6 2-.6-.3-.7 2.6 0 1.9-2a3 3 0 00-1.5-1.4c-.2 0-1.1.5-.6.7.4.3 1.7 1 1.2 1.5s-.9-.3-1.5-.1c-.4 0-.1 1-.3 1.2-.1.2-.6-.3-.8-.2zm4.5-7.8c-.3.2-1 1.2-1 1.6 0 .3.2.6.4.5.4-.2 1-1.1 1-1.5 0-.3-.2-.7-.4-.6zm2.3-.2c-.6-.9.8-2.1 1.4-.4.4 1 4.5 6.5 5.4 8.3.6 1.2 0 1.8-.8.9-2-2.7-3.8-6-6-8.8zm4.3.1c.7-.8 2.2-2.4 1.8-3.3-.3-.8-1.2-.7-1.4-.6-.9 1.1.7.8.4 1.2-.4.9-.9 1.3-1.1 2.1 0 .2.1.7.3.6z"/><path d="M334.7 71c-.5-.4.5-2.4 1.2-1.6 2 2.2 2.9 9.5 3.4 15l-.8.6c0-3-1.2-11.8-3.8-14z"/><path d="M335.9 83.8c.3-1 5-8.8 5.6-10.5.3-.9 1.7 1.4.4 2.6-1.2 1-4.6 6.6-5.2 8.6-.3.8-1.2.4-.8-.7zM291 64c-.6-1.5 1-2 1.2-1 1.1 4.8 3.7 8.3 5.7 11.6.6 1 .1 1.6-1.3.7-1-.7-2-3.3-2.6-3.4-.9-.1-3 4.1-7.4 3-1.1-.4-1-3.8-1-5.3-.1-.7.6-.9.7.1 0 1.4 0 4.2 1.7 4.3 1.5.1 4.6-2 5.3-3.5.6-1.6-1.6-4.9-2.3-6.5zm13.9-1.2c.5-.4.7-1.1 1.2-1.6.2-.2.7.1.6.7 0 .6-.7 1-1.2 1.4-.4.3-.8-.3-.6-.5z"/><path d="M335.9 83.8c.3-1 5-8.8 5.6-10.5.3-.9 1.7 1.4.4 2.6-1.2 1-4.6 6.6-5.2 8.6-.3.8-1.2.4-.8-.7z"/><path d="M343.8 76.3c.9-3.2 3 .5 1.1 2.4-2.8 2.8-3.7 8-8.2 8.9-1.2.2-3.3-.6-4-1-.2-.2.2-1.4 1-.8 1 .9 3.3 1 4.5 0 2.6-2.4 4.7-5.8 5.6-9.5z"/></g><path d="M290.8 178.2c.4.9 1 .9.9 0l-.7-4c-.1-1.2-1.3-1-1 .2.4 1.3.3 2.7.8 3.8zm3.5 0c0 .5.7.5.7 0 0-1-.2-2.6.2-3.2.2-.5 1.2-.1 2.2-.2.4 0 .3-1.1-.5-1-1 0-3.4-.3-3.5.6-.2 1.6 1-.1.9 3.8zm7-4.5c.7.5.6 1-.1.9-.9-.3-1.5-.2-1.5.3s.4.5 1 1c.5.6-.4.5-1 1.6-.5 1 .6 1 1.9.7.3-.1.7.5-.1 1-.6.2-2.2.6-2.6-.6-.7-2 1.3-2.2.4-2.8-.4-.3-.6-.7-.5-1.2.2-1.3 2.1-1.2 2.6-.9zm2.8 4.5c.7-1.4 1.3-2.5 1.5-3.7.2-1.1 1-1.2 1.1-.3.2 1.2 1 2.5 1.8 3.6.5.7-.5 1.3-.9.7-.7-.9-.8-2.2-1.2-2.2-.5 0-1 1.5-1.6 2.5-.1.3-1 0-.7-.6z" fill="#e8d94c"/><g fill="#d4aa00" fill-opacity=".9"><path d="M290.8 178.2c.4.9 1 .9.9 0l-.7-4c-.1-1.2-1.3-1-1 .2.4 1.3.3 2.7.8 3.8zm3.5 0c0 .5.7.5.7 0 0-1-.2-2.6.2-3.2.2-.5 1.2-.1 2.2-.2.4 0 .3-1.1-.5-1-1 0-3.4-.3-3.5.6-.2 1.6 1-.1.9 3.8zm7-4.5c.7.5.6 1-.1.9-.9-.3-1.5-.2-1.5.3s.4.5 1 1c.5.6-.4.5-1 1.6-.5 1 .6 1 1.9.7.3-.1.7.5-.1 1-.6.2-2.2.6-2.6-.6-.7-2 1.3-2.2.4-2.8-.4-.3-.6-.7-.5-1.2.2-1.3 2.1-1.2 2.6-.9zm2.8 4.5c.7-1.4 1.3-2.5 1.5-3.7.2-1.1 1-1.2 1.1-.3.2 1.2 1 2.5 1.8 3.6.5.7-.5 1.3-.9.7-.7-.9-.8-2.2-1.2-2.2-.5 0-1 1.5-1.6 2.5-.1.3-1 0-.7-.6zM371.5 136.7c0 .3.7.8.9.5.8-1 2-3 2.2-4.2 0-.3-1-.7-1.3-.4-.8 1-1.6 2.9-1.8 4.1z"/></g></g><g stroke="#d4aa00" stroke-opacity=".9"><g stroke-width="3.2"><path d="M339.6 219.3s-75.9 6.8-106.8-33.5a79 79 0 01-15-47.4c.3-33.4 15.4-53 15.4-53s-32 30.7-17.2 82.3a81.1 81.1 0 0050.4 51.3c33.4 12.4 73.2 10 73.2 10l23-2-.3-8z" fill="none" stroke-linecap="square" stroke-linejoin="round"/><path d="M339.2 219.4s-.6 1 0 4.2c.8 3.2 2 5.5 2 5.5m3.5-10s-.4 2 1 5c1.6 3 2.6 4.1 2.6 4.1m2.7-9.3s-.4 2.3 1 4.8 2.8 3.8 2.8 3.8" fill="none"/><path d="M358.2 223a4.7 4.8 0 109.4 0 4.7 4.8 0 10-9.4 0z" fill-rule="evenodd" stroke-linecap="square"/><path d="M363.3 228.1s3 4.7 2.1 7.7-19.3 5.1-22.3 2.8-3-9.5-3-9.5" fill="none"/></g><g fill="none" stroke-width=".9"><path d="M332.7 220.1l.2 2.8-1.8 1.3s-7.7 0-12.8-.3c-5.1-.3-16.4-.3-26.6-2.5a222.3 222.3 0 01-28.6-8l-3.1-1.5"/><path d="M333.9 229l-.5-3.3-2.5-1.4 2-1.4.5 2.8"/></g></g><path d="M262.7 220l33-.9 19-4 25.4 2.4-48.1 11.4z" fill-rule="evenodd"/><g stroke="#d4aa00" stroke-opacity=".9"><g stroke-width="3.2"><path d="M260.4 219.8s75.9 6.8 106.8-33.4a79 79 0 0015-47.4c-.3-33.5-15.4-53-15.4-53s32 30.7 17.2 82.2a81.1 81.1 0 01-50.4 51.3c-33.4 12.4-73.2 10-73.2 10l-23-1.9.3-8z" fill="none" stroke-linecap="square" stroke-linejoin="round"/><path d="M260.8 220s.6.9 0 4.1c-.8 3.3-2 5.5-2 5.5m-3.5-9.9s.4 2-1 5c-1.6 3-2.6 4-2.6 4m-2.7-9.2s.4 2.2-1 4.7-2.8 3.9-2.8 3.9" fill="none"/><path d="M241.8 223.6a4.7 4.8 0 11-9.4 0 4.7 4.8 0 119.4 0z" fill-rule="evenodd" stroke-linecap="square"/><path d="M236.7 228.6s-3 4.7-2.1 7.7c1 3 19.3 5.1 22.3 2.8s3-9.5 3-9.5" fill="none"/></g><g fill="none" stroke-width=".9"><path d="M267.3 220.6l-.2 2.8 1.8 1.4s7.7 0 12.8-.4c5.1-.3 16.4-.3 26.6-2.4 10.2-2.2 25.5-6.6 28.6-8l3.1-1.6"/><path d="M266.1 229.5l.5-3.3 2.5-1.4-2-1.4-.5 2.8"/></g></g><g fill-rule="evenodd"><path d="M307.5 85.2c.7-.2.5-.2 1.4-1 .4-.2.5.6.5 1-.1.4-.8 0-1 .5-.3.7-.2 2-.3 2.7 0 .3-.6.2-.6 0V86c0-.3-.4-.8 0-1z" fill="#e8d94c"/><g fill="#d4aa00" fill-opacity=".9"><path d="M304 83.7c-.1.6 0 1.2 0 1.6 0 .3.6.1.6 0v-1.5c-.1-.1-.5-.2-.6-.1zm-3 3.5c-1 .1-.8 1.2-.5 1.3.4.2 1 .2 1.3-1 0-.4.2 2.5 1.3 1.4.6-.7 2.3 0 3-.8.4-.5.6-1 .2-1.8-.1-.2-.8-.1-.8.5 0 .5-.3 1.2-.9 1-.3 0 .2-1.2-.1-1.5-.2-.2-.4-.2-.5 0-.2.3.2 1.4-.5 1.6-.9.2-.4-.8-.8-1-1.1-.5-1.3.2-1.8.3zm6.5-2c.7-.2.5-.2 1.4-1 .4-.2.5.6.5 1-.1.4-.8 0-1 .5-.3.7-.2 2-.3 2.7 0 .3-.6.2-.6 0V86c0-.3-.4-.8 0-1zm-10.4-1.4c-1 .9-2 1.3-3 2.4-.4.4-.4 1-.7 1.6-.2.6-1 .8-1.2.6-.4-.2-.3-1.4-.8-.7-.4.5-.6 1.3-1.2 1.3-.5 0-1.4-1-1-1 1.7-.2 1.7-1.4 2.3-1.5.7-.1.7 1 1.2.8.3-.2.5-1.5.8-1.8 1.1-1.1 2-1.7 3.2-2.5.5-.4 1 .4.4.8z"/><path d="M297.6 85.2c-.1.2-.7.1-.7.4-.3 1 0 1.5-.3 2.5-.2 1-.9 1-.9.2.1-1 1-2.4.4-2.5-.4 0-.8-.6-.3-.8.8-.6 1.2-.5 1.7-.3.2 0 .3.3.1.5zm2-8l-1.1 3.9-1.4-2.6V81l-3.2-3.5 1.1 3.8-2.8-2.3 1.5 2.6-5-3.1 3.2 3.6-4-2 2.9 2.4-6.5-2.4 6.3 3c2.2-1 5.4-1.7 8.9-1.7s6.6.6 9 1.7l6.2-3-6.4 2.4 2.8-2.3-4 1.9 3.2-3.6-5 3.1 1.5-2.6-2.8 2.3 1-3.8-3 3.6v-2.7l-1.4 2.6-1-3.9z"/></g></g></svg>