<svg xmlns="http://www.w3.org/2000/svg" xmlns:xlink="http://www.w3.org/1999/xlink" version="1" width="1200" height="600"><path d="M0 0h1200v600H0z" fill="#da121a"/><g fill="#fcdd09"><path d="M96.6 245.1c-1.5-4-.9-7.7 2.4-13.1 1.4-2.2 2.5-4.2 2.5-4.3a8 8 0 00-2.6-.8c-2.7-.6-3.1-1.5-1.9-3.6.7-1-.5-1.2-18.6-2-10.6-.5-19.4-1.1-19.7-1.4-1.2-1.4 1.7-1.8 12.1-1.8 8.7 0 11.6-.3 12.8-1 1-.6 3-1 4.6-1 2.2.2 2.7 0 2-.5-.5-.4-2.8-.8-5-.9-2.2 0-4.2-.5-4.4-.8-.2-.4-1-.7-1.8-.8-1.6 0-5.6-2.8-13.6-9.2-3.1-2.5-7-5.5-8.5-6.5-4.1-2.7-6.1-4.5-5.6-5 .8-.7 4.4 1.2 6.8 3.5 2.8 2.7 15.6 7 15.7 5.3 0-.3.8-1 1.9-1.4l1.8-.7-1.5-1.3c-1.6-1.4-3.6-2-3-.7.3.5-.1.6-1 .4-1-.1-2.7-1.9-4.7-4.7a88.8 88.8 0 00-5.8-7.4c-1.5-1.6-2.6-3-2.4-3.3.2-.2 1.6.7 3.1 1.8a58 58 0 0012.5 7.7c.6-.5-2.4-4.6-7-10-4.5-5.1-5.3-7-4.8-11.8.2-3.2 0-3.7-2-6-2.3-2.5-2.8-3.6-1.7-3.6.6 0 2.2 1.7 5.4 5.9 1.4 1.8 1.5 1.8.9.3a65 65 0 00-9.1-12c-1.5-1.4-2-2.2-1.5-2.5 1.2-.7 3.8 1.5 5.2 4.2 2 3.8 2.1 2.3.2-2.6-1-2.4-2.8-5.5-4-6.8-1.2-1.3-2.2-2.8-2.1-3.4 0-1.9 1.2-1.1 2.8 1.8l1.5 3 .1-2.4c0-1.2-.5-3.8-1.3-5.6-.9-1.8-1.5-4.2-1.4-5.3.1-1.7.6-1 2.8 4 1.9 4.5 3 6.4 4.4 7l2.9 1.7c.8.4 1.1.3 1.1-.3 0-.5-.8-1.3-1.9-1.7-1-.5-2.4-1.3-2.9-1.9a47.6 47.6 0 01-4.4-15.2c1 .4 2.4 4.3 2.8 8 .2 1.8.7 2.8 1.1 2.7 1.2-.4 1-5-.7-10.5a40 40 0 01-1.4-5.9c.1-1.8 1.1.6 2.7 6 2.3 8.6 4.8 14.2 6.1 14 1.4-.1 2.1-3 .8-3-1.2-.1-3.1-2.6-4.5-5.9-.8-2-1-4.7-1-12.5.3-10.7 1.1-15 3.3-16 1.2-.5 1.4-1.3 1.6-6.3.3-6.3 1.5-11 2.6-10.2.5.3.5 2.3.1 5.5l-.5 5 2.1-7.4c2.3-7.8 3.6-10.3 2.5-5-.6 3.3-.6 3.3.8 2.2.7-.6 1.6-2.3 2-3.8.2-1.5 1-3.5 1.5-4.4l1-1.6V84l1.2-2.8c.7-1.6 1.8-3.1 2.3-3.5.5-.4 2.2-3 3.8-5.6 5.5-9.7 10.3-13.9 15.8-13.6 1.8 0 2.7-.4 5.2-3.2a56.2 56.2 0 0110.4-9.9 37 37 0 01-4.3 7c-4 5.9-11 17-8.6 13.9 3-3.8 9.7-11.8 11.6-13.6 2.9-2.8 3.6-2 1 1a31 31 0 00-2.7 3.4 46 46 0 008.7-8.6c2-2.7 3.3-3.4 3.2-1.9 0 .4-.5 1.3-1.1 2-2.4 2.3-.5 1.5 4.5-2 5.8-4 8-5.2 8-4.2 0 .3-2 2-4.4 3.9a30.7 30.7 0 00-4.4 3.7c-.2 1.1 3-.5 8-4.1 3-2.3 5.7-3.8 6-3.6.2.3-1.6 2.2-4 4.1-2.5 2-4.2 4-4 4.2.3.3 1.4-.4 2.6-1.4 1-1.1 2.4-1.9 2.8-1.7.5.2 2.2-.8 3.9-2.1 3-2.6 5-3.3 3.3-1.4-.5.6-3.4 3.3-6.5 5.9-3 2.6-5.3 5-5.1 5.2.2.2 2.4-1 4.9-2.7 2.5-1.7 4.8-3 5.2-2.7 1 .7-9.7 8.3-11.7 8.3-.6 0-1.5.5-2 1-1 1-.8 1 1 .7 1-.2 3-1 4.2-1.9a9 9 0 012.7-1.4c.4 0 1-.4 1.5-1 1-1 2.7-1.2 2.7-.3 0 .3-1.2 1.1-2.6 1.8-3.3 1.7-8.3 6.4-6.9 6.4.6 0 1.3-.2 1.5-.5.3-.4 1-.7 1.6-.6.7 0 0 .7-1.6 1.7a94.7 94.7 0 00-11.6 8c.1.2 1.1-.1 2.3-.7 1-.5 2.4-.9 2.8-.9.9 0-4.8 3.7-8.6 5.5A34 34 0 00118 79c-2.2 1.8-2.5 2.2-1.6 2.6.7.3 2.1-.3 4-1.7 3.5-2.5 6-3.7 6.5-3.1.4.5-2.7 3.5-3.6 3.5-.4 0-1.9.6-3.3 1.5-2.1 1.3-2.5 1.9-2.6 4-.4 7.7-5 18.3-8 18.1-.5 0-.8.9-.9 2 0 1-.2 2.4-.5 3-.2.7.2.5 1.2-.6 3.1-3.6 4.7-5 5.2-4.6.2.3-.7 1.4-2 2.5a27.2 27.2 0 00-4.5 5.2 58.5 58.5 0 01-3.3 4.7c-.7.9-1.1 1.7-1 2 .4.2 2-1.2 4.7-4.3 1.3-1.4 2.6-1.7 2.5-.5a23 23 0 01-4.1 4.6 18.9 18.9 0 00-4.2 5c0 .5.5 1.4 1.1 2 1.8 1.9 3.5 7 4 12.5 1 8.3 1 8 2.5 7.6 1.2-.3 1.3-.1.8.9-1 2-2 15.2-1.1 15.3.4 0 .8-1.3 1-3.4.1-4.1.8-6.4 1.7-6.4.6 0 .4 1.8-1 8-.4 2-.3 2.3 1.1 3a77.6 77.6 0 0113.3 10.1c1.4.9 1.4.9.4-.9-1.1-2-1.3-4.4-.3-4.4.7 0 3.7 6.2 3.6 7.6 0 .4 1 1.7 2.2 2.7 1.9 1.7 2.2 1.8 2.4.8.3-.9.6-.6 1.6 1.2 3.3 6 6.4 9.5 5.1 5.7-1-3.2 0-2.3 1.4 1.2l1.4 3.4 3.7-.2 5.9-.7c1.3-.3 7.5-.7 13.9-1a91 91 0 0122.3 1l13.7 2.1 3 .5 1.3-4c.7-2.1 1.6-3.9 2-3.9.8 0 .8.5-.5 2.7-1.4 2.5-.7 2.4 2-.2 1.4-1.3 2.5-3.1 2.9-4.6.8-3.4 2.4-6.7 3.2-6.7.8 0 .8.5 0 3.1-.5 1.2-.6 2.1-.4 2.1 1 0 4-3 4.2-4.4.2-.9.8-2.4 1.3-3.3.6-1 1-2.2 1-2.8 0-.5.4-1 .8-1 1.3.1 1.4 2.3.3 4.1-.7 1-1 1.8-.8 1.8.8 0 4.8-2.8 8.7-6.1 2.3-2 4.7-3.8 5.4-4.2 1.3-.6 1.3-.9.7-5.3-.7-4.6-.3-6.7.9-4.7.3.6.5 2.3.4 3.8-.1 2.8.3 4.8 1 4.8.2 0 .6-2.9.7-6.4.3-5.5.2-6.7-.8-8-1.3-1.6-.9-2.7.5-1.4 1 1 1.8-.2 2-3a40.8 40.8 0 016-18.5c.1-1.3-4.2-6.5-5.4-6.6-.7 0-2.7-2.6-2.6-3.5 0-1.2 1.8-.3 3 1.6.8 1 1.7 2 2.1 2 1.2 0-2.5-6.2-5.7-9.7-1.6-1.8-2.8-3.5-2.6-3.7.2-.2 1.5 1 3 2.7l2.5 3-.2-2.3c-.2-1.4-1-3.2-2.2-4.5-1-1.1-2-3-2.3-4-.2-1-1-3-1.8-4.3-.7-1.3-1.7-4.3-2-6.7l-.7-4.2-5-2.8c-2.8-1.6-4.8-3.1-4.8-3.7 0-.8.4-.8 2.4.4 2.4 1.5 6 3.2 8 4 2 .7 2-.7.2-1.7a70 70 0 01-6.5-4.2 53.2 53.2 0 00-7.5-4.6c-2.9-1.5-2-2.6.9-1.2 5.7 2.8 1.5-1.1-5-4.6a23.6 23.6 0 01-5-3c-1-1.6.5-2 2.3-.6 1 .6 1.7.9 1.7.5 0-.6-5.6-5.5-8.6-7.5-.7-.5-1-1-.8-1.2.4-.4 3.2 1 7.6 3.5 4 2.3 4.6 1.8 1-.8-2-1.6-4-3-4.3-3-.3 0-1.8-1-3.5-2.2-3.7-2.8-3.6-2.6-3-3 .2-.3 1.2.1 2.2.9a75.9 75.9 0 005.8 4c3 2 2-.4-1.5-3a11 11 0 01-2.8-2.5 11 11 0 00-2.9-2.5c-1.7-1.3-2.6-2.3-2.2-2.7.6-.5 3.5 1 7.5 4.1 2.5 2 5.3 3.5 5.7 3.2.2-.2-1.2-1.5-3.2-3-4.7-3.7-6-5.2-5.5-6 .2-.3 1 .2 1.7 1.2.6 1 1.6 1.7 2 1.7.4 0 2.4 1.1 4.3 2.4 2 1.3 4 2.6 4.7 2.9 1.9.8 0-1.3-2.7-3.1-3.1-2-5.2-4.2-4.7-4.8.4-.6 2.3.5 4.4 2.3.7.6 2 1.6 3 2.1l3.7 2.3 2.1 1.4-1.3-2c-.8-1-1.2-2-1-2.2a25 25 0 015.3 5.3c2.7 3.1 5.1 5.7 5.4 5.7.3 0 0-.7-.7-1.5-.7-.9-1.5-2.2-1.7-2.9-.7-2.4 10.2 10.4 13.8 16 .1.2.4.2.6 0 .3-.3 0-1.2-.8-2-.7-.9-2-3.4-3.1-5.7a26.7 26.7 0 00-5.1-7.1c-3.3-3.2-5.2-6.4-4.5-7.4.7-1 5.4 3 6.9 5.8 3.3 6 6.3 8.2 9.3 6.8.8-.4 2.1-.5 3-.3 2 .7 5.7 4.6 6.7 7.3.5 1.3 2 3.7 3.4 5.2 1.4 1.6 3 4 3.7 5.5 1 2.2 1 2.7.2 3.8-1 1.2-.8 2.3.3 2.3.4 0 .7-.7.7-1.6.1-2 1.4-1.8 2.4.4 1 2.4 2 3.3 2.1 2 0-.7.3-1.2.6-1.1.6 0 1.3 1.8 2.4 6.1.4 1.4 1.1 2.9 1.7 3.4.9.8 1 .7.7-1l-.7-3.2c-.2-.7-.1-1.2.2-1.2.6 0 2.3 4.6 2.8 7.7.7 4.2 1.4 7.1 1.7 6.8.2-.1 0-1.8-.2-3.7-.6-3.5 0-7 1-6.3.7.5 1.6 11.3 1 13.3-.4 1.3 0 1.8 1.7 3 3.3 2.2 4.7 7.3 4.3 15.6-.4 6.9-3.3 17-5.4 18.6-1.6 1.2-2 3.8-.6 3.9 1.6 0 4.7-6.2 5.5-11 .8-4.5 3-10 3.4-8.6.3.7-.2 2.8-2.1 11a10 10 0 00-.3 4c.3.9.7 0 1.3-2.6 1-4.8 2.2-7.5 3.1-7.5 1.5.1.8 2.5-4.1 14.8-.5 1.2-.7 2.3-.5 2.5.9 1 1.8-.5 3-5.1.9-3 2-5.4 2.8-6 1.4-1.1 1.4-1 .7 3.1-.4 2.3-1.2 5.4-1.7 6.8-1.4 3.3-.8 3.8.8.8.6-1.2 1.6-2.3 2.1-2.2 1.5 0 .4 2.5-3.5 8.4-4.3 6.4-4.6 7.6-.8 3.2 2-2.2 3.1-3 3.5-2.6.7.7-1.1 3.3-4.8 7.1l-2.7 3.5c-1.2 1.8-1.2 1.8.8-.3 1.7-1.7 2.3-2 3-1.3.6.6.1 1.4-2.2 3.6-2.8 2.9-3.5 4.4-2.3 5.2 1 .7.5 5.1-1 7.9-.7 1.4-3.2 4.2-5.5 6.3-3.8 3.3-6.3 6.3-6.4 7.6 0 1 3.6-.7 9.4-4.6a51 51 0 017-4.2c1.5 0-6.2 9-11.6 13.4-3 2.5-4 3-3.3 1.3.9-1.9-2 0-4 2.7-2.6 3.3-2.5 4.5.1 2.5 1.9-1.4 2.6-1.6 5-1 2.3.4 3.6.2 7-1.3 2.4-1 5.7-2.7 7.4-3.9 5.1-3.6 7.7-4.4 6.2-2-1 1.6-19.3 15-22.6 16.6a74.9 74.9 0 01-8.4 3.7c-1.4.5-3.4 1-4.5.9-1.2 0-1.9.2-1.6.6.2.3 1.4.7 2.7.7 1.2.1 4 .7 6.3 1.4 3 1 5.2 1.2 9.2 1 9.3-.4 11.8-.2 12 1 .1.7-1 1.1-4.7 1.5-7.6 1-25.4 1.1-30.7.4l-4.9-.7 1 1.7c.6 1 1 2 1 2.3 0 .3-1.5.9-3.4 1.3l-3.3.7 1.8 2.1c4.5 5.3 5.5 8.8 4 14.5-.8 3.3-2.2 5.7-2 3.9 0-.5-4.4-3.2-9.8-6.1a102 102 0 00-20.6-9.3l-5-1.7-.3-3.5-.2-3.4-7-1.2c-4.5-.9-13.3-1.6-25.3-2.1a148 148 0 00-43.4 2.2l-3.8.5-.1 3.3c-.2 3.2-.2 3.2-2.3 3.1a103 103 0 00-33.9 15.5c-.2 0-.8-1.4-1.5-3zm5.9-2.5c2-1.7 5-3.6 6.5-4.3 7.6-3 10.6-4.2 15.2-5.4l5-1.3-3.6-.6a95.9 95.9 0 01-5.7-1.2l-2.2-.6.7-7.6c.4-4.2 1-8.2 1.2-9 .7-2-.3-2-4.6-.3-5.2 2-11 5.9-14 9.3l-2.8 3.3 2.6.7c1.4.5 2.8 1 3 1.3.2.2-.9 2.5-2.5 5.1-1.5 2.6-3 6-3.4 7.5-.5 2.6-.3 6 .5 6.1.2 0 2-1.3 4-3zm148 2.5c.3-2.1-1.2-6.3-3.6-10-3.5-5-3.3-6.6 1-7.2 1.2-.1 2.3-.5 2.3-.7 0-2.5-12.8-11.2-18.4-12.4-3.4-.8-3.4-.5-.7 10 .8 3.2.7 3.7-.2 5.3-1 1.4-1.6 1.7-5.6 1.9-5 .2-7.6 1.5-3.5 1.7 4.8.2 16 5.6 23 11 4 3.2 5.3 3.3 5.7.4zm-118.8-17c.1-1.7 0-2-1-1.7l-4 .8c-4.8.6-4.5 1.5.7 2.2l3.4.5c.5.1.9-.6 1-1.9zm-3.2-3.4c3.5-.9 8.2-1.7 10.4-1.9 3.9-.2 8.2-.8 12.9-1.7 4.3-.8 21.9-1.5 29.2-1.2 7.7.4 29.2 3.5 34.7 5l12.2 3.6c1 .3 1.2 0 1.2-1.8a22 22 0 00-.4-4.5c-2.2-10.8-3-13.6-4.2-17.8-1.7-5.6-2.4-6.3-6.7-8-4.9-1.8-28.2-5.7-36.6-6a306 306 0 00-41.5 2.8l-6.6 1.5c-6.4 1-8.1 3.8-11 17.8a146.4 146.4 0 00-1.6 9.4c-.6 4.6-.6 5.1.4 4.8l7.6-2zm-6.4-2.6c0-.6.5-1 1-1 .4 0 1.4-.9 2-2 1.6-2.3 3.9-4.2 5.1-4.2 1.3 0 .9 1.9-.6 2.2-.7.2-2.1 1.7-3.2 3.2-2 2.8-4.4 3.8-4.3 1.8zm7.8-1.8c-1.6-.5-.6-1.5 1.6-1.4 1 0 2-.4 2.3-1 .6-1.4.6-1.5-.5-1.6-1 0-1.2-1.2-.5-2.9.2-.5.8-.8 1.3-.6.5.3 1.5.1 2.2-.2 1-.5 1.5-.5 1.8 0 .2.5.8.3 1.4-.6.7-.9 1.5-1.1 2.3-.8.7.2 1.2.2 1.3-.2 0-.9 3.1-2 5.3-1.8 4.7.2.3 4-5.2 4.6-2.6.3-3 .5-2.6 1.7.4 1.4-.2 1.4-3 .1-.7-.3-1.4.4-2.4 2.3-1.5 2.7-2.7 3.3-5.3 2.4zm94.9 4.2c.5-1.2 1.5-1.3 2.8-.1 1.2 1 1.2 1-1 1-1.3-.1-2-.4-1.8-1zm-80-7a.7.7 0 01.6-.6.7.7 0 01.6.7.7.7 0 01-.7.6.7.7 0 01-.6-.7zm71.2 3.6a3 3 0 00-1.6-.7c-3.8-.4-3.6 0-2.9-4.5.8-5.1 2.2-6.7 1.8-2-.4 4.2-.4 4.9.4 5 .4 0 .5-.5.3-1-.4-1.4 1.9-1.8 3.1-.6 1 1 1.2 1 2-.2 1.6-2.2 3.4-1 3 2-.3 2.3-.4 2.4-3 2.5-1.4 0-2.8-.2-3-.5zm7.9-1.2c.9-3.4 2-5.6 2.3-4.4.3 1.7-1 6-2 6.3-.7.2-.8-.3-.3-2zm-64.3-3c.2-.3.8-.6 1.3-.6.6 0 1 .4 1 .7 0 .4-.7.7-1.4.6-.8 0-1.2-.3-1-.7zm7-.4c-1.1-1.3-.9-1.8.8-1.4 2 .5 4.4-1.2 3.4-2.3-1.1-1.3-.2-2.4 1.6-2 1.9.5 2-.4.4-2.1-.7-.7-1.3-1.5-1.3-1.8 0-.6 2.9-2 5.3-2.6 2.2-.6 1.8.8-.6 1.9-1.8.8-2 1-1.4 2.9.7 2.3.2 4-1.1 3.9-.6 0-1.4.8-1.9 1.8-.4 1-1.5 2-2.3 2.2-2 .4-2 .4-2.9-.5zm-17.4-1.2c-.9-1 .6-1.5 3.6-1.3 3.8.1 4.7-.9 3.1-3.6-.5-1-.8-2.1-.6-2.6.4-1 4.4-3.4 5.3-3.3 1.2 0 .3 1.3-1.6 2.3-2.4 1.3-2.5 2.2-.7 4.5 1.4 1.7 3 2.3 3.1 1 0-.4.4-.5 1-.3.4.2 1.1.1 1.5-.3.5-.4.8-.3 1.1.2.6 1-.2 2-1.7 2-.7-.1-1.4.2-1.7.5-.3.4-1.2.6-2.1.4-.9-.3-2.4 0-3.4.4-1.8.8-6.2 1-6.9.2zm52.4 2.5c-1.8-.2-3.7-.6-4.2-.9-.6-.2-1.8-.4-2.7-.4-1.6.1-1.7-.1-2-3.5-.3-4.1.4-6.9 1.2-4.6.2.7.4 2.4.4 3.7 0 2.2 0 2.5 1.7 2.6 2.5.1 7.8.8 10.8 1.4 2.2.5 2.4.4 2.5-1 .1-1.2.2-1.2.7-.4.3.6.3 1.7 0 2.5-.4 1.5-.4 1.5-8.4.6zm-26.5-2.5c-.7-.8-.4-1 2-.9 1.9.1 2.6 0 2.7-.8 0-.5-.3-1-.6-1-1 0-.7-2.7.4-3 .6-.2 1.5 0 2 .5 1 .8 1.3.7 2.4-.5.7-.9 1.7-1.3 2.3-1 1.6.7 1 2.3-1.3 3.2a11 11 0 00-3.9 2.7c-1.8 2.2-4.7 2.6-6 .8zm12.5 0c0-.6.5-1 1-1 1.2 0 1.3-.7.4-1.7-1-1.2 0-2.5 1.1-1.4 1.8 1.5.5 5.2-1.7 5.1-.5 0-.8-.5-.8-1zm-35.6-3.1c-.8-.9-.4-1.6.9-1.5.7 0 1.4.5 1.5 1 .4 1-1.6 1.4-2.4.5zm15.1-.4c-.2-.8-.3-2.3-.2-3.4.1-1.7.2-1.8.6-.6.9 2.5 1.2 5.6.6 5.6-.4 0-.8-.7-1-1.6zm-33.7-1.5c.1-.5.8-1 1.5-1 .7-.1 1 .1.8.7-.2.5-.8 1-1.5 1-.7.1-1-.1-.8-.7zm-8.5-.7c-.5-.2-.8-.8-.8-1.3 0-.7 1-.9 3.7-.6 3 .3 3.8 0 4.6-.9.6-.7 1.2-1 1.4-.8.3.3.9.2 1.4-.2.7-.5 1-.4 1.2.4.5 1.5 0 1.9-3.6 2.7-4 1-6.9 1.2-8 .7zm74 2.9c-.7-.9-.6-1.4.4-3.1l1.1-2-.2 1.9c-.2 1.8 0 2 1.8 2.3 1.9.2 2.1 0 2.4-1.6.2-1 .6-1.8 1-1.8 1 0 1 3.5-.3 4.5-1.4 1.3-5.2 1.2-6.2-.2zm17.1.2c0-.6.3-1 .7-1 .4 0 .6.5.6 1 0 .6-.3 1-.7 1-.4 0-.6-.5-.6-1zm4.6.1c0-.5.3-.8.7-.5.3.2.6.7.6 1 0 .4-.3.6-.7.6-.4 0-.6-.5-.6-1zm-59.5-4.5c.2-.4.9-1 1.5-1 .8-.1 1 .1.8.7-.1.5-.8 1-1.5 1-.7.1-1-.1-.8-.7zm47.1 2.4c0-.4.5-.7 1-.7.6 0 1 .4 1 .8 0 .3-.5.6-1 .6-.6 0-1-.4-1-.7zm-6.5-1.3c0-.6.4-1 .8-.8 1 .3.8 1.4-.2 1.7-.4 0-.6-.3-.6-1zm-5.6-1c1.3-.8 2.4-.6 2.3.5 0 .4-.8.6-1.8.5-1.7 0-1.8-.1-.5-1zm-69-3.6c.1-.5.8-1 1.5-1 .7-.2 1 0 .8.6-.2.5-.9 1-1.5 1-.8.2-1 0-.9-.6zm15.5-2.6a9.8 9.8 0 01-1.6-3.4l-.5-2 1.5 1.5c1.5 1.5 3.1 5.5 2.2 5.3-.3 0-1-.7-1.6-1.4zm24 1c.4-.8 0-1-1.7-1.2-1.6 0-2.3-.4-2.8-1.7-.6-1.6.1-2.4 1-1 .4.9 4.9 1.1 7 .4 1-.3 1.8-1.1 1.9-1.7 0-.8.2-1 .7-.4 1.2 1.4.2 3.1-2.2 3.8-1.6.4-2.3 1-2.2 1.7 0 .6-.3 1-1 1-.6 0-.9-.4-.6-1zm-21.2-3c-2.3-3.1-2.1-4 .7-4.7 2.7-.7 3.6 0 2 1.7-1 1-1 1.6-.6 3 1 3.3.3 3.2-2.1 0zm4.3.8c-.4-2 .8-5.2 2-5.2s3.2 4.6 2.6 6c-.3.6-1.2 1-2.4 1-1.4-.1-2-.5-2.2-1.8zm3.1-1.5c-1-2-1.9-2.3-2-.5 0 1.3.3 1.7 1.3 1.8 1.1 0 1.2-.2.7-1.3zm44.3 5c-1-1.1-.2-1.7 1.6-1.2 2.5.7 3.5.1 2.5-1.5-.6-1.1-.5-1.5.4-2.3 1-1 1.2-1 2 0 1.3 1.4 1.8 1.4 1.8.2 0-.6.4-1 .7-1 .4 0 .6 1 .6 2 0 1.5-.4 2-1.3 2-.7-.1-1.8.4-2.5 1.1-1.2 1.2-4.9 1.6-5.8.6zm10.7.2c0-.3.5-.6 1.1-.6.8 0 1-.3.7-1.6-.2-1.2 0-1.6.6-1.6 1.2 0 1.8 1.8 1.2 3.4-.4 1.3-3.6 1.6-3.6.4zm-16.7-1.4c-.2-.4.3-.7 1.2-.6 2.1 0 4.1-2 3.6-3.8-.2-.8 0-1.3.4-1.3 1.4 0 1.4 2.2.1 4.4-1 1.6-1.7 2.1-3 2-1 0-2-.4-2.3-.7zm-35.6-4.7c-1.6-3.8-1.1-5.4.6-2.3l1.3 2.4 1-2.2c.6-1.2 1.2-1.8 1.4-1.4.5.8-1.8 6.6-2.5 6.6-.4 0-1.2-1.4-1.8-3.1zm19.8 2c1.1-2.5.4-5.2-1.6-5.8-1-.3-1.5-.8-1.4-1.5.7-2.6 5 .9 5 4-.1.9.2 1.3.6 1 .5-.2.7-1.3.5-2.5 0-1.2 0-2.5.4-3 .3-.4.6.7.8 3 .3 3.9 1.4 4.8 2.7 2.3l.7-1.4 1.3 1.5c.8.9 1.4 1.2 1.4.9 0-.4.5-.7 1-.6 1 0 1.3 2.3.4 2.8-.3.2-2.2.4-4.3.6-3.4.2-3.8.1-3.8-1 .1-1 0-.9-1.5.3-2.3 2-3.2 1.7-2.2-.5zm14.1-3c-.1-1.7 0-3.4.5-4 .5-1 .7-.2.5 2.9a17 17 0 01-.4 4c-.1 0-.4-1.3-.6-2.9zM204 196c.2-.4.8-.6 1.3-.6.6 0 1 .3 1 .7 0 .4-.7.6-1.4.6-.8 0-1.2-.4-1-.7zm-22.5-2.8c.6-.6 1.6-.8 2.2-.6 1.7.8 1 1.8-1.2 1.7-2 0-2-.2-1-1.1zm4.5.6a.7.7 0 01.7-.6.7.7 0 01.6.7.7.7 0 01-.7.6.7.7 0 01-.6-.7zm35.7 37c3.4-.7 3.6-.8 2-1.5a24 24 0 00-4-1.2c-2.3-.5-2.4-.4-2.5 1.4-.1 2.2-.3 2.2 4.5 1.3zm-146-11c-.8-.3-2-.3-2.6-.2-.7.2 0 .3 1.4.4 1.5 0 2 0 1.2-.3zm18.8.2c6-.1 7.8-1.2 2.4-1.4-1.6-.1-2.9-.4-2.8-.7 0-.9-2.5-1.6-3-.9-.2.4-1.7.6-3.2.5-1.5 0-3 .1-3.4.4-.4.3-2 .8-3.7 1.1-2.8.5-2.7.5 2.4.8 2.9.2 8 .3 11.3.2zm7.2-3.6c1.4-.5 3.2-1.3 4-1.9 1.3-.9 1.4-1.3 1-3.7-.8-4-1.8-4.7-1.5-1 .2 3.1.5 2.7-5.5 6.6-1.8 1.2-1.1 1.2 2 0zm-3.6-1.4c0-1-.8-2.3-1.4-2-.4.2-.1-.2.7-.9.9-.7 1.6-1.4 1.6-1.7 0-.8-3.6.2-5 1.4-.7.6-2 1.5-2.7 1.8-1.2.7-1.2.8.4.5a38.8 38.8 0 003-.6c1.1-.3 1.1-.3 0 .3-1.8 1.1-1.4 1.7 1.1 1.6 1.3-.1 2.3-.3 2.3-.4zm163.1 8c8.7.4 10 0 4-1.3-1.7-.4-2.3-.3-1.6.1.7.5.2.7-1.7.6-3.7-.2-5.4-1.5-1.9-1.5 2.3 0 2.4 0 1-.5-3.1-1.2-5.2-1-5.3.4 0 1.1-.5 1.3-3.3 1.2-2-.1-3.3 0-3.3.5s.5.6 1.4.4a94 94 0 0110.7.1zm-173-9.4c-.1-.3.6-1.1 1.5-1.8l1.7-1.3-1.8-.5c-1.3-.4-2.2-.3-3 .5-1 .9-1 1-.2 1.7.9.7.9.7 0 .4l-4.8-1.7c-6-2-6.2-2.1-5.5-3.2.5-.8 1-.7 3.3.7 1.5.9 3.1 1.6 3.7 1.6 2 .1 8.9-2.4 8.3-3-.3-.3-1.6-.2-3 .3-3.1 1.2-6.8 1-7.2-.3-.2-.6-.7-1-1.2-1s-1.5-.8-2.4-1.5a6.3 6.3 0 00-2.3-1.4c-.3 0-.2.3.3.6 1.7 1.2.1 1.5-1.8.3a10 10 0 00-3.5-1.2 8 8 0 01-3.1-1c-2-1.3-2.6-1.4-2.6-.6 0 1 6 5.8 10 8 6.1 3.5 14 6 13.6 4.4zm21.7-3.3c0-1-.3-2-.8-2.2-.5-.2-.8.5-.9 2.1 0 1.7.2 2.4.7 2.2.5-.1 1-1 1-2.1zm144.8 6.8c-.8-.6-1.9-1-2.4-.8-1.7.5-.5 1.7 1.8 1.8h2zM117 210.2l1.7-.7-1.5-1.3c-.8-.7-3.2-1.7-5.3-2.1-5.7-1.3-6.2-1.6-5.4-2.5 1-1 0-2-4.7-4.1-3-1.4-4-1.6-5.6-1.1-2.5.8-2.4 1.2.2 3 2.4 1.6 5 2.2 3.8.7-.4-.4-.7-1-.7-1.3 0-.8 2.6.9 4.6 3 1 1 3 2.3 4.3 2.8 1.4.5 3.2 1.7 4 2.6 1.5 1.8 2.2 2 4.6 1zm127.1 5c0-1.6-1-4.2-1-2.9l-.6 2.4c-.4 1.1-.2 1.5.5 1.6.6 0 1.1-.5 1.1-1.2zM102 206c-.3-.7-1.1-1.5-2-1.7-1.2-.2-1.3 0-1 1.3.6 2 2.3 3.5 3 2.5.2-.4.2-1.3 0-2zm168 8.9a40 40 0 006.8-3.8l5.4-4.1c1.5-1.2 2.6-2.3 2.4-2.4-.1-.2-2.5.6-5.2 1.8-2.8 1.2-5.7 2-6.5 2-.9 0-2.6.7-3.9 1.6-2.3 1.6-3.4 1.6-9 .2-1.1-.3-.4.1 1.5 1 4.4 1.9 5.3 1.9 8.7.4 2-1 3-1 3.4-.5 1 1-1.2 2.6-3.2 2.5-.8 0-2.6.6-4 1.4-4 2.2-1.3 2 3.7-.1zm-28.9-2.4c.1-2.2-.7-3-1.6-1.6-.6.9 0 3.9.8 3.9.4 0 .7-1 .8-2.3zm22.1 1.6c.2-.6-.3-.9-1.6-1-2 0-3.1.7-2.4 1.5.7.8 3.7.4 4-.5zm-176.8-9.4c1-1.5.5-2-1.8-1.6-2.9.3-3.2.5-2.7 2 .2.8.8 1 2.1.7 1-.2 2-.7 2.4-1.1zm10.7.2c-.2-.2-.3.2-.4.9 0 .7.2 1 .4.4.2-.5.2-1 0-1.3zm155.1 8.5c0-.4-.4-.7-1-.7-.5 0-.8.2-.6.6.2.4.7.7 1 .7.3 0 .6-.3.6-.6zm-130-7.6c.3-1.3-1.8-2.2-4-1.7-2.1.4-2.2 1.4-.3 2.3 2 1 4 .7 4.3-.6zm114.5 5.2c.8-.9 2.5-2.1 3.8-2.8 3.5-1.7.1-1-3.8.9-1.7.7-3.8 1.5-4.7 1.7-1.6.4-1.6.5-.4 1 2.3 1 3.7.8 5.1-.8zm-157.3-8.5l-.3-2 2.5.5c1.3.3 2.9.3 3.4 0 .7-.4-1-1.6-5.9-4.5-4.4-2.5-6.8-3.6-6.8-3-.1 1.6-2 .8-3.4-1.4l-1.4-2.2 1.8 1.3c1 .7 2 1.1 2.2 1 .2-.3-1.1-1.2-3-2.2l-3.2-1.7.9 1.8c1.5 3.2 4.4 5.5 6.7 5.2 1.6-.3 2.3 0 3.8 1.7 2.1 2.3 2 4.3-.4 4.1-1.3 0-1.3.1.5 1.7 2.5 2.3 3 2.2 2.6-.3zm14.1.8c0-1.4-.3-2-1.3-2.4-1.8-.7-2.2-.5-2 1.2.4 3.3 3.2 4.3 3.3 1.2zm156 6.3c1.2-1.2 1.4-2.9.2-3-1.3 0-2.6 1.6-2.1 2.9.4 1.3.5 1.3 1.8 0zm-133.2-6.9c.7-.5 1-1 .6-1s-1.3.4-2 1c-.7.4-1 .8-.6.9.4 0 1.3-.4 2-.9zm115.8 5.8c1.5-.8 0-2.1-2.3-2-2.7.2-3.2 2.4-.6 2.5 1 0 2.3-.2 2.9-.5zM112 201c0-.3-.4-.9-.9-1.3-1-1-4.7 0-4 1 .4.9 4.8 1.1 4.9.3zm6.9-.5c-.6-2-.7-2.1-2-1.6-1.1.3-1 .5.2 1 .9.4 1.3 1 1.1 1.3-.2.4-.1.7.3.7.5 0 .6-.5.4-1.4zm148.5 7.3c-.2-1.5-4.4-2.3-4.4-.8 0 1.1.9 1.7 3 1.8 1.2.1 1.5-.2 1.4-1zm-175.1-8.3c0-.3-.4-1.2-1-2.2-.5-.9-.6-1.3-.2-.8 1 1 3.9 1.3 4 .4 0-.4.6-.7 1.4-.6 1.4 0 1.3-.1-.7-2.4-1.2-1.3-3-3-4.2-3.9-1.3-.9-2-2-2-2.8 0-1.2.5-.9 2.7 1.9l2.7 3.3h4.7c5 0 5.9-.4 5.2-1.7-.4-.6-.7-.5-1.1.2-.4.7-1.5 1-3 1-1.8-.1-2.8-.8-5.7-4-2-2-4-3.7-4.4-3.7-.6 0-1-.3-1-.6.1-1.4 1.1-1.2 3.2.7 1.2 1 2.4 2 2.5 1.8.8-.7-2-4.6-4.2-5.9-1.4-.8-2.5-1.9-2.5-2.4 0-1.6 1.1-1 4.5 2.5 3.5 3.7 6.1 5 7 3.6.5-.6.9-.4 1.4 1 .8 2 1.8 2.4 1.9.8 0-.6-1.1-2.2-2.5-3.7-1.4-1.4-2.5-3-2.4-3.7 0-1.6 1-1.1 1.6.9.4 1 1.5 2.3 2.5 2.9 4.5 2.6 6.4 4.4 7.6 7.5.7 1.7 1.4 2.6 1.4 2 .1-1.8-2-6-4.1-8.2-1-1.2-2-2.5-2-3 .1-.8.4-.7 1.3.3.6.8 1.5 2 1.9 2.9.7 1.6 4.1 3.8 5.3 3.5.5-.2 1.6.3 2.5 1 1.2 1 2.3 1.2 3.4 1 1.7-.3 1.7-.4.6-2-.5-.8-1.3-1.5-1.7-1.6a10 10 0 01-2.8-2.4l-4.6-4.9c-1.3-1.3-2.1-2.8-1.9-3.1.3-.4 1.6.6 3 2.1 2.1 2.3 3.2 2.9 5 3h2.2l-2-1c-3.2-1.5-9.1-6.6-9-7.7 0-1.6 1-1 3 1.7l2 2.5.1-2.4c.1-2-.2-2.7-1.5-3.6-1.4-1-2.1-3-1-3 .8 0 3.3 3 3.3 3.8 0 .5 1 1.2 2 1.8 1.2.5 2.8 1.5 3.6 2.3 1.2 1.2 1.4 1.2 1.4.3 0-.6-.2-1.2-.6-1.5-.3-.2-.5-1-.4-1.9.2-1-.1-1.4-1.2-1.6-.8-.2-1.4-.6-1.4-1 0-.3-.4-.6-1-.6a1 1 0 01-1-1c.1-.5-1.4-1.8-3.2-2.9-3.2-1.8-3.6-1.9-7.3-1.3a80 80 0 00-17.3 5.6 126 126 0 01-7.2 3c-4.6 1.7-12.3 2.1-15.2.8-1-.5-2.1-.8-2.4-.6-.9.8 1.6 5.3 4.7 8.4 1.8 1.7 3.8 4.3 4.5 5.6 3 5.7 8.8 11.4 9.9 9.8.3-.5 1-.1 2.3 1.1 1.5 1.6 3.4 2.4 6.9 3.1.2 0 .5-.1.5-.4zm20.5-14.2c-1.4-1.5-1.7-2.8-.7-2.8.7 0 2.8 3.5 2.3 3.9-.2.2-1-.4-1.6-1.1zm-16.2-4.8c-1.9-2-2.5-3.4-1.4-3.3.6 0 4.7 5.4 4 5.4-.3 0-1.4-1-2.6-2.1zm151 24c1.8-1.7 2-1.8 2.2-.8.2.9.6 1.1 1.3.8l2.3-.6c1.7-.4 2-2 .6-2.5-1.7-.6-8 1-9.8 2.5-1.7 1.4-1.5 3.4.3 2.8.6-.2 2-1.2 3.1-2.3zm10.6 2.6c.5-.4.9-1.3 1-2 0-2-2.3-1.2-2.6.9-.3 1.9.3 2.3 1.6 1zm-150-9.6c.5-.3.7-.6.3-.6a4 4 0 00-1.6.5c-.6.4-.8.6-.4.6a4 4 0 001.7-.5zm14.7-.1c.6-1.9-1-3.9-2.2-2.8-1 1-.4 4.1.8 4.2.5 0 1.1-.6 1.4-1.4zm118.8 5.9c.3-.2.2-.6-.1-1-.9-1-4-.2-4.1 1 0 .7.4.9 1.8.6l2.4-.6zm23.3.2c1.8-1 2.2-1 1.9-.2-.8 1.8 2.6 1.4 4-.5 2.2-3 4.6-4.7 6-4.5 2 .3 4.1-1.2 6.1-4.2 1-1.5 1.8-2.8 1.8-3 0-.5-4.5 2-7.1 4-3.7 2.8-9.9 6-10.9 5.5-1-.4-5 2.5-5 3.6 0 .8.8.7 3.2-.7zm14.2-8.4c2.3-2 3.7-2.5 3-1-.3.8-2.3 2-4.6 2.7-.4.1.3-.7 1.6-1.7zm-165.7 1.3c0-.3-.3-.6-.6-.7-.3 0-.8.3-1 .6-.3.4 0 .7.5.7.6 0 1-.2 1-.6zm-9.5-1c-.2-.5-1.2-.8-2.3-.8-1-.1-2 .2-2 .5 0 .4 1 .7 2.3.8 1.4 0 2.2-.2 2-.6zm24-1c0-.6-1.6-1.3-3.6-1.4-1.5 0-1.5 0-.6 1.6.9 1.4 1.2 1.5 2.6 1 .9-.4 1.6-.9 1.7-1.2zm101 3.6c.3-1.5.1-2-.6-2-1.2-.1-2 1.8-1.5 3.4.6 1.7 1.8 1 2.2-1.4zm33.2 3.2a6.8 6.8 0 003.1-2.2c.6-1 1-1.2 1.6-.7.5.5 1.4.3 3-.5 1.1-.7 2.1-1.5 2.1-1.8 0-.2 2.2-3 4.8-6 8.2-9.7 9.1-11 9.7-13.4l.6-2.4-2.8 1.3c-5.4 2.4-12.5 1.2-23-4-12.8-6.5-19-7.8-23.7-5-4.9 3-8.1 6-8.2 7.5-.2 1.9-.4 1.9 2.8.4 1.4-.6 3.4-2.3 4.4-3.7 2-2.6 3.2-3.3 3.2-1.6 0 .4-.7 1.5-1.5 2.3-1.6 1.7-2.1 5.8-.6 4.6.6-.4 1.2-1.4 1.5-2.3.5-1.8 1.6-2 2.1-.5.2.6-.5 1.6-1.6 2.5-6.2 4.7-7.4 6-6.2 6 .7 0 1.8-.7 2.6-1.5 1.4-1.7 3.8-3.1 4.3-2.6.6.7-6.3 8.2-8.4 9.4-2.3 1.2-3.4 2.7-2.8 3.8 1 1.6 3.7-.3 7.4-5 1.5-2 2-1.3.6 1-.5 1-.9 2-.7 2.1.4.4 4.4-3.3 6-5.5.6-.8 1.3-1.3 1.6-1 .3.3-.1 1.3-1 2.3l-1.4 1.8 1.6-.2c.8-.2 3-1.5 4.7-3 1.8-1.5 3.3-2.7 3.5-2.7.9 0-.2 1.8-2.3 3.6-1.3 1.2-2.4 2.7-2.4 3.4l.1 1.3c.2 0 1.2-1.4 2.5-3 2.7-3.8 5.9-6.8 6.2-5.8 0 .4-1 1.9-2.6 3.3a13.2 13.2 0 00-2.9 3.1c0 .8 2.4.8 3 0 .7-1 1.7-.6 1.6.9 0 1.2.1 1.2 2.5-.7 1.7-1.4 2.6-1.7 2.7-1 .2.4-.3 1-1 1.4-.6.4-2 1.4-2.8 2.2-4 4-4.8 4.5-6.6 4.8-1.7.3-1.8.4-.7.9 3 1.3 5.6 0 10-5 .8-.9 1.4-1.1 1.6-.6 0 .4-1.6 2.6-3.8 4.9-2.6 2.7-3.5 4.1-2.8 4.1.5 0 1 .5 1 1 0 1.5 1.8 1.4 3.4-.3 1.2-1.3 1.3-1.3.9 0a47.5 47.5 0 01-1 2c-.4 1 1.3 1.1 4.1 0zm-6.7-16.8c0-.8 4.4-4.8 5.2-4.7 1.8 0 .8 1.8-1.5 2.7-1.3.6-2.4 1.3-2.4 1.7a.7.7 0 01-.7.6c-.3 0-.6-.1-.6-.3zm-139.3 6.6a5 5 0 00-1.6-1.6c-1.3-1-1.4-1-1.5.7 0 1 .3 2.2.7 2.7.7.8 1 .8 1.7 0 .5-.7.8-1.4.7-1.8zm16.3 2.6c.9-.2 1.5-.6 1.6-.9 0-1-3-.8-4 .2-1 1.1-.3 1.3 2.4.7zm94.2 1.5c0-.6-3-.3-4.2.4-.4.2-.1.7.5 1.3 1 .7 1.4.7 2.4-.1.7-.6 1.3-1.3 1.3-1.6zM122 191.6c-.2-.3.6-.4 1.8-.3l2 .3-1.7-.8c-2-.8-3.7-.6-3.8.6 0 .3.4.7 1 .7s.9-.2.7-.5zm126.8 6c-.7-.2-1.6-.2-2 0-.5.1 0 .3 1.1.3s1.5 0 .9-.3zm-141.5-11.1c-1-1.4-2.7-1.4-2.3 0 .2.5.3 1.4.3 1.9s.5 1 1.1 1.1c1.4.4 2-1.6 1-3zm33 3.7c.5-1.6-.8-3.6-2-3-.4.3-.8 1.3-.8 2.4 0 1.5.2 2 1.1 2 .8 0 1.5-.5 1.7-1.4zm78.8 4.5c-.2-.3-.9-.7-1.6-.7-.7 0-1.3.2-1.3.6 0 .4.7.7 1.6.7 1 0 1.6-.2 1.3-.6zm-117.8-5.9c.1-1.2-1.4-3-2.5-3-1 0-1.3.4-1.3 1.5-.1 1.4.2 1.7 1.9 1.8 1 0 2 0 2-.3zm34.2 1c0-.5-.2-1-.6-1-.4 0-.7.4-.7 1 0 .5.2 1 .6 1 .4 0 .7-.5.7-1zm100.4 4.4c.9-1.4 1-3.2.3-3.3-1.4 0-2.8 1.6-2.5 3 .4 1.9 1.2 2 2.2.3zm-23.9-1.8c.6-.8 0-4-.6-4a4 4 0 00-1.5.6c-.8.4-.8.9-.3 2.3.8 1.8 1.7 2.2 2.4 1zm17.4.8a.7.7 0 00-.6-.6.7.7 0 00-.7.6.7.7 0 001.3 0zm-99.9-5.5c-.3-1.3-3.5-1.5-5.2-.4-1.5.9-1.4 1 2 1 2.5.2 3.4 0 3.2-.6zm116.7 5.7c-.2-.4-.7-.6-1-.4-1 .5-.8 1 .3 1 .6 0 .9-.3.7-.6zm-30.5-2.1a.7.7 0 00-.6-.7.7.7 0 00-.7.6c0 .4.2.7.6.7a.7.7 0 00.7-.6zm22.8-.4c-.2-.5-.3-.1-.4.8 0 .9.1 1.3.3.8a2.5 2.5 0 00.1-1.6zm-12.2-1.2c0-.2-.9-.7-2-1-1.5-.4-2.3-.3-3.1.5-1 .9-.9 1 2 1 1.7 0 3-.2 3-.5zm18.3-.5c.2-1.2 0-1.8-.7-1.9-1 0-1.8 1.3-1.9 3 0 1.8 2.3.8 2.6-1.1zm7.6 1.9c.5-.7-.1-2.7-.9-2.7-.7 0-2.7 1.7-2.7 2.5s3 1 3.6.2zm-123-7.2c-.4-.8-.9-1.3-1-1.1-.6.5.1 2.4 1 2.4.4 0 .4-.4 0-1.3zm4.8.3c.4-1.3-1-4-2-4.1-1 0-.9 2.4 0 4 1 1.6 1.5 1.7 2 0zm-11.2-1.9c-1-1-2-1.3-3.5-1-1.2.1-2.3.4-2.5.5-.8.6 1.8 1.6 4.5 1.7l3 .1zm95.1 3.2c1-1.6 1-4 .2-4-.7 0-2 2.7-2.2 4.2 0 1.4 1.1 1.3 2-.2zm13.8-1c.7-.7.6-1-.5-1.4-.7-.2-1.1-.7-1-1 .2-.3-.3-.7-1.3-.9-1-.3-1.4-.2-1 .3.4.5.3 1.2-.5 2.2-1 1.5-1 1.5 1.2 1.6 1.3 0 2.7-.3 3.1-.8zM123 179c0-.3-.5-.5-1-.3-.6.2-1 .5-1 .6 0 .2.4.3 1 .3.5 0 1-.2 1-.6zm3.6-2.3c-.3-1.7-1.2-2.8-2.2-2.9-1 0-.6 2 .5 3.3 1.5 1.8 2.1 1.7 1.7-.4zm-6.8.2c0-.9-2.4-2.2-3.7-2-1 .1-1 .2 0 1.3 1.2 1.3 3.6 1.8 3.7.7zm106.6-.4c0-1.2-1-1.7-1.5-.7-.2.2-.6 1.3-.9 2.4-.5 1.9-.5 1.9.9.7.8-.6 1.4-1.7 1.5-2.4zm-155.4-5.2c-.2-.4-.8-.7-1.3-.7s-1 .2-1 .6c0 .3.6.7 1.3.7.8 0 1.2-.2 1-.6zm-4.2-.8c0-.4-.3-.8-.6-1-.4-.3-.7 0-.7.5 0 .6.2 1 .6 1 .4 0 .7-.2.7-.5zm167.4 7.2c.6-1 .6-1.3-.4-1.4-1.3 0-2.9 1-3 2 0 1.1 2.7.6 3.4-.6zm-158.2-7.8c0-.6-.3-.8-1-.6-.5.2-.8.6-.6 1 .5.9 1.6.7 1.6-.4zm4.4-1.2c.3-.9.3-1.8 0-2-.4-.7-2.3 1.5-2.4 2.7 0 1.6 2 1 2.4-.7zm4.4-.4c0-.4-.5-2-1-3.6a31 31 0 01-.3-11l.6-8.1-2.1-.5c-3.3-.8-3.7-.2-3.4 4.7 0 2.4.6 5 1 6 .9 1.7.9 1.7 1.1-1.8.1-2 .5-4 .9-4.6.5-.6.6 1.6.3 6.8-.4 8.4.4 13.2 2 12.9.6-.1 1-.5 1-.8zm-15.7-.8c-1.4-.6-.9-1.5.6-1 1.2.3 1.3.2.7-1-.9-1.9-4.5-3.3-4.6-1.8 0 1 2.5 4.2 3.3 4.2.5 0 .5-.2 0-.4zm8.7-1.1l1.4-1.6-1.5 1.2c-.9.6-1.6 1.4-1.6 1.8 0 .4 0 .5.2.4l1.5-1.8zm11.6.6c1.5-.7 1.7-1 1.4-2.7-.6-2.5-1.7-4.7-2.4-4.7-.3 0-.2 1.1.2 2.5 1.5 5 .3 6.8-1.4 2-1-2.9-1-5.1-.2-6.4.5-.6 1.1-.2 2.6 1.7 1.1 1.4 2.3 3.2 2.6 4.1.3 1 1 1.6 1.6 1.5 2-.3 1.7-1.7-1.1-5-3-3.5-4-6.3-1.4-3.8 1.2 1.2 1.2 1-.3-2-1-1.9-1.4-3.5-1-3.6.9-.2.4-1.6-2-6.3-1.2-2-2-4.2-1.8-4.7.2-.5.7.1 1.3 1.4.5 1.2 1.2 2.2 1.3 2.2.5 0 .3-9-.2-11-.2-.9 0-1.5.3-1.5 1 0 1.4 1.7 1.2 5 0 2 .2 3 1 3.6.7.5.8.7.3.7-.6 0-.8.6-.8 1.4.1 1 .8 1.7 2.3 2.2 1.2.4 2.3.6 2.5.4.7-.7-.3-3-1.4-3.4-1-.3-1-.4 0-.4s1-.3-.5-1.6c-1.5-1.5-1.7-2-1.5-7 .1-3.5.4-5.3.8-5.1.4.2.6 1.6.4 3.3-.2 2.2 0 3 .6 3.1 1.1 0 2.8-4.6 2.3-6.8-.2-1 0-1.6.5-1.6s.6 1.4.3 4.6c-.3 3.1-.1 4.8.4 5.4.7.7.9.4.9-2 0-4 0-4.7 1-4.6.4 0 .5 1.2 0 3.8-1 6.2-1.1 8-.3 7.3.5-.3 1-2.3 1.4-4.5.8-4.5 2-5.2 1.8-1-.1 2.1.2 3.2 1.2 4.2l1.3 1.3v-5.1c-.1-4.6-.3-5.4-2-7.2a21 21 0 00-10.8-6.2 142.9 142.9 0 01-7.4-2.2c-2-.6-4.1-1.2-4.9-1.2-2.5-.2-9.5-4.7-11-7-.8-1.4-1.5-2-1.8-1.4-.8 1-1.3 19.5-.6 23.2.5 3 2.5 7 3.2 6.3.2-.1-.1-1.1-.6-2.2-1.4-3-2.1-7.4-1.6-9.3 1-3 1.6-1.6 1.7 3.4 0 3.3.5 5.3 1.1 6.2.6.7 1 1.5 1 1.8 0 .4.6 1 1.4 1.6 1.1.8 1.4.8 2 0 .4-.6.5-.6.5.3 0 1.5 2 2.3 3 1 1.1-1.4 1.6-1.1 1.5.7 0 1.4.3 1.7 2.4 2.1 3.5.8 6.3 2.5 7.1 4.4.9 2.3.8 2.4-.6 1.5-.7-.4-1.3-1.2-1.3-1.7s-.2-1-.6-1c-1 0-1 5 0 7.4.6 1 .7 1.8.3 1.5-.5-.3-.7.6-.8 2.5-.2 3.3.8 9.7 1.4 9.5.3 0 1.2-.5 2.2-1zm-15.7-31.4c0-1.5.4-2.2.7-2 .4.3.6 1.2.6 2 0 .9-.4 1.8-.7 2-.4.2-.7-.6-.6-2zm208 39c0-.3-.6-.6-1.3-.7-.7 0-1.3.3-1.3.6 0 .4.5.7 1.3.7.7 0 1.3-.2 1.3-.6zm-8.5-1.6c0-1-2.3-3.8-2.8-3.3-.8.7.7 3.8 1.8 3.8.5 0 1-.2 1-.5zm2.7 0a.7.7 0 00-.7-.6.7.7 0 00-.7.6c0 .4.3.7.7.7a.7.7 0 00.7-.6zM73 162c-.2-.2-1.3-.2-2.6 0l-2.3.2 2 .5c1.7.5 3.6 0 2.9-.8zm5.3-1.3c.1-2.4.1-2.4-1.2-1.3-.8.6-1.4 1.7-1.5 2.3 0 .8.5 1.3 1.3 1.3 1 0 1.3-.4 1.4-2.3zm190 9.1c.6-2 .8-13.8.4-16.3-.1-.6.1-1.2.5-1.3.3 0 .7.7.7 1.8.2 4.6.6 6.6 1.2 5.7.8-1.3 1.9-10.1 1.5-11.4-.5-1.5-2.3-1.4-4.2.2-1.5 1.2-1.5 1.6-1.2 6 .5 6.5 0 14.2-1.1 16-.8 1.2-.7 1.4.4 1.5 1 0 1.5-.6 1.9-2.2zm-4.5-1c.3-.9.4-1.8.2-2-.3-.3-.5.1-.5.8 0 .7-.4 1.7-.9 2-.6.6-.6.8 0 .9.4 0 1-.7 1.2-1.7zm-156-10.1c.7-.4 1-1 .7-2-.6-2-1.4-1.8-3.4 1-2.1 2.8-1.9 4.9.3 2.8.7-.7 1.8-1.5 2.4-1.8zm153.3 9.2l.9-3.4.5-2.3-1.4 2.3c-1.5 2.4-2 4.5-1 4.5.3 0 .8-.5 1-1zM76.4 157.5c-.1-.2-.7.3-1.2 1-.9 1.4-.9 1.4.3.4.7-.6 1.1-1.3 1-1.4zm207.4 11.7l.5-1.3c.7-1.6-2.8-1.5-3.7.1-.7 1.2-.6 1.3 1.2 1.4 1.1 0 2 0 2-.2zM67.5 157.6c-.4-1.4-3.8-3.3-4.4-2.5-.2.4-.3 1.3 0 2 .2 1 .9 1.4 2.5 1.4 1.8.1 2.2 0 2-.9zm191.6 7.6c.5-1.3 1.5-3.2 2.3-4a31.1 31.1 0 004-10.9c-.7-.6-2.6 1.4-4.3 4.4-2 3.6-2 3.8-.8 3.4 1.5-.5 1.2.3-1 2.9-2.3 2.5-3.8 5.5-3.2 6.1 1 1 2.1.3 3-1.9zm-160.2-7c-.6-1.2-4.3-2.7-5-2-.7.6 2.3 3.1 4 3.2 1.4 0 1.5 0 1-1.2zm7.4-4.3c.7-1.3.2-1-2 .9-2.3 2-3 2.3-3.4 1.5-.8-1.4-.8-.3 0 1.3.6 1.3.7 1.3 2.5-.4 1-1 2.3-2.4 2.9-3.3zm173 11.7c0-.1-.2-.3-.6-.3-.3 0-.6.3-.6.7 0 .4.2.5.6.3.4-.2.7-.5.7-.7zM70.2 154.8c0-1.1-.1-1.2-1-.6-1 .9-.8 1.8.3 1.9.3 0 .6-.6.7-1.3zm5.3-1.1c0-2.3-1-3-1.9-1.4-1.3 2.1-1 3.9.5 3.5.9-.2 1.3-.8 1.4-2.1zm199.4 11.2c0-.5-.5-1.5-1.2-2.1-1.2-1.3-1.3-1.2-1.3.8-.1 1.6.1 2 1.2 2.1.7 0 1.3-.3 1.3-.8zm-27.5-2.3c0-1.3-3.9-5.8-4.6-5.1-1 .8-.5 2.2 1.5 4.2 2.4 2.4 3 2.6 3.1 1zm-151.4-8.3a2.5 2.5 0 00-1.6-.1c-.5.2-.1.3.8.4.9 0 1.2-.1.8-.3zm158.4 6.8c1.3-.6 2.3-1.4 2.4-1.8 0-1.3-3.4-.3-4.6 1.3-1.2 1.7-1 1.8 2.2.5zm-4.2-2c0-.2-.3-.3-.7-.1-.3.2-.7.9-.7 1.5 0 1 0 1 .7.1a4 4 0 00.7-1.5zM76.7 143.4c-1-.8-1.2-.6-1.7 1.8-.5 2-.4 3 .2 3.7.5.5 1.1 1.6 1.4 2.4.3 1.1.6.4.9-2.7.3-3.5.2-4.4-.8-5.2zm210.4 17.3c1.5-1.3 1.5-2.2 0-2.2s-2.5.6-3 2c-.7 1.4 1.5 1.6 3 .2zm-222-11c0-1-1.9-2.5-3.5-2.5-1.4 0-1.4 1.7 0 2.6 1.6 1 3.4 1 3.4-.1zm31.1 1c-.3-1.1-.1-1.2 1.3-.8 1 .3 2.1.2 2.7-.3 1.6-1.1 1.3-1.7-.9-1.6-1.1.1-3.2-.3-4.7-.9-3-1.2-4.3-1-1.6.2 2.2 1 2.2 1.4 0 .9-1-.3-1.6-.1-1.6.4 0 1.5 2 3.4 3.6 3.4 1.3.1 1.5-.1 1.2-1.2zm9.5-1.4c.4-2.1-.6-3-2-1.6a4.8 4.8 0 00-1.3 4c0 1.4 3-.7 3.3-2.4zm141.8 8.7c0-.3-.8-1-1.7-1.4l-1.8-.9 1.6 1.4c1.8 1.6 1.9 1.7 2 1zm31-.2c0-.5-.5-1.5-1-2.1-1-1.1-1.2-1-1.7.2-.4.8-.5 1.7-.3 2 .6 1 2.9.9 3-.1zM72.3 147.4l-.6-2c-.7-2.1-1.9-1.7-2 .6 0 1.1.3 1.6 1.3 1.6.7 0 1.3 0 1.3-.2zm31-1.2c1.3-1.5.4-1.8-1-.4-.7.7-1 1.3-.6 1.3s1-.4 1.6-1zm145 6.2c0-1-.5-2-1.3-2.7-1.4-1-1.5-1-2 .6-.6 1.3-.5 1.8.4 2.6 1.8 1.5 2.9 1.3 3-.5zm9.7 1.3c.5-.4.9-1.3.9-2 0-1.5-2.5-.7-3.9 1.2-1 1.3-.9 1.4.6 1.5.9 0 2-.3 2.4-.7zm17.9-5.4c-.2-1.3-.7-2.2-1.3-2.3-.7 0-1 1-1.2 4.4l-.2 4.5 1.5-2.2c1-1.6 1.4-2.8 1.2-4.4zm-209.3-5.4c0-1.6-1.5-3-2.9-2.6-1.4.5-1.3 2 .4 2.9 2 1.1 2.4 1 2.5-.3zm6.4-1.6c-1.5-1.7-2-.5-.8 1.6 1 1.6 1.2 1.7 1.5.7.1-.7-.2-1.7-.7-2.3zm34.3 3.4a.7.7 0 00-.7-.7.7.7 0 00-.6.7c0 .3.2.6.6.7a.7.7 0 00.7-.7zm145.7 7c0-.8-1.7-1.5-2.2-1-.8.7-.4 1.4.8 1.5.8 0 1.4-.2 1.4-.5zm37 .6c1-2 .4-2.6-2-1.7-2.7 1-3 3.2-.6 3.3 1.2 0 2-.5 2.5-1.6zm-27.4-2.9c-.3-.5 1.4-1.3 6-2.7 2.5-.8 3-1.3 3.2-2.6 0-1.6.1-1.6 1.2-.5.6.6 1.5 1.1 1.9 1.1 1 0 1.8-2.8 1.4-5.2-.1-1 0-2.4.2-3 .5-1 .5-1 1 .2.2.7.3 2.6.3 4.1-.1 3.4 1 3.5 2.3.2 2.6-6.1 3.4-9.1 2.8-10.4-.7-1.4-.1-2.9.8-2.2 1 .7.4 6.4-.9 9.7-1.5 3.8-1 4.6.8 1.3 1.1-2 1.4-4 1.9-14.7.4-9 .4-12.5-.2-13.1-.5-.6-.8-.6-.8-.1-.2 3.4-12.5 9.4-21.9 10.7-7.8 1-14.7 5.9-15.7 11.1-.4 2.1-.4 3.2.2 3.6.5.3.6 1 .4 1.5-.8 1.7.8 1.3 1.6-.5.7-1.2.7-2 .2-3.2-.4-1.1-.4-1.8 0-2 1.1-.6 1.4 0 1.6 3.3.1 1.7.5 3.2.9 3.5.6.4.6-1.3-.3-8-.3-2.5-.2-2.6.8-1.7.7.6 1 2 .9 4.2-.1 2.2 0 3 .6 2.8.5-.3.7-2 .5-5.4-.1-3.8 0-4.8.6-4.6.6.2.8 1.2.5 2.8-.3 2.3.5 4.4 1.8 4.4.3 0 .6-1.3.7-3 .1-2.2.4-2.9.8-2.4 1 1.1 1.2 7.5.3 10.6-.7 2.2-.6 2.8 0 2.8s1.2-1.1 1.5-3c.9-4.7 1.3-5.6 2-4.8.4.4.4 3 .1 6.3-.3 3-.5 5.6-.3 5.6l1.3-2.2c.6-1.3 1.4-2.3 1.8-2.2 1 0-.1 2.5-2.4 5.4a9.5 9.5 0 00-2 3.8c-.1 1.4 0 1.4.9.2.5-.7.9-1.4.7-1.7zm-160.4-9.3c.1-2 0-2.2-.9-1.6-1.6 1.2-1.4 5.2.2 4.3.4-.2.7-1.4.7-2.7zm-4.7 1.5a.7.7 0 00-.6-.7.7.7 0 00-.7.7c0 .3.3.6.7.7a.7.7 0 00.6-.7zm187.8 8.5c0-.1-.3-.3-.7-.3-.3 0-.6.3-.6.7 0 .3.2.5.6.3.4-.2.7-.5.7-.7zm-4.3-.9c.5-1 0-2.2-.8-2.2-.7 0-1.5 1.8-1.1 2.6.5 1 1.4.8 1.9-.4zm-2.5-3.2c1.2-1.7 1.2-1.7-.2-1-.7.5-1.4 1.4-1.4 2 0 .8 0 1.2.1 1l1.5-2zm-18.5-.5c.3 0 .5-.8.6-1.5 0-1-.2-1.3-1.5-1-3.4 1-4.7 3.8-1.4 3.1 1-.1 2-.4 2.3-.6zm-163.5-9.8c-.6-1.6-1-2-1.7-1.4-1.3 1-1.2 2.3.5 3.1 1.9 1 2 .7 1.2-1.7zM287 146c1.3-1 1.5-1.3.8-2-.7-.8-1-.7-2.2.5-2.4 2.6-1.5 3.6 1.4 1.5zm-36.1-3.3c0-1-.2-1.8-.6-2-.8-.6-1.6 1.1-1.2 2.5.5 1.6 1.7 1.2 1.8-.5zm5-3.2c1-.4 1.5-2.2.8-3-.5-.6-2.3 1.3-2.3 2.5-.1 1 0 1 1.5.5zm-154.1-18.6c.2-.5-.4-.8-1.8-.9-2 0-2.5.5-1.6 1.5.7.8 3 .4 3.4-.6zm-9-3c.1-1.6-1.4-3.2-2.4-2.6-1 .5-1 2.7 0 3.2 1.6.7 2.4.5 2.5-.7zm5.3.7c0-.3-.4-.6-1-.7-.5 0-1 .3-1 .6 0 .4.4.7 1 .7.5 0 1-.2 1-.6zm-9-5.5c.5-2.4 1-6 1.2-8 .2-2.3.7-3.6 1.3-3.7.7-.3.8.3.4 2.9-.4 2.1-.4 2.8 0 2.1 1.3-1.9 2-8 1-9.3-.7-1.1-1-1-3 1.2a14.2 14.2 0 00-2.6 4.4c-.4 1.6-.4 1.7.3.7.6-.9.9-1 1.3-.3.3.5 0 1.2-.5 1.6-.5.3-1.4 1.8-2 3.2l-1.2 2.6 1.4-1.5c1.8-2 2-1.6 1.3 1.3-.4 1.2-.7 1.8-.7 1.3s-.8 0-1.6 1.3c-1.8 2.3-5.2 3.4-4.2 1.2 1.8-3.8 1.3-4.2-2.8-2.4-2.8 1.2-2.7 2.3.2 2.2 1.3 0 1.7.1 1 .5-1 .6 1.5 2 4.8 2.5l2.7.5c.4 0 1.1-1.7 1.7-4.3zm-2.6 2.4c0-1 .2-1.3.4-.9.1.5 0 1.2-.1 1.7-.2.4-.4 0-.3-.8zm17 0c1.3-.5 2-2.5 1-2.5-.3 0-1.5.7-2.6 1.6-1.6 1.2-1.8 1.5-.9 1.5.7 0 1.8-.2 2.5-.5zm150.1 7.4c2.4-.5 1.8-1.5-1-1.6-2.5-.1-3.3.4-2.3 1.4.5.6 1.4.6 3.3.2zM85.3 111.1c0-.3-.3-.2-.7.3a4 4 0 00-.7 1.6c0 .4.3.3.6-.3a4 4 0 00.8-1.6zm14.4 1.3l-1-.6c-.6-.2-1 0-1 1 0 1.1.1 1.2 1 .6l1-1zm161.4 7.7c.5-.5.7-1.4.5-2-.3-1-.5-1-1.3-.4-1.1.9-1.5 3.2-.6 3.3.3 0 1-.4 1.4-1zM76.5 109.9c-.4-.5-1.7.4-1.8 1.2 0 .4.4.4 1-.1.6-.4 1-1 .8-1.1zm18.6 1.5c0-.7-.3-1.8-.7-2.4-.8-1.2-.9-1.2-1.3-.2-.5 1 .5 3.7 1.5 3.7.2 0 .5-.5.5-1.1zm-22.3-1c0-.9-1.8-3.6-2.5-3.6-.9 0-.9 2.2 0 3.2.9.9 2.5 1.1 2.5.4zm182.2 8.5c-.5-1-6.1-4.5-6.6-4.1-.8.8.4 3.6 1.8 4 2.7.6 5.1.7 4.8 0zm9.2-2.1c-.4-4.4-1.4-6.1-1.1-1.9.2 3.8.5 5 1 5 .2 0 .3-1.4.1-3.1zm5.7 2c.7 0 1.2-.2 1.2-.6 0-.4-.3-.5-.7-.3-1 .6-3.9-.4-3.8-1.5 0-.4-.4-1.3-1-1.8-1-.8-1-.7-.6 1.4.5 3.2.7 3.5 2.4 3.1a12.4 12.4 0 012.5-.2zm-187.2-9.4c0-.8-1.5-.9-4-.2-1.3.4-1.2.4 1.2.6 1.5.1 2.8 0 2.8-.4zm24.4-2.7c.1-.8 0-1.5-.3-1.5-.4 0-2.6 1.1-4.1 2.2-.2 0-.1.5 0 .8.7 1.2 4 0 4.4-1.5zm168 9.7c0-.6-5.1-3-5.6-2.6-.2.2-.1.9 0 1.5.3 1 1 1.3 3 1.5 1.4 0 2.6 0 2.6-.4zm-21.6-1.7c0-.3-.3-.5-.6-.3-.4.2-.7.5-.7.7 0 .1.3.3.6.3.4 0 .7-.3.7-.7zm5.4-3.4c.1-1.2-1-1.7-1.8-.7-.5.4-1 1.8-1.3 3l-.5 2.2 1.8-1.8c1-1 1.8-2.3 1.8-2.7zm-175-5.8c.6 0 1-.7 1-1.6.2-2.2-1.6-2.3-4-.2-2.5 2-2.4 2.4.1 2 1.1-.1 2.5-.3 3-.2zm-9.4-2.4c0-1-.4-2.2-.8-2.7-.8-.6-1.1-.5-1.8.6-.6 1-.6 1.6.3 2.7 1.5 1.8 2.2 1.6 2.3-.6zm23.4-.8c-.4-1.6-.5-1.7-1.1-.6-.5.9-.5 1.7 0 3 .6 1.5.8 1.6 1 .6.3-.7.3-2 0-3zm167 7.6c-2.8-4.2-3-4.9-1.1-4.3 1.5.5 1.1-.6-1.8-4.2-1.5-2-2-2.3-2.5-1.5-1 1.4-1 6-.1 7.9.7 1.5.8 1.5.6-1.5-.3-4.1 1-4 1.8.3.4 1.8 1 3.2 1.2 3 .3-.1 1.2.8 2.1 2.2 1 1.3 1.9 2.2 2 2 .2-.1-.7-1.9-2.1-4zm-186.5-6.7c0-.3-.2-.6-.5-.6s-1-1-1.6-2.1c-.6-1.2-1.2-2-1.4-1.8-.2.1.3 1.4 1 2.7 1.5 2.4 2.4 3.1 2.5 1.8zm173.3 7.9c0-.6-.6-1-1.4-1.1-.8 0-2.2-.6-3.1-1.1-2.1-1.4-2.6-1.3-2.6.2-.1 1.6 1.5 2.7 4.6 2.8 1.8.1 2.5-.1 2.5-.8zm30.1.1c.3-1.7.2-1.8-.8-1a8.6 8.6 0 00-1.8 2c-.6 1-.5 1.2.8 1 1.1 0 1.6-.5 1.8-2zM108.2 99.5c.6-2.2 1.5-4.3 2-4.7 1.2-1.1 1 .3-.3 3.9-.7 1.6-1 3.2-.7 3.8.7 1.2 1.5-.4 5-9.3 2.9-7.6 2.8-8.8-.3-13a38 38 0 00-6.7-9.9 49.6 49.6 0 01-7.1-10.8c-1.3 0-6.5 6.1-9.3 11.2-3.2 5.8-4.3 8.7-2.3 6.3 1.4-1.6 1.3.2 0 2.4-1.7 2.6-1.5 3.6.4 2 2.5-2.1 3.6-1.2 1.4 1.1-1 1.1-1.8 2.3-1.8 2.7 0 1.3 1 1.4 2.6.2.9-.7 1.9-1.2 2.3-1.2.3 0-.4.8-1.7 1.8l-2.3 1.8 1.1 2.5c.9 1.7 1.6 2.4 2.4 2.2 1-.2 1.1 0 .7 1-.5 1.4.7 3.5 1.7 3 .3-.3.6-1.3.6-2.3 0-1.1.5-2 .8-2 .5 0 .6 1 .2 2.7-.8 3.8 1.1 3.6 3-.3.8-1.6 2-3.7 3-4.6l1.4-1.7-.6 2.6c-.3 1.4-1.1 3.3-1.8 4.2l-1.1 1.6 1.6-1c.9-.5 2-2 2.6-3.4 1-2.5 3.8-5.7 3.7-4.3 0 1-2.1 4.6-2.9 5-.8.5-1 4.2-.3 4.3.3 0 1.3-1.3 2.1-2.9.9-1.6 2-2.9 2.3-2.8 1 0 .5 1-2 4.6-2 3-3.2 8-1.7 7.5.4-.1 1.3-2 2-4.2zm-4.2.2c-.4-2.5-.8-3-1.7-2.1-1 .9-.2 4.1 1 4.2.8 0 1-.5.7-2zm151.6 6.6c.7-2-.7-3.3-1.5-1.3-.4.8-.6 1.8-.4 2 .5 1 1.4.6 1.9-.7zm16.3.9a8.2 8.2 0 00-3.3-1.9c-1.8-.5-2.1-.4-2.2.8 0 1.5.7 2 4.2 2.2 2.5.2 2.6.2 1.3-1.1zM90.3 95.9c1-1.7 1-2 0-3.6-.5-1-1-1.7-1.1-1.6l-.7 4c-.6 4 0 4.3 1.8 1.2zm155.5 7.4c0-1.4-.3-3.2-.9-3.8-1.6-2.1-3.7-6.4-3-6.3.2 0 1.3 1.4 2.3 3 1 1.7 2 3 2.3 3.1 1.4.1-.2-5.7-1.9-6.7a2.6 2.6 0 01-1.1-2c0-1.3.2-1.3 1-.5.6.5 1.5 2 2 3.3.9 2.5 2.4 4.7 3.3 4.8 1 0 .6-1.8-1-4.3-.8-1.4-1.3-2.8-1-3 .5-.5 3 3 4.3 6.2 1.4 3.5 4 3.6 2.8.1-.7-2.1 0-4.2.9-2.7.3.6.5 1.8.5 2.8-.1 2.2.6 2.4 1.9.5.7-1 .7-1.5.2-1.7-1.2-.5-.8-1.5.6-1.5 1.4.1 2.8-1.6 2.8-3.3 0-.6-.6-2-1.5-3.1-1.6-2.1-1-3 .7-1 1 1.1 2.3 1.4 2.3.5 0-.4-.7-1.6-1.6-2.8l-1.7-2.2 1.6.6 2.4.9c1.2.5 1-.8-.4-2.2-1.3-1.3-1.6-4.3-.4-4.3.8 0-4-7.7-8-12.7l-2.8-3.7-1.3 2.8c-.8 1.5-2.4 4-3.7 5.6l-5 6.4c-5.3 7-5.7 7.6-6.3 10.4-.5 2.6-.2 3.7 2.7 10.7 1.8 4.3 3.4 7.8 3.7 7.8.8 0-.1-5.2-1.1-7-.6-.9-.9-1.8-.7-2 .5-.4 2 2.4 3 5.5.6 2.2 1.5 4.3 2 4.4l.1-2.6zm31.2-.2c.5-.5.8-1.2.7-1.4-.6-.6-4.1 4.2-3.7 5 .3.5.7.3 1.3-.9.4-.9 1.2-2 1.7-2.7zm2.8 3.7c.6-.7 0-4-.7-4-.8 0-2.3 3-1.9 3.8.5 1 2 1 2.6.2zm-28.7-3.3c.5-2-.3-4-1.5-4-1 0-2.1 2.5-1.8 4.1.5 2.5 2.6 2.3 3.3-.1zM78.5 92l-.3-2.1-1 1.8c-.9 1.4-1 2-.4 3.5l.7 1.7.7-1.4c.3-.8.5-2.4.3-3.5zm8.1 3.8c1.3-2.1 1-2.7-.8-2-2 .8-2.9 3-1.1 3.1.6 0 1.5-.5 2-1.1zm-3.4-1.9c1-.8.9-1-.6-1-1.1 0-1.7.3-1.8 1 0 .4.3 1 .7 1 .4 0 1.2-.5 1.7-1zm4-3c.7-.9 1.1-2.1 1-2.8-.2-.9-.6-.5-1.8 1.5-1.7 3-1 3.9.9 1.3zM263.7 97c0-3.4-.1-3.6-1-2.5-1.2 1.5-1.4 4.3-.4 5.4 1.3 1.4 1.5 1 1.4-2.9zM268 99c0-.5-.6-1.4-1.5-2.1-1.5-1.2-1.6-1.2-1.6 0 0 1.3 1 2.8 2.3 2.8a.8.8 0 00.8-.7zM84.1 88.6a6.7 6.7 0 01-.3-2c0-.5-.3-.9-.6-.9-.4 0-.7.9-.8 2 0 1.3.3 2 1 2s1-.4.7-1zm191.8 8.6c.4-1.3-1-3.3-1.8-2.8-.7.4-.9 3.1-.3 3.8.7.8 1.8.2 2.1-1zM86.5 84.5c0-.8-.2-1.2-.6-1-.4.2-.7 1-.7 1.7s.2 1.2.6 1c.4-.3.7-1 .7-1.7zm-.6-4.8c-.1-.4-.7.1-1.4 1.3-1.6 2.7-1.5 3.2.2 1.2.8-.9 1.4-2 1.2-2.5zm179.8 11.5c-.2-1.5-1.4-1.5-1.7-.1-.2.7 0 1.2.8 1.2.6 0 1-.4.9-1zm4-1c.1-.9-.1-1.6-.5-1.6-.7 0-1 2-.3 2.8.6.7.8.5.9-1.2zm-2.8-3.4c-.2-.6-.5-1-.7-.8-.2.2-.1.7.1 1 .6 1.1 1 1 .6-.2zm2-2.3c-.2-.9-.5-1.1-1-.7-.7.6-.2 2 .8 2 .3.1.4-.5.2-1.3zm-149.8-8c.7-.7.6-1-.6-1.5-.9-.4-2.7-1-4-1.2-1.9-.5-2.5-.4-2.5.3 0 1 1.3 1.8 3.3 2 .7 0 1.2.3 1.2.6 0 1 1.7 1 2.6-.2zm3.3-2.7c.6-.3-.5-.7-3-1.1-2.2-.4-4.1-1-4.4-1.4-.2-.5-.6-.4-1 .2-1 1.4 6.5 3.4 8.4 2.3zM237 78.5c1.4-.5 2.4-1.1 2.3-1.5-.3-.9-1.9-.7-5 .5-2 .6-2.2 1-1.5 1.5.6.3 1.1.6 1.3.5l2.9-1zm-126.5-8.1l1.8-2.3c.7-1.3.7-1.7-.2-2.6-1.5-1.8-3.2-.4-3.6 2.9-.4 2.8.3 3.5 2 2zm14.7-.2c2.2-.5 1.9-1.3-.8-2-2.2-.5-4.2.2-4.3 1.6 0 .6 2.9.8 5 .4zM236.8 75c2.4-.9 2.4-.8 1.9-1.7-.3-.5-.8-.5-1.6.2-.6.5-2.1 1.1-3.4 1.4-2.2.5-2.2.6-.6.7 1 0 2.6-.2 3.7-.6zm7.3-2.8c.1 0 .3-.7.3-1.5 0-1-.6-2-1.5-2.7-2-1.5-2-1.5-2.6.3-.5 1.8 1.1 4.7 2.5 4.3l1.3-.4zm-12.2-1.5c0-1-2.8-1.5-5-.8-1 .4-.9.5.7 1 3.3.8 4.3.8 4.3-.2zm-110-5.5a.7.7 0 00-.1-1c-.3-.2-.8 0-1 .6-.5 1 .5 1.4 1.1.4zm-8.3-2.2c-.2-.3-.4.1-.4.8 0 .8.2 1 .4.4.2-.4.2-1 0-1.2zm4.4 1.6c1.2-.4 1.6-3.9.6-5.5-.5-1-.6-1-1.3 0-.6.8-1.2 5.8-.6 5.8a7 7 0 001.3-.3zm15.6-1.8c.7-.9.5-1-2.1-1.1-4.6-.3-4.7 1.4-.2 1.9a3 3 0 002.3-.8zm-29.9-2.2c.3-.6.4-1.2.2-1.4-.5-.5-1.7.5-1.8 1.4 0 1.3 1 1.3 1.6 0zm11-.5c0-.3-.3-.5-.7-.2-.4.2-.7.6-.7 1 0 .3.3.5.6.3.4-.2.7-.7.7-1zm116.5 5.2c-.2-.6-.5-1-.7-.8-.2.2-.2.8 0 1.4.2.7.6 1 .8.9v-1.5zm4.3-2c.2-3-1.3-3.8-2.1-1.2-.6 2-.1 3.7 1.1 3.8.6 0 1-.8 1-2.6zm3.9 1.8c0-.5-.2-1-.6-1-.4 0-.7.4-.7 1 0 .5.2 1 .6 1 .4 0 .7-.4.7-1zm-16.6-.9c2.2-.4 2-1.4-.3-1.5-2.5-.2-4.2.4-3.7 1.2.4.7 1.9.8 4 .3zm-96.7-9c0-2.7-1.2-2.7-2.7 0-.8 1.3-.8 1.6-.1 2.1 1.5 1 2.7.1 2.8-2.2zm9 .1c1.1-1.2 1.2-3.3.2-3.3-1.2 0-4 2.5-4 3.7-.1 2.3 1.5 2.2 3.8-.4zm114.7 6.2c-.6-.7-1.2.3-.7 1.2.4.7.5.7.8 0 .2-.4.1-1 0-1.2zm-17.4-3.2c0-1.4 0-1.4-.6-.1-.8 1.7-.9 2.4 0 2 .3-.3.6-1 .6-1.9zm-11-1.3c0-1.3-2.2-3.7-3.5-3.8-1.2 0-1.3 1.3 0 3.2 1 1.7 3.4 2.1 3.5.6zm8.1.8c.4-.6-1.9-3.4-2.9-3.5-.6 0-.8 2.9-.2 3.5.6.7 2.7.7 3.1 0zM153.2 171a20.8 20.8 0 01-10.6-20.6 75 75 0 017-23.8l1.5-2.6-.5 3.6c-.4 2-1.3 6-2.1 8.8-2.5 8.6-2 14.3 1.3 19 1.2 1.5 7.1 4 10 4.2 3 .1 7.8-.7 10-1.7 2.8-1.1 9.8-6.5 12.2-9.3a24.7 24.7 0 005.3-15.2c-.1-2-.4-3.9-.7-4.2-.3-.3-1.7-.3-3.2 0-3.4.6-6.3.4-7.5-.4-1.9-1.3 0-8.7 3.3-12.6 1.6-1.8 5.8-.2 8.5 3.3l2.1 2.8 1.7-3.1c1.4-2.6 1.8-4.5 2.6-13.2.8-9.2 2.5-17 4-18.4.3-.3.3 3.3 0 7.9-.2 7.1-.1 8.8 1 11.5.7 1.8 1.8 3.3 2.6 3.6.8.3 1.5.4 1.6.3l3.5-5.8c4.5-7.4 6.3-8.4 13.5-7.4 6 .8 6.5 1.5 4 4.6-1 1.1-2.7 4-4 6.2a43.7 43.7 0 01-3.2 5.4 69.8 69.8 0 00-2.7 3.5c-2.8 3.9-4.8 4.7-10.2 4.5-3.7-.2-5.1-.5-6-1.4-.7-.7-1.6-1.3-2-1.3-1.4 0-5.2 7.7-6 12.2l-1.7 9.2c-.7 4-1.6 6.1-5.4 12.5-7.2 12.3-15 18.2-24.4 18.6-2.6 0-4.7-.2-5.5-.7zm57.5-60.1c3.7-.8 4.8-1.4 7-3.7a12 12 0 002.8-3.7c0-.5-1.3-1-3.6-1.4-5.6-1-8.2.4-10.2 5.4a96 96 0 01-1.4 3.1c-.6 1.4 0 1.4 5.4.3zm-44.8-6.3c-3-3.2-2.8-4 1.4-7 3-2.4 3.8-2.4 6.5-.2 1.1 1 2.3 1.8 2.7 1.8.3 0 2-1 3.5-2.4l3-2.4 2.7 2.5c1.5 1.4 2.7 3 2.7 3.7 0 1.3-5.7 6.8-7 6.7-.4 0-1.8-1-3.1-2a14.2 14.2 0 00-2.8-2.2c-.2 0-1.4 1-2.6 2.2-1.3 1.2-2.7 2.2-3.3 2.1-.6 0-2.3-1.3-3.7-2.8zm45.5-15.4c-4.1-3-4-3.5 1.2-9l2.3-2.4 2.8 2c1.5 1.2 3 3 3.3 4 .5 1.6.3 2-2.4 4.6a13.2 13.2 0 01-3.8 2.7c-.4 0-1.9-.8-3.4-1.9zm-59.3-44.1z"/><g transform="translate(174.8 55) scale(24.67298)"><g id="b"><path transform="rotate(18 3.2 -.5)" id="a" d="M0 0v1h.5z"/><use transform="scale(-1 1)" xlink:href="#a" width="600" height="300"/></g><use transform="rotate(72)" xlink:href="#b" width="600" height="300"/><use transform="rotate(-72)" xlink:href="#b" width="600" height="300"/><use transform="rotate(144)" xlink:href="#b" width="600" height="300"/><use transform="rotate(-144)" xlink:href="#b" width="600" height="300"/></g></g></svg>