<svg xmlns="http://www.w3.org/2000/svg" width="900" height="600" version="1"><path d="M0 300V0h900v600H0z"/><path d="M300 300V0h600v600H300z" fill="#be0000"/><path d="M600 300V0h300v600H600z" fill="#009800"/><path d="M412.6 347.7v9h6.8v-9zm14.2 0v9h6.1v-9zm13.4 0v9h6.1v-9h-6zm13.5 0v9h6v-9zm13.4 0v9h6.1v-9h-6zm13.4 0v9h7v-9zM420 357v5.7h6V357zm13.6 0v5.7h6.1V357h-6zm13.5 0v5.7h6V357zm13.4 0v5.7h6V357zm13.6 0v5.7h6.1V357zm-47.3 6.7v5.8h6v-5.8h-6zm13.5 0v5.8h6.1v-5.8zm13.5 0v5.8h6v-5.8zm13.5 0v5.8h6.1v-5.8zM513.6 234c2.5 0 4.5 2.9 4.5 6.4 0 2.8-1.2 5.1-2.9 6l-2.2 9.8c9.8 7.4 17.3 20 17.3 36 0 8-2 14.4-4 19.3-2.1 4.3-5 7.9-7 13-2.2 5.4-2 12-6 15.7-2-1.4-4.5-5-4.5-10.6 0-7.3 3-15.1 3-21.1 0-5.2-2.5-15.1-6.5-19.8l-12 51.5-4.6-6.1 20.7-91.4a9 9 0 01-.3-2.3c0-3.5 2-6.4 4.5-6.4zm-127.2 0c-2.5 0-4.5 2.9-4.5 6.4 0 2.8 1.2 5.1 2.9 6l2.2 9.8a44.6 44.6 0 00-17.3 36c0 8 2 14.4 4 19.3 2.1 4.3 5 7.9 7 13 2.2 5.4 2 12 6 15.7 2-1.4 4.5-5 4.5-10.6 0-7.3-3-15.1-3-21.1 0-5.2 2.5-15.1 6.5-19.8l12 51.5 4.6-6.1-20.7-91.4a9 9 0 00.3-2.3c0-3.5-2-6.4-4.5-6.4zM424.7 279.2c-3.7 0-6.7 4.2-6.7 9.5v8.2h-3.4v8.5h7.9v-2.7h22.4v2.7h40.5V297H482v-8.2c0-5.3-3-9.5-6.7-9.5h-50.6zm1.7 6.4c2 0 3.5 2.3 3.5 5 0 2.8-1.5 5-3.5 5-1.9 0-3.4-2.2-3.4-5 0-2.7 1.5-5 3.4-5zm8.2 0c2 0 3.5 2.3 3.5 5 0 2.8-1.6 5-3.5 5-2 0-3.5-2.2-3.5-5 0-2.7 1.6-5 3.5-5zm8.1 0c2 0 3.5 2.3 3.5 5 0 2.8-1.6 5-3.5 5-2 0-3.5-2.2-3.5-5 0-2.7 1.6-5 3.5-5zm14.5 0c2 0 3.5 2.3 3.5 5 0 2.8-1.6 5-3.5 5-2 0-3.5-2.2-3.5-5 0-2.7 1.6-5 3.5-5zm8.2 0c1.9 0 3.4 2.3 3.4 5 0 2.8-1.5 5-3.4 5-2 0-3.6-2.2-3.6-5 0-2.7 1.6-5 3.6-5zm8 0c2 0 3.6 2.3 3.6 5 0 2.8-1.6 5-3.5 5-2 0-3.5-2.2-3.5-5 0-2.7 1.5-5 3.5-5z" fill="#fff"/><g transform="matrix(.88384 0 0 1.26262 755.4 -424.1)" fill="#fff" stroke="#be0000" stroke-width=".8" stroke-linecap="square" stroke-linejoin="round" stroke-dashoffset="3.2"><rect ry="0" rx="0" y="520.5" x="-396.4" height="103.4" width="12.1"/><rect width="12.1" height="103.4" x="-306.7" y="520.5" rx="0" ry="0"/></g><path d="M452.3 310.7c-1 0-1.6 1-1.6 2.3v34.7h3v-25h1v25h2.3V324l16.6 23.6h3.5l-17.6-25h2l17.6 25h4.2v-6.4H480v-5h-3.4v-4.9H473v-5h-3.4v-4.9h-3.5v-5h-3.5V313c0-1.3-.7-2.3-1.6-2.3h-8.8zm-23 71.9c-1.3.1-2.2 2.1-1.4 3.7 6.6 12.5 20.7 21.7 29.7 18.5a27 27 0 001.8 5.1c1.4 2.8 3.8 5 7.1 5 4.9 0 8.2-7.2 6.8-14.6-.2-1-1-1.6-1.7-1.6-4.6.5-8.3.5-13.2 0-10.3-1-19.4-8.2-27.8-15.6-.5-.4-1-.6-1.4-.5zm41 20.6c.3 4.2-1.4 7.4-3.8 7.4-2.5 0-3.6-1.3-4.5-3.2-.6-1.2-1-2.6-1.4-4.1 3.3.2 6.4.2 9.8 0z" fill="#fff"/><path d="M472 382.6c1.2.1 2.1 2.1 1.3 3.7-6.6 12.5-20.7 21.7-29.8 18.5a27 27 0 01-1.8 5.1c-1.4 2.8-3.7 5-7 5-5 0-8.2-7.2-6.8-14.6.2-1 .9-1.6 1.6-1.6 4.7.5 8.4.5 13.2 0 10.3-1 19.5-8.2 28-15.6.4-.4.8-.6 1.2-.5zm-41.2 20.6c-.2 4.2 1.5 7.4 3.8 7.4 2.5 0 3.7-1.3 4.6-3.2.6-1.2 1-2.6 1.4-4.1-3.3.2-6.5.2-9.8 0z" fill="#fff"/><path d="M-390.4 495.3c-2.6 0-8 9.2-8 13.5 0 4.4 3.6 7.9 8 7.9 4.3 0 7.9-3.5 7.9-7.9 0-4.3-5.3-13.5-8-13.5zm-6.5 22.5a1 1 0 00-1 1v4.3c0 .5.5 1 1 1h13c.5 0 1-.5 1-1v-4.3c0-.5-.5-1-1-1h-13zm1 27c-.8 0-1.5.7-1.5 1.5v1.1c0 .9.7 1.6 1.5 1.6h11c.8 0 1.5-.7 1.5-1.6v-1c0-1-.7-1.6-1.6-1.6h-10.9zm.4 26.1c-.9 0-1.6.7-1.6 1.6v3c0 1 .7 1.6 1.6 1.6h10.2c.9 0 1.5-.7 1.5-1.5v-3.1c0-.9-.6-1.6-1.5-1.6h-10.2z" transform="matrix(.88384 0 0 1.26262 755.4 -424.1)" fill="#fff" stroke="#be0000" stroke-width=".8" stroke-linecap="square" stroke-linejoin="round" stroke-dashoffset="3.2"/><path d="M401.7 364l-6.2 14h108.8l-6.2-14L486 369h-71.6l-12.6-4.8z" fill="#fff"/><path d="M-396.8 616.7c-2.7 3.9-3.9 7.8-4.8 11.7h22.3c-1-4-2.9-7.9-5.7-11.7zm96.1-121.4c-2.5 0-7.9 9.2-7.9 13.5 0 4.4 3.5 7.9 8 7.9 4.3 0 7.8-3.5 7.8-7.9 0-4.3-5.3-13.5-7.9-13.5zm-6.5 22.5a1 1 0 00-1 1v4.3c0 .5.5 1 1 1h13c.5 0 1-.5 1-1v-4.3c0-.5-.5-1-1-1zm1 27c-.8 0-1.5.7-1.5 1.5v1.1c0 .9.7 1.6 1.6 1.6h10.9c.8 0 1.5-.7 1.5-1.6v-1c0-1-.7-1.6-1.5-1.6zm.4 26.1c-.9 0-1.5.7-1.5 1.6v3c0 1 .6 1.6 1.5 1.6h10.2c.9 0 1.6-.7 1.6-1.5v-3.1c0-.9-.7-1.6-1.6-1.6h-10.2zm-1.3 45.8c-2.7 3.9-3.8 7.8-4.7 11.7h22.2c-1-4-2.9-7.9-5.6-11.7zm-38.5-96.6c-.7 1.7-3.2 4.3-6.4 6.7a35.3 35.3 0 01-9.6 5c-11 3-18.6 9.1-18.6 16 0 4.1 2.6 8 7 11h55.2c4.5-3 7.1-6.9 7.1-11 0-6.9-7.5-13-18.6-16-2.4-.6-6.4-2.7-9.6-5-3.2-2.4-5.7-5-6.5-6.7z" transform="matrix(.88384 0 0 1.26262 755.4 -424.1)" fill="#fff" stroke="#be0000" stroke-width=".8" stroke-linecap="square" stroke-linejoin="round" stroke-dashoffset="3.2"/><path d="M-378.2 572h65.3" transform="matrix(.88384 0 0 1.26262 755.4 -424.1)" fill="#fd5" stroke="#be0000" stroke-width=".8" stroke-linecap="round" stroke-linejoin="round" stroke-dashoffset="3.2"/><path d="M422.5 302.7v45h4v-23.8c0-5.7 3.2-10.4 7.2-10.4s7.2 4.7 7.2 10.4v23.8h4v-45h-22.4zm3 2h4v7.6h-4zm6.2 0h4v7.6h-4zm6.1 0h4.1v7.6h-4z" fill="#fff"/><path d="M-376.7 577.8v-2.2h25.4v2.2" transform="matrix(.88384 0 0 1.26262 755.4 -424.1)" fill="none" stroke="#be0000" stroke-width=".8" stroke-linecap="round" stroke-linejoin="round" stroke-dashoffset="3.2"/><path d="M450 112.5l-4.8 6.9 2.3 57.3h5l2.3-57.3zm-9.2 13.1l-7.8 11.2 4.9 41.1a61.8 61.8 0 015-.8zm18.4 0l-2 51.5 5 .8 4.9-41zm-30.2 17l-6.5 9.2 5.8 28.7c1.6-.6 3.3-1 5-1.5zm42 0l-4.3 36.4 5 1.5 5.8-28.7zm-52.2 14.6l-5.5 7.8 5.8 19.9 4.8-2.5zm62.4 0l-5 25.2a70.2 70.2 0 014.7 2.5l5.8-20zm-124 10.2v9.7l30 38.3a114 114 0 013.6-5.1L364 167.4h-6.8zm13 0l24 38.5a100.2 100.2 0 014-4.5l-17-34h-11zm16.8 0l15 30.2a90 90 0 014.3-3.9L396 167.4H387zm14.3 0l9 23.1a79.2 79.2 0 014.6-3.1l-5.8-20h-7.8zm89.6 0l-5.8 20a79.2 79.2 0 014.6 3.1l9-23h-7.8zm13 0l-10 26.3a90 90 0 014.2 3.9l15-30.2H504zm14.8 0l-16.9 34c1.4 1.4 2.7 3 4 4.5l24-38.5h-11.1zm17.3 0l-26.8 42.9a114 114 0 013.6 5.1l30-38.3v-9.7zm6.8 18.6l-26.9 34.4a126.8 126.8 0 013.2 5.7l23.7-24.1zm-185.6.1V202l23.8 24a127 127 0 013-5.5zm0 24v13l18.4 14.4 2.6-6.2-21-21.3zm185.6 0l-21 21.2a141.6 141.6 0 012.7 6.3l18.3-14.5v-13zm-185.6 20.5v11l14 8.2a152.1 152.1 0 012.1-6.5zm185.6 0l-16.1 12.7 2.1 6.5 14-8.3zm-187.4 17l-5.4 7.8 17.7 7.4a158.4 158.4 0 011.7-7zm189.2 0l-14 8.3 1.7 6.9 17.7-7.4zm-198.4 13.2l-6.4 9.1 25.5 6.3 1-7.1zm207.6 0l-20.2 8.3c.5 2.3.8 4.7 1 7l25.6-6.2zm-218 14.9l-8 11.3 36.2 2.8.5-7.2zm228.4 0l-28.7 7 .5 7.2 36.1-3zm12.2 17.4l-40.1 3.3v7.2l40.1 3.3 4.9-6.9zm-252.9.1l-4.8 6.8 5 7 40-3.3V300v-3.6l-40.2-3.2zm40.5 17l-36 2.9 7.8 11.3 28.7-7a175.4 175.4 0 01-.5-7.2zm172 0a175.3 175.3 0 01-.5 7.2l28.7 7L572 313zM365.3 324l-25.5 6.2 6.5 9.2 20.1-8.3a170 170 0 01-1-7zm169.4 0l-1.1 7.1 20.1 8.3 6.5-9.2zm-167 13.4l-17.7 7.4 5.5 7.8 13.9-8.3-1.7-6.9zm164.6 0a158.5 158.5 0 01-1.7 6.9l14 8.2 5.4-7.7zm-161.1 13l-14 8.3v11l16.2-12.8-2.2-6.5zm157.6 0a151 151 0 01-2.2 6.4l16.2 12.8v-11zm-153.3 12.2L357.2 377v13l21.1-21.3-2.8-6.2zm149 0a139.2 139.2 0 01-2.8 6.2l21.1 21.3v-13zM380.8 374l-23.7 24v16l26.9-34.3a127 127 0 01-3.2-5.7zm138.1 0a126 126 0 01-3.1 5.6l26.9 34.4v-16zm-131.8 10.7l-30 38.2v9.7h6.8l26.8-42.8a114 114 0 01-3.6-5.1zm125.6 0a113.9 113.9 0 01-3.6 5l26.8 42.9h6.8v-9.7zM394.2 394l-24 38.5h11.1l16.9-33.9a101.5 101.5 0 01-4-4.6zm111.6 0a100.6 100.6 0 01-4 4.5l16.9 34h11.1zm-104 8.4l-14.8 30h9l10.2-26.2c-1.4-1.2-3-2.4-4.3-3.8zm96.3 0c-1.4 1.4-2.9 2.6-4.4 3.8l10.2 26.3h9.1zm-87.8 7l-9 23h7.8l5.8-19.8a79 79 0 01-4.6-3.2zm79.4 0a79 79 0 01-4.6 3.2l5.8 19.9h7.8zm-70.6 5.7l-5.8 19.9 5.5 7.8 5-25.2a70.1 70.1 0 01-4.7-2.5zm61.8 0l-4.8 2.5 5.1 25.2 5.5-7.8zm-52.6 4.4l-5.8 28.7 6.5 9.1 4.3-36.3-5-1.5zm43.3 0l-4.9 1.5 4.3 36.3 6.5-9.2-5.8-28.6h-.1zm-33.8 2.6l-4.9 41 8 11.2 2-51.5a61.7 61.7 0 01-5.1-.7zm24.3 0c-1.6.3-3.3.6-5 .7l2 51.5 8-11.2zm-14.6 1.1l-2.3 57.3 4.8 6.9 4.8-6.9-2.3-57.3-2.5.1h-2.5zm1.4-241.6a7.8 7.8 0 00-1.1 0c-2.7 2.9-3.1 12.2-2.5 18.6-2-.2-3.9-.5-5.8-.5-2.4 0-4.9 3.7-5 7-.1 4.7 2.8 10.3 3.3 14.7l.2 4.3c1-2 2.3-4 3.7-5.5.7-.8 1.8-1.1 3-1.6 1.1-.4 2.3-.8 3-1.2a96.7 96.7 0 005.4-6.3 292.4 292.4 0 006.1-8.5.7.7 0 01.4-.4c.3 0 .6.2.7.6a1.3 1.3 0 01-.1 1.1 292.4 292.4 0 01-6.1 8.6 95.5 95.5 0 01-3.3 4.2c-1 1.2-1.8 2-2.5 2.5-1 .5-2.2 1-3.3 1.3a9 9 0 00-2.4 1.2 34.5 34.5 0 00-4.4 6.8c.2 2.5.7 4.7 2 5.4 2.1 1 7.4-4.8 10.6-4.8 3.5 0 7.8 4.7 9 2.7 2-3.2-.2-13.7.3-19.9.2-2 1.3-3.2 1.7-6.3.8-5.5-4.6-7.7-6.4-7.7-1 0-2.7.8-4.4 1.4a18 18 0 012.9-13.5c-.8-2.8-2.5-4.2-5-4.2zm-5.7 21.7c2.6 0 4.8 3.1 4.8 6.9 0 3.8-2.2 6.9-4.8 6.9-2.7 0-4.9-3.1-4.9-6.9 0-3.8 2.2-6.9 4.9-6.9z" fill="#fff"/></svg>