<svg xmlns="http://www.w3.org/2000/svg" xmlns:xlink="http://www.w3.org/1999/xlink" width="600" height="400" version="1.0"><path d="M200 200V0h200v400H200V200z" fill="#be0000"/><path d="M400 200V0h200v400H400V200z" fill="#009800"/><path d="M0 200V0h200v400H0V200z"/><g transform="translate(-69.3 -303.8)"><g transform="translate(368.4 431.8) scale(16.71857)" id="b" fill="#eae71f" fill-opacity="1"><path id="a" transform="rotate(18 3.2 -.5)" fill="#eae71f" fill-opacity="1" d="M0 0v1h.5L0 0z"/><use height="300" width="600" xlink:href="#a" transform="scale(-1 1)"/></g><use height="300" width="600" xlink:href="#b" transform="rotate(72 368.4 431.8)" fill="#eae71f"/><use height="300" width="600" xlink:href="#b" transform="rotate(-72 368.4 431.8)" fill="#eae71f"/><use height="300" width="600" xlink:href="#b" transform="rotate(144 368.4 431.8)" fill="#eae71f"/><use height="300" width="600" xlink:href="#b" transform="rotate(-144 368.4 431.8)" fill="#eae71f"/><path d="M377.8 592c-1.5-.4-3.8-2-4.8-3.2-.7-.8-1.3-1-5.6-1l-5-.2-1.2 1.3c-.8.8-2.6 1.7-4.3 2.3-2.6.9-3.6 1-8.3.8-4.4-.2-5.7-.4-7-1.1a37 37 0 00-29.5-.2c-2.2 0 1-4.4 3.6-5 .7-.2 1.7-.7 2.4-1.1l1.3-.9-1.3-.5c-.7-.3-2.2-.3-3.6-.2-2 .3-2.3.2-2.3-.5 0-1.7 1.6-2.5 6.2-3 1.4-.2 2.5-.5 2.4-.7-.1-.1-1.6-.4-3.4-.6-4.7-.4-10.1-1.9-12.9-3.4-1.9-1.1-2.6-2.2-1.1-1.8h2.9c1.7-.3 2-.5 1.5-1-.3-.4-.8-.7-1.2-.7-.3 0-.6-.2-.6-.4 0-.3-.3-.6-.7-.7-1.1-.4-4.1-2.8-4.1-3.3 0-.7 1-.4 5 1.6 4.6 2.3 5.3 2.5 2.4.7a12 12 0 01-2.3-1.8c-.2-.3-.7-.5-1-.5-.8 0-4.1-3-4.1-3.6 0-.2.5-.1 1.2.1.7.3 1.3.3 1.5 0 .3-.2-1.1-1-3.5-2-5.8-2.4-7.7-4.4-8.3-9.1-.2-2-.6-2.9-1.8-4.3-2.2-2.6-3.6-6.2-2.1-5.6.8.3.5-.5-2.2-5.8-2.2-4.4-2.2-4.5-1.6-4.5.3 0 .8.7 1.2 1.4.4.8.8 1.3.9 1 .2-.6-1.5-5.5-2.3-6.3-.9-1-3.4-5.9-3.1-6.1.4-.5 1.4.2 2 1.5 1.3 3 1.6 3.4 2.3 3.8.5.3 1 .4 1.2 0 .5-.4.1-1.9-1.1-4.9-.4-.8-.6-2-.6-2.9v-1.4l1.3 1.5c.7.9 1.6 2.5 2 3.6.6 2 1.7 3.5 2.2 3 .2-.2.4-2.9.3-4.2 0-.6-.8-1.4-2-2.2a19.5 19.5 0 01-5.8-6.3c-.6-1.2-.7-2-.5-4.3.3-3 .7-4.2 2.1-5.7.9-1 .9-1-.3-5-1.2-4.6-1.5-10-.5-9.6.9.3 1.6 2.2 1.6 4.3 0 3.4.8 3.6 1 .2.6-5.5 1.3-9.2 2.7-12.7.7-1.8 1.4-3.3 1.6-3.1l.2 2.8c0 2.3 0 2.4 1.1 2.4 1 0 1.2-.2 1.4-1.6.2-1.6 1.4-3.4 1.9-3l-.2 3.5c-.5 4.5-.5 8.9 0 8.9.2 0 .6-.8.9-1.7l.9-2.5c1.1-2.8 1.8-5.7 1.5-7.1-.1-.9-1-2.7-1.8-4-1.5-2.7-1.6-3.6-.1-2 .7.8 1.3 1 3.5 1h2.7l-.3-1.8c-.1-1-.8-3.2-1.6-5-.7-2-1.2-3.6-1.1-3.7.1-.1.7 0 1.3.5 1.3.8 1.3.9 2.5-3a29 29 0 011.8-4.7l.9-1.5-.2 1.7c-.1 1-.7 3.3-1.4 5-1.6 4.7-1.1 5 .6.5a64.7 64.7 0 017.1-14c.8-.5.9-.4.9.7 0 .7-.3 1.7-.7 2.3-1.6 3-.2 2 5.2-3.3a99 99 0 0114-12c1.8-1.2 2.2-1.2 2.2-.4 0 .4-1.1 1.5-2.5 2.4-3.9 2.7-5 3.6-5.5 4.6-.5.9-.4 1 1.8.7 2.1-.3 2.2-.3 2.2.7 0 .6.2 1.2.5 1.4.4.2 4.9-3.7 6.9-6 .5-.5 1.1-.9 1.5-.8.4.1-1 1.8-3.8 4.8-5.3 5.7-7 7.9-6.7 9.4l.1 1.2 1.8-1.7 3-3c2.8-3.1 5.8-5.4 6.3-4.9.6.6-1.7 3.7-6 8-5.6 5.8-8.5 9.9-5.5 8 1.4-1 1.7-.7 1 .8-.4 1.2-1.2 2.4-4.2 5.9-2.4 3-5.2 10-7.4 19a51 51 0 01-2.3 7.3l-1 2.2 1.2-1.5 2.9-3.2c1.5-1.6 1.6-1.7 1.6-.7 0 .6-1 3-2.2 5.4-1.7 3.5-2 4.5-1.5 4.6.4 0 .5.5.4 1.3l-.5 2.3c-.1.6-.8 2.3-1.6 3.8-1.6 3.4-1.4 4.9.9 7.9l1.6 2-.5 4.3-.8 5.8-.3 1.5.8-1.5c.5-.8 1.1-1.6 1.4-1.7.5-.1.6.7.3 4.4-.1 2.5 0 5.2.1 5.9.4 1.2.5 1 .7-1.7.5-5.2 1-4.7 1.7 1.3.5 4.8 1.5 7.8 2.5 8.7.4.3 1.6.5 2.6.5 1.4 0 1.9.2 1.9.7 0 .3.3.5.6.4.7-.3 4 5.5 5.1 9 1.2 3.9 3.7 7.6 8.6 13 4.1 4.5 4.4 4.7 6.1 4.7 1.8 0 3.9.2 14.7 1.6 4.8.6 6.8.6 13 .2 4-.3 8.9-.5 10.9-.5h3.6l3.5-2.8c7.2-5.9 8-7 17.6-23.5 1.2-2 1.9-2.8 2.6-2.8 1.7 0 3.1.3 3.9-1 .3-.8.6-1.6.5-1.8-.3-.3.9-10.7 1.2-11 .5-.5.8.4 1 3.3l.4 3 .3-1.9c.2-1 .3-3.7 0-6-.3-4.8.2-5.5 1.6-2.3.8 1.6.9 1.7 1 .7a27.3 27.3 0 01-1-6.8l-.5-3.6 1.8-2.6c2.1-3 2.2-4.3.7-7.3-.6-1.2-1.4-3.3-1.8-4.7-.5-2.2-.5-2.6 0-3 .5-.4.3-1.2-1.5-4.8-3.1-6.1-2.9-7 .7-3.1 2.8 3 2.9 3 2 1.3a43 43 0 01-2-6.4 65 65 0 00-7-19l-1.8-2.4c-.6-1-1.3-2-1.6-2.1l-1.3-2c-.9-1.7-.9-1.8-.1-1.8.4 0 1 .2 1.3.5.4.4.6.4.6 0 0-.5-3.5-5-4-5s-8-8.6-8.4-9.8c-.2-.6-.3-1.1 0-1.1.8 0 3.6 2.2 7 5.6 3.7 3.7 3.8 3.8 4 2.6.1-1.6-1-3-6.7-9a34.7 34.7 0 01-4.3-5c0-.6 1.3 0 2.4 1.4a37 37 0 006.4 5.2c.3 0 .5-.6.5-1.3 0-1 .1-1.3.6-1.1 1.2.4 3.8.8 3.8.5 0-.9-1.8-2.6-4.1-4.2-2.9-1.7-4.6-3.4-4.2-3.8.9-.9 9.2 5.5 16.1 12.3 5.4 5.3 6.8 6.3 5.2 3.4-.4-.6-.7-1.7-.7-2.4 0-1.3 0-1.3 1-.5 1.4 1.4 3.6 5.7 6 12 1.3 3.2 2.5 5.9 2.8 5.9.2 0-.3-1.7-1-3.7-.8-2-1.5-4.4-1.6-5.4-.2-1.6-.1-1.7.5-.9.4.5 1.2 2.4 1.8 4.4 1.5 4.4 1.5 4.4 2.1 3.8.4-.4 2-.7 2-.3l-.8 2.5c-2 5.1-2.2 5.9-2.2 6.7 0 .4.4.9.9 1 1.4.5 4.4-.2 5.4-1.2 1.5-1.5 1.4-.4-.3 2.3-.9 1.5-1.7 3.2-1.9 3.8-.2 1 .9 6 1.6 7 .2.3.6 1.4.9 2.6 1 3.8 1.5 2.4 1.2-3.3-.2-3-.4-5.9-.6-6.4-.1-.6 0-1 .1-1 .7 0 2 2.4 2 3.6 0 1.3 1.1 2 2 1.2.4-.4.6-1.2.5-2.6-.2-3.1.6-2.8 2 .9 1.1 3 1.7 6.2 2.3 12 .3 3 1.1 3.3 1.1.3 0-2.6.6-4.4 1.5-4.4 1 0 .9 4.8-.4 9.6-.9 3.5-1 4.1-.4 4.6 1.2 1 1.9 2.8 2.2 6 .3 2.9.2 3.3-.9 5a16 16 0 01-2.6 3.1c-5.2 4.4-4.8 4-4.8 6.5 0 1.3.2 2.5.3 2.6.5.5 1.6-1 2.2-3 .8-2.4 2.3-4.9 2.9-4.9.6 0 .6 2.5 0 3.7-.4.5-.7 1.5-.9 2.3l-.7 2.1c-.2.7-.1.8 1 .7 1-.2 1.3-.5 3-4 .9-1.7 1.3-2 1.8-1.3.2.5-2 4.9-3.2 6.3-.6.8-2.4 5.7-2.1 6l.7-1c.6-1.3 1.7-2 1.7-1.1 0 .3-1.1 2.6-2.5 5.2-2 3.8-2.3 4.8-1.7 4.9.4 0 .7.3.7.5 0 .8-1.7 3.8-2.4 4.4-1.2 1-1.9 2.7-2.2 5.3-.6 4.3-1.9 5.7-8 8.8-3.5 1.8-4 2.2-2.7 2 1-.2 1.6 0 1.6.2 0 .6-2.3 2.4-5.4 4.1-2.8 1.6-4.4 3-3.5 3a32.8 32.8 0 017.7-4c2.3-.7 1.3.7-2.3 3.1-2.3 1.6-3.2 2.5-2.7 2.6.4 0 1 .3 1.2.5.2.2 1.2.2 2 0 1.3-.3 1.7-.2 1.6.1-.5 1.4-8.5 4.5-12.8 5l-2.5.3 1.4 1c2.5 2 2 2.6-2.5 2.9l-4 .5c-.2.1 1.3.7 3.2 1.4 1.9.7 3.7 1.5 4.1 1.8.4.4 1 .6 1.2.6.3 0 .5.2.5.4 0 .3-3.8.4-9.1.4-9.8-.1-14 .5-17.2 2.4a34 34 0 01-10 2.6c-2.8.4-8.9.5-10.5 0z"/><path d="M334.5 577c.1-.2.8-.4 1.6-.4.7 0 1.2.2 1 .5-.1.2-.8.4-1.6.4-.7 0-1.2-.2-1-.4zm-6.9-.6c.6-.7 4.4-1 4.4-.3 0 .5-1.5 1-3.4 1-1.3 0-1.4-.1-1-.7zm74.2.4h1.8c.5 0 .2.2-.8.2s-1.4-.1-1-.2zm5.7-.2c-1-.4-1-.5-.5-.9 1.1-.7 3.3-.4 4.2.5.8.9.8.9-1 .8-.9 0-2.1-.2-2.7-.4zm-87.3-2a3.4 3.4 0 00-2.4-1h-1.4l1.3-.8c1.6-.8 5.4-.2 7.3 1.2 1.4 1 1.2 1.2-1.6 1.5-2 .3-2.3.2-3.2-.8zm94.4.5c-2-.5-2-1.1.3-2 3-1 4.5-1.3 5.7-.8l1.2.5-1.4.4c-.8.2-1.7.8-2.1 1.5-.8 1.2-1 1.2-3.7.4zm-77.5-.3c-.2-.2-.1-.6.2-.9.5-.5 2.8.1 3 .9.2.7-2.8.7-3.2 0zm61-.1c0-.7 2.2-1.6 3-1.3 1 .3.7 1.4-.4 1.6-1.6.5-2.5.4-2.5-.3zm-66.8-.6c-1.6-.1-1.9-.3-1.9-1 0-1 .2-1 2.5-.7a8 8 0 013 .6c.5.6 0 1.5-1 1.4l-2.6-.3zm9.4-1c-1.3-.7-2.8-1.3-3.2-1.3-.5 0-.6-.3-.4-1.4l.5-1.7c.2-.2 3.4 2 4.5 3.2.8.9 1.6 2.5 1.2 2.5l-2.6-1.3zm54.8.5c0-1 2-3.2 3.6-4 1-.5 1.9-.9 2-.8l.4 1.3c.2 1 0 1.2-2.8 2.5-1.8.7-3.2 1.2-3.2 1zm8.3 0c-.6-.8.6-1.4 3-1.7 2.2-.2 2.4-.2 2.4.7 0 .6-.4 1-1.4 1.1-1.9.4-3.8.4-4 0zm-78.6-.8c-2.6-.6-2.2-2.2.4-1.7 1.2.2 1.6.5 1.6 1.1 0 1-.3 1-2 .6zm86.2-.8c0-.9.3-1.1 1.5-1.3 2.8-.6 3.3.5 1 1.7-2.2 1-2.5 1-2.5-.4zm-99 .2c-.1-.2 0-.4.2-.4s.6.2.7.4c.2.3 0 .5-.2.5s-.5-.2-.7-.5zm113.1-.4c0-.3.2-.5.5-.5.2 0 .4.2.4.5 0 .2-.2.4-.4.4a.4.4 0 01-.5-.4zm-93.8-2.2c-1.5-.6-2.8-1.3-3-1.5-.7-.7 2.1-.2 3.4.6a6 6 0 002.3.9c.4 0 .7.3.7.6 0 .9-.1.9-3.4-.6zm71.8.2c0-.4.3-.7.6-.7l2.5-.8c2.1-1 3.5-1.2 3.5-.5 0 .3-.3.5-.6.5s-1.5.5-2.7 1c-2.3 1.3-3.3 1.5-3.3.5zm-90.9-.6c0-.3.5-.7 1-1.1.8-.6 1-.6 2 0 .8.6 1 .8.5 1.1-.8.5-3.5.5-3.5 0zm109.4-.5c0-.8 1.8-1.4 3-1 1.6.8 1.1 1.4-1 1.4-1.1 0-2-.1-2-.4zm-102.3-.2l.4-1.3.4-1.1 2 1.1c1.2.6 2 1.2 2 1.3 0 .1-1 .2-2.4.2-1.3 0-2.4 0-2.4-.2zm14.3-.3c-.6-.3-1-1-1.2-1.8-.4-1.9-.4-4.8 0-4.8.8 0 2.4 4 2.3 5.4-.2 1.4-.3 1.5-1.1 1.2zm81 0c-1.1-.2-1-.3 1-1.3 1-.5 2-1 2.2-.8l.5 1.4c.3 1.1.2 1.2-1.2 1.2-.8 0-2-.2-2.6-.4zm-11.5-1.3c0-1.6 1.6-5.3 2.3-5.3.7 0 .1 5.8-.6 6.3-1.2.7-1.7.4-1.7-1zm-95.3 0c0-.6 1.8-2.2 2.3-2.2.4 0 1 .4 1.5 1 .8.8.8.8-.1.8l-2.3.3c-.7.1-1.4.2-1.4 0zm8.3-.3c-.5-.1-.8-.6-.8-1.5 0-1.3 1-1.7 2.2-.8.6.3.4 2.7-.3 2.6l-1-.3zm104-1c-.3-.7-.1-1.2.4-1.6 1.4-1 2-.7 2 1 0 1.3-.2 1.5-1.1 1.5-.7 0-1.2-.3-1.4-1zm5.7.2c.2-.3.7-.9 1.2-1.1.7-.4 1-.3 2 .6l1.2 1.2h-2.3c-1.9 0-2.3-.1-2-.7zm-102-.3c-.6-.3-1.2-.8-1.3-1.1-.3-.8 2.2-.3 4 .8l1.4.9h-1.5a7 7 0 01-2.7-.6zm86.8 0c0-.5 2.6-1.6 3.7-1.6 1.3 0 1.5.6.3 1.3-.9.4-4 .6-4 .2zm-81.8-1c-1.3-1.4-1.6-2.3-1.2-4.2.5-2.2.6-2.3 1.6-1.6.7.5.9 1.4 1 3.6.2 3 0 3.5-1.4 2.2zM408 562c.2-1.7.5-3 1-3.6 1-1 1.3-.6 1.7 2.1.3 1.7.2 2-.8 3-1.8 1.8-2.2 1.5-1.9-1.5zm-102.6 1.5c-.2-.5.2-.6 1.5-.6s1.8.2 1.8.6c0 .5-.5.7-1.5.7s-1.6-.3-1.8-.7zm6.7 0c-1.1-.8-1-1.5.3-1.5 1.2 0 1.7.5 1.3 1.5-.3.8-.6.8-1.6 0zm112.8-.5c-.4-1 0-1.4 1.3-1.1 1.3.2 1.3.4.5 1.2-.9.8-1.5.8-1.8 0zm5 .3c0-.6 1.6-1 2.7-.6.5.1.8.4.6.6-.3.6-3.3.6-3.3 0zm-106.1-2.2c-1.8-1.7-1.8-2.3 0-3 2.6-1 3.1-.7 2.8 1.1-.4 2.4-.7 3.2-1 3.2-.2 0-1-.6-1.8-1.3zm-5.4.3c-.6-.7-.3-1.6.5-1.6.2 0 1 .4 1.6.9.6.4 1 .8.7.9-.2 0-.8 0-1.3.2-.5.1-1.1 0-1.5-.4zm94.2-.2l-.5-2.5c-.3-1.6-.3-1.7.7-1.4l2.2.6c1.7.3 1.6 1.5-.3 3-1.7 1.3-1.8 1.3-2.1.3zm5.8-.7c1-1 2.3-1.1 2.3-.3 0 .6-1.1 1.3-2.2 1.3h-1l1-1zm-113.3-10c-.4-.9-1-2.2-1.2-3-.4-1.3-.2-3.1.4-3.1.4 0 1.6 2.8 2 4.6l.4 2c.5 1.4-.9 1-1.6-.6zm126.8.6l.5-2.1c.3-1.8 1.6-4.6 2-4.6 1.1 0 .7 3-.9 6-.7 1.5-2 2-1.6.7zm-136.1-2.3c-1.5-1.4-3.3-4-2.7-4 1.3 0 4.1 2 5 3.3 1 2 1 2 0 2-.5 0-1.5-.6-2.3-1.3zm144.6-.6c.7-1.5 2-2.5 4.2-3.4 1.1-.4 1.2-.4.7.8-.7 1.9-3.3 4-5 4-.5 0-.5-.2.1-1.4zm-141.2-.8c-.7-1-1.4-2.5-1.6-3.2l-.4-1.4.9 1.1a17 17 0 012.4 5.3l-1.3-1.8zm11 .4c-1.1-1.5-2.6-4.8-2.2-5 .2-.3.9.2 1.5 1 .7.8 1.6 1.4 2.2 1.4 1 0 1.2.9.5 2.3-.5 1-1.5 1-2 .3zm116.2-.7c-.7-1.4-.5-1.8.7-2.1.6-.2 1.6-.9 2.1-1.6.6-.7 1.2-1.3 1.4-1.3.5 0 .2 1.8-.6 2.7-.5.6-1 1.5-1 2-.2 1.2-2 1.4-2.6.3zm12.3.3c0-.2.6-1.5 1.4-2.7 1-1.9 1.3-2 1-1-.2 1.3-1.8 4.2-2.2 4.2 0 0-.2-.2-.2-.5zm-121.6-1c.3-.7.7-1.2 1-1.2.1 0 .3.5.3 1.1 0 .8-.3 1.1-.9 1.1-.8 0-.8 0-.4-1zm103.1-.5c0-.6.2-1.1.4-1.1s.6.5.9 1c.4 1 .4 1.2-.4 1.2-.6 0-.9-.3-.9-1.1zm-119.4-1.8c-.7-1.4-.8-2.2-.5-2.5.4-.5 1 .5 1.5 3 .5 2 .2 1.9-1-.5zm136 .5c.2-1 .6-2.3.9-2.9.4-1 .6-1 .8-.4.2.4-.2 1.7-.8 2.9l-1.2 2.1.3-1.7zm-122-.3c-1-1.7-1.5-4.3-1-6.3.3-2 .8-2 1.7-.3 1.2 2.2 1.7 5.3 1 6.7-.6 1.6-.8 1.6-1.8 0zm107.6.7c-.4-.5-.6-1.6-.6-2.6.1-2 1.8-6.4 2.4-6.4.6 0 1 2.9.8 5-.1 1-.6 2.5-1.1 3.3-.8 1.3-1 1.3-1.5.7zm-112.8-3.8c-2.3-1.7-3-2.5-3.2-3.8-.2-.8-.3-1.6-.2-1.7a9 9 0 012.7 1.2c2 1.2 2.5 1.6 2.9 3.2a127.5 127.5 0 00.8 3.4c-.1 0-1.5-1-3-2.3zm116.6 1.3l.6-2.4c.4-1.5 1-2 3-3.4a9 9 0 012.6-1.5v2c-.3 1.4-.7 2-2.8 3.4-3.4 2.4-3.7 2.6-3.4 1.9zm-133.8-.7a7.9 7.9 0 01-3-3.7c-.6-1.4-.6-1.4 1.2-.7 1.3.6 2.2 1.8 3.1 4.2.5 1.2.1 1.2-1.3.2zm9.6-1.1c-1-2.6-1.2-4.3-.4-4.3.5 0 1.8 3.3 1.8 4.6 0 1.8-.6 1.6-1.4-.3zm133.4.9c-.3-1.2 1-5.6 1.6-5.6 1 0 .8 2-.6 5.3l-.7 1.5-.3-1.2zm9.5 0c1-2.6 2-4 3.2-4.6 1.6-.8 1.8-.6 1.2 1a8 8 0 01-3.6 4c-1.2.6-1.2.6-.8-.4zm-150.7-1.2c-.5-1-1-2.4-1-3.2V536l1.2 1.2c.8 1 1 1.7 1 3.2v2l-1.2-1.8zm149-.3c0-.9.4-2.3 1-3.2l1-1.6v1.7a5 5 0 01-.7 3.2c-.6.8-1 1.5-1.2 1.5l-.1-1.6zm-145.6-1.8a5.7 5.7 0 01-1.8-3.5c-.2-1-.1-2 0-1.9 1 0 2.7 2.3 3.3 4.1 1.2 3.6.9 3.8-1.5 1.3zm141.8-1c.8-2.2 2.6-4.8 3.4-4.8.1 0 .2.8 0 1.8a7.6 7.6 0 01-1.7 3.8c-2.2 2.7-2.9 2.4-1.7-.7zm-115.9.2c-.2-.4-.2-.8-.1-1a204 204 0 0112.2-4c.2 0-.1.4-.7 1s-3.1 1.8-5.6 2.7l-5 1.8c-.3.1-.6-.1-.8-.5zm-16-3.2c-1.6-1.5-1.8-2-2.1-4.4-.2-1.5-.2-2.7 0-2.7 1 0 3.2 2.6 4.1 4.8 1.7 4.3 1 5-2 2.3zm120.7.8c0-1.7 2.6-7 3.8-7.5.6-.2 1.2-.4 1.3-.3v2.9c-.4 2.5-.5 2.7-2.2 3.9-3 2-3 2-3 1zm-115.8-.1c-.4-1.2.2-4.8.8-4.6.6.2.5 3.5-.1 4.6-.4.7-.4.7-.7 0zm113-.2c-.7-2.2-.8-4.5-.3-4.8.7-.4.9 0 1.2 2.6.1 1.4 0 2.5-.3 2.7-.2.1-.5-.1-.6-.5zm-126-3a10 10 0 01-.2-3.6c.3-1.2.4-1 1.2 1.7.8 2.8.9 3.1.2 3.7-.6.6-.7.5-1.2-1.7zm106.3 0l-9.2-3.4-3.2-1.2-.2 1.7c-.2 1-.6 1.8-.9 1.8-.3 0-2-.1-3.8-2-5.2-5.2-6.7-5.2-14.4 0-4.6 3.1-5 3.3-7.2 3.3-2.1 0-2.5-.1-3.7-1.4a33 33 0 01-2.6-3.4c-1.9-2.7-5.6-5-8-5-1 0-2-1.6-2-1.8 0-.1-7-.3-15.8-.3-8.7 0-15.9 0-15.9-.2l-.2-.9c-.3-.6 1.3-.7 16.2-.7 14.3 0 16.6 0 16.8-.6l.1-.7-17-2.2a485.2 485.2 0 00-20.3-2.6c0-1.2.7-1.8 2-1.8 1.7 0 35.4 4.7 35.9 5 .2.2.5 0 .6-.3.2-.5-8.4-4.3-29.2-13a460 460 0 01-6.1-2.5c-.3-.2.5-1.5.8-1.5.2 0 8.2 3.3 17.7 7.5 9.5 4 17.6 7.4 17.9 7.2.3 0-7-5.9-16.3-12.8l-17.3-13c-.2-.1-.3-1-.2-1.7l.2-1.4 17.2 13.7c9.4 7.5 17.3 13.6 17.6 13.5.2 0 .4-.3.5-.5 0-.2-6.9-8.7-15.5-19l-15.6-18.4.7-1.3.7-1.3.7.9 15.5 19c9.2 11.3 15 18 15.4 18 .4 0 .6-.4.6-.7-.1-.3-6-10.4-13.3-22.5-13-21.7-13.9-23.5-12.5-24.8.2-.1 6.5 10.2 14 23a913.3 913.3 0 0013.9 23.4 3 3 0 001-.6c.7-.5.4-1.3-3.8-10a570.7 570.7 0 01-18-39.2c-1.4-3.4-2-5.4-1.9-6 .2-.6.4-1.1.6-1.1.2 0 6 12.3 12.8 27.3 6.9 15 12.6 27.4 12.8 27.4.2 0 .7-.1 1-.3.7-.2 1 1.1-10.2-42.4-2-7.6-3.4-13.8-3.2-13.8l1.3.8c.8.7 1.9 4.6 7.1 26.1 7.7 31.6 7 28.7 8 28.7.4 0 .9-.2 1-.4.2-.2 0-12.1-.4-26.4l-.6-26.9c0-.7.2-1 .8-1 .8 0 1 .3 1 1.7a5669.1 5669.1 0 001.2 51.1c0 1.1.2 1.4 1 1.4.5 0 .9-.3 1-1L378 475c4.4-23.8 5-26.5 5.8-27.2 1.4-1 1.7-1 1.4.4l-5.4 28.1c-4.9 25.4-5.1 27-4.4 27.3l1 .2 10.4-28 10.3-28.2c.1-.1.6-.2 1 0 .8 0-.1 3-9.4 28L378.4 504c0 .2.5.6 1.2 1l1.2.6 11.4-22.9A477.9 477.9 0 01404 460c.1.1.4.9.5 1.6.3 1.2-1.1 4.2-10.8 23-9 17.6-11 21.6-10.5 22.2.3.3.8.6 1 .6.3 0 7.2-8.3 15.3-18.3l15-18.3c.2 0 .5.5.8 1.2.5 1 .4 1.3-1 3l-14.7 17.6c-7.3 8.7-13.3 16-13.3 16.2 0 .2.2.4.4.4s6.9-4.6 14.8-10.2c7.9-5.5 14.5-10.1 14.7-10.1.2 0 .7.3 1 .8.7.7-.3 1.4-14.2 10.9l-15 10.3c0 .2.4.6.7 1 .6.9 1.3.6 16-6 8.4-3.8 15.5-6.9 15.8-6.9.3 0 .6.3.7.6.1.3-5.5 3-15 7.3l-15.7 7.1c-.3.3-.3.6 0 1 .3.2 5.3-.6 15.6-2.7 8.3-1.7 15.6-3.1 16.2-3.1.8 0 1 .2 1 1 0 1-.2 1.2-1 1.2-1.5 0-29.6 5-30 5.3-.2.2-.2.7 0 1.2.2 1 .5 1 14.1 1 10.7.2 14 .3 14.2.8.1.4-2.8.5-13.8.5h-14l.2 1c.1.8 1 1 11 3 17 3.4 15.3 3 15.3 4.2 0 1-.1 1.1-1 1-3.2-.9-23.8-5.2-24.3-5.2-.4 0-.7.3-.7.7 0 .6 2.4 1.7 10.7 4.7 7.8 3 10.4 4 9.8 4.3-1.4.6-1.9.4-8.1-2zm32.2 1.6c-.4-.8-.4-1.4.2-3.4.5-1.3 1-2.3 1.2-2.1.5.3.4 2.7-.3 4.8-.5 1.7-.5 1.7-1 .7zM288.4 532c-.5-1.4-.6-2 0-2 .2 0 .4.7.5 1.5.2 1.9 0 2-.5.5zm2 .4l-.2-1.7c0-.9 0-.9.6.2.4.6.7 1.3.7 1.6 0 .8-.8.7-1-.1zm156.7-.3c0-.3.4-1 .7-1.4.7-.9.7-.9.6.4-.2 1.2-1.3 2.2-1.3 1zm2.6-1c0-.8.4-1.5.6-1.5.3 0 .3.4.2 1l-.3 1.5c0 .3-.1.5-.3.5-.2 0-.3-.6-.2-1.5zm-154 .3c-1-.6-2.4-3.2-1.8-3.2.8 0 3.8 2.5 3.8 3.2 0 1-.4 1-2 0zm145.3 0c0-.8 3.3-3.5 3.7-3 .4.3-1 2.3-2.3 3-1.4.9-1.4.9-1.4 0zm-5-2a31 31 0 01-.3-4.1c0-2 0-2.4.8-2.4 1.1 0 1.2 1.5.3 5.6l-.5 2.6-.3-1.8zm-134.3-1.5c-.8-3.7-.7-5 .3-4.9.6.1.8.7.9 2.8 0 1.5 0 3.1-.3 3.7-.3.8-.4.6-.9-1.6zm18.6 1.6c-.1-.2-.2-.5 0-.6.3-.4 25.4-4.8 25.7-4.5.5.5-1 2-2.1 2-.7 0-6.1.9-12 1.8-12.6 2-11.2 2-11.6 1.3zm-9.8-1.4c-.3-.8-.5-2.1-.5-3 0-1.4 0-1.4 1.7-1l1.7.3c.2.3-1.5 5-2 5-.1.1-.6-.5-.9-1.3zm116.1.5c-1.5-4.3-1.5-4.2-.4-4.7 1.9-.9 2.4-.6 2.4 1 0 2.7-1.4 5.3-2 3.7zm-131.7-2c-1.3-.6-1.6-1-1.6-2 0-2.3 3.2-2.8 4.3-.7.4 1 .4 1.4 0 2.3-.6 1.3-.5 1.3-2.7.3zm146-.8c-.5-1.6.3-3.3 1.7-3.3 1.7 0 2.8.8 2.8 2 0 .8-.4 1.2-1.6 1.7-2.2 1-2.4.9-2.8-.4zm-134.5-.4c-.7-.5-.7-.7-.2-1.4.7-1 1-.8 1.4.8.3 1.3 0 1.5-1.2.6zm124.7-1c.4-1.7.6-1.8 1.3-.8.7.9.1 2-1 2-.4 0-.5-.3-.3-1.2zm-123.6-16.1l-1-1 1.8-.8 1.8-.7-.3 1.4c-.6 2.4-1 2.6-2.3 1zm121.6-.6a5 5 0 01-.3-1.8c0-.1.9.2 1.7.6 1.7.8 1.6 1.4-.2 2.4-.6.3-.8.1-1.2-1.2zm-125.8-.7c-.6-1.4-.6-3.9 0-3.9.2 0 .8.3 1.3.7.9.6 1 1 1 2.5-.3 2.4-1.3 2.7-2.3.7zm130 .7c-.7-.7-.3-3.4.7-4.2 1.3-1 1.5-1 1.8.5.5 2.2-1.3 4.8-2.5 3.7zm-138.6-1c-1-.1-1.2-.5-.7-2.2.3-1.2.5-1.2 2 0 .8.8 1.2 1.3 1 1.8-.3.8-.5.8-2.3.5zm4.1-.8c.3-1.2.9-1.9 1.6-1.9.2 0 .3.7.3 1.5 0 1.4 0 1.6-1 1.6s-1.1-.2-.9-1.2zm139-.6c0-1.4.2-1.7.8-1.5.6.3 1.5 2 1.5 2.9 0 .2-.5.4-1.1.4-1 0-1.1-.2-1.1-1.8zm3.9.7c-.2-.5 2.2-2.7 2.6-2.3l.4 1.5c.3 1.4.3 1.4-1.2 1.4-1 0-1.7-.2-1.8-.6zM312 504.3c.3-1 1-1.7 1.7-1.7.2 0 .2.3.1.7l-.3.8-.9.7c-.8.4-.9.4-.6-.5zm113.5-.4c-.5-.5-.8-1-.7-1.2.3-.3 1.5.4 1.8 1 .4 1.2 0 1.2-1 .2zm-135-.6c-.3-.7 1.3-2.4 1.7-2 .2.2.1.8 0 1.5-.3 1.2-1.4 1.5-1.7.5zm17-.1l.5-2.4c.2-1.3.5-1.7 1.7-2.1 2-.7 2.2-.7 2 .2l-.6 2.4c-.2 1.2-.5 1.7-1.3 1.9l-1.8.5c-.6.3-.7.1-.5-.5zm121.7-.3c-1.1-.3-1.5-.8-1.7-1.8l-.5-2.2c-.2-.5 0-.7.7-.7 1.6 0 2.6.8 2.9 2.3l.5 2.2c.2.8.1.9-2 .2zm17.2-.4c-.1-.5 0-1 .2-1.3.5-.5 2 1.1 1.6 1.8-.4.8-1.4.5-1.8-.5zm-158.6.1c-.4-.5.1-1.8.6-1.8.3 0 .4.2.4.4l.3 1.1c.3.8-.9 1-1.3.3zm161.8-.8c.4-1.6.6-1.8 1-1 .7 1 .4 2-.5 2.1-.7.2-.8 0-.5-1zm-153.4.2c-1.1-1.2-1.3-2.3-.7-5l.5-2.6 1 1.3c1 1 1.1 1.5.8 3.3-.1 1.1-.4 2.4-.6 2.8-.2.8-.3.8-1 .2zm3-1.4l.2-3c0-.6.3-.8 1.3-.8 1.5 0 1.5.2 1.1 2.7a3 3 0 01-1.6 2.4l-1.4.8.3-2.1zm139 1c-.8-.7-1.3-1.6-1.5-3.1l-.3-2.1h1.4c1.3 0 1.3 0 1.6 2.9.2 1.6.2 3 .1 3 0 .2-.7-.2-1.3-.7zm3.2 1l-.5-2.8c-.4-2.3-.4-2.6.6-4.1l1.1-1.6.5 2.3c.7 3.2.6 3.8-.6 5.1-.6.7-1 1.2-1 1zM305 501.2c-.6-.7-.7-1.4-.5-3.2.3-3 .8-3.3 2-1.6.8 1.3.9 1.6.4 3.5-.5 2.4-.7 2.5-1.9 1.3zm127.5.3l-.7-2c-.4-1.4-.3-1.8.5-3 .6-.9 1.2-1.5 1.3-1.5.4 0 .8 1.7.8 3.5 0 1.7-1.5 4.2-1.9 3zM290.8 498c-.2-.6 0-1.9.3-2.8.4-1.4.6-1.5.9-.8.6 1.8.3 4.6-.6 4.6-.2 0-.5-.4-.6-1zm155.7-.6c-.2-1-.1-2.3.1-3l.4-1.3.6 1.8c.5 1.9.3 4.1-.4 4.1-.3 0-.6-.7-.7-1.6zm-158 .3c-.7-.7-.7-3 0-3 .5 0 .9 1 .7 2.3-.1 1-.2 1.1-.7.7zm160.8-1c0-1.4.4-2.5 1-2.5s.4 2.5-.3 3c-.6.5-.7.4-.7-.5zm-149.3-2l.6-2c.2-.8.5-1.2 1.3-1.2 1.2 0 1.2.1.6 2.4-.4 1.3-.7 1.6-1.6 1.6-.8 0-1-.2-.9-.8zm10-1c.4-2.6 1.4-4.6 1.8-3.8.6.9.4 4-.2 4.8-.3.5-.9.8-1.2.8-.6 0-.6-.4-.4-1.9zm117.1 1c-.7-.8-1-3.6-.3-5.1.3-.8.4-.8 1 .4 1 2 1.4 5.5.6 5.5-.3 0-.9-.4-1.3-.8zm-129.7-1.5c-.8-1.6-.9-2.1-.5-3.1l.5-1.3 1 1.1c1 1 1 1.4.8 3.2-.1 1-.4 2-.6 2-.2 0-.7-.9-1.2-2zm8.7.7c-.4-1-.4-1.4.7-3.4 1.2-2.1 2.5-3.4 3-2.9.3.4-2.2 7.4-2.7 7.5-.3 0-.7-.5-1-1.2zm125 .7a44.3 44.3 0 01-2.3-7.4c.5-.5 1.6.5 2.9 2.7 1.5 2.7 1.6 2.8.5 4.3-.7.9-1 1-1.1.4zm5.3-.3c-.8-3-.8-3.2.3-3.2.8 0 1.1.3 1.4 1.2l.5 2c.2.6 0 .8-.9.8-.7 0-1.2-.3-1.3-.8zm3-1.7c-.3-1.6-.2-2.2.5-2.8 1-1.2 1.4-1.1 2 .2.3 1 .2 1.5-.6 3-.5.9-1.1 1.6-1.3 1.6-.2 0-.5-.9-.6-2zm-149-.9a6 6 0 01-.2-1.7c0-.9.2-1.1 1-1.1 1.4 0 1.4 0 .5 2-.7 1.7-.9 1.8-1.3.8zM447 491c-.9-2.1-.9-2.1.4-2.1.9 0 1.1.2 1.1 1 0 .5-.2 1.4-.4 1.9-.3.8-.4.7-1-.8zm-158.5.1c0-.4.2-1 .4-1.1.3-.2.5.2.5.9 0 .6-.2 1-.5 1-.2 0-.4-.3-.4-.8zm161-.4c0-.5.1-1 .4-1 .2 0 .4.5.4 1 0 .4-.2.8-.4.8-.3 0-.5-.4-.5-.8zM304.6 487c0-2.8.3-3 2.4-2.1 1.4.6 1.4.8-.2 2.5-.7.8-1.3 1.6-1.3 1.8 0 .3-.2.5-.4.5-.3 0-.5-1.2-.5-2.7zm-3 2l.4-2.5c.4-1.8.6-2.1.9-1.4.2.4.3 1.6.4 2.5 0 1.4-.2 1.6-.9 1.6-.5 0-.9 0-.9-.2zM433 489c0-.3-.6-1-1.3-1.9-1.5-1.5-1.3-2.2 1-2.7l1.2-.3v2.7c0 1.5-.2 2.6-.4 2.6a.4.4 0 01-.5-.4zm-134-.6c-.7-.9.1-3.6 1.2-4 1-.4 1-.2.5 2-.6 2.4-1 2.8-1.7 2zm15 0c0-.4.2-.7.4-.7.3 0 .5.3.5.6 0 .4-.2.7-.5.7-.2 0-.4-.3-.4-.7zm110 .2c-.2-.3-.2-.7 0-.8.3-.4.8.2.5.8-.1.5-.2.5-.5 0zm11.3-.8l.3-2.5c.3-1.3.4-1.3.9 1 .6 2.9.6 2.7-.4 2.7-.7 0-.9-.3-.8-1.2zm3.2.2l-.6-2c-.6-2-.6-1.9.2-1.9.7 0 2 2.2 2 3.3 0 .8-1.3 1.3-1.6.6zm-147.8-.9c-1.4-.7-1.6-1.5-.2-1.3 1.1.2 1.8.8 1.9 1.5 0 .5-.5.4-1.7-.2zm155.8-.4c.3-.7 2.8-1.9 2.8-1.3 0 .7-.7 1.3-1.9 1.6-1 .3-1.1.2-1-.3zm-147.3-4.4c.4-1.3.5-1.4 1-1 .8.4.6 1-.4 1.5-.8.5-.9.4-.6-.5zm139.4.2c-.6-.7-.6-1-.3-1.2.7-.4 1.4.4 1.3 1.3-.2.7-.3.7-1-.1zm-122.4-10.7c0-1.4 2-4.7 3.6-5.8l1.4-1-1.1 2-2.2 3.8c-1.1 2-1.7 2.4-1.7 1zm105.3-.3c-.8-1-3.5-5.7-3.5-6.2s2.3 1.8 3.3 3.4c1.7 2.7 1.8 4.7.2 2.8zm-111-1.7c0-1 1.4-3.3 2-3.3 1 0 2 .5 2 1.1 0 .3-.5 1-1 1.7-1 1.3-3 1.6-3 .5zm114.6-1c-.5-.6-.9-1.3-.9-1.6 0-.6 1-1.1 2-1.1.5 0 2 2.5 2 3.5s-2.2.4-3-.7zm-119-.5c-.8-.4-1.3-.9-1-1l1.4-2.4 1-2 .3 1.7c.2 1 .5 2.2.8 2.5.5.6.5.9 0 1.4-.6.8-.7.8-2.5-.2zM430 468c-.4-.4-.3-.8.1-1.4.4-.5.7-1.7.8-2.6l.1-1.8.9 1.8a14 14 0 001.4 2.5c.6.7.5.8-.7 1.4-1.6.9-2 .9-2.6.1zM310 462c0-3.7.6-6.5 1.4-6.5.2 0 .4 1.2.4 2.8 0 1.7.2 3 .6 3.6.6.8.6 1 0 1.9-.4.5-1 1.1-1.5 1.4-.9.4-.9.3-.9-3.2zm117 2.1c-1.3-1.5-1.4-1.8-.8-2.4.4-.5.6-1.7.6-3.5 0-1.5.2-2.7.4-2.7 1 0 1.4 2.6 1.3 6.4l-.1 4-1.4-1.8zm-112.3.8c-.7-.2-.7-.3.2-2 .9-1.5 1.2-1.7 2.7-1.7 1 0 1.7.1 1.7.3a12 12 0 01-3.3 3.6l-1.3-.2zm106-1.9c-.7-1-1.4-1.8-1.4-2 0-.1.8-.2 1.7-.2 1.5 0 1.8.2 2.7 1.7.5 1 .8 1.8.6 1.8l-1.2.3c-.7.1-1.3-.2-2.3-1.6zm-98.8-.7c.6-.6 1.2-1 1.4-1 .7 0-1.1 2.1-1.8 2.1-.4 0-.3-.3.4-1zm94.2.3c-.4-.4-.7-1-.7-1.3 0-.3.5 0 1 .6l1.2 1.4c0 .4-.8 0-1.5-.7zm-102.7-2.7c-.7-3.2-.4-5.3.9-6.5l1.2-1.2.7 2.6c.9 2.9.8 3.3-1.2 5.2l-1.3 1.3-.3-1.4zm110.3-.1c-1.9-1.6-2-2.4-1.4-5.3l.7-2.6 1.3 1.2c1 1 1.2 1.5 1.2 3.7 0 1.3-.2 2.8-.3 3.2-.3.7-.4.7-1.5-.2zM325 459c0-.5 2.3-3.7 2.5-3.5.4.4-.9 2.9-1.7 3.3-.4.3-.8.4-.8.2zm-5.8-.5c-1.5-.2-1.5-.5-.3-2 .7-1 1.3-1.2 2.6-1.2 1 0 1.7.1 1.7.3 0 .8-1.8 3.2-2.3 3.2l-1.7-.3zm93.5-.1c-.8-.5-2-3-1.6-3.4 0 0 .7.6 1.4 1.6 1.3 2 1.3 2.4.2 1.8zm3.4-1.6l-.7-1.5h1.7c1.2 0 2 .3 2.5 1 1.8 1.9 1.7 2-.6 2-2 0-2.2 0-2.9-1.5zm-98.3-2.2c-.4-1-.4-3 .1-4.3.5-1.2 3.4-3.4 4.5-3.4.6 0 .7.2.4 1.4-.2.7-1 2-1.6 2.9a88 88 0 00-2.2 2.8c-.8 1-1 1.1-1.2.6zm100.3-2.9c-2.6-3.4-3-5-1.1-4.6 1.7.4 3.3 1.6 3.7 2.8.5 1.3.5 4.4 0 4.6-.1.1-1.3-1.1-2.6-2.8zm-96.3 1.3c0-.2.4-1 1-1.6l3-3.3c1.5-1.8 2.7-2.6 2.7-1.9 0 1.8-4.1 7.3-5.5 7.3-.6 0-1-.2-1.2-.5zm91.5-1.3L411 448c-.9-1.7-.9-1.9-.1-1.9.4 0 1.2.7 1.7 1.5.6.8 1.8 2.3 2.8 3.3 1 1 1.8 2 1.7 2l-1.3.5c-1 .2-1.3 0-2.5-1.6z" fill="#eae71f"/><path d="M363.6 575.7c-2.2-.4-8-1-14.7-1.6l-3.2-.2-4.3-4.7c-4.8-5.3-7.3-9-8.5-13-1-3.4-4.4-9.2-5.1-9-.3.2-.6 0-.6-.3 0-.5-.5-.7-1.8-.7-1 0-2.2-.2-2.6-.4-1-.5-1.2-2.2-.5-2.2a40.8 40.8 0 008.2-5.3c.5 0 1.4-.9 4.4-4.7 2.3-2.8 2.7-3.2 4.6-3.5 1.8-.3 4.5-2.5 7.2-6 1.6-2.1 4.8-3.7 6.6-3.3 2.2.5 5.7 3 7.2 5.2a33 33 0 002.6 3.4c1.2 1.2 1.6 1.4 3.7 1.4 2.2 0 2.6-.2 7.2-3.3 7.6-5.2 9.2-5.2 14.1-.3 3.8 3.7 6 5.6 7.4 6 .6 0 2.3.9 3.7 1.8 3 1.8 5 2 9.1.8 2.5-.7 2.7-.7 4.3 0 1.7 1 4 3.7 4.9 5.7 1 2.3-1.1 4.7-4 4.7-.7 0-1.4.7-2.6 2.8-9.5 16.5-10.4 17.6-17.5 23.4l-3.4 2.8-7.2.3-12.2.4c-2.6.2-5.8 0-7-.2z" fill="#653232"/><path d="M379.7 589.2c0-1 1.1-1.4 6.5-2 5.3-.4 5.6-.5 7.4-2 1-.9 2-1.7 2-2 0-.6 2.4-1.3 8.2-2.1 5.4-.9 12-1.2 11.5-.7-.2.2-1.4.5-2.9.9-1.4.3-3.1.9-3.9 1.3l-1.3.6h2.4c2.8 0 5.7.6 6.4 1.3.3.4-1 .5-4.6.3-6-.4-12.1.5-15.4 2.2a25 25 0 01-11.4 2.6c-3.9.2-5 0-5-.4zm-37-.4l-3.8-1.3c-1-.3-4-1-6.6-1.4-4-.7-5.3-.7-7.8-.3-3.6.6-5.2.7-5.2.2 0-.6 2.6-1.4 5.4-1.7 3.1-.4 2.6-.8-2.1-2l-3.1-.7 2.1-.3c2.3-.4 7 .1 13.3 1.3 2.9.6 3.8 1 5 2.2 2.1 1.9 2.6 2 8.4 2.4 4.8.3 6.2.7 5.6 1.7-.4.7-8.8.6-11.3-.1zm2.5-3.2c-1.1-.2-2.1-1.6-1.5-2.2.3-.3 3.5.3 7.5 1.4 2.2.6 2.2.6.6.6l-3.5.2h-3.1zm35.3-.1c.4-.2 2.3-.7 4.3-1l4.3-1c1-.4 1 .8 0 1.7-.5.5-1.6.7-5 .7-2.5 0-4-.2-3.6-.4zm-20.3-.5c-2.8-.2-5-.7-6.2-1.3-2.7-1.3-5.8-2-9.1-1.9l-2.8.1.2-1.3a6.8 6.8 0 014.9-5c3.5-1.1 4.6-1 11 1.3a38.7 38.7 0 0019.3.2c7.2-1.2 8.3-1.3 10.2-.8 2.8.7 3.9 2 3.9 4.6 0 2.2-.2 2.2-3.1 1.2l-2-.8-6.4 2c-7.1 2-11.6 2.4-20 1.7zm3.7-1.4c0-.5.1-.8.5-.8.9 0 1.7-1.6 1.4-2.6-.3-.9-2.6-1.7-2.8-1-.7 2-3.5 2.8-4.3 1-.3-.7-.8-1-2.4-1-1.7-.1-2-.3-2.1-1.2-.2-.9-.3-1-1.6-.7l-3.4.5c-1.6.2-2.2.5-2.6 1.3-.7 1.8-.2 2 3.1 1.8 2.6-.3 3-.2 3.6.5.8 1.2 2.7 2.1 2.9 1.5.3-.8 1.3-.6 1.6.3.2.7.8 1 2.6 1 3.3.3 3.6.2 3.5-.6zm8 0c.7-1 3.5-1.6 4-.8.2.2.7.5 1.3.5 1 0 2.2-1.8 1.8-2.9-.2-.3 0-.7.2-.9.3-.1.5-.6.5-1 0-.8-.2-.8-2.3-.3-1.3.2-2.4.7-2.5 1-.2.7-1.6.7-2.3-.1-.8-1-1.6-.2-2.2 2-.3 1.2-.7 1.7-1.3 1.7-1 0-1.1.5-.4 1.2.8.9 2.5.7 3.2-.3zm10.6-5.6c-1.1-1.6-1.4-.2-.3 1.8.7 1.4.8 1.4.9.4 0-.5-.2-1.5-.6-2.2zm-3.7-3.9c0-.6 4-2.3 5.4-2.3 1 0 1.2-.2 1.2-1 0-.6-.6-1-2.1-1.8a100 100 0 01-17.1-13.5c-.9-1.5-1-2-.6-3l.4-1 3.4 3.1c4 3.7 5.3 5.3 4.5 5.3-.8 0 1.1 2.3 3.6 4.3 5.3 4.3 11.4 7.6 9 4.9l-2.4-1.8a35 35 0 01-5.5-3.9l-2.2-1.5c-1.2-.6-1.2-.7-.3-.4.6.1 1.6.5 2.1.9.6.3 1.2.6 1.6.6.3 0 1.6.7 3 1.5 2.3 1.5 4 2 4 1 0-.2.5-.3 1.5 0 1.2.1 1.5 0 1.5-.4 0-1.2-1.7-2.3-3.5-2.2-2.2 0-3.9-.5-5.5-2-.8-.8-2.8-2.2-4.7-3.3a28.4 28.4 0 01-8-6.5c-1.6-2.3-3-2.1-4.2.7-.6 1.6-1 1.8-3 .8-.6-.4-1.8-.7-2.6-.7-1 0-1.7-.4-3-2-1-1-2-2-2.3-2-.4 0-1.3 1.2-2 2.5-1.7 3-2.8 3.2-3.8.8a8.8 8.8 0 01-.4-4.6c.4-4.4-.9-5-5-2.2-1.1.7-3 1.4-4 1.6-2.3.4-3.1.9-3.1 2 0 .3-.4.9-.8 1.2-.7.4-1 .4-1.2-.3-.3-.7-.3-.7-.7 0-.2.5-.7.8-1 .8-1 0-.3-2.1 1.1-3.2 3-2.2 6.1-6 7.4-8.8 2-4.5 8.4-12 11.7-13.4 1.6-.8 1.6-.8 1.6 1.1 0 1.5.2 1.9 1.6 2.9 1 .6 2.6 1.6 3.7 2 4.4 2 6 3 8.1 5a12 12 0 002.8 2.1c.7 0 3.2 2.2 3.2 2.9 0 .8 3.3 4 7.4 7.2 1.8 1.5 4 3.6 4.9 4.9 1 1.5 2 2.3 3 2.7 1 .3 2.4 1 3.4 1.6 3.3 2.1 6.6 3.6 8 3.6.9 0 1.7-.4 2.7-1.5 1.3-1.3 2.8-1.7 2.8-.7a65 65 0 01-11.5 10c-.3.3-.8.6-1.2.6-.3 0-1.2 1-2 2.4a8.5 8.5 0 01-1.6 2.5l-2.6-.5a5.8 5.8 0 00-4.3.5c-2.3 1-2.4 1-2.4.5zm-32-1.5l-1.7-1.3c-.7-.6-1.9-2.4-2.8-4.3-1.6-3.6-1.7-5.1-.1-2.5 2 3.5 4.6 7.3 5 7.3 1 0-.5-2.9-3.9-7.7l-3-4.7c-.3-1-2.1-2.2-3.2-2.2-.5 0 0 1.7 1.4 4.9.8 2 1.5 3.8 1.4 4-.3.8-2.8-1.6-4.5-4.5-3-4.7-3.9-9.7-1.8-9 .5.3.6.7.5 1.4-.4 1.4.6 1.8 1.6.6l.8-1.1 1 1.1a20 20 0 011.4 2c1 1.6 1.2.2.3-1.5l-1-1.8 1.8 1.7c1 1 2 1.8 2.2 1.8.9 0 .4-1.2-1.2-2.7-1.5-1.4-3-4.2-2.6-4.7.1 0 1 .5 1.8 1.4 1.8 1.7 2 1.8 2.8 1.2.4-.2.3-.8-.4-2.2-1.2-2.4-1-3.2 1-4l1.5-.8.2 3c.4 4 .7 4.9 1.8 6.3 1.3 1.7 2.4 1.5 3.8-.9 2.1-3.6 2-3.5 4-1.5 1 1 2.7 2 4 2.5 1.4.4 2.6 1.2 3.2 2a86.6 86.6 0 0014.3 14l-1.7-.5a45.3 45.3 0 01-13.3-13.5c-.4 0-.7 0-.7.2 0 1 2 3.7 5.3 7.1 3.5 3.8 5 5.9 4 5.9-1.1 0-9.4-9-11.3-12.2-.8-1.2-1.2-.5-.6 1l.4 1.3-1.1-1.4a6 6 0 01-1.1-1.6c0-.2-.2-.3-.5-.3s-1-.5-1.6-1l-1-1 .3 1.2c.3 1.2.2 1.3-.7.8-1.3-.7-1.5-.4-1 1.6 1 3.4.7 3.5-2.6 0-2.9-3-3.8-3.3-2.4-.7.3.7.4 1.3.2 1.3s-.6.5-.9 1.1c-.3 1-.3 1.5.5 2.5 2.3 3.1 3.6 5.2 3.4 5.7-.2.6-2.8-2.6-5.7-7-.8-1.3-2.6-2-2.6-1 0 .4 4 7 5.8 9.5 1.5 2.1 1.7 3.7.5 3.7-.4 0-1-.2-1.2-.5zm3.2-1.6c-1.5-1.6-2.5-3.2-2.5-4 0-.4 4.3 4 4.9 4.9.8 1.4-.7.9-2.4-.9zm15.3-2.9c-3.4-3.5-5.5-6-5.5-6.5 0-.2.7.2 1.5 1 5.2 5.5 7.3 7.9 6.8 7.9-.3 0-1.6-1-2.8-2.4zm14.6 2c-.5 0-1.5-.6-2.2-1.2l-2.7-1.7c-1.7-.8-9.3-7.8-10.7-9.8-1-1.4-1-1.6-.4-2.2.6-.6.8-.5 1.7 1 1.6 2.8 3.4 4.4 9.7 9.1 7.6 5.7 7.5 5.6 4.6 4.8zm-18.2-2.9c-1.9-2-5.8-8-5.8-8.9a224 224 0 008.8 10.9c0 .9-1 .3-3-2zm-2.1-.2c-2.6-3-4-4.9-3.7-5.1.4-.4 6.1 6.2 6.1 7 0 .7-.8 0-2.4-1.9zm-4.7-4c-.9-1.4-.9-1.4 0-1 .4.3 1 .9 1 1.4.4 1.2.2 1.1-1-.5zm-53.4-3.2c1.5-.8 1.2-1.2-.8-1.2-1 0-1.7-.2-1.7-.5 0-.2.2-.4.6-.4.3 0 1-.4 1.4-.9 1-1.2.1-1.5-2.5-1-2.6.7-2.6.7-2.6-.5 0-1.5 1.5-2 7.3-2.2 4.2-.2 5.3-.4 8.6-1.7 3.8-1.6 6.6-2.4 6.6-1.9l-.5 1.2c-.5.9-.4.9 1.4.6l2-.3-1.2 1c-.6.4-1.4 1-1.8 1-1 .4-1 1.2-.2 1.2l2.6-.7c1.1-.4 2.7-.7 3.5-.6 1.2.1 1.5.4 1.6 1.3.1 1 0 1.2-2 1.5-1.2.2-4.3 1.2-7 2.2-4.5 1.9-5 2-10.5 2.2-4.6.2-5.6.1-4.8-.3zm128.6 0c-1.9-.1-5-1-7.3-1.8-5.4-2-8.3-3-9.3-3-1.2 0-1-1.7.3-2.2.8-.4 1.4-.4 2.3 0 1.5.5 5 1 5 .7l-1.8-1.1c-1.7-.9-2.5-2.2-1-1.5l1.9.5c1.1.2 1.1.3.1-2-.3-.8.7-.6 8 2.2 3 1.1 4.4 1.4 8.5 1.6 5 .2 6 .5 6 1.9 0 .8-.3.8-3 .5-1.5-.1-2.8 0-2.8.1 0 .3.6.9 1.4 1.4l1.4 1H438c-2 0-2.3.2-1.2 1.4.7.8.7.8-1.4.8a87 87 0 01-5.3-.4zm-26.2-5.4c-.6-.3-1.7-1-2.5-1.3-1.3-.8-2.7-2.7-2.2-3.2.3-.3.9 0 3.5 2.2 2.3 1.7 3 1.3 1.2-.7-.8-1-1.6-1.7-1.8-1.7a4 4 0 01-1.5-.8c-.8-.6-1.5-.8-3-.6-2 .2-2 .2-4.4-2.3a13 13 0 00-2.8-2.4c-.3 0-.8.9-1.3 2-.8 2.1-.6 3.5.5 6.5.3.9.3.9-1 0-.9-.4-2.1-1.7-2.8-2.7-.7-1-2.2-2.4-3.4-3-2.5-1.5-4.1-2.8-3.8-3.3.1-.2 1 0 1.9.5 2 1 2.3 1 2.3-.2 0-.7.3-1.1.9-1.3 1.4-.4.8-1.2-1.3-1.9-1-.3-2.2-1-2.6-1.5-.9-1.3-1.6-.5-1 1 .3 1 .3 1.2-.2 1.2-.8 0-4.6-4.4-6.1-7l-1.2-2 1.4-1.4c2-1.9 6.1-4.5 7.5-4.8 1-.2 1.2-.1 1.2.4 0 1.4 1.5 3.6 3.3 4.9 1.7 1.2 2.5 1.6 6 2.9l2.2 1a49.7 49.7 0 017.2 4.5c5 3.7 5.5 4 6.9 4.6 2.3 1 3 1.5 3.3 2.3.4 1.1-.9 2.5-1.6 1.8-.6-.6-2.6-.2-2.6.6 0 .3.4.8 1 1.2 1 .7.9 2.2-.4 4.1-.7 1.2-1.3 1.3-2.8.4zm-6.8-.7c-.5-.2-2.3-1.7-4.1-3.4-3-2.7-3.2-3-2.6-3.8.6-.8.7-.8 2.6 1 1.2 1 2.5 2.6 3 3.4.5.7 1.6 1.7 2.4 2.1a5 5 0 011.5 1c0 .3-1.9.1-2.8-.3zm14.7-9.8a13 13 0 00-2.8-1.9c-2.2-1-2.4-1.9-1-3.4 1.5-1.6 2.4-1.5 2.8.2.1.8.7 1.6 1.5 2 1 .7 1.3 1 1.3 2.4 0 2-.5 2.1-1.8.7zM310 521c-.8-.4-2.8-.7-4.4-.9a37.6 37.6 0 01-18.2-5.6c-.7-.8-.7-.8.6-.8 1.7 0 1.6-.6-.3-1.3-2-.7-2-1.2.3-1.6 1-.1 1.7-.4 1.7-.7 0-.2-1.2-.8-2.6-1.3-1.5-.5-2.7-1.1-2.7-1.3 0-.1.4-.7 1-1 .8-.9.9-.9 3.1.3a33 33 0 0014 4.8c6.9 1.2 8.7 1.6 6.8 1.7-.5 0-1.2.3-1.7.6-.9.7-.9.7 2 1.5l1.5.4h-2c-2 .1-3.5.7-2.7 1.1.2.2 1.5.5 2.7.8 3.4.6 4.6 1.3 4.8 2.7.1 1 0 1.2-1.1 1.2-.7 0-2-.3-2.8-.7zm115 .3c-.6-.5-.4-1.8.4-2.4.8-.6 4.2-1.6 5.7-1.7.6 0 1-.3 1-.6 0-.5-.5-.7-2.2-.7-1.2 0-2.2-.2-2.2-.4 0-.3.5-.5 1-.5 1.4 0 2.6-.4 2.6-.9 0-.2-.7-.6-1.4-.9-.7-.3-1.3-.6-1.2-.7l6.8-1.2c8.6-1.5 11-2.3 14.5-4.7 1.5-1 2.9-1.1 3.6-.3 1 1 .6 1.6-2 2.4-2.9 1-3.2 1.6-.8 1.8.9 0 1.6.3 1.6.5 0 .1-.7.7-1.6 1.2l-1.6.8 1.5.2 1.5.3-1.6 1.2a39.7 39.7 0 01-13.6 4.8c-5.8.6-9 1.1-10.3 1.6-1.5.6-1.4.6-1.8.2zm-117-39.8a64.6 64.6 0 01-7.5-4.2l-1.3-1h1.3c.8 0 2.1-.2 3-.4 1.7-.3 1.7-.3 1.5-1.8-.1-.8-.6-1.9-1-2.3a3 3 0 01-.6-1.7c0-1 0-1 .7-.4.4.3 3.3 1.9 6.5 3.5 3.1 1.6 5.5 3 5.2 3.2-.2.1-1.2 0-2-.4-2.7-1-2.3.6.5 2.2.8.5 1.4 1.1 1.4 1.4 0 .7 0 .7-1.5 0-.8-.3-1.3-.3-1.6 0-.6.7.3 2.2 2.1 3.3 1.5.9 1.6 1.7.2 1.7-.4 0-3.5-1.4-6.9-3.1zm114.9 2.3c0-.2.5-.7 1.2-1 2.6-1.6 3-4.6.4-3.5-1.6.8-2 .2-.7-.8 2.8-2.2 3.2-2.7 3-3-.2-.2-1.2 0-2.2.4-1 .4-1.8.5-2 .3-.1-.2 0-.4.2-.4l3-1.6c1.3-.8 2.7-1.5 3-1.5.3 0 1.8-.8 3.3-1.8 1.5-1 2.9-1.7 3.1-1.7.2.1 0 1.2-.7 2.5-.6 1.3-1 2.6-1 3 0 .6 1.9 1 4.5 1h1.8l-3 2a42.6 42.6 0 01-10.8 5.6c-1.8.9-3.1 1.1-3.1.5z" fill="#fff"/></g></svg>