<svg xmlns="http://www.w3.org/2000/svg" width="900" height="600"><path d="M0 0h900v600H0z" fill-rule="evenodd"/><path d="M300 0h600v600H300z" fill="#be0000" fill-rule="evenodd"/><path d="M600 0h300v600H600z" fill="#009800" fill-rule="evenodd"/><g fill="#fff" stroke="#bd6b00"><g stroke-width=".7"><g fill-rule="evenodd"><path d="M345 237.4c-3-4.8-6.7 6.7-19 15.4-5.9 3.9-9.9 14.4-10 21.3-.1 4.7.6 9.4 0 14-.3 3-3.3 9.3-1.2 11 5.4 4 12.5 13.3 15.8 16.5 2.8 2.4 5.3-12.9 7.4-19.7 2.3-7.4 1.3-16.2 7.6-23 4.5-4.5 15.8-9 14.5-11.1L345 237.4z" stroke-width="1.0499999999999998"/><path d="M337.5 297.8a25.7 25.7 0 00-4.3-6.5c-2-2.1-4.2-4-6.5-4.7-2.1-.8-4.4-1-6.4-1.8-1-.5-2-1-2.8-2-.6-.7-1-1.9-1.5-3 .2 2.7.4 5.6 0 8.3-.3 3-3.3 9.3-1.3 11 5.5 4 12.6 13.3 15.9 16.5 2.6 2.3 5-10.4 7-17.8z" stroke-width="1.0499999999999998"/><path d="M344.3 275a24.7 24.7 0 00-4-6.4 15 15 0 00-6-4.3 13 13 0 01-5.9-3.8 9 9 0 01-1.7-3.6c-.3-1.3-.3-3-.1-4.8-.3.2-.4.5-.7.6-5.8 4-9.8 14.5-9.9 21.4a69.7 69.7 0 000 5.6c.5 1.2.9 2.4 1.5 3 .8 1 1.7 1.6 2.8 2 2 1 4.3 1.1 6.4 1.9 2.3.8 4.6 2.6 6.5 4.7a25.7 25.7 0 014.3 6.5l.6-2c2-6.6 1.7-14.4 6.2-20.8z" stroke-width="1.0499999999999998"/><path d="M343.8 236.3c-2.8-.9-7 8.4-17.2 15.8-.2 1.9-.2 3.5 0 4.8a9 9 0 001.8 3.6c1.6 2 3.8 3 6 3.8a15 15 0 015.9 4.3 24.7 24.7 0 014 6.4c.5-.7.7-1.4 1.3-2 4.5-4.7 15.8-9.1 14.5-11.2L345 237.5c-.3-.6-.7-1-1.1-1.2z" stroke-width="1.0499999999999998"/></g><path d="M326.6 251.8c-1.2 8.2 3.4 11 7.7 12.5 4.5 1.6 8.1 6.4 10 10.7m-28.7 3.8c1.9 7 6.8 6.2 11.1 7.8 4.5 1.6 9.2 7.2 11 11.5" stroke-width="1.0499999999999998"/><g fill-rule="evenodd"><path d="M340.8 232.4l2.2-1.4 43.4 73-2.2 1.5-43.4-73z" stroke-width="1.0499999999999998"/><path d="M340.8 232.4l2.2-1.4 43.4 73-2.2 1.5-43.4-73z" stroke-width="1.0499999999999998"/><path d="M345.4 229.5a5 5 0 11-10 0 5 5 0 1110 0z" stroke-width="1.0499999999999998"/><path d="M345.4 229.5a5 5 0 11-10 0 5 5 0 1110 0zm209 9.4c3-5 6.5 7 19 15.9 5.7 4 9.7 14.9 9.8 22 .2 5-.5 9.8 0 14.6.3 3 3.3 9.6 1.3 11.3-5.5 4.2-12.6 13.8-15.8 17-2.9 2.6-5.3-13.2-7.5-20.3-2.2-7.6-1.2-16.7-7.5-23.7-4.5-4.8-15.8-9.5-14.6-11.6l15.2-25.2z" stroke-width="1.0499999999999998"/><path d="M583.2 282.7c-.5 1.4-1 2.6-1.6 3.4-.8 1-1.7 1.5-2.7 2-2 .8-4.2.9-6.4 1.7a18 18 0 00-6.5 4.7 24 24 0 00-4.3 6.6c2 7.6 4.3 21 7 18.7 3.2-3.3 10.3-12.9 15.8-17 2-1.8-1-8.5-1.3-11.5-.4-2.8-.2-5.7 0-8.6z" stroke-width="1.0499999999999998"/><path d="M572.8 254.3c.3 2 .3 3.7 0 5-.4 1.5-1 2.7-1.8 3.6-1.6 2-3.9 3-6 3.8-2.3.8-4.4 2.4-6.1 4.3a22.5 22.5 0 00-4.2 6.4c4.9 6.8 4.4 15 6.5 22l.5 1.7a24 24 0 014.3-6.6 18 18 0 016.5-4.7c2.2-.8 4.4-1 6.4-1.7 1-.5 1.9-1 2.7-2 .6-.8 1.1-2 1.6-3.4v-5.9c0-7.1-4-18-9.8-22l-.6-.5z" stroke-width="1.0499999999999998"/><path d="M555.5 237.8c-.4.1-.9.5-1.2 1.1L539 264.1c-1.2 2.1 10 6.8 14.6 11.6.5.5.6 1.2 1 1.7a22.5 22.5 0 014.2-6.4c1.7-2 3.8-3.4 6-4.3 2.2-.8 4.5-1.9 6.1-3.8.8-1 1.4-2.1 1.8-3.6.3-1.3.3-3 0-5-10.4-7.7-14.5-17.5-17.3-16.5z" stroke-width="1.0499999999999998"/><path d="M558.5 233.7l-2.3-1.5-43.4 75.7 2.3 1.5 43.4-75.7z" stroke-width="1.0499999999999998"/></g><path d="M572.9 254c1.2 8.5-3.6 11-8 12.7a19.8 19.8 0 00-10.2 10.7m28.8 4.7c-2 7.3-6.7 6-11 7.7-4.4 1.6-9.1 7-11 11.5" stroke-width="1.0499999999999998"/><g fill-rule="evenodd"><path d="M558.5 233.7l-2.3-1.5-43.4 75.7 2.3 1.5 43.4-75.7z" stroke-width="1.0499999999999998"/><path d="M553.8 230.7c0 1.9 1 3.6 2.5 4.5a4.9 4.9 0 005 0c1.6-1 2.5-2.6 2.5-4.5 0-1.8-1-3.5-2.5-4.5a4.9 4.9 0 00-5 0 5.2 5.2 0 00-2.5 4.5z" stroke-width="1.0499999999999998"/><path d="M553.8 230.7c0 1.9 1 3.6 2.5 4.5a4.9 4.9 0 005 0c1.6-1 2.5-2.6 2.5-4.5 0-1.8-1-3.5-2.5-4.5a4.9 4.9 0 00-5 0 5.2 5.2 0 00-2.5 4.5z" stroke-width="1.0499999999999998"/></g></g><g fill-rule="evenodd" stroke-width=".4"><path d="M382.6 170.8h17.6v4h-17.6z" stroke-width=".6000000000000001"/><path d="M382.6 178.4h17.6v33.7h-17.6zm-1.1-12.2H401c.8-6.5-5.8-13.7-9.7-13.6-3.8.2-10 7.2-9.8 13.6zm116.6 4.7h17.6v4h-17.6zm0 7.6h17.6v33.7h-17.6z" stroke-width="1.0499999999999998"/><path d="M497 166.3h19.6c.7-6.5-5.9-13.7-9.7-13.6-3.8.2-10 7.2-9.8 13.6z" stroke-width=".6000000000000001"/><path d="M382.6 170.8h17.6v4h-17.6zm0 7.6h17.6v33.7h-17.6zm-1.1-12.2H401c.8-6.5-5.8-13.7-9.7-13.6-3.8.2-10 7.2-9.8 13.6zm116.6 4.7h17.6v4h-17.6zm0 7.6h17.6v33.7h-17.6z" stroke-width="1.0499999999999998"/><path d="M497 166.3h19.6c.7-6.5-5.9-13.7-9.7-13.6-3.8.2-10 7.2-9.8 13.6z" stroke-width=".6000000000000001"/></g></g><g fill="#fff" fill-rule="evenodd"><path d="M498.1 178.5h17.6v33.7h-17.6zm0-7.6h17.6v4h-17.6zm-1-4.6h19.5c.7-6.5-5.9-13.7-9.7-13.6-3.8.2-10 7.2-9.8 13.6z"/><g stroke-width=".4"><path d="M368 217.9l11.1 12.3 139.2.2 11.5-12.3-35.6-.5-17.4-12-56-.3-16.1 12.6h-36.8z"/><path d="M368 217.9l11.1 12.3 139.2.2 11.5-12.3-35.6-.5-17.4-12-56-.3-16.1 12.6h-36.8z"/></g><path d="M382.6 178.4h17.6v33.7h-17.6zm0-7.6h17.6v4h-17.6zm-1.1-4.6H401c.8-6.5-5.8-13.7-9.7-13.6-3.8.2-10 7.2-9.8 13.6z"/></g><path d="M425 203.7h48c6.5-3.5 8.5-14.5 8.5-20.6a25.8 25.8 0 00-25.5-27.4c-2 0-4.2-1.5-4.7-3.3-1.2-4-1-6.4-2.3-6.3-1.2 0-.8 2.3-2 6-.5 1.8-2.6 3.7-4.7 3.8a25.8 25.8 0 00-25.7 27.2c.3 9.8 1.4 15.7 8.3 20.6z" fill="none" stroke="#bd6b00" stroke-width="1.0499999999999998"/><g stroke="#bd6b00"><g stroke-width=".4"><g fill="#fff" fill-rule="evenodd"><path d="M381.6 239.5h19.6v27.2h-19.6z" stroke-width=".6000000000000001"/><path d="M382.8 282.2h18.9v5.7h-19zm-.5 10h19.4v21.3h-19.4zm-1.4 25.6h21.3v12h-21.3z" stroke-width="1.0499999999999998"/><path d="M383.5 277.1h17.1l3.4-5.6h-23.5l3 5.6z" stroke-width=".6000000000000001"/><path d="M406.6 256.3l.2-14.8h11.8c-4.7 3.8-9 8.4-12 14.8z" stroke-width="1.0499999999999998"/><path d="M516 239.5h-19.3v27.2h19.4zm-.3 42.7h-18.6v5.7h18.6zm.4 10h-19v21.3h19zm1.2 25.6h-20.9v12h20.9zM514.2 277.1h-16.9l-3.3-5.6h23.2l-3 5.6h0zM491.5 256.3l-.2-14.8h-11.6c4.6 3.8 8.8 8.4 11.8 14.8z" stroke-width=".6000000000000001"/><path d="M381.6 239.5h19.6v27.2h-19.6zm1.2 42.7h18.9v5.7h-19zm-.5 10h19.4v21.3h-19.4zm-1.4 25.6h21.3v12h-21.3z" stroke-width="1.0499999999999998"/><path d="M383.5 277.1h17.1l3.4-5.6h-23.5l3 5.6z" stroke-width=".6000000000000001"/><path d="M406.6 256.3l.2-14.8h11.8c-4.7 3.8-9 8.4-12 14.8z" stroke-width="1.0499999999999998"/><path d="M516 239.5h-19.3v27.2h19.4zm-.3 42.7h-18.6v5.7h18.6zm.4 10h-19v21.3h19zm1.2 25.6h-20.9v12h20.9zM514.2 277.1h-16.9l-3.3-5.6h23.2l-3 5.6h0zM491.5 256.3l-.2-14.8h-11.6c4.6 3.8 8.8 8.4 11.8 14.8z" stroke-width=".6000000000000001"/></g><g fill="none"><path d="M384.7 262.4c0 3.2 3.7 1.8 3.7.2 0-5 0-10.2-.2-13.7 0-2.5 6.1-2 6.1-.3v14.6c0 2.4 4 2.2 4 0V246c0-5.2-13.5-5-13.6-.1v16.5z" stroke-width="1.0499999999999998"/><path d="M500.2 263c0 3.2 3.7 1.7 3.7.1 0-4.9 0-10.2-.2-13.6 0-2.6 6.1-2 6.1-.4v14.7c0 2.3 4 2.1 3.9 0v-17.3c.1-5-13.4-5-13.5 0V263zM384.7 294.8h14V312h-14z" stroke-width=".6000000000000001"/></g><path d="M393.6 302h5v2.8h-5zm-8.6 0h4.8v2.8H385zm4.8-7h3.8v7h-3.8zm0 9.7h3.8v7.5h-3.8z" fill-rule="evenodd" stroke-width="1.0499999999999998"/><path d="M499.7 294.7h14V312h-14z" fill="none" stroke-width=".6000000000000001"/><g fill-rule="evenodd" stroke-width=".7"><path d="M508.6 301.9h5v2.8h-5zm-8.5 0h4.8v2.8H500z" stroke-width="1.0499999999999998"/><path d="M504.9 294.9h3.7v7H505zm0 9.7h3.7v7.5H505z" stroke-width="1.0499999999999998"/></g></g><g stroke-width=".7"><g fill="#fff" fill-rule="evenodd"><path d="M487 295.7h2.5v17.2H487z" stroke-width="1.0499999999999998"/><path d="M440.5 318.5l3.8 11.3h8.5l-6.8-11.3zm-4.8 11.3L438 341l10 .1-3.6-11.3h-8.6zm17 .1l7 11.1H474l-11.2-11.2zm-84.2 25.4c7.6-7 12.4-13 12.4-21.7h18.5c0 4.8 1.8 7.7 4.5 7.5h18.7l-.1-11.2h-13.6v-60.3c-.5-21.4 26-33.8 36.8-33.7l-64.3-.1v-2h135.1l.1 2h-65.1c19.3.1 38 18.4 38.1 33.9v17h-2.5L487 270c0-16.9-21.3-32.7-38.4-32.2-14.7.4-37.6 14.5-37.4 32v5.3l35 .3-.3 6 5.5 3.5 11 3.5-.2 9.1 7.9 2.3v9l9.5 4.1v9.4l6 3.7-.3 9.5 8 5.7h-19.1l12 13.4h-17.7l-8.8-13.4H448l5.3 13.3-12.4-.1-3-13.2h-15.2l.1 14.2h-54.3zm54.2-36.7v11.2h13l-2.6-11.2z" stroke-width="1.0499999999999998"/><path d="M440.5 318.5l3.8 11.3h8.5l-6.8-11.3zm-4.8 11.3L438 341l10 .1-3.6-11.3h-8.6zm17 .1l7 11.1H474l-11.2-11.2zm-84.2 25.4c7.6-7 12.4-13 12.4-21.7h18.5c0 4.8 1.8 7.7 4.5 7.5h18.7l-.1-11.2h-13.6v-60.3c-.5-21.4 26-33.8 36.8-33.7l-64.3-.1v-2h135.1l.1 2h-65.1c19.3.1 38 18.4 38.1 33.9v17h-2.5L487 270c0-16.9-21.3-32.7-38.4-32.2-14.7.4-37.6 14.5-37.4 32v5.3l35 .3-.3 6 5.5 3.5 11 3.5-.2 9.1 7.9 2.3v9l9.5 4.1v9.4l6 3.7-.3 9.5 8 5.7h-19.1l12 13.4h-17.7l-8.8-13.4H448l5.3 13.3-12.4-.1-3-13.2h-15.2l.1 14.2h-54.3zm54.2-36.7v11.2h13l-2.6-11.2z" stroke-width="1.0499999999999998"/></g><g fill="none"><path d="M423.4 298.9h8.1v18.6h-8.1z" stroke-width="1.0499999999999998"/><path d="M412 318.8h7.9v-13.7c-.2-6 5.1-12 7.7-12.1 2.8-.1 7 5.6 7.2 11.7v14.2h8.5v-35.3l-31.3.2v35zm62.5 8.2h9.8v7.6h-9.8zm-5.8-13.2h9.8v7.7h-9.8zm-9.5-13h9.9v7.6h-9.9zm-8-11.2h9.8v7.7H451z" stroke-width="1.0499999999999998"/><path d="M444.6 318.9l10 .3 18 15.9v-9.4l-6-4.3V314l-8.8-5v-8l-8.6-3v-10.8l-4.3-3.5-.3 35.2z" stroke-width="1.0499999999999998"/></g></g></g><g fill="#fff" stroke="#bd6b00" stroke-width=".7"><path d="M497 341h20.5c0 7.8 4.6 16.1 11 20.9h-39.2c6.1-5.6 7.8-12.2 7.7-20.8z" fill-opacity=".5" stroke-width="1.0499999999999998"/><path d="M497 341h20.5c0 7.8 4.6 16.1 11 20.9h-39.2c6.1-5.6 7.8-12.2 7.7-20.8z" stroke-width="1.0499999999999998"/></g><g fill-rule="evenodd"><path d="M425 203.7h48c6.5-3.5 8.5-14.5 8.5-20.6a25.8 25.8 0 00-25.5-27.4c-2 0-4.2-1.5-4.7-3.3-1.2-4-1-6-2.3-6.2-1 .1-.8 2.2-2 5.9-.5 1.8-2.6 3.7-4.7 3.8a25.8 25.8 0 00-25.7 27.2c.3 9.8 1.4 15.7 8.3 20.6z" fill="#fff"/><g fill="#bd6b00"><path d="M431.3 162.2c-3.7 1.5-6.6 5.8-8.3 10.7a30.2 30.2 0 00-1.6 14.9c.3 1.6.7 2.7 1.2 3.5.5.8 1 1.3 1.7 1.4.6 0 1.2-.3 1.6-.8.3-.5.5-1.2.4-2-.3-4.6-.3-9.2.8-13.3 1-4 3.3-7.7 7.3-10.7.7-.5 1-1.1 1.2-1.7 0-.7-.3-1.2-.7-1.6-.9-.7-2.3-1-3.6-.4zm.4 1c.9-.3 2-.1 2.5.3.2.2.3.3.2.5 0 .2-.2.6-.7 1a20 20 0 00-7.7 11.3 41 41 0 00-.7 13.6c0 .7-.2 1.1-.3 1.4-.2.3-.3.3-.5.3s-.6-.3-1-1c-.4-.5-.8-1.5-1-3-.8-4.2-.2-9.6 1.5-14.3 1.7-4.8 4.4-8.7 7.7-10z"/><path d="M437.6 167c-3.7 1.6-6.2 5.6-7.4 10.2-1.3 4.7-1.5 10-.7 14.4.6 3.1 2.3 4.8 3.9 5a2.1 2.1 0 002-.8c.5-.6.7-1.5.4-2.6-.9-3.7-1.2-8.2-.6-12.4.6-4.1 2.3-7.8 5.4-10 .7-.6 1.2-1.2 1.3-1.8 0-.6-.3-1.3-.7-1.6-1-.8-2.3-1-3.6-.4zm.4 1c1-.3 2 0 2.5.3.2.2.3.3.3.5s-.3.6-.9 1a15.9 15.9 0 00-5.9 10.9c-.6 4.3-.2 9 .7 12.7.2.9 0 1.5-.2 1.8-.2.3-.5.4-1 .4-1-.2-2.4-1.4-3-4.2-.7-4.3-.5-9.5.7-14 1.3-4.4 3.6-8 6.8-9.3zm29-5.6a3.7 3.7 0 00-3.7.5 1.6 1.6 0 00-.6 1.5c.1.6.5 1.2 1.2 1.7 4 3 6.2 6.7 7.3 10.8 1 4 1 8.6.7 13.2 0 .8 0 1.5.4 2 .4.6 1 1 1.7.8.7-.1 1.2-.6 1.7-1.4.5-.8 1-1.9 1.2-3.4.8-4.6.2-10.1-1.6-15-1.7-4.9-4.6-9.1-8.3-10.7zm-.5 1c3.3 1.4 6 5.4 7.8 10a29.4 29.4 0 011.5 14.5 9.5 9.5 0 01-1 3l-1 1c-.2 0-.4-.1-.5-.4-.2-.2-.3-.7-.3-1.3a41 41 0 00-.7-13.7 20 20 0 00-7.7-11.3c-.6-.4-.8-.7-.8-1 0-.2 0-.3.3-.5.5-.4 1.5-.6 2.4-.2z"/><path d="M460.7 167.2c-1.3-.5-2.8-.3-3.6.4-.5.4-.8 1-.7 1.6 0 .6.5 1.2 1.3 1.8 3.1 2.2 4.7 5.9 5.4 10 .6 4.2.3 8.8-.6 12.4-.3 1.1-.2 2 .3 2.6.5.7 1.3 1 2.1.9 1.6-.3 3.3-2 4-5 .7-4.5.5-9.9-.8-14.5s-3.7-8.6-7.4-10.2zm-.4 1c3.2 1.5 5.5 5 6.8 9.5 1.2 4.4 1.4 9.7.6 13.9-.6 2.8-2 4-3 4.2-.4 0-.8 0-1-.4-.2-.3-.4-.9-.1-1.7.9-3.8 1.2-8.5.6-12.8-.7-4.3-2.5-8.4-6-10.9-.5-.4-.7-.7-.7-1 0-.2 0-.3.2-.5.5-.4 1.7-.6 2.6-.2z"/></g><g fill="#fff" stroke-width=".4"><path d="M345.8 375.1h206.6l-18.5-15H364.3l-18.5 15z"/><path d="M345.8 375.1h206.6l-18.5-15H364.3l-18.5 15z"/></g></g><g stroke="null"><path d="M16162.8 11867.1l-3.2.1h3.2zM16254.6 11944.8h-.2.2zM16255.2 11944.8h-.2.2zM16264.8 11945.5h.5-.5zM16254.2 11944.7h-.2.2zM16258.8 11945.2h-.2.2zM16257.2 11945.1h-.3.3zM16255.8 11945h-.2.2zM16256.4 11945h-.3.3zM16258 11945.1h-.3.3zM16179.8 11925.2l-3.9-.5 4 .5zM16279.8 11943.5l-.7.2.7-.2zM16273.2 11945l-1 .1h1zM16277.4 11944.2l-.8.2c.2 0 .5 0 .8-.2zM16274.8 11944.8l-1.3.2 1.3-.2zM16276.1 11944.5l-1 .2c.4 0 .7 0 1-.2zM16278.6 11944l-.7.1.7-.2zM16281 11943l-.7.3c.3 0 .5-.2.7-.3zM16283.3 11942l-.7.3c.3 0 .5-.3.7-.4zM16284.4 11941.3l-.7.4.7-.4zM16282.2 11942.5l-.7.3.7-.3zM16261 11945.4h-.4.4zM16264.1 11945.5h-.4.4zM16263.1 11945.5h-.4.4zM16262 11945.4h-.4.4zM16285.7 11940.3l-1 .7 1-.7zM16260 11945.3h-.3.2zM16270.4 11945.3l-.8.1h.8zM16269.1 11945.4h-.8.8zM16271.7 11945.2l-.8.1h.8zM16267.8 11945.5h-.7.7zM16266.5 11945.5h-.7.7zM16104.8 11808c-1-1.4-2.2-2.6-3.2-3.8l-.5-.6-11.5-2-4.2 2.1v.8c6.5 1.2 12.6 2.3 19 3.2zM15998.8 11245.1l.4.7.2-.9-.6.2zM16003.2 11324.2c1-1.8 1.4-5.2 0-9-1.3-3.4-3.8-5.8-6-8a21.3 21.3 0 01-3.8-4.3 22 22 0 00-.8 15.2c1.4 3.8 5 8 8.1 8h1c.4-.3 1-.9 1.5-1.9zM16417 11761.8a42.5 42.5 0 00-29.9-11.9h-1.2 0-.2a50.3 50.3 0 00-35.4-2h0-.2a48.6 48.6 0 00-35.4 2h0-.2-1.2c-4.4 0-19.6 1-29.9 12-8.2 8.7-10 26-4.2 40a46.4 46.4 0 0024.4 26.5c.3-3.9-.7-9-2.9-15.5 0-.4-.3-.9-.3-1.4-5-4-8-9-9-15-.9-5 .2-9.4 3-12.6 3.5-4 9.4-6.3 16.6-6.3 1.7 0 3.4.1 5.2.4a66 66 0 0120.6-4.3c4 0 7.8.6 13.5 2.1a54 54 0 0113.4-2c5.5 0 11.4 1.1 20.5 4.2 1.7-.2 3.5-.4 5.2-.4 7.2 0 13.1 2.2 16.6 6.3 2.8 3.3 3.8 7.6 3.1 12.5-1 6-4 11.1-9 15.1l-.4 1.4a44.3 44.3 0 00-2.9 15.5 46.4 46.4 0 0024.4-26.5c6-14 4-31.3-4.2-40z" class="st0" fill="#fff" transform="matrix(.5516 0 0 .52231 -8568.7 -5722)"/><path d="M16352.2 11809.1a5 5 0 00-4 0c-2.3.7-4.3 2.1-3.3 7.4.8 4.3 1.4 11.8.8 18.7l4.3.1h.3v0H16354.7c-.6-7 0-14.5.8-18.8 1-5.4-1.2-6.7-3.3-7.4zM16367.5 11808.6c-.8-.3-1.7-.4-2.5-.4-2 0-3.8 1-4.5 2.7a49 49 0 00-2 24.1c3.4-.2 7.1-.4 11-.8-.5-6.3 0-13.8 1-18.5 1-3.6-.2-6.2-3-7zM16382.1 11808c-.7-.3-1.5-.5-2.2-.5a4.7 4.7 0 00-4.3 2.8c-2.6 6.1-3.3 15-2 23.6l9.7-1a51 51 0 011.6-18.2c.8-3.2 0-5.4-2.8-6.7zM16395.7 11806.8a4 4 0 00-1.5-.3c-1.7 0-3.2 1-4 2.5a42 42 0 00-3.4 23.3l8-1c-1-4.7 0-10.8 2.6-19.2.6-1.9.3-4.4-1.7-5.3zM16340 11811c-.8-1.7-2.5-2.7-4.6-2.7-.8 0-1.6.1-2.5.4-2.8 1-3.9 3.5-3 7.2 1.1 4.7 1.5 12.2 1 18.5l11 .8c1.3-9.2.6-17.9-2-24.2zM16324.7 11810.3a4.5 4.5 0 00-4.3-2.8c-.8 0-1.5.2-2.2.5-2.7 1.3-3.6 3.5-2.8 6.7a50.8 50.8 0 011.6 18.1l9.7 1.1a45 45 0 00-2-23.6zM16310.3 11809a4.7 4.7 0 00-4-2.5 4 4 0 00-1.5.3c-2 1-2.3 3.3-1.6 5.4a37.7 37.7 0 012.6 19.1l8 1.1c1-8-.3-17-3.5-23.4zM16265.4 11945.3c6.3 0 15-.9 20.1-5 3.8-3.2 6-7.2 6-7.2.6-1.4 2.3-4.7 2.2-9.2 0-2-.6-7-4.4-11.2-3.7-4-8.4-5-12.5-5.7-1.9-.4-3.7-.5-5.6-.5-2.8 0-5.7.4-8.7.8a146.4 146.4 0 00-33 10.1 89 89 0 01-31.2 6.5h-1.8c-7.2-.2-29-.6-35.7-15.4a26.8 26.8 0 011-25.2 56 56 0 0113.6-13.9 40.3 40.3 0 00-12.6-1.8c-8 0-16.8 1.6-26.2 3.4-10.9 2-23.2 4.3-36 4.3-17.4 0-33-4.2-47.8-12.9 8 20.8 25.2 32.4 55.8 37.5l.5.1-.4.3c-9.6 8-25.9 12.5-44.6 12.5a95 95 0 01-22-2.4c9.7 12 32.7 19.6 59 19.6 5.2 0 10.5-.3 15.7-.9 4.4-.5 9-1 13.4-1.7 11.1-1.5 22.6-3 34.2-3 5.4 0 10.4.2 15.3 1 18.3 2.6 36.8 8.4 37 8.4 5.1 1.6 9.3 3.1 13 4.4 7.7 2.8 13.8 5 24 6.5 4 .2 8 .6 11.7.6z" class="st0" fill="#fff" transform="matrix(.5516 0 0 .52231 -8568.7 -5722)"/><path d="M16241 11908.1c5.6-1.9 14-4.5 21-5.4 3.1-.4 6.1-.8 9.2-.8l4.1.2c-12.5-4-23.8-8.5-33.9-12.5-18.8-7.4-34.9-13.9-49.5-13.9-10.6 0-16 2.8-16 2.8a24.5 24.5 0 00-10.3 7c-.3.4-6.8 8.8-.6 21 4.1 8 14.8 12.3 31.7 12.6h1.7a84.9 84.9 0 0032.7-7.4l9.8-3.6zM16178 11852.3c-1 2-2 4-3.3 5.4l2.4.1a26 26 0 0014.7-4.4c3-2.2 5.5-6 6-8.8a4 4 0 00-.8-3c-.6-.9-2-1.4-3.8-1.4-2.9 0-6.2 1.2-8.7 3.1a24 24 0 00-6.5 9zM16177 11840.8c-.5-1-1.9-1.6-3.8-1.6-2.3 0-4.9 1-7 2.5a27.4 27.4 0 00-7 8.6c-1.3 2-2.4 4-3.8 5.2a20.5 20.5 0 0015.2-2.9c4.1-2.9 8-8.8 6.4-11.8zM16210.6 11805.6h-2c-3.4 0-6.3 1-9 2-2.3.8-4.3 1.5-6.3 1.7 1.2 1.8 2.4 3.4 3.7 4.7 5.2.4 10.5 2.6 14.4 5.8 4.1 0 8.4-1.6 10.2-3.6.7-.8 1-1.5 1-2.3-.2-2.8-5.6-7.5-12-8.3zM16233 11796.7a30.3 30.3 0 00-7.7-17.8c-.3 2-1.3 4.2-2.4 6.5a25.9 25.9 0 00-3.2 11.7c.3 5.6 4.3 11.7 7 11.7a4 4 0 003-1.5c2.2-2.2 3.5-6.6 3.3-10.6zM16160.5 11749.1h-1.7c-2.8 0-5.3 1-7.9 2-2 .7-4 1.5-5.8 1.5 3.7 5.3 9.5 7 11.8 7.3l2.4.2c3.6 0 8-1.4 8.8-3.9.2-.7 0-1.6-.6-2.6-1-1.7-3.5-3.9-7-4.5zM16170.3 11774c4.5 0 9.6-2 10-5 0-.8-.4-1.7-1-2.5a13.3 13.3 0 00-8.7-4h-1c-3.3 0-6.3 1.1-9 2.2-2 .8-4 1.5-5.8 1.7a23 23 0 0014.2 7.5l1.3.1zM16177.5 11742c0-3.4-1.6-8.8-5.9-13 0 2.7-1.3 4.6-2.4 6.5-1.2 2-2.3 3.8-2.3 6.6 0 5 3 10 5.2 10h.1c3-.3 5.4-5.7 5.3-10zM16211.5 11794.1a4 4 0 003-1.5c2.1-2.2 3.4-6.7 3.1-10.7a29.8 29.8 0 00-7.9-17.8c0 2.6-1.3 5.7-2.6 9-1.3 3.2-2.7 6.6-2.7 9.4 0 4 1.6 6.8 2.6 8.2 1.4 2 3.2 3.4 4.5 3.4zM16195.7 11758.1a27 27 0 00-4 10.2c-.4 4.1 1.2 7.4 2.6 9 .8.8 1.6 1.2 2.4 1.2 3.6 0 6.8-6.2 7.2-11 .3-4-1-10.2-5.4-15.2-.6 2-1.7 3.8-2.8 5.8zM16192.4 11780.8a13 13 0 00-8.5-4.5h-1.7c-3 0-5.9 1-8.7 1.8l-1.8.6c2 2.4 3.7 5.1 4.8 8a20 20 0 004.3 1.4l.4-1.8.4-4 .1-.5.4.3 3 2.7 2.7 3.1c3.3-.8 5.5-2.5 5.7-4.5.1-.6-.3-1.6-1-2.6z" class="st0" fill="#fff" transform="matrix(.5516 0 0 .52231 -8568.7 -5722)"/><path d="M16293.3 11828.3c-10.9-8.3-16.6-19.5-22.6-31.3-7.5-14.7-15.3-30-34-39.3l-12.9-6.5a91.5 91.5 0 01-27.6-27.7c-.2 2.8-.5 13.1 3.5 26.7l.2.2c4.1 4.5 6.6 11 6.4 16.7l.1.2.1.2c.5-1.7.8-2.9.7-3.9l-.3-5.2v-.6l.5.4 3.7 3.6c5.8 5.6 8.7 14 9.1 20a20 20 0 01-.2 4.1l.7-1.5c1-2.3 2-4.5 2.2-6.3l.5-4 .1-.6.4.4 3 3a31.5 31.5 0 018.7 19.7c.1 2 0 4.1-.7 6.2 9.8 8.4 21.3 15.8 34.4 22.2l-.7-.6c-3.9-3.2-7.9-7-12.5-12l-1.4-1.7-4.2-5-.9-1.3-1.7-2.2-2.5-3.5a104.2 104.2 0 01-14.4-30.8l.5-.2a106.2 106.2 0 0017.5 28.3l2.8 3.1a33.2 33.2 0 002.8 3c1.4 1.5 3 3 4.4 4.2l1.5 1.4a132.7 132.7 0 0032.8 20.6z" class="st0" fill="#fff" transform="matrix(.5516 0 0 .52231 -8568.7 -5722)"/><path d="M16248.4 11731.7l-3.8-2.9-3.7-2.9c-4-3.2-8.4-6.5-13-11l-4.7-4.8 1.6 8.2c1.8 11.8 4.7 23.5 8.7 35 2.2 1 4 2 4.5 2.1 16.5 8.3 24.6 20.5 32 34.5a182 182 0 00-8.5-19.6c-4.9-9-9.9-18-17.3-25.2l.3-.4c4 2.8 7.7 6.3 11.6 10.6l5.1 6 2.4 3.2.8 1.1 1.5 2.1c2.6 3.8 5.2 8 7.8 12.7.4-4.5 1.5-8.9 3.1-12.6a74.3 74.3 0 00-28.4-36zM16211.3 11823.1c-2.6-2.9-8-6.3-14.8-6.7 1 1.6 1.6 3.7 2.3 5.8 1 3.2 2.2 7 4.7 9.8 2 2.2 4.6 3.7 7.1 4.2 1.5-2.2 3-4.3 4.6-6a18 18 0 00-3.9-7zM16206.2 11842.1c-1.5.7-2.8 1.6-3.9 2.7a19.8 19.8 0 00-4 5.7c3-3 5.7-5.8 8-8.4zM16158.4 11746.2c1.4 0 2.7-.6 3.6-1.8 1.2-1.4 1.4-3.4.6-5.5-2-6-10.6-12.5-18.6-14.2l-3.8 2a50.7 50.7 0 0012.3 17c2.2 1.6 4.2 2.5 6 2.5zM16191.3 11754c0-3.9-1.7-9.8-6.5-14.4-.4 1.8-1.4 3.7-2.4 5.8-1.5 3-3.2 6.4-3.3 10.2 0 3.8 1.5 6.7 3 8.2.8 1 1.7 1.4 2.5 1.4h.2c3.7-.4 6.5-6.5 6.5-11.3zM16102 11764.7h-1c-3 .3-5.6 1.8-7.9 3.1-1.5 1-2.9 1.7-4.2 2.1 3.7 3 8.1 4 11 4h1c3.8-.3 8.4-2.8 8.3-5.4 0-1.8-3.3-3.8-7.2-3.8zM16114.6 11756.7c-.6-2.8-2.2-6.7-6.4-9.8 0 1.4-.6 2.8-1 4.2-.9 2.2-1.8 4.5-1.3 7.3.8 4.2 4 7 5.6 7h.2c.7 0 1.3-.5 1.8-1.3 1.3-1.7 1.7-4.8 1.1-7.4zM16135.8 11792c.7-.9 1-1.8 1-2.6-.3-1.9-4-4-8.5-4h-1.8c-3.5.5-6.4 2.4-8.9 4a26.8 26.8 0 01-4.9 2.7c3.8 2.6 8.6 4.2 13 4.2h1.8c3.2-.5 6.8-2.3 8.3-4.3zM16143.8 11773.3c-.7-3.6-3.5-8.9-8.7-12.6 0 1.8-.5 3.7-1 5.7-.8 3.1-1.6 6.5-.9 10.1.7 3.4 3.6 8.4 6.7 8.4h.4c3-.9 4.4-7 3.5-11.6zM16151.2 11801.7c.6-1 .8-2 .6-2.9-.4-1.6-3.5-3.4-7.7-3.4-1.3 0-2.5.2-3.8.5-3.7 1-6.8 3.3-9.5 5.4a32.4 32.4 0 01-4.9 3.3c3.8 2 8.5 3.1 12.7 3.1 1.6 0 3-.2 4.2-.5 3.5-.7 7-3 8.4-5.5zM16157.8 11792.5a14 14 0 002-9.7c-.7-3.7-3.3-9.5-8.8-13.8 0 1.8-.7 3.7-1.4 5.8-1 3.1-2.2 6.6-1.6 10.3.8 5.5 4.7 9.2 7 9.2h.3c1 0 1.8-.7 2.5-1.8zM16121.2 11781.2c.6-.9 1-1.7.8-2.6-.3-1.8-3.7-3.7-7.9-3.7l-2 .2c-3.5.6-6.2 2.5-8.6 4.1a25 25 0 01-4.6 2.7c3.6 2.4 8 3.7 12.1 3.7.8 0 1.5 0 2.3-.2 3.1-.4 6.5-2.2 8-4.2zM16191 11802.3a24 24 0 00-7.4-15c-.3 1.8-1 3.8-2 5.8a26 26 0 00-2.7 10.6c.1 2.6 1 5.2 2.3 7.3 1.2 1.8 2.7 3 4 3 0 0 0 0 0 0 3.5-.4 6-6.7 5.7-11.7zM16175.4 11792.3a24.4 24.4 0 00-8.2-14.6c-.2 2-.9 4-1.6 6-1 3.2-2.4 6.8-2 10.7a14 14 0 002.7 7c1.3 1.7 2.8 2.8 4 2.8h.3c3.3-.4 5.4-6.8 4.8-11.9zM16180 11822c1 3.1 2.3 6.8 5 9.6 2.8 3.1 6.3 4.1 8.4 4.1 1.2 0 2.1-.3 2.6-.9 2.3-2.6 0-8.9-3.6-12.5-2.7-2.8-8.2-6-15-6.2 1 1.7 1.7 3.7 2.5 5.8zM16138.5 11745.6s0 0 0 0 0 0 0 0zM16134 11745.3s0 0 0 0 .1 0 0 0c.1 0 .1 0 0 0zM16137 11745.4c.1 0 .1 0 0 0 .1 0 .1 0 0 0zM16135.5 11745.3c.1 0 .1 0 0 0 .1 0 .1 0 0 0zM16101.3 11761c.8-.7 1.2-1.5 1.2-2.4 0-1.7-1.3-3.8-3.7-5.8l-7 4.6c2.4 2.6 5.3 4.2 7.5 4.2a4 4 0 002-.7zM16197.8 11803.3c5 0 10.1-2 10.4-5.4.2-2.7-4.7-7.4-11-7.9h-.8c-2 0-4.4.6-6.5 1.3 2.1 3.6 3.3 7.4 3.5 11v.5l2.2.4 2.2.1zM16104 11847.5c1.1.4 2.4.6 3.7.6 3.5 0 6.7-1.3 8.2-2 3.4-1.8 7-5.9 6.1-8.4-.3-1-1.9-1.7-3.8-1.7a10 10 0 00-4.7 1.2c-2.6 1.4-4.5 4-6.2 6.2a20.6 20.6 0 01-3.4 4.1zM16151.6 11851c4-2.6 7.7-8 6.4-11-.4-1-1.9-1.6-3.8-1.6-2 0-4.5.8-6.6 2.2-3 2-5 5.2-6.9 8a28.3 28.3 0 01-3.6 5c1.4.2 2.8.4 4.2.4 3.7-.2 7.4-1.2 10.3-3zM16139.8 11839c-.4-1-1.9-1.8-3.9-1.8-1.8 0-3.8.5-5.5 1.5a21.3 21.3 0 00-6.7 7.3 26.5 26.5 0 01-3.7 4.7c1.1.3 2.4.5 3.6.5 4.1 0 7.8-1.7 9.7-2.7 3.7-2 7.5-6.9 6.5-9.6zM16081.6 11831.3a27.8 27.8 0 0016.4 4.8c5.3 0 10.3-1.2 13-3a21.7 21.7 0 00-14.8-5.7c-4.7 0-9.6 1.3-14.6 4zM16165.8 11830.3c3 3 6.3 4 8.4 4 1.2 0 2.2-.3 2.7-.9 2.2-2.6-.3-9-3.8-12.6a23 23 0 00-15-6c1.1 1.6 1.8 3.6 2.6 5.8 1.1 3.2 2.4 7 5.1 9.7zM16174.8 11819c1 1 1.7 2 2.4 3-.7-1.9-1.3-3.6-2.2-4.8l-1-1.5a19.7 19.7 0 00-2.6.6c1.3 1 2.5 1.8 3.4 2.7zM16154.2 11821.3a21 21 0 00-13.5-4.8h-.7a27 27 0 012.6 5.1 23 23 0 005.2 8.5 12 12 0 007.7 3.3c1.3 0 2.3-.3 2.8-.9 2-2.6-.7-8.2-4-11.2z" class="st0" fill="#fff" transform="matrix(.5516 0 0 .52231 -8568.7 -5722)"/><path d="M16166.6 11814c1.4-1.5 2-3 1.7-4.3-.5-1.9-4.2-4-8.8-4-1 0-2 .1-2.9.3-3.8.8-6.8 3-9.4 5-1.6 1.2-3 2.4-4.7 3.1a24 24 0 0111.5 4H16157c-.4-.9-.8-1.6-1.2-2l-2.3-3.2-.3-.4h4.7c3-.2 6 .3 8.8 1.4zM16158.7 11822.6c0-.4-.3-.8-.4-1 0-.4-.3-.8-.4-1h-.9l1.7 2s0 0 0 0zM16135.4 11820.8a18.3 18.3 0 00-11-3.8l-1.7.1c1 1.3 1.8 3 2.7 4.7 1.3 2.6 2.8 5.6 5.3 7.8 2 1.7 4.4 2.7 6.5 2.7 1.3 0 2.3-.4 2.7-1 1.5-2.6-1.2-7.8-4.5-10.5zM16139.7 11821.8h.2c-.7-1.6-1.4-3-2.2-4v-.2c-1 0-2-.2-2.9-.3l2.2 1.5c1 .8 2 1.8 2.7 3zM16118.7 11821.3a20 20 0 00-11.4-4.3h-.8c1 1.1 1.7 2.7 2.5 4.3 1.2 2.6 2.7 5.5 5 7.3 1.7 1.4 4 2.3 6 2.3 1.2 0 2.2-.3 2.6-.9 1.3-2-1-6.4-3.9-8.7zM16130.1 11809c-2-.6-4-1.4-5.8-2.4l-3.6-2-.4-.2.5-.2 3.4-1.5c-.9-.7-1.9-1.2-2.8-1.7a45.5 45.5 0 00-23.4-4.3c2 1.5 3.8 3.7 5.7 6 3 3.5 6.3 7.6 11 10a24 24 0 005.7 2.2l1.7-.2c.8 0 1.5 0 2.3-.2a25.7 25.7 0 00-5.8-6 31.1 31.1 0 00-12.2-5.8l.1-.5c4.7.4 9.4 1.8 13.5 4.1 3.8 2.1 7.1 5.1 9.4 8.4.6-.3 1-.6 1.3-1 .8-1.4.2-3.3-.6-4.7zM16143.5 11809.8a26.4 26.4 0 01-10.3-.1l.1.5.2 1.1 8 .6c1.2-.6 2.6-1.7 4.1-2.8l-2 .7z" class="st0" fill="#fff" transform="matrix(.5516 0 0 .52231 -8568.7 -5722)"/><path d="M16120.2 11819.3l.7.6.5.1h.3l-1-1.7-1-1c-2.2-.6-4.3-1.4-6.2-2.4l-7.7-1c-6.9-1-13.8-2-20.6-3.3l-.7 4c6.4 1.1 12.8 2.2 19.1 3.1l-2-2.2-.4-.4h.5l4-.5h1.6c5 0 10 2.4 13 4.7zM16030.1 11808.3c-11.8 3-23.9 6-31.2 6 0 0 0 0 0 0a44.7 44.7 0 0027 9.7c7.4 0 15-2 23.2-6.3-.9-.9-1.7-2-2.3-3.2a7.5 7.5 0 010-6.7 5.8 5.8 0 013.8-3c2-.6 4.1-1.2 6-2-7.3.8-17 3.2-26.5 5.5zM16079.1 11822.1a39.4 39.4 0 00-.4-35 3.6 3.6 0 00-3.3-2 4 4 0 00-1.5.3c-.9.4-1.6 1-1.9 2-.3.7-.2 1.5.1 2.3 4.7 9.4 5 21.3.5 29.6-.4.7-.5 1.6-.2 2.4.3 1 1 1.6 1.8 2l1.4.3h.1c1.6 0 3-.8 3.4-1.9z" class="st0" fill="#fff" transform="matrix(.5516 0 0 .52231 -8568.7 -5722)"/><path d="M16065 11784c-.7-.7-1.5-1-2.3-1-.9 0-1.7.4-2.3 1a3.3 3.3 0 00.1 4.6c8.8 8.7 9.1 23.1.7 32.2a3.3 3.3 0 00.1 4.6c.6.6 1.3 1 2.1 1h.1c1 0 1.7-.5 2.3-1a30 30 0 00-.9-41.5z" class="st0" fill="#fff" transform="matrix(.5516 0 0 .52231 -8568.7 -5722)"/><path d="M15994.8 11796.3a89.3 89.3 0 0034.3 5.2c9.2 0 20.3-.6 35-1.9-1-3.5-2.9-6.7-5.4-9.2 0 0 0 0 0 0a110.4 110.4 0 00-45.2-7.9l-9.4.1-8.4.1c-8 0-16.5-.4-23.6-3a62.2 62.2 0 0022.7 16.6zM16055.2 11818c.3 0 .6 0 1-.2 1.7-.4 3.6-.9 5.3-1.6 2.8-4.4 4-9.8 3-15a37.7 37.7 0 01-13.4 6 3 3 0 00-2.2 1.6c-.6 1.3-.6 3 .2 4.6 1.2 2.6 3.7 4.5 6.1 4.5zM16092.4 11797c.4-1.2.1-2.7-.8-4a7.6 7.6 0 00-5.9-3.6l-1.2.2-1.7.6c1.3 3.4 2.1 7.1 2.5 10.8 1.7-.9 3.5-1.7 5.3-2.3 1-.3 1.5-.9 1.8-1.7zM15950.1 11693.1l-4.5-8.6c-11.5-21.7-27-51.2-20-58.2-1.9-.4-3.8-.6-5.6-.8h-1.6c-2.2 1.1-3.5 3.3-3.9 6.4-1.5 14 16.3 44.4 35.6 61.2zM15924.4 11395l-.4-4.4v-.5l.4.3 3.5 2.6c1.3 1 3 1.6 5 2.3l-1.4-1.2a32.3 32.3 0 01-8.7-19.3l-.4-4.3v-.5l.4.3 3.5 2.5.3.2a86.5 86.5 0 01-11.2-16c-2.7 20.3 5 41.1 11.3 55.6v-.3l.4.3 3.6 2.4c1.5 1 3.7 1.7 6 2.3-1.4-.9-2.7-1.8-3.8-2.9a32.6 32.6 0 01-8.5-19.4zm-1.7-7.5l-.2.1-.2.1h0c-1-1-1.9-2.2-2.7-3.9-.6-1-.8-2.3-1-3.4l-.3-.9-.9-4.4-.5-4.4v-.2H15917.5l.1.2v.1l1.2 4.1 1.4 4.1.7 1.5a18.6 18.6 0 012 7v.1zM15996.3 11290.6c1.3-2.3 2.4-6.7 1.1-11.6a29.8 29.8 0 00-6.6-10.9 29 29 0 01-4.3-6c-4 7.4-4 15.2-3 19.7 1.3 5.2 5.6 11 9.4 11h1c1-.2 1.7-1 2.4-2.2zM15993 11266.6c-.5-.9-.8-1.8-1-2.6l-.5-1.5-.9.1-.8.1a26.3 26.3 0 003.1 4zM15979.5 11265.8a14.3 14.3 0 00-6.3 8.4c-.3 1.2-.2 2.3.3 3 1 1.4 3.1 1.7 4.7 1.7.8 0 1.6 0 2.5-.2-.4-4.7.4-9.8 2.3-14.6a19 19 0 00-3.5 1.7zM15988.7 11298.1c-1.9.7-4.2 1-6.7 1.3-3.6.5-7.8 1-11.3 3.2-3.9 2.4-5.9 6-6.3 8.2-.2 1.2 0 2.2.4 2.8 1.1 1.5 3.2 1.8 4.8 1.8 3 0 6.6-1 9.2-2.8 3.5-2.2 8.2-7.3 10-14.5zM15974 11297a18 18 0 0012-5.4c-2.2-2.5-4-5.9-4.8-9 0-.4 0-.7-.2-1-2.2.5-4 1.2-5.7 2.2-3.9 2.4-6 6-6.5 8.2-.3 1.2-.2 2.3.2 3 .8 1.2 2.6 2 5 2zM15986.6 11296.2l-.6-1.2-2 1.4-.7.4a52 52 0 003.3-.6zM15973 11299.1l-1.2.5v-.6l1.2.1zM15962.4 11293.6c.7-.2 1.4-.9 2-2 .8-2 1.2-6-.7-10.3-1.8-3.9-5-6.8-7.8-9.3-1.9-1.7-3.7-3.3-4.9-5a23.6 23.6 0 00.1 17.4c2 4.4 6.7 9.3 10.4 9.3h1zM15957.4 11266.5c2.2 5.4 6.8 9.2 9.7 9.2h1c.6-.3 1.3-1 1.8-2 1-2 1.5-5.8-.3-10-1.6-3.8-4.6-6.6-7.2-9a32.9 32.9 0 01-4.5-5c-2.8 6.3-2 13-.5 16.8zM15959 11310a13 13 0 00-1-10.4 29.4 29.4 0 00-8-9 30 30 0 01-5.2-4.9 23.7 23.7 0 00.7 17.5c2 4.2 6.8 9 10.5 9 .4 0 .8 0 1.1-.2.8-.3 1.4-1 2-2zM15988.4 11305.7c-2 3.5-4.6 6.5-7.5 8.6.7.3 1.4.5 2.1.5h1c2-.7 4.1-4.2 4.4-9zM15979.4 11327c0-3.2.4-6.4 1.4-9.3l-3.3.6c-3.6.6-7.7 1.2-11.2 3.6-.9.6-1.7 1.2-2.4 2 3 3 6.1 6 9.2 8.8l1.6-1a26 26 0 004.7-4.7zM15982.7 11341.5l-2.8-3a27.4 27.4 0 01-4.2-5.2l-.6 1.3 7.6 7zM16010.6 11309.2c1-1.6 1.5-4.7.3-8.3a24.9 24.9 0 00-5.6-8.2c-1.4-1.5-2.7-3-3.5-4.4a20.6 20.6 0 00-1 14.3c1.2 3.8 4.8 8.1 7.7 8.1h.6c.4-.2 1-.7 1.5-1.5zM16010.1 11284.2c-2 .8-4 2.1-5.7 3.7.7 1 1.7 2 2.7 3.1l3.5 4.1c.5-3.7 2.8-8 6.4-12.2-2.6.1-4.8.5-6.9 1.3zM16019.7 11315c2 0 4.1-.5 5.8-1.2 4-1.5 8.7-5.3 11-10l-2.8.1h-3.2c-1.2-.2-2.4-.2-3.7-.2-2.8 0-4.9.3-6.7 1a10.6 10.6 0 00-6.3 5.7c-.3 1-.4 1.7 0 2.3.6 1.3 2.8 2.2 6 2.2zM16042.6 11273.1a73.7 73.7 0 01-11.9 9.3c-.3 6-2.3 12.3-5.5 16.7l-1.8 2.2 3-.2a36 36 0 0016.2-28zM16011.4 11313.8v-.3l-2 4.3 4-2a5 5 0 01-2-2zM16009.5 11313.1l-1 .1c-1.4 0-2.9-.6-4.3-1.6l1.4 2.8c.5 1.4.8 3 1 4.4h.4l2.8-5.7h-.3zM16014.4 11303.6s-.3 0-.4-.2c0 0 0 0 0 0l.1 1zM16016 11304h-.4l-.2.4.5-.4zM16028.1 11319.1h-3.2c-1.2-.2-2.4-.2-3.7-.2-1.9 0-4.7.1-7.2 1.1a11.7 11.7 0 00-6.6 6.1c-.4 1-.4 1.8 0 2.4.6 1.5 2.8 2.4 5.8 2.4 2 0 4.2-.4 6-1.2 4.4-1.8 9.7-5.9 12-10.9-.9.2-1.9.3-3 .3zM16005.8 11348.8c2.3 0 4.7-.5 6.7-1.3 4-1.7 11.2-7.6 14-13.9-2 .4-4.4.5-6.9.7-4.4.3-9.4.6-13.3 2.2a12.2 12.2 0 00-7.2 6.7c-.4 1.1-.5 2.1 0 2.8.7 1.8 3.3 2.8 6.7 2.8zM16012 11352.1a45.6 45.6 0 00-14.7 2.2l2.5 2.2.1.1 7.7 6.7c4-2.5 9-7 11.1-11.7-1.9.3-4.3.4-6.8.5zM16016 11361l-4 3-2 1.5 5.4 5c.7-2.4 1.3-6 .5-9.6zM16039 11345.2a52.3 52.3 0 00-12.2 11.4 72.8 72.8 0 00-9.2 16l3.5 3.6a55.9 55.9 0 019.7-18.5l.8-.8-.4 1.1c-2.6 7-3.7 12-4.6 16-.5 2.4-1 4.5-1.7 6.5l3 3.7c1.6-2.9 2.8-8.5 4.1-15 1.6-8 3.6-17 7-24zM15939.6 11336.7c-1.4-6.5-2.5-12.5-3.3-17.7l-3.3-1.7c-2-1-3.9-2-5.4-3.2a28.4 28.4 0 005.1 17.3c1.8 2.3 4.4 4.4 7 5.3zM15939.7 11342c-3-2.7-6.9-4-10.2-5-2.3-.9-4.5-1.6-6.2-2.7.4 3.5 1.4 7 3 10.2zM15943 11376.7c1.5 0 2.7-.5 3.4-1.4.4-.5.6-1.4.5-2.5a568 568 0 00-22.4-16.8c-.2 0-.4-.2-.5-.3a29.2 29.2 0 009 16.7c2.8 2.6 7 4.3 10 4.3zM15954.3 11396a15.8 15.8 0 0011.7-7c-3-2.7-6-5.4-9.4-8.2l-1.2 1.1a18.2 18.2 0 00-4.5 7.5c-.7 2.4-.5 4.5.3 5.4.8.7 1.8 1.1 3.1 1.1zM15970.8 11393.2l-3.9 2c-3.2 1.4-6.9 3.1-9.6 6.4a17.4 17.4 0 00-3.5 8c-.4 2.5 0 4.6 1 5.5a4 4 0 002.7 1c3.1 0 7.3-2.6 10-5.9a28 28 0 005.2-15.2l-1.9-1.8zM15985.5 11416c.7 0 1.3-.2 1.7-.5 1-.7 1.2-2.5.8-4.7l-5.4-5.9-3.8-3.9-.3-.2c-1.6-.8-3-1.6-4.3-2.6a19.8 19.8 0 003.4 13c2 2.7 5.5 4.8 8 4.8zM16010.4 11445.1a78.8 78.8 0 00-7.3-14.5 31.6 31.6 0 00-4 13.4c-.3 3.8 1 8 2.7 10.1.8.8 1.6 1.2 2.4 1.3 2.3 0 5.8-4.4 6.2-10.3zM15993.5 11417l-1-.7c-.3-.3-.5-.7-.5-1.2l1.5 2zM15993.6 11434.2c1.7 0 3.7-.5 5.6-1.5.7-1.6 1.5-3 2.4-4.4-1.5-2.2-3-4.6-4.9-6.9l-2.6 1.8c-3 2.5-4.2 5.6-4.3 7.6 0 1.1.2 2 .7 2.4.7.7 1.8 1 3.1 1zM15996.6 11444c.1-1.2.3-4 1.2-7.2-2.4 1-4.2 2-5.6 3.1a11.6 11.6 0 00-4.6 7.4c0 1.1.1 2 .6 2.4.7.8 2 1.2 3.4 1.2a15 15 0 005.5-1.3c-.5-1.9-.6-3.9-.5-5.7zM16005.3 11468.4c.6.7 1.6 1 2.8 1 2.3 0 5.3-1.3 7.3-3.3 2.3-2.2 5-6.9 5.2-12.8-1.3.8-2.9 1.2-4.7 1.7-2.6.8-5.6 1.6-7.9 3.8-3.4 3.3-4 8.1-2.7 9.6z" class="st0" fill="#fff" transform="matrix(.5516 0 0 .52231 -8568.7 -5722)"/><path d="M16021.4 11435.2c4.6-10.8 9.7-23 8.3-38-.9-10.2-15-23.2-32-37.9h-.2a686.3 686.3 0 01-59.6-56.9c.5 10 2.7 23.7 7 42.1v.3h-.3l-23.8 4.4c55.2 38.3 89 74.3 95 101.6 1.1-5 3.3-10.2 5.6-15.6zM15931.6 11377.7c-2.3-.8-4.5-1.5-6.2-2.6.8 8 4.7 14.2 8 17.2 2.8 2.8 7 4.8 10.1 4.8 1.4 0 2.4-.4 3.1-1.2 1.6-1.9.3-8.3-4.5-12.8-3.2-2.9-7-4.2-10.5-5.4zM15945 11417.5a4 4 0 003-1c1.5-1.9.2-8.3-4.5-12.9-3-3-7-4.4-10.4-5.6-2.3-.8-4.4-1.6-6.2-2.7.8 7.8 4.7 14.1 7.8 17.2 3 3 7.2 5 10.2 5zM15938.2 11434.2c3 2.6 7 4.4 10 4.4 1.5 0 2.7-.4 3.4-1.3 1.6-1.9.1-8.4-4.8-12.7-3.3-2.9-7.2-4-10.7-5-2.3-.8-4.5-1.4-6.3-2.5 1.1 8 5.1 14.2 8.4 17.1zM16098.8 11642.2c2 9.2.2 15.1-1.5 21.4a52 52 0 00-.2 32l.4-.3 3.6-2 1.5-.8h.1a36.3 36.3 0 01-.3-18.3 49 49 0 001-10.6v-.9l.5.7c3.4 5.1 3 14.7 2.5 21.7l-.2 5.6 3.2-1.3a47.8 47.8 0 00-10.6-47.2zM16003.7 11735.7h1.6c-2.4-1.8-6-4.6-6.9-5.8l-.5-.5-6.8-8c-2.9-3.6-9.3-6-16-6-2.4 0-4.6.3-6.8 1 5.4 2.4 9.5 6 13.6 9.8v-2.2l.4.4 5 5.3c2 2.1 4.4 3.7 7.2 4.7l-2.9-3a51 51 0 00-6.3-5.9l-1-.8 1.2.4a56.2 56.2 0 0116 10.7h2.2zM16090.5 11699.2l3.5-2c-1-4-1.7-7.6-2-11-.7 1-1.2 2-1.5 3.1-1.6 4.1-1 7.8 0 10zM16092.1 11677.1a27 27 0 00.6-18.3c-1 1.7-2.9 3.3-4.8 5.1-2.9 2.7-6.2 5.7-7.8 9.5a13.6 13.6 0 00-.5 10.2c.5 1.1 1.1 1.8 2 2.1l1 .2c3.4 0 7.8-4.7 9.5-8.8zM16076.7 11707l.6-.4-2.9-1 .5 2.3 1.8-1zM16072.6 11709.2c-.6-4.4-2.5-8.9-5-12.4-.6 2-1.6 3.8-2.6 5.8-1.6 3-3.3 6.5-3.6 10.5v2.1l11.2-6zM16052.2 11687.5c-2 2.8-4.4 6-5 10a15 15 0 001.1 8.1c1 2.2 2.4 3.7 3.8 4h.6c3.7 0 7.2-5.4 7.8-10.2.6-4-.4-10.9-5-17.2-.7 1.6-1.9 3.4-3.3 5.3zM16062.8 11700.3c0 .5-.2 1.1-.4 1.6l.3-.5.5-.9-.4-.2zM16052.1 11682.3h-1l.8 1.3.7-1.2h-.5zM16068.7 11681.8c-1.6-.4-3.2-.6-5-.6a31 31 0 00-5.4.5c2.1 3.2 3.6 6.8 4.3 10.5 1 .5 2 .8 3 1.1 0 0 0 0 0 0l.3-1.6.1-.5.3.4 1.8 2.2 2.5.2c4.2 0 7.1-1.3 7.6-3.4.7-2.3-3.4-7-9.5-8.8zM16082 11704l5.1-2.9a95.5 95.5 0 00-10.8-5.6 16 16 0 01-5.6 1h-.5c.6.7 1.1 1.5 1.5 2.3a97 97 0 0110.2 5.2zM16063.1 11695v.6l2 .6v-.4 0l-.3-.2-1.7-.6zM16058.2 11665c-1.6-.4-3.2-.6-5-.6-2.3 0-4.6.3-6.7.7-1.9.3-3.8.6-5.5.6h-1a30.2 30.2 0 0015 11c1.5.5 3.4.7 5.2.7 4.4 0 7.5-1.4 8-3.5.5-2.3-3.7-7.2-10-8.9zM16045.5 11674.7l-3-2.5-2 3c-1.8 2.4-3.9 5.3-4.6 9-.8 3.7.2 7.3 1.4 9.2.6 1 1.2 1.4 1.8 1.5h.5c3 0 6.1-4.9 7-9.3.5-3.2.1-7.2-1-10.9zM16045.2 11694.3v0l.2.2.2-.7-.4.5zM16049 11687.6h-.3l-.3 1 .6-1zM16083.2 11661a27 27 0 00.6-18.4c-1 1.7-2.9 3.3-4.8 5.1-2.9 2.7-6.2 5.7-7.8 9.5a13.6 13.6 0 00-.5 10.2c.5 1.1 1.1 1.8 2 2.1l1 .2c3.4 0 7.8-4.7 9.5-8.8zM16073.3 11645.5a23.4 23.4 0 000-16.8c-1 1.6-2.8 3.1-4.5 4.7-2.6 2.3-5.6 5-7.2 8.7a12.8 12.8 0 00-.5 10c.5 1 1.1 1.7 1.8 2l1.1.1c3.3-.2 7.6-4.7 9.3-8.7zM16064.3 11629.3a23 23 0 00-.3-15.9c-1 1.5-2.5 3-4.2 4.5a23 23 0 00-6.5 8.2c-1.5 3.8-1 7.4 0 9.3.4 1 1 1.7 1.7 2l1 .1c3.1 0 6.8-4.3 8.3-8.2zM16045 11659.2c2.2 1 4.8 1.4 7.2 1.4 3.2 0 5.5-1 6.1-2.6.8-2.2-2.8-7.4-8.7-9.7a23 23 0 00-8.4-1.4l-3 .1-2.9.1a19 19 0 01-3.7-.3 29.6 29.6 0 0013.4 12.4zM16049.4 11640.7c.8-2-2.4-7.2-7.9-9.7-3.7-1.7-7.5-1.8-10.8-1.9-2.2 0-4.3 0-6-.6a28.5 28.5 0 0012.1 12.6c2.3 1.1 5.1 1.8 7.6 1.8 2.6 0 4.5-.8 5-2.2zM16035.5 11614.3a22.4 22.4 0 00-9.5-1.9c-1.9 0-3.8-.2-5.4-.7 2.5 6 7 10 10.2 11.5 2.1 1.1 4.7 1.8 7 1.8 2.2 0 3.7-.6 4.3-1.8.8-1.7-1.8-6.4-6.6-8.9zM16024.5 11607.1c1.8 1 4.1 1.5 6.2 1.5 2.3 0 4-.7 4.6-2 .8-1.8-1.5-6.5-6-8.7-3-1.5-6.2-1.5-9-1.6-2 0-3.7 0-5.3-.4 2.3 5.8 6.5 9.7 9.5 11.2zM16049.7 11597.8c1.2-3 2-8.5-.3-13.9-.9 1.3-2.2 2.6-3.6 4-2 2-4.6 4.1-5.8 7.2-1.4 3.4-1 6.5-.3 8.2.4 1 1 1.5 1.5 1.6l.8.1c2.8 0 6.3-3.8 7.7-7.2zM16037.1 11727l11.2-5.2c-2.4.2-4.7.8-6.9 1.4-2.3.6-4.4 1.1-6.4 1.2l2.1 2.5zM16010.5 11735.2a84 84 0 0015.8-4c-.7-.3-1.4-.4-2-.5h-1.5a25 25 0 00-8.2 1.7c-1.9.6-3.7 1.2-5.4 1.4l1.3 1.4zM15994 11644.4c-1-.2-2-.3-3.2-.3-2.7 0-5.3.6-7.8 1.2-2.2.5-4.2 1-6 1h-.2a24 24 0 0013.6 9.6c1.1.2 2.2.4 3.4.4 5.5 0 8.5-2 9-4 .2-.7 0-1.6-.7-2.6-1-1.9-4-4.4-8.2-5.3zM15981.7 11639.7c1.2.3 2.5.5 3.8.5 3.5 0 7.3-1 8-3.6.2-.7 0-1.6-.6-2.5a12.3 12.3 0 00-7.7-5.2c-1-.3-2.3-.4-3.5-.4-2.4 0-4.6.5-6.8 1-1.9.3-3.8.7-5.4.7h-.4a23 23 0 0012.6 9.5zM15969.2 11609.2c1.1.3 2.3.5 3.6.5 3 0 5.3-1 6-2.6.1-.5 0-1.4-.5-2.3a10 10 0 00-8.8-5.2c-1.8 0-3.6.4-5.4.7-1.6.3-3 .6-4.4.6h-.6a19 19 0 0010.1 8.3zM15988.7 11585a19 19 0 01-3 3.6c-1.8 2-3.8 4-4.7 7a10 10 0 00.3 7.3c.4.8 1 1.3 1.4 1.4l.6.1c2.5 0 5.5-3.6 6.5-6.9 1-2.9 1.1-7.8-1-12.5zM15979 11614.3l-2.7-.3c-2.2 0-4.3.5-6.4 1-1.8.4-3.5.8-5 .8 3.2 4.6 8 7.1 11 7.8l3 .3c3 0 6.7-1 7.3-3.3.2-.6 0-1.3-.5-2-1-1.5-3.4-3.6-6.8-4.3zM15996.6 11597.5c-.8 1.4-2 2.8-3.3 4.2-2 2.2-4.2 4.6-5.3 7.8a11 11 0 00.1 8.3c.4.7 1 1.2 1.4 1.4l.6.1c2.7 0 6.1-4.2 7.4-7.9 1-3.2 1.4-8.7-.9-13.9zM16024.6 11638c-.9 1.6-2.2 3.3-3.7 5a25.8 25.8 0 00-5.8 9.5c-1.2 4.2-.5 8.2.7 10.3.5 1 1.1 1.5 1.7 1.6l.7.1c3.1 0 7-5 8.1-9.6 1.1-4 1.2-10.7-1.7-17zM16004.6 11610.8c-.8 1.6-2 3.1-3.5 4.7-2 2.4-4.5 5.1-5.5 8.6-1 4-.2 7.4.8 9.2.6 1 1.3 1.7 2 2h.8c3.1 0 6.6-4.6 7.7-8.7 1-3.6 1-9.8-2.3-15.8zM16014 11626.3c-.9 1.6-2 3.1-3.5 4.6-2 2.4-4.3 5.1-5.3 8.7-1 3.8-.4 7.4.8 9.4.5 1 1.1 1.5 1.7 1.6l.7.1c3 0 6.3-4.6 7.4-8.8 1-3.5 1-9.7-1.9-15.6zM16029 11660.7c-1.8 2.6-3.9 5.5-4.5 9.1-.7 4 .5 7.4 1.7 9.1.7 1 1.4 1.5 2.1 1.6h.4c3.1 0 6.4-5 7.1-9.5.6-3.7 0-9.8-3.8-15.4-.6 1.8-1.8 3.4-3 5.1zM15969.4 11597.1s0 0 0 0a54.4 54.4 0 00-44.4-27c9.6 11.8 20 23.5 30.5 29.5l-.7-1.4-.2-.4.5.1 4 .6h.6c1.1 0 2.4-.3 3.8-.6a49.8 49.8 0 01-21-17.2l-.5-.7.7.3a76.5 76.5 0 0126.7 16.8zM15964.8 11613.4h.7l-1.9-2c-10.3-10.9-14.6-15.5-38.6-18.5 3.8 3.2 7.1 7 10.4 10.7 2.7 3.1 5.2 6 8 8.5l2 .4a41 41 0 0112 5c-5.2-4.7-8.8-8.7-14.2-15.2l-.6-.7.8.3c6 2 12.3 7.7 18 13.5l-1.2-1.9-.3-.4h.5l4 .2.4.1zM15987 11691.6a15 15 0 00-2.2-.2c-2.6 0-5.4.6-7.9 1.1l-5.5 1c3 3.8 9.5 6.2 13 7l2.2.1c3.2 0 7-1.2 7.4-3.3.1-.5 0-1.2-.5-1.9-.9-1.3-3-3.2-6.5-3.8zM16004.6 11708.3c-1-1.5-3.6-3.4-7.3-3.9h-2v-.3.2c-2.6 0-5 .6-7.4 1.2-1.8.5-3.5 1-5 1 3 4 7.7 7 11.8 7.6l2.1.2c3.7 0 8-1.4 8.4-3.8.1-.7 0-1.4-.6-2.2zM16010.6 11717.5c-.9-.2-1.9-.3-2.9-.3a31 31 0 00-6.9 1c-1.9.4-3.7 1-5.4 1 0 0 0 0 0 0 3.4 5 8.6 7.7 12 8.5 1 .2 2.1.3 3.2.3 3.4 0 7.3-1 8-3.6.1-.6 0-1.5-.7-2.3-.9-1.6-3.5-3.8-7.3-4.6zM15984.2 11684a9 9 0 00-5.3-4.4l-.9-.3c-.3 0-1.7.2-3.7.2-2.2 0-5.3-.2-8-.9 1.8 4.3 5.7 7.3 9 8.5 1.2.5 2.7.7 4.1.7 2.5 0 4.4-.8 5-2a3 3 0 00-.2-1.8zM15959 11664.3c-2-2.7-4.2-5.5-7.5-8.7l-.8-.8 1 .3c6.2 2.1 10.2 5 14.3 8.8-.5-2.3-.5-4.6-.2-6.6-4.3-6-10.9-12-26.6-12.7 9.5 20.7 21.4 32.1 33.4 32.3-7.2-4-10.2-8-13.6-12.6zM15992.6 11675c.1-2.8-1-7-4-10.4-.4 1.3-1 2.6-1.8 4a18 18 0 00-2.4 7.3c0 3 1 5.1 2 6.1.5.6 1.1 1 1.6 1h.1c2.4-.2 4.4-4.6 4.5-8zM16004.2 11660.8c-1-.3-2.3-.4-3.6-.4-2.7 0-5.2.5-7.7 1.1l-3.4.7.4.4c2 2 3.5 4.6 4.4 7.4a18.7 18.7 0 009.8 3c3.8 0 8.3-1.3 9.1-4 .2-.8 0-1.8-.6-2.8-1-1.9-4-4.5-8.4-5.4z" class="st0" fill="#fff" transform="matrix(.5516 0 0 .52231 -8568.7 -5722)"/><path d="M15987.3 11660l1.4-.2-.7-1.9a27.5 27.5 0 01-13.6-10.5l-2.2-3.3-.3-.4h.5l4 .2h.4a14 14 0 003.5-.5l-1.4-2a27 27 0 01-12.3-10.4l-2-3.4-.2-.4h.5l1.7.2a50.2 50.2 0 00-21.7-12.5c-2-.5-3.9-.8-5.8-.8-6.7 0-12.2 3.6-18.3 9 20 1.4 36.2 17.3 48 31.1h.1a19.3 19.3 0 0113.8 15.7v1.6l.1.2c.5-1.5 1.2-3 1.8-4l1-2.2-1.5-2-2-3.4-.4-.4h.5l4 .3h.5s0 0 0 0l.1-.4zM16008.4 11688.7c-1.6 2.3-3.5 5-4 8.1-.8 3.5.2 6.5 1.3 8 .6.7 1.2 1.1 1.8 1.2h.3c2.8 0 5.7-4.5 6.4-8.4a19 19 0 00-3-13.3c-.7 1.4-1.7 3-2.8 4.4z" class="st0" fill="#fff" transform="matrix(.5516 0 0 .52231 -8568.7 -5722)"/><path d="M16015.7 11677.2c-1-.3-2.3-.4-3.5-.4-2.4 0-4.6.5-6.8 1-1.9.3-3.8.7-5.4.7h-.4c2 3 4.7 5.6 7.8 7.5.6-.9 1.3-1.9 1.6-2.9l1.3-3.7.2-.5.3.4 2.2 3.3c1.2 1.7 2.2 3.8 3 6h.1c3.5 0 7.3-1 8-3.6.2-.7 0-1.6-.6-2.5a12.3 12.3 0 00-7.8-5.3zM16026 11691.7a21 21 0 00-2.6-.2c-2.4 0-4.6.5-6.7 1 .2 2 .2 3.8 0 5.4l-.8 2.6a21 21 0 007 2.8c.8.2 1.8.2 2.8.2 4.1 0 8.8-1.5 9.4-4.4.2-.7 0-1.6-.8-2.6a12.8 12.8 0 00-8.4-4.8zM15999.3 11676H16000.2l-1-1.7-.7 1.5zM15997.2 11679.3l-.3-.4a19.4 19.4 0 00-3 7.7c-.3 3.4.8 6 2 7.2.4.6 1 1 1.5 1 2.6 0 5.1-4.6 5.4-8.5v-.3s0 0 0 0c-2.2-2-4.2-4.3-5.6-6.7zM15977 11674.5c.4 0 1 0 1.2-.2 1.4-.6 2.2-2 2-4-.4-4.6-5-11.8-11.7-13.5-1.3 5.1.7 11 3.3 14.4 1.7 2.1 3.5 3.3 5.2 3.3zM16025.7 11706.1c-1.2 0-2.3 0-3.3-.3-1.2-.2-2.4-.6-3.6-1-.8 2-1.3 3.7-1.4 5.4-.2 4 1.3 7 2.6 8.3.7.8 1.4 1.2 2.1 1.2 3.1 0 5.8-5.4 6-9.9 0-1.2 0-2.5-.3-3.9l-2 .2zM16038.5 11706.7c-.9-.2-1.8-.2-2.8-.2-1.5 0-3.2.2-5.2.6.1 1 .2 2 .1 2.8 0 2.1-.7 4.4-1.6 6.4a18.6 18.6 0 009.1 2.5c4.3 0 9-1.5 9.7-4.4.2-.7 0-1.7-.7-2.7a14.2 14.2 0 00-8.6-5zM16056 11598.6c-1 1.4-2.5 2.7-4 4.1-2.3 2.1-5 4.4-6.4 7.6a10.7 10.7 0 00-.3 8.4c.4 1 1 1.6 1.7 1.8l1 .1c3 0 6.8-4 8.3-7.5 1.3-3.2 2-8.9-.3-14.5zM16035.5 11593c1-1 2.1-3.5 1.6-9-.3-3.2-1.8-6.4-4.5-9.8-1.6-.4-3.2-.6-4.9-.8h-.5 0c-3 6.8-1.6 13.1.8 16.8 1.6 2.4 3.6 4 5.4 4 .7-.2 1.5-.5 2.1-1.2zM16011.1 11606.4c-.4-16.4-10.3-24.8-17.6-31l-3.8-3.5h-6.4c.3 3.3 1.7 6.5 4.2 10l1-2 .2-.4.2.4 1.8 3.5a15 15 0 011.4 3.7c2.1 2.1 4.4 4.1 6.6 6 5 4.5 9.7 8.6 12.4 13.3zM15975.7 11594c1.3-.6 2.1-1.9 2.4-3.7 1-6-4.9-13.7-10.6-18.9h-1.4c-2.9 7.4-1 14.4 1.8 18.5 2 2.8 4.3 4.5 6.3 4.5.6 0 1.1-.2 1.5-.4zM15970 11501.3a26.9 26.9 0 01-5.3 3.8c-2.9 1.8-6.3 4-8.5 7.4a16.6 16.6 0 00-2.4 8.3l11.8.7 1.4-1.9a28.7 28.7 0 003-18.3zM15991.7 11511.4a23.4 23.4 0 00-9.7 5.6 14.2 14.2 0 00-3 5l15.3.4c2.2-4 3.4-9 3.3-13.8-1.7 1.2-3.8 2-5.9 2.8zM16028.4 11502.6c-2.9 2.6-6.6 4.1-10 5.6-6.7 2.7-13 5.2-14.6 14.5 5.6.2 10.1.6 14.2 1.5 5.1-4.6 7.6-11.2 10.4-21.6zM16020.5 11525c4.8 1.2 8.7 3.1 12.1 5.6 1.3-7.9 3.3-13 7.8-19.9a52.9 52.9 0 00-19.9 14.2zM15933.2 11517.3l-2.4.1a73 73 0 0012.2 2.4l-2.4-1.2c-2-.9-4.4-1.3-7.4-1.3z" class="st0" fill="#fff" transform="matrix(.5516 0 0 .52231 -8568.7 -5722)"/><path d="M16063 11593c-1.5-11.6-21.2-46.8-27.3-54.4-7.6-10.5-21.4-12-32.5-12.4h-3.2c-46.6-1.3-70-1.9-80.5-10.6-4-3.4-8.3-8.3-12-21.2a113 113 0 001.3 44.1 34.7 34.7 0 0016.4 22 46 46 0 0017.7 5.4c16.6 2 35 2.3 51.2 2.6 12.7.2 24.6.4 34 1.4a38.1 38.1 0 0132.7 23.8c1 2.6 1.5 7.3 1 11.1 1.6-3.5 1.5-8.3 1.1-11.9z" class="st0" fill="#fff" transform="matrix(.5516 0 0 .52231 -8568.7 -5722)"/><path d="M15930.1 11513.5c2 1 4.4 1.3 6.5 1.3 3 0 5.1-1 5.5-2.5.6-2-2.9-7.2-8.4-9.4-2-.9-4.4-1.3-7.4-1.3l-3.5.1-3 .1c-1.3 0-2.3 0-3.2-.3a29.9 29.9 0 0013.5 12zM15918 11486.5c-2.3 0-4.4 0-6.3-.4 3 5.7 8.6 9.7 12.6 11.5 2.2 1 4.8 1.6 7.1 1.6 2.6 0 4.5-.8 5-2 .8-2-2.4-6.8-7.7-9-3.5-1.7-7.4-1.7-10.8-1.7zM16000.1 11522.6h1.5c-.7-2-1.6-3.9-2.6-5.5-.5 2-1.2 3.7-2 5.4zM15977 11496l-.7-1.2-.2 2 .8-.8zM15981.7 11514.1l-1 1-.4-.6c.5 0 1-.2 1.4-.4zM15989.2 11509.4c0 .2-.3.3-.4.5l1.7-.6-.7-.4c-.3.1-.4.3-.6.5zM15995.3 11494c-2.8-3-6.3-4.5-9.3-5.9-2-.9-3.9-1.8-5.4-2.9.8 7 4.2 12.8 7 15.8 2.8 3.1 7 5.4 9.7 5.4 1 0 1.6-.2 2-.7 1.5-1.5.3-7.3-4-11.7zM15977.7 11512.7c3 0 7.1-2 9.6-5l1.7-2.2a31 31 0 01-3.3-2.9 28 28 0 01-4.5-6.7 14.9 14.9 0 00-7.5 10.4c-.4 2.4 0 4.4 1 5.3.7.7 1.7 1.1 3 1.1z" class="st0" fill="#fff" transform="matrix(.5516 0 0 .52231 -8568.7 -5722)"/><path d="M15982.1 11475.3a23.4 23.4 0 00-9.7 5.6c-1.9 2-3.2 4.7-3.7 7.4-.4 2.4 0 4.4 1 5.3.6.7 1.7 1.1 3 1.1h1.1l.4-1.5 1.8-3.8.2-.5.2.5 1.7 3.6 1.4-.9a33 33 0 01-1.6-7.3l-.4-4.7v-.6l.4.4 3.7 3c1 .8 2.4 1.5 3.6 2.1 1.8-3.8 2.7-8 2.6-12.4a23.3 23.3 0 01-5.7 2.7zM15983.2 11467.4c0 1.5.2 3 .5 4.6 1.4-.6 2.3-1 3-1.7l.7-.5c-1.6-.8-3-1.5-4.2-2.4zM15997 11475.7a20 20 0 00-6.6-4.6v1c.1 3.5-.4 7.3-1.6 11 2.4 2.7 6.2 4.7 8.8 4.7 1 0 1.7-.3 2.2-.8 1.5-1.4 1-7-2.9-11.3zM16008.2 11507c2.8 0 6.4-1.9 9-4.5 2.7-2.8 6.1-8.7 6.6-16-1.6 1-3.5 1.6-5.5 2.3-3 1.1-6.6 2.2-9.3 5a16 16 0 00-4 7c-.6 2.1-.5 4.1.3 5a4 4 0 003 1.1zM16004.3 11486.8c.6.6 1.4 1 2.5 1a12 12 0 007.7-3.8 23 23 0 005.7-13.8c-1.3 1-3 1.4-4.7 2-2.7 1-5.7 2-8 4.3-3.6 3.6-4.5 8.8-3.2 10.3zM15999 11458.2a18.5 18.5 0 00-7.7-4.7c-1.7-.7-3.3-1.3-4.6-2.3a20.7 20.7 0 004.4 13.8c2.1 2.4 5.3 4.2 7.7 4.2 1 0 1.7-.3 2.3-.8 1.5-1.4 1.1-6.5-2-10.2zM15920.2 11469.6c2.4 0 4-.7 4.6-2 .8-1.8-1.6-6.5-6.2-8.7-3-1.5-6.3-1.5-9.2-1.6-1.9 0-3.7 0-5.2-.4 2.4 5.8 6.7 9.7 9.8 11.2 2 1 4.2 1.5 6.2 1.5zM15926.2 11484.2c2.4 0 4-.7 4.6-2 .8-1.8-1.6-6.5-6.2-8.7-3-1.5-6.3-1.5-9.2-1.6-1.9 0-3.7 0-5.2-.4 2.4 5.8 6.7 9.7 9.8 11.2 1.8 1 4.1 1.5 6.2 1.5zM15982.5 11452.5a23 23 0 01-5.8 3.2c-3.2 1.5-6.9 3.2-9.6 6.5a17.4 17.4 0 00-3.5 8c-.4 2.5 0 4.6 1 5.5a4 4 0 002.7 1c3.1 0 7.3-2.6 10-5.9a28.5 28.5 0 005.2-18.3zM15945 11498.3v0l-1.5.2 1.1 3c.2-1 .6-2 1-3-.3 0-.5 0-.7-.2zM15962.6 11486l-.4.3.5.6v-1zM15940.3 11480.3l-.9-.3.3 1.2.6-.9zM15945.5 11457.5c-1 1.3-2.5 2.6-4 4-2.4 2-5.2 4.4-6.7 7.6-2.3 4.8-1.3 10.2.6 11.2.4.2 1 .3 1.4.3h.3v-.6l-1-4.2-.2-.5.5.2 3.8 2 1.5.5c1.2-1.2 2.2-2.6 3-4 1.5-3.9 2.4-10.7.8-16.5zM15956 11468.2l.4 2.4c.5 2.5.7 5.2.6 8a4 4 0 001.6-1.2c1-1.6.2-5.6-2.7-9.2zM15952.4 11469.7l2.2-2.9c-.6-.6-1.2-1.2-1.9-1.6-1.2-.9-2.5-1.6-4-2.2.1 4-.5 8-1.7 11l.8-.6c2-1.3 3.6-2.4 4.6-3.7zM15948.3 11458.7c1.2.4 2.3.6 3.3.6 1.5 0 2.7-.4 3.4-1.3 1.6-1.9.1-8.4-4.8-12.7-3.3-2.9-7.2-4-10.7-5-2.3-.8-4.5-1.4-6.3-2.5 1.1 8 5.1 14 8.4 17 .5.5 1.1 1 1.8 1.4l.4-.5 2.3-3.5.3-.4.2.5 1.2 4 .5 2.4zM15930 11465.1c.4.2 1 .4 1.4.4 2.3 0 5.5-2.6 7.1-5.7l1.2-3.3a25.5 25.5 0 01-5.2-7 21.4 21.4 0 00-4.6 5.7c-2.3 4.1-1.6 9 .1 10z" class="st0" fill="#fff" transform="matrix(.5516 0 0 .52231 -8568.7 -5722)"/><path d="M15937.7 11437.1l-1.2-1a32.3 32.3 0 01-9.2-18.9 71.6 71.6 0 00-5.5-4c-3.4-2.4-7.3-5-10-8.4 1.3 8 4.6 17.2 9.6 27.4a28 28 0 016 11c1 2 2.2 4 3.5 6.1l2.4-2.4a30 30 0 01-2.6-9.5l-.5-4.3v-.5l.3.3 3.6 2.4a11 11 0 003.6 1.8zm-8-4.3l-.2.1v.1h-.3a22.2 22.2 0 01-6.9-8l-.6-1-2.8-5-2.4-5.2v-.2h.1l.2-.2h.2l.1.1 3 4.8 3.2 4.6 1.4 1.8 2 2.8c1 1.6 2 3.2 2.8 5l.1.2zM15951.8 11489.1a28.3 28.3 0 002.3-17.5 23 23 0 01-4.7 3.8 22.5 22.5 0 00-7.7 7.4 16.6 16.6 0 00-2 7.8c0 2.3.5 4.2 1.5 5 .5.2 1.1.4 1.8.4 2.8 0 6.7-3 8.8-6.9zM15977.8 11433.2a23 23 0 01-5.8 3.2c-3.2 1.5-6.9 3.2-9.6 6.5a17.4 17.4 0 00-3.5 8c-.4 2.5 0 4.6 1 5.5a4 4 0 002.7 1c3.1 0 7.3-2.6 10-5.9a29.1 29.1 0 005.2-18.3zM15974.6 11413a23 23 0 01-5.8 3.1c-3.2 1.5-6.9 3.2-9.6 6.5a17.4 17.4 0 00-3.5 8c-.4 2.5 0 4.6 1 5.5a4 4 0 002.7 1c3.1 0 7.3-2.6 10-5.9a28.1 28.1 0 005.2-18.3zM15980.1 11449a3 3 0 001.7-.5c.6-.3 1-1 1.2-2a11 11 0 00-2.4-8.4c0-.2-.2-.3-.4-.5a32 32 0 01-2.8 10.7c1 .4 2 .6 2.7.6zM15986.1 11429.7c.3-1.9-.3-5.2-2.8-8.3a20.8 20.8 0 00-6.2-4.7c-.3 3.8-1.2 7.5-2.6 10.8 1 1 2 1.8 3 2.6l2.1-2 .4-.4v.5l.2 3.2c1.1.4 2 .6 3 .6.6 0 1.3-.2 1.8-.5.5 0 1-.8 1.1-1.8zM15972.4 11432l-.3-.2-.8 1a36 36 0 01-1.9 2.1l1.5-.7 3-1.4-1.5-.9zM16044.7 11209.8c4-4.8 7.8-13.6 6.5-21.9-1.7 1.4-3.5 2.6-5.3 3.8-4.4 3-9 5.8-11.3 12.1-1.8 5-1.7 8 .5 9.6a4 4 0 002.5 1c2.2-.2 4.7-1.7 7.1-4.6zM16074.1 11189.7c-6.2 0-12.5 1.8-20.4 5.7-.4 2.6-1 5.2-2 7.7 5-3.9 12.5-8 18.1-8.7h.6l-.3.4c0 .1-9.6 13.6-23.8 17.1l-.8.8-2 2.7H16045.2l2.4.1 2 .1h.1v0a40.8 40.8 0 0023.1-15.9c3.3-3.9 6.3-7.3 10-8.8a31 31 0 00-8.8-1.2zM16034.3 11198.8l.3-2c1-6.6 2.4-12.9 4.6-18.8 0-4.8-.7-9.8-2-15.3a99 99 0 01-9 18.8c-5 8.6-9.3 16-7.9 23l.2-.5.6-1.2 2-3.6.1-.4.2.5.8 2a58.1 58.1 0 007.9-17.9l.6-2.3v2.3c-.4 7.1-2.3 13.3-3.9 18.8l-1.2 4.4v0l.1.2 1 1v.2l.7 1c.6-1.3 1.2-2.5 2-3.7l.5-1.2.3-.9c.6-1.7 1.3-3 2.1-4.4zM16081.7 11129.7c-17.5 14.1-39.2 31.6-44.4 65.3 2.2-2.2 4.7-3.8 7.2-5.4 2-1.2 3.8-2.4 5.4-3.9l2.7-2.3.3-.3.1.4.3 1.4c27.4-21.7 44-47.7 45.8-71.6-3.8 5.5-10 10.5-17.4 16.4z" class="st0" fill="#fff" transform="matrix(.5516 0 0 .52231 -8568.7 -5722)"/><path d="M16129.6 11143c-14.5.1-31.3 4.2-43.2 10.6a159.2 159.2 0 01-32.7 34.2c.2 1.5.3 3 .2 4.6a46 46 0 0120.1-5.3l3.3.2a109.8 109.8 0 0152.3-44.4zM15961.1 11501.2l-1.8.2c-3.4 0-7.5-1.4-10.7-3.6a17 17 0 00-2 7.6c0 2.4.5 4.3 1.5 5 .6.4 1.3.6 2.1.6 3 0 7.2-3 9.5-6.9.5-.7 1-1.8 1.4-2.9zM15949.7 11495.6l.2.1c2.8 2 6.5 3.2 9.4 3.2 1.4 0 3.4-.3 4.3-1.8 1.3-2-1-8.3-6.4-11.9l-1-.6c-.5 2.2-1.3 4.1-2.2 5.8a23.3 23.3 0 01-4.3 5.2zM15925.2 11452.1c1.3-5.3-1-17.5-12.5-23.4-1 7 .1 15.1 2.5 19.6 3.4 6.2 6 7.1 7.1 7.1 1.4 0 2.4-1.2 3-3.3zM15995.4 11340.8c1-1.9 1.5-5.7-.2-9.9-1.5-3.8-4.5-6.6-7-9-1.7-1.8-3.4-3.4-4.4-5a22.6 22.6 0 00-.6 16.6c1.7 4.3 6.1 9.2 9.6 9.2h.8c.6-.2 1.3-.9 1.8-1.9zM16029.7 11222.7c.8-1.5 1.5-4.4.5-7.6-.8-2.9-2.8-5-4.5-7-1-1.3-2.2-2.4-2.9-3.7a19 19 0 00-1.5 12.8c1 3.3 3.8 7 6.3 7h.6c.5-.2 1.1-.7 1.5-1.5zM16038.1 11228.1c1.7 0 3.6-.4 5.1-1 2.8-1.3 6.7-4.5 9-9.4l-2.7.2h-2l-2.4-.2a15 15 0 00-6 1 10 10 0 00-5.5 5.2c-.3.8-.4 1.6-.2 2.1.6 1.4 2.4 2.1 4.7 2.1zM15995 11224.7c3.5-5.4 3.2-10.7 3-15.8-.2-2-.3-4.2-.2-6.3-8.7 4.7-14.7 16.1-14 23 .2 1.6 1 3.8 3.2 4.4l1.1.2c2.2 0 4.4-1.8 6.8-5.5z" class="st0" fill="#fff" transform="matrix(.5516 0 0 .52231 -8568.7 -5722)"/><path d="M16002.4 11226.4c15.7-14.6 19.4-32.2 11-52.3-2.6 8.4-6.2 14-9.3 19-1.2 2-2.4 3.7-3.4 5.6v.1l-.3 3.6c-.2 2.1 0 4.2.1 6.4l.2 3.3a44.6 44.6 0 019.4-17l.3-.3.1.4c1.8 5.5 0 11.2-2 15.1a36.7 36.7 0 01-9.2 11.6 21 21 0 01-2.2 4.2l-1.4 2 .1.5v.1a20 20 0 005.7-1.7zM15988 11244.4c2.3 0 5.5-1.2 7.7-3a20 20 0 006.5-12c-1.4.6-3.2 1-5 1.5-2.8.7-5.9 1.4-8.5 3.4a10.1 10.1 0 00-4.2 7c0 .8.1 1.6.5 2 .6.8 1.6 1.1 3 1.1zM15981.3 11240.2c1-1.5 1.7-4.6.8-8-.9-3.3-2.9-5.7-4.8-7.9a28.3 28.3 0 01-3-4.2c-2.9 5-2.9 10.4-2 13.6 1 3.8 4 8 6.8 8h.5c.6-.2 1.2-.7 1.7-1.5zM15994.7 11201.6c-.4-3.3-1.3-6.3-4-12.2-1.7 7.4-4.7 12.8-7.4 17.7-2.6 4.8-4.9 9-5.5 14l1.3 1.6 2.2 2.7c-.6-8.5 6.4-19 13.4-23.8zM16022.4 11238c1-1.7 1.6-4.8.6-8.3-.9-3.2-3-5.6-4.9-7.7-1.2-1.4-2.4-2.7-3-4a20.5 20.5 0 00-1.8 14c1 3.6 4.2 7.7 7 7.7h.6c.4-.3 1-.9 1.5-1.7zM16031.6 11244c2 0 4-.5 5.6-1.3 3-1.3 7.4-4.8 9.8-10.3-.8.2-1.7.2-2.9.2h-2.3l-2.5-.2c-1.8 0-4.2.1-6.6 1.1-3.4 1.4-5.4 4-6 5.8-.5 1-.5 1.7-.3 2.3.7 1.5 2.6 2.3 5.2 2.3zM16009.7 11236.2c-1.3-1.6-2.6-3-3.3-4.6a22.6 22.6 0 00-2.3 15.4c1 4.1 4.4 8.7 7.4 8.7h.7c.6-.3 1.3-.9 2-1.8 1-1.8 1.8-5.2.8-9-1-3.7-3.3-6.4-5.3-8.7zM16024.2 11260.6c2 0 4-.4 5.8-1 3.4-1.5 8.2-5.2 11-11l-2.5.1h-3.2l-3.6-.3c-2.5 0-4.5.3-6.3 1.1-3.7 1.5-6 4.2-6.8 6.1-.4 1-.5 2-.3 2.5.7 1.6 3 2.5 6 2.5zM16000.3 11251c-1.5-1.7-3-3.4-3.9-5a25.1 25.1 0 00-2 17.4c1.6 5.6 5.8 9.5 8.6 9.5h1c.6-.3 1.4-1 2-2 1-2 2-6 .6-10.4-1.3-4-4-7-6.3-9.5zM15991.1 11258.5c0-4 .7-8.3 2.2-12a24 24 0 00-9.7 3.3 12.2 12.2 0 00-5.2 7.7c0 1.1 0 2 .5 2.5.7 1 2 1.4 3.7 1.4h1.6v0l.4-.8 2-3.5.2-.4.2.5 1.3 3a23 23 0 002.8-1.7zM15975.5 11257.1c1-1.8 1.8-5.3.6-9.3-1-3.6-3.6-6.3-5.8-8.8-1.4-1.6-2.8-3.2-3.7-4.8a22 22 0 00-1.8 15.6c1.2 4.2 5 9 8.2 9 .2 0 .4 0 .7-.2.6.1 1.2-.5 1.8-1.5zM16033.1 11265.2c-1.2 0-2.5 0-3.9-.2l-4.5-.2c-2.6 0-4.8.3-6.7 1.1a14.6 14.6 0 00-7.8 6.8c-.5 1.1-.6 2.1-.3 2.8.7 1.8 3.3 3 6.8 3 2 0 4-.4 5.7-1 1.3-1.2 2.7-2.2 4.1-3.2l2.2-1.6.3-.2.1.3.2.6c2.7-2.3 5-5.2 6.4-8.3l-2.6.1zM16023.2 11297.7c4.1-5.8 6.2-15.6 4.4-21.2-10.7 8-15 16.2-14.7 21 .1 1.7 1 3 2.2 3.6.7.4 1.5.6 2.2.6 2 0 4.1-1.4 6-4zM16188.3 11727.4a24.7 24.7 0 00-9.4-11.4c-2-1.8-14.4-7.8-25.3-13-6.5-3-12.7-6-15.4-7.6-6-2.9-11.2-4.8-17-4.8-5.7 0-11.5 1.8-18.3 5.7l-6 3.4c-34.3 19.4-69.8 39.5-93 39.5-7.9 0-13.9-2.2-18.5-6.8.8 11.6 30.7 41.2 45.1 44.3 1.7.4 3.6.6 5.6.6 19.3 0 47.2-18.3 71.8-34.5 20-13.2 39-25.6 51.3-27.2l3.2-.2c7 0 12 3 12.1 3a29.1 29.1 0 0114.4 18.3 19 19 0 00-.6-9.3z" class="st0" fill="#fff" transform="matrix(.5516 0 0 .52231 -8568.7 -5722)"/><path d="M16130.5 11745.1h3.6c2.2 0 4 .1 5.3.4a67.8 67.8 0 00-8.6-13.4c-5.3 3.2-10.8 6.8-15.5 10 3.4 2.7 7.7 3.1 11.5 3.1h3.7zM16128.8 11763.2c-.7-3.3-3.3-8.3-8-11.5 0 1.7-.5 3.5-1 5.5a24 24 0 00-.8 9.7c1 4.7 4.2 7.6 6.1 7.6h.5c3-1 4.1-7 3.2-11.3zM16541 11760.1c.8 0 1.6 0 2.4-.2 2.3-.4 8.1-2 11.8-7.3-1.8 0-3.8-.8-5.8-1.6-2.5-1-5-2-7.9-2l-1.7.1c-3.5.6-6 2.7-7 4.4-.6 1-.8 2-.6 2.6 1 2.7 5.2 4 8.8 4zM16596.8 11802.7c2-2.3 3.8-4.5 5.7-6a45.5 45.5 0 00-26.2 6l3.4 1.5.5.2-.4.2-3.6 2c-1.7 1-3.7 1.8-5.8 2.4-.8 1.4-1.4 3.3-.5 4.7.2.4.7.7 1.3 1 2.4-3.4 5.6-6.3 9.4-8.4 4.1-2.3 8.8-3.7 13.5-4l.1.4c-4.5 1-8.7 3-12.2 5.7a25.7 25.7 0 00-5.8 6.1l2.3.2 1.7.2c2-.5 4-1.2 5.8-2.2a40 40 0 0010.8-10zM16535.4 11906.5c6.1-12-.3-20.5-.6-20.9a24.7 24.7 0 00-10.3-7s-5.5-2.9-16-2.9c-14.6 0-30.8 6.4-49.6 14-10 4-21.4 8.4-33.9 12.4 1.4-.2 2.7-.2 4.1-.2 3.1 0 6.1.4 9.3.8 7 1 15.3 3.5 21 5.4 4.5 1.5 7.3 2.7 9.8 3.7l3.1 1.2a84.9 84.9 0 0029.6 6.2h1.7c17-.4 27.7-4.7 31.8-12.7zM16531.2 11735.5c-1-1.9-2.3-3.8-2.4-6.6a20.7 20.7 0 00-5.9 13.1c0 4.4 2.3 9.8 5.4 10h.1c2.2 0 5.2-5 5.2-10 0-2.7-1.2-4.6-2.4-6.5zM16542 11746.2a10 10 0 006-2.6 50.7 50.7 0 0012.2-17l-3.8-2c-8 1.8-16.5 8.3-18.6 14.2-.8 2.2-.6 4.1.6 5.5a4.1 4.1 0 003.6 2zM16569.7 11732.2a67.8 67.8 0 00-8.6 13.4 44.5 44.5 0 018.9-.4l3.8.1c3.8 0 8.1-.4 11.5-3.2l-15.6-9.9z" class="st0" fill="#fff" transform="matrix(.5516 0 0 .52231 -8568.7 -5722)"/><path d="M16636.2 11912.5c-18.7 0-34.9-4.5-44.6-12.5l-.4-.3h.5c30.6-5.2 48-16.7 55.8-37.6a91.7 91.7 0 01-47.8 13c-12.9 0-25.2-2.4-36-4.4-9.4-1.7-18.2-3.4-26.2-3.4-4.8 0-8.9.6-12.6 1.8 5.6 4.2 10 8.7 13.6 14a26.8 26.8 0 011 25.1c-6.6 14.7-28.5 15.2-35.7 15.4h-1.8a89.8 89.8 0 01-34.4-7.8 146.4 146.4 0 00-29.8-8.8c-3-.4-5.9-.8-8.7-.8-1.9 0-3.7.2-5.6.5-4 .8-8.8 1.6-12.5 5.7a18 18 0 00-4.4 11.2c0 4.5 1.6 7.8 2.3 9.2 0 0 2.1 4.1 6 7.1 5.2 4.2 13.7 5.1 20 5.1a108 108 0 0035.7-7.4c3.7-1.3 8-2.8 13.1-4.4.1 0 18.5-5.9 36.8-8.5 4.8-.7 9.8-1 15.3-1 11.6 0 23.1 1.6 34.2 3.1l13.4 1.7c5.2.6 10.5 1 15.7 1 26.3 0 49.4-7.8 59-19.7a80.6 80.6 0 01-21.9 2.7zM16508 11840h-.6.6zM16516.1 11843.1l-1-.7 1 .7zM16526.3 11858h-1.4 1.4zM16514 11841.8l.7.4-.7-.4zM16511.8 11841l.7.2a1 1 0 00-.7-.3zM16513 11841.3l.6.3-.7-.3zM16506 11840.1s0 0 0 0 0 0 0 0zM16504.1 11840.6l-.2.1h.2zM16504.7 11840.4l-.2.1h.2zM16507 11840h-.4.3z" class="st0" fill="#fff" transform="matrix(.5516 0 0 .52231 -8568.7 -5722)"/><path d="M16508.6 11853.4a26 26 0 0014.7 4.4h2.4a26 26 0 01-3.3-5.5c-1.6-3-3.3-6.5-6.5-8.9a15.1 15.1 0 00-8.7-3c-1.8 0-3.2.4-3.8 1.2-.6.8-.8 1.8-.7 3.1.4 2.8 3 6.5 6 8.7zM16510.7 11840.5l.8.2c-.3 0-.6 0-.8-.2zM16505.2 11840.2h-.2.2zM16515 11856.8l1.7.5-1.7-.5zM16513.2 11856.2l1.6.6-1.6-.6zM16511.5 11855.4l1.5.7-1.5-.7zM16519.2 11857.7a12.3 12.3 0 000 0zM16517 11857.3l1.8.3c-.6 0-1.2 0-1.8-.3zM16510 11854.6c.3.3.8.5 1.2.7l-1.3-.7zM16523.5 11858h1-1zM16503.6 11841s0 0 0 0 0 0 0 0zM16509.3 11840.2l1 .2a3 3 0 00-1-.2zM16508.3 11840.1l1 .1h-1zM16521.1 11858l2 .1h-2zM16508.5 11853.6l1.2.8-1.2-.8zM16503 11846.6l-.6-2.5c.1.8.2 1.6.6 2.5zM16529.8 11852.5a20.5 20.5 0 0015.2 3c-1.3-1.5-2.5-3.4-3.7-5.3-1.8-3-3.9-6.3-7-8.6a12.5 12.5 0 00-7-2.5c-2 0-3.4.6-3.9 1.6-1.5 3.1 2.3 9 6.4 11.8zM16503.4 11808.2c-.2 0-.4 0-.6-.2l.6.2zM16502.4 11807.8c-.2 0-.4 0-.6-.2l.6.2zM16505.3 11808.7h-.6.6zM16504.3 11808.5c-.2 0-.4 0-.6-.2l.6.2z" class="st0" fill="#fff" transform="matrix(.5516 0 0 .52231 -8568.7 -5722)"/><path d="M16507.1 11809.2c-2 0-4-.9-6.2-1.7-2.8-1-5.7-2-9-2h-2c-3 .4-6 1.6-8.5 3.4-2.2 1.6-3.6 3.4-3.6 4.8 0 .8.3 1.6 1 2.3 1.8 2 6.1 3.5 10.2 3.6 3.8-3.2 9.2-5.4 14.4-5.8 1.3-1.2 2.5-2.7 3.7-4.6z" class="st0" fill="#fff" transform="matrix(.5516 0 0 .52231 -8568.7 -5722)"/><path d="M16501.3 11807.5c-.3 0-.5-.2-.8-.3l.8.3zM16507.6 11809h-.9 1zM16491.4 11805.2h-.4c.1.1.2 0 .4 0zM16494.6 11805.5l.5.1h-.5zM16495.8 11805.7l.4.1h-.4zM16493.4 11805.3l.5.1h-.5zM16497 11806l.2.1h-.2zM16498.4 11806.4l.3.1h-.3zM16492.7 11805.3h-.5.5zM16506.3 11809l-.6-.2.6.1zM16499.4 11806.8l.4.2-.4-.2zM16467.2 11798.8l.1.5v-.5zM16467.1 11797.7v0zM16467.3 11800l.1.3v-.4zM16471 11808l.2.1s-.2 0-.3-.2zM16473 11809h0zM16480.7 11797.1c.2-4.3-1.6-8.2-3.2-11.7-1-2.3-2-4.5-2.4-6.5-5 5.2-7.5 12.6-7.7 17.8-.2 4 1.1 8.4 3.3 10.7a4 4 0 003 1.5c2.7 0 6.7-6 7-11.8zM16472.2 11808.8l.3.1h-.3zM16471.6 11808.4l.3.2s-.2 0-.3-.2zM16468.6 11804.6l-.2-.5.2.5zM16470.1 11807l-.3-.4.3.4zM16467.6 11801.5v-.5.5zM16470.3 11807.3l.3.3s-.2 0-.3-.3zM16469.5 11806.3l-.3-.4c.2.1.3.2.3.4z" class="st0" fill="#fff" transform="matrix(.5516 0 0 .52231 -8568.7 -5722)"/><path d="M16468 11802.6l-.3-.5.2.5zM16469.1 11805.5c0-.2-.2-.3-.3-.5l.3.5zM16468.2 11803.6c0-.2 0-.3-.2-.5l.2.5zM16530.1 11774h1.3a23 23 0 0014.2-7.6c-1.8-.2-3.7-.9-5.7-1.7a24.8 24.8 0 00-9-2.2h-1c-4.2.3-7.3 2.3-8.7 4-.7 1-1 1.7-1 2.4.3 3 5.4 5.1 10 5.1zM16496 11785V11784.8zM16489.1 11794.3h0zM16496.1 11784v-.3.3zM16490.3 11794l.3-.2-.3.1zM16489.7 11794.2h0z" class="st0" fill="#fff" transform="matrix(.5516 0 0 .52231 -8568.7 -5722)"/><path d="M16493.3 11773c-1.3-3.4-2.6-6.4-2.6-9-5 5.1-7.6 12.6-7.9 17.8-.3 4 1.1 8.5 3.1 10.7a4 4 0 003 1.5c2.7 0 7-5.3 7.1-11.6 0-2.7-1.4-6-2.7-9.5zM16491.5 11793.1l.3-.2-.3.2zM16491 11793.6l.2-.2-.3.2z" class="st0" fill="#fff" transform="matrix(.5516 0 0 .52231 -8568.7 -5722)"/><path d="M16494.4 11789.5l.2-.4c0 .1 0 .3-.2.4zM16494 11790.4l.1-.4c0 .1 0 .3-.2.4zM16492.1 11792.6l.3-.3-.3.3zM16492.7 11792l.3-.4-.3.3zM16493.3 11791.2l.2-.3c0 .1 0 .2-.2.3zM16494.8 11788.6l.2-.5c0 .2 0 .3-.2.5zM16495.6 11786.4l.1-.5v.5zM16495.3 11787.5l.2-.4-.2.4zM16508.7 11768.4c-.3-3.8-2.3-7.2-4-10.2-1-2-2.2-3.9-2.7-5.7-4.4 5-5.7 11.3-5.4 15.1.4 5 3.6 11 7.1 11.1 0 0 0 0 0 0 .8 0 1.7-.5 2.4-1.3 1.4-1.6 3-4.9 2.6-9zM16521 11776.2c-.4 0-.8 0-1.3-.2l1.3.2zM16522.5 11776.5l-1.2-.3 1.2.3zM16527 11778.1c-2.8-.9-5.7-1.9-8.8-1.9l-1.7.1a13 13 0 00-8.5 4.5c-.8 1-1 2-1 2.8.3 2 2.4 3.7 5.7 4.5a28 28 0 012.8-3l3-2.8.3-.3.1.5.4 4 .4 1.8a20 20 0 004.3-1.5c1.1-2.8 2.8-5.5 4.8-7.9l-1.9-.8zM16519.6 11776h-1.3 1.3zM16524 11777l-1.3-.4 1.2.3zM16516.4 11776.1h1-1zM16528 11778.2h-.3.2zM16518.2 11776h-.6.6zM16525.2 11777.3c-.4 0-.8-.3-1.2-.4l1.2.4zM16526.5 11777.8c-.4 0-.8-.3-1.2-.4l1.2.4zM16504.1 11723.4a91.5 91.5 0 01-27.6 27.7c-2.5 1.4-11.8 6-12.9 6.5-18.7 9.4-26.4 24.6-34 39.3-6 11.8-11.7 23-22.6 31.3a131.2 131.2 0 0032.6-20.6l1.5-1.4 4.4-4.2 1-1 1.8-2 2.8-3c7.4-8.6 13.3-18 17.5-28.3l.5.2a106.8 106.8 0 01-14.4 30.8l-2.5 3.5c-.5.8-1 1.5-1.7 2.2l-.9 1.2c-1.3 1.8-2.8 3.4-4.2 5.1l-1.4 1.6c-4.6 5-8.6 8.8-12.5 12.1l-.7.6a159 159 0 0034.4-22.2 19 19 0 01-.7-6.2c.3-5.3 2.8-13.7 8.8-19.8l3-2.9.3-.4.1.5.5 4.1c.2 1.8 1.2 4 2.2 6.3l.7 1.5c-.2-1.4-.3-2.9-.2-4.2a33 33 0 019.1-19.9l3.7-3.6.5-.4v.6l-.3 5.2c0 1 .2 2.2.7 4l.1-.3.1-.2a24.8 24.8 0 016.4-16.7l.2-.2c4.2-13.7 4-24 3.7-26.8z" class="st0" fill="#fff" transform="matrix(.5516 0 0 .52231 -8568.7 -5722)"/><path d="M16475.7 11718.3l1.6-8.2-4.7 4.8c-4.6 4.5-8.9 7.8-13 11l-3.7 3-3.8 2.8c-8.5 6.3-20 14.8-28.2 36.1 1.6 3.7 2.7 8 3.1 12.6a157 157 0 017.8-12.7l1.5-2 .8-1.2 2.4-3.2 5.1-6c4-4.3 7.6-7.7 11.6-10.6l.3.4a101.7 101.7 0 00-17.3 25.2 182 182 0 00-8.5 19.6c7.4-14 15.5-26.3 32-34.5.4-.2 2.3-1 4.5-2.2 3.8-11.4 6.7-23 8.5-34.9zM16501.6 11822.2c.7-2.2 1.3-4.2 2.3-5.8-6.7.4-12.2 3.8-14.8 6.7a17.5 17.5 0 00-3.8 7.1c1.5 1.8 3.1 4 4.6 6.1 2.5-.5 5.1-2 7.1-4.2 2.4-3 3.6-6.6 4.6-9.9zM16498.2 11844.7c-1-1-2.5-2-3.9-2.7 2.2 2.6 5 5.4 8 8.4a22 22 0 00-4-5.7zM16518 11745.3c-1-2-2-3.9-2.5-5.8a20.8 20.8 0 00-6.5 14.3c0 4.8 3 11 6.4 11.3h.2c.8 0 1.8-.5 2.6-1.4 1.5-1.5 3-4.4 3-8.2 0-3.7-1.8-7.2-3.3-10.2zM16607.3 11767.8c-2.3-1.3-4.8-2.8-7.8-3h-1c-4 0-7.2 2-7.3 3.6 0 2.6 4.5 5.1 8.3 5.4h1c3 0 7.3-1 11-4-1.4-.3-2.8-1-4.2-2zM16592.2 11747a16.5 16.5 0 00-6.4 9.7c-.6 2.6 0 5.7 1 7.4.5.7 1.1 1.2 1.8 1.3h.2c1.7 0 4.8-2.8 5.6-7 .6-2.7-.3-5-1.2-7.3-.4-1.4-1-2.8-1-4.2zM16574 11785.4h-1.9c-4.4 0-8.2 2.1-8.4 4 0 1 .2 1.7 1 2.6 1.5 2 5 3.8 8.3 4.2l2 .1c4.2 0 9-1.6 12.8-4.2-1.6-.6-3.2-1.6-4.9-2.7-2.6-1.6-5.5-3.5-9-4zM16566.3 11766.4c-.5-2-1-3.9-1-5.7-5.2 3.7-8 9-8.7 12.6-.9 4.6.4 10.7 3.5 11.5l.4.1c2.1 0 5.7-3.3 6.7-8.4.7-3.6 0-7-.9-10zM16557.5 11807.3c1.2.3 2.6.5 4.2.5 4.3 0 9-1.2 12.7-3-1.6-.9-3.2-2-4.9-3.4a26.8 26.8 0 00-9.5-5.4c-1.2-.3-2.5-.5-3.8-.5-4.2 0-7.3 1.7-7.7 3.4a4 4 0 00.6 3 15 15 0 008.4 5.4zM16580.6 11757.2c-.4-2-.9-3.8-.9-5.5a19.3 19.3 0 00-8 11.5c-1 4.3.2 10.2 3.1 11.2l.5.1c2 0 5.2-2.9 6.1-7.6.7-3.4 0-6.8-.8-9.7zM16549.4 11769.1a23.5 23.5 0 00-8.7 13.8c-.5 3.4.2 7.4 2 9.7.7 1 1.5 1.6 2.5 1.8h.3c2.3 0 6.2-3.7 7-9.2.5-3.7-.6-7.2-1.6-10.3-.7-2-1.4-4-1.5-5.8zM16588.4 11775.1a15 15 0 00-2-.2c-4.3 0-7.7 2-8 3.7 0 .8.1 1.7.8 2.6 1.5 2 4.8 3.8 8 4.3l2.3.2c4.1 0 8.5-1.3 12.1-3.7a25 25 0 01-4.6-2.7 21 21 0 00-8.6-4.2zM16516 11814h0zM16515.5 11814.1h0zM16521.1 11807.2l.1-.4v.4zM16521.4 11806.2l.1-.4v.4zM16517.1 11813.5c.1 0 .2 0 .3-.2l-.3.2zM16521.5 11803.6a26 26 0 00-2.7-10.6c-.9-2-1.7-4-2-5.9-5 5-7 11.2-7.3 15.1-.3 5.1 2.2 11.4 5.7 11.6h.1c1.2 0 2.7-1 4-2.9 1.3-2 2.1-4.6 2.2-7.3zM16517.6 11813.1c.1 0 .2 0 .3-.2l-.3.2zM16516.5 11813.8h0zM16520.8 11808.2l.2-.4c0 .1 0 .3-.2.4z" class="st0" fill="#fff" transform="matrix(.5516 0 0 .52231 -8568.7 -5722)"/><path d="M16512.7 11813l-1-1.4c.2.5.6 1 1 1.3zM16511.6 11811.6c-.5-.7-.9-1.6-1.3-2.5.4 1 .8 1.8 1.3 2.5zM16518.1 11812.6l.2-.2c0 .1 0 .2-.2.2zM16514 11813.7c-.5-.2-.9-.5-1.3-.9.3.4.7.7 1.2 1zM16518.6 11812.1l.2-.3c0 .1 0 .2-.2.3zM16519.6 11810.7l.2-.3c0 .1 0 .2-.2.3zM16521.6 11805.1l.1-.4v.4zM16520.5 11809.1l.2-.4-.2.4zM16520.1 11810l.2-.4-.2.4zM16519.4 11811.1l-.2.3.2-.3zM16533.2 11777.7a24.1 24.1 0 00-8.2 14.6c-.6 5 1.5 11.5 5 12h.2c1.2 0 2.7-1 4-2.8 1.5-2 2.4-4.5 2.7-7 .4-3.9-.9-7.5-2-10.7-.8-2.2-1.5-4.2-1.7-6zM16515.7 11831.7l-.9 1 1-1zM16505.3 11835.7s-.3 0-.4-.2l.4.2zM16506 11836l-.6-.2.6.1zM16504.4 11835c.5.5 1.4.8 2.6.8 2.1 0 5.6-1 8.5-4 2.7-2.9 4-6.6 5-9.8.7-2 1.4-4.2 2.5-5.8-6.7.2-12.3 3.5-15 6.2-3.5 3.5-5.8 10-3.6 12.5zM16504.2 11835l.4.4-.4-.4zM16506.2 11836h.8-.8z" class="st0" fill="#fff" transform="matrix(.5516 0 0 .52231 -8568.7 -5722)"/><path d="M16510 11835.4l-1 .3c.4 0 .7-.2 1-.3zM16507.8 11836h-.7.7zM16513.4 11833.7l-1 .6 1-.6zM16514.5 11833l-.7.5.7-.6zM16512.3 11834.4l-.9.5 1-.5zM16509 11835.7l-.9.1h.8zM16511.1 11835l-.8.3c.3 0 .5-.2.8-.3zM16597.8 11758.6c0 1 .4 1.7 1.2 2.3.6.4 1.3.7 2.1.7 2.2 0 5-1.6 7.6-4.2-2.2-1.4-4.6-2.9-7-4.6-2.5 2-3.9 4.1-3.9 5.8zM16505 11789.7H16504.8zM16505.8 11789.8l.4.1h-.4zM16493 11800.1c-.2 0-.2-.2-.3-.2l.2.2zM16492.1 11798.6l.1.2v-.2zM16506.7 11790h.4-.4zM16492.4 11799.5v-.2.2zM16504.3 11789.7h-.2.2z" class="st0" fill="#fff" transform="matrix(.5516 0 0 .52231 -8568.7 -5722)"/><path d="M16504 11790h-.8c-6.3.4-11.3 5.2-11 7.8.3 3.4 5.5 5.4 10.4 5.4.8 0 1.5 0 2.3-.2.7 0 1.4-.2 2.2-.4v-.6c.2-3.5 1.4-7.4 3.5-10.9-2.2-.6-4.6-1.2-6.6-1.2zM16508.6 11790.4l.4.1h-.4zM16509.6 11790.7l.3.1h-.3zM16507.6 11790.1l.4.1h-.4z" class="st0" fill="#fff" transform="matrix(.5516 0 0 .52231 -8568.7 -5722)"/><path d="M16494.5 11801.5l.2.1h-.2zM16493.8 11801l.2.2s0-.2-.2-.2zM16495.5 11802l.2.1h-.2zM16493.2 11800.4l.2.2a.2.2 0 01-.2-.2zM16496.3 11802.4l.3.1h-.3zM16505 11803.4l-1.2.1h1.1zM16502.6 11803.5h.7-.7zM16501.6 11803.5s0 0 0 0 0 0 0 0zM16500.3 11803.4h0zM16499.2 11803.2l.4.1h-.4zM16497.2 11802.7l.4.1h-.4zM16498.2 11803l.4.1h-.4zM16578.4 11837.7c-.8 2.5 2.6 6.6 6.1 8.3 1.5.8 4.7 2.1 8.2 2.1 1.4 0 2.6-.2 3.8-.6-1.2-1-2.2-2.4-3.4-4-1.7-2.3-3.6-4.9-6.2-6.2a10 10 0 00-4.7-1.2c-2 0-3.5.6-3.8 1.6zM16542.5 11840c-1.3 3 2.4 8.4 6.4 11a19.7 19.7 0 0014.5 2.3c-1.3-1.3-2.4-3-3.6-4.9-1.8-2.8-3.9-6-6.9-8-2-1.4-4.4-2.2-6.6-2.2-2 .1-3.4.7-3.8 1.7zM16567.2 11848.4c2 1 5.6 2.7 9.7 2.7 1.3 0 2.5-.2 3.6-.5a20.8 20.8 0 01-3.7-4.7c-1.8-2.7-3.8-5.7-6.7-7.3-1.7-1-3.7-1.5-5.5-1.5-2 0-3.6.7-3.9 1.7-1 2.8 2.7 7.6 6.5 9.6zM16701.5 11814.2c-7.3 0-19.4-3-31.2-5.9-9.4-2.3-19.2-4.7-26.5-5.6 2 1 4 1.5 6 2 1.7.4 3.1 1.5 4 3.1 1 2 .8 4.4-.2 6.7a9 9 0 01-2.3 3.2 49.5 49.5 0 0023.2 6.3c9.3 0 18.2-3.2 27.1-9.8 0 0 0 0 0 0zM16628.3 11787.2c-.3-.8-1-1.5-1.9-1.9a4 4 0 00-1.5-.3c-1.4 0-2.7.7-3.3 2a39.4 39.4 0 00-.4 35 3.6 3.6 0 003.2 1.8h.1c.5 0 1 0 1.4-.3 1-.4 1.5-1 1.8-2 .3-.8.2-1.6-.2-2.4a33.8 33.8 0 01.5-29.6c.5-.6.6-1.5.3-2.3z" class="st0" fill="#fff" transform="matrix(.5516 0 0 .52231 -8568.7 -5722)"/><path d="M16639.3 11820.8a23.1 23.1 0 01.7-32.2 3.3 3.3 0 00.1-4.6c-.6-.7-1.4-1-2.3-1-.8 0-1.6.3-2.2 1a30 30 0 00-.9 41.4c.6.7 1.4 1 2.3 1h.1c.8 0 1.5-.3 2.1-.9a3.4 3.4 0 00.1-4.7z" class="st0" fill="#fff" transform="matrix(.5516 0 0 .52231 -8568.7 -5722)"/><path d="M16671.3 11801.5c15 0 25.5-1.6 34.3-5.2a62.2 62.2 0 0022.7-16.7 67.8 67.8 0 01-23.6 3.1h-8.4c-3-.2-6.2-.2-9.4-.2-13.4 0-29.2 1-45 7.8l-.2.1a20.3 20.3 0 00-5.3 9.2 400 400 0 0035 2zM16639 11816.2c1.7.6 3.5 1.2 5.3 1.6l1 .1c2.3 0 4.8-1.9 6-4.5.7-1.6.8-3.3.2-4.6a3.2 3.2 0 00-2.2-1.7c-4.7-1-9.2-3-13.3-5.9-1 5.2.1 10.7 3 15zM16616 11789.6l-1.3-.2a7.6 7.6 0 00-5.9 3.5c-.9 1.4-1.2 3-.8 4.1.3.8 1 1.4 1.8 1.7 1.8.6 3.6 1.3 5.3 2.3.4-3.7 1.2-7.3 2.5-10.8l-1.7-.6zM16604.2 11827.4c-5.6 0-10.7 2-14.8 5.6 2.7 2 7.7 3.1 13 3.1 3.8 0 11-.6 16.4-4.8-5-2.6-9.9-3.9-14.6-3.9zM16523.5 11833.4c.5.6 1.4 1 2.7 1 2.1 0 5.5-1.2 8.4-4 2.7-2.9 4-6.5 5.2-9.8.8-2 1.5-4.2 2.6-5.8-6.7.1-12.3 3.3-15 6-3.6 3.5-6 10-3.9 12.6zM16528 11816c-.6 0-1-.2-1.6-.3l-1 1.5c-1 1.2-1.6 3-2.3 4.8l2.4-3 3.3-2.7-.9-.3zM16542.2 11832.4c.5.6 1.5 1 2.8 1 2 0 5-1 7.7-3.4a23 23 0 005.2-8.5 27 27 0 012.6-5h-.7a21 21 0 00-13.5 4.7c-3.5 3.1-6 8.7-4 11.2z" class="st0" fill="#fff" transform="matrix(.5516 0 0 .52231 -8568.7 -5722)"/><path d="M16553.3 11811c-2.6-2-5.5-4.2-9.4-5-1-.2-1.9-.3-2.9-.3-4.6 0-8.4 2.1-8.8 4-.3 1.3.3 2.8 1.7 4.2a24 24 0 018.8-1.6h4.7l-.3.4-2.3 3.1-1.2 2.1H16546.5a24 24 0 0111.5-4c-1.6-.5-3-1.7-4.7-2.9zM16542.5 11820.4c0 .3-.2.7-.4 1 0 .4-.3.7-.4 1.1h.1a12 12 0 011.7-2h-1zM16574.4 11816.8h1.4-1.4zM16573 11817l1.3-.2-1.4.2zM16564.8 11820.6l1-.7-1 .7zM16571.3 11817.4l1.3-.3-1.3.3zM16568.5 11818.4l1.2-.5-1.2.5zM16569.8 11817.8l1.3-.4-1.3.4zM16561.6 11832.2h.1s0 0 0 0zM16562.8 11832.4h0zM16578.1 11817l-1-.2 1 .1zM16575 11821.7c1-1.7 1.7-3.4 2.7-4.7h-1.7a18 18 0 00-11 3.7c-3.2 2.7-6 8-4.5 10.3.4.7 1.4 1 2.7 1 2.1 0 4.6-1 6.5-2.7 2.5-1.9 4-4.9 5.3-7.6zM16562.2 11832.4c.1 0 .1 0 0 0 .1 0 .1 0 0 0zM16561 11832v-.2.1zM16561.2 11832l.1.1s0 0 0 0zM16567.2 11819l1.1-.6-1 .6zM16576.8 11816.8h-.7.7zM16568 11831l-.5.3.5-.3zM16567.1 11831.5l-.5.2.5-.2zM16568.8 11830.5l-.5.4.5-.4zM16566.3 11831.8l-.6.2c.2 0 .4 0 .6-.2zM16574.1 11824l-1 1.8 1-1.8zM16575 11822.2l-.9 1.8 1-1.8zM16572 11827.4a20 20 0 01-1.4 1.6l1.4-1.6zM16570 11829.7l-.9.6.8-.6zM16560.5 11831.6c.1 0 .1 0 0 0 .1 0 .1 0 0 0zM16563.3 11832.4h.5-.5zM16560.3 11831.3a4.8 4.8 0 000 0s0 0 0 0 0 0 0 0zM16564.6 11832.3l-.6.1h.6zM16565.5 11832.1l-.8.2.8-.2zM16566 11819.8l1-.6c-.4.1-.7.3-1 .6zM16563.4 11819c.6-.6 1.4-1 2.2-1.6l-2.8.3v.1c-.9 1-1.6 2.4-2.3 4.1h.2a10 10 0 012.7-3zM16581.7 11821.3c-2.9 2.3-5.3 6.7-3.8 8.7.4.6 1.3 1 2.6 1 2 0 4.3-1 6.1-2.4 2.3-1.8 3.7-4.7 5-7.3.7-1.6 1.5-3.2 2.4-4.3h-.8a20 20 0 00-11.5 4.3zM16599.2 11803.7l-.5.6-3.2 3.7h.4c6.3-1 12.4-2 19-3.3v-.2-.6c-1.5-.8-2.9-1.5-4.3-2l-11.4 1.8zM16561.7 11810.3c-1.8 0-3.4-.2-4.8-.5l-2-.7c1.5 1.1 2.8 2.2 4.2 2.8l8-.6.1-1 .1-.6c-1.9.4-3.8.6-5.6.6z" class="st0" fill="#fff" transform="matrix(.5516 0 0 .52231 -8568.7 -5722)"/><path d="M16615.2 11810.6c-6.8 1.2-13.8 2.3-20.6 3.3l-7.7 1c-1.9 1-4 1.8-6 2.3l-1 1.1c-.5.4-.8 1-1.2 1.7h.8l.7-.7c3-2.3 8-4.8 13-4.8l1.6.1 4 .4.5.1-.3.4-2 2.2 19-3c-.4-1.4-.6-2.7-.8-4zM16675.8 11628.5c-1.9.5-3.9.5-6 .6-3.4.1-7.2.2-10.9 2-5.5 2.5-8.7 7.6-7.9 9.6.6 1.4 2.4 2.2 5.1 2.2 2.4 0 5.3-.7 7.6-1.8 3.6-1.8 9-6 12.1-12.6zM16603.1 11663.5c-1.7-6.2-3.4-12-1.5-21.4a47.3 47.3 0 00-10.5 47.2l3.2 1.3c0-1.4 0-3.3-.2-5.6-.4-7-.9-16.6 2.5-21.7l.5-.7v1a43 43 0 001 10.5c1 5.3 1.8 10.3-.3 18.2l.1.1 1.5.8 3.6 2 .4.2c4.2-15.9 2-24-.3-31.9zM16718.5 11723.8v2.2c4-3.8 8.2-7.4 13.6-9.9-2-.6-4.4-.9-6.8-.9-6.6 0-13 2.4-16 6l-6.8 8-.5.6c-.9 1.2-4.5 4-6.9 5.8H16699a56.2 56.2 0 0116-10.8l1.2-.4-1 .8a51 51 0 00-6.4 6l-2.9 3c3-1 5.2-2.7 7.2-4.8l5-5.3zM16610 11689.2a30 30 0 00-1.5-3.2c-.4 3.5-1 7.2-2 11.1l3.5 2c1-2 1.5-5.7 0-9.9zM16620.8 11683.6c1-2 1.3-6-.5-10.2-1.6-3.8-4.9-6.8-7.8-9.5a28 28 0 01-4.8-5 27 27 0 00.6 18.2c1.7 4.1 6.1 8.8 9.5 8.8.4 0 .8 0 1.1-.2.8-.3 1.4-1 2-2zM16623.1 11706.6l.6.3 1.8 1 .5-2.3-2.9 1zM16635.5 11702.6c-1-2-2-3.9-2.5-5.8-2.7 3.5-4.5 8-5 12.4l11.1 6v-2c-.3-4-2-7.6-3.6-10.6zM16652.1 11705.5c1.1-2.4 1.5-5.4 1.1-8-.6-4-2.9-7.3-5-10-1.4-2-2.7-3.7-3.4-5.6a26 26 0 00-5 17.2c.7 4.8 4.2 10.2 7.8 10.2h.6c1.5-.2 3-1.6 4-3.8zM16637.2 11700.5l.5 1 .3.4-.4-1.6-.4.2zM16647.8 11682.3l.7 1.2 1-1.3h-1.2l-.5.1zM16642.1 11681.6c-1.7-.3-3.6-.5-5.4-.5-1.8 0-3.4.2-5 .6-6 1.7-10.2 6.5-9.6 8.7.5 2.1 3.5 3.4 7.6 3.4.8 0 1.7 0 2.5-.2l1.8-2.2.3-.4.1.5.3 1.6h.1l3-1c.7-3.6 2.2-7.3 4.3-10.5zM16630.2 11696.4h-.5c-2 0-4-.3-5.6-.9a80.9 80.9 0 00-10.8 5.6l5.2 3a97 97 0 0110.2-5.3l1.5-2.4zM16635.3 11695.7v.1l.1.4 2-.6v-.6l-1.9.6-.2.1zM16640.3 11677.3c1.8 0 3.6-.2 5.3-.7a29.8 29.8 0 0015-11h-1a37 37 0 01-5.6-.6c-2-.3-4.4-.7-6.7-.7-1.8 0-3.5.2-5 .6-6.3 1.7-10.5 6.5-10 8.8.4 2.3 3.6 3.6 8 3.6zM16663.2 11693.4c1.3-1.9 2.2-5.5 1.4-9.3-.7-3.6-2.8-6.5-4.6-9l-2-2.9c-1 1-2 1.7-3 2.5a22.5 22.5 0 00-1 11c.7 4.4 4 9.3 6.8 9.3h.5c.6-.2 1.3-.7 2-1.6zM16651.7 11687.5l-.3.1.7 1-.4-1zM16655.2 11694.4v0l-.3-.6.2.7h.1zM16629.7 11667.3c1-2 1.3-6-.5-10.2-1.6-3.8-4.9-6.8-7.8-9.5a28 28 0 01-4.8-5 27 27 0 00.6 18.2c1.7 4.1 6.1 8.8 9.5 8.8.4 0 .8 0 1.1-.2.8-.2 1.4-1 2-2zM16639.4 11651.8c1-2 1.3-5.8-.5-9.9-1.6-3.7-4.6-6.3-7.2-8.7-1.7-1.6-3.4-3-4.5-4.7a23.4 23.4 0 000 16.8c1.7 4 6 8.6 9.4 8.6.4 0 .8 0 1.1-.2.6 0 1.2-.8 1.7-1.9zM16647.2 11635.4c1-1.9 1.4-5.5 0-9.3-1.4-3.5-4.2-6-6.6-8.2-1.6-1.5-3.2-2.9-4.2-4.5-2.4 5.8-1.8 12-.3 16 1.4 3.8 5.2 8.1 8.4 8.1.3 0 .7 0 1-.2.6-.2 1.3-.9 1.7-1.9zM16642.1 11658c.6 1.6 3 2.6 6.1 2.6 2.4 0 5-.5 7.2-1.4 4-1.6 9.8-5.9 13.4-12.5-1 .2-2.2.3-3.7.3h-2.8l-3-.2a23 23 0 00-8.5 1.4c-5.9 2.4-9.5 7.6-8.7 9.8zM16662.7 11625c2.2 0 4.8-.7 7-1.8 3.2-1.7 7.7-5.7 10.2-11.5-1.6.5-3.5.6-5.4.7-3 .2-6.3.3-9.5 2-4.8 2.3-7.4 7-6.5 8.8.4 1.2 2 1.8 4.2 1.8zM16665.1 11606.6c.6 1.3 2.3 2 4.6 2 2 0 4.3-.6 6.2-1.5 3-1.6 7.2-5.4 9.5-11.2-1.6.4-3.3.4-5.2.4a20 20 0 00-9 1.6c-4.5 2.3-6.9 7-6 8.7zM16660.8 11603.2c.8-1.7 1.1-4.8-.3-8.2-1.3-3-3.7-5.3-5.8-7.3-1.4-1.3-2.7-2.5-3.6-3.9a20.1 20.1 0 00-.3 14c1.4 3.3 4.8 7.1 7.7 7.1h.8c.5-.2 1.1-.8 1.5-1.7zM16659.1 11723.1c-2.2-.6-4.5-1.2-6.9-1.4 4 2 7.7 3.6 11.2 5.1a17 17 0 002.1-2.6c-2 .1-4.2-.5-6.4-1zM16686 11732.3c-2.7-.9-5.3-1.8-8.3-1.8l-1.4.1-2 .4a84 84 0 0015.7 4.1l1.3-1.4c-1.7 0-3.5-.7-5.4-1.4zM16719.1 11603a10 10 0 00.3-7.5c-.9-2.8-2.9-5-4.7-6.9a23.8 23.8 0 01-3-3.6c-2.2 4.7-2 9.6-1.2 12.4 1 3.3 4 7 6.5 7 .2 0 .4 0 .6-.2.6 0 1.1-.5 1.5-1.3zM16712.3 11617.8a11 11 0 00.1-8.3c-1-3.2-3.4-5.6-5.3-7.8a24.2 24.2 0 01-3.3-4.2 19.8 19.8 0 00-.8 13.8c1.2 3.7 4.7 8 7.4 8 .2 0 .4 0 .6-.2.4 0 1-.6 1.3-1.3zM16684.6 11662.7c1.2-2 2-6 .7-10.3a25.8 25.8 0 00-5.8-9.5c-1.4-1.7-2.8-3.4-3.7-5-3 6.2-2.8 13-1.8 16.8 1.2 4.6 5 9.6 8.1 9.6h.7c.7 0 1.3-.7 1.8-1.6zM16699.4 11615.5a23.8 23.8 0 01-3.5-4.7c-3.2 6-3.3 12.2-2.3 15.8 1.1 4.1 4.6 8.7 7.7 8.7h.8c.7-.3 1.4-1 2-2 1.1-1.8 2-5.4.8-9.2a22.8 22.8 0 00-5.5-8.6zM16694.3 11649c1.1-2 1.8-5.6.8-9.4-1-3.6-3.2-6.3-5.3-8.7-1.3-1.6-2.6-3-3.4-4.6a24.3 24.3 0 00-2 15.7c1.1 4.1 4.5 8.8 7.4 8.8h.7c.7-.3 1.3-.9 1.8-1.8zM16674.2 11679c1.2-1.7 2.4-5 1.7-9-.6-3.7-2.7-6.7-4.5-9.2-1.2-1.7-2.4-3.3-3-5a23 23 0 00-3.8 15.4c.7 4.4 4 9.5 7.1 9.5h.4a4 4 0 002.1-1.7zM16775.4 11570a54.7 54.7 0 00-44.5 27.1h.1v0a74.7 74.7 0 0126.7-16.7l.7-.3-.4.7a48.7 48.7 0 01-21 17.2c1.3.3 2.7.6 3.7.6h.7l4-.6h.4l-.2.3-.7 1.4c10.6-6.2 21-17.9 30.5-29.7zM16713.8 11700.7c.8 0 1.6 0 2.3-.2 3.5-.6 10-3 13-7-1.6 0-3.5-.5-5.6-.9-2.5-.5-5.4-1-7.9-1l-2.2.1a10 10 0 00-6.6 3.8c-.5.7-.6 1.4-.5 2 .6 2 4.3 3.2 7.5 3.2zM16717.6 11706.5c-1.6 0-3.3-.5-5-1-2.4-.6-4.9-1.2-7.5-1.2l-2 .1a11 11 0 00-7.3 4c-.5.7-.7 1.4-.6 2 .5 2.4 4.7 3.8 8.4 3.8.7 0 1.4 0 2.1-.2 4.1-.6 8.8-3.6 12-7.5zM16689.7 11728.1c1.1 0 2.2 0 3.2-.3 3.4-.8 8.6-3.5 12.1-8.6 0 0 0 0 0 0-1.8 0-3.6-.4-5.5-.9a31 31 0 00-6.9-1c-1 0-1.9.1-2.9.3-3.8.8-6.3 3-7.4 4.7-.5 1-.8 1.7-.6 2.3.7 2.4 4.6 3.5 8 3.5zM16694.7 11704.7c1.1-1.5 2.1-4.4 1.4-7.9-.6-3.2-2.5-5.8-4-8a20.9 20.9 0 01-2.8-4.5 20 20 0 00-3 13.3c.6 4 3.5 8.4 6.3 8.4h.3c.6 0 1.2-.6 1.8-1.3z" class="st0" fill="#fff" transform="matrix(.5516 0 0 .52231 -8568.7 -5722)"/><path d="M16700.4 11678.4c-1.7 0-3.5-.4-5.4-.8-2.2-.4-4.4-.9-6.8-.9a13 13 0 00-3.5.4c-4 1-6.6 3.4-7.7 5.2-.6 1-.8 1.8-.6 2.5.7 2.5 4.5 3.6 8 3.6h.2c.7-2.2 1.7-4.2 3-6l2.1-3.3.3-.4.2.5 1.3 3.7c.3 1 1 2 1.6 3 3.1-1.9 5.8-4.6 7.8-7.6l-.5.1zM16674.7 11703.6c1 0 2 0 3-.2a21 21 0 006.8-2.8c-.3-.9-.6-1.8-.7-2.6-.3-1.7-.3-3.5 0-5.4-2.2-.6-4.5-1-6.8-1l-2.5.2c-4.3.7-7.2 3.1-8.4 5-.6 1-.9 1.8-.8 2.5.6 2.7 5.3 4.3 9.4 4.3zM16701.3 11674.4l-1 1.6h1.5l-.5-1.6zM16703 11694.7c.4 0 1-.3 1.6-1a9.9 9.9 0 002-7.2 20 20 0 00-3-7.7l-.4.4a27 27 0 01-5.7 6.5v.4c.4 4 2.8 8.6 5.4 8.6zM16678.3 11719.7c.7 0 1.4-.4 2.1-1.2 1.3-1.4 2.8-4.5 2.6-8.3a15 15 0 00-1.4-5.4 18.4 18.4 0 01-6.9 1.3h-2c-.4 1.3-.5 2.6-.4 3.8.2 4.4 3 9.8 6 9.8zM16671.4 11716.4a18.8 18.8 0 01-1.5-9.2 26 26 0 00-5.2-.6l-2.8.2c-4.4.8-7.4 3.3-8.6 5.1-.6 1-.9 2-.7 2.7.7 3 5.4 4.4 9.7 4.4a16.6 16.6 0 009.1-2.6zM16655.2 11618.7c.8-1.7 1.2-5-.3-8.4-1.4-3.2-4-5.5-6.4-7.6-1.5-1.4-3-2.7-4-4a19.1 19.1 0 00-.3 14.4c1.5 3.6 5.3 7.5 8.4 7.5h1c.5-.3 1.1-1 1.6-1.9zM16672.5 11590.1a18 18 0 001-16.8h-.7c-1.6.2-3.2.4-4.9.8a17.3 17.3 0 00-4.5 9.7c-.5 5.6.6 8.1 1.6 9.1.6.7 1.3 1 2.2 1 1.7.1 3.7-1.4 5.3-3.8zM16717.2 11571.8l-6.4.1c-1 1.1-2.4 2.2-3.8 3.4-7.3 6.2-17.2 14.7-17.6 31.1 2.7-4.7 7.4-8.9 12.4-13.3l6.6-6 1.4-3.7 1.8-3.5.2-.4.2.4 1 2c2.4-3.4 3.8-6.7 4.2-10zM16724.7 11594c.4.2 1 .3 1.4.3 2 0 4.4-1.7 6.3-4.5a20.1 20.1 0 001.8-18.5h-1.4c-5.7 5.2-11.4 13-10.6 19a5 5 0 002.5 3.7z" class="st0" fill="#fff" transform="matrix(.5516 0 0 .52231 -8568.7 -5722)"/><path d="M16715.2 11732.4a25 25 0 01-18.5 6.8c-23.2 0-58.7-20-93-39.5-2-1-4-2.3-6-3.4a36.7 36.7 0 00-18.3-5.7c-5.9 0-11 2-17 5l-15.4 7.5a242.6 242.6 0 00-25.3 13 25.8 25.8 0 00-6 5.4 17.4 17.4 0 00-4 15.3c1.2-4.4 3.4-8.4 6.3-11.8 3.3-3.8 6.8-5.8 8.2-6.5.2 0 5.1-3 12.1-3l3.2.2c12.4 1.6 31.3 14.1 51.3 27.2 24.6 16.2 52.5 34.5 71.8 34.5 2 0 3.8-.2 5.6-.6 14.3-3.2 44.2-32.8 45-44.4zM16722.2 11674.2c.4.2.8.2 1.2.2 1.7 0 3.5-1.2 5.1-3.4 2.5-3.4 4.6-9.3 3.3-14.4a17.1 17.1 0 00-11.7 13.4c0 2.2.6 3.6 2.1 4.2zM16786 11632c-.4-3-1.7-5.3-4-6.5l-1.6.1c-1.8.1-3.7.4-5.6.8 7.1 7-8.6 36.5-20 58.2l-4.5 8.6c19.3-16.9 37.2-47.4 35.6-61.2zM16706.6 11656.3c1.2 0 2.4 0 3.4-.4 3.8-.8 9.6-3.8 13.6-9.6 0 0 0 0 0 0-2 0-4-.5-6.2-1-2.5-.6-5-1.2-7.8-1.2l-3 .3c-4.3 1-7.2 3.3-8.4 5.2a4 4 0 00-.7 2.6c.6 2 3.6 4.1 9.1 4.1zM16718.7 11639.7c3.6-.9 9-4 12.6-9.5h-.4c-1.7 0-3.5-.4-5.4-.8-2.2-.4-4.4-.9-6.8-.9a13 13 0 00-3.5.4c-4 1-6.6 3.4-7.7 5.2-.6 1-.8 1.8-.6 2.5.7 2.5 4.5 3.6 8 3.6 1.3 0 2.6-.2 3.8-.5zM16727.6 11609.7c1.2 0 2.5-.2 3.6-.5 3.2-1 7.7-4 10.1-8.3h-.6c-1.3 0-2.8-.3-4.4-.6a25 25 0 00-5.4-.7c-1 0-2 .1-3 .4-3 1-5 3.2-5.8 4.8-.5 1-.6 1.8-.4 2.3.6 1.6 3 2.6 6 2.6zM16721.6 11624c1 0 2 0 3-.3 3-.7 7.8-3 11-7.8-1.7 0-3.3-.4-5-.8-2-.5-4.3-1-6.5-1-.9 0-1.7.1-2.6.3-3.5.7-5.8 2.7-6.7 4.2-.5.8-.7 1.5-.5 2.1.6 2.2 4.2 3.3 7.3 3.3zM16765 11603.5c3.3-3.7 6.6-7.5 10.4-10.7-24 3.1-28.4 7.7-38.6 18.5l-1.9 2h1l4-.2h.4l-.3.4-1.2 2a53.7 53.7 0 0118-13.6l.8-.3-.6.7c-5.4 6.4-9 10.5-14 15.2a39 39 0 0112-5c.6 0 1.2-.3 2-.4a112 112 0 008-8.6zM16734.2 11678.6a30.4 30.4 0 01-11.8.7l-.9.3a9 9 0 00-5.3 4.4c-.3.7-.4 1.3-.2 1.8.5 1.2 2.4 2 5 2 1.5 0 3-.3 4.2-.7 3.2-1.2 7.2-4.3 9-8.5z" class="st0" fill="#fff" transform="matrix(.5516 0 0 .52231 -8568.7 -5722)"/><path d="M16761.1 11644.7c-15.7.6-22.2 6.7-26.6 12.7.3 2.1.3 4.3-.2 6.6 4.1-3.8 8.1-6.8 14.3-8.8l1-.3-.8.8c-3.3 3.2-5.4 6-7.5 8.7a41.6 41.6 0 01-13.7 12.7c12.2-.3 24-11.7 33.5-32.4zM16716 11676c-.2-2.7-1.4-5.2-2.5-7.3-.7-1.4-1.3-2.7-1.7-4a15.9 15.9 0 00-4 10.3c0 3.5 2 7.8 4.4 8h.1c.5 0 1.1-.3 1.6-.9 1.1-1 2.2-3.2 2-6zM16710.4 11662.6l.4-.4-3.4-.7c-2.5-.5-5-1-7.7-1-1.3 0-2.4 0-3.6.3-4.4 1-7.2 3.6-8.4 5.5-.6 1-.8 2-.6 2.7.8 2.7 5.3 4 9.1 4 1.4 0 2.7-.2 4-.4 1.8-.5 3.8-1.3 5.8-2.5 1-2.9 2.4-5.5 4.4-7.5z" class="st0" fill="#fff" transform="matrix(.5516 0 0 .52231 -8568.7 -5722)"/><path d="M16731.7 11654.2c12-13.8 28-29.6 48-31-8.5-7.5-13.5-9-18.3-9-1.8 0-3.7.2-5.8.7a50 50 0 00-21.8 12.5l1.7-.2h.5l-.3.4-2 3.4a26 26 0 01-12.4 10.4l-1.4 2c1.1.2 2.4.5 3.5.5h.4l4-.2h.5l-.3.4-2.2 3.3a27.5 27.5 0 01-13.6 10.5l-.7 2h1.4v0l.3-.3.1.4s0 0 0 0h.6l4-.3h.4l-.3.4-2 3.3-1.6 2.1 1 2.1c.6 1.2 1.3 2.6 1.8 4.1l.1-.2v-1.6c.5-6 6.3-13.9 13.8-15.7zM16672.4 11181.5a99 99 0 01-9-18.8c-1.5 5.4-2 10.4-2 15.3a88.2 88.2 0 014.5 18.7l.3 2.1c.8 1.3 1.5 2.7 2 4.1l.3 1 .6 1.1 2 3.6.6-.9v0l.1-.2 1-1v-.3 0l-1.2-4.4a82.2 82.2 0 01-3.8-18.8v-2.3l.5 2.2c1.8 6.8 4 10.8 6 14.4l2 3.5.7-1.9.2-.5.2.4 2 3.6.4 1.1.2.4c1.6-6.4-2.7-13.9-7.6-22.4zM16713 11469.8l.7.5c.7.6 1.7 1.1 3 1.7.3-1.5.5-3 .5-4.6-1.2 1-2.6 1.6-4.2 2.4zM16757 11498.5c-.4 0-.9 0-1.3-.2h0l-.7.2 1 3 1-3zM16773.7 11412.2v.3c12.7-28.9 12.6-45.5 11.3-55.6a95.5 95.5 0 01-11.2 16c.1 0 .2 0 .3-.2l3.5-2.5.4-.3v.5l-.4 4.3c-.6 7.2-4 14.8-8.7 19.3l-1.3 1.2c2-.7 3.6-1.4 5-2.3l3.4-2.6.4-.3v.5l-.4 4.4c-.6 7.2-4 14.7-8.6 19.3a18.2 18.2 0 01-3.8 3c2.3-.8 4.4-1.4 6-2.4l3.6-2.4zm3.8-25a19 19 0 012-6.9l.6-1.5 1.4-4 1.2-4.2v0l.1-.3H16783.4v.2a49 49 0 01-.5 4.4c-.2 1.5-.6 3-.9 4.4 0 .3 0 .6-.2 1-.3 1.1-.5 2.3-1 3.3-.9 1.7-1.7 2.8-2.7 3.8v.1h-.3l-.2-.2h-.2zM16665.8 11203.8c-2.3-6.2-6.9-9.2-11.3-12-1.8-1.3-3.7-2.5-5.3-3.9a30.2 30.2 0 006.5 22c2.4 2.8 5 4.3 7.1 4.3 1 0 1.8-.3 2.5-.9 2.2-1.5 2.3-4.6.5-9.5zM16650.4 11185.8c1.7 1.4 3.5 2.6 5.4 4 2.4 1.5 5 3.1 7.2 5.3-5.2-33.8-26.9-51.3-44.4-65.3a95.2 95.2 0 01-17.3-16.2c1.8 23.8 18.4 50 45.8 71.6l.3-1.4.1-.4.3.3z" class="st0" fill="#fff" transform="matrix(.5516 0 0 .52231 -8568.7 -5722)"/><path d="M16623 11187.3l3.3-.2a46 46 0 0120.1 5.3c0-1.6 0-3 .2-4.6a167 167 0 01-32.7-34.2 99.9 99.9 0 00-43.2-10.7 108.8 108.8 0 0152.3 44.4zM16656.3 11215.4h.7a33.2 33.2 0 01-2.9-3.5c-14.2-3.5-23.7-17-23.8-17l-.3-.6.6.1c5.6.7 13.2 4.8 18.2 8.7-1-2.5-1.7-5-2-7.7-8-4-14.3-5.7-20.5-5.7-2.9 0-5.7.4-8.7 1.2a28 28 0 0110 8.8 40.8 40.8 0 0023.1 16v0h.1c.6 0 1.3 0 2-.2h3.5zM16677.5 11204.4c-.7 1.3-1.7 2.5-2.9 3.7-1.7 2-3.7 4.1-4.5 7-.9 3.2-.3 6.1.5 7.6.4.8 1 1.3 1.5 1.4l.6.1c2.5 0 5.3-3.7 6.3-7 1-2.9 1-7.9-1.5-12.8zM16657.2 11227.1c1.5.7 3.4 1.1 5.1 1.1 2.4 0 4.1-.7 4.6-2 .2-.5.2-1.2-.2-2-.6-1.7-2.5-4-5.5-5.3a15 15 0 00-6-1l-2.3.1-2 .1c-1.2 0-2 0-2.7-.2a20 20 0 009 9.2zM16716.5 11225.5c.7-6.8-5.3-18.2-14-22.9v6.3c-.4 5.1-.7 10.4 3 15.8 2.3 3.7 4.5 5.4 6.7 5.4.4 0 .7 0 1.1-.2 2.4-.5 3.1-2.7 3.2-4.4z" class="st0" fill="#fff" transform="matrix(.5516 0 0 .52231 -8568.7 -5722)"/><path d="M16701.2 11222c-3.6-2.9-7-7.3-9.2-11.7a20.5 20.5 0 01-2-15l.1-.5.3.3a43.8 43.8 0 019.4 17l.1-3.3c.1-2.2.2-4.3.1-6.4l-.3-3.6v0c-1-2-2.2-3.8-3.4-5.7-3-5-6.7-10.6-9.3-19-8.4 20.1-4.7 37.7 11 52.3l1 .6a17.3 17.3 0 005.7 1.7v0l.1-.7-1.4-1.9a21 21 0 01-2.2-4.2zM16704.7 11241.4c2.2 1.8 5.4 3 7.8 3a4 4 0 003-1c.3-.4.5-1.2.4-2a11 11 0 00-4.2-7c-2.6-2-5.7-2.8-8.5-3.4-1.8-.4-3.6-.9-5-1.6.8 5.6 4 10 6.5 12zM16728.2 11233.6c.8-3.2.8-8.6-2-13.6-.7 1.4-1.9 2.8-3 4.2-1.9 2.2-4 4.7-4.9 7.8-1 3.5-.2 6.5.8 8.1.5.8 1.1 1.3 1.7 1.4h.5c2.7.2 6-4 7-7.9zM16717.1 11207.1c-2.6-4.8-5.6-10.3-7.3-17.7a34.2 34.2 0 00-4 12.2c7 4.7 14 15.3 13.3 23.8a52.2 52.2 0 013.5-4.3c-.7-5-2.9-9.2-5.5-14zM16685.5 11217.8c-.7 1.4-1.9 2.7-3 4.1-2 2.1-4 4.5-5 7.7-1 3.5-.3 6.7.6 8.3.5 1 1.1 1.4 1.6 1.6l.7.1c2.7 0 6-4 7-7.7a22 22 0 00-1.9-14zM16663.2 11242.7c1.7.7 3.7 1.2 5.6 1.2 2.6 0 4.5-.8 5.1-2.2.2-.6.2-1.4-.2-2.3-.7-1.8-2.7-4.3-6-5.8-2.5-1-4.9-1-6.7-1h-2.5l-2.3.1a22 22 0 01-2.9-.2c2.6 5.4 7 9 10 10.2zM16694 11231.6a23 23 0 01-3.3 4.6c-2 2.4-4.2 5.1-5.2 8.5-1 4-.2 7.3 1 9.1.4 1 1.1 1.5 1.8 1.7l.7.1c3 0 6.4-4.6 7.4-8.7a23 23 0 00-2.4-15.3zM16670.4 11259.5c1.8.7 3.8 1.1 5.8 1.1 3 0 5.2-.9 6-2.5.2-.6.1-1.5-.4-2.5-.8-1.9-3-4.6-6.8-6a17 17 0 00-6.3-1.2l-3.6.2-3.2.1c-1 0-1.8 0-2.5-.2 2.8 6 7.6 9.6 11 11zM16696.7 11272.7l1 .1c2.7 0 7-3.9 8.5-9.5 1.1-4 1.2-10.9-2-17.5-.9 1.8-2.4 3.4-3.9 5.1-2.3 2.6-5 5.5-6 9.4-1.4 4.3-.6 8.3.6 10.3.3 1.2 1 2 1.8 2.1zM16713.8 11262.2c-1 2-2.6 4-4.3 6-2.5 3-5.4 6.4-6.6 11a16 16 0 001.1 11.5c.7 1.2 1.6 2 2.4 2.2l1 .1c3.7 0 8.1-5.8 9.3-11a28.3 28.3 0 00-2.9-19.8zM16715.8 11260.5l.4.7v0l1.6.1c1.7 0 3-.5 3.7-1.4.4-.5.6-1.4.5-2.5-.3-2-1.8-5.3-5.2-7.7a24 24 0 00-9.7-3.4c1.6 3.8 2.3 8.1 2.2 12.1.8.6 1.7 1.1 2.7 1.5l1.3-3 .2-.5.2.4zM16709.8 11262.6h-.9c0 .5-.2 1-.4 1.4-.2 1-.6 1.8-1 2.6h.1l3-3.9h-.8zM16722.3 11279c1.6 0 3.6-.3 4.7-1.8.4-.7.5-1.7.3-2.9-.5-2.3-2.4-5.9-6.3-8.4-1-.6-2-1.2-3.4-1.6 2 4.7 2.7 10 2.3 14.6l2.4.1zM16736 11311c-.4-2.4-2.4-5.9-6.3-8.3-3.6-2.2-7.7-2.7-11.3-3.2-2.4-.3-4.7-.6-6.7-1.3a24.9 24.9 0 0010 14.6c2.7 1.7 6.3 2.8 9.2 2.8 1.6 0 3.7-.3 4.8-1.8.4-.7.5-1.7.3-2.9zM16714.4 11291.6a17.6 17.6 0 0012.1 5.3c2.4 0 4.1-.7 5-2 .3-.7.4-1.7.1-2.9a14 14 0 00-6.5-8.2c-1.6-1-3.5-1.7-5.7-2.2 0 .3 0 .6-.2 1-.8 3.2-2.6 6.5-4.8 9zM16717.1 11296.8l-.7-.4-2-1.4-.6 1.2 3.3.6zM16727.4 11299.1l1.2.5.1-.6-1.3.1zM16733.8 11234.3c-.9 1.6-2.2 3.2-3.7 4.8a23.7 23.7 0 00-5.8 8.8 12 12 0 00.6 9.3c.5 1 1.2 1.5 2 1.7l.6.1c3.2 0 7-4.7 8.2-8.9a23 23 0 00-1.9-15.8zM16749.4 11267a33 33 0 01-4.9 5c-2.8 2.5-6 5.4-7.8 9.3-2 4.3-1.6 8.2-.6 10.3.5 1.1 1.2 1.8 2 2l1 .1c3.6 0 8.3-4.9 10.3-9.3a23.7 23.7 0 000-17.5zM16732.4 11275.5l1 .1c2.8 0 7.4-3.8 9.6-9.2a23 23 0 00-.5-16.9 29 29 0 01-4.5 5c-2.6 2.4-5.6 5.2-7.2 9-1.7 4.2-1.2 8-.3 10 .5 1.1 1.2 1.8 2 2zM16755 11303.2c1.8-3.9 3.1-10.7.7-17.5-1.3 1.7-3 3.2-5 5a29.4 29.4 0 00-8.2 9 13.4 13.4 0 00-1 10.2 3.5 3.5 0 001.8 2.1l1.1.2c3.7 0 8.5-4.8 10.6-9zM16716.5 11314.6l1 .1c.6 0 1.2-.2 2-.5a27.4 27.4 0 01-7.5-8.6c.3 5 2.5 8.5 4.5 9zM16734.2 11322c-3.5-2.4-7.6-3-11.2-3.7l-3.3-.6c1 3 1.5 6.1 1.4 9.3 1.4 2 3.1 3.5 4.8 4.7l1.6 1 9.2-8.8-2.5-2zM16724.7 11333.3c-1 1.7-2.6 3.4-4.2 5.2l-2.8 3 7.6-6.9c-.3-.4-.5-.9-.6-1.3zM16707.8 11318.1a22 22 0 00-.8-15.2c-.9 1.5-2.3 3-3.8 4.3-2.2 2.2-4.8 4.7-6 8-1.4 3.7-.9 7.2 0 9 .5 1 1.1 1.6 1.7 1.8l1 .1c3 0 6.6-4.2 8-8zM16698.7 11288.3c-.8 1.5-2.2 3-3.5 4.4-2 2.3-4.5 5-5.6 8.2-1.2 3.6-.6 6.7.3 8.3.5.8 1 1.3 1.6 1.5l.6.1c3 0 6.4-4.3 7.7-8 1.1-3.9 1.2-9.7-1-14.5zM16690.3 11284.2c-2-.8-4.2-1.2-6.9-1.3 3.6 4.2 6 8.5 6.4 12.2 1.1-1.4 2.2-2.8 3.5-4l2.7-3.2a18 18 0 00-5.7-3.7zM16675 11313.8c1.6.7 3.7 1.1 5.7 1.1 3 0 5.3-.9 6.1-2.3.3-.6.3-1.4 0-2.3-.8-1.8-2.8-4.3-6.4-5.7-1.8-.7-4-1-6.7-1l-3.7.1-3.2.1c-1 0-2 0-2.7-.2 2.1 5 7 8.7 10.8 10.2zM16669.7 11282.4a79.8 79.8 0 01-11.9-9.3 36 36 0 0016.2 28l3 .2a31 31 0 01-7.3-18.9zM16674 11274.3l4 3.2c1.8.6 3.8 1 5.7 1 3.5 0 6.1-1.2 6.8-3 .3-.7.2-1.7-.3-2.8-.9-2-3.5-5.2-7.8-6.8-2-.7-4-1-6.7-1l-4.5.1-3.9.2c-1 0-1.8 0-2.5-.2 1.5 3.1 3.8 6 6.4 8.3l.2-.6.1-.3.3.2zM16687.2 11315.7c1.3.8 2.6 1.5 4 2.1l-2-4.3v.3c-.6.7-1.2 1.4-2 2zM16696.3 11311.6a7.6 7.6 0 01-4.2 1.6h-1.3l2.8 5.5.2.1h.2c.1-1.5.4-3 1-4.4.3-.9.7-1.9 1.3-2.8zM16687.5 11297.5c.4-4.8-4-13-14.7-21-1.7 5.6.3 15.4 4.4 21.2 2 2.6 4 4 6 4 .6 0 1.4-.2 2.1-.6 1.3-.6 2.1-1.9 2.2-3.6zM16681.3 11329.7c1.8.7 4 1.2 6 1.2 3 0 5.2-.9 6-2.4.2-.6.1-1.5-.2-2.4-.7-1.9-2.9-4.6-6.6-6-2.5-1-5.3-1.2-7.2-1.2l-3.7.1-3.2.1c-1.2 0-2.2 0-3-.2 2.2 5 7.5 9 12 10.8zM16694.6 11348.8c3.4 0 6-1 7-2.7.3-.7.2-1.7-.2-2.8-.8-2-3-5-7.2-6.7-3.9-1.6-8.9-1.9-13.3-2.2-2.5-.2-4.9-.3-6.8-.7a31 31 0 0014 14c1.7.6 4.2 1.1 6.5 1.1zM16702 11353.8c-4-1.4-9-1.6-13.5-1.7-2.5 0-4.9-.2-6.8-.5 2.2 4.7 7.1 9.2 11.1 11.7l7.7-6.7h.1l2.5-2.3-1.2-.5zM16685 11370.6l5.4-5-2-1.5-3.9-3a20 20 0 00.5 9.5zM16683 11372.6a72.8 72.8 0 00-9.3-16 50.6 50.6 0 00-12.3-11.4c3.5 7 5.4 16 7.1 24 1.4 6.5 2.6 12.1 4.2 15 1-1.2 1.8-2.4 3-3.7-.8-2-1.3-4-1.8-6.6-.9-4-2-8.9-4.6-15.9l-.4-1 .8.7c4.1 4.1 7.3 12 9.7 18.5l3.5-3.6zM16772.8 11314.1c-1.5 1.3-3.4 2.2-5.4 3.2l-3.3 1.7a323 323 0 01-3.3 17.7c2.4-.9 5.1-3 7-5.3a28 28 0 005-17.3zM16771 11337c-3.4 1.1-7.2 2.3-10.3 5.1l13.4 2.5c1.6-3.2 2.6-6.7 3-10.2-1.8 1.1-3.9 1.8-6.2 2.6zM16757.5 11376.7c3 0 7.1-1.7 10-4.2 3.3-2.9 7.6-8.9 9-16.7l-.7.3a483.9 483.9 0 00-22.4 16.8c0 1.1.1 2 .5 2.5.8 1 2 1.3 3.6 1.3zM16736 11390.8c2.8 3 7.1 5.1 10.1 5.1a4 4 0 003-1c1.7-1.9.5-8.4-4-13l-1.3-1c-3.3 2.7-6.5 5.4-9.4 8.1a9 9 0 001.5 1.8zM16745.6 11415.2c2-1.7 1.6-8.5-2.5-13.5-2.7-3.3-6.4-5-9.6-6.5-1.4-.6-2.7-1.2-3.9-1.9l-1.9 1.8a28 28 0 005.2 15.2c2.6 3.3 7 5.8 10 5.8a4 4 0 002.7-.9zM16713.2 11415.5c.5.3 1 .5 1.7.5 2.4 0 6-2 8-4.8a19 19 0 003.3-13c-1.2 1-2.7 1.8-4.3 2.6l-.3.2a134.4 134.4 0 00-9.2 9.8c-.5 2.2-.2 4.1.8 4.7zM16696.1 11455.4c1 0 1.7-.4 2.4-1.3 2-2 3.1-6.3 2.8-10 0-2.4-.8-8.4-4-13.5-3.3 5-5.7 10-7.4 14.5.5 6 4.1 10.3 6.2 10.3zM16707 11417l1-.7c.2-.3.4-.7.4-1.2l-1.5 2zM16701.2 11432.7c2 1 4 1.5 5.6 1.5 1.4 0 2.4-.4 3.1-1 .5-.5.7-1.3.7-2.4 0-2-1.3-5-4.3-7.6l-2.6-1.8c-1.8 2.4-3.5 4.7-4.9 7 1 1.3 1.7 2.8 2.4 4.3zM16712.8 11447.3c-.2-2-1.5-5-4.6-7.4a23.8 23.8 0 00-5.6-3c1 3.2 1.2 6 1.2 7 .1 1.8 0 3.7-.5 5.6 2 1 4 1.3 5.5 1.3s2.7-.4 3.4-1.2c.5-.4.7-1.2.6-2.3zM16692.3 11469.4c1.2 0 2.1-.4 2.8-1 1.4-1.5.7-6.4-2.7-9.6-2.3-2.2-5.3-3-7.9-3.8-1.7-.5-3.3-1-4.7-1.7a19 19 0 005.2 12.8c2 2 5 3.3 7.3 3.3z" class="st0" fill="#fff" transform="matrix(.5516 0 0 .52231 -8568.7 -5722)"/><path d="M16779.6 11349.2l-23.8-4.5h-.3l.1-.3c4.2-18.4 6.4-32.2 7-42a672.1 672.1 0 01-59.7 56.7v.1c-17 14.7-31.3 27.7-32.2 37.8-1.4 15.1 3.8 27.3 8.3 38.1 2.3 5.4 4.5 10.5 5.7 15.6 6.1-27.2 39.7-63.3 95-101.5zM16757 11397.2c3 0 7.2-2 10.1-4.8 3.2-3 7.1-9.4 8-17.2a26.9 26.9 0 01-6.3 2.6c-3.4 1.2-7.4 2.5-10.5 5.5-2 2-3.8 4.7-4.7 7.4-.7 2.4-.6 4.5.2 5.4.7.7 1.8 1.1 3.1 1.1zM16755.5 11417.5c3 0 7.3-2 10.2-5 3.1-3 7-9.4 7.8-17.2a29.7 29.7 0 01-6.2 2.7 27.2 27.2 0 00-10.4 5.6c-2 2-3.8 4.7-4.6 7.4-.7 2.4-.6 4.4.2 5.3.7.8 1.7 1.2 3 1.2zM16752.2 11438.6c3 0 7.2-1.8 10-4.4 3.2-2.9 7.3-9 8.4-17-1.8 1.1-4 1.7-6.3 2.4-3.5 1-7.4 2.2-10.7 5.1-2.2 2-4 4.6-4.9 7.2-.8 2.4-.8 4.4 0 5.4s2 1.3 3.5 1.3zM16787.6 11428.7a23.3 23.3 0 00-12.5 23.4c.5 2.1 1.5 3.3 3 3.3 1.1 0 3.5-.9 7-7 2.5-4.6 3.5-12.8 2.5-19.7zM16730.5 11501.3c-1.3 7.8.8 14.7 3 18.3.3.6.7 1.3 1.3 2l11.8-.8c0-2.8-.9-5.8-2.4-8.3a23.7 23.7 0 00-8.5-7.4c-2-1.2-3.8-2.3-5.2-3.8zM16721.5 11522c-.7-1.9-1.7-3.6-3-5-2.8-3-6.4-4.4-9.7-5.6a26 26 0 01-5.8-2.7c0 4.8 1.1 9.8 3.3 13.8l15.2-.5zM16682.5 11524.2a71 71 0 0114.2-1.5c-1.7-9.3-7.9-11.8-14.5-14.5a30.4 30.4 0 01-10-5.6c2.6 10.4 5.1 17 10.3 21.6zM16680 11525a54 54 0 00-19.9-14.4 48 48 0 017.8 20c3.3-2.6 7.2-4.4 12-5.7zM16759.8 11518.6l-2.4 1.2a73 73 0 0012.2-2.4h-2.4c-3 0-5.3.3-7.4 1.2zM16758.3 11512.3c.5 1.6 2.6 2.5 5.5 2.5 2.1 0 4.5-.5 6.5-1.3 4.1-1.7 10-5.9 13.5-11.9-.9.2-1.9.3-3 .3h-3.2c-1-.2-2.3-.2-3.5-.2-3 0-5.3.4-7.4 1.3-5.6 2.2-9 7.2-8.4 9.3zM16764 11497.1c.5 1.3 2.4 2.1 5 2.1 2.3 0 5-.6 7.1-1.6 4-1.8 9.6-5.9 12.6-11.5-1.8.4-3.9.4-6.2.4-3.4 0-7.3 0-10.8 1.6-5.4 2.3-8.5 7.1-7.7 9zM16701.4 11517.2c-1 1.6-1.9 3.4-2.6 5.5h4.6a43 43 0 01-2-5.5zM16724.1 11494.8l-.6 1.2.8.8c0-.9 0-1.5-.2-2zM16711.2 11509.4l-.5-.6-.7.4 1.7.6c-.2 0-.3-.3-.5-.4zM16719.8 11485.1c-1.5 1.1-3.4 2-5.4 3-3 1.3-6.5 3-9.3 5.8-4.2 4.4-5.4 10.2-4 11.6.5.5 1.2.7 2 .7 2.7 0 7-2.3 9.7-5.4a28 28 0 007-15.7zM16711.4 11505.5c.5.8 1.1 1.6 1.7 2.2 2.6 3 6.6 5 9.6 5 1.3 0 2.3-.4 3.1-1 2-1.9 1.4-8.3-2.8-12.8-1-1-2.3-2-3.8-3a23.6 23.6 0 01-7.8 9.6z" class="st0" fill="#fff" transform="matrix(.5516 0 0 .52231 -8568.7 -5722)"/><path d="M16726.2 11493.1l.4 1.4 1.1.1c1.3 0 2.3-.4 3.1-1 2-1.9 1.4-8.3-2.8-12.8-2.8-3-6.4-4.4-9.7-5.6a26 26 0 01-5.8-2.7c0 4.3.8 8.7 2.6 12.4 1.2-.6 2.6-1.3 3.6-2l3.7-3 .5-.5v.6l-.5 4.7c-.2 2.4-.7 4.8-1.6 7.3l1.4 1 1.7-3.7.2-.5.2.5zM16710 11472v-.9a19 19 0 00-6.5 4.6c-3.7 4.2-4.4 10-2.9 11.3.5.5 1.3.8 2.2.8 2.6 0 6.3-2 8.8-4.8a32.3 32.3 0 01-1.6-11zM16692.2 11507c1.3 0 2.3-.5 3-1.2.7-.9.8-2.9.2-5a16 16 0 00-4-7c-2.8-2.8-6.3-4-9.3-5-2-.7-4-1.4-5.5-2.4.5 7.4 4 13.3 6.6 16.1a14 14 0 009 4.4zM16693.6 11487.8c1.1 0 2-.3 2.5-1 1.3-1.5.5-6.8-3-10.3-2.5-2.4-5.5-3.4-8.2-4.3-1.7-.6-3.4-1-4.7-2a23 23 0 005.7 13.8 12 12 0 007.7 3.8zM16713.7 11451.2c-1.3 1-2.9 1.6-4.6 2.3-2.6 1-5.5 2.2-7.7 4.7-3.2 3.7-3.6 9-2 10.2.5.5 1.2.8 2.2.8 2.4 0 5.7-1.8 7.7-4.2 2.1-2.5 4.5-7.6 4.4-13.8zM16775.5 11467.5c.6 1.3 2.3 2 4.6 2 2 0 4.4-.6 6.2-1.5 3-1.6 7.4-5.4 9.8-11.2-1.6.4-3.4.4-5.2.4-2.9 0-6 .1-9.2 1.6-4.5 2.3-7 7-6.2 8.7zM16769.6 11482.2c.6 1.3 2.3 2 4.6 2 2 0 4.4-.6 6.2-1.5 3-1.6 7.4-5.4 9.8-11.2-1.6.4-3.4.4-5.2.4-2.9 0-6 .1-9.2 1.6-4.6 2.2-7 6.8-6.2 8.7zM16735.7 11475.7c2-1.7 1.6-8.5-2.5-13.5-2.7-3.3-6.4-5-9.6-6.5-2.2-1-4.2-1.9-5.8-3.2a29.1 29.1 0 005.2 18.3c2.6 3.3 7 5.8 10 5.8 1.2.1 2.1-.3 2.7-.9zM16737.8 11486v.8l.4-.6s-.3 0-.4-.3zM16754 11505.5c0-2.6-.9-5.3-2.2-7.6a20.2 20.2 0 01-10.7 3.6c-.6 0-1.2 0-1.8-.2.4 1.1 1 2.1 1.4 3 2.3 3.8 6.5 7 9.5 7 .8 0 1.5-.3 2.1-.7 1-.8 1.6-2.8 1.6-5zM16760.1 11480.3l.5.8.3-1.2-.8.4zM16741.1 11499c3 0 6.6-1.4 9.4-3.3h.2a19.3 19.3 0 01-6.5-11l-1 .5c-2.4 1.6-4.5 4-5.7 6.6-1 2.2-1.3 4.3-.6 5.4 1 1.4 2.8 1.7 4.2 1.7zM16765.1 11480.3c1.8-1 2.8-6.5.6-11.2-1.5-3.2-4.3-5.6-6.7-7.7-1.5-1.3-3-2.6-4-3.9a26.8 26.8 0 001 16.4c.7 1.5 1.7 3 3 4.1l1.4-.6 3.8-1.9.5-.2v.5l-1 4.2-.2.6h.3a3 3 0 001.3-.3zM16742 11477.4c.3.5.8 1 1.5 1.2a35 35 0 01.6-8l.5-2.4c-3 3.6-3.8 7.6-2.7 9.2zM16748 11469.7c1 1.3 2.7 2.5 4.5 3.7l.8.6a29.6 29.6 0 01-1.7-11c-1.5.6-2.8 1.4-4 2.2l-1.9 1.6zM16767.2 11437.8c-1.8 1.1-4 1.7-6.3 2.4-3.5 1-7.4 2.2-10.7 5.1-2.2 2-4 4.6-4.9 7.2-.8 2.4-.8 4.4 0 5.4.7.8 2 1.3 3.4 1.3 1 0 2.1-.2 3.3-.6l.6-2.4 1.2-4 .2-.5.3.4 2.3 3.5.4.5 1.8-1.4c3.3-2.8 7.4-9 8.4-16.9zM16762 11459.8c1.5 3.2 4.7 5.7 7 5.7.5 0 1 0 1.4-.4 1.7-1 2.4-5.8.2-10-1.2-2.2-3-4-4.6-5.7a29.7 29.7 0 01-5.2 7 17 17 0 001.1 3.4z" class="st0" fill="#fff" transform="matrix(.5516 0 0 .52231 -8568.7 -5722)"/><path d="M16779 11432.3c5.1-10.3 8.3-19.5 9.6-27.4-2.7 3.3-6.6 6-10 8.3-2 1.4-4 2.7-5.5 4.1a32.3 32.3 0 01-9.2 19l-1.2 1c1.3-.5 2.6-1 3.7-1.7l3.6-2.4.4-.3v.5l-.6 4.3c-.4 3.1-1.3 6.4-2.6 9.5l2.4 2.4 3.6-6c1-4.3 3.1-8 5.8-11.3zm-8 .7h0l-.3-.2h0v-.3c.8-1.8 1.8-3.4 2.8-5l2-2.8 1.4-1.7 3.2-4.6 3-4.8.1-.2.2.1.2.1.2.1v.2l-2.5 5.2-2.8 5-.6 1c-.8 1.3-1.5 2.7-2.6 4-1.5 1.7-2.9 3-4.3 4zM16760.8 11490.6c0-2.6-.7-5.5-2-7.8-2-3.4-5-5.5-7.8-7.4a26 26 0 01-4.7-3.8 27 27 0 002.3 17.5c2.1 4 6 7 8.8 7 .7 0 1.3-.3 1.8-.6 1-.7 1.6-2.5 1.6-4.9zM16740.5 11456.5c2-1.7 1.6-8.5-2.5-13.5-2.7-3.3-6.4-5-9.6-6.5-2.2-1-4.2-1.9-5.8-3.2a29.1 29.1 0 005.2 18.3c2.6 3.3 7 5.8 10 5.8a4 4 0 002.7-.9zM16743.7 11436.2c2-1.7 1.6-8.5-2.5-13.5-2.7-3.3-6.4-5-9.6-6.5-2.2-1-4.2-1.9-5.8-3.2a29.1 29.1 0 005.2 18.3c2.6 3.3 7 5.8 10 5.8a4 4 0 002.7-.9zM16718.6 11448.5c.5.3 1 .4 1.7.4.8 0 1.7-.2 2.7-.6a33.7 33.7 0 01-2.8-10.7c0 .2-.3.3-.4.5a11 11 0 00-2.4 8.4c.2 1 .6 1.6 1.2 2zM16723.4 11416.8a19.6 19.6 0 00-6.2 4.7 11.4 11.4 0 00-2.8 8.3c.2 1 .5 1.7 1.1 2.1.5.3 1.1.5 2 .5.8 0 1.7-.2 2.8-.6l.2-3.2v-.5l.4.4 2.1 2c1.1-.7 2.2-1.6 3-2.6a36.6 36.6 0 01-2.6-11zM16731 11435a36 36 0 01-1.9-2.2l-.8-1-.3.1-1.5 1 3 1.3 1.5.7zM16716.6 11317c-1 1.6-2.7 3.2-4.4 5a27.7 27.7 0 00-7 9 13 13 0 00-.2 10c.5 1 1.2 1.6 2 1.8l.7.1c3.4 0 8-4.9 9.6-9.2a23.5 23.5 0 00-.7-16.8zM16786.3 11550.1c2.4-3.5 4.2-7.4 5.2-11.6a109.5 109.5 0 001.3-44.1c-3.7 13-7.9 17.8-12 21.2-10.5 8.7-33.9 9.3-80.5 10.5l-3.2.1c-11 .3-24.9 2-32.5 12.4-6 7.6-25.8 42.8-27.2 54.3-.4 3.6-.5 8.4 1.1 12-.6-3.9 0-8.6 1-11.2a38.2 38.2 0 0132.7-23.8c9.3-1 21.2-1.2 34-1.4 16.1-.3 34.5-.5 51.1-2.6 7-.8 13-2.7 17.7-5.5 3.3-1.8 7.7-5 11.3-10.3zM16446.5 11856s-.3 0-.5-.2l-.6-.2H16444.1l-.6.5-.4.7-.2.7.1.6c.2.3.4.4.8.4s.7 0 1.1-.2c.4 0 .8-.3 1.1-.6l.8-.9c.1-.2.1-.3 0-.4 0-.2 0-.3-.3-.4z" class="st0" fill="#fff" transform="matrix(.5516 0 0 .52231 -8568.7 -5722)"/><path d="M16486.2 11839c-7.7-11.7-15.4-16.9-25-16.9-4.8 0-9.6 1.2-14.6 2.6-39.2 11-76.4 15-96.4 15.1-20 0-57.2-4-96.4-15-5-1.5-9.8-2.7-14.6-2.7-9.6 0-17.3 5.2-25 16.8a163.6 163.6 0 01-36.8 34.5c4.6-1.4 9.4-2.2 14.6-2.2 15.4 0 32 6.6 51.1 14.2 27.2 10.8 61.1 24.2 107.1 25.2 46-1 79.8-14.4 107-25.2 19.2-7.6 35.8-14.2 51.2-14.2 5.1 0 10 .7 14.6 2.2-9.5-6.4-28.6-22-36.8-34.5zm-52.4 4.6l1.3-4.2c.1-.2.2-.3.4-.2l4.6 1.1.2.1v.2l-1.2 4.2c0 .2-.3.3-.4.2l-4.6-1c-.3 0-.3-.3-.3-.4zm-28.3 16.2l2.1-3.9c.1-.2.2-.2.4-.2l4.3 2h.2v.2l-2 4-.6.1-4.3-1.9c-.2 0-.3-.2 0-.3zm-45.4 4l3-3.4c0-.2.2-.2.3 0l3.7 2.8.1.1v.2l-3 3.3c-.2.1-.3.2-.4 0l-3.7-2.8c-.2 0-.2-.2 0-.3zm-84.3-5.3l3.6-2.3.4.1 2.2 3.6 3.2-2c.2-.2.3-.2.4 0l2.4 3.8c.1.1.1.2 0 .4l-3.6 2.1h-.5l-2.2-3.6-3.2 2.1c-.2.1-.4.1-.4 0l-2.4-3.8c-.2 0 0-.3.1-.4zm-24-18.7l4.1-1.3c.2 0 .3 0 .4.2l1.6 4.4c.1.1.1.2 0 .2l-.2.1-4.2 1.3c-.2 0-.4 0-.4-.2l-1.7-4.4c0-.2 0-.3.3-.3zm8.2 12.5a41.7 41.7 0 01-3.7 12.2 13.1 13.1 0 01-8.4 6.3 15.2 15.2 0 01-10.8-1.8c-1.3-.7-2.5-1.6-3.4-2.6-.9-1-1.6-2-2-3.2a7.6 7.6 0 01-.6-3.7c.1-1.3.6-2.6 1.4-4l1.6-2.3 2-2.2a13 13 0 012.3-1.8l2.5-1.4h.4l.2.2v.4l-.3.4c-.9.6-1.7 1.2-2.5 2a9.9 9.9 0 00-2.8 5.1 6.2 6.2 0 001.5 5.3c.7.8 1.6 1.6 2.8 2.2a16.4 16.4 0 007 2.1h3.5l3.3-1c.4-.8.6-1.5.8-2.3l.3-2.6v-2.7c0-.9 0-1.7-.2-2.4v-1.9-1l2.4-1.9c1-.6 1.7-1 2.5-1.7h.3l.1.2c0 1.3 0 2.6-.2 4.1zm109.8 32.4c0 1-.2 1.7-.4 2.5a6.7 6.7 0 01-2.2 3.6l-1.8 1-1.8.4-1.8.2h-5.2a7 7 0 01-2.6-.5 8 8 0 01-3.2-2.4c-.3-.5-.6-.9-.8-.4-.5 1-1 1.7-1.6 2.3-.5.6-1 1-1.4 1-.6 0-1.4 0-2-.3-.9-.2-1.6-.6-2.3-1l-1.9-1.3a10 10 0 01-1-1.2 7.4 7.4 0 01-5.2 2.8c-1 .1-2 0-3-.2s-2.6-1.8-2.9-2.4c-9.7 3.4-46.5-1.4-47.6-8.8 0-.8-.4-1.5-.4-2.3a7.5 7.5 0 01-3.9 2.8c-4 1.1-9.4-1.2-10.5-2.2a6.4 6.4 0 01-2.3-5l.3-3.5 1.1-5.8 1.2-6 1-5.2.2-4.7v-.4l.2-.2.6-.7.8-.8.8-.8.6-.6h.2l.1.1c0 2.5-.4 5-.8 7.3l-1.4 7-1.3 6.6-.4 2.7c0 .8 0 1.6.2 2.3.2.7.6 1.3 1.1 1.8.5.5 1.4 1 2.4 1.3a26.3 26.3 0 006 1.4h2c.5-.2 1.1-.4 1.6-.8l1.2-1 1-1.3.5-.4h.5l.3.1c.1.1 0 .2 0 .4l-.4.7c0 .2 0 .4-.2.6V11874.7a3.4 3.4 0 001.5 2.4c11 5.2 30.4 7.7 41.6 7a6 6 0 002.3-.5 8.2 8.2 0 003.8-3.2l.3-.3h.4l.3.1.1.4-.3 1-.4 1-.5 1-.6.7 2.1.4 2.2.1c.7 0 1.4-.2 2-.4.6-.2 1.2-.6 1.6-1l1.1-1.6 1-1.5.5-.5h.5l.3.1v.5c0 .4-.3.8-.4 1.2 0 .4-.3.8-.5 1.2 0 .2.3.5.7.8l1.5 1 1.8.7c.6.2 1.1.3 1.5.2.3 0 .5-.3.8-.6l.8-1c.2-.4.5-.8.6-1.3l.5-1.4.4-.6.5-.2.4.1c.1.1.2.3.1.5l.1 2c.1.6.3 1.2.7 1.6.4.5 1 .8 1.5 1.1.6.3 1.5.5 2.5.5l.7.1H16363.6l2-.5 1.8-.7-.9-1.8-1-1.6-1.3-1.3a10 10 0 01-1-1 48.8 48.8 0 011.4-5.7l.3.1a14.2 14.2 0 014.7 9c.3.2.3 1 .2 2zm85.4-18a5 5 0 01-1.3 2.6l-1.6 1.5c-5.9 4.1-9.8 5.6-13 7a97.1 97.1 0 01-16.9 5c-.9 0-1.8 0-2.6-.2s-1.5-.4-2.2-.8l-2-1.2c-.7 1-1.3 2-2.2 2.5-8.8 6.6-25 9-30.5 7.5-.9-.2-1.7-.7-2.4-1.3a8.1 8.1 0 01-1.7-2.3c-.5-.9-.8-2-1-3.3l-1.4-5.8-1.3-6-1.3-5.2-1.6-4.5v-.4-.3l.3-.8.4-1 .4-1 .3-.8.1-.2.2.1c1 2.4 1.6 4.7 2.2 7.1l1.6 7 1.5 6.5.7 2.6c.3.8.6 1.5 1.1 2 .4.5 1 1.1 1.7 1.2 8.2.7 17.8-1.8 23.5-3.5.8-.2 1.5-.6 2.3-.9a16 16 0 002.2-1.3c.7-.5 1.3-1 1.8-1.6l-1.5-.8c-.6-.2-1-.4-1.7-.4-.6 0-1 .1-1.5.3-.4.2-.8.5-1 1-.3.2-.5.3-.8.2-.3 0-.4-.2-.5-.6-.2-1-.2-2 0-3 .1-1 .4-1.8 1-2.6a7 7 0 012-2c1-.7 2-1.2 3.2-1.5l2.5-.4c.8 0 1.6 0 2.3.2a5 5 0 011.8 1c.5.3 1 1 1.1 1.6.1.5.2 1 .1 1.6 0 .6-.2 1.1-.3 1.7l-.6 1.5-.6 1c.8.4 1.7.6 2.6.7 1 0 2 0 3.1-.4a112.6 112.6 0 0025-10.3c1-.7 1.8-1.3 2.5-2s1.1-1.4 1.1-2c0-.4-.3-.8-.5-1l-.6-1-.6-.7-.5-.4v1.3a5 5 0 01-.5 1.3l-.6 1.1-.8.8a3 3 0 01-1.8.4c-.7 0-1.3-.2-1.9-.4a6.2 6.2 0 01-2.9-2.6c-.2-.5-.5-1-.7-1.8l-.6-2c0-.8-.2-1.6-.3-2.3l.1-2c.1-.8.3-1.3.5-1.8.3-.5.6-.9 1.1-1 .7-.5 1.5-.6 2.3-.5.8.1 1.6.4 2.4.8.8.4 1.6 1 2.3 1.6a20.8 20.8 0 013.8 4.2c.5.7 1 1.3 1.1 2l1.1 2.6c.3 1 .6 2.1.7 3.1 0 1.2 0 2.3-.2 3.3zm14.6-2.2c0 .4-.2.7-.3.8-.2.1-.4 0-.5-.3l-2.6-4.7c-.8-1.6-1.7-3-2.7-4.7l-2.7-4.6-2.8-4.7-2.6-4.3-2-3.3-.2-.8c0-.4 0-.9-.2-1.4 0-.5 0-1-.2-1.7v-1.7-1.3c0-.4.1-.6.3-.6l.4.2.5.8.4 1 .3.5 1.5 2.6 1.5 2.7 4.6 7.5a141 141 0 015.6 10 20 20 0 011.7 5.3v2.7z" class="st0" fill="#fff" transform="matrix(.5516 0 0 .52231 -8568.7 -5722)"/></g></svg>