<svg xmlns="http://www.w3.org/2000/svg" width="1200" height="600" version="1"><path fill="#090" d="M0 0h1200v600H0z"/><path fill="#bf0000" d="M0 0h1200v400H0z"/><path d="M0 0h1200v200H0z"/><g fill-rule="evenodd" stroke="#000" stroke-width="2" stroke-linecap="round" stroke-linejoin="round"><path d="M329.4 262.2a183.5 183.5 0 01106 64.3 234.6 234.6 0 00-14 12.3l2.7-2.5a173 173 0 00-97.4-59.4l2.7-14.7z"/><path d="M324 291.7c32.6 6 68.6 29.3 89.3 55.2a195.8 195.8 0 00-10 11.6c-17.8-23.4-53.2-46.8-82-52l2.7-14.8z" fill="#090"/><path d="M326.7 277a173 173 0 0197.4 59.3c-4 3.6-7.5 7.1-10.8 10.6-20.7-26-56.7-49.3-89.3-55.2l2.7-14.8z" fill="#bf0000"/><path d="M239.7 262.2a183.5 183.5 0 00-106 64.3 234.6 234.6 0 0114 12.3 233.1 233.1 0 00-2.7-2.5 173 173 0 0197.4-59.4l-2.7-14.7z"/><path d="M245 291.7c-32.5 6-68.5 29.3-89.3 55.2a195.8 195.8 0 0110 11.6c17.9-23.4 53.3-46.8 82-52l-2.6-14.8z" fill="#090"/><path d="M242.4 277a173 173 0 00-97.4 59.3c3.9 3.6 7.5 7.1 10.7 10.6 20.8-26 56.8-49.3 89.4-55.2l-2.7-14.8z" fill="#bf0000"/></g><g stroke-width="2" stroke-linecap="round" stroke-linejoin="round"><path d="M401.7 101.4c-15-19-30-35.8-46.2-48.9M408 101a305.3 305.3 0 00-45.3-49.7m51.5 48.6a305.5 305.5 0 00-45-50m50.8 50a305.4 305.4 0 00-43.7-51m53.6 51.9a305.4 305.4 0 00-40.6-53.6m36 53c-13.6-20.2-27.2-38-42.4-52.3M416.6 217.1c4.4-23.8 7-46.1 6.2-67m-1.6 71.5c4.7-23.8 7.8-46 7.3-66.9m-2.4 70.8c5-23.7 8.2-46 7.8-66.8m-4.1 71.2c5.5-23.6 9.3-45.7 9.5-66.6m-3.5 74.6c6.9-23.2 12-45 13.3-65.9m-16 62a305.4 305.4 0 0011.3-66.3" fill="none" stroke="#ffd600"/><g fill="#ffd600" fill-rule="evenodd" stroke="#000"><path d="M430.7 137c-1.7-.5-3.8-8.3-2.7-13 1.2-5 6.6-10.8 8.6-9.8 1.7 1 4.2 6.7 2.9 12.4-1.3 5.4-6.1 11.2-8.8 10.4z"/><path d="M425.8 120.8c-1.8-.4-4-8.1-3.1-12.9 1-5 6.1-11 8.1-10 1.8.8 4.5 6.5 3.4 12.2-1.1 5.5-5.7 11.4-8.4 10.7z"/><path d="M419 107.2c-1.8-.4-4.4-8-3.6-12.8.7-5 5.7-11.2 7.8-10.3 1.8.7 4.7 6.3 3.7 12-.9 5.6-5.2 11.7-8 11.1z"/><path d="M412 95c-1.8-.2-5-7.5-4.8-12.2.3-5 4.6-11.6 6.7-11 1.8.7 5.2 5.9 4.8 11.6-.4 5.5-4 11.9-6.7 11.6zm-7-11.5c-1.3 1-8.2-1.4-11.3-4.6-3.2-3.4-5-10.4-3.2-11.4 1.6-.9 7.3.2 11 4 3.5 3.8 5.4 10.4 3.5 12zm29.9 68.7c-1.8-.6-3.2-8.5-1.7-13.2 1.5-4.8 7.4-10.2 9.2-9 1.7 1 3.8 7 2 12.5-1.7 5.3-7 10.7-9.5 9.7z"/><path d="M436.3 166c-1.6-1-1.5-9 .9-13.3 2.4-4.4 9.2-8.6 10.8-7.1 1.5 1.3 2.3 7.6-.5 12.7-2.7 4.9-8.9 9.1-11.2 7.7zm-7-28.5c1-1.5-2.4-8.7-6.3-11.6-4-3.1-12-4-12.8-2-.8 1.8 1 7.8 5.7 11.3 4.5 3.3 11.9 4.6 13.4 2.3z"/><path d="M432.7 153c1.2-1.4-1.8-8.8-5.5-12-3.9-3.3-11.7-4.8-12.7-2.8-.9 1.8.5 8 5 11.7 4.3 3.6 11.5 5.3 13.2 3.2z"/><path d="M432.2 166.7c1.1-1.3-1-8.2-4-11.3-3.2-3.4-10-5.4-11.1-3.7-1 1.6-.2 7.2 3.5 11 3.5 3.6 9.9 5.8 11.6 4zm-8.4-45.1c.8-1.6-3.1-8.1-7-10.5-4.2-2.6-11.8-2.8-12.4-.8-.6 1.8 1.7 7.4 6.5 10.3 4.6 2.7 11.6 3.3 12.9 1z"/><path d="M416.9 107c.6-1.6-3.7-7.1-7.5-8.9-4-1.9-11-1.3-11.3.6-.3 1.7 2.3 6.5 7 8.6 4.4 2 10.9 1.9 11.8-.4z"/><path d="M410.5 95.8c.8-1.5-3.2-7.6-7-9.8-4-2.4-11.3-2.4-11.8-.4-.5 1.7 1.8 7 6.4 9.6 4.5 2.5 11.3 2.8 12.4.6z"/></g><path d="M411.8 279c13.8-20 25.4-39.1 33.2-58.5m-30.9 64.4a305.3 305.3 0 0034.2-57.9M417 290.5a305.4 305.4 0 0034.7-57.6m-33 63.2a305.3 305.3 0 0036-56.8m-34 66.5a305.5 305.5 0 0039.4-54.5m-40 49.9c15.2-18.9 28.3-37.1 37.5-55.8" fill="none" stroke="#ffd600"/><g fill="#ffd600" fill-rule="evenodd" stroke="#000"><path d="M397.8 308.5c-.2-1.8 6.2-6.7 11-7.5 5-.9 12.5 1.8 12.3 4-.1 2-4.5 6.6-10.3 7.5-5.5 1-12.6-1.2-13-4z"/><path d="M410.9 297.7c-.3-1.8 5.9-7 10.6-8 5-1 12.6 1.5 12.5 3.7 0 2-4.3 6.7-10 7.8-5.5 1.2-12.7-.8-13.1-3.5z"/><path d="M420.7 286.1c-.3-1.8 5.7-7.1 10.4-8.3 5-1.2 12.6 1 12.6 3.2 0 2-4 6.8-9.7 8.2-5.5 1.3-12.7-.4-13.3-3z"/><path d="M429.3 275c-.5-1.8 4.9-7.6 9.4-9.2 4.7-1.7 12.4-.3 12.6 1.9.2 2-3.3 7-8.8 9-5.2 1.7-12.4.8-13.2-1.8zm7.9-11c-1.5-.7-2-8-.2-12.2 1.9-4.2 7.7-8.6 9.3-7.3 1.4 1.1 2.7 6.8.5 11.6-2.1 4.7-7.4 9-9.6 8zm-51.8 54.2c0-1.8 6.7-6.2 11.5-6.6 5.1-.5 12.4 2.8 12 5-.3 2-5 6.1-10.8 6.6-5.6.5-12.5-2.2-12.7-5z"/><path d="M373.3 324.9c.3-1.9 7.7-4.8 12.5-4.3 5.1.5 11.6 5 10.8 7.2-.6 1.8-6 5-11.9 4.4-5.5-.6-11.8-4.6-11.4-7.3z"/><path d="M361.2 327c1-1.5 9-1.6 13.3.6 4.5 2.3 8.9 9 7.4 10.7-1.3 1.5-7.5 2.5-12.7-.2-5-2.6-9.4-8.6-8-11z"/><path d="M348.7 331c1-1.5 9-1 13.2 1.5 4.3 2.6 8.2 9.5 6.7 11-1.4 1.5-7.7 2-12.7-1-4.8-2.9-8.8-9.2-7.2-11.5z"/><path d="M335.3 333.4c1.1-1.5 9-.4 13 2.5 4.2 3 7.5 10.2 5.8 11.6-1.5 1.3-7.8 1.4-12.6-2-4.5-3.4-8-10-6.2-12.1zm61.5-26c1.8.4 7.1-5.6 8.3-10.3 1.2-5-1-12.6-3.2-12.6-2 0-6.8 4-8.1 9.7-1.4 5.4.3 12.7 3 13.2z"/><path d="M383.8 316.6c1.8.5 7.5-5.2 9-9.8 1.5-4.9-.1-12.6-2.4-12.8-2-.1-7 3.6-8.8 9.2-1.6 5.3-.5 12.7 2.2 13.4z"/><path d="M371 321.4c1.6.5 7.2-4 9-8.1 1.8-4.2 1-11.3-1-11.6-1.8-.3-6.7 2.6-8.7 7.4-2 4.7-1.6 11.4.8 12.3z"/><path d="M360.5 325.9c1.6.4 6.5-4.5 7.9-8.5 1.3-4.1 0-10.9-1.9-11-1.7-.1-6.1 3-7.7 7.9-1.5 4.6-.6 11 1.7 11.5z"/><path d="M348.4 329.8c1.5.6 6.9-3.8 8.6-7.6 1.8-4 1-10.9-.8-11.2-1.7-.3-6.4 2.5-8.4 7.1-2 4.5-1.6 10.9.6 11.7z"/><path d="M334.8 332.5c1.4.8 7.5-2.7 9.8-6.2 2.4-3.6 2.8-10.5 1-11-1.6-.6-6.7 1.3-9.4 5.5-2.7 4-3.4 10.5-1.4 11.7zm74.6-36.4c1.7.2 6.2-6 7-10.5.7-4.9-2.1-12-4.2-11.7-1.9.2-6.1 4.4-7 10-.7 5.2 1.6 12 4.2 12.2z"/><path d="M420.2 284c1.6 0 5-6 5.2-10.3.2-4.4-3-10.5-5-10.1-1.6.3-5 4.6-5.2 9.7-.2 4.9 2.6 10.8 5 10.8z"/><path d="M428 273.9c1.6.1 5.8-6 6.3-10.3.6-4.6-2.2-11.3-4.2-11-1.8.2-5.8 4.4-6.4 9.6-.6 5.1 1.8 11.5 4.3 11.7z"/></g><g fill="#ffd600" fill-rule="evenodd" stroke="#000"><path d="M415 256.1c-1-1.6 2.8-8.7 6.8-11.4 4.2-3 12.1-3.6 13-1.5.6 1.8-1.5 7.8-6.3 11-4.6 3.2-12 4.3-13.5 2z"/><path d="M422.3 240.8c-1-1.5 2.5-8.7 6.4-11.7 4-3 12-4 12.8-1.9.8 1.8-1 7.9-5.8 11.3-4.5 3.3-11.8 4.6-13.4 2.3z"/><path d="M426.4 226.2c-1-1.5 2.1-8.9 6-12 4-3.1 11.8-4.3 12.7-2.3.8 1.8-.8 7.9-5.4 11.5-4.4 3.5-11.7 5-13.3 2.8z"/><path d="M429.5 212.4c-1.2-1.4 1.3-8.9 4.7-12.2 3.6-3.5 11.1-5.5 12.2-3.6 1 1.7 0 7.8-4.2 11.8-4 3.8-11 6-12.7 4zm2.5-13.2c-1.6 0-5.1-6.5-5.2-11-.1-4.7 3.4-11 5.3-10.6 1.8.5 5.3 5 5.3 10.4.1 5.2-2.8 11.3-5.4 11.2zm-24.1 71c-.9-1.7 3.4-8.5 7.6-11 4.4-2.5 12.4-2.6 13-.4.5 1.9-2 7.6-7 10.5-4.9 2.8-12.3 3.3-13.6.8z"/><path d="M399.6 281.3c-.5-1.8 5-7.6 9.6-9.2 4.8-1.7 12.6-.2 12.8 2 .2 2-3.4 7.1-8.9 9-5.3 1.8-12.7.8-13.5-1.8z"/><path d="M389.6 288.3c.1-1.8 7.4-5.2 12.2-5 5.1.1 11.9 4.4 11.3 6.5-.6 1.9-5.8 5.4-11.6 5.2-5.6-.3-12.2-4-12-6.7z"/><path d="M379.9 297.2c.3-1.8 7.7-4.8 12.5-4.3 5.1.6 11.6 5.2 10.8 7.3-.7 1.9-6.1 5-12 4.4-5.5-.6-11.8-4.7-11.3-7.4z"/><path d="M368.7 305c.4-1.9 8.1-4.2 12.9-3.3 5 1 11 6.2 10.1 8.2-.8 1.8-6.5 4.5-12.2 3.4-5.5-1.1-11.5-5.7-10.8-8.4zm45-49.5c1.8-.4 4-8 3.1-12.8-1-5-6.1-11-8.1-10.2-1.8.9-4.5 6.6-3.4 12.3 1.1 5.5 5.7 11.4 8.4 10.7z"/><path d="M405.7 269.3c1.8-.3 4.6-7.8 4-12.6-.6-5.1-5.4-11.5-7.5-10.7-1.8.8-4.9 6.3-4.1 12 .7 5.6 4.9 11.8 7.6 11.3z"/><path d="M396.2 279c1.6-.1 4.7-6.7 4.6-11-.1-4.6-3.9-10.7-5.8-10.2-1.7.5-5 5.2-4.7 10.5.2 5 3.4 11 5.9 10.7z"/><path d="M388.5 287.5c1.5-.3 4-6.7 3.5-11s-4.5-9.8-6.3-9.1c-1.6.6-4.3 5.3-3.7 10.3.6 4.8 4.1 10.2 6.5 9.8z"/><path d="M379.1 296.2c1.6-.1 4.7-6.3 4.6-10.5 0-4.4-3.6-10.3-5.4-9.8-1.7.4-4.8 4.9-4.7 10 .2 4.8 3.2 10.5 5.5 10.3z"/><path d="M368 304.3c1.5.1 5.6-5.5 6.2-9.6.6-4.4-1.8-10.8-3.7-10.6-1.7.2-5.5 4-6.3 9-.6 4.9 1.4 11 3.7 11.2zm52.3-64.3c1.7-.6 3.2-8 1.9-12.5-1.4-4.7-6.9-10-8.7-8.9-1.6 1-3.7 6.6-2 12 1.5 5.1 6.3 10.3 8.8 9.4z"/><path d="M425 224.5c1.5-.7 2-7.6.4-11.5-1.7-4.1-7.2-8.3-8.7-7.2-1.4 1-2.7 6.4-.7 11s6.9 8.8 9 7.7z"/><path d="M427.8 212c1.6-.6 2.8-7.8 1.5-12-1.5-4.4-6.8-9.3-8.5-8.2-1.6 1-3.4 6.4-1.7 11.4 1.6 4.9 6.4 9.7 8.7 8.8z"/></g><path d="M392.6 132a120.3 120.3 0 00-22.1-42.3m26.6 35.2a120.3 120.3 0 00-24.3-41m14.5 56.8c-3.5-16.1-10.2-31-19.2-43.7m38.3 30a120.3 120.3 0 00-24.2-41" fill="none" stroke="#ffd600"/><g fill="#ffd600" fill-rule="evenodd" stroke="#000"><path d="M403.6 183.3c-1.5-1.1-.7-9 2-13.1 2.8-4.3 9.8-8 11.3-6.3 1.4 1.4 1.7 7.7-1.5 12.6-3 4.7-9.5 8.4-11.8 6.8z"/><path d="M404.6 166.4c-1.6-1-1-9 1.4-13.2 2.7-4.4 9.6-8.3 11.2-6.7 1.4 1.4 2 7.7-1 12.7-3 4.8-9.3 8.7-11.6 7.2z"/><path d="M402.8 151.3c-1.5-1-1.3-9 1-13.3 2.5-4.4 9.3-8.6 11-7 1.4 1.3 2.2 7.6-.7 12.7-2.7 4.8-9 9-11.3 7.6z"/><path d="M400.5 137.4c-1.6-.9-2.2-8.7-.3-13.1 2-4.6 8.3-9.3 10-8 1.5 1.2 2.9 7.3.6 12.5-2.3 5-7.9 9.8-10.3 8.6zm-2.6-13.2c-1.6.6-7.3-4.1-9-8.2-2-4.3-1.1-11.5.9-11.8 1.8-.3 6.8 2.7 8.8 7.6 2 4.7 1.6 11.5-.7 12.4zm4.4 74.8c-1.4-1.2 0-9.1 3-13 3-4 10.4-7 11.8-5.3 1.2 1.5 1 7.8-2.5 12.4-3.5 4.4-10.2 7.7-12.3 5.9z"/><path d="M398.9 212.4c-1.2-1.4 1.7-9 5.4-12.1 3.8-3.4 11.6-5 12.6-3 1 1.7-.4 7.9-4.8 11.7-4.3 3.7-11.5 5.6-13.2 3.4z"/><path d="M392.2 222.7c-.5-1.7 4.9-7.6 9.5-9.3 4.8-1.8 12.6-.4 12.8 1.8.2 2-3.3 7.2-8.8 9.2-5.2 1.9-12.6 1-13.5-1.7z"/><path d="M386.6 234.6c-.4-1.8 5.4-7.3 10-8.7 5-1.4 12.7.5 12.7 2.7.1 2-3.7 7-9.3 8.6-5.4 1.5-12.8.1-13.4-2.6z"/><path d="M379.2 246c-.3-1.8 6-6.9 10.7-7.8 5-1 12.5 1.5 12.4 3.7 0 2-4.3 6.6-10 7.7-5.5 1.1-12.7-.9-13.1-3.6zm23-62.7c1.4-1.1.7-9-2-13.1-2.8-4.3-9.9-8-11.4-6.3-1.3 1.4-1.7 7.7 1.5 12.6 3.1 4.7 9.6 8.4 11.8 6.8z"/><path d="M400 199c1.6-1 1.3-9-1-13.2-2.6-4.4-9.4-8.5-11-7-1.5 1.4-2.2 7.6.7 12.7 2.7 4.9 9 9 11.3 7.5z"/><path d="M394.8 211.6c1.5-.7 2-8 .1-12-1.8-4.2-7.6-8.4-9.2-7.2-1.4 1.1-2.6 6.7-.4 11.5 2 4.6 7.3 8.9 9.5 7.7z"/><path d="M390.9 222.4c1.3-.8 1.2-7.8-.8-11.5-2.1-3.8-8-7.4-9.4-6.1-1.2 1.1-1.9 6.5.5 11 2.4 4.2 7.7 7.8 9.7 6.6z"/><path d="M385.5 234c1.5-.7 2-7.6.3-11.5-1.8-4-7.2-8.2-8.7-7-1.4 1-2.6 6.3-.6 11 2 4.4 6.9 8.5 9 7.5z"/><path d="M378.2 245.7c1.5-.5 3.2-7.2 2.2-11.3-1-4.3-5.8-9.2-7.5-8.3-1.5.8-3.5 5.8-2.3 10.7 1.2 4.7 5.3 9.6 7.6 8.9zm24.2-79.3c1.4-1.2-.1-8.7-3-12.3-3-3.8-10-6.6-11.3-5-1.2 1.6-1 7.6 2.5 12 3.4 4 9.9 7 11.8 5.3z"/><path d="M401 150.3c1-1.2-1-7.9-4-10.9-3.2-3.1-9.9-5-10.9-3.3-.9 1.5 0 7 3.6 10.5 3.5 3.4 9.6 5.5 11.2 3.7z"/><path d="M398.8 137.6c1.2-1.1-.4-8.2-3.2-11.6-3-3.6-9.8-6-11-4.4-1 1.4-.6 7.2 2.8 11.2 3.3 3.9 9.6 6.5 11.4 4.8z"/></g><path d="M167.4 101.4c15-19 30-35.8 46.2-48.9M161 101a305.3 305.3 0 0145.4-49.7m-51.5 48.6c14.5-19.4 29-36.6 45-50m-50.8 50c14-19.7 28.1-37.1 43.7-51m-53.7 51.9c13-20.5 26-38.8 40.7-53.6m-36 53c13.6-20.2 27.2-38 42.4-52.3M152.5 217.1c-4.4-23.8-7-46.1-6.2-67m1.6 71.5c-4.7-23.8-7.8-46-7.3-66.9m2.4 70.8c-5-23.7-8.2-46-7.8-66.8m4 71.2a305.4 305.4 0 01-9.4-66.6m3.5 74.6c-6.9-23.2-12-45-13.3-65.9m16 62a305.3 305.3 0 01-11.3-66.3" fill="none" stroke="#ffd600"/><g fill="#ffd600" fill-rule="evenodd" stroke="#000"><path d="M138.4 137c1.7-.5 3.7-8.3 2.7-13-1.2-5-6.6-10.8-8.6-9.8-1.7 1-4.2 6.7-2.9 12.4 1.3 5.4 6 11.2 8.8 10.4z"/><path d="M143.3 120.8c1.8-.4 4-8.1 3.1-12.9-1-5-6.1-11-8.2-10-1.8.8-4.4 6.5-3.3 12.2 1.1 5.5 5.7 11.4 8.4 10.7z"/><path d="M150.1 107.2c1.8-.4 4.4-8 3.6-12.8-.8-5-5.7-11.2-7.8-10.3-1.8.7-4.7 6.3-3.8 12 1 5.6 5.3 11.7 8 11.1z"/><path d="M157.1 95c1.8-.2 5-7.5 4.7-12.2-.2-5-4.5-11.6-6.6-11-1.8.7-5.2 5.9-4.8 11.6.3 5.5 4 11.9 6.7 11.6zm7-11.5c1.3 1 8.2-1.4 11.3-4.6 3.2-3.4 5-10.4 3.1-11.4-1.5-.9-7.2.2-10.9 4-3.5 3.8-5.4 10.4-3.5 12zm-29.9 68.7c1.7-.6 3.1-8.5 1.7-13.2-1.5-4.8-7.4-10.2-9.3-9-1.7 1-3.7 7-2 12.5 1.8 5.3 7 10.7 9.6 9.7z"/><path d="M132.8 166c1.6-1 1.4-9-.9-13.3-2.4-4.4-9.2-8.6-10.8-7.1-1.5 1.3-2.3 7.6.5 12.7 2.7 4.9 8.8 9.1 11.2 7.7zm7-28.5c-1-1.5 2.4-8.7 6.3-11.6 4-3.1 12-4 12.8-2 .8 1.8-1 7.8-5.7 11.3-4.6 3.3-11.9 4.6-13.4 2.3z"/><path d="M136.4 153c-1.2-1.4 1.8-8.8 5.5-12 3.9-3.3 11.7-4.8 12.7-2.8.9 1.8-.6 8-5 11.7-4.3 3.6-11.5 5.3-13.2 3.2z"/><path d="M136.9 166.7c-1.1-1.3 1-8.2 4-11.3 3.2-3.4 10-5.4 11.1-3.7 1 1.6.2 7.2-3.5 11-3.6 3.6-9.9 5.8-11.6 4zm8.4-45.1c-.9-1.6 3-8.1 7-10.5 4.2-2.6 11.8-2.8 12.4-.8.6 1.8-1.7 7.4-6.5 10.3-4.6 2.7-11.7 3.3-13 1z"/><path d="M152.2 107c-.6-1.6 3.7-7.1 7.5-8.9 4-1.9 11-1.3 11.3.6.3 1.7-2.3 6.5-7 8.6-4.4 2-10.9 1.9-11.8-.4z"/><path d="M158.6 95.8c-.8-1.5 3.2-7.6 7-9.8 4-2.4 11.3-2.4 11.8-.4.5 1.7-1.8 7-6.4 9.6-4.5 2.5-11.3 2.8-12.4.6z"/></g><path d="M157.3 279a305.3 305.3 0 01-33.2-58.5m30.9 64.4a305.3 305.3 0 01-34.2-57.9m31.3 63.5a305.5 305.5 0 01-34.6-57.6m33 63.2a305.3 305.3 0 01-36-56.8m34 66.5a305.4 305.4 0 01-39.4-54.5m40 49.9a305.4 305.4 0 01-37.5-55.8" fill="none" stroke="#ffd600"/><g fill="#ffd600" fill-rule="evenodd" stroke="#000"><path d="M171.2 308.5c.3-1.8-6.1-6.7-10.9-7.5-5-.9-12.5 1.8-12.3 4 .1 2 4.5 6.6 10.2 7.5 5.6 1 12.7-1.2 13-4z"/><path d="M158.2 297.7c.3-1.8-5.9-7-10.6-8-5-1-12.6 1.5-12.5 3.7 0 2 4.3 6.7 10 7.8 5.5 1.2 12.7-.8 13.1-3.5z"/><path d="M148.4 286.1c.3-1.8-5.7-7.1-10.4-8.3-5-1.2-12.6 1-12.6 3.2 0 2 4 6.8 9.7 8.2 5.5 1.3 12.7-.4 13.3-3z"/><path d="M139.8 275c.5-1.8-5-7.6-9.4-9.2-4.8-1.7-12.4-.3-12.6 1.9-.2 2 3.3 7 8.7 9 5.3 1.7 12.5.8 13.3-1.8zm-7.9-11c1.5-.7 2-8 .2-12.2-1.9-4.2-7.7-8.6-9.3-7.3-1.4 1.1-2.7 6.8-.5 11.6 2.1 4.7 7.4 9 9.6 8zm51.7 54.2c.1-1.8-6.6-6.2-11.4-6.6-5.1-.5-12.4 2.8-12 5 .3 2 5 6.1 10.8 6.6 5.6.5 12.5-2.2 12.6-5z"/><path d="M195.8 324.9c-.3-1.9-7.7-4.8-12.5-4.3-5.1.5-11.6 5-10.9 7.2.7 1.8 6.1 5 12 4.4 5.5-.6 11.8-4.6 11.4-7.3z"/><path d="M207.9 327c-1-1.5-9-1.6-13.3.6-4.5 2.3-8.9 9-7.4 10.7 1.3 1.5 7.5 2.5 12.7-.2 5-2.6 9.4-8.6 8-11z"/><path d="M220.4 331c-1-1.5-9-1-13.2 1.5-4.4 2.6-8.2 9.5-6.7 11 1.4 1.5 7.7 2 12.7-1 4.8-2.9 8.8-9.2 7.2-11.5z"/><path d="M233.8 333.4c-1.1-1.5-9-.4-13 2.5-4.2 3-7.5 10.2-5.8 11.6 1.5 1.3 7.8 1.4 12.6-2 4.5-3.4 8-10 6.2-12.1zm-61.5-26c-1.9.4-7.2-5.6-8.3-10.3-1.3-5 1-12.6 3.1-12.6 2 0 6.9 4 8.2 9.7 1.3 5.4-.3 12.7-3 13.2z"/><path d="M185.3 316.6c-1.8.5-7.5-5.2-9-9.8-1.5-4.9.1-12.6 2.3-12.8 2-.1 7.1 3.6 8.9 9.2 1.6 5.3.4 12.7-2.2 13.4z"/><path d="M198 321.4c-1.6.5-7.1-4-8.9-8.1-1.8-4.2-1-11.3 1-11.6 1.8-.3 6.7 2.6 8.7 7.4 2 4.7 1.5 11.4-.8 12.3z"/><path d="M208.6 325.9c-1.6.4-6.5-4.5-7.9-8.5-1.4-4.1 0-10.9 1.9-11 1.7-.1 6.1 3 7.7 7.9 1.5 4.6.5 11-1.7 11.5z"/><path d="M220.7 329.8c-1.5.6-6.9-3.8-8.6-7.6-1.8-4-1-10.9.8-11.2 1.7-.3 6.4 2.5 8.4 7.1 2 4.5 1.6 10.9-.6 11.7z"/><path d="M234.2 332.5c-1.3.8-7.4-2.7-9.7-6.2-2.4-3.6-2.8-10.5-1-11 1.6-.6 6.7 1.3 9.4 5.5 2.7 4 3.4 10.5 1.3 11.7zM159.7 296c-1.8.2-6.3-6-7-10.5-.7-4.9 2-12 4.2-11.7 1.9.2 6.1 4.4 6.9 10 .8 5.2-1.5 12-4.1 12.2z"/><path d="M149 284c-1.7 0-5.1-6-5.3-10.3-.2-4.4 3-10.5 5-10.1 1.6.3 5 4.6 5.2 9.7.1 4.9-2.6 10.8-5 10.8z"/><path d="M141.1 273.9c-1.7.1-5.8-6-6.3-10.3-.6-4.6 2.2-11.3 4.2-11 1.8.2 5.7 4.4 6.4 9.6.5 5.1-1.8 11.5-4.3 11.7z"/></g><g fill="#ffd600" fill-rule="evenodd" stroke="#000"><path d="M154 256.1c1-1.6-2.7-8.7-6.7-11.4-4.2-3-12.1-3.6-13-1.5-.6 1.8 1.4 7.8 6.3 11 4.6 3.2 12 4.3 13.4 2z"/><path d="M146.8 240.8c1-1.5-2.5-8.7-6.4-11.7-4-3-12-4-12.8-1.9-.8 1.8 1 7.9 5.8 11.3 4.5 3.3 11.8 4.6 13.4 2.3z"/><path d="M142.7 226.2c1-1.5-2.2-8.9-6-12-4-3.1-11.8-4.3-12.7-2.3-.9 1.8.8 7.9 5.4 11.5 4.4 3.5 11.7 5 13.3 2.8z"/><path d="M139.6 212.4c1.2-1.4-1.3-8.9-4.7-12.2-3.6-3.5-11.1-5.5-12.2-3.6-1 1.7 0 7.8 4.2 11.8 4 3.8 11 6 12.7 4zm-2.6-13.2c1.7 0 5.2-6.5 5.3-11 .1-4.7-3.4-11-5.3-10.6-1.8.5-5.3 5-5.4 10.4 0 5.2 3 11.3 5.4 11.2zm24.2 71c.9-1.7-3.4-8.5-7.6-11-4.4-2.5-12.4-2.6-13-.4-.6 1.9 2 7.6 7 10.5 4.9 2.8 12.3 3.3 13.6.8z"/><path d="M169.5 281.3c.5-1.8-5-7.6-9.6-9.2-4.8-1.7-12.7-.2-12.9 2-.1 2 3.4 7.1 9 9 5.3 1.8 12.7.8 13.5-1.8z"/><path d="M179.5 288.3c-.2-1.8-7.4-5.2-12.3-5-5 .1-11.8 4.4-11.2 6.5.6 1.9 5.8 5.4 11.6 5.2 5.6-.3 12.1-4 11.9-6.7z"/><path d="M189.2 297.2c-.3-1.8-7.7-4.8-12.6-4.3-5 .6-11.5 5.2-10.7 7.3.7 1.9 6.1 5 11.9 4.4 5.6-.6 11.8-4.7 11.4-7.4z"/><path d="M200.4 305c-.4-1.9-8.1-4.2-12.9-3.3-5 1-11 6.2-10.1 8.2.8 1.8 6.5 4.5 12.2 3.4 5.5-1.1 11.4-5.7 10.8-8.4zm-45-49.5c-1.8-.4-4-8-3.2-12.8 1-5 6.2-11 8.2-10.2 1.8.9 4.5 6.6 3.4 12.3-1.1 5.5-5.7 11.4-8.4 10.7z"/><path d="M163.4 269.3c-1.8-.3-4.6-7.8-4-12.6.6-5.1 5.4-11.5 7.5-10.7 1.8.8 4.9 6.3 4.1 12-.7 5.6-4.9 11.8-7.6 11.3z"/><path d="M173 279c-1.7-.1-4.9-6.7-4.7-11 .1-4.6 3.8-10.7 5.8-10.2 1.7.5 4.9 5.2 4.7 10.5-.2 5-3.4 11-5.9 10.7z"/><path d="M180.6 287.5c-1.6-.3-4-6.7-3.5-11 .4-4.3 4.5-9.8 6.3-9.1 1.6.6 4.2 5.3 3.6 10.3-.5 4.8-4 10.2-6.4 9.8z"/><path d="M190 296.2c-1.6-.1-4.7-6.3-4.6-10.5 0-4.4 3.6-10.3 5.4-9.8 1.6.4 4.8 4.9 4.6 10 0 4.8-3 10.5-5.4 10.3z"/><path d="M201.2 304.3c-1.6.1-5.7-5.5-6.3-9.6-.7-4.4 1.8-10.8 3.7-10.6 1.7.2 5.5 4 6.2 9 .7 4.9-1.3 11-3.6 11.2zM148.8 240c-1.7-.6-3.2-8-1.9-12.5 1.4-4.7 6.8-10 8.7-8.9 1.6 1 3.6 6.6 2 12-1.5 5.1-6.3 10.3-8.8 9.4z"/><path d="M144 224.5c-1.4-.7-2-7.6-.4-11.5 1.8-4.1 7.3-8.3 8.8-7.2 1.4 1 2.7 6.4.7 11s-6.9 8.8-9 7.7z"/><path d="M141.3 212c-1.6-.6-2.8-7.8-1.5-12 1.4-4.4 6.8-9.3 8.5-8.2 1.5 1 3.3 6.4 1.7 11.4-1.6 4.9-6.4 9.7-8.7 8.8z"/></g><path d="M176.5 132a120.3 120.3 0 0122.1-42.3M172 124.9a120.3 120.3 0 0124.3-41m-14.5 56.8c3.5-16.1 10.2-31 19.2-43.7m-38.3 30a120.2 120.2 0 0124.2-41" fill="none" stroke="#ffd600"/><g fill="#ffd600" fill-rule="evenodd" stroke="#000"><path d="M165.5 183.3c1.5-1.1.7-9-2-13.1-2.8-4.3-9.9-8-11.4-6.3-1.3 1.4-1.7 7.7 1.6 12.6 3 4.7 9.5 8.4 11.8 6.8z"/><path d="M164.5 166.4c1.5-1 1-9-1.5-13.2-2.6-4.4-9.6-8.3-11.1-6.7-1.4 1.4-2 7.7 1 12.7 3 4.8 9.3 8.7 11.6 7.2z"/><path d="M166.3 151.3c1.5-1 1.3-9-1-13.3-2.5-4.4-9.3-8.6-11-7-1.4 1.3-2.2 7.6.7 12.7 2.7 4.8 9 9 11.3 7.6z"/><path d="M168.6 137.4c1.6-.9 2.2-8.7.3-13.1-2-4.6-8.3-9.3-10-8-1.5 1.2-2.9 7.3-.6 12.5 2.3 5 7.9 9.8 10.3 8.6zm2.6-13.2c1.6.6 7.3-4.1 9-8.2 2-4.3 1-11.5-1-11.8-1.7-.3-6.7 2.7-8.8 7.6-2 4.7-1.5 11.5.8 12.4zm-4.4 74.8c1.4-1.2 0-9.1-3-13-3-4-10.4-7-11.8-5.3-1.2 1.5-1 7.8 2.5 12.4 3.4 4.4 10.2 7.7 12.3 5.9z"/><path d="M170.2 212.4c1.2-1.4-1.7-9-5.4-12.1-3.8-3.4-11.6-5-12.6-3-1 1.7.4 7.9 4.8 11.7 4.3 3.7 11.5 5.6 13.2 3.4z"/><path d="M176.8 222.7c.6-1.7-4.8-7.6-9.4-9.3-4.8-1.8-12.6-.4-12.8 1.8-.3 2 3.2 7.2 8.7 9.2 5.3 1.9 12.7 1 13.5-1.7z"/><path d="M182.5 234.6c.4-1.8-5.4-7.3-10-8.7-5-1.4-12.7.5-12.8 2.7 0 2 3.8 7 9.4 8.6 5.4 1.5 12.7.1 13.4-2.6z"/><path d="M190 246c.2-1.8-6-6.9-10.8-7.8-5-1-12.6 1.5-12.5 3.7.1 2 4.4 6.6 10.1 7.7 5.5 1.1 12.7-.9 13.1-3.6zm-23-62.7c-1.6-1.1-.8-9 1.9-13.1 2.8-4.3 9.9-8 11.4-6.3 1.3 1.4 1.7 7.7-1.6 12.6-3 4.7-9.5 8.4-11.8 6.8z"/><path d="M169.1 199c-1.6-1-1.3-9 1-13.2 2.6-4.4 9.4-8.5 11-7 1.5 1.4 2.2 7.6-.7 12.7-2.8 4.9-9 9-11.3 7.5z"/><path d="M174.3 211.6c-1.5-.7-2-8-.2-12 2-4.2 7.7-8.4 9.2-7.2 1.5 1.1 2.6 6.7.5 11.5-2.1 4.6-7.3 8.9-9.5 7.7z"/><path d="M178.2 222.4c-1.4-.8-1.2-7.8.8-11.5 2.1-3.8 8-7.4 9.3-6.1 1.3 1.1 2 6.5-.5 11-2.3 4.2-7.6 7.8-9.6 6.6z"/><path d="M183.6 234c-1.5-.7-2-7.6-.3-11.5 1.7-4 7.2-8.2 8.7-7 1.4 1 2.6 6.3.5 11-1.9 4.4-6.8 8.5-9 7.5z"/><path d="M190.9 245.7c-1.6-.5-3.2-7.2-2.2-11.3 1-4.3 5.8-9.2 7.4-8.3 1.5.8 3.6 5.8 2.4 10.7-1.2 4.7-5.4 9.6-7.6 8.9zm-24.3-79.3c-1.3-1.2.2-8.7 3-12.3 3-3.8 10.1-6.6 11.4-5 1.2 1.6 1 7.6-2.6 12-3.3 4-9.8 7-11.8 5.3z"/><path d="M168.1 150.3c-1-1.2 1-7.9 4-10.9 3.2-3.1 9.9-5 10.8-3.3 1 1.5.1 7-3.5 10.5-3.5 3.4-9.6 5.5-11.3 3.7z"/><path d="M170.3 137.6c-1.3-1.1.3-8.2 3.2-11.6 3-3.6 9.8-6 11-4.4 1 1.4.6 7.2-2.8 11.2-3.3 3.9-9.6 6.5-11.4 4.8z"/></g></g><g fill-rule="evenodd" stroke="#000" stroke-width="2" stroke-linecap="round" stroke-linejoin="round"><path d="M229.6 227.3A183.5 183.5 0 00119.2 284a234.6 234.6 0 0113.2 13.3 233.1 233.1 0 00-2.5-2.7 173 173 0 01101.3-52.3l-1.6-14.9z"/><path d="M232.9 257.1c-33 3.7-70.6 24.4-93 48.8a195.8 195.8 0 019 12.2c19.5-22 56.5-42.9 85.6-46l-1.6-15z" fill="#090"/><path d="M231.2 242.2A173 173 0 00130 294.5c3.6 3.9 7 7.6 10 11.4 22.4-24.4 60-45.1 93-48.8l-1.7-14.9z" fill="#bf0000"/><path d="M339.5 227.3A183.5 183.5 0 01450 284a234.6 234.6 0 00-13.2 13.3l2.5-2.7A173 173 0 00338 242.2l1.6-14.9z"/><path d="M336.2 257.1c33 3.7 70.5 24.4 93 48.8a195.8 195.8 0 00-9.1 12.2c-19.4-22-56.5-42.9-85.5-46l1.6-15z" fill="#090"/><path d="M337.9 242.2a173 173 0 01101.3 52.3 208 208 0 00-10 11.4c-22.5-24.4-60.1-45.1-93-48.8l1.7-14.9z" fill="#bf0000"/></g><path transform="matrix(1.05286 0 0 1.00766 -20.4 632)" d="M386.2-460.8a96.5 111 0 11-193.1 0 96.5 111 0 11193 0z" fill="#fff" stroke="#000" stroke-width="1.9" stroke-linecap="round" stroke-linejoin="round"/><path d="M204 120.7l161.1 93m-158-78.5L362 199.3M212.7 148l143.7 38.5m-154.9-30.2l166 21.9m-176-11h186m-176 11l166-21.9m-154.8 30.2L356.4 148m-149.2 51.3l154.7-64m-158 78.5l161.2-93m-147 97.4l132.9-102M232 220l105.2-105.3m-103.6 119l102-132.8m-97.6 147l93-161.1m-78.5 157.9l64-154.7m-51.2 149.2l38.5-143.7m-30.2 154.9l21.9-166m-11 176v-186m11 176l-21.9-166M303.8 239L265.3 95.4m51.3 149.2L252.6 90m78.5 158L238 86.6m97.4 147l-102-132.9m103.7 119L231.9 114.7m119 103.6l-132.8-102" stroke="#ffd600" fill="none" stroke-width="2" stroke-linecap="round" stroke-linejoin="round"/><path transform="matrix(1.02202 .00892 -.0107 1.22676 -11.8 745)" d="M342.8-473a57.8 41.3 0 11-115.7 0 57.8 41.3 0 11115.7 0z" fill="#fff" stroke="#ffd600" stroke-width="1.8" stroke-linecap="round" stroke-linejoin="round"/><path d="M186.5 165.5v2.2c0 60.1 44.2 108.4 98 108.4 54 0 98-48.3 98-108.4v-2.2h-196z" fill="#090"/><path d="M251.6 42a113.7 113.7 0 00-11.3 4l3.2 8.2a106 106 0 00-4.4 2l-4.6-7.5a116.8 116.8 0 00-10.5 5.8l4.6 7.6-4 2.5-5.8-6.7a122 122 0 00-9.5 7.4L215 72l-3.1 2.8-7-5.7c-3 2.8-5.7 5.7-8.4 8.7l15 12 2.6-2.8 1-1.1.6-.6 2-2 1.7-1.6s0 0 0 0l.5-.4 3.2-2.8a103.4 103.4 0 012-1.6l1.3-1 .6-.5 1.8-1.3.2-.1 2.2-1.6s0 0 0 0a99.7 99.7 0 012.5-1.6l.4-.3a99.7 99.7 0 012.1-1.3l1-.6 1.6-.9a98 98 0 012.7-1.4l2.6-1.3s0 0 0 0a97.7 97.7 0 015.2-2.3l1-.4a95 95 0 012.3-.8v-.1l2.8-1 2-.5.5-.2.4-.1a93 93 0 0126.1-3.8 93 93 0 0126.2 3.8l.4.1a93.6 93.6 0 0113.7 5.3l.5.2a97 97 0 013.5 1.8l.4.2a98.1 98.1 0 012.8 1.6l.8.4.2.2.8.4a100 100 0 015.3 3.5 102.2 102.2 0 015.7 4.3l.2.1 1.7 1.5a105 105 0 013.6 3.2 111.1 111.1 0 013.5 3.4h0a112.8 112.8 0 013.8 4l14.9-12c-2.7-3-5.5-6-8.4-8.7l-7 5.7A115.4 115.4 0 00354 72l5.8-6.7a122 122 0 00-9.5-7.4l-5.8 6.7a110 110 0 00-4-2.5l4.6-7.6a117.2 117.2 0 00-10.5-5.9l-4.6 7.6a106.3 106.3 0 00-4.4-2l3.1-8.2a113.8 113.8 0 00-11.2-4l-3.2 8.1a104 104 0 00-29.7-4.3 104 104 0 00-29.9 4.3l-3.1-8.2z" fill="#ffd600" stroke="#000" stroke-width="2" stroke-linecap="round" stroke-linejoin="round"/><path transform="matrix(1.06492 0 0 -1.06503 5.5 -577.4)" d="M262-565.4l-6.5-20h-21l17-12.3-6.5-20 17 12.3 17-12.3-6.5 20 17 12.3h-21l-6.5 20z" fill="#bf0000" stroke="#000" stroke-width="1.9" stroke-linecap="round" stroke-linejoin="round"/><g stroke="#ffd600" stroke-width="2" stroke-linecap="round" stroke-linejoin="round"><path d="M284.5 140.5c-11.2 8.5-24 38.5-24 58.4v33h48.1v-33c0-20-12.8-50-24-58.4z" fill="#fff" fill-rule="evenodd"/><path d="M284.5 152.7a88 88 0 0116 46.2v25h-32v-25a88 88 0 0116-46.2z" fill="none"/><path d="M298.2 184.4H288v12h-8.4v11.2h-10.8" fill="none"/></g><g fill="#f55" fill-rule="evenodd"><path d="M340.4 236.2c-6 0-11.4 9-17.4 9-7.6 0-15.2-7.8-24-7.8-9.8 0-16.3 8.4-16.3 8.4v74.6s12.5-7.9 25.3-7.9c16.4 0 26.8 11.5 39 11.5 11 0 20-4.8 20-4.8v-16.3l-18.7-62.5s-3.4-4.2-7.9-4.2z"/><path d="M282.7 245.8V304s12.5-7.8 25.3-7.8c16.4 0 26.8 11.4 39 11.4 11 0 20-4.8 20-4.8l-18.7-62.5s-3.4-4.2-7.9-4.2c-6 0-11.4 9-17.4 9-7.6 0-15.2-7.8-24-7.8-9.8 0-16.3 8.4-16.3 8.4z"/></g><g fill-rule="evenodd" stroke="#000" stroke-width="2" stroke-linecap="round" stroke-linejoin="round"><path d="M284.5 316.8a218 218 0 00-97 22.3c4.4 3.5 8.8 7.5 12.8 11.8l-.9-1a216 216 0 0185.1-18 216 216 0 0185.1 18l-.8 1c4-4.3 8.4-8.3 12.8-11.8a218 218 0 00-97-22.3z"/><path d="M284.5 346.8c-28.8 0-57.8 8.2-75 15.3 3 4.3 5.7 8.7 7.8 13.1 15.6-5.9 42.4-13.4 67.2-13.4s51.6 7.5 67.3 13.4c2.1-4.4 4.8-8.8 7.8-13.1-17.2-7-46.2-15.3-75-15.3z" fill="#090"/><path d="M284.5 331.8a216 216 0 00-85 18.2 111.8 111.8 0 0110 12c17.2-7 46.2-15.2 75-15.2 28.9 0 57.9 8.2 75.1 15.3a111.8 111.8 0 0110-12.1 216 216 0 00-85-18.2z" fill="#bf0000"/></g><g stroke="#ffd600" fill="#fff" fill-rule="evenodd" stroke-width="2"><path d="M218 253l-18.3 71h166l-18.3-71H218z"/><path d="M225 236.2c-4.5 0-7.9 4.2-7.9 4.2l-18.6 62.5v16.3s8.9 4.8 19.8 4.8c12.3 0 22.7-11.5 39.1-11.5 12.8 0 25.3 7.9 25.3 7.9s12.5-7.9 25.2-7.9c16.5 0 27 11.5 39.1 11.5 11 0 19.9-4.8 19.9-4.8v-16.3l-18.6-62.5s-3.4-4.2-7.9-4.2c-6 0-11.5 9-17.4 9-7.7 0-15.3-7.8-24-7.8-9.9 0-16.3 8.4-16.3 8.4s-6.5-8.4-16.2-8.4c-8.9 0-16.5 7.8-24 7.8-6 0-11.6-9-17.5-9z" stroke-linecap="round" stroke-linejoin="round"/><path d="M282.7 245.8V304s12.5-7.8 25.3-7.8c16.4 0 26.8 11.4 39 11.4 11 0 20-4.8 20-4.8l-18.7-62.5s-3.4-4.2-7.9-4.2c-6 0-11.4 9-17.4 9-7.6 0-15.2-7.8-24-7.8-9.8 0-16.3 8.4-16.3 8.4zM282.7 245.8V304s-12.5-7.8-25.3-7.8c-16.4 0-26.8 11.4-39 11.4-11 0-20-4.8-20-4.8l18.7-62.5s3.4-4.2 7.9-4.2c6 0 11.4 9 17.4 9 7.6 0 15.2-7.8 24-7.8 9.8 0 16.3 8.4 16.3 8.4z" stroke-linecap="round" stroke-linejoin="round"/></g><path d="M133.3 297.4zm3.6 4.1z" opacity=".3" fill="#00f" fill-rule="evenodd"/></svg>