<svg xmlns="http://www.w3.org/2000/svg" width="1500" height="1000" version="1"><path d="M0 0h1500v1000H0z"/><path d="M661.1 579.32v14.9h16.28v-14.9H661.1zm33.74 0v14.9h14.51v-14.9h-14.5zm31.91 0v14.9h14.51v-14.9h-14.51zm31.97 0v14.9h14.51v-14.9h-14.5zm31.97 0v14.9h14.51v-14.9h-14.5zm31.91 0v14.9h16.35v-14.9H822.6zm-144.24 15.5v9.58h14.58v-9.58h-14.57zm32.44 0v9.58h14.5v-9.58h-14.5zm31.97 0v9.58h14.5v-9.58h-14.5zm31.9 0v9.58h14.52v-9.58h-14.51zm32.44 0v9.58h14.5v-9.58h-14.5zm-112.53 11.16v9.58h14.51v-9.58h-14.5zm32.17 0v9.58h14.5v-9.58h-14.5zm31.97 0v9.58h14.51v-9.58h-14.5zm32.17 0v9.58h14.51v-9.58h-14.5zM901.24 390.18c5.93 0 10.7 4.77 10.7 10.7 0 4.57-2.87 8.5-6.9 10.05l-5.38 16.15c23.3 12.28 41.3 33.31 41.3 59.8 0 13.34-4.94 24.07-9.53 32.17-5.09 7.18-11.89 13.17-16.8 21.8-5.05 8.86-4.47 19.81-14.05 26-5-2.28-10.9-8.23-10.9-17.53 0-12.14 7.35-25.19 7.35-35.19 0-8.68-6.05-25.12-15.5-32.96l-28.68 85.68-10.77-10.18L891.2 404.7a10.77 10.77 0 01-.72-3.8c0-5.94 4.83-10.7 10.77-10.7zm-302.47 0a10.68 10.68 0 00-10.7 10.7c0 4.57 2.86 8.5 6.89 10.05l5.38 16.15c-23.3 12.28-41.3 33.31-41.3 59.8 0 13.34 4.94 24.07 9.53 32.17 5.09 7.18 11.89 13.17 16.8 21.8 5.05 8.86 4.47 19.81 14.05 26 5-2.28 10.9-8.23 10.9-17.53 0-12.14-7.35-25.19-7.35-35.19 0-8.68 6.05-25.12 15.5-32.96l28.68 85.68 10.77-10.18L608.8 404.7a10.77 10.77 0 00.72-3.8c0-5.94-4.83-10.7-10.76-10.7zM689.92 465.35a15.85 15.85 0 00-15.89 15.89v13.65h-8.14v14.12h18.65v-4.53h53.44v4.53h96.18v-14.12H826v-13.65a15.9 15.9 0 00-15.95-15.89H689.92zm4.07 10.7a8.37 8.37 0 018.34 8.34 8.31 8.31 0 01-8.34 8.27 8.26 8.26 0 01-8.27-8.27 8.31 8.31 0 018.27-8.34zm19.37 0a8.31 8.31 0 018.27 8.34 8.26 8.26 0 01-8.27 8.27 8.31 8.31 0 01-8.34-8.27 8.37 8.37 0 018.34-8.34zm19.3 0a8.37 8.37 0 018.34 8.34 8.31 8.31 0 01-8.34 8.27 8.26 8.26 0 01-8.27-8.27 8.31 8.31 0 018.27-8.34zm34.47 0a8.37 8.37 0 018.33 8.34 8.31 8.31 0 01-8.33 8.27 8.26 8.26 0 01-8.28-8.27 8.31 8.31 0 018.28-8.34zm19.36 0a8.31 8.31 0 018.27 8.34 8.26 8.26 0 01-8.27 8.27 8.31 8.31 0 01-8.34-8.27 8.37 8.37 0 018.34-8.34zm19.3 0a8.37 8.37 0 018.34 8.34 8.31 8.31 0 01-8.34 8.27 8.26 8.26 0 01-8.27-8.27 8.31 8.31 0 018.27-8.34z" fill="#fff"/><g fill="#fff" stroke="#000" stroke-width=".76" stroke-linecap="square" stroke-linejoin="round" stroke-dashoffset="3.2" transform="translate(1475.96 -704.82) scale(2.10084)"><rect width="12.05" height="103.39" x="-396.45" y="520.45" rx="0" ry="0"/><rect ry="0" rx="0" y="520.45" x="-306.72" height="103.39" width="12.05"/></g><path d="M755.37 517.8a3.76 3.76 0 00-3.74 3.82v57.7h7.16V537.7h2.36v41.62h5.58v-39.19l39.4 39.2h8.27l-41.82-41.63h4.72l41.76 41.62h10.1v-10.57h-8.07v-8.27h-8.14v-8.2h-8.07v-8.21h-8.14v-8.27h-8.15v-8.21h-8.33v-5.97a3.82 3.82 0 00-3.81-3.81h-21.08zm-54.75 119.62c-2.91.23-5.16 3.5-3.15 6.18 15.6 20.73 49.12 36.13 70.7 30.72a36.93 36.93 0 004.27 8.53c3.27 4.64 8.87 8.47 16.88 8.47 11.5 0 19.34-12.16 15.95-24.35a3.68 3.68 0 00-3.8-2.7c-11.06.82-19.93.81-31.46 0-24.45-1.7-46.19-13.74-66.24-26a5.29 5.29 0 00-3.15-.85zm97.76 34.34c.62 6.96-3.48 12.21-9.06 12.21-5.94 0-8.63-2.09-10.9-5.32-1.35-1.91-2.34-4.32-3.28-6.82 7.89.34 15.35.38 23.24-.07z" fill="#fff"/><path d="M802.15 637.42c2.91.23 5.16 3.5 3.15 6.18-15.6 20.73-49.12 36.13-70.7 30.72a36.89 36.89 0 01-4.27 8.53c-3.27 4.64-8.87 8.47-16.88 8.47-11.5 0-19.34-12.16-15.95-24.35a3.68 3.68 0 013.8-2.7c11.06.82 19.93.81 31.46 0 24.45-1.7 46.19-13.74 66.24-26a5.29 5.29 0 013.15-.85zm-97.75 34.34c-.62 6.96 3.47 12.21 9.06 12.21 5.93 0 8.61-2.09 10.9-5.32 1.34-1.91 2.33-4.32 3.27-6.82-7.89.34-15.35.38-23.24-.07z" fill="#fff"/><path d="M655.75 335.82c-5.37 0-16.61 19.14-16.61 28.3s7.45 16.54 16.6 16.54 16.62-7.38 16.62-16.54-11.1-28.3-16.61-28.3zm-13.6 47.27a2.09 2.09 0 00-2.1 2.1v8.86c0 1.17.94 2.1 2.1 2.1h27.19a2.09 2.09 0 002.1-2.1v-8.86a2.09 2.09 0 00-2.1-2.1h-27.18zm2.18 56.53a3.31 3.31 0 00-3.29 3.28v2.36c0 1.8 1.5 3.22 3.29 3.22h22.9a3.2 3.2 0 003.22-3.22v-2.36c0-1.8-1.42-3.28-3.21-3.28h-22.91zm.65 55.01a3.2 3.2 0 00-3.22 3.22v6.5a3.2 3.2 0 003.22 3.22h21.53a3.2 3.2 0 003.22-3.22v-6.5a3.2 3.2 0 00-3.22-3.22h-21.53z" fill="#fff" stroke="#000" stroke-width="1.6" stroke-linecap="square" stroke-linejoin="round" stroke-dashoffset="3.2"/><path d="M635.22 606.61l-14.7 23.08h258.6l-14.7-23.08-29.08 7.97h-170.3l-29.82-7.97z" fill="#fff"/><path d="M642.32 590.75c-5.6 8.2-8.08 16.4-9.98 24.61h46.81c-2.06-8.4-6.13-16.6-11.95-24.62h-24.88zm201.93-254.93c-5.36 0-16.6 19.14-16.6 28.3s7.44 16.54 16.6 16.54 16.61-7.38 16.61-16.54-11.1-28.3-16.6-28.3zm-13.59 47.27a2.09 2.09 0 00-2.1 2.1v8.86c0 1.17.93 2.1 2.1 2.1h27.18a2.09 2.09 0 002.1-2.1v-8.86a2.09 2.09 0 00-2.1-2.1h-27.18zm2.17 56.53a3.3 3.3 0 00-3.28 3.28v2.36c0 1.8 1.49 3.22 3.28 3.22h22.91a3.2 3.2 0 003.22-3.22v-2.36c0-1.8-1.43-3.28-3.22-3.28h-22.91zm.65 55.01a3.2 3.2 0 00-3.21 3.22v6.5a3.2 3.2 0 003.22 3.22h21.53a3.2 3.2 0 003.22-3.22v-6.5a3.2 3.2 0 00-3.22-3.22h-21.53zm-2.65 96.12c-5.61 8.2-8.09 16.4-9.98 24.61h46.8c-2.06-8.4-6.13-16.6-11.94-24.62h-24.88zm-80.83-203c-1.57 3.69-6.75 9.2-13.59 14.18-6.75 4.91-15.14 9.28-20.16 10.64-23.24 6.32-39.12 18.98-39.12 33.55 0 8.6 5.57 16.55 14.9 22.9h115.94c9.33-6.35 14.9-14.3 14.9-22.9 0-14.57-15.88-27.23-39.12-33.55-5.02-1.36-13.41-5.73-20.16-10.64-6.84-4.97-12.01-10.5-13.59-14.18z" fill="#fff" stroke="#000" stroke-width="1.6" stroke-linecap="square" stroke-linejoin="round" stroke-dashoffset="3.2"/><path d="M681.35 496.89h137.3" fill="#fd5" stroke="#000" stroke-width="1.6" stroke-linecap="round" stroke-linejoin="round" stroke-dashoffset="3.2"/><path d="M684.54 504.48v74.84h9.58V539.8a17.2 17.2 0 0117.14-17.33 17.2 17.2 0 0117.13 17.33v39.52h9.59v-74.84h-53.44zm7.22 3.35h9.71v12.67h-9.71v-12.67zm14.64 0h9.71v12.67h-9.71v-12.67zm14.64 0h9.71v12.67h-9.71v-12.67z" fill="#fff"/><path d="M684.54 509.01v-4.53h53.44v4.53" fill="none" stroke="#000" stroke-width="1.6" stroke-linecap="round" stroke-linejoin="round" stroke-dashoffset="3.2"/><path d="M750 188.03l-11.42 11.42 5.38 95.46c2.02-.06 4-.13 6.04-.13s4.02.07 6.04.13l5.38-95.46L750 188.03zm-21.8 21.8l-18.64 18.64 11.69 68.4c3.9-.54 7.84-.98 11.81-1.3l-4.86-85.75zm43.6 0l-4.86 85.73c4.05.33 8.1.75 12.08 1.32l11.55-68.28-18.77-18.78zm-71.83 28.35l-15.36 15.23 13.79 47.8c3.87-1 7.86-1.72 11.81-2.5l-10.24-60.53zm100.06 0l-10.38 60.53c3.96.78 7.95 1.5 11.82 2.5l13.79-47.8-15.23-15.23zM675.8 262.34l-13 13 13.8 33.09c3.73-1.44 7.44-2.85 11.28-4.07l-12.08-42.02zm148.38 0l-12.08 42.02c3.88 1.23 7.64 2.62 11.42 4.07l13.65-33.09-13-13zM529.4 279.41v16.15l71.3 63.68a206.36 206.36 0 018.53-8.53l-63.68-71.3h-16.15zm30.73 0l57.24 64.08c3.08-2.6 6.23-5.06 9.46-7.49l-40.18-56.59h-26.52zm40.04 0l35.59 50.16a207.35 207.35 0 0110.24-6.43l-24.16-43.73h-21.67zm34.14 0l21.27 38.47a205.44 205.44 0 0110.9-5.25l-13.79-33.22h-18.38zm212.97 0l-13.78 33.22a205.44 205.44 0 0110.9 5.25l21.27-38.47H847.3zm31 0l-24.17 43.73a207.57 207.57 0 0110.25 6.43l35.58-50.16h-21.67zm34.92 0l-40.05 56.46c3.25 2.44 6.36 5 9.46 7.62l57.24-64.08h-26.65zm41.23 0l-63.68 71.3a206.36 206.36 0 018.53 8.53l71.3-63.68v-16.15h-16.15zm16.15 30.99l-63.95 57.12a204.5 204.5 0 017.49 9.45l56.46-40.05V310.4zm-441.18.13v26.4l56.46 40.04c2.39-3.18 4.8-6.3 7.36-9.32l-63.82-57.12zm0 39.79v21.66l43.73 24.03c2.03-3.44 4.08-6.93 6.3-10.24l-50.03-35.45zm441.18 0l-50.03 35.45c2.26 3.36 4.38 6.87 6.44 10.37l43.59-24.16v-21.66zM529.4 384.45v18.25l33.22 13.8c1.62-3.64 3.3-7.26 5.12-10.77l-38.34-21.28zm441.18 0l-38.34 21.14c1.84 3.55 3.48 7.24 5.12 10.9l33.22-13.78v-18.26zM525.2 412.82l-13 13 42.15 12.2c1.23-3.88 2.62-7.64 4.07-11.42l-33.22-13.79zm449.58 0l-33.22 13.78c1.45 3.78 2.84 7.54 4.07 11.42l42.15-12.2-13-13zm-471.5 21.92l-15.24 15.23 60.66 10.38c.78-3.96 1.5-7.95 2.5-11.82l-47.93-13.79zm493.43 0l-47.93 13.79c1 3.87 1.72 7.86 2.5 11.82l60.66-10.38-15.23-15.23zm-518.25 24.82l-18.78 18.77 85.87 4.73c.33-4.01.76-8 1.32-11.95l-68.41-11.55zm543.06 0l-68.4 11.55c.56 3.99.98 8.03 1.3 12.08l85.88-4.86-18.78-18.77zm29.02 29.02l-95.46 5.38c.06 2.02.13 4 .13 6.04s-.07 4.02-.13 6.04l95.46 5.38 11.42-11.42-11.42-11.42zm-601.23.13L438.02 500l11.56 11.55 95.33-5.38c-.07-2.06-.13-4.09-.13-6.17 0-2 .07-3.93.13-5.9l-95.6-5.4zm96.24 28.23l-85.74 4.86 18.78 18.77 68.27-11.55c-.56-3.99-.98-8.03-1.3-12.08zm408.88.13a206.06 206.06 0 01-1.32 11.95l68.28 11.55 18.78-18.77-85.74-4.73zM548.7 539.78l-60.66 10.25 15.36 15.36 47.93-13.79c-1-3.88-1.85-7.85-2.63-11.82zm402.58 0c-.78 3.97-1.63 7.94-2.63 11.82l47.93 13.79 15.36-15.36-60.66-10.24zm-396.93 22.33l-42.02 12.2 13 13 33.09-13.78a199.86 199.86 0 01-4.07-11.42zm391.28 0a201.69 201.69 0 01-4.07 11.42l33.22 13.66 12.87-12.87-42.02-12.21zm-383.01 21.53l-33.22 13.79v18.25l38.47-21.14a205.42 205.42 0 01-5.25-10.9zm374.74 0a205.47 205.47 0 01-5.25 10.77l38.47 21.27v-18.25l-33.22-13.79zM573 603.99l-43.59 24.16v21.67l50.16-35.59c-2.26-3.37-4.5-6.73-6.57-10.24zm353.86.13a204.91 204.91 0 01-6.43 10.24l50.16 35.46v-21.67l-43.73-24.03zm-340.99 19.04l-56.46 40.05v26.52l63.94-57.11c-2.6-3.08-5.06-6.23-7.48-9.46zm328.26 0c-2.4 3.2-4.9 6.27-7.49 9.32l63.95 57.12v-26.4l-56.46-40.04zM600.7 640.9l-71.3 63.68v16.02h16.28l63.55-71.17a206.5 206.5 0 01-8.53-8.53zm298.45 0a206.32 206.32 0 01-8.4 8.4l63.55 71.3h16.28v-16.02l-71.43-63.68zm-281.77 15.75l-57.12 63.95h26.52l40.05-56.33c-3.24-2.44-6.37-5-9.45-7.62zm265.23 0c-3.07 2.6-6.24 5.07-9.46 7.49l40.05 56.46h26.52l-57.11-63.95zm-246.98 13.92l-35.45 50.03h21.66l24.16-43.73c-3.49-2.06-7.02-4.04-10.37-6.3zm228.6 0c-3.33 2.24-6.8 4.26-10.25 6.3l24.16 43.73h21.67l-35.59-50.03zm-208.65 11.69l-21.27 38.34h18.39l13.78-33.09a205.27 205.27 0 01-10.9-5.25zm188.82 0a205.28 205.28 0 01-10.9 5.25l13.79 33.09h18.38l-21.27-38.34zm-167.94 9.45l-13.65 33.09 13 13 12.08-42.02a201.69 201.69 0 01-11.43-4.07zm146.93 0a201.21 201.21 0 01-11.3 4.07l12.09 42.02 13-13-13.8-33.09zm-124.87 7.22l-13.79 47.8 15.23 15.23 10.38-60.53c-3.96-.78-7.95-1.5-11.82-2.5zm102.81 0c-3.79.98-7.69 1.74-11.55 2.5l10.24 60.53 15.36-15.36-13.79-47.67c-.08.03-.18-.02-.26 0zm-80.36 4.34l-11.55 68.14 18.78 18.78 4.85-85.61c-4.05-.33-8.1-.75-12.08-1.31zm57.78 0c-3.9.54-7.85.98-11.82 1.3l4.86 85.62 18.64-18.65-11.68-68.27zm-34.8 1.97l-5.38 95.32L750 811.98l11.42-11.43-5.38-95.32c-2.02.05-4 .13-6.04.13s-4.02-.08-6.04-.13zm3.41-402.15c-.84-.01-1.74-.01-2.66.07-6.45 4.83-7.34 20.4-5.89 30.89-4.56-.27-9.25-.76-13.73-.76-5.67 0-11.68 6.19-11.9 11.77-.3 7.68 6.6 17.02 7.72 24.37.3 1.97.4 4.48.57 7.1a56.63 56.63 0 018.8-9.12c1.72-1.37 4.26-1.9 7.03-2.6 2.76-.7 5.68-1.36 7.4-2.09.76-.32 2.73-1.71 5-3.6 2.28-1.9 4.98-4.32 7.73-6.9a532.73 532.73 0 0014.43-14.18 1.62 1.62 0 012.66.38c.3.63.13 1.41-.38 1.9a533.54 533.54 0 01-14.5 14.24c-2.77 2.6-5.5 5.06-7.85 7.02-2.35 1.97-4.21 3.44-5.82 4.12-2.22.93-5.2 1.6-7.91 2.28-2.72.68-5.25 1.55-5.76 1.96-3.9 3.09-7.7 7.6-10.39 11.33.58 4.17 1.78 7.83 4.88 8.86 4.9 1.64 17.38-7.85 25.07-7.85 8.24 0 18.47 7.72 21.27 4.5 4.7-5.43-.38-22.91.94-33.1.44-3.36 3.1-5.37 4.05-10.52 1.72-9.22-11.12-12.78-15.31-12.78-2.48 0-6.4 1.2-10.45 2.27-1.73-9.14.87-17.26 6.9-22.53-1.94-4.6-6-6.93-11.9-7.03zm-13.6 36.21c6.3 0 11.45 5.15 11.45 11.46 0 6.31-5.15 11.46-11.46 11.46s-11.46-5.15-11.46-11.46c0-6.31 5.15-11.46 11.46-11.46z" fill="#fff"/></svg>