<svg xmlns="http://www.w3.org/2000/svg" width="744" height="496"><path fill="#3a7dce" d="M0 0h744v496H0z"/><path fill="#fff" d="M183.3 238.5c-4-8-4-8-4-16.2-2 0-2.5.4-3.6 0-1.2-.2-1.7 7.6-5.5 6-.6-.7 2.8-6.4-.9-8.7-1.1-.8.3-5.4-.2-7.4 0 0-4.6 2.4-8.1-6-1.7-2.3-4 2-4 2s1 2.5-.9 3.2c-2.6-2-4.5-1-7.8-3.6s.7-5.6-5.5-7.8c4-10.1 4-8 14.1-12.1-6-4-6-4-10-10.2-6.2-2-8.2-4-14.3-8-8-10.2-12.1-30.5-12.1-44.7 5-4.7 12.1 16.2 22.3 22.3l14.1 6.1c8.2 4 10.2 8.1 16.3 12.2l18.2 6c8.1 6.1 12.2 14.2 18.2 16.3 6.6 0 7.9-3.8 10-4 12-.7 18-2.2 20.4-5.8 2.4-2.8 8.2 1.7 24.4-4.4l-2-8.1s4.3-3.6 10-2c0-3.8-.5-13.6 5.3-18.1-3.5-3.7-1.2-6.3-1.2-6.3s3.3-3 3.6-4.7c-1.7-9 1.5-9.1 2.2-11.7.8-2.7-2.7-1.8-1.7-5.4 1-3.6 6.8-4.5 7.6-7.4.8-3-1.7-4.5-1.5-5.2 1.2-2.9.2-9.6 0-12.2 10.9-3 14.4-11.8 18.2-8.1 2-12.2 4-16.2 16.2-16.2 1.7-3.8-4.4-7-2-8.1 4-.5 7.2-.3 12 5.9 1.4 2 1.7-2.9 3.2-3.4 1.5-.5 5.2-.5 5.7-3 .6-2.4 1.4-5.6 3.4-9.7 1.7-3.3 3 1.3 4.6 7.8a226 226 0 0136 4.4c6 1.6 10-1.6 16-2.2 4.2 4.3 8.3 1 10.6 10.2 3.2 5 8.4.5 9.6 2 6.8 18.6 30 6 31.8 6.3 3 0 6.7 8.4 9 8.2 3.8-.7 2.7-3.2 6-2.2-.8 7 6.6 15.1 6.6 20.4 0 0 1.8.9 3.5-.7 1.6-1.5 3.2-5.5 4.7-5.5l9 1.7c11 3.8 16.6 4.6 20.9 6.5 2 3.7 3.9 5.5 8 4.9 3.2 2.2.8 5.1 2.8 5.3 4-2 5.4-4.2 9.4-2.2s8.1 6 10.2 10.1c0 2-2 10.2 0 22.3 1 4 1.5 7.3 5.8 14.2-1.1 7.2 5.5 19.2 5.5 22.3 0 4-3.2 6-5.3 10.1 8.1 6.1 0 16.3-4 22.3 30.4 6.1 16.2 18.3 40.5 12.2-6 14.2-4 13 2.2 27.2-12.2 8.1-.3 10.6-8.4 20.8-.5.6 4.8 8.8 12.3 8.8-2 16.2-8.1 10-6 34.4-16-.3-9.6 18.2-20.4 16.2.7 11.6 6.2 12.6 4.1 24.4-8.1 2-8.1 2-12.2 8l-6-2c-2 10.2-6.1 12.2 0 22.3 0 0-7.9.3-10.2 0-.2 3.5 3.5 4.5 4 8.1-.2 1.5-11.4 7.9-20.2 8.1-2.3 5 6 10.4 5.6 12.9-9.5 1.8-13.7 13.5-13.7 13.5s4.9 2 4 4c-2.5-1.9-4-2-8-2-2 .5-7-.1-11.8 7.9-5.2 1.7-7.6 1-11.6 6.3-1.7-5-4.2 0-7.3 2-3 1.9-7.2 6.7-7.7 6.5 0-1.4 1.9-6.5 1.9-6.5l-10.2 2-1.2.2c-.8 0-.6-6-2.5-5.7-2 .2-7.4 7.5-9.3 7.8-1.9.2-2.5-2.4-4-2.2-1.7.3-4.8 7.8-6 8-1.1.2-5.6-4.6-9.5-4-20 7.1-23.1-13.8-26.2-2-4.2-2.2-3.5-1-7.8.2-2.7.7-3-3.6-5.3-3.5-4.8 0-4.6 4.6-7.2 3.3-2.2-9.5-15.2-7.8-16.4-11.9-1-4.2 5.6-4.2 7.8-7 1.6-4.2-1.8-5.7 5-9.7 8.6-6 3.6-8.1 5.1-12.6 2.8-6.3 2.8-7.9.5-13.5 0 0-6.8-18.3-8.1-18.3-4-1.1-4 6.7-10 8.9-12.2 4-33.6-10.3-37.4-10.3-3.4 0-19.2 3.8-18.6-4.1-2.4 7.7-11.1 1.8-11.7 1.8-8 0-5 6.3-10.4 6-2.5-.8-27.4-2.3-27.4-2.3v4l-16.2-8-14.2-4c-12.2-4.1-6.1-14.3-26.4-8.2V352h-10.1c4-24.3 0-12.1-2-34.4l-8.2 2c-8-11 11.3-8.9-6-16.2 0 0 .3-12.1-4-8.1-1 .5 2 6 2 6-16.3-2-20.3-6-20.3-22.2 0 0 13.3 1.9 12.1 0-1.9-3-4.3-22.8-3.9-24.2-.2-2.6 12.4-9.3 10-15.7 1.5-.6 6-.7 6-.7"/><g fill="none" stroke="#fff" stroke-width="2.5" stroke-linejoin="round"><path d="M595.5 297.6c-.6 1.3-.5 2.6.1 3.6 1.1-1.7.2-2.4 0-3.6zM119.5 148.2s-3-.4-2.4 2.3c1-2 2.3-2.2 2.4-2.3zM120.2 141.8c-1.7 0-3.8-.2-3 2.5 1-2.1 3-2.4 3-2.5zM131.9 178.1s2.6-.2 2 2.5c-1-2-2-2.4-2-2.5z"/></g></svg>