<svg xmlns="http://www.w3.org/2000/svg" xmlns:xlink="http://www.w3.org/1999/xlink" height="600" width="900"><path fill="#002868" d="M0 0h900v600H0z"/><path d="M0 0h900v300H0z" fill="#bf0a30"/><path d="M0 195.33L450 300 0 70.32z" fill="#f0f"/><path id="a" d="M0 195.33L450 300 0 70.32z" fill="#fed700"/><path id="b" d="M103.14 0L450 300 232.83 0z" fill="#fed700"/><path id="c" d="M332.82 0L450 300 407.79 0z" fill="#fed700"/><use xlink:href="#a" transform="matrix(-1 0 0 1 900 0)"/><use xlink:href="#b" transform="matrix(-1 0 0 1 900 0)"/><use xlink:href="#c" transform="matrix(-1 0 0 1 900 0)"/><path d="M450 148.64l97.53 300.17L292.2 263.29h315.62L352.47 448.81z" fill="#ce5c17"/></svg>