<svg xmlns="http://www.w3.org/2000/svg" xmlns:xlink="http://www.w3.org/1999/xlink" version="1.0" width="450" height="300"><path fill="#bf0a30" d="M0 0h450v300H0z"/><path d="M37.5 148.8L224.2 275l188.3-126.4L224.2 25 37.5 148.8z" fill="#002868"/><path d="M84 149.1L224.4 244 366 149 224.4 56 84 149.1z" fill="#fff"/><path d="M148.2 145h7.8l1.4 4.4h4.8l-7.5-21.2h-5.1l-7.6 21.2h4.7l1.5-4.4zm3.9-12l2.7 8.3h-5.4l2.7-8.3zm13 16.4h4.3V141h4.6c1.6 0 2.5.3 3 1 .3.5.5 1.6.4 3a21.7 21.7 0 00.5 4.3h5v-.6c-.5-.1-.8-.5-1-1v-3.2c0-2-.3-3.2-.7-3.9a3.9 3.9 0 00-2-1.5c1-.4 1.8-1 2.4-1.9.6-.9.9-2 .9-3.1 0-.7-.2-1.5-.5-2.4-.4-1-1-1.8-2-2.5s-2.4-1.1-4.2-1.1H165v21.2zm4.3-11.9v-5.7h5.5c1.3 0 2.1.4 2.5 1 .5.6.7 1.2.6 1.8 0 1-.3 1.8-.8 2.2-.6.5-1.5.7-2.6.7h-5.2zm21.8 4.7l2-2.1 6.6 9.3h5.7l-9.2-12.5 8.7-8.7h-5.7l-8.1 8.6v-8.6h-4.5v21.2h4.5v-7.2zm21 2.8h8l1.3 4.4h4.8l-7.5-21.2h-5.1l-7.6 21.2h4.7l1.5-4.4zm4-12l2.7 8.3h-5.4l2.7-8.3zm25.9 10l-8.5-14.8H229v21.2h4.2v-15.1l8.7 15h4.4v-21.1h-4.1v14.7zm7.3-.1c0 .9.2 1.9.6 3 .5 1 1.4 2 2.7 2.8 1.3.8 3.2 1.2 5.8 1.3.7 0 1.7-.1 3-.4 1.3-.3 2.5-1 3.6-2s1.7-2.5 1.8-4.6c0-1.9-.7-3.2-1.7-4-1.1-.8-2.4-1.4-3.9-1.7l-5.2-1.3a4 4 0 01-1.4-.5c-.5-.3-.8-.9-.8-1.7 0-1 .4-1.6 1.2-2 .8-.4 1.6-.5 2.5-.5 1.8 0 3 .5 3.6 1.2.5.8.7 1.4.7 2h4.3a6.5 6.5 0 00-3.2-5.7 9.7 9.7 0 00-5.1-1.2c-2.3 0-4 .4-5.2 1.2-1.2.7-2 1.6-2.4 2.6-.4 1-.6 2-.6 2.7.1 2.3.8 3.8 2.1 4.6 1.3.8 2.9 1.4 4.7 1.7l2.3.5c1.1.2 2 .5 2.7.9.7.4 1 1 1.1 1.7 0 1.1-.5 1.9-1.4 2.3-1 .3-2 .5-3 .5-2 0-3.1-.5-3.7-1.3-.6-.8-.9-1.5-.8-2.1h-4.3zm25.4 2.1h7.8l1.3 4.4h4.9l-7.5-21.2h-5.1l-7.6 21.2h4.7l1.5-4.4zm3.9-12l2.6 8.3H276l2.8-8.3zm11.8 9.9c0 .9.2 1.9.7 3 .4 1 1.3 2 2.6 2.8 1.3.8 3.3 1.2 5.8 1.3.7 0 1.7-.1 3-.4 1.3-.3 2.5-1 3.6-2s1.7-2.5 1.8-4.6c0-1.9-.6-3.2-1.7-4-1.1-.8-2.4-1.4-3.9-1.7l-5.2-1.3a4 4 0 01-1.4-.5c-.5-.3-.8-.9-.8-1.7 0-1 .4-1.6 1.2-2 .8-.4 1.6-.5 2.5-.5 1.9 0 3 .5 3.6 1.2.5.8.7 1.4.7 2h4.3a6.5 6.5 0 00-3.2-5.7 9.7 9.7 0 00-5-1.2c-2.4 0-4 .4-5.3 1.2-1.1.7-2 1.6-2.4 2.6-.4 1-.6 2-.5 2.7 0 2.3.7 3.8 2 4.6 1.4.8 3 1.4 4.7 1.7l2.3.5c1.1.2 2 .5 2.7.9.7.4 1.1 1 1.1 1.7 0 1.1-.5 1.9-1.4 2.3-1 .3-2 .5-3 .5-1.9 0-3.1-.5-3.7-1.3-.6-.8-.9-1.5-.8-2.1h-4.3z" style="text-align:start;line-height:125%;-inkscape-font-specification:Helvetica LT Std Bold" font-size="28" font-weight="700" fill="#002868" font-family="Helvetica LT Std"/><path d="M229.5 50l-5.5-4-5.5 4 2-6.5-5.5-4h6.8L224 33l2.2 6.5h6.8l-5.5 4 2 6.5z" fill="#fff"/><path d="M235 190l-10 7-10-7 3.8 11.5-10 7h12.4L225 220l3.8-11.5h12.3l-10-7L235 190z" fill="#002868"/><path d="M202.7 190l-10-7-10 7 3.9-11.5-10-7h12.3l3.8-11.5 3.8 11.5H209l-10 7 3.8 11.5z" id="a" fill="#002868"/><path d="M216 243.5l-4 5.6 4 5.5-6.5-2.1-4 5.5v-6.8L199 249l6.5-2.1v-6.8l4 5.5 6.5-2.2z" id="c" fill="#fff"/><path d="M233 243.5l4 5.6-4 5.5 6.5-2.1 4 5.5v-6.8l6.5-2.1-6.5-2.1v-6.8l-4 5.5-6.5-2.2z" id="m" fill="#fff"/><use transform="translate(64.5)" id="b" x="0" y="0" width="450" height="300" xlink:href="#a"/><use transform="translate(-32.3 -85)" width="450" height="300" xlink:href="#b"/><use transform="translate(151.5 -119)" id="d" x="0" y="0" width="450" height="300" xlink:href="#c"/><use transform="translate(-27 -18)" id="e" x="0" y="0" width="450" height="300" xlink:href="#d"/><use transform="translate(-27 -18)" id="f" x="0" y="0" width="450" height="300" xlink:href="#e"/><use transform="translate(-27 -17)" id="g" x="0" y="0" width="450" height="300" xlink:href="#f"/><use transform="translate(-27 -18)" id="h" x="0" y="0" width="450" height="300" xlink:href="#g"/><use transform="translate(-163.5 108)" id="i" x="0" y="0" width="450" height="300" xlink:href="#h"/><use transform="translate(24 16)" id="j" x="0" y="0" width="450" height="300" xlink:href="#i"/><use transform="translate(24 16)" id="k" x="0" y="0" width="450" height="300" xlink:href="#j"/><use transform="translate(24 17)" id="l" x="0" y="0" width="450" height="300" xlink:href="#k"/><use transform="translate(24 16)" width="450" height="300" xlink:href="#l"/><use transform="translate(-144 -99)" width="450" height="300" xlink:href="#c"/><use transform="translate(-151 -119)" id="n" x="0" y="0" width="450" height="300" xlink:href="#m"/><use transform="translate(27 -18)" id="o" x="0" y="0" width="450" height="300" xlink:href="#n"/><use transform="translate(27 -18)" id="p" x="0" y="0" width="450" height="300" xlink:href="#o"/><use transform="translate(27 -17)" id="q" x="0" y="0" width="450" height="300" xlink:href="#p"/><use transform="translate(27 -18)" id="r" x="0" y="0" width="450" height="300" xlink:href="#q"/><use transform="translate(187 91)" id="s" x="0" y="0" width="450" height="300" xlink:href="#r"/><use transform="translate(-24 17)" id="t" x="0" y="0" width="450" height="300" xlink:href="#s"/><use transform="translate(-24 16)" id="u" x="0" y="0" width="450" height="300" xlink:href="#t"/><use transform="translate(-24 16)" id="v" x="0" y="0" width="450" height="300" xlink:href="#u"/><use transform="translate(-24 17)" id="w" x="0" y="0" width="450" height="300" xlink:href="#v"/><use transform="translate(-24 16)" width="450" height="300" xlink:href="#w"/></svg>