<svg xmlns="http://www.w3.org/2000/svg" width="1200" height="600"><path d="M0 0h1200v600H0z" fill="#c00"/><path d="M200 35.66l-8.36 25.74H164.6l21.88 15.91-8.36 25.75L200 87.14l21.88 15.92-8.36-25.75L235.4 61.4h-27.04zm0 13.4l5.35 16.48h17.3l-14 10.19L214 92.2l-14-10.18-14 10.18 5.35-16.47-14-10.19h17.3z" fill="gold" stroke-width=".15"/><g fill="gold"><path d="M138.82 170.85l18.66 18.75 17.6-17.44c26.77 28.64 54.85 56.24 81.4 84.99 4 4 10.5 4.03 14.51.05a10.21 10.21 0 00.05-14.47c-28.5-26.83-57.1-53.87-85.63-80.8l23.71-23.49-32.98-4.55z" stroke-width=".49"/><path d="M200 110.17a83.5 83.5 0 0132.9 33.94c6.97 13.11 10.04 26.8 10.1 37.74.13 22.45-18.24 40.64-40.74 40.64-12 0-22.8-5.18-30.26-13.42l-4.12 3.46a6.16 6.14 0 00-2.2-.4 6.16 6.14 0 00-4.7 2.17 7.73 7.71 0 00-6.34 5.22 26.57 26.57 0 01-15.3 13.38 16.94 10.48-45.03 00-8.7 5.72 16.94 10.48-45.03 00-6.23 16.42 3.89 3.88 0 00-.21 1.25 3.89 3.88 0 003.89 3.88 3.89 3.88 0 001.56-.33 16.94 10.48-45.03 0015.88-6.47 16.94 10.48-45.03 005.92-9.4 26.22 26.22 0 0113.48-14.86c.15-.07.27-.15.38-.22a7.73 7.71 0 004.18-5.15c9.6 11.3 23.99 18.5 40.08 18.89 29.52.69 51.58-20.98 52.6-52.14.51-15.68-5.57-35.9-19.43-52.49-10.6-12.67-25.15-23.2-42.74-27.83z" stroke-width=".5"/></g><path d="M0 450h1200v150H0z" fill="#039" fill-rule="evenodd"/></svg>