<svg version="1.1" id="svg3001" xmlns="http://www.w3.org/2000/svg" x="0" y="0" viewBox="0 0 897.6 600" xml:space="preserve"><style>.st3{fill:#fff}</style><path id="rect4" fill="#009739" d="M-1 400.5h900v200H-1z"/><path id="rect6" fill="#e4002b" d="M-1 200.5h900v200H-1z"/><path id="rect8" fill="#00a3e0" d="M-1 .5h900v200H-1z"/><path id="crescent" class="st3" d="M338.1 458.6a159.3 159.3 0 11123-260.8 196.2 196.2 0 100 202.9 159 159 0 01-123 57.9z"/><path id="star" class="st3" d="M359.2 299.4l42.3-18.9-16.7-43.4 43.4 16.7 18.9-42.9 18.9 42.9 44-16.7-17.2 43.4 42.8 18.9-42.8 19 16.7 43.4-43.5-16.7-18.9 42.3-18.9-42.3-43.4 16.7 16.7-43.4z"/></svg>