<svg xmlns="http://www.w3.org/2000/svg" width="1200" height="600"><path fill="gold" stroke-width="1.16" stroke-linejoin="round" paint-order="stroke fill markers" d="M281.35 246.32h80v62.41h-80z"/><path d="M0 0h1200v600H0z" fill="#c00"/><g fill="gold"><path d="M139.6 150.05l19.64 19.73 18.53-18.35c28.18 30.14 57.73 59.2 85.7 89.46a10.82 10.82 0 0015.26.05c4.23-4.2 4.25-11.01.05-15.23-30.01-28.24-60.11-56.71-90.13-85.06l24.95-24.72-34.72-4.8z" stroke-width=".49"/><path d="M204 86.17a87.9 87.9 0 0134.64 35.72c7.33 13.8 10.56 28.22 10.62 39.74.14 23.62-19.2 42.77-42.89 42.77-12.63 0-24-5.45-31.84-14.13l-4.35 3.65a6.48 6.46 0 00-2.31-.43 6.48 6.46 0 00-4.95 2.29 8.14 8.12 0 00-6.67 5.5 27.97 27.97 0 01-16.1 14.08 17.83 11.03-45.03 00-9.16 6.02 17.83 11.03-45.03 00-6.56 17.28 4.1 4.08 0 00-.22 1.32 4.1 4.08 0 004.1 4.09 4.1 4.08 0 001.63-.35 17.83 11.03-45.03 0016.72-6.82 17.83 11.03-45.03 006.23-9.9 27.6 27.6 0 0114.19-15.63c.16-.08.28-.15.4-.23a8.14 8.12 0 004.4-5.42 56.97 56.97 0 0042.2 19.88c31.06.73 54.29-22.08 55.36-54.88.54-16.51-5.86-37.8-20.46-55.25-11.15-13.34-26.47-24.42-44.98-29.3z" stroke-width=".5"/></g><text style="line-height:1.25;-inkscape-font-specification:sans-serif;text-align:center" x="205.09" y="340.44" font-weight="400" font-size="80" font-family="sans-serif" letter-spacing="0" word-spacing="0" text-anchor="middle" fill="gold" stroke-width=".95"><tspan x="205.09" y="340.44" style="-inkscape-font-specification:'Century Schoolbook Bold';text-align:center" font-weight="700" font-family="Century Schoolbook">AзССР</tspan></text></svg>