<svg xmlns="http://www.w3.org/2000/svg" height="1050" width="1500" version="1.0"><path d="M0 0h1500v1050H0z" fill="#f95"/><switch transform="matrix(1 0 0 1 496.4 232)"><g><path fill="#5087c6" d="M253.2 1.9l251.4 182.6-96 295.6H97.7l-96-295.6z"/><path d="M407 370.1v-13.7H400v-4h6v-5.7h4.2v-6.1H406v-6.3h-34.7v17.4h4.8v6.9h8.3v9.1h-3.7v-7h-7.3v-6.1H369v-4.2h-5.6v-21.8h7.7v-4.3h6.9v-5.9s5.7-.6 6.7-3.4c1-2.9-2.3-4.3-2.3-4.3s1-.7 3.6-3.9c2.6-3 4.1-7.2 2.6-14.5-1.6-7.3-8.9-13.5-12.5-12.6-3.5.9-3.5 5.6-.5 6.2 3 .5 2.7-1 2.7-1s2 1 2.1 5.7c.2 4.5-7.6 8.5-10.8 10-3.3 1.4-3 6.8-3 6.8h-3.3v-5.7H354v-5.9h5.7c2.8 0 4.6-1.7 4.8-3 .1-1.5-1.9-2.8-1.9-2.8s7.4-10 7.4-19.7-3.5-13.2-7.7-13.3c-4.1-.1-3.1 5.3-1.6 5.3 1.6 0 2.3-1.6 2.3-1.6s1.2 1.2 1.3 3.3c.2 2.1-2.6 4.7-6.4 8.3-3.9 3.6-4 10.4-4 10.4h-4.6V278h-5.1V271h4s4.7-2 4.7-3.7c0-1.7-1.2-3.7-1.2-3.7.6-4 3-3.6 5.9-11 2.9-7.4-2.4-17-6.3-18.1-3.8-1.2-6.1 5.7-3.7 6.3 2.4.5 3.1-1.5 3.1-1.5s1.6.7 1.8 4c.1 3.3-2.9 4.3-6.2 6.7-3.3 2.5-2.8 6.5-2.8 6.5H338v-6.9h-4.7V244h5.1V239s3.7-2 6.4-6.1c4.4-6.7 0-16.5-3.1-17.9-3.1-1.4-4.7 2.3-3.6 4 1.2 1.7 2.5 0 2.5 0s.7 1.3.4 4.3c-.3 3-4.6 4.7-6.7 5.4-2.2.7-1.3 6.4-1.3 6.4h-5.2V230h-8v-4.3h3.9v-2.6h4.9v-4s-.8-.1 2.8-2c3.6-1.8 3.4-6 3.4-9.8 0-3.9-4-8.7-4.8-7.7-.9 1 .7 2.3.6 5.5-.2 3.3-2.3 4.3-3.8 4.3-1.4 0-1.7 3.9-1.7 3.9h-5.7v-2.9h3.6V207s4.1-3.8 4.1-7.3c0-3.6-.4-8.7-2-8.7-1.5 0-1.8.8-1.5 4.2.2 3.5-3.6 5.8-5.5 5.5-1.8-.3-5.1.3-5.1.3s.3-1.5 1.7-1.8c1.4-.2 3.6-3.5 3.3-5.4-.3-1.8-4.4-1.7-4.4-1.7l.1-4.9c.1-2.1-5.1-4.8-5.1-4.8v190H197.7v-190s-5.2 2.7-5 4.8v4.9s-4-.2-4.4 1.7c-.3 1.8 1.9 5.1 3.3 5.4 1.4.3 1.7 1.7 1.7 1.7s-3.3-.5-5.1-.3c-1.9.3-5.7-2-5.4-5.4.2-3.4 0-4.3-1.6-4.3s-2 5.2-2 8.7c0 3.6 4.1 7.3 4.1 7.3v3.6h3.6v2.9h-5.7s-.3-3.9-1.7-3.9c-1.5 0-3.6-1-3.7-4.3-.2-3.3 1.4-4.6.5-5.6-.8-1-4.8 3.9-4.8 7.8 0 3.8-.2 8 3.4 9.8 3.6 1.9 2.9 2 2.9 2v4h4.8v2.6h3.9v4.3h-8v5.1h-5.2s.9-5.7-1.3-6.4c-2.1-.7-6.4-2.4-6.7-5.4-.3-3 .4-4.3.4-4.3s1.3 1.7 2.5 0c1.1-1.7-.5-5.5-3.6-4-3.1 1.4-7.5 11.1-3.1 17.8 2.7 4.2 6.4 6.2 6.4 6.2v4.8h5.1v5.9h-4.7v6.8h-5.5s.4-4-3-6.4c-3.2-2.4-6.2-3.4-6-6.7 0-3.3 1.7-4 1.7-4s.7 2 3.1 1.4c2.4-.5.1-7.4-3.7-6.3-3.9 1.2-9.1 10.8-6.3 18.2 2.9 7.4 5.3 7 5.9 11 0 0-1.2 2-1.2 3.7 0 1.7 2.7 3.7 4.7 3.7h4v6.9H157v4.7h-4.6s-.1-6.9-4-10.4c-3.8-3.6-6.6-6.2-6.4-8.3.1-2.2 1.3-3.3 1.3-3.3s.7 1.6 2.3 1.6c1.5 0 2.5-5.5-1.6-5.3-4.1.1-7.7 3.5-7.7 13.3 0 9.7 7.4 19.7 7.4 19.7s-2 1.3-1.8 2.7c0 1.4 2 3.1 4.7 3.1h5.7v5.9H143v5.7h-3.2s.2-5.4-3-6.9c-3.3-1.4-11-5.4-10.9-10 .1-4.5 2.1-5.7 2.1-5.7s-.2 1.6 2.8 1c3-.5 3-5.3-.6-6.1-3.6-.9-10.9 5.3-12.4 12.6-1.6 7.2 0 11.4 2.5 14.5 2.6 3.2 3.6 3.9 3.6 3.9s-3.3 1.4-2.3 4.3c1 2.8 6.7 3.4 6.7 3.4v5.9h6.9v4.2h7.7v21.9h-5.6v4.1H133v6.2h-7.3v7H122v-9.2h8.3v-6.8h4.8v-17.4h-34.7v6.2H96v6.2h4.2v5.7h6v4h-6.9v13.7H62.8s2.1 7.6 5.8 18.4H72v6.8h6.6s.5 16.3 4.7 31.2c4.5 9.6 9.4 18.4 14.4 24.5a76.3 76.3 0 0055.1 27.5c11.6 0 20.6-4.3 20.6-4.3s15 .9 26.1-3.9c3.4-3 8-7.3 8.6-9.9 1-4 .5-7 .5-7l5.4-.7c-.8-1.3-1.8-2.9-3-4.4l-4.3 1s-1-2-4.6-4.7a24.1 24.1 0 00-11.6-3.6s-1.2-3.6.3-3.6h1.6c5.1-3.3 23-13.1 53.5-13.1h14.3c30.6 0 48.5 9.8 53.6 13l1 .1c1.5 0 .3 3.6.3 3.6s-7.1.2-11.6 3.6a13.5 13.5 0 00-4.5 4.7l-3.7-.9c-1.3 1.6-2.3 3-3 4.4l4.8.5s-.5 3.1.5 7.1c.5 2.5 4.7 6.6 8 9.5 11.2 5.2 27 4.3 27 4.3s9 4.3 20.7 4.3c11.6 0 37-5.5 55.1-27.5 5-6.1 10-15 14.4-24.6 4.2-14.8 4.7-31 4.7-31h6.6v-6.9h3.5c3.6-10.8 5.8-18.4 5.8-18.4H407z" fill="#f2c008"/><path d="M287 457.1c1.3-.7 2.6-1.5 3.4-2.6l2.5-3.9c1-1.5 2.6-4 3.2-4.6l4.9-3.5a2.5 2.5 0 00.2-4 2.5 2.5 0 00-1.5-4c-.2 0-6-1.1-13.4.5l-.3-.6c-.5-.8-1.2-2.4-.9-3.2a2.5 2.5 0 00-4.3-2.5 95 95 0 01-5 5.6l-.3.2c-.3-.9.6-3.5 1.7-5.2a2.5 2.5 0 00-3.3-3.6c-.1 0-4 1.9-6.6 4.3l-2 2.8a6 6 0 01-.3-1.1c0-.8.3-1.8.4-2.1a2.5 2.5 0 00-4-2.6 26.3 26.3 0 00-4.3 4.8l-1.6-2.6a2.5 2.5 0 00-2-1.2h-.6c-.9 0-1.7.4-2.1 1.2 0 .1-.7 1-1.5 2.6-1-1.7-2.8-3.5-4.3-4.8a2.5 2.5 0 00-4 2.6c0 .3.3 1.3.3 2.1l-.3 1.1c-.6-1.1-1.3-2.1-2-2.8a30.4 30.4 0 00-6.6-4.3 2.5 2.5 0 00-3.2 3.6c1 1.7 2 4.3 1.6 5.2l-.3-.2-5-5.6a2.5 2.5 0 00-4.3 2.5c.3.8-.3 2.4-1 3.2v.3l-.2.3a32.7 32.7 0 00-13.8-.3 2.5 2.5 0 00-1 3.9c-.3.2-.6.5-.7.9-.5 1-.1 2.3.8 3l5 3.5c.5.5 2.1 3.1 3.1 4.6 1 1.5 1.8 3 2.5 3.9.9 1 2.1 2 3.5 2.6a89.7 89.7 0 00-13.9 13.8 2.5 2.5 0 002.3 4c.1 0 2.7-.3 7.5-1.9 2-.7 3.9-.6 6-.6 1.9.1 3.8.2 6.1-.4 1.7-.4 4-1.5 6.3-2.8l.3.3 1.4 1.3c.2.3.5 1.5.6 2.5a2.5 2.5 0 004.5 1.2c.6-.7 1.5-1.7 2-2l4.6-1.3c1.1 2.1 2.5 4.2 3.7 6.1.5.7 1.3 1.1 2.1 1.1h.5c.9 0 1.6-.4 2.1-1a69 69 0 003.7-6.2c1.7.4 4 1 4.6 1.3.5.3 1.5 1.4 2 2a2.5 2.5 0 004.5-1.2c.1-1 .4-2.2.6-2.5l1.4-1.3.3-.3c2.3 1.3 4.6 2.4 6.3 2.8 2.3.6 4.3.5 6.2.4 2 0 3.8-.1 6 .6 4.7 1.6 7.3 2 7.4 2a2.5 2.5 0 002.3-4c-1-1.2-8.9-10.6-13.9-13.9zM241.9 49.1l-17-12.5h21l7.3-20.5 7.2 20.6h21l-17.2 12.2 6.4 20.1-17.4-11.7-17.5 12.5z" fill="#f2c008"/><path d="M252.2 16.5l7.2 20.5c.2.4.5.7 1 .7h21a1 1 0 01-.6-1.9l-17.2 12.3a1 1 0 00-.4 1.1l6.5 20.1a1 1 0 011.5-1l-17.5-11.9a1 1 0 00-1.1 0L235 69a1 1 0 011.6 1l6.1-20.6a1 1 0 00-.3-1l-17-12.6a1 1 0 01-.6 1.8h21a1 1 0 001-.6l7.2-20.5a1 1 0 01-1 .6 1 1 0 01-.9-.6zM246 35.7h-21a1 1 0 00-.7 1.7l17 12.5a1 1 0 01-.4-1l-6.1 20.6a1 1 0 001.5 1.1l17.4-12.5a1 1 0 01-1.1 0l17.5 11.8a1 1 0 001.5-1.2l-6.5-20c.2.3 0 .8-.3 1L282 37.5a1 1 0 00-.6-1.9h-21c.4 0 .8.4.9.8l-7.2-20.6a1 1 0 00-1.9 0L245 36.4a1 1 0 011-.7z" fill="#5087c6"/><path fill="#f2c008" d="M222.6 236.5h-7.4v3h-2.7v20.1h6.8v67.6h-9.8v9.5h6.3v8.5h74.8v-8.5h6.2v-9.5H287v-67.6h6.8v-20.1h-2.7v-3h-7.4v-6.7h-61.1z"/><path d="M291.6 345.2v-8.5c0 .6-.5 1-1 1h6.2c.6 0 1-.4 1-1v-9.5c0-.6-.4-1-1-1H287c.6 0 1 .4 1 1v-67.6c0 .6-.4 1-1 1h6.8c.6 0 1-.4 1-1v-20.1c0-.6-.4-1-1-1h-2.7c.6 0 1 .4 1 1v-3c0-.6-.4-1-1-1h-7.4c.6 0 1 .4 1 1v-6.7c0-.5-.4-1-1-1h-61.1a1 1 0 00-1 1v6.7c0-.6.4-1 1-1h-7.4a1 1 0 00-1 1v3c0-.6.5-1 1-1h-2.7a1 1 0 00-1 1v20.1c0 .6.4 1 1 1h6.8a1 1 0 01-1-1v67.6c0-.6.5-1 1-1h-9.8a1 1 0 00-1 1v9.5c0 .6.4 1 1 1h6.3a1 1 0 01-1-1v8.5c0 .5.4 1 1 1h74.8c.5 0 1-.5 1-1zm-74.8 0v-8.5c0-.5-.5-1-1-1h-6.3c.6 0 1 .5 1 1v-9.5c0 .6-.4 1-1 1h9.8c.6 0 1-.4 1-1v-67.6c0-.5-.4-1-1-1h-6.8c.5 0 1 .5 1 1v-20.1c0 .5-.5 1-1 1h2.7c.6 0 1-.5 1-1v-3c0 .5-.4 1-1 1h7.4c.5 0 1-.5 1-1v-6.7c0 .6-.5 1-1 1h61.2a1 1 0 01-1-1v6.7c0 .5.4 1 1 1h7.3a1 1 0 01-1-1v3c0 .5.5 1 1 1h2.7a1 1 0 01-1-1v20.1c0-.5.5-1 1-1H287a1 1 0 00-1 1v67.6c0 .5.5 1 1 1h9.8a1 1 0 01-1-1v9.5c0-.5.5-1 1-1h-6.2a1 1 0 00-1 1v8.5c0-.6.4-1 1-1h-74.8c.5 0 1 .4 1 1z" fill="#5087c6"/><path fill="#f2c008" d="M269.5 281.1h-5v-3.7h-4.7v-3.8h-13.3v3.8h-4.7v3.7h-5v64h32.7z"/><path d="M270.5 345.2v-64c0-.6-.4-1-1-1h-5c.6 0 1 .4 1 1v-3.8c0-.6-.4-1-1-1h-4.7c.5 0 1 .4 1 1v-3.8c0-.5-.5-1-1-1h-13.3a1 1 0 00-1 1v3.8c0-.6.5-1 1-1h-4.7a1 1 0 00-1 1v3.7c0-.5.4-1 1-1h-5a1 1 0 00-1 1v64c0 .6.4 1 1 1h32.7c.6 0 1-.4 1-1zm-32.7 0v-64c0 .5-.5 1-1 1h5c.5 0 1-.5 1-1v-3.8c0 .5-.5 1-1 1h4.7c.6 0 1-.5 1-1v-3.8c0 .6-.4 1-1 1h13.3a1 1 0 01-1-1v3.8c0 .5.4 1 1 1h4.7a1 1 0 01-1-1v3.7c0 .6.5 1 1 1h5a1 1 0 01-1-1v64c0-.5.5-1 1-1h-32.7c.5 0 1 .5 1 1z" fill="#5087c6"/><path fill="#f2c008" d="M220.9 345h64.6v8.9h-64.6z"/><path d="M285.5 353h-64.7c.6 0 1 .4 1 1v-9c0 .6-.4 1-1 1h64.7a1 1 0 01-1-1v9c0-.6.4-1 1-1zm0-9h-64.7a1 1 0 00-1 1v9c0 .5.5 1 1 1h64.7c.5 0 1-.5 1-1v-9c0-.5-.5-1-1-1z" fill="#5087c6"/><path fill="#f2c008" d="M213.6 353.7h79.1v8.9h-79.1z"/><path d="M292.7 361.7h-79c.5 0 1 .4 1 1v-9c0 .6-.5 1-1 1h79a1 1 0 01-1-1v9c0-.6.4-1 1-1zm0-9h-79a1 1 0 00-1 1v9c0 .5.4 1 1 1h79c.6 0 1-.5 1-1v-9c0-.5-.5-1-1-1z" fill="#5087c6"/><path fill="#f2c008" d="M206.7 362.4h92.9v8.9h-92.9z"/><path d="M299.6 370.4h-93c.6 0 1 .4 1 1v-9c0 .6-.4 1-1 1h93a1 1 0 01-1-1v9c0-.6.5-1 1-1zm0-9h-93a1 1 0 00-1 1v9c0 .5.5 1 1 1h93c.6 0 1-.5 1-1v-9c0-.5-.4-1-1-1z" fill="#5087c6"/><path d="M276.9 206.1v-5.6c9.7 0 14.8-6 16.6-11.8 2-5.9-1.1-12-3.7-11.2-2.6.8-.4 4-.4 4 .6 4-2.7 5.5-5.4 5.3-3.4-.1-7.1 3.7-7.1 3.7v-6.6h-47.5v6.6s-3.6-3.8-7-3.7c-2.8.2-6-1.3-5.5-5.3 0 0 2.2-3.2-.4-4-2.5-.9-5.6 5.3-3.7 11.2 1.9 5.8 6.9 11.8 16.6 11.8v5.6H277z" fill="#f2c008"/><path d="M277.9 206.1v-5.6c0 .6-.4 1-1 1 8.5 0 15-4.7 17.6-12.5 1.5-4.6.2-9.4-2-11.5-.9-1-2-1.3-3-1a2.6 2.6 0 00-1.8 1.7c-.6 1.6.8 3.6 1 3.8a1 1 0 01-.2-.4c.1 1.3-.1 2.3-.8 3-.8.8-2.2 1.3-3.7 1.2-3.8-.2-7.7 3.8-7.8 4a1 1 0 011.7.7v-6.6c0-.6-.4-1-1-1h-47.5a1 1 0 00-1 1v6.6a1 1 0 011.8-.7c-.2-.2-4-4.2-7.9-4-1.5.1-2.9-.4-3.7-1.2-.6-.7-.9-1.7-.7-3l-.2.4c.2-.2 1.5-2.2 1-3.8-.2-.6-.7-1.3-1.8-1.7-1-.3-2.2 0-3.1 1-2.1 2-3.4 7-2 11.5a17.6 17.6 0 0017.6 12.5 1 1 0 01-1-1v5.6c0 .6.5 1 1 1H277c.5 0 1-.4 1-1zm-47.5 0v-5.6c0-.5-.4-1-1-1-10.9 0-14.6-7.8-15.7-11.1-1.3-4.2.1-8.1 1.5-9.5.2-.2.6-.6 1-.5.5.2.5.3.5.4.2.5-.3 1.6-.6 2.1l-.2.4c-.3 2.4.5 3.8 1.3 4.6 1.2 1.3 3.1 2 5.2 2 2.4-.2 5.4 2.3 6.3 3.3a1 1 0 001.7-.7v-6.6c0 .5-.4 1-1 1H277a1 1 0 01-1-1v6.6a1 1 0 001.7.7c1-1 4-3.5 6.3-3.4 2.1.1 4-.6 5.3-1.9.7-.8 1.5-2.2 1.2-4.6l-.1-.4c-.4-.5-.9-1.6-.7-2.1 0 0 0-.2.5-.4.4-.1.8.3 1 .5 1.4 1.4 2.8 5.3 1.5 9.5-1 3.3-4.8 11.1-15.7 11.1a1 1 0 00-1 1v5.6c0-.5.4-1 1-1h-47.5c.6 0 1 .4 1 1z" fill="#5087c6"/><path d="M271.1 183.9v-5c9.8 0 14.8-5 16.7-10 1.9-4.8-1.2-10-3.8-9.3-2.5.7-.3 3.3-.3 3.3.5 3.4-2.7 4.7-5.5 4.5-3.4-.1-7 3.1-7 3.1v-5.4h-36v5.4s-3.7-3.2-7.1-3c-2.8 0-6-1.2-5.5-4.6 0 0 2.2-2.6-.3-3.3-2.6-.7-5.6 4.5-3.8 9.4 2 4.9 7 10 16.7 10v4.9h36z" fill="#f2c008"/><path d="M272.1 183.9v-5c0 .6-.4 1-1 1 12.3 0 16.4-7.4 17.6-10.6 1.5-3.7.3-7.5-1.4-9.4-1-1.1-2.3-1.6-3.5-1.3-1.3.4-1.7 1-1.9 1.6-.5 1.5.8 3 1 3.4a1 1 0 01-.2-.5c.1.9 0 1.6-.5 2.1-.8.8-2.3 1.3-4 1.2-3.7-.1-7.5 3.2-7.7 3.4a1 1 0 011.7.7v-5.4c0-.6-.5-1-1-1h-36a1 1 0 00-1 1v5.4a1 1 0 011.6-.7c-.1-.2-4-3.5-7.7-3.4-1.7.1-3.2-.4-4-1.2-.4-.5-.6-1.2-.5-2.1 0 .2 0 .3-.2.5.3-.3 1.5-1.9 1-3.4-.2-.5-.6-1.2-1.8-1.6-1.2-.3-2.5.2-3.6 1.3a9.4 9.4 0 00-1.4 9.4c1.2 3.2 5.4 10.7 17.6 10.7a1 1 0 01-1-1v4.9c0 .5.4 1 1 1h36c.5 0 1-.5 1-1zm-36 0v-5a1 1 0 00-1-1c-10.9 0-14.6-6.5-15.6-9.3-1.1-2.8-.3-5.8 1-7.3.3-.3 1-1 1.5-.8l.5.3c.1.3-.3 1-.6 1.5v-.1a1 1 0 00-.3.6c-.2 1.5.2 2.7 1 3.7 1.2 1.3 3.3 2 5.5 2 3-.2 6.4 2.8 6.4 2.8a1 1 0 001.7-.8V165c0 .6-.5 1-1 1h36a1 1 0 01-1-1v5.5a1 1 0 001.6.8s3.4-3 6.4-2.9c2.3.1 4.3-.6 5.5-1.9.9-1 1.2-2.2 1-3.7a1 1 0 00-.2-.5c-.4-.4-.8-1.2-.7-1.5l.5-.3c.6-.1 1.3.5 1.5.8a7.5 7.5 0 011 7.3c-1 2.8-4.7 9.4-15.7 9.4a1 1 0 00-1 1v4.9c0-.6.5-1 1-1h-36c.6 0 1 .4 1 1z" fill="#5087c6"/><path d="M267.8 165v-4.7c8.8 0 13.3-5 15-10 1.7-5-1-10.1-3.4-9.4-2.3.7-.3 3.4-.3 3.4.5 3.3-2.4 4.6-4.9 4.5-3-.2-6.4 3-6.4 3v-5h-29.3v5s-3.3-3.2-6.4-3c-2.5 0-5.4-1.2-5-4.5 0 0 2-2.7-.2-3.4-2.3-.7-5.1 4.5-3.4 9.4 1.7 5 6.2 10 15 10v4.8h29.3z" fill="#f2c008"/><path d="M268.8 165v-4.7a1 1 0 01-1 1c7.7 0 13.7-4 16-10.7 1.3-3.8.2-7.8-1.6-9.6-1-1-2-1.4-3-1-1.1.3-1.6 1-1.7 1.5-.5 1.4.6 3 .8 3.4a1 1 0 01-.1-.5c0 1-.1 1.7-.6 2.3-.7.7-2 1.1-3.3 1-3.5-.1-7 3.3-7.2 3.4a1 1 0 011.7.7v-5c0-.6-.4-1-1-1h-29.3a1 1 0 00-1 1v5a1 1 0 011.7-.7c-.1-.1-3.7-3.5-7.1-3.3-1.4 0-2.7-.4-3.4-1.1-.5-.6-.7-1.4-.5-2.3l-.2.5c.2-.3 1.4-2 .9-3.4-.2-.5-.6-1.2-1.7-1.6-1-.3-2.1 0-3 1-1.8 1.9-3 5.9-1.7 9.7 2.3 6.7 8.3 10.7 16 10.7a1 1 0 01-1-1v4.8c0 .5.5 1 1 1h29.3c.6 0 1-.5 1-1zm-29.3 0v-4.7a1 1 0 00-1-1c-9.8 0-13.1-6.5-14-9.3-1.2-3.3 0-6.5 1-7.6.2-.2.7-.7 1-.5.2 0 .4 0 .5.2 0 .3-.3 1-.6 1.6a1 1 0 00-.2.4c-.3 2 .4 3.2 1 4 1.2 1.1 3 1.8 5 1.7 2.1-.1 4.8 2 5.6 2.8a1 1 0 001.7-.7v-5.2c0 .6-.4 1-1 1h29.3a1 1 0 01-1-1v5.2a1 1 0 001.7.7c.9-.8 3.5-3 5.7-2.8 2 0 3.8-.6 4.9-1.8.6-.7 1.3-2 1-3.9 0-.1 0-.3-.2-.4-.3-.5-.6-1.3-.5-1.6l.3-.2c.4-.2.9.3 1 .5 1.2 1.1 2.3 4.3 1.2 7.6-1 2.8-4.3 9.3-14 9.3a1 1 0 00-1 1v4.7c0-.5.4-1 1-1h-29.4c.5 0 1 .5 1 1z" fill="#5087c6"/><path d="M263.5 146.7V143c8.1 0 12.3-4.3 14-8.6 1.5-4.2-1-8.7-3.2-8.1-2.2.6-.3 2.9-.3 2.9.4 2.9-2.3 4-4.6 3.9-2.8-.2-5.9 2.6-5.9 2.6v-4.4h-20.7v4.4s-3-2.8-5.9-2.6c-2.3 0-5-1-4.6-4 0 0 1.9-2.2-.2-2.8-2.2-.6-4.7 3.9-3.2 8.1 1.6 4.3 5.8 8.6 14 8.6v3.8h20.6z" fill="#f2c008"/><path d="M264.5 146.7V143c0 .6-.4 1-1 1 7.2 0 12.7-3.4 14.8-9.2 1.2-3.3.3-6.7-1.3-8.4-.9-1-2-1.4-3-1.1-1 .3-1.5 1-1.7 1.5-.4 1.3.7 2.7 1 3a1 1 0 01-.3-.5c.1.8 0 1.3-.4 1.8-.6.6-1.8 1-3.1 1-3.3-.2-6.5 2.8-6.7 2.9a1 1 0 011.7.7v-4.4c0-.6-.4-1-1-1h-20.7a1 1 0 00-1 1v4.4a1 1 0 011.7-.7c-.1-.1-3.4-3-6.6-3-1.3.1-2.5-.3-3.1-1-.4-.4-.6-1-.5-1.7 0 .2 0 .4-.2.5.2-.3 1.3-1.7.9-3-.2-.5-.6-1.2-1.7-1.5-1-.3-2 .1-3 1a8.5 8.5 0 00-1.3 8.5c2.1 5.8 7.7 9.2 14.8 9.2a1 1 0 01-1-1v3.8c0 .6.5 1 1 1h20.7c.5 0 1-.4 1-1zm-20.7 0V143c0-.5-.4-1-1-1-9 0-12-5.5-13-8-.9-2.4-.2-5 1-6.3.3-.4.7-.5 1-.5.2 0 .3.1.3.2s-.2.8-.5 1.2a1 1 0 00-.2.4 4 4 0 00.9 3.4 6 6 0 004.6 1.7c2-.1 4.5 1.7 5.2 2.4a1 1 0 001.7-.8v-4.4c0 .5-.4 1-1 1h20.7a1 1 0 01-1-1v4.4a1 1 0 001.7.8c.7-.7 3.2-2.5 5.2-2.4a6 6 0 004.6-1.7 4 4 0 001-3.4 1 1 0 00-.2-.4c-.4-.5-.6-1-.6-1.2l.3-.2c.3 0 .7.1 1 .5 1.2 1.3 1.9 3.9 1 6.4-1 2.4-4 8-13 8a1 1 0 00-1 1v3.7c0-.5.5-1 1-1h-20.7c.6 0 1 .5 1 1z" fill="#5087c6"/><g><path d="M259.6 131.2v-3.4c7.5 0 11.5-3.8 13-7.5 1.4-3.7-1-7.6-3-7-2 .5-.3 2.5-.3 2.5.4 2.5-2 3.4-4.2 3.3-2.7 0-5.5 2.4-5.5 2.4v-4.1h-12.8v4s-2.9-2.4-5.5-2.3c-2.2.1-4.7-.8-4.3-3.3 0 0 1.7-2-.3-2.6-2-.5-4.3 3.4-2.9 7.1 1.5 3.7 5.4 7.5 13 7.5v3.4h12.8z" fill="#f2c008"/><path d="M260.6 131.2v-3.4c0 .6-.5 1-1 1 9.6 0 12.9-5.7 13.8-8.1 1.2-3 .3-5.8-1-7.3-1-1-2-1.4-3-1.1-1.1.2-1.5.9-1.7 1.3-.4 1.3.7 2.6.9 2.8a1 1 0 01-.3-.5c.1.6 0 1-.3 1.4-.5.6-1.6.9-2.9.8-3 0-6 2.5-6.2 2.6a1 1 0 011.7.8v-4.1c0-.6-.5-1-1-1h-12.8a1 1 0 00-1 1v4a1 1 0 011.6-.7c-.1-.1-3.2-2.7-6.2-2.6-1.2.1-2.3-.2-2.9-.8-.3-.4-.4-.8-.3-1.4l-.2.5c.2-.2 1.2-1.5.8-2.8-.1-.4-.5-1-1.6-1.3-1-.3-2.1.1-3 1.1a7.3 7.3 0 00-1.1 7.3c1 2.4 4.3 8.1 13.9 8.1a1 1 0 01-1-1v3.4c0 .5.4 1 1 1h12.8c.5 0 1-.5 1-1zm-12.8 0v-3.4c0-.5-.5-1-1-1-8.4 0-11.2-4.8-12-6.9-.8-2-.3-4.1.7-5.2.3-.4.7-.6 1-.5h.2l-.4 1a1 1 0 00-.3.4c-.2 1.2.1 2.2.8 3 1 1 2.6 1.6 4.5 1.5 2.2 0 4.8 2.1 4.8 2.1a1 1 0 001.7-.7v-4.1c0 .5-.5 1-1 1h12.8a1 1 0 01-1-1v4a1 1 0 001.6.8s2.6-2.1 4.8-2c1.9 0 3.6-.6 4.5-1.6.7-.8 1-1.8.8-3a1 1 0 00-.2-.5c-.3-.3-.5-.7-.5-.9v.1l.2-.1c.3 0 .7.1 1 .5 1 1.1 1.6 3.2.8 5.2-.8 2.1-3.6 7-12 7a1 1 0 00-1 1v3.3c0-.6.4-1 1-1h-12.8c.5 0 1 .4 1 1z" fill="#5087c6"/></g><g><path d="M258 102v6.9s2.5-2.3 5-2.2c1.9 0 4.2-.8 3.8-3.2 0 0-1.6-1.8.2-2.3 1.8-.5 4 3.1 2.7 6.6-1.3 3.4-4.9 7-11.8 7v2.6h-9.5v-2.6c-6.9 0-10.4-3.6-11.7-7-1.4-3.5.8-7.1 2.6-6.6s.2 2.3.2 2.3c-.3 2.4 2 3.3 3.9 3.2 2.4-.1 5 2.2 5 2.2V102h9.5z" fill="#f2c008"/><path d="M257 102v6.9a1 1 0 001.6.7c.6-.5 2.7-2 4.3-1.9 1.7 0 3.2-.5 4.1-1.4.7-.8 1-1.8.8-2.9a1 1 0 00-.2-.5l-.4-.8-.1.1h.2c.2-.1.5 0 .8.4a5 5 0 01.6 4.8c-.7 2-3.2 6.4-10.8 6.4a1 1 0 00-1 1v2.6c0-.6.5-1 1-1h-9.5c.5 0 1 .4 1 1v-2.6c0-.6-.5-1-1-1-7.6 0-10-4.5-10.8-6.4a5 5 0 01.7-4.8c.2-.3.5-.5.7-.5l.2.1-.4.7a1 1 0 00-.2.5c-.2 1.1 0 2.1.7 2.9.9 1 2.4 1.5 4.1 1.4 1.7 0 3.7 1.4 4.3 2a1 1 0 001.7-.8V102c0 .6-.5 1-1 1h9.5a1 1 0 01-1-1zm-9.6 0v6.9a1 1 0 011.6-.8s-2.9-2.5-5.6-2.4c-1.1 0-2.1-.3-2.6-.8-.3-.3-.4-.7-.3-1.2 0 .2 0 .4-.2.5.2-.2 1.2-1.5.8-2.7-.2-.4-.5-1-1.5-1.3-1-.2-2 .1-2.8 1a7 7 0 00-1 7c1.8 4.7 6.5 7.6 12.6 7.6a1 1 0 01-1-1v2.6c0 .5.4 1 1 1h9.5c.6 0 1-.5 1-1v-2.6c0 .5-.4 1-1 1 6.1 0 10.9-2.9 12.7-7.7 1-2.7.2-5.5-1-6.9-.9-.9-1.9-1.2-2.8-1-1 .3-1.4.9-1.6 1.3-.3 1.2.6 2.5.8 2.7a1 1 0 01-.2-.5c0 .5 0 1-.3 1.2-.5.5-1.4.8-2.5.8-2.8-.1-5.6 2.3-5.7 2.4a1 1 0 011.6.8V102c0-.5-.4-1-1-1h-9.5a1 1 0 00-1 1z" fill="#5087c6"/></g><g><path d="M258.9 102v-2.3h1.7s-.9.5.6-.2c1.4-.7 2-3.2 2-6.8 0-3.6-3.3-5.6-4.9-4.7-1.6 1 1 2.5 1 2.5s.8.4.3 2c-.6 1.6-3.8 1.1-3.8 1.1s2.2-12.2 2.3-15.4c.2-3.3-3-4.7-3-4.7h-3.8s-3.3 1.4-3.1 4.7c.2 3.2 2.3 15.4 2.3 15.4s-3.2.5-3.7-1c-.6-1.7.1-2 .1-2s2.7-1.7 1.1-2.6c-1.6-.9-4.8 1.1-4.8 4.7s.5 6.1 2 6.8c1.4.7.5.2.5.2h1.8v2.3h11.3z" fill="#f2c008"/><path d="M259.9 102v-2.3c0 .6-.5 1-1 1h1.7a1 1 0 01-.5-1.9c-.9.6-.8 1.2-.6 1.6.5.9 1.3.4 2.1 0 1.8-.8 2.6-3.3 2.6-7.7a6 6 0 00-3-5.3c-1.1-.7-2.4-.8-3.4-.2-.9.4-1 1.1-1 1.5 0 1.3 1.6 2.4 2 2.7v-.1l-.2.9c-.1.5-1.7.6-2.6.4a1 1 0 01.8 1.2c0-.5 2.1-12.3 2.3-15.6.2-3.9-3.5-5.6-3.6-5.6a1 1 0 00-.4-.1h-3.9a1 1 0 00-.4 0c-.1.1-3.8 1.8-3.6 5.7.2 3.3 2.3 15 2.3 15.6a1 1 0 01.9-1.2c-1.1.2-2.5 0-2.7-.4-.2-.6-.1-.9-.1-1 0 0 0 .2-.2.2.5-.3 2.2-1.4 2.1-2.7 0-.4-.1-1-1-1.5-1-.6-2.3-.5-3.5.2a6 6 0 00-2.8 5.3c0 4.4.8 6.9 2.5 7.7.8.4 1.7.9 2.1 0 .3-.4.3-1-.6-1.6a1 1 0 01-.5 2h1.8a1 1 0 01-1-1v2.2c0 .6.4 1 1 1h11.3c.6 0 1-.4 1-1zm-11.4 0v-2.3c0-.5-.5-1-1-1h-1.8a1 1 0 00-.5 1.9h.1c-.4-.2-.5-.7-.2-1.2.2-.4.7-.6 1.2-.4l-.7-.4c-.5-.2-1.4-1.4-1.4-5.9 0-1.8 1-3 1.9-3.5.5-.4 1.1-.5 1.4-.3h.1v-.2l-1.2 1s-1.4.8-.6 3.1c.8 2.4 4.5 1.9 4.9 1.8a1 1 0 00.8-1.2s-2.1-12.2-2.3-15.3c-.1-2.5 2.4-3.7 2.5-3.7a1 1 0 01-.5 0h3.9a1 1 0 01-.4 0s2.6 1.2 2.4 3.7c-.1 3.1-2.3 15.2-2.3 15.3a1 1 0 00.8 1.2c.5 0 4.1.6 5-1.8.7-2.3-.6-3-.8-3.1-.4-.3-1-.8-1-1v.3c.3-.3 1-.2 1.5.2a4 4 0 011.9 3.5c0 4.5-1 5.7-1.5 6l-.6.3c.4-.2 1 0 1.1.4.3.5.2 1-.2 1.3l.2-.1a1 1 0 00-.6-1.9h-1.8a1 1 0 00-1 1v2.3c0-.5.5-1 1-1h-11.3c.5 0 1 .5 1 1z" fill="#5087c6"/></g><g><path d="M284.8 229.7v-5.9c10.2 0 15.5-6.5 17.5-12.7 2-6.3-1.2-13-4-12-2.6.8-.3 4.2-.3 4.2.5 4.3-2.9 6-5.7 5.8-3.6-.2-7.5 4-7.5 4v-7h-63.3v7s-3.8-4.2-7.4-4c-3 .1-6.3-1.5-5.8-5.8 0 0 2.4-3.4-.3-4.3-2.7-.9-6 5.8-4 12 2 6.3 7.3 12.8 17.5 12.8v6h63.3z" fill="#f2c008"/><path d="M285.8 229.7v-5.9c0 .6-.4 1-1 1 9 0 15.8-5 18.5-13.4 1.5-5 .1-10.2-2.1-12.4-1-1-2.1-1.3-3.2-1a2.7 2.7 0 00-1.8 1.8c-.6 1.7.8 3.9 1 4.1a1 1 0 01-.2-.4c.2 1.4-.1 2.5-.8 3.3a5 5 0 01-3.9 1.3c-4-.2-8 4-8.2 4.3a1 1 0 011.7.6v-6.9c0-.5-.4-1-1-1h-63.3a1 1 0 00-1 1v7a1 1 0 011.8-.7c-.2-.2-4.3-4.5-8.3-4.3a5 5 0 01-3.8-1.3c-.8-.8-1-2-.9-3.3 0 .1 0 .3-.2.4.2-.2 1.6-2.4 1-4.1-.2-.6-.6-1.3-1.8-1.7-1-.4-2.2 0-3.2 1-2.2 2.1-3.6 7.3-2 12.3a18.5 18.5 0 0018.4 13.4 1 1 0 01-1-1v6c0 .5.5 1 1 1h63.3c.5 0 1-.5 1-1zm-63.3 0v-5.9c0-.5-.4-1-1-1a16.5 16.5 0 01-16.5-12c-1.4-4.4 0-8.8 1.5-10.3.3-.3.7-.7 1.2-.5.4.1.5.3.5.4.2.7-.4 2-.7 2.4l-.2.4c-.3 2.5.6 4 1.4 5a7 7 0 005.4 1.9c2.6-.1 5.7 2.6 6.7 3.6a1 1 0 001.7-.7v-6.9c0 .6-.4 1-1 1h63.3a1 1 0 01-1-1v7a1 1 0 001.7.6c1-1 4.2-3.7 6.7-3.6a7 7 0 005.4-2c.8-.8 1.7-2.4 1.4-4.9 0-.1 0-.3-.2-.4-.4-.6-.9-1.8-.7-2.4 0 0 .1-.3.6-.4.4-.2.9.2 1.1.5 1.5 1.5 3 5.9 1.6 10.3-1.2 3.6-5 12-16.6 12a1 1 0 00-1 1v6c0-.6.5-1 1-1h-63.3c.6 0 1 .4 1 1z" fill="#5087c6"/></g><g><path d="M187.3 113.1c-3.4-3.7-13.1-8.4-16.5-6-3.4 2.3-5.7 13.1-5.7 17.5v.7c-2.3 1.3-5.2 3-8.3 5-3.2-3.2-6.5-6-9.6-7.4 0 0-8.7 3.4-12 10.8-3 6.4-3.6 11.3-3.7 12.5l-6 4-1.1-1.4c-4.8-4.7-18.2-8-18.2-8-9.8 6.7-9.1 18.1-8.4 21.5.2 1.3 2.1 3.5 4.7 5.8a211 211 0 00-3.8 3.4c-4.7-3-12-5.2-12-5.2s-6.8 10.1-7.1 17.2c-.1 2.7 1 5.1 2.8 7l-2 3.5-10.2-2.8H58s-6.1 1.4-5.8 8.8c.3 6.1 7.3 13.4 12.7 16.7l-1.6.1c-9 1.4-13.4 9.8-13.4 9.8s-3.7 7.7-.4 14.1c3.4 6.4 16.2 7.7 16.2 7.7L70 247l.7 3.4c-1.4 1-2.4 2-2.9 2.8-2 3.3-8 11-4.7 15.4 3.4 4.4 23.6 3 25.2 1.7a20 20 0 006.4-13.1c0-6-4.3-14.5-4.3-14.5-3.8 0-8.7 1.7-13 3.8l-.4-2c3-1.2 5.5-2.4 6-3.1 1.3-2 4-8.8 4-12.1 0-3.4-.3-6.1-.3-6.1s-3.8-2-8.7-3.9l.2-1c4.5-.7 9.1-2 11.5-2.8C94 213.8 97 203 97 203s-4.9-4.5-10.8-7l1.6-1.8c2.2 1 4.7 1.4 7.2 1.4 8 0 20.2-10.8 20.2-10.8s-6.8-5-11.5-9l3.6-3.9c3.1 2.2 6.4 3.8 8.5 3.8 5.4 0 15.9-9 15.9-9s-1.4-6.6-3.9-12.2c1.8-1 4-2.4 6.1-3.8 2.7 3.1 7.5 6.6 15.6 5.2 13.8-2.4 19.2-11.1 19.2-11.1s-3.8-5.4-8.7-11l7.1-4.6c.9.6 1.6.8 1.6.8s7.4-1 14.5-1c7 0 11.4-4 11.4-4s-4-8.1-7.4-11.9z" fill="#0db14b"/><path d="M180.5 104.4s-3.8-5-7.6-3.6c-3.7 1.4-5 6.8-2.3 7.7 2.7 1 7-.1 7-.1s-3.3 4.2.8 6c4 1.9 6.2-.3 6.2-.3s-1.1 4.8 1.5 6.4c2.7 1.5 5.3 1 5.3 1s-1.6 6.6 3.7 6.4c5.3-.1 8-6.5 5.6-9.3-2.5-2.8-4.5-3-4.5-3s-.5-5.2-3.3-6.4c-2.7-1.3-3.8-.2-3.8-.2s-.5-7.4-8.6-4.6z" fill="#fff"/><path d="M181.3 103.7c-.1-.2-4.3-5.5-8.7-3.8a7 7 0 00-4.4 6.3c0 1.6.8 2.8 2 3.3 3 1 7.4-.1 7.6-.1l-1-1.6c-.2.2-1.9 2.5-1.3 4.8.2.8.8 2 2.5 2.7 4.6 2.2 7.2-.4 7.3-.5l-1.7-.9c0 .2-1.2 5.5 2 7.4 3 1.8 5.9 1.1 6 1l-1.2-1.1c0 .1-.9 4 1 6.2.8 1 2.1 1.6 3.7 1.5a7.8 7.8 0 006.9-4.8c1-2.3.8-4.6-.6-6.1-2.6-3-4.9-3.3-5.1-3.3l.9.9c0-.6-.6-6-3.8-7.4-3.4-1.4-4.9 0-5 .1l1.7.6c0-.1-.3-3.5-2.9-5.2-1.7-1.2-4.1-1.3-7-.3l1.1.3zm8.5 6s.7-.5 2.7.4c1.9.8 2.6 4.4 2.7 5.7v.8h1s1.6.3 3.7 2.7c.8.9 1 2.5.3 4a5.8 5.8 0 01-5.1 3.6c-1 0-1.7-.2-2.2-.8-1-1.2-.7-3.6-.5-4.5l.3-1.5-1.5.3s-2.3.5-4.6-.8c-1.6-1-1.3-4.1-1-5.3l.7-3.3-2.4 2.4c-.1 0-1.8 1.7-5.1.1-.8-.3-1.3-.8-1.4-1.4-.3-1.1.6-2.6 1-3l1.7-2.4-2.8.7a14 14 0 01-6.4.2c-.6-.2-.7-.9-.7-1.4a5 5 0 013-4.5c3-1 6.5 3.2 6.5 3.3l.5.5.7-.2c2.2-.8 4-.8 5.2 0 1.8 1.2 2 3.8 2 3.8l.1 2.2 1.5-1.6z" fill="#5087c6"/><path d="M147.7 116.6c2.6-2 8.7.2 9.3 3.1.6 3 1.4 4.2 1.4 4.2s7.9-3.4 10.8 2.5c3 5.9 2 9.9 2 9.9s8.4 6.7 4.7 9.8c-3.7 3-10.2 2-12.7-1.6-2.5-3.5-1.9-7.4-1.9-7.4s-5.9 1-8.7-2.5c-2.8-3.4-2.4-6.5-2.4-6.5s-13.5-2.7-2.5-11.5z" fill="#fff"/><path d="M148.3 117.4c1-.8 2.7-.8 4.5-.2 1.7.6 3 1.7 3.2 2.7.6 3 1.4 4.4 1.5 4.5l.5.8.8-.4c.2-.1 7-3 9.5 2 2.7 5.5 2 9.2 2 9.3l-.2.6.5.4c2 1.6 5.2 4.9 5.2 7 0 .5-.1.9-.6 1.2a7.8 7.8 0 01-6 1.5 7.6 7.6 0 01-5.2-2.9 10.2 10.2 0 01-1.7-6.7l.2-1.3-1.3.2c-.1 0-5.4.8-7.8-2.1a8.7 8.7 0 01-2.3-5.8l.1-1-.9-.1c-1.4-.3-5.3-1.5-5.9-3.7-.4-1.6 1-3.7 3.9-6zm.8 10.6c0 .1-.3 3.5 2.8 7.2 3 3.8 9.3 2.9 9.6 2.9l-1.2-1.2c0 .2-.6 4.3 2 8.2 1.4 2 3.9 3.3 6.6 3.7 3 .4 5.7-.3 7.6-2 .9-.7 1.3-1.7 1.3-2.8 0-3.7-5.3-8-6-8.5l.4 1c0-.2 1-4.4-2-10.6-2.8-5.3-9.2-4.2-12.2-3l1.2.5s-.7-1.2-1.3-3.9c-.4-2-2.5-3.5-4.4-4.1-2-.7-4.7-1-6.5.4-3.6 3-5.1 5.6-4.5 8 1 3.9 6.8 5.1 7.5 5.3l-.8-1.1z" fill="#5087c6"/><path d="M114.3 133.8s-4.5 4.4-3.4 10.7c1.1 6.4 9.6 6 9.6 6s5.8 3.5 5.5 5.2c-.4 1.7 1.8 7.3 3 7.6 1.3.3 4.9.6 4.9.6s9.1 3.7 10.5-.5c1.4-4.2 1.4-8.3-2.6-10.2-4-1.9-5.3-2.3-5.3-2.3s3.1-5.3-3-8.9c-6-3.5-11.1-3-11.1-3s1.4-8-8-5.2z" fill="#fff"/><path d="M113.6 133.1c-.2.2-4.8 4.8-3.7 11.6 1 5.7 7.4 7 10.7 6.9l-.6-.2c2.5 1.5 4.9 3.5 5 4.2v-.1c-.4 2 1.8 8.3 3.8 8.7 1.3.4 4.8.7 5 .7h-.3c.7.2 6.6 2.5 9.9 1 1-.4 1.6-1.2 2-2.2 2.3-7.1-.4-10.1-3.2-11.4l-5.3-2.4.5 1.5s3.5-6.2-3.3-10.2a20.2 20.2 0 00-11.8-3.1l1 1.2c.1-.2.7-3.8-1.6-5.8-1.6-1.4-4.2-1.7-7.6-.6h-.3l-.1.2zm9 7s4.8-.5 10.5 2.8c5 3 2.8 7 2.5 7.5l-.5 1 1 .4 5.3 2.3c2.9 1.4 3.6 4.4 2 9 0 .5-.4.8-.8 1-2.2 1-6.8-.5-8.3-1.1h-.2l-.1-.1a47 47 0 01-4.6-.6c-.8-.5-2.7-5-2.4-6.4.3-2.1-3.6-4.8-6-6.2l-.2-.1h-.3c-.3 0-7.7.2-8.6-5.3-1-5.7 3.1-9.7 3.1-9.8l-.4.3c2.7-.8 4.7-.7 5.8.2 1.4 1.3 1 3.9 1 4l-.2 1.2 1.3-.1z" fill="#5087c6"/><path d="M95.6 159s2-5.8-5.6-4.9c-7.6 1-7.8 10.1-5.9 14.5 1.9 4.3 8 4.8 11 4.8s5.4-.2 5.4-.2-1.2 8.8 3 10.5c4.2 1.8 7 .7 7 .7s3.5 5.2 8.2 2.6c4.6-2.6 6.2-9.3 2.8-11.2-3.4-1.8-7.6-1.8-7.6-1.8s1.7-7.8-5.3-10.1-7-.8-7-.8 1.7-7.6-6-4.2z" fill="#fff"/><path d="M96.5 159.3c0-.1 1-2.7-.6-4.6-1-1.4-3.1-2-6-1.6-2.8.4-5 1.8-6.3 4.1-2 3.5-1.8 8.6-.4 11.7 2 4.8 8.3 5.5 12 5.5 2.8 0 5.4-.2 5.4-.2l-1-1.1c-.2 1-1.3 9.6 3.5 11.6a11 11 0 007.7.6l-1.2-.4c1.4 2.1 5.3 5.4 9.6 3 3-1.8 5.1-5.3 5.1-8.5 0-2-.9-3.6-2.4-4.4a19 19 0 00-8-2l1 1.2c.6-3 .2-9.2-6-11.2-5.5-1.9-7-1.4-7.7-1-.4.3-.6.7-.6 1.1l2 .2c0-.3.8-3.8-1.2-5.5-1.4-1-3.5-1-6.2.2l1.3 1.3zm6.1 3.8c0 .4-.2.5-.2.6 0 0 1-.5 5.9 1.1 6 2 4.7 8.7 4.6 9v1.2h1s4 0 7 1.7c1.2.6 1.4 1.8 1.4 2.7 0 2.2-1.4 5.2-4.1 6.7-3.8 2.2-6.8-2.1-7-2.3l-.4-.7-.7.3c-.1 0-2.5 1-6.2-.6-2.9-1.1-2.7-7.2-2.4-9.5l.2-1.2-1.2.1s-2.5.2-5.4.2c-3 0-8.5-.6-10-4.2-1.2-2.7-1.5-7 .2-10a6 6 0 014.8-3c2.2-.3 3.6 0 4.3.7.8 1 .2 2.7.2 2.7l-.7 2.2 2-1c2-.8 3.5-1 4.2-.4 1 .7.7 2.8.5 3.5l.2-.3 1.8.5z" fill="#5087c6"/><g><path d="M92.3 193s8.5-.4 8.4 5.2c-.2 5.5-2.3 7.9-4.8 7.3-2.5-.7-6.4-3.5-6.4-3.5s-4.2 1.3-6.2-.4c-2-1.7-4.5-6-4.5-6l-5-.5s-2 3-5.7 3-6-4-6-4-2.2 1.7-4.8.7c-2.7-1.1-6.7-8.7 2.5-9.8 9.1-1.1.6-6 6-5.7 5.4.3 5.9 2.7 5.9 2.7s4.6-5.5 10.4-1.4c5.7 4.2 4.8 10.6 4.8 10.6l5.4 1.9z" fill="#fff"/><path d="M92.4 194c1.2 0 4.7.2 6.4 1.8.6.6 1 1.4.9 2.3 0 3-.8 5.2-2 6-.4.4-1 .5-1.6.4-2.2-.6-6-3.3-6-3.3l-.4-.3-.5.2c-1 .3-4 .8-5.2-.3-1.9-1.6-4.3-5.6-4.3-5.6l-.3-.5H79l-5-.6-.7-.1-.3.5c-.1.1-1.7 2.7-4.8 2.7-3 0-5.1-3.5-5.2-3.6l-.5-1-1 .7a4 4 0 01-3.7.5c-1-.4-2.9-2.7-2.6-4.8.3-2 2.8-2.8 4.8-3l.8-.1v-.8c0-.2.7-5.1 5-4.9 4.5.3 5 2 5 2l.5 1.9 1.3-1.4c.1-.2 4.1-4.8 9-1.3 5.1 3.8 4.4 9.4 4.4 9.6l-.1.9.8.2L92 194h.4zm-4.5-2.7c0-.3 1-7-5.2-11.5-5.2-3.7-10-.6-11.8 1.6l1.8.5c0-.4-.8-3.3-6.8-3.7-5-.2-6.9 4.3-7.1 6.7l.8-1c-5.1.7-6.3 3.3-6.5 4.9-.4 2.8 1.8 6 3.8 6.9a6 6 0 005.8-.8l-1.5-.3c.1.2 2.7 4.6 7 4.6 4.2 0 6.3-3.5 6.4-3.6l-1 .5 5.1.6-.7-.5c0 .2 2.6 4.3 4.7 6.1 2.3 2 6.6.8 7.1.7l-.9-.1c.2 0 4.1 2.9 6.7 3.5 1.2.3 2.4 0 3.4-.6 1.6-1.3 2.6-4 2.7-7.6a5 5 0 00-1.5-3.9c-2.6-2.5-7.7-2.3-8-2.3l.4.1-5.4-1.9.7 1.2z" fill="#5087c6"/></g><g><path d="M75.6 215.5s2.6-4.2 8-2.3c5.5 1.9 10 7.4 8.9 9.6-1.1 2.2-8 4.8-10.6 3.3a14.2 14.2 0 01-3.4-2.5s-2.5 3.6-5.3 2.6c-2.7-.9-7.4-5.7-7.4-5.7s-2.8 8.5-9.1 8.8c-6.4.3-10.3-.1-10.7-1.7-.5-1.5-.2-5-.2-5s-3.4-1.3-3.3-4.9c.2-3.6 1.4-9.1 5.3-9.5 3.9-.3 6.8 4 6.8 4s2 .4 4.2 0c2.2-.2 3.1 0 3.1 0s-.6-4.1 3.1-4.4c3.8-.3 7.6.8 10.6 7.7z" fill="#fff"/><path d="M76.4 216c.1 0 2.3-3.4 7-1.9 3.7 1.3 7 4.6 8 7 .3.6.3 1 .2 1.3-.4.7-2.3 2-4.7 2.7-2 .5-3.6.6-4.5.1a14.3 14.3 0 01-3.1-2.3l-.9-1-.7 1.1s-2.1 3-4.1 2.3a27 27 0 01-7-5.5l-1.2-1.2-.5 1.6s-2.7 7.9-8.3 8.1c-9.1.5-9.7-1-9.7-1-.3-1-.2-3.8-.1-4.7v-.8l-.7-.2s-2.7-1-2.6-3.9c.2-3 1.2-8.2 4.4-8.5 3.3-.2 5.9 3.5 6 3.5l.1.3h.4c.1.1 2.2.6 4.6.3 1.9-.3 2.8-.2 2.8-.2l1.3.2-.2-1.3s-.2-1.5.5-2.5c.4-.4 1-.7 1.7-.7 3.1-.3 6.7.4 9.5 7.1l.8 1.8 1-1.7zM65 206.9c-1.3 0-2.3.6-3 1.5a5.7 5.7 0 00-1 4l1.2-1.2c-.1 0-1.2-.1-3.4.2-2 .3-3.8-.2-3.8-.2l.6.4c-.2-.1-3.4-4.6-7.8-4.3-4.2.4-6 5.6-6.2 10.5a6 6 0 004 5.7l-.7-1c0 .4-.3 3.8.2 5.5.6 2 4.1 2.8 11.7 2.4 7-.3 10-9.1 10-9.5l-1.6.4c.5.5 4.9 5 7.8 6 3.5 1.1 6.3-2.9 6.4-3h-1.6c.1.1 1 1.1 3.7 2.7 1.8 1.1 4.6.5 6 0 2.4-.6 5.2-2 6-3.6.2-.6.4-1.5-.2-3-1-2.8-4.9-6.5-9.2-8a7.7 7.7 0 00-9.3 2.7l1.8.1c-3.4-8-8.2-8.6-11.6-8.3z" fill="#5087c6"/></g><g><path d="M76.5 241.6s1.6-3.9 6.4-4.5c4.8-.6 9.6 1.2 8.2 5.7-1.4 4.5-5 8.2-6 8.2h-5.5l-4.3-.3s-.7 10-3.5 11.7c-2.7 1.7-6.5.7-6.5.7s1.4 6.2-3 5.8c-4.6-.5-12-5.8-9.4-10.6 2.7-4.8 8.9-7 8.9-7s-3-6.5 2.4-7.9c5.5-1.4 12.3-1.8 12.3-1.8z" fill="#fff"/><path d="M77.4 242a7 7 0 015.6-4c2.9-.3 5.6.3 6.7 1.7.7.7.8 1.6.4 2.8-1.2 4.1-4.3 7.3-5 7.6h-5.5l-4.3-.4h-1v1c-.3 3.9-1.4 9.8-3 10.8-2.4 1.5-5.7.7-5.7.7l-1.6-.4.4 1.5c.1.8.4 3.2-.5 4.1 0 .2-.5.6-1.6.5-2.7-.3-7-2.7-8.4-5.5-.7-1.3-.7-2.5 0-3.6a17 17 0 018.2-6.5l1-.4-.4-1c-.4-.8-1.2-3.3-.4-4.9.4-.8 1.1-1.3 2.2-1.6 5.3-1.3 12-1.8 12-1.8h.7l.2-.7zm-13.4.5a5 5 0 00-3.5 2.6c-1.3 2.8.3 6.5.4 6.7l.5-1.4c-.2.1-6.6 2.4-9.3 7.4-1 1.7-1 3.6 0 5.5 1.9 3.5 6.7 6.2 10 6.6 1.8.1 2.8-.5 3.3-1.1 1.7-2 1-5.5 1-5.9l-1.3 1.2c.2 0 4.2 1 7.3-.9 3-1.9 3.8-10.7 3.9-12.4l-1.1 1 4.3.2h5.7c1.7 0 5.5-4.5 6.8-8.9.7-2.3 0-3.8-.7-4.7-1.6-2-4.9-2.8-8.6-2.3a9 9 0 00-7.1 5.1l.8-.6c-.2 0-7 .5-12.4 1.9z" fill="#5087c6"/></g><g><path d="M92.5 257s4.5-6.4 9.6-3.2c5.1 3.3 5.3 8 5.3 8s-1.4 6.6-5 7.2c-3.6.6-7.8.6-7.8.6s8 4.2 8.3 7.5c.3 3.2-1.4 11.8-11 10.4-9.7-1.4-16.5-1.4-15.4-6.7 1-5.3 5.3-6.2 5.3-6.2s-6.9-6.7 1.5-9.6c8.4-3 9.3-2.8 9.3-2.8s-3-2.3-.1-5.1z" fill="#fff"/><path d="M93.3 257.6c.2-.2 4-5.6 8.2-3 4.6 3 4.8 7 4.9 7.2v-.3c-.4 1.7-1.8 6.1-4.2 6.5-3.4.6-7.5.6-7.6.6l-.4 2c3 1.6 7.5 4.7 7.7 6.6a10 10 0 01-2.7 7.5c-1.7 1.6-4.1 2.2-7.2 1.8L88 286c-5.1-.7-9.2-1.2-10.3-2.9-.3-.3-.6-1-.3-2.1 1-4.5 4.3-5.4 4.5-5.4h-.2 2.4l-1.7-1.7c-.8-.8-2.7-3.2-2.3-5.1.3-1.2 1.4-2.2 3.5-2.9 7.5-2.6 8.8-2.7 8.9-2.7l2.8-.1-2.2-1.7s-1-.8-1-1.7c0-.6.3-1.3 1-1.9v-.1zm-.5 3.6c-1-.2-5.9 1.5-9.8 2.8-2.7 1-4.3 2.5-4.7 4.4-.8 3.4 2.6 6.8 2.8 7l.5-1.8c-.2 0-4.9 1.2-6 7-.4 1.4-.2 2.7.5 3.7 1.7 2.3 6 2.9 11.7 3.6l4 .6c3.6.5 6.6-.3 8.8-2.4a12 12 0 003.3-9.1c-.4-3.6-7.4-7.5-8.8-8.2l-.5 1.8c.2 0 4.4 0 8-.6 4-.7 5.6-7.3 5.7-8V261.6c0-.2-.2-5.2-5.7-8.7-4.7-3-9.2 1-11 3.5l.2-.1c-1.1 1-1.7 2.2-1.6 3.4.1 1.9 1.6 3 1.8 3.2l.8-1.8z" fill="#5087c6"/></g><g><path d="M92 270.1s3.5 3.2 5.5 3.7 6.1.5 6.1.5-3 3-4.9 3c-2 0-4 1.7-5.4 1.7H87s5.2 4 7 4c1.7 0 3.6-.8 3.6-.8l-1.2 4.5s17.7.2 26.6-11.9c8.9-12 11.6-35.7 11.6-35.7l6.9 9.9s-3.5-21.5-1-27.4c0 0 7-2.6 5-7.6-4.4-10.2 6-19.3 13.7-11.4 0 0-5.6 4.2-1.2 7.4 4.4 3.2 9.1-2 8.1-8.6-1-6.7-5.9-10.6-14.8-10.6-8.8 0-16 15-16.2 21.7-.3 6.6-5 19-8.2 23.6-3.2 4.7-8 10.4-8 10.4s2.1 1 6-1.5c4-2.5 5-6.6 5-6.6s-4 20.4-10.1 21.9c-6.2 1.5-13.3 2-13.3 2s-1.7 6.6-7.6 6.6h-6.5l-.5 1.2z" fill="#f2c008"/><path d="M91.4 270.9c.3.3 3.7 3.4 5.8 3.9 2.1.5 6.3.5 6.4.5a1 1 0 01-.7-1.7c-1 1.1-3.1 2.7-4.2 2.7-1.3 0-2.5.5-3.5 1-.7.4-1.5.7-2 .7h-6a1 1 0 00-.7 1.8c1.3 1 5.6 4.2 7.5 4.2 2 0 4-.8 4-.9a1 1 0 01-1.2-1.2l-1.3 4.5a1 1 0 001 1.2c.7 0 18.3.2 27.4-12.2 9-12.1 11.7-35.2 11.8-36.2a1 1 0 01-1.8.5l6.9 9.8a1 1 0 001.8-.7c-1-5.9-3-22.2-1-26.8a1 1 0 01-.7.5c.2 0 4.3-1.6 5.6-4.7.6-1.3.6-2.8 0-4.2-2.3-5.3-.2-9.9 2.8-11.8 3-2 6.5-1.4 9.3 1.5a1 1 0 01.1-1.5c-.3.3-3.3 2.6-3.3 5.4 0 1.4.7 2.6 2.1 3.6 2 1.4 4.1 1.6 6 .4 2.9-1.7 4.3-5.7 3.7-10-1-7.3-6.7-11.4-15.8-11.4-9.8 0-17 16.1-17.2 22.6a60 60 0 01-8 23.2c-3.1 4.5-8 10.2-8 10.2a1 1 0 00.3 1.6c.3.1 2.8 1.1 7.1-1.5 4.2-2.7 5.3-7.1 5.4-7.3a1 1 0 01-2-.4c-1.5 7.6-5.3 20.1-9.3 21.1-6 1.4-13.1 2-13.2 2a1 1 0 00-.9.7c0 .2-1.6 5.9-6.6 5.9h-6.5a1 1 0 00-.9.6l-.5 1.3c-.2.3 0 .8.2 1zm1.1-1H99c5.2 0 7.9-4.8 8.6-7.4a1 1 0 01-1 .8c.4 0 7.4-.6 13.5-2 6.6-1.6 10.5-20.6 10.9-22.8a1 1 0 00-2-.4s-1 3.9-4.5 6c-3.3 2.2-5.2 1.5-5.2 1.5.3 0 .5.3.6.7 0 .3 0 .6-.2.8 0 0 5-5.7 8.2-10.4 3.4-5 8-17.4 8.3-24.2.2-6 7-20.7 15.2-20.7 8.1 0 12.9 3.4 13.8 9.7.6 4-1 7-2.7 8-1.2.7-2.5.6-3.8-.3-.9-.6-1.3-1.3-1.3-2 0-1.5 1.8-3.2 2.5-3.8a1 1 0 00.1-1.5c-4.2-4.3-8.8-3.8-11.8-1.8-3.7 2.5-6.2 8.2-3.6 14.3.4 1 .4 1.8 0 2.7-1 2.3-4.3 3.6-4.4 3.6a1 1 0 00-.5.5c-2.6 6.1.7 27 .9 28a1 1 0 011.8-.8l-6.9-9.9a1 1 0 00-1.8.5c0 .2-2.8 23.5-11.4 35.2-8.5 11.6-25.6 11.5-25.8 11.5a1 1 0 011 1.2l1.2-4.4a1 1 0 00-1.3-1.2s-1.9.7-3.4.7c-.8 0-3.9-2-6.3-3.8a1 1 0 01-.6 1.8h6.2c.9 0 1.8-.4 2.7-.8a7 7 0 012.7-1c2.3 0 5.3-2.8 5.6-3.2a1 1 0 00-.7-1.7s-4 0-5.9-.4c-1.2-.3-3.7-2.3-5-3.5.3.3.4.7.3 1.1l.5-1.2a1 1 0 01-1 .6z" fill="#5087c6"/></g><g><path d="M411 272.8c6.1 0 16.2-.3 20.4-1.1a26.7 26.7 0 0017.2-10c4-5.7 8-16.6 8-16.6l-6.9 3.7c-3.7 2-4.5 6.3-4.5 6.3s-.9-3.2.8-6.3c1.7-3.1 6.9-3.4 9.8-11.2 2.8-7.7-1.2-28.8-1.2-28.8s-2.3 8.5-5.4 12.3c-3.2 3.7-4.3 12.3-4.3 12.3s-1.2-8 .8-12.3c2-4.3 6.6-13.2 7.2-23.2.6-10-7.4-29-7.4-29s0 7.5-2.6 12.7c-2.6 5.1-2 14.3-2.6 18.6a19 19 0 00.6 7.7s-.9-.6-2.6-4.3c-1.7-3.7.9-12-1.1-26s-11.8-16.3-13.8-17c-2-.5-4.8-6.8-4.8-6.8s-1.2 4.3.3 6.6c1.4 2.3.2 5.4.2 11.5 0 6 6.3 12.8 6.3 12.8s-8.8-7.4-9.7-10.3c-.9-2.8.3-2.8-1.1-12.3-1.5-9.4-15-14-17-16.9-2-2.8-4-7.4-4-7.4s-2.5 9.5-1.4 12.9c1.2 3.4 7.2 8.3 9.8 10.6 2.6 2.3 3.4 5.4 3.4 5.4s-13.7-9.7-16-13.2c-2.3-3.4 0-9.1-1.2-14.8-1.1-5.8-12.3-12.3-16.3-17.2-4-4.9-10.5-8.9-10.5-8.9s1.4 2 4.2 4.6c3 2.6 4.3 8.3 5.5 12.9 1.1 4.6 5.7 13.4 5.7 13.4l-9.7-6.8c-3.5-2.3-3.2-6.6-4.9-14.3-1.7-7.8-12.9-14-16.6-16-3.7-2-6-5.5-6-5.5s3.4 10.9 6.6 13.7c3.1 2.9 6.9 11.8 6.9 11.8s-2.3-5.2-9.5-11.2a45 45 0 00-18-9.1c-2.9-.6-8.3-7.8-8.3-7.8-2 4.9 2 12.6 4.9 16a64 64 0 008.5 7.8s-2.2-1.5-4.2-1.5l-16 .6s4.2 7.5 10.5 10.6c6.3 3.2 10.3.9 15.2.9 4.8 0 13.4 2.3 16.9 4.8 3.4 2.6 12 6.3 12 6.3l-4.3.3s-6.3-2-13.2-6.3c-6.8-4.3-14.9-2-14.9-2s3.5 5.7 4.6 7.2c1.2 1.4 7.5 5.1 12.6 6.3 5.2 1.1 18.3 0 23.8 2.5a71.6 71.6 0 0113.1 9.8s-4.3-.9-7.4-3.2a43.5 43.5 0 00-17.8-6c-8-1.1-11.1.9-11.1.9s9.1 7.7 10.3 8.3c1.1.5 8.3 4 11.7 4.8 3.4.9 13.5 2.3 17.7 2.6a20 20 0 018.7 4.2 40 40 0 00-15-1c-4.2.2-11.7-1-11.7-1s4.6 3.2 6.6 4.4c2 1.1 10.3 8.3 17.5 9.7 7.1 1.4 16.3 0 24.3 5.7s9.4 17.8 9.4 17.8-3.7-9-10.3-15c-6.6-6-24.6-4-24.6-4s2.6 2.6 4.9 7c2.3 4.2 9.4 8.8 14.8 11.4a51.1 51.1 0 0120 18.6c3.8 7.7-2.8 25.7-2.8 25.7s.6-14.6-2-24.6c-2.6-10-17.7-15.7-17.7-15.7s2.5 7.4 2.5 10.6c0 3.1 1.5 14.3 5.5 20.6 4 6.3 5.4 12.3 2.8 17.1-1.8 3.5-11.7 6.7-17.1 8.2-2.2-.5-3.7-2-4.6-3.3 4.2-3 12.7-10 13.2-16.8.6-8.9-2.6-18.9-2.6-18.9s-7.6 16.2-10.2 20.2a40 40 0 00-3.4 12.2c-2.4-.2-7.4-.7-11.8-1.8-6.2-1.5-10.1-22-10.1-22s1 4.2 4.9 6.7c4 2.5 6.2 1.5 6.2 1.5s-5-5.7-8.2-10.4c-3.2-4.6-7.9-17-8.1-23.6-.2-6.7-7.4-21.7-16.3-21.7-8.8 0-13.8 4-14.7 10.6-1 6.6 3.6 11.8 8 8.6 4.5-3.2-1.1-7.4-1.1-7.4 7.6-7.9 18 1.2 13.7 11.4-2 5 5 7.6 5 7.6 2.4 6-1 27.3-1 27.3l6.9-9.8s2.7 23.6 11.6 35.7c1 1.3 2 2.5 3 3.5 2 5.5 6.5 14.8 15.2 17 12.6 3.2 33-2.4 33-2.4s-12.8.5-18.3-2.5-9-6-12.6-6.8c-3.6-.9-10.6-8.1-13.4-9.2l10.8 4.4a30.2 30.2 0 0019.9 6.7c18 0 28.5-11.5 28.5-11.5s-23.8.2-32.4 1.3a43 43 0 01-14.2-1s4.1 0 6.1-.5c.6 0 1.3-.5 2-1z" fill="#f2c008"/><path d="M411.1 273.8c7-.1 16.4-.4 20.5-1.1a27.5 27.5 0 0017.8-10.5 93 93 0 008.2-16.8 1 1 0 00-1.5-1.2l-6.8 3.7a11 11 0 00-5.1 7 1 1 0 012 0s-.8-2.9.7-5.6c.5-1 1.5-1.7 2.7-2.5a17 17 0 007.1-8.8c3-7.9-1-28.6-1.1-29.4a1 1 0 00-2-.1s-2.2 8.4-5.2 12a31 31 0 00-4.5 12.7 1 1 0 012 0s-1.1-7.8.8-11.7l.5-1.2c2.1-4.5 6.2-13 6.7-22.4.6-10-7.2-28.5-7.5-29.3a1 1 0 00-2 .4s0 7.3-2.4 12.1c-2 3.9-2.2 9.7-2.4 14.3 0 1.8-.1 3.4-.3 4.6-.6 4.5.6 8 .6 8.2a1 1 0 011.5-1.1s-.7-.7-2.2-4c-.7-1.4-.6-4-.4-7.6.2-4.4.5-10.4-.6-18-1-6.6-4.2-14.9-14.3-17.7h-.2c-1-.3-3-3.5-4.2-6.4a1 1 0 00-1.9.2c-.1.5-1.2 4.8.4 7.3.8 1.2.6 3 .4 5.5-.1 1.4-.3 3.3-.3 5.4 0 6.4 6.3 13.3 6.6 13.6a1 1 0 011.4-1.4c-3.4-2.8-8.9-8-9.4-9.9a8 8 0 01-.3-2.8c0-1.5 0-4-.8-9.3-1.1-7-8.3-11.5-13-14.4-1.9-1.2-3.6-2.2-4-3a52.1 52.1 0 01-4-7.3 1 1 0 00-1.9.2c-.3 1-2.6 9.9-1.4 13.5 1 3.3 5.8 7.3 8.9 10l1.1 1c2.3 2 3.1 5 3.1 5a1 1 0 011.6-1.1c-3.8-2.7-14-10.2-15.8-13-1-1.6-1-4-.7-6.9 0-2.3.3-5-.3-7.5-.8-4-5.6-8-10.3-12a51 51 0 01-6.2-5.6c-4-5-10.5-9-10.8-9.1a1 1 0 00-1.4 1.4c.1.1 1.6 2.1 4.5 4.8 2.6 2.3 4 7.9 5.1 12.3A90 90 0 00376 144a1 1 0 011.5-1.3l-9.8-6.9c-2.2-1.4-2.6-4-3.4-8.3l-1-5.4c-1.6-7-10.2-12.9-17.1-16.6-3.5-1.9-5.6-5.1-5.6-5.1a1 1 0 00-1.8.8c.1.5 3.5 11.2 6.8 14.2 3 2.7 6.6 11.3 6.6 11.4a1 1 0 011.9-.8 45.6 45.6 0 00-28.2-20.9c-1.8-.4-5.7-4.7-7.7-7.4a1 1 0 00-1.7.2c-2.3 5.6 2.4 14 5 17a64 64 0 008.7 8 1 1 0 011.2-1.7c-.1 0-2.6-1.6-4.8-1.6l-16.1.6a1 1 0 00-.8 1.5 31 31 0 0011 11c4.7 2.4 8.2 1.8 11.6 1.3 1.3-.2 2.6-.3 4-.3 4.5 0 13 2.1 16.3 4.6a83.7 83.7 0 0012.2 6.4 1 1 0 01.3-1.9l-4.3.3h.4s-6.3-2-13-6.1a21.1 21.1 0 00-15.6-2.2 1 1 0 00-.6 1.5c.1.3 3.5 5.8 4.6 7.3a32 32 0 0013.2 6.6c2.1.5 5.4.6 9 .7 5.3.2 11.4.3 14.5 1.8 5.3 2.5 12.9 9.5 13 9.6a1 1 0 01.8-1.7s-4.1-.9-7-3a45 45 0 00-18.2-6.2c-8.3-1.2-11.7 1-11.9 1a1 1 0 000 1.6 182 182 0 0010.4 8.4c.1 0 8.1 4 12 5a156 156 0 0017.9 2.6c1.9.1 4.8 1.5 8 4a1 1 0 011-1.8 41.3 41.3 0 00-15.3-1c-4.1.2-11.4-.9-11.5-1a1 1 0 00-.7 1.9c.1.1 4.6 3.2 6.6 4.3l2.1 1.5c3.5 2.5 9.9 7.2 15.7 8.4 2.1.4 4.4.6 6.8.8 5.7.4 11.7.9 17 4.7 7.6 5.4 9.1 17 9.1 17a1 1 0 012-.4c-.2-.4-4-9.2-10.6-15.3-6.9-6.2-24.6-4.3-25.4-4.2a1 1 0 00-.6 1.7s2.5 2.5 4.7 6.6c2.4 4.6 9.8 9.3 15.3 11.9 5 2.4 15.9 10.5 19.6 18.1 3.5 7.3-2.9 24.8-3 25a1 1 0 012 .4c0-.6.6-14.9-2-25-2.7-10.3-17.7-16.1-18.4-16.4a1 1 0 00-1.3 1.3s2.5 7.3 2.5 10.3c0 3.1 1.4 14.5 5.6 21.1 4.2 6.5 5.1 12 2.9 16.2-1.2 2.2-7.4 5-16.6 7.7h.5c-1.6-.4-3-1.4-4-3 .3.5.2 1-.3 1.4 5-3.5 13.2-10.5 13.7-17.5.6-9-2.5-18.9-2.6-19.3a1 1 0 00-1.9-.1c0 .1-7.6 16.1-10.1 20a39.8 39.8 0 00-3.6 12.7c0-.6.6-1 1-.9-2.4-.2-7.2-.7-11.6-1.8-4-1-7.9-13.5-9.3-21.1a1 1 0 01-2 .4c0 .2 1.1 4.6 5.4 7.3 4.2 2.6 6.8 1.6 7 1.5a1 1 0 00.4-1.6s-5-5.7-8-10.2a60 60 0 01-8-23.2c-.2-6.5-7.4-22.6-17.3-22.6-9 0-14.6 4-15.7 11.4-.7 4.3.8 8.3 3.6 10 2 1.2 4.1 1 6-.4 1.5-1 2.2-2.2 2.2-3.6 0-2.8-3-5.1-3.4-5.4a1 1 0 01.2 1.5c2.8-3 6.3-3.5 9.3-1.5 3 2 5 6.5 2.8 11.8-.6 1.4-.6 2.9 0 4.2 1.3 3.1 5.4 4.7 5.5 4.7a1 1 0 01-.5-.5c1.9 4.6-.1 20.9-1 26.8a1 1 0 001.7.7l7-9.8a1 1 0 01-1.9-.5c.1 1 2.8 24 11.8 36.2a29 29 0 002.9 3.3c2 5.5 6.7 15.2 15.9 17.5 12.6 3.3 32.6-2 33.5-2.3a1 1 0 00-.3-2 49 49 0 01-17.8-2.4l-5.4-3.2c-2.7-1.7-5-3.1-7.4-3.7-1.9-.4-5.1-3-7.7-5.2-2.3-1.8-4.3-3.4-5.6-4a1 1 0 00-.8 2l10.9 4.4a41.2 41.2 0 0049.5-5.1 1 1 0 00-.8-1.7c-1 0-24 .2-32.5 1.3a42.3 42.3 0 01-13.4-.6c.3.2.3.7.2 1a1 1 0 01-1 .6c.2 0 4.4 0 6.4-.5.7-.2 1.5-.5 2.4-1.2-.2.2-.3.3-.5.3zm-2.3-1c-1.9.5-6 .5-6 .5a1 1 0 00-.7 1.7l.6.3c2.9.7 8.6 1.7 14.6 1 8.3-1.1 32-1.3 32.2-1.3a1 1 0 01-.7-1.7 40 40 0 01-27.8 11.2 29.3 29.3 0 01-19.5-6.6l-10.8-4.4c.5.2.8.8.6 1.3a1 1 0 01-1.3.5c1 .4 3 2 5 3.7 3 2.4 6.2 5 8.5 5.5 2.1.5 4.2 1.8 6.9 3.5l5.4 3.3c5.7 3 18.3 2.6 18.8 2.6a1 1 0 01-.3-2c-.2.1-20.3 5.5-32.4 2.4-8.3-2.1-12.7-11.1-14.5-16.3a27 27 0 01-3.2-3.8c-8.6-11.7-11.4-35-11.4-35.2a1 1 0 00-1.8-.5l-7 9.9a1 1 0 011.9.7c.1-.9 3.5-21.8 1-27.9a1 1 0 00-.7-.5s-3.4-1.4-4.4-3.7c-.3-.8-.3-1.7 0-2.7 2.7-6 .2-11.7-3.5-14.2-3-2-7.7-2.5-11.9 1.8a1 1 0 00.2 1.5c.7.5 2.5 2.3 2.5 3.8 0 .7-.4 1.4-1.3 2-1.3 1-2.6 1-3.8.3-1.8-1-3.3-4-2.8-8 1-6.3 5.8-9.7 13.8-9.7 8.3 0 15 14.7 15.3 20.7.3 6.8 4.9 19.1 8.3 24.2 3.2 4.7 8.2 10.4 8.2 10.4a1 1 0 01.4-1.5s-2 .7-5.3-1.4a10.9 10.9 0 01-4.5-6.2 1 1 0 00-1.9.5c.4 2.2 4.3 21.2 10.8 22.7a91 91 0 0012 2c.5 0 1-.4 1-1 1-5.6 2.1-9.8 3.4-11.7 2.5-4.1 10-19.7 10.2-20.4a1 1 0 01-1.8-.1c0 .1 3.1 10 2.5 18.6-.5 6.4-9.1 13.3-12.8 16a1 1 0 00-.3 1.3c1.4 2 3.2 3.3 5.2 3.8h.5c7.1-2 16-5.1 17.8-8.7 2.6-5 1.7-11-2.9-18.2a48 48 0 01-5.2-20c0-3.3-2.6-10.6-2.7-11a1 1 0 01-1.3 1.3c.2 0 14.7 5.7 17.1 15 2.6 9.8 2 24.2 2 24.4a1 1 0 002 .4c.2-.8 6.6-18.5 2.8-26.6a51.5 51.5 0 00-20.5-19c-5.7-2.7-12.4-7.2-14.4-11-2.4-4.4-5-7-5-7.1a1 1 0 01-.7 1.7c.2 0 17.7-2 23.8 3.7 6.4 5.8 10 14.5 10 14.5a1 1 0 002-.5c0-.5-1.6-12.5-9.8-18.4-6-4.2-12.4-4.7-18.1-5.1-2.4-.2-4.6-.4-6.6-.8-5.4-1-11.6-5.6-14.9-8l-2.3-1.6c-2-1.1-6.5-4.2-6.5-4.2a1 1 0 01-.7 1.8c.3 0 7.6 1.1 12 .8a40 40 0 0114.4 1 1 1 0 001-1.7 20.5 20.5 0 00-9.2-4.4c-4.4-.3-14.3-1.7-17.5-2.6a85 85 0 01-11.6-4.7c-.7-.4-5.7-4.5-10-8.2a1 1 0 01-.2 1.6s3-1.8 10.5-.7a42 42 0 0117.3 5.8c3.3 2.4 7.6 3.3 7.8 3.3a1 1 0 00.9-1.7c-.3-.3-8-7.3-13.4-9.9-3.5-1.6-9.8-1.8-15.4-2-3.4-.1-6.7-.2-8.6-.6-5-1.1-11-4.8-12-6-1-1.3-4.5-7-4.5-7a1 1 0 01-.6 1.5c.1 0 7.7-2.1 14 1.9a65 65 0 0013.8 6.4l4.3-.3a1 1 0 00.4-1.9c-.1 0-8.5-3.7-11.8-6.2-3.8-2.8-12.7-5-17.5-5-1.5 0-3 .2-4.3.4-3.2.4-6.3.9-10.4-1.2-6-3-10.2-10.1-10.2-10.2a1 1 0 01-.8 1.5l16-.6c1.6 0 3.7 1.3 3.7 1.3a1 1 0 001.1-1.6s-5.6-4.3-8.4-7.6c-2.9-3.5-6.4-10.7-4.7-15a1 1 0 01-1.7.2c1 1.3 5.8 7.5 8.9 8.1 3.1.7 10.9 3.3 17.6 9 6.8 5.7 9.1 10.7 9.1 10.8l.3.3a1 1 0 001.6-1.1c-.2-.4-3.9-9.1-7.1-12.1a43.7 43.7 0 01-6.3-13.3 1 1 0 01-1.8.9c0 .1 2.5 3.6 6.3 5.7 9.3 5 15 10.5 16.1 15.4.5 2 .8 3.7 1 5.2.9 4.7 1.4 7.8 4.3 9.7a400 400 0 019.7 6.8 1 1 0 001.5-1.2c0-.1-4.5-8.8-5.7-13.3-1.1-4.7-2.6-10.6-5.7-13.3a31.3 31.3 0 01-4.1-4.4 1 1 0 01-1.4 1.4c.1 0 6.5 4 10.4 8.6 1.5 1.9 3.9 3.9 6.4 6 4.2 3.5 9 7.5 9.7 10.8.4 2.3.3 4.7.1 7-.1 3-.3 6 1.2 8.2 2.3 3.5 15.7 13 16.2 13.4a1 1 0 001.6-1c0-.2-1-3.5-3.8-6l-1.1-1a32 32 0 01-8.3-9.1c-.9-2.6.7-9.8 1.4-12.3a1 1 0 01-1.8.1c0 .2 2 4.7 4 7.6.8 1 2.4 2 4.7 3.5 4.7 2.9 11.1 6.9 12 13 .9 5.2.9 7.5.8 9 0 1.2 0 2 .4 3.4 1 3 9.2 10 10 10.8a1 1 0 001.5-1.5s-6-6.6-6-12.2c0-2 0-3.8.2-5.3.2-2.8.4-4.9-.7-6.6-1-1.6-.5-4.7-.2-5.8a1 1 0 01-1.8.1c.7 1.6 3.2 6.8 5.5 7.5h.2c7.2 2 11.5 7.4 12.8 16 1 7.5.8 13.4.6 17.7-.2 3.9-.3 6.7.6 8.6 1.7 3.7 2.7 4.6 3 4.7a1 1 0 001.4-1.1s-1-3.3-.5-7.3c.2-1.3.2-3 .3-4.8.2-4.5.4-10 2.2-13.5a34 34 0 002.7-13 1 1 0 01-2 .4c.1.2 8 18.8 7.4 28.4-.5 9-4.4 17.3-6.5 21.7l-.6 1.1c-2 4.5-1 12.6-1 12.9a1 1 0 002 0c0-.1 1.2-8.4 4.1-11.8a41.5 41.5 0 005.7-12.7 1 1 0 01-2 0c0 .1 4 21 1.2 28.3-1.7 4.6-4.2 6.3-6.3 7.9a10 10 0 00-3.4 3.1c-1.8 3.5-1 7-.9 7a1 1 0 002 0s.8-3.9 4-5.6l6.9-3.7a1 1 0 01-1.4-1.3c0 .1-4 10.8-8 16.4a25.5 25.5 0 01-16.4 9.6 176 176 0 01-20.8 1.3l-1.8.9z" fill="#5087c6"/><g><path d="M350.3 131s6.9 1.8 11.5 7a1 1 0 101.4-1.4 27 27 0 00-12.5-7.5 1 1 0 00-1.2.8c-.1.5.2 1 .8 1.2zM378.8 150c1 .2 1.7 1.2 2.4 2.2l1.2 1.5c1.4 1.6 3.3 2.8 5.3 3.4a1 1 0 10.6-2 10.3 10.3 0 01-5.5-4c-.8-1.2-1.8-2.6-3.4-3a1 1 0 00-.6 2zM409.1 176.7c2 3 5.4 6.8 8.4 8.3a1 1 0 001-1.7 25.2 25.2 0 01-7.7-7.7 1 1 0 10-1.7 1zM429.4 194.9l1 2c1.6 2.6 3 5 2.4 8a1 1 0 002 .4c.6-3.8-1-6.7-2.6-9.5l-1-1.9a1 1 0 10-1.9 1zM437.4 225.2a21.1 21.1 0 013.4 12.6c0 1 .2 3.2-.2 3.6a1 1 0 001.1 1.7c1.4-1 1.2-3.3 1.1-5.4v-1.3a23 23 0 00-3.6-12 1 1 0 10-1.8.8zM437.8 261.4a17 17 0 01-10.3 3 1 1 0 01.9 1.4c.8-2 4.4-6 6.2-7.3a1 1 0 00-1.1-1.7 27.6 27.6 0 00-7 8.1 1 1 0 001 1.5c4.5.2 7.4-1 11.3-3.3.5-.3.6-.9.4-1.4a1 1 0 00-1.4-.3z" fill="#5087c6"/></g></g></g><g><path d="M189.7 386.8h-17v-7.4h17v7.4zm4-7.4a4 4 0 00-4-4h-17a4 4 0 00-4 4v7.4a4 4 0 004 4h17a4 4 0 004-4v-7.4zM225.7 386.8h-17v-7.4h17v7.4zm4-7.4a4 4 0 00-4-4h-17a4 4 0 00-4 4v7.4a4 4 0 004 4h17a4 4 0 004-4v-7.4z" fill="#ed1a3a"/><path d="M189 385h20a2 2 0 000-4h-20a2 2 0 000 4zM261.7 386.8h-17v-7.4h17v7.4zm4-7.4a4 4 0 00-4-4h-17a4 4 0 00-4 4v7.4a4 4 0 004 4h17a4 4 0 004-4v-7.4z" fill="#ed1a3a"/><path d="M225 385h20a2 2 0 000-4h-20a2 2 0 000 4zM297.7 386.8h-17v-7.4h17v7.4zm4-7.4a4 4 0 00-4-4h-17a4 4 0 00-4 4v7.4a4 4 0 004 4h17a4 4 0 004-4v-7.4z" fill="#ed1a3a"/><path d="M261 385h20a2 2 0 000-4h-20a2 2 0 000 4zM333.7 386.8h-17v-7.4h17v7.4zm4-7.4a4 4 0 00-4-4h-17a4 4 0 00-4 4v7.4a4 4 0 004 4h17a4 4 0 004-4v-7.4z" fill="#ed1a3a"/><path d="M297 385h20a2 2 0 000-4h-20a2 2 0 000 4z" fill="#ed1a3a"/></g><g><path d="M95.8 386.8H78.7v-7.4h17v7.4zm4-7.4a4 4 0 00-4.1-4h-17a4 4 0 00-4 4v7.4a4 4 0 004 4h17a4 4 0 004-4v-7.4zM132.3 386.8h-17.1v-7.4h17v7.4zm4-7.4a4 4 0 00-4.1-4h-17a4 4 0 00-4 4v7.4a4 4 0 004 4h17a4 4 0 004-4v-7.4z" fill="#ed1a3a"/><path d="M95.5 385h20a2 2 0 000-4h-20a2 2 0 000 4z" fill="#ed1a3a"/><g><path d="M79 381H66l1.4 4H79a2 2 0 000-4z" fill="#ed1a3a"/></g><g><path d="M410.6 379.4h17v7.4h-17v-7.4zm-4 7.4a4 4 0 004 4h17a4 4 0 004-4v-7.4a4 4 0 00-4-4h-17a4 4 0 00-4 4v7.4zM374 379.4h17.1v7.4h-17v-7.4zm-4 7.4a4 4 0 004.1 4h17a4 4 0 004-4v-7.4a4 4 0 00-4-4h-17a4 4 0 00-4 4v7.4z" fill="#ed1a3a"/><path d="M410.9 385h-20a2 2 0 010-4h20a2 2 0 010 4z" fill="#ed1a3a"/><g><path d="M427.4 381h12.9l-1.3 4h-11.6a2 2 0 110-4z" fill="#ed1a3a"/></g></g></g><g><path d="M150.3 472.8a25 25 0 00-8-7.7 35 35 0 00-13.5-.5c-1-2.3-3.3-7.5-6.8-9.9-3.1-2-7.5-1.3-10.1-.6 0-2.1-.4-5.4-2-8.4-2-3.6-6.6-4.4-9.4-4.6.6-2 1.1-4.8.4-7.7-1-3.6-5.2-5.6-7.9-6.4 1.4-2.1 3-5.7 1.7-8.8-1.2-2.9-4.4-5.2-6.4-6.4 1.5-1.7 3.7-4.8 3.6-8-.3-4.3-4.9-6.5-6.8-7.3v-.2l-.1-.4H82v.5c0 1.7 1.8 41.1 27.3 61 22.7 17.7 41.3 18.6 43.6 18.7v-3c-.4 0-1.4 0-2.7-.3zm-65-72.9c1.6.8 3.5 2.1 3.6 4 0 1.8-1 3.7-2.2 5.2-.7-3.8-1.1-7-1.3-9.1zm5.6 24.8c-1.1-3.3-2-6.5-2.8-9.4 1.5 1 3.2 2.5 3.8 4 .7 1.6 0 3.7-1 5.4zm7 14.8a77 77 0 01-4.8-9.3c2 .8 4.4 2.1 4.9 4 .5 1.8.2 3.8-.2 5.3zm3 4.6c2.2.2 5.1 1 6.3 3 1 2 1.5 4.2 1.6 6-3-2.8-5.6-5.8-8-9zm12.6 12.7c2.2-.6 5-.8 6.9.4 2.2 1.5 4 4.9 5 7.1-3.7-2-7.7-4.5-11.9-7.5zm18 10.5c3.4-.2 7.7-.3 9.5.5 1.6.7 3.4 2.6 4.9 4.3-3.7-.8-8.6-2.2-14.3-4.8zM141.4 397.8l23.8 25.1s-12.3 2.1-19.9-5.2c-7-6.9-3.9-19.9-3.9-19.9zM135.6 406.3l-18.4 7.4c.6 2.4 1.5 5 2.6 7.7l16.5-10.7-.7-4.4zm2 8.5L123 427.7c1.2 1.8 2.5 3.6 4.1 5.2l13-13c-1-1.4-2-3.2-2.7-5.1zm-5.3 22.6c2.8 2 6 3.5 9 4.7L147 425c-1.3-.7-2.5-1.5-3.8-2.4l-10.8 14.8zm33.1-9.7s-2 .5-5 .5l1.2 17.6c5 .2 8.4-.2 8.4-.2l-4.6-17.9zM148 444.1c2.4.6 4.8 1 7 1.2l1.5-17.4c-1.8-.2-3.8-.6-5.8-1.3l-2.8 17.5zm-12.6-45.8l-20.1 1.8s0 2.7.6 6.8l19.5-4.5v-4.1z" fill="#5087c6"/><g><path d="M174.5 457.3a62.7 62.7 0 00-2.8 6.5c1.9-1.6 4.1-3.4 6.7-5.1l-3.9-1.5zm-.9 10c2.3.4 5.8 1 9.4 1.3l-.8-6.6-8.6 5.2zm30-17.4c-1.2-2-5.6-7.9-15.2-6.2-2.6.4-5 1.8-7 3.7 3.5 1 9 3 11.4 5 4.3-1.2 8-2 10.8-2.4zm1.6 6l-.4-2c-2.7.4-6.1 1-9.5 2 1.6 3.6 1.9 8.3 1.6 10v.3c5.2-2.6 9-6.8 8.3-10.2zm-17.7-1.9l1-.3a64.7 64.7 0 00-9.1-4.1 36.9 36.9 0 00-3.8 5.5l6.1 1.5c1.9-1 3.8-2 5.8-2.6zm.1 5l-2.7 1.4c.3 1.8.5 3.7.5 4.7v3.6a24.3 24.3 0 007.8-1c.1-2.6.3-7.7-1.2-10.7-1.5.5-3 1.2-4.4 2z" fill="#5087c6"/></g><g><path d="M353.4 473v3c2.3 0 20.9-1 43.5-18.6 25.5-19.9 27.3-59.3 27.4-61v-.5h-3V396.5c-2 .8-6.6 3-6.8 7.2-.2 3.3 2 6.4 3.5 8.1-2 1.3-5.2 3.5-6.4 6.4-1.2 3.1.4 6.7 1.7 8.8-2.7.8-6.9 2.8-7.8 6.4-.8 2.9-.2 5.8.4 7.7-2.8.2-7.4 1-9.4 4.6-1.6 3-2 6.3-2 8.4-2.7-.7-7-1.5-10.2.6a22.6 22.6 0 00-6.7 9.9 35 35 0 00-13.5.5 25 25 0 00-8 7.7 41 41 0 01-2.8.3zm66.2-64c-1.1-1.4-2.2-3.3-2.1-5.1 0-1.9 2-3.2 3.5-4-.3 2.3-.7 5.4-1.4 9.1zm-5.2 10.3c.7-1.5 2.3-3 3.8-4-.7 3-1.6 6.1-2.8 9.4-.9-1.7-1.6-3.8-1-5.4zm-6 14.8c.4-1.8 2.8-3.1 4.9-4a77 77 0 01-4.8 9.4c-.4-1.5-.6-3.5-.1-5.4zm-11 19c.2-1.7.6-4 1.7-6 1.2-2 4.1-2.8 6.4-3-2.3 3.2-5 6.2-8 9zM381 464.2c1-2.2 2.8-5.6 5-7 1.9-1.3 4.7-1 6.9-.5-4.1 3-8.1 5.5-11.9 7.5zm-20.5 7.8c1.5-1.7 3.3-3.6 4.9-4.3 1.9-.8 6.1-.7 9.5-.5-5.8 2.6-10.7 4-14.4 4.8zM364.9 397.8L341 423s12.4 2.1 20-5.2c7-6.9 3.8-19.9 3.8-19.9zM370 410.6l16.5 10.8c1.2-2.6 2-5.3 2.7-7.7l-18.5-7.4-.7 4.4zm-4 9.3l13.1 13c1.6-1.6 3-3.4 4.1-5.2l-14.4-13a17 17 0 01-2.8 5.2zm-2.8 2.7c-1.2 1-2.5 1.7-3.7 2.4l5.5 17.1c3.1-1.2 6.2-2.7 9-4.7l-10.8-14.8zm-26.9 23s3.4.4 8.5.2l1.2-17.6c-3 0-5-.5-5-.5l-4.7 17.8zm19.4-19c-2 .7-4 1.1-5.8 1.3l1.5 17.4c2.3-.2 4.7-.6 7-1.2l-2.7-17.5zm15.3-24.2l19.6 4.5c.5-4 .6-6.8.6-6.8l-20.1-1.8v4z" fill="#5087c6"/><g><path d="M328 458.6c2.5 1.7 4.8 3.6 6.6 5.2-.6-1.8-1.6-4-2.8-6.6l-3.8 1.5zm-4 3.4l-.6 6.6c3.5-.3 7-.9 9.3-1.4l-8.6-5.2zm-10.5-9.6c2.5-2 7.9-4 11.4-5-2-2-4.3-3.3-7-3.7-9.6-1.7-14 4.2-15.2 6.3 2.8.4 6.5 1.2 10.8 2.4zm-4 13.8v-.3c-.4-1.7 0-6.4 1.5-10-3.4-1-6.8-1.6-9.5-2 0 .7-.2 1.3-.4 2-.6 3.5 3 7.7 8.4 10.3zm15.1-9.6l6-1.5c-1-1.9-2.2-3.8-3.6-5.5-2.4.9-6.3 2.5-9.1 4.1l1 .3c1.9.7 3.8 1.6 5.7 2.6zm-10.3.4c-1.5 3-1.3 8.2-1.1 10.7l1.1.4c2 .5 4.2.6 6.6.6v-3.6c0-1 .3-3 .5-4.7l-2.7-1.5c-1.4-.7-2.8-1.4-4.4-2z" fill="#5087c6"/></g></g></g><g><path d="M253 476s-6.6-9.8-5.7-12.6c.8-2.7 4.8-1 4.8-1l1 5 1.2-5s4-1.7 4.8 1c.8 2.8-5.7 12.6-5.7 12.6h-.5zM248.1 456.8s-4.3-4-4.6-8.8a35.3 35.3 0 00-6.2-16.1c-2.4-2.2-6-4-6-4s3 5 1.7 7.8c-1.4 2.7.9 12.5 4.7 16.2 3.7 3.8 7.8 5.2 10.4 4.9zM236.8 455.7s-2.4-.2-6.4-5.3c-3.9-5.1-3.2-11.1-10.4-12.9-7.2-1.7-12.9-.5-12.9-.5s10.3 2.8 11.9 8.6c1.5 5.8 6.3 10.5 9.4 11 3 .5 8.4-.9 8.4-.9zM241 461.4s-9.9 7.2-14.2 8.2c-4.2 1-7.7-.5-12.3 1-4.6 1.6-7 2-7 2s9.7-11.9 14.2-14c4.5-2 17.7 1.6 19.4 2.8zM243.3 462.2l2.6.2s-.9 3.3-.4 4.6c.5 1.4 1.2 1.8 1.2 1.8s-4 .8-5.3 1.5c-1.4.7-2.9 2.7-2.9 2.7s-.3-3-1.2-3.9l-1.7-1.5s7.2-4.3 7.7-5.4z" fill="#ed1a3a"/><path d="M223.6 430.3s4.1 4.8 5.3 5.9l2 1.7s0 4.1 1.4 7.7c1.4 3.6 5.5 8 5.5 8s-5.8-1.8-9.4-9.9l-2.2-5-3.8-2.9s2-3 1.2-5.5zM206.8 440.5s9.6 1.8 10.6 4.6c1 2.7 2.6 8 5.2 9.8l2.5 1.7s-5.5-1.4-7.2-3.6c-1.7-2.3-4.6-7.7-6.1-9l-5-3.5zM242.4 436.3s1.4-3.2 1.4-4.6c0-1.4-.5-3-.5-3s4.3 4 4.5 5.8l.1 2.4-3 6.5s-1.2-5.4-2.4-7zM253.8 458s7.2-2.8 6.7-10c-.6-7.2-7-17.5-7-17.5h-.6s-6.5 10.3-7 17.5c-.5 7.2 6.7 10 6.7 10h1.2z" fill="#ed1a3a"/><path d="M258.2 456.8s4.3-4 4.7-8.8c.3-4.8 3.7-13.9 6.1-16.1 2.4-2.2 6-4 6-4s-3 5-1.7 7.8c1.4 2.7-.8 12.5-4.6 16.2-3.8 3.8-7.9 5.2-10.5 4.9zM269.5 455.7s2.4-.2 6.4-5.3 3.2-11.1 10.4-12.9c7.2-1.7 13-.5 13-.5s-10.4 2.8-12 8.6c-1.5 5.8-6.3 10.5-9.4 11-3 .5-8.4-.9-8.4-.9zM265.3 461.4s9.9 7.2 14.2 8.2c4.3 1 7.7-.5 12.3 1 4.7 1.6 7 2 7 2s-9.7-11.9-14.2-14c-4.4-2-17.6 1.6-19.3 2.8zM263 462.2l-2.5.2s.8 3.3.3 4.6c-.5 1.4-1.2 1.8-1.2 1.8s4 .8 5.3 1.5c1.4.7 3 2.7 3 2.7s.3-3 1.1-3.9l1.7-1.5s-7.2-4.3-7.7-5.4z" fill="#ed1a3a"/><path d="M282.8 430.3s-4.2 4.8-5.4 5.9l-2 1.7s0 4.1-1.4 7.7c-1.4 3.6-5.5 8-5.5 8s5.8-1.8 9.4-9.9l2.3-5 3.8-2.9s-2.1-3-1.2-5.5zM299.6 440.5s-9.7 1.8-10.7 4.6c-1 2.7-2.6 8-5.1 9.8l-2.6 1.7s5.5-1.4 7.2-3.6c1.7-2.3 4.6-7.7 6.2-9l5-3.5zM263.9 436.3s-1.4-3.2-1.4-4.6c0-1.4.5-3 .5-3s-4.3 4-4.4 5.8l-.2 2.4 3 6.5s1.3-5.4 2.5-7z" fill="#ed1a3a"/></g><g><path d="M255.1 426.5c46.4 0 61.5 15 61.5 15s19-12.1 37.6-30.2c18.5-18 25.3-37 25.3-37h-34.1s-11.2 18-21 26.3-14.1 10.7-14.1 10.7-18.6-12.2-53.2-12.2h-7.8c-34.7 0-53.2 12.2-53.2 12.2s-4.4-2.4-14.2-10.7c-9.7-8.3-21-26.3-21-26.3h-34.1s6.8 19 25.4 37c18.5 18 37.5 30.3 37.5 30.3s15.2-15.1 61.5-15.1h3.9z" fill="#fff"/><path d="M255.1 427.5c45.4 0 60.6 14.6 60.8 14.8.3.3.8.4 1.2.1.2-.1 19.4-12.4 37.8-30.3 18.5-18 25.5-37.3 25.6-37.5a1 1 0 00-1-1.3h-34.1a1 1 0 00-.9.4c0 .2-11.2 18-20.7 26.1-9.6 8.1-14 10.6-14 10.7a1 1 0 011 0c-.8-.5-19.2-12.4-53.7-12.4h-7.8c-34.6 0-53 11.9-53.8 12.4a1 1 0 011 0s-4.4-2.6-14-10.7c-9.4-8-20.6-25.9-20.7-26a1 1 0 00-.8-.5h-34.2a1 1 0 00-1 1.3c.1.2 7.2 19.4 25.7 37.5 18.4 17.9 37.5 30.2 37.7 30.3.4.3 1 .2 1.3-.1.1-.2 15.4-14.8 60.7-14.8h4zm-3.9-2c-46.2 0-61.5 14.7-62.2 15.4a1 1 0 011.3-.2c-.2 0-19.2-12.3-37.4-30a109.6 109.6 0 01-25.2-36.8 1 1 0 01-.9 1.4h34.1a1 1 0 01-.8-.5c.5.7 11.4 18.3 21.2 26.6 9.7 8.2 14.1 10.7 14.3 10.8.3.2.7.2 1 0 .2-.1 18.8-12 52.7-12h7.8c33.9 0 52.4 11.9 52.6 12 .3.2.7.2 1 0 .2 0 4.6-2.6 14.3-10.8 9.8-8.3 20.8-25.9 21.2-26.6a1 1 0 01-.8.5h34.1a1 1 0 01-1-1.4c0 .2-6.9 19-25 36.7a269.6 269.6 0 01-37.4 30.1 1 1 0 011.2.2c-.6-.7-16-15.4-62.2-15.4h-3.9z" fill="#5087c6"/></g><g><path d="M99.2 479.6L3.2 184l-.6 1.7L254 3.1h-1.7l251.4 182.6-.6-1.6-96 295.5 1.4-1H97.8l1.4 1zm310.8 1L506 185l.3-1-.8-.7L254 .6l-.8-.6-1 .6L1 183.3l-1 .6.4 1 96 295.6.4 1h313l.3-1z" fill="#0054a6"/></g><g><path d="M145 395l11.4-11.5 4.5 4.5c1 .9 1.4 1.9 1.3 3 0 1-.5 2-1.3 2.7-.5.5-1 .8-1.5 1-.8.3-1.5.4-2.3.1.3.8.4 1.4.4 2 0 .9-.5 1.8-1.3 2.7-1 1-2.1 1.4-3.3 1.5-1.3 0-2.5-.5-3.6-1.6l-4.4-4.3zm6.7-4l-4 4.1 2.9 3c.7.6 1.4 1 2.1 1a3 3 0 002.1-1c.7-.8 1-1.5.8-2.4-.1-.6-.6-1.3-1.2-2l-2.7-2.6zm4.8-4.8l-3.6 3.6 2.5 2.5c.7.6 1.4 1 2 1 .6.2 1.3-.1 2-.8.5-.6.8-1.2.7-1.8 0-.6-.4-1.3-1.1-2l-2.5-2.5zM164.2 407.5l-4.1-4-4.4 2.3-1.5-1.5 15.4-7.7 1.5 1.5-7.8 15.2-1.5-1.5 2.3-4.3zm-2.3-5l3.1 3 3.6-6.5-6.7 3.5zM178.1 405l-10 10.3 5 5-1.3 1.5-6.5-6.5 11.5-11.6 1.3 1.4zM187 413.8l-11.6 11.6-1.3-1.4 11.4-11.5 1.4 1.3z" fill="#231f20"/></g><g><path d="M321.7 424.8l1.3-1.3.8.8c.7.7 1.3 1 1.9 1 .5.1 1 0 1.5-.6.6-.6.9-1.2.7-1.8 0-.6-.4-1.2-1-1.8l-8.4-8.6 1.4-1.4 8.3 8.6c1.2 1.2 1.8 2.4 1.7 3.6a4 4 0 01-1.3 2.7c-1 1-2.2 1.4-3.4 1.2-.9-.1-1.7-.6-2.4-1.3l-1-1.1zM336.5 411l-4 4 2.1 4.5-1.4 1.4-7.5-15.4 1.6-1.6 15 8.1-1.4 1.5-4.4-2.4zm-5 2.2l3.2-3-6.5-3.7 3.3 6.8zM344.2 401.1l4.5 4.7-1.3 1.4-4.6-4.7-10.7-3.2 1.6-1.6 8.4 2.7-2.4-8.4 1.6-1.6 2.9 10.7zM357 391.1l-4 4 2.2 4.5-1.4 1.4-7.5-15.5 1.6-1.5 15 8.1-1.5 1.5-4.3-2.5zm-5 2.2l3.2-3-6.5-3.7 3.3 6.7z" fill="#231f20"/></g><g><path d="M213.4 425.5l-3-16 5.6-1c1.9-.4 3.4 0 4.8 1.2 1.3 1.3 2.2 3 2.7 5.4.4 2.1.3 4-.2 5.7-.7 2-2.1 3.2-4.3 3.6l-5.6 1.1zm-.8-14.5l2.4 12.3 3.7-.7c1.2-.2 2.1-1 2.6-2.2.5-1.2.6-2.8.2-4.8-.3-2-1-3.4-2-4.3-.9-1-2-1.2-3.4-1l-3.5.7zM236 422.1l-2 .2-4.8-16 2.1-.2 3.5 13 2.4-13.4 2.2-.1 4 13 1.9-13.4 2.1-.1-2.7 16.5-2 .1-4.2-13.3-2.5 13.7zM256.8 405.3l-.3 16.3h-2l.3-16.3h2zM266.4 415l-.5 7-2-.2 1.3-16.3 6.5.5a4 4 0 013 1.6c.7.9 1 2 .9 3.3a5.4 5.4 0 01-1.2 3.2c-.9 1-2 1.4-3.5 1.3l-4.5-.3zm.6-7.4l-.4 5.6 3.8.3c1 0 1.7 0 2.2-.5.6-.4.9-1.1 1-2.2 0-1-.2-1.7-.7-2.2a3 3 0 00-2-.7l-3.8-.3zM289.7 420.1l-5.7-1-2.2 4.4-2-.3 8.1-15.1 2.2.3 2.3 17-2.1-.4-.6-5zm-4.7-2.8l4.3.8-.8-7.4-3.5 6.6z" fill="#231f20"/></g><g><path d="M279 243.6c-2.2-3.7-7.4-2.6-8.6-2l-.7.2c.4-1.7.6-3.6.6-5.6 0 0-1.5.8-3.2 2.6-.3-.7-1.3-2.4-3.2-2.9-2.2-.6-6.6-.5-6.6-.5s.2-.3-.6-1.5c-.7-1-3-1.5-3-1.5h-1.2s-2.4.5-3 1.5c-.9 1.2-.7 1.5-.7 1.5s-4.3 0-6.5.5c-1.7.5-2.7 2-3.1 2.7-1.6-1.6-3-2.4-3-2.4 0 2 .2 3.9.6 5.6l-1-.2c-1-.6-6.2-1.7-8.4 2-2.3 3.7-3.2 11.3 1.6 13.6 4.9 2.2 7.3-.8 7.3-2.3 0-1.5-.2-6.1-2.8-6-2.6.3-2.4 1.2-2.2 2.3.1 1.1 1.2 1.3 1.2 1.3s-3.3-.4-1.8-3.3c1.5-3 5.8-1.1 6.7.5 1 1.7 0 6 1 7.6 1.2 1.7 5 2 5.7 3 .7 1 .3 6.1 2.4 6.1l5 1.7h3l5.4-1.7c2 0 1.6-5.2 2.4-6 .7-1 4.4-1.4 5.5-3 1.2-1.7.2-6 1.2-7.7.9-1.6 5.1-3.5 6.6-.5s-1.8 3.3-1.8 3.3 1-.2 1.3-1.3c.2-1.1.4-2-2.2-2.2-2.6-.2-2.8 4.4-2.8 6 0 1.4 2.4 4.4 7.2 2.2 4.8-2.3 4-9.9 1.7-13.6z" fill="#f2c008"/><path d="M279.8 243c-2.5-4.2-8.4-3-9.8-2.3h-.5a1 1 0 011.2 1.3c.4-2 .6-4 .6-5.8a1 1 0 00-1.4-1c-.1.1-1.8 1-3.5 2.9a1 1 0 011.6.2c-.4-.8-1.6-2.8-3.8-3.4-2.4-.6-6.7-.5-6.9-.5a1 1 0 01.9 1.5c.3-.5.1-1.4-.6-2.5-1-1.4-3.3-2-3.7-2h-1.4-.2c-.5 0-2.8.6-3.7 2-.7 1-1 2-.6 2.5a1 1 0 01.9-1.5c-.2 0-4.6 0-6.9.5-2 .6-3.2 2.2-3.7 3.2a1 1 0 011.6-.3c-1.7-1.7-3.3-2.5-3.3-2.5a1 1 0 00-1.5.9c0 1.9.3 3.8.7 5.8a1 1 0 011.1-1.2 2 2 0 01-.6-.1c-1.4-.8-7.2-2-9.8 2.4a14.5 14.5 0 00-1.5 10.7c.6 2 1.9 3.5 3.6 4.3 3.4 1.5 5.6.7 6.7 0 1.2-.8 2-2 2-3.2 0-2-.3-4.8-1.8-6.2-.5-.5-1.3-.8-2-.7-1.5 0-2.4.4-3 1-.5.8-.4 1.7-.2 2.3.2 1.5 1.4 2 2 2.2a1 1 0 01.4-2c-.4 0-1.1-.2-1.3-.6-.2-.4 0-.9.2-1.3.3-.7.9-1 1.6-1 1.4 0 3 1 3.3 1.6.3.6.4 2 .4 3.1 0 1.7 0 3.5.8 4.6.8 1.2 2.5 1.8 4 2.3l1.6.7.3 1.7c.3 2 .7 4.8 2.9 4.8a1 1 0 01-.3 0l5 1.7H255l5.3-1.7a1 1 0 01-.3 0c2.1 0 2.5-2.8 2.8-4.8.1-.6.2-1.5.4-1.7l1.6-.7c1.5-.5 3.1-1 4-2.3.7-1.1.7-2.9.8-4.6 0-1.2 0-2.5.3-3 .4-.8 1.9-1.7 3.3-1.7.8 0 1.3.3 1.6 1 .2.4.4 1 .2 1.3-.2.4-1 .6-1.2.6a1 1 0 01.2 2c.7-.1 2-.7 2.2-2.1 0-.8.2-1.6-.3-2.3-.6-.7-1.4-1-2.9-1.1-.8 0-1.5.2-2.1.7-1.4 1.4-1.7 4.1-1.7 6.2 0 1.2.8 2.4 2 3.2 1 .7 3.2 1.5 6.6 0 1.8-.8 3-2.3 3.6-4.3 1.1-3.6.1-8-1.5-10.7zm-3 13.3c-1.8.8-3.5.9-4.6.1-.9-.5-1.1-1.2-1.1-1.5 0-2.3.4-4 1-4.7.2-.2.4-.2.7-.2 1.2 0 1.4.3 1.4.3l-.1.7c0 .4-.4.5-.5.5a1 1 0 00-.8 1.2c0 .5.6.9 1 .8.3 0 2.1-.3 2.9-1.7.3-.6.6-1.6-.2-3-.6-1.4-1.8-2.2-3.4-2.2a6.2 6.2 0 00-5 2.6c-.6 1-.6 2.5-.6 4.1 0 1.3 0 2.9-.5 3.5-.5.7-1.8 1.2-3 1.6-1.1.4-2 .7-2.5 1.3-.4.5-.6 1.3-.7 2.6-.4 2.6-.7 3.1-1 3.1a1 1 0 00-.2 0l-5.3 1.8h.3-3 .3l-5.1-1.7a1 1 0 00-.3 0c-.2 0-.5-.6-1-3.2-.1-1.3-.2-2-.7-2.6-.4-.6-1.3-1-2.5-1.3-1.1-.4-2.5-1-3-1.6-.4-.6-.4-2.2-.4-3.5 0-1.6 0-3-.6-4-.8-1.4-3-2.7-5.1-2.7-1.5 0-2.7.8-3.4 2.1-.7 1.5-.5 2.5-.2 3.1.8 1.4 2.6 1.7 2.8 1.7a1 1 0 00.3-2s-.4 0-.5-.4a2.8 2.8 0 010-.8s.2-.2 1.4-.3c.2 0 .4 0 .6.2.7.6 1 2.4 1 4.7 0 .3-.2 1-1 1.5-1.2.8-2.9.7-4.8-.2-1.2-.5-2-1.6-2.5-3-1-3 0-6.9 1.3-9 2-3.3 6.7-2 7.3-1.7l1.1.3a1 1 0 001.2-1.2c-.4-1.8-.6-3.7-.7-5.5a1 1 0 01-1.5 1s1.4.7 2.9 2.2a1 1 0 001.5-.3c.3-.5 1.2-1.8 2.5-2.1 2-.6 6.3-.5 6.3-.5a1 1 0 001-1.5v.4s0-.2.5-.8c.3-.5 1.6-1 2.4-1.1h-.2 1c.8.1 2.1.6 2.4 1l.5 1v-.5a1 1 0 001 1.5s4.2 0 6.3.5c1.4.4 2.3 1.9 2.5 2.3a1 1 0 001.6.3c1.6-1.6 3-2.5 3-2.5a1 1 0 01-1.4-.9c-.1 1.8-.3 3.7-.7 5.5a1 1 0 001.2 1.2l1-.3c.6-.3 5.3-1.6 7.2 1.6 1.3 2.2 2.2 6.1 1.3 9a5 5 0 01-2.6 3.2z" fill="#5087c6"/><ellipse cx="246.2" cy="247.2" ry="2.9" rx="3.2" fill="#f2c008"/><path d="M250.3 247.2c0-1-.4-2-1.2-2.8a4.2 4.2 0 00-3-1.1 4 4 0 00-4 4 4 4 0 004 3.9c1.2 0 2.2-.4 3-1.2.8-.7 1.2-1.7 1.2-2.8zm-4.1 2c-1.2 0-2.2-1-2.2-2s1-2 2.2-2c.6 0 1.1.3 1.5.7.4.3.6.8.6 1.3s-.2 1-.6 1.4c-.4.3-1 .6-1.5.6z" fill="#5087c6"/><path d="M241.8 241.7s1.6-2 4.2-1c2.7 1 5.2 2.8 4.7 4.2-.5 1.3-2.1.9-4.5 0-2.3-1-5-.7-5-.7s-.3-1.7.6-2.6z" fill="#f2c008"/><path d="M242.6 242.3c0-.2 1.2-1.4 3.1-.7 2.1.8 3.6 2 4 2.7v.4c-.6.2-2.5-.5-3.1-.8-2.6-1-5.4-.7-5.5-.7.5 0 1 .3 1 .8 0-.5 0-1.3.4-1.6v-.1zm-1.3 2.9s2.5-.2 4.6.6c2.1.8 3.5 1.2 4.5.7.4-.2 1-.5 1.2-1.3.2-.4.2-1-.1-1.7-.8-1.7-3.2-3-5.1-3.8a4.8 4.8 0 00-5.3 1.2c-1.2 1.2-1 3.2-1 3.4.2.5.6.9 1.2.8z" fill="#5087c6"/><ellipse cx="260.1" cy="247.2" ry="2.9" rx="3.2" fill="#f2c008"/><path d="M258 247.2c0-1 1-2 2.1-2 .6 0 1.2.3 1.6.7.4.3.6.8.6 1.3s-.2 1-.6 1.4c-.4.3-1 .6-1.5.6-1.2 0-2.2-.9-2.2-2zm2.1 4c1.1 0 2.2-.5 3-1.2a3.8 3.8 0 000-5.6 4.2 4.2 0 00-3-1.1 4 4 0 00-4.1 4 4 4 0 004.2 3.8z" fill="#5087c6"/><g><path d="M256 252.6v1c0 .5 2.2 0 2.5-1 .4-1-1-2.8-2.4-2.8-1.3 0-.5-1.6-.1-3.1.3-1.6-1.5-2-1.5-2h-2.6s-1.9.4-1.5 2c.3 1.5 1 3.1-.2 3.1-1.3 0-2.8 1.7-2.4 2.8.3 1 2.6 1.5 2.6 1v-1s.8 1.2 2.8 1.2c2 0 2.7-1.2 2.7-1.2z" fill="#f2c008"/><path d="M255 252.6v1c0 .5.3 1 1 1.2 1 .2 3-.5 3.5-1.9.2-.7 0-1.6-.5-2.4-.6-.8-1.6-1.7-2.9-1.7l.3.3.3-1.3.2-.9c.2-.7 0-1.3-.3-1.9a3.2 3.2 0 00-2.1-1.2H251.7c-.2 0-1.4.3-2 1.2-.4.6-.5 1.2-.3 2l.2.8c.2.5.4 1.1.3 1.3l.3-.3c-1.2 0-2.3 1-2.9 1.7-.5.8-.7 1.7-.5 2.4.5 1.4 2.6 2 3.5 1.9.7-.1 1-.7 1-1.2v-1a1 1 0 01-1.7.6c0 .1 1.2 1.6 3.6 1.6 2.5 0 3.5-1.5 3.6-1.7a1 1 0 01-1.9-.5zm-1.8.2c-1.4 0-2-.8-2-.8a1 1 0 00-1.1-.4 1 1 0 00-.7 1v1c0-.5.4-.8.6-.8-.3 0-1.2-.3-1.3-.6 0 0 0-.3.4-.7.3-.4.8-.7 1-.7.9 0 1.3-.3 1.5-.6.6-.8.3-1.8 0-3l-.3-.7v-.4c.2-.2.6-.3.7-.3h-.1 2.6-.2c.2 0 .5.1.7.3v.4l-.2.8c-.4 1-.6 2.1 0 2.9.1.3.6.6 1.3.6.3 0 .8.3 1.2.7.3.4.3.7.3.8-.1.2-1 .6-1.3.5.2 0 .6.3.6.8v-1a1 1 0 00-1.8-.5s-.5.6-1.9.6z" fill="#5087c6"/></g><g><path d="M264.5 241.7s-1.5-2-4.2-1-5.1 2.8-4.6 4.2c.5 1.3 2 .9 4.4 0 2.4-1 5-.7 5-.7s.3-1.7-.6-2.6z" fill="#f2c008"/><path d="M265.3 241a4.8 4.8 0 00-5.4-1.3c-1.8.7-4.3 2.1-5 3.8-.4.7-.3 1.3-.2 1.7.3.8.8 1.1 1.2 1.3 1 .5 2.4.1 4.6-.7 2-.8 4.5-.6 4.6-.6.5 0 1-.4 1-.9 0-.2.3-2.2-.9-3.4l.1.1zm0 2.2c-.2 0-3-.3-5.6.7-.6.3-2.5 1-3 .8l-.1-.2v-.2c.4-.7 1.9-2 4-2.7a2.7 2.7 0 013.3.8c.3.3.3 1.1.3 1.6 0-.5.5-.9 1-.8z" fill="#5087c6"/></g><g><ellipse cx="253.3" cy="239" ry="3.2" rx="2.3" fill="#f2c008"/><path d="M254.6 239c0 1.3-.7 2.3-1.3 2.3-.6 0-1.3-1-1.3-2.3 0-1.3.7-2.2 1.3-2.2.6 0 1.3 1 1.3 2.2zm-1.3-4.2c-1.9 0-3.3 1.9-3.3 4.2 0 2.4 1.4 4.3 3.3 4.3 1.8 0 3.3-1.9 3.3-4.3 0-2.3-1.5-4.2-3.3-4.2z" fill="#5087c6"/></g><g><path d="M264.3 251.6c-3.1.8-3.9 4.6-3.9 4.6l-.3 1-.5.2c-.6-1.4-2.2-.4-2.2.4v.3h-.5c-.1-.2-.4-.5-.7-.5h-.7c-.4 0-.7.4-.8.8h-.1c-.2-.4-.5-.7-.8-.7h-1.2c-.3 0-.6.3-.7.7h-.3c0-.4-.4-.8-.8-.8h-.7c-.3 0-.5.2-.7.5l-.5-.1v-.2c0-.8-1.4-1.7-2-.6l-.8-.4-.2-.6s-.7-3.8-3.9-4.6c-3.1-.7-4 3.9-4 3.9s3-4.1 4.2 0a53 53 0 001.7 4.8s.9 0 1.6-.6l.8.6c-.7 3.3-4 7-4 7s2.3 0 4.7-2c1-1 1.6-2.4 1.8-3.9l.5.2c.1.5.4.9.8.9h.7c.3 0 .5-.2.7-.4h.3c0 .6.4 1.1.8 1.1h1.2c.4 0 .8-.5.8-1h.3c.1.2.4.3.6.3h.7c.4 0 .7-.3.8-.8l.6-.2c.2 1.4.7 2.9 1.7 3.7 2.4 2 4.6 2 4.6 2s-3.1-3.5-3.9-6.8l1-.6c.6.5 1.5.5 1.5.5l1.6-4.8c1.3-4.1 4.3 0 4.3 0s-.9-4.7-4-4z" fill="#f2c008"/><path d="M264 250.7c-3.7.9-4.5 5.2-4.6 5.4v-.2l-.2 1c0-.2.2-.5.4-.6l-.4.2a1 1 0 011.3.5c-.5-1.2-1.5-1.4-2.3-1.3-1 .2-1.8 1.2-1.8 2v.3c0-.4.4-.8.8-.9l-.4.1c.4 0 .9.2 1 .6-.3-.7-.9-1.2-1.6-1.2h-.7c-.8 0-1.5.7-1.8 1.6.1-.4.5-.7 1-.8h-.2c.5 0 .9.3 1 .7-.2-.8-1-1.4-1.7-1.4h-1.2c-.7 0-1.4.6-1.7 1.4a1 1 0 011-.7h-.2c.4 0 .8.3.9.8-.2-1-1-1.6-1.8-1.6h-.7c-.6 0-1.2.4-1.6 1a1 1 0 011.1-.5h-.5c.5 0 .8.4.8.8v-.2c0-.8-.7-1.7-1.7-2a2 2 0 00-2.2 1 1 1 0 011.3-.4l-.6-.3c.2.1.3.3.3.5a7 7 0 00-.1-.4c0-.2-1-4.5-4.6-5.4-1-.3-2-.1-2.8.4-1.9 1.2-2.5 3.9-2.6 4.2a1 1 0 001.8.8c.6-.8 1.5-1.5 1.9-1.4 0 0 .4.2.6 1 1.3 4.1 1.7 5 1.8 5 .2.5.5.7 1 .6 0 0 1.2 0 2.1-.8a1 1 0 01-1.2 0l.9.6a1 1 0 01-.5-1c-.6 3-3.6 6.5-3.7 6.5h.1a1 1 0 00.7 1.7s2.6 0 5.3-2.3c1-1 1.7-2.4 2-4.4a1 1 0 01-1.3.8l.6.2a1 1 0 01-.7-.8c.2 1 1 1.7 1.8 1.7h.7c.6 0 1.1-.3 1.5-.9a1 1 0 01-1 .5 5 5 0 00.4 0 1 1 0 01-.9-.9c0 1.1.9 2 1.8 2h1.2c1 0 1.7-.8 1.8-2 0 .5-.4.9-.9 1h.3a1 1 0 01-1-.5c.4.5 1 .8 1.5.8h.7c.8 0 1.5-.6 1.8-1.5-.1.3-.4.6-.7.7l.6-.2a1 1 0 01-1.3-.8c.3 2 1 3.4 2 4.3a8.9 8.9 0 005.3 2.3 1 1 0 00.8-1.7s-3-3.4-3.7-6.4c0 .4 0 .8-.5 1l1-.6a1 1 0 01-1.2 0c1 .6 2 .7 2 .7a1 1 0 001-.5c0-.1.5-1 1.8-5 .2-.9.5-1.1.7-1.1.4-.1 1.3.6 1.8 1.4a1 1 0 001.8-.8c0-.3-.7-3-2.5-4.2-.8-.5-1.8-.6-2.8-.4zm5.2 4.2c-.3-.4-2-2.5-3.8-2.2-1 .1-1.8 1-2.2 2.5a56.4 56.4 0 01-1.7 4.7 1 1 0 011-.6s-.5 0-1-.3a1 1 0 00-1.2 0l-.8.6a1 1 0 00-.5 1c.9 3.5 4 7.2 4.2 7.3a1 1 0 01.7-1.6s-1.9 0-4-1.8c-.6-.6-1.1-1.7-1.3-3.1a1 1 0 00-1.4-.8l-.5.1a1 1 0 00-.7.8h.2-.7.2a1 1 0 00-1-.4h-.1c-.5 0-1 .5-1 1v.2h.2-1.2.3l-.1-.2a1 1 0 00-.9-1H251.6a1 1 0 00-1 .5l.2-.1h-.7.2a1 1 0 00-.7-.8l-.5-.2a1 1 0 00-1.3.8c-.3 1.5-.7 2.6-1.4 3.2a7 7 0 01-4 1.8c.4 0 .7.2.9.5.2.4.1.8-.2 1.1.2-.1 3.4-3.9 4.2-7.4 0-.4 0-.8-.4-1l-.8-.6a1 1 0 00-1.2 0c-.4.3-1 .4-1.1.4.4 0 .8.2 1 .6l-1.6-4.7c-.5-1.5-1.3-2.4-2.3-2.5-1.9-.3-3.5 1.8-3.8 2.2a1 1 0 011.8.8c.1-.6.7-2.3 1.6-3 .4-.2.8-.2 1.3-.1 2.5.6 3.1 3.8 3.1 3.8v.2l.2.4c0 .2.2.4.4.6l.9.5c.4.3 1 .1 1.3-.4l.2.2v-.1.3c0 .4.3.8.8.9h.5a1 1 0 001.1-.4h-.2H250.6c.2.5.5.8 1 .8h.2a1 1 0 001-.7h-.2 1.2-.2c.1.5.5.7 1 .7h.2c.4 0 .8-.3.9-.7v-.2l-.2.1h.7-.2c.2.4.6.6 1 .6l.6-.1c.5-.1.8-.5.8-1v-.2l.2-.2v.1a1 1 0 001.4.5c.3 0 .5-.2.7-.3.2-.1.4-.4.4-.6a4.7 4.7 0 01.3-1s.7-3.2 3.1-3.8c.5-.1 1 0 1.3.2 1 .6 1.5 2.3 1.6 2.9 0-.5.2-1 .6-1.1.4-.3 1-.1 1.2.3z" fill="#5087c6"/></g></g></g></switch></svg>