<svg xmlns="http://www.w3.org/2000/svg" height="1050" width="1500" version="1.0"><path fill="#fff" d="M0 0h1500v1050H0z"/><path d="M751.3 844l1.1-.4s70.2-32 118.9-59.9c48.7-27.8 126.5-78.5 126.5-78.5V215.3h-493v490s77.8 50.6 126.5 78.4a1806 1806 0 00118.9 60l1 .3z" fill="#034ea2"/><path d="M751 826v-8.4c.6-.3 65.3-30.1 109.8-55.8a2928.4 2928.4 0 00115.6-72.5l7.4 4a3061 3061 0 01-119.3 75c-44.9 26-110 56-110.6 56.4L751 826z" fill="#fff"/><path d="M751 826l-1.5-1-.8-.3c-.6-.3-65.7-30.5-110.6-56.4a2736.1 2736.1 0 01-119-75l7.2-4.2c2.2 1.8 70.9 46.9 115.5 72.7 42 24.2 102 52.3 109.3 55.7v8.5z" fill="#7da7d9"/><path fill="#001c54" d="M518.9 693.2V228h464.8v7.5H526.2v453.8l-3 1.7z"/><path fill="#002e6e" d="M983.7 693.4l-7.3-4.1V235.4l7.3-7.5v465.5z"/><path d="M862 494a112 112 0 00-110.7-113.2 112 112 0 00-110.8 113.3 112 112 0 00110.8 113.2 112 112 0 00110.8-113.2z" fill="#a2dadb"/><g transform="matrix(1.47637 0 0 1.5092 503.3 214.2)"><circle r="58.8" cy="177.1" cx="160.5" fill="#a2dadb"/><circle r="56.6" cy="176.3" cx="159.3" fill="#a7dcdc"/><circle r="54.4" cy="175.4" cx="158" fill="#abddde"/><circle r="52.1" cy="174.5" cx="156.7" fill="#afdfdf"/><circle r="49.9" cy="173.7" cx="155.4" fill="#b3e0e0"/><circle r="47.7" cy="172.8" cx="154.1" fill="#b7e2e2"/><circle r="45.5" cy="171.9" cx="152.8" fill="#bbe3e3"/><circle r="43.2" cy="171.1" cx="151.5" fill="#bfe5e5"/><circle r="41" cy="170.2" cx="150.2" fill="#c3e6e6"/><circle r="38.8" cy="169.3" cx="149" fill="#c7e8e8"/><circle r="36.6" cy="168.5" cx="147.7" fill="#cbeae9"/><circle r="34.3" cy="167.6" cx="146.4" fill="#d0ebeb"/><circle r="32.1" cy="166.7" cx="145.1" fill="#d4edec"/><circle r="29.9" cy="165.9" cx="143.8" fill="#d8eeee"/><circle r="27.7" cy="165" cx="142.5" fill="#dcf0ef"/><circle r="25.4" cy="164.1" cx="141.2" fill="#e0f2f1"/><circle r="23.2" cy="163.3" cx="140" fill="#e4f3f3"/><circle r="21" cy="162.4" cx="138.7" fill="#e8f5f4"/><circle r="18.8" cy="161.6" cx="137.4" fill="#ecf7f6"/><circle r="16.5" cy="160.7" cx="136.1" fill="#f0f8f8"/><circle r="14.3" cy="159.8" cx="134.8" fill="#f4fafa"/><circle r="12.1" cy="159" cx="133.5" fill="#f9fcfc"/><circle r="9.9" cy="158.1" cx="132.2" fill="#fff"/></g><path d="M751.3 608.8A113.7 113.7 0 01639 494.1c0-63.3 50.4-114.8 112.3-114.8s112.3 51.5 112.3 114.8c0 63.2-50.4 114.7-112.3 114.7zm0-226.5A110.7 110.7 0 00642 494.1c0 61.6 49 111.7 109.3 111.7s109.3-50.1 109.3-111.7-49-111.8-109.3-111.8z"/><g fill="#0db14b"><path d="M764.2 532.3s-1.4-.3-2.2-.7c-.7-.3-2.5-1.9-2.5-1.9l-1.6-.5c-.5-.2-2.3-.5-2.9-2.7-.6-2.1.3-4 .3-4l2.8-6.7.2-.5 1-3.7 1.3-2.3s.8-1.2 1.5-1.6c.7-.4 1.6-2.1 1.6-2.1l4.2-3.2 1.4.1c.1 0 2.3-.1 2.3-.5.1-.5-1.2-.7-1.2-.7l-2.5-.7-3.4-.3-2.6-1s-2.7-.5-3.2-.8c-.5-.2-4.7-.2-4.7-.2s-4.4-.8-5.6-1.6c-1.1-.8-2.5-1.8-3.4-2.1-.9-.3-1.7.5-2.3.5-.5 0-3-1.2-3-1.2s-3-1.4-4.1-2.6c-1.2-1.2-3.4-5.7-3.9-6.2-.4-.6-.7-.4-1.4-2l-.2-.8c-.4-1.5-.4-3.3-.4-3.4 0-.2-.6-.8-.6-.8l-.5-4.2-.2-.4-.8-1.2c-.4-.8-.1-1-.1-1.4 0-.3-.4-.6-.8-1.3-.2-.2-.3-.7-.3-1.2l.1-2c.3-1-.4-4.7-.4-4.7s-.2-1.8-.2-3.8c0-2 1.5-2 1.7-3.2.1-1.3-2-3.2-2-3.2l-1.4-2.6c0-.2-1.5-2.2-1.5-2.2l-1-1.7-.9-.7-.7-1-.7-2s-.8-.3-1.4-1a7 7 0 01-1.3-3.6c0-1.4 1.7-1.7 2-2.4.2-.6-1.3-1.2-1.3-1.2l-2.3-1.8-1.4-.9s-3.2 0-4-.8c-.6-.8.8-1.6.4-2.8-.4-1.2-2.2.5-2.2.5 0 .1-1.5.9-4.6 1.2-3 .2-5.8-.3-6.4-.6-.6-.3-.6.4-.6.4l.3 1.3.5 2.4 1.3 2.6.1.9 1.2 1.2c.6.7-.1 1.6-.1 1.6l-.6.7.5 3s2 1.8 2 2l.7 1.3s1.3 1.4 1.5 1.8c.3.3.4.7-.6 1-.7.2-1.3-.3-1.6-.7l-.3-.3c-.2-.3-1.8-.9-2.2-1-.4-.2-1-.3-1.8-.2-.9 0-2.2-.8-2.6-1.2-.4-.3-.8-.3-1.3-.4-.5-.2-.6-1.2-1-2-.2-.7-1.1-.8-1.6-1.3-.4-.5 0-.6.2-.6s1.4.3 2.5 0c1 0 3.5-3.5 3.5-4.2 0-.7-2.1-1.3-2.8-1.4-.7 0-2.7 0-3.4-.3-.7-.4-.7-1.8-.7-2.4 0-.7-.7-1-1-1.4-.3-.5 0-.9 0-1.6.2-.7-.8-1-1.3-1s-2.3 2.3-3.1 3c-.9.7-2.4-.3-3.5-.2-1.1.2-2.6 1.6-3 2-.3.3-1.1-.3-1.8 0s-1 1.6-1.2 2.1c-.1.6-.8.7-1.4 1.2-.7.5-1.3 1-1.3 1.5 0 .4.7.7 1 1 .3.4-.8.4-1 .4-.3 0-.8.3-.9.7 0 .4.7.6.7.6l1.5 1.6 2 1.2.6.2.7.8s1.1.2 1.4.4c.2.3-1.2.8-1.4.8-.2 0-.6-.5-.9-1-.3-.5-.7-.2-.7-.2v1.6c0 .3-.5.6-.7.9l-2.5 2.9-2.3 2-2.6 1.8h-1.6l-1.5 1.4c-.5.6-1.6.1-2.4.4-.7.2-1 .6-1.5 1.3-.5.7-1.4.8-2 1.1l.5 8.6c.6.1 1.4-.3 1.5-.3l1.5.1 4.2-.3.9 1.2.8 1.7c.3.8 1.8 1.6 1.8 1.6l.2.7h.5l.7-1h1.5l.2-.5h.6l1.2.5c.6.3 1-.4 1-.4l1.8-.4s.5.6 1.2.7c.6 0 1.1-.8 1.1-.8l1.6-1.5c.4-.3 1.6-.2 2.2-.2.7 0 .8-.2 1.3-.5s1.4-.1 1.4-.1l.2-.9s-1.3-1-1.3-2.4c-.1-1.4.9-2.1 1.8-2.5 1-.4 2.3 0 2.3 0l-1.2.6s-2 .3-2.5 1.5c-.4 1.2 1.2 2.4 1.2 2.4l.3.5-.2.6v.4l1 .8 1.6 2.1h1.3l1.5-.4c.5 0 1 .3 1.5.5.4.1.8-.2 2.3-.1 1.4 0 2.4.2 2.4.2l1.7 1.5 1.3 2 .4 1.5-.1 3.5 1 1.4s1.1 2.3 1.3 3.2c.2.8-.4 1.5-.8 2.2-.5.8-.3 1.6-.3 1.6l1 1v.6s1 1.7 1.7 2.3c.6.6 1.8 0 1.8 0l1.2 1s2.5 1.8 3 3c.2.7.2 1.3.2 2 0 .6-.2 1.2-.3 1.4-.2.5-1 1.2-1.3 1.5l-.6 1.5c-.2.5-1.1 1.5-1.2 1.8-.1.4 0 1.5 0 1.6l-.2 1.4c0 .7.3 1.2.9 2 .5 1 .9 3 1 3.3l.2 1.5c.1.6.5.8 1 1.4l1.7 3v.5l1.1.9 1.1.3 1.3.3 3 .2c2 .1 2.4.5 3.6 1 1.2.5 1.6 1.3 2 1.7.6.4 1.7.2 1.7.2l2.2 1s.6.5 1.6.7c1 .3 2.7.4 4.5 1.6 1.7 1.2 3.2 3.4 3.9 3.8.6.4 4.7 0 4.7 0s.3 1 1.4 2.4c1 1.5 2 1.7 2.7 2 .6.2.6 1.9.5 3 0 1.1 1.4 2.2 2.4 2.3 1 .1 1.7-.8 1.7-.8l1-.4.6-1h1.2l.7.5c.4.3 1.6-.1 1.6-.1l1.2.4h5c1.1-.2.7-2 .7-2l-.2-.6-.5-1v-.7s1-.3 1-.7c0-.4-.3-.4-.3-.4z"/><path d="M776.3 528.7c0-.6-.5-1-1-1.3-.3-.3-3-.7-3-.7s-.7-.6-1.1-1.2c-.4-.6-1.2-1.6-1.5-1.6-.3 0-1.2.6-1.2.6l-1 .8-.6.7-2.2 1-.6.3s-1 .8-.9 2c.2 1.3.8 2 1.6 2.4l2 .7 2.3 1.1 2.5 1 2.2.2s1.5 0 1.3-.7c-.1-.6-1-1.5-.6-2.4.4-.9 1.8-2.2 1.8-2.9zM764.1 523.7c0 .1-.5.9-.4 1 0 0 .4.9.7.6.3-.3.6-1.4.7-1.6l-.2-.8-.4.1-.4.7zM783.6 513.3l-.7-.2h-1.2l-.3-1.1s-1-.4-1.1-.2c0 0-.8 1.4-1 1.5l-1.6 1.5v1.3l1.1.9 1.8-.1s1.9 1 2.2.8c.4-.2.6-1 .6-1v-1.3l.2-2.1zM799 515.8l.3 1s-.4.2-.5.1l-.8-1.5-.7.3-.6.1-3.6 1c-.1 0-1.4.8-1.4 1.3 0 .4.3.9 0 .9l-1.2.2v1.3l2.2 1.5.6.8.6.4s.3.6.8.4l1.9-1.2 2-1 .4-2.5c0-.4 1-2 1-2v-1h-1zM792.5 516c.7 0 1.5-.3 1.9-.3l1.6-.4-.4-1.6h-2.7v.6l1.3.2s.1.4-.2.4h-1l-1.2.4c0 .2.1.7.7.7zM791.8 515.2l-.1.2v-.2zM796.4 523l-.6 1c0 .2-1 .9-.8 1.2l1 .6.2 1s.5.3.6.2l1.5-1.3.1-2.8h-.8l-1.2.2zM853.2 515.3l-.6-3-.5-1.5s-1.3-1.3-1.4-1.6a3 3 0 00-.5-.7l-1.1-.5s-2.4-2.6-2.6-2.6h-.9c-.2 0-.9.5-1 0 0-.3.2-2.2-.5-2.4-.7-.3-2-.2-2.3-.7-.2-.5-.8-1.9-1.1-1.9-.3 0-1 .6-1.7.1l-1.6-.7c-.1 0-1.2 1-1.1 1.3l.2 1.8s-.3.7-.5.4l-.8-2-.9-.9v-1.3l-.8-1h-2.2s-.9-.8-1.9-.6c-1 .3-2 1.4-2 1.4s-.6-1.2-1.2-1.5c-.5-.3-2.2-.6-2.2-.6l-1.6-.2v-.5l.5-.3s-.1-.7-.7-.7c-.7 0-1.6 1.1-1.6 1.1l-1 .5-2.2.6-.9.2s-.5-1-1.4-1c-1 .1-1.4 1-1.7 1-.3 0-1-.3-1.5-.2-.5 0-2.2.4-1.9 2 .4 1.6.7 2.1 0 4.2-.7 2-1.2 2.8-1.2 2.8v.7l1.1.4-.4 1.5-.3 2.5s-.6 1.4-1.2 1.7c-.6.4-1.5.5-1.5.5s-.6.2-.2.7c.3.5.5 2 .5 2s-.5 3.6-.9 3.7c-.3 0-1.6.7-1.6.7l-1.6 1.6s-.2.4 0 .7l2.8.2 1-.7.5.4s-.7 1-.7 1.4l-.2 1.6-1 1.4-.2.9-.5.6.2.7s.8 0 1 1.4c0 1.4 0 1.7.9 3.5.9 1.7 2 2.1 2 2.1s1.2 2 .6 2.8c-.6 1-3.2 1.2-3 3.5.3 2.3 3 3 4.6 1.5 1.6-1.5 3.8-2.7 4.4-2.8.6 0 2 .7 2.5.5l1.3-.7 3-1.2 1-1.3.2-1.3s.5-1.1.4-1.5c-.1-.3-1.6-1.5-1.6-1.5s-.4-.9.2-1.1l1.7-.8.7-1 .9.2.9 1.7 1 1.1-.6 1.3 1.6.4s0 .8.4 1h1s0 1 .3 1.2c.3.2 1.6 1.5 1.6 1.8 0 .3-.3 3.2.2 4.5l.7 2s0 1.6.7 1.2c.6-.4.6-1.5.6-1.5s1.5-1.5 3.2-1c1.7.5 2.4 1 2.8.5.4-.4.3-1 .3-1.2 0-.3-1.3-3-.1-3.8 1.2-.7 1.8 0 2.7 0l1.3-.4s.8.2 1.1-.2l1.3-1.4c.3-.1 1.5-.2 1.3-.8-.2-.5-1.8 0-1.9-.5 0-.5 1.1-.8 1.1-1.8 0-.9-.3-1.6.4-2.2.8-.5 1.2-1 1-2 0-1-.7-2-.7-2s.6-2.8 1.3-3.3c.7-.5 1.2-1.2 1.3-1.8 0-.6.3-1.5.3-1.7 0-.3.9-1.4 1.6-1.9.7-.5 1.3-.9 1.5-1.4.1-.6-.4-4-.4-4.3zM803 541.8l-.7-.6-.7.6.2 2.8s.3.6.5.4c.3-.2.6-.8.6-.8s.7-.5.7-1.1c0-.6-.7-1.3-.7-1.3zM802.3 541.2h.1z"/></g><path d="M700.7 648.3a154.7 154.7 0 01-97.4-96.1c-.2-.6.1-1.3.7-1.5.6-.1 1.2.2 1.4.8 0 .3 10 30.8 38.7 57.9a174.4 174.4 0 0057 36.7 1.1 1.1 0 01-.4 2.2z"/><path d="M605.6 533s2.7 8.2 2 12.8c-.8 4.6-2.8 7.1-2.8 7.1s-4-3-3.1-9.8c.7-6.8 3.9-10.2 3.9-10.2z" fill="#fd0"/><path d="M604.8 554a1 1 0 01-.7-.2c-.2-.1-4.4-3.5-3.5-10.9.8-7 4-10.6 4.2-10.8a1.1 1.1 0 011.8.5c.1.3 2.9 8.5 2 13.4-.7 4.8-2.9 7.5-3 7.6-.2.3-.5.5-.8.5zm.4-18.5c-1 1.5-2 4.1-2.4 7.7-.5 4.1.9 6.7 1.8 8 .6-1.2 1.5-3 1.9-5.6.5-2.9-.6-7.5-1.3-10.1z"/><path d="M595 542.5s3.8.4 6.2 4.4l4.2 7.4s-3.8 1.9-7.6-2.2c-3.8-4-2.8-9.6-2.8-9.6z" fill="#fd0"/><path d="M603.2 555.9c-1.5 0-3.9-.6-6.2-3a13.3 13.3 0 01-3-10.6c0-.6.5-1 1.1-1 .2 0 4.4.5 7 5l4.3 7.4a1.1 1.1 0 01-.5 1.6s-1.1.6-2.7.6zm-7.2-12c0 1.7.3 5 2.6 7.5a6.3 6.3 0 005.1 2.2l-3.5-6.2a7.9 7.9 0 00-4.2-3.5z"/><path d="M616.3 541.7s.3 5.7-3.2 8.6c-3.6 2.8-7.9 4.9-7.9 4.9s1.5-4.6 4.2-9.2c2.7-4.7 6.9-4.3 6.9-4.3z" fill="#fd0"/><path d="M605.2 556.3a1 1 0 01-.7-.3c-.4-.3-.5-.8-.3-1.2 0-.2 1.5-4.7 4.2-9.4 3.1-5.3 8-4.8 8-4.8.5 0 1 .5 1 1 0 .3.3 6.3-3.6 9.6a44.5 44.5 0 01-8.6 5zm10-13.4a7 7 0 00-4.9 3.7 52 52 0 00-3 6.2c1.5-.9 3.4-2 5-3.4 2.3-1.8 2.7-4.8 2.8-6.5z"/><path d="M595.7 554.3s3.7.4 6.6 2.6c2.8 2.3 6 5.4 6 5.4s-3 2-7.3.8c-4.2-1.2-5.3-8.8-5.3-8.8z" fill="#fd0"/><path d="M603.7 564.6c-1 0-2-.2-3-.4-4.8-1.3-6-9.4-6-9.8-.1-.3 0-.6.2-.9a1 1 0 011-.3c.1 0 4 .4 7 2.8 2.9 2.3 6 5.4 6.1 5.5a1.1 1.1 0 01-.2 1.8s-2 1.3-5 1.3zm-6.5-8.9c.6 2.3 1.9 5.7 4.1 6.3 1.8.5 3.8.3 5 0l-4.7-4.2a12 12 0 00-4.4-2z"/><path d="M621.2 553s-.5 6.8-3.7 9c-3.2 2-7.7 2.5-7.7 2.5s-.1-4.8 4.5-8.2c4-2.9 6.9-3.3 6.9-3.3z" fill="#fd0"/><path d="M609.7 565.6a1.1 1.1 0 01-1.1-1.1c0-.2 0-5.4 5-9.1 4.2-3 7.3-3.5 7.4-3.5.4 0 .7 0 1 .3.2.2.3.6.3 1 0 .2-.6 7.3-4.2 9.7a20 20 0 01-8.3 2.7zm10.2-11c-1.2.3-3 1.1-5 2.6a9.9 9.9 0 00-3.9 6c1.5-.3 4-1 5.9-2.2 1.7-1.2 2.6-4.3 3-6.5z"/><path d="M626.9 560s.2 7.8-3.3 10.6c-3.4 2.8-8.6 3.8-8.6 3.8s-.6-5.5 4.3-9.9c4.2-3.8 7.6-4.6 7.6-4.6z" fill="#fd0"/><path d="M615 575.5a1 1 0 01-.6-.2c-.3-.2-.5-.5-.5-.8 0-.2-.6-6 4.7-10.9 4.4-3.9 7.9-4.7 8-4.8.4 0 .7 0 1 .2.2.3.4.6.4 1 0 .3.2 8.3-3.7 11.5a23 23 0 01-9.3 4zm10.7-14c-1.2.6-3.3 1.7-5.6 3.8-3 2.8-3.8 6-4 7.7 1.7-.5 4.7-1.5 6.9-3.3 2-1.6 2.6-5.6 2.7-8.1z"/><path d="M598 566.8s3.3 7.1 7.6 8c4.3 1 9.4-.5 9.4-.5s-1.8-5.1-8.2-6.9c-5.4-1.4-8.7-.6-8.7-.6z" fill="#fd0"/><path d="M608.8 576.3c-1.2 0-2.4 0-3.4-.3-4.8-1-8.2-8.4-8.3-8.7-.2-.3-.2-.7 0-1 .1-.3.4-.5.7-.6.1 0 1.1-.3 3-.3 2 0 4 .3 6.3 1 6.8 1.8 8.9 7.3 9 7.5l-.1 1-.7.5c-.1 0-3.1 1-6.5 1zm-9-8.6c1.3 2.2 3.6 5.5 6 6 1 .3 2 .4 3 .4a23 23 0 004.6-.5c-1-1.5-3-4-6.9-5a22.2 22.2 0 00-6.7-.9z"/><path d="M600 580.5s6.1 6 10.7 5.6a21 21 0 009-3.5s-4-4.5-10.9-4.2c-5.8.2-8.8 2-8.8 2z" fill="#fd0"/><path d="M610.3 587.3c-5 0-10.8-5.8-11-6a1.1 1.1 0 01.1-1.8c.2 0 3.3-2 9.4-2.3a15 15 0 0111.7 4.7 1.1 1.1 0 01-.2 1.7 22 22 0 01-10 3.7zm-8.3-6.5c2 1.7 5.6 4.2 8.3 4.2h.3c2.9-.2 5.7-1.7 7.2-2.5a13.4 13.4 0 00-9-3c-3.1.1-5.4.8-6.8 1.3z"/><path d="M606.1 589.4s6 6 10.7 5.6a21 21 0 009-3.5s-4-4.6-10.9-4.3c-5.9.3-8.8 2.2-8.8 2.2z" fill="#fd0"/><path d="M616.3 596.1c-5 0-10.7-5.7-11-6a1.1 1.1 0 01.2-1.7c.1 0 3.2-2 9.4-2.3a15 15 0 0111.7 4.6 1.1 1.1 0 01-.2 1.7 22 22 0 01-10 3.7zm-8.2-6.4c2.1 1.8 5.8 4.4 8.6 4.2 2.9-.3 5.7-1.7 7.2-2.6a13.4 13.4 0 00-9-3c-3.2.2-5.5.8-6.8 1.4z"/><path d="M611.9 600.6s7.3 5.7 12.1 4.6c5-1 9.2-5 9.2-5s-4.7-4.3-12.1-3c-6.3 1-9.2 3.4-9.2 3.4z" fill="#fd0"/><path d="M622.8 606.5c-5.1 0-11.3-4.8-11.6-5-.3-.3-.4-.6-.4-1 0-.3.1-.6.4-.8a21.3 21.3 0 0112.4-4 16 16 0 0110.4 3.7 1.1 1.1 0 010 1.7c-.2.2-4.6 4.1-9.7 5.2l-1.5.2zm-9-5.9c2 1.3 5.9 3.6 9 3.6h1c3.2-.7 6-2.7 7.6-3.9a14.4 14.4 0 00-10.2-2c-3.5.5-6 1.6-7.3 2.3z"/><path d="M618.8 610.5s8 4.6 12.7 2.8c4.7-1.7 8.4-6.2 8.4-6.2s-5.4-3.6-12.5-1.4c-6.1 2-8.6 4.8-8.6 4.8z" fill="#fd0"/><path d="M629 614.9c-4.8 0-10.5-3.3-10.8-3.4-.3-.2-.5-.5-.5-.8 0-.4 0-.7.3-1A21.5 21.5 0 01632 604c5 0 8.2 2.2 8.4 2.3.2.2.4.4.4.8 0 .3 0 .6-.2.8-.2.2-4 4.8-8.9 6.6-.8.3-1.7.5-2.8.5zm-8.2-4.7c1.9 1 5.3 2.4 8.2 2.4a6 6 0 002-.3c3.1-1.2 5.7-3.5 7-4.9a14.3 14.3 0 00-10.3-.6 23.4 23.4 0 00-7 3.4z"/><path d="M626.3 618.8s8.3 4.7 13.2 2.9a24 24 0 008.7-6.5s-5.5-3.8-13-1.4c-6.3 2-9 5-9 5z" fill="#fd0"/><path d="M636.9 623.2c-5 0-11-3.3-11.2-3.5-.3-.1-.5-.4-.5-.8-.1-.3 0-.7.2-1a22.4 22.4 0 0114.8-6c5 0 8.5 2.3 8.6 2.4.3.2.5.4.5.8 0 .3 0 .6-.2.8-.2.3-4.1 5-9.3 6.9-.8.3-1.8.4-3 .4zm-8.7-4.7c2 1 5.6 2.5 8.7 2.5.8 0 1.6-.1 2.2-.4 3.2-1.1 6-3.7 7.3-5a15 15 0 00-10.8-.7c-3.7 1.2-6 2.6-7.4 3.6z"/><path d="M635 628s8.9 3.8 13.5 1.4c4.7-2.3 8-7.4 8-7.4s-6-3.2-13 0c-6.1 2.8-8.4 6-8.4 6z" fill="#fd0"/><path d="M644.6 631.3c-4.6 0-9.7-2.1-10-2.2-.3-.2-.5-.4-.6-.8 0-.3 0-.7.2-1a22.6 22.6 0 0115.9-7.8c4 0 6.8 1.4 7 1.5.2.1.4.4.5.7 0 .3 0 .6-.2.9a25 25 0 01-8.4 7.8c-1.2.6-2.6 1-4.4 1zm-7.6-3.8c1.8.7 4.9 1.6 7.6 1.6 1.4 0 2.6-.3 3.4-.7 3-1.5 5.5-4.4 6.7-6a14.8 14.8 0 00-10.8.7 24.6 24.6 0 00-6.9 4.4z"/><path d="M644.3 634.5s8.8 3.7 13.5 1.3c4.7-2.3 8-7.4 8-7.4s-6-3.1-13 0c-6.2 2.8-8.5 6-8.5 6z" fill="#fd0"/><path d="M654 637.8c-4.8 0-9.9-2.2-10.1-2.3-.3-.1-.5-.4-.6-.7-.1-.4 0-.7.1-1a22.6 22.6 0 0116-7.9c4 0 6.8 1.4 6.9 1.5.3.2.5.4.5.7.1.3 0 .7-.1 1a25 25 0 01-8.4 7.8c-1.2.6-2.7.9-4.4.9zm-7.7-3.8c1.8.6 4.8 1.5 7.6 1.5 1.4 0 2.5-.2 3.4-.7 3-1.5 5.5-4.3 6.7-5.9a14.9 14.9 0 00-10.8.6 24.7 24.7 0 00-7 4.5z"/><g><path d="M654 642.6s9.1 2.6 13.5-.3c4.3-3 7-8.4 7-8.4s-6.3-2.4-13 1.7c-5.7 3.5-7.6 7-7.6 7z" fill="#fd0"/><path d="M661.6 644.8c-4 0-7.8-1-8-1.1-.3-.1-.6-.4-.7-.7v-1c.1-.1 2.2-3.8 8-7.4a17 17 0 0114-1.8c.2.1.5.4.6.7v.9c-.2.2-2.9 5.7-7.4 8.8-1.6 1-3.8 1.6-6.5 1.6zm-5.8-3c1.4.4 3.6.7 5.8.7 2.3 0 4-.4 5.2-1.2 2.9-1.9 5-5 6-6.7a14.6 14.6 0 00-10.7 2 25 25 0 00-6.3 5.3z"/></g><g><path d="M664 650.2s9.3 1.5 13.3-2c4-3.4 6-9.1 6-9.1s-6.5-1.7-12.7 3.2c-5.2 4.2-6.7 7.9-6.7 7.9z" fill="#fd0"/><path d="M668.6 651.6c-2.7 0-4.8-.3-4.9-.3-.3 0-.6-.3-.7-.6-.2-.3-.2-.7-.1-1 0-.1 1.7-4 7-8.3 4-3 8-3.7 10.7-3.7 1.8 0 2.9.2 3 .3.2 0 .5.2.6.5.2.3.2.6.1 1 0 .2-2.1 6-6.3 9.6-2 1.7-5 2.5-9.4 2.5zm-2.9-2.4l2.9.2c3.7 0 6.5-.7 8-2a22 22 0 005.1-7.4 15 15 0 00-10.4 3.2 25 25 0 00-5.6 6z"/></g><g><path d="M673.7 655.4s9.4 1.5 13.4-2c4-3.4 6-9.1 6-9.1s-6.5-1.6-12.7 3.3c-5.2 4.1-6.7 7.8-6.7 7.8z" fill="#fd0"/><path d="M678.4 656.9c-2.7 0-4.8-.4-4.9-.4-.3 0-.6-.2-.8-.5-.1-.4-.2-.7 0-1 0-.2 1.6-4 7-8.3 4-3.1 8-3.8 10.7-3.8 1.7 0 2.9.3 3 .3.2 0 .5.3.6.6.2.2.2.6 0 .9 0 .2-2 6-6.2 9.6-2 1.7-5.1 2.6-9.4 2.6zm-3-2.4l3 .1c3.7 0 6.5-.7 8-2a22 22 0 005-7.4 15 15 0 00-10.3 3.3c-3 2.4-4.8 4.6-5.6 6z"/></g><g><path d="M631.8 568s.2 7.8-3.2 10.6a22.1 22.1 0 01-8.7 3.8s-.6-5.4 4.3-9.9c4.2-3.8 7.6-4.5 7.6-4.5z" fill="#fd0"/><path d="M620 583.6a1 1 0 01-.7-.3c-.3-.1-.4-.4-.5-.7 0-.3-.6-6.1 4.7-11 4.4-3.8 8-4.7 8-4.7.4-.1.7 0 1 .2.2.2.4.5.4.8 0 .4.2 8.5-3.6 11.6a23 23 0 01-9.4 4zm10.7-14c-1.3.6-3.4 1.7-5.7 3.8-3 2.7-3.8 5.9-4 7.6 1.7-.5 4.7-1.5 6.9-3.2 2-1.7 2.6-5.7 2.8-8.2z"/></g><g><path d="M634.3 574s2.4 7.4 0 11.1a22.5 22.5 0 01-7.3 6.2s-2.1-5 1.3-10.8c3-4.8 6-6.6 6-6.6z" fill="#fd0"/><path d="M627 592.4a1.1 1.1 0 01-1-.6c0-.3-2.3-5.7 1.4-11.8 3-5.1 6.2-7 6.3-7a1.1 1.1 0 011.6.6c.1.3 2.6 8-.2 12.1-2.6 4-7.3 6.5-7.5 6.6l-.6.1zm6.6-16.6c-1 1-2.7 2.6-4.3 5.3-2.2 3.6-2 6.8-1.6 8.5 1.5-1 4-2.8 5.6-5.1 1.4-2.2 1-6.2.3-8.7z"/></g><g><path d="M639.4 580.4s3.3 7.5 1 11.7a24 24 0 01-6.9 7.3s-2.7-5 .3-11.4c2.6-5.5 5.6-7.6 5.6-7.6z" fill="#fd0"/><path d="M633.5 600.5h-.2c-.3 0-.6-.3-.7-.5-.2-.3-3-5.7.2-12.5 2.7-5.6 5.8-8 6-8a1 1 0 01.9-.2c.3 0 .6.3.7.6.2.4 3.5 8.1 1 12.8a25 25 0 01-7.3 7.7l-.6.1zm5.5-18.2c-1 1.1-2.7 3-4.2 6.2-2 4-1.3 7.4-.8 9.2 1.5-1.2 4-3.4 5.5-6.1 1.3-2.5.3-6.7-.5-9.3z"/></g><g><path d="M645.8 586.9s3.4 7.8 1.1 12.2a25.1 25.1 0 01-7.2 7.6s-3-5.3.3-12c2.7-5.6 5.8-7.8 5.8-7.8z" fill="#fd0"/><path d="M639.7 607.8h-.3c-.3 0-.6-.3-.7-.6-.1-.2-3.1-5.8.3-13 2.8-5.8 6-8.2 6.2-8.3a1 1 0 011.6.5c.2.3 3.6 8.4 1 13.2a26 26 0 01-7.5 8c-.2.2-.4.2-.6.2zm5.7-19c-1.1 1.1-2.8 3.2-4.4 6.5a13 13 0 00-.8 9.6c1.5-1.1 4.2-3.5 5.7-6.3 1.4-2.6.4-7.1-.5-9.8z"/></g><g><path d="M652.6 594.2s4 7.5 2.1 12c-2 4.6-6.5 8.3-6.5 8.3s-3.4-5-.7-12a22 22 0 015-8.3z" fill="#fd0"/><path d="M648.2 615.6h-.2c-.3 0-.6-.2-.8-.5-.1-.2-3.6-5.6-.8-13a23 23 0 015.5-8.8 1.1 1.1 0 011.6.3c.2.3 4.4 8 2.2 13-2 4.8-6.7 8.6-6.9 8.8l-.6.2zm4-19.5c-.9 1.2-2.4 3.4-3.7 6.9a13 13 0 000 9.7c1.4-1.3 4-4 5.2-7 1.2-2.6-.3-7-1.4-9.6z"/></g><g><path d="M660.6 600.8s4 7.5 2.1 12c-2 4.6-6.6 8.3-6.6 8.3s-3.3-5-.7-11.9a22 22 0 015.2-8.4z" fill="#fd0"/><path d="M656.1 622.2a1 1 0 01-.9-.4c-.1-.3-3.6-5.6-.8-13a23 23 0 015.4-8.9c.3-.2.6-.3 1-.2.3 0 .6.3.7.6.2.3 4.4 8 2.2 13-2 4.8-6.7 8.6-6.9 8.7a1 1 0 01-.7.2zm4.2-19.4c-1 1.2-2.5 3.4-3.8 6.8a13 13 0 000 9.7c1.4-1.3 4-3.9 5.2-6.9 1.2-2.7-.3-7-1.4-9.6z"/></g><g><path d="M666.3 607.6s5.3 6.7 4.2 11.5c-1.2 4.8-5 9.3-5 9.3s-4.2-4.3-2.8-11.6c1.2-6.2 3.6-9.2 3.6-9.2z" fill="#fd0"/><path d="M665.4 629.5a1 1 0 01-.8-.3c-.1-.2-4.5-4.8-3-12.6 1.2-6.4 3.7-9.6 3.8-9.7.2-.3.6-.5.9-.5.3 0 .6.2.9.5.2.3 5.6 7.1 4.4 12.5-1.2 5-5.2 9.6-5.3 9.7-.2.3-.5.4-.8.4zm1-20a25 25 0 00-2.6 7.5c-.9 4.7.6 8 1.7 9.6a23 23 0 004-7.8c.6-2.9-1.6-7-3.1-9.2z"/></g><g><path d="M674.8 613s5.3 6.7 4.2 11.5c-1.2 4.8-5 9.3-5 9.3s-4.2-4.3-2.8-11.6c1.2-6.2 3.6-9.2 3.6-9.2z" fill="#fd0"/><path d="M674 635a1 1 0 01-.9-.4c-.2-.2-4.5-4.8-3-12.6 1.2-6.4 3.7-9.6 3.8-9.7.2-.3.5-.5.9-.5.3 0 .6.2.8.5.3.3 5.7 7.1 4.4 12.5-1.2 5-5 9.6-5.3 9.7-.2.3-.5.4-.8.4zm.8-20a25 25 0 00-2.5 7.4c-1 4.7.6 8 1.6 9.6 1.2-1.6 3.2-4.6 4-7.8.7-2.9-1.5-7-3-9.2z"/></g><g><path d="M684.3 617.2s5.4 6.7 4 11.7c-1.4 5.1-5.6 9.9-5.6 9.9s-4.2-4.3-2.5-12c1.5-6.4 4.1-9.6 4.1-9.6z" fill="#fd0"/><path d="M682.7 640a1 1 0 01-.8-.4c-.2-.2-4.6-4.8-2.7-13 1.5-6.6 4.2-10 4.3-10.1.2-.3.6-.4.8-.4.4 0 .7.1.9.4.2.3 5.7 7.2 4.2 12.8-1.5 5.2-5.7 10-6 10.2-.1.3-.4.4-.7.4zm1.7-20.9c-.9 1.5-2.2 4.2-3 8-1.2 5 .3 8.3 1.3 9.9 1.3-1.7 3.6-5 4.5-8.4.8-3-1.3-7.1-2.8-9.5z"/></g><g><path d="M692.1 622.7s6.4 5.7 5.9 11c-.6 5.2-4 10.6-4 10.6s-4.8-3.5-4.3-11.3c.4-6.6 2.4-10.3 2.4-10.3z" fill="#fd0"/><path d="M694 645.4a1 1 0 01-.6-.2c-.2-.1-5.3-4-4.8-12.3.4-6.8 2.5-10.6 2.6-10.7.2-.3.4-.5.8-.6.3 0 .6 0 .9.3.3.2 6.7 6.1 6.2 11.9-.6 5.4-4 10.9-4.1 11.1a1.1 1.1 0 01-1 .5zm-1.5-20.7c-.6 1.5-1.5 4.4-1.7 8.4-.3 5 1.7 8 3 9.4 1-1.8 2.7-5.5 3-9 .4-3.3-2.6-7-4.3-8.8z"/></g><g><g transform="matrix(1.47637 0 0 1.5092 503.3 214.2)"><circle r="4.3" cy="275.7" cx="211.8" fill="#0db14b"/><path d="M211.8 281a5.3 5.3 0 110-10.6 5.3 5.3 0 010 10.6zm0-8.6a3.3 3.3 0 100 6.6 3.3 3.3 0 000-6.6z" fill="#fff"/></g><g transform="matrix(1.47637 0 0 1.5092 503.3 214.2)"><circle r="4.3" cy="287.1" cx="216.3" fill="#ed1c24"/><path d="M216.3 292.4a5.3 5.3 0 110-10.6 5.3 5.3 0 010 10.6zm0-8.6a3.3 3.3 0 100 6.6 3.3 3.3 0 000-6.6z" fill="#fff"/></g><g transform="matrix(1.47637 0 0 1.5092 503.3 214.2)"><circle r="4.3" cy="283" cx="225.5" fill="#ed1c24"/><path d="M225.5 288.3a5.3 5.3 0 110-10.6 5.3 5.3 0 010 10.6zm0-8.6a3.3 3.3 0 100 6.6 3.3 3.3 0 000-6.6z" fill="#fff"/></g><g transform="matrix(1.47637 0 0 1.5092 503.3 214.2)"><circle r="4.3" cy="277.7" cx="234.6" fill="#ed1c24"/><path d="M234.6 283a5.3 5.3 0 110-10.6 5.3 5.3 0 010 10.6zm0-8.6a3.3 3.3 0 100 6.6 3.3 3.3 0 000-6.6z" fill="#fff"/></g><g transform="matrix(1.47637 0 0 1.5092 503.3 214.2)"><circle r="4.3" cy="271.5" cx="242.4" fill="#ed1c24"/><path d="M242.4 276.8a5.3 5.3 0 110-10.6 5.3 5.3 0 010 10.6zm0-8.6a3.3 3.3 0 100 6.6 3.3 3.3 0 000-6.6z" fill="#fff"/></g><g transform="matrix(1.47637 0 0 1.5092 503.3 214.2)"><circle r="4.3" cy="264.7" cx="250.8" fill="#ed1c24"/><path d="M250.8 270a5.3 5.3 0 110-10.6 5.3 5.3 0 010 10.6zm0-8.6a3.3 3.3 0 100 6.6 3.3 3.3 0 000-6.6z" fill="#fff"/></g><g transform="matrix(1.47637 0 0 1.5092 503.3 214.2)"><circle r="4.3" cy="257.8" cx="257" fill="#ed1c24"/><path d="M257 263.1a5.3 5.3 0 110-10.6 5.3 5.3 0 010 10.6zm0-8.6a3.3 3.3 0 100 6.6 3.3 3.3 0 000-6.6z" fill="#fff"/></g><g transform="matrix(1.47637 0 0 1.5092 503.3 214.2)"><circle r="4.3" cy="251.7" cx="263" fill="#ed1c24"/><path d="M263 257a5.3 5.3 0 110-10.6 5.3 5.3 0 010 10.6zm0-8.6a3.3 3.3 0 100 6.6 3.3 3.3 0 000-6.6z" fill="#fff"/></g><g transform="matrix(1.47637 0 0 1.5092 503.3 214.2)"><circle r="4.3" cy="244" cx="267" fill="#ed1c24"/><path d="M267 249.3a5.3 5.3 0 110-10.6 5.3 5.3 0 010 10.6zm0-8.6a3.3 3.3 0 100 6.7 3.3 3.3 0 000-6.7z" fill="#fff"/></g><g transform="matrix(1.47637 0 0 1.5092 503.3 214.2)"><circle r="4.3" cy="236.7" cx="271.2" fill="#ed1c24"/><path d="M271.2 242a5.3 5.3 0 110-10.6 5.3 5.3 0 010 10.7zm0-8.6a3.3 3.3 0 100 6.7 3.3 3.3 0 000-6.7z" fill="#fff"/></g><g transform="matrix(1.47637 0 0 1.5092 503.3 214.2)"><circle r="4.3" cy="228.3" cx="275.6" fill="#ed1c24"/><path d="M275.6 233.6a5.3 5.3 0 110-10.7 5.3 5.3 0 010 10.7zm0-8.7a3.3 3.3 0 100 6.7 3.3 3.3 0 000-6.7z" fill="#fff"/></g><g transform="matrix(1.47637 0 0 1.5092 503.3 214.2)"><circle r="4.3" cy="219.2" cx="276.8" fill="#ed1c24"/><path d="M276.8 224.6a5.3 5.3 0 110-10.7 5.3 5.3 0 010 10.7zm0-8.7a3.3 3.3 0 100 6.7 3.3 3.3 0 000-6.7z" fill="#fff"/></g><g transform="matrix(1.47637 0 0 1.5092 503.3 214.2)"><circle r="4.3" cy="271.3" cx="219.8" fill="#0db14b"/><path d="M219.8 276.7a5.3 5.3 0 110-10.7 5.3 5.3 0 010 10.7zm0-8.7a3.3 3.3 0 100 6.7 3.3 3.3 0 000-6.7z" fill="#fff"/></g><g transform="matrix(1.47637 0 0 1.5092 503.3 214.2)"><circle r="4.3" cy="266.7" cx="227.7" fill="#0db14b"/><path d="M227.7 272a5.3 5.3 0 110-10.6 5.3 5.3 0 010 10.6zm0-8.6a3.3 3.3 0 100 6.6 3.3 3.3 0 000-6.6z" fill="#fff"/></g><g transform="matrix(1.47637 0 0 1.5092 503.3 214.2)"><circle r="4.3" cy="261" cx="234.8" fill="#0db14b"/><path d="M234.8 266.3a5.3 5.3 0 110-10.6 5.3 5.3 0 010 10.6zm0-8.6a3.3 3.3 0 100 6.6 3.3 3.3 0 000-6.6z" fill="#fff"/></g><g transform="matrix(1.47637 0 0 1.5092 503.3 214.2)"><circle r="4.3" cy="255" cx="242.2" fill="#0db14b"/><path d="M242.2 260.3a5.3 5.3 0 110-10.6 5.3 5.3 0 010 10.6zm0-8.6a3.3 3.3 0 100 6.7 3.3 3.3 0 000-6.7z" fill="#fff"/></g><g transform="matrix(1.47637 0 0 1.5092 503.3 214.2)"><circle r="4.3" cy="248.1" cx="247.6" fill="#0db14b"/><path d="M247.6 253.5a5.3 5.3 0 110-10.7 5.3 5.3 0 010 10.7zm0-8.7a3.3 3.3 0 100 6.7 3.3 3.3 0 000-6.7z" fill="#fff"/></g><g transform="matrix(1.47637 0 0 1.5092 503.3 214.2)"><circle r="4.3" cy="241" cx="252.4" fill="#0db14b"/><path d="M252.4 246.3a5.3 5.3 0 110-10.6 5.3 5.3 0 010 10.6zm0-8.6a3.3 3.3 0 100 6.6 3.3 3.3 0 000-6.6z" fill="#fff"/></g><g transform="matrix(1.47637 0 0 1.5092 503.3 214.2)"><circle r="4.3" cy="233.8" cx="256.6" fill="#0db14b"/><path d="M256.6 239.1a5.3 5.3 0 110-10.6 5.3 5.3 0 010 10.6zm0-8.6a3.3 3.3 0 100 6.6 3.3 3.3 0 000-6.6z" fill="#fff"/></g><g transform="matrix(1.47637 0 0 1.5092 503.3 214.2)"><circle r="4.3" cy="225.9" cx="261.5" fill="#0db14b"/><path d="M261.5 231.2a5.3 5.3 0 110-10.7 5.3 5.3 0 010 10.7zm0-8.6a3.3 3.3 0 100 6.6 3.3 3.3 0 000-6.6z" fill="#fff"/></g><g transform="matrix(1.47637 0 0 1.5092 503.3 214.2)"><circle r="4.3" cy="217.2" cx="263.7" fill="#0db14b"/><path d="M263.7 222.6a5.3 5.3 0 110-10.7 5.3 5.3 0 010 10.7zm0-8.7a3.3 3.3 0 100 6.7 3.3 3.3 0 000-6.7z" fill="#fff"/></g><g transform="matrix(1.47637 0 0 1.5092 503.3 214.2)"><circle r="4.3" cy="284.3" cx="208.8" fill="#f7941e"/><path d="M208.8 289.6a5.3 5.3 0 110-10.6 5.3 5.3 0 010 10.6zm0-8.6a3.3 3.3 0 100 6.7 3.3 3.3 0 000-6.7z" fill="#fff"/></g><g transform="matrix(1.47637 0 0 1.5092 503.3 214.2)"><circle r="4.3" cy="210.5" cx="271.3" fill="#f7941e"/><path d="M271.3 215.8a5.3 5.3 0 110-10.6 5.3 5.3 0 010 10.6zm0-8.6a3.3 3.3 0 100 6.7 3.3 3.3 0 000-6.7z" fill="#fff"/></g><g transform="matrix(1.47637 0 0 1.5092 503.3 214.2)"><circle r="4.3" cy="218.7" cx="270.4" fill="#f7941e"/><path d="M270.4 224a5.3 5.3 0 110-10.7 5.3 5.3 0 010 10.7zm0-8.7a3.3 3.3 0 100 6.7 3.3 3.3 0 000-6.7z" fill="#fff"/></g><g transform="matrix(1.47637 0 0 1.5092 503.3 214.2)"><circle r="4.3" cy="226.9" cx="268.3" fill="#f7941e"/><path d="M268.3 232.2a5.3 5.3 0 110-10.6 5.3 5.3 0 010 10.6zm0-8.6a3.3 3.3 0 100 6.6 3.3 3.3 0 000-6.6z" fill="#fff"/></g><g transform="matrix(1.47637 0 0 1.5092 503.3 214.2)"><circle r="4.3" cy="234.3" cx="264.7" fill="#f7941e"/><path d="M264.7 239.7a5.3 5.3 0 110-10.7 5.3 5.3 0 010 10.7zm0-8.7a3.3 3.3 0 100 6.7 3.3 3.3 0 000-6.7z" fill="#fff"/></g><g transform="matrix(1.47637 0 0 1.5092 503.3 214.2)"><circle r="4.3" cy="242.4" cx="260.7" fill="#f7941e"/><path d="M260.7 247.7a5.3 5.3 0 110-10.6 5.3 5.3 0 010 10.6zm0-8.6a3.3 3.3 0 100 6.7 3.3 3.3 0 000-6.7z" fill="#fff"/></g><g transform="matrix(1.47637 0 0 1.5092 503.3 214.2)"><circle r="4.3" cy="249.6" cx="255.3" fill="#f7941e"/><path d="M255.3 255a5.3 5.3 0 110-10.7 5.3 5.3 0 010 10.6zm0-8.7a3.3 3.3 0 100 6.6 3.3 3.3 0 000-6.6z" fill="#fff"/></g><g transform="matrix(1.47637 0 0 1.5092 503.3 214.2)"><circle r="4.3" cy="256.6" cx="249.3" fill="#f7941e"/><path d="M249.3 261.9a5.3 5.3 0 110-10.7 5.3 5.3 0 010 10.7zm0-8.7a3.3 3.3 0 100 6.7 3.3 3.3 0 000-6.7z" fill="#fff"/></g><g transform="matrix(1.47637 0 0 1.5092 503.3 214.2)"><circle r="4.3" cy="263.4" cx="242.7" fill="#f7941e"/><path d="M242.7 268.7a5.3 5.3 0 110-10.6 5.3 5.3 0 010 10.6zm0-8.6a3.3 3.3 0 100 6.6 3.3 3.3 0 000-6.6z" fill="#fff"/></g><g transform="matrix(1.47637 0 0 1.5092 503.3 214.2)"><circle r="4.3" cy="269.8" cx="235.1" fill="#f7941e"/><path d="M235.1 275a5.3 5.3 0 110-10.6 5.3 5.3 0 010 10.7zm0-8.6a3.3 3.3 0 100 6.7 3.3 3.3 0 000-6.7z" fill="#fff"/></g><g transform="matrix(1.47637 0 0 1.5092 503.3 214.2)"><circle r="4.3" cy="275.1" cx="227.1" fill="#f7941e"/><path d="M227 280.4a5.3 5.3 0 110-10.7 5.3 5.3 0 010 10.7zm0-8.7a3.3 3.3 0 100 6.7 3.3 3.3 0 000-6.7z" fill="#fff"/></g><g transform="matrix(1.47637 0 0 1.5092 503.3 214.2)"><circle r="4.3" cy="280.4" cx="218" fill="#f7941e"/><path d="M218 285.7a5.3 5.3 0 110-10.7 5.3 5.3 0 010 10.7zm0-8.7a3.3 3.3 0 100 6.7 3.3 3.3 0 000-6.7z" fill="#fff"/></g></g><g><path fill="#f7941e" d="M582.5 708.8h92.8v-34.7l-92.8-.1 10.8 17z"/><path d="M676.8 710.4l-97-.1 11.7-19.2-11.8-18.6h97.1v37.9zm-91.7-3.1H674v-31.7l-88.7-.1L595 691l-9.9 16.3z" fill="#fd0"/><path fill="#fd0" d="M675.1 692.5h-81.9v-3h82v3zM675.1 684.2h-86.7v-3H675v3z"/><g><path fill="#fd0" d="M675.1 702h-87v-3h87v3z"/></g><g><path fill="#ca6c18" d="M675.3 674V709l-48 9.5v-34.8z"/><path d="M627.6 719.8l-1.8-1.4v-34.8l1.2-1.5 48-9.5 1.8 1.5v34.8l-1.2 1.4-48 9.5zm1.2-35v31.7l45-8.9V676l-45 9z" fill="#fd0"/></g><g><path fill="#f7941e" d="M917.3 708.8h-93v-34.7l93-.1-10.8 17z"/><path d="M823 710.4v-37.8l97-.1-11.8 18.6 11.7 19.2h-97zm2.9-34.8v31.8l88.7-.1-9.9-16.3 9.9-15.5h-88.7z" fill="#fd0"/><path fill="#fd0" d="M906.5 692.5h-81.9v-3h82v3zM911.4 684.2h-86.8v-3h86.8v3z"/><g><path fill="#fd0" d="M911.7 702h-87v-3h87v3z"/></g><g><path fill="#ca6c18" d="M824.4 674V709l48 9.5v-34.8z"/><path d="M872.2 719.8l-48-9.5-1.3-1.4V674l1.8-1.5 48 9.5 1.2 1.5v34.8l-1.7 1.4zm-46.3-12.2l45 9v-31.8l-45-8.9v31.7z" fill="#fd0"/></g><g><path d="M748.6 736.5s34.3 1 69.9-4.8c35.6-5.8 54-13.4 54-13.4v-34.6s-18.4 7.5-54 13.4c-35.6 5.8-69.9 4.8-69.9 4.8h2.5s-34.3 1-69.9-4.8c-35.5-5.9-54-13.4-54-13.4v34.6s18.5 7.6 54 13.4c35.6 5.9 70 4.8 70 4.8h-2.6z" fill="#fff"/><path d="M755.5 738a292.4 292.4 0 01-11.3 0c-12.5 0-37.5-.5-63.2-4.8a277.3 277.3 0 01-54.3-13.5l-1-1.4v-34.6l2-1.4c.3 0 18.8 7.6 53.8 13.3a405 405 0 0067.1 4.8h6.9a405 405 0 0062.8-4.8c35-5.7 53.5-13.3 53.6-13.3l2 1.4v34.6l-.9 1.4c-.1 0-19 7.7-54.3 13.5a408.1 408.1 0 01-63.2 4.9zm-4.4-3h4.4c12.5 0 37.2-.6 62.8-4.8 30.6-5 48.6-11.4 52.7-13v-31.4c-5.7 2.1-23.5 8-52.3 12.8a407.8 407.8 0 01-74.5 4.8c-12.5 0-37.5-.6-63.2-4.8a300.8 300.8 0 01-52.3-12.8v31.5c4.2 1.5 22.2 8 52.8 13a405.1 405.1 0 0067.1 4.7h2.5z" fill="#fd0"/></g></g></g><g><path d="M768.8 671c6.7-4 8.9-17.2 8.9-17.2h13.2c3.1-3.1 4.5-8.8 4.5-8.8H702s1.3 5.7 4.4 8.8h13.3s2.2 13.1 8.9 17.2h40.2z" fill="#bacad3"/><path d="M768.8 672.5h-40.2c-.3 0-.6 0-.8-.2-6-3.6-8.5-13.4-9.3-17h-12c-.4 0-.8-.1-1.1-.4a23.3 23.3 0 01-4.8-9.5c-.1-.5 0-1 .3-1.3.2-.4.7-.6 1.1-.6h93.4c.4 0 .9.2 1.1.6.3.3.4.8.3 1.3 0 .2-1.5 6-4.8 9.5-.3.3-.7.4-1 .4h-12.1c-.8 3.6-3.4 13.4-9.3 17l-.8.2zm-39.8-3h39.4c5.7-3.9 7.8-15.8 7.8-16 .1-.6.8-1.2 1.5-1.2h12.6c1.5-1.7 2.5-4.1 3-5.8H704c.6 1.7 1.6 4 3 5.8h12.7c.7 0 1.4.6 1.5 1.3 0 .1 2 12 7.8 15.9z"/><path fill="#fff" d="M790 649.3h-82l-.9-1.7H791z"/><path d="M723.4 653h51l-.6 1.1h-42.1s1.2 8.3 3.7 9.9c2.6 1.6 6.5 1.8 10.4 1.8H770l-1.9 2.2H731s-4.7-3.5-6-8.3c-1.3-4.7-1.5-6.7-1.5-6.7z" fill="#6b7b84"/></g><g><path d="M642.1 711l3 .4c0 1.2 0 2.1.5 2.8.4.6 1 1 2 1.3.9.3 1.7.2 2.3-.1.6-.3 1-.8 1.1-1.4v-1.1c-.2-.3-.4-.7-1-1-.2-.3-1-.7-2.1-1.4a8 8 0 01-3-2.6 4.8 4.8 0 01-.5-3.7c.3-.9.7-1.6 1.3-2.2.6-.7 1.4-1 2.3-1.2.9-.2 1.9-.1 3 .2 1.9.5 3.2 1.3 3.9 2.5.7 1.1.9 2.5.5 4l-3-.6c0-.9 0-1.6-.4-2-.3-.6-.9-1-1.7-1.1-.9-.3-1.6-.3-2.2 0-.4.2-.6.5-.7 1-.1.3 0 .7.1 1 .3.5 1.1 1.1 2.5 2a14 14 0 013 2c.5.6.9 1.3 1.1 2.1.2.9.2 1.8 0 2.9-.3 1-.8 1.8-1.5 2.5s-1.5 1.1-2.5 1.3c-1 .2-2 .1-3.3-.2-1.9-.5-3.2-1.4-4-2.6a7 7 0 01-.7-4.8zM655.9 720.3l3.3-17 11.1 2.3-.5 2.9-8.1-1.7-.7 3.8 7.5 1.6-.6 2.8-7.5-1.5-1 4.6 8.4 1.7-.5 2.9-11.4-2.4zM670.3 723.2l2.6-17.1 6.4 1c1.6.3 2.8.6 3.5 1 .7.4 1.2 1 1.5 2 .3.8.4 1.7.2 2.7a5 5 0 01-1.4 3c-.8.8-2 1.2-3.3 1.2.6.5 1 1 1.4 1.7.4.6.8 1.6 1.4 3l1.3 3.7-3.7-.6-1.6-4-1.2-2.9-.8-.8c-.3-.2-.8-.3-1.5-.4l-.6-.1-1.1 7.1-3-.5zm4.6-9.4l2.2.4c1.5.2 2.4.3 2.8.2.4 0 .7-.3 1-.6l.5-1.2c0-.6 0-1.1-.2-1.5-.3-.4-.6-.7-1-.8l-2.3-.5-2.4-.3-.6 4.3zM687.7 708.4l3.1.3-1 9.4c-.2 1.4-.3 2.4-.2 2.8 0 .8.3 1.4.7 1.9a3 3 0 002 .8c.8.1 1.5 0 2-.3.5-.4.8-.9 1-1.4l.4-3 1-9.5 3.1.4-1 9c-.2 2.1-.4 3.5-.7 4.4-.3.8-.6 1.5-1.2 2-.5.6-1.1 1-1.9 1.2a7 7 0 01-3 .2 7.6 7.6 0 01-3.2-1 4.9 4.9 0 01-2.3-3.6c0-1 0-2.5.2-4.4l1-9.2zM701 727.3l1.3-17.3 4.6.4 1.8 12 3.7-11.6 4.6.4-1.3 17.3-2.9-.2 1-13.6-4 13.3-3-.2-2-13.9-1 13.7-2.8-.3zM718.6 728.6l.8-17.3 5 .3c1.8 0 3 .2 3.6.4a4 4 0 012 1.8c.6.9.9 2 .8 3.4 0 1-.2 2-.6 2.7-.4.7-.8 1.2-1.4 1.6-.5.4-1 .6-1.6.8-.8 0-1.8.1-3.2 0h-2l-.3 6.5-3.1-.2zm3.7-14.2l-.2 5h1.7c1.2 0 2 0 2.4-.2a2 2 0 001-.8c.3-.3.4-.8.4-1.3 0-.6 0-1.2-.4-1.6a2 2 0 00-1.2-.8c-.3-.1-1-.2-2.2-.2l-1.5-.1zM733 712h3.1l-.2 9.4v2.9c.2.7.5 1.3 1 1.7a3 3 0 002 .7c.9 0 1.6-.2 2-.6.5-.4.7-.9.8-1.5l.2-2.9.2-9.6h3.1l-.2 9.2c0 2-.1 3.5-.3 4.4a4.7 4.7 0 01-2.8 3.5 7 7 0 01-3 .5c-1.4 0-2.5-.2-3.2-.6a4.8 4.8 0 01-2.6-3.5c-.2-1-.3-2.5-.3-4.4l.2-9.3zM748.2 729.5l-.2-17.3h3l6.4 11.5-.1-11.6h2.8l.2 17.3h-3.1l-6.3-11.2.1 11.3h-2.8zM768.2 723.6l3-.5c.2 1.1.6 2 1.2 2.5a3 3 0 002.3.7c1-.1 1.7-.4 2.2-.9.5-.5.7-1 .7-1.7 0-.4-.2-.7-.4-1-.2-.3-.6-.5-1.1-.7a34 34 0 00-2.5-.6 8 8 0 01-3.6-1.6c-1-.9-1.5-2-1.6-3.4 0-.9.2-1.7.6-2.5.4-.8 1-1.4 1.8-1.9.8-.4 1.8-.7 3-.7 1.9-.1 3.3.3 4.3 1.2 1 .9 1.6 2.2 1.8 3.7l-3.1.3c-.2-.8-.5-1.5-1-1.8-.4-.4-1-.6-2-.5-.8 0-1.5.3-2 .7-.3.3-.5.7-.4 1.1 0 .4.1.8.5 1 .4.4 1.3.7 2.8 1 1.6.4 2.7.7 3.4 1.1.8.4 1.4 1 1.8 1.7.4.7.7 1.7.7 2.7 0 1-.1 2-.5 2.9-.5.9-1.1 1.5-2 2-.9.5-2 .7-3.3.8-2 .1-3.4-.3-4.5-1.3a7 7 0 01-2-4.3zM783.3 728.4l-1.3-17.3 11.3-.9.2 3-8.2.6.3 3.8 7.6-.6.3 3-7.7.6.4 4.7 8.5-.7.2 2.9-11.6 1zM795.8 710l6-.8c1.3-.1 2.2-.2 2.8-.1.6 0 1.1.2 1.6.5s1 .7 1.4 1.3c.4.5.6 1.2.7 2 0 .7 0 1.5-.3 2.2-.3.8-.8 1.3-1.4 1.7a4 4 0 012.3 1.3c.6.7 1 1.6 1 2.5.1.8 0 1.6-.2 2.4-.2.8-.6 1.4-1 2a4 4 0 01-2 1l-3.7.6-5.2.6-2-17.2zm3.4 2.5l.5 4 2-.3 2.2-.3a2 2 0 001.2-.8c.2-.4.3-.8.2-1.4 0-.5-.2-1-.5-1.3-.3-.3-.7-.4-1.2-.4l-2.6.2-1.8.3zm.8 6.8l.5 4.6 2.9-.3 2-.4c.5-.1.8-.4 1-.8.3-.4.4-1 .3-1.5 0-.6-.2-1-.4-1.3a2 2 0 00-1-.7l-2.8.1-2.5.3zM827.1 723l-3.3.5-2-3.7-6 1-.6 4.1-3.2.6 3.1-18.1 3.2-.6 8.8 16.1zm-6.7-5.9l-3-6-1 6.7 4-.7zM829.3 722.5l-3.5-16.9 3-.6 3 14 7.4-1.7.6 2.9-10.5 2.3zM855.8 715.7l-3.2 1-2.3-3.5-5.9 1.7-.2 4.1-3.1 1 1.2-18.4 3.1-.9 10.4 15zm-7.2-5l-3.7-5.6-.3 6.7 4-1.1zM857.9 714.9l-5.6-16.4 3-1 5.5 16.4-2.9 1z"/></g><g fill="#fff"><path d="M573.6 512.7l-.1-6.7h8l-8.1-7-.1-8.9 8 7.8 13.2-8.4.1 8.2-8.7 4.7 3.6 3.4h5.2v6.7l-21.1.2zM573.7 485.7l1.7-17.9 4.5.5-1 11.2 3.3.3 1-10.3 4.3.4-1 10.4 4.2.4 1-11.5 4.9.5-1.8 18.2-21.1-2.2zM576.3 462l2.4-10.8c.5-2.4 1.4-4 2.8-5 1.3-.9 3-1.1 5-.7 2.1.5 3.6 1.5 4.5 3 1 1.6 1.1 3.7.5 6.3l-.7 3.6 7.7 1.7-1.4 6.6-20.8-4.6zm10.3-4.5l.3-1.6c.3-1.3.3-2.2 0-2.8-.4-.6-.9-1-1.5-1.2-.7-.1-1.3 0-1.8.3-.6.4-1 1.2-1.2 2.4l-.4 1.9 4.6 1zM586.6 425.2l2.4-6.3 11.8 4.6c1.1.5 2.2 1 3 1.9 1 .7 1.7 1.7 2.2 2.8.4 1 .7 2.1.7 3.1 0 1.4-.4 3-1 4.7l-1.4 3.1a9 9 0 01-1.9 2.6 7.6 7.6 0 01-5.3 2c-1.4-.1-2.6-.4-3.5-.8l-11.9-4.5 2.4-6.3 12 4.7c1.1.4 2.1.4 3 0 .8-.3 1.4-1 1.8-2.1.4-1.1.4-2 0-3a3.7 3.7 0 00-2.2-1.8l-12-4.7zM592.2 412.5l3.3-5.8 13.8 8.3 5.1-9 4.5 2.6-8.5 14.8-18.2-11zM625.8 394.2l-4.7 6 2.1 3-4.1 5.3-11.6-19.9 4.4-5.7 21.6 7.2-4.3 5.4-3.4-1.3zm-4.4-1.9l-7.5-3 4.5 6.7 3-3.7zM628.8 364.4l4.6-4.7 9 9.2c.8.9 1.5 1.9 2 3a8 8 0 01.7 3.4c0 1.2-.2 2.3-.6 3.2-.6 1.2-1.5 2.5-2.8 3.8a29 29 0 01-2.5 2.3c-1 .7-2 1.3-2.8 1.5a7.5 7.5 0 01-5.6-.5c-1.2-.6-2.2-1.4-3-2.1l-8.8-9.2 4.6-4.7 9.1 9.4c.8.8 1.7 1.3 2.6 1.3 1 0 1.8-.4 2.6-1.2.8-.8 1.2-1.7 1.2-2.6 0-1-.4-1.9-1.2-2.7l-9.1-9.4zM658.6 362.4l-5.9 4.6 1.3 3.5-5.3 4.1-6.6-22.1 5.7-4.5 19.2 12.3-5.4 4.3-3-2.2zm-3.9-2.9l-6.4-4.7 2.8 7.6 3.6-2.9zM657.9 340.7l5.3-3.1 12.7 6.4-5.8-10.5 5.4-3 10.5 18.8-5.4 3.1-12.7-6.3 5.8 10.3-5.4 3.1-10.4-18.8zM696.5 321.4l11.7-3.5c2-.6 3.7-.6 5 .1a5 5 0 012.6 3.2 5 5 0 01-.2 3.5c-.3.8-1 1.5-1.8 2 1.6 0 2.8.3 3.8 1 1 .6 1.6 1.6 2 3a5.8 5.8 0 01-1.3 5.8 28.7 28.7 0 01-5 2.5l-10.8 3.2-6-20.8zm8.7 6.3l2.7-.8c1-.3 1.6-.7 1.9-1.2.3-.4.3-1 .1-1.6-.1-.6-.5-1-1-1.3-.4-.2-1.1-.2-2 .1l-2.9.8 1.2 4zm2.3 8.1l3.2-1c1.1-.2 1.8-.7 2.1-1.2.4-.5.4-1.1.3-1.8a2 2 0 00-1.1-1.3c-.6-.2-1.4-.2-2.5.2l-3.2 1 1.2 4.1zM735.9 330.6l-7.4 1.1-.5 3.7-6.6 1 4.7-22.6 7-1.1 11.1 20.2-6.7 1-1.6-3.3zm-2-4.4l-3.5-7.4-1.2 8 4.6-.6zM745.4 311.2h6l8.3 11.8-.2-12 6.1-.1.4 21.7h-6.2l-8.1-11.7.2 11.9h-6.2l-.3-21.6zM781.3 326.9l.7-4.5 10 1.8-1.5 9.1c-2.2 1-4 1.6-5.6 1.8a17 17 0 01-5.3-.2c-2.5-.4-4.4-1.2-5.9-2.3a9 9 0 01-3-4.5c-.5-2-.6-4-.2-6.2.4-2.3 1.2-4.2 2.4-5.8a9.3 9.3 0 014.8-3.2c1.5-.4 3.5-.4 5.9 0 2.3.4 4 1 5 1.5 1.1.7 2 1.5 2.6 2.5.6 1 1 2.3 1.1 3.8H786c-.1-.9-.5-1.6-1-2-.5-.6-1.3-1-2.2-1.2-1.5-.2-2.7.1-3.7 1-1 .8-1.7 2.3-2 4.5-.4 2.3-.3 4 .4 5.2a4.5 4.5 0 003.3 2.1h2.1a11 11 0 002.5-.6l.3-2-4.3-.8zM800.2 317l6.1 2.2-2.7 7.7 9.2-5.3 8.2 3-10 5 3 15.6-7.6-2.9-1.2-10-4.4 2.3-1.8 5-6.1-2.3 7.3-20.4z"/><path d="M828.3 349.3l-6.5-3.6-2.6 2.6-5.9-3.3 17.3-15 6.2 3.5-3.3 22.9-6-3.4.8-3.7zm1-4.7l1.7-8-5.7 5.7 4 2.3zM860.1 349.5l9.3 8.2a6.9 6.9 0 012.6 4.3c.1 1.5-.3 2.9-1.3 4-.8 1-1.8 1.6-3 1.7-.7.1-1.6 0-2.6-.4 1 1.3 1.3 2.5 1.3 3.7 0 1.2-.5 2.3-1.4 3.3-.7.9-1.5 1.5-2.5 1.8-1 .3-2 .4-3 .2-.6-.1-1.4-.5-2.3-1.1l-2.4-1.8-8.6-7.5 14-16.4zm-5.9 17.3l2.6 2.2c.8.8 1.5 1.1 2.2 1.1a2 2 0 001.5-.7c.4-.5.6-1 .5-1.7 0-.6-.6-1.3-1.4-2l-2.6-2.2-2.8 3.3zm5.5-6.5l2.1 2c.8.6 1.5 1 2 1s1-.3 1.4-.8c.5-.5.6-1 .5-1.5 0-.6-.4-1.2-1.2-1.8l-2.2-2-2.6 3.1zM878.7 366.4l11.9 13.2-3.4 3.2-7.4-8.3-2.5 2.3 7 7.7-3.3 3-6.9-7.7-3 3 7.6 8.4-3.5 3.3-12.1-13.4 15.6-14.7zM894 384l4 5.5-12.8 9.7 6 8.4-4.1 3.2-10-13.8 17-13zM906.5 402l3.4 5.7-18 11.3-3.5-5.7 18.1-11.4zM913 412.4l7.9 18.7-4.8 2.1-2.7-6.3-14.6 6.5-2.6-6.1 14.6-6.5-2.7-6.3 4.8-2.1zM925.8 450.6l1.5 6.5-12.3 3c-1.2.2-2.4.3-3.6.2a7.5 7.5 0 01-3.2-1.2c-1-.6-1.8-1.4-2.3-2.2-.8-1.1-1.4-2.6-1.8-4.4l-.5-3.4c-.2-1.3-.1-2.3.1-3.2a8 8 0 013.3-4.7c1.3-.7 2.4-1.2 3.4-1.4l12.3-3 1.5 6.6-12.6 3c-1.1.2-2 .8-2.4 1.6-.5.7-.6 1.7-.4 2.8.3 1.2.8 2 1.6 2.5.7.4 1.7.6 2.8.3l12.6-3zM928.3 464l.5 6.3-11.1 9 11.7-.8.5 6.3-21.2 1.6-.5-6.3 11-9-11.6 1-.4-6.4 21.1-1.6zM915.8 501.5l4.4.3-.6 10.3-9-.5c-1.2-2-2-3.9-2.4-5.4a18.2 18.2 0 011.2-11.7c1-1.5 2.3-2.7 4-3.5 1.8-.8 3.8-1.1 6-1 2.3.1 4.3.7 6 1.8 1.6 1.1 2.8 2.6 3.6 4.5.6 1.5.8 3.5.7 6a17 17 0 01-1 5.3 7 7 0 01-2.1 2.9c-1 .7-2.1 1.2-3.5 1.5l-.8-6.5c.8-.2 1.5-.6 2-1.2.4-.6.7-1.4.7-2.4.1-1.5-.3-2.7-1.3-3.6-1-1-2.5-1.5-4.6-1.6-2.3-.1-4 .2-5 1-1 .9-1.6 2-1.7 3.6 0 .8 0 1.5.2 2.2.2.7.5 1.5 1 2.4l2 .1.2-4.5z"/></g><g fill="#fff"><path d="M646.8 257.2h14c3 0 5.4.7 6.9 2.2 1.5 1.5 2.3 3.6 2.3 6.3 0 2.8-.9 5-2.5 6.6-1.7 1.6-4.2 2.4-7.6 2.4h-4.6V285h-8.5v-27.8zm8.5 11.9h2c1.7 0 2.8-.3 3.5-1 .6-.5 1-1.2 1-2.1 0-.9-.3-1.6-.9-2.2-.6-.7-1.6-1-3.2-1h-2.4v6.3zM674.5 285v-27.8h14c2.6 0 4.6.2 6 .7 1.4.4 2.5 1.3 3.3 2.5a7.8 7.8 0 011.3 4.5 7.6 7.6 0 01-3.6 6.7c-.8.5-1.8.9-3 1.1l2.2 1 1.3 1.5 1.2 1.8 4.1 8h-9.5l-4.5-8.5c-.6-1-1.1-1.8-1.6-2.1-.6-.5-1.2-.7-2-.7h-.8V285h-8.4zm8.4-16.5h3.6l2.2-.4c.6-.1 1-.4 1.4-.9.3-.5.5-1 .5-1.6 0-.9-.3-1.6-.8-2-.6-.6-1.6-.8-3.2-.8H683v5.7zM702.3 271.1c0-4.5 1.2-8 3.7-10.6 2.5-2.5 6-3.8 10.4-3.8 4.5 0 8 1.2 10.5 3.7 2.4 2.5 3.6 6 3.6 10.5 0 3.3-.5 6-1.6 8-1 2.1-2.6 3.7-4.6 4.9a15 15 0 01-7.6 1.7c-3 0-5.6-.5-7.6-1.5s-3.7-2.6-5-4.7a16 16 0 01-1.8-8.2zm8.4 0c0 2.9.5 5 1.5 6.1 1 1.3 2.5 1.9 4.2 1.9 1.8 0 3.2-.6 4.2-1.8 1-1.2 1.5-3.4 1.5-6.5 0-2.6-.5-4.6-1.5-5.8a5.3 5.3 0 00-4.2-1.8 5 5 0 00-4.1 1.9c-1 1.2-1.6 3.2-1.6 6zM730.8 257.2h8.8l6.1 20 6-20h8.6L750.2 285h-9.1l-10.3-27.8zM763.4 257.2h8.5V285h-8.5v-27.8zM778 257.2h7.8l10.3 15.4v-15.4h8V285h-8l-10.2-15.3V285h-8v-27.8zM808.2 275.8l8-.5c.2 1.3.5 2.4 1 3a4.4 4.4 0 003.8 1.8 4 4 0 002.7-1c.7-.5 1-1.2 1-2 0-.6-.3-1.3-1-1.9-.5-.5-2-1-4.2-1.6-3.7-.8-6.4-2-8-3.4a6.9 6.9 0 01-2.3-5.3c0-1.5.4-2.8 1.2-4.1.8-1.3 2-2.3 3.7-3 1.6-.7 3.8-1.1 6.7-1.1 3.5 0 6.1.7 8 2 1.8 1.3 2.9 3.4 3.2 6.3l-8 .5c-.1-1.3-.6-2.2-1.3-2.8-.6-.5-1.6-.8-2.8-.8-1 0-1.7.2-2.2.6a2 2 0 00-.7 1.6c0 .4.2.8.6 1.2.4.3 1.3.7 2.8 1 3.7.8 6.3 1.6 8 2.5 1.5.8 2.7 1.8 3.4 3a8 8 0 011.1 4.2 9 9 0 01-5.5 8.4 16 16 0 01-6.6 1.1c-4.6 0-7.8-.9-9.6-2.7a10.9 10.9 0 01-3-7zM837.5 257.2h8.4V285h-8.4v-27.8z"/></g></svg>