<svg xmlns="http://www.w3.org/2000/svg" width="2400" height="1500"><g fill-rule="evenodd"><path d="M0 1500h2400V0H0v1500zm856-552c1 13 1 29 5 40 3 5 9 11 15 7 6-3 10-9 15-12 4-4 8 2 10 5a398 398 0 00191 145 392 392 0 00442-130c6-6 11-16 17-21 3-1 6 3 8 5 5 3 9 9 15 9 5 1 8-5 11-7 4-12 5-29 5-41 4 0 6 3 9 4 13 1 16-14 15-22s-6-15-9-23c-3-7-6-15-6-24-4-26 9-51 27-68l-2-5c-21 5-48 14-55 33h-3c-1-15 9-29 22-35l-2-6c-9 1-18 2-26 6-11 4-22 15-26 25-6 13-5 27-4 40-8 1-12 11-14 17v4h-10c1-11 5-21 6-31V320c0-5 1-13-3-16-5-3-10 0-16-1H946c-5 0-13-1-15 5v550c-1 13 5 24 7 36-3 0-7 0-8-3-2-6-5-17-14-18 3-17 1-37-10-51-6-6-12-11-20-14-8-4-17-5-26-6-3 7 4 9 8 13 8 6 13 16 12 27h-2c-7-8-13-16-24-21-9-6-20-8-30-11-4 3-3 6 0 8 18 20 29 49 22 76-2 12-13 25-14 37 0 6 0 13 6 18 2 3 6 3 9 3 3-1 6-4 9-4z" fill="#006530"/><path d="M1493 470h-126c-6-2-6-8-7-11-5-20-27-25-42-26-16-2-35 2-50 2-13-1-27-4-40-9-6-3-11-1-17 2-21 9-44 8-67 5-17 0-35 0-50 10-4 3-9 8-11 13-2 4-3 12-7 14-10 2-21 0-31 1h-94v369c-1 26 6 53 21 75a294 294 0 00501 0c21-30 20-67 20-101V471v-1zM957 853l3 2c2 16 14 31 19 45 6-1 10-7 16-7 2 6 8 11 10 16 3 4 1 6-3 7l-9 6 12 15 7 8 6 8h2c4-4 9-12 14-7l8 6c2 2 4 5 7 6 0 7-10 8-11 14l8 6c8 7 17 12 25 18h1c1-4 5-9 7-12 3-2 7 3 10 4 3 2 10 4 12 8-1 5-6 9-7 14 14 5 29 15 43 17 0-5 3-10 4-15l24 6-2 10c0 2-1 5 1 6 7 3 14 3 21 4 9 3 20 1 28 4v-14c0-4 6-4 8-4 4 1 12-2 14 2l1 15 26-3 25-4-3-17c8-1 17-6 24-6l3 15c15-3 31-11 43-18-1-5-5-8-6-13-1-3 6-5 7-6l7-5c8-7 11 6 15 11l16-12c5-4 12-8 15-13-4-5-12-10-7-15 4-6 12-9 14-15 3 0 5 3 7 5l6 7 25-31v-2c-5-1-9-6-13-7 1-5 7-11 10-17 3-7 12 1 16 3 8-8 11-22 16-31 2-5 6-12 2-16l-12-11c-14-11-31-17-45-27-11-8-22-19-32-25l-24-19c-2-2-7-5-7-8s2-5 5-7c2-2 6 0 9-1 6 0 7-6 12-7 4-2 8-1 12-1 9-2 3-10 2-14 1-3 0-6-1-8-2-1-4-3-7-2 1-4-2-8-1-11 2-6 9-7 13-11 2-3 4-7 8-8 3-2 7-2 9-5 2-4-5-8-5-12l-4-5h-7c0-2-2-5-4-6 0-4 1-8 5-10 6-4 6-9 8-14 3-5 9-6 11-10l-6-6c-3-3-4-7-10-7-4 2-8-3-11-4-1-5 1-8 4-11 3-5 1-13 5-18 2-2 5-5 3-7s-5-3-8-3c-1-3-4-5-7-4-3 2-5 2-8 0-4-1-6 2-9 2 0-2-2-5-1-7 1-3 1-5 3-7-5-7 0-15 2-21-2-2-5-2-8-2l-8-3-3 5-7-1c-6 0-7-4-6-9 1-4-1-6-2-9-2-5 1-12-2-15h-6c-2 1-4 0-7-1l-3 6-11 1c-1-5-1-10-4-14-4-4-2-10-4-14-6 1-15 2-15 8-3 0-7 2-9 1-4-2-4-8-8-11-4-2-4-9-7-11l-10 5c-1 2-1 7-6 7v7c0 5 2 12 7 14l6-5h9c1-6 7-5 11-4v7l-4 2c2 3 2 9 4 11 3 3 7-2 11-2s9 2 13 0c6-3 8 4 8 8h-5l1 13c2 5 8 2 12 2s8 1 12 4c1-2 6-4 8-1 2 2 2 7-1 8-5 2-6 7-5 12 0 4 3 6 7 5 6-1 11 2 15 6 2 2 6-1 8 1s3 4 3 7c-6 0-7 8-9 12-1 4 0 7 3 7l9 3c3 1 4 6 8 8 2 2 6 1 8 5 1 3-1 6-3 7l-8 1c-4 1-5 7-9 9-5 8 6 9 9 13 5 5 5 14 14 15 0 3 0 7-3 9-4 3-8-3-13 1l-11 9c1 4 5 7 9 7l3 16 5 6v8l-9 1c-2-2-3-5-6-5-3-1-8 2-12 2-3 1-7 4-7 7 1 4 5 8 5 13 1 5-2 11-1 14s3 6 2 8c0 3-2 5-5 7-8-4-16-17-29-9-7 4-12 14-20 20-3 3-7 7-11 5-6-5-9-12-12-19l-11-17c-4-5-2-11-3-17l-3-30c0-15-5-34-3-48 3-8-1-16-2-24 0-4-2-9-1-13s7-4 10-4c0-3 0-8 5-8v-5h-7c-2-7-3-14-2-22h-15c-2-4-6-6-5-12 0-6 4-9 9-9 0-2 0-5-3-6v-9c-6 0-13 1-18-5-2-2-5-2-7-5-2-2-2-4 0-6-1-2-1-3-3-3 0-3-3-5-4-7 0-4 3-5 5-6-3-2-3-5-2-8h-5l-2-13c-2 4 0 13-7 13 1 3 1 5-1 8v1c2 0 5 2 3 5-3 2-6 5-7 9 1 4 0 6-1 9l-11 7c-5 2-10 1-14 1 1 5-1 9-2 13 1 3 7 3 7 7 1 5-1 10-4 14s-11 1-15 2v18c-2 0-2 3-2 4h-6v5h4v8c4 0 8 0 10 4 3 4-2 11-1 16l-1 8c0 3 0 5-2 6 2 18-1 37-2 56l-4 40c0 10-8 18-11 28-2 6-6 14-16 13-11-3-14-17-23-23-9-7-24-1-29 9-5 0-11-3-11-8-7 0-10-11-11-16-1-6-8-10-9-17l-5 1c-1-4-4-8-5-14 0-4 0-9-2-14-3-7-8-14-8-23l1-12c1-4-1-7-1-10 0-7-1-15 1-20 3-6 5-11 5-18-1-10 1-21 8-29 2-3 2-7 5-10 6-11 16-20 24-30 2-7 8-8 14-11l7-7c1-2 3-6 6-6 0-6 8-8 11-11-6-1-11 2-15 6l-8 12c-3 3-8 5-12 7-7 4-9 13-15 18-11 9-16 22-23 34-2 5-6 10-6 14 0 11 0 21-4 30-2 4-4 8-4 12 1 7 4 13 4 20l-3 13c1 7 5 13 8 19 4 6 3 13 5 20 1 11 15 18 17 28l7 14c4 4 9 9 13 10-1 6-9 10-13 14-18 15-35 30-54 43-18 12-40 19-55 36zm64-194c-2-10-12-24-22-20h2v3h-3v-2h-2v2c6 10 14 15 25 17zm-21-59c4 10 12 19 23 20-2-4-2-10-5-14-3-5-8-8-11-10l-2 2 1 4-6-2zm29 100c-6-8-15-21-28-14 0 8 8 11 14 13 4 0 9 2 14 1zm-20-140c2 9 10 18 20 21-1-9-4-23-16-25v3h-4v1zm6 6h3v-3h-3v3zm2 164c8 6 20 9 30 4-4-5-11-9-16-11l-5-2-6 3-3 6zm10-206c3 11 9 20 20 23 0-10-4-23-15-25v4l-5-2zm5 6h3v-3h-3v3zm9 108c9-3 22-9 23-21-2 4-6 8-10 8 0-4 5-9 8-9-8-2-16 6-18 13l-3 9zm2 33c6-2 12-7 15-11 3-3 8-14 1-15-11 0-16 18-16 26zm7-69c6 1 15-2 19-5 3-2 7-6 8-9-2-1-2-3-6-4-9 0-15 8-19 15l-2 3zm7 105c5-5 9-12 11-19 0-4 0-10-4-10s-6 4-8 7c-4 6-2 17 1 22zm-1-55h3v-3h-3v3zm1-78c1 2 5 0 6 0 7-2 15-2 21-10 0-1 2-3 1-4-3-5-11-3-15 0-6 3-9 10-13 14zm7-87c2 5 2 11 5 15 3 5 6 8 11 11 4-7-1-20-5-24l-8-4c-1 1-1 2-3 2zm10 251c3-1 5-5 6-8 2-3 2-6 3-10 0-4-1-9-4-12-7 2-10 11-9 17 0 4 3 9 4 13zm6-175h3v-3h-3v3zm7-25c8 6 20 6 27 0 6-6-7-10-11-8-6 1-11 4-16 8zm19-45c7-3 10-15 10-21 0-4-2-8-6-9-4 4-6 9-7 14 0 6 2 11 3 16zm8 20c9 5 21 8 29 1 3-6-9-9-13-8-6 1-11 4-16 7zm2-12l1 1-1-1zm19-10l1 2c11 1 19-3 26-10-1-6-5-7-10-5-9 1-12 8-17 13zm69-45l7 6v10c2-1 4-4 7-4l8 4c-2-3-2-8-1-10l8-5-13-1-1-6h-2c0 8-8 5-13 6z" fill="#049658"/><path d="M855 949c2 13-1 31 7 42 4 7 11 8 17 4l15-13c10 12 18 26 29 37 10 11 19 22 30 31a392 392 0 00480 46c48-29 87-69 119-114 8 6 16 18 26 15 11-5 11-18 12-27 2-7 0-14 2-21 5 6 16 5 20-2s4-16 1-24c-4-10-9-19-11-29-4-15-3-34 3-47 3-7 7-14 12-20 4-5 11-10 8-18-22 3-48 14-57 33-3-14 10-28 21-33l-2-8c-16 1-34 5-45 17-13 14-15 31-14 49l1 5c-8 1-12 11-14 17v4h-8l6-30V367v-60c-1-5-7-5-11-5H948c-5 1-12-1-16 2-3 3-2 9-2 13v531c-1 15 2 30 7 45-6 1-7-7-9-11-2-5-6-10-11-10 3-17 1-35-9-50a58 58 0 00-42-20l-7-1-2 8c12 5 24 20 22 32-10-15-25-24-41-28l-13-3c-3-1-5 2-6 5 5 7 13 14 17 22 5 10 9 20 10 31 3 18-4 35-12 51-4 8-4 20-1 27 3 8 15 10 22 3zm-18-127c19 25 25 60 11 89 3 0 5-3 8-4l27-16 14-8c4-3 10-5 11-11 2-12 2-26-4-38-4-10-17-20-27-20 7 6 11 15 11 24 0 5 0 10-2 15-1 6-6 7-11 6-3-19-20-32-38-37zm6 101c-2 5-7 16 0 20 4 2 4-7 3-9-2-3-3-7-3-11zm20-9c3 8 1 16 3 24 8-8 19-14 28-21 10-6 19-15 29-20 0-6-4-11-5-16h-2c-1 4-8 5-11 9-15 7-27 17-42 24zm1 50l1 1-1-1zm6 23c5-8-1-14-4-21-2 6 1 17 4 21zm12-49c9 9 10 19 15 30a386 386 0 00668-31c-9-5-17-12-26-18l-20-14c-5-4-13-4-15 3-8 15-20 32-29 45a317 317 0 01-522-25l-12-22c-4-7-11-3-16 1-15 9-28 21-43 30v1zm622-628H972c-11 1-24-1-34 1v478c0 36-4 74 11 109a306 306 0 00539 19c7-13 11-28 14-43 3-11 2-22 2-34V310zM946 460h123c6-3 6-12 9-17 14-26 48-24 71-22 20 3 41 1 61-6l10-4c3-1 6 1 9 2 25 10 53 9 80 6 21 0 55 3 58 35-9-20-31-29-52-28h-16c-17 1-35 2-52-2-8-1-15-5-23-7-6-2-13 4-20 6-12 4-26 6-39 5-19-1-38-4-57 1-17 4-33 18-35 36H958c-5 0-12-2-15 3v383c2 38 23 72 46 100a303 303 0 00478-13c11-17 22-34 27-53 9-34 5-70 6-104V621v-80-39-20c0-6 1-14-3-18-3-3-10-2-15-2h-114l-1-7c6 4 17 3 26 3h95c4 0 8 1 11-3 2-2 1-6 1-9v-73-54c-7-3-13-4-20-3H967c-6 0-15-1-21 1-5 3-2 11-3 16v97c0 10-1 22 3 30zm39 546c1 0 3 3 5 1 1-1 4-3 2-5l-5-5c-2-3-7-11-11-5l-1 6-4 5-11 11c-3-3-6-2-8 1-2 1 2 5 2 6l8 7c1 1 4 3 6 0 2-2 0-5 2-7l10-11 5-4zm-33-556h114c1-14 12-25 24-32 23-11 55-9 77-4 9 0 21-3 29-4 8-2 15-6 23-9 6-2 14 4 21 6 13 3 27 6 40 5 20-2 40-4 60 1 18 4 34 18 36 37h114c2-8 1-17 1-25v-89c0-3 1-8-1-10-13-2-26 0-39-1H960l-8 1v124zm540 21h-127c-5-3-5-8-6-12-5-19-27-24-43-25s-34 2-49 2c-13-1-27-4-39-9-6-3-11-1-16 2-21 9-45 8-67 5-17-1-37 1-50 10-4 3-9 8-11 13-2 4-3 12-7 14-10 2-21 0-31 1h-94v367c-1 26 6 52 21 75a292 292 0 00499 0c21-30 20-67 20-101V472v-1zM954 853l3 3 2 3 41-5 1 4c7-1 14-5 21-4 13 0 26 6 39 5 9 0 17-6 27-6 7-1 14 1 20 5 10 6 22 3 32-2 8-3 21-2 31 2l-36 26-19 14-9 6c-3 2-7 4-7 8 8 0 19 2 24-4l51-43v11c-3 2-2 7-2 12 7 1 18 0 24-3 0 5 4 6 8 5 1 5 8 8 7 15-3 1-3 4-3 6 6 1 13 3 19 1 1-6-4-14 0-19 2 3 7 1 11 0h2v9c-1 2-4 3-4 7l19 2c3-2 2-7 3-9l1-10 3-10v6h3c1-9-2-17-7-24-6-9-15-5-23-6-7 0-13 0-19-2-8-2-12 2-16 6-2-2-4-5-8-5v5c-1-2-4-3-6-3l1 6h-4l-2 7c-2-3-3-7-5-8l27-23 6-6c1-2 1-5 4-6l9-1 8 6c-2 2 1 5 3 6l49 42 24 21c4 3 9 8 13 9h18v-2c-22-18-47-33-70-51 5-4 14-5 21-5 8-1 13 4 19 5 5 2 12 1 17 0l13-6c17-6 35 10 52 5l13-5h20l10 3c3 1 6 2 7 4h2l4-8 20 2c7 2 14 0 21 3l1-1c-2-7-8-11-13-15-8-8-19-13-29-18-15-7-28-19-41-30-15-9-28-20-41-31l1-3-3 1c-2-2-2-3-2-5-3 1-5-3-7-5-8-6-21-10-30 1-6 8-14 19-23 22-9-10-13-24-22-35-4-5-3-10-4-16-1-4 1-9-1-14 2-4-2-8-1-12-1-14-4-30-4-44v-21l-2-12c0-3 0-8-3-9v14h-23l-1-6h-4v6h-33v-4h-4l-1 4h-22l1-10h22v5h4l1-5h17c4 1 13-2 15 3 4 0 4-3 4-6l-1-3 4-3c6-3 14-1 21-2v3h2c2-3 6-5 10-4 0-3 0-8 5-8v-7h-7v-4c-7-2-15-1-22-1l1-14-2-2h-2v16h-4v-15h-4l1 15h-10v-16h-2l-2 2 1 14h-4l1-16h-4v16h-29l-27 1v4h-6v7h4v8c4 0 7 0 9 3 4 4-1 11 0 15l-1 8c0 3 0 5-2 6 1 19 0 37-2 56l-2 20-2 19c0 10-7 18-11 28-2 6-6 16-16 13-10-4-13-17-23-23s-24 0-29 10l-4-1 1 3-31 26c-15 13-30 27-47 36s-35 18-49 32zm33 199c5 0 12 13 17 4 0 2-2 6 1 8 1 2 5 0 7-1-2 6 3 9 7 11 2 2 5 4 8 4 2-1 4-5 1-6 1-5 7-10 9-15l5-5c3 1 9-3 5-7-4-3-10-8-15-7l-13 10c0-7 8-17 2-22l-10-7c-5 0-4 6-3 9-4 5-10 11-13 18h-6l-2 5v1zm14 0l4 3c0-4 4-9 4-13l-8 10zm6-403h3v-3h-3v3zm2 391l1 1-1-1zm5 21c1 2 3 2 5 2 1-4 5-6 6-9-4 1-7 5-11 7zm4-171h3v-3h-3v3zm20-186l3 2v-3l-3 1zm13-77h3v-3h-3v3zm16 465l2-3 9 3v5c-3-1-5 0-5 2-2 3 0 4 2 5l8 4c2 0 6 2 7 1 3-3 1-5 0-8v-11l1-15c0-4 0-9-5-10-4-2-8 2-10 5l-9 9-8 7c-2 1-6 1-7 5 0 4 7 6 10 7 5 3 9-3 5-6zm-11-356l4 3c0-2-2-3-4-3zm11-244h3v-3h-3v3zm12 592v-4l-3 2 3 2zm9-162c0 5 4 8 9 7 4 0 6-4 6-8-1-5-6-6-10-6-3 1-5 4-5 7zm9 2l-1-4-3 2c0 2 3 2 4 2zm19-104v1h204v-2h-40v-4l-1 4h-56v-80c4 1 8-1 12 1l4 4 4 3c1-15-3-34-3-47l-1-25-1-13c-2-3-5-4-6-7l-7 5-6-6-7 6c-3 0-5-4-7-5-7 6-6 14-7 22-2 24-2 49-5 73h-4c0-16 2-32 3-47l2-25c-1-7 3-18-1-23-3 0-4 3-6 4-3 0-4-3-6-4-2 2-4 6-7 4-7 51-9 103-15 155h14v-20c1-7-3-13-1-18-2-2-4-3-7-3v-9c3-1 6-1 8 1 0 2-2 3-3 4 9 1 6 14 7 20v25h5v-29l1-15c1-3 5-7 6-11-2-3-6-3-6-8 3-1 7 3 9 1l4-6 2-2 7-5h10v80l-99-1v2zm0 300c6 0 11 3 17 3l1-7-4-1 4-15 5 25c3 0 6 3 10 1 2-3 2-7 3-10 2-7 3-15 6-20l3 1 1-8c-6 0-11-3-17-3 0 3 0 7 3 8l-2 10-1-1-4-19c-6 0-11-3-17-3v7l3 2c-3 8-2 21-11 23v7zm10-588l3 2 1-1-2-2-2 1zm43 54c33 2 67 0 100 1l-100-1zm3 270l1 1-1-1zm1-217v1h23l1-2c-2-2-4-2-6-2v-3l6-1v-4h-22v4h3v4l-5 1v2zm3 14c2-2 4-6 7-6 0 2 2 5 4 6 2-2 5-6 9-3v-5h-22c0 2 0 6 2 8zm-1-83l7-1v-3h-7v4zm4 188c1 4-4 8-3 11 2 2 4-1 5-1 1-2 4-3 4-5 0-3-3-5-6-5zm-3-147h23v-3l-4-3c-5-3-13-1-19-2v8zm8-51l5-1v-10c-1-4-4-5-7-7l3-1v-9l1 9h4v-8h2l-1 7 5 1v-8h2l-1 7 5 1v-8h27l-1 8h4v-8h2v8h4v-8h2v8l5-1c-1-3-1-6 1-8v9c5 0 5-3 5-6v-3h2c0 4 0 8 4 11l-5 2 1 3c1-2 5-2 7-2 0-3 0-7-3-8v-9c-4-1-11 1-14-1-3-4-5-6-9-7l-1 2 5 5h-37v-3l-9 4h-11v9c-2 2-2 3-2 6 1 2 6 3 7 6 0 3 0 7-2 10zm-5 63h14v-8h-14v8zm7 157c2 11 0 23 1 34h23v-2c-5 0-5-6-5-10v-13c-4 0-9-1-12 1-2 3 0 9-1 12 0 4 2 10-4 10v-27c7 1 16-1 22 1l1-5c-3-3-8-2-12-2l-13 1zm1-5c7 2 16 0 23 1l-23-1zm1-5c7 2 14 0 22 1v-2c-7 1-17-1-22 1zm4-6h18v-3c-6 1-15-1-18 3zm1 98l1 1-1-1zm2-104h15v-4c-5 0-12-2-15 4zm5-155c2 3 4 5 3 8h31c0-3 1-6 3-7-12-2-25 0-37-1zm1 49c4-5 8-2 11 2 2-2 4-7 7-7 3 1 5 5 7 7 2-2 4-6 7-6 0 2 2 4 4 5 1-4 0-9-5-9l-21 1-11 1 1 6zm-1 97c2 2 7 0 10 1-3-1-8-3-10-1zm1-110v1c11 1 24-1 34 1l1-2v-2h-17c-5-1-13 1-16-1l-2 1v2zm1 240l-1-3 1 3zm-1 230c3 1 6 1 8-2 2-2 4-4 7-3-2 4 0 11-1 17 0 4-5 8-5 13l20 1 1-8-5-1c2-8 0-16 1-23h2l5 8 6-2v-6l-3-9c-8 0-18 2-25 0h-6c-2 4-5 10-5 15zm1-479v2c10 1 23-1 33 1l1-1-1-4h-33v2zm3-108c2 1 5-2 7-2 0-3-2-5-1-7 3-11 13-7 18 0-1 2-3 5 1 7h1v-6c1-2 0-4-2-4 0-3-3-6-4-8 2-2 5-2 7-3l-5-4 3-6h-7l-2-17h-2c-1 5-1 13-3 17h-6l3 6-5 4c2 1 5 0 7 3-2 3-7 5-8 9v6l-2 5zm7 400c0 5 5 8 9 7 4 0 6-4 6-8-1-5-5-6-9-6-4 1-6 4-6 7zm1-299h13v-8h-13v8zm4 273l1 1-1-1zm1 28l4-1-2-3c-2 1-2 2-2 4zm9-144l1 5h22v27h-2c-4-4-1-11-2-17 1-8-8-6-13-6 0 7 1 16-1 23h-4v2h23c1-11-1-24 1-33-3-3-8-2-12-2l-13 1zm1-31c2 2 8 1 10 1-2-3-7-1-10-1zm0 8h14l-1-3h-13v3zm0 6v1h18c-4-4-12-2-18-3v2zm0 8v1h23c-5-5-16-2-23-3v2zm0 4c7 2 16 0 23 1l-23-1zm1 114l-1-3 1 3zm4-11l-1-3 1 3zm11-245v3h-3l-1 5h26l-1-6v-6c-8-2-17-1-25-1 0 2 1 5 4 5zm-2 16c3-2 6 2 8 4l2-3c1-1 3-3 5-1l4 4c2-2 5-9-1-9h-19l1 5zm6 101l-4 1 6 3c-1 5 0 9 3 13 5 6 2 16 3 23v24h5v-26c1-5-2-18 7-19l-4-1v-4h9v9c-3 0-5 1-7 3 2 6-2 12-1 18v20h14c-1-26-5-53-7-79-3-26-3-53-7-79l-2 3c-3 0-6-3-8-4-2 1-3 2-3 4-4 1-7-3-9-4v23l5 72zm-4 0v-2l-1 1 1 1zm2-127h13v-8h-13v8zm3 270l1 1-1-1zm1 12v-2l-1 1 1 1zm11-137l-2-5 2-6-7 2c0 2-2 5 0 6 2 2 4 3 7 3zm2-12c1-4-2-6-5-5-1 4 2 6 5 5zm-4 96l1 1-1-1zm3 2l2 2-2-2zm3 2l2 2-2-2zm17 274c0-3-1-7-4-7v-5l10-1 1 4-3 2 1 6 20-3-1-7c-6-1-8-10-11-14-3-5-8-11-9-16l-11 1-4 19-2 9c0 3-1 6-4 7l1 5c1 2 4 1 6 1l10-1zm-12-633h3v-3h-3v3zm1-19h3v-3h-3v3zm2 15h3v-3h-3v3zm1-7h3v-3h-3v3zm6 624h3c0-2 0-4-3-4v4zm83 0l-3-1c10-8 11-27 0-35-9-6-24-2-30 5-7 9-5 23 4 30 6 4 13 3 18 8 3 2 6 2 9 2s6-2 8-3c3-2 9-6 5-9-3-3-9 1-11 3zm-27-188c1 7 7 9 12 7 3-1 4-9 2-11-2-3-8-4-11-1l-3 5zm2 167c0 8 7 17 14 13 6-3 4-10 2-14-1-3-4-7-8-8-5 0-8 5-8 9zm4-168c0 2 1 3 3 2v-2h-2-1zm13-385h3c0-2-1-3-3-3v3zm5 384h3v-3h-3v3zm3-194h3v-3h-3v3zm3 4h3v-3h-3v3zm8 217h3v-3h-3v3zm5-400h3v-3h-3v3zm38 520c2 3 5 6 9 6 3 0 7-3 6-6 0-5-2-9-3-13-1-6-4-12-4-17 1-3 1-6-2-7-2-1-5 2-8 3l-21 14-7 4c-3 1-5 4-8 4 0 4 1 7 5 7 8 4 15 13 22 18 3 4 8 3 10-1 4-2-1-9 1-12zm-32-324h3v-3h-3v3zm7-32h3v-3h-3v3zm4 344l5 5 7 6c0-4-3-9-6-11-2-2-4-2-6-1v1zm4-474h3v-3h-3v3zm2 9h3l-1-6h-3l1 6zm6 41h3v-3h-3v3zm12 424l-2-7c0-2-2-6-4-5l-2 2c-1 2 2 4 3 5l5 5zm1-418h2l1-2-3-1v3zm49 393c-3-3 3-8 5-10l3 3c-1 1-1 5 2 6l6-3 5-5c2-2 5-4 3-6-3-4-8-2-12-5-4-2-9-3-13-6-4-1-11-6-15-3l-5 5 3 8 8 18c2 4 1 9 4 11 3 4 8-4 10-5 3-4 1-10-4-8zm-8-16l1 4 4-1-5-3zm61-117c11 5 20 14 30 20 9 7 21 14 29 22-2-8-1-17 1-25-9-4-19-12-27-16-8-7-20-10-26-17-4 4-6 11-7 16zm75 14c-14-29-8-64 11-88-11 1-25 11-31 18-4 5-6 11-7 18h-9c-2-8-5-16-3-25 0-8 6-14 9-21-23 6-33 26-31 47 0 6 0 15 4 18l46 27c3 2 8 6 11 6zm-21 76c3-5 4-15 5-23l-7 11c-1 3-1 9 2 12zm27-64l-4 12c-1 2-1 6 1 7 3 4 6-5 6-7l-3-12z" fill="#332c2b"/><path d="M832 942v-2l-1 1 1 1zm2-108l1 1-1-1zm5-21l2 1-2-1zm7 79v-2l-1 1 1 1zm2 60l2 1-2-1zm10 29v-2l-1 1 1 1zm43 10l1 1-1-1zm32-114v-2l-1 1 1 1zm-1 152l1 1-1-1zm2-148v-2l-1 1 1 1zm17-430h116c1-14 12-25 24-32 12-6 25-7 38-8 12 0 23 2 35 3 19 1 38-4 55-12 4-1 7 0 10 2 13 5 29 8 41 9 22 0 43-5 65 0 9 2 19 5 26 12 8 6 12 15 14 25h103c4-1 13 2 14-4V333l-1-8c-4-2-10 0-14-1H969c-6 0-14-1-18 1v126zm0 597l1 1-1-1zm25-703c6 0 7 5 6 9v21c0 4 2 15-6 14v6h21c9 0 20 2 27-8 6-8 0-18-9-20v-3c6-1 11-9 9-15s-9-9-15-9l-33-1v6zm18 18c5-1 12 1 16-2s4-11-1-14l-15-1v17zm0 25c6 0 13 1 17-2s3-13 0-15c-5-3-12-2-17-2v19zm146 490v-3c-6 0-13 2-19 0-11-2-21-6-32-6-10 0-19 4-28 4-8 0-16-3-24-6-7-1-15 0-21 2-8 3-3 10 0 15l4 6c3 3 9 0 14 1 9 0 19 5 25 7 7 1 13-1 20-3 9-5 21-5 30-3 9 3 18-7 25-11l6-3zm274 25c-7-1-13-3-20-1-9 2-18 7-28 4-9-2-18-6-28-5v3c15 8 28 19 42 28h-320l24-16 11-9c4-2 10-5 10-9-7-1-14-2-21 1-8 4-18 7-27 5l-15-5c-5-1-9 0-14 1 1 6 8 12 12 17 7 8 14 17 23 23 4 4 8 9 12 10 6 1 10-3 15-4 15-6 31-5 44 2 7 2 15 2 21 1 9-4 21-13 34-7 10 5 20 9 31 8 10 1 19-2 27-7 17-10 33 5 47 7 12 0 21-11 35-10 9 0 18 3 27 6 6 3 12 8 19 1l22-20 10-12c3-3 7-7 7-12zm-355-508h19v-6h-5l2-12h11l8 1c2 2 3 8 2 10l-4 2-1 5h24v-6c-5 0-7-7-8-10l-9-26c-2-5-4-15-12-14-5 0-6 7-8 11l-8 21-4 10c-1 4-3 8-7 8v6zm20-24h12l-2-10c-1-2-2-7-6-7-1 6-4 11-4 17zm8 589c5 1 10 6 15 9l14 7c10-3 21-8 32-4 8 4 17 7 27 6 8-1 15-4 23-6 15-3 30-2 45 1 10 2 21 6 31 3 8-1 15-5 22-6 6-1 12-1 17 1l13 5c3 1 6-1 8-2 7-5 17-9 24-15-1-3-6-5-8-6a47 47 0 00-28-3c-9 4-18 10-29 9-9-1-17-6-26-8-8-3-15-1-22 3-12 7-27 9-40 4-10-2-19-9-29-8-13 4-28 15-44 8-16-9-30-8-45-2v4zm5 174l2 1-2-1zm24-312h205v-4h-40l-8-85-2-20-2-30-2-16-1-14c-2 1-4 3-4 5h-1l-6-5c-2 1-4 3-4 5-3 0-5-3-6-5-4 1-4 6-4 10l2 27h-2c-2-10-1-20-2-31l-1 1-6-7-6 6-7-7-7 7-7-6-7 10-1 14h-2c0-8 2-19-2-25l-7 6c-2-1-3-4-4-6l-6 7c-2-1-3-2-3-4-4 27-5 54-8 81-2 27-6 54-7 82l-42-1v5zm15 160l10 5a247 247 0 00171-3v-3c-7-2-17-3-24-2-6 2-12 6-18 6-12 2-23-4-35-5-17-3-35 1-52 5-9 2-19 1-27-2-8-4-16-4-25-3v2zm17-637c7-1 8 4 7 9v24c0 3 1 9-2 11-4 0-6 3-5 6h21v-6c-8 1-6-10-6-15v-20h3l11 25 6 12c2 5 8 4 12 4v-49l6-1v-6h-13l-7 1-1 5c7-1 8 6 7 11v16h-3c-3-12-11-21-15-33-7 1-16-1-21 1v5zm12 472v1h54v-78c-5-1-11 0-14 5-3 2-6 7-8 11-5-5-9-3-14-2 5 0 10 1 13 5l-7 11c-2 7 0 15-1 22v23h-7v-26c0-4-2-9-1-12s-2-7-6-7v-3l3-1-1-2-5 1v7c5 0 7 3 6 7 2 12 3 24 2 36h-14v2zm1-227c4 3 10 1 14 2h102v-2h-116zm6-4c3 3 9 1 12 2h46c15-1 32 1 45-1h1c-3-3-9-2-13-2h-70c-6 1-16-1-21 1zm3-3l5 1v-17h-5v16zm2 58h25c1-3 1-6-3-6h-2l6-2v-6h-24v6h3v2l-5 1v5zm1-39l2 5h23v-2c-8-4-16-3-25-3zm3 53l6-7c1 2 2 5 5 7l6-6 2 4h2v-9h-24c0 3-1 8 3 11zm-2-31v1h24l1-4h2v4h35v-6h2l1 6h26c-2-3-1-8-1-12h-26l-1 3c-3-5-12-2-16-3h-18-1l-1 5h-2v-5h-24l-1 11zm1 135c0-1 1-4-1-4l1 4zm2-175h5v-17c-4 1-7 2-6 6l1 11zm-1 183l2 2 6-5c0-3-1-4-3-5-1 3-2 6-5 8zm4-145h12v-6h-12v6zm1-80c1 3 10 4 7 11 4 2 10 0 15 1h47c0-6 5-7 8-11l-1-1c-25-2-51 0-76-1v1zm3 42h4l1-17v16l6 1v-17h8c1 5-1 12 1 17l4-1v-16h8v16h6v-16h8v16h6v-16h7v16h6c1-5-1-12 1-16l1 2c-2 3 0 9-1 14h6c0-8 1-16-4-23-1-4-6-4-10-4h-49c-3 0-6 0-7 3-4 7-3 17-3 24l1 1zm0-44h3c0-3 1-9-3-9v9zm1 235c3 3 9 1 13 2 5 0 11 1 14-1-3-3-9-2-14-2-4 0-10-1-13 1zm0 4l1 2h26v-2c-4-2-10 0-14-1-4 0-10-1-13 1zm1-9l1 2h24v-4h-13c-4 0-9-1-12 2zm0 45h25v-32h-25v32zm3-275h4c-1-3 2-6-2-8-3-1-2 5-2 6v2zm0 271h20v-23c-1-3-7-2-9-2h-11v25zm1-62h2l1-12h-2c0 4-2 8-1 12zm1-13h2l2-28h-2l-1 15-1 13zm0 29h20v-5h-13l-6 1-1 4zm0 45h15v-22l-15 1v21zm2-103h2c2-9 1-19 2-28h-2l-1 15-1 13zm0 50c6 2 12 0 18 1v-5c-6 0-14-2-18 4zm2-217h4c-1-3 2-6-2-8-3-1-2 5-2 6v2zm0 265l7-1 1-8v-4l-7 1c-2 1 0 5-1 7v5zm1-221h6v-16h-6v16zm0 219h5v-10c-4-1-5 2-5 5v5zm1-201c5 6 15 3 21 4 6 0 13-1 19 1 0-2 2-3 3-4-14-2-29 0-43-1zm1-74c7 2 14 0 21 1h21l-6-8c-6-2-12-1-18-1-5 0-11 0-15 4l-3 4zm0 221c1 2 4 2 6 2h7v-3c-4 0-10-2-13 1zm1-94h2c0-2 3-4 5-5l6 6 7-8 5 7c3 0 6-4 8-6 1 3 3 5 6 7v-8h2c0 1 0 3 2 4l3-3 5 6 4-6h2c1 3 3 4 5 6h1c1-3 3-5 3-9-1-4-8-2-10-3h-15v4h-2c0-4-4-4-6-4h-17c-5 1-12 0-16 2v10zm1-23l1 1c11 0 23-1 35 1v-7h-35l-1 5zm0 9c12 0 24-1 36 1l1-6c-12 0-25 1-36-1l-1 1v5zm1-101h4c0-3 1-6-1-8-3-2-3 3-3 4v4zm0 71h35l-1-3h-33l-1 3zm2 133c2 2 6 0 8 1v-2c-3 0-6-1-8 1zm4-204h4c0-3 1-6-1-8-3-2-3 3-3 4v4zm3-22h19l1-6c-4-6-13-10-18-5-3 3-3 8-2 11zm0 65l5 1v-16h-5v15zm3-43h4c0-3 1-6-1-8-3-2-3 3-3 4v4zm1 82h11v-6h-11v6zm5-82h4c0-3 1-6-1-8-3-2-3 3-3 4v4zm4 43h6c0-4 1-10-1-14-5-3-6 5-5 8v6zm1 235h54v-3h-14v-25l2-12c-1-4 2-6 6-6v-7h-7v2h4v3c-4 0-7 5-6 9l1 2c-3 4-1 11-2 16v18h-7v-31l-1-14-7-11 2-4-2 1c-3-4-6-10-10-11-2-6-8-5-13-5v78zm1-278c4 0 5-2 5-6v-3c-2 1-4 0-5 2v7zm1 235c3 3 9 1 13 2 5 0 11 1 14-1-3-3-9-2-14-2-4 0-10-1-13 1zm0 4l1 2h26v-2c-4-2-10 0-14-1-4 0-10-1-13 1zm9-34c-2-3-6-2-8-2 0 2 2 2 3 2h5zm-8 6h13c-3-6-9-3-13-3v3zm0 7h17v-1c-3-5-11-4-17-4v5zm0 7h20c0-4-3-5-7-5h-13v5zm0 7h25v-1c-3-4-8-3-12-3h-13v4zm0 43h25v-32h-25v32zm2-4h20v-25h-20v25zm2-271h4c0-3 1-6-1-8-3-2-3 3-3 4v4zm1 269c4 0 9 1 14-1 2-4 0-10 1-14 1-8-10-6-15-6v21zm7-451c3-6 7-13 16-12-1 14 1 30-1 43h-6v6h25v-6h-6v-43c8-1 12 6 16 12l4-2-3-12c-1-3-4-9-6-5-12 0-27 1-38-2-1 7-9 18-1 21zm-2 446v-11c2 0 5 1 5-1h-6l1 12zm0-264h4c0-3 1-6-1-8-3-2-3 3-3 4v4zm0 43h5c0-5 2-15-5-15v15zm2 23l1 1h14c4 0 9 1 11-4-8-2-20-1-26 3zm4 29c-4 0-4 4-4 7h28c0-3 0-6-3-7 2-3 0-8-3-8h-22c0 3 0 7 4 8zm-1 71h2c0-5 1-11-3-14l1 14zm-1 97l1 1-1-1zm2-82h2l-1-14h-2l1 14zm0-181h4v-9c-3 0-4 2-4 5v4zm1 195h2l-1-13h-2l1 13zm1 14h2l-1-12h-2l1 12zm3-127h10v-6h-11l1 6zm1-82h6l-1-9h-4l-1 9zm4 213c2 2 6 0 9 2 0-2-2-3-4-2h-5zm9 15l-5-5c1-2 3-3 3-5h-1l-4 4c-1 1 3 4 3 4l4 2zm-4-184l4-1v-16h-5c0 5-1 12 1 17zm17-93l-6-1c2-2 4-4 6-4l-2-8 6 1c0-3 2-8 0-11-2-4-7 0-10 1-5 2-5 7-10 10v8c-1 4 0 7 2 10 2 4 6 5 9 2 3-2 4-6 5-8zm-11 268c0-1 1-4-1-4l1 4zm0-176l5 1v-17h-5v16zm7-88l1 1-1-1zm1-19l1 1-1-1zm35 29l-6-3c2-2 6-3 8-3v-8c1 2 4 3 6 3 0-2 1-5 3-6-1-3 0-9-5-9l-11 3c-2 1-3 3-3 5l-8 1 1 9c-4 1-4 3-3 6 1 5 2 12 8 10 3-2 9-5 10-8zm-12 369c2 3 7 5 10 7l18 12c6 3 11 0 16 0 9-2 17 4 25 6s17 1 25-2c11-4 23-3 34-2 3-8 12-16 12-25-11-4-23-8-35-3-20 9-36-3-55-1-4 0-7 3-11 5-7 2-14 4-20 2s-13-2-19-1v2zm11 273l2 1-2-1zm32-618c0-4-4-4-7-6 3-2 8-2 10-2 0-3-1-6 1-9 1 1 2 4 4 4s3-3 4-4c1-2 4-7 2-10s-7-1-9 0c-4-3-8-1-10 2v2l-10 1c-1 3 0 6 1 9h-5c-1 4 0 9 1 14 1 6 7 5 11 2l7-3zm-17-184c10 0 7 13 7 19 0 8 1 18-1 25h-6v6h35c5 0 12 1 13-6l5-13-4-2c-4 4-5 10-11 12-6 3-13 2-19 2-1-6-2-12 0-18h8c2 2 2 4 2 7h6v-22h-6v7l-11 1v-13c0-4 4-4 7-4 4 0 10 1 13 3 4 2 6 6 8 9l4-2-6-16c-6-3-12 0-18-1h-26v6zm45 214c0-4-5-6-6-9l10 2 2-8h2l2 6h3c0-4 11-9 7-15-2-2-7-2-10-3-2-1-6-2-8 0l-2 3c-3-3-12-2-12 2-1 5-6 5-7 10 0 4-3 11 2 14 4 2 11-2 17-2zm2 173h4c0-3 1-8 3-11 3 3 3 9 3 13 5 0 10-3 14-1-2 2-5 4-6 7 3 3 9 4 13 6 4 1 10-2 9-8-1-3-3-6-2-9 0-4-1-7-4-8l-5-1c0-3 0-7-2-10-2-2-7-1-9-1l-2 1-4-5c-5-2-12 1-17 3-5 1-6 4-6 9 1 4 5 6 7 9l4 6zm-4-8l1 1-1-1zm3 4l1 1-1-1zm23-133c0-4-5-7-5-11l9 5c4 0 3-7 7-7l1 4 1 3c3-2 8-3 12-8 4-6-3-9-8-9 0-3-4-5-8-4l-4 2c-2-2-4-3-7-3-2 0-3 3-5 2l-2 4c-3-1-7 2-8 4l-4 9c-1 4 1 8 5 8l16 1zm3 92l-1-11c4 1 6 7 7 10 4 0 6-5 11-5l-2 9c6 0 11 1 16-1 3-1 3-5 2-7l-4-6c-1-3-2-7-4-8h-8l-2-5-1-1v-2c-5-1-9 3-11 4-5-5-9-2-13 1l-8 7c-1 4 2 8 6 9s7 6 12 6zm-18 258l1 1-1-1zm9-307c4-2 9 3 13 2 0-4-3-8-2-11 3 2 7 7 11 7 1-3 4-5 6-7v9l8-2c3-1 7-1 9-5 3-3-3-7-4-8l-7-7c-2-1-5-2-8 0-3-3-7-6-11-6-1 4-5 6-9 5-6-1-9 8-12 11-4 6 1 9 6 12zm-4-93l1 1-1-1zm13 164l1 1-1-1zm8-130l1 1-1-1zm7-234l6 1v37l-1 5-5 1v6h21l-1-5c-8-2-6-10-6-16v-20h3c5 14 14 27 19 41h10v-28-15c-1-5 2-7 7-7l-1-5-6-1h-14v6l6 1v26h-3c-2-9-9-16-11-25-2-4-3-8-9-8h-15v6zm1 284l1 1-1-1zm15 472l1 1-1-1zm92-211v-2l-1 1 1 1zm73 92v-2l-1 1 1 1zm7-30l2 1-2-1zm5-89v-2l-1 1 1 1zm4-14v-2l-1 1 1 1z" fill="#fefefe"/><path d="M833 819c6 9 13 18 17 29 3 9 5 20 5 30 0 18-10 34-16 51-1 6-1 16 6 15 5-2 2-11 0-15-1-4-1-10 2-14 4-5 14-8 20-13l33-20 8-5c3-4 1-10 2-15v-14c-2-19-18-37-37-36 7 6 13 14 14 24 0 9-1 23-11 22-3-23-23-32-43-39zm28 96c6 8 2 20 3 29 5-10 20-17 30-25l31-22-3-9c0-3-2-6-3-8-5 0-9 5-14 7-15 9-29 19-44 27v1zm10 75c2-6 3-13-1-19-3-5-6-11-6-17h-2l2 19c1 6 2 13 7 17zm9-52c2 4 7 6 9 12 3 10 6 20 12 29a390 390 0 00646-4c9-11 7-30 20-36-1-3-5-5-8-7l-28-20c-7-5-22-19-29-5a314 314 0 01-192 158 314 314 0 01-343-119l-17-25c-4-6-6-18-12-20-7-1-11 3-16 6l-42 30v1zm625-629H954l-17 1v479c1 36-4 74 10 109a306 306 0 00288 170 305 305 0 00254-150c7-13 11-28 14-43 3-11 2-23 2-34V309zM947 459h117c8 1 9-5 11-11 8-26 37-30 58-29l33 2 30-3c9-1 19-7 27-9 15 6 35 13 50 10 16 2 31-2 47-1 13 1 26 3 36 12 4 3 8 8 9 13 2 4 2 10 6 13 11 2 22 0 33 1h80c5 0 14 1 15-6V320c-7-3-13-4-20-3H948c-5 3-4 11-4 16v96c0 10-1 22 3 30zm420 4c-1-21-21-31-37-34-24-5-48 1-71-1-9-1-18-4-26-6-3-1-7-4-10-4-3-1-7 2-10 3-13 5-26 8-40 8-20 0-41-5-61 0-18 4-35 17-38 36H961c-5 0-12-1-17 3v382c2 38 23 72 46 100a303 303 0 00332 94 305 305 0 00144-108c12-16 23-33 27-53 9-34 5-69 6-104V620v-79-40-19c0-6 2-14-4-18-5-2-10 0-15-1h-113zm-415 553c5 4 9 11 14 13l2-2-2-4 11-11c3-4 8-9 12-5l3-3-12-14-4 4 2 4-11 10c-3 4-6 8-11 5l-4 3zm36 34c2 4 9 5 12 9l3-4c-5-3 0-8 2-11l8-10c0 5-4 11-5 15l-3 12c2 6 10-2 13-4l14-11c-3 7-10 13-13 19l-4-2c-2 1-3 3-3 5 5 3 12 11 17 7v-2l-3-1c2-6 7-10 9-15l6-6 4-1 3-2c-2-3-5-4-8-6-8-7-15 4-22 8l-1 1c0-7 4-12 5-18s-8-9-12-13l-3 4c4 3-2 10-4 13l-9 11-3-2-3 4zm36-389c-5-11-11-30-29-23-1 11 13 19 21 21l8 2zm-27-23l1 1-1-1zm28-15c-3-6-2-14-7-19-3-4-9-11-16-7 1 1 3 2 3 4-2-1-4-2-4-4l-2 2c2 14 14 20 26 24zm-26 17l1 1-1-1zm33 61c-5-3-5-10-10-13-3-2-6-4-9-4l-8-2-6 5c1 9 13 13 21 14h12zm0-114h2c-5-7-4-14-7-21-3-6-11-13-16-10l1 2-4-1c0 7 3 14 9 18 3 5 13 6 15 12zm-24 60l1 1-1-1zm8-83l1 1-1-1zm0 161v6l8 4c9 4 19 1 28 0-5-3-11-10-18-12l-10-2-8 4zm34-174c-2-3-2-7-2-10-1-9-9-22-18-19l1 3-3-3-2 1c1 6 4 14 8 18l16 10zm-23 74l2 3c-4 6 0 14 1 20 1 9-3 19 0 30 4 8 12 16 9 28 3 4 2 11 8 16 4 4 11 8 11 14h-3c5 3 6 10 10 15 4 4 10 9 15 11l3-3c-3-4-8-5-8-10-7 0-10-11-11-16-1-7-9-10-9-17l-5 1c-2-6-6-13-5-20 0-6-6-14-5-19-5 0-4-9-5-13 0-4 2-10 1-14-4-10 8-12 14-15 5-3 11-7 13-13 3-3 3-9-4-9-6-1-12 7-15 11-3 5-3 13-8 17h-2c1-6 0-12 2-17 9-13-2-36 17-48v-1h-2c1-8 8-15 12-20 5-5 10-13 16-16-2-8 10-9 13-12 6-3 9-13 14-13l-1-2c5-7 13-10 20-14-7 0-12 3-19 4v-2c-2 4-8 7-10 12l-6 7c-1 2-3 4-5 3-3 3-9 4-12 9-4 8-9 14-16 21-7 8-12 22-19 33-4 6-3 13-3 20l-5 20-3-1zm6-97l1 1-1-1zm2 62v-2l-1 1 1 1zm4 115l-2-2c0 1 0 2 2 2zm5-32c5-4 11-6 15-12 3-5 7-13 2-18-7 2-13 4-15 11-3 7-4 12-2 19zm3-70c6 1 15-1 20-3l9-7c1-2 3-4 1-6-2-4-7-4-11-3s-8 4-10 7c-4 3-7 9-9 12zm5 22l1 1-1-1zm4 85c5-6 11-14 13-21 0-4 1-11-4-12-3-1-8 3-10 6-4 8-1 21 1 27zm10 389l2-5-3-2 5-5c2 2 7 2 10 6l-1 5-3-1-3 4c4 4 12 5 16 8 3-3 1-7 0-10l1-20v-9c0-3-5-4-7-5l-14 13-6 7c-2 2-5 4-7 3l-3 4 4 3 9 4zm-11-524l1 1c9-2 22-1 30-12 3-5-3-10-8-8-6 0-11 3-15 8-3 3-4 7-8 10v1zm1 49l6-7c-3 1-7 5-6 7zm1 26l1 1-1-1zm25-132v-13c0-6-1-12-6-16-4-5-8-4-13-3 1 6 2 13 6 18 3 6 10 10 13 14zm-14-28l1 1-1-1zm8 251c4-7 9-15 8-24-1-4-3-10-7-10-4 2-6 6-8 9-1 9 1 19 7 25zm-2 341c1 2 4 3 6 4l1-10c-3 1-4 4-7 6zm7-521l1 1-1-1zm4-22v1c9 3 19 5 27 1 4-1 8-6 3-9-2-3-7-4-12-4-6 2-12 5-17 10l-1 1zm22-41c2-6 8-10 9-18 1-5 2-12-2-15-3-4-6-3-8 1-8 11-3 21 1 32zm3-24v-2l-1 1 1 1zm0 40l1 1c5 0 11 4 18 4 4 1 9-1 13-2 7-7-2-13-8-13-7 0-14 4-19 7l-5 2v1zm7 605l15 3 1-4-4-2c0-6 3-14 5-21l3 15 3 14c3 0 6 3 8 1l3-9 5-21 4 1 1-6-15-3c0 2 0 5 3 6l-3 15c-3-7-4-15-6-23l-15-3v5c5 2 0 11 0 15l-2 8c-1 2-2 4-4 3l-2 1v5zm15-626c5 2 13 0 18 0 6-2 12-7 14-13l-3-2c-13-7-21 5-27 14l-2 1zm70-47l8 7c1 3-1 9-2 12h2l8-5c3 0 6 3 9 5h1c-1-3-3-7-2-11 1-3 6-5 8-6v-2l-13-1-2-9h-2c0 3-2 7-4 9-3 2-8 1-11 1zm0 661l1 1 4 1c2-4 4-6 8-8l2 2-1 16-1 8c-2 1-4 3-4 6 6 0 12-1 18 1l1-6-5-1c2-9 0-18 2-26 4 2 7 5 9 9 1-1 4-2 4-4l-3-7-1-4c-9 1-20 2-28-1-4 3-4 10-6 13zm66 24l13-2-1-4-4-2 1-6 12-1 2 5-4 3 2 4c4-2 11-2 17-3l-1-5c-6-1-8-10-11-14-3-5-8-11-9-16l-9 1-4 19-2 9c0 3-1 6-4 7 0 2 0 4 2 5zm11-19l6-1-4-9-2 10zm70-1c2 3 6 7 11 7s10-4 13-6l2-2-4-4c-3 3-9 6-13 3 9-8 15-25 0-34-9-6-23-2-28 6-6 9-3 22 6 28 4 2 10 3 13 2zm-12-22c0 8 8 19 16 14 5-2 5-10 3-15-2-4-5-9-10-9-6 0-9 5-9 10zm72-7c3 0 5-2 7-4 2-1-1-6-1-8v-6l11 9c1-2 4-3 6-4l-5-19-3-11c0-3 1-6-1-9l-12 7v2l3 3c3-2 5 4 6 7 0 4 3 8 3 11l-14-14 2-3-2-4c-5 3-10 5-14 9l5 4c7 3 10 11 10 18l-16-15 2-2-2-4c-5 1-9 6-14 7 0 5 4 4 7 6l22 20zm41-76l8 19 4 10c1 3 0 6 4 9l9-9-2-5-5 2-2-5 8-7c4-1 5 2 4 6l3 2 6-6 7-5-4-4c-6 1-12-3-17-5l-16-8-7 6zm10 6c1 3 2 7 4 9l5-4-9-5zm61-115l32 22c10 7 21 15 30 24-1-10-3-22 3-28l-28-17-15-9-7-5-5-4c-5 0-7 8-8 11l-2 6zm92-78c-17 6-40 15-43 39h-7c-3-8-6-17-3-26 2-8 7-16 13-20-8-1-19 5-24 9-9 8-12 19-13 30 0 11-2 26 8 30l40 24c5 4 11 6 15 10 3 4 4 10 2 14s-4 9-2 14c3 4 7 1 8-3 4-13-8-27-12-39-4-14-4-28-2-42 3-12 8-23 16-33l4-7zm-37 171c4-4 5-10 6-16 0-6 2-13 1-19-1 7-4 12-8 18-3 5-1 12 1 17z" fill="#fff000"/><path d="M980 902c4-3 10-7 14-8 2 6 9 14 12 19l-14 7c0 4 4 7 6 10 6 9 13 17 21 25 4-3 7-8 12-11 5 5 11 12 17 16l-12 11c11 10 23 19 36 27 3-4 5-11 9-14 5 5 14 8 19 13l-8 12c12 10 32 14 45 20 3-4 3-11 6-16 6 3 14 4 21 6 0 5-3 11-4 16l26 5c9 1 18 0 27 3v-17l11-1 12 1v16c18-1 35-4 52-7-1-5-1-12-3-16l22-7c1 5 2 12 5 16l22-8c7-3 14-9 22-11-1-4-5-10-8-14 6-5 15-8 20-13l7 15h2c10-9 26-17 33-27l-11-11c5-7 13-11 18-18l11 13c9-11 19-22 27-34-4-4-11-7-14-9 5-6 8-14 13-19l14 8c6-15 17-31 19-45l-42-4c-1 6-5 9-7 14a242 242 0 01-341 99 239 239 0 01-61-54l-8-11c-3-4-5-8-9-10-3-12-12-21-15-33l-2 1-1-4-21 2c-6 1-16 1-21 3 4 15 13 32 21 44zm79 28c2 3 7 2 10 2h310v-2c-25-19-52-35-79-53l-19-14c-5-4-11-6-16-9l-44-29v2c-6-3-13 4-19 7l-18 13-11 7-17 10c-6 3-12 10-18 10l1 3c-7 3-14 9-21 13l-29 20-30 20zm30-8c0 4 5 7 8 6s5-4 4-7c-2-3-4-5-8-5-2 1-4 4-4 6zm3 0c1 2 3 4 5 3 1-1 2-3 1-4-1-2-3-2-4-1l-2 2zm9-12c6 2 17 1 21-2l88-74v-2h-1l-108 78zm73-23l18-1 7-5c1-2 1-6 3-8 4 6-3 10-4 14 2 2 5 1 7 2 3 2 5 6 7 9 2 2 1 7 5 7v3c-3-2-7-2-7 2 6 1 11 3 17 1l-2-15-6 1 2 12c-3-3-3-8-5-12l-6-9 2-1 5 8c4 1 13-2 9-8 7-6 5-12 3-18 10 4 0 19 0 25l13-2c1 3 2 9 0 12l3 2-5-1-2 3 9 1 8 1c3-2 1-7 3-10l2-10c1-4 1-9 3-11 0 1 0 2 2 2-2-7-4-13-9-18-3-4-8-4-13-4-7 1-16 0-22-1-3-1-7-2-11-1l-8 5c-3 1-5-3-7-4v6h-2l-4-4-1 2 2 4h-5c0 4-3 7-4 10l-1-2-2-9c-3 3-3 8-2 11-3 3-2 7-2 11zm11-9c2 0 6 0 6-4h-6v4zm4-1v-2h-3c0 2 1 2 2 2h1zm17 4l1 1c6-6 4-11 1-16v8l-2 7zm7 42c1 4 6 8 10 4 3-2 3-7 1-9s-7-2-9 0l-2 5zm3-96h2-2zm0 94c0 2 2 6 4 4 2 0 3-3 2-4-1-2-3-2-4-1l-2 1zm2-97l1 1-1-1zm13 11c7 9 17 14 25 22l38 32 19 16c2 3 6 6 11 6h13a6198 6198 0 01-79-58c-9-5-18-14-27-18zm13 56c1 2 5 3 5 6l-2 9h7l-3-2v-10h3l-7-3 5-19h-3c0 6-1 13-5 19zm21-4c0-1 1-4-1-5l1 5zm72 35c2 6 6 8 11 5 2-2 3-7 0-9-3-3-8-2-9 2l-2 2zm8 4c2-1 3-6-1-7-3 0-4 3-2 5l3 2z" fill="#c9caca"/><path d="M975 346c6 0 7 4 6 9v20c0 5 2 13-6 13v8h22c10 0 21 2 28-8s0-19-9-22c9-4 15-16 4-24-6-5-15-3-23-4h-22v8zm20 16c5 0 10 0 14-2 4-3 3-9-1-12l-13-1v15zm0 25c5 0 11 1 15-2 3-3 4-10 0-13-5-3-10-2-15-2v17zm63 9h21v-8h-5l2-10h14c5 0 4 6 6 9l-5 2-1 7h26v-8c-5 0-7-7-8-10l-10-26c-2-6-3-15-12-14-6 0-7 5-9 10l-8 22-4 11c-1 3-3 7-7 7v8zm22-26h10l-5-15c-3 4-5 11-5 15zm67-24c7-1 8 4 7 9v24c0 3 1 8-4 9-3 1-3 6-3 8h23v-8c-8 1-6-9-6-14 1-6-1-13 1-19l11 25c3 4 4 8 6 13 3 4 10 3 14 3v-49l6-1v-8h-15l-7 1-1 7c7-1 8 4 7 9v16c-5-11-12-22-16-33-7 1-17-1-23 1v7zm93 13c2-6 7-12 14-12-1 13 1 29-1 41h-6v8h27v-8h-6v-41c6 0 12 7 13 12l8-2-4-14-3-6c-2-1-5-1-5 1-13 1-25 0-38-2l-5 14v6c1 2 4 3 6 3zm27 130l1 2c2 0 5-1 7 1-2 1-3 3-4 6 4-2 6-3 10-3 5-2 6-4 11-3v-4c-3-1-4-6-6-8l-6-8c-2 2-2 4-2 6l-4-2-2 2 2 7c-3 0-5 2-7 4zm8-5l1 1-1-1zm24 18l1 1 6 3-6 5c7-1 15 2 20-2l4 2-2-13-2-5c-2-1-2-4-2-6h-3l-1 6-7-4 1 9-9 3v1zm21-156c9-1 7 12 7 18 0 8 1 17-1 24h-6v8h47c3-2 3-8 5-11 1-3 3-7 3-11l-6-2c-3 5-5 10-11 13-5 3-11 2-17 2 0-5-2-10 0-16 5-3 9 2 8 7h8v-24h-8v7l-9 1v-12c0-3 5-3 7-3 8 0 16 3 18 12l7-2c0-5-3-11-5-16-1-3-5-3-8-3h-39v8zm9 177v1l8 4c-2 1-6 2-8 5 3 1 7-1 11 1 2 1 4 3 5 2l6-2 4 5c0-2 0-4 2-5l-3-3c4-8-2-15-2-22l-6 6-4-5c-3 3-2 7-2 10-4 0-8 0-11 2v1zm26 37c4 2 8 2 10 5 3 2 8 4 11 2l3 7c4 0 4-2 3-5-1-4 1-8 3-12-2-5-2-9-1-14-3 1-5 4-6 6l-4-8c-3 3-4 6-4 10l-11-1v2l6 6c-3 1-7 0-10 2zm2 198c1 2 4 3 6 4l7-7c3-2 10 1 14-3 3-3 6-6 12-6-1-4-7-4-9-5l7-8c-5-4-10-1-15 0 1-6-1-11-4-15l-2 1-2 12h-2l-3-4-2-5-4-1c1 3 3 7 2 11-1 5-3 10 1 15 2 3-4 9-6 11zm21-164c2 2 7 3 8 7 3 4 7 6 11 6 0 2 1 4 3 5l3-1c-1-6 4-9 5-13l3-14c-3 0-6 3-7 5l-1-1-1-8c-4 0-6 6-8 8-3-2-7-4-11-4 0 4 5 6 6 10l-11-1v1zm2 87l4 5c2 4 1 10 3 13l4 4v6c2 0 3 0 3 2 3 0 4-5 7-6 7-2 12-11 18-14-3-3-7-2-10-2l3-10c-4 1-9 2-11 6-3-5-5-8-9-11-2 4 0 8 0 12h-1c-3-3-7-6-11-6v1zm2 0l1 1-1-1zm2-44c2 3 6 4 7 10 2 4 5 7 10 8v6h6c0-6 5-8 9-12 1-4 2-10 7-12-3-3-7-1-10 0l1-10c-4 1-8 5-9 8h-1c-3-4-7-6-11-8-1 3 2 8 3 12-3 0-8-4-12-3v1zm2 104l1 1-1-1zm21-395l6 1v23c0 7 2 18-6 18v8h23c0-4 0-7-5-8-2-1-2-6-2-8 1-8-1-17 1-25l9 20c3 7 8 14 10 21h12v-28-15c-1-5 2-7 7-7l-1-7-7-1h-15v8l6 1v24c-3-9-9-17-12-26l-4-6c-6-2-15 0-22-1v8z" fill="#e62129"/><path d="M1012 875c2-6 13-7 18-7 6 0 13 3 19 4 11 4 22 1 32-1 17-4 35 7 49 6 16 0 27-14 40-20v-2c-7 0-15-3-22-2-6 0-12 3-17 6h-17l-12-5c-9-3-18-3-26 0-6 2-11 5-18 4-9 0-18-3-28-5-9-1-18 1-27 3 1 6 5 13 9 19zm8 14c3 4 5 10 9 13 13-6 25 5 38 3 12 1 26-13 38-4l10-7c-6-5-17-3-24-4-12 0-22 12-36 5l-17-5c-6-1-14 1-18-1zm55 61c3 4 8 5 12 9h1c1-3 5-3 7-5 11-4 23-2 33 4 10 5 21 3 31 0 8-2 17-8 24-6 14 4 28 12 44 9 11 0 24-11 33-10 9 0 18 5 25 8 13 4 26-2 37-8 13-3 26 2 37 8l10-8c-12-5-24-11-37-12-6 0-12 0-18 2-8 5-17 11-29 5-8-3-18-7-26-7s-15 4-22 8c-14 5-30 2-43-5-9-5-20-4-29 1-7 3-14 7-22 6-6 0-11-3-17-5-8-3-19-4-27-2-9 1-16 5-24 8zm40 25c5 4 11 5 17 8 1-3 6-2 10-2 7 0 14 4 20 5 13 3 26 0 38-4 10-1 19-3 29-1 14 0 28 8 42 5l21-6h11c3 0 7 1 7 4l18-7c-7-6-18-9-26-9-15 1-30 12-48 6-23-7-48-7-72 1-13 4-23 0-34-4-11-3-24 0-33 4zm24-99l1 1-1-1zm129-21c7 7 19 14 29 20l-1-2c11-2 23 5 36 0l12-6c15-4 33 7 46 4 7-1 15-6 23-5 9-1 16 3 23 6l6-12-1-3c-14-4-29-9-44-4-11 7-22 6-33 1-8-4-18-5-26-3-5 1-10 6-16 7-4 1-9 2-13 1-6-2-12-7-20-6l-21 2zm57 39l9 7c3 2 7 1 10 1 11 1 23 10 36 5 11-3 26-9 34-1 2-4 7-8 8-12-9-1-17-2-26 0l-18 4c-9 2-18-1-26-5-10-4-18 0-27 1zm31 65l1 1-1-1z" fill="#2f318b"/><path d="M1033 908l1 1-1-1zm28 21l1 1-1-1zm106-345c4-1 5-4 4-7l-1-12h-3v19zm7 0h3v-18h-3v18zm7 0h3v-16h3v8l1 8c4-3 1-12 2-16h4v16h10v-16h3v15h4v-14h3v8l1 7c4-3 1-12 2-16 2 0 4 0 5 2v-3h2c0 2 2 2 4 2l1 14c1-5-1-12 1-16l1 3c0-2 2-2 4-2v15h3v-14l5-1 1 15v-15c2 0 4 0 5 2l1-3 5 1v9c0 2 0 6 3 7-1-7 3-18-5-21l1 3h-69l-1-3c-5 4-2 15-3 21zm3 413l2 1-2-1zm4-440h50c5 0 11-1 14 3l1-1-2-7c1-2 3-4 2-6-2 2-4 4-4 7h-31c-9-1-21 1-30-1v5zm9 26h4v-14h-4v14zm27 0v-14c-2 4 0 10 0 14zm27 0v-14c-2 4 0 10 0 14zm10 0h4v-16h-4v16zm7 1c3-1 3-4 3-6v-13h-3v19zm143 324l1 1-1-1z" fill="#3b3433"/><path d="M938 309c189 2 378 0 567 1l-567-1z" fill="#c6ba0c"/><path d="M1513 856V305c-2 183 0 368 0 551z" fill="#726d6d"/><path d="M1069 945l1 1-1-1zm7-26l1 1-1-1zm91-220l1 1-1-1zm6-88c8 2 18 0 27 1v-3c-7 2-15 1-22 1v-2h21l-1-3c-3 2-8 1-12 1l-10-1-3 6zm0 384l2 1-2-1zm4-226l2 1v-2l-2 1zm4-227l1 1c4-2 12 0 19-1h44c4 0 10-1 13 2v-2c-4-6-15 0-20-4l-1 2h-2v-2h-3c-2 3-7 0-11 0-11 1-23 0-34 2 0-2-1-2-2-1l1-7-3-1 1 9h-3v2zm16 137v-2h-2l2 2zm3-74l2 4h19c5 0 12 1 16-2-4-3-12-1-18-2h-19zm38 9h13c4 0 9-1 13 1v-11c-3 3-8 2-12 2s-9 1-12-1l-2 3c7 2 18-2 23 2-7 1-18 0-24-1l1 5zm0 33l2 1-2-1zm4 59l2 1-2-1zm11-144v-2l-1 1 1 1zm2-18l2 1-2-1zm16 154v-2l-1 1 1 1zm35 287l1 1-1-1zm7-99l2 1-2-1zm34 79l1 1-1-1zm56-47l1 1-1-1z" fill="#423c3b"/><path d="M1056 933l2 2-2-2zm1-1l1 1h324c0-2-2-3-3-4-2 2-6 2-9 2-104 1-209-1-313 1z" fill="#544f4e"/><path d="M1060 931c6 2 13 0 20 1h284c5-1 13 1 17-1h-1l-1-2h-1v2h-318z" fill="#9f9e9e"/><path d="M1042 919l1 1-1-1zm59 48l1 1-1-1zm64-245l1 1-1-1zm16-100c2 2 7 0 10 1v-2c-3 0-8-1-10 1zm18-1h2v-3h-2v3zm9-101c7 2 15 0 22 1 0-4-2-4-5-3-5 0-13-1-17 2zm6 102c2 2 7 0 10 1v-2c-3 0-8-1-10 1zm13 150l1 1h24v-2c-8 1-17-1-25 1zm8 33h8v-14h-8v14zm3-2c3 0 3-3 3-5s0-4-3-4v9zm5-110v-3h-2l2 3zm1-58c1 2 5 1 6 1h7v-2h-13v1zm4-13l4 1h6c-2-3-7-2-10-2v1zm1 36l1 1-1-1zm13-2l1 1-1-1zm5 7l1 1-1-1zm1 11l1 1-1-1zm2 22l1 1-1-1zm84 217l1 1-1-1zm20-463c8 2 20 0 29 1h89c-3-3-9-1-14-2h-92l-12 1zm51 438l1 1-1-1zm9-15l1 1-1-1z" fill="#433d3c"/><path d="M1130 882l1 1-1-1zm82-103c-4 2-9 1-13 1l-14-1c0 5 3 5 6 5h13c3 0 9 0 8-5zm7 221l2 1h1l-3-1zm34-221c-4 2-9 1-13 1l-14-1c0 5 3 5 6 5h13c3 0 9 0 8-5zm-14-138v1h22l6-1h-27l-1-2v2zm13-81l1 1-1-1zm6 207l1 3 6-2v-3l-7 2zm2-8l5 1c0-3 0-6-2-7-2 2-1 3-1 5h-2v1zm37 229l1 1-1-1zm43-19l1 1-1-1zm8-60l1 1-1-1z" fill="#403a39"/><path d="M839 813l1 1-1-1zm6 83v-2l-1 1 1 1zm107-445V325c-2 42 0 84 0 126zm149 686l2 1-2-1zm38 10l2 1-2-1zm16 3l2 1-2-1zm49-611h2v-8c-3 2-2 6-2 8zm6-24c0-1 1-4-1-4l1 4z" fill="#cac8c8"/><path d="M1171 569c1-1 3-1 4 1l1-3-7-1 2 3zm6 65l1 1c5 0 11 1 17-1h-18zm17 172l9-1c2-2 1-7 1-9v-5c-3 0-7-1-9 1s-1 6-1 9v5zm3-4h3v-8c-3 0-3 2-3 5v3zm4 197l2 1h1l-3-1zm23 1l2 1h1l-3-1zm17-206l-4-1c0 1 0 2 1 1h3zm5-57v-2h-2l2 2zm9-103c2 3 8 2 11 2-2-3-7-2-11-2zm18 95l1 1-1-1zm139-102l2 3v-3h-2z" fill="#443d3c"/><path d="M1176 609c1 2 4 2 7 2h9c3 0 7 0 8-3h-13l-11 1zm9-70c-1-2 1-6-1-7l1 7zm16 72l1 1h34v-2c-12 1-24-1-35 1zm36-2c1 2 6 2 8 2h18l-1-3h-25v1z" fill="#f3f2f2"/><path d="M947 464c3 3 11 1 15 2h112v-2H947zm324-45c1 2 4 0 6 1l-6-1z" fill="#443c27"/><path d="M947 464c42 2 85 0 127 1l-127-1z" fill="#ebdd04"/><path d="M856 961l-1-3 1 3zm3 24v-2l-1 1 1 1zm0-176l1 1-1-1zm78 82v-2l-1 1 1 1zm224-301c3 3 9 1 14 2h102l-58-1h-45l-13-1zm259 513l1 1-1-1zm150-278l1 1-1-1zm21 136l-1-3 1 3z" fill="#c3c1c1"/><path d="M1050 927l1 1-1-1zm30-11l1 1-1-1zm43-29l1 1-1-1zm54-279l1 1c7 1 16-1 22 1v-3c-8 1-16-1-23 1zm23-84l1 1-1-1zm1 86l1 2h26c3 0 7 1 8-1-11-1-24 1-35-1zm9-93c1 2 4 2 7 2 4 0 9 1 12-1-6-2-14 1-19-2v1zm1 316l2-2c-1-1-3 0-3 1l1 1zm16-1l3 3-2-3h-1zm1-311h4l-2-3-2 3zm9 88l1 1c7-3 16 1 24-1-3-3-8-2-12-2h-13v2zm15 389l2 1-2-1zm64-110l2 1-2-1zm26 17l1 1-1-1z" fill="#413a39"/><path d="M1375 449c38 2 78 0 116 1l-116-1z" fill="#dad8d8"/><path d="M837 839l1 1-1-1zm0 73l1 1-1-1zm3-67l1 1-1-1zm5 12v-2l-1 1 1 1zm2 30l-1-3 1 3zm14-86l2 1h1l-3-1zm17 31l1 1-1-1zm1-28l2 1-2-1zm151 302l1 1-1-1zm114 42l2 1-2-1zm45-596l1 2h59l-31-1h-15l-14-1zm0 259c2 2 7 0 9 1h10c-3-3-6-2-9-2l-10 1zm41 0c2 2 7 0 9 1h10c-3-3-6-2-9-2l-10 1zm284 217l1 1-1-1zm18-21l1 1-1-1zm15-20l1 1-1-1zm35-186l2 1h1l-3-1zm27 11l2 1-2-1z" fill="#efeeee"/><path d="M1167 586h103l-52-1h-40c-3 0-8-1-11 1zm45-46v-9c-3 2-2 7 0 9z" fill="#c2c0bf"/><path d="M1168 587c7 2 18 0 26 1h59c5-1 14 1 18-1h-103z" fill="#c9c7c7"/><path d="M1189 556c20 2 41 0 61 1l-61-1zm42 253c2 2 6 0 8 1h8c-2-2-5-2-8-2l-8 1zm7-270c-1-2 1-6-1-7l1 7zm0 44v-14h3l-4-1 1 15z" fill="#c4c2c2"/><path d="M1086 912l1 1-1-1zm94-346c3 5 0 12 1 18 2-2 0-7 1-10l1-10 2 1 2-7-3 1c-1 3-2 6-4 7zm50 219c2 3 6 2 9 2l9-1h1l-19-1zm2 50l-2-1c0 2 1 2 2 1zm19-268l3 1h1l-4-1zm2-4l5 7c1-3 7-1 11-2l1-2c-7-1-12 0-17-4v1zm139 24l1 1-1-1zm28 48l2 1-2-1z" fill="#3a3332"/><path d="M1110 972l1 1-1-1zm80-162c2 2 6 0 8 1h9c-2-2-6-2-9-2l-8 1zm1-74l2 1-2-1zm12-214l1 1-1-1zm20 17h3c0-3 1-8-3-8v8zm8 271l1 1h16c-2-2-6-2-8-2-3 1-7-1-9 1zm5-191h2v-4c-2 1-2 2-2 4zm7 102l2 1-2-1zm1 14l2 2v-2h-2z" fill="#433c3b"/><path d="M1175 613c7 2 17 0 24 1l-24-1zm27 0c11 2 22 0 33 1l-33-1zm36 0c7 2 17 0 25 1l-25-1z" fill="#bebcbb"/><path d="M1176 609h23l-12-1c-4 0-9-1-11 1zm26-1c11 2 22 0 33 1l-33-1zm36 0c7 2 16 0 23 1l-23-1z" fill="#dedddc"/><path d="M1182 541c12 2 25 0 38 1h37c-2-2-7 0-10-1h-65z" fill="#d7d6d6"/><path d="M1045 922l1 1-1-1zm14 14l1 1-1-1zm2 2l1 1-1-1zm12-17l1 1-1-1zm60-41l1 1-1-1zm72-341h3c0-3 1-8-3-8v8zm6 1c3 0 3-3 3-5s0-4-3-4v9zm5-1h4l-1-7c-3-2-3 2-3 4v3zm6 0h4v-1h-1v-6c-2-1-3 0-3 2v5zm0 461l2 1h1l-3-1zm7-167l-2-2c0 1 0 2 2 2zm1-294c-1-2 1-7-1-8l1 8zm53 453l2 1-2-1z" fill="#3c3635"/><path d="M880 844v-2l-1 1 1 1zm35 165l1 1-1-1zm7-135l1 1-1-1zm264-100c7 2 17 0 25 1l-25-1zm41 0c7 2 17 0 25 1l-25-1zm15 381l2 1h1l-3-1zm58-7l2 1-2-1zm52-14l2 1-2-1zm159-103l1 1-1-1zm2-169l-1-3 1 3zm10 12l1 1-1-1z" fill="#c5c3c3"/><path d="M875 803l2 1-2-1zm41 37v-2l-1 1 1 1zm16 32l-1-3 1 3zm75 220l1 1-1-1zm179-312c7 2 17 0 25 1l-25-1zm41 0c7 2 17 0 25 1l-25-1zm256 278l1 1-1-1zm35-177l1 1-1-1zm1-2l1 1-1-1zm38 107l1 1-1-1zm60-176l2 1-2-1z" fill="#e5e4e4"/><path d="M1186 770l1 2h24c-8-2-17 0-25-2zm41 1c4 2 9 0 13 1h7l5-1h-25zm8-232c-1-2 1-6-1-7l1 7z" fill="#eeeded"/><path d="M1185 779h26l-14-1c-4 1-9-1-12 1zm26 0l1 1-1-1zm15 0h26l-14-1c-4 1-9-1-12 1zm26 0l1 1-1-1zm160-152l2 1-2-1z" fill="#5e5958"/><path d="M1185 775c3 3 9 1 13 2 5 0 11 1 14-1l-27-1zm41 0c3 3 9 1 13 2 5 0 11 1 14-1l-27-1zm167-146v-2l-1 1 1 1z" fill="#585251"/><path d="M1014 880l1 1-1-1zm162-124c2-2 6 0 9-1-2-4-6-3-9-2h-1l1 3zm17-49l2 1-2-1zm30 122l3 2-3-2zm21-94l1 1-1-1zm4 20h12c-2-4-7-3-10-2l-2 2zm5-210l2 1-2-1zm12 451l2 1-2-1zm6-288l1 1-1-1zm2 12v-2l-1 1 1 1zm66 183l1 1-1-1zm12 8l1 1-1-1z" fill="#413b3a"/><path d="M1168 583c0-5-1-12 1-17 3 2 9 0 14 1v-2h-16l1 18zm43 460h3c1-6-1-13 1-17l-3-1c-1 5 1 12-1 18z" fill="#0f7d4d"/><path d="M1186 783c7 2 17 0 25 1l-25-1zm41 0c7 2 17 0 25 1l-25-1z" fill="#d0cfce"/><path d="M1179 754c1 2 4 0 6 1l-6-1zm31-238c4 3 12 1 18 2-6-1-14 0-18-2zm43 238c1 2 4 0 6 1l-6-1zm9-171v-15c-2 4 0 10 0 15zm273 420l1 1-1-1zm1-178l1 1-1-1zm2-3l1 1-1-1z" fill="#d3d1d1"/><path d="M1199 604c4 3 12 1 18 2h19l-19-1c-5 0-13 1-18-1zm36 187c2 2 6 0 8 1l-8-1z" fill="#d9d8d7"/><path d="M1209 520c6 2 15 0 21 1l-21-1zm56 63v-15c-2 4 0 10 0 15z" fill="#e3e2e1"/><path d="M1193 757c2 3 6 2 9 2h10c-3-3-6-2-9-2h-10zm34 0c2 2 6 0 9 1 2 0 7 1 8-1h-17z" fill="#b6b3b3"/><path d="M1062 687c3-1 3-7 4-9-3 0-4 6-5 8l1 1zm17 29v-3c-1 0-4 2-2 3h2zm29-239c2 0 3-2 3-4v-4h-2c-1 2-2 5-1 8zm4-11v-3c-1 0-4 2-2 3h2z" fill="#147048"/><path d="M940 1037l-2-2c0 1 0 2 2 2zm241-415c2 2 7 0 10 1l-10-1zm33 0c2 2 7 0 10 1l-10-1zm34 0c2 2 7 0 10 1l-10-1zm187 472l1 1-1-1z" fill="#ecebeb"/><path d="M824 809l2 1-2-1zm15 34l1 1-1-1zm4 8v-2l-1 1 1 1zm64-30l1 1-1-1zm24 50l1 1-1-1zm64 213l1 1-1-1zm38 24l2 1-2-1zm8 4l1 1-1-1zm6 3l1 1-1-1zm48 20l2 1-2-1zm134-350c7 2 13 0 20 1l-20-1zm183 323l1 1-1-1zm179-289l1 1-1-1z" fill="#fcfcfc"/><path d="M1109 467c1 0 3-1 3-3h-3v3zm91-21l1 1h8c2 0 6 0 6-3-5 3-11 0-15 2zm21-1c3 3 11 1 15 2v-2h-15z" fill="#147148"/><path d="M1265 815v-31c-2 10 0 21 0 31z" fill="#a09c9c"/><path d="M1174 815v-31c-2 10 0 21 0 31z" fill="#94908f"/><path d="M857 973l-1-3 1 3zm40-161l1 1-1-1zm21 60l2 1-2-1zm28 171l1 1-1-1zm169 98l1 1-1-1zm45 10l2 1h1l-3-1zm11-568v-15c-2 4 0 10 0 15zm112 568l2 1h1l-3-1zm22-4l2 1-2-1zm221-275l2 1-2-1zm3-6l-1-3 1 3zm58 118l1 1-1-1zm6-34l1 1-1-1zm9-54v-2l-1 1 1 1zm5-55l1 1-1-1zm0 110l1 1-1-1z" fill="#e6e5e5"/><path d="M1201 446c2 2 5 1 7 1l7-1h-14zm20-1c2 2 5 2 7 2h7c-4-2-10 0-14-2z" fill="#aca211"/><path d="M1195 806v-7-7c-2 2-1 5-1 7s-1 6 1 7zm0-15c2 2 6 0 9 2v-2h-9zm25-252c-1-2 1-6-1-7l1 7z" fill="#d6d4d4"/><path d="M1037 913l1 1-1-1zm31 31l1 1-1-1zm105-184l7 1v-3h-4v-5l-3 1v6zm38 70l2 1-2-1zm183-191l3 2v-3l-3 1zm23-4l2 1h1l-3-1z" fill="#3e3736"/><path d="M825 822l1 1-1-1zm13 19l1 1-1-1zm8 43l1 1-1-1zm5 67l1 1-1-1zm67-82v-2l-1 1 1 1zm13 21v-2l-1 1 1 1zm5-2v-2l-1 1 1 1zm27 171l1 1-1-1zm7 6l1 1-1-1zm148 77l2 1-2-1zm67 12l2 1-2-1zm74 0l2 1-2-1zm31-4l2 1-2-1zm50-12l2 1-2-1zm13-4l1 1-1-1zm122-69l1 1-1-1zm38-200v-2l-1 1 1 1zm16 2v-2l-1 1 1 1zm6-41l1 1-1-1zm32 169l1 1-1-1zm17-172l1 1-1-1zm2 168v-2l-1 1 1 1zm4-17v-2l-1 1 1 1zm10-102v-2l-1 1 1 1zm22-52l1 1-1-1zm3-9l1 1-1-1z" fill="#fdfdfd"/><path d="M856 964l-1-3 1 3zm145 124l1 1-1-1zm193-283c2 2 7 1 9 0 2-4 0-7 1-11v-3l-1 14h-9zm397 159l-1-3 1 3z" fill="#e7e6e6"/><path d="M1214 569l-4-1c0 1 0 2 1 1h3zm1 14v-14c-2 4 0 10 0 14zm17-44c-1-2 1-6-1-7l1 7z" fill="#bdbbba"/><path d="M832 929l-1-3 1 3zm8 23l2 1-2-1zm164 138l1 1-1-1zm54 30l1 1-1-1zm140 35l2 1h1l-3-1zm19-616c-1-2 1-6-1-7l1 7zm28 616l2 1h1l-3-1zm128-29l1 1-1-1zm7-3l1 1-1-1zm81-47l1 1-1-1zm31-26l1 1-1-1zm14-14l2 1v-2l-2 1zm10-145v-2l-1 1 1 1zm13-38l-1-3 1 3zm43-19l1 1-1-1zm2 163l2 1h1l-3-1zm31-45l1 1-1-1zm7-31l1 1-1-1zm3-93l1 1-1-1z" fill="#e0dfdf"/><path d="M1240 643c7 2 17 0 24 1l-24-1z" fill="#bcbaba"/><path d="M1174 995l1 1-1-1zm66-360c1 2 4 1 5 1v-2l-5 1zm3 71l1 1-1-1zm1 15l1 1-1-1zm23-83v-2c-3-1 0-6-1-9-4 4-2 8 1 11zm52 252l2 1-2-1zm76-256v-2l-1 1 1 1z" fill="#403938"/><path d="M1211 583v-14c-2 4 0 10 0 14zm125-83l2 1h1l-3-1zm61 220c-1-2 1-5-1-6l1 6z" fill="#cbcac9"/><path d="M1098 904l1 1-1-1zm95-147c5 3 13 1 19 2-6-1-14 0-19-2zm33 74l2 2v-2h-2zm5 4l-2-2c0 1 0 2 2 2z" fill="#3e3837"/><path d="M826 823l1 1-1-1zm7 98l1 1-1-1zm30-109l1 1-1-1zm36 176l1 1-1-1zm9-165l1 1-1-1zm300-284c-1-2 1-6-1-7l1 7zm102 607l2 1-2-1zm4-1l2 1-2-1zm4-1l2 1-2-1zm195-280v-2l-1 1 1 1zm16-13v-2l-1 1 1 1zm-1 14l1 1-1-1zm25-56l1 1-1-1zm2-1l1 1-1-1zm2-1l1 1-1-1zm14 17l1 1-1-1z" fill="#ebeaea"/><path d="M1094 963l1 1-1-1zm30-77l1 1-1-1zm32 105l3 1h1l-4-1zm15-224l6 2c-1-2-4-5-6-2zm55 64l2 1-2-1zm25-284l1 1-1-1zm24 447l2 1-2-1zm91-73l1 1-1-1zm46-14l1 1-1-1z" fill="#494342"/><path d="M833 925v-2l-1 1 1 1zm-1 19l1 1-1-1zm3 5l1 1-1-1zm1-35l1 1-1-1zm20 51v-2l-1 1 1 1zm24-122v-3l-2 1 2 2zm5 146l1 1-1-1zm11-5l1 1-1-1zm35-92l1 1-1-1zm131 230l1 1-1-1zm98 29l1 1-1-1zm125 0l1 1-1-1zm248-317v-2l-1 1 1 1zm26 154l1 1-1-1zm3-183l2 1-2-1zm20-4l1 1-1-1zm9 164v-2l-1 1 1 1zm4-148l1 1-1-1zm5 67v-2l-1 1 1 1zm10 65l1 1-1-1zm16-136l1 1-1-1z" fill="#f9f9f9"/><path d="M1058 935l1 1-1-1zm120 61l2 1-2-1zm119-121l1 1-1-1zm4 3l11 7c-4-2-7-6-11-7zm14 9l1 1-1-1zm3 2l1 1-1-1zm3 2l1 1-1-1zm3 2l1 1-1-1zm74 30l1 1-1-1zm28-36l1 1-1-1z" fill="#453f3e"/><path d="M1013 878l1 1-1-1zm30 42l1 1-1-1zm21 7l1 1-1-1zm27 34l1 1-1-1zm45-83l1 1-1-1zm63 121l2 1h1l-3-1zm5-478l2 1-2-1zm7 312v-2l-1 1 1 1zm103 53l1 1-1-1zm29 20l1 1-1-1zm36 36c3 0 4-4 7-5l1-1-8 6zm9-357l2 1-2-1zm14 334l1 1-1-1z" fill="#383130"/><path d="M1188 583v-14c-2 4 0 10 0 14zm71 39c-1-2 1-5-1-6l1 6z" fill="#b7b4b4"/><path d="M1234 1025c2 5 0 12 1 18h2l1-1c-2-5 0-12-1-17h-3z" fill="#216747"/><path d="M1197 583v-14c-2 4 0 10 0 14zm29 417l2 1-2-1zm5-164l1 1-1-1zm11 163l2 1-2-1zm18-2l2 1-2-1zm38-121l2 1-2-1zm71 47l1 1-1-1z" fill="#4b4544"/><path d="M1023 721c1 2 5 1 7 1-2-2-5-2-7-1zm234-156c2 2 5 0 7 1 3 0 6 1 7-1h-14z" fill="#0a8752"/><path d="M856 972l1 1-1-1zm3 15l1 1-1-1zm1-177l1 1-1-1zm3-9l1 1-1-1zm11 34l1 1-1-1zm11-29l2 1-2-1zm45 81v-2l-1 1 1 1zm1-21v-2l-1 1 1 1zm2 164l1 1-1-1zm3-140l1 1-1-1zm239 263l2 1-2-1zm21 2l2 1-2-1zm52 0l2 1-2-1zm21-2l2 1-2-1zm57-11l2 1-2-1zm127-60l1 1-1-1zm29-23l1 1-1-1zm28-176v-2l-1 1 1 1zm18 129l1 1-1-1z" fill="#f9f8f8"/><path d="M1236 1042h3c-3-1-2-6-2-8v-9c-2 5 0 11-1 17z" fill="#9e9c9c"/><path d="M1108 1139l1 1-1-1zm100-556v-15c-2 4 0 10 0 15zm93 565l1 1-1-1zm288-167v-2l-1 1 1 1zm35-172l1 1-1-1z" fill="#e9e8e8"/><path d="M1073 948l1 1-1-1zm42-126h2l1-4-1-2c-2 2-2 4-2 6zm99 6l2 1v-2l-2 1zm10 172l1 1-1-1zm8-359l3 1h1l-4-1zm0 194l1 1-1-1zm11 164l2 1h1l-3-1zm22-3l1 1-1-1zm80-89l1 1-1-1z" fill="#3f3938"/><path d="M1213 1042l1-17h-2l1 17z" fill="#6d746f"/><path d="M863 993l1 1-1-1zm24-6l1 1-1-1zm58 55l1 1-1-1zm217-629c4 3 11 2 14 1l-14-1zm225 707l1 1-1-1z" fill="#dfdede"/><path d="M1006 689l3 2v-2h-3zm58-200l2-3 1 3h2l-1-6c-2 1-3 1-3 3l-2-2 1 5z" fill="#403928"/><path d="M850 817l1 1-1-1zm5 146l1 1-1-1zm15-161l2 1-2-1zm13 3l1 1-1-1zm35 63v-2l-1 1 1 1zm62 205l1 1-1-1zm217 82l2 1-2-1zm50 0l2 1-2-1zm48-6l2 1-2-1zm52-13l1 1-1-1zm100-50l1 1-1-1zm18-13l1 1-1-1zm68-243l1 1-1-1zm35 0l1 1-1-1zm1-27l2 1-2-1zm17 184l1 1-1-1zm4-24l1 1-1-1z" fill="#f1f0f0"/><path d="M1271 583v-17c-2 5 0 12 0 17z" fill="#1d5c3f"/><path d="M876 827l1 1-1-1zm324 328l2 1h1l-3-1zm63-521h2v-6l-2 6zm2 126c-1-2 1-5-1-6l1 6zm247 111l-1-3 1 3zm69 123l1 1-1-1z" fill="#cfcdcd"/><path d="M1003 601c1 3 6 6 8 7 0-4-5-7-8-8v1z" fill="#355b34"/><path d="M844 894l1 1-1-1zm4-78l1 1-1-1zm101 230l1 1-1-1zm39 33l1 1-1-1zm35 23l1 1-1-1zm20 11l1 1-1-1zm2 1l1 1-1-1zm39 17l1 1-1-1zm14 5l2 1-2-1zm69 16l2 1-2-1zm110 0l2 1-2-1zm84-21l1 1-1-1zm61-29l1 1-1-1zm108-258v-2l-1 1 1 1zm6 158l1 1-1-1zm6-8l1 1-1-1zm6-182l1 1-1-1z" fill="#f8f8f8"/><path d="M836 812l1 1-1-1zm11 56l-1-3 1 3zm11 112l-1-3 1 3zm30-173l1 1-1-1zm2 1l1 1-1-1zm2 1l1 1-1-1zm39 56l-1-3 1 3zm295-326c-1-2 1-6-1-7l1 7zm341 294l1 1-1-1zm23 140l-1-3 1 3z" fill="#dbdada"/><path d="M1175 768l1 1-1-1zm2 1l2 1-2-1zm54-186v-14c-2 4 0 10 0 14z" fill="#817d7c"/><path d="M1117 822v-4h2l-3-1 1 5zm81-20h2l1-4v-3l-1 7h-2z" fill="#cecccc"/><path d="M1169 567h14v-1h-7l-7 1z" fill="#2f332e"/><path d="M918 852l-1-3 1 3zm0 15l-1-3 1 3zm5 8l1 1-1-1zm3 147l1 1-1-1zm16 17l1 1-1-1zm26 24l1 1-1-1zm206-303c-1-2 1-5-1-6l1 6zm115 390l2 1-2-1zm188-87l1 1-1-1zm7-6l1 1-1-1zm38-182l1 1-1-1z" fill="#c8c6c6"/><path d="M1238 802c-1-2 1-7-1-8l1 8zm109-250c2-2 1-6 1-8-2 2-2 6-1 8z" fill="#d5d4d3"/><path d="M1177 583v-14c-2 4 0 10 0 14zm215 55l2 1-2-1z" fill="#5c5655"/><path d="M1187 556c0-1 1-4-1-5l1 5zm70-18l2 1-1 7h2c0-3 1-8-3-8z" fill="#0b8551"/><path d="M1175 583v-14c-2 4 0 10 0 14z" fill="#5a5453"/><path d="M832 811l2 1-2-1zm37 186c1 2 4 0 5 1l-5-1zm57-118l1 1-1-1zm48 189l1 1-1-1zm171 80l1 1-1-1zm17 3l1 1-1-1zm121 0l1 1-1-1zm188-83l1 1-1-1zm96-226l-1-3 1 3zm5 155l2 1h1l-3-1z" fill="#cdcbcb"/><path d="M830 828l1 1-1-1zm16 34v-2l-1 1 1 1zm13-57v-2l-1 1 1 1zm45 13l1 1-1-1zm14 195l1 1-1-1zm32 34l1 1-1-1zm581-207v-2l-1 1 1 1zm34-36l2 1-2-1zm36 87v-2l-1 1 1 1zm10-57l1 1-1-1zm4 94v-2l-1 1 1 1zm1 9l-1-3 1 3z" fill="#fbfbfb"/><path d="M1204 583v-14c-2 4 0 10 0 14z" fill="#8a8685"/><path d="M1184 583v-14c-2 4 0 10 0 14z" fill="#a29f9e"/><path d="M1195 583v-14c-2 4 0 10 0 14z" fill="#6d6867"/><path d="M1258 583v-14c-2 4 0 10 0 14z" fill="#767271"/><path d="M1222 583v-14c-2 4 0 10 0 14z" fill="#767170"/><path d="M1249 583v-14c-2 4 0 10 0 14z" fill="#7f7b7a"/><path d="M846 867l1 1-1-1zm14 122l1 1-1-1zm34-179l1 1-1-1zm10 185l1 1-1-1zm21-118l1 1-1-1zm23 168l1 1-1-1zm50 41l1 1-1-1zm345 51l2 1-2-1zm107-53l1 1-1-1zm129-257l1 1-1-1zm24 27v-2l-1 1 1 1zm7 62l1 1-1-1zm5 26v-2l-1 1 1 1z" fill="#f2f2f2"/><path d="M1273 479v-2l-1 1 1 1zm25 23l2 1 1-3-3 2zm4-3l2 1-2-1zm6-3l-1-3 1 3zm33 14l1 1-1-1zm21 212l1 1-1-1zm10 8v-2l-1 1 1 1zm1-189l1 1-1-1zm14 190l2 1h1l-3-1zm2-46l1 1-1-1zm2 57l2 1-2-1zm8-58l1 1-1-1z" fill="#352c2b"/><path d="M993 640l4 5c0-2-2-5 1-7-2-1-3 1-3 2v1l-2-1zm6 1v-3l-2 1 2 2zm78 72v3h2v-3h-2z" fill="#413b28"/><path d="M863 958l1-8h-2l1 8z" fill="#69601f"/><path d="M838 910l1 1-1-1zm4-96l1 1-1-1zm52 167l1 1-1-1zm20-146l1 1-1-1zm5 179l1 1-1-1zm16 18l1 1-1-1zm49 44l1 1-1-1zm7 5l1 1-1-1zm120 59l2 1-2-1zm222 0l2 1-2-1zm270-326l1 1-1-1zm17 8l1 1-1-1z" fill="#e2e1e1"/><path d="M823 809l2 1-2-1zm31 10l1 1-1-1zm6-18l2 1-2-1zm20 42c0-1 1-4-1-5l1 5zm58 192l1 1-1-1zm230 117l2 1-2-1zm108 0l2 1-2-1zm237-123l1 1-1-1zm88-137v-2l-1 1 1 1zm5-79l1 1-1-1zm3 101l1 1-1-1z" fill="#e3e2e2"/><path d="M834 919l1 1-1-1zm14 33l1 1-1-1zm24-131l1 1-1-1zm7 21l1 1-1-1zm23 150l1 1-1-1zm26-109l1 1-1-1zm104 224l1 1-1-1zm480-77l1 1-1-1zm18-191l1 1-1-1zm44 158l1 1-1-1zm23-45l1 1-1-1zm6-52l1 1-1-1z" fill="#d5d4d4"/><path d="M1331 521h10v-3c-2 3-7 1-10 3zm25 38l2 1-2-1zm33 172l2 1-2-1zm19-41h2l-2-3v3z" fill="#382c2b"/><path d="M832 924l1 1-1-1zm48-85l-1-3 1 3zm37 5v-2l-1 1 1 1zm209 300l2 1-2-1zm4 1l2 1-2-1zm376-252l1 1-1-1zm2-2v-2l-1 1 1 1zm1-4v-2l-1 1 1 1zm29 112l1 1-1-1zm3-4l1 1-1-1zm9-184l1 1-1-1zm5 173l1 1-1-1z" fill="#c7c5c5"/><path d="M879 840l1 1-1-1zm7 148l1 1-1-1zm48 43l1 1-1-1zm28 27l1 1-1-1zm112 69l1 1-1-1zm5 2l1 1-1-1zm287 0l1 1-1-1zm75-39l1 1-1-1zm16-11l1 1-1-1zm115-82l1 1-1-1zm4 0l2 1-2-1zm13-25l1 1-1-1z" fill="#eee"/><path d="M848 883v-11c-2 3 0 8 0 11zm405-233l1 1-1-1z" fill="#615c5b"/><path d="M1270 490c1 2 5 0 7 1v-2c-2 0-5-1-7 1z" fill="#90282b"/><path d="M1067 925l1 1-1-1zm25-17l1 1-1-1zm131-79l2 1-2-1zm53 165l1 1-1-1zm66-26l1 1-1-1zm16-52l1 1-1-1zm6 4l1 1-1-1zm3 2l1 1-1-1zm3 27l1 1-1-1zm18-357l1 1-1-1zm31 43l2 1-2-1zm5 255l1 1-1-1z" fill="#342d2c"/><path d="M1496 1046c4-1 5-4 8-6l3-4-11 10z" fill="#797574"/><path d="M1038 914l1 1-1-1zm45 0l1 1-1-1zm13 50l1 1-1-1zm134-449c0-1 1-4-1-4l1 4zm23 47l1 1-1-1zm34 429l2 1-2-1zm38-97l1 1-1-1zm83 18l1 1-1-1z" fill="#3d3736"/><path d="M828 810l2 1-2-1zm49 19l1 1-1-1zm28 167l1 1-1-1zm129 112l1 1-1-1zm65 28l1 1-1-1zm142 19l2 1-2-1zm102-18l1 1-1-1zm170-277v-2l-1 1 1 1zm50-55l1 1-1-1zm38 57v-2l-1 1 1 1zm10 57l1 1-1-1z" fill="#bcb9b9"/><path d="M1164 414c2 2 7 0 10 1l-10-1zm108 304l1 1-1-1z" fill="#443d3d"/><path d="M1040 676h2c0-1 0-2 2-2 0-4 1-8-1-10-2 3 0 8-3 12zm14 59l2 1-2-1z" fill="#e9db04"/><path d="M1041 674l2-3v-7l-2 10zm2-1l1 1-1-1z" fill="#395231"/><path d="M829 810l1 1-1-1zm12 93l1 1-1-1zm35 93l1 1-1-1zm45-123l1 1-1-1zm26 171l1 1-1-1zm113 77l1 1-1-1zm262 22l2 1-2-1zm116-51l1 1-1-1zm86-219l1 1-1-1zm56 122l1 1-1-1zm20-110v-2l-1 1 1 1z" fill="#ededed"/><path d="M1304 426c2 3 8 2 10 1h1c-4-2-7-1-11-1z" fill="#d1c409"/><path d="M865 826l1 1-1-1zm42 173l1 1-1-1zm111 100l1 1-1-1zm108 45l1 1-1-1zm4 1l1 1-1-1zm4 1l2 1-2-1zm373-256l1 1-1-1zm1-4l1 1-1-1zm12-9l1 1-1-1zm68-71l1 1-1-1zm14 52v-2l-1 1 1 1z" fill="#f1f1f1"/><path d="M1182 539v-10c-2 3 0 7 0 10z" fill="#137449"/><path d="M1044 921l1 1-1-1zm73-30l1 1-1-1zm112-57l2 2v-2h-2zm24 164l2 1-2-1zm26-5l2 1-2-1zm12-3l1 1-1-1zm59-27l1 1-1-1zm2-51l1 1-1-1zm18 12l1 1-1-1zm35-291l1 1-1-1z" fill="#352e2d"/><path d="M1385 587l-1-1 4-1c-2-2-4-2-6-2 0 2 1 3 3 4zm17-5v-2l-1 1 1 1zm8 46l2 1-2-1z" fill="#463b3a"/><path d="M1027 665c1 2 1 7 3 9 1-3-1-8-1-10h-2v1zm17-60l1 1-1-1z" fill="#dacc07"/><path d="M1099 966l1 1-1-1zm40 19l1 1-1-1zm11 4l1 1-1-1zm73-160l1 1-1-1zm6 5l2 1-2-1zm65 155l2 1-2-1zm55-79l1 1-1-1zm24 16l1 1-1-1zm7-353l2 1-2-1zm16 64v-2l-1 1 1 1z" fill="#362f2e"/><path d="M1303 499h6l-1-4v3l-5 1z" fill="#635756"/><path d="M831 829l1 1-1-1zm105 204l1 1-1-1zm146 97l1 1-1-1zm105 24l2 1h1l-3-1zm69 0l2 1h1l-3-1zm39-5l1 1-1-1zm68-19l1 1-1-1zm166-266l-1-3 1 3zm60 116v-2l-1 1 1 1zm12-124l1 1-1-1z" fill="#d5d3d3"/><path d="M1171 644l-1-10c-2 3-1 8 1 10z" fill="#284435"/><path d="M1267 634h2c-2-3 0-7-1-9-2 3 0 6-1 9z" fill="#098952"/><path d="M841 907v-2l-1 1 1 1zm20-84l1 1-1-1zm17 172l1 1-1-1zm40-145v-2l-1 1 1 1zm6 170l1 1-1-1zm4-138v-2l-1 1 1 1zm489 223l1 1-1-1zm164-292l1 1-1-1zm19 58v-2l-1 1 1 1zm0-56l1 1-1-1z" fill="#f4f3f3"/><path d="M1591 959v-11c-2 3 0 8 0 11z" fill="#8b8786"/><path d="M838 951l1 1-1-1zm8-90v-2l-1 1 1 1zm1 27v-2l-1 1 1 1zm9 63v-2l-1 1 1 1zm59-112l1 1-1-1zm23 55v-2l-1 1 1 1zm89 210l1 1-1-1zm483-222v-2l-1 1 1 1zm58-42l1 1-1-1zm7-38l2 1-2-1z" fill="#b9b7b7"/><path d="M841 952l1 1-1-1zm1-51l1 1-1-1zm20-77l1 1-1-1zm35 161l1 1-1-1zm34-122v-2l-1 1 1 1zm238 289l1 1-1-1zm107 0l1 1-1-1zm178-71l1 1-1-1zm57-204v-2l-1 1 1 1zm77-69l1 1-1-1z" fill="#c9c8c7"/><path d="M1357 550c1 2 2 3 4 3l-1-1 6-1c-3-3-6-2-9-1z" fill="#cd2229"/><path d="M999 641l1-1-2-2 1 3zm14 51l-3-2c0 2 1 2 2 2h1zm18-165l2 2 1-1-3-1zm32 161v-2h-2l2 2zm7-99l3 1v-3l-3 2zm3-91v-3h-2l2 3zm6 216v-2h-2l2 2zm36-178v-2h-3c0 2 1 2 2 2h1zm21-23v-2h-3c0 2 1 2 2 2h1zm26-32l-3-1c0 1 1 3 2 2l1-1z" fill="#342d2a"/><path d="M1003 601l8 8 1-3c-4 1-6-3-9-5z" fill="#aaa513"/><path d="M1277 479h2c-1-3 1-6 1-8-2 2-2 6-3 8zm110 262l2 1h1l-3-1z" fill="#43302f"/><path d="M1070 748l4 3 1-5-2 3-3-2v1z" fill="#3c3b2a"/><path d="M827 824l1 1-1-1zm31-20l1 1-1-1zm77 82l1 1-1-1zm158 248l1 1-1-1zm84 19l2 1h1l-3-1zm89 0l2 1h1l-3-1zm263-298l-1-3 1 3zm31-49l1 1-1-1zm45 39l1 1-1-1z" fill="#cccaca"/><path d="M856 962v-2l-1 1 1 1zm47-145l1 1-1-1zm14 32l1 1-1-1zm13 178l1 1-1-1zm2-152l1 1-1-1zm1 4l1 1-1-1zm2 6v-2l-1 1 1 1zm656 77v-2l-1 1 1 1zm17-123l1 1-1-1z" fill="#dcdbda"/><path d="M1056 573v3c3 1 7 0 9-1-3-1-6 0-9-2z" fill="#6f7221"/><path d="M1068 491l3 3v-3h-3zm8 72l2 1h1v-2l-3 1zm6 0l-2-2c0 1 0 2 2 2zm5-3v-2h-2l2 2zm22-92h2l-2-3v3zm29 45v-2h-3c0 2 1 2 2 2h1zm7 0v-2h-2l2 2zm8-30l2 1h1v-2l-3 1zm10-2l-2-2c0 1 0 2 2 2z" fill="#38312a"/><path d="M1305 427c2 2 7 0 9 1l-9-1z" fill="#403927"/><path d="M855 960l1 1-1-1zm2 11v-2l-1 1 1 1zm2-170l2 1-2-1zm52 203l1 1-1-1zm32 36l1 1-1-1zm129 86l1 1-1-1zm283 7l1 1-1-1zm235-173l1 1-1-1zm10-91l-1-3 1 3z" fill="#d0cece"/><path d="M1035 640v-8c-3 2-2 7 0 8zm16 94l2 1-2-1zm4-17l-1-3c-2 1-3 3-1 3h2zm27-198l2 3v-3h-2z" fill="#d7c908"/><path d="M969 1064l1 1-1-1zm41 30l1 1-1-1zm188 61l1 1-1-1zm49 0l1 1-1-1zm43-5l1 1-1-1zm137-51l1 1-1-1zm49-35l1 1-1-1zm36-192v-2l-1 1 1 1zm91-22l1 1-1-1z" fill="#e8e7e7"/><path d="M845 860l1 1-1-1zm0 31l1 1-1-1zm12 88l1 1-1-1zm7 15l1 1-1-1zm11-169l1 1-1-1zm569 263l1 1-1-1zm114-101l1 1-1-1zm11 9l1 1-1-1zm44-52l1 1-1-1z" fill="#f0efef"/><path d="M1133 983l1 1-1-1zm35 11l2 1-2-1zm46-166l1 1-1-1zm7-1l1 1-1-1zm90 57l1 1-1-1zm72-291l2 1h1l-3-1zm17 328l1 1-1-1zm7-8l1 1-1-1z" fill="#3c3534"/><path d="M1067 668l1-1 1 2v-4c-1 0-4 1-2 3z" fill="#2a3e32"/><path d="M821 810l1 1-1-1zm25 76l1 1-1-1zm14-85l1 1-1-1zm28 185l1 1-1-1zm168 133l1 1-1-1zm270 23l1 1-1-1zm195-122l1 1-1-1zm63-219l2 1h1l-3-1z" fill="#cdcccb"/><path d="M1107 515v-2l-2-1c-2 1-2 2 0 2l2 1zm-2-4h2l1-2-3 2z" fill="#474929"/><path d="M1113 515c-2-2-5-2-7-2 0 2 2 2 3 2h4z" fill="#3e3e2a"/><path d="M1185 531l2 8c0-3 1-7-2-8z" fill="#b7b5b5"/><path d="M1404 635l1 1-1-1zm8 3h3c-4-1-1-5-2-7-2 2-1 5-1 7z" fill="#423938"/><path d="M858 984l1 1-1-1zm52-158l1 1-1-1zm12 192l1 1-1-1zm600 1l1 1-1-1zm47-181l1 1-1-1zm15-37l1 1-1-1zm16 60l1 1-1-1zm15 68v-2l-1 1 1 1z" fill="#e4e3e3"/><path d="M836 837l1 1-1-1zm340 316l2 1-2-1zm92 0l2 1-2-1zm241-272l1 1-1-1zm18 132l1 1-1-1zm1-150l1 1-1-1zm72 7v-2l-1 1 1 1zm0 16v-2l-1 1 1 1z" fill="#dddcdc"/><path d="M1070 923l1 1-1-1zm19-13l1 1-1-1zm15 59l1 1-1-1zm87 29l2 1h1l-3-1zm109-121l1 1-1-1zm46 31l1 1-1-1zm30 20l1 1-1-1zm3-335l2 1-2-1z" fill="#37302f"/><path d="M937 893l1 1-1-1zm593-48v-2l-1 1 1 1zm48-16c-2 1-3 3-5 3 0 2 1 2 2 1l2-2 1-2z" fill="#b0adad"/><path d="M1074 920l1 1-1-1zm39 54l1 1-1-1zm13-89l1 1-1-1zm59 112l1 1-1-1zm8 1l1 1-1-1zm33 2l1 1-1-1zm75-122l1 1-1-1zm62 41l1 1-1-1z" fill="#474140"/><path d="M1026 664l3 9v-8l-3-1z" fill="#335e36"/><path d="M868 829l1 1-1-1zm11 7l1 1-1-1zm186 287l1 1-1-1zm268 17l1 1-1-1zm16-5l2 1-2-1zm239-330v-2l-1 1 1 1zm0 16l1 1-1-1zm21 129l1 1-1-1z" fill="#b8b5b5"/><path d="M1035 640c-1-2 1-7-1-8l1 8z" fill="#316038"/><path d="M859 822l1 1-1-1zm12 10l2 2v-2h-2zm370 323l1 1-1-1zm254-108l1 1-1-1zm16-179l1 1-1-1zm1-10l1 1-1-1zm74-36l1 1-1-1zm18 25l1 1-1-1z" fill="#b1aeae"/><path d="M1368 552l2 1 1-7-3 6z" fill="#89292b"/><path d="M917 872l2 1-2-1zm272 282l1 1-1-1zm67 0l1 1-1-1zm49-7l1 1-1-1zm70-22l1 1-1-1zm7-3l1 1-1-1zm7-3l1 1-1-1zm138-247l2 1-2-1z" fill="#c2c0c0"/><path d="M840 906l1 1-1-1zm36-68l1 1-1-1zm42 15v-2l-1 1 1 1zm204 290l2 1-2-1zm372-95l1 1-1-1zm29-30l1 1-1-1zm6-156l-1-3 1 3zm71 5v-2l-1 1 1 1z" fill="#c1bebe"/><path d="M1389 637l-6-1 2 2 4-1z" fill="#403837"/><path d="M820 812l1 1-1-1zm24 43l1 1-1-1zm35-51l1 1-1-1zm173 313l1 1-1-1zm463-227l1 1-1-1zm5 131l1 1-1-1zm26-33l1 1-1-1zm5-7l1 1-1-1z" fill="#b3b0b0"/><path d="M1197 568l3 1h1l-4-1zm27 0l3 1h1l-4-1z" fill="#d3d2d2"/><path d="M1025 662l1 3c2 0 4-1 4-3l-1 2-4-2z" fill="#82861d"/><path d="M1046 923l1 1-1-1zm31-5l1 1-1-1zm24-16l1 1-1-1zm26-18l1 1-1-1zm91 116l2 1-2-1zm104-108l2 1-2-1zm35 23l1 1-1-1z" fill="#443e3d"/><path d="M1347 552c-1-2 1-6-1-7l1 7z" fill="#30614a"/><path d="M999 690l7 7-7-7z" fill="#3b392a"/><path d="M1028 730v-2h-3c0 2 1 2 2 2h1zm25-76l3 1v-3l-3 2zm13 26v-3h-2l2 3zm6-184v-3h-2l2 3zm4 222h2v-3h-2v3zm30-181v-2h-3c0 2 1 2 2 2h1zm28-25l3 1-1-2-2 1z" fill="#352e2a"/><path d="M1223 539c-1-2 1-6-1-7l1 7z" fill="#dbd9d9"/><path d="M1056 575c2 2 5 0 7 1l-7-1z" fill="#0c8450"/><path d="M833 832l1 1-1-1zm411 323l2 1-2-1zm96-17l1 1-1-1zm173-275v-2l-1 1 1 1zm86 22l1 1-1-1zm1 6l1 1-1-1zm8 21l1 1-1-1z" fill="#cecdcc"/><path d="M833 811l1 1-1-1zm142 258l1 1-1-1zm211 85l2 1-2-1zm72 0l2 1-2-1zm212-85l1 1-1-1zm115-259l1 1-1-1zm27 1l2 1-2-1z" fill="#e5e5e4"/><path d="M1031 944l7 7-7-7z" fill="#34302e"/><path d="M844 854v-2l-1 1 1 1zm14-45v-2l-1 1 1 1zm71 77l1 1-1-1zm12 152l1 1-1-1zm381 105l1 1-1-1zm207-287v-2l-1 1 1 1zm41-53l1 1-1-1z" fill="#c0bebd"/><path d="M1107 513l2 1-2-1zm501 425c-1-2 1-5-1-6l1 6z" fill="#dcce07"/><path d="M1142 986l1 1-1-1zm49 12l1 1-1-1zm22-169l1 1-1-1zm19-308l2 1-2-1zm90 371l1 1-1-1zm77 30l1 1-1-1zm21-287l1 1-1-1z" fill="#3f3837"/><path d="M856 820l1 1-1-1zm283 327l1 1-1-1zm37 6l1 1-1-1zm93 0l1 1-1-1zm222-102l1 1-1-1zm48-53l1 1-1-1zm30-171l1 1-1-1z" fill="#edecec"/><path d="M1023 721c2 2 5 0 7 1l-7-1z" fill="#626624"/><path d="M1036 674v-7h-2c0 2 0 5 2 7z" fill="#0b8651"/><path d="M1095 906l1 1-1-1zm66 86l1 1-1-1zm18 4l1 1-1-1zm22-473l2 1-2-1zm10 307l1 1-1-1zm10 170l2 1-2-1zm49-5l2 1-2-1z" fill="#393231"/><path d="M924 876l1 1-1-1zm225 273l2 1h1l-3-1zm363-287l1 1-1-1zm9 14l1 1-1-1zm23 115l1 1-1-1zm30-189l2 1-2-1zm9 190l1 1-1-1z" fill="#d9d8d8"/><path d="M1214 539c-1-2 1-6-1-7l1 7z" fill="#f0f0f0"/><path d="M1028 639c-1-2 1-6-1-7l1 7z" fill="#6b6f22"/><path d="M1003 689h3v-2l-3-1v3zm13-124l1-1-2-2 1 3zm11 165l-3-2c0 2 1 2 2 2h1zm9-196h2l-2-3v3zm19 122l2-2c-1-1-3 0-3 1l1 1zm4-11l2 1h1v-2l-3 1zm95-160v-2h-3c0 2 1 2 2 2h1z" fill="#414029"/><path d="M842 849l1 1-1-1zm76 23l1 1-1-1zm102 228l1 1-1-1zm473-51l1 1-1-1zm93-248l1 1-1-1zm27 10l1 1-1-1zm8-2l2 1-2-1z" fill="#d1cfcf"/><path d="M1280 594c-1-2 1-6-1-7l1 7z" fill="#0e7e4e"/><path d="M856 952v-2l-1 1 1 1zm-1 6l1 1-1-1zm63-104v-2l-1 1 1 1zm79 231l1 1-1-1zm531-226l1 1-1-1zm62 99l1 1-1-1zm17-48l1 1-1-1z" fill="#b5b3b3"/><path d="M1341 519v-7l-2 2c0 2 0 4 2 5z" fill="#8d282b"/><path d="M999 641v-2l-1 1 1 1zm15 52v-2h-3c0 2 1 2 2 2h1zm0-130l2 2v-2h-2zm65 146v-2h-2l2 2zm31-231v-2h-2l2 2zm30 35v-2h-3c0 2 1 2 2 2h1z" fill="#3d3729"/><path d="M856 969l1 1-1-1zm602 109l1 1-1-1zm49-43l1 1-1-1zm3-3l1 1-1-1zm16-18l1 1-1-1zm84-202l1 1-1-1z" fill="#b5b2b2"/><path d="M918 865v-2l-1 1 1 1zm178 270l1 1-1-1zm16 5l1 1-1-1zm23 6l1 1-1-1zm175 0l1 1-1-1zm120-49l1 1-1-1z" fill="#c5c3c2"/><path d="M916 842l1 1-1-1zm270 312l1 1-1-1zm73 0l1 1-1-1zm315-352l1 1-1-1zm19 16l1 1-1-1zm9 79l1 1-1-1z" fill="#f3f3f3"/><path d="M1138 877l1 1-1-1zm63-354l1 1-1-1zm20 477l1 1-1-1zm1-172l1 1-1-1zm4 3l1 1-1-1zm3 3l1 1-1-1z" fill="#3d3635"/><path d="M927 881l1 1-1-1zm127 237l1 1-1-1zm148 37l2 1h1l-3-1zm112-10l1 1-1-1zm4-1l1 1-1-1zm270-166l1 1-1-1z" fill="#bdbaba"/><path d="M1283 496v-2h-6c0 2 1 2 3 2h3z" fill="#275b3f"/><path d="M1000 686c1 2 4 3 5 3-1-2-3-3-5-3zm60 5h2v-3h-2v3zm13-104l3 1v-3l-3 2zm8-27l2 2v-2h-2zm54-47l-3-2c0 2 1 2 2 2h1z" fill="#37302a"/><path d="M1220 1148c1 2 4 0 6 1l-6-1z" fill="#c7ba0b"/><path d="M1397 629l6 6-6-6z" fill="#533f3f"/><path d="M1214 622c-1-2 1-5-1-6l1 6z" fill="#bfbcbc"/><path d="M1277 494c1 2 4 0 6 1l-6-1z" fill="#b72429"/><path d="M1012 876l1 1-1-1zm133 111l1 1-1-1zm72 13l2 1-2-1zm37-2l1 1-1-1zm44-122l1 1-1-1zm125 15l1 1-1-1z" fill="#484241"/><path d="M1359 549c1 2 4 0 6 1l-6-1z" fill="#4e3b3a"/><path d="M1122 1143l1 1-1-1zm249-16l1 1-1-1zm7-3l1 1-1-1zm7-3l1 1-1-1zm132-238l1 1-1-1zm104-74l1 1-1-1z" fill="#f5f4f4"/><path d="M875 803l1 1-1-1zm14 182l1 1-1-1zm29-121l-1-3 1 3zm495 243l1 1-1-1zm158-272l1 1-1-1zm47-25l1 1-1-1z" fill="#bab8b8"/><path d="M1378 680l3 2 2-1-5-1z" fill="#a29e9e"/><path d="M1180 545c-1-2 1-5-1-6l1 6z" fill="#2b3c32"/><path d="M1274 483v-2l-1 1 1 1zm35 7l1 1-1-1zm6-2l1 1-1-1zm50 237l1 1-1-1zm8 2l-1-3 1 3zm24-47l1 1-1-1z" fill="#362c2b"/><path d="M1088 959l1 1-1-1zm77 34l1 1-1-1zm164-18l1 1-1-1zm2-1l1 1-1-1zm2-1l1 1-1-1zm89-80l1 1-1-1z" fill="#3b3534"/><path d="M1037 656c-1-2 1-5-1-6l1 6z" fill="#3b472d"/><path d="M885 806l1 1-1-1zm32 46l1 1-1-1zm3 163l1 1-1-1zm505 85l1 1-1-1zm150-282l1 1-1-1zm39 110l1 1-1-1z" fill="#bbb9b8"/><path d="M1071 922l1 1-1-1zm76 66l1 1-1-1zm52 11l1 1-1-1zm6-478l1 1-1-1zm140 445l1 1-1-1zm72-331l1 1-1-1z" fill="#4a4443"/><path d="M873 834v-2l-1 1 1 1zm44 32l1 1-1-1zm8 155l1 1-1-1zm162 111l1 1-1-1zm271 0l1 1-1-1zm248-289l1 1-1-1z" fill="#e1e0df"/><path d="M1053 716c1 2 2 6 4 6-2-2-2-4-2-6h-2z" fill="#375732"/><path d="M931 869l1 1-1-1zm6 165l1 1-1-1zm50 44l1 1-1-1zm602-108l1 1-1-1zm25-30l1 1-1-1z" fill="#c4c2c1"/><path d="M1025 730v-2h-3c0 2 1 2 2 2h1zm6 1v-2h-3c0 2 1 2 2 2h1zm6-53l2 2v-2h-2zm41 36l1-3h-2v2l1 1zm26-178l2 1h1v-2l-3 1z" fill="#3e3929"/><path d="M1299 501l1 1-1-1zm10-11l-2-1c0 2 1 2 2 1zm23 34l1 1-1-1zm8-12l1 1-1-1zm31 35v-2l-1 1 1 1z" fill="#372c2b"/><path d="M831 926l1 1-1-1zm270 211l1 1-1-1zm410-266l1 1-1-1zm23-43l1 1-1-1zm6-9l1 1-1-1z" fill="#fafafa"/><path d="M1012 691l2 2v-2h-2zm66 28v-3c-2 1-3 3 0 3zm33-249v-2h-2l2 2zm34 42l-3-1c0 1 1 3 2 2l1-1zm7-28l2 1h1v-2l-3 1z" fill="#3f3a29"/><path d="M839 908l1 1-1-1zm18-100l1 1-1-1zm220 320l1 1-1-1zm291 0l1 1-1-1zm181-144l1 1-1-1z" fill="#d4d2d2"/><path d="M1047 924l1 1-1-1zm15 15l1 1-1-1zm34-34l1 1-1-1zm121 95l1 1-1-1zm192-89l1 1-1-1z" fill="#4d4746"/><path d="M1051 718l2 1 1-2-1-2-2 2v1z" fill="#3b4a2e"/><path d="M1215 827l1 1-1-1zm44 170l2 1-2-1zm24-5l1 1-1-1zm29-107l1 1-1-1zm64 59l1 1-1-1z" fill="#46403f"/><path d="M939 1036l1 1-1-1zm40 36l1 1-1-1zm223 83l1 1-1-1zm264-83l1 1-1-1zm63-229l1 1-1-1z" fill="#c6c4c4"/><path d="M917 863l1 1-1-1zm43 193l1 1-1-1zm572-223l1 1-1-1zm34 161l1 1-1-1zm48-69v-2l-1 1 1 1z" fill="#bfbdbc"/><path d="M989 680l3 3v-2l-3-1z" fill="#322d2b"/><path d="M1035 672c0-1 1-4-1-5l1 5z" fill="#676a22"/><path d="M1034 909l1 1-1-1zm2 3l1 1-1-1zm57 50l1 1-1-1zm186 31l1 1-1-1zm96-66l1 1-1-1z" fill="#4e4847"/><path d="M1069 1125l1 1-1-1zm80 24l1 1-1-1zm383-312v-2l-1 1 1 1zm-1 171l1 1-1-1zm73-106l1 1-1-1z" fill="#f5f5f5"/><path d="M1353 542h2v-5l-2 5z" fill="#747b76"/><path d="M869 802l2 1-2-1zm167 307l1 1-1-1zm168 46l1 1-1-1zm397-260l1 1-1-1zm1-43l1 1-1-1z" fill="#b2b0af"/><path d="M843 853l1 1-1-1zm67 150l1 1-1-1zm3-171l1 1-1-1zm21 52l1 1-1-1zm653-81l1 1-1-1z" fill="#f6f6f6"/><path d="M1020 729v-2h-3c0 2 1 2 2 2h1zm9 0l2 2v-2h-2zm4-200l3 1-1-2-2 1zm36 63l-3-1c0 1 1 3 2 2l1-1zm9-30l2 1h1v-2l-3 1z" fill="#393229"/><path d="M1355 560l1 1-1-1zm5 161l2 1-2-1zm9 10l1 1-1-1zm3-189l1 1-1-1zm15 199l1 1-1-1z" fill="#3d2d2c"/><path d="M1021 687l5 5-5-5z" fill="#3b5330"/><path d="M930 889l1 1-1-1zm31 168l1 1-1-1zm158 85l1 1-1-1zm81 13l1 1-1-1zm45 0l1 1-1-1z" fill="#d8d6d6"/><path d="M911 828l1 1-1-1zm1 2l1 1-1-1zm243 320l1 1-1-1zm355-274l1 1-1-1zm89-7l1 1-1-1z" fill="#e9e9e9"/><path d="M1057 648l3 1 2-5-5 4zm11-58l2 1h1v-2l-3 1zm44-125v-3h-2l2 3zm18 49h2v-3h-2v3z" fill="#3a3329"/><path d="M1331 533c1 2 4 1 5 1v-2l-5 1z" fill="#206342"/><path d="M845 815l1 1-1-1zm222 309l1 1-1-1zm38 14l1 1-1-1zm440-148l1 1-1-1zm33-162l1 1-1-1z" fill="#dad9d9"/><path d="M1022 729v-2h-3c0 2 1 2 2 2h1zm10-202v-3l-2 1 2 2zm46 38v-2h-3c0 2 1 2 2 2h1zm1 145v-3c-2 1-3 3 0 3zm34-175l2 1h1v-2l-3 1z" fill="#413f29"/><path d="M1035 532l3 2-3-2zm76 5v-2h-3c0 2 1 2 2 2h1zm6-1v-2h-2l2 2zm34-50v-2h-2l2 2z" fill="#3f3b29"/><path d="M1332 532l3 1h1l-4-1z" fill="#af2429"/><path d="M1010 558l3 3v-3h-3zm23-32l-2-2c0 1 0 2 2 2zm41-27v-2h-2l2 2zm2 223h2v-3h-2v3z" fill="#3c3529"/><path d="M1074 949l1 1-1-1zm125-424l1 1-1-1zm156 435l1 1-1-1zm76-82l1 1-1-1z" fill="#4c4645"/><path d="M1004 645l3 3v-3h-3zm15 83v-2h-2l2 2zm1 0l2 1h1v-2l-3 1zm138-245l-3-1c0 1 1 3 2 2l1-1z" fill="#3e3828"/><path d="M1160 593c0-1 1-4-1-4l1 4z" fill="#2f342e"/><path d="M1306 504l2 2v-2h-2zm57 51l1 1-1-1zm16 173l-1-3 1 3zm25-68l2 1-2-1z" fill="#3b2c2b"/><path d="M835 835l1 1-1-1zm20 116l1 1-1-1zm744-86l1 1-1-1zm11-30l1 1-1-1z" fill="#afacac"/><path d="M870 802l1 1-1-1zm9 36l1 1-1-1zm648 34l1 1-1-1zm1-20l1 1-1-1z" fill="#d6d5d5"/><path d="M1000 686l6 4v-2h-1c-1-2-3-3-5-3v1zm72-191v-3h-2l2 3z" fill="#255d3c"/><path d="M1267 641c0-1 1-4-1-4l1 4z" fill="#9a9796"/><path d="M1375 676c0-1 1-4-1-4l1 4z" fill="#5f6761"/><path d="M841 847l1 1-1-1zm184 256l1 1-1-1zm305 38l1 1-1-1zm85-35l1 1-1-1z" fill="#dddbdb"/><path d="M1068 924l1 1-1-1zm53-36l1 1-1-1zm8-5l1 1-1-1zm242 65l1 1-1-1z" fill="#4f4948"/><path d="M1034 528l-2-2c0 1 0 2 2 2zm71 8l2 1h1v-2l-3 1zm6-67v-3c-2 1-3 3 0 3zm33 43l-3-1c0 1 1 3 2 2l1-1z" fill="#414129"/><path d="M1382 583l3 1h1l-4-1z" fill="#efefef"/><path d="M843 898l1 1-1-1zm30-64l1 1-1-1zm710-10l1 1-1-1zm26 13l1 1-1-1z" fill="#d1d0d0"/><path d="M1002 643l-1-3-2 1 3 2zm56 6l2-1 1-2h-2l-1 3zm18-63l-3 1c0 1 1 2 2 1l1-2zm84-106c-2 0-4 2-2 3l2-3z" fill="#088c54"/><path d="M1365 550l2 1-2-1zm9 172v-2l-1 1 1 1zm5-176l1 1-1-1zm37 143l2 1-2-1z" fill="#392c2b"/><path d="M1082 915l1 1-1-1zm121 84l1 1-1-1zm134-28l1 1-1-1zm7-4l1 1-1-1z" fill="#504a49"/><path d="M852 950l1 1-1-1zm15-122l1 1-1-1zm5 5l1 1-1-1zm122 250l1 1-1-1z" fill="#c9c7c6"/><path d="M862 992l1 1-1-1zm488 143l1 1-1-1zm140-83l1 1-1-1zm38-203l1 1-1-1z" fill="#f7f7f7"/><path d="M873 822l1 1-1-1zm217 311l1 1-1-1zm426-247l1 1-1-1zm50-82l1 1-1-1z" fill="#d2d1d0"/><path d="M1192 736l1 1-1-1zm2-29l1 1-1-1zm45-60l1 1-1-1zm114 314l1 1-1-1z" fill="#423b3a"/><path d="M1067 593l-3-1c0 1 1 3 2 2l1-1zm15-33l2 1h1v-2l-3 1zm52-47l-3-2c0 2 1 2 2 2h1zm2-1l3 1-1-2-2 1z" fill="#3b3429"/><path d="M1062 692v-3l-2 1 2 2zm8-201v-3h-2l2 3zm42-28l-2-1c0 2 1 2 2 1zm30 50v-2h-3c0 2 1 2 2 2h1z" fill="#40432a"/><path d="M1270 486l1 1-1-1zm38 6l-1-3 1 3zm75 51l1 1-1-1zm8 165l2 1-2-1z" fill="#3a2c2b"/><path d="M1340 518c0-1 1-4-1-4l1 4z" fill="#979493"/><path d="M1232 515l-1-3 1 3z" fill="#20563c"/><path d="M846 865l1 1-1-1zm720-24l1 1-1-1zm16 152l1 1-1-1z" fill="#bdbbbb"/><path d="M1260 997l1 1-1-1zm132-369l1 1-1-1zm9 292l1 1-1-1z" fill="#36302f"/><path d="M1515 1027l1 1-1-1zm16-191l1 1-1-1zm23 147l1 1-1-1z" fill="#b6b4b3"/><path d="M852 818l1 1-1-1zm78 46l1 1-1-1zm646 133l1 1-1-1z" fill="#eae9e9"/><path d="M1012 693l-2-3h-1c0 2 1 2 3 3zm2-131v-3h-2l2 3zm19-33l2 2v-2h-2z" fill="#41442a"/><path d="M1033 527v-2h-2l2 2zm38 63l2-1 1-2h-2l-1 3zm82-105l-1-2c-2 0-3 3-1 3l2-1z" fill="#107a4b"/><path d="M1052 734l1 1-1-1zm23 12l-1-3 1 3zm-1 2l1 1-1-1z" fill="#bfb30d"/><path d="M1343 536l2 1h1l-3-1z" fill="#334837"/><path d="M1362 558l2 1-2-1zm17 171v-2l-1 1 1 1zm14-41v-2l-1 1 1 1z" fill="#5c2d2d"/><path d="M1012 607l-2-2c0 1 0 2 2 2zm42 20l2-2-3-1 1 3zm18-129h2l-2-3v3z" fill="#5c5723"/><path d="M1008 647l-3-3c0 1 1 4 3 3zm7-86l-3-3c0 1 1 4 3 3zm61 4l-3-1c0 1 1 3 2 2l1-1z" fill="#3e3829"/><path d="M1000 640l1 1-1-1zm30 90l-3-1c0 1 1 3 2 2l1-1zm83-193v-2h-3c0 2 1 2 2 2h1z" fill="#3d3629"/><path d="M930 861l1 1-1-1zm10 176l1 1-1-1zm63 52l1 1-1-1z" fill="#b7b5b4"/><path d="M1268 488l1 1-1-1zm124 191l-1-3 1 3zm18 7v-2l-1 1 1 1z" fill="#482c2c"/><path d="M999 641l1 1-1-1zm31 89l1 1-1-1zm129-247l-2-2c0 1 0 2 2 2z" fill="#362f2a"/><path d="M1001 685c0 2 2 2 3 3v-2l-3-1zm17 42l3 2-3-2zm59-6l1-3h-2v2l1 1z" fill="#41432a"/><path d="M1005 690h2l-2-3v3zm60-96l2-1v-2c-1 0-4 1-2 3zm4-103l3 3-2-3h-1z" fill="#157047"/><path d="M1376 754l2 1h1l-3-1z" fill="#45322e"/><path d="M1026 729l2 1h1v-2l-3 1zm52-12l-1-3h-1l2 3zm36-181l-3-2c0 2 1 2 2 2h1z" fill="#4e4825"/><path d="M930 305h2l1-2-3 2z" fill="#7b7676"/><path d="M831 940l1 1-1-1zm506 199l1 1-1-1zm276-216l1 1-1-1z" fill="#dedddd"/><path d="M1556 985l1 1-1-1zm29 4l1 1-1-1zm13-173l1 1-1-1z" fill="#d7d6d5"/><path d="M1201 999l1 1-1-1zm208-415l2 1-2-1zm21 296l1 1-1-1z" fill="#393332"/><path d="M1310 491l1 1-1-1zm68 236l1 1-1-1zm21-44v-2l-1 1 1 1z" fill="#3f2c2b"/><path d="M1346 515l2 2v-2h-2zm25 219v-2l-1 1 1 1zm11-2l1 1-1-1z" fill="#382b2b"/><path d="M1273 476l1 1-1-1zm30 31l2 1-2-1zm73 40v-2l-1 1 1 1z" fill="#594947"/><path d="M1510 303l3 3-3-3z" fill="#aaa7a7"/><path d="M823 809l1 1-1-1zm34 168l1 1-1-1zm762-154l1 1-1-1z" fill="#c1bfbf"/><path d="M1385 558l-1-3 1 3z" fill="#a12529"/><path d="M831 928l1 1-1-1zm348 225l1 1-1-1zm87 0l1 1-1-1z" fill="#b9b6b6"/><path d="M1029 524l1 1-1-1zm30 122l2 2v-2h-2zm16-57l-2-2c0 1 0 2 2 2z" fill="#494326"/><path d="M1004 688v-2l-1 1 1 1zm22 41l2 2 1-3-3 1zm87-192l1-1-3-2 2 3z" fill="#127449"/><path d="M1370 551l-1-3 1 3z" fill="#9c9898"/><path d="M1019 728l-2-1c0 2 1 2 2 1zm1 0l3 2v-2h-3zm35-72v-2h-2l2 2z" fill="#6f6a1f"/><path d="M1308 493v-2l-1 1 1 1zm64 233l1 1-1-1zm19 16l1 1-1-1z" fill="#5b2d2d"/><path d="M1315 493l-1-3 1 3zm70 189l1 1-1-1zm1 49l2 1-2-1z" fill="#3d2c2b"/><path d="M1034 531l3 2v-2h-3zm27 85l2 2 1-1-3-1zm1 74l1-3h-2v2l1 1z" fill="#423b28"/><path d="M1078 718l1-2-2-1 1 3zm33-181l1-3c-1 1-3 2-1 3zm21-23l2-1-3-2 1 3z" fill="#176a45"/><path d="M1111 464v-2l-1 1 1 1zm24 48l2 1h1l-3-1zm8-1l2 1-2-1z" fill="#1d5d3f"/><path d="M1030 730l-2-2c0 1 0 2 2 2zm42-236v-2l-1 1 1 1zm4 93v-2l-1 1 1 1z" fill="#77721d"/><path d="M1071 492l-2-2c0 1 0 2 2 2zm13 67h3-3zm54-47l3 1-1-2-2 1z" fill="#403d29"/><path d="M917 861l1 1-1-1zm234 288l1 1-1-1zm377-294l1 1-1-1z" fill="#b4b1b1"/><path d="M1069 590l2 1h1v-2l-3 1zm15-28v-2h-2l2 2z" fill="#275d3b"/><path d="M1015 1097l1 1-1-1zm513-236l1 1-1-1z" fill="#cbc9c9"/><path d="M1015 562v-2h-2l2 2zm66-1l-3 1c0 1 1 2 2 1l1-2z" fill="#0d814f"/><path d="M1073 499l1-1-2-2 1 3zm89-18v-2h-2l2 2z" fill="#2b5838"/><path d="M1067 488l2 2 1-1-3-1zm14 75v-2l-1 1 1 1z" fill="#315134"/><path d="M999 640v-2l-1 1 1 1zm163-162l1 1-1-1z" fill="#3d3728"/><path d="M1380 593l2 1-2-1zm35 43l2 1-2-1z" fill="#423a39"/><path d="M1061 647v-2h-2l2 2zm6-54l2-1v-2c-1 0-4 1-2 3z" fill="#0b8350"/><path d="M1033 528v-3c-2 1-3 3 0 3zm22 129v-3c-2 1-3 3 0 3z" fill="#2f5937"/><path d="M1000 642l3 1-1-2-2 1zm84-80l2-2c-1-1-3 0-3 1l1 1z" fill="#413e29"/><path d="M1306 504l2 1-2-1zm78 227l2 1h1l-3-1z" fill="#412c2b"/><path d="M1023 730l1-1-1-2-2 1 2 2zm43-52l-2-1c0 2 1 2 2 1z" fill="#166d46"/><path d="M1111 973l1 1-1-1zm261-48l1 1-1-1z" fill="#4c4646"/><path d="M1360 558l2 1h1l-3-1zm32 122v-2l-1 1 1 1z" fill="#342c2b"/><path d="M1110 536l-3-1c0 1 1 3 2 2l1-1zm0-74l1 1-1-1z" fill="#334e32"/><path d="M1073 497v-3h-2l2 3zm4 223l1-3c-1 1-3 2-1 3z" fill="#3f462b"/><path d="M1349 511l1 1-1-1zm2-2l1 1-1-1z" fill="#3f2e2d"/><path d="M1566 839l1 1-1-1zm12 157l1 1-1-1z" fill="#bebcbc"/><path d="M1328 522l3 2-3-2zm64 153l1 1-1-1z" fill="#3e2c2b"/><path d="M1057 654v-2h-2l2 2zm102-174h3-3z" fill="#443d27"/><path d="M1077 715l2 1-2-1zm9-157l1 1-1-1z" fill="#137349"/><path d="M1034 588l1 1-1-1zm73-89v-2l-1 1 1 1z" fill="#d4c709"/><path d="M1064 677l2 1-2-1zm42-141l3 1-1-2-2 1z" fill="#3d482d"/><path d="M1303 986l1 1-1-1zm95-402v-2l-1 1 1 1z" fill="#373130"/><path d="M1006 645l-3-2c0 2 1 2 2 2h1zm30-113v-2h-2l2 2z" fill="#736f1e"/><path d="M1078 539l2 1h1l-3-1zm505 405v-2l-1 1 1 1z" fill="#d3c509"/><path d="M1377 549l1 1-1-1zm31 138l1 1-1-1z" fill="#4e2b2b"/><path d="M1006 646v-2l-3-1c0 2 1 3 3 3zm28-116l3 3-2-3h-1z" fill="#177446"/><path d="M1357 550l1 1-1-1zm39 128l1 1-1-1z" fill="#352d2c"/><path d="M1391 708l1 1-1-1zm9-23l1 1-1-1z" fill="#402f2e"/><path d="M1054 576l-2-1c0 2 1 2 2 1zm27-59l1 1-1-1z" fill="#a09d15"/><path d="M1392 638l1 1-1-1zm2-6v-2l-1 1 1 1z" fill="#4b3d3c"/><path d="M1062 689l1-3c-1 1-3 2-1 3zm17 22v-3c-2 1-3 3 0 3z" fill="#3f452b"/><path d="M1336 526l2 1-2-1zm39 194v-2l-1 1 1 1z" fill="#452c2b"/><path d="M1031 527l2 1v-2l-2 1zm81-61v-2l-1 1 1 1z" fill="#453e27"/><path d="M1034 702l2 1-2-1zm74-189l2 1-2-1z" fill="#d5c808"/><path d="M1136 984l1 1-1-1zm204-80l1 1-1-1z" fill="#383231"/><path d="M1075 721l3 2v-2h-3zm77-235l-2-2c0 1 0 2 2 2z" fill="#3e3728"/><path d="M1017 727l2 1v-2l-2 1zm3 1l2 1-2-1z" fill="#137249"/><path d="M1288 991l1 1-1-1zm7-2l1 1-1-1z" fill="#4f4a49"/><path d="M1200 654l1 1-1-1zm61 4l1 1-1-1z" fill="#6c6766"/><path d="M1016 564v-2h-2l2 2zm21-31v-2l-1 1 1 1z" fill="#069056"/><path d="M1064 677l1 1-1-1zm13 44v-2l-1 1 1 1z" fill="#314f34"/><path d="M1338 970l1 1-1-1zm36-24l1 1-1-1z" fill="#4e4848"/><path d="M1056 575l-2-1c0 2 1 2 2 1zm526 367l1 1-1-1z" fill="#e3d505"/><path d="M1269 491l-2-2c0 1 0 2 2 2zm33 17l1 1-1-1z" fill="#4c3836"/><path d="M1269 487l1 1-1-1zm117 253l1 1-1-1z" fill="#4c2c2c"/><path d="M1078 714l1-2-2-1 1 3zm59-202l2 1h1l-3-1z" fill="#21553b"/><path d="M1073 495l-2-1c0 2 1 2 2 1zm4 68l3 1-1-2-2 1z" fill="#275a3a"/><path d="M1225 830l1 1-1-1zm83 154l1 1-1-1z" fill="#3f3838"/><path d="M1306 504l1 1-1-1zm36 7l1 1-1-1z" fill="#453130"/><path d="M1105 537l-3-2c0 2 1 2 2 2h1zm25-26l2 2v-2h-2z" fill="#3f3828"/><path d="M1023 728l2 2v-2h-2zm5 1l2 1-2-1z" fill="#20593d"/><path d="M1077 713l1 1-1-1zm56-201l2 1h1l-3-1z" fill="#196442"/><path d="M1079 917l1 1-1-1zm20-14l1 1-1-1z" fill="#484242"/><path d="M1308 494v-2l-1 1 1 1zm57 56l1 1-1-1z" fill="#5a2d2c"/><path d="M1067 488l3 1-1-2-2 1zm6 7l-2-2c0 1 0 2 2 2z" fill="#11794b"/><path d="M1338 527l2 1-2-1zm39 196l1 1-1-1z" fill="#3c2c2b"/><path d="M1000 642l2 2v-2h-2zm158-162l2 2v-2h-2z" fill="#484226"/><path d="M1388 594l2 1v-2l-2 1zm15 66l2 1-2-1z" fill="#473433"/><path d="M1359 558l2 1-2-1zm49 131l2 1h1l-3-1z" fill="#412f2e"/><path d="M1078 719v-2l-1 1 1 1zm39-184l-2-1c0 2 1 2 2 1z" fill="#22563b"/><path d="M1030 904l1 1-1-1zm90-15l1 1-1-1z" fill="#3a3433"/><path d="M1358 551l1 1-1-1zm45 131l1 1-1-1z" fill="#463231"/><path d="M1059 651l1-3h-2v2l1 1zm6-60l2 2v-2h-2z" fill="#76721e"/><path d="M1114 535l2 1v-2l-2 1zm35-51l2 2v-2h-2z" fill="#394a2f"/><path d="M1053 575l2 1v-2l-2 1zm72-78l1 1-1-1z" fill="#f9ea01"/><path d="M1279 471l1 1-1-1zm138 218l1 1-1-1z" fill="#503e3c"/><path d="M1274 477l1 1-1-1zm98 68v-2l-1 1 1 1z" fill="#502c2c"/><path d="M1076 563l2 2 1-1-3-1zm34-97v-2l-1 1 1 1z" fill="#6e691f"/><path d="M1298 502l1 1-1-1zm99 138v-2l-1 1 1 1z" fill="#493d3c"/><path d="M1077 711h2v-3l-2 3zm0 7l1 1-1-1z" fill="#374c30"/><path d="M1272 494l1 1-1-1zm90 60l1 1-1-1z" fill="#432c2b"/><path d="M1018 723l1 1-1-1zm54-136l2 2v-2h-2z" fill="#676221"/><path d="M1045 604l2 1-2-1zm81-108l2 1v-2l-2 1z" fill="#ebdc04"/><path d="M1376 721l1 1-1-1zm16-40v-2l-1 1 1 1z" fill="#42302f"/><path d="M1000 685l2 2v-2h-2zm153-202l2 2 1-3-3 1z" fill="#11784b"/><path d="M1013 562l2 2 1-1-3-1zm50 117l1 1-1-1z" fill="#423c28"/><path d="M1013 692l-2-1c0 2 1 2 2 1zm60-128l2 1h1v-2l-3 1z" fill="#7d781c"/><path d="M1244 999l1 1-1-1zm111-85l1 1-1-1z" fill="#342e2d"/><path d="M1022 727l1 1-1-1zm40-37v-3l-2 1 2 2z" fill="#76711d"/><path d="M1027 525v-2l-1 1 1 1zm38 154l1 1-1-1z" fill="#686321"/><path d="M1402 660l2 1-2-1zm7 25l1 1-1-1z" fill="#4f3b3a"/><path d="M1032 586l2 2v-2h-2zm21 130l1 1-1-1z" fill="#dfd106"/><path d="M1010 692l1-1-3-2 2 3zm72-131l2 1v-2l-2 1z" fill="#11774b"/><path d="M1313 493l2 1v-2l-2 1zm88 191l1 1-1-1z" fill="#362b2b"/><path d="M1059 651v-3h-2l2 3zm1 39l1 1-1-1z" fill="#36312a"/><path d="M1000 597l1 1-1-1zm78-34l2 1-2-1z" fill="#5a5523"/><path d="M944 1041l1 1-1-1zm661-136l1 1-1-1z" fill="#d9d7d7"/><path d="M1382 571l1 1-1-1zm0 22l2 1-2-1z" fill="#413938"/><path d="M1078 539l1 1-1-1zm29-38l-1-3 1 3z" fill="#cbbe0b"/><path d="M1388 684l1 1-1-1zm3-4l1 1-1-1z" fill="#52403e"/><path d="M1015 563v-2h-2l2 2zm139-79l1 1-1-1z" fill="#6a6620"/><path d="M1158 483v-2h-2l2 2z" fill="#275739"/><path d="M1156 484l2-2c-1-1-3 0-3 1l1 1z" fill="#088a52"/><path d="M1026 730l-2-2c0 1 0 2 2 2z" fill="#3f472b"/><path d="M1303 499l1 1-1-1z" fill="#4b2d2c"/><path d="M1010 606l2 2v-2h-2z" fill="#635f22"/><path d="M1149 484l2 1-2-1z" fill="#575524"/><path d="M1036 703l2 2v-2h-2z" fill="#b1ac12"/><path d="M1010 690l-2-1c0 2 1 2 2 1z" fill="#4b4526"/><path d="M1009 690l-3-2c0 2 1 2 2 2h1z" fill="#696420"/><path d="M1054 735l1 1-1-1z" fill="#a59c13"/><path d="M1042 606l2 1-2-1z" fill="#bdb60e"/><path d="M1075 747v-2l-1 1 1 1z" fill="#b1a610"/><path d="M1010 558l3 2v-3l-3 1z" fill="#1a6f45"/><path d="M1106 537l-3-1c0 1 0 2 1 1h2z" fill="#1a6342"/><path d="M1263 655l1 1-1-1z" fill="#4a4343"/><path d="M1008 648v-2h-2l2 2z" fill="#2c6039"/><path d="M1397 583l1 1-1-1z" fill="#503c3c"/><path d="M1401 581l1 1-1-1z" fill="#563b3b"/><path d="M1378 725l1 1-1-1z" fill="#503c3a"/><path d="M1389 741l1 1-1-1z" fill="#4a3735"/><path d="M1007 689l2 2v-2h-2z" fill="#384c30"/><path d="M1024 728l1 1-1-1z" fill="#384c2f"/><path d="M1304 507l1 1-1-1z" fill="#622d2d"/><path d="M1375 545v-2l-1 1 1 1z" fill="#622d2c"/><path d="M1408 689l1 1-1-1z" fill="#3e2d2c"/><path d="M1401 660l2 1-2-1z" fill="#4a2b2b"/><path d="M1362 558l1 1-1-1z" fill="#442c2b"/><path d="M1004 645l2 1v-2l-2 1z" fill="#443e27"/><path d="M1052 576l1 1-1-1z" fill="#c8c40d"/><path d="M1113 535l2 1-2-1z" fill="#196743"/><path d="M1153 483l1 1-1-1z" fill="#196742"/><path d="M1402 586l1 1-1-1z" fill="#614343"/><path d="M1011 691l2 1-2-1z" fill="#1f603f"/><path d="M1139 512l2 1-2-1z" fill="#2b5237"/><path d="M1080 708l-2-1c0 2 1 2 2 1z" fill="#2b5236"/><path d="M1074 589v-2l-1 1 1 1z" fill="#375031"/><path d="M1402 584l1 1-1-1z" fill="#605959"/><path d="M1302 503l2 1-2-1z" fill="#493533"/><path d="M1394 632l1 1-1-1z" fill="#613131"/><path d="M1007 689l2 1-2-1z" fill="#3d492d"/><path d="M1034 702l1 1-1-1z" fill="#85851c"/><path d="M1410 689l1 1-1-1z" fill="#552d2c"/><path d="M1062 617h2l-2-3v3z" fill="#127e4b"/><path d="M1022 729l1 1-1-1z" fill="#433c28"/><path d="M1025 662l1 1-1-1z" fill="#fdef01"/><path d="M1328 522l1 1-1-1z" fill="#716c6b"/><path d="M1384 542l1 1-1-1z" fill="#716664"/><path d="M1036 531v-2h-2l2 2z" fill="#2a623b"/><path d="M1389 593l1 1-1-1z" fill="#543d3d"/><path d="M1004 645l-1-3h-1l2 3z" fill="#305b36"/><path d="M1057 653l-2-1c0 2 1 2 2 1z" fill="#059055"/><path d="M1105 536l2 1h1l-3-1z" fill="#304f34"/><path d="M1106 970l1 1-1-1z" fill="#3c3535"/><path d="M1033 528l-1-3 1 3z" fill="#36422e"/><path d="M1084 523v-2l-1 1 1 1z" fill="#8a881a"/><path d="M1076 563l2 1h1l-3-1z" fill="#11764a"/><path d="M1410 628l1 1-1-1z" fill="#534d4c"/><path d="M1083 521l1 1-1-1z" fill="#d2c409"/><path d="M1315 491v-2l-1 1 1 1z" fill="#594c4b"/><path d="M1109 513l2 1-2-1z" fill="#ccbf0a"/><path d="M1020 728l1 1-1-1z" fill="#295438"/><path d="M1068 487l1 1-1-1z" fill="#2f5335"/><path d="M1013 560v-2l-1 1 1 1z" fill="#049456"/><path d="M1388 737l1 1-1-1z" fill="#593432"/><path d="M1011 607l1 1-1-1z" fill="#53652a"/><path d="M1080 562l1 1-1-1z" fill="#3b4b2f"/><path d="M1380 573l1 1-1-1z" fill="#3b3332"/><path d="M1075 565l-2-1c0 2 1 2 2 1z" fill="#414a2b"/><path d="M1336 528l1 1-1-1z" fill="#4d302f"/><path d="M1378 548l1 1-1-1z" fill="#5f2d2d"/><path d="M1391 676l1 1-1-1z" fill="#652c2c"/><path d="M1008 647l-2-1c0 2 1 2 2 1z" fill="#6b6720"/><path d="M1076 714l1 1-1-1z" fill="#716c1e"/><path d="M1078 707l2 1-2-1z" fill="#a79f13"/><path d="M1043 606l1 1-1-1z" fill="#c5be0d"/><path d="M1075 744v-2l-1 1 1 1z" fill="#c5b80c"/><path d="M1025 623l2 2v-2h-2z" fill="#ddd207"/><path d="M1073 564l2 1h1v-2l-3 1z" fill="#166d45"/><path d="M1395 635l1 1-1-1z" fill="#4c3a39"/><path d="M1020 728l-2-2c0 1 0 2 2 2z" fill="#2e5135"/><path d="M1416 636l1 1-1-1z" fill="#643636"/><path d="M1053 624l3 1-1-2-2 1z" fill="#3a5531"/><path d="M1061 617h3l-1-3-2 3z" fill="#3a5530"/><path d="M1018 567v-3l-2 1 2 2z" fill="#40482b"/><path d="M1273 480v-2l-1 1 1 1z" fill="#40302e"/><path d="M1050 575l1 1-1-1z" fill="#5e6124"/><path d="M1004 645l2 1-2-1z" fill="#403c29"/><path d="M1000 685l2 1-2-1z" fill="#6a6520"/><path d="M1055 657l-2-2c0 1 0 2 2 2z" fill="#646021"/><path d="M1054 627v-2l-1 1 1 1z" fill="#7c741b"/><path d="M1057 648l2 3 1-2-3-1z" fill="#157147"/><path d="M1055 653l2-1h1l-1-2-2 3z" fill="#1b7044"/><path d="M1396 589v-2l-1 1 1 1z" fill="#4b4443"/><path d="M1161 481l-2-1c0 2 1 2 2 1z" fill="#275c3b"/><path d="M1393 588l1 1-1-1z" fill="#5d3b3b"/><path d="M1393 732l1 1-1-1z" fill="#625c5b"/><path d="M1110 470l1-3c-1 1-3 2-1 3z" fill="#3f402a"/><path d="M1042 676l-2-1c0 2 1 2 2 1z" fill="#87881b"/><path d="M1315 494v-2l-1 1 1 1z" fill="#4b2c2c"/><path d="M1040 679l-2-1c0 2 1 2 2 1z" fill="#696320"/><path d="M1019 728v-2l-1 1 1 1z" fill="#146f47"/><path d="M1336 526l1 1-1-1z" fill="#564644"/><path d="M1110 470v-2l-1 1 1 1z" fill="#26543a"/><path d="M1385 593l1 1-1-1z" fill="#615a5a"/><path d="M1374 543l1 1-1-1z" fill="#443130"/><path d="M1072 496l1 1-1-1z" fill="#0d804e"/><path d="M1410 679l2 2v-2h-2z" fill="#382d2c"/><path d="M1084 520l-2-2c0 1 0 2 2 2z" fill="#86861b"/><path d="M1072 498l1 1-1-1z" fill="#504d25"/><path d="M1151 483l1 1-1-1z" fill="#625c22"/><path d="M1075 721l2 1v-2l-2 1z" fill="#625c21"/><path d="M1045 604l1 1-1-1z" fill="#c2b80d"/><path d="M1053 556v-2l-1 1 1 1z" fill="#a49913"/><path d="M1374 718l1 1-1-1z" fill="#726d6c"/><path d="M1055 652l2 1-2-1z" fill="#1f6b42"/><path d="M1330 531l1 1-1-1z" fill="#553e3c"/><path d="M1267 490l2 1-2-1z" fill="#6c6260"/><path d="M1412 631l1 1-1-1z" fill="#613636"/><path d="M1427 885l1 1-1-1z" fill="#3d3636"/><path d="M1384 731l1 1-1-1z" fill="#433534"/><path d="M1003 644l1 1-1-1z" fill="#3d4e2e"/><path d="M1114 535l2 1-2-1z" fill="#3d482c"/><path d="M1331 521l1 1-1-1z" fill="#492e2d"/><path d="M1083 519l1 1-1-1z" fill="#85841b"/><path d="M1018 726l1 1-1-1z" fill="#79741d"/><path d="M1067 590l2 2v-2h-2z" fill="#555024"/><path d="M1400 610l2 1h1l-3-1z" fill="#372b2b"/><path d="M1106 500l1 1-1-1z" fill="#918e18"/><path d="M1129 494l2 1-2-1z" fill="#b5b211"/><path d="M1078 723l-1-3h-1l2 3z" fill="#3d3628"/><path d="M1032 701l2 1-2-1z" fill="#cdc60b"/><path d="M1077 564l-2-1c0 2 1 2 2 1z" fill="#186a44"/><path d="M1410 584l1 1-1-1z" fill="#423939"/><path d="M1015 563v-3l-2 1 2 2z" fill="#304e34"/><path d="M1268 490l2 1-2-1z" fill="#655b59"/><path d="M1104 538l-1-3h-1l2 3z" fill="#2a3d32"/><path d="M1073 590l-2-1c0 2 1 2 2 1z" fill="#4e612b"/><path d="M1108 477l2 1v-2l-2 1z" fill="#30362e"/><path d="M1065 594v-2l-1 1 1 1z" fill="#423f28"/><path d="M1003 686l1 1-1-1z" fill="#726d1e"/><path d="M1077 722v-2l-1 1 1 1z" fill="#1d5b3f"/><path d="M1109 535l2 2v-2h-2z" fill="#23543b"/><path d="M1386 589l1 1-1-1z" fill="#473c3b"/><path d="M1109 468l1 1-1-1z" fill="#355132"/><path d="M1395 677l1 1-1-1z" fill="#4d3534"/><path d="M1036 531l1 1-1-1z" fill="#3b502f"/><path d="M1275 485v-2l-1 1 1 1z" fill="#645957"/><path d="M1383 681l1 1-1-1z" fill="#4d2f2e"/><path d="M1307 493l1 1-1-1z" fill="#592d2d"/><path d="M1111 465l1 1-1-1z" fill="#6b6620"/><path d="M1068 491l2 1v-2l-2 1z" fill="#167e49"/><path d="M1071 591l-3-1c0 1 1 3 2 2l1-1z" fill="#4d4726"/><path d="M1070 590l2 1v-2l-2 1z" fill="#656121"/><path d="M1402 610l1 1-1-1z" fill="#412b2a"/><path d="M1041 675l1 1-1-1z" fill="#e3dc07"/><path d="M1074 743l1 1-1-1z" fill="#b9ad0e"/><path d="M1129 496l-2-1c0 2 1 2 2 1z" fill="#efe003"/><path d="M1130 513l2 1v-2l-2 1z" fill="#166c46"/><path d="M1390 735l1 1-1-1z" fill="#523e3c"/><path d="M1320 890l1 1-1-1z" fill="#403b3a"/><path d="M1397 586v-2l-1 1 1 1z" fill="#635d5c"/><path d="M1388 594l1 1-1-1z" fill="#643536"/><path d="M1207 999l1 1-1-1z" fill="#7a7575"/><path d="M1071 493l1 1-1-1z" fill="#40412a"/><path d="M1073 564l1 1-1-1z" fill="#404129"/><path d="M1339 527l1 1-1-1z" fill="#64292a"/><path d="M1128 497v-2l-1 1 1 1z" fill="#948d17"/><path d="M1024 661l1 1-1-1z" fill="#b2a610"/><path d="M1391 674l1 1-1-1z" fill="#574745"/><path d="M1062 686l1 1-1-1z" fill="#1b6341"/><path d="M1105 536l1 1-1-1z" fill="#21563c"/><path d="M1102 901l1 1-1-1z" fill="#453e3d"/><path d="M1307 489l1 1-1-1z" fill="#4b3736"/><path d="M1006 646l2 1-2-1z" fill="#3f4b2c"/><path d="M1334 525l2 1-2-1z" fill="#453230"/><path d="M1077 538l1 1-1-1z" fill="#393a2b"/><path d="M1017 567h2l-2-3v3z" fill="#5d5823"/><path d="M1064 592l1 1-1-1z" fill="#3f3929"/><path d="M1058 735l1 1-1-1z" fill="#6f671f"/><path d="M1028 729l1 1-1-1z" fill="#146e47"/><path d="M1224 654l1 1-1-1z" fill="#736e6d"/><path d="M1410 679l2 1-2-1z" fill="#6d6968"/><path d="M1020 568l-3-3c0 1 1 4 3 3z" fill="#26653d"/><path d="M1025 729l2 1-2-1z" fill="#2c5236"/><path d="M1069 590l2 1-2-1z" fill="#3e492d"/><path d="M1389 736l1 1-1-1z" fill="#443030"/><path d="M1388 585l1 1-1-1z" fill="#5c2c2d"/><path d="M1314 493l1 1-1-1z" fill="#5c2c2c"/><path d="M1055 576v-2l-1 1 1 1z" fill="#86851c"/><path d="M1005 687l1 1-1-1z" fill="#7a751d"/><path d="M1400 610l1 1-1-1z" fill="#3e2b2b"/><path d="M1057 648l2 1-2-1z" fill="#74701e"/><path d="M1061 647l-2-2c0 1 0 2 2 2z" fill="#565124"/><path d="M1027 625v-2l-1 1 1 1z" fill="#cec70c"/><path d="M1026 729l1 1-1-1z" fill="#196543"/><path d="M1078 707l1 1-1-1z" fill="#1f583d"/><path d="M1156 484v-2l-1 1 1 1z" fill="#2b5637"/><path d="M1159 480l2 1-2-1z" fill="#069054"/><path d="M1389 637l2 1-2-1z" fill="#3d3535"/><path d="M1317 888l1 1-1-1z" fill="#3d3534"/><path d="M1057 651l1 1-1-1z" fill="#3d4d2e"/><path d="M1058 650l1 1-1-1z" fill="#555b26"/><path d="M1303 503l1 1-1-1z" fill="#492d2d"/><path d="M1397 641v-2l-1 1 1 1z" fill="#4f2c2c"/><path d="M1062 614l1 1-1-1z" fill="#9d9715"/><path d="M1055 713v-2l-1 1 1 1z" fill="#c1b50d"/><path d="M1050 551l1 1-1-1z" fill="#d3ca09"/><path d="M1567 842l1 1-1-1z" fill="#b1afae"/><path d="M1340 520l1 1-1-1z" fill="#4e4240"/><path d="M1274 483l1 1-1-1z" fill="#54413f"/><path d="M1407 585l1 1-1-1z" fill="#483d3c"/><path d="M1010 690l1 1-1-1z" fill="#305334"/><path d="M1356 559l1 1-1-1z" fill="#423837"/><path d="M1013 559v-2l-1 1 1 1z" fill="#365232"/><path d="M1061 616l2 1h1l-3-1z" fill="#0b8750"/><path d="M1368 729l1 1-1-1z" fill="#655452"/><path d="M1331 530l1 1-1-1z" fill="#362e2d"/><path d="M1390 731l2 1-2-1z" fill="#3c2d2c"/><path d="M1380 733l1 1-1-1z" fill="#482b2b"/><path d="M1054 654l1 1-1-1z" fill="#117a4a"/><path d="M1329 523l2 1-2-1z" fill="#422c2b"/><path d="M1032 525l1 1-1-1z" fill="#666221"/><path d="M1082 561l2 1-2-1z" fill="#6c6720"/><path d="M1018 566v-2l-1 1 1 1z" fill="#362e2a"/><path d="M1054 715v-2l-1 1 1 1z" fill="#c0b30d"/><path d="M1003 644v-2h-2l2 2z" fill="#176d45"/><path d="M1329 523l1 1-1-1z" fill="#594a48"/><path d="M1084 559l2 1-2-1z" fill="#1d6641"/><path d="M1062 690v-2l-1 1 1 1z" fill="#1d6040"/><path d="M1073 588l1 1-1-1z" fill="#295e3a"/><path d="M1005 689l3 1-1-2-2 1z" fill="#295839"/><path d="M1059 646l2 1-2-1z" fill="#2f5736"/><path d="M998 639l1 1-1-1z" fill="#049256"/><path d="M1346 515l2 1-2-1z" fill="#4d3a38"/><path d="M1107 536l2 1-2-1z" fill="#3b492d"/><path d="M1346 515l1 1-1-1z" fill="#645252"/><path d="M1413 688l1 1-1-1z" fill="#5e5351"/><path d="M1108 536l1 1-1-1z" fill="#41422a"/><path d="M1390 686l1 1-1-1z" fill="#532d2c"/><path d="M1078 715l1 1-1-1z" fill="#5f5b22"/><path d="M1375 546l1 1-1-1z" fill="#3b2b2b"/><path d="M1111 534l1 1-1-1z" fill="#7d7a1c"/><path d="M1103 537v-2l-1 1 1 1z" fill="#776f1d"/><path d="M1032 586l2 1-2-1z" fill="#bfb70e"/><path d="M1012 1034l1 1-1-1z" fill="#e3d506"/><path d="M1076 588v-2l-1 1 1 1z" fill="#167147"/><path d="M1069 490l1 1-1-1z" fill="#166b46"/><path d="M1111 468v-2l-1 1 1 1z" fill="#1c5e40"/><path d="M1001 643l2 1v-2l-2 1z" fill="#28623c"/><path d="M1360 917l1 1-1-1z" fill="#463f3f"/><path d="M1067 593v-2l-1 1 1 1z" fill="#285c3a"/><path d="M1144 512l-3-1c0 1 0 2 1 1h2z" fill="#344e32"/><path d="M1412 627l1 1-1-1z" fill="#5d5757"/><path d="M1373 720l1 1-1-1z" fill="#463332"/><path d="M1256 650l1 1-1-1z" fill="#5d5756"/><path d="M1078 563l1 1-1-1z" fill="#40462b"/><path d="M1079 712v-2h-2l2 2z" fill="#404029"/><path d="M1392 687l1 1-1-1z" fill="#522b2b"/><path d="M1156 481l2 1-2-1z" fill="#463f27"/><path d="M1015 562v-2l-1 1 1 1z" fill="#585423"/><path d="M1124 498l1 1-1-1z" fill="#948c17"/><path d="M1054 575l1 1-1-1z" fill="#b8b00f"/><path d="M1062 689v-2l-1 1 1 1z" fill="#156f47"/><path d="M1396 585l1 1-1-1z" fill="#634443"/><path d="M1143 511l1 1-1-1z" fill="#275439"/><path d="M1394 639l1 1-1-1z" fill="#5d3938"/><path d="M1161 479l1 1-1-1z" fill="#335233"/><path d="M1359 558l1 1-1-1z" fill="#453736"/><path d="M1079 711l-2-1c0 2 1 2 2 1z" fill="#394b2f"/><path d="M1389 637l1 1-1-1z" fill="#512f2f"/><path d="M1066 591l1 1-1-1z" fill="#3f442b"/><path d="M1333 529l2 1-2-1z" fill="#5d2d2c"/><path d="M1016 563l-2-2c0 1 0 2 2 2z" fill="#147949"/><path d="M1031 700l1 1-1-1z" fill="#aba412"/><path d="M1058 648l2 1-2-1z" fill="#147347"/><path d="M1032 527l1 1-1-1z" fill="#079155"/><path d="M1413 629l1 1-1-1z" fill="#7e7b79"/><path d="M1154 990l1 1-1-1z" fill="#383131"/><path d="M1140 512l2 1v-2l-2 1z" fill="#3e482c"/><path d="M1407 680l2 1-2-1z" fill="#502d2d"/><path d="M1271 496l1 1-1-1z" fill="#562c2c"/><path d="M1052 554v-2l-1 1 1 1z" fill="#86841b"/><path d="M1063 616l1 1-1-1z" fill="#504b25"/><path d="M1061 691l1 1-1-1z" fill="#5c5522"/><path d="M1056 650l1 1-1-1z" fill="#383129"/><path d="M1038 705v-2l-1 1 1 1z" fill="#b6ac10"/><path d="M1052 554l1 1-1-1z" fill="#bcb10e"/><path d="M1168 994l1 1-1-1z" fill="#4f4949"/><path d="M1002 642l1 1-1-1z" fill="#436f33"/><path d="M1059 646l1 1-1-1z" fill="#315435"/><path d="M1061 616l1 1-1-1z" fill="#3d522f"/><path d="M1140 512l1 1-1-1z" fill="#374d30"/><path d="M1333 529l1 1-1-1z" fill="#493231"/><path d="M1223 656l1 1-1-1z" fill="#7d7978"/><path d="M1013 692l1 1-1-1z" fill="#434529"/><path d="M1395 744l1 1-1-1z" fill="#492c2c"/><path d="M1054 624l2 1-2-1z" fill="#4f4925"/><path d="M1074 746l1 1-1-1z" fill="#979116"/><path d="M1007 689l1 1-1-1z" fill="#127549"/><path d="M1054 711l1 1-1-1z" fill="#bbaf0e"/><path d="M1300 510l1 1-1-1z" fill="#776e6c"/><path d="M1269 490l2 1-2-1z" fill="#6b6463"/><path d="M1402 660l1 1-1-1z" fill="#4e3b39"/><path d="M1398 681l1 1-1-1z" fill="#423736"/><path d="M1252 546l1 1-1-1z" fill="#5f5a59"/><path d="M1036 530l-2-1c0 2 1 2 2 1z" fill="#0b8c51"/><path d="M1073 497l1 1-1-1z" fill="#3c4a2d"/><path d="M1370 732l1 1-1-1z" fill="#48302f"/><path d="M1037 533l1 1-1-1z" fill="#424329"/><path d="M1410 682l1 1-1-1z" fill="#3c2c2c"/><path d="M1354 537l1 1-1-1z" fill="#422b2b"/><path d="M1109 465l1 1-1-1z" fill="#484227"/><path d="M1103 537l1 1-1-1z" fill="#6c661f"/><path d="M1108 477l2 1-2-1z" fill="#726b1e"/><path d="M1038 678l2 1v-2l-2 1z" fill="#e4d605"/><path d="M1394 628l2 1-2-1z" fill="#4d4545"/><path d="M1270 995l1 1-1-1z" fill="#474040"/><path d="M1385 588l1 1-1-1z" fill="#47403f"/><path d="M1077 711l1 1-1-1z" fill="#2f5034"/><path d="M1159 480l1 1-1-1z" fill="#354f32"/><path d="M1255 544l1 1-1-1z" fill="#5e5857"/><path d="M1127 496l1 1-1-1z" fill="#89891b"/><path d="M1010 558l1 1-1-1z" fill="#7d791c"/><path d="M1112 536l1 1-1-1z" fill="#5f5a22"/><path d="M1178 769l1 1-1-1z" fill="#6f6b6a"/><path d="M1014 561l1 1-1-1z" fill="#226840"/><path d="M1381 593l2 1-2-1z" fill="#4c3d3d"/><path d="M1076 721l1 1-1-1z" fill="#22503a"/><path d="M1245 736l1 1-1-1z" fill="#403939"/><path d="M1018 567v-2l-1 1 1 1z" fill="#345934"/><path d="M1403 636l1 1-1-1z" fill="#5e3434"/><path d="M1034 530l1 1-1-1z" fill="#344730"/><path d="M1000 685l1 1-1-1z" fill="#40452b"/><path d="M1039 677l1 1-1-1z" fill="#8e8c1a"/><path d="M1349 514v-2l-1 1 1 1z" fill="#462c2c"/><path d="M1130 513l2 1-2-1z" fill="#7c771c"/><path d="M1130 494l2 1-2-1z" fill="#beb40d"/><path d="M1106 498l1 1-1-1z" fill="#d0c309"/><path d="M1011 691l1 1-1-1z" fill="#156e46"/><path d="M1348 512l1 1-1-1z" fill="#574544"/><path d="M1111 537v-2l-1 1 1 1z" fill="#1b6141"/><path d="M1406 632l1 1-1-1z" fill="#573f3f"/><path d="M1054 657v-2l-1 1 1 1z" fill="#456c32"/><path d="M1017 565l1 1-1-1z" fill="#0e7f4d"/><path d="M1053 713l1 1-1-1z" fill="#939519"/><path d="M1006 646l1 1-1-1z" fill="#14784a"/><path d="M1012 557l1 1-1-1z" fill="#6f6b1f"/><path d="M1232 521l1 1-1-1z" fill="#504a4a"/><path d="M1060 937l1 1-1-1z" fill="#4a4544"/><path d="M1395 588l1 1-1-1z" fill="#443a3a"/><path d="M1037 704l1 1-1-1z" fill="#929f1c"/><path d="M1059 648l1 1-1-1z" fill="#3e472b"/><path d="M1026 623l1 1-1-1z" fill="#989818"/><path d="M1371 543l1 1-1-1z" fill="#61514f"/><path d="M1072 494l1 1-1-1z" fill="#686420"/><path d="M1110 536l1 1-1-1z" fill="#38302a"/><path d="M1014 554l1 1-1-1z" fill="#504a25"/><path d="M1110 513l1 1-1-1z" fill="#c2b50d"/><path d="M1270 490l1 1-1-1z" fill="#72706e"/><path d="M1082 518l1 1-1-1z" fill="#f2e302"/><path d="M1381 593l1 1-1-1z" fill="#493d3d"/><path d="M1372 724l1 1-1-1z" fill="#4f3c3b"/><path d="M1371 728l1 1-1-1z" fill="#4f3c3a"/><path d="M1055 625l-2-1c0 2 1 2 2 1z" fill="#375833"/><path d="M1253 545l1 1-1-1z" fill="#7d7878"/><path d="M1335 525l1 1-1-1z" fill="#612d2d"/><path d="M1386 731l1 1-1-1z" fill="#432c2c"/><path d="M1061 644l1 1-1-1z" fill="#186d45"/><path d="M1133 512l1 1-1-1z" fill="#186744"/><path d="M1393 631l1 1-1-1z" fill="#484140"/><path d="M1114 535l1 1-1-1z" fill="#2a5238"/><path d="M1364 556l1 1-1-1z" fill="#4e3a39"/><path d="M1273 481v-2l-1 1 1 1z" fill="#655e5c"/><path d="M1411 679l1 1-1-1z" fill="#5f5958"/><path d="M1141 511l1 1-1-1z" fill="#3c492d"/><path d="M1376 547l1 1-1-1z" fill="#362c2c"/><path d="M1027 730l1 1-1-1z" fill="#605b22"/><path d="M1157 481l1 1-1-1z" fill="#36322a"/><path d="M1292 491v-2l-1 1 1 1z" fill="#3c2b2b"/><path d="M1130 511l1 1-1-1z" fill="#484126"/><path d="M1102 536l1 1-1-1z" fill="#6c651f"/><path d="M1068 491l1 1-1-1z" fill="#726a1e"/><path d="M1051 553l1 1-1-1z" fill="#ccc10b"/><path d="M1291 490l1 1-1-1z" fill="#594846"/><path d="M1152 484l1 1-1-1z" fill="#235d3d"/><path d="M1381 544l1 1-1-1z" fill="#412e2e"/><path d="M1026 523l1 1-1-1z" fill="#413a28"/><path d="M1407 631l1 1-1-1z" fill="#58403f"/><path d="M1070 591l-2-1c0 2 1 2 2 1z" fill="#345232"/><path d="M1150 484l1 1-1-1z" fill="#3a4b2f"/><path d="M1075 587l1 1-1-1z" fill="#40442a"/><path d="M1071 589l1 1-1-1z" fill="#0f7a4c"/><path d="M1305 506l1 1-1-1z" fill="#3a2d2c"/><path d="M1005 689l1 1-1-1z" fill="#464327"/><path d="M1077 722l1 1-1-1z" fill="#5e5722"/><path d="M1080 539l2 1-2-1z" fill="#949017"/><path d="M1067 488l1 1-1-1z" fill="#524d24"/><path d="M1033 701l1 1-1-1z" fill="#f4e602"/><path d="M1104 900l1 1-1-1z" fill="#4b4645"/><path d="M1135 512l1 1-1-1z" fill="#1b6041"/><path d="M1005 645l1 1-1-1z" fill="#088b53"/><path d="M1273 482l1 1-1-1z" fill="#625857"/><path d="M1408 630l1 1-1-1z" fill="#393130"/><path d="M1082 561l1 1-1-1z" fill="#3f482c"/><path d="M1006 688l1 1-1-1z" fill="#454729"/><path d="M1010 606l1 1-1-1z" fill="#147d4b"/><path d="M1375 720l1 1-1-1z" fill="#392b2b"/><path d="M1069 488l1 1-1-1z" fill="#514b25"/><path d="M1130 494l1 1-1-1z" fill="#eddf03"/><path d="M1396 639l1 1-1-1z" fill="#504948"/><path d="M1390 586l1 1-1-1z" fill="#623a3a"/><path d="M1414 637l1 1-1-1z" fill="#623a39"/><path d="M1272 479l1 1-1-1z" fill="#4a3836"/><path d="M1110 467l1 1-1-1z" fill="#324e33"/><path d="M1015 562l1 1-1-1z" fill="#385331"/><path d="M1061 687l1 1-1-1z" fill="#384d30"/><path d="M1078 710l1 1-1-1z" fill="#3e462b"/><path d="M1001 643l1 1-1-1z" fill="#74731f"/><path d="M1032 586l1 1-1-1z" fill="#989718"/><path d="M1272 485l1 1-1-1z" fill="#442d2c"/><path d="M1075 563l2 1-2-1z" fill="#3e3a29"/><path d="M1109 477l1 1-1-1z" fill="#6e681f"/><path d="M1035 529l1 1-1-1z" fill="#504925"/><path d="M1582 955l1 1-1-1z" fill="#b6aa0f"/><path d="M1016 883l1 1-1-1z" fill="#494242"/><path d="M1394 628l1 1-1-1z" fill="#493c3c"/><path d="M1329 532l1 1-1-1z" fill="#493c3b"/><path d="M1055 652l1 1-1-1z" fill="#3d4a2d"/><path d="M1394 676l1 1-1-1z" fill="#433130"/><path d="M1355 535l1 1-1-1z" fill="#4f2f2f"/><path d="M1405 681l1 1-1-1z" fill="#4f2f2e"/><path d="M1009 691l1 1-1-1z" fill="#5b5723"/><path d="M1018 567l2 1-2-1z" fill="#247040"/><path d="M1399 611l1 1-1-1z" fill="#4e4544"/><path d="M1301 509l1 1-1-1z" fill="#604240"/><path d="M1137 512l1 1-1-1z" fill="#1e593e"/><path d="M1017 885l1 1-1-1z" fill="#423b3b"/><path d="M1068 590l2 1-2-1z" fill="#364f31"/><path d="M1370 545l1 1-1-1z" fill="#423534"/><path d="M1407 680l1 1-1-1z" fill="#483433"/><path d="M1405 586l1 1-1-1z" fill="#5f5857"/><path d="M1314 490l1 1-1-1z" fill="#422f2e"/><path d="M1076 563l1 1-1-1z" fill="#1d6340"/><path d="M1324 510v-2l-1 1 1 1z" fill="#534240"/><path d="M1300 987l1 1-1-1z" fill="#3b3434"/><path d="M1069 590l1 1-1-1z" fill="#0a8852"/><path d="M1038 678l1 1-1-1z" fill="#3b4c2e"/><path d="M1054 624l1 1-1-1z" fill="#10814d"/><path d="M1350 510l1 1-1-1z" fill="#412d2c"/><path d="M1019 567l1 1-1-1z" fill="#656322"/><path d="M1323 508l1 1-1-1z" fill="#472c2c"/><path d="M1040 676l1 1-1-1z" fill="#fbec01"/><path d="M1084 559l1 1-1-1z" fill="#1c6742"/><path d="M1053 655l1 1-1-1z" fill="#345734"/><path d="M1237 999l1 1-1-1z" fill="#807c7b"/><path d="M1155 483l1 1-1-1z" fill="#3a4a2e"/><path d="M1343 512l1 1-1-1z" fill="#635351"/><path d="M1053 625l1 1-1-1z" fill="#1b8349"/><path d="M1404 587l1 1-1-1z" fill="#574f4f"/><path d="M1324 507l1 1-1-1z" fill="#402b2a"/><path d="M1130 513l1 1-1-1z" fill="#7c751c"/><path d="M1361 721l1 1-1-1z" fill="#5d4e4d"/><path d="M1391 731l1 1-1-1z" fill="#5d4e4c"/><path d="M1080 539l1 1-1-1z" fill="#c4b70c"/><path d="M1387 739l1 1-1-1z" fill="#574948"/></g></svg>