<svg xmlns="http://www.w3.org/2000/svg" height="1050" width="1500"><defs><linearGradient id="a" y2="451.7" gradientUnits="userSpaceOnUse" x2="423.1" y1="451.7" x1="105.3"><stop stop-color="#D2091E" offset="0"/><stop stop-color="#930F0F" offset=".1"/><stop stop-color="#970F10" offset=".1"/><stop stop-color="#AC0E16" offset=".1"/><stop stop-color="#BD0D19" offset=".2"/><stop stop-color="#C90B1C" offset=".2"/><stop stop-color="#D0091D" offset=".2"/><stop stop-color="#D2091E" offset=".2"/><stop stop-color="#930F0F" offset=".4"/><stop stop-color="#D2091E" offset=".4"/><stop stop-color="#D2091E" offset=".6"/><stop stop-color="#930F0F" offset=".7"/><stop stop-color="#D2091E" offset=".8"/><stop stop-color="#930F0F" offset=".9"/><stop stop-color="#970F10" offset=".9"/><stop stop-color="#AC0E16" offset=".9"/><stop stop-color="#BD0D19" offset=".9"/><stop stop-color="#C90B1C" offset=".9"/><stop stop-color="#D0091D" offset="1"/><stop stop-color="#D2091E" offset="1"/></linearGradient><linearGradient id="b" y2="158.2" gradientUnits="userSpaceOnUse" x2="264.9" y1="358" x1="264.9"><stop stop-color="#647A84" offset="0"/><stop stop-color="#3F4E55" offset=".5"/><stop stop-color="#2A363B" offset="1"/></linearGradient><linearGradient id="c" y2="122.8" gradientUnits="userSpaceOnUse" x2="268.7" y1="122.8" x1="259.6"><stop stop-color="#AD8900" offset="0"/><stop stop-color="#FFD631" offset=".4"/><stop stop-color="#FFF9C7" offset=".5"/><stop stop-color="#FFD631" offset=".6"/><stop stop-color="#AD8900" offset="1"/></linearGradient><linearGradient id="d" y2="387.9" gradientUnits="userSpaceOnUse" x2="272.7" y1="387.9" x1="255.6"><stop stop-color="#AD8900" offset="0"/><stop stop-color="#FFD631" offset=".4"/><stop stop-color="#FFF9C7" offset=".5"/><stop stop-color="#FFD631" offset=".6"/><stop stop-color="#AD8900" offset="1"/></linearGradient><linearGradient id="e" y2="354.3" gradientUnits="userSpaceOnUse" x2="272.7" y1="354.3" x1="255.6"><stop stop-color="#AD8900" offset="0"/><stop stop-color="#FFD631" offset=".4"/><stop stop-color="#FFF9C7" offset=".5"/><stop stop-color="#FFD631" offset=".6"/><stop stop-color="#AD8900" offset="1"/></linearGradient><linearGradient id="f" y2="317.9" gradientUnits="userSpaceOnUse" x2="270.7" y1="317.9" x1="257.7"><stop stop-color="#AD8900" offset="0"/><stop stop-color="#FFD631" offset=".4"/><stop stop-color="#FFF9C7" offset=".5"/><stop stop-color="#FFD631" offset=".6"/><stop stop-color="#AD8900" offset="1"/></linearGradient><linearGradient id="g" y2="284" gradientUnits="userSpaceOnUse" x2="270.7" y1="284" x1="257.7"><stop stop-color="#AD8900" offset="0"/><stop stop-color="#FFD631" offset=".4"/><stop stop-color="#FFF9C7" offset=".5"/><stop stop-color="#FFD631" offset=".6"/><stop stop-color="#AD8900" offset="1"/></linearGradient><linearGradient id="h" y2="249.5" gradientUnits="userSpaceOnUse" x2="270.3" y1="249.5" x1="258"><stop stop-color="#AD8900" offset="0"/><stop stop-color="#FFD631" offset=".4"/><stop stop-color="#FFF9C7" offset=".5"/><stop stop-color="#FFD631" offset=".6"/><stop stop-color="#AD8900" offset="1"/></linearGradient><linearGradient id="i" y2="213.2" gradientUnits="userSpaceOnUse" x2="270.1" y1="213.2" x1="258.3"><stop stop-color="#AD8900" offset="0"/><stop stop-color="#FFD631" offset=".4"/><stop stop-color="#FFF9C7" offset=".5"/><stop stop-color="#FFD631" offset=".6"/><stop stop-color="#AD8900" offset="1"/></linearGradient><linearGradient id="j" y2="178.6" gradientUnits="userSpaceOnUse" x2="269" y1="178.6" x1="259.3"><stop stop-color="#AD8900" offset="0"/><stop stop-color="#FFD631" offset=".4"/><stop stop-color="#FFF9C7" offset=".5"/><stop stop-color="#FFD631" offset=".6"/><stop stop-color="#AD8900" offset="1"/></linearGradient><linearGradient id="k" y2="149.6" gradientUnits="userSpaceOnUse" x2="269" y1="149.6" x1="259.3"><stop stop-color="#AD8900" offset="0"/><stop stop-color="#FFD631" offset=".4"/><stop stop-color="#FFF9C7" offset=".5"/><stop stop-color="#FFD631" offset=".6"/><stop stop-color="#AD8900" offset="1"/></linearGradient><linearGradient id="l" y2="500.6" gradientUnits="userSpaceOnUse" x2="444.7" y1="500.6" x1="381.4"><stop stop-color="#C8D3D9" offset=".5"/><stop stop-color="#DEE5E9" offset=".6"/><stop stop-color="#F1F4F5" offset=".7"/><stop stop-color="#FCFCFD" offset=".8"/><stop stop-color="#fff" offset="1"/></linearGradient><linearGradient id="m" y2="520.6" gradientUnits="userSpaceOnUse" x2="423.8" y1="520.6" x1="381.6"><stop stop-color="#C8D3D9" offset="0"/><stop stop-color="#AFBFC8" offset=".2"/><stop stop-color="#9CAFBB" offset=".4"/><stop stop-color="#90A6B2" offset=".7"/><stop stop-color="#8DA3B0" offset="1"/></linearGradient><linearGradient id="n" y2="500.6" gradientUnits="userSpaceOnUse" x2="147.6" y1="500.6" x1="84.3"><stop stop-color="#fff" offset="0"/><stop stop-color="#C8D3D9" offset=".6"/></linearGradient><linearGradient id="o" y2="520.6" gradientUnits="userSpaceOnUse" x2="147.5" y1="520.6" x1="105.3"><stop stop-color="#8DA3B0" offset="0"/><stop stop-color="#C8D3D9" offset="1"/></linearGradient><linearGradient id="p" y2="500.8" gradientUnits="userSpaceOnUse" x2="423.8" y1="500.8" x1="105.3"><stop stop-color="#C8D3D9" offset="0"/><stop stop-color="#fff" offset=".2"/><stop stop-color="#FBFCFD" offset=".2"/><stop stop-color="#EFF3F5" offset=".3"/><stop stop-color="#DCE3E7" offset=".3"/><stop stop-color="#C8D3D9" offset=".3"/><stop stop-color="#fff" offset=".5"/><stop stop-color="#fff" offset=".6"/><stop stop-color="#C8D3D9" offset=".7"/><stop stop-color="#fff" offset=".8"/><stop stop-color="#FBFCFD" offset=".9"/><stop stop-color="#EFF3F5" offset=".9"/><stop stop-color="#DCE3E7" offset="1"/><stop stop-color="#C8D3D9" offset="1"/></linearGradient><linearGradient id="q" y2="104.7" gradientUnits="userSpaceOnUse" x2="467.9" y1="104.7" x1="61.7"><stop stop-color="#D2091E" offset="0"/><stop stop-color="#930F0F" offset="0"/><stop stop-color="#D2091E" offset=".1"/><stop stop-color="#930F0F" offset=".1"/><stop stop-color="#970F10" offset=".1"/><stop stop-color="#AC0E16" offset=".1"/><stop stop-color="#BD0D19" offset=".1"/><stop stop-color="#C90B1C" offset=".2"/><stop stop-color="#D0091D" offset=".2"/><stop stop-color="#D2091E" offset=".2"/><stop stop-color="#D00A1D" offset=".2"/><stop stop-color="#C80B1C" offset=".2"/><stop stop-color="#BC0D19" offset=".2"/><stop stop-color="#AA0E15" offset=".2"/><stop stop-color="#930F0F" offset=".3"/><stop stop-color="#AA0E15" offset=".3"/><stop stop-color="#BC0D19" offset=".3"/><stop stop-color="#C80B1C" offset=".3"/><stop stop-color="#D00A1D" offset=".3"/><stop stop-color="#D2091E" offset=".3"/><stop stop-color="#930F0F" offset=".4"/><stop stop-color="#D2091E" offset=".5"/><stop stop-color="#D2091E" offset=".5"/><stop stop-color="#930F0F" offset=".6"/><stop stop-color="#D2091E" offset=".7"/><stop stop-color="#930F0F" offset=".7"/><stop stop-color="#AA0E15" offset=".7"/><stop stop-color="#BC0D19" offset=".8"/><stop stop-color="#C80B1C" offset=".8"/><stop stop-color="#D00A1D" offset=".8"/><stop stop-color="#D2091E" offset=".8"/><stop stop-color="#D00A1D" offset=".8"/><stop stop-color="#C80B1C" offset=".8"/><stop stop-color="#BC0D19" offset=".8"/><stop stop-color="#AA0E15" offset=".9"/><stop stop-color="#930F0F" offset=".9"/><stop stop-color="#970F10" offset=".9"/><stop stop-color="#AC0E16" offset=".9"/><stop stop-color="#BD0D19" offset=".9"/><stop stop-color="#C90B1C" offset=".9"/><stop stop-color="#D0091D" offset=".9"/><stop stop-color="#D2091E" offset=".9"/><stop stop-color="#930F0F" offset="1"/><stop stop-color="#D2091E" offset="1"/></linearGradient><linearGradient id="r" y2="128.7" gradientUnits="userSpaceOnUse" x2="478.2" y1="128.7" x1="49.7"><stop stop-color="#fff" offset="0"/><stop stop-color="#C8D3D9" offset="0"/><stop stop-color="#fff" offset=".1"/><stop stop-color="#C8D3D9" offset=".1"/><stop stop-color="#DEE5E9" offset=".1"/><stop stop-color="#F1F4F5" offset=".2"/><stop stop-color="#FCFCFD" offset=".2"/><stop stop-color="#fff" offset=".2"/><stop stop-color="#FBFCFD" offset=".2"/><stop stop-color="#EFF3F5" offset=".2"/><stop stop-color="#DCE3E7" offset=".2"/><stop stop-color="#C8D3D9" offset=".3"/><stop stop-color="#DCE3E7" offset=".3"/><stop stop-color="#EFF3F5" offset=".3"/><stop stop-color="#FBFCFD" offset=".3"/><stop stop-color="#fff" offset=".3"/><stop stop-color="#C8D3D9" offset=".4"/><stop stop-color="#fff" offset=".5"/><stop stop-color="#fff" offset=".5"/><stop stop-color="#C8D3D9" offset=".6"/><stop stop-color="#fff" offset=".7"/><stop stop-color="#C8D3D9" offset=".7"/><stop stop-color="#DCE3E7" offset=".7"/><stop stop-color="#EFF3F5" offset=".8"/><stop stop-color="#FBFCFD" offset=".8"/><stop stop-color="#fff" offset=".8"/><stop stop-color="#FBFCFD" offset=".8"/><stop stop-color="#EFF3F5" offset=".8"/><stop stop-color="#DCE3E7" offset=".9"/><stop stop-color="#C8D3D9" offset=".9"/><stop stop-color="#DEE5E9" offset=".9"/><stop stop-color="#F1F4F5" offset=".9"/><stop stop-color="#FCFCFD" offset=".9"/><stop stop-color="#fff" offset=".9"/><stop stop-color="#C8D3D9" offset="1"/><stop stop-color="#fff" offset="1"/></linearGradient></defs><path fill="#ffce00" d="M0 0h1500v1050H0z"/><path d="M599 617c3-8-1-16-1-16s2-1 1-6c-1-4-5-8-5-8l1 4 1 9-5 8c-4 6-1 14 1 21v3l-5-3v-7-12s2-1 4-10-2-16-2-16 5 0 3-5l-1-10s-3 1-2 5-1 9-1 9l-5 9c-4 6 0 14 2 21l-4-3v-8l-1-12s2-1 5-10 1-16 1-16l-2-5c-2-5 1-8 1-8s-5 2-3 6 0 6 0 6l-6 9c-4 6 0 14 2 21v2l-4-3-1-9-1-11s2-2 4-10c3-9 0-17 0-17l-1-5-3-10s-3 2-1 6l2 9-5 8c-3 6 0 15 2 21v1l-4-4v1l-1-9-1-12s2-1 4-10-1-16-1-16 1-1-1-5c-2-5 0-6 0-6s-5 0-3 4 1 6 1 6l-5 9c-3 6 1 14 3 21v1l-4-4-1-7v-12l4-9c3-8-1-17-1-17s3 0 1-5l-2-8s-2 0-1 5l1 7-6 8c-4 6 0 15 1 22l1 1-7-7v-4l1-12s2-1 6-9 1-14 1-14 6-3 5-8c-1-4 2-8 2-8s-6 2-5 6-4 7-4 7l-6 7c-5 5-2 15-1 21v2l-5-7 1-8c2-4 3-7 3-11 0 0 3-1 8-8s2-16 2-16 4 1 4-4l-2-10v5c0 4-3 8-3 8l-6 4c-5 4-5 16-5 23l-1 2-2-6c1-3 3-12 2-14l-1-7s3-2 4-11-5-17-5-17 2-1 0-6l-8-7 3 4 3 8-5 11c-2 6 3 12 6 18 2 5 0 13-1 17v-2c-1-6 0-16-5-20l-10-7-1-6c0-5 2-8 2-8s-5 6-5 10c0 5 3 5 3 5s-1 11 4 18 10 9 10 9l2 8 3 8-2 6c-1-6-2-16-9-19l-11-5-2-8-1-4s-2 5-1 10 4 4 4 4 1 10 7 16l11 8 4 7 5 7-1 4c-3-5-6-15-13-16l-12-3-4-7-2-4s0 5 2 10c2 4 4 3 4 3s3 10 11 15 12 4 12 4l5 6 6 6v9l-2-3c-4-5-8-14-14-15l-12-1-5-8-2-4s0 6 2 10c2 5 4 3 4 3s5 10 12 14 14 3 14 3l5 6 6 5v10l-2-2c-3-6-7-15-14-16l-11-2s-4-1-6-6l-3-4 3 10c2 4 5 2 5 2s4 10 12 14 13 4 13 4l5 5 6 5v10l-3-3c-4-5-8-14-15-15l-11-1-6-7-2-4s0 6 3 10c2 4 4 2 4 2s4 10 12 14 14 3 14 3l5 6 7 5-1 9c-1-1-3-2-3-4-4-5-8-14-15-15l-12-1-5-7-2-4s0 6 2 10c3 4 5 2 5 2s4 10 12 14c8 3 13 3 13 3l6 5 6 6v10l-4-5c-4-5-8-14-15-15l-12-1-5-7-2-4s0 6 2 10c3 4 5 3 5 3s4 9 12 13 13 3 13 3l6 6 7 5-1 10 3 2v-9-11l5-10z" fill="#f5c742"/><path d="M594 648h-1l-3-2v-2l1-8a265 265 0 00-12-10c-2 0-7-1-13-4-7-3-11-10-13-13-1 0-3 0-5-4l-3-10a1 1 0 013-1l2 4 5 7 9 1-5-2c-6-3-11-10-12-13-1 0-3-1-5-4l-3-10a1 1 0 013-1l2 4 5 7h7l-3-1c-7-3-11-10-12-13-2 0-4 0-5-4-3-4-3-10-3-10a1 1 0 012-1l2 4 5 7 12 1c5 1 9 7 13 12l2 3 1 1v-6a229 229 0 00-11-10l-13-4c-6-4-10-11-12-14l-1 1c-1 0-3-1-4-4l-3-10a1 1 0 012-1l3 5c1 3 4 5 5 5l12 2c5 1 9 7 12 12l2 3v-6a228 228 0 00-11-9c-2-1-7-1-13-4-7-3-11-11-12-13-1 0-3-1-5-4l-3-11a1 1 0 013 0l2 4 4 6 12 2c6 0 9 7 13 12l2 3v-5a241 241 0 00-10-11c-2 0-7-1-13-4-7-4-10-12-11-15-1 0-3 0-5-4l-1-10a1 1 0 012-1l2 4c1 4 3 6 4 7l11 3c3 0 5 2 7 4l-2-4-12-8c-5-5-7-13-7-16-2 0-3-1-4-5-1-5 1-11 1-11l1-1 1 1 1 5 2 7 11 5c5 3 7 10 9 16v-2a283 283 0 00-5-15c-2-1-6-4-10-9-5-7-5-15-4-18l-1-1c-1-1-2-2-2-5 0-4 5-11 5-11a1 1 0 012 1l-2 8 1 5a151 151 0 0110 7c-2-4-4-8-2-12l5-11-3-7-3-4a1 1 0 012-2l8 8 1 5-1 1c2 2 6 10 5 17 0 7-2 10-3 12l1 5c0-2 1-3 3-5l6-4 2-7v-5a1 1 0 013-1l2 11-1 4-3 1 1 8 5-3a1 1 0 011 2s-3 3-2 7-2 7-4 8v2l2 1 2 7v7l1 6 3-1 1 1v6l1 6 2 6 2-2a1 1 0 012 1s0 6 2 10l1 5c1 2 3 10 1 17l-4 10v2l1-3 5-8 1-1s1-1-1-4c-1-5 2-8 5-8a1 1 0 011 2s-2 3-1 6l2 5 1 1a45 45 0 01-7 27h1l5-8s2-4 1-8v-5c1-2 3-2 3-2a1 1 0 011 1l1 10v4l-2 2c1 3 4 9 1 16l-1 4 4-6-1-8-2-4a1 1 0 013-1s4 4 5 9v5l-1 1c1 3 3 9 1 16s-4 9-5 10v20a1 1 0 01-1 1zm-2-4zm-3-13zm0-3a50 50 0 001 1l-1-4v3zm-4 0a45 45 0 001 1v-2a1 1 0 01-1 1zm12-27l-5 7c-3 4-2 11 0 16l1 4v-1-1l5-9c2-7-1-14-1-16zm-27 6c4 2 7 7 9 11l3 4 2 2v-6a263 263 0 00-14-11zm9 16h1l-3-4c-3-4-6-10-11-11l-11-1c1 2 5 10 12 13s11 3 12 3zm4-10zm6-28l-5 7c-3 4-1 10 1 16l1 3v-1s2-2 4-10c2-7-1-14-1-15zm-11 24a37 37 0 001 1 116 116 0 010-2 1 1 0 01-1 1zm4 1h1l-1-1a299 299 0 010 1zm-32-8v2l3 3-3-5zm14-13c4 3 7 7 9 11l3 3 1 2v-6a247 247 0 00-13-10zm9 16h0l-2-4c-3-5-6-10-11-11l-11-1c1 2 5 10 11 13 7 3 12 3 13 3zm24-11l1 5v-3l-1-2zm-21 1zm-1-4l2 1a93 93 0 00-3-8l1 7zm-4 0a38 38 0 001 1 114 114 0 010-3 1 1 0 01-1 2zm12-27l-6 8c-2 4-1 10 1 16l1 3v-1s2-2 4-10c3-7 2-14 2-15l-2-4v3zm-40 20l1 2 3 2-4-4zm23 3h1l-3-4c-3-5-6-10-11-11l-11-1c1 2 5 10 12 13s12 3 12 3zm25-8l-1 4 1-1v-2-1zm-22-3a605 605 0 011 0h-1zm3-43v3l2 9-5 9c-3 4-1 10 1 16l1 3v-1-1s2-2 4-10 0-15 0-15v-1l-1-4-2-8zm-5 38l1 1v-2l-1-3v4zm-4-1l1 2 1-1a111 111 0 01-1-2 1 1 0 01-1 1zm-26-4l1 2 2 2-3-4zm-1-15c1 1 5 9 11 13a32 32 0 0013 3l-2-4c-3-5-6-10-11-11l-11-1zm25 5zm4-4a224 224 0 012 1l4-8-1-7-1 4c-1 6-3 9-4 10zm0-27l-5 8c-2 5 0 11 2 16l1 3v-1s2-2 4-10-2-16-2-16a1 1 0 011-1l-1-2v3zm-6 26l1 1-1-2-1-4 1 5zm-4-1l2 2-1-3a1 1 0 01-1 1zm-25-3l1 1 2 2h1l-4-3zm-2-16c0 1 4 9 11 13a32 32 0 0013 3l-2-4c-3-5-7-10-12-11l-10-1zm25 5zm6-29l-5 7c-3 4-1 10 0 16l1 3 1-1s2-2 4-10c2-7 0-13-1-15zm-10 22l3 3v-1l-2-10-1 4v4zm-27-3l1 2c1 2 2 2 3 2l-4-4zm0-17c1 1 4 10 10 13 7 5 12 5 12 5l1 1 2 1v-2a1 1 0 01-2 0l-2-4c-3-5-6-11-10-12l-11-2zm41 13l-1 1-1 4a90 90 0 002-3v-2zm-19-3zm2-1zm5-4l-1 2 2-3 5-8 1-4-2 4-5 9zm4-26l-6 7c-3 4-2 10-1 16v3-1l1-1s2-1 5-8c3-8 1-14 1-14l1-1c0-1 4-3 3-6v-1c0 3-2 5-4 6zm-12 22l2 3v-2l-1-8-1 7zm-3-3l1 3v-2h-1v-1zm-23-4l1 2 2 3-3-5zm4-19c0 2 1 10 7 15a32 32 0 0011 8l-1-5c-1-5-3-12-7-14l-10-4zm39 19v0zm-18-8zm6-3zm6-24l-4 3c-4 3-5 11-5 17v4-1l1-1 7-7c5-7 1-15 1-15zm-12 21l1 2v-3a280 280 0 01-1 1zm-4-3l1 3 1-3h-1-1zm19-5l-2 3-1 2c0-1 3-2 3-5zm-33-23c0 1 0 10 4 16 5 7 9 9 9 9l1 1v-1l-1-4c0-6 0-12-4-15l-9-6zm-7 20v1l2 4-2-5zm43 0l-1 2v1l1-3zm-18-3zm-3-6zm1-28l-5 10c-1 4 1 8 4 12l2 5 1-1s2-2 3-10c1-7-4-15-5-16zm19 19l-3 6 2-1 1-2v-3zm-37-8v0zm16-19l2 6v-4l-2-2z" fill="#a07843"/><path d="M539 487s4-13 1-19-8-12-6-18l5-11-3-8-3-4 8 7c2 5 0 6 0 6s6 8 5 17-4 11-4 11l1 7c1 3-3 16-3 16l-1-4z" fill="#f5c742"/><path d="M540 492v-1l-2-4s4-13 1-18l-2-5c-3-5-5-9-3-14l5-11-4-7-2-5a1 1 0 011 0s5 3 7 7l1 5-1 1c2 2 7 9 6 17s-3 11-4 11l1 6-3 17-1 1zm-1-5l1 2 3-14-1-7s3-3 4-11-6-17-6-17l1-1v-1l-1-3c-1-3-3-5-5-6l1 2a35 35 0 014 9l-5 10c-2 5 0 9 3 14l2 4c3 6 0 17-1 19z" fill="#a07843"/><path d="M544 497s-4-7-5-14 0-16-5-20l-10-7-1-6c0-5 2-8 2-8s-5 6-5 10c0 5 3 5 3 5s-1 11 4 18 10 9 10 9l2 8 3 8 2-3z" fill="#f5c742"/><path d="M542 501v-1a341 341 0 00-6-15c-1-1-5-4-9-10-5-6-5-15-5-17l-1-1-1-5c0-4 4-10 4-11h1v1l-2 8 1 6 10 6c5 4 5 11 5 17v4c1 6 6 14 6 14l-2 4h-1zm-19-55l-2 6 1 4 1 1s-1 11 4 18a33 33 0 0010 9l3 7 2 8 2-2c-1-1-5-8-6-14v-4c0-6 0-13-5-16l-9-7c-1 0-2-1-2-6l1-4z" fill="#a07843"/><path d="M540 508l4-15c1-6-1-19 5-23l6-4s3-4 3-8v-5l2 10c0 5-4 4-4 4s3 9-2 16-8 8-8 8c0 4-1 7-3 11l-1 9-2-3z" fill="#f5c742"/><path d="M542 511l-2-3c0-1 3-9 3-15v-5c1-7 1-15 6-18l5-4c1-1 3-4 3-8v-5h1s3 5 3 10l-2 3-3 2c1 2 3 10-2 16l-7 8-3 11a24 24 0 00-1 8h-1zm-1-3l1 1 1-7 3-10v-1s3-1 8-8c4-7 1-15 1-15v-1h1l3-1 1-3-2-8v3a16 16 0 01-3 9l-6 4c-4 3-4 11-5 17v5c0 6-3 13-3 15z" fill="#a07843"/><path d="M548 519s-6-6-8-13-2-16-9-19l-11-5-2-8-1-4s-2 5-1 10 4 4 4 4 1 10 7 16 11 8 11 8l4 7 5 7 1-3z" fill="#f5c742"/><path d="M547 523a335 335 0 00-9-15c-1 0-6-2-11-7-6-6-8-14-8-17-1 0-2 0-3-4v-11h1l1 5 3 8 11 5c5 2 6 9 8 15l1 4c2 6 8 13 8 13l-1 4h-1zm-27-40v1s1 10 7 16a33 33 0 0012 8l4 6 4 7 1-2c-1-1-6-7-8-13l-1-4c-2-6-3-12-8-14l-11-5-3-9v-2 8c0 3 2 3 2 3h1z" fill="#a07843"/><path d="M546 527s2-5 1-12c-1-6-4-16 1-21l6-7s5-2 4-7 5-6 5-6-3 4-2 8c1 5-5 8-5 8s3 6-1 14-6 9-6 9l-1 12v5l-2-3z" fill="#f5c742"/><path d="M548 530l-3-2v-1s2-5 1-12v-4c-1-6-2-13 2-17a155 155 0 006-8s4-1 3-6l1-3 5-3h1l-1 1s-3 3-2 7c1 5-3 7-4 8 0 1 2 7-1 14s-6 9-6 10l-1 11a12 12 0 000 5h-1zm-2-3l1 1 1-3 1-11v-1l6-9c3-8 1-14 1-14v-1s5-2 4-7l2-7-3 2-1 3c1 5-2 7-3 7l-7 8c-3 3-2 10-1 16v4c1 6 0 11-1 12z" fill="#a07843"/><path d="M556 537s-7-5-10-11c-3-5-6-15-13-16l-12-3-4-7-2-4 2 10c2 4 4 3 4 3s3 10 11 15c7 4 12 4 12 4l5 6 7 7v-4z" fill="#f5c742"/><path d="M556 541a338 338 0 00-12-12c-1 0-6-1-13-5-6-4-10-12-11-14-1 0-3-1-4-4-2-4-2-10-2-10l1-1 2 5 5 7 11 2c6 2 9 8 11 13l2 4c3 6 11 11 11 11l-1 4zm-35-32s4 10 11 14a33 33 0 0013 5l5 6 6 6v-3c-1-1-8-5-11-10l-2-4c-2-6-5-12-10-13a147 147 0 00-12-2l-5-8v-2l1 7c2 5 4 4 4 4v-1z" fill="#a07843"/><path d="M555 550s1-9-1-15-5-16-1-22l6-8s1-3-1-7 1-5 1-5l2 8c2 5-1 5-1 5s4 8 1 17-4 9-4 9v12l1 9-3-3z" fill="#f5c742"/><path d="M558 553l-4-3a61 61 0 00-1-20c-2-6-4-12 0-17l5-8v-12h1c0-1 0 0 0 0l2 8 1 4-1 1c1 2 3 9 1 17l-5 10a209 209 0 000 11 26 26 0 002 9h-1zm-3-3l2 2-1-8v-9a212 212 0 010-3l5-10c3-8-1-16-1-16l1-1v-4a139 139 0 01-3-7l1 4a13 13 0 010 8l-6 8c-2 4-1 10 1 16l1 4v16z" fill="#a07843"/><path d="M564 556s-7-4-11-10-8-14-14-15l-12-1-5-8-2-4s0 6 2 10 4 3 4 3 5 10 12 14 14 3 14 3l5 6 7 6v-4z" fill="#f5c742"/><path d="M564 560a343 343 0 00-13-11l-13-4c-7-3-11-11-12-13-1 0-3 0-4-4-3-4-3-9-3-10a1 1 0 011 0l2 4 5 7 12 1c5 1 9 7 12 12l2 4c4 5 12 10 12 10v4a1 1 0 01-1 0zm-38-29h1s4 10 12 13a33 33 0 0013 4l5 5 7 6v-3c-2-1-8-4-11-9l-3-4c-3-5-6-11-11-12l-12-1h-1l-5-7-1-2 2 7 4 3z" fill="#a07843"/><path d="M563 570s1-10-1-16-6-15-3-21l5-9s1-1-1-6 3-4 3-4-2 1 0 6c2 4 1 5 1 5s3 8 1 16c-2 9-4 10-4 10l1 12 1 9-3-2z" fill="#f5c742"/><path d="M566 572l-3-2-1-1v-15l-2-4c-2-6-4-13-1-17l4-9v-9c1-2 3-2 3-2h1v1c-1 0-2 2-1 5l1 5v1c1 1 3 9 1 16l-3 11 1 11a86 86 0 000 9zm-3-3l2 2v-8l-1-11v-1l3-10c3-8-1-16-1-16v-1s1-1-1-4v-6l-1 1v10l-5 8c-2 5 0 11 2 16l1 5c2 5 2 14 1 15z" fill="#a07843"/><path d="M572 577s-7-5-11-10c-3-6-7-15-14-16l-11-2s-4-1-6-6l-3-4 3 10c2 4 5 2 5 2s4 10 12 14 13 4 13 4l5 5 7 6v-3z" fill="#f5c742"/><path d="M572 581a342 342 0 00-12-12c-2 0-6 0-13-4-7-3-11-11-12-13h-2l-3-3c-3-4-3-10-3-10h1l2 4c2 4 5 5 6 6l11 1c6 1 9 7 12 13l3 3c3 6 11 10 11 10v4a1 1 0 01-1 1zm-37-31a1 1 0 011 1s3 9 11 13a33 33 0 0013 4l6 6 6 5v-2c-1-1-8-5-11-10l-2-4c-3-5-7-11-12-12l-12-1s-4-2-6-7l-1-1 2 7 3 2 2-1z" fill="#a07843"/><path d="M571 590s1-10-1-16-6-15-2-21l5-8-2-9c-1-5 1-6 1-6l3 10 1 5s3 8 0 17l-4 10 1 11 1 9-3-2z" fill="#f5c742"/><path d="M574 593h-1l-3-3v-16l-2-4c-2-6-4-12-1-17l5-8c0-1 0-5-2-9s2-6 2-6a1 1 0 011 0l2 10 1 5c1 2 3 9 1 17l-4 10v1l1 10a86 86 0 000 9v1zm-3-3l2 1v-8l-1-10v-1s2-2 4-10c2-9-1-16-1-17 0 0 1-1-1-5l-2-9c-1 1-2 2-1 5a35 35 0 012 9l-5 8c-3 5-1 11 1 17l2 4v16z" fill="#a07843"/><path d="M580 596s-8-4-12-10-8-14-15-15l-11-1-6-7-2-4s0 6 3 10c2 4 4 2 4 2s4 10 12 14c8 3 14 3 14 3l5 6 7 5 1-3z" fill="#f5c742"/><path d="M579 600a339 339 0 00-13-11l-13-4c-7-3-11-11-12-13-1 0-3 0-5-3l-3-10a1 1 0 011 0l3 4 5 6 11 1c6 1 10 7 13 12l2 4c4 5 12 9 12 9v4l-1 1zm-12-12s2 3 6 5l6 5v-2c-1-1-8-5-11-10l-3-3c-3-5-7-11-12-12a146 146 0 00-12-1l-5-7-1-2 2 7 3 3h2s4 10 12 13c7 4 12 4 12 4h1z" fill="#a07843"/><path d="M578 608s1-9 0-15c-2-7-6-16-2-21l6-9v-6c-1-5 3-6 3-6s-3 3-1 8l2 5s1 8-1 16-5 10-5 10l1 12v9l-3-3z" fill="#f5c742"/><path d="M581 611h-1l-2-2-1-1s2-9 0-15l-1-5c-1-5-3-12 0-17l5-8v-6c-1-4 2-6 4-7v1c0 1 1 0 0 0 0 0-2 4-1 8a16 16 0 003 5 45 45 0 01-6 27v11a86 86 0 000 9zm-3-3l2 2v-8-11-1s2-2 4-10c3-7 2-14 2-16l-3-5c-1-3 0-5 1-7-1 1-3 2-2 5 2 4 0 6 0 7l-5 8c-3 4-1 11 0 16l1 4c2 6 1 15 0 16z" fill="#a07843"/><path d="M586 614s-8-4-11-10-8-14-15-15l-12-1-5-7-2-4s0 6 2 10c3 4 5 2 5 2s4 10 12 14 13 3 13 3l6 5 7 6v-3z" fill="#f5c742"/><path d="M586 618a338 338 0 00-13-11l-13-4c-7-3-12-11-13-13 0 0-2 0-4-3l-3-10a1 1 0 011-1l2 5 5 6 12 1c6 1 9 7 13 12l2 4c4 5 11 9 11 9l1 1-1 3v1zm-13-12l6 5 6 5 1-2c-2-1-8-5-12-10l-2-3c-3-5-7-11-12-12a146 146 0 00-12-1l-6-7-1-2c1 2 1 5 3 7l3 3h1s4 10 12 13c7 4 12 4 13 4z" fill="#a07843"/><path d="M585 628s1-9 0-15-6-16-2-21l5-9s3-4 1-9 2-5 2-5 0 6 1 10c2 5-3 5-3 5s5 8 2 16l-4 10v12l1 9-3-3z" fill="#f5c742"/><path d="M588 631h-1l-3-2v-1s2-9 0-15l-1-5c-2-5-4-12-1-17l6-8s2-4 1-8v-5l2-1h1s-1 6 1 10v4l-3 1c1 3 4 9 2 17-2 7-4 9-5 10l1 11a86 86 0 000 9zm-3-3l2 2v-8l-1-11v-1l5-10c2-8-2-16-2-16l3-2v-3c-1-3-2-7-1-9l-1 1v3c1 5-1 9-2 10l-5 8c-3 4-1 11 1 16l1 4c2 6 0 15 0 16z" fill="#a07843"/><path d="M592 632s-8-4-11-10-8-14-15-15l-12-1-5-7-2-4s0 6 2 10c3 4 5 3 5 3s4 9 12 13 13 3 13 3l6 6 7 6v-4z" fill="#f5c742"/><path d="M592 636a341 341 0 00-13-11c-1 0-6 0-13-4-7-3-11-11-12-13-1 1-3 0-5-3l-3-10a1 1 0 011 0l2 4 5 7 12 1c6 0 9 6 13 11l2 4c4 5 11 9 11 9l1 1v4h-1zm-13-12h1l5 5 7 6v-3c-2-1-8-4-12-9l-2-4c-3-5-7-11-12-11a146 146 0 00-12-2s-3-2-5-7l-1-2 2 8 3 2h1c0 1 5 10 12 14 7 3 12 3 13 3z" fill="#a07843"/><path d="M591 645s2-10 1-16-5-16-1-21l5-8-1-9-1-4s4 4 5 8c1 5-1 6-1 6s4 8 1 16l-5 10v11 9l-3-2z" fill="#f5c742"/><path d="M594 648l-1-1-3-2c0-1 2-10 1-16l-1-4c-1-6-3-13 0-18l6-7-1-9-2-4 1-1s4 5 5 9v5l-1 1c1 2 4 9 1 16-2 7-4 9-5 10v11a86 86 0 000 9v1zm-3-4l2 2v-8-11-1c1 0 2-1 5-9s-1-16-1-16v-1h1v-1-4l-3-6v2a35 35 0 012 9l-6 8c-3 4-1 11 0 16l1 5c1 6 0 14-1 15z" fill="#a07843"/><path d="M540 445s-1 5 0 11l1 9s-6-6-5-12 4-8 4-8zM525 460s2 8 6 13l6 9s0-13-3-16l-9-6zM522 486l10 12 6 7-6-15c-2-3-10-4-10-4zM524 510l20 15s-5-11-10-13l-10-2zM530 532l20 13s-5-9-9-11-11-2-11-2zM538 552l20 14s-4-10-9-12c-4-3-11-2-11-2zM544 573l21 13s-5-11-10-12l-11-1zM551 591l20 12s-4-9-9-11c-4-2-11-1-11-1zM558 609l19 12s-4-8-8-10-11-2-11-2zM554 470l-8 18s-1-9 2-14c3-4 6-5 6-5zM555 490l-7 19s-2-6 0-11 7-8 7-8zM556 528l3-18s-5 4-5 8c-1 3 2 10 2 10zM562 547l4-19s-6 5-6 9l2 10zM575 547l-4 22s-4-10-2-13l6-9zM583 565l-3 22s-5-6-3-12 6-10 6-10zM588 589l-2 17s-4-8-3-11 5-6 5-6zM597 604l-4 19s-3-10-2-12l6-7z" fill="#ffeba3"/><path d="M960 501s-2-6-6-8c-5-3-13-1-17-3-5-3-5-10-6-14s-7 0-7 0 2-4 5-4c2-1 6 0 7 2 0 2 4 3 7 3 4-1 4-8 4-8l7 4 6-3c2 0 5 1 7 3l7-4s0 7 4 8c3 0 7-1 7-3 1-2 5-3 7-2 3 0 5 4 5 4s-6-4-7 0-1 11-6 14c-4 2-12 0-17 3-4 2-6 8-6 8h-1z" fill="#00a75d"/><path d="M961 502h-1l-1-1s-2-5-6-7l-8-2-9-1c-4-2-5-7-5-11l-1-3-2-2-4 2a1 1 0 01-1-2s3-4 6-4c2-1 7 0 8 3l4 2h2c2-1 3-5 3-7a1 1 0 012-1l6 4 6-3c2 0 5 1 7 3l6-4a1 1 0 011 1c1 2 2 6 4 7h2l4-2c1-3 6-4 8-3 3 0 6 4 6 4a1 1 0 01-1 2l-4-2-2 2-1 3c0 4-1 9-5 11l-9 1-8 2c-4 2-6 7-6 7l-1 1zm-1-2h1c0-2 2-6 6-8l9-2 8-1c3-2 4-6 4-9l1-4c1-2 2-3 4-3l1 1-2-1-6 2c0 2-4 3-6 3h-3c-3-1-4-5-4-7l-6 3h-1c-1-2-4-3-6-3l-5 3h-1l-6-3c0 2-1 6-4 7h-3c-2 0-6-1-6-3l-6-2-2 1 1-1c2 0 3 1 4 3l1 4c0 3 1 7 4 9l8 1 9 2c4 2 6 6 6 8z" fill="#005b31"/><path d="M965 476h6c1 1 9 3 11 2 3 0 5-3 5-6 1-3 0-5-1-8-1-2-2-4-6-4-4-1-6-1-8 1-2 3 2 7 6 6 3 0 2-3 2-3s2 2 0 4c-1 2-7 0-8-4-1-3 3-5 3-5v-1s-1-2-5-4l-9-5h-1l-8 5c-5 2-5 4-5 4v2s4 0 3 4c-2 4-7 6-8 4-2-2-1-4-1-4s0 3 3 3c3 1 8-4 6-6-3-2-4-1-8-1-3 0-6 2-7 4l-1 8c0 3 3 6 5 6 3 1 11-1 12-2h14z" fill="#fff"/><path d="M981 480l-11-3h-19a50 50 0 01-12 2c-3 0-6-4-6-7l1-8c1-2 4-5 8-5h4v-1s1-3 5-5l9-5h2l9 5c4 2 5 5 5 5l4 1c4 0 6 2 7 5 1 2 2 5 1 8 0 3-3 7-6 7l-1 1zm-25-5h15a48 48 0 0011 3c2-1 4-4 4-6 1-3 0-5-1-7 0-2-2-4-5-4l-4-1h-1l-1 1-1 1v2l4 2h2v-2a1 1 0 012-1s2 3 0 5l-3 2c-2 0-6-2-7-5v-3l1-2 2-1v-1l-4-3-9-5-9 5-4 3v1l2 2 1 2v2c-1 3-5 5-7 5l-3-2c-2-2 0-5 0-5a1 1 0 011 1l1 2h1c2 0 5-2 5-3v-1l-4-1h-3c-3 0-5 2-6 4l-1 7c0 2 3 5 5 6l11-3h5z" fill="#7c909b"/><path d="M965 476h6c1 1 9 3 11 2 3 0 5-3 5-6 1-3 0-5-1-8-1-2-2-4-6-4-4-1-6-1-8 1-2 3 2 7 6 6 3 0 2-3 2-3s2 2 0 4c-1 2-7 0-8-4-1-3 3-5 3-5v-1s-1-2-5-4l-9-5h-1l-8 5c-5 2-5 4-5 4v2s4 0 3 4c-2 4-7 6-8 4-2-2-1-4-1-4s0 3 3 3c3 1 8-4 6-6-3-2-4-1-8-1-3 0-6 2-7 4l-1 8c0 3 3 6 5 6 3 1 11-1 12-2h14z" fill="#c8d3d9"/><path d="M981 479l-10-2-6-1h-9l-5 1a50 50 0 01-12 2c-2-1-5-4-5-7l1-8c1-2 3-5 7-5h4v-1s1-3 5-5a96 96 0 009-5h2l8 5c5 2 5 5 5 5h1v1h4c3 1 6 2 7 5l1 8c0 3-3 6-6 7h-1zm-25-4h9l6 1a49 49 0 0011 2c2 0 5-3 5-6l-1-8c-1-2-3-3-6-4h-5l-2 1v1h-1l1 2c0 2 3 3 5 3l1-1 1-2 1-1c0 1 1 3-1 5l-2 1c-2 0-5-2-6-5l-1-2 2-2 2-1v-1l-5-4-9-5h-1l-8 5-5 4v1l3 2 1 2-1 2c-1 3-4 4-6 4l-3-1v-5a1 1 0 011 1v2l2 1c3 0 5-3 6-4l-1-1c-1-2-3-2-5-2h-2c-3 0-5 3-6 4l-1 8c0 3 2 6 5 6l11-2 5-1zm-14-8c1 2 3 1 5 0l-3 1-2-1zm34 1l4-1-2 1h-2z" fill="#7c909b"/><path d="M960 501s-2-6-6-8c-5-3-13-1-17-3-5-3-5-10-6-14s-7 0-7 0 2-4 5-4c2-1 6 0 7 2 0 2 4 3 7 3 4-1 4-8 4-8l7 4 6-3c2 0 5 1 7 3l7-4s0 7 4 8c3 0 7-1 7-3 1-2 5-3 7-2 3 0 5 4 5 4s-6-4-7 0-1 11-6 14c-4 2-12 0-17 3-4 2-6 8-6 8h-1z" fill="#00a75d"/><path d="M961 501h-1-1s-2-5-6-8l-8-1-9-2c-3-2-4-6-5-10l-1-4-2-1-4 1-1-1c1 0 3-4 6-4 2 0 6 1 7 3l5 2h2c3 0 4-5 4-7h1l6 3 6-3 7 3 6-3a1 1 0 011 0c0 2 1 7 4 7h2l5-2c1-2 5-3 7-3 3 0 5 4 6 4l-1 1-4-1-2 1-1 4c-1 4-2 8-5 10l-9 2-8 1c-4 3-6 8-6 8h-1zm-1-1h1l6-8 9-1 8-2c4-1 4-5 5-9l1-4c0-1 1-2 3-2h3l-4-2c-3 0-6 1-6 3-1 2-4 2-6 2h-2c-3 0-5-5-5-7l-6 3h-1l-6-3-5 3h-1l-6-3c0 2-2 7-5 7h-2c-2 0-5 0-6-2 0-2-3-3-6-3l-4 2h3c2 0 3 1 3 2l1 4c1 4 1 8 5 9l8 2 9 1 6 8z" fill="#005b31"/><path d="M961 460s4 7 4 13-4 11-4 11-4-6-4-11 4-13 4-13z" fill="#f5c742"/><path d="M961 485c0-1-4-7-4-12s3-13 3-13a1 1 0 011 0s4 7 4 13-3 11-3 12h-1zm0-24l-3 12c0 4 2 9 3 10 1-1 3-5 3-10l-3-12z" fill="#a07843"/><path d="M978 463s1 1-1 2-5-4-1-5 8 2 9 6 1 5-1 7-4 1-5 1l-3-3s7 0 6-5c-1-6-4-3-4-3zM943 463s0 1 2 2c1 0 4-4 1-5s-8 2-9 6c-2 3-1 5 1 7s4 1 5 1l2-3s-6 0-5-5c1-6 3-3 3-3zM960 451s-9 4-10 6 3 3 2 6 3 4 4 2l2-6c1-2 3-2 3-2l3 2c2 2 1 5 2 6s4 1 3-2c0-3 3-4 3-6-1-2-11-6-11-6h-1z" fill="#fff"/><path d="M960 496l-2-3c-2-2-14-2-21-4s-3-11-3-11 1 4 7 6c6 3 19 3 19 3s14 0 20-3 7-6 7-6 3 8-3 11-20 2-21 4l-2 3h-1z" fill="#018f50"/><path d="M961 464v17l-2-9 2-8z" fill="#ffeba3"/><path d="M955 537s-1-6-5-9-12-3-17-6c-4-3-3-11-3-15-1-4-7-1-7-1s3-4 5-4 6 2 7 4c0 2 4 4 7 4 4 0 6-7 6-7l6 5 6-2c2 0 5 2 6 4l8-3s0 7 3 8 7 1 8-1 5-2 8-2l4 5s-6-4-7 0c-2 3-3 11-8 12-6 2-13-1-18 1s-8 7-8 7h-1z" fill="#00a75d"/><path d="M956 538h-1l-1-1s-1-6-5-8c-1-2-4-3-8-3l-8-3c-4-3-4-8-4-12v-4l-3-1-3 1a1 1 0 01-1-2s3-4 6-4 7 2 8 5c0 1 3 3 6 3 2 0 4-5 5-6a1 1 0 011-1l6 5c1-1 4-3 6-2 2 0 5 1 7 3l7-2a1 1 0 011 1c0 2 0 7 2 7l4 1 3-1c1-3 5-3 6-3h3c3 1 4 5 5 6a1 1 0 01-2 1l-4-2-2 1-1 4c-1 4-3 8-7 9l-4 1h-5l-5-1-4 1c-4 2-7 6-7 6l-1 1zm0-2c1-2 4-5 8-7l4-1 5 1h5l3-1c4-1 5-4 6-8l2-4c0-1 1-2 3-2l2 1-2-2h-2l-4 2-5 2-4-1c-3-1-4-5-4-8l-6 3-2-1c0-1-3-3-5-3l-6 2-1-1-5-3c-1 2-3 6-6 6s-8-2-8-5l-6-3-2 1c4 0 5 2 5 3v4c0 4 0 8 3 10l8 3 9 3c3 3 4 7 5 9z" fill="#005b31"/><path d="M964 512l6 2 11 4c3 0 6-3 7-6v-8c-1-2-2-4-6-6-4-1-6-1-8 1-2 3 1 6 4 7 4 0 4-3 4-3s1 2-1 3c-2 2-7 0-8-4 0-4 4-5 4-5v-1s0-3-4-5l-8-7h-1l-10 4c-4 1-5 4-5 4l-1 1s5 1 3 5-8 5-9 2v-4s-1 4 2 4c4 1 9-3 7-5s-4-2-8-3c-3 0-6 2-7 4l-2 8c-1 2 2 6 4 7s11 0 12-1l6 1 8 1z" fill="#fff"/><path d="M981 519c-3 0-11-4-11-5l-6-1-9-1a53 53 0 00-5-1l-9 1h-3c-3-1-6-5-5-8l2-9c2-2 4-4 7-4h1l2 1h2l1-1s1-3 6-4a97 97 0 0010-4h1l1 1 7 6c5 3 5 6 5 6l4 1c4 2 6 4 7 7v8c-1 3-5 7-8 7zm-31-10l6 1 9 1 6 2 10 4c2 0 5-3 6-5v-8l-5-5-5-1-2 1-1 1v1l4 4 2-1 1-1v-1h1c1 0 2 3 0 5l-3 1c-3 0-6-2-7-6v-3l2-2 2-1-4-4-8-7-10 4-5 3 3 3v4c-2 3-5 4-7 4l-4-2c-1-3 1-5 1-5a1 1 0 011 1v2h2c2 0 5-1 5-3-1-2-2-2-5-3h-2c-3 0-5 2-6 3l-2 8c-1 2 1 5 3 6h3a62 62 0 009-1z" fill="#7c909b"/><path d="M964 512l6 2 11 4c3 0 6-3 7-6v-8c-1-2-2-4-6-6-4-1-6-1-8 1-2 3 1 6 4 7 4 0 4-3 4-3s1 2-1 3c-2 2-7 0-8-4 0-4 4-5 4-5v-1s0-3-4-5l-8-7h-1l-10 4c-4 1-5 4-5 4l-1 1s5 1 3 5-8 5-9 2v-4s-1 4 2 4c4 1 9-3 7-5s-4-2-8-3c-3 0-6 2-7 4l-2 8c-1 2 2 6 4 7s11 0 12-1l6 1 8 1z" fill="#c8d3d9"/><path d="M981 518c-3 0-10-4-11-4l-6-1-8-1-6-1-9 1-3-1c-3-1-5-4-5-7 1-4 1-6 3-8 1-2 4-5 7-4h5v-1s1-2 6-4a98 98 0 0010-3h1l8 6c4 3 5 6 5 6v1l4 1c3 1 5 3 6 6v8c-1 3-4 6-7 6zm-31-8l6 1 9 1 5 1 11 4c3 0 6-3 6-5v-8c-1-2-2-4-5-5l-5-1-2 1h-1v2c0 2 2 4 4 4h2l1-2a1 1 0 011-1s1 3-1 5l-2 1c-2 0-6-3-6-6v-2l1-2 3-1v-1s-1-3-4-5l-8-6h-1l-10 3c-3 1-5 3-5 4v1l3 2v2l-1 2c-1 2-4 3-6 3l-4-1c-1-3 1-5 1-5h1v3l1 1h1c3 0 5-2 6-3v-2l-6-2h-2c-3-1-5 2-6 3-2 2-3 5-3 8 0 2 2 6 4 6l3 1a63 63 0 009-1zm27-4l2 1 1-1h1-3-1zm-35-7v1l3 1 3-1-4 1-2-2z" fill="#7c909b"/><path d="M955 537s-1-6-5-9-12-3-17-6c-4-3-3-11-3-15-1-4-7-1-7-1s3-4 5-4 6 2 7 4c0 2 4 4 7 4 4 0 6-7 6-7l6 5 6-2c2 0 5 2 6 4l8-3s0 7 3 8 7 1 8-1 5-2 8-2l4 5s-6-4-7 0c-2 3-3 11-8 12-6 2-13-1-18 1s-8 7-8 7h-1z" fill="#00a75d"/><path d="M956 537h-1c-1 0-2-6-5-9l-8-3c-4-1-7-1-9-3-4-2-4-7-4-11v-4c0-1-1-2-3-2l-3 1a1 1 0 01-1-1l6-3c2 0 7 2 7 4 1 2 4 3 7 3s5-4 5-6a1 1 0 011 0l6 4 6-2 7 4 7-2c0 2 1 7 3 8h4l4-1c0-2 3-2 5-2h3l4 5-1 1-4-2-2 1-1 4c-2 3-3 8-7 9h-18c-4 2-7 7-7 7h-1zm-1-1h1c1-1 4-5 8-6l4-1h14c3-1 4-5 6-9l1-4 3-1 3 1c0-1-1-3-3-3-2-1-6 0-7 1 0 2-2 2-4 2h-4c-3-1-4-6-4-8l-6 2h-1c-1-2-4-4-6-4l-6 2-6-4c-1 2-3 6-6 6s-7-1-8-4l-6-3-4 2 2-1c3 0 4 2 4 3v4c0 4 0 8 4 10 2 2 5 3 8 3l8 3c4 3 5 8 5 9z" fill="#005b31"/><path d="M963 496s2 7 1 13c-1 7-5 11-5 11s-3-6-2-12 6-12 6-12z" fill="#f5c742"/><path d="M959 521v-1s-4-6-3-12c1-5 6-12 6-12l1-1v1s3 7 2 14c-1 6-5 10-6 11zm3-24l-5 11 2 11c1-1 4-5 5-10 1-4-1-10-2-12z" fill="#a07843"/><path d="M980 502s0 1-2 1-4-5 0-5 7 4 8 7 0 6-2 7-4 1-5 0l-3-2s7 0 7-5c0-6-3-3-3-3zM944 496s0 1 1 2 6-3 2-4-8 0-10 3-1 6 0 8 4 2 5 2l3-2s-7-2-5-7 4-2 4-2zM964 487s-11 2-12 4 3 3 2 6 2 5 3 3l3-6c1-2 3-2 3-2s2 0 3 3l1 7c1 1 4 1 4-2-1-3 3-3 3-6s-10-7-10-7z" fill="#fff"/><path d="M956 532l-1-4c-1-3-14-3-21-7s-1-12-1-12 0 5 6 8a75 75 0 0039 6c6-1 8-5 8-5s2 9-5 10-20-1-22 1l-2 3h-1z" fill="#018f50"/><path d="M962 499l-2 11v7s-2-6-1-10l3-8z" fill="#ffeba3"/><path d="M939 573s0-6-3-10-12-6-16-10 0-11 0-15c0-5-7-4-7-4s4-3 7-2c2 1 6 3 5 6 0 2 4 4 7 5 4 1 7-6 7-6l6 6h6c2 0 5 3 6 5l8-1s-2 7 1 9 7 3 9 1c1-2 6-1 8 0s3 6 3 6-4-5-7-2-5 11-11 11-13-4-18-3c-5 0-9 5-9 5l-2-1z" fill="#00a75d"/><path d="M941 575h-1l-1-1-1-1s0-6-3-9c-1-2-4-4-7-5l-8-5c-4-4-3-9-2-12l1-5v-1l-4-1h-2a1 1 0 010-2l6-2h1c2 1 7 4 6 7l6 4c3 0 6-4 6-5a1 1 0 012 0l5 5h7c2 0 5 3 6 5l7-1a1 1 0 011 2c0 1-1 6 1 8l5 1 2-1 4-1 5 1c3 1 4 6 4 7a1 1 0 01-2 1c0-1-2-3-4-3h-1l-3 4c-2 3-4 8-9 8l-9-2-8-2h-1c-5 1-9 5-9 5v1zm-1-3v1c2-2 5-5 10-5l1-1 8 2 9 2c4 0 6-4 8-7l2-4 3-1 3 1-1-2-5-1-2 1-4 1-6-2c-3-2-3-6-2-8h-8c0-2-3-5-5-5h-6-1l-5-5c-1 2-4 5-7 5-4-1-8-4-8-6 1-2-2-4-5-5h-2l3 2 1 3-1 4c-1 4-1 8 1 10l8 5 8 5 3 10z" fill="#005b31"/><path d="M954 551l6 2 10 7c3 0 7-2 8-4l2-9c0-2-1-5-5-7-3-2-5-3-8-1s0 7 3 8 4-2 4-2 1 2-2 3c-2 2-7-2-6-6 0-4 5-4 5-4v-1s0-3-3-6l-7-9h-1l-11 1-6 3-1 1s5 3 2 6c-4 4-9 3-10 0-1-2 1-4 1-4s-2 3 2 5c3 1 9-1 8-4-2-3-4-3-8-5-3-1-6 1-8 2l-4 8c-1 2 0 7 3 8 2 2 11 2 12 2l6 2 8 4z" fill="#fff"/><path d="M971 561h-1l-11-7-5-2-9-4-5-2c-1 0-10 0-13-2s-4-6-3-10l4-7c2-2 4-3 7-3h3l2 1 2 1v-1s2-2 7-3a102 102 0 0011-1h2v1l7 8c3 4 3 7 3 7l4 2c3 2 5 5 5 8l-2 9c-1 3-5 5-8 5zm-36-35l-5 2-4 7c-1 2 0 6 2 7 2 2 11 2 12 2l6 2 9 4 5 2a43 43 0 0011 7c2 0 5-2 6-4l2-8c0-2-2-4-4-6l-4-2h-1-2v1h-1v2l3 4h1c2 0 2-2 2-2h2s1 3-2 5c-2 1-4 1-6-1s-2-4-2-6v-3l2-1 3-1c0-1 0-3-3-6l-7-8-11 1-5 2-1 1c1 0 2 1 2 3v2l-1 2c-1 2-4 3-6 3-3 0-5-2-5-4-1-3 2-5 2-5a1 1 0 011 2v2l1 1h2l4-2 1-1c-1-2-3-2-5-3a73 73 0 01-4-1z" fill="#7c909b"/><path d="M954 551l6 2 10 7c3 0 7-2 8-4l2-9c0-2-1-5-5-7-3-2-5-3-8-1s0 7 3 8 4-2 4-2 1 2-2 3c-2 2-7-2-6-6 0-4 5-4 5-4v-1s0-3-3-6l-7-9h-1l-11 1-6 3-1 1s5 3 2 6c-4 4-9 3-10 0-1-2 1-4 1-4s-2 3 2 5c3 1 9-1 8-4-2-3-4-3-8-5-3-1-6 1-8 2l-4 8c-1 2 0 7 3 8 2 2 11 2 12 2l6 2 8 4z" fill="#c8d3d9"/><path d="M971 561l-1-1c-3 0-10-6-11-6l-5-3-9-3-5-2-13-2c-2-2-3-6-3-9l5-8 6-3 2 1 2 1 3 1v-1-1s2-2 7-2l11-2 1 1h1l6 8c4 4 4 7 4 7h-1v1l5 2c3 2 4 4 4 7 1 3 0 6-2 9-1 2-4 5-7 5zm-36-36l-6 3-4 7c0 2 1 6 3 8l12 2 6 2 8 3 6 3c1 1 8 6 10 6l1 1c2 0 5-2 6-5 2-3 3-5 2-8 0-2-1-5-4-6l-4-2h-1-2-1v1l-1 2c0 2 2 4 4 5h1c2 0 3-2 3-3h1s0 3-2 5c-2 1-4 0-6-2l-2-5 1-2 2-2h2l1-1-4-6-6-8-1-1-11 2c-4 0-5 2-6 2v1s2 1 2 3v2l-1 1-6 3c-2 0-4-1-4-3-1-2 0-4 1-4h1v1l-1 2 2 1 2 1c2 0 4-1 5-3v-1c-1-2-2-3-5-4h-2l-2-1zm33 22c1 1 3 2 4 1l1-1-3 1-2-1zm-34-15v1l4 2h3l-5-1-2-2z" fill="#7c909b"/><path d="M939 573s0-6-3-10-12-6-16-10 0-11 0-15c0-5-7-4-7-4s4-3 7-2c2 1 6 3 5 6 0 2 4 4 7 5 4 1 7-6 7-6l6 6h6c2 0 5 3 6 5l8-1s-2 7 1 9 7 3 9 1c1-2 6-1 8 0s3 6 3 6-4-5-7-2-5 11-11 11-13-4-18-3c-5 0-9 5-9 5l-2-1z" fill="#00a75d"/><path d="M941 574h-2v-1s0-6-3-10l-8-5c-3-1-6-2-8-5-3-3-2-8-1-11l1-4-1-2-4-1h-2v-1s3-3 6-3l1 1c2 0 6 3 6 6 0 1 3 4 6 4 3 1 7-5 7-5h1l5 6 5-1h1l6 6 8-1h1v1c-1 1-2 7 1 8l5 2 3-1 3-1 5 1c3 1 4 6 4 6h-1c0 1 0 1 0 0 0 0-3-3-5-3l-2 1-2 4c-2 3-4 7-9 7-3 1-6 0-9-1l-8-2h-1c-5 1-9 5-9 5zm-1-1h1c0-1 4-4 9-5h1l8 2c3 1 6 2 9 1 4 0 6-4 8-7l3-4 2-1 4 2-2-3-5-1h-3l-3 2-6-2c-3-2-2-7-2-9l-7 1-1-1c0-2-3-4-5-5h-1l-5 1h-1l-5-6c-1 2-4 6-7 5-3 0-7-3-7-5s-3-5-6-5v-1l-4 2 5 1 1 3-1 4c-1 4-2 8 1 11l7 5c4 1 7 3 8 5 3 3 4 8 4 10z" fill="#005b31"/><path d="M956 533s1 9-1 15-8 9-8 9-2-7 0-12 9-12 9-12z" fill="#f5c742"/><path d="M947 558c-1-1-2-8 0-13 2-6 9-12 9-12a1 1 0 011 0c0 1 1 9-2 15a24 24 0 01-8 10zm9-23c-2 1-7 6-8 10-2 4-1 10-1 12 2-2 6-5 7-9 2-5 2-11 2-13z" fill="#a07843"/><path d="M972 543s0 2-2 1c-1 0-3-5 1-5s7 5 7 9-2 6-4 7-4 0-5-1c-2-1-2-3-2-3s7 2 8-4-3-4-3-4zM938 529s-1 2 0 3 7-2 3-5-8-1-11 2-3 6-2 8 3 3 5 3l3-1s-6-4-3-8c3-5 5-2 5-2zM959 524s-11 0-12 2 2 4 0 7c-2 2 1 5 2 4l5-6 3-1h1s1 0 1 3v7c0 2 4 3 4-1s5-2 5-4-8-10-8-10l-1-1z" fill="#fff"/><path d="M941 568v-3c0-2-14-7-19-13s0-12 0-12 0 5 5 9 18 11 18 11 14 5 21 5 9-4 9-4 0 9-7 10c-8 0-20-6-23-5s-3 3-3 3l-1-1z" fill="#018f50"/><path d="M955 537l-4 10-3 8s0-7 2-11l5-7z" fill="#ffeba3"/><path d="M924 606s0-7-3-11-12-6-16-10c-3-4 0-11 1-16 0-4-7-3-7-3s4-3 6-2c3 1 6 3 6 6 0 2 3 4 7 5 3 1 7-5 7-5l5 6 7-1c2 1 5 4 5 6h8s-2 7 1 9 7 2 9 1c1-2 6-1 8 0s3 6 3 6-4-6-7-3c-3 4-6 11-11 11-6 0-14-4-19-4-5 1-9 5-9 5h-1z" fill="#00a75d"/><path d="M925 607l-2-1c0-1 0-6-3-10-1-2-4-4-7-5l-8-5c-3-4-2-9-1-13l1-4-1-1-4-1h-1l-1-1v-1l6-2h2c2 1 6 4 6 7 0 1 2 3 6 4 2 0 5-4 6-5a1 1 0 012 0l4 6 5-1 2 1c2 0 5 3 6 5h8v1c0 2-1 6 1 8l5 2 2-1 4-1 5 1c3 1 4 6 4 7a1 1 0 01-2 1l-4-4-2 1-2 3c-2 4-5 8-9 8h-1l-9-2-8-2c-5 1-9 5-9 5h-1zm0-2c1-1 5-4 9-5h1l9 2 8 2h1c3 0 5-3 7-7l3-3 3-2 3 2-2-2-4-1h-2l-4 2-6-3c-3-1-2-6-2-8h-7l-1-1-5-5h-1l-5 1h-1l-4-6c-1 2-4 5-7 5h-1c-3-1-7-4-7-7l-5-4h-2l3 2 1 2-1 5c-1 3-2 8 0 10l8 5c3 2 6 3 8 6s3 8 3 10z" fill="#005b31"/><path d="M939 584l6 2c0 1 7 7 10 7 3 1 7-1 8-4l2-8c0-2-1-5-4-7-4-2-6-4-8-2-4 2-1 7 2 8 4 2 4-2 4-2s1 2-1 4c-3 1-7-3-7-7 1-4 5-3 5-3l1-2s0-2-3-6l-7-9h-1l-11 1c-4 0-6 2-6 2l-1 2s4 2 1 6c-3 3-9 2-9-1-1-2 1-3 1-3s-2 3 1 4c3 2 9-1 8-3-1-4-3-4-7-5-3-2-6 0-8 1l-4 8c-1 2 0 7 2 8 2 2 11 3 12 3l6 2 8 4z" fill="#fff"/><path d="M956 594h-1c-3 0-11-7-11-7l-5-3-9-3-5-2s-10-1-13-3c-2-2-3-7-2-10s2-6 4-7c2-2 4-3 7-3l3 1h2l2 1s2-3 7-3l11-1h2v1l6 8c4 4 4 7 4 7l-1 1 4 2c3 2 5 5 5 8l-2 9c-1 2-5 4-8 4zm-35-36l-5 2-4 7c-1 2 0 6 2 7 2 2 10 3 11 3l6 2 9 4 5 3c1 0 8 6 10 6h1c2 0 5-1 6-3l2-8c0-3-1-5-4-6l-4-2h-2-1v1l-1 1c0 2 2 4 4 5h1l1-2 1-1 1 1s1 3-2 5c-2 1-4 0-6-2l-2-6 1-2 2-2 2-1h1l-3-5-6-9h-1l-11 1c-3 0-5 2-5 2h-1l2 3v3l-1 1-6 3c-3 0-5-1-5-3-1-4 2-5 2-5a1 1 0 011 1v2l1 1 2 1 4-2v-1c0-2-2-3-4-4h-2l-2-1z" fill="#7c909b"/><path d="M939 584l6 2c0 1 7 7 10 7 3 1 7-1 8-4l2-8c0-2-1-5-4-7-4-2-6-4-8-2-4 2-1 7 2 8 4 2 4-2 4-2s1 2-1 4c-3 1-7-3-7-7 1-4 5-3 5-3l1-2s0-2-3-6l-7-9h-1l-11 1c-4 0-6 2-6 2l-1 2s4 2 1 6c-3 3-9 2-9-1-1-2 1-3 1-3s-2 3 1 4c3 2 9-1 8-3-1-4-3-4-7-5-3-2-6 0-8 1l-4 8c-1 2 0 7 2 8 2 2 11 3 12 3l6 2 8 4z" fill="#c8d3d9"/><path d="M956 594h-1l-11-7-5-3-8-4-6-2-12-2c-3-2-4-7-3-9 1-4 3-6 5-8l6-2h2a75 75 0 005 2v-1s2-2 7-2l11-2 1 1h1l6 9c3 3 3 6 3 6v1l4 2c3 2 5 5 5 8l-3 9c-1 2-4 4-7 4zm-35-36l-6 2-4 7c-1 2 0 6 2 8l12 2 6 2 9 4 5 3 10 7h1c2 0 5-2 6-4l3-8c0-3-2-5-4-7l-5-2h-2l-1 1h-1v2c0 2 1 4 3 5h2l2-2h1c0 1 0 3-2 4s-4 0-5-1c-2-2-2-4-2-6v-2l2-2h3v-1s0-3-3-6l-6-8-1-1-11 2c-4 0-6 1-6 2v1s2 1 2 3v1l-1 2c-2 2-4 2-6 2l-5-2c0-3 2-5 2-5l1 1-1 2 1 2h3l5-2v-1c-1-3-2-3-5-4l-2-1h-2zm32 22c2 1 3 2 4 1h1-3l-2-1zm-33-16v1c0 2 2 2 4 2h2-4l-2-2v-1z" fill="#7c909b"/><path d="M924 606s0-7-3-11-12-6-16-10c-3-4 0-11 1-16 0-4-7-3-7-3s4-3 6-2c3 1 6 3 6 6 0 2 3 4 7 5 3 1 7-5 7-5l5 6 7-1c2 1 5 4 5 6h8s-2 7 1 9 7 2 9 1c1-2 6-1 8 0s3 6 3 6-4-6-7-3c-3 4-6 11-11 11-6 0-14-4-19-4-5 1-9 5-9 5h-1z" fill="#00a75d"/><path d="M925 607l-2-1c0-1 0-6-3-10l-7-6-8-5c-3-3-2-8-1-12l1-4v-1c-1-2-4-2-5-2h-1-1l1-1 5-2h1c3 1 7 4 7 7-1 1 2 4 6 5 3 0 6-6 6-6h1l5 6h7c2 1 5 3 5 6l8-1h1v1c-1 2-2 7 1 8l5 2 2-1 4-1 5 1c3 2 3 7 3 7h-1s-2-3-4-3l-2 1-2 3c-2 3-5 8-9 8h-1l-9-2a26 26 0 00-9-2c-4 0-9 4-9 5zm-1-2l1 1c1-1 5-5 9-5h1l9 2 8 2h1c3 0 6-4 8-7l2-4 3-1 4 2-2-4-5-1-3 1-3 1-6-2c-3-2-2-7-1-9l-8 1v-1l-5-5h-2l-5 1v-1l-5-6c-1 2-4 6-7 6-4-1-8-4-7-6 0-2-4-5-6-6h-1l-3 1 4 2 1 2-1 5c-1 3-2 8 1 11l7 5c4 1 7 3 8 5 3 4 3 9 3 10z" fill="#005b31"/><path d="M942 566s1 9-2 15-8 9-8 9-2-7 1-13 9-11 9-11z" fill="#f5c742"/><path d="M932 591v-1c-1 0-2-8 0-13s9-11 9-11h1c0 1 1 9-1 15a24 24 0 01-9 10zm9-24l-8 11c-2 4-1 9-1 11 2-1 6-4 8-9 2-4 2-10 1-13z" fill="#a07843"/><path d="M958 577s0 1-2 1-3-6 1-5 6 5 6 9-2 6-4 7-4-1-5-2l-2-3s7 2 8-3c1-6-2-4-2-4zM923 562s-1 1 1 2c1 1 6-2 3-4s-8-1-11 1c-3 3-3 6-2 8s3 3 5 3l3-1s-6-4-3-8c3-5 4-1 4-1zM945 557s-11 0-12 2c-2 1 1 4-1 6s2 5 3 4l5-5c2-2 3-1 3-1s2 0 2 3l-1 8c-1 2 4 2 5-1s5-3 5-5-8-10-8-10l-1-1z" fill="#fff"/><path d="M926 601l-1-4c-1-3-13-7-18-13-6-5 1-12 1-12s-1 5 4 9l18 11s14 6 20 6c7 0 10-4 10-4s0 10-8 10-20-6-22-5l-3 2h-1z" fill="#018f50"/><path d="M940 570l-4 10-3 7s0-7 2-10l5-7z" fill="#ffeba3"/><path d="M899 640s1-7-2-11c-2-5-11-9-14-14s2-11 3-16c1-4-7-4-7-4s5-3 7-2c2 2 6 5 5 7 0 3 3 6 6 7 4 1 8-5 8-5l5 8h7c2 1 5 5 5 7l8 1s-3 7 0 9c3 3 7 4 9 3 2-2 6-1 8 1s2 7 2 7-3-7-7-4c-3 3-7 10-13 10-6-1-13-7-18-7-6 0-11 3-11 3h-1z" fill="#00a75d"/><path d="M930 645h-1l-10-4-8-3c-5 0-10 3-10 3h-1l-2-1v-1s1-6-1-10l-7-6-8-7c-3-4-1-9 1-13l2-4-1-2-5-1a1 1 0 010-2l5-2 3 1c2 1 6 5 5 8 0 1 2 4 6 5 3 0 6-3 7-4l1-1v1l4 7h7l6 7 8 1a1 1 0 010 1c0 2-2 7 0 8 1 2 4 3 6 3h1l3-1 7 2c2 2 2 7 2 8a1 1 0 01-2 0c0-1-2-4-4-4l-1 1-3 3c-3 3-6 7-10 7zm-19-9l9 3 9 4c4 0 7-3 9-6l4-4 2-1 4 2-1-2-6-2h-2l-2 1c-3 0-6-1-8-3s-1-7 0-9l-7-1-1-1c0-2-3-5-4-6h-7l-1-1-4-6c-1 2-4 4-7 4h-1c-4-1-7-5-7-8 1-1-2-4-4-6h-3l3 2 1 3-2 5c-2 3-3 8-1 11l7 6c3 2 6 4 7 7 2 4 2 9 2 11 2-1 6-3 11-3z" fill="#005b31"/><path d="M919 619l5 4 9 9c3 1 7-1 9-3l4-9c0-2 0-5-4-8-3-3-5-4-8-3-4 2-2 7 2 9 3 2 4-2 4-2s0 3-2 4c-3 1-7-3-6-8 1-4 6-3 6-3v-1s1-3-2-7l-5-10-1-1h-11c-6-1-8 1-8 1l-1 2s4 3 1 6c-4 3-10 1-10-2s2-4 2-4-3 3 0 5c3 3 10 1 9-2 0-3-3-4-6-6s-7-1-9 0l-6 7c-1 3-1 8 1 9 2 2 12 5 13 5l5 3 9 5z" fill="#fff"/><path d="M935 633h-2l-10-10-5-3-8-5-5-3c-1 0-11-3-13-5-3-2-3-7-2-10 2-4 4-6 6-7l6-2 4 1 2 1 2 1 1-1 6-1h13l1 1 1 1 5 9c3 5 2 8 2 8v1l4 2c3 3 4 6 4 9l-4 9c-1 2-5 4-8 4zm-33-43l-5 1-5 7c-1 2-1 6 1 8l12 4 6 3 8 5 6 4c0 1 6 8 9 9h1c2 0 5-1 6-3l4-8c0-3-1-5-3-7l-4-3h-1a6 6 0 00-2 0l-1 1-1 1c0 2 1 4 3 5l1 1c2 0 2-2 2-2l1-1 1 1s0 3-3 5c-2 1-4 0-5-2-2-2-2-5-2-7l1-3 3-1h3l-2-7-6-9v-1a95 95 0 01-13 0l-5 1 1 4v2l-2 2-5 2c-3 0-6-2-6-5s2-4 3-4h1v1l-1 2 1 2h3l4-1v-1c0-2-1-3-4-4l-2-1-3-1z" fill="#7c909b"/><path d="M919 619l5 4 9 9c3 1 7-1 9-3l4-9c0-2 0-5-4-8-3-3-5-4-8-3-4 2-2 7 2 9 3 2 4-2 4-2s0 3-2 4c-3 1-7-3-6-8 1-4 6-3 6-3v-1s1-3-2-7l-5-10-1-1h-11c-6-1-8 1-8 1l-1 2s4 3 1 6c-4 3-10 1-10-2s2-4 2-4-3 3 0 5c3 3 10 1 9-2 0-3-3-4-6-6s-7-1-9 0l-6 7c-1 3-1 8 1 9 2 2 12 5 13 5l5 3 9 5z" fill="#c8d3d9"/><path d="M935 632h-2c-3-1-9-8-10-9l-5-3-8-6-5-3c-1 0-11-2-13-4s-3-7-1-10c1-3 3-6 6-7l5-2 4 1 2 1 2 2 1-1s2-2 6-2h2l9 1h2l1 1 6 9c3 5 2 8 2 8v1l4 3c2 2 4 5 3 8l-3 9c-2 2-5 3-8 3zm-33-43l-5 2c-2 1-4 3-5 6-2 3-1 7 1 9s11 4 12 4l6 4 8 5 5 3c1 1 7 8 10 9h1c3 0 6-1 7-3 2-3 3-5 3-8 1-3 0-5-3-7l-4-3-2-1h-1l-1 1h-1v2c-1 2 1 5 3 6h1c2 0 3-2 3-2h1l-3 4c-1 1-3 0-5-1-1-2-2-5-1-7l1-2 2-1 3-1-2-7-5-10h-1a92 92 0 01-13-1c-3 0-5 1-5 2l-1 1c1 0 2 1 2 3l-1 2-1 1-5 2c-3 0-6-2-6-4s2-4 3-4a1 1 0 010 1l-1 2 2 2 3 1 4-2 1-1c-1-3-2-3-5-5l-2-1-3-1zm31 28l1 1 4 2 1-1h-4l-2-2zm-32-21v1c0 2 2 3 5 3h2l-5-1-2-3z" fill="#7c909b"/><path d="M899 640s1-7-2-11c-2-5-11-9-14-14s2-11 3-16c1-4-7-4-7-4s5-3 7-2c2 2 6 5 5 7 0 3 3 6 6 7 4 1 8-5 8-5l5 8h7c2 1 5 5 5 7l8 1s-3 7 0 9c3 3 7 4 9 3 2-2 6-1 8 1s2 7 2 7-3-7-7-4c-3 3-7 10-13 10-6-1-13-7-18-7-6 0-11 3-11 3h-1z" fill="#00a75d"/><path d="M930 644h-1l-9-3-9-4c-5 0-10 4-10 4h-1l-1-1h-1c0-1 1-7-1-11-1-3-4-5-7-7l-7-6c-3-4-1-9 1-13l1-4v-2c-2-2-6-2-6-2a1 1 0 010-1l5-1h2c3 1 6 5 6 7-1 2 2 5 5 7h1c3 0 7-5 7-5h1l4 7h3l4 1c2 1 5 4 5 7h9v1c-1 2-3 7-1 9s5 3 7 3l1-1 3-1 6 3c3 1 3 6 3 7h-1s-2-4-5-4h-1l-3 4c-3 3-6 6-10 6zm-19-8c3 0 6 2 9 4l9 3c4 1 7-3 10-6l3-3 2-1c2 0 4 2 5 3l-2-5-6-2-2 1-2 1-7-3c-3-3-1-8 0-10h-8l-1-1c0-2-2-5-4-6l-4-1h-3l-5-7c-1 2-4 5-7 5l-1-1c-3-1-7-4-6-7 0-2-3-5-5-6h-5l4 2 1 3-1 5c-2 3-4 8-2 11l8 7 7 6c2 5 2 10 1 11l1 1c1-1 6-4 11-4z" fill="#005b31"/><path d="M924 602s-1 8-4 14c-4 6-10 9-10 9s-1-8 3-13 11-10 11-10z" fill="#f5c742"/><path d="M910 625h-1c0-1 0-8 3-14 3-5 11-10 11-10a1 1 0 011 1s0 9-4 14a25 25 0 01-10 9zm13-22c-2 1-8 5-10 9l-3 12c2-1 7-4 9-8 3-5 4-11 4-13z" fill="#a07843"/><path d="M939 615s-1 1-3 0-2-6 2-4 6 6 6 10-3 6-5 6l-6-2-1-4s7 4 9-1c2-7-2-5-2-5zM905 594s-1 1 0 2 7 0 4-3-8-3-12-1-3 6-3 8 3 3 5 4 3-1 3-1-6-4-2-8c5-5 5-1 5-1zM929 593s-12-2-14-1 1 5-1 7 1 6 2 5l6-6c2-2 4 0 4 0s1 1 1 4l-2 7c-1 1 4 3 5 0s5-2 6-4-7-12-7-12z" fill="#fff"/><path d="M902 635v-4c0-3-13-9-18-16s4-13 4-13-2 5 2 11c5 6 18 14 18 14s13 8 20 9 11-2 11-2-2 9-10 8-20-9-23-8l-3 2-1-1z" fill="#018f50"/><path d="M922 605l-6 10-4 7s0-7 3-11l7-6z" fill="#ffeba3"/><path d="M415 472c-2-2-3-5-2-12 3-11 10-19 10-26l-2-12-2 1h-4l-17 2 6 2c5 5 4 13 2 16-2 5-18 6-24 6-5 0-12 0-18 3l-7 5c-5 3-12 8-20 10-6 1-14-2-21-4-6-2-12-4-18-4l-18 3-14 2h-4l-14-2c-5-2-12-3-18-3-5 0-11 2-17 4-8 2-15 5-22 4-8-2-14-7-20-10l-7-5c-6-3-13-3-18-3-6 0-21-1-24-6-2-3-3-11 2-16l7-2-18-2h-3l-3-1-2 12c0 7 8 15 10 26 2 7 0 10-1 12l9 7c11-5 24-9 36-9 25 0 23 11 50 11s25-11 55-11h1c31 0 29 11 55 11s25-11 50-11c12 0 25 4 36 9l9-7z" fill="url(#a)" transform="translate(484 253)"/><path d="M804 735c-13 0-19-3-25-6-7-3-14-6-30-6h-1c-16 0-23 3-29 6-7 3-13 6-26 6-14 0-20-3-26-6s-12-6-24-6c-10 0-22 3-35 9h-1a209 209 0 01-10-8c1-2 3-5 1-11l-5-13c-2-5-5-9-5-14a51 51 0 013-12l3 1h3l18 1 1 1a1 1 0 01-1 1c-3 0-5 1-6 3-5 4-4 11-2 15 2 3 16 5 23 5 5 0 12 0 19 3l7 5c5 3 12 8 20 10h3c5 0 12-2 17-4 6-2 13-4 18-4 6 0 13 1 19 3l13 2h4l14-2 18-3c6 0 12 2 18 4s12 4 17 4h4c8-2 14-7 20-10l7-5c6-3 13-3 19-3 7 0 21-2 22-5 2-4 3-11-1-15l-6-3-1-1v-1l18-1h4l2-1a1 1 0 011 1l2 11c0 5-2 9-5 14l-5 13c-1 6 0 10 2 11v2a211 211 0 01-11 7c-13-7-25-10-35-10-12 0-18 3-24 6s-12 6-26 6zm-56-14h1c16 0 23 4 30 6 7 3 13 6 25 6 14 0 20-3 26-6s12-6 24-6c10 0 22 4 36 10l8-6c-2-2-3-6-2-12l6-14c2-5 4-9 4-13l-1-10h-2l-4 1h-13l3 2c5 5 4 13 2 17-3 6-24 6-24 6-6 0-12 1-19 4l-6 4c-6 4-13 9-21 10l-4 1c-5 0-11-3-18-5-5-1-11-4-17-4l-18 3c-4 2-11 3-14 3h-4c-3 0-10-1-14-3l-18-3c-5 0-11 3-17 4-6 2-12 5-18 5l-4-1c-8-1-15-6-20-10l-7-4c-6-3-13-4-18-4 0 0-21 0-24-6-3-4-4-12 1-17l3-2h-13l-3-1h-2l-2 10c0 4 2 8 4 13 3 4 5 9 6 14 1 6 0 9-1 12l9 6c13-6 25-10 35-10 13 0 19 3 24 6 6 3 13 6 26 6 12 0 18-3 25-6 7-2 14-6 30-6z" fill="#780e06"/><path d="M751 667c16 0 32 7 46 10 14 4 25 4 34 3s24-11 24-11l11-8c5-4 14-5 17-5 3 1 18 3 20-7 3-10-7-11-7-11s5-1 6 4c1 4 1 12-9 12-10 1-13-6-11-17s14-15 26-13c11 2 21 10 18 28s-19 23-23 23c-4 1-18 1-25 3s-8 15-3 15c6 1 7-6 7-6s0 4-4 5c-3 1-7-5-4-10s10-6 14-2c5 5 4 12 2 16s-17 5-23 5-13 1-19 4-16 12-27 14-27-8-39-8c-11 0-25 6-32 6h-4c-6 0-20-6-32-6s-27 10-39 8c-11-2-20-11-26-14s-13-4-19-4-21-1-24-5c-2-4-2-11 2-16 5-4 12-3 15 2s-1 11-5 10-4-5-4-5 1 7 7 6c6 0 5-13-3-15-7-2-21-2-24-3-4 0-21-5-24-23s7-26 19-28c11-2 23 1 25 13 2 11-1 18-11 17-10 0-10-8-9-12 2-5 6-4 6-4s-9 1-7 11c3 10 17 8 21 7 3 0 11 1 16 5l12 8s14 10 24 11c9 1 19 1 33-3 14-3 30-10 46-10h6z" fill="#fd0"/><path d="M817 721c-5 0-12-2-18-4-5-2-11-4-17-4l-19 3-13 2h-4l-12-2-20-3c-5 0-11 2-17 4s-12 4-18 4h-4c-8-2-15-7-21-11l-6-4c-6-3-13-3-18-3 0 0-22 0-25-6-3-5-3-13 2-18l2-1-12-1h-4c-4 0-21-6-24-25-5-24 14-29 19-30h7c11 0 19 5 21 14 1 8 0 13-2 16-1 2-3 3-5 3h6c5 0 12 1 16 5l12 8s14 10 23 11a96 96 0 0033-3l10-3c11-4 24-7 36-7h6c12 0 25 3 36 7l11 3a90 90 0 0033 3c9-1 23-11 23-11l11-8a28 28 0 0118-5h4c-2 0-3-1-4-3-3-3-4-8-2-16 2-9 10-14 21-14h6c6 1 24 6 20 30-4 19-21 25-25 25h-4l-11 1 1 1c5 5 5 13 2 18-3 6-24 6-24 6-6 0-12 0-18 3l-7 4c-6 4-13 9-21 11h-4zm-35-11c6 0 12 2 18 4s12 4 17 4h4c7-2 14-6 19-10l7-5c7-3 14-3 20-3 7 0 20-2 22-5s2-10-2-14a8 8 0 00-12 2v6l3 2 2-3 1-2a1 1 0 013 1l-1 2c-1 4-4 6-7 6h-1c-3 0-4-3-5-6 0-5 2-11 8-13l21-2h4c3 0 19-5 22-22 3-21-11-26-18-27h-5c-10 0-17 4-18 12-2 6-1 11 1 13s4 3 8 3c3 0 6-1 7-3 2-3 1-7 1-8l-1-1-4-2-1-1 1-2s4 0 6 3c2 2 4 5 3 11-2 5-7 8-15 8h-9c-3 0-10 1-14 4l-11 9c-1 0-15 10-25 11a99 99 0 01-34-3l-11-3c-11-4-23-7-35-7h-6c-12 0-23 3-35 7l-10 3a93 93 0 01-35 3c-9-1-24-11-24-11l-12-9a25 25 0 00-15-4h-8c-8 0-13-3-14-8-2-6 0-9 2-11 2-3 6-3 6-3l2 2-2 1-4 2v9c2 2 4 3 7 3 4 0 7-1 8-3 2-2 3-7 2-13-2-8-9-12-18-12h-6c-6 1-21 6-17 27 3 17 19 22 22 22h3l22 2c5 2 8 8 7 13 0 3-2 6-5 6h-1c-3 0-5-2-7-6v-2a1 1 0 013-1v2l3 3 3-2v-6a8 8 0 00-13-2c-4 4-3 11-1 14 1 3 14 5 22 5 5 0 12 0 19 3l7 5c6 4 12 8 20 10h3c5 0 11-2 17-4s12-4 18-4l21 3 11 2h4l12-2 20-3z" fill="#a07843"/><path d="M751 667c16 0 32 7 46 10 14 4 25 4 34 3s24-11 24-11l11-8c5-4 14-5 17-5 3 1 18 3 20-7 3-10-7-11-7-11s5-1 6 4c1 4 1 12-9 12-10 1-13-6-11-17s14-15 26-13c11 2 21 10 18 28s-19 23-23 23c-4 1-18 1-25 3s-8 15-3 15c6 1 7-6 7-6s0 4-4 5c-3 1-7-5-4-10s10-6 14-2c5 5 4 12 2 16s-17 5-23 5-13 1-19 4-16 12-27 14-27-8-39-8c-11 0-25 6-32 6h-4c-6 0-20-6-32-6s-27 10-39 8c-11-2-20-11-26-14s-13-4-19-4-21-1-24-5c-2-4-2-11 2-16 5-4 12-3 15 2s-1 11-5 10-4-5-4-5 1 7 7 6c6 0 5-13-3-15-7-2-21-2-24-3-4 0-21-5-24-23s7-26 19-28c11-2 23 1 25 13 2 11-1 18-11 17-10 0-10-8-9-12 2-5 6-4 6-4s-9 1-7 11c3 10 17 8 21 7 3 0 11 1 16 5l12 8s14 10 24 11c9 1 19 1 33-3 14-3 30-10 46-10h6z" fill="#f5c742"/><path d="M817 720c-5 0-11-2-17-4s-12-4-18-4l-20 3-12 2h-4l-12-2c-6-1-13-3-20-3-5 0-11 2-17 4s-12 4-18 4h-4c-8-2-14-7-20-10l-7-5c-6-3-13-3-18-3-4 0-21-1-24-6-2-4-3-12 2-16 1-2 3-2 5-3l-16-1h-3c-4 0-21-6-24-24-4-23 13-28 19-29h6c10 0 18 5 20 14 1 7 0 12-2 15-2 2-5 3-10 3-4 0-7-2-8-4l-1-3v1c1 5 5 7 12 7h9c5 0 11 1 16 4l11 9s15 10 24 11a97 97 0 0033-3l11-3c11-4 23-7 35-7h6c12 0 25 3 36 7l10 3a91 91 0 0034 3c9-1 23-11 24-11l11-9a27 27 0 0117-4h7c7 0 11-2 13-7v-1l-1 3c-2 2-5 4-9 4s-7-1-10-3c-2-3-3-8-1-15 2-9 9-14 20-14h6c5 1 23 6 19 29-3 18-20 24-24 24h-4l-15 1 5 3c5 4 4 12 1 16-2 5-19 6-23 6-6 0-13 0-19 3l-7 5c-5 3-12 8-20 10h-4zm-35-9c6 0 12 2 18 4s12 4 17 4h4c8-2 14-7 20-10l7-5c6-3 13-3 19-3 7 0 21-2 23-5 2-4 2-11-2-15l-6-3c-3 0-6 2-8 4-2 3-1 5 0 7s3 3 4 2l3-2 1-3 1 1-1 2c-1 3-3 5-6 5h-1c-2 0-3-2-4-5 0-5 2-10 7-12l21-2h4c4 0 20-5 23-23 4-22-13-27-18-28h-6c-10 0-18 5-19 13-2 6-1 11 1 14 2 2 5 3 9 3s6-1 8-3c2-4 1-8 1-9l-1-1-5-3-4-1h4c1 0 4 0 6 3 1 2 3 4 2 9-2 6-6 8-14 8h-9c-4 0-10 1-14 4l-12 9c-1 0-15 10-24 11a98 98 0 01-44-6c-11-4-24-7-36-7h-6c-12 0-24 3-35 7l-11 3a92 92 0 01-33 3c-10-1-24-11-25-11l-11-9a26 26 0 00-16-4h-8c-7 0-12-2-13-8-1-5 0-7 2-9a6 6 0 015-3h4l-4 1-4 3-1 1c0 1-2 5 1 9 1 2 4 3 7 3 4 0 7-1 9-3 2-3 3-8 2-14-2-8-9-13-19-13h-6c-5 1-22 6-18 28 3 18 19 23 23 23h3l22 2c4 2 7 7 6 12 0 3-2 5-4 5h-1c-2 0-4-2-6-5v-2l1-1v3l3 2c2 1 4 0 5-2s1-4-1-7a9 9 0 00-13-1c-5 4-4 11-2 15 2 3 16 5 23 5 5 0 12 0 19 3l7 5c5 3 12 8 19 10h4c5 0 12-2 17-4 6-2 13-4 18-4 7 0 14 2 20 3l12 2h4l12-2 20-3zm90-24v2c0 2 2 4 3 4h3c-2 0-4-1-5-3l-1-3zm-253 6h2c2 0 3-2 3-4v-2l-1 3c-1 2-2 3-4 3z" fill="#a07843"/><path d="M605 640s2-9-6-9-24 10-15 22 25 6 30 6 11 2 15 9c0 0-9-6-18-5-7 2-38 5-38-19s26-22 34-14c6 6 5 18 2 19s-12-3-10-7c1-4 5-5 6-2zM620 687s2-7-4-7c-7-1-11 10-3 15s15 2 15 2-15 1-15-8c0-7 2-5 2-5s1 8 5 3zM891 640s-2-9 6-9 24 10 15 22-25 6-30 6-11 2-15 9c0 0 9-6 18-5 7 2 38 5 37-19s-25-22-33-14c-6 6-5 18-2 19s11-3 10-7-5-5-6-2zM875 687s-1-7 5-7 11 10 3 15-15 2-15 2 15 1 15-8c0-7-2-5-2-5s-1 8-6 3zM636 674s13 13 38 13c32 0 50-13 74-13s51 13 76 13c24 0 38-16 38-16s-11 26-38 26-50-10-76-10-53 8-74 8c-35 0-38-21-38-21z" fill="#ffeba3"/><path d="M912 543l5-8h-2v-3h-1v-1l-1-3-1-4-1-3v-1l-1-5h-2v-7-1c-1-3-3-6-7-6-3 0-6 3-6 6a1264 1264 0 000 8h-3v6l-2 3-1 4a229 229 0 010 4h-1v3h-2v2h-1v5h-1v3-9h-3v-4h-1l-1-3v-4h-2v-3h-1v-1l-1-3-1-4-1-3v-1l-1-5h-2v-7-1c-1-3-3-6-7-6-3 0-6 3-6 6a1264 1264 0 00-1 8h-2v6l-2 3-1 4a229 229 0 010 4h-1v3h-2v2h-1v2-4h-2v-5h-1v-4h-1v-2h-2v-3h-1v-1-3l-1-4-2-3v-6h-3v-7-1c0-4-3-6-6-6-4 0-6 2-7 6a1264 1264 0 000 8h-2l-1 5v1l-1 3-1 4a230 230 0 01-1 4h-1v3h-2v2h-3l-3-4v-3l-3-2-2-1-1-1v-3l-1-2-2-1v-2h2v-16h-2l-1-5c0-4-2-7-4-9-5-6-13-10-18-11l-1-7-1-5h-5l-5-34v-5h-26l-1 5-4 34h-6l-1 5-1 7c-5 1-12 5-17 11-3 2-4 5-5 9l-1 5h-2v16h2v2l-1 1-2 2v3l-1 1-2 1-3 2v3l-2 4h-4v-2h-1v-2h-1v-1h-1v-1a202 202 0 01-1-7l-2-3v-6h-2v-1l-1-6v-1c0-4-3-6-6-6-4 0-6 2-6 6l-1 1v7h-2l-1 5v1l-1 3a12 12 0 00-1 4v3l-1 1v1h-1v2h-2v6h-1v4l-1 1h-2v1h-1v1-2h-1v-2h-1v-1h-1v-1-3l-1-4-1-3-1-1v-5h-2v-1l-1-6v-1c0-3-3-6-6-6s-6 3-6 6a1264 1264 0 00-1 8h-2v5l-1 1-1 3-1 4a214 214 0 010 4h-1v1h-1v2h-1v2h-1v5h-1v3l-1 1h-2v9-3h-1v-5h-1v-2h-2v-3h-1v-1l-1-3v-4l-2-3v-1l-1-5h-2v-7-1c0-3-3-6-6-6-4 0-6 3-7 6a1264 1264 0 000 8h-2l-1 5v1l-2 3a12 12 0 000 4 229 229 0 01-1 4h-1v3h-2v3l5 9 1 1c7 14 14 28 16 36l7 23 1 1c4 2 16 4 23 1 9-3 19-10 29-10s31 11 46 11c14 0 22-10 39-10h1c17 0 25 10 40 10s35-11 45-11 21 7 30 10c6 3 17 1 22 0v-2c4-9 7-17 8-23 2-9 10-25 18-41z" fill="#fff"/><path d="M926 477c-3-14-9-27-13-30-8-4-20-32-34-46a95 95 0 00-48-24c-14-2-29-30-42-37-12-7-38-5-38-5h-5s-26-2-39 5c-12 7-28 35-41 37-14 2-35 10-49 24s-26 42-33 46c-5 3-10 15-14 29-3 12-4 24-2 32s8 20 15 32l2 4c7 15 16 31 18 41a169 169 0 0010 29 264 264 0 0022 40 58 58 0 007 8c16 12 40 13 52 11 12-3 39-12 53-12h3c14 0 41 9 53 12 11 2 35 1 51-11l4-4 4-4a120 120 0 0012-20 261 261 0 0020-49c2-10 10-26 18-42l2-3c6-12 12-24 14-32s1-20-2-31z" fill="#fff"/><path d="M927 477c-4-15-10-28-14-30s-8-10-14-19c-6-10-12-20-19-28a95 95 0 00-49-24c-8-1-16-10-24-19-6-8-12-14-18-17-12-7-37-6-38-6h-5c-1 0-27-1-39 6-5 3-11 9-17 17-8 9-17 18-24 19-15 3-36 11-49 24-7 8-14 18-20 28-5 9-10 17-14 19s-10 15-13 29c-4 13-4 25-2 32 2 8 8 20 14 33l2 2v2c8 15 16 30 18 40a169 169 0 0010 29 263 263 0 0022 40 59 59 0 008 8c16 13 40 14 52 11l13-3c14-4 30-8 40-8h3c10 0 26 4 39 8l13 3c12 3 36 2 53-11l3-3 4-5a120 120 0 0013-20 260 260 0 0019-49c2-10 10-25 18-40l1-1v-2l1-2c7-12 13-24 15-32 2-7 1-19-2-31zm1 31a190 190 0 01-15 34l-1 1-1 1c-8 15-16 31-18 40a168 168 0 01-10 30 259 259 0 01-21 39 58 58 0 01-8 8 69 69 0 01-51 11l-14-3c-13-4-29-8-39-8h-3c-10 0-27 4-40 8l-13 3c-12 2-35 2-52-11l-3-3-4-4a117 117 0 01-13-21 262 262 0 01-19-49c-2-9-10-25-18-40v-1l-2-3c-6-12-12-24-14-32-2-7-2-19 2-31 3-15 9-27 13-29s9-10 14-20c6-9 13-20 20-27 13-13 33-21 48-24 8-1 16-10 24-20 7-7 12-14 18-16 12-7 37-6 38-6h5s26-1 38 6c5 2 11 9 17 16 8 10 17 19 24 20 15 3 36 11 49 24 7 7 13 18 19 27 6 10 11 18 15 20s9 14 13 29c3 12 4 24 2 31z"/><path d="M789 655c-15 0-23-10-40-10h-1c-17 0-25 10-39 10-15 0-36-11-46-11s-20 6-28 10l4 4c7-3 16-7 24-7 10 0 31 11 46 11 14 0 22-10 39-10h1c17 0 25 10 40 10s35-11 45-11c8 0 17 4 24 7l4-4c-8-4-18-10-28-10s-30 11-45 11z" fill="#fff"/><path d="M789 662c-15 0-23-10-40-10h-1c-17 0-25 10-39 10-15 0-36-11-46-11-8 0-17 4-24 7l3 4c16 12 40 13 52 10 12-2 39-11 53-11h3c14 0 41 9 53 11 11 3 35 2 51-10l4-4c-7-3-16-7-24-7-10 0-30 11-45 11z" fill="#3d88c8"/><path d="M834 629c-10 0-30 11-45 11s-23-10-40-10h-1c-17 0-25 10-39 10-15 0-36-11-46-11s-21 6-29 10l-8 1 9 14c8-4 18-10 28-10s31 11 46 11c14 0 22-10 39-10h1c17 0 25 10 40 10s35-11 45-11 20 6 28 9l9-13-7-1c-9-4-20-10-30-10z" fill="#3d88c8"/><path d="M705 486zM792 486z" fill="#00b1eb"/><path d="M864 615c-9-4-20-10-30-10s-30 11-45 11-23-10-40-10h-1c-17 0-25 10-39 10-15 0-36-11-46-11s-21 6-29 10c-6 2-16 0-21-1l9 19c4 1 8 1 12-1 8-3 19-10 29-10s31 11 46 11c14 0 22-10 39-10h1c17 0 25 10 40 10s35-11 45-11 21 7 30 10c3 2 7 2 10 1 4-6 7-12 9-19-5 2-14 3-19 1z" fill="#3d88c8"/><path d="M864 608c-9-3-20-10-30-10s-30 11-45 11-23-10-40-10h-1c-17 0-25 10-39 10-15 0-36-11-46-11s-21 7-29 10c-7 3-20 0-24-1l3 7c5 1 15 3 21 1 8-4 19-10 29-10s31 11 46 11c14 0 22-10 39-10h1c17 0 25 10 40 10s35-11 45-11 21 6 30 10c5 2 14 1 19-1l3-7c-5 2-16 4-22 1zM864 632c-9-3-20-10-30-10s-30 11-45 11-23-10-40-10h-1c-17 0-25 10-39 10-15 0-36-11-46-11s-21 7-29 10c-4 2-8 2-12 1l4 7 8-1c8-4 19-10 29-10s31 11 46 11c14 0 22-10 39-10h1c17 0 25 10 40 10s35-11 45-11 21 6 30 10l7 1 3-7c-3 1-7 1-10-1z" fill="#fff"/><path d="M862 614l-7-3c-7-3-14-6-21-6l-17 4c-9 3-19 7-28 7-8 0-14-3-20-6-6-2-12-4-20-4h-1c-8 0-13 2-19 4-6 3-12 6-20 6-9 0-20-4-29-7l-17-4a54 54 0 00-21 6l-6 3a40 40 0 01-23 0v1a262 262 0 0022 39 59 59 0 007 8c9 7 20 10 27 11h25l13-4c13-3 30-8 40-8h3c10 0 26 5 39 8l14 4a71 71 0 0052-11l3-4 4-4a120 120 0 0013-20 260 260 0 008-19c-9 2-16 1-21-1zm21 1a259 259 0 01-21 38 58 58 0 01-8 8 69 69 0 01-51 11l-14-3c-13-4-29-8-39-8h-3c-10 0-27 4-40 8l-13 3c-12 3-36 2-52-11l-3-3-4-4a117 117 0 01-13-21 262 262 0 01-9-18c7 1 16 3 23 0l7-3c6-3 14-7 20-7 4 0 10 2 17 5 9 3 20 6 29 6 8 0 14-3 20-5 6-3 11-5 19-5h1c8 0 14 2 19 5 6 2 13 5 21 5 9 0 19-3 28-6l17-5c7 0 14 4 21 7l6 3a38 38 0 0022 0z"/><path d="M792 487zM705 487zM886 609c-5 1-16 3-22 0-9-3-20-10-30-10s-30 11-45 11-23-10-40-10h-1c-17 0-25 10-39 10-15 0-36-11-46-11s-21 7-29 10c-7 3-19 1-23-1l2 6v1c7 1 16 2 23 0l6-3c7-4 15-7 21-7l17 4c9 3 20 7 29 7 8 0 14-3 20-5 6-3 11-5 19-5h1c8 0 14 2 19 5 6 2 13 5 21 5 9 0 19-4 28-7l17-4c7 0 14 3 21 7l7 3c6 2 14 1 21 0v-1l3-5z" fill="#fff"/><path d="M126 354l1 2c4 1 16 4 23 1 8-4 19-10 29-10s31 11 46 11c14 0 22-10 39-10h1c17 0 25 10 40 10s35-11 45-11 21 6 30 10c6 2 16 0 22-1v-2c4-8 6-17 8-22 2-10 10-26 18-41v-1h-1v-2l-1-1v-1h-1v-1l-1-2v-1-3a223 223 0 01-1-6l-1-1-1-3v-1h-2v-6l-1-6v-1l-1-1v2l-1 6v6h-3v4l-2 1a7 7 0 000 3 223 223 0 01-1 7v3h-1v1l-1 1v2h-1v1a18 18 0 000 2l-1 1v1s-2 0-2 2l1 2h-2v1h-8v-11h-3v-2l-1-2v-1l-1-1h-1l1-2v-1h-1v-2l-1-1v-1h-1v-1l-1-2v-1-3a223 223 0 01-1-6l-1-2-1-2v-1h-2v-6l-1-6v-1l-1-1v1l-1 1v12h-3v3l-2 2a7 7 0 000 3 223 223 0 01-1 7v3h-1v1l-1 1h-1v2 1a18 18 0 000 2l-1 1v1s-2 0-2 2l1 2h-9v-11h-2l1-2c0-2-2-2-2-2v-1l-1-1v-2-2h-1v-1l-1-1v-1h-1v-1-2-1l-1-3a223 223 0 010-6l-2-2v-3h-3v-7l-1-5v-2h-1v2l-1 5v7h-2v1l-1 2-1 2a7 7 0 00-1 3 223 223 0 010 7l-1 2v1h-1v1l-1 1v1h-1v2a18 18 0 001 2h-1l-1 1c-1 0 0 0 0 0v1s-2 0-2 2l1 2h-8v-10h-3l-1-4-2-2v-3l-3-1-3-3v-3l-3-3v-11h2v-4h-2l-1-10c-2-12-21-17-21-17l-2-10h-6l-5-39h-16l-5 39h-6l-2 10s-20 5-22 17l-1 10h-1v4h1v11l-2 3v3l-4 3-2 1v3s-3 1-3 2v4h-3v10h-9l1-2-1-2h-1v-1-1h-1l1-2v-1h-1v-2h-1l-1-1v-2h-1v-2-1-3a192 192 0 01-1-6l-2-2v-3h-2l-1-7v-7h-2v7l-1 7h-2v3l-2 2a7 7 0 00-1 3v7l-1 2v2l-1 1h-1v1h-1v2a18 18 0 001 2h-1v1h-1v1s-1 0-1 2v2h-2v11h-8v-2l-1-2v-1h-1v-1h-1l1-2v-1h-1v-2h-1l-1-1v-2l-1-2v-1-3a223 223 0 01-1-6l-2-2v-3h-2l-1-6v-7l-1-1-1 1v7l-1 6h-2v3l-2 2a7 7 0 000 3 223 223 0 01-1 7v2h-1v2l-1 1h-1v2h-1v1a18 18 0 001 2h-1v1h-1v1s-1 0-1 2v2h-1v11h-9v-1h-2l1-2c0-2-2-2-2-2v-1l-1-1v-2-1h-1v-2l-1-1v-1h-1v-1-2-1l-1-3a223 223 0 010-6l-2-2v-3h-3v-6l-1-6v-1-1l-1 1v1l-1 6v6h-2v1l-1 2-1 2a7 7 0 00-1 3 223 223 0 010 7l-1 2v1h-1v1l-1 1v2h-1v1a18 18 0 001 2h-1c7 15 15 29 17 39l7 22z" fill="url(#b)" transform="translate(484 253)"/><path d="M672 429c-3 0-4 3-9 3s-7-5-9-5-6 6-7 10-11 16-33 29a70 70 0 01-44 10c-3 12-4 24-2 32 2 7 7 18 13 29v-2h2v-3h1a1066 1066 0 011-4v-4l2-3v-1l1-5h2v-1-6-1c1-3 3-6 7-6 3 0 6 3 6 6v8h2l1 5v1l2 3v4l1 3v1h1v3h2v2h1v5h1v4-10h2l1-1v-3h1v-5h1v-2h1v-2h1v-1h1v-1-3l1-4a10 10 0 011-3l1-1v-5h2v-1l1-6v-1c0-3 3-6 6-6s6 3 6 6v1l1 6v1h2v5l1 1 1 3a12 12 0 011 4v4h1v1h1v2h1v2-1h1v-1h2l1-1v-4h1v-6h2v-2h1v-1h1v-1a191 191 0 001-7l1-3v-1l1-5h2v-1-6l1-1c0-4 2-6 6-6 3 0 6 2 6 6v1l1 6v1h2v6l2 3a12 12 0 011 4v4h1v1h1v2h1v2h4l2-4v-3l3-2 2-1 1-1v-3l2-2 1-1v-2h-2v-16h2l1-5c1-4 2-7 5-9l-16-10c-8-8-15-28-18-28z" fill="#f5c742"/><path d="M825 429c3 0 5 3 9 3s8-5 10-5 5 6 6 10c2 4 11 16 33 29 18 11 37 12 43 10-3-14-9-26-13-29-8-4-20-32-34-46a95 95 0 00-48-24c-14-2-29-30-42-37-12-7-38-6-38-6h-5s-26-1-39 6c-12 7-28 35-41 37-14 2-35 10-49 24s-26 42-33 46c-5 3-10 15-14 29 6 1 26 2 44-10 22-13 32-25 33-29s5-10 7-10 5 5 9 5 6-3 9-3 10 20 18 28l16 10c5-6 12-10 17-11l1-7 1-5h6l4-34 1-5h26v5l5 34h5l1 5 2 7c4 1 12 5 17 11 7-4 13-7 15-10 9-8 15-28 18-28z" fill="#00a870"/><path d="M926 477v-1c-6 2-25 1-43-10-22-13-31-25-33-29-1-4-4-10-6-10s-5 5-10 5-6-3-9-3-9 20-18 28c-2 3-8 6-15 10 2 2 4 5 4 9l1 5h2v16h-2v2l2 1 1 2v3l1 1 2 1 3 2v3l3 4h3v-2h2v-3h1v-1l1-3 1-4a10 10 0 011-3v-1l1-5h2v-1-6-1c1-3 3-6 7-6 3 0 6 3 6 6v8h3v6l2 3 1 4v4h1v3h2v2h1v4h1v5h2v4-2h1v-2h2v-3h1v-1-3l1-4a10 10 0 012-3v-6h2l1-1v-6-1c0-3 3-6 6-6 4 0 6 3 7 6v8h2l1 5v1l1 3 1 4 1 3v1h1v3h2v4l1 3h1v4h3v9-3h1v-5h1v-2h2v-3h1v-1-3l1-4 2-3v-6h3v-1-6-1c0-3 3-6 6-6 4 0 6 3 7 6v8h2l1 5v1l1 3 1 4 1 3v1h1v3h2c5-11 10-20 11-27 2-8 1-20-2-31z" fill="#f5c742"/><path d="M875 680zM621 680z" fill="#d2091e"/><path d="M674 690h-2v-1h7v1h-2v9l-1 4-3 1h-2l-1-2 1-1 1 1v2c2 0 2-1 2-2v-12zM687 702h2l-2-4h-4l-1 4h2-5 2l5-13 5 13h2-6zm-4-4h4l-2-6-2 6zM699 703l-5-13h-2v-1h14v1h-1l-2 4 2 5 4-9h-2v-1h4v1h-2l-4 13h-1l-2-6h-1l-2 6zm1-4l1-3-2-6h-3l4 9zm3-6l1-3h-3l2 3zM717 702h2l-1-4h-5l-1 4h2-4 1l5-13h1l5 13h1-6zm-4-4h5l-2-6h-1l-2 6zM730 697v-1h5v1h-5zM754 689v4h-1l-1-3h-3v12h2-7 2v-12h-3l-1 3h-1l1-4h12zM760 696v6h2l3-1 1-3h1v4h-12 2v-12h-2v-1h11v4l-1-3h-5v5h2l1-2v5l-1-2h-2zM780 698v-8h-2v-1h5v1h-2v13h-1l-9-13v12h2-4 2v-12h-2v-1h5l6 9zM787 697l1 4 2 1h2l1-3v-1h-2 6-1l-1 3-4 2-5-2-2-5 2-5c1-2 3-2 5-2l3 1 1-1v4c-1-3-2-4-4-4l-3 1-1 4v3zM805 702h2l-2-4h-4l-1 4h2-5 2l5-13 5 13h2-6zm-4-4h4l-2-6-2 6zM818 702h-6 2v-12h-2v-1h6v1h-2v5h6v-5h-2v-1h6v1h-2v12h2-6 2v-6h-6v6h2z" fill="#3c3c3b"/><path d="M753 390l-2-4-1-20 2-5h-7l1 5v20l-2 4h9z" fill="#fff"/><path d="M753 392h-9a2 2 0 01-2-3l2-3v-9-11l-1-4a2 2 0 012-3h7a2 2 0 011 3l-1 4a177 177 0 011 20l1 2a2 2 0 01-1 4zm-6-4h2v-1-10l-1-11 1-3h-1v3a205 205 0 00-1 22z" fill="#a07843"/><path d="M757 653s-4-2-4-5v-13c0-4 2-7 2-7h-14s2 3 2 7v13c0 3-3 5-3 5h17z" fill="#fff"/><path d="M757 655h-17a2 2 0 01-1-3l2-4v-13l-1-6a2 2 0 011-3h14a2 2 0 012 3l-2 6v13l3 4a2 2 0 01-1 3zm-13-4h8l-1-3v-13l1-5h-7v18l-1 3z" fill="#a07843"/><path d="M757 625s-4-4-4-8v-19c0-5 2-9 2-9h-14s2 4 2 9v19c0 4-3 8-3 8h17z" fill="#fff"/><path d="M757 627h-17a2 2 0 01-2-4c1-1 3-3 3-6v-19l-2-8a2 2 0 012-3h14a2 2 0 012 3l-2 8v19c0 3 3 6 3 6a2 2 0 01-1 4zm-13-4h9l-2-6v-19l1-7h-8l1 7v19l-1 6z" fill="#a07843"/><path d="M755 587s-3-4-3-7v-17c0-5 2-8 2-8h-11s2 3 2 8v17c0 3-3 7-3 7h13z" fill="#fff"/><path d="M755 589h-13a2 2 0 01-2-4c1 0 3-3 3-5v-17c0-4-2-7-2-7a2 2 0 012-3h11a2 2 0 011 3l-1 7v17l2 5a2 2 0 01-1 4zm-10-4h6l-1-5v-17l1-6h-5l1 6v17l-2 5z" fill="#a07843"/><path d="M755 552s-3-4-3-7v-16c0-4 2-7 2-7h-11s2 3 2 7v16c0 3-3 7-3 7h13z" fill="#fff"/><path d="M755 554h-13a2 2 0 01-2-4c1 0 3-3 3-5v-16l-2-6a2 2 0 012-3h11a2 2 0 011 3l-1 6v16l2 5a2 2 0 01-1 4zm-10-4h6l-1-5v-16l1-5h-5l1 5v16l-2 5z" fill="#a07843"/><path d="M754 518s-2-3-2-7v-17l1-8h-10l2 8v17c0 4-3 7-3 7h12z" fill="#fff"/><path d="M754 520h-12a2 2 0 01-1-3l2-6v-17c0-4-2-7-2-7a2 2 0 012-3h10a2 2 0 012 3l-1 7v17l2 6a2 2 0 01-2 3zm-8-4h5l-1-5v-17l1-6h-5l1 6v17l-1 5z" fill="#a07843"/><path d="M754 483s-2-4-2-8v-17l1-9h-10l2 9v17c0 4-3 8-3 8h12z" fill="#fff"/><path d="M754 485h-12a2 2 0 01-1-4l2-6v-17c0-5-2-8-2-8a2 2 0 012-3h10a2 2 0 012 3l-1 8v17l2 6a2 2 0 01-2 4zm-8-4h5l-1-6v-17-7h-4l1 7v17l-1 6z" fill="#a07843"/><path d="M753 447s-2-3-2-7v-16l1-8h-8l1 8v16c0 4-2 7-2 7h10z" fill="#fff"/><path d="M753 449h-10a2 2 0 01-1-3l1-6v-16l-1-7a2 2 0 012-3h8a2 2 0 012 3l-1 7v16l2 6a2 2 0 01-2 3zm-6-4h3l-1-5v-16l1-6h-3v27z" fill="#a07843"/><path d="M753 413l-2-5v-11l1-5h-8l1 5v11c0 3-2 5-2 5h10z" fill="#fff"/><path d="M753 415h-10a2 2 0 01-1-3l1-4v-11l-1-4a2 2 0 012-3h8a2 2 0 012 3l-1 4v11l2 4a2 2 0 01-2 3zm-6-4h2v-14-3h-2v17z" fill="#a07843"/><path d="M269 137l-2-4-1-19 1-5h-6l1 5v19l-2 4h9z" fill="url(#c)" transform="translate(484 253)"/><path d="M273 400s-4-2-4-5v-13c0-4 2-7 2-7h-14s2 3 2 7v13c0 3-3 5-3 5h17z" fill="url(#d)" transform="translate(484 253)"/><path d="M273 372s-4-4-4-8v-18c0-6 2-9 2-9h-14s2 3 2 9v18c0 4-3 8-3 8h17z" fill="url(#e)" transform="translate(484 253)"/><path d="M271 334s-3-3-3-7v-17c0-5 2-8 2-8h-11s2 3 2 8v17c0 4-3 7-3 7h13z" fill="url(#f)" transform="translate(484 253)"/><path d="M271 299s-3-3-3-7v-15c0-5 2-8 2-8h-11s2 3 2 8v15c0 4-3 7-3 7h13z" fill="url(#g)" transform="translate(484 253)"/><path d="M270 265s-2-3-2-7v-16l1-8h-10l2 8v16c0 4-3 7-3 7h12z" fill="url(#h)" transform="translate(484 253)"/><path d="M270 230s-2-4-2-7v-18l1-9h-10l2 9v18c0 3-3 7-3 7h12z" fill="url(#i)" transform="translate(484 253)"/><path d="M269 194s-2-3-2-7v-16l1-8h-8l1 8v16c0 4-2 7-2 7h10z" fill="url(#j)" transform="translate(484 253)"/><path d="M269 160l-2-4v-12l1-5h-8l1 5v12l-2 4h10z" fill="url(#k)" transform="translate(484 253)"/><path fill="#ffeba3" d="M703 322l27 19"/><path d="M929 746c-6-7-10-27-9-44-4 11-17 21-30 30-11-5-24-10-36-10-25 0-23 12-50 12s-24-12-55-12h-1c-30 0-29 12-55 12s-25-12-50-12c-12 0-25 5-35 10-13-9-26-19-31-30 1 17-2 37-9 44 9 12 13 20 21 25v14s11 9 23 14 20 6 20 6v-39l11-1c25 0 23 12 50 12s25-12 55-12h1c31 0 29 12 55 12s25-12 50-12l12 1v39s8-1 19-6c12-5 23-14 23-14v-14c8-5 12-13 21-25z" fill="#fff"/><path d="M866 806a1 1 0 01-2-1v-38l-10-1c-12 0-17 3-23 6-7 3-13 6-27 6-13 0-19-3-26-6-6-3-13-6-29-6h-1c-15 0-22 3-29 6s-13 6-26 6c-14 0-20-3-26-6s-12-6-24-6l-10 1v38a1 1 0 01-2 1 83 83 0 01-43-21v-13c-5-4-9-9-14-16l-7-9v-1c6-7 10-26 9-44a1 1 0 013-1c4 11 18 22 29 29 13-6 25-9 35-9 13 0 19 3 25 6 5 3 12 5 25 5 12 0 18-2 25-5s14-6 30-6h1c16 0 23 3 30 6s13 5 25 5c14 0 20-2 26-5 5-3 12-6 24-6 10 0 22 3 36 9 10-7 24-18 29-29a1 1 0 012 1c-1 18 3 37 9 44v1l-7 9c-5 7-8 12-14 16v14c-1 0-11 9-23 14a83 83 0 01-20 6zm-12-42l12 1 1 1v37a89 89 0 0040-19v-13-1c6-3 9-8 14-15l6-9c-5-7-8-23-9-39-6 10-17 19-28 26h-1c-13-6-25-9-35-9-12 0-17 2-23 5-7 3-13 6-27 6-13 0-19-3-26-6-6-2-13-5-29-5h-1c-15 0-22 3-29 5-7 3-13 6-26 6-14 0-20-3-26-6s-12-5-24-5c-10 0-22 3-35 9h-1c-10-7-22-16-28-26 0 16-4 32-9 39l6 9c5 7 9 12 14 15l1 1v13a93 93 0 0039 19v-37l1-1 12-1c13 0 19 3 25 6 5 2 12 5 25 5 12 0 18-2 25-5s14-6 30-6h1c16 0 23 3 30 6s13 5 25 5c14 0 20-3 26-5 5-3 12-6 24-6z" fill="#7c909b"/><path d="M382 509s-3-13 13-23c15-10 35-23 41-37-1 17 3 37 9 45-11 14-15 23-28 28s-31 17-35 30v-43z" fill="url(#l)" transform="translate(484 253)"/><path d="M866 806h-1v-44c0-1-2-14 13-24 15-9 36-23 41-37h1l1 1c-1 18 3 37 8 44v1l-6 9c-7 10-11 16-22 20-13 5-30 17-35 29v1zm53-101c-7 14-27 26-40 34-15 10-13 23-13 23v39c6-11 22-22 35-27 10-4 14-10 20-19l7-9c-6-7-9-24-9-41z" fill="#7c909b"/><path d="M424 489s-11 9-23 14-19 6-19 6v43s7-1 19-6 23-14 23-14v-43z" fill="url(#m)" transform="translate(484 253)"/><path d="M866 806a1 1 0 01-1-1v-43l1-1s7-1 19-6c12-4 22-14 22-14a1 1 0 012 1v43h-1s-11 10-23 15a82 82 0 01-19 6zm0-43v41a88 88 0 0041-20v-41a94 94 0 01-41 20z" fill="#7c909b"/><path d="M148 509s2-13-14-23c-15-10-35-23-41-37 1 17-3 37-9 45 12 14 15 23 28 28s31 17 36 30v-43z" fill="url(#n)" transform="translate(484 253)"/><path d="M632 806l-1-1c-5-12-22-24-35-29-10-4-15-10-21-20l-7-9v-1c6-7 9-26 9-44a1 1 0 011-1c5 14 27 28 41 37 15 10 13 23 13 24v43a1 1 0 010 1zm-63-60l7 9c6 9 11 15 21 19 12 5 28 16 34 27v-39c0-1 2-13-13-23-13-8-33-20-40-34 0 17-3 34-9 41z" fill="#7c909b"/><path d="M105 489s11 9 23 14 20 6 20 6v43s-8-1-20-6-23-14-23-14v-43z" fill="url(#o)" transform="translate(484 253)"/><path d="M632 806h-1a82 82 0 01-42-21v-43a1 1 0 011-1s11 10 22 14c12 5 20 6 20 6v44a1 1 0 010 1zm-42-22a88 88 0 0041 20v-41a87 87 0 01-41-20v41z" fill="#7c909b"/><path d="M424 489s-29-19-54-19-23 11-50 11-24-11-55-11h-1c-30 0-29 11-55 11s-25-11-50-11-54 19-54 19v43s29-20 54-20 23 12 50 12 25-12 55-12h1c31 0 29 12 55 12s25-12 50-12 54 20 54 20v-43z" fill="url(#p)" transform="translate(484 253)"/><path d="M589 785v-43-1s29-19 54-19c12 0 19 2 24 5 6 3 12 6 26 6 12 0 19-3 25-5 7-3 14-6 30-6h1c16 0 23 3 30 6 7 2 13 5 25 5 14 0 20-3 26-6s12-5 24-5a120 120 0 0155 20v43a1 1 0 01-2 0s-29-19-53-19c-12 0-18 3-24 5-6 3-12 6-26 6-13 0-19-2-25-5-7-3-14-6-30-6h-1c-16 0-23 3-29 6-7 3-13 5-26 5-14 0-20-3-26-6-6-2-12-5-24-5a119 119 0 00-54 19zm265-21c22 0 47 16 53 19v-41c-3-2-30-19-53-19-12 0-18 3-24 6-6 2-12 5-26 5-13 0-19-2-25-5-7-3-14-6-30-6h-1c-16 0-23 3-29 6-7 3-13 5-26 5-14 0-20-3-26-5-6-3-12-6-24-6-23 0-50 17-53 19v41c6-3 31-19 53-19 12 0 19 3 24 6 6 3 12 6 26 6 12 0 19-3 25-5 7-3 14-7 30-7h1c16 0 23 4 30 7 7 2 13 5 25 5 14 0 20-3 26-6s12-6 24-6z" fill="#7c909b"/><path d="M608 753l-1 2a8 8 0 01-3 3l-1 1a1122 1122 0 00-2 6v-17l3-2 2-1 1 1 1 1 1 2v1l-1 3zm-2-2v-2h-2-1v6h1l2-2v-2zM617 758l-3-5-1 1v5l-3 1v-17l5-2h3l1 4v4l-2 2 3 6-3 1zm0-12l-1-2h-1l-2 1v5h2l1-2 1-2zM628 754v-3l-4 1-1 4-3 1 4-19 3-1 4 17h-3zm-2-12l-2 7 3-1-1-6zM639 750v2l-2 1h-3l-2-1 1-3 1 1 2 1 1-1v-1-1l-1-1-1-1-1-1-1-1-1-1v-2-2l1-2a3 3 0 012-1 5 5 0 014 1l-1 3-1-1h-2-1a2 2 0 000 1v2h1l1 1 2 1 1 1v1l1 2-1 2zM642 753l-1-17h8v3h-6l1 4h4v3h-4v4h5v3h-7zM656 740v14l-3-1v-13l-3-1v-2l9 1v3l-3-1zM666 751v6l-3-1v-6l-3-11h2l3 8 2-6 3 1-4 9zM676 761v-3l-4-2-1 3-3-1 5-15 2 1 4 18-3-1zm-2-13l-2 5 3 1-1-6zM694 761l-1 2-2 1h-2-2l-1-2-1-2v-3-10h2v10l1 3 1 1 2-1 1-2-1-11h3v14zM696 764v-17l3-1v14l4-1v3l-7 2zM713 759l-1-2-4 1-1 3-3 1 4-17 3-1 4 15h-2zm-4-10l-1 6 3-1-2-5zM723 756v-6l-4 1v7h-2l-1-16h3v6l4-2v-6l2-1v16l-2 1zM739 749l-1 2-1 1h-2l-2 1-2-1 1-3 2 1h1l1-1 1-1v-1h-1v-1h-1l-2-1-1-1-1-1v-2-2l1-1a5 5 0 013-2l2-1 2 1-1 3-2-1h-1l-1 1v2l1 1h1l1 1 1 1 1 1v4zM748 751l-1-4-4 1-1 3h-2l4-17h3l4 17h-3zm-3-13l-1 6h3l-2-6zM759 752l-3-7-1 2a577 577 0 00-3 4v-17l3 1v7l4-7 2 1-4 6 5 11-3-1zM767 741v13h-2v-14l-3-1v-3l8 3v3l-3-1zM772 756v-16h2v16h-2zM790 759l-1 1h-2-2l-4-1v-16a65 65 0 006 2l1 1 1 2 1 2-1 1v1h-1v1l1 1v1a5 5 0 011 2v2zm-3-10v-1l-2-1h-1l-1 3 2 1h2v-2zm0 7v-1l-1-1-3-1v4a104 104 0 004 0v-1zM798 763v-7h-4a4033 4033 0 00-2 6v-16h2v7h4v-6h3v16h-3zM811 763l-1-3h-4l-1 3h-3l4-17h3l4 17h-2zm-4-12l-1 6 3-1-2-5zM821 761l-3-6-1 2a1803 1803 0 00-2 5l-1-16h3v7l4-8 3-1-4 8 4 8-3 1zM830 744l-1 13-2 1v-13l-3 2v-3l8-4v3l-2 1zM834 755v-16l3-1v16l-3 1zM851 744v2a4 4 0 01-4 1h-1v5h-2v-16l3-1 2 1 2 1 1 1v3l-1 3zm-2-3v-2l-2-1h-1v6h1l2-1v-2zM860 753l-3-6h-1v6h-3v-18l5 1 3 1 1 5-1 3-1 2 2 6h-2zm0-12l-1-2-1-1h-2v6h2l1-1 1-2zM871 755v-4h-5v3h-3l4-17h3l4 19-3-1zm-3-13l-1 5 3 1-2-6zM882 756l-1 1-1 1-2-1a7 7 0 01-3-2l1-3 1 2h2l1-2-1-11 2 1 1 12v2zM891 764l-1-4-3-2-1 3-2-2 3-15 2 2 4 19-2-1zm-3-15l-1 6 3 1-2-7z" fill="#3c3c3b"/><path d="M927 456l-10-2c5 10 13 29 12 46-2 17-10 32-19 47-7 13-15 25-19 40-5 20-25 84-67 84-18 0-33-4-46-7-9-3-17-5-24-5h-11c-8 0-16 2-25 5-12 3-28 7-46 7-41 0-62-64-67-84-4-15-11-27-18-40-10-15-18-30-19-47-2-17 6-36 12-47l-11 3h-2c-5 12-11 29-9 45 1 19 11 35 20 51 7 12 14 24 17 37 8 28 30 92 77 92 20 0 36-4 49-8 8-2 16-4 22-4h11c6 0 13 2 22 4 13 4 29 8 48 8 47 0 70-64 77-92 3-13 11-25 17-37 10-16 19-32 21-51 1-16-5-33-10-45h-2z" fill="#fff"/><path d="M824 682c-20 0-36-4-49-8-8-2-15-4-21-4h-11c-6 0-14 2-22 4-13 4-29 8-49 8-48 0-70-65-78-92-3-13-10-25-17-37-9-16-19-33-20-52a98 98 0 0110-46h3l9-2a1 1 0 012 1c-5 10-14 29-12 46 1 17 9 31 18 47 8 12 15 25 19 40 5 19 25 83 66 83 18 0 34-4 46-7 9-3 17-5 25-5h11c7 0 15 2 24 5 13 3 28 7 46 7 41 0 61-64 66-83 4-15 12-28 19-40 9-16 17-30 19-47 1-17-7-36-12-46a1 1 0 011-1l9 2h3l1 1c5 11 11 29 10 45-2 19-11 36-21 52-7 12-14 24-17 37-7 27-30 92-78 92zm-81-14h11c6 0 13 2 22 4 13 4 29 8 48 8 47 0 69-64 76-91 4-13 11-25 18-37 9-16 18-32 20-51 1-16-5-33-10-44h-2l-7-2c5 11 12 29 11 45-2 17-10 32-19 48-8 12-15 25-19 39-5 20-26 85-68 85-18 0-34-4-46-7-9-3-17-5-24-5h-11c-8 0-15 2-25 5-12 3-27 7-46 7-42 0-63-65-68-85-4-14-11-27-18-39-9-16-18-31-19-48-2-16 6-34 11-45l-8 2h-1-1c-5 11-11 28-9 44 1 19 11 35 20 51 7 12 14 24 17 37 8 27 29 91 76 91 20 0 36-4 48-8 9-2 16-4 23-4z" fill="#7c909b"/><path d="M557 428c-2-8 7-9 7-9s-8-9-15-2c-10 10 5 25 14 25 19 0 24-15 26-26 1-12 15-13 26-39 10-24 28-15 44-22 9-4 17-27 29-29s23-5 32-12 25-7 25-7h7s17 0 25 7 21 10 32 12 20 25 29 29c15 7 33 0 43 24 11 25 24 27 25 39s12 25 29 25c8 1 23-14 14-26-7-9-17 2-17 2s10 1 8 9c-2 5-6 5-11 3h1s-7-2-10-6c-4-4-2-7-2-14-1-8-9-15-9-15s14-1 15-10c2-9-7-20-15-15-4 3-4 7-2 8 2 2 6 2 6 2s-2 6-12 2c-5-2-8-12-10-19s-8-14-15-14l-8-3s8-4 5-14c-4-10-18-8-19 0-2 9 8 5 8 5s-1 5-10 5c-8-1-8-20-12-27-5-6-18-8-18-8s3 0 6-5c2-4 1-14-9-15-11-2-18 9-12 13 5 4 7-4 7-4v5c0 2-4 5-12 3-6-2-12-8-23-19s-31-15-31-15-20 4-31 15-17 17-23 19c-8 2-12-1-12-3v-5s2 8 7 4c6-4-1-15-12-13-10 1-11 11-9 15 3 5 6 5 6 5s-13 2-18 8c-4 7-4 26-12 27-9 0-10-5-10-5s10 4 8-5c-1-8-15-10-19 0-3 10 5 14 5 14s-4 2-8 3c-7 0-13 7-15 14s-5 17-10 19c-10 4-12-2-12-2s4 0 6-2c2-1 2-5-2-8-8-5-17 6-15 15 1 9 15 10 15 10s-8 7-9 15c0 7 2 10-2 14-2 3-5 4-7 5-5 3-11 3-12-2z" fill="#d2091e"/><path d="M935 445c-17-1-28-14-30-27-1-5-3-8-8-12-4-5-11-12-17-27-7-15-17-17-28-19-5-1-10-1-15-4-4-2-8-7-13-13-5-7-10-15-15-16-11-1-24-4-33-12-8-6-24-7-24-7h-7s-17 1-24 7c-9 8-22 11-33 12-6 1-11 9-16 16-4 6-8 11-13 13-5 3-10 3-16 4-11 1-20 3-27 18-6 14-13 21-18 26-4 4-7 7-8 12-2 12-6 27-27 27-6 0-15-6-18-13-2-6-1-11 3-14 2-2 5-3 7-3 6 0 10 5 10 5a2 2 0 01-1 2s-4 1-5 3l-1 4c1 2 2 3 5 3a12 12 0 005-1c2-1 5-2 7-5 2-2 2-4 2-7v-6c0-6 4-11 7-14-5-1-13-4-14-11-1-4 1-9 4-13 3-3 6-5 9-5l4 2c3 1 4 3 5 6l-2 5-4 1 3 1 5-1c4-2 7-8 10-18 1-8 8-16 16-16l5-1c-2-3-6-7-3-14 2-6 7-8 11-8 6 0 10 3 11 8l-1 6-5 1 5 1c5 0 6-7 8-14 1-4 2-9 4-11 4-5 10-7 14-8l-2-4c-1-3-2-7 0-11 2-3 4-6 10-7h3c6 0 11 4 12 8 1 3 1 6-2 8l-4 2 8-1c5-1 11-6 20-16l2-2a66 66 0 0132-15c1 0 21 4 32 15l2 2c9 10 15 15 20 16l8 1-4-2c-3-2-3-5-2-8 1-4 6-8 12-8h3c6 1 8 4 10 7 2 4 1 8 0 11l-2 4c4 1 10 3 14 8 2 2 3 7 4 11 2 7 3 14 7 14l6-1-5-1-1-6c1-5 5-8 11-8 4 0 9 2 11 8 3 7-1 11-3 14l5 1c8 0 15 8 16 16 3 10 6 16 10 18l5 1 3-1-4-1-2-5c1-3 2-5 5-6l4-2c3 0 6 2 9 5 3 4 5 9 4 13-1 7-9 10-14 11 3 3 7 8 7 14v6c0 3 0 5 2 7a21 21 0 009 6h4c2 0 4-1 4-3v-4l-6-3a2 2 0 01-1-2c1 0 5-6 11-6 3 0 6 2 8 5 4 4 4 10 2 16-4 6-11 12-17 12zM752 305c1 0 17 1 26 8 8 7 21 10 31 11 7 2 13 9 18 17l11 13 15 3c11 2 22 4 29 21 6 14 13 20 18 26 4 4 7 8 8 13 2 12 12 24 27 25 4 0 11-4 14-11 1-3 3-8-1-13l-6-3-6 3 4 3c2 2 2 4 1 7s-3 5-7 5a14 14 0 01-5 0c0-1-7-3-10-7-3-3-3-6-3-9v-6c0-7-8-14-8-14a1 1 0 011-3s13-1 14-8c0-4-1-8-4-11-1-2-4-4-6-4l-3 1-3 4 1 2 6 2a2 2 0 011 2s-2 4-8 4l-6-2c-6-2-10-13-11-19-2-7-8-14-14-14-5 0-9-3-9-3a2 2 0 011-3s6-3 3-11c-1-5-5-6-8-6s-7 2-8 6v3h7a2 2 0 012 1c0 1-2 7-12 6-6 0-8-8-10-16l-4-11c-4-6-16-7-16-7a1 1 0 010-3s3 0 4-4c1-2 2-6 0-9-1-2-4-4-8-5h-2c-5 0-8 3-9 6-1 1-1 3 1 5l2 1 2-4a2 2 0 013-1l1 6c0 1-2 5-9 5l-5-1c-7-1-12-7-22-17l-2-2a63 63 0 00-30-14c-2 0-20 4-30 14l-2 2c-10 10-15 16-22 17l-5 1c-7 0-9-4-9-5l1-6a2 2 0 013 1l2 4 2-1c2-2 2-4 1-5-1-3-4-6-9-6h-2c-4 1-7 3-8 5-2 3-1 7 0 9 1 4 4 4 4 4l1 1-1 2s-12 1-16 7l-4 11c-2 8-4 16-10 16h-1c-9 0-11-5-11-6a1 1 0 012-1h7v-3c-1-4-5-6-8-6s-7 1-8 6c-3 8 3 11 3 11a2 2 0 011 3s-4 3-9 3c-6 0-12 7-14 14-1 6-5 17-11 19l-6 2c-6 0-8-4-8-4a1 1 0 011-2l6-2 1-2-3-4-3-1c-2 0-5 2-6 4-3 3-4 7-4 11 1 7 14 8 14 8a1 1 0 011 3s-8 7-8 14v6c0 3 0 6-3 9-2 3-5 5-8 6l-6 1c-4 0-7-2-8-5l1-7 5-3-6-2-5 2c-3 3-4 6-2 10 3 7 10 12 15 12 18 0 22-13 24-24 1-6 5-10 9-14 5-5 12-12 18-26 7-16 18-18 29-19l15-3c4-2 8-8 12-13 5-8 10-15 17-17 11-1 24-4 32-11s25-8 26-8h7z" fill="#780e06"/><path d="M941 400c-4 0-9 0-13 4-15 14-3 24 1 27 5 2 9 2 11-3 2-8-8-9-8-9s10-11 17-2c9 12-6 27-14 26-17 0-27-14-29-25s-14-14-25-39c-10-24-28-17-43-24-9-4-18-27-29-29s-24-5-32-12-25-7-25-7h-7s-17 0-25 7-21 10-32 12-20 25-29 29c-16 7-34-2-44 22-11 26-25 27-26 39s-7 26-26 26c-9 0-24-15-14-25 7-7 15 2 15 2s-9 1-7 9c1 5 7 5 12 2l-3 1h1c4-3 16-13 1-27-4-4-9-4-13-4-13-1-24 14-21 30 4 14 22 28 35 26 12-2 13-2 20-12 0 0 10-19 21-35s20-19 43-27c14-5 18-4 29-15 11-12 21-27 32-28s24 2 27 2h14c3 0 16-3 27-2s21 16 32 28c11 11 15 10 29 15 23 8 31 11 43 27 11 16 21 35 21 35 7 10 8 10 20 12 13 2 31-12 35-26 3-16-8-31-21-30z" fill="#fff"/><path d="M930 457h-4c-12-2-14-2-21-12 0 0-9-19-21-35-11-16-19-19-41-27l-9-3c-8-2-13-3-21-12l-7-8c-8-9-16-19-24-20h-5a121 121 0 00-22 2h-20a121 121 0 00-21-2c-8 1-16 11-24 20l-7 8c-8 9-13 10-21 12l-9 3c-22 8-30 11-41 27-12 16-21 35-21 35-7 10-9 10-21 12h-4c-13 0-30-13-33-27-2-8 0-17 5-23 4-6 11-9 17-9 5 0 9 1 14 5 6 5 8 10 8 15 0 7-5 11-8 13v1l-6 1c-4 0-7-2-8-5l1-7 5-3-6-2-5 2c-3 3-4 6-2 10 3 7 10 12 15 12 18 0 22-13 24-24 1-6 5-10 9-14 5-5 12-12 18-26 7-16 18-18 29-19l15-3c4-2 8-8 12-13 5-8 10-15 17-17 11-1 24-4 32-11s25-8 26-8h7c1 0 17 1 26 8 8 7 21 10 31 11 7 2 13 9 18 17l11 13 15 3c11 2 22 4 29 21 6 14 13 20 18 26 4 4 7 8 8 13 2 12 12 24 27 25 4 0 11-4 14-11 1-3 3-8-1-13l-6-3-6 3 4 3c2 2 2 4 1 7s-3 5-7 5l-5-1h-1c-3-2-8-7-9-14 0-5 2-10 8-15 5-4 9-5 14-5 6 0 13 3 17 9 5 6 7 15 5 23-3 14-20 27-33 27zm-22-14c6 9 7 9 18 11h4c12 0 27-12 30-25 2-7 0-15-4-20s-9-8-15-8c-4 0-8 1-12 4-5 5-7 9-7 13 0 6 5 10 8 11v1h4c2 0 4-1 4-3v-4l-6-3h-3l2-2c1 0 5-6 11-6 3 0 6 2 8 5 4 4 4 10 2 16-4 6-11 12-17 12-17-1-28-14-30-27-1-5-3-8-8-12-4-5-11-12-17-27-7-15-17-17-28-19-5-1-10-1-15-4-4-2-8-7-13-13-5-7-10-15-15-16-11-1-24-4-33-12-8-6-24-7-24-7h-7s-17 1-24 7c-9 8-22 11-33 12-6 1-11 9-16 16-4 6-8 11-13 13-5 3-10 3-16 4-11 1-20 3-27 18-6 14-13 21-18 26-4 4-7 7-8 12-2 12-6 27-27 27-6 0-15-6-18-13-2-6-1-11 3-14 2-2 5-3 7-3 6 0 10 5 10 5l2 2h-3s-4 1-5 3l-1 4c1 2 2 3 5 3h3v-1c3-1 8-5 8-11 0-4-2-9-7-13-4-3-8-4-12-4-5 0-11 3-15 8s-6 13-4 20c3 13 18 25 30 25h4c11-2 12-2 18-11 1-1 10-19 21-35 12-16 20-20 43-28l9-3c8-2 12-3 20-11l7-8c9-10 17-20 26-21h5l17 2h24l17-2h5c9 1 17 11 26 21l7 8c8 8 12 9 20 11l8 3c24 8 32 12 44 28 11 16 20 34 21 35z" fill="#7c909b"/><path d="M73 175c-2-8 7-9 7-9s-8-8-15-2c-10 10 5 25 14 25 19 0 24-14 26-26 1-12 15-13 26-39 10-23 28-15 44-22 9-4 17-27 28-29s24-4 33-11 25-8 25-8h7s17 0 25 8 21 9 32 11 19 25 29 29c15 7 33 0 43 24 11 26 24 27 25 39s12 25 29 26c8 0 23-15 14-26-7-10-17 1-17 1s10 1 8 9c-2 5-7 5-11 3s-6-2-9-5c-4-4-2-8-2-15-1-7-9-15-9-15s14-1 15-10c2-8-7-19-15-15-4 3-4 7-2 9l6 1s-2 6-12 2c-5-2-8-11-10-19-2-7-9-14-15-14-4 0-8-3-8-3s8-4 5-14c-4-9-18-8-19 1-2 8 8 4 8 4s-1 6-10 5c-8 0-8-20-12-26-5-7-18-8-18-8s3-1 6-5c2-4 1-14-10-16-10-1-17 9-11 13 5 5 7-4 7-4v5c0 3-4 5-12 3-6-1-12-8-23-19s-31-14-31-14-20 3-31 14-17 18-23 19c-8 2-12 0-12-3v-5s2 9 7 4c6-4-1-14-12-13-10 2-11 12-9 16l5 5s-12 1-17 8c-4 6-4 26-12 26-9 1-10-5-10-5s10 4 8-4c-1-9-15-10-19-1-3 10 5 14 5 14s-4 3-8 3c-7 0-13 7-15 14-2 8-5 17-10 19-10 4-13-2-13-2s5 0 7-1c2-2 2-6-2-9-8-4-17 7-15 15 1 9 15 10 15 10s-8 8-9 15c0 7 2 11-2 15l-7 5c-5 2-11 3-12-3z" fill="url(#q)" transform="translate(484 253)"/><path d="M457 147c-4 0-9 0-13 4-15 14-3 24 1 27 4 2 9 2 11-3 2-8-8-9-8-9s10-11 17-1c9 11-6 26-14 26-17-1-27-15-29-26s-14-13-25-39c-10-24-28-17-43-24-10-4-18-27-29-29s-24-4-32-11-25-8-25-8h-7s-17 0-25 8-21 9-33 11-19 25-28 29c-16 7-34-1-44 22-11 26-25 27-26 39s-7 26-26 26c-9 0-24-15-14-25 7-6 15 2 15 2s-9 1-7 9c1 6 7 5 12 3h-3 1c4-3 16-13 1-27-4-4-9-4-13-4-13 0-24 14-21 30 4 14 22 28 35 26 12-2 13-2 20-12l21-35c11-17 20-19 43-27 14-5 18-4 29-15 11-12 21-27 32-28s24 2 27 2h14c3 0 16-3 27-2s21 16 32 28c11 11 15 10 29 15 23 8 31 11 43 27 11 17 20 35 20 35 8 10 9 10 21 12 13 2 31-12 34-26 4-16-7-30-20-30z" fill="url(#r)" transform="translate(484 253)"/><path fill="#fff" d="M766 341l28-20h-34l-12-32-11 32h-34v1l27 19-10 34 1-1 27-19v-1l28 19-10-32z"/><path d="M720 377a2 2 0 01-2-3l10-32-26-19a2 2 0 011-4h32l11-31 2-1 2 1 11 31h33a2 2 0 011 4l-27 19 10 31a2 2 0 01-2 2h-1l-27-18-27 19-1 1zm-11-54l22 17 1 2-8 28 23-17h2l24 15-9-26 1-3 22-16h-27l-2-1-10-27-9 27-2 1h-28z" fill="#a07843"/><path fill="#f5c742" d="M748 336l12-15-12-32z"/><path fill="#ffeba3" d="M730 341l18-5-45-14 27 19zM748 336v-47l-11 32 11 15z"/><path fill="#f5c742" d="M703 322l45 14-11-15h-34z"/><path fill="#ffeba3" d="M794 321h-34l-12 15 46-15z"/><path fill="#f5c742" d="M766 341l28-20-46 15z"/><path fill="#ffeba3" d="M748 336l28 37-10-32-18-5z"/><path fill="#f5c742" d="M776 373l-28-37v19-1zM730 341l-10 34 1-1 27-38z"/><path fill="#ffeba3" d="M721 374l27-19v-19z"/></svg>