<svg xmlns="http://www.w3.org/2000/svg" version="1.0" width="594" height="459"><path d="M0 0h594v459H0V0z" fill="#0c2d83"/><path fill="#129612" d="M281.7 64h35.6v24.8h-35.6z"/><path d="M264.8 82c0 .5 1.7 1.2 4.8 1.2 2.6 0 6.1.3 7.8.5 2.5.4 3.1-.3 2.4-1-1.2-1.3-15-2-15-.7zM327 82l-3.1 1.4 7.1.4c3.8 0 7.5-.6 7.5-1s-1.3-1-2.9-1c-1.4 0-3.3-.3-4-.7-.8-.4-2.7 0-4.6.9z"/><path d="M299 53.2a33 33 0 01-3.1 4c-.8.8-1.4 2.2-1.5 3 0 1.2-.2 1-.8-.7-1.4-3.7-2.4-4.3-5-3-1 .6-3.3 1.3-4.8 1.6-1.4.2-3 .9-3.5 1.4-.3.6-2.6 1.3-4.7 1.4-4.5.4-6.7 1.6-12.5 6.8-1.3 1.2-2.8 2.1-3.4 2.1-1.4 0-1.3.5.7 2.7 1 1.2 2 1.8 3 1.6.7-.3 1.5-.1 1.8.3.2.4 1.3.8 2.5.9 1.7 0 1.5.2-1 .9-2 .6-4.4 2.1-6.3 4.3-3.6 3.7-4 4.6-1.9 4.6.8 0 1.8.4 2.3 1 .5.4 2.7.9 4.9 1 3.5 0 4 .3 4.3 1.7.3 2.1 1.3 2.1 6.3-.2 5.3-2.3 8.7-5 11.5-8.7 2.2-3.1 2.3-4.7.2-4.7-1.4 0-2.3-3.7-1.3-5.3 1.2-2 4.7-2 6.8 0 1.6 1.6 2 1.6 5 .7 2.7-1 3.3-1 5.5.3 2.5 1.4 2.6 1.4 4.5-.6 2.1-2.1 5-2.6 6.5-1 1.3 1.2 1.1 5-.3 5.6-1.4.6-1.4 2 .1 5 1.7 3.2 4.4 5.5 10 8.2 5.6 2.8 6.2 2.8 7 .7.5-1.4 1.2-1.7 4.6-1.8 2.1 0 4.3-.5 4.8-1s1.5-.9 2.3-.9c2.1 0 1.7-1.3-1.8-4.8-2-1.9-4.4-3.6-6.3-4.1-2.6-.7-2.7-.9-1-1 1 0 2.2-.4 2.5-.8.3-.4 1-.6 1.8-.3.8.2 1.9-.4 3-1.6 2-2.2 2-2.7.6-2.7-.6 0-2-1-3.4-2.2-5.1-4.9-8.5-6.5-14.3-6.8-.6-.1-1-.9-1.3-1.7-.4-1.4-.9-1.6-3-1.2-1.4.3-3.2.6-4 .6-.9.1-2.8 1-4.2 2-2.7 1.7-3.8 1.3-3.8-1.4 0-.6-1.3-2.5-2.7-4a15.3 15.3 0 01-2.7-3.7c0-1.6-2.3-.4-4 1.8zm4.8 3.4a14 14 0 013.3 4.2c1 3.5 2.2 4 5.9 2 1.9-1 3.8-1.8 4.8-1.8.9 0 2.2-.5 2.7-1 1.5-1.5 1.4-.6.1 3.4-1.7 5.8.2 1.6-4.3-1-.2-.2-1.9 3.7-1.1 2.9.8-.9 1.3-2 1-2.3-.4-.4-7.5 4-8.8 5.8-.9 1.2-.7 1.3-2.7.2-2.2-1.1-2.1-1-2.1-7 0-3.5-.8-6.1-1.2-6.1-.5 0-.8 2.8-.8 6.4 0 6-.1 5.8-2 6.4-2.7 1.1-3.7 1.1-3.2 0 .4-1.1-5.8-7.7-6.7-6.9-.2.3.2 2 1.1 3 1 1 1.2 1.7 1.2 2h-2.7c-2.6.2-3.1.3-4.6-1.4a8 8 0 01-1.6-2.5c0-1.1 2.9-2.6 4.5-2.6.9 0 1.4-.4 1.4-.8s.6-1 1.3-1.2c1.5-.6 3 1.7 3 3.6 0 .9.5 1.3 1 1.8 1 .8 1.7.9 2.4-.9l.9-2.4c0-.2.8-1.3 2-2.6a9.5 9.5 0 002.4-3.1c0-1.2.2-.8 2.8 2zm-24 7.3c0 2-2.2 3.4-5.7 3.4-2.6 0-6.3 1.7-6.3 2.8 0 .4.7.7 1.5.3.7-.3 2.2-.6 3.4-.9 1.8-.3 2-.3 2 1.4 0 1-.4 2.3-.6 3-.5 1.2-3.1 1.5-3.1.3 0-.5-1-.8-2.3-.8-1.3 0-2-.3-2-.8s-1-.6-2-.3c-2.7.6-2.7-.5-.5-2.7 3.9-3.8 7.2-5.8 10.6-6.4 5.4-1 5-1.2 5 .7zm48.7 0c3.8.7 11.8 6.3 10.8 7.9-.3.4-.6.4-1.6.2-1.1-.3-2 0-2 .5s-.7.9-2 .9c-1.2 0-2.7 0-2.7.4 0 1.6-2.1 1.3-2.6-.5-.6-1.6 2-2.7 3.5-3.1 2.5.1 4.9-.5 4.9-.8 0-1-2.3-1.5-6.2-1.5a12 12 0 01-5.7-1.2l-1.9-1.2s-.2-.5 0-1.5c.4-1.2.4-1.5 1.6-1.3.9.3 2.9.8 4.2 1zm-45 4.5c2.5 2.3 1.9 3.5-2 3.5l-3.4.4 3 1.2c1.7.5 4.1 1 5.3 2l2.2 1.8-2.5 1.3c-3 1.4-3.3.9-6.6-.3-1.6-.6-2.5-1-2.2-1.5.2-.6 0-1.2-.3-1.4-1.3-.8-.3-4.2 2-6.2a14 14 0 012.6-2.1c.2 0 1 .4 2 1.3zm40 1c1.8 1.6 2.5 3.8 2.2 7.2-.2 1.4-3.1 2.9-5.8 2.9-2.2 0-5.2-2.2-4.5-3.4.3-.4 2.4-1.4 4.4-2.7 2.3-1.5 3-3 2.1-3-.7 0-2.2.4-3 1.2-2 1.7-1.3.5.7-1.8 2-2.4 1.6-2.5 4-.4zM275 79.7c.5.7 3 1.6 5.4 1.9 4.2.4 4.3 0 3 1.3-.7.9-3.4 2.2-5.9 3.4-4.2 2.1-4.4 2.4-4.7 1.1-.4-2-1.7-2.5-4.5-2-2.4.4-7.3-.8-7.3-1.9 0-1 4-4.7 5.5-5.1 2.5-.8 7.6 0 8.5 1.3zm64.3 1.3c1.2 1.4 2.2 2.3 2.2 2.6 0 1.2-4.3 2.1-7.2 1.7-2.9-.5-4.3.2-4.4 2.2 0 .3-.4.5-1.2.4a28 28 0 01-9.5-5.2c-1-1.3-1.2-.7 2.8-1.1 2.4-.2 4.7-1 5-1.4.8-1.4 3.9-2.1 7-1.8a7 7 0 015.3 2.6z"/><path d="M300.7 54.5c-.1.4-1.2 1.7-2.3 3a10.7 10.7 0 00-2.6 4c-.8 2.3-1.2 2.9-1.9 2.5-.6-.4-1.4-1.8-1.7-3.3-.6-2.5-2.7-3.4-4.1-1.9-.5.6-1.2 1-1.9 1-1.5.4-3 1.1-3.8 2.1l-.7 1.1c0 .1.5 1 1.2 1.8 1.7 2.2 2.4 2.5 5.5 2.4a9 9 0 002.8-.3c.1-.1 0-.6-.4-1-1.4-1.7-2.2-3.2-2-3.5.6-.5 5 3.6 6 5.6.3.3.4.9.4 1.2 0 .4.2.5.8.5 1.3 0 3.9-1 4.2-1.7.2-.4.4-2.8.6-5.8.2-5 .3-6.1.8-6.1.3 0 .5 1.4.8 6.7.1 2.7.3 5 .4 5.3.4.6 2.7 2 3.4 2 .4 0 1.3-.7 2.5-1.8 1-1 2.9-2.5 4.2-3.4 3.3-2.2 3.7-2.1 2 .3a7 7 0 00-1 1.6c0 .5 2.7 1.6 3.7 1.6.6 0 1-.2 1.5-.7.7-.8 2.3-5.3 2.5-7.3.2-1.4 0-1.6-1.2-.7-.4.3-1.6.8-2.6 1-1.1.2-3.2 1-4.7 1.7-4 1.7-4.6 1.7-5.6-1l-1.2-2.4c-.8-1.2-4.6-5.2-5-5.2-.2 0-.4.4-.6.7zM275 63c-3.4.6-6.5 2.3-10 5.4-1.9 1.8-2.8 3.1-2.6 3.7.2.4.5.5 2 .3 1.5-.1 1.7 0 2 .4.4.4 1 .7 2.3.9 1.2.1 2 .4 2.2.8.5.6 1.5.7 2.6.3.8-.3 1.3-1.7 1.3-3.6 0-2.2-.5-2.4-3.8-1.4-1 .3-2.1.5-2.5.4-.6 0-.7 0-.2-.6.6-1 3-1.7 6-2 4.1-.6 5.7-1.6 5.7-3.8v-1.3h-1.6c-.9 0-2.4.2-3.5.4zM323.2 62.8l-.5 1c0 .5-.2 1-.3 1.2-.2.6 2.1 2.1 4 2.7.6.2 2.8.5 4.9.6 3.5.3 5.2.7 5.2 1.3 0 .2-1.6.3-4.1.4-2.7 0-4.3.2-4.5.4-.3.2-.4.6-.3 1.5.3 1.7.9 2.8 1.9 3.1 1.1.4 1 .4 1.7-.4.5-.5 1-.8 2.4-1 1.2-.1 2-.4 2.2-.7.2-.4.7-.5 2.2-.5 1.6 0 1.8 0 2-.6 0-1.2-4-5-7.9-7.1-3-1.6-8.2-2.7-9-1.9zM280 68a9.7 9.7 0 00-3.8 5.6c-.2.8-.2 1.3.1 1.8.2.3.4 1 .4 1.4 0 .9 1 1.7 2.8 2.3 2.4.8 4.2.7 6.8-.6l2.4-1-1.3-1.1a17.3 17.3 0 00-6.6-3.4l-2.3-.7 2.6-.1c2.7-.2 3.9-.7 3.9-1.7 0-.6-2.8-3.5-3.4-3.5-.2 0-.9.4-1.6 1zM319.7 69.2c-1.4 1.5-2.3 3-2 3.3l1.5-.8c1.3-.9 2.4-1.3 2.7-1 .3.3-.7 1.2-3 2.8-3.5 2.6-3.8 3-2.9 4.3a7 7 0 003.8 2c1.6 0 4-.9 5.2-1.8 1-1 1-1 1-3.1 0-2.7-.8-4.5-2.6-6.1-1.6-1.4-2.2-1.3-3.7.4zM266.3 78.1c-1.5.5-6 5-5.8 5.7.1.5 1.8 1.3 3.5 1.6l4.2.2c3.2 0 3.8.3 4.3 1.9.3.7.5 1 1 1 .8 0 7.3-3.4 9-4.6 1-.9 1.8-1.8 1.6-2 0-.1-1.4-.4-3-.6-3.5-.5-4.5-.8-5.7-1.7-.4-.3-1.5-.8-2.2-1-1.9-.6-5.8-.8-6.9-.5zm8.8 3.8c3 .3 5 1 5 1.6a170.5 170.5 0 00-8.2-.4c-3.2-.2-6.2-.4-6.5-.6-.7-.2-.6-.6.4-.8 1.1-.3 6.2-.2 9.3.2zM330.9 78c-1.6.3-3.3 1-3.8 1.6-.7.7-1.4 1-4.5 1.4-4.3.7-4.5.7-4.5 1 0 1 5.4 4.5 8.7 5.8 2.2.9 3 .8 3.3-.4.6-1.5.8-1.6 5-1.8 3.4 0 4.1-.2 5.3-.8.7-.4 1.4-.8 1.4-1 .2-.4-2.8-3.8-3.8-4.5l-1.8-.9c-1-.3-4.4-.6-5.3-.4zm.6 3.5c.6.2 2.3.5 3.7.6 2.7.3 3.6.8 2 1.1l-6.9.2h-6l1.6-.7a17 17 0 014.1-1.5l1.5.3z" fill="#129612"/><path d="M248 307.6h0c11 13.4 41 14.6 49.4 30.5 12.9-17 40.4-19.1 56.5-32.3h0" fill="none" stroke="#d2d2d2" stroke-width="3.1"/><path d="M235.3 148.6c-1.9.7-4.5 1.2-5 3.2.1.8 1.5.9 2.6.6-.1-1.3.3-1.8 2-1.5-.2-.7.3-1.5.4-2.3h0zM363.7 148.6c1.9.7 4.5 1.2 5 3.2-.1.8-1.5.9-2.6.6.1-1.3-.3-1.8-2-1.5.2-.7-.3-1.5-.4-2.3h0zM309.4 213.6c1.6.5 4.1 1.1 4.5 2.9 0 .7-1.2.7-2.4.6.2-1.2-.2-1.7-1.8-1.5.2-.6-.3-1.4-.3-2h0z" fill="#b68c5b" stroke="#000" stroke-width=".4"/><path d="M312.5 80.4c1.4 0 2.7.3 4 .4 8.5 24.5 49.3 24.5 57.8 8.6-4.3-4-5.2-7-4.7-12.4.4-3.1 1.1-9.4 9.3-9.7 3.2-.2 5.2 2 5.4 11 .6 14.6-17.6 29.6-34.8 28.6-12-.7-37.7-8.4-37-26.5z" fill="#fff" stroke-width="1.7"/><path d="M260.8 187.6c-.3-1.8-1-3.4-1.8-4.6 0 .2-1 .5-1 .2.8 1.3 1.4 2.9 1.6 4.1.4.3.8.3 1 .4h0l.2-.1h0zm1.2-43.8c-.2-1.7-1-3.4-1.7-4.6 0 .2-1 .5-1 .2.7 1.3 1.3 3 1.6 4.2l1 .3h.1zm-32.6 12.8c.3-1.8 1-3.4 1.8-4.7 0 .3 1 .5 1 .3-.8 1.2-1.4 2.9-1.7 4.1-.3.3-.7.3-1 .4h0v-.1h0z" fill="#0f0" stroke="#000" stroke-width=".4"/><path d="M260 185.3c.5 0 1.3.4 1.5.5 1 1 3 3.2 3 4.5 0-1 1.1-3.7.1-4.6-.6-.9-3.8-1-4.6-.4h0zm0 .5c-.6 0-1.2.8-1.6 1.4-.6 1.6-1.8 4.9-1.1 6.5-.5-1.4-3-3.7-2.5-5.4.5-1.2 4-3 5.2-2.5h0zm-.4-1c-.5.2-1.2.8-1.3 1.4-.7 1.5-2 4.8-1.2 6.5-.6-1.4-3-3.7-2.6-5.5.4-1.4 4.1-3 5.1-2.5h0zm1.7-43.2c.5 0 1.2.3 1.4.5 1 1 3 3 3 4.5 0-1 1.2-3.8.2-4.7-.7-.8-3.9-1-4.6-.3h0zm0 .5c-.7 0-1.3.7-1.7 1.3-.6 1.7-1.7 5-1 6.5-.6-1.3-3-3.7-2.6-5.3.5-1.3 4-3 5.3-2.5h0zm-.4-1.2c-.5.3-1.3 1-1.4 1.5-.6 1.5-2 4.8-1.1 6.5-.6-1.3-3-3.7-2.6-5.5.3-1.3 4-3 5-2.5h0zm-30.7 13.4c-.5 0-1.3.4-1.5.5-1 1-3 3.1-3 4.5 0-1-1.1-3.7-.1-4.6.6-.9 3.8-1 4.6-.4h0zm0 .5c.6 0 1.2.8 1.6 1.4.6 1.6 1.7 4.9 1.1 6.5.5-1.4 3-3.8 2.5-5.4-.5-1.2-4-3-5.2-2.5h0zm.3-1.1c.5.2 1.3.9 1.4 1.5.6 1.5 2 4.7 1.1 6.5.7-1.4 3-3.8 2.7-5.5-.4-1.4-4.2-3-5.2-2.5h0z" fill="#7eff00" stroke="#000" stroke-width=".4"/><path d="M259.6 184.8a3 3 0 00-1.6 1c-.7 1-2.1 3.5-1.2 4.5-.7-1-3.5-2.6-3-3.7.5-.9 4.6-2.1 5.8-1.8h0zm-.1.2c.6 0 1.4.8 1.6 1.6.7 1.4 1.9 4.7 1.1 6.4.7-1.3 3-3.7 2.7-5.4-.5-1.3-4.1-3.1-5.4-2.6h0zm1.4-44a3 3 0 00-1.6 1c-.8 1-2.2 3.6-1.3 4.6-.6-1-3.5-2.7-3-3.8.5-.9 4.6-2.1 5.9-1.7h0zm-.1.2c.6.1 1.3.9 1.6 1.6.6 1.4 1.8 4.8 1.1 6.4.6-1.3 3-3.6 2.6-5.4-.5-1.2-4.1-3.1-5.3-2.6h0zm-30.3 12.6a3 3 0 011.7 1c.7 1 2 3.5 1.2 4.5.6-1 3.5-2.6 3-3.7-.5-.9-4.6-2.2-5.9-1.8h0zm.2.1c-.6.2-1.4 1-1.6 1.7-.7 1.3-2 4.7-1.2 6.3-.6-1.2-3-3.6-2.6-5.3.5-1.3 4.1-3.2 5.4-2.7h0z" fill="#7eff00" stroke="#000" stroke-width=".1"/><path d="M338.6 187.6c.3-1.8 1-3.4 1.8-4.6 0 .2 1 .5 1 .2-.8 1.3-1.4 2.9-1.6 4.1-.4.3-.8.3-1 .4h0l-.2-.1h0zm-1.2-43.8c.2-1.7 1-3.4 1.7-4.6 0 .2 1 .5 1 .2-.7 1.3-1.3 3-1.6 4.2l-1 .3h0-.1 0zm32.6 12.8c-.3-1.8-1-3.4-1.8-4.7 0 .3-1 .5-1 .3.8 1.2 1.4 2.9 1.6 4.1.4.3.8.3 1 .4h0l.2-.1h0z" fill="#0f0" stroke="#000" stroke-width=".4"/><path d="M339.4 185.3c-.5 0-1.3.4-1.5.5-1 1-3 3.2-3 4.5 0-1-1.1-3.7-.1-4.6.6-.9 3.8-1 4.6-.4h0zm0 .5c.6 0 1.2.8 1.6 1.4.6 1.6 1.7 4.9 1.1 6.5.5-1.4 3-3.7 2.5-5.4-.5-1.2-4-3-5.2-2.5h0zm.4-1c.5.2 1.2.8 1.3 1.4.6 1.5 2 4.8 1.1 6.5.7-1.4 3-3.7 2.7-5.5-.4-1.4-4.1-3-5.1-2.5h0zm-1.7-43.2c-.5 0-1.2.3-1.5.5-1 1-3 3-3 4.5 0-1-1-3.8 0-4.7.5-.8 3.8-1 4.5-.3h0zm0 .5c.7 0 1.3.7 1.7 1.3.6 1.7 1.7 5 1 6.5.6-1.3 3-3.7 2.6-5.3-.5-1.3-4-3-5.3-2.5h0zm.4-1.2c.5.3 1.3 1 1.4 1.5.6 1.5 2 4.8 1.1 6.5.6-1.3 3-3.7 2.6-5.5-.4-1.3-4.1-3-5.1-2.5h0zm30.7 13.4c.5 0 1.3.4 1.5.5 1 1 3 3.1 3 4.5 0-1 1.1-3.7.1-4.6-.6-.9-3.8-1-4.6-.4h0zm0 .5c-.6 0-1.2.8-1.6 1.4-.6 1.6-1.8 4.9-1.1 6.5-.5-1.4-3-3.8-2.5-5.4.5-1.2 4-3 5.2-2.5h0zm-.4-1.1c-.5.2-1.2.9-1.3 1.5-.7 1.5-2 4.7-1.2 6.5-.6-1.4-3-3.8-2.6-5.5.4-1.4 4.1-3 5.1-2.5h0z" fill="#7eff00" stroke="#000" stroke-width=".4"/><path d="M339.8 184.8a3 3 0 011.6 1c.7 1 2.1 3.5 1.2 4.5.6-1 3.5-2.6 3-3.7-.5-.9-4.6-2.1-5.8-1.8h0zm0 .2c-.5 0-1.3.8-1.5 1.6-.7 1.4-2 4.7-1.2 6.4-.6-1.3-3-3.7-2.6-5.4.5-1.3 4.1-3.1 5.4-2.6h0zm-1.3-44a3 3 0 011.6 1c.8 1 2.1 3.6 1.3 4.6.6-1 3.5-2.7 3-3.8-.5-.9-4.6-2.1-5.9-1.7h0zm.1.2c-.6.1-1.3.9-1.6 1.6-.6 1.4-1.9 4.8-1.1 6.4-.6-1.3-3-3.6-2.6-5.4.5-1.2 4-3.1 5.3-2.6h0zm30.2 12.6a3 3 0 00-1.6 1c-.7 1-2.1 3.5-1.2 4.5-.7-1-3.5-2.6-3-3.7.5-.9 4.6-2.2 5.8-1.8h0zm0 .1c.5.2 1.3 1 1.5 1.7.7 1.3 1.9 4.7 1.2 6.3.6-1.2 3-3.6 2.6-5.3-.5-1.3-4.1-3.2-5.4-2.7h0z" fill="#7eff00" stroke="#000" stroke-width=".1"/><path d="M284 251.7c.3-1.7 1-3.3 1.8-4.6 0 .3 1 .5 1 .3-.7 1.2-1.3 2.8-1.6 4.1l-1 .4h0l-.1-.2h0zm-1.2-43.7c.3-1.8 1-3.4 1.8-4.7 0 .3 1 .5 1 .3-.8 1.2-1.4 2.9-1.6 4.1-.4.3-.8.3-1 .4h0l-.2-.1h0zm32.6 12.7c-.2-1.7-1-3.3-1.7-4.6 0 .3-1 .5-1 .3.7 1.2 1.3 2.8 1.6 4l1 .5h0l.1-.2h0z" fill="#0f0" stroke="#000" stroke-width=".4"/><path d="M284.8 249.5c-.5 0-1.2.4-1.5.5-1 1-3 3.1-3 4.5 0-1-1-3.8 0-4.6.5-.9 3.8-1 4.5-.4h0zm0 .5c.7 0 1.3.7 1.7 1.4.6 1.6 1.7 4.9 1 6.5.6-1.4 3-3.8 2.6-5.4-.5-1.3-4-3-5.3-2.5h0zm.4-1.1c.5.2 1.3.8 1.4 1.5.6 1.5 2 4.7 1.1 6.5.6-1.4 3-3.8 2.6-5.5-.3-1.4-4-3-5-2.5h0zm-1.6-43.2c-.5 0-1.3.4-1.5.5-1 1-3 3.2-3 4.5 0-1-1.1-3.7-.1-4.6.6-.9 3.8-1 4.6-.4h0zm0 .5c.6 0 1.2.8 1.6 1.4.6 1.6 1.8 4.9 1.1 6.5.5-1.4 3-3.7 2.5-5.4-.5-1.2-4-3-5.2-2.5h0zm.4-1.1c.5.2 1.2.9 1.3 1.5.7 1.5 2 4.8 1.2 6.5.6-1.4 3-3.7 2.6-5.5-.4-1.4-4.1-3-5.1-2.5h0zm30.7 13.4c.5 0 1.2.4 1.5.5 1 1 3 3.1 3 4.5 0-1 1-3.8 0-4.6-.5-1-3.8-1-4.5-.4h0zm0 .5c-.7 0-1.3.7-1.7 1.4-.6 1.6-1.7 4.8-1 6.5-.6-1.4-3-3.8-2.6-5.4.5-1.3 4-3 5.3-2.5h0zm-.4-1.1c-.5.2-1.3.8-1.4 1.5-.6 1.5-2 4.7-1.1 6.5-.6-1.4-3-3.8-2.6-5.5.3-1.4 4-3 5-2.5h0z" fill="#7eff00" stroke="#000" stroke-width=".4"/><path d="M285.2 249a3 3 0 011.6 1c.8 1 2.2 3.5 1.3 4.5.6-1 3.5-2.6 3-3.8-.5-.8-4.6-2-5.9-1.7h0zm.1.1c-.6.1-1.3.9-1.6 1.6-.6 1.4-1.9 4.8-1.1 6.4-.6-1.2-3-3.6-2.6-5.4.5-1.2 4-3 5.3-2.6h0zm-1.3-43.9a3 3 0 011.6 1c.7 1 2.1 3.5 1.2 4.5.7-1 3.5-2.6 3-3.7-.5-.9-4.6-2.2-5.8-1.8h0zm0 .1c-.5.2-1.3 1-1.5 1.7-.7 1.4-1.9 4.7-1.2 6.4-.6-1.3-3-3.7-2.6-5.4.5-1.3 4.1-3.2 5.4-2.7h0zm30.3 12.7a3 3 0 00-1.6 1c-.8 1-2.2 3.5-1.3 4.5-.6-1-3.5-2.6-3-3.8.5-.8 4.6-2 5.9-1.7h0zm-.1.1c.6.1 1.3.9 1.6 1.6.6 1.4 1.9 4.8 1.1 6.4.6-1.2 3-3.6 2.6-5.4-.5-1.2-4-3-5.3-2.6h0z" fill="#7eff00" stroke="#000" stroke-width=".1"/><path d="M365.7 365.4c-11.5 14-17.2 9-29.5 5.4-12.4-3.7-25.5-9.9-37.4-12.8-11.9-2.8-41.5-4.9-59.5-5.7-16.7-.8-22.5-7.5-23-12.8.1 0 5.3-1.3 16.1-.3 11 1.1 11.5.9 13.7-2.4.7-1 1.2-2 1.5-2.8 1-.7 1.5-1.7 1.5-3.1 0-4.1-2.8-10.3-32.4-10.3-10 0-17.4-.3-23.1-.9l8.7-22.5c2.7-7.4-9.6-8.7-9.6-8.7-11.5 0-20.3.2-26-1.2a107.4 107.4 0 00-35.8-2.9c-16.4.8-29.5.8-51.7-5.7 2 8.4 18.5 19.9 18.5 19.9l-25.9 12 7.4 1.8c22.2 6.6 35.3 6.6 51.7 5.8 12.6-.7 20.4-.3 28.3 1.2l-5.7 18.4c10.3 10.8 17.5 16.4 50.2 19.6l-6.3 8 1.4.2c11.8 16.2 18.3 21.4 45.7 22 27.3.5 40 .2 61 9.8 21 9.6 30.7 13 47.4 8 0 0 .3.9 3.4-6.3 3.4-8 4.2-23.4 7.5-26.1 3.3-2.8 7.7-10.4 7.7-10.4l-5.8 2.8" fill="#ffd300"/><path d="M441.2 328.3c3.6 1.6 7.4 2.7 19-.6 11.4-3.2 44.8-9 62.3-7.6-6.8-6-24.9-15.1-24.9-15.1l18.3-15.1s-4.6.3-11.2-1.4c-19.4-5.5-38 .8-54.4 7.7a142 142 0 01-8.2 3.2l-3.9-13.6s-6.7-4.9-22.5.4c-14.4 4.9-17.7 12.7-16.9 14.7.8 1.9 7.7 14.8 7.7 14.8l-.2.4c-6 2.9-13.8 5.7-23.4 8.6-27 8.2-33 12-57.1 29.6l6.3 15.1 13 4.1s3.4 1.1 6.1.9l.3.2c13.7-9.4 22.1-13.1 43-19.5 27-8.2 40.4-16.1 37.4-23.8l-4.6-12.6s6-3.6 8.5-2.5l5.4 12" fill="#ffd300"/><path d="M161.1 314.6l3.2-11.2c.5-2.7 4.7-4.4 16.8-2.7 8.3 1.2 15 2.6 18.7-.5h.1c.5-5.4-7-4.9-7-4.9h-.2c-11.5 0-20.3.2-26-1.2a107.2 107.2 0 00-35.8-2.9c-15 .8-27.3.8-46.3-4.2 3.7 4.5 13 11.4 13 11.4l-18.4 8.8c22.2 6.6 35.3 6.6 51.7 5.8a113 113 0 0130.2 1.6M217.6 338.8c2.8-.5 8-.6 14 .2 9.2 1.4 12.7.5 13.4-.7l-6 14s-23.8.3-22.7-13.2" fill="#fff"/><path d="M371 363.3l-5 7c-9 12-20 8.4-32.7 5.4-12.3-3.7-25.5-9.8-37.4-12.7-11.9-2.9-41.4-5-59.5-5.8-18-.8-23.4-8.6-23-14 0-.6.2-1.2.4-1.6l3-5.5.5-.5c2-2.6 7.2-2.3 16.2-1 5.8.8 9.7 1 12.2.3l.2-.7c0-4.1-2.5-8.7-32-8.7-29.6 0-36.4-2.8-43-5.7-3.8-1.7-9.4-7.3-8.3-11l-6.7 21.7c11.2 11.8 16.6 17.8 50.8 21.1l-5.7 8.5c11.7 16.2 18.3 21.4 45.7 22 27.3.5 40 .2 61 9.8 21 9.6 31.4 12.8 48.1 7.9" fill="#fff"/><path d="M165 306.6c1.4 3.3 5.9 7 8.8 8.2 4.4 2 8.9 3.9 20 5l6.5-17.5c-2.7 7.4-11.4 5.5-22 3.9M439 322.2c3.6 1.7 7.4 2.8 19-.5 11.4-3.3 38.7-9.2 56.2-7.8l-17.3-8.3 12.7-10.2-2.4-.6c-19.4-5.5-38 .9-54.5 7.7-16.4 6.9-18.3 5.5-20.5 3l-4.4-8.5s.3-3.8 3.6-5.2l3.8-1.6s-3.5-5-17.2 0c-13.7 4.9-14.5 11.2-14.3 12.3 0 0 2.8-.3 5.5-1.4 2.8-1 9.3-4.9 11.2-.2 2 4.6 2 5.6 2 5.6 3 7.7-10.7 15.2-37.8 23.4-27 8.3-32.6 11.5-56.7 29l3.9 10.5 12.5 4c17.2-12.3 24.9-16 48.2-23.2C419.6 342 433 334 430 326.4l-4.4-12.1s5-4.4 8-3.3l5.4 11.3" fill="#fff"/><path d="M170 330.5c-1.2 1.7-1.3 4 .6 5.2.4.3 1 .4 1.4.4l-.3-3 2.2 1.1.1 1.7c.9-.3 1.7-1 2.2-1.8 1.2-1.6 1.3-4.1-.5-5.3-2-1.2-4.3 0-5.6 1.7l-2-1.5c2-2.8 6-4 9-2 3 1.8 3.2 5.7 1.1 8.5a8 8 0 01-3.9 3l.2 2.5-2.1-1.1-.1-1.3c-1 0-2.1-.3-3-1-3-1.8-3.3-5.7-1.2-8.6l2 1.5M187 331.2l2.5.2-2 6.6c-.4 1.4-.9 3.4 1.2 3.6 2.1.2 2.9-1.8 3.3-3.2l2-6.6 2.4.3-2 7c-1 2.8-2.9 4.9-6.3 4.5-3.4-.3-4-2.6-3.2-5.4l2-7M203 344.1h-2.5l2.5-11.8h2.6l-2.5 11.8M213 367.4l-2-1.3 5.8-8.5-2-1.4 1.2-1.7 6 4.2-1.1 1.7-2-1.4-6 8.4M229 365l-1 2.2h.3c1.3.4 2.4.4 3-1 .8-1.3 0-1.9-1.3-2.3h-.3l-.6 1.2-2.4-.7 1.6-3 3.2 1c2.4.7 3.5 2.1 2.2 4.5-.7 1.4-2.3 2.5-4 2.3l1 5.6-3-.8-.5-5.3-2.4 4.4-2.3-.7 4.2-8 2.4.7M243.6 369.3l-1.4 2.5 3 .2-.5-4.5-1 1.8-2.1-.6 3.1-4.8 2 .2 1.6 12.7-2.6-.2-.3-2.6-4.4-.4-1.6 2.5-2.6-.2 4.8-7.2 2 .6M257 364.5h1.8l4.8 8.9 1.8-8.1h2.5l-2.7 12.4-1.8-.1-4.8-8.8-1.8 8.2-2.4-.1 2.7-12.4M280.3 369.1c-.3-.6-.8-1-1.6-1.1-.8 0-1.7.4-1.9 1.2-.6 2 4.6 1.7 3.5 5.7-.6 2.4-2.7 4-5.2 3.7-1.7-.2-2.7-1.3-3.2-2.8l2-1.3c0 1 .7 1.9 1.8 2 1 .1 1.8-.7 2-1.6.4-1.2-.7-1.7-1.6-2.1-1.4-.8-2.4-1.7-1.9-3.6.6-2 2.5-3.4 4.6-3.2 1.1 0 2.5.8 3 1.7l-1.5 1.4M289.1 380.3l-2.3-.5 3.6-9.8-2.4-.5.7-2 7.3 1.4-.8 2-2.4-.4-3.7 9.8M300.4 370.5l2.3.9-2.6 6.4c-.5 1.4-1.2 3.5.7 4.3 2 .7 2.8-1.2 3.4-2.7l2.5-6.4 2.3.9-2.7 6.9c-1.1 2.8-3.2 4.4-6.3 3.2-3-1.2-3.4-3.8-2.3-6.6l2.7-7M313.5 387l3.2 1.3-.8 2-5.4-2.3 4.7-11.5 2.3 1-4 9.5M323.8 393.2l-2.2-.8 4.1-11.6 2.3.7-4.2 11.7M334 395.9l-2.3-.5 2.8-9.8-2.5-.5.6-2 7.4 1.5-.6 2-2.5-.5-2.8 9.8M344 356.3c-.7-.3-1.4-.3-2.1 0-.7.4-1 1.3-.7 2 1 1.8 5-1.3 7 2.3 1.2 2.2.7 4.5-1.5 5.7-1.5.8-3 .6-4.5-.2l.6-2.1c.7.6 1.9 1 2.8.4.9-.4 1-1.5.5-2.3-.6-1.1-1.8-.9-2.8-.7-1.7.2-3.2 0-4-1.6-1.1-1.8-.6-4 1.2-5a5 5 0 013.7-.5l-.2 2M348 351l2.2-1.2 3.3 6.1c.7 1.3 1.8 3.2 3.6 2.2s1-3 .2-4.3l-3.2-6 2.1-1.2 3.5 6.5c1.4 2.7 1.4 5.3-1.6 6.9-2.9 1.5-5.1.1-6.5-2.5l-3.5-6.6M367.6 344.1c-.7-.4-1.4-.5-2.2-.1-.7.3-1 1.2-.7 1.9.8 1.9 5-1 6.7 2.8 1 2.2.4 4.5-1.9 5.5-1.6.8-3.1.4-4.5-.5l.8-2c.7.6 1.8 1 2.8.6.9-.4 1-1.4.7-2.3-.6-1.2-1.8-1-2.8-.9-1.8 0-3.2-.2-4-1.9-.8-1.9-.2-4 1.7-4.9a5 5 0 013.7-.2l-.3 2M380.8 349l-2.2 1-3.8-9.7-2.3 1-.8-2 6.9-2.7.8 2-2.4.9 3.8 9.5M389.2 346l-2.3.8-4-11.8 2.3-.7 4 11.7M389.8 332.4l1.7-.6 9 6-2.7-7.8 2.2-.9 4.2 12-1.6.6-9-6 2.7 8-2.2.7-4.3-12"/><path d="M286 82c1.8 6.8 16 6.3 19.2 6l13-3.7-.3.2c4 10.3 19.2 16 31.6 16 12-.2 20-4 25-11-4.3-4.6-5.4-6-5-13.8a9.2 9.2 0 018.7-8.4c5-.2 9.2 3.9 12.8 7.4 5.8 5.5 10.3 12 16.5 16.8 5.8 4.8 12.1 4.7 17.4 8.3 5.6 4 11.8 10.4 14.3 16.8 2.1 5.5-1.7 11.3-5.3 11.3-4.2 0-8.5-3.6-7.8-7-7.2-5.3-21.2 6.2-24.6 18.5a42.4 42.4 0 0010.6 40.6c-2.6 6.8-11.7 12.6-16.4 17-1.8 6.3.7 15.2 6 19.2 6.4 1 17 .8 24 1.3 3 1.1 2.4 5.4 3.3 8.6 1.1 4.3 3.2 9.1 2.6 13.8-2.1 14.4-6.6 26.6-20.2 36-7.1 4.7-13 8-21.2 11-3.6-3.3-6.9-8-10.9-9.9-12.8-.2-28.6 6.4-33 15.8-2 4.6 3.4 9.6 9.7 14.7-13.1 9.5-28.6 14.3-43 20.8a47.7 47.7 0 00-16.4 13.9 49.8 49.8 0 00-18.4-16.2c-12.3-5.6-27.2-8.8-36.5-18.5 5.7-3.3 9.2-6.1 10-11.4-8-10-17.3-20.8-29.6-24-4.2 1.7-9.4 9-12.6 14.3-30.5-6.4-55.2-40-39.2-67.8 3.5 1.4 8.6 3.9 12.8 1.6 8-5 17.5-11.3 18.1-20.7-.2-9-7-15.4-15.2-19.5 5.4-4 11.2-17.7 11.6-27.6.4-9.2-4.7-17.7-9.6-25.6a23.3 23.3 0 00-10.6-8.5c-1.4 2.1-6.9 6.9-11 7.1-4.1.2-10.1-3.2-10.1-7.5 0-3.2 1.4-8.4 5.1-10.6 10.2-6.3 22.2-10.4 31.6-17.9 5.6-4.6 8.2-12.9 14-17.6 2.3-1.8 4.8-3.7 7.2-4.3 6 25.4 15 28.4 27.7 32.7A52.7 52.7 0 00286 82z" fill="#fff"/><path d="M282.7 80.5c-1.9 11.7-21.7 19-33.2 19.4-11.4-.8-20-6-26.8-13.5 2.7-.6 5.9-6.5 5.5-11.1a9.4 9.4 0 00-7.3-8.3 11 11 0 00-6.7.5c-5.4 27 22.5 38.8 36.6 38.4 14-.5 35-10.8 34-25v-.2l-2-.2z" fill="#fff"/><path d="M407.5 328.4l1 2.5 3.6-1.5.9 1.9-3.6 1.5 1.4 3.1 3.6-1.6.9 2-5.9 2.5-5-11.4 5.9-2.5.8 1.9-3.6 1.6M424.4 331l-2.1 1.2-3.9-9.6-2.1 1.3-1-1.9 6.4-3.6 1 1.8-2.2 1.3 3.9 9.5M354.7 301c.1.1 0 .2-.1.3h-.1v-.3h.2M354.6 302l-.2-.1c.2-.2.5.1.2.2M355.5 301.8h.6-.6"/><path d="M84 287c19.2 5 31.5 5 46.6 4.2 16.4-.8 24.9.2 35.7 3 5.8 1.3 14.6 1.1 26.1 1.1m-113.5 12c22.2 6.6 35.3 6.6 51.7 5.7 13.7-.7 20.8-.6 29.3 1.1m32.5-25.5s12.3 1.2 9.6 8.6c-2.6 7.4-10.5 5.7-21 4.1-28.2-4.1-14 10.7-7.5 13.6 6.6 2.9 13.4 5.7 43 5.7 29.5 0 32.3 6.2 32.3 10.3 0 4.1-4 5.4-15.6 3.7-11.4-1.6-16.8-1.6-17.2 3.7-.4 5.4 5 13.2 23 14 18 .8 47.6 2.9 59.5 5.8 12 2.8 25 9 37.4 12.7 12.3 3.7 18 8.7 29.5-5.3M192 295.3s8 .4 7.9 5.2m16 38.8c2.6-1.2 7.4-.8 14.6.3 7.7 1 12 .9 14.1-.6m1.4-4c-.2-6.9-5-9.4-32.4-9.4-29.5 0-36.3-2.9-42.9-5.8-3.2-1.4-7.7-5.7-8.3-9.2m2.2-3.8c2.3-1.1 6.5-1.5 13.5-.5 9.2 1.2 18 2 21.6-2.3l2.2-5.8m-46.5 32.7c11.2 11.8 17 17.4 51.1 20.7m-4.4 5.8c-32.6-3.2-38.5-8.8-48.8-19.6l11.4-35.2m52.8 32.3l-19.7 30.4c11.7 16.2 19.1 21.7 46.5 22.3 27.3.5 40 .2 61 9.8 21 9.6 30.4 13 47 8 0 0 3.4-3.3 5-9.5s11-25 14-32l-3.3 5.3c-11.5 14-22.6 10.3-35 6.6-12.2-3.7-25.4-10-37.3-12.8-11.9-2.9-41.4-5-59.5-5.7-17.3-.8-23-8-23-13.3l-.4-2.5m142.9 58.4c-16.7 5-26 2.5-47.1-7.1-21-9.6-33.7-9.4-61-10-27.4-.5-34.8-6-46.5-22.1m-42.2-41.3a116 116 0 00-28.2-1.2c-16.4.8-29.5.8-51.7-5.8l-7.4-1.8 25.9-12S81 287.1 78.9 278.7c22.2 6.6 35.3 6.6 51.7 5.7a107 107 0 0135.7 3c5.8 1.4 14.6 1.2 26.1 1.2" fill="none" stroke-width="1.4"/><path d="M200.1 303.5l-5.4 15.6m44.6 32.7l9-19.2m180-34.6l13 30.2c3.5 1.6 7.3 2.7 18.8-.6 11.5-3.3 44.9-9 62.4-7.7-5.2-6-25.2-14.5-25.2-14.5l18.6-15.6s-4.6.2-11.2-1.4c-19.4-5.5-38 .8-54.5 7.7-16.4 6.8-18.3 5.5-20.5 3-4.6-3-.5-6 5-9 5.4-3 4.3-6-.9-6.4a40 40 0 00-33.6 12.4c-3.6 4.4-1.1 9.3 9.3 5 5.6-2.5 9-4 11-.4 3 7.7-10.5 15.7-37.6 23.9-27 8.2-33 12-57.2 29.6L332 369m71.4-66.3c-.2-7.2 22-18.7 31.5-13.5M420.7 301l11.2 30.2c3 7.7-10.4 15.6-37.5 23.8-21 6.4-29.3 10.2-43.2 19.7m80.3-69.7c2.2 2.5 4.8 4.3 21.2-2.6s35-13.2 54.5-7.7l1.6.5m-69.8 27c3.6 1.6 7.4 2.7 18.9-.6a200 200 0 0156.4-7.4m-186.1 44.7c24-17.6 29.3-20.9 56.4-29 27-8.3 40.8-16.4 37.8-24.1m-78 67.4c17-12.2 24.8-16 48.1-23.1 27-8.2 40.5-16.2 37.5-23.9M398.8 301l7.4 14.3m32-29.4l3.6 13m-2-6.4c-4.9 2.2-10.6 5.5-7.9 7.7m-29.8 6.3c1.3 1.7 4 1.4 9-.8s9.6-2.8 8.8-.6m5.7 8.8c2.5-1.6 5.2-3.3 8.5-2.7m-7.1 7.4c3-2 7.1-2.8 9.3-2.2" fill="none" stroke-width="1.4"/><path d="M402 306.7c1.6 2.4 6.3.7 11.5-1.5 3.3-1 6.2-1.8 6 .3-.5 3.8-12.7 10.2-13.1 9.4-1.5-3.1-1.6-3.5-4.4-8.2zM441.4 299c-3.5 1.2-2 .6-4.4 1.3-2.7.2-5.4 1.2-5.4-1.7 1.6-3 8-5.7 8.1-5.5l1.7 5.9zM172.7 102.3l9.9-5.2c9.5-6 10.6-6 15.6-12.3 6.5-8.1 2.6-5.8 9-12.2.8 10.6 19.4 40.4 39.2 40.2a49.1 49.1 0 0044-24.8 124 124 0 0117.5-.3c5.4 15.5 25.5 25.4 41.8 25.3 17.8-.1 41.5-11.6 39.5-39.8 25.7 33.6 24.3 15.6 44.8 35.8-37.4-2.9-64.5 47.7-33.7 83.5-4.4 5.4-6.8 13-3 13.4l15 13.6c31.2 29-9.4 53-29.7 58.6l-30.9 21.5h-8.5c-9.7 11.5-34.2 11.8-45.8 25.6-15-17.2-34-11.7-42.1-27h-5.4s-15.3-7.4-38.8-20c-27.4-12.6-39.5-20.2-29.6-54.6 24.4-16.2 22.6-24.9 17.2-35 19.8-29.4 20.3-71-29.4-84.7l3.4-1.6z" fill="#fff"/><path d="M263.1 187.7c.9-1.4 2.1-1.6 3.3-1 1 .5 1.5 2.3.2 3.4 2.3.7 2 4-.4 4.2 1.8 1 1.8 3.8-.6 4.2 1.1 1.2.4 3.2-1 3.7.1.8-.4 1.5-1.2 1.9a2 2 0 01-.4 2.5c-.1.7-.6 1.1-1.1 1.5-.3.9-1 1.6-2.1 1.6-1.2 0-2.2-.8-2.2-2.1-1.7-1-1.3-2.9 0-3.8-1.8-.7-2-2.7-.8-3.6-.4-.5-.5-1-.5-1.5-1-.6-1.4-1.7-1-2.6-2-.5-2.2-2.5-1.3-3.5-1.5-1.1-.9-3.3.5-3.8-.2-1.2.8-2.2 1.9-2.3a2 2 0 012 .8c.6-.3 1.7 0 2.4.7.5-.4 1.4-.8 2.3-.3h0zm1.3-43.8c.8-1.3 2-1.6 3.2-1 1 .5 1.5 2.3.3 3.4 2.2.8 2 4-.4 4.3 1.7.8 1.7 3.7-.6 4.1 1 1.2.3 3.2-1 3.7 0 .8-.4 1.5-1.3 2a2 2 0 01-.4 2.4c0 .8-.6 1.2-1 1.5-.3.9-1 1.7-2.2 1.7-1.1 0-2.1-1-2.1-2.2-1.8-1-1.4-2.9 0-3.7-1.9-.8-2.1-2.8-.9-3.7-.4-.5-.5-1-.5-1.5-1-.6-1.4-1.7-.9-2.6-2-.5-2.2-2.5-1.3-3.5-1.5-1.1-1-3.2.5-3.7-.3-1.3.7-2.3 1.8-2.4a2 2 0 012 .9c.7-.4 1.8-.2 2.4.6.5-.4 1.5-.8 2.4-.3h0zM227 156.7c-1-1.4-2.2-1.6-3.3-1-1 .5-1.5 2.2-.2 3.4-2.3.7-2 4 .3 4.2-1.7.9-1.7 3.8.7 4.2-1.2 1.2-.4 3.2 1 3.7-.2.8.3 1.5 1.2 1.9a2 2 0 00.4 2.5c.1.7.6 1.1 1.1 1.5.3.9 1 1.6 2.1 1.6s2.1-.9 2.1-2.1c1.8-1 1.4-2.9 0-3.8 2-.7 2.2-2.7 1-3.6.3-.5.4-1 .4-1.5 1-.6 1.4-1.7.9-2.6 2-.5 2.2-2.5 1.4-3.5 1.5-1.2.8-3.3-.5-3.8.2-1.2-.8-2.2-2-2.4a2 2 0 00-1.9 1c-.6-.5-1.7-.2-2.4.5-.5-.3-1.5-.7-2.3-.2h0zM336.3 187.7c-1-1.4-2.2-1.6-3.3-1-1 .5-1.5 2.3-.2 3.4-2.3.7-2 4 .3 4.2-1.7 1-1.7 3.8.7 4.2-1.2 1.2-.4 3.2 1 3.7-.2.8.3 1.5 1.2 1.9a2 2 0 00.4 2.5c.1.7.6 1.1 1.1 1.5.3.9 1 1.6 2.1 1.6 1.2 0 2.1-.8 2.1-2.1 1.8-1 1.4-2.9 0-3.8 2-.7 2.2-2.7 1-3.6.3-.5.4-1 .4-1.5 1-.6 1.4-1.7.9-2.6 2-.5 2.2-2.5 1.4-3.5 1.5-1.1.8-3.3-.5-3.8.2-1.2-.8-2.2-1.9-2.3a2 2 0 00-2 .8c-.6-.3-1.7 0-2.4.7-.5-.4-1.5-.8-2.3-.3h0zM335 144c-.9-1.3-2.1-1.6-3.2-1-1 .5-1.5 2.3-.3 3.4-2.2.8-2 4 .4 4.3-1.8.8-1.8 3.7.6 4.1-1.1 1.2-.4 3.2 1 3.7-.1.8.4 1.5 1.3 2a2 2 0 00.3 2.4c.2.8.7 1.2 1.2 1.5.2.9 1 1.7 2 1.7 1.2 0 2.2-1 2.2-2.2 1.7-1 1.4-2.9 0-3.7 1.9-.8 2.1-2.8.9-3.7.3-.5.5-1 .5-1.5 1-.6 1.3-1.7.8-2.6 2-.5 2.3-2.5 1.4-3.5 1.5-1.1.9-3.2-.5-3.7.3-1.3-.7-2.3-1.9-2.4a2 2 0 00-2 .9c-.6-.4-1.7-.2-2.3.6-.5-.4-1.5-.8-2.4-.3h0zm37.3 12.8c.9-1.4 2.1-1.6 3.3-1 1 .5 1.5 2.2.2 3.4 2.3.7 2 4-.4 4.2 1.8.9 1.8 3.8-.6 4.2 1.1 1.2.4 3.2-1 3.7.1.8-.4 1.5-1.2 1.9a2 2 0 01-.4 2.5c-.1.7-.6 1.1-1.1 1.5-.3.9-1 1.6-2.1 1.6-1.2 0-2.2-.9-2.2-2.1-1.7-1-1.3-2.9 0-3.8-1.8-.7-2-2.7-.8-3.6-.4-.5-.5-1-.5-1.5-1-.6-1.4-1.7-1-2.6-2-.5-2.2-2.5-1.3-3.5-1.5-1.2-.9-3.3.5-3.8-.2-1.2.8-2.2 1.9-2.4a2 2 0 012 1c.6-.5 1.7-.2 2.4.5.5-.3 1.5-.7 2.3-.2h0z" fill="#b400b4" stroke="#000" stroke-width=".4"/><path d="M259 205.2c-.5 1.9.9 3.8 2.4 3.4-1 1.3-3.4 1-3.9-1-.4-.6.3-2.1 1.5-2.4h0zm1.5-1.6c-.5 1.6 1.3 3 2.7 2.7-1 1.3-3.3 1-3.8-.8-.4-.7-.1-1.8 1.1-1.9h0zm1.4-3.5c-.5 1.7.8 3.6 2.3 3.2a2.2 2.2 0 01-3.8-.8c-.4-.8.1-2.3 1.5-2.4h0zm-4-3.5c-.6 1.7.9 3.6 2.4 3.2-1.2 1.5-3.4 1-4-.8-.3-.8.2-2.2 1.6-2.4h0zm2.7-1.6c-.5 1.8.9 3.7 2.5 3.2-1.1 1.4-3.5 1-4-.7-.3-.8.3-2.3 1.5-2.5h0zm-3.6-2.3c-.6 1.9.9 3.1 2.4 2.8-1.1 1.5-3.4 1-4-1-.3-.7.2-1.5 1.6-1.8h0zm6.1-.1c-.6 1.7.9 3.5 2.4 3.2-1.1 1.4-3.4 1-4-.8-.2-.8.3-2.3 1.6-2.4h0zm-3.3-2.4c-.5 1.9.2 3.4 1.7 3.1-1 1.4-2.7 1.2-3.2-.6-.3-.9.2-2.2 1.5-2.5h0zm-5.2-1.4c-.5 2 1 3.8 2.5 3.4-1 1.4-3.5.9-4-.9-.3-.7.3-2.2 1.5-2.5h0zm1.3-2.2c-.5 1.9.9 3.6 2.4 3.4a2.2 2.2 0 01-4-1c-.3-.7.2-2.3 1.6-2.4h0zm5.7 1c-.5 1.7.9 3.6 2.4 3.4-1 1.3-3.4.8-3.9-1-.3-.7.3-2.3 1.5-2.4h0zm3-1.1c-.6 1.8.9 3.6 2.4 3.3a2.2 2.2 0 01-3.9-.8c-.4-.8.1-2.3 1.5-2.5h0zm-4.3-25c-.5 1.8.8 3.7 2.3 3.3-1 1.3-3.3 1-3.8-1-.4-.6.2-2.1 1.5-2.4h0zm1.5-1.7c-.5 1.6 1.2 3 2.7 2.8-1 1.2-3.4.9-3.9-.9-.3-.6-.1-1.8 1.2-1.9h0zm1.3-3.5c-.5 1.8.9 3.6 2.4 3.3a2.2 2.2 0 01-3.9-.9c-.3-.8.2-2.3 1.5-2.4h0zm-4-3.5c-.6 1.8.9 3.6 2.4 3.3-1.1 1.5-3.4 1-4-.9-.2-.8.3-2.1 1.6-2.4h0zm2.8-1.6c-.5 1.9.8 3.7 2.5 3.2-1.2 1.4-3.5 1-4-.7-.4-.8.2-2.3 1.5-2.5h0zm-3.6-2.3c-.7 2 .8 3.2 2.3 2.8-1.1 1.5-3.3 1-4-.9-.2-.7.3-1.6 1.7-1.9h0zm6 0c-.6 1.7 1 3.4 2.4 3.2-1 1.3-3.3 1-4-1-.2-.7.3-2.2 1.7-2.3h0zm-3.3-2.5c-.5 2 .3 3.4 1.7 3.2-1 1.3-2.7 1-3.2-.7-.2-.8.3-2.2 1.5-2.5h0zm-5.1-1.3c-.5 1.8.9 3.7 2.5 3.3-1.1 1.4-3.5 1-4-.8-.4-.8.2-2.3 1.5-2.5h0zm1.2-2.3c-.5 1.9 1 3.6 2.4 3.4a2.2 2.2 0 01-3.9-.9c-.3-.7.2-2.4 1.5-2.5h0zm5.8 1c-.5 1.8.8 3.6 2.3 3.4-1 1.4-3.3.9-3.8-.9-.4-.7.2-2.4 1.5-2.5h0zm3-1.1c-.7 1.9.8 3.6 2.3 3.4a2.2 2.2 0 01-3.8-1c-.4-.7.1-2.2 1.5-2.4h0zm-34.7 31.5c.5 1.9-.9 3.8-2.4 3.4 1 1.2 3.4 1 3.9-1 .3-.6-.3-2.1-1.5-2.4h0zm-1.5-1.6c.5 1.6-1.3 3-2.8 2.7 1 1.3 3.4 1 3.9-.8.4-.7.1-1.8-1.1-2h0zm-1.4-3.5c.5 1.7-.9 3.6-2.4 3.2 1.2 1.4 3.4 1 3.9-.8.4-.8-.1-2.3-1.5-2.4h0zm4-3.5c.6 1.7-.9 3.6-2.4 3.2 1.1 1.5 3.4 1 4-.8.3-.8-.2-2.2-1.6-2.4h0zm-2.7-1.6c.5 1.8-1 3.7-2.5 3.2 1 1.4 3.4 1 4-.7.3-.8-.3-2.3-1.5-2.5h0zm3.6-2.3c.6 1.9-.9 3.1-2.4 2.8 1.1 1.5 3.4 1 4-1 .2-.7-.3-1.6-1.6-1.8h0zm-6.1-.1c.6 1.7-1 3.5-2.4 3.2 1.1 1.4 3.4 1 4-.8.2-.8-.3-2.3-1.6-2.4h0zm3.3-2.4c.5 1.9-.2 3.4-1.7 3.1 1 1.4 2.7 1.2 3.2-.6.3-.9-.2-2.3-1.5-2.5h0zm5.1-1.4c.5 1.9-.8 3.8-2.5 3.4 1.2 1.4 3.5.9 4-.9.4-.7-.2-2.2-1.5-2.5h0zm-1.2-2.2c.5 1.8-.9 3.6-2.4 3.3 1.1 1.4 3.4 1 3.9-.8.4-.8-.1-2.4-1.5-2.5h0zm-5.7 1c.5 1.7-1 3.6-2.4 3.3 1 1.4 3.4 1 3.9-.8.3-.8-.3-2.4-1.5-2.5h0zm-3-1.2c.6 2-1 3.7-2.4 3.4 1.1 1.4 3.4 1 3.9-.9.3-.7-.2-2.2-1.5-2.5h0z" fill="#642864" stroke="#000" stroke-width=".4"/><path d="M175.4 220.6c2.6.5 5.1.9 7.4-.1-11.8 26 6.7 47.4 31.2 59.1-1.2 2-2.3 3.3-3.4 5-24.2-11-47.8-34.2-35.2-64zm79.5 78.4h-5.4v6.7c10.6 12.8 39.5 14 47.6 29.2 12.3-16.4 38.8-18.4 54.3-31v-3.5h-8.5c-9.8 11.5-34.2 11.8-45.8 25.6-15-17.2-34-11.7-42.2-27zM411 217c2.7.1 5.3-.1 7.9.4 14.9 33.1-3.2 51.4-31.4 67-1.7-1.9-3.5-4-5.4-5.5 20.3-5.5 48.7-28.8 29-62zm-5.6-29.8l-5.6 4.9c-30.8-35.8-5.7-88 33.7-82.3 3.7.5 6.7 8.8 5.2 8.3-45.6-18.8-54.2 49.9-33.3 69.1zM312.8 80.4c.4 2.5 2.1 4 3.7 3.5 1.8-.6 2.3-3.6 2-5.4-.3-2.2-2-5.6-5-5.6-2.5 0-5.6 2.9-5.7 6.6l-.2 9c5.3 15.5 25.4 25.4 41.8 25.3 17.7-.1 41.4-11.6 39.4-39.8-1.5-1.3-2.9-2.8-4.2-4.2 3.3 23.2-19 37.4-35.4 37-13.6-.4-38.5-10.5-36.4-26.4zM291.5 77c0 4.7-.2 7.3-1.4 11.8-4.6 9.6-11.5 22.7-40 24-30.7 1.2-45.5-23.5-41.8-41.9 1.8-1.6 4.3-2.9 6-3.4-5.3 18.5 13 38.4 36.5 38.4 16.6 0 36-14 33.7-25.1-6.5 0-7.3-10 1.7-9.9 4.5 0 5.4 3.8 5.3 6.1zm-124.8 27.3c51.1 10.1 52 57.5 31.7 85.2l-5.3-6.3c20.1-23.4 10.9-66.4-31.7-75.9l5.3-3zm207.9-15c3.6-4.4 5-5.8 5-9.3.2-2-.4-7.2-2.4-7.2-2.1 0-2.9 4.1-3.1 6.1-.3 2.6 3 5.9.5 10.4zm51.4 31.5c4.2 1.1 6.6-1.2 8.9.3 1.4 1 1.7 2.2 1 3.2-.5 1.3-2.4 1.9-3.8 1.5-2.6-.7-3.5-3.2-6.1-5zM222.8 86.7a20.3 20.3 0 01-4.4-10c0-2.4 1.4-6.2 3.3-5.3 1.7.6 3.4 4.3 2.4 7.3s-1.8 5.5-1.3 8zm-45.5 31.5c-5-2.5-7.8-4.4-11.9-3.9-2.5.2-5.1 2.8-4.6 5.4.5 2.6 4 4 6.5 3.1 3.7-1 5-3.7 10-4.6z" fill="#ffd312" stroke-width="1.4"/><path d="M340.4 205.2c.5 1.9-.9 3.8-2.4 3.4 1 1.3 3.4 1 3.9-1 .3-.6-.3-2.1-1.5-2.4h0zm-1.5-1.6c.5 1.6-1.3 3-2.8 2.7 1 1.3 3.4 1 3.9-.8.4-.7.1-1.8-1.1-1.9h0zm-1.4-3.5c.5 1.7-.9 3.6-2.4 3.2 1.2 1.4 3.4 1 3.9-.8.4-.8-.1-2.3-1.5-2.4h0zm4-3.5c.6 1.7-.9 3.6-2.4 3.2 1.2 1.5 3.4 1 4-.8.3-.8-.2-2.2-1.6-2.4h0zm-2.7-1.6c.5 1.8-1 3.7-2.5 3.2 1 1.4 3.5 1 4-.7.3-.8-.3-2.3-1.5-2.5h0zm3.6-2.3c.6 1.9-.9 3.1-2.4 2.8 1.1 1.5 3.4 1 4-1 .2-.7-.3-1.5-1.6-1.8h0zm-6.1-.1c.6 1.7-1 3.5-2.4 3.2 1.1 1.4 3.4 1 4-.8.2-.8-.3-2.3-1.6-2.4h0zm3.3-2.4c.5 1.9-.2 3.4-1.7 3.1 1 1.4 2.7 1.2 3.2-.6.3-.9-.2-2.2-1.5-2.5h0zm5.1-1.4c.5 2-.8 3.8-2.5 3.4 1.2 1.4 3.5.9 4-.9.4-.7-.2-2.2-1.5-2.5h0zm-1.2-2.2c.5 1.9-.9 3.6-2.4 3.4 1.1 1.3 3.4 1 3.9-1 .4-.7-.1-2.3-1.5-2.4h0zm-5.7 1c.5 1.7-1 3.6-2.4 3.4 1 1.3 3.4.8 3.9-1 .3-.7-.3-2.3-1.5-2.4h0zm-3-1.1c.6 1.8-1 3.6-2.4 3.3 1.1 1.4 3.4 1 3.9-.8.3-.8-.2-2.3-1.5-2.5h0zm4.3-25c.5 1.8-.8 3.7-2.3 3.3 1 1.3 3.3 1 3.8-1 .4-.6-.2-2.1-1.5-2.4h0zm-1.5-1.7c.5 1.6-1.2 3-2.7 2.8 1 1.2 3.4.9 3.9-.9.3-.6 0-1.8-1.2-1.9h0zm-1.3-3.5c.5 1.8-1 3.6-2.4 3.3 1.1 1.3 3.4 1 3.9-.9.3-.8-.2-2.3-1.5-2.4h0zm4-3.5c.6 1.8-1 3.6-2.4 3.3 1.1 1.5 3.3 1 4-.9.2-.8-.3-2.1-1.6-2.4h0zm-2.8-1.6c.5 1.9-.9 3.7-2.5 3.2 1.1 1.4 3.5 1 4-.7.4-.8-.2-2.3-1.5-2.5h0zm3.6-2.3c.6 2-.8 3.2-2.3 2.8 1 1.5 3.3 1 4-.9.2-.7-.3-1.6-1.7-1.9h0zm-6 0c.5 1.7-1 3.4-2.5 3.2 1.2 1.3 3.4 1 4-1 .3-.7-.2-2.2-1.6-2.3h0zm3.3-2.5c.5 2-.3 3.4-1.8 3.2 1 1.3 2.8 1 3.3-.7.2-.8-.3-2.2-1.5-2.5h0zm5.1-1.3c.5 1.8-.9 3.7-2.5 3.3 1.1 1.4 3.5 1 4-.8.4-.8-.3-2.3-1.5-2.5h0zm-1.3-2.3c.5 1.9-.8 3.6-2.3 3.4 1.1 1.4 3.3 1 3.8-.9.4-.7 0-2.4-1.5-2.5h0zm-5.7 1c.5 1.8-.9 3.6-2.4 3.4 1 1.4 3.4.9 3.9-.9.4-.7-.2-2.4-1.5-2.5h0zm-3-1.1c.6 1.9-.9 3.6-2.4 3.4 1.2 1.3 3.4 1 4-1 .3-.7-.2-2.2-1.6-2.4h0zm34.7 31.5c-.5 1.9.9 3.8 2.4 3.4-1 1.2-3.4 1-3.9-1-.4-.6.3-2.1 1.5-2.4h0zm1.5-1.6c-.5 1.6 1.3 3 2.8 2.7-1 1.3-3.4 1-4-.8-.3-.7 0-1.8 1.2-2h0zm1.4-3.5c-.5 1.7.9 3.6 2.3 3.2a2.2 2.2 0 01-3.8-.8c-.4-.8.1-2.3 1.5-2.4h0zm-4-3.5c-.6 1.7.9 3.6 2.4 3.2-1.2 1.5-3.4 1-4-.8-.3-.8.2-2.2 1.6-2.4h0zm2.7-1.6c-.5 1.8.9 3.7 2.5 3.2-1.1 1.4-3.5 1-4-.7-.3-.8.3-2.3 1.5-2.5h0zm-3.6-2.3c-.6 1.9.9 3.1 2.4 2.8-1.1 1.5-3.4 1-4-1-.3-.7.2-1.6 1.6-1.8h0zm6.1-.1c-.6 1.7.9 3.5 2.4 3.2-1.1 1.4-3.4 1-4-.8-.2-.8.3-2.3 1.6-2.4h0zm-3.3-2.4c-.5 1.9.2 3.4 1.7 3.1-1 1.4-2.7 1.2-3.2-.6-.3-.9.2-2.3 1.5-2.5h0zm-5.2-1.4c-.5 1.9 1 3.8 2.5 3.4-1 1.4-3.5.9-4-.9-.3-.7.3-2.2 1.5-2.5h0zm1.3-2.2c-.5 1.8.9 3.6 2.4 3.3a2.2 2.2 0 01-4-.8c-.3-.8.2-2.4 1.6-2.5h0zm5.7 1c-.5 1.7.9 3.6 2.4 3.3-1 1.4-3.4 1-3.9-.8-.3-.8.3-2.4 1.5-2.5h0zm3-1.2c-.6 2 .9 3.7 2.4 3.4a2.2 2.2 0 01-3.9-.9c-.3-.7.2-2.2 1.5-2.5h0z" fill="#642864" stroke="#000" stroke-width=".4"/><path d="M292.5 275.4c.7-2.4 2.4-2.5 2.4-5.9h0v-71.3h0c0-1 1-1.7 2-1.7h0c1 0 2 .7 2 1.7v71.3c1 3.4-.6 5.3 2.3 5.4 7.4.5 15.3 1 22.2 3 .8.6.6 1.2 0 1.9h0-46.3 0c-.4-1-.1-2.2.9-2.8 7.6-2.2 14.2-.6 14.5-1.6h0zm53.1-58.4c.9-2.6 2.8-2.8 2.8-6.4h0v-78.8h0c0-1.1.8-1.9 2-1.9h0c1 0 2.2 1 2.2 2l.1 78.7c1 3.6-.8 5.8 2.3 5.9 8 .5 16.7 1 24 3.2.8.7.6 1.4 0 2.2h0-50 0c-.4-1-.1-2.4 1-3.2 8.3-2.5 15.2-.6 15.6-1.7h0zm-92.3 0c-1-2.6-2.8-2.8-2.8-6.4h0v-78.8h0c0-1.1-.9-1.9-2-1.9h0a2 2 0 00-2 2l-.1 78.7c-1 3.6.6 5.8-2.2 5.9-8 .5-16.8 1-24 3.2-.9.7-.6 1.4 0 2.2h49.7c.3-1 0-2.4-1-3.2-8.3-2.5-15.3-.6-15.6-1.7h0z" fill="#961e1d" stroke="#000" stroke-width="1.4"/><path d="M290 197.5c1 1.8 2 2.7 4.3 2.7 3 0 7.5 2.1 9.4 3.9a21 21 0 016 10.1c.3 2 .1 4-1.1 5.2-3 2.6-6.4 4.2-9.4 6.3a23.4 23.4 0 00-8.2 8.5c-1.4 2.7-.8 6 .5 8.3 2.3 4.5 7.2 8.2 11 12.6.8.8 3-.1 3.4 1.2 1.9 5.5.7 10.2 1.8 16 .6 3.5 5.3 3.5 7.5 4.5-4.3-.3-9-.5-12.8-2.3 1-.9 1.5-1.6 1.5-3.4 0-4-1.6-10-3.7-12-3.1-3.2-7.1-7.1-10.1-10.5-2.4-2.5-3.6-4.1-4.1-7-1-4.2.6-7.7 3-11.4 3-4.7 9.4-7.2 14-10.2 1.2-.8 2.7-3.8 2.7-6-.1-3.5-3.6-7.4-5.4-7.8-2.2-.4-7.1.1-9.3-.5-.8-.2-.2-1.2-1.3-1.2-1.2-.2-2.1.7-2.6 2 .1-1-1.4-1.5-2.9-1.2a9 9 0 016.5-3.5c.3-1.3-1.1-2.7-2.4-3.6 1.3.5 1.8.3 1.8-.7h0zm53-66.7c1.1 2 2.1 3 4.5 3a20 20 0 0110.2 4.3c2.8 2.6 5.5 7.3 6.4 11.2.4 2.1.1 4.4-1.3 5.6-3 3-6.7 4.8-10 7a26 26 0 00-9 9.4c-1.3 3-.7 6.5.7 9.2 2.6 5 7.7 9 11.9 13.8.8 1 3.2 0 3.7 1.4 2 6 .6 11.3 1.7 17.7.8 3.8 6 3.8 8.3 4.8-4.6-.2-9.8-.5-13.9-2.3 1.1-1 1.8-2 1.8-3.8 0-4.5-1.9-11.1-4-13.4-3.5-3.5-7.8-7.7-11-11.5-2.6-2.7-3.9-4.5-4.5-7.6-.9-4.8.8-8.6 3.4-12.6 3.2-5.3 10-8 15-11.3 1.3-.9 3-4.3 2.8-6.6 0-4-3.7-8.3-5.6-8.5-2.5-.5-7.7 0-10.2-.7-.8-.2-.2-1.3-1.4-1.3-1.3-.2-2.1.8-2.7 2 0-1-1.5-1.4-3.2-1 1.9-2.7 4.2-3.5 7-4 .3-1.4-1.2-3-2.6-4 1.4.6 2 .3 2-.8h0zm-86.9 0c-1 2-2 3-4.5 3a20 20 0 00-10.2 4.3 25.2 25.2 0 00-6.4 11.2c-.3 2.1 0 4.4 1.3 5.6 3 3 6.7 4.8 10 7a26 26 0 019 9.4c1.3 3 .7 6.5-.7 9.2-2.6 5-7.7 9-11.8 13.8-.9 1-3.3 0-3.8 1.4-2 6-.6 11.3-1.7 17.7-.8 3.8-6 3.8-8.2 4.8 4.6-.2 9.7-.5 13.8-2.3-1.1-1-1.7-2-1.7-3.8 0-4.5 1.8-11.1 4-13.4 3.4-3.5 7.7-7.7 11-11.5 2.3-2.7 3.6-4.5 4.2-7.6.9-4.8-.8-8.6-3.1-12.6-3.3-5.3-10.2-8-15.1-11.3-1.3-.9-3-4.3-2.8-6.6 0-4 3.8-8.3 5.6-8.5 2.5-.5 7.8 0 10.3-.7.7-.2 0-1.3 1.3-1.3 1-.2 2 .8 2.5 2-.1-1 1.5-1.4 3.1-1a9.7 9.7 0 00-6.7-4c-.2-1.4 1.3-3 2.4-4-1.1.6-1.8.3-1.8-.8h0z" fill="#961e1d" stroke="#000" stroke-width="1.4"/><path d="M281.7 251.9c-.9-1.4-2.1-1.7-3.2-1-1 .5-1.5 2.2-.3 3.4-2.2.7-2 4 .4 4.2-1.7.9-1.7 3.8.6 4.1-1.1 1.3-.4 3.3 1 3.8-.1.7.4 1.5 1.3 1.9a2 2 0 00.3 2.5c.2.7.7 1 1.2 1.5.2.8 1 1.6 2 1.6 1.2 0 2.2-.9 2.2-2.1 1.8-1 1.4-3 0-3.8 1.9-.7 2.1-2.7.9-3.6.4-.5.5-1 .5-1.5 1-.6 1.4-1.8.9-2.6 2-.5 2.2-2.5 1.3-3.5 1.5-1.2.9-3.3-.5-3.8.3-1.3-.7-2.3-1.8-2.4a2 2 0 00-2 .9c-.7-.4-1.8-.1-2.4.6-.5-.4-1.5-.7-2.4-.2h0zm-1.2-43.8c-.9-1.4-2.2-1.6-3.3-1-1 .5-1.5 2.3-.2 3.4-2.3.7-2 4 .4 4.2-1.8.9-1.8 3.8.6 4.2-1.1 1.2-.4 3.2 1 3.7-.2.8.3 1.5 1.2 1.9a2 2 0 00.4 2.5c.1.7.6 1.1 1.1 1.5.3.9 1 1.6 2.1 1.6 1.2 0 2.2-.9 2.2-2.1 1.7-1 1.3-2.9 0-3.8 1.8-.7 2-2.7.8-3.6.4-.5.5-1 .5-1.5 1-.6 1.4-1.7 1-2.6 2-.5 2.2-2.5 1.3-3.5 1.5-1.1.9-3.3-.5-3.8.2-1.2-.8-2.2-1.9-2.4a2 2 0 00-2 1c-.6-.5-1.7-.2-2.4.6-.5-.4-1.5-.8-2.3-.3h0zm37.3 12.8c.9-1.4 2.1-1.7 3.2-1 1 .5 1.5 2.2.3 3.3 2.2.8 2 4-.4 4.3 1.8.9 1.8 3.7-.6 4.1 1.1 1.3.4 3.3-1 3.8.1.7-.4 1.5-1.3 1.8a2 2 0 01-.3 2.5c-.2.8-.7 1.2-1.2 1.5-.2 1-1 1.7-2 1.7-1.2 0-2.2-1-2.2-2.2-1.8-1-1.4-2.8 0-3.7-1.9-.8-2.1-2.8-.9-3.6-.4-.5-.5-1-.5-1.5-1-.7-1.4-1.8-.9-2.7-2-.5-2.2-2.5-1.3-3.5-1.5-1-.9-3.2.5-3.7-.3-1.3.7-2.3 1.8-2.4a2 2 0 012 .9c.7-.4 1.8-.1 2.4.6.5-.4 1.5-.7 2.4-.2h0z" fill="#b400b4" stroke="#000" stroke-width=".4"/><path d="M285.8 269.3c.5 2-.8 3.8-2.3 3.4 1 1.3 3.3 1 3.8-1 .4-.6-.2-2.1-1.5-2.4h0zm-1.5-1.6c.5 1.6-1.2 3-2.7 2.8 1 1.2 3.4.8 3.9-1 .3-.5 0-1.7-1.2-1.8h0zm-1.3-3.5c.5 1.8-1 3.6-2.4 3.3 1.1 1.3 3.4 1 3.9-1 .3-.7-.2-2.2-1.5-2.3h0zm4-3.5c.6 1.8-1 3.6-2.4 3.3 1.1 1.5 3.4 1 4-1 .2-.7-.3-2-1.6-2.3h0zm-2.8-1.6c.5 1.9-.9 3.7-2.5 3.2 1.1 1.4 3.5 1 4-.7.4-.8-.2-2.3-1.5-2.5h0zm3.6-2.3c.7 1.9-.8 3.2-2.3 2.8 1 1.5 3.3 1 4-.9.2-.8-.3-1.6-1.7-1.9h0zm-6-.1c.5 1.7-1 3.5-2.5 3.3 1.2 1.3 3.4 1 4-1 .3-.7-.2-2.2-1.6-2.3h0zm3.3-2.4c.5 1.9-.3 3.4-1.8 3.1 1 1.4 2.8 1.2 3.3-.6.2-.9-.3-2.2-1.5-2.5h0zm5.1-1.4c.5 2-.9 3.8-2.5 3.4 1.1 1.4 3.5.9 4-.9.4-.7-.2-2.2-1.5-2.5h0zm-1.2-2.2c.5 1.9-1 3.6-2.4 3.4 1.1 1.3 3.4 1 3.9-.9.3-.8-.2-2.4-1.5-2.5h0zm-5.8 1c.5 1.7-.9 3.6-2.4 3.4 1 1.3 3.4.8 4-.9.3-.8-.3-2.4-1.6-2.5h0zm-3-1.1c.6 1.8-.9 3.6-2.4 3.3 1.2 1.4 3.4 1 4-.8.3-.8-.2-2.3-1.6-2.5h0zm4.4-25c.5 1.8-.9 3.7-2.4 3.3 1 1.3 3.4 1 3.9-1 .4-.6-.3-2-1.5-2.3h0zm-1.5-1.7c.5 1.7-1.3 3-2.8 2.8 1 1.2 3.4.9 4-.9.3-.6 0-1.7-1.2-1.9h0zm-1.4-3.5c.5 1.8-.9 3.7-2.4 3.3 1.2 1.4 3.4 1 4-.9.3-.7-.2-2.2-1.6-2.4h0zm4-3.5c.6 1.8-.9 3.7-2.4 3.3 1.2 1.5 3.4 1 4-.9.3-.7-.2-2.1-1.6-2.4h0zm-2.7-1.6c.5 1.9-1 3.8-2.5 3.3 1 1.3 3.5 1 4-.8.3-.7-.3-2.2-1.5-2.5h0zm3.6-2.3c.6 2-.9 3.2-2.4 2.8 1.1 1.5 3.4 1 4-.9.3-.7-.2-1.6-1.6-1.9h0zm-6.1 0c.6 1.7-.9 3.4-2.4 3.2 1.1 1.4 3.4 1 4-.9.2-.7-.3-2.3-1.6-2.4h0zm3.3-2.5c.5 2-.2 3.4-1.7 3.2 1 1.4 2.7 1.1 3.2-.7.3-.8-.2-2.2-1.5-2.5h0zm5.2-1.3c.5 1.8-1 3.7-2.5 3.3 1 1.4 3.5 1 4-.8.3-.8-.3-2.3-1.5-2.5h0zm-1.3-2.3c.5 1.9-.9 3.6-2.4 3.4 1.2 1.4 3.4 1 4-.9.3-.7-.2-2.4-1.6-2.5h0zm-5.7 1c.5 1.8-1 3.6-2.4 3.4 1 1.4 3.4.9 3.9-.9.3-.7-.3-2.4-1.5-2.5h0zm-3-1.1c.6 1.9-.9 3.6-2.4 3.4 1.1 1.3 3.4 1 3.9-.9.3-.8-.2-2.3-1.5-2.5h0zm34.7 31.5c-.5 1.9.8 3.8 2.3 3.4-1 1.2-3.3 1-3.8-1-.4-.6.2-2.1 1.5-2.4h0zm1.5-1.6c-.5 1.6 1.2 3 2.7 2.7-1 1.3-3.4 1-3.9-.8-.3-.7 0-1.8 1.2-2h0zm1.3-3.5c-.5 1.7 1 3.6 2.4 3.2a2.2 2.2 0 01-3.9-.8c-.3-.8.2-2.3 1.5-2.4h0zm-4-3.5c-.6 1.7 1 3.6 2.4 3.2-1.1 1.5-3.4 1-4-.8-.2-.8.3-2.2 1.6-2.4h0zm2.8-1.6c-.5 1.8.9 3.7 2.5 3.2-1.1 1.4-3.5 1-4-.7-.4-.8.2-2.3 1.5-2.5h0zm-3.6-2.3c-.7 1.9.8 3.1 2.3 2.8-1 1.5-3.3 1-4-1-.2-.7.3-1.5 1.7-1.8h0zm6-.1c-.5 1.7 1 3.5 2.5 3.2-1.2 1.4-3.4 1-4-.8-.3-.8.2-2.3 1.6-2.4h0zm-3.3-2.4c-.5 1.9.3 3.4 1.8 3.1-1 1.4-2.8 1.2-3.3-.6-.2-.9.3-2.2 1.5-2.5h0zm-5.1-1.4c-.5 2 .9 3.8 2.5 3.4-1.1 1.4-3.5.9-4-.9-.4-.7.3-2.2 1.5-2.5h0zm1.2-2.2c-.5 1.9 1 3.6 2.4 3.4a2.2 2.2 0 01-3.8-1c-.4-.7 0-2.3 1.4-2.4h0zm5.8 1c-.5 1.7.9 3.6 2.4 3.4-1 1.3-3.4.8-4-1-.3-.7.3-2.3 1.6-2.4h0zm3-1.1c-.6 1.8.9 3.6 2.4 3.3a2.2 2.2 0 01-4-.8c-.3-.8.2-2.3 1.6-2.5h0z" fill="#642864" stroke="#000" stroke-width=".4"/><path d="M252.3 134.6c1.5-1.8 3.3-3 5-2.4a21 21 0 01-2.5-13.8c.6 1.7 1 2 2 1.8.3-1.5 1.8-2.1 3-2.5.7.7 1 2.1.3 3.7.5-1.1 2-1.7 3-.3a4.4 4.4 0 01-.4 5.6c2.3.9 5.7-.6 6.8-4.5 1.2 1.2 1.2 1.7.5 3.2 1.4-1.1 3.7-.3 5.4 1.2 0 1.8-1.8 4.3-3.3 4.3 1.1.2 1.8 1 1.9 2.5-3.1-1.2-5.6-.5-8 1.5 2.7 1 3.2 2.2 3.7 3.7 0 1.3-1.3 1.8-2.3 1.8 1.2 0 1.8 1 2 2.7-1.3.7-2.4.2-3.5-.5-.8.8-.4 1.5-.3 3-3.6-1.2-6.3-7-7.5-11.2-1.8-.6-3.6.3-5 2.2-.6.7-1.6-1-.8-2h0zm-11.8 4.7c-.6-1.9-2-3.5-3.8-3.4 2.7-2 6.6-8 6.5-11.3-1 1.2-1.4 1.3-2.4.8.2-1.5-.8-2.3-1.8-3.1-.8.5-1.6 1.6-1.5 3.3 0-1.2-1.2-2.2-2.5-1.3a4.3 4.3 0 00-1.3 5.1c-2.3.2-4.9-2-4.6-5.8-1.5.6-1.8 1-1.4 2.6-.9-1.4-3.4-1.4-5.1-.6-.7 1.8 0 4.5 1.5 4.8-1 0-1.8.3-2.4 1.7 3.1-.2 5 1 6.6 3.7-2.6-.1-3.6.8-4.4 2-.2 1.4.7 2 1.7 2.5-1.2-.4-2 0-2.7 1.5 1 1.1 2 1 3.3.6.4 1-.1 1.5-.8 2.8 3.8.1 7.8-4.3 10-7.6 1.9 0 3.1 1.2 3.9 3.3.2.8 1.6-.5 1.2-1.6h0zm4.3 55.7a6.2 6.2 0 00-5.9-1.2c2-3 3.3-10 1.5-13-.4 1.5-.9 1.8-2.1 2-.5-1.3-2.1-1.7-3.5-1.8-.8.8-1 2.2 0 3.6-.6-1-2.4-1.3-3.4.1-.7 1.4-1.2 3.5.9 5.1a6 6 0 01-7.9-2.8c-1.3 1.3-1.3 1.8 0 3-1.8-.7-4.5.6-6 2 .2 2 2.2 3.8 4 3.6-1.2.4-2 1.1-2 2.6a9.1 9.1 0 019.2-.1c-3 1.2-3.5 2.5-3.7 4 .3 1.2 1.5 1.4 2.9 1.2-1.4.3-2.1 1.2-2 2.8 1.4.5 2.6-.1 3.9-1.3.7.8.5 1.4.3 3 4.2-1.8 6.5-7.6 7.3-11.8 2.1-1 4-.4 5.9 1 .7.6 1.7-1.3.6-2h0zm13-18.4c1.6.9 3.6 1.5 5 .5-1 3.1-1 9.6 1 12.4 0-1.5.3-1.8 1.4-2 .7 1.3 2 1.5 3.2 1.5.5-.8.5-2.3-.5-3.3.7.9 2 1 2.7-.4.4-1.3.4-3.5-1.6-4.7 1.6-1.3 5-.9 6.9 2.1.7-1.2.8-1.6-.3-2.7 1.5.6 3.5-.7 4.4-2.3-.4-1.7-2.4-3.4-3.9-3 1-.4 1.4-1 1.1-2.4-2.5 1.7-4.7 1.7-7.3.5 2-1.2 2.3-2.5 2.2-4-.4-1.1-1.5-1.1-2.6-1 1.1-.2 1.6-1 1.4-2.7-1.4-.3-2.3.4-3 1.4-1-.7-1-1.3-1-2.7-3 2-3.9 7.5-3.9 11.4-1.5 1-3.4.6-5-.5-.7-.7-1.1 1.1-.2 1.9h0zm35.9 24.2c-1.4-1.6-3.1-2.6-4.7-2 1.8-2.7 3.5-9.3 2.3-12.6-.5 1.5-.8 1.8-1.8 1.6-.4-1.3-1.7-2-2.8-2.3-.6.7-1 2-.2 3.5-.5-1-2-1.7-2.8-.4-.9 1.1-1.4 3.1.3 5.1-2.2.8-5.3-.6-6.3-4.1-1.1 1.1-1.2 1.6-.3 3-1.3-1-3.7-.4-5 1 0 1.6 1.5 4 3 4-1.2.1-1.7.7-1.8 2.2 2.9-1 5.1-.5 7.4 1.4-2.5.8-3 1.9-3.5 3.3.1 1.2 1.2 1.6 2.2 1.7-1.1-.1-1.7.8-1.9 2.3 1.2.7 2.2.4 3.3-.4.6.8.4 1.4.1 2.8 3.5-1 6-6.3 7.1-10.2 1.7-.6 3.3.3 4.7 1.9.5.7 1.4-.9.7-1.8h0zm10.9 4.3c.6-1.6 1.8-3.1 3.6-3-2.5-2-6.1-7.3-6.1-10.4 1 1.1 1.3 1.3 2.2.9-.2-1.4.8-2.3 1.8-2.9a3 3 0 011.2 3c.1-1.1 1.1-2 2.4-1.1 1 .7 2.2 2.4 1.2 4.6 2.1.1 4.5-2 4.3-5.4 1.5.7 1.6 1 1.3 2.4.8-1.2 3-1.2 4.7-.5.6 1.6 0 4-1.4 4.4 1-.1 1.7.2 2.2 1.5-2.8-.1-4.6 1-6 3.4 2.4-.2 3.2.6 4 1.8.2 1.2-.6 1.8-1.6 2.2 1-.3 1.9.1 2.5 1.5-.9.9-1.9.9-3 .5-.4.9 0 1.4.6 2.5-3.3.1-7-3.9-9.2-6.9-1.7 0-2.9 1.1-3.5 3-.2.7-1.6-.5-1.2-1.5h0zm-4 50.5c1.6-1.1 3.6-1.7 5.5-1-2-2.9-3-9.2-1.4-11.9.4 1.4.7 1.7 1.9 1.8.5-1.1 2-1.5 3.3-1.6.6.8.9 2 0 3.2.5-.9 2.1-1.1 3 .1.9 1.3 1.3 3.3-.7 4.8 2.2 1 5.8.5 7.2-2.6 1.4 1.2 1.4 1.6.3 2.7 1.6-.6 4 .5 5.4 1.9-.2 1.8-2 3.4-3.8 3.1 1.2.4 1.9 1 1.9 2.4a9.3 9.3 0 00-8.5-.1c2.7 1.1 3.2 2.2 3.5 3.6-.3 1.1-1.5 1.3-2.8 1.3 1.3 0 2 1 1.9 2.3-1.3.5-2.4 0-3.5-1-.9.7-.6 1.2-.5 2.7-3.8-1.8-5.9-7-6.6-10.8-2-.7-3.8-.4-5.5 1-.6.5-1.5-1.2-.6-1.9h0zm-12-16.7c-1.5.8-3.4 1.5-4.6.5.8 2.8.8 8.7-1 11.2-.2-1.4-.3-1.6-1.3-1.7-.6 1.1-1.9 1.2-3 1.2-.4-.6-.4-2 .5-2.9-.6.8-2 1-2.5-.3-.3-1.3-.3-3.2 1.5-4.4-1.6-1.1-4.6-.8-6.3 2-.8-1.1-.8-1.5.2-2.5-1.4.6-3.2-.6-4.1-2.1.4-1.5 2.2-3 3.6-2.7-.9-.3-1.4-1-1-2.2 2.3 1.5 4.4 1.5 6.8.5-2-1.1-2.3-2.3-2.2-3.5.5-1.1 1.4-1.1 2.5-1-1.1-.3-1.5-1-1.3-2.5 1.3-.3 2 .4 2.7 1.2 1-.5 1-1 1-2.3 2.7 1.7 3.6 6.7 3.6 10.2 1.4 1 3.1.6 4.8-.4.6-.6.8 1 0 1.7h0zm58.3-104.3c-1.5-1.8-3.4-3-5.2-2.4a21 21 0 002.7-13.8c-.7 1.7-1 2-2.2 1.8-.2-1.5-1.7-2.1-3-2.5-.6.7-1 2.1-.2 3.7-.5-1.1-2-1.7-3-.3a4.4 4.4 0 00.4 5.6c-2.3.9-5.6-.6-6.8-4.5-1.2 1.2-1.2 1.7-.5 3.2-1.3-1.1-3.7-.3-5.3 1.2 0 1.8 1.7 4.3 3.2 4.3-1.1.2-1.7 1-1.9 2.5 3.2-1.2 5.7-.5 8 1.5-2.7 1-3.2 2.2-3.7 3.7.1 1.3 1.4 1.8 2.4 1.8-1.3 0-2 1-2 2.7 1.2.7 2.3.2 3.5-.5.7.8.3 1.5.2 3 3.6-1.2 6.4-7 7.5-11.2 1.9-.6 3.6.3 5 2.2.6.7 1.6-1 .9-2h0zm11.7 4.7c.6-1.9 2-3.5 3.9-3.4-2.8-2-6.6-8-6.5-11.3 1 1.2 1.3 1.3 2.3.8-.2-1.5.8-2.3 1.8-3.1.9.5 1.6 1.6 1.5 3.3 0-1.2 1.2-2.2 2.5-1.3 1.1.9 2.4 2.8 1.4 5.1 2.2.2 4.8-2 4.6-5.8 1.5.6 1.7 1 1.4 2.6.8-1.4 3.3-1.4 5-.6.7 1.8 0 4.5-1.4 4.8 1 0 1.7.3 2.3 1.7-3-.2-5 1-6.6 3.7 2.6-.1 3.6.8 4.4 2 .2 1.4-.6 2-1.6 2.5 1.1-.4 2 0 2.6 1.5-.9 1.1-2 1-3.3.6-.3 1 .2 1.5.8 2.8-3.7.1-7.7-4.3-10-7.6-1.9 0-3.1 1.2-3.9 3.3-.2.8-1.6-.5-1.2-1.6h0zm-4.2 55.7a6.2 6.2 0 015.8-1.2c-2-3-3.2-10-1.5-13 .4 1.5.9 1.8 2.1 2 .5-1.3 2.2-1.7 3.5-1.8.8.8 1 2.2 0 3.6.7-1 2.4-1.3 3.4.1.8 1.4 1.3 3.5-.9 5.1a6 6 0 007.9-2.8c1.4 1.3 1.4 1.8.1 3 1.8-.7 4.4.6 6 2-.2 2-2.2 3.8-4.1 3.6 1.2.4 2 1.1 2 2.6a9.1 9.1 0 00-9.1-.1c2.9 1.2 3.5 2.5 3.6 4-.3 1.2-1.5 1.4-2.9 1.2 1.4.3 2.2 1.2 2 2.8-1.3.5-2.6-.1-3.8-1.3-.8.8-.5 1.4-.4 3-4.1-1.8-6.5-7.6-7.3-11.8-2-1-4-.4-5.8 1-.8.6-1.8-1.3-.6-2h0zm-13-18.4c-1.6.9-3.6 1.5-5 .5 1 3.1.9 9.6-1.1 12.4 0-1.5-.3-1.8-1.4-2-.6 1.3-2 1.5-3.1 1.5-.5-.8-.5-2.3.5-3.3-.8.9-2.2 1-2.8-.4-.4-1.3-.4-3.5 1.6-4.7-1.6-1.3-5-.9-6.8 2.1-.8-1.2-.9-1.6.2-2.7-1.5.6-3.5-.7-4.3-2.3.3-1.7 2.3-3.4 3.8-3-1-.4-1.3-1-1-2.4 2.4 1.7 4.6 1.7 7.3.5-2.2-1.2-2.4-2.5-2.3-4 .4-1.1 1.5-1.1 2.6-1-1-.2-1.6-1-1.3-2.7 1.3-.3 2.2.4 2.8 1.4 1.2-.7 1-1.3 1.2-2.7 3 2 3.8 7.5 3.8 11.4 1.5 1 3.4.6 5-.5.8-.7 1.1 1.1.3 1.9h0z" fill="#129612" stroke="#000" stroke-width="1.4"/><path d="M223.5 277.4l-2 .3c-2 .3-2.5.3-3.2 2.6-.3 1-1 2.5-1.6 3.2-1 1.3-2 3.8-1.7 5 .2 1.2 1.5 1.5 3.8 1 3-.6 3.7-.9 3.9-.2 0 .7-1.7 2.1-3.8 3.7-2 1.5-2.6 3-3 6.3 0 1.4-.2 3.5-.5 4.8l-.6 3.4c.3.7 4.6 1 7.3.6 4.3-.7 6.5-2.8 7-6.2.3-2.2 1.3-4.8 2.7-6.3 1.2-1.3 1.3-1 2.3 0 .9.8.5.7-.6 5.9-1 5-.6 7.1 1.2 8.6 1.4 1.2 3.1 1 3.7-.5.2-.7 1.1-2.5 2-3.5 1.9-2.6 2.3-4.5 1-7.4-.8-2-1.3-2.3-.6-2.3.2 0 .5.4 1.4 1.3 1 1 2.8 2 3.2 2 2.2 0 2.4-10 .2-11.3-1-.7-1.4.2-1.4 3.6 0 2.5.3 3.2 0 3.2-.6 0-.7-.6-1.2-2.2-.4-1.4-2.3-2-3.6-1l-1.3 1.1.1 5.4c.3 4 .4 3.7 0 3.7-.8 0-.6-.5-.9-4.8-.1-2-.4-4.1-.6-4.5a5.1 5.1 0 00-1.9-1.7c-1.2-.5-2-.6-3.4-.2-3 .8-6 4-7.8 7.6-1 2-1 2.5-1.7 2.1-.5-.1-.5 0 0-1.1.8-2 2.8-4.4 5.6-7.4 3.2-3.5 3.1-4.2 2.6-6-.6-2-1-2.8-4-3.2-1.7-.3-3.5-.2-3.5-.5 0-.8.8-1 4-1 3 0 3.3 0 3.9-.8.3-.5.7-1.2.8-1.7.4-1.4-.5-1.8-4.2-1.7h-3.6z" fill="#129612"/><path d="M217.5 277a32.8 32.8 0 00-4.7 11c0 2.5 3.3 4.1 5.7 2.7 1.5-.7 1.9-.7 1.3.1-.4.6-1.7 1.4-2.9 1.9-1.9.7-2.2 1.5-2.2 4.6 0 2-.6 2.6-.9 4.2-.1.5-.3 2.2-.3 3.8 0 4 3.2 5.4 9.7 3.8 3.8-.9 2.2-.4 4.9-2.1.9-1.7 1.6-3.4 2.3-5.6a12 12 0 012.2-4.6c.6-.4.8 0 .5.7-2.6 6.3-2.8 8.4-1.3 11.6 1.3 2.8 2 3.3 4.8 3.3 2.9 0 .9-.8 4-4.5 1-2.4 2.1-3.1 2.3-3.5.7-1.3.6-1.3.5-2-.1-1.6 1.6-1.3 2-1.3 3.7 0 5.1-8 2.5-13.1-1.8-3.5-2.5-3.5-5 0-3.8 5.1-11.4 3-11.4-3.3 0-1.5.7-3.4 1.5-4.3 1-1.2 1.2-2 .6-3.3-.8-1.3-2.5-1.7-7.9-1.9-6.3-.2-7 0-8.2 1.8zm14.2 1.7c-.7 2.6-2.2 3.6-5.3 3-1.8-.3-3.3 0-3.7.6-.5.6.3 1 2 1 3.2 0 4.5.8 5.3 3.5.5 1.6 0 2.7-2.8 5.1-3 2.7-6 7.2-6 8.8 0 1.6 2.2 0 3-2.3 1.3-3.8 6.7-7.9 9.5-7 2.9.8 3.4 2 3.4 7.1 0 2.6.5 4.5 1 4.5.7 0 .9-1.6.4-4.8-.4-3.6-.4-5 .6-5.6 2.1-1.4 3.6-1 3.6 1 0 1 .5 1.9 1 1.9.7 0 .9-1 .6-2.5-1-5 1.6-7 2.6-2.2.9 3.7-.2 8.4-1.8 8.4-.8 0-2-.9-2.7-2-1.8-2.5-3.3-1.4-1.7 1.1 1.7 2.7 1.4 5.4-.8 7.7-1 1.1-1.8 2.6-1.8 3.3 0 2-3.2 1.3-4.4-1-.7-1.6-.6-3.5.3-7 1.3-5.2 1-6.7-1.1-6.7-1.5 0-4.2 4.6-4.2 7.2-.1 4.4-4.1 6.5-11.3 6-2.5-.1-2.6-.3-1.7-3.7.4-1.9.8-4.8.8-6.3 0-2.1.8-3.3 3.3-5 3.7-2.6 4.5-5.4 1.2-4.2-4.4 1.4-5.9 1-5.6-1.5.2-1.3 1-2.8 1.6-3.3.7-.5 1.4-2 1.6-3.3.2-1.9 1-2.5 3.5-2.8 6.1-.9 9.9-.5 9.6 1z"/><path d="M182.7 183.4c-.2.6-.8 1-2.1 1.4-2.8 1-6.5 2.9-6.6 3.5 0 .3 1.3 1.5 2.9 2.5 4.2 2.8 4.3 2.3-.4 2.7-3.6.3-4.3 1.1-7 3.6a52 52 0 01-3.9 3.3c-.9.6-2 2.1-2.2 2.7-.2.8 1 1.5 3 3.5 2.5 2.3 4.7 3.3 6.2 3.3s3-.8 6.1-3.1c1.6-1.2 3.3-2.8 4.2-3 1.5-.6 1.4-.4 2.2.1 1.2.8 1.1 2 0 3.2a5 5 0 01-1.8 1.1c-.7 0-4.7 4.8-5.4 6.4-.9 2-1 3.8 0 4.4 1 .8 2 .8 3.1-.2.5-.5 2.1-1 2.3-1 1.3 0 2-1.3 3.4-2.5 1.7-1.6 3-2 3.4-4v-1.8c.6-.3 1 .4 1 1.5 0 4 3.5 5 5.3 1.4.4-.8 1.4-1.5 1.8-1.9.7-.8 1.7-3.6 1.4-4.2-.2-.7-1.8-.2-2.6.6-.4.5-1.4 1.6-1.9 2.6-.8 1.7-1.3 2.5-1.8 2 0-.1.7-.9 1-2 .6-2.3-.2-3-2-3-1.5 0-2.8.8-5 3.6-4 5.6-3.8 4.3 0-1.7 1.1-1.6 1.3-3.4 1.4-4 .2-1.1-1-3.5-2.1-4.3-1.4-.9-4.4-1.1-8.1.3-1.7.6-4.2 1.6-4.8 1.7-1 .2-.8.6-.3-.2 1.1-1.8 6.5-3.6 10-3.7 2.8 0 3.5-1 4.1-2.3 1.1-2.2 1.5-3-1-5.6-1.1-1.3-2.4-2.3-2.4-2.5 0-.6.7 0 2.4 1.2 2.5 2 3.5 2.4 5 2.4 1.7 0 4.4-1.3 4-2.2a7.6 7.6 0 00-2.3-2.1c-1-.4-2.6-1.5-3.7-2.4-3.4-2.6-6.2-2.9-6.8-1.3z" fill="#129612"/><path d="M181 182.1c-.6.8-2.5 1.6-4.2 2-4.4.8-6 5.5-2.4 6.6 2.7.8 2.2 2.1-.6 1.6-2-.4-3 .2-5 2.3-1.2 1.5-3.1 3-4 3.4-.9.3-1.6 1.2-1.6 1.9s-.7 1.8-1.4 2.5c-1.3 1-.9 1.8 3 5.3 2.5 2.2 5.2 4 6.1 4 2.3 0 6.4-2 8.6-4.5 1-1.1 2.4-2 3-2 .8 0-.2 1.6-2.3 3.5-4.6 4.4-6 10-3 11.5 2.6 1.4 8-.3 11.5-3.5 1.4-1.3 2.5-2 2.5-1.4 0 .5.7 1.3 1.5 1.6 1.7.6 5.1-1 5.1-2.5 0-.6.6-1.5 1.3-2 .8-.6 1.6-2.7 1.9-4.6l.6-3.6-4.2.6c-3.7.5-4.5.3-6.6-1.8-2-2-2.5-3.1-2-5.1.8-3 3.8-5.8 6.4-5.8 2.4 0 2-4.6-.7-6-1-.6-3-2-4.5-3.2-3-2.4-7.4-2.7-9-.8zm8 3c1.5 1.3 3.5 2.6 4.4 2.9 2.3.7 2 2.9-.8 3.3-1.5.4-3.1-.2-5-1.7-2.3-2.1-3.8-2.8-3.8-1.7 0 .2 1 1.5 2.5 2.7 2 1.7 2.3 2.6 1.8 4.6-.6 2.2-1 2.5-4.6 2.5-4 0-10.1 2.5-10.8 4.5-.2.7 1.4.3 3.8-.7 2.2-1 5.5-2 7.4-2 2.7 0 3.5.6 4.4 2.6 1 2.2.9 2.8-.6 4.9-2.7 3.7-4.1 6.7-3.2 6.7.5 0 2-1.7 3.5-3.8 1.8-2.8 3.2-3.7 4.6-3.6 2 .4 2.1.9 1 3.8-.4 1-.3 1.7.3 1.7.5 0 1.4-1.3 2-2.8 1-3.4 4.2-4 3.2-.8-.3 1.2-1 2.3-1.4 2.5-.5.1-.8.7-.8 1.3 0 .5-.8 1.6-1.6 2.2-2.2 1.5-4 .1-4-3 0-1.2-.4-2.2-1-2.2-.5 0-1 1-1 2.2 0 2.6-3.9 6.2-6.6 6.2-.8 0-1.8.5-2 1.1-.1.6-1 .9-1.9.5-1.2-.5-1.5-1.2-1-3.2.5-2.6 5.1-7.8 6.7-7.8 1.1 0 2.3-2.7 1.5-3.8-1-1.6-4-.9-7.1 1.8-5 4.4-7.6 4.5-11.9.6-3.6-3.4-3.7-3.4-1.9-5.2 1-1 2-1.8 2.5-1.8.3 0 1.6-1.1 2.9-2.6 1.7-2 3-2.6 6-2.6 5 0 5.4-1.4 1.2-3.6-1.8-1-3.3-2-3.3-2.5 0-.7 3.3-2.4 6.4-3.2 1-.4 2-1 2-1.5 0-1.7 3.5-.9 6.2 1.5z"/><path d="M413.3 185.8c-.7.3-2 .7-2.9 1.4-1 .8-3.6 2.2-4.6 2.8-2 1-1.4 2.2 0 3.2 1.6 1 4.3.8 7-1.2 3.8-2.9 3.8-2.8.5.4-2.3 2.2-2.2 3.4-1.5 5.4.6 1.8 1.5 2.6 4.3 2.6 3.3 0 8.4 2 10 3.8 1.3 1.5 1.1.4-4-1.5-3.3-1.2-7.6-1.5-9-.7-1 .8-3 4.3-2.7 5.4.1.5 1.5 2.2 2.6 3.8 1.9 3 2.4 4 2 4.4-.3.3-.6-.7-3-3.7-2.1-2.9-3.7-3.5-5.4-3.3-1 .1-.8.7-.8 2 0 .7.2 1.9.4 2.5.4 1.9-.9 1.3-2-1-1.3-2.4-2.3-4.2-3.2-4.2-1 0-.6 2.8.4 4.3.5.6 1 1.6 1.3 2.2.8 1.6 2.2 2.9 3.3 2.9 1.3 0 2-1 2.4-3.3.5-3 1.4-3.4 1.8-.7.4 1.9.9 2.8 2.5 4.4 1.3 1.3 3.3 2.3 4.4 2.3.4 0 1.1.4 1.6.9 1 .9 1.6 1 2.6.5.8-.5 1.6-2.2.8-4-1-2.3-4.6-6.4-6.5-7.2-1-.4-1.8-1.6-1.7-2.8.1-.5.2-1 .7-1.2 1.3-.6 2.9.2 6.3 2.7l3.8 2.5c1.6.8 4 .8 5.8-.3 2-1.1 5.8-4.7 5.8-5.4 0-.9-1-2-2.6-3.2-.8-.5-2.5-2-3.6-3-2.5-2.4-3.1-3-6.7-3.4-3-.3-4.1-.3-3.8-1.2.1-.3 1.2-1 2.9-2.1 2.7-1.8 2.8-2 2.3-2.5-.5-.7-3-1.8-6-3-1.1-.4-1.8-.8-2-1.4-.4-1-1.6-1-3.5-.1z" fill="#129612"/><path d="M418.7 184.5c.6.7 2.5 1.6 4.2 1.9 4.4.8 6 5.5 2.4 6.6-2.7.9-2.2 2.2.6 1.6 2-.4 3 .2 5 2.4 1.3 1.5 3.1 3 4 3.3 1 .3 1.7 1.3 1.7 2s.6 1.8 1.4 2.4c1.2 1 .8 1.8-3 5.3-2.6 2.2-5.3 4-6.2 4.1-2.3 0-6.4-2.1-8.5-4.6-1-1.1-2.5-2-3.1-2-.8 0 .3 1.6 2.3 3.5 4.6 4.4 6.1 10 3 11.6-2.6 1.4-8-.3-11.5-3.6-1.4-1.3-2.5-2-2.5-1.4 0 .6-.7 1.3-1.5 1.6-1.7.6-5-1-5-2.5 0-.5-.6-1.5-1.4-2-.7-.6-1.6-2.6-1.9-4.6l-.6-3.6 4.2.6c3.7.5 4.5.4 6.6-1.8 2-2 2.5-3 2-5-.7-3-3.8-5.9-6.4-5.9-2.4 0-2-4.6.7-6 1-.5 3-2 4.5-3.2 3-2.3 7.4-2.7 9-.7zm-8 2.9a16.6 16.6 0 01-4.4 2.9c-2.3.7-2 2.9.8 3.4 1.6.3 3.2-.2 5-1.7 2.4-2.2 3.9-2.8 3.9-1.8 0 .3-1.2 1.5-2.6 2.7-2 1.7-2.3 2.6-1.7 4.6.5 2.3 1 2.6 4.5 2.6 4 0 10.2 2.5 10.8 4.5.2.6-1.4.2-3.7-.8-2.3-1-5.6-1.9-7.4-1.9-2.7 0-3.6.5-4.5 2.6-1 2.1-.9 2.8.6 4.8 2.7 3.7 4.2 6.7 3.2 6.7-.5 0-2-1.7-3.4-3.8-2-2.8-3.2-3.7-4.6-3.5-2 .4-2.2.8-1 3.7.3 1 .2 1.7-.3 1.7-.6 0-1.5-1.3-2-2.8-1.1-3.4-4.3-4-3.3-.7.3 1.2 1 2.2 1.4 2.4.5.2.9.7.9 1.3 0 .6.7 1.6 1.5 2.3 2.2 1.5 4 0 4-3 0-1.3.4-2.3 1-2.3.5 0 1 1 1 2.3 0 2.5 3.9 6.1 6.6 6.1.8 0 1.8.5 2 1.2.1.5 1 .8 2 .4 1.1-.4 1.4-1.2 1-3.1-.6-2.7-5.2-7.8-6.8-7.8-1.1 0-2.2-2.8-1.5-3.9 1-1.6 4-.8 7.1 1.8 5 4.4 7.6 4.5 12 .7 3.6-3.4 3.7-3.4 1.8-5.3-1-1-2-1.8-2.4-1.8-.4 0-1.7-1.1-3-2.6-1.7-2-3-2.5-6-2.5-4.9 0-5.4-1.4-1.2-3.7 1.8-1 3.3-2 3.3-2.4 0-.8-3.3-2.5-6.3-3.3-1.2-.4-2.1-1-2.1-1.5 0-1.7-3.5-.9-6.2 1.5z"/><path d="M368.2 278.1c-1 .4-1.1.7-.6 2 .7 1.7 1.5 2.6 4 2.4 2.6-.3 3.6-.2 3.8.5.3.7.7.3-2 .6-2.2.2-3 .8-3.8 1.7-2.1 2.3-1.8 4 1.8 7.9 4 4.3 5.3 3.5 6 8.2-.5.7-1 0-2.2-2.1-2-3.8-5.4-7.2-8.2-7.7-1.5-.3-4.6 1-5.1 2.2-.3.5-.2 2.9-.3 5-.3 3.9-.2 5-.9 3.9-.4-.7-.3-.5.1-4 .5-3.5.3-5.6-1-6.2-1.6-.9-3.2-.2-3.4 1-.3 1.2-1 2.5-1.4 2.6-.2 0-.4-1.3-.4-3.2 0-1.8-.3-3.5-.5-3.7-1.3-1.6-2.4 1.3-2.2 5.6.2 5.2 1.5 6.1 4.3 3.2 1-1 1.6-.8 1.8-.8.7 0 .3.2-.6 2.1-1.3 3-.8 4.7 1 7.5.9 1.2 1.8 2.7 2 3.4.7 1.6 2.9 1.4 4.4 0 1-.8 1.2-1.4 1.3-3.4.1-1.4-.4-3.1-.8-5.1-1.2-4.9-1.5-6.1.4-6.1 1.7 0 3.7 3.7 4.2 7.4.5 3 2.5 4.8 6.3 5.6 2 .4 5 .4 6.6 0 1.3-.2 1.4-.8.6-5-.3-1.4-.5-3.6-.6-4.4 0-2.5-.4-3.8-3-6-4-3.4-5-4.4-1.2-3.4 4 1 5.7 0 5.3-2.3-.1-.7-1-2-1.6-3-.6-1-1.2-3.1-1.4-4-.3-1-1.4-2-1.8-2.2-1.3-.9-9.2-.9-10.9-.2z" fill="#129612"/><path d="M381.4 277.6c2.3 3.5 4.7 9.2 4.7 11.1 0 2.4-3.3 4-5.7 2.6-1.5-.7-1.9-.7-1.3.1.4.6 1.7 1.4 2.9 1.9 1.9.7 2.2 1.5 2.2 4.6 0 2 .4 4 .9 4.2.4.3.8 2 .8 3.9 0 3.9-3.9 4.5-7.8 4.5-3.4-.6-5.5-1.7-7.3-2.6-1-1.7-1.6-3.7-2.3-5.9a12 12 0 00-2.2-4.6c-.6-.4-.4 3.5 0 4.3 2.5 6.4 1 3.7.7 8.9-1.6 1.6-2.4 2.4-4.7 2.2-2.3 0-2.6-1-4-3-1-2.4-3.5-7-3.4-5.2 0 .5-1-2.9-1.5-2.9-3.6 0-5-8-2.4-13 1.8-3.6 2.4-3.6 5 0 3.8 5 11.4 3 11.4-3.4 0-1.5-.7-3.4-1.5-4.3-1-1.2-1.2-2-.6-3.3.8-1.3 2.5-1.7 7.9-1.9 6.3-.2 7 0 8.2 1.8zm-14.2 1.7c.6 2.6 2.1 3.6 5.2 3 2-.3 3.4 0 3.8.6.4.6-.3 1-2 1-3.3 0-4.5.9-5.3 3.5-.5 1.6 0 2.7 2.8 5.1 2.9 2.8 6 7.2 6 8.8 0 1.7-2.2 0-3-2.3-1.3-3.8-6.8-7.9-9.5-7-2.9.8-3.4 2-3.4 7.1 0 2.6-.5 4.5-1 4.5-.7 0-1-1.6-.4-4.8.4-3.6.3-5-.6-5.6-2.2-1.4-3.7-1-3.7 1 0 1-.4 2-1 2s-.8-1.1-.5-2.6c.9-5-1.6-7-2.7-2.2-.8 3.7.3 8.5 2 8.5.7 0 1.9-1 2.6-2.1 1.8-2.4 3.3-1.4 1.7 1.1-1.7 2.7-1.4 5.5.8 7.7 1 1.1 1.8 2.6 1.8 3.3 0 2 3.2 1.3 4.3-1 .8-1.6.7-3.5-.2-7-1.4-5.2-1-6.7 1-6.7 1.6 0 4.3 4.6 4.3 7.2 0 4.4 4.1 6.6 11.3 6 2.4-.1 2.5-.3 1.7-3.7-.5-1.8-.8-4.7-.8-6.2 0-2.2-.8-3.4-3.3-5.1-3.8-2.5-4.5-5.4-1.2-4.2 4.4 1.4 5.9 1 5.6-1.5-.2-1.3-1-2.8-1.6-3.3-.8-.5-1.4-2-1.6-3.3-.2-1.9-1-2.4-3.6-2.8-6-.9-9.8-.5-9.5 1z"/><path d="M300.4 73.8a7 7 0 017 7.1 7 7 0 01-7 7.1 7.1 7.1 0 010-14.3h0zM194 227a8.2 8.2 0 01-8.4-8.1 8.4 8.4 0 1116.7 0 8 8 0 01-8.3 8.1h0zm.1-36.1a8 8 0 018 8 8 8 0 01-8 8.1 8 8 0 010-16.1h0zM179 171.8a8 8 0 017.9 8 8 8 0 01-7.9 8 8 8 0 01-8-8 8 8 0 018-8h0zm241 4.3a9.3 9.3 0 00-9.4 9.2c0 5.2 4.3 9.4 9.4 9.4a9.3 9.3 0 000-18.6h0zm-16.5 50.4c4.6 0 8.5-3.9 8.5-8.6 0-4.7-3.9-8.5-8.5-8.5a8.6 8.6 0 00-8.6 8.5c0 4.7 3.9 8.6 8.6 8.6h0zm1.1-35.4a8.6 8.6 0 010 17.3 8.5 8.5 0 01-8.4-8.7c0-4.7 3.7-8.6 8.4-8.6h0zm-33.4 78a6.4 6.4 0 00-6.4 6.4 6.4 6.4 0 106.4-6.4h0zm-10.2 8.3c3.7 0 6.8 3 6.8 6.9a7 7 0 01-6.8 6.8 7 7 0 01-6.9-6.8c0-4 3.1-7 6.9-7h0zm-12.1 7.6a8.5 8.5 0 010 16.9 8.5 8.5 0 010-16.9h0zM224 268.4a7 7 0 010 14.1 7.1 7.1 0 01-7.1-7.1c0-3.9 5.6-7 9.4-7h-2.3zm13.6 7.1a8 8 0 000 16.1 8 8 0 100-16h0zm13.2 23.3c-4 0-7.3-3.3-7.3-7.2 0-4 3.3-7.2 7.3-7.2s7.3 3.2 7.3 7.2-3.3 7.2-7.3 7.2h0z" fill="#ffd300" stroke="#000" stroke-width="1.4"/></svg>