<svg xmlns="http://www.w3.org/2000/svg" width="600" height="400" version="1.0"><path d="M-2214.2 2029z"/><path d="M0 400h600V0H0v400z" fill="#76a1a0"/><g fill="#fff"><path d="M163 359.9c0-2.3-.5-2.7-1.8-2.7h-.6v-1h9.1c5.9 0 9.5 3.7 9.5 8.3 0 4.4-3 8.2-8.7 8.2h-10v-1h.7c1.3 0 1.7-.5 1.7-2.7v-9.1zm4.9 8.7c0 2.2.8 2.7 2.3 2.7 2.7 0 3.6-2.7 3.6-6.8 0-4.8-1.3-7-4.4-7-1.2 0-1.5.1-1.5 1v10M193.2 367.2H192c-.2-1.4-1-2.5-2.7-2.5h-.8v3.8c0 2 .6 2.8 3.2 2.8 3 0 4-1.2 4.8-4.1h1v5.5h-16.3v-1h.6c1.4 0 1.8-.5 1.8-2.7v-9.1c0-2.3-.4-2.7-1.8-2.7h-.6v-1h15.6v4.7h-1.1c-.7-2.5-1.6-3.4-5.2-3.4-1.9 0-2 .1-2 .8v5.1h.8c1.8 0 2.5-1 2.7-2.6h1v6.4M214.7 356h1.4l.2 5.6h-1.4c-.5-2-1.8-4.2-4.6-4.2-2.7 0-4.7 1.8-4.7 7.1 0 4.7 2 6.8 4.7 6.8 3 0 4.4-2.4 4.8-4.5h1.5v5.8h-1.5l-.5-1.4c-1.2 1-3.3 2-6 2-4.6 0-8.4-3.2-8.4-8.7 0-5.3 3.7-8.8 8.7-8.8 2.3 0 4.2.9 5.4 1.7l.4-1.4M230.9 367.2h-1.1c-.2-1.4-1-2.5-2.6-2.5h-.8v3.8c0 2 .6 2.8 3.2 2.8 2.9 0 4-1.2 4.7-4.1h1.1v5.5H219v-1h.6c1.4 0 1.8-.5 1.8-2.7v-9.1c0-2.3-.4-2.7-1.8-2.7h-.6v-1h15.6v4.7h-1c-.8-2.5-1.6-3.4-5.3-3.4-1.8 0-2 .1-2 .8v5.1h.9c1.7 0 2.4-1 2.6-2.6h1v6.4M253.6 356.2a86 86 0 007 0v1h-.6c-1.3 0-1.7.4-1.7 2.7v9c0 2.3.4 2.7 1.7 2.7h.6v1a137.3 137.3 0 00-9.1 0v-1c1.5 0 2.2-.4 2.2-2.6v-9h-.1l-5.4 12.6h-1.3l-5.5-12.9v8.6c0 2.9.7 3.3 2.4 3.3v1a64.4 64.4 0 00-6.2 0v-1c1.5 0 2.2-.7 2.2-3.3v-8.4c0-2.3-.4-2.7-1.7-2.7h-.6v-1h7.2l4.6 10.4 4.3-10.4M264.5 359.9c0-2.3-.4-2.7-1.8-2.7h-.6v-1H272.2c4.2 0 5.9 1.7 5.9 3.9 0 2.5-2.5 3.7-5.3 4v.1c4 .4 6.2 1.6 6.2 4.3 0 2.6-2 4.2-6.6 4.2H262v-1h.6c1.4 0 1.8-.5 1.8-2.7v-9.1zm5 9.6c0 1.2.5 1.8 2 1.8 1.7 0 2.6-1.3 2.6-3 0-1.9-1-3.4-3.6-3.4h-1v4.6zm0-6h1c1.9 0 3-1.2 3-3 0-2-1.4-3-3-3-1 0-1 .2-1 .8v5.3M293.1 367.2h-1c-.3-1.4-1-2.5-2.7-2.5h-.8v3.8c0 2 .6 2.8 3.2 2.8 3 0 4-1.2 4.8-4.1h1v5.5h-16.3v-1h.6c1.3 0 1.8-.5 1.8-2.7v-9.1c0-2.3-.5-2.7-1.8-2.7h-.6v-1H296.9v4.7h-1.1c-.7-2.5-1.6-3.4-5.3-3.4-1.8 0-1.9.1-1.9.8v5.1h.8c1.7 0 2.4-1 2.6-2.6h1.1v6.4M307.5 369c0 2.2.4 2.6 1.7 2.6h.7v1a147.7 147.7 0 00-9.8 0v-1h.7c1.3 0 1.7-.4 1.7-2.6v-9.1c0-2.3-.4-2.7-1.7-2.7h-.7v-1h10.2c4.5 0 6.5 1.5 6.5 4 0 2.4-1.5 3.6-3.9 4l4.7 6c.8 1.1 1.1 1.4 1.8 1.4v1a52.6 52.6 0 00-5.4 0l-5.3-7.3h-1.2v3.7zm0-5.1h1.1c2.1 0 3.2-1 3.2-3.2 0-2.4-1.1-3.2-3.3-3.2-.8 0-1 .2-1 1v5.4M332.3 355.6h1.3l-.2 1.5c0 .7.3.8 1 .8h11.2v1c-2.6 5.6-5 11.8-5.7 17.2-.3 2.9-.7 5-3.1 5-1.6 0-2.4-1-2.4-2.4 0-3.6 5.1-10.8 8.4-16.8h-8c-1.9 0-2.3.5-3.1 3.4h-1.4l2-9.7M349.5 377.4c2-1.4 3.9-2.5 4-5.2-.5.3-.9.7-1.5.7-1.4 0-2.5-1.4-2.5-2.8 0-1.6 1-2.7 2.7-2.7 2.3 0 3.3 2.1 3.3 4 0 3.4-2.6 5.8-5.5 7l-.5-1M369.9 358.1h1c2.4 0 4.7-.2 6-.5h1v11.6c0 1.9.4 2.3 3.2 2.3v1.2a195.6 195.6 0 00-11.2 0v-1.2c2.9 0 3.1-.6 3.1-2.5v-7.6c0-1.7-.2-2-3.1-2V358M388.4 355.6h1.2l-.1 1.5c0 .7.2.8 1 .8h11.2v1c-2.6 5.6-5 11.8-5.7 17.2-.4 2.9-.8 5-3.2 5-1.5 0-2.4-1-2.4-2.4 0-3.6 5.2-10.8 8.4-16.8H391c-2 0-2.3.5-3.1 3.4h-1.4l2-9.7M412.7 373c-4.6 0-7.4-2.6-7.4-5.8 0-2.5 1.4-4.1 4.5-5.5-2.9-1.7-3.8-3.7-3.8-6 0-3.5 2.8-6.3 7.2-6.3 4 0 6.7 2.2 6.7 5.2 0 2-1.2 3.6-3.5 4.7 2.7 1.7 4.3 3.6 4.3 6.6 0 4.3-3.2 7.1-8 7.1zm4-18c0-2.6-1.6-4.2-3.9-4.2-2.2 0-3.4 1.4-3.4 3.2 0 2.1 1.5 3 5.7 4.7a5 5 0 001.6-3.6zm-5.5 7.3a5.3 5.3 0 00-2.3 4.7c0 3 1.5 4.7 4.2 4.7 2.9 0 4.2-2 4.2-4 0-2.4-1.7-3.7-6-5.4M426.1 355.6h1.3l-.2 1.5c0 .7.3.8 1 .8h11.2v1c-2.6 5.6-5 11.8-5.7 17.2-.3 2.9-.7 5-3.2 5-1.5 0-2.3-1-2.3-2.4 0-3.6 5-10.8 8.4-16.8h-8c-1.9 0-2.3.5-3.1 3.4H424l2-9.7"/></g><path d="M514 200L300 65.6 86 200l214 134.4L514 200" fill="#f0dc82"/><path d="M268.3 223.8h68.4s-15.9 12-33 11.6c-17.2-.3-29.9-6.1-35.4-11.6M350.4 222s-.6-2.7-.8-4.8c-.2-2 .4-2.8 0-4.7-.5-2-1.5-5.2-1.8-7-.3-1.9-.3-3.4-.3-3.4s-2.4-.3-2.8-1.7c-.5-1.4-.2-1.5 1-5 1.1-3.7 2.8-7.6 2.4-11.5 0 0 1-.8 1.7-3.6 0 0 4.5 1.9 6.5-.5 2-2.3 3.3-3.5 4-8.1.8-4.6.2-2.8-1.4-1-1.6 1.8-5.7 3.1-7.7 1.3 0 0-.4-4.7-1.7-7.5-1.3-2.8-1.5-3.8-1.5-3.8s-.6 1-2 2.2c-1.4 1.2-2.3 1.4-.5 3.4 1.9 2 4 5.3 4 5.3s-1.6.2-2.4 3c-.7 3 .4 6.8.4 6.8s-7.2-2-10.4-8.2c0 0 1.8-2.9 1-8.5s-1.4-7-1.4-7l5.3-6.3c3-3.6 2-5.2 3-6a5 5 0 001-1s-3-2.3.4-2.8 5.8 0 7.8-.2c2-.1 3.2-1.4 4.7-1.6 1.4-.1 1.9-.8 1.9-.8s1.5 3.7 3.6 5.5c0 0 3.9-3.4 6.5-5 0 0 2.4 2.4 7.6 4.3 5.1 2 6.3 2.6 5.6 3.9-.6 1.3-.1.5-.1.5s2.2 5 1.1 11.5l-1.5 9.8s1.8 1.1 2.3 4.6c.5 3.6 6.5 12.7 6.5 12.7s-3.4-2-6 0-1.6 5.1-1.6 5.1-1.5-2.4-3.3-6c-1.7-3.7-3.4-6-3.4-6s-2.4 1.5-.6 7c1.8 5.4 6.1 13.5 4.5 14.5-1.6 1-4.2 1.3-4.2 1.3s1.5 4.5 1.5 11.2v-.8l-6 12.3s-1.6 0-3.4-.3c-1.7-.2-3.2-1.8-3.2-1.8l.1-.4s.8-1.1.2-4.8c-.7-3.7-3.1-9.8-3.1-9.8s-.2 2.7-1.5 6.3c-1.3 3.5-1.4 5-1 7.5 0 0-3.5 5.7-11.4 1.4l.4-1.5" fill="#3f863f"/><path d="M329.8 228c1.3-.1 2.3-.4 2.7-.6.7-.5 1.5-1.3 2.2-2.2-1.2.8-2.8 1.8-4.9 2.9M272.9 227.4l2.9 2.5h1.9c-1.8-.8-3.4-1.6-4.8-2.5M333.7 195.2c-12 3.9-13.7 2.7-21.7 1.4-8-1.3-14.9-2-22-.3-7 1.5-8.7 2.2-21.1.7a32 32 0 00-6.1 9.9c-2.2 5.2.7 11 6.5 17h66.4c2.4-4 4.3-10 4.5-16 .2-5.4-3.5-10-6.5-12.7M235.5 134s-.4-.1-.8-2.8c-.4-2.6 1.5 0 1.5 0l1.7-2.1s-.1.5-1-1.4c-.7-1.8 2.2-5 4.2-5.2 0 0-7.2 1.4-9.8 2.8-2.7 1.3-4.5 3.6-3.5 5.1 1.1 1.5 2.8 3.6 3.9 5.8M365 125s-.6 1.2.2 1.5c.7.2 2.1.5 1.5 2-.7 1.7-1.2 3-.8 3.6l.7.9s.4-1.4 1-2.3c.5-.8.3-.4 1-.5.8-.1 1.3-.3.8 1.2-.6 1.5-.8 2.9-1.4 2.6l-1.3-.2s-.2.9 1 1c1.4.1 3.8 1.8 3.8 1.8s2.6-1 3-2.2c.3-1.3 1.4-4 .6-5.7-.7-1.7-1.6-2.2-4.2-3.2s-5.8-.4-5.8-.4M303.6 122.6H295M295 122.6h-9.2c.1-5.1 1-6.4 1-6.4h.4c.1-4.8 1-6.1 1-6.1l-.1-.3c0-5 1-6.3 1-6.3h-.2c.1-5 1-6.3 1-6.3l6 .2c-1.5 2.2-.8 6-.8 6l1 .3c-1.1 1.8-1 4.6-.8 5.7l1 1h.4c-.3-2.8.2-5.2.4-5.8.1-4.1.7-6 .7-6l6 .3c-1 1.5-1 4.2-.8 5.7h1.3c-1.2 1.7-.7 4.6-.4 6h.4l-.3.4v.3h-.1l-.3.7h2c-.6 0-1-.2-1.1-.2-.7-3.6.6-5.8.6-5.8h.7-.7c.1-5.1.6-5.7.6-5.7l6.1.2c-1 1.5-.9 4.2-.7 5.7h1.2c-1 1.5-1.2 4.3-1.2 6h1.6c-.8 1-1 2.5-1.1 3.7l4.7-2.3c-2.3 6.8 2 9.7 2 9.7L307 123M363.9 261.6l3-2.3 2.5.8 10-1.1.1.2c-.7.7 0 2-.1 3 0 1.7-.2 3.5 1.3 4.7.4.8.6 2 1.1 2.7.3 1 1 2.2.3 3.4.3 1.8-1.3 3.1-2 4.8-.6-.2-.5-1.1-.9-1.6a11 11 0 00-6.4-5.4l-.9-.6-.4.6c-2 3.7-7.4 4.1-9.4 8-2.3-3.6-.9-8 1.5-11.4.7-1.5 1.2-3.8.1-5.4M292.2 94.6l-4-1.7 1.7-.2 2.5.7-.2 1.2M300.6 94.8l-4.1-1.8 1.8-.1 2.4.6-.1 1.3M308.4 98.2l-4-1.8 1.7-.1 2.5.6-.2 1.3" fill="#fff"/><path d="M288.4 107l-11.7 13.6 7.4 3.6 1.6-2s.6-5.4 1.1-6c.6-.7.2-1.7.4-3a23 23 0 011-3.1l.3-3.9" fill="#fff"/><path d="M268 196.9c13.3 1.6 14.9 1 22-.6s14-1 22 .3c8.1 1.3 9.8 2.6 22.4-1.6-3.9-2.3-3-2.3-5.8-6.7-3-4.5 2.2-9.7 2.2-9.7-6.4 2-10.3 2-20 0-9.8-1.9-14.3-1.3-21.1.3-6.8 1.7-8.8 2-18.5 1.3 1.6 5.5 3.3 11.3-3.2 16.7M280.3 133.8s-.3-.9 1-1h6.6c.8 0 1 .1 1.8 1.2l3.3 4.4s.3.9-2 .9h-5.6c-1.2 0-1.3-.2-1.8-.8a150 150 0 01-3.3-4.7M299.2 133.8s-.3-.9 1-1h6c.7 0 1 .1 1.7 1.2l3.3 4.4s.4.9-2 .9h-4.8c-1.3 0-1.3-.2-1.8-.8-.5-.5-3.4-4.7-3.4-4.7M316.6 133.8s-.3-.9 1-1h5.4c.8 0 2.3 0 3 1 .8 1.1 2.2 3.9 2.2 3.9s.7 1.6-1.6 1.6h-5c-1.1 0-1.2-.2-1.7-.8-.5-.5-3.3-4.7-3.3-4.7" fill="#006fff"/><path d="M330.8 178.6c-6.4 2-10.3 2-20 0-9.8-1.9-14.3-1.3-21.1.3-6.8 1.7-8.8 2-18.5 1.3 0 0-8.4-14-5.8-18.9 2.6-4.8 4.9-11.5 12.3-11.5 7.5 0 37-.7 43.7.3 6.8 1 12 8.3 13 15 1 6.8-.6 9-3.6 13.5" fill="#ffb93c"/><path d="M225.7 244.2l-1.1-.7s.4-4-1.3-10.9c-1.8-6.8-5-15.6-3-21.1 1.9-5.6 3.6-15 4.3-19.3.6-4.3.4-8.5.4-10s1-3.5 1-3.5 4.6-.2 7.4-1.2a49 49 0 004.1-1.8s.5.9 4.6 1.1c4 .2 8-.6 8-.6l1 2.3s-1.3 3.7.7 4.7c2 1.1 3 2.4 3 2.4s1.5 1.7.9 8.5c-.7 6.9-.6 4.5-1.1 8.2-.7 4.4-.2 4.4-1 7.9-1 3.4-1.8 4-.5 10.4 1.3 6.5 2.4 7.3 2.4 13.3 0 6 .6 10.3-.3 12.2-.8 2-1.5 1.7-1.5 1.7l.4-.4c-2.9 1.5-9.4.6-9.4.6s-2-.8-1.8-3.2c.2-2.4 1.5-4 0-9-1.5-4.9-1.7-6.2-1.5-10 .2-3.9-.2-4.5-1.3-8-1-3.4-.8-8.7-1.3-10.4-.4-1.7-1-2.8-1-2.8s-.5 3.6-1.6 5c-1 1.2-.6 1.9-1.7 3.8-1 1.9-1 3.4-.9 4 .3.7 0 2.6 0 2.6s1.3 2 1.8 6c.4 4 .4 2.1 1 7.9.7 5.8 2.6 12.4 1.6 12.4-1.1 0-1.1.4-1.1.4-5.3-.9-8.5-2-11.2-2.5" fill="#4f3636"/><path d="M226.5 178.3c-2.6-.8-3.7-3.4-4-6 0 0 0 1-4 .7-3.9-.5-4.7.2-6.2-3.9-1.6-4-4.6-13-4.8-14.1-.2-1-.6-1.7 0-3 .7-1.3 0-2.1 1.3-2.3 1.3-.3 2-.7 2-.7s.2 1-.5 2.4c-.6 1.2-.4 1.5.7 2.7l1.7 2.2s.6-1.3 1.5-2.4c.9-1 2.6-2.3 2.6-2.3l1 5.8s1.4-2.6 2-5.6c.7-3 1.3-6.8 1.1-8.1-.2-1.3.2-2.2 2-2.6 1.7-.4 2.1 0 2.5-1 .5-1.1 1.5-.7 2.8-1.6a252 252 0 003.5-2.3s0 .8 1.7 3a15 15 0 003 3.2c1 .6 2.2.6 2.6-.4.5-1.1 1.3-2.2 1.5-3.5l.5-1.9s2.1 1.5 4.3 2c2.2.4 2.6.1 3.5 1 .8.9 1 1.7 2.3 1.3 1.3-.4 2.6-.2 4 2.3 1.2 2.6 1.2 2.8 2 3.7 1 .8 1.2.6 1.8 3 .6 2.3 3.5 6.6 3.9 8.5.4 2 .3 4.5.3 4.5l-.2 6.2 3.8 6.2s.4-.8-1.3 1c-1.7 2-2.6 4-5.4 5.6l-4.1 2.6-2.2-2.8c-1-1.5-1.5-2.1-2.6-3l-.6-2.3 3.4-3c2.8-.7 4.4.2 2.4-2.8-2-3-2.8-3.4-3.2-5.1l-.5-2s-1.9 2.2-.6 3.7c1.3 1.5 1.3 2.3 1.5 3.6l.2 2.4-2.8 3.2s-10.1 1-13.4-.9c-2-1 1.1 2-11 2.8" fill="#a8393a"/><path d="M319 223.8c.2-.8.8-1.7.7-2.6.3-1.3.9-2.9.6-3.9-2.1-2.7-1.8-6-1.1-9.1.4.6.6 1.4.7 2.2.4 3.3.1 7 3 9.2.9-.2 1.6.3 2.5.5-.3-2.4-3.4-2.7-3.5-5.3-1-3.7.1-8.3-2.6-11.7-1.7-.7-4.2-.1-6-.1-3.8.1-8.6 1.3-12.5-.1-2.2-1.8-6-.4-8.5-1.6-2.4-.5-.3-2.8-2.2-3.8-1.1.3-.5 1.5-1.3 2a5 5 0 01-5.2-.5v-.2c-.7.4-.5 1.3-.6 1.8.3 1.1 2.5 1 1 2.3-.7.7-1.9 1.4-2.9 2-.5.6 0 .9 0 1.3.2 1 .5 1.5 1 1.8 1.6.2 4-.6 5.7.5 1.3.3 2.4 1.7 2.8 2.9 1.2 2.1 1.5 5 4.2 6 0 2.1 0 4.6-2.2 5.5-.3.4-.4 1-.8 1h3.4c1.2-1.2.4-3 1.5-4.4.6 0 .8.8 1 1.3.7 1.1-.8 2-.8 3.1h2.7c0-.9.8-1.8.3-2.9-.3-1.3-1-2.7-.6-4 2-.7 3.7-.3 5.8-.3l.5.6c1-1 2.4-1.4 3.7-1.9.5.9 0 2 .3 3a7.6 7.6 0 01-3.1 4.5l-.4 1h3.5v-.4c1-2.5 3.9-2.9 4-5.8.1-.6.9-.5 1.3-.4.6.6 1.6.3 1.9 1.2.6 1.8 0 3.9-1.3 5.1l-.3.2h3.8M253.7 247.8l3 1.3s-1.7 2.8-5.3 3.4c-3.7.6-6.5.2-6.5.2s-1.3-.4-.9-2.1l.7-2.6c3.8.6 7.3.3 9-.5M236.8 247l1.5 3.8-7.4-3.4s-.2 0-2.1 1.3c-2 1.3-4.6.9-6.3 1.5-1.7.6-3 1-3.2 2.1l-2.9-1.7c-.2-1.3-1.5-.8 1.1-2l4.8-2c1.7-.9 3.2-2.2 3.2-2.2 3.5 1 11.3 2 11.3 2" fill="#863f3f"/><path d="M236 249.8l-21.3-110.4 7-1.2-1-5.5c-.2-2.3-2.1-4-4.4-4-2 0-3.7 1.3-4.2 3l-.8.1a4.5 4.5 0 00-7.7 3c0 .4 0 .9.2 1.3l.9 5 7.7-1.3 20.8 108.4 2.8 1.6M368.6 247.8s2.6-7.5 3.8-10c1.3-2.5.8-1.2 2-1 1.1 0 .3-1 .3-1s-1.2-1.4-2-1.7c0 0-1.1-1.5-2.6.2-1.4 1.7-1.9 2-3 2.8-1 .9-1 .5-1 .5l-6.2 11.3-1.2 2.4-1.4 1.4 6.6-4c1.8-1 4.5-1.2 4.8-1.1M247 120.4c-.7 0-1.6 0-2.7.2a7 7 0 01-2.2-3.3c-.4-1.3-.5-1.7-3.3-1.4a66 66 0 00-13 3.8c-1.3.9-.8 1.2-.7 2 .1.8.7 1.7.8 2.9l-1.5.6c-4.4 2-5.7 2.9-4.3 4.5 1.4 1.6 2.6 1.1 4.1 1 1.6 0 3.3-.5 3.3-.5s-.2-2.2 1.2-3.2 2.9-2.5 5.3-2.9c2.3-.4 5.7-1.5 6.4-1.6.8-.1 2.2-.4 3 1 .7 1.6 1 2.8 1 2.8 4.1-1.4 1.7.2 4.4-1.3s1.5-4.7-1.9-4.6M359.3 125.5c-3.8-.4-4.8-.5-6.3-2-1.5-1.3-.7-3.8 1.7-4l5.6-.5s0-1 1.9-.8c1.8.2 5.8.7 8.2 1.4 2.3.8 4.4 1 4.4 1l-8.4 3s1.3.3 5 .4c3.6.1 4.1-.6 7 1 2.8 1.6 7.2 6 3.3 7.4a16.7 16.7 0 01-6 1.6c-1 0-.6-1.8-.5-3.4a5 5 0 00-4.8-5.3c-4.2-.5-5.8-.9-7.4-.5-1.6.5-3.7.7-3.7.7M284 124.4a108.4 108.4 0 006.2 3.8l1.2-.8c1.2-.6 1.4-.6 2.7 0 1.3.7 1.3 1 2.6.4s.9-1.5 2.2-.6c1.3.9 1.6 1.5 2.9.6 1.3-.8 1.3-1.1 2.5-.5 1.2.6.4 1.6 2.5.6 2-1 1.9-1.5 3.2-.5 1.3 1 1.4 1 2.7.3 1.3-.6 1.5-1 2.2-.2.8.9.8.7.8.7s1.7-.5 1.3-3.5l-33-.3" fill="#3c2e2e"/><path d="M210.6 149s1-4.2 2-5.3c1-1.2.6-1 1.6-1.5s1.3-.3 2.8.2c1.4.5 3.3-.3 2.5 2.6 0 .6 0 2.2-.6 2.6.2 1 0 1.7-.6 2.6-.2 1-1.3 1.9-1.3 1.9l-.2-.5s-2.5 2-3 3l-1 1.7s-1.3-1.3-2.1-2.4c-.8-1-1.1-1.2-.6-2 .5-1 .7-1.7.7-2.1l-.2-.8M233.4 139.2c1.8 2.1 2.2 2.5 3 3.2 1 .6 2.2.6 2.6-.4.5-1.1 1.3-2.2 1.6-3.5l.4-1.9v-.5s.7.3 1.7.4c1 .2 2.5.2 2.4-1-.2-1.4-.2-2.4-1-2.6.6-.3 1.1-.8 1.2-1.6 0-.8-.2-1 .3-1.1.5-.2 1 0 .2-1.3a8.2 8.2 0 01-1.4-3.2c-.2-1-1.3-3.4-3.3-3.2-2 .3-5 3.4-4.1 5.2.8 1.9 1 1.4 1 1.4l-1.8 2.1s-2-2.6-1.5 0c.4 2.7.8 2.8.8 2.8l-2.6 1.2c-.2.4-.3.9 0 1.6.5.9.5 2.1.5 2.1v.3M394.2 189.2s1.5 1.7 1 3.4c-.6 1.7-.8 2.5-1.7 3.5 0 0 .1 1.2-.7 1.5-.9.2-2.7 1-3.5.2-.8-.7-1.2-1.2-.7-1.7.4-.5.5-1 .5-1h-1l-.2-1.2h-.4l-1.4-2.6-1.3-2.1s1.1-2.9 2.5-3c1.4-.1 2.6-.6 5.4 1l-.6 1.4 1.2 2 1-1.4M348.1 183.9s-1.4-4.4-1.3-6.8c.1-2.3.3-3 1.1-4.1.8-1.2 1.4-1.3 1.4-1.3s-1 .4-1 2.2c0 1.8.5 4 0 4.8-.6.9-.2.9-.2.9l1.9.7s-.3 2-1.9 3.6M361 139l.2-1.2s-1.5.2-2.3-.3c-.7-.6-.3-.7 0-1.4v-1.5l.7-.4s-.7.2-.9-.3c-.2-.4-.3-1.9-.3-1.9s-1.4 0-1.2-.8c.2-.8.6-1.2 1.2-1.7.5-.6.7-.5.5-1.2-.2-.8 0-1.2 0-1.6l.6-1.4 5.6-.2s-.7 1.2 0 1.4c.8.2 2.2.5 1.6 2.1-.7 1.6-1.2 3-.8 3.5l.7.9s.4-1.4 1-2.3c.5-.8.3-.4 1-.5.8-.1 1.3-.3.8 1.2-.6 1.5-.8 2.9-1.4 2.7-.7-.3-1.3-.3-1.3-.3s-.2.9 1 1a12 12 0 013.8 1.8l-.6 2.8-6.5 5.1-2.5-3-.8-2.5M255.7 184.6l-4.8-6.8-.4 3.4s.4 1.4 1.7 2c1.4.7 3.1 2.4 3.1 2.4l.4-1" fill="#ffe2d1"/><path d="M219.6 251.2c3.2-1.3 5.6-.6 8.6-2.3 3-1.7 1.8-2 7 .4 5.1 2.3 35.8 23.7 65.4 22 29.6-1.7 58.1-19 62-21.6 3.9-2.5 7.5-3.4 13.8 3-13.4 9.4-40.6 31.2-76.7 30.6-36-.7-68.4-23.8-76-29.7l-4.5-1.7.4-.7" fill="#46b3b3"/><path d="M363.3 250.8c-.3.2-30.6 20-62.6 21.8-25.3 1.5-51-13.5-62-19.8l-4-2.3-1.6-.7c-2.2-1-2.2-1-3-.5l-1.2.7c-1.9 1-3.6 1.3-5.2 1.5l-1.2.2 1.7.7h.2l.1.2c3.7 3 37.4 28.7 75.3 29.4 32.7.6 58.5-18 72.4-27.9l2.2-1.5c-5.3-5-8-3.8-11-1.8M236.7 262.4c-.2.7 0 1.2 0 2 .4 1.1 1.4 2.2 1.5 3.3 1.2 1.7.8 3.5.4 5.5-1.1 1.6-3 2.3-4 4-.9-2.1-.5-4.8-2.9-6-1 0-1.5-1.2-2.2-2-.2.5-1 .5-1 1-2.2 1.2-4.2 2-6.1 4-2 .8-4.5 1.2-6.4 0l-1.2-1.2c5.5-1 2.3-8.8 8.3-9 .4-.3 1-.9 1.1-1.5.1-1.2-.4-2-.9-3h-.2" fill="#fff"/><path d="M223.1 259.5c-3.7-.8-7-2.1-10.7-2.7-.3-.1-.6.2-.6.3l.3.4h-.1c1 1.2 1.6 3 1 4.3-.4 1-.7 2.3-2 2.5-1.8.8-4 .7-5.5-.4-2.1-2-3.2-4.6-2.8-7.5.4-2 1.8-4 3.7-4.9l2.4-.9c-3.5-2.3-5-6.3-4.5-10.3.6-1.3.8-2.7 2.3-3.5a9 9 0 016.4-.6 8 8 0 014 4.8c0 1.6-.8 3.6-2.7 4.3-.8 0-2-.2-2.5.1a7.5 7.5 0 004 4l3.3 2.4 4.6 1.8 13 8.6v.2M375.5 252.7s3.6.3 7.5-1.7c2-1.1 4.3-2.8 5.4-5 .7 0 .9-.9 1-1.4-.8-.3-1.7.3-2.7-.3-1.3.1-2.3-.9-3-2-1-1.5 0-3.7.9-4.3 3.3-1.7 5.4-3.2 9.1-.6 1.5 2 3 4.3 2.4 6.9 0 2.3-1.8 4-3.2 5.5.5.4 1.3.5 2 .8 3 1 6.1 3.2 6.2 6.5.8 1.9-.9 3.6-1.8 5.1-1.3 1.9-4 2.3-6.1 2a5 5 0 01-3.2-2.6c-.7-1.6.1-3.2.9-4.6-2.3 0-4.4 1.2-6.9 1.2-1.5.2-2.8 1-4.5 1l-8.5 1.5c-3.2.7-3.9-1-3.9-1M349.2 257.3c-3.7-.2-8-1.1-10.8 1.7-.8.7-.6 1.5-.8 2.3-2.3.4-4-1.3-5-3.1-.5-1.5 0-2.9 1-3.6-.4-.2-1 .4-1.3.5-2.2 1-2.6 3.5-2.6 5.8-.4.2-1 .3-1.5.3-.7 0-.7-.8-1.2-1.2-.2 0-.5 0-.6.4-.5-.1-.8.2-1.3-.2-.8-1.7-1.4-4.5.2-6.1-.9-.1-1.6.7-2 1.3-1 1.7-1.9 4-.5 5.9.5.5 2 0 1.8 1-1 1.3-2.6 1.9-4.3 1.8-1.4-.5-2.2-1.8-3-3 .3 1.5-.7 3-1.7 3.7v.1c-.2.2-.6.6-1 .6-.3-1.8-1-3.4-1.7-5-.4-1.5-.8-3.3-.1-4.6-1.7-.2-3.7-.4-5.3-1.2-1.6-.5-2.6-2-2.6-3.5 3 .2 5.5-2 8.6-1.6.4.2.5.5.4 1h.3c0-1.3-1.8-2.3-2-3.6-.5-1 .3-2 .7-2.8.3-.4-.3-.8.3-1.1.8 1 1.9 1.6 2.9 2.4.9.2.4-2 1.8-2.3 1-.7 1-2.1 1.7-3 2.5 1 2.6 4.4 4 6.5 1.8 1.8 3.9 2 6.6 1.6.6.2 1.3.4 2 .3-1.4-1.9-1.6-4.3-2-6.6 0-1.2-1-2.2-1.6-3.3 1.1-.6 2.8-.4 4-.2 1.7.4 3.7.9 4.5 2.3.2-.3.2-.8.3-1.2.7-.9 1.8-2 3-1.7l-.1-.1c.3-.4 1 .1 1.2-.4 1 .1 2.3-1 2.7-1.8.3-.1.4 0 .6.2-.2.8.2 1.7.4 2.5-.1.7-.4 1.5 0 2.3.6-.1.5-.8 1.2-.8 1.3 1.7.5 3.2.6 5h.7c1 0 .9-1.4 1.2-1.7l.4.3c.4 2-.3 4.7.6 6.4.5.5.7 2 1.9 1.6l4.3 1.5v.3" fill="#ffd93c"/><path d="M304.3 256c0 .7-.2 1 .3 1.6a8.3 8.3 0 014-1.4c-.6 1.8-1 4-.5 5.7.6.6 1-.5 1.7-.5.8 0 1.7.3 2 1.2.6.8.1 1.7 0 2.5-.7.8-1.6 1.5-2.6 1.5-1.6 0-3.2-.6-4.2-1.7-1.2 0-1.6 1.8-2.7 2-.8-.8-1.5-1.6-2.4-1.9-1.6.6-3.4 3.2-5.5 1.8-1.1 0-1.4-1.1-2-1.7 0-.9-.3-1.4.2-2.2.4-.4 1-1 1.8-.7.1.3.5.4.8.7.8-.8 1.2-2.4 1-3.6 0-1.5-2.7-1.5-1.7-3a9 9 0 014.5.8c.3-.4.3-1 .5-1.6 1-.7 1.5-1.7 2.4-2.1 1 .7 2 1.7 2.4 2.6" fill="#ffd93c"/><path d="M251 257.8l-8.8-4.8.8-.1c3-.4 6.3 0 9.8-1.2 3.4-1.2 4-4.1 4.4-6 .4-1.8.7-1.8 0-1.9-.5 0-2-.7-2-.7l.4-1.7c.9-.3 1.6-.8 2.3-1.1 1-.4 2 .3 2.8.2-.7-1-.4-2.4-.3-3.6.4-.7-.5-2 .6-2.3.9.9 2.2.8 3.3 1 1 .6 1.7 1.3 2 2.4 2-1.1 4.3-2.2 6.7-1.8-1.2 2.6-.5 4.6-.5 7h.1l-.3 1.4a21 21 0 00-1.7 3.3h1.7c2.4-.7 4.9-.8 6.6-2.9 1.3-1.5 1.7-3.2 1-5 .5-1 1.1.3 1.9 0 1.4.8 2.4 2.6 2.6 4a6.2 6.2 0 004.4-2.6c.2-.2.3 0 .4.2-1 2 1.6 4.8-.4 6.8 3.1.7 5.5 3.2 8.7 4 .3.3 1.2-.2 1.2.6a8.2 8.2 0 01-7.4 3.4c1.8 3.4-1.7 5.7-1.5 9-2.4 0-4-2.7-4.8-4.7-1.5 0-2.3 1.9-3.8 1.9a4 4 0 01-3-.7c-.6-2 1.8-4 .7-5.8-.8-.8-2-1.8-3-1.3 0 1 .2 2 .1 3.2-.3.2 0 .7-.6.7l.2.2c-.6.7-1 1-1.8 1.5-1 .1-2 .3-2.6-.1 0-1-.1-2.3-.4-3.3-.7-2.2-3.3-1.6-4.9-1.7l.6 2.8c-.3 1.5-1.2 3-2.7 3.5-.7 0-1.8.5-2.4-.3l.3-.7c-2.3-3-7.1-3.2-10.6-3l.1.1M318.6 148c-2.6 3-3.4-2.4-5.8-2.3-2.6.6-2.4-2.4-4.6-2.6-3.2.5-4.8-2.8-8-2.1-1.7-.1-2.7 1-3.8 1.6-2.8-1-5.2.7-7 2.7-2.3-.3-3.7 1.2-5.3 2.4" fill="#ffd93c"/><path d="M318 148.6c.2 0 .3-.2.3-.3l.2-.6-.4 1" fill="#ffd93c"/><path d="M318 148.6c.2 0 .3-.2.3-.3l.2-.6-.4 1z" fill="none" stroke="#000" stroke-width="1.2"/><path d="M312.8 145.7c-2.6.6-2.4-2.4-4.6-2.6-3.2.5-4.8-2.8-8-2.1-1.7-.1-2.7 1-3.8 1.6-2.8-1-5.2.7-7 2.7-2.3-.3-3.7 1.2-5.3 2.4l-2-.2s3.6 2.7 5 5c1.2 2 5.5 6.7 8.8 7.7.8 1 2 1.6 3.5 1.6s3.4.8 4.3-.2c1.4.2 3-.4 5.5-3.2 2.8-3 6.4-4.8 6.4-4.8l2.5-5c-2.4 2.4-3-3-5.3-2.9" fill="#ffd93c"/><path d="M312.8 145.7c-2.6.6-2.4-2.4-4.6-2.6-3.2.5-4.8-2.8-8-2.1-1.7-.1-2.7 1-3.8 1.6-2.8-1-5.2.7-7 2.7-2.3-.3-3.7 1.2-5.3 2.4l-2-.2s3.6 2.7 5 5c1.2 2 5.5 6.7 8.8 7.7.8 1 2 1.6 3.5 1.6s3.4.8 4.3-.2c1.4.2 3-.4 5.5-3.2 2.8-3 6.4-4.8 6.4-4.8l2.5-5c-2.4 2.4-3-3-5.3-2.9z" fill="none" stroke="#000" stroke-width="1.2"/><path d="M269.2 171.2c-.4-2.3-1.3-4.2-1-6.4.2-1.3.1-2.8 1-3.7.3-1.7 1.5-3.3 2.7-4.5.2-.1.2-.6.6-.6v.1c.7-1 1.6-1.3 2.6-1.8h.1l.2-.2h.2l.4-.2c.3.2.3-.2.6-.2 1.7-.4 3.8-.2 5.2-.2l-.5.6c-.7-.9-1.2-.5-2.1-.5l-3.3 1-2.3 1.8c-1 .9-2 2.5-2.9 3.3.2.4-1 1.2-.7 1.7-1.3 2.6-.8 6.3-.5 8.7" fill="#ffd93c"/><path d="M288.7 231.3c-22.7-4.2-22.7-22.2-22.7-25.6v-3.2a4.3 4.3 0 004.1 3c2.4 0 4.3-2 4.3-4.3 0-2.2-1.7-4-3.8-4.2 2.9-1.1 5.2-4.1 5.6-9.7.4-6-5.1-10-6-10.6l1 .1c2 0 3.7-1.6 3.7-3.6a3.7 3.7 0 00-5.4-3.2c-.4-2.5-.8-6 .5-8.6-.3-.5.9-1.3.7-1.7.8-.8 2-2.4 3-3.3l2.2-1.8 3.3-1c.9 0 1.4-.4 2 .5l.5-.5v.3c0 1.9 1.5 3.4 3.3 3.4 1.9 0 3.4-1.5 3.4-3.4 0-1-.5-2-1.3-2.6-2-4.2-6.3-3.8-10.1-3.8-6.9.8-11.7 7-13.4 13.1 0 0-1.7 6.4-.2 9.8 1.6 3.4 4.4 6.4 4.4 6.4h-.1v.2c-.9.5-2.5 1.2-3 2.7-.4 1.2 0 2.8.8 3.8 1 .8 2 1.5 3.5 1 .5-.2 1-.7 1.4-1 .4 2.8 0 5.4-1.1 8-.8-.6-2-2-3.5-1.3-1.3.4-2 1.6-2.4 2.7 0 1.3 0 2.5.9 3.3.4.2.6.5.9.8-3 1.3-4.8 3.9-5.6 6.8-.9-1-2.3-1-3.2-2h-.8c.6 3.6-2.4 7.6.5 10.7v.3c-1.1-.2-2 .3-2.9.5l-.1.5c4 1.6 2.8 7.5 7.6 8.6v.2c-1.2-.6-3.5-.5-4.4.3-.2.2-.2.5-.2.7.6.9 1.6.8 2.4 1.5 2.3 1.4 3.7 4.6 6.7 5.3 0 1.2.4 2.3 1.2 3 1.6.6 3.4 2 5 1 .3-.5 1.4-.9 1.4-1.7.2-.4-.5-.8.2-1.2 5.7.4 10 5.1 16 5l1.9.2.8-5-3-.4" fill="#ffd93c"/><path d="M288.7 231.3c-22.7-4.2-22.7-22.2-22.7-25.6v-3.2a4.3 4.3 0 004.1 3c2.4 0 4.3-2 4.3-4.3 0-2.2-1.7-4-3.8-4.2 2.9-1.1 5.2-4.1 5.6-9.7.4-6-5.1-10-6-10.6l1 .1c2 0 3.7-1.6 3.7-3.6a3.7 3.7 0 00-5.4-3.2c-.4-2.5-.8-6 .5-8.6-.3-.5.9-1.3.7-1.7.8-.8 2-2.4 3-3.3l2.2-1.8 3.3-1c.9 0 1.4-.4 2 .5l.5-.5v.3c0 1.9 1.5 3.4 3.3 3.4 1.9 0 3.4-1.5 3.4-3.4 0-1-.5-2-1.3-2.6-2-4.2-6.3-3.8-10.1-3.8-6.9.8-11.7 7-13.4 13.1 0 0-1.7 6.4-.2 9.8 1.6 3.4 4.4 6.4 4.4 6.4h-.1v.2c-.9.5-2.5 1.2-3 2.7-.4 1.2 0 2.8.8 3.8 1 .8 2 1.5 3.5 1 .5-.2 1-.7 1.4-1 .4 2.8 0 5.4-1.1 8-.8-.6-2-2-3.5-1.3-1.3.4-2 1.6-2.4 2.7 0 1.3 0 2.5.9 3.3.4.2.6.5.9.8-3 1.3-4.8 3.9-5.6 6.8-.9-1-2.3-1-3.2-2h-.8c.6 3.6-2.4 7.6.5 10.7v.3c-1.1-.2-2 .3-2.9.5l-.1.5c4 1.6 2.8 7.5 7.6 8.6v.2c-1.2-.6-3.5-.5-4.4.3-.2.2-.2.5-.2.7.6.9 1.6.8 2.4 1.5 2.3 1.4 3.7 4.6 6.7 5.3 0 1.2.4 2.3 1.2 3 1.6.6 3.4 2 5 1 .3-.5 1.4-.9 1.4-1.7.2-.4-.5-.8.2-1.2 5.7.4 10 5.1 16 5l1.9.2.8-5-3-.4h0z" fill="none" stroke="#000" stroke-width="1.2"/><path d="M264.6 202.2s-2.4 8 .8 15.5 14 13.4 23.6 15.7m-21-34.5s-1.7 1.5-2 4m2.9.6s4.1-.4 3-3.5m-14.8 4.4s.3 1.9 1.6 3.3m-2.2 5s2.3 1 3 1.8m-3.4-.2s1.4 1.6 2.8 2.4m0 7s1.6-.2 3.6.9m2.8 5.5s2.1-3.6 7.2-2.2m-4.7 1.8s2-1.7 4.5-.4m-3 2.6s1.7.6 2.4 2.1m-.8-3.6s1.7.6 1.8 1.2" fill="none" stroke="#000" stroke-width="1.2"/><path d="M315.2 232c.2 0 .5-.1.6.1h-.1c1-.1.4 1 .6 1.2h-.1c0 .4.2 1-.1 1.2h-.3l-.2 1.1c-.3.6.9.9 1.2 1.2.2 1.2 2.4 2.6.8 3.5-2.9.2-5.7 1.5-7.4 3.8-3 2.3-5.4 6.6-9.9 6.4a9.9 9.9 0 01-6.4-3.2c-.6-1.3-1.6-2.8-.7-4.2.4-1.2 1.6-1.4 2.6-1.4 1.3 0 2 1 2.9 1.6.4-.4.1-1 .2-1.6-.5-1.2-1.3-2-2.5-2.5-1-.3-2 .2-3 .5-.7.4-.8 1-1.6 1.1-1-1.4-2.6-2.5-2.8-4.3l.4-1c.6-.4.9-1.8 2-1.5.4-.3-.2-1.6 0-1.6-.2 0-.2-.1 0-.2-.2-.2-.3-.7-.3-.7l-.3-1s1.4-.7 2.2-.8c1 0 .6 0 1.7.7 1.1.6 1.9.5 2.2.6.4.1.2 0 .4-1s.2-2 .9-2.3l1.1-.6s0 .2.6.8c.6.6 1.6.6 2 1.6.5 1 1 1.3 1 1.3s0-1 .4-1.8c.4-.9.6-1.2 1.2-1.4l.8-.3s.3.3.5 1.8c.1 1.5.5 2.6.8 2.2.4-.4.7-.1 1 0 .1.3.3.6.7-.7.3-1.3.5-2.3 1.2-1.7.7.5 1.4 1 1.4 2s-.3 1.7.2 1.8c.5.2 1.1 0 1.6-.1.5-.2 1 0 1.3-.2l1.2-.4" fill="#ffd93c"/><path d="M315.2 232c.2 0 .5-.1.6.1h-.1c1-.1.4 1 .6 1.2h-.1c0 .4.2 1-.1 1.2 0 0 0 0 0 0h-.3l-.2 1.1c-.3.6.9.9 1.2 1.2.2 1.2 2.4 2.6.8 3.5-2.9.2-5.7 1.5-7.4 3.8-3 2.3-5.4 6.6-9.9 6.4a9.9 9.9 0 01-6.4-3.2c-.6-1.3-1.6-2.8-.7-4.2.4-1.2 1.6-1.4 2.6-1.4 1.3 0 2 1 2.9 1.6.4-.4.1-1 .2-1.6-.5-1.2-1.3-2-2.5-2.5-1-.3-2 .2-3 .5-.7.4-.8 1-1.6 1.1-1-1.4-2.6-2.5-2.8-4.3l.4-1c.6-.4.9-1.8 2-1.5.4-.3-.2-1.6 0-1.6-.2 0-.2-.1 0-.2-.2-.2-.3-.7-.3-.7l-.3-1s1.4-.7 2.2-.8c1 0 .6 0 1.7.7 1.1.6 1.9.5 2.2.6.4.1.2 0 .4-1s.2-2 .9-2.3l1.1-.6s0 .2.6.8c.6.6 1.6.6 2 1.6.5 1 1 1.3 1 1.3s0-1 .4-1.8c.4-.9.6-1.2 1.2-1.4l.8-.3s.3.3.5 1.8c.1 1.5.5 2.6.8 2.2.4-.4.7-.1 1 0 .1.3.3.6.7-.7.3-1.3.5-2.3 1.2-1.7.7.5 1.4 1 1.4 2s-.3 1.7.2 1.8c.5.2 1.1 0 1.6-.1.5-.2 1 0 1.3-.2l1.2-.4h0zM266.3 181.6s2.2 2.8 3.6-.4m-4.4 11s3-2 2.8 2.4m0 1s4.3-.2 5.7-4m-2.8-12s4.9 3.6 3.3 9.5m8.9-33.9s3.8 2.8 2.4-3m-4 1.4s.4-1 1.4-1.5m-1.9-.3s-15.7-.3-13.9 19.2m2.7 4.2s6-.1 1.4-4m-2.8 2.1s-.5-3.3 1.4-3.6m26.1-10.8s3.5 3 9.4 1m-10.4 0s-.8-6.7 3.6-7c4.4-.5 5.1 3.6 5 4.4-.1.7-1.8 1.1-1.8 1.1m1.8-1.1s2.7-.5 3.5-1c.8-.3 4.1-3 6.7-2.3m-12.6.7s1.6 1.2.6 2.6" fill="none" stroke="#000" stroke-width="1.2"/><path d="M348 211.2c-.7 0-1.2 1-1.9 1.2 1-2.7.3-5.3.2-8.1-.3-1-.4-2.8-2-1.9-.2.5-.7.5-1 .7-.4-2.1-1-4.4-2.9-5.7-.9-.4-1.8-.6-2.4-1.3.2-1 1.1-2 .8-3l-.9-1.5a3.7 3.7 0 00-3-1.5c-.6 0-1 1.2-1.5 1.5l-1-2.5c-.3-1.3-.1-3.6 0-5 1.3-.2 2.5 1 3.2.2v-.1l.1-.1a4.5 4.5 0 00-1.6-6.6v-.2c1.3-1.1 2.4-2.1 3-3.6 1.8-3 2.2-10.8-.6-16.6a36 36 0 00-5.4-7.2c-3.6-2.4-8.2-3.7-12.5-2 0 0-2.2-.6-4 3.3a3.3 3.3 0 002.6 5.4c1.9 0 3.4-1.5 3.4-3.3 0-.6-.2-1.2-.5-1.7h.2c4.5.8 7 2.8 10.8 9.2 2.8 5 1.4 8.8.6 10.2-.5-.2-1.1-.4-1.7-.4-2 0-3.7 1.6-3.7 3.6 0 1.8 1.3 3.3 3 3.6-.7.5-1.3 1.2-1.6 2-1.1 1.6-1.7 4-1.2 8.1.7 5.4 4 7.5 5.6 8.3a4.8 4.8 0 00-4.6 4.8c0 2.6 2.2 4.8 4.9 4.8a5 5 0 003.6-1.6c4.5 11.8-5 23.3-21.8 28.2l1.4 3.3c.9-.3 2.3 0 3.5-.2 3.5-.8 7.2-3 10.8-1.5.7.4.4 1.1.9 1.6 2-.1 5.2.4 6.5-1.9.8-1.2.5-2.5-.2-3.8l-.6-.5c.8-.4 2-.5 2.9-.7 2.5-.7 3-3.2 4.7-4.7-.9-.7-1.8.2-2.8 0-.5-.5-1.3-.5-1.5-1.1 3.5-1 7.8-2.9 8.5-6.5.3-1.8 1.5-3.6-.3-5.2" fill="#ffd93c"/><path d="M348 211.2c-.7 0-1.2 1-1.9 1.2 1-2.7.3-5.3.2-8.1-.3-1-.4-2.8-2-1.9-.2.5-.7.5-1 .7-.4-2.1-1-4.4-2.9-5.7-.9-.4-1.8-.6-2.4-1.3.2-1 1.1-2 .8-3l-.9-1.5a3.7 3.7 0 00-3-1.5c-.6 0-1 1.2-1.5 1.5l-1-2.5c-.3-1.3-.1-3.6 0-5 1.3-.2 2.5 1 3.2.2v-.1l.1-.1a4.5 4.5 0 00-1.6-6.6v-.2c1.3-1.1 2.4-2.1 3-3.6 1.8-3 2.2-10.8-.6-16.6a36 36 0 00-5.4-7.2c-3.6-2.4-8.2-3.7-12.5-2 0 0-2.2-.6-4 3.3 0 0 0 0 0 0a3.3 3.3 0 002.6 5.4c1.9 0 3.4-1.5 3.4-3.3 0-.6-.2-1.2-.5-1.7h.2c4.5.8 7 2.8 10.8 9.2 2.8 5 1.4 8.8.6 10.2-.5-.2-1.1-.4-1.7-.4-2 0-3.7 1.6-3.7 3.6 0 1.8 1.3 3.3 3 3.6-.7.5-1.3 1.2-1.6 2-1.1 1.6-1.7 4-1.2 8.1.7 5.4 4 7.5 5.6 8.3a4.8 4.8 0 00-4.6 4.8c0 2.6 2.2 4.8 4.9 4.8a5 5 0 003.6-1.6c4.5 11.8-5 23.3-21.8 28.2l1.4 3.3c.9-.3 2.3 0 3.5-.2 3.5-.8 7.2-3 10.8-1.5.7.4.4 1.1.9 1.6 2-.1 5.2.4 6.5-1.9.8-1.2.5-2.5-.2-3.8l-.6-.5c.8-.4 2-.5 2.9-.7 2.5-.7 3-3.2 4.7-4.7-.9-.7-1.8.2-2.8 0-.5-.5-1.3-.5-1.5-1.1 3.5-1 7.8-2.9 8.5-6.5.3-1.8 1.5-3.6-.3-5.2h0z" fill="none" stroke="#000" stroke-width="1.2"/><path d="M325.5 149.4s4.4-1.3 10 10.8c0 0 3 7.5-1 14.5m-2.8-3.7s1 2-.1 3.2m-2.2-2s1.4.3.8 1.9m-11.3-21.2s.7 1-1.3 2.6m.5-4.5s1.8.1 2 .6m11 32.4s-.7 5 1.1 8.5m3-11.6s.9 2.8-2.2 2m3.3 9.2s1.3 1.8.3 3.5m-1.2 7.1s-1.6 2.3-4.7 1.3m7.4-5.8s2.4-1 3.4 5.1m3.3 1.2s-.4.6-.2 2.1c.1 1.6.7 1.2.2 3m1.3 2.8s-2.8 1.6-3.6 3.5m-4.4 6.1s1-1.2 2.7-1.9c1.7-.6 3.8-.6 4.3-1.4.5-.7 2.2-3.6 2.4-4.8m-16.3 14.8s2-1.7 5 .3m.5-1.3s3-1.3 4-2.3m-5 5s1.3 2.2-.6 3m-18.4.5s4.2-.3 5.8-.8c1.5-.5 3.4-1.4 5.1-1.1 1.7.2 3 .5 3.6 1.1m-37.2 3.6s4.7-3 7 6.1c0 0-.4 2.2-1.3 2.7s-3 .9-3.9.2m0-2.5s2.2.4.8 2.3m2.3-9.7s4.5 3.8 3.5 6.5a6.3 6.3 0 01-4.2 3.8m3-11.3s1.7 3.2 1.7 4.3a9 9 0 01-.6 3.7m1.9-7s1.8 6.6-2.7 9.7m5.7-8.7s-2.5 7-6.2 8.5m6.8-4.7s-4 4.1-8.4 5.4m-2.3 1.5s2.6 1 3.9.8c1.3-.3 2.3-.8 3.2-1.4 1-.7 1.7-1.8 2.8-2.8m-7.3-14.5l1 1.7m-7.3.3s1.3-.1 2.2.4m9.1-2.2s.5 1 .5 2m4.5-.6a5 5 0 000 2m4 1.2l-.2 1.5" fill="none" stroke="#000" stroke-width="1.2"/><path d="M361.1 227.6c-1.4 4 1.2 8.3-.4 12.5a28 28 0 00-.8 8.8c-.6 1.3-1.3 2.8-2.3 3.6-2 .2-3.8-.2-5.5-.8.9-3.3.8-6.9.8-10.1-.2-2.3-1.5-4.5-1.8-6.8-.1-2.8.7-5.7-1.3-7.9v-3.2c3 1.7 7.3 1.8 10.2-.2.8-.2.8-.9 1.7-1.1 1 1.8-.4 3.6-.6 5.2M366 237.6c-.2-3 .4-4.7.1-6.8-.3-2-.8-4.6-.3-5.8l.9-1.7s1.5 1.6 3.2 1.8l3.4.3-2.2 3.8c-.9 1.3-.8 2.7-2 3-1.1.4-2.2.9-1.8 1.4.4.6 2.1.3 1.5 1.5-.5 1.2-2.8 2.5-2.8 2.5M383 251.4s-2.7-1.4-4.9-2.8c-2.1-1.4-2.3-4.7-2-6.6.5-1.8.9-8 1-10.5.3-2.5.1-1.6.8-4 .6-2.5-.5-4-.5-4s-2.2 4.7-3.4 6.8c-1.1 2-2 3.4-1.3 3.8.8.3 2 1.7 2 1.7s.8 1-.3 1c-1.2-.2-.7-1.5-2 1a127 127 0 00-3.8 10c2.4.7 4.6 1.7 7.7 5 0 0 5-.8 6.6-1.4M344.4 199.4s3.8 1.8 6.5 2c2.8.4 6.3.8 6.7.7h.4s.5-2.5.8-5.1c.3-2.6 1.3-8 2-10.7.6-2.6 2.1-7.7 2.1-7.7l1.9.3s.7 2.1 1.3 7.9l1.4 13.2c.3 2.2.1 3.3 1.3 3l8.4-1.4 5.1-1.4s.4 1-1 1.5c-1.6.6-3.4.9-3.4.9s-6.2 1.3-7.8 1.5c-1.6.3-3.3 1.1-3.7-2.7l-1.9-18.2c-.1-1.8-.7-3.5-.7-3.5s-1.7 4.8-2.8 11.8c-1 7-1.9 11.3-1.9 11.3s-.6 1-3 .4c-2.2-.4-6-.2-8.6-1.2 0 0-1.7-.3-2.2-.7-.6-.4-.9-1.9-.9-1.9M363.6 172.6v2.7s-.4 1-1 .4c-.7-.4-1.5-1-1-1.6l2.3-1.9-.8-.6-3 1.7s-.9 3-1.8 4.2h-.2s6.4 1.4 8.4 1.4l-.7-2.5-1.3-1-.2-3.1" fill="#e2c89a"/><path d="M353.4 141.4s.8 7.6 1.8 11.7a89 89 0 0010 21.8l1.4 4.5 2.5 7.6c.5 1.7 5-.1 7.7-.6 2.6-.5 1.4-.6 1.5-2.2 0-1.6-.4-3-.4-3 .5-.6.4-1.1-.2-3-.5-2-.1-1.6-1.5-4.8l-9 1.7s-5.4-8.1-6.8-11c-1.4-3-4.5-12-5.2-17l-.6-5.8" fill="#e2c89a"/><path d="M364.7 171.6a42.5 42.5 0 0011.5-28.7l-1-.7c-1.4 16.5-5.4 22.2-10.8 28.5" fill="#e2c89a"/><path d="M365 170a121.8 121.8 0 00.1-26l-1 .4v1.3a168.5 168.5 0 01-.4 24M355.4 154.3l-2.7.7-3.9-7.2c-1.7-3.2-2.7-3.6-2.7-3.6s-1.7-1.7-1.3-2c.3-.3 1-.5 1-.5s0 1 1 1.8 1.8 2 3.3 4.6c1.6 2.6 3 5.3 3 5.3l1.8-.5M364 147.8c-.7.1-1 .4-2.4 2.2-1.4 1.8-3.1 2.6-5 3.5v-1.2c1.4-.7 2-.9 3.5-2.6 1.4-1.8 2.5-2.8 3.9-3M373.6 156.9s2.5.3 4.2-1.9c1.7-2.1 3.6-4.8 4.5-5.5.9-.7 1.3-1.3 1.3-1.3s1.5-1 0-2.1l-1.7 2-4.5 5.3c-3 3.3-3.3 2.1-3.3 2.1" fill="#e2c89a"/><path d="M365.3 146l7.6 9.4v-.2l-.3 1.2v.3l-7.3-8.9" fill="#e2c89a"/><path d="M368.7 235.5s1.1-.5 2.2-2c1-1.3 1.6.2 1.6.2l5-10.6 12.2-24.8-1.3-1.8-15.2 28.6-1.5 3.1c-.8 1.3-.9.6-1.6 2-.6 1.2.3 1.9-1.4 2-1.6.3-1.6 2-.8 2.3.7.5.8 1 .8 1M392 188.7l4.8-8 1 1-4.6 9.1s-.2-1-1.1-2M349.8 180.2l-1.8-.4s.3-1.1.2-3.4c-.2-2.2.5-3.5 1-4.8.6-1.2 2 .3 2 .3s1.6 1.7 4.4.7c3.3-1.2 5-3.8 5-3.8s.1 4-1.2 6.6c-1.4 2.5-3.2 5.6-5.5 5.6s-4.1-.8-4.1-.8M374.9 124.4l8.1.2c3.9 0 .2-4.5-3-5.3-3-.8-4.6 1-6.9 1.6l-7.1 3 3.8.3 5.1.2M289.8 133.8s-.4-.9 1-1h6.6c.8 0 1 .1 1.8 1.2l3.3 4.4s.3.9-2 .9H295c-1.2 0-1.3-.2-1.8-.8-.5-.5-3.3-4.7-3.3-4.7M307.8 133.8s-.3-.9 1-1h6.2c.8 0 1 .1 1.7 1.2l3.4 4.4s.3.9-2 .9H313c-1.2 0-1.3-.2-1.7-.8-.5-.5-3.4-4.7-3.4-4.7M271.5 134.4s-.2-1.5 1.1-1.6h6c.8 0 1 .1 1.8 1.2l3.3 4.4s.3.9-2 .9h-5c-1.2 0-2.9-.8-3.4-1.3-.5-.6-1.8-3.6-1.8-3.6" fill="#b8c5b8"/><path d="M300.8 171.3c2.7-2.5 4.4-4.1 5.7-6.7 1.3-2.6 6.3-4.7 6-.5-.2 4.3-2 9.8 3 6.5 5-3.3 7.9-5.4 8.3-1.7.4 3.8 0 3.6-1 4.8l-1.8 1.7v-4c0-1.6-.3-2.2-3.1.5-2.9 2.6-4.5 4-6.3 3.6l-1.7-.2-1.3 1.6-1.2-.8 1.4-2s-1.3-1-.6-4.5c.8-3.5 1.9-7-.4-3.9-2.2 3.1-2.4 4-7 5.6" fill="#3f863f"/><path d="M315.5 170.6l4.3-2.7c1.4-2.2 2.3-4.7 4-7.7 2-3.5-2.2-3.5-4.3-2a49 49 0 00-7 6.2c-.3 4.2-1.8 9.4 3 6.2M287.8 162.4h-.1M286.5 160.7h-.3.3M287.7 162l.2-.1h-.2M287.5 162.3h-.4c.1.1.3 0 .4 0M286.3 162.6l.2-.2-.2.2M286.8 162.8c-.1 0-.1 0 0 0" fill="#ffd93c"/><path d="M287.1 166c-.4-1.6-.9-3-1.2-3.8h.7v.1c0 .3.2.3.4.4l-.2.1h.1c0 .6.3.1.3.7l.4-.2-.4-.1c-.2-.4 1-.2.7-.6l-1.3-.1.5-.2v-.2c.3 0 .6 0 .8.2h-.1c.4.1.8 0 .7-.2h-.9l.1-.2-.3-.1v-.4c-.4-.1-.6.4-1 .2.3-.2-.1-.4.2-.4h-.3l.2-.2-.9-.1c.2-.2.4-.2.6-.1l-.1-.2h-.4.2c-.7.4-.4-.2-.7-.3-.6 0-1 0-1.3-.5-.4.1-1-.2-1.2.2 0-.4-.7 0-.9-.2l.2-.2c-.6.3-1-.6-1.4-.1l-.1-.1-.1.3-.3-.2-.2.3-.2-.2-.2.1c-.2.2-1.4 1-1.6 1h.1c-.6.6-1.7 1.6-2 2.2h.2c-.7 0-.5.4-.8.6.2.4-.3.6 0 1l-.4.3.2.2v.2s.3-.2.4 0l-.2.3v.1l-.6.7h.3l-.3.3s.3 0 .3.2c.2-.1-.6.7.1.7 0 .8 0 .5.2 1.2h.2c.2.2 1 0 1.1.6.5-.1.8.7 1.2 0v-.3c2.3.7 3.7 1.4 4.8 2.9 1.3 1.8 2 1.1 2.1 3l.2 2.8s1.5.4 3.7-.8a9 9 0 004.4-4.2c-3.2-2.3-5.4-4.2-6-6.7" fill="#ffd93c"/><path d="M223.3 259.6c-3.7-.8-7.2-2.2-11-2.8-.2-.1-.5.2-.5.3l.3.4h-.1c1 1.2 1.6 3 1 4.3-.4 1-.7 2.3-2 2.5-1.8.8-4 .7-5.5-.4l-1.4-1.6.3-.2.1.1c.6.6 1.3 1 2.4 1.3 1.7.1 3.7 0 4.8-1.6 0-.5.4-1.2.6-1.7-.3-.7 0-1.6-1-2.2 0-.3-.3-.4-.7-.5l.1-.1c-.4 0-.4-.3-.8-.4-.9.1-2 .3-2.6 1.1-.7-1.3 1.3-1.3 1.8-2.1 1-.3 2.4-.8 3.6-.5l2 .3c.4.2 1 .4 1.4 0l-.6-.1c.3 0-.5-.2-.7-.4-1-.2-2.3-.5-3.1-.5-1.3.2-2.6.6-3.7 1 .2-1.1 1.9-1.3 2.8-1.7 1.5-.3 2.6 0 4 0v.2c.7.2 1.7 0 2.1.3 0 .2.2.3.3.2h.4c.6.3 1.2.9 1.8 1 2.4 1.3 4.5 1.3 7.2 2 .6-.3 1.4-.2 2.1 0 0 .2-.1.4-.4.6l-.3-.1-.3.4c1.1.7 2.6.5 3.3 1.3-2 .2-4.1-.5-6.3-.4l-.6.3M215 249.9c.3.2.6.5 1 .6l-.1.1c.6-.3.8.4 1.2.3v.1a6 6 0 011.7.7l-3-2.4a7.6 7.6 0 01-4-4c.6-.2 1.7 0 2.5 0 2-.7 2.7-2.7 2.8-4.3l-.3-.7-1 .3c-.4.2-.8.1-1 .6v.2c-.5.6-1.3 1.1-2 .8-.4.2-.8.4-.5.8.5.2 1.3-.2 1.8-.4.6-.2.8-1.2 1.5-.8l-.1.1c-.3 1.5-1.9 1.7-3 2-.5-.6-1.5-.7-1.4-1.7h-.4l.1-.2c-.4 0 .2-.3-.3-.3 0-.3-.2-.9-.4-1l-.4.1c-.2.4-.5 1.1.1 1.3l-.3.1h.3c.1.3 0 .7.3.9-.3.4.5.6.4.9l-.1.1.3.3v.2l1.3 1.8c.3.2.4 1 .5.8 1 .7 1.4 2 2.5 2.6M210.4 246.2c.4.4.6 1.3 1.4 1.5 0 .8 1.6 1.1 1.4 2a9.7 9.7 0 01-4.1-4.7c.2-.7-.9-1.5 0-2.2.8 1 .3 2.5 1.3 3.4M366.9 259.7s.9 1.7 4.1 1l8.5-1.5c1.7 0 3-.8 4.5-1 2.5 0 4.6-1.2 6.9-1.2-.8 1.4-1.6 3-.9 4.6a5 5 0 003.2 2.6c2 .3 4.8-.1 6.1-2 1-1.5 2.6-3.2 1.8-5-.1-3.4-3.3-5.5-6.2-6.6-.7-.3-1.5-.4-2-.8 1.4-1.5 3.2-3.2 3.2-5.5.6-2.6-.9-5-2.4-7-3.1-2-6-1.2-9.2.5-.5 1.4-1.8 3-.8 4.6.7 1 1.7 2 3 2 1 .5 1.9 0 2.7.2-.1.5-.3 1.3-1 1.4-1 2.2-3.4 3.9-5.4 5-3.9 2-6.8 1.7-6.8 1.7l-3 2.6c4.2-.9 8.6-2.5 12-4.6l-.1-.1a14 14 0 003.6-3.4c.7-.3 1.3-2 1.9-3 .2-1.4.2-2.7-.9-3.7-.4 0-.2.5-.4.7.2 0 .4.5.1.8-.1.3-.1.6-.3.8-.5.4-1 .7-1.6.7l-.2-.2c.8-.5 1.5-1.6 1.5-2.8-.3-.1-.2-.6-.7-.5-.4.5 0 .8-.2 1.4-.5.7-.8 1.5-1.9 1.2-.3-.3-.7-.1-1 .1-.1 0-.9-.8-1.2-1.3 0-1.4.9-3.2 2.4-4 2.2-1 5-.3 6.8 1.3.6.7 1.7 1.8 2 3 .2 1.5.4 3.2-.7 4.3l.1.2-1.2 1.6c0-.3.4-1 .6-1.4l.1-.1c-.3-.3.4-1.8.2-2.4h.1a12 12 0 00-1-4c-.2 0-.3.2-.4.3.4 3 .4 6-1.6 8.1-.1.6-.6 1-.4 1.5.2-.3-.8.5-1 .8.4 1 2-.1 2.8.3 0 .5.6 0 .9.3 2.5.8 5.6 2.3 6 5.2l-.2.2.4.2c.5 2-.6 3.5-1.8 4.8-.9 0-1.2.8-2 1.1-1.2 0-3 .3-4-.6-1-1.3-1.3-3-.6-4l.3-.3h-.1c.4-.5 1.3-.5 1.9-.8.7.3 1 1 1.3 1.4v1.9c.9.1.3-.7.7-1.2 0-1-.4-1.8-1-2.4-2.7-1.3-5.2-.4-8-.1-1.2 0-2.1.5-3.3.4l-.1-.2c-.3.5-1.5.4-2.2.6-1.4.3-3 .7-4.5.8-1 .6-2.7.2-3.7.8-1.3.2-3.5 0-4.7 0l-1 .7"/><path d="M398.9 258.7l-.4.3.1.1h-.1c-.4 1-1 2.3-1.8 3-.3-.3-.9-.5-.5-1 1.4-2 2.7-3.8 1.6-5.8l.1-.6a5.7 5.7 0 011 4M388.5 255.4c-.6.5-1.7.3-2.3.5-3.4 0-7.3 1.6-10.8 1.8-.9.2-1.8.6-3 .6-.3-.1-.8.2-1-.2 1.3 0 2.7-.3 3.9-.7 4.3-.9 9-2.1 13-2.1l.2.1M356 253.2c-1.1-.4-2.5-.2-3.6-.9-.8-.1-2-.2-2.8-.8a7.3 7.3 0 01-.9-6.8h-.4l.2.1a5 5 0 00-1.8 1c.1.2-.2.7-.1 1-.1.2-.5.4-1 .3-1.7-1.7.6-3.6-.2-5.7h-.4c-.7.3-1.4.7-1.4 1.6-.3.3-.7 1-1 .4-.4-1.3.3-2.2 1-3.3 1-1.3.2-2.1.5-3.3-.1.3-1.3.3-1.5 1-.7-.2-1.6.7-2.3 0 .3-.4 1 .1 1.2-.4 1 .1 2.3-1 2.8-1.8.2-.1.3 0 .5.2-.2.8.2 1.7.4 2.5-.1.7-.4 1.5 0 2.3.6-.1.5-.8 1.2-.8 1.3 1.7.5 3.2.6 5h.7c1 0 .9-1.4 1.2-1.7l.4.3c.4 2-.3 4.7.6 6.4.5.5.7 2 1.9 1.6l4.3 1.5v.3"/><path d="M349.2 257.3c-3.7-.2-8-1.1-10.8 1.7-.8.7-.6 1.5-.8 2.3-2.3.4-4-1.3-5-3.1-.5-1.5 0-2.9 1-3.6-.4-.2-1 .4-1.3.5-2.2 1-2.6 3.5-2.6 5.8-.4.2-1 .3-1.5.3-.7 0-.7-.8-1.2-1.2-.2 0-.5 0-.6.4-.5-.1-.8.2-1.3-.2-.8-1.7-1.4-4.5.2-6.1-.9-.1-1.6.7-2 1.3-1 1.7-1.9 4-.5 5.9.5.5 2 0 1.8 1-1 1.3-2.6 1.9-4.3 1.8-1.4-.5-2.2-1.8-3-3 .3 1.5-.7 3-1.7 3.7v.1c-.2.2-.6.6-1 .6-.3-1.8-1-3.4-1.7-5-.4-1.5-.8-3.3-.1-4.6-1.7-.2-3.7-.4-5.3-1.2-1.6-.5-2.6-2-2.6-3.5 3 .2 5.5-2 8.6-1.6.4.2.5.5.4 1h.3c0-1.3-1.8-2.3-2-3.6-.5-1 .3-2 .7-2.8.3-.4-.3-.8.3-1.1.8 1 1.9 1.6 2.9 2.4.9.2.4-2 1.8-2.3 1-.7 1-2.1 1.7-3 2.5 1 2.6 4.4 4 6.5 1.8 1.8 3.9 2 6.6 1.6.6.2 1.3.4 2 .3-1.4-1.9-1.6-4.3-2-6.6 0-1.2-1-2.2-1.6-3.3 1.1-.6 2.8-.4 4-.2 1.7.4 3.7.9 4.5 2.3.2-.3.2-.8.3-1.2.7-.9 1.8-2 3-1.7l-1.8.9v.1c-.8.5-.8 1.7-.8 2.5.5.6.8 1.2.9 2 0 .6-.7 1.2-1 1.2-2.1.6-.8-1.9-1.8-2.6h.1-.2c-1.7-2-3.6-3.5-6.3-3a9 9 0 011.6 5.1c.1.6.1 1.2.5 1.7.3 1 1 2 1.6 3.1.8.8 1.5 1.4 2.1 2.3-.9.4-1.3-1-2.1-1.2l.1-.1h-.5v-.3c-.2 0-.5.2-.5-.1h.1c-.5 0-1-.2-1-.3-1.9-.3-3.6 0-5.3-.3-1.3-.2-2.4-1-3.5-1.8-1.7-1.4-1.4-4-2.9-5.5-.4 1-1.1 2-2.1 2.5-.4.3-.2 1-.2 1.4h-.2c0 .5.3.8 0 1.4-.6.7-1.5.2-2.1.1l.1.1c-1 .5-.6-.9-1.6-1l.1-.1-.4-.5s0-.2.2-.1l-.3-.1v-.2c.2 0 .4-.2 0-.3l-.4.8c-.2.6-.1 1.6.4 2.1.6.9 2.5 2 1.6 3.5-.6.6-1 0-1.5-.3v-.1c-.7-.8-2-.4-3.3-.3l-3.1 1.3c0-.3-.8-.1-.6-.2v.2l.3.1c0 .2-.4.2-.1.2l.1.1-.1.1c.4.5.9.8 1.6 1-.4 0 .2-.3-.3-.4.6-.5.8.6 1.5.3.9 1 2.5.6 3.5.9-.1.1.2.4-.2.6.7.3 1.6 0 2.2.6-.3.2-.3.9-.9.5-2.8 2 .3 5.3.9 7.7.6-.1.7-.7 1.1-1.2 0-.9.6-1.6.6-2.4 0-.5.9-1.2 1.3-.6 0 .3.2.5-.1.7.3 1 1 2.1 1.7 2.8 1.3.5 2.4.2 3.5-.5 0-.3-.6-.6-1-.7-1.4-1-1.8-2.8-1.4-4.5h.1c.1-2 1.8-3.2 3.6-3.7 2-.2 2.7-1.3 4.6-1.6.4.2.1.6 0 .6-1.3.5-2.2 1.3-3 2.1v.1c-.7.2-.5 1-.9 1.3-.2 1.3-.2 3 1 3.8 0-.3.3-.5.5-.7 1.2-1 .9 1.1 1.8 1 .8-1.5-.3-2.5 1-4 1.4-2.2 4.3-2.5 6.4-2 1.4 2.3-2 .9-2.4 2.4-.2.5-.3 1.3.1 1.6.4 1 1.4 2.4 2.7 2.7.4-.9 0-1.3.6-2.2 2.5-4 7.7-2.8 11.4-2.4l2.5.4-1.6.9M249.2 256.4c1 .3 1-.3 1.7-.7 1.5.2 2.6.7 4 .2v.2c1.4-.3 2.8 0 4.5.3.9.7 2.7 1.4 2.6 2.6l-1-.1.1-.2c-.4-.3-1-.2-.9-.9-.1.3-.3 0-.5 0l.1-.2h-.2s-.2 0-.1-.2h-.4v-.3c-.9.3-1.4-.4-2.2-.1 1.4.7 3 .8 4 1.9v.3h.2c0 .5 1.1.9.6 1.4-2.3-3-7.1-3.2-10.6-3l.1.1"/><path d="M334.1 243c1.5 2.5 3.5 5.5 6 7-.4.2-1 0-1.2-.2 0-.4-.9-.6-1.3-1-.8-1.2-1.8-2.2-2.1-3.2-1.2-1-2-2.9-3-3.8.3-.8 1 .8 1.6 1.3M341.6 248.2c.9.8 1.4 2 2.5 2.6 0-.8-.3-1-.5-1.9-.3-.7-.5-2-.3-2.7.6 1.8.8 5.3 3.5 6.1 0-1-.5-2-.4-3h.4c-.3 1 .5 1.8.8 2.9.7.6 1.8 1.2 2.9 1.5-.6.9-1.5-.2-2.2-.2-.4-.5-1.1 0-1.6-.4-2-.5-3.5 0-5.6.4l-.4-.1c1.3-.7 3.2-1 4.8-1 0-.5-.5-.8-1.1-.9.1.2-.6 0-.8-.3-.4-.6-1.4-1.1-1.7-2l.1-.1c-.5-.3-.7-1.3-1.1-1.8a9.2 9.2 0 01-.2-3.8c.2 1.8.2 3.1.9 4.7M320 247.8l1.5 1.5.1-.1c1.4 2 5.2 2 7.2 1.6v.2c-1.2.7-2.4.2-3.5.4l-.3.2-.2-.2c-.4.3-2 .2-2.7 1.1-.5.5-1.2.5-1.6 1h.1c-.6.1-1 1.2-1.5 1.3v.2c-.3.3-.7 1.2-.8 2-.2.7.2 1.7.1 2.4-.8-.2-.5-1.3-.7-1.8-.2-1 .8-1.5.4-2.2l.2.1.4-.5-.1-.2c.4 0 .4-.2.5-.6.4-.7 1.5-1 1.5-1.8-1.2.3-2.3.8-3.5 1-.7-.5-1-.1-1.6-.4 0-.1 0-.2-.2-.2.6-.3 2.3.2 3.3-.5.5-.4 1.6 0 1.7-.8v.3c.2 0 .4-.1.3-.3-.5-.1-1-.6-1.4-.5 0-.3-.6 0-.8-.4-1-.5-1.3-.9-2.3-1.2l-1-.7c-.3-.2 0-.3 0-.5l1.7 1.1c1.8 1 4.1 2.3 6.1 1.5-1-.2-1.2-1.2-2-1.5 0-.2-.2-.6-.4-.4l.1-.2c-.6-.2-1-1-1.2-1.4l.2-.1.5.5M335.3 254.5c.2.5-.4.3-.6.5l-.4-.6c.2-.2.8-.3 1 .1M299.5 255.5c-.2.6-.2 1.2-.5 1.6a9 9 0 00-4.5-.9c-1 1.6 1.7 1.6 1.7 3.1.2 1.2-.2 2.8-1 3.6-.3-.3-.7-.4-.8-.7-.8-.4-1.4.3-1.8.7-.5.8-.2 1.3-.1 2.2.5.6.8 1.7 1.9 1.7 2 1.4 4-1.2 5.5-1.8.9.3 1.6 1.1 2.4 1.8 1-.1 1.5-1.9 2.7-1.9 1 1 2.6 1.7 4.2 1.7 1 0 1.9-.7 2.5-1.5.2-.8.7-1.7.1-2.5-.3-1-1.2-1.2-2-1.2-.7 0-1.1 1-1.7.5-.5-1.7-.1-3.9.6-5.7-1.5.1-2.9.6-4.1 1.4-.5-.5-.3-1-.3-1.6a8 8 0 00-2.4-2.6c-.9.3-1.4 1.4-2.4 2.1l.4.3 1.6-1.6c.8 0 1 .7 1.3 1.2 0 1 .6 2.1.3 3.6.3.8.7-.1 1.2 0 .7-1.2 2.1-2 3.6-2.3 0 1.7-1.3 4.2 0 5.4v.8c-1.6-.7-.8-2.4-1.3-3.5-1.2.4-.1 2-.3 2.8 0 .5.7 1.2 1.2 1.5h.5v-.2c0 .2.4.2.7.2.6-.3-.3-1.2.7-1.2l-.1-.2s.8-.7 1.3-.2c.3 0 .3.4.4.5-.5 0-1-1-1.6-.1.6.4.7 1.4 1.2 1.7-1 .4-2.1 1.5-3.3.9-.4-.2-1.4 0-1.9-.6.1-1.1-1.5-1.8-1.6-3.3-.3-.3-.4 0-.7-.2.1.8-.1 1.2.6 1.7h-.1c1.2 1.2-1 1.8-1.5 2.8-.7 0-1-.6-1.6-.9-.4-1.2 1-2.5.6-3.6-1.1-.5-1.4 1.4-2.2.8-.5-.2-.5.4-.8.7a5 5 0 01-2.8 2.9l.4.4c-.8.2-1.1.1-2 .1-.5-.2-.8-1-1-1.5 0-.5.3-1 .5-1.6.5-.3 1.5 0 1.4.8.2.4.6.3.8.1.1-.1.1-.5.5-.5l-.1-.2c.4-.2.7-1.3.9-2 .3-1.4-.1-2.8-1.5-3.7l-.3-.3c.8-.6 2.3 0 3.3.4.8.2 1 1.8 2.1 1-.4-.7-.6-1.7-.4-2.6l-.4-.3"/><path d="M243.4 253.5c3.5-.5 6.4.6 9.8-1 3-1 4.7-3.8 4.7-7 .5.2 1-.4 1.6 0 .2.7.6.9 1.2 1.2v.5h.7c.3-.5-.4-1.5-.2-2-.4-.2-.5-.5-.8-1a6 6 0 00-4-1.7c0-1 .8-1.1 1.5-1.5.4 0 .5-.3 1-.2 0 .2.1.2.3.2h.5v.1c0 .2.2 0 .4.1l-.2.2c.1.2.4 0 .5 0 .6.2 1.1 1 1.6 1.4.3.2.5-.2.7-.3-2-1.8-1.9-4.7-1.5-7 1.2 1 3-.3 3.7 1.3.9.7.3 1.9 1.5 2.2l.3-.3.1.1c.5-.3 1-1.3 1.9-1 .3-.2.9-.6 1.6-.7.3 0 .8-.5 1.3-.2l-.3.3c.2.4-.2.4-.3.6l.1-.2c-.4-.3-.9.1-1 .5v.1c.2.3-.6.3-.5.6l.4.1c-1 1.4-.4 2.5-.6 4 .3.7 0 2.2-.4 2.6.1.3-.2.2-.3.5 0 .2-.2.5.3.6.6.3.3-.6.9-.6v.4c-.7-.2-.2.3-.5.5-.6.7-1.9 1.1-2.2 2.3.8 1 1.6-.5 2.4-.5 3.6-.4 8.6-.7 10.6-4.6.7-1 .6-2.2.7-3.1.9.2 2 1.2 2.4 2.3.2.4 0 .6-.2 1h.2c-.3.6-2.4 1.2-1.8 2.2.6-.1.7-.8 1.3-1 .6-.5 2-.7 2.8-1.3.5 0 1.2-.2 1.6-.5.4 0 .8-.8.9-.2-.2.8 0 1.1-.2 1.9-.4-.3.4-1.6-.8-1.2v.1s0 1-.2 1.5c-.2.3-.2.4 0 .7l.2.2c.5 0 .7-.7.7-1.1.6.2-.3.7.1 1-.4 0 0 .3-.3.5-.9 1.2-3.6 1.6-3 3.2.5.5 1.3 1.8 2 .9.7-.4.7-1.2.6-1.7l-.2-.2c1.6-.4 3.6.3 4.8 1v-.2c.7.7 1.8 1 2.4 1.5l-.1.1 3.6 1.4c-1.4.4-2.2 1.6-3.8 1.6-.3.4-.9.2-1.3.2h-.1c-.9.4-2.2.2-3-.3-.4 0-.6.3-.9.5 0 .7 1 .8 1.2 1.3h-.1c-1 .5-.1 1.4-.5 2.3-.6 1.7-1.6 2.2-1.6 4 0 .3.3.6.6.6.9-.3.2-1.6.6-2.3.3 0 .3-.7.6-1l.6-1.1c0-.5.1-.8.3-1.2.5 2-.7 3.5-1.7 4.9.4.2.1.4.2.7-.3.2-.2 1-.2 1.3-2-1.1-3-3.2-3-5.5-.8-.6-1.4.5-2 .8v.1c-.4 0-.3.3-.7.4v-.1c.2 0 .1-.3.2-.5-.2-.5-.7 0-1 0a4 4 0 01-3 .7c.1-.6.7-1.1 1-1.5v-.1c.6-1 .3-1.9-.2-3.2-.7-1.7-3.3-1.8-5-2.6.3-.3-.2-.5-.2-.7l-.2-.5h.2c-.1-.2-.3-.2-.4-.2-.2-.3-.7-.4-.8-.8-.3-.2-.8 0-1.2-.1-.2.5-.8.4-1.1.2l-.3-.3c-.2 0-.3.2-.5 0-.2.3.1.3-.2.5.2.7 1 .8 1.5 1.2.3-.1.8-.7 1.2-.5.5.7 1.6 1.6 1.2 2.3-.6.7-.3 1.8-.5 2.4-.2.9-1.3 1.4-.6 2.1-.3 0-.2.4-.5.3-.1-1.5-.8-2.5-1.2-3.7-.6-.2-1.2-.8-1.8-1-2-1-4.4 0-6.8-.5-.2.3 0 .4 0 .7h.2l-.2.1c1.7.3 2.4 1.7 2.6 3-.1.2-.2 1-.7 1.5.5-.6.2-1.2-.1-1.6-.3 1-1.2 1.6-1.8 2.2-.2.3-.2.4-.2.7l.2.2c.2.2-1.5-.6-1.3.7.6.8 1.7.4 2.4.3 1.5-.6 2.4-2 2.7-3.5 0-.9-.4-2-.6-2.8 1.6 0 4.2-.5 4.9 1.6.3 1 .4 2.3.4 3.4.7.4 1.6.2 2.6.1a8 8 0 001.8-1.5l-.2-.2c.6 0 .3-.6.6-.7.1-1.1-.1-2.3-.2-3.2 1.2-.6 2.3.5 3.1 1.3 1 1.9-1.3 3.8-.6 5.8a4 4 0 002.9.7c1.5 0 2.3-1.8 3.8-1.9.8 2 2.4 4.7 4.8 4.6-.2-3.2 3.3-5.5 1.5-9 2.7.2 5.7-.8 7.4-3.3 0-.8-.8-.3-1.2-.6-3.1-.8-5.5-3.4-8.7-4 2-2-.7-4.7.4-6.9-.1 0-.2-.3-.4-.2a6.2 6.2 0 01-4.4 2.7 5.5 5.5 0 00-2.6-4c-.8.3-1.4-1-1.9 0 .7 1.8.3 3.5-1 5-1.7 2-4.2 2.2-6.6 2.9h-1.7c.4-1 1-2.2 1.7-3.3l.3-1.4c0-2.4-.8-4.4.4-7-2.4-.4-4.6.7-6.6 1.8-.4-1-1.1-1.8-2-2.4-1.2-.2-2.5-.1-3.4-1-1.1.2-.2 1.6-.6 2.3 0 1.2-.4 2.7.3 3.6-.9 0-1.8-.6-2.8-.2-.7.3-1.4.8-2.3 1l-.3 1.8s1.4.6 2 .7c.6 0 .3 0 0 2-.5 1.8-1 4.7-4.5 5.9-3.5 1.2-6.8.8-9.8 1.2l-.8.1 1.2.5"/><path d="M265.3 245.5l.2.1c-.5 0-.1 1-.8 1.4l.4.1c-.1-.9 1 0 .8-1 .3 0 .4-.3.3-.6v-.1c.5-.3.2-.7.4-1.1.3-.6.5-1.5 1-2.3.4 0 .2-.6.6-.6.5.2 0 .7 0 1.1-.7 0 0 .7-.7 1 .5 0-.2.3 0 .5.3.1-.6.1-.1.4 0 .4-.8 1-.6 1.6-.6 1.5-2 1.8-2.6 3.2-1.3.7-2.1 1.7-3.3 2 .5.7 1.8.3 3.1.4 1.3 0 3.3-.1 4.6.6-.1 1-.4-.4-1 .5v-.2c-.1-.2-.7 0-.8-.1l-.2-.2c-.2.5-.6 0-.8 0l-3-.1-.4.3c-.3-.3-.4.3-.7.1 0-.2-.2-.2-.3-.2h-.5c0 .4.3.2.5.2-1.7-.2-1.6.5-3 .4-.4.5-1 0-1.1.5l-.3-.3c0 .4-.5 0-.7.4 1.8.6 3.7 1.1 5 2 .4.7 1.7 1.1 1.1 2-.6-1-2-1.6-2.7-2.1-1.8-.6-4.2-1.6-6.2-.9-1 .2-2 0-3.2.1-.3-.4.4-.5.6-.7 1.5-.1 2.6-.7 4-.8a7 7 0 002.4-1.4c0-.5 1.2-.7 1-1.5.7-1-.7-1.5.2-2.5h.4c.3.8.3 1.1.1 2.3l-.3 1.2c-.2.5-.6 0-.6.6-.2 0-.2.2-.3.3.6.2 1 0 1.6-.3l.1.3.1-.4c-.4 0-.2-.3-.1-.5 1.6-.8 3.4-2 3.4-3.9l.2-.1c0-.1-.2 0-.4 0 .5 0 .2-.6.4-.6-.2-.2-.2-.6-.5-.4.1 0 .2 0 .3-.2h-.2l.2-.1-.6-.6.1-.1c-.2-.5-.6-.6-.8-.9.4-.1 0-.1.4-.4.5 0 1 .4 1.2 1l.6 2c.6-.1.4-.7.6-1.2.3-.4.3-1 .5-1.4a7 7 0 00-.2-2.4h-.2c.6-.5-.8-1.2.1-1.5 1.3 1 1 3.8.7 5M280 246c0 .7-.7.9-1 1.5h.2c-.5.5-.5.8-.3 1.2l-.6 1c.6.4 1-.3 1.6-.3a6 6 0 013-1.7c-.5.8-1.8.9-2.4 2-.9.4-1.7.8-2.5 1.5.9.9 1.7 1 2.6 1.9l-.1.1c.7.7 2 1.8 1.6 3-1.2.1-.6-1-1.4-1.4-.4-1-1.8-1-2.4-2.3-.1.2-.3-.1-.4-.2h-.1c-.7-.6-1.3-1-2.2-.7l-.6-.2c0-.5.1-.4.4-.7.9.2 1.3-.3 2-.6.9-1 .8-1.8 1.3-2.9.3-.6.7-1.3 1.3-1.2M286.5 249.9c0 .2 0 .4-.3.4s-.5 0-.6-.2c0-.4.6-.1.9-.2"/><path d="M260.8 251.6l-.1-.1-.2.2-.1-.2h.4v.1M292.7 253.1c-.7.6-2.2-.2-2.7-.1l-.2-.2-.6.2.2-.1c-1.1-.6-3-.2-4.2.2l-.3-.2c-.2 1 1.3 1.8 2 2.5.4.8 1.1 1.6 1.2 2.6l-.3.2-.9-2-.7-.5.1-.2c-.3 0-.4-.4-.7-.3l.1-.1c-.5-.3-1-.9-2-1.3l.2-.1c-.6.1-.7-.7-1.3-.6-.1-.3-.2-.1-.2-.4.7-1 2.2.2 3.2-.4 2.3-.8 5 .4 7.1.8M321.8 157.3c-.6 0-1.8.4-2.2 1 .4-.4.9-1.1 1.5-1.2h1l-.3.2M321.2 158.5c-.4 0-.6.9-1.2.2.6 0 .8-.9 1.2-.2M319.5 158.4c-.2.3-.5.7-.9.5.7.2.3-.9 1-.5M321.7 159.9c-.2.2-.4.2-.7.2l.3-1.1c.4-.3.9.4.4.9M323 159.4l.3.1h-.5v-.3h.5l-.2.2M315.6 163.8l-1 .4v-.6c.3 0 .8-.1 1 .2M320.3 164.2c0 .4-.5.7-.7 1-.2-.6.5-.6.7-1M318.3 165.3l.4-1v1h-.4"/><path d="M315.7 165.3v-.4" fill="none" stroke="#000" stroke-width=".4"/><path d="M313.9 166.7c-.3 0-.4.2-.5.3-.6-.5 0-1 .5-1.4v1.1M317 167c-.2 1.1-1.4 1.8-2.3 2.3-.5 0-.2-.3-.9-.7v-.6l.3.1-.3.3.8.7c.4-.2.1-.6.1-1-.1.9.6.5.8.8-.5-1 .7-2 1.6-2M319 168.4l-.2-.3c-.1.5-.8 1.2-1.2.9-.5-.4 0-1 .4-1.3.4.2 1.3-.5 1 .7"/><path d="M313.8 168.5l.3-.1c.2-.7.2 1.1.9.1l-.7 1 .3.2c-.5-.2-1.3-.7-1-1.6 0 .3.1.4.2.4M312.5 170l1-1-.7 1h-.3M313.6 170.4l.4-.8v.8h-.4M320.6 160.7h.3v-.5h.1l-.4.5M319.6 161l.2.3-.5.5v-1h.5l-.2.2M285.7 162.9c.2.3 1.4 0 1.5.8v.5c-.5-1-1.8-.6-2.4-.5-1.1.3-2.3.6-3.4 1.6-.4.2-1.3.4-1.5 1l.2.4c-.6.2-.1.2-.5.5-.9-.2-.1.7-1 .9v1h-.6c.4-.7-.5-2.5.7-2.4.3-.1.1-.4.2-.6.4-.6 1-1.3 1.8-1.6v-.5l.5.2c0-.1.2-1 .7-.7.6-.6 1-.3 1.6-1 .8 1 1.3 0 2.2.4M289.8 170.7c-.7-.2-.9.5-1.3.9l-.1-.2c-.7.9-1.8 1.5-3 1.7-.1.6-1.8.5-.8 1.4v.2c0-1.2-2-.8-1.8-2.3h.6c.5.4 1.1.3 1.8.1.2-.4 1-.3 1-.8l.1.1c1-.9 2.1-1.8 3-2.9.4.2.7.6.7 1-.2.2 0 .4 0 .5M320.9 163.6v-.3l.2.2-.2.1M287.6 167c-.1.2-.6-1.2-.6-2l.6 2M288.3 168.4c-.3 0-.6-.3-.6-.5v-.4c.3.2.4.6.6.9M329.7 172.4l.5.6-.5-.6M286.8 202.8c.9-.2 2.2.2 1 .5-1.1.3-1.8.4-1.5 0 .2-.4.5-.5.5-.5M240.7 126.7c1-1.1 1.6-1.5 2.1-1.8.5-.3.6-.2.6-.2l.1.9s-.6 0-1.4.3l-1.4.8M242.2 126.8c1-.5 1.8.6 1 .6l-1.5.1.5-.7M244 130.8c-.5-.8.2-1 .3-.6.2.5-.1 1-.4.6M233.5 125c-.5 0-1 .6-1.4.6.2-.5.8-.8 1.4-.7M234.7 125.3l.4-.4v.4h-.4M234.5 125.9h-.7v-.7c0 .4.5.3.7.7M231.8 125.4l-.3.4c-.1.2 0-.9.3-.4M232.4 128H232.1l.2-.3s.2.1.1.3M231.1 128.9l-.3-.5c0-.1.4 0 .4-.3.4.2 0 .5 0 .8M235.8 129.2l-.6.2.3-.3.2.3v-.2M234 131.1v-1c.4.1.2.7 0 1M232.8 130.8v.5c-.3.1-.3-.2-.3-.5h.3M234.6 132v.1l-.4-.7-.4.2.4-.3c0 .3.2.5.4.7M231.6 132.8l-.5.7h-.2v.5c0-1-1-1-.8-2 .4.4.8 1 1.5.8M234 132.8l.5-.4.2.4c-.3 0-.5.5-.7.7l-.6-1-.1.2-.3-.7 1 .8M237 123.6c.5.5-.4.8-.4 1.2l-.1-.2c-.5-.1-.3.5-.7.6v-1c-.5 0-.9.3-1.2.2l-.2-.2c.7-.9 1.8.6 2.1-.6h.4"/><path d="M236.4 126.5h-.2c.6.7-.4 1.6 0 2.3-.6-.3-.3-1.7-1.5-1.7-.3 0-.3-.4-.7-.3-.2.1 0 .4 0 .6.4.4 1.1.4 1.5 1.1l-.4.4c-.2-.2-.5-.7-1-.5-.7.5-.4 1.7-.6 2.6-.5-.7-.5-2.2-.2-3 .3-.3.8-.9.4-1.5 1-.4 1.5.6 2.5 0 0-.2-.2-.3-.3-.5h-.3l.1-.5c.4.3.9.3.7 1M232 126v.3c-1 .4.5 1.5-.9 1.4-.2.6-.6-.2-.9.5 0 .8 1.2.8.6 1.7.2.1.3.5.6.4 0-.7.4-1.3.4-1.9.2.3 1 1 .9 1.7-.5.4-1.1.5-1.5 1-.4-.9-.8-1.7-1.6-2.3-.2.3 0 .8-.1 1.1l-.2-.1-.3.2c.6.1-.2.3 0 .5-.3 0-.2-.6-.2-.7v-.1s0 .4.4.2c.6-.3-.7-.5-.3-1.1.5-1.5 2.8-.9 2.8-2.7h.3M232.9 127c-.2.1-.3.4-.5.2-.1-.1.5-.6.3-.9.2.1.2.4.2.8"/><path d="M234.2 129.8l.2-.4.5.6-.7-.2M232.9 133.4l-.8-.1-.4.6-.2-.3c0-.7 1.4-.4 1-1.5.1.3.5.8.4 1.3M231 127c-.7.1-.8-.2-1-.5.4.6.7-.3 1 0l.1-.3c0 .3.2.7-.2.9M229.5 127.4c-.5 0-.3.7-.7.9 0-.3.2-.7.5-1h.2M229.8 131.6l-.3-.9.3.5v.4M236.6 129.4c.2.5-.4.4-.4.6-.2-.1-.2-.6.1-.6h.3M230.2 130.5l-.1.2-.3-.6c.3 0 .3.2.4.4M231.1 132.3h-.2l-.1-.7c0 .1.8.4.3.7M362 127.3s-1-.5-1.8-.4c-.7 0-1 .3-1 .3l.3.3 1-.3 1.4.1M360 128.5c.4-.3.7-.1 1 0 .3 0 .7.3.7.3h-.7c-.5.2-1 .4-1.1.2-.2-.1-.1-.4 0-.5M371.3 126.2c-.2.3-.2.9 0 1-1.5-.5-.3 1.6-1.5 1.6.2-1 .6-1.6 1-2.3-.2 0-.8-.3-1.2 0v.9c-.1-.7-.7-.3-1.3-.6-.2-.8-2-.8-1.2-1.7 1.6.4 3 0 4.2 1.1M373.3 127.8c.1.3-.3.3-.5.5v-.6l.5.1"/><path d="M369.3 128.5h-.4c-.2-.2 0-.6.2-.7.2.2 0 .5.2.7M373 132.6c0 .4-.2 0-.4 0 .4-.8-.7-.5-.4-1l.9 1M373.8 134h-1.2c0-.1 0-.3.2-.4 0 .3.5.5.7 0 .2-.3 0-.4-.2-.6l.4-.2c.2.4 0 .8.1 1.2M374 134.9c-.4 0-.4.3-.8.2.3.2.3-.4.7-.2M367.7 128.5l.1-.2h.3l-.4.2"/><path d="M374.7 134l-.7.6c.4-.6 1-1.4.8-2.2l-.4.6c-.5-.7-1-1.4-1.3-2.3l.4-.4c-.4 0-.8-.4-1-.9.3-.4 1.7.2 1.6-1v-.6l.4-.1c-.6-.9-1.7-1-2.5-1.5l-.4.6c0 .6.9 0 .8.7-.3.3-.7.7-1.2.8 0-.3.5-.6.1-1-.5 0-.4.7-.5 1-.4.3-.6 1-.4 1.4.3.2.3.9.8.7l.8-.8c-.4.8-1.2 1.5-1.4 2.5 0 1.1 1.6.3 1.4 1.4h-.3c-.1-.4-.6-.2-1-.2v.6c.3-.2.3.3.3.7h-.1c-.3 0 0-.9-.6-.6-1 .9.8 1 1 1.7l.4-.1-.2-.7.2.2-.1.1c.5.4 1 0 1.5.1-.7.3-1.1.7-1.4 1.3M367.6 128.7c.1-.5.4-.6.7-.2.3.4.7.3 1 .6.3.3-.2.1-1 .1-.7 0-1 .1-.7-.5M367.6 127.3c-.4-.5-.3-1 .2-.6.4.3 1.8.8.8 1-1 .2-1-.4-1-.4"/><path d="M373.8 129.8c.7-.6.8-.8.7.2-.1 1-.3 1.6-.5 1.2-.2-.5 0-.6 0-.9l-.2-.5M283.4 127.2c-1-1.2 2 .7 2.4.3.4-.3.5-.3 1.5 0l1 .4-2 .3c-1.6.3-2.3-.4-3-1M284.3 128.7c-1-1.2 2 .7 2.5.4.4-.4.5-.4 1.4 0l1 .4-2 .3c-1.6.3-2.3-.4-2.9-1.1M288.7 128c-1-1.1 2 .8 2.5.4.4-.3.5-.3 1.4 0l1 .5-2 .2c-1.6.3-2.3-.3-2.9-1"/><path d="M291 129.8c-1-1.2 2 .8 2.4.4.4-.4.5-.4 1.5 0l1 .4-2 .3c-1.6.3-2.3-.4-3-1M293.8 128.2c-1-1.2 2 .8 2.4.4.5-.4.6-.4 1.5 0l1 .4-2 .3c-1.6.3-2.3-.4-2.9-1"/><path d="M296.7 130c-1-1.2 2 .7 2.4.4.5-.4.6-.4 1.5 0l1 .4-2 .2c-1.6.4-2.3-.3-2.9-1M298.8 128.4c-1-1.2 2 .8 2.4.4.5-.4.6-.4 1.5 0l1 .4-2 .3c-1.6.3-2.3-.4-2.9-1M303.8 130c-1-1.1 2 .8 2.5.4.4-.4.5-.4 1.4 0l1 .4-2 .3c-1.6.3-2.3-.4-2.9-1M304 128.5c-1-1.2 2 .7 2.5.4.4-.4.5-.4 1.4 0l1 .4-2 .3c-1.6.3-2.3-.4-2.8-1.1M309.5 128.2c-1-1.2 2 .8 2.4.4.5-.4.6-.4 1.5 0l1 .4-2 .3c-1.6.3-2.3-.4-2.9-1"/><path d="M309.2 129.8c-1-1.2 2 .7 2.5.3.4-.3.5-.3 1.4 0l1 .5-2 .2c-1.6.3-2.3-.3-2.9-1M314.6 128.5c-1-1.1 2 .8 2.5.4.4-.4.5-.4 1.4 0l1 .4-2 .3c-1.6.3-2.3-.4-2.9-1M275 156.7l.3.9h1l-.8.5.3 1-.8-.6-.7.6.2-1-.7-.5h1l.2-1M272.5 160.2l.3.9h1l-.8.6.3.8-.8-.5-.8.5.3-.8-.7-.6h1l.2-1M271.7 164l.3 1h1l-.8.5.3 1-.8-.6-.8.5.3-.9-.8-.5h1l.3-1M278.2 171.6l.4.9h.9l-.8.5.3 1-.8-.6-.7.5.2-.9-.7-.5h1l.2-1M276 175.1l.4 1h1l-.8.5.2 1-.7-.6-.8.5.3-.9-.8-.6h1l.3-.9M281.3 175.7l.3.8h1l-.8.6.3 1-.8-.6-.7.5.2-.9-.7-.5h1l.2-1M278.9 177.2l.3.9h1l-.8.5.3 1-.8-.6-.8.5.3-.9-.8-.5h1l.3-1M292.6 161.3l.4.9h.9l-.8.5.3 1-.8-.6-.7.5.2-.9-.7-.5h1l.2-1M290.2 164.6l.3.9h1l-.8.6.3.9-.8-.6-.8.6.3-1-.8-.5h1l.3-.9M295.7 164l.3.8h1l-.8.6.3.9-.8-.5-.7.5.2-.9-.7-.6h1l.2-.9M301.9 164.6l.3.9h1l-.8.6.3.9-.8-.6-.8.6.3-1-.8-.5h1l.3-.9M298.4 167.1l.3 1h1l-.8.5.3.9-.8-.5-.7.5.2-1-.7-.5h1l.2-.9M292.4 168.3l.3.9h1l-.8.5.3 1-.8-.6-.8.5.3-.9-.8-.5h1l.3-1M296.3 171.3l.3.8h1l-.8.6.3 1-.8-.6-.8.5.3-.9-.7-.5h.9l.3-1M299 173.6l.2 1h1l-.8.5.3 1-.8-.6-.7.5.2-.9-.7-.6h1l.2-.9M303.4 172.2l.4.9h.9l-.8.6.3.9-.8-.6-.7.6.2-1-.7-.5h1l.2-.9M313 157.7l.4 1h1l-.8.5.3.9-.8-.5-.8.5.3-.9-.8-.6h1l.3-.9M326 158.9l.3.8h.9l-.8.6.3 1-.8-.6-.7.5.2-.9-.7-.5h1l.2-1M328.1 162.3l.3.9h1l-.8.6.3.8-.8-.5-.7.5.2-.8-.7-.6h1l.2-1M325.4 165.6l.3.9h1l-.8.6.3.9-.8-.6-.7.6.2-1-.7-.5h1l.2-1M329 166.6l.3 1h1l-.8.5.3.9-.8-.5-.8.5.3-.9-.7-.6h.9l.3-.9M323.4 176l.3 1h1l-.8.5.2.9-.7-.5-.8.5.3-.9-.8-.6h1l.3-.9M318.1 176.5l.3 1h1l-.8.5.3 1-.8-.6-.8.5.3-.9-.8-.6h1l.3-.9M313 175.7l.4.8h1l-.8.6.3 1-.8-.6-.8.5.3-.9-.8-.5h1l.3-1M279.1 155l.3.8h1l-.8.6.3.9-.8-.5-.7.5.2-1-.7-.5h1l.2-.9"/><path d="M224 259.9c.6.7 1 1.8.6 3-.4 0 0 .5-.4.6-.1.3-.4.6-.7.8l-.2-.1c-1 1.4-3.6.3-3.8 2.6 0 1.4-1 1.6-.8 2.9-.7 1.2-1.3 2.4-2.4 3 1.2.7 2.6 1.6 4 .7l-.1-.1c.7 0 1.3-.3 1.8-.7.7.3.9-.4 1.5-.6-.1-.5.2-.7.6-.7.9-1.5 3.4-1.5 4-3 .5-.3 1.1-1 1.4-1.8.4 0 .4.1.4.3 0 1 .1 2 .6 3 1.6 1.4 3.7 2.3 3.7 5 .1.2.4.3.8.2 1-1.1 3.2-2.1 3-4 .2-1-.3-2.3-.3-3.3-.9-1.1-.6-2-1.4-2.7v-.1c-.4-.1.3-.3-.3-.4.1 0 .3-.1.3-.3l-.1-.1c-.4 0 0 0 0-.2-.4-.5 0-1.2 0-2l.5.3c-.2.8 0 1.3 0 2.3.4 1 1.4 2 1.5 3.2 1.2 1.7.7 3.6.4 5.5-1.1 1.6-3 2.3-4 4-.9-2.1-.5-4.8-3-6-1 0-1.4-1.2-2.1-2-.2.5-1 .5-1 1-2.2 1.2-4.2 2-6.1 4-2 .8-4.5 1.2-6.5 0l-1.1-1.2c5.5-1 2.2-8.8 8.3-9 .4-.3 1-.9 1.1-1.5.1-1.2-.4-2-.9-3M363.8 262c1 1.6.5 4-.2 5.4-2.4 3.3-3.8 7.8-1.5 11.5 2-4 7.4-4.4 9.5-8l-.1-.1.4-.6.9.6c2.6.6 5.3 3 6.4 5.4.4.5.3 1.4.9 1.6.7-1.7 2.3-3 2-4.8.6-1.2 0-2.5-.3-3.3-.5-.9-.7-2-1.1-2.8-1.5-1.2-1.3-3-1.3-4.8 0-1-.6-2.2.1-2.8l-1.6.7c.1 3-.4 5.4 2 8.4.8 2 1.3 4.9 0 6.4-.5-.3-.8.7-1 .1-.1-2-2.2-2-3.4-3.5v.2c-.7-.2-.9-1-1.7-.8l.1-.1c-.7 0-.9-.7-1.5-.9-.2-.1 0-.3.1-.5l-.1-.2c-.3.1.2 0 .1-.2-.1 0-.3-.3-.4-.2l.1-.2c-.3-.2-.1-1.4-1.1-1-.3.3-.6.8-.6 1.2l-.5.6h.4l-.2.2s.2.7-.2 1c-.2 0-.3.4-.7.4l.2.1c-.9.8-1.5 1.7-3 2.2-.9.5-1.4 1-2.4 1.7-.8-.2-.7.6-1.2.8l.1.2c-.8 0-.5.5-1 1.1-.8-2.3-.6-3.2-.1-5.2.4-1 .7-2 1.5-2.7 0 0 .2 0 .2-.2-.2-.5 1-1.8 1-2.8 1.4-2.5-1.8-5 2-6.2l-2.8 2.1M235.3 257.8l1.6 1-.3.6-2.3-1.5 3-4.4.6.4-2.6 4M238.4 260.6l-.7-.5 3-4.4.6.4-2.9 4.5M242.9 257l.7.5c1 .6 1.8 1.4 1.2 2.4-.2.4-.6.6-1.1.6.6.4.7 1.2.4 1.8-.6.9-1.7.7-2.7.1l-1.3-.8 2.8-4.5zm-.6 2.5l.2.1c.7.4 1.3.6 1.7 0 .4-.7-.1-1.1-.7-1.5l-.2-.1-1 1.5zm-1.2 2l.5.4c.7.3 1.4.6 1.8 0 .4-.7-.3-1.3-1-1.7l-.3-.2-1 1.5M247.6 259.9l3 1.6-.3.6-2.3-1.3-.8 1.3 2.3 1.2-.3.5-2.3-1.2-1 1.7 2.3 1.3-.3.6-3-1.7 2.7-4.7M253.3 269l-1-.5-.6-2.9-.3-.1-1 2-.7-.4 2.4-4.7 1 .4c.4.3 1 .5 1.3 1 .4.5.4 1 .2 1.5-.4.7-1.2 1-2 .6l.7 3zm-1.6-4h.2c.8.5 1.6.8 2 0 .4-.7-.4-1.3-1.1-1.6l-.2-.1-1 1.7M256.1 270.3l-.7-.4 2-4.2-1.4-.7.3-.5 3.5 1.6-.3.5-1.3-.6-2 4.3M260.5 266.4l.8.3.6 2.7 2.3-1.5.9.4-3.1 2-.9 2-.7-.2.8-2.1-.7-3.6M269 273.9l-1 1-.8-.2 4.5-4.4 1.4 6.2-.9-.3-.3-1.5-2.8-.8zm2.3-2.2l-1.7 1.7 2.2.6-.5-2.3M275.8 271.4l3.8 5.1.9-3.8.8.2-1.3 5.4-3.8-5.1-.8 3.8-.8-.2 1.2-5.4M283 273.2l1.3.2c2 .3 3.5 1.3 3.2 3-.2 1.9-2 2.5-4 2.2l-1.2-.2.7-5.2zm.1 4.8h.3c1.6.2 3.1 0 3.3-1.6.3-1.5-1-2.2-2.7-2.5h-.3l-.6 4M293.2 279.6h-.8l.3-5.4h.8l-.3 5.4M295.4 274.1l4.8 4.2v-4h.8v5.6l-4.8-4.1v4h-.8v-5.6M302.9 274.3l1.3-.1c2 0 3.6.7 3.7 2.5.1 1.8-1.4 2.7-3.5 2.8h-1.3l-.2-5.2zm1 4.6h.3c1.6 0 3-.6 3-2.2-.1-1.5-1.6-2-3.2-1.9h-.3l.2 4.1M309.4 274l3.4-.4v.6l-2.6.3.2 1.4 2.5-.2v.6l-2.5.2.2 2 2.6-.2v.6l-3.4.3-.4-5.3M316 278.6l-.7.1-.7-5.2.9-.2c2-.2 2.6.3 2.8 1.2.1 1.1-.9 1.7-2 1.8l-.5.1.3 2.2zm-.3-2.8h.2c.9-.1 1.7-.4 1.6-1.2-.1-.8-1-.8-1.8-.7h-.3l.3 2M319.4 272.8l3.4-.7.2.6-2.6.5.3 1.4 2.5-.5.1.6-2.5.5.4 2 2.6-.5.1.6-3.4.7-1-5.2M324.3 271.5l5.9 2.5-1.2-3.7.7-.3 1.7 5.3-5.9-2.5 1.2 3.8-.7.2-1.7-5.3M331.4 269.4l1.2-.5c1.8-.8 3.6-.7 4.3 1 .8 1.6-.4 3-2.2 3.9l-1.2.5-2.1-5zm2.6 4l.2-.1c1.5-.7 2.6-1.7 2-3-.6-1.5-2.1-1.4-3.6-.8l-.3.1 1.7 3.8M337.3 266.8l3.1-1.5.3.5-2.4 1.2.7 1.3 2.3-1.1.2.5-2.3 1.1 1 1.8 2.3-1.1.3.5-3.1 1.5-2.4-4.7M341.8 264.3l6.3 1.4-1.9-3.5.7-.3 2.6 4.8-6.2-1.4 1.9 3.5-.7.4-2.7-5M353.3 259.6a3 3 0 00-1.8.3c-1.2.7-1.7 2.1-1.1 3.1.5 1 2 1.4 3.2.7.6-.3 1-.7 1.3-1.3l.3.7a4 4 0 01-1.3 1.2c-1.6.8-3.5.5-4.2-.9-.8-1.3 0-3.1 1.6-4 .5-.3 1-.5 1.6-.5l.4.7M354.4 257.8l3-1.6.3.5-2.3 1.3.7 1.3 2.3-1.3.2.6-2.2 1.2 1 1.8 2.3-1.3.3.5-3 1.7-2.6-4.7" fill="#46b3b3"/><path d="M294.7 122.6h9s-.7-3.8.8-6l-8.9-.3m-.2.3h8s-.6-3.8.9-6l-8-.3m-76.7 141c3.2-1.4 5.6-.7 8.6-2.4s1.8-2 7 .4c5.1 2.3 35.8 23.7 65.4 22 29.6-1.7 58.1-19 62-21.6 3.9-2.5 7.5-3.4 13.8 3-13.4 9.4-40.6 31.2-76.7 30.6-36-.7-68.4-23.8-76-29.7l-4.5-1.7.4-.7zm-3.8-2a7.5 7.5 0 01-4-3.9c.6-.3 1.7-.1 2.5-.1 2-.7 2.7-2.7 2.8-4.3a8 8 0 00-4.1-4.8 9 9 0 00-6.4.6c-1.5.8-1.7 2.2-2.3 3.5-.6 4 1 8 4.5 10.3m28 11.6c-.3.8-.2 1.3 0 2.3.3 1 1.3 2 1.4 3.2 1.2 1.7.8 3.5.4 5.5-1.1 1.6-3 2.3-4 4-.9-2.1-.5-4.8-2.9-6-1 0-1.5-1.2-2.2-2-.2.5-1 .5-1 1-2.2 1.2-4.2 2-6.1 4-2 .8-4.5 1.2-6.4 0l-1.2-1.2c5.5-1 2.3-8.8 8.3-9 .4-.3 1-.9 1.1-1.5.1-1.2-.4-2-.9-3-3.7-.7-7.1-2.1-11-2.7-.2-.1-.5.1-.5.3l.3.4h-.1c1 1.2 1.6 3 1 4.3-.4 1-.7 2.3-2 2.5-1.8.8-4 .7-5.5-.4-2.1-2-3.1-4.6-2.8-7.5.4-2 1.9-4 3.7-5m17.1 8.3l7.8 1.6m144.2-8.6s3.6.3 7.5-1.7c2-1.1 4.3-2.8 5.4-5 .7 0 .9-.9 1-1.4-.8-.3-1.7.3-2.7-.3-1.3.1-2.3-.9-3-2-1-1.5 0-3.7.9-4.3 3.3-1.7 5.4-3.2 9.1-.6 1.5 2 3 4.3 2.4 6.9 0 2.3-1.8 4-3.2 5.5.5.4 1.3.5 2 .8 3 1 6.1 3.2 6.2 6.5.8 1.9-.9 3.6-1.8 5.1-1.3 1.9-4 2.3-6.1 2a5 5 0 01-3.2-2.6c-.7-1.6.1-3.2.9-4.6-2.3 0-4.4 1.2-6.9 1.2-1.5.2-2.8 1-4.5 1l-8.5 1.5c-3.2.7-3.9-1-3.9-1m-3.3 2.3c1 1.6.5 4-.2 5.4-2.4 3.3-3.8 7.8-1.5 11.5 2-4 7.4-4.4 9.5-8l-.1-.1.4-.6.9.6c2.6.6 5.3 3 6.4 5.4.4.5.3 1.4.9 1.6.7-1.7 2.3-3 2-4.8.6-1.2 0-2.5-.3-3.3-.5-.9-.7-2-1.1-2.8-1.5-1.2-1.3-3-1.3-4.8 0-1-.6-2.2.1-2.8" fill="none" stroke="#000" stroke-width=".7"/><path d="M225.4 261.3l7.2 1.2m-7 0l5.6 1m-5.8-.2c1.5.8 4 1 4 1m-4.6.2c1.2.3 2.5.8 3 .7m-3.9.3c.8.3 1.5.5 2 .5m-2 .5l1 .3m8.5-2.8l1.7.3m-1.3.8l1.3.2m-1 1l1 .1m-.7 1l.8.1m-.4 1.2l.6.1m130.6-6.1c1.4 0 3.3 0 4.6-.2m-4.4 1.6l4-.2m-4.2 1.5l3-.2m-3.3 1h2.8m-2.9 1h2.7m-3.1 1.3h1.4m6.7-6.9c1.5 0 4-.6 4-.6m-3.7 2c1.3 0 3.6-.5 3.6-.5m-3 1.8l3.1-.5m-2.3 1.7a20 20 0 002.5-.4m-1.4 1.6l1.6-.3m-.7 1.5l1-.4m-.1 1.4l.6-.1m-92-120l2.1-1.2m-1.1 2.1l1.4-1m-.6 2l1.1-.8m-.3 1.8l.9-.7m0 1.8l.6-.6m.4 1.7l.4-.4m.4 1.4l.3-.5m.4-9.1l2.5-.6m-2 1.7l2-.6m-1.5 1.9l1.4-.7m-1 1.9l1.1-.6m-.7 2l.8-.6m-.4 2l.7-.6m-.3 1.7l.6-.6m3.8-9.1l2.6.5m-2.5.8l1.9.2m-2 1.1h1.5m-1.7 1.3l1.3-.1m-1.5 1.5l1-.2m-1.1 1.6l.8-.1m-1 1.4l.8-.3m6.8-5.6l2.3 1.3m-2.6 0l1.7.7m-2.3.5l1.5.5m-2 .6l1.2.3m-1.9 1h1m-1.6 1.3h.8m-1.4 1.1h.9m8.9-2.8l-2-1.7m.9 2.5l-1.3-1.4m.3 2.3l-1-1.3m0 2.1l-.6-1m-.4 2l-.4-.9m-.6 2l-.3-.8m-.6 1.6l-.2-.8" fill="none" stroke="#000" stroke-width=".7" stroke-linecap="round"/><path d="M315.5 170.6l4.3-2.7c1.4-2.2 2.3-4.7 4-7.7 2-3.5-2.2-3.5-4.3-2a49 49 0 00-7 6.2c-.3 4.2-1.8 9.4 3 6.2zm-14.7.7c2.7-2.5 4.4-4.1 5.7-6.7 1.3-2.6 6.3-4.7 6-.5-.2 4.3-2 9.8 3 6.5 5-3.3 7.9-5.4 8.3-1.7.4 3.8 0 3.6-1 4.8l-1.8 1.7v-4c0-1.6-.3-2.2-3.1.5-2.9 2.6-4.5 4-6.3 3.6l-1.7-.2-1.3 1.6-1.2-.8 1.4-2s-1.3-1-.6-4.5c.8-3.5 1.9-7-.4-3.9-2.2 3.1-2.4 4-7 5.6zm-22.5-3.1c1 .4 4 2.2 5.1 3.4m-3.8-5c1.6 1.6 3.7 3.2 5 4.6m-3.6-6l4 5m-2.3-6a38 38 0 003.2 5.7m-1.6-6.4c.2 1.6 1.6 4.6 2.5 5.7m-1.2-5.8c0 1.5 1.3 4.8 1.8 5.4m-.3-2.8c-.4-1.6-.9-3-1.2-3.8h.7v.1c0 .3.2.3.4.4l-.2.1h.1c0 .6.3.1.3.7l.4-.2-.4-.1c-.2-.4 1-.2.7-.6l-1.3-.1.5-.2s0 0 0 0v-.2c.3 0 .6 0 .8.2h-.1c.4.1.8 0 .7-.2h-.9l.1-.2-.3-.1v-.4c-.4-.1-.6.4-1 .2.3-.2-.1-.4.2-.4h-.3l.2-.2-.9-.1c.2-.2.4-.2.6-.1l-.1-.2h0-.4.2c-.7.4-.4-.2-.7-.3-.6 0-1 0-1.3-.5-.4.1-1-.2-1.2.2 0-.4-.7 0-.9-.2l.2-.2c-.6.3-1-.6-1.4-.1l-.1-.1-.1.3-.3-.2-.2.3-.2-.2-.2.1c-.2.2-1.4 1-1.6 1h.1c-.6.6-1.7 1.6-2 2.2h.2c-.7 0-.5.4-.8.6.2.4-.3.6 0 1l-.4.3.2.2v.2s.3-.2.4 0l-.2.3v.1l-.6.7h.3l-.3.3s.3 0 .3.2c.2-.1-.6.7.1.7 0 .8 0 .5.2 1.2h.2c.2.2 1 0 1.1.6.5-.1.8.7 1.2 0v-.3c2.3.7 3.7 1.4 4.8 2.9 1.3 1.8 2 1.1 2.1 3l.2 2.8s1.5.4 3.7-.8a9 9 0 004.4-4.2c-3.2-2.3-5.4-4.2-6-6.7zm-2 7.2s.8 2.1.8 4.4m.1-4.7s-.8-1.6 0 0c1 1.6 1.8 4.4 1.8 4.4m-.8-5a23 23 0 012.1 4.2m-1.3-4.8l3 3.5m-2-4.2c1 .9 2.7 2.3 3.4 2.7m26.8 50.1c.2-.8.8-1.7.7-2.6.3-1.3.9-2.9.6-3.9-2.1-2.7-1.8-6-1.1-9.1.4.6.6 1.4.7 2.2.4 3.3.1 7 3 9.2.9-.2 1.6.3 2.5.5-.3-2.4-3.4-2.7-3.5-5.3-1-3.7.1-8.3-2.6-11.7-1.7-.7-4.2-.1-6-.1-3.8.1-8.6 1.3-12.5-.1-2.2-1.8-6-.4-8.5-1.6-2.4-.5-.3-2.8-2.2-3.8-1.1.3-.5 1.5-1.3 2a5 5 0 01-5.2-.5v-.2c-.7.4-.5 1.3-.6 1.8.3 1.1 2.5 1 1 2.3-.7.7-1.9 1.4-2.9 2-.5.6 0 .9 0 1.3.2 1 .5 1.5 1 1.8 1.6.2 4-.6 5.7.5 1.3.3 2.4 1.7 2.8 2.9 1.2 2.1 1.5 5 4.2 6 0 2.1 0 4.6-2.2 5.5-.3.4-.4 1-.8 1h3.4c1.2-1.2.4-3 1.5-4.4.6 0 .8.8 1 1.3.7 1.1-.8 2-.8 3.1h2.7c0-.9.8-1.8.3-2.9-.3-1.3-1-2.7-.6-4 2-.7 3.7-.3 5.8-.3l.5.6c1-1 2.4-1.4 3.7-1.9.5.9 0 2 .3 3a7.6 7.6 0 01-3.1 4.5l-.4 1h3.5v-.4c1-2.5 3.9-2.9 4-5.8.1-.6.9-.5 1.3-.4.6.6 1.6.3 1.9 1.2.6 1.8 0 3.9-1.3 5.1l-.3.2h3.8z" fill="none" stroke="#000" stroke-width=".7"/><path d="M291 200c-.3.8-1 1.2-1 1.2m-9 4.5s.2.4.8.4l.8-.3m14.5 14l-1.7-5.2m13.8.8s1.8-1 2.6-.6c.8.5.9.3 1.5 1.4.7 1 2 1.2 2 1.2m-25-14.8c1.7-.2 2.6-1 2.6-1m6.3 15.4c.2-1.2.2-2.7.2-2.7m20-6l-.7-2.8M219.4 252l-2.8-1.7c-.2-1.3-1.5-.9 1-2 2.7-1 3-1.2 4.8-2.1 1.7-.9 3.3-2.1 3.3-2.1l-1.1-.7s.4-4-1.3-10.9c-1.8-6.8-5-15.6-3-21.1 1.2-3.7 2.4-8.9 3.2-13.3m1.2-6.6c.5-4 .3-8 .3-9.5 0-1.4 1-3.4 1-3.4s4.6-.2 7.4-1.2c2.8-1.1 4.1-1.8 4.1-1.8s.5.9 4.6 1.1c4 .2 8-.6 8-.6l1 2.3s-1.3 3.6.7 4.7 3 2.4 3 2.4 1.5 1.7.9 8.5c-.7 6.9-.6 4.5-1.1 8.2-.7 4.4-.2 4.4-1 7.9-1 3.4-1.8 4-.5 10.4 1.3 6.5 2.4 7.3 2.4 13.3 0 6 .6 10.3-.3 12.2-.8 2-1.5 1.7-1.5 1.7l3 1.3m-11.8 3.6s-1.3-.4-.9-2.1l.7-2.6s-2-.8-1.8-3.2c.2-2.3 1.5-4 0-9-1.5-4.9-1.7-6.2-1.5-10 .2-3.9-.2-4.5-1.3-8-1-3.4-.8-8.7-1.3-10.4-.4-1.7-1-2.8-1-2.8s-.5 3.6-1.6 5c-1 1.2-.6 1.9-1.7 3.8-1 1.9-1 3.4-.9 4 .3.7 0 2.6 0 2.6s1.3 2 1.8 6c.4 4 .4 2.1 1 7.9.7 5.8 2.6 12.4 1.6 12.4-1.1 0-1.1.4-1.1.4l1.5 3.9m-12.5-6.4a27 27 0 006.9 1.6m2.4.3l1.7.2m7.8 1.5c3 .4 6 1 9-.2" fill="none" stroke="#000" stroke-width=".7" stroke-linecap="round"/><path d="M237.5 142.8s1.5 1 .7 8.1c-.9 7-.5 9.4-.5 14.8 0 5.3-.4 10-.4 10m11.5-35.9c-1.3 2-2.8 6.4-4 9.6-1 3.2-2.3 1.5-3.4.5-1-1.1-2.6-2.6-3-4.3 0 0-.7 1.5-2.2 3.2-1.5 1.7-2.3 1.5-4.5-.6-2.2-2.2-2.4-3.5-3.5-5-1-1.5-3-2.7-3-2.7m24.9 35.2c-.5-.8 0-1.5 1.5-1.7 1.5-.2 2.3-.6 2.3-.6 2.9-.7 4.4.2 2.4-2.8-2-3-2.8-3.4-3.2-5.1l-.4-2s-2 2.2-.7 3.7 1.3 2.3 1.5 3.6l.2 2.4m-44-23.8s-1.5 3.5-.7 4.7c.9 1.3 2 3.3 3.3 3.5 1.3.2 1.9 0 3-2m-4.7-6.6s1-4.2 2-5.3c1-1.2.6-1 1.6-1.5s1.3-.3 2.8.2c1.4.5 3.3-.3 2.5 2.6 0 .6 0 2.2-.6 2.6.2 1 0 1.7-.6 2.6-.2 1-1.3 1.9-1.3 1.9l-.2-.5m2.6-6.2l-1.8-1h.8c.3.1.5.1 1 .5m-.4 2.9s-.6-.5-1.3-.7c-.7-.1-1.4-.5-1.4-.5s.9-.7.9.2m1 3.4l-2.3-1m-.7-7.2l-.5-2.6 7-1.2-1-5.5c-.2-2.3-2.1-4-4.4-4-2 0-3.7 1.3-4.2 3l-.8.1a4.5 4.5 0 00-7.7 3c0 .4 0 .9.2 1.3l.9 5 7.7-1.3.7 3.3m23 106.8l-19-98.4M215 153l18.3 95.4m-6.8-70.1c-2.6-.8-3.7-3.4-4-6 0 0 0 .5-1.3.7m30 5.7c1 .9 1.5 1.5 2.5 3l2.2 2.8 4-2.6c2.9-1.7 4-3.4 5.5-5.5 1.4-2 1.3-1 1.3-1l-3.8-6.3v-6.9s.3-1.9-.1-3.8-3.2-6.2-3.9-8.5c-.6-2.4-.8-2.2-1.7-3-.9-.9-.9-1-2.2-3.7-1.3-2.5-2.6-2.7-3.9-2.3-1.3.4-1.5-.4-2.3-1.3-.9-.8-1.3-.6-3.5-1-2.2-.5-4.3-2-4.3-2l-.4 2c-.3 1.2-1.1 2.3-1.6 3.4-.4 1-1.7 1-2.5.4a15 15 0 01-3-3.2c-1.8-2.2-1.8-3-1.8-3l-3.5 2.3c-1.2.9-2.3.5-2.8 1.5-.4 1.1-.8.7-2.6 1.1-1.7.4-2.1 1.3-1.9 2.6a34.2 34.2 0 01-3 13.7l-1.1-5.8s-1.7 1.3-2.6 2.3c-.9 1.1-1.5 2.4-1.5 2.4L211 154c-1.1-1.2-1.3-1.5-.7-2.7.7-1.3.5-2.4.5-2.4s-.7.4-2 .7c-1.3.2-.6 1-1.3 2.3-.6 1.3-.2 2 0 3s3.3 10 4.8 14.1c1.5 4 2.3 3.4 6.2 3.9m17-39l-.8-2.8c-.6-2.6 1.5 0 1.5 0l1.7-2s-.4-.3-1-1.5c-.8-1.8 2.2-5 4.2-5.2 0 0-7.2 1.4-9.8 2.8-2.7 1.3-4.5 3.6-3.5 5.1 1.1 1.5 2.8 3.6 3.9 5.8l1 2.2.7.6-.6-2.5c-.2-.7-.2-1.2.5-1.5l2.2-1zm5.5 2s.7.4 1.7.5c1 .2 2.5.2 2.4-1-.2-1.4-.2-2.4-1-2.6.6-.3 1.1-.8 1.2-1.6 0-.8-.2-1 .3-1.1.5-.2 1 0 .2-1.3a8 8 0 01-1.4-3.2c-.1-1-1.3-3.4-3.3-3.2m-5.5 11.3c.2.5.6.8 1 .2.3-.7.6-1 .6-1M361.1 227.6c-1.4 4 1.2 8.3-.4 12.5a28 28 0 00-.8 8.8c-.6 1.3-1.3 2.8-2.3 3.6-2 .2-3.8-.2-5.5-.8.9-3.3.8-6.9.8-10.1-.2-2.3-1.5-4.5-1.8-6.8-.1-2.8.7-5.7-1.3-7.9v-3.2c3 1.7 7.3 1.8 10.2-.2.8-.2.8-.9 1.7-1.1 1 1.8-.4 3.6-.6 5.2zm11.6 6.5c.8.3 2 1.7 2 1.7s.8 1-.3 1c-1.2-.2-.7-1.5-2 1a127 127 0 00-3.8 10m4.7-22.4s-1.6 0-3.4-.3c-1.7-.2-3.2-1.8-3.2-1.8l-.9 1.7c-.5 1.2 0 3.8.3 5.8.3 2.1-.3 3.7-.1 6.8m11.3-51.3c1.8 5.5 6.3 14.1 4.7 15.1-1.6 1-4.2 1.3-4.2 1.3s.6 1.2 1.5 8.2v2.2M350 223.5l.4-1.5s-.6-2.7-.8-4.8c-.2-2 .4-2.8 0-4.7-.5-2-1.5-5.2-1.8-7-.3-1.9-.3-3.4-.3-3.4s-2.4-.3-2.8-1.7c-.5-1.4-.2-1.5 1-5 1.1-3.7 2.8-7.6 2.4-11.5 0 0 1-.8 1.7-3.6 0 0 4.5 1.9 6.5-.5 2-2.3 3.3-3.5 4-8.1.8-4.6.2-2.8-1.4-1-1.6 1.8-5.7 3.1-7.7 1.3 0 0-.4-4.7-1.7-7.5-1.3-2.8-1.5-3.8-1.5-3.8s-.6 1-2 2.2c-1.4 1.2-2.3 1.4-.5 3.4 1.9 2 4 5.3 4 5.3s-1.6.2-2.4 3c-.7 3 .4 6.8.4 6.8s-7.2-2-10.4-8.2c0 0 1.3-2.4 1.3-8 0-5.8-1.7-7.4-1.7-7.4l5.3-6.4c3-3.6 2-5.2 3-6l1-1s-3-2.3.4-2.8 5.8 0 7.8-.2c2-.1 3.2-1.4 4.7-1.6 1.4-.1 1.9-.8 1.9-.8s1.5 3.7 3.6 5.5c0 0 3.8-3.4 6.4-5 0 0 2.5 2.4 7.7 4.3 5.1 2 6.3 2.6 5.6 3.9-.6 1.3-.1.5-.1.5s2.2 5 1.1 11.5l-1.5 9.8s1.8 1.1 2.3 4.6c.5 3.6 6.8 13 6.8 13s-3.7-2.2-6.3-.3c-2.6 2-1.6 5.1-1.6 5.1s-1.5-2.4-3.3-6c-1.8-3.7-3.4-6-3.4-6m-11.3 43s.8-1.1.2-4.8c-.7-3.7-3.1-9.8-3.1-9.8s-.2 2.7-1.5 6.3c-1.3 3.5-1.4 5-1 7.5m11.3 12s-1.1-1.5-2.6.2c-1.4 1.7-1.9 2-3 2.8-1 .9-1 .5-1 .5l-6.2 11.3m28.5-52.4L373.2 225l-1.5 3.1c-.8 1.3-.9.6-1.6 2-.6 1.2.3 1.9-1.4 2-1.6.3-1.6 2-.8 2.3.7.5.8 1 .8 1s1.1-.5 2.2-2c1-1.3 1.6.2 1.6.2l5-10.6 12.2-24.8m3.5-7.5l4.5-9.1-1-1-4.6 8s.8.4 1.1 2.1zm-20 41.5c-1.1-.5 2.3-.3 2.3-.3s.4 1.6-2.2.3zm1 2.6c1.3-1 2.6-2 2.3-4-.3-2 .5-4 .8-4.8.3-.8 0-2.6 0-2.6s1.2 1.5.6 4c-.7 2.4-.5 1.5-.7 4-.2 2.5-.6 8.7-1 10.5-.4 1.9-.2 5.2 2 6.6 2 1.4 4.7 2.8 4.7 2.8m11.3-62.2s1.5 1.7 1 3.4c-.6 1.7-.8 2.5-1.7 3.5 0 0 .1 1.2-.7 1.5-.9.2-2.7 1-3.5.2-.8-.7-1.2-1.2-.7-1.7.4-.5.5-1 .5-1h-1l-.2-1.2h-.4l-1.4-2.6-1.3-2.1m6.6-1.1l.6.5m1.3 2.4s-.3 1.3-.3 2.3c0 1-.4.8-1 .6-.6-.1-.2-.6-.6-1.6-.5-1-1.5-2-1.5-2s-.3 1-.8 1.6l-1.3 1.8" fill="none" stroke="#000" stroke-width=".7"/><path d="M389.5 195.1c.7.6 1.4 1 2.2.8h2m-1.8-2l-1.5.1-1.1-2m.3 2.9l-1-1.8m-10.7 9.5s-6.2 1.3-7.8 1.5c-1.6.3-3.3 1.1-3.7-2.7l-1.9-18.2c-.1-1.8-.7-3.5-.7-3.5s-1.7 4.8-2.7 11.8c-1.1 7-2 11.3-2 11.3s-.6 1-2.9.4c-2.3-.4-6.2-.2-8.7-1.2m-3-2.6s3.7 1.8 6.4 2c2.8.4 6.3.8 6.7.7h.4s.5-2.5.8-5.1c.3-2.6 1.3-8 2-10.7.6-2.6 2.1-7.7 2.1-7.7l1.9.3s.7 2.1 1.3 7.9l1.4 13.2c.3 2.2.1 3.3 1.3 3l8.4-1.4 5.1-1.4M358 177.5s6.5 1.4 8.5 1.4l-.7-2.5-1.3-1v-1.8m-.9-1v2.7s-.4 1-1 .4c-.7-.4-1.5-1-1-1.6l2.3-1.9-.8-.6-3 1.7m-6.7-31.9s.8 7.6 1.8 11.7a89 89 0 0010 21.8l1.4 4.5 2.5 7.6c.5 1.7 5-.1 7.7-.6 2.6-.5 1.4-.6 1.5-2.2 0-1.6-.4-3-.4-3 .5-.6.4-1.1-.2-3-.5-2-.1-1.6-1.5-4.8l-9 1.7s-5.4-8.1-6.8-11c-1.4-3-4.5-12-5.2-17l-.6-5.8m9.8 29.4c5.4-6.3 9.4-12 10.7-28.5m-10.4 29.4a42.5 42.5 0 0011.5-28.7m-12.6 26.8s1-11.1.8-15.4a186 186 0 01-.4-8.6v-1.3m1 25.6a121.8 121.8 0 00.1-26m-19 .2s1 .3 2.7 3.6l4 7.2 2.6-.8m-9.6-12.5s0 1 1 1.8 1.8 2 3.3 4.6c1.6 2.6 3 5.3 3 5.3l1.8-.5m1.6-.6c1.5-.7 2.1-.9 3.6-2.6 1.4-1.8 2.5-2.8 3.9-3m-7.3 6.8c1.8-.9 3.5-1.7 5-3.5 1.4-1.8 1.6-2 2.3-2.2m1.3-1.7l7.6 9.3m-7.6-7.6l7.2 8.9m1.6-1.2s.4 1.2 3.3-2.1c3-3.3 3.7-4.4 4.5-5.4 1-1 1.7-2 1.7-2m-10 10.9s2.5.3 4.2-1.9c1.7-2.1 3.6-4.8 4.5-5.5.9-.7 1.3-1.3 1.3-1.3m-5.8 32.9l-5.7.7c-1.2.2-2.2 1.4-2.8-.4-.7-1.8-1.3-4.6-2.2-6.4m8.2-1.5c.8-1.2 2.4-4 2.5-6.3.1-2.3 0-6.6.5-8.4.6-1.7 1-4.2 1-4.2m-31.3 6s-1-2.5-1-6.8m16.9 55s.5-5.4.6-8.9m-14.7-19.7l-1.8-.4s.3-1.1.2-3.4c-.2-2.2.5-3.5 1-4.8.6-1.2 2 .3 2 .3m-3.8 9.5l.7 2.7m13-45.1v-1.2s-1.4.2-2.2-.3c-.7-.6-.3-.7 0-1.4v-1.5l.8-.2s-.8 0-1-.5c-.2-.4-.3-1.9-.3-1.9s-1.4 0-1.2-.8c.2-.8.6-1.2 1.2-1.7.5-.6.7-.5.5-1.2-.2-.8 0-1.2 0-1.6l.6-1.4 5.6-.2s-.7 1.2 0 1.4c.8.2 2.2.5 1.6 2.1-.7 1.6-1.2 3-.8 3.5l.7.9s.4-1.4 1-2.3c.5-.8.3-.4 1-.5.8-.1 1.3-.3.8 1.2-.6 1.5-.6 3.1-1.3 2.9l-1.2-.2s-.4.6.9.7a12 12 0 013.7 1.8l-.6 2.8" fill="none" stroke="#000" stroke-width=".7"/><path d="M358.4 132h1.1m1.6 5.9l2.3-.3m8.2-1s2.5-1 2.9-2.2c.3-1.3 1.4-4 .6-5.7-.7-1.7-1.6-2.2-4.2-3.2s-5.8-.4-5.8-.4m8-4.2c2.3-.6 3.9-2.4 7-1.6 3 .8 6.8 5.3 2.9 5.3l-8.1-.2m-94.6 9.4s-.3-.9 1-1h6.6c.8 0 1 .1 1.8 1.2l3.3 4.4s.3.9-2 .9h-5.6c-1.2 0-1.3-.2-1.8-.8a150 150 0 01-3.3-4.7zm19 0s-.4-.9 1-1h5.8c.8 0 1 .1 1.8 1.2l3.3 4.4s.4.9-2 .9h-4.8c-1.3 0-1.3-.2-1.8-.8-.5-.5-3.4-4.7-3.4-4.7zm17.3 0s-.3-.9 1-1h5.4c.8 0 2.3 0 3 1 .8 1.1 2.2 3.9 2.2 3.9s.7 1.6-1.6 1.6h-5c-1.1 0-1.2-.2-1.7-.8-.5-.5-3.3-4.7-3.3-4.7zm-26.8 0s-.4-.9 1-1h6.6c.8 0 1 .1 1.8 1.2l3.3 4.4s.3.9-2 .9H295c-1.2 0-1.3-.2-1.8-.8-.5-.5-3.3-4.7-3.3-4.7zm18 0s-.3-.9 1-1h6.2c.8 0 1 .1 1.7 1.2l3.4 4.4s.3.9-2 .9H313c-1.2 0-1.3-.2-1.7-.8-.5-.5-3.4-4.7-3.4-4.7zm-36.3.6s-.2-1.5 1.1-1.6h6c.8 0 1 .1 1.8 1.2l3.3 4.4s.3.9-2 .9h-5c-1.2 0-2.9-.8-3.4-1.3-.5-.6-1.8-3.6-1.8-3.6zm2.2-1.6c1.5 1.3 1.9 2.6 2.5 3.6.5 1 1 2.5 1.8 2.8m-5.9-6.4c1.5 1.3 1.9 2.6 2.4 3.6.6 1 1.1 2.5 1.9 2.8m-.8-6.4c1.5 1.3 1.9 2.6 2.4 3.6.6 1 1 2.5 1.9 2.8m-2.3-6.4c1.5 1.3 1.9 2.6 2.5 3.6.5 1 1 2.5 1.8 2.8m.9-6.4c1.5 1.3 1.9 2.6 2.4 3.6.6 1 1 2.5 1.9 2.8m-6-6.4c1.5 1.3 2 2.6 2.5 3.6.6 1 1 2.5 1.9 2.8m-.8-6.4c1.4 1.3 1.8 2.6 2.4 3.6.6 1 1 2.5 1.9 2.8m-2.3-6.4c1.5 1.3 1.9 2.6 2.4 3.6.6 1 1 2.5 1.9 2.8m1.4-6.4c1.4 1.3 1.8 2.6 2.4 3.6.6 1 1 2.5 1.9 2.8m-6-6.4c1.5 1.3 2 2.6 2.5 3.6s1 2.5 1.8 2.8m-.8-6.4c1.5 1.3 1.9 2.6 2.5 3.6.5 1 1 2.5 1.8 2.8m-2.2-6.4c1.4 1.3 1.8 2.6 2.4 3.6.5 1 1 2.5 1.8 2.8m1-6.4c1.4 1.3 1.8 2.6 2.4 3.6.5 1 1 2.5 1.8 2.8m-5.9-6.4c1.5 1.3 1.9 2.6 2.4 3.6.6 1 1.1 2.5 2 2.8m-.9-6.4c1.5 1.3 1.9 2.6 2.4 3.6.6 1 1 2.5 1.9 2.8m-2.3-6.4c1.5 1.3 1.9 2.6 2.5 3.6.5 1 1 2.5 1.8 2.8m.8-6.4c1.5 1.3 1.9 2.6 2.5 3.6.5 1 1 2.5 1.8 2.8m-5.9-6.4c1.5 1.3 1.9 2.6 2.4 3.6.6 1 1 2.5 1.9 2.8m-.8-6.4c1.4 1.3 1.9 2.6 2.4 3.6.6 1 1 2.5 1.9 2.8" fill="none" stroke="#000" stroke-width=".7"/><path d="M314.3 132.8c1.5 1.3 1.9 2.6 2.4 3.6.6 1 1.1 2.5 1.9 2.8m.7-6.4c1.4 1.3 1.8 2.6 2.4 3.6.6 1 1 2.5 1.8 2.8m-5.9-6.4c1.5 1.3 1.9 2.6 2.5 3.6.5 1 1 2.5 1.8 2.8m-.8-6.4c1.5 1.3 1.9 2.6 2.4 3.6.6 1 1.1 2.5 2 2.8m-2.4-6.4c1.5 1.3 2 2.6 2.5 3.6s1 2.5 1.8 2.8m-41.5-14l-10-4.6m9.9 2h9.4s-.8-4 1-6.2l-9.3-.2s-1 1.3-1.1 6.3zm17.8-4.3h8.1s-.7-3.8 1-6l-9.3-.3m-16.2 4.4h8.2s-.6-3.8.9-6l-8.1-.3s-.9 1.3-1 6.3zm.9-6.6h7.2s-.6-3.9.9-6.1l-7.2-.2s-.8 1.3-1 6.3zm8.4.4h7.2s-1-3.3.6-5.6l-7.2-.2s-1.3 2.2-.6 5.8zm8 1.6h7.2s-1-3.3.6-5.5l-7.2-.3s-1.3 2.2-.6 5.8zm-15.6-8.3h6.2s-.7-3.9.9-6.1l-6.1-.2s-.9 1.3-1 6.3zm8.2.8h6.2s-1-3.2.5-5.4l-6-.2s-.6.6-.7 5.6zm8 1.6h6.2s-1-3.2.5-5.4l-6-.2s-.6.6-.7 5.6zm6.5 10l4.7-2.3c-2.3 6.8 2 9.8 2 9.8L307 123m0 1.5l.7-6.2M301 125l-.2.5v-2.9m-8.4 2v-1.9m8.6-25.2l-.2 1v-5.8m-8.4 4.5v-4.5m16.2 7.6v-4.7m-.2 1.3l-1.5-.4c-1.3-.4-2.4 0-2.4 0l1.5.8 2.6 1m-8-4.9s-.2.1-1.5-.3-2.4 0-2.4 0l1.5.8 2.6 1m-8.7-1.5s-.2.1-1.5-.3-2.4 0-2.4 0l1.5.8 2.6 1m11.4 27.5l2 2.7m-29-4.4l11.5-13.7m-8 15.4l7.4-10.5m21.1 6.4l2.8 7m-2-7l2.9 7m-2-7l2.8 7m-66.3-5l-2.6.3a7 7 0 01-2.2-3.3c-.4-1.3-.5-1.7-3.3-1.4a66 66 0 00-13 3.8c-1.3.9-.8 1.2-.7 2 .1.8.7 1.7.8 2.9l-1.5.6c-4.4 2-5.7 2.9-4.3 4.5 1.4 1.6 2.6 1.1 4.1 1 1.6 0 3.3-.5 3.3-.5s-.2-2.2 1.2-3.2 2.9-2.5 5.3-2.9c2.3-.4 5.7-1.5 6.4-1.6.8-.1 2.2-.4 3 1 .7 1.6 1 2.8 1 2.8 4.1-1.4 1.7.2 4.4-1.3s1.5-4.7-1.9-4.6z" fill="none" stroke="#000" stroke-width=".7"/><path d="M359.3 125.5c-3.8-.4-4.8-.5-6.3-2-1.5-1.3-.7-3.8 1.7-4l5.6-.5s0-1 1.9-.8c1.8.2 5.8.7 8.2 1.4 2.3.8 4.4 1 4.4 1l-8.4 3s1.3.3 5 .4c3.6.1 4.1-.6 7 1 2.8 1.6 7.2 6 3.3 7.4a16.7 16.7 0 01-6 1.6c-1 0-.6-1.8-.5-3.4a5 5 0 00-4.8-5.3c-4.2-.5-5.8-.9-7.4-.5-1.6.5-3.7.7-3.7.7zm-75.3-1a108.4 108.4 0 006.2 3.7l1.2-.8c1.2-.6 1.4-.6 2.7 0 1.3.7 1.3 1 2.6.4s.9-1.5 2.2-.6c1.3.9 1.6 1.5 2.9.6 1.3-.8 1.3-1.1 2.5-.5 1.2.6.4 1.6 2.5.6 2-1 1.9-1.5 3.2-.5 1.3 1 1.4 1 2.7.3 1.3-.6 1.5-1 2.2-.2.8.9.8.7.8.7s1.7-.5 1.3-3.5l-33-.3h0z" fill="none" stroke="#000" stroke-width=".7"/></svg>