<svg xmlns="http://www.w3.org/2000/svg" height="1050" width="1500" version="1.0"><path d="M0 0h1500v1050H0z" fill="#167232"/><path d="M367 7.8c-83 .6-166 13-249 37.4-3.5 13-7.9 24.3-13 34.2-20 40.3-53 65.8-99.2 76.4L3.6 496.7l.3 136 .2 1.4C14.5 702.5 37.3 763.2 76 814.4c57 71.8 149.9 126.3 291.4 157.4C509 940.7 602 886.2 658.8 814.5c38.8-51.3 61.7-112.3 72-180.8l.1-.9.4-137-2.2-340c-45.8-10.5-78.7-35.6-98.7-75.4l-1.8-3.7a169 169 0 01-11.7-31.5c-83.1-24.5-166.1-36.8-249-37.4h-.9z" fill="#444138" fill-rule="evenodd" stroke="#000" stroke-width="2" transform="matrix(.60403 0 0 .63361 528.3 211)"/><path d="M367 29.3a845.4 845.4 0 00-235.2 35.5c-3.3 12.4-7.5 23-12.3 32.5-19 38.4-50.1 62.7-93.7 72.7l-2.1 324.2.3 129.4.2 1.4.2 1.7h686l.4-2.2v-.8l.4-130.4-2.1-323.3c-43.2-10-74.3-33.9-93.2-71.7l-1.7-3.5c-4.4-8.8-8-18.7-11-30-78.6-23.3-157-35-235.4-35.5h-.8z" fill="#fff7f7" fill-rule="evenodd" stroke="#000" stroke-width="2" transform="matrix(.60403 0 0 .63361 528.3 211)"/><path d="M471.1 45.3a91.9 91.9 0 0114.2 51c0 22.7-7 43-18 56 5.7 10 9 22.3 9 35.6 0 21.7-8.8 40.6-22 51.3 1.5 6 2.3 12.3 2.3 18.9 0 24.5-11.4 45.6-27.8 55-12 54.8-36.6 92.4-65 92.4-28.3 0-53-37.6-65-92.3-16.3-9.5-27.7-30.6-27.7-55.1 0-6.6.8-13 2.3-19a65.7 65.7 0 01-22-51.2c0-13.3 3.3-25.6 9-35.7a88 88 0 01-18-56c0-20 5.4-38 14.2-50.9a797 797 0 00-114.1 26 156 156 0 01-11.6 31.3c-17.7 37-47 60.4-88 70l-2 312.6.4 124.8.1 1.2 1.2 7.5h642.5c.4-2.6.9-5.2 1.2-7.9l.1-.8.3-125.7-2-311.6a124.4 124.4 0 01-87.5-69.2l-1.6-3.4c-4-8.5-7.6-18-10.4-28.9-38-11.6-76-20.2-114-25.9z" transform="matrix(.60403 0 0 .63361 530.5 216)" fill="#00b5ef" fill-rule="evenodd" stroke="#000" stroke-width="2"/><path d="M22.2 628.6a454 454 0 0014.3 63l29.4-7 6.8 28.9-26.5 6.2a349.8 349.8 0 0023 48.1l24.3-12.4 13.6 26.4-21.7 11.1 5.6 7.7a320 320 0 0029.8 32.7l16.5-15.2 20.2 21.9-14.3 13a388.1 388.1 0 0041.6 29L196 865 221 881l-10.2 15.6c43.2 22.4 94.8 40.9 156 54.7v.3l.6-.2.7.2v-.3a644.1 644.1 0 00156-54.7L513.9 881l25-16.2L550 882c15-9.1 28.8-18.8 41.5-29l-14.2-13 20.1-21.9 16.6 15.2a320 320 0 0035.4-40.4l-21.7-11.1 13.6-26.4 24.2 12.4a349.8 349.8 0 0023-48l-26.4-6.3 6.8-28.9 29.4 7a454 454 0 0014.2-63H22.2z" fill="#00b5ef" fill-rule="evenodd" stroke="#000" stroke-width="2" transform="matrix(.60403 0 0 .63361 528.3 211)"/><path d="M334.4 399.2C288 561.5 197.6 615 107.8 669.8l258.6-2h2l258.7 2C537.3 615 446.9 561.5 400.4 399.2c-22 7.4-44 6.9-66 0z" fill="#342304" fill-rule="evenodd" stroke="#000" stroke-width="2" transform="matrix(.60403 0 0 .63361 528.3 211)"/><path d="M49.7 647c.2 8.1-.3 16.2 3.6 24.3l19-2.9c5.3 19.5 9.8 32.8 15 48.6l-17 9.3a39.8 39.8 0 009.9 18.5l16.3-7.8c9.5 16.3 19 31.2 28.4 45.7l-15 11.4c4.8 8.7 9.5 16.5 14.2 17.8l16.3-13.5c11 14.7 22.6 28 35.5 37.1l-11.4 15.7c4.6 4 6 8.1 15.6 12.1l10.7-15.6c54 29.2 104.2 94 184.4 90.7 80.3 3.2 115-61.5 168.9-90.7l10.6 15.6c9.7-4 11.1-8 15.6-12L559 835.4c13-9 24.4-22.4 35.4-37.1l16.3 13.5c4.8-1.3 9.5-9 14.2-17.8L610 782.7c9.5-14.5 19-29.4 28.4-45.7l16.3 7.8c3.3-3.1 6.6-7.9 10-18.5l-17-9.3c5.1-15.8 9.6-29 14.8-48.6l19.1 2.9c3.8-8.1 3.4-16.2 3.6-24.3H569.6c-43.3 115.8-60.8 185.3-201.5 185.3h-1.3c-140.7 0-158.2-69.5-201.5-185.3H49.7z" fill="#00a500" fill-rule="evenodd" stroke="#000" stroke-width="2" transform="matrix(.60403 0 0 .63361 528.3 211)"/><g stroke-width="2" fill="none" stroke="#fff"><path d="M234 735c7.7-6.8 19.2-5.7 32.4-1.4 14 5.4 24 .8 34.5-2.8 15.7-9.4 27.1-6 37.2 1.4a33.8 33.8 0 0026.7-2.8c7-3.6 14.5-4.3 23.2 1.4 10 7 23 4.7 36.6.7 13.5-7.2 22.3-5.3 30.2-1.4 12.5 8.9 23.1 4.6 33.8.7 12.8-4.8 16.7-2.6 20.4 0M234 753.6c7.7-6.8 19.2-5.7 32.4-1.4 14 5.5 24 .8 34.5-2.8 15.7-9.4 27.1-6 37.2 1.4a33.8 33.8 0 0026.7-2.8c7-3.6 14.5-4.3 23.2 1.4 10 7.1 23 4.8 36.6.7 13.5-7.2 22.3-5.3 30.2-1.4 12.5 9 23.1 4.6 33.8.7 12.8-4.8 16.7-2.5 20.4 0M233.4 772.3c7.6-6.9 19.1-5.8 32.3-1.4 14 5.4 24 .8 34.5-2.8 15.7-9.4 27.1-6 37.2 1.4a33.8 33.8 0 0026.7-2.9c7-3.6 14.5-4.3 23.2 1.5 10 7 23 4.7 36.6.7 13.5-7.3 22.3-5.3 30.2-1.5 12.5 9 23.1 4.6 33.8.8 12.8-4.8 16.7-2.6 20.3 0" transform="matrix(.60403 0 0 .63361 528.3 211)"/></g><g stroke="#000" stroke-width="2" fill="#f7f7f7" fill-rule="evenodd"><path d="M893 863.2c-8.1 13.5-28 25.5-10.5 42.2 27.8 28.3 59.3 49.1 92.3 67-3.8-12.5-7.6-25-9.7-41l-72.2-68.2zM1515.2 863.2c8 13.5 27.9 25.5 10.4 42.2a381.6 381.6 0 01-92.3 67c3.8-12.5 7.6-25 9.7-41l72.2-68.2z" transform="matrix(.60403 0 0 .62092 23 238.4)"/><path transform="matrix(.60403 0 0 .62092 25.1 243.3)" d="M936.2 807c-2.2.1-5 1.8-8.5 6L886 858c-4.3 5.4-9 10.8 1.9 16.2 80.5 74.8 180 123.1 312.2 125.5h.5c132.3-2.4 231.7-50.7 312.2-125.5 11-5.4 6.2-10.8 2-16.3l-41.6-44.8c-8.9-10.5-12.5-5.3-16.3-.7-67 74-156.7 102.8-256.5 111.2-99.9-8.4-189.5-37.2-256.6-111.2-2.2-2.7-4.4-5.7-7.7-5.4z"/></g><path d="M248 902.3c78.3 32 157.3 28.8 236.8 0l29.6 33c-107.7 48.8-109 11-150.5 47.2-34.4-35-45.7 1.2-143.4-45.7l27.4-34.5z" fill="#fff700" fill-rule="evenodd" stroke="#000" stroke-width="2" transform="matrix(.60403 0 0 .63361 528.3 211)"/><g stroke="#000" stroke-width="2" fill="#fff700" fill-rule="evenodd"><path d="M262.5 905.7c19 7.2 43.4 15.5 36.5 17-3.4 13.3-30.4-6.2-45.4-9.6l-11 10.5c19.8 8.1 39.1 19.4 59.6 19.6 11.7-2 20.2-17.8 9.6-34.6l-39-15.6-10.3 12.7z" transform="matrix(.60403 0 0 .63361 520 211)"/><path d="M350.1 914v.1c-5 .8-9 8.6-9 18.2 0 9.5 4 17.4 9 18.1v.1H412.5c5-.8 9-8.7 9-18.2 0-9.6-4-17.4-9-18.2h0H350zm7.4 12.2H405V939h-47.6v-12.8z" stroke-linecap="round" stroke-linejoin="round" transform="matrix(.60403 0 0 .63361 520 211)"/><path d="M295.4 916.6c-3.2 2.5-5.6 5.4-3.8 9.6a240 240 0 0073.5 10.6c.7-2.8 4.3-5.1.4-8.7-24.1-1.6-47.7-4.8-70-11.5zM499.8 905.7c-19 7.2-43.4 15.5-36.4 17 3.4 13.3 30.4-6.2 45.4-9.6l10.9 10.5c-19.7 8.1-39 19.4-59.5 19.6-11.7-2-20.3-17.8-9.6-34.6l39-15.6 10.2 12.7z" transform="matrix(.60403 0 0 .63361 520 211)"/><path d="M468.7 916.6c3.2 2.5 5.6 5.4 3.8 9.6a240 240 0 01-73.5 10.6c-.7-2.8-4.3-5.1-.4-8.7 24.1-1.6 47.7-4.8 70-11.5z" transform="matrix(.60403 0 0 .63361 520 211)"/></g><g stroke="#000" stroke-width="2" fill="#e7e2de" fill-rule="evenodd"><path d="M311.6 298.8c-11-5.2-13.9 23.4-11.8 24.4-10.2 1.4-11.6 4-11.5 6.7-.4 14 6.4 11.8 11.5 13.4l-1 13.4c-7.8-.3-9.8 2.7-8.5 7.7-.5 11.6 6.8 5.4 10.5 7.6v17.3c-10.4-1-12.3 4.1-9.6 12.4l5.8 3c-17.3-3-19.6 2.9-20 9 1.3 11.5 15.7 5.8 20.5 9.6-4.4 7-.6 8.8.4 12-11.7 0-11.3 5.4-11.5 10.5-1.3 10.8 5.8 9 10.6 10.5-10-1.2-19.6-2-19.2 5.8-.6 12.9 5 9.1 8.6 10.5-20-1.8-22.2.4-21.6 8.4 0 8.8 4.4 11.9 15 11.7-13.8-2.4-27-6.2-26.5 6.7.4 18.9 17.7 8.5 26.4 11.5-12.2-1.8-14.6 1.5-15.1 9-1.2 15.2 18.3 6 26.6 9.2-6.9 1.2-12.1 3.6-8.6 12.5 1.5 10.6 8 5.8 12.4 7.7-8-.5-9.8 10-8.6 25.8-2 16.6.9 26 7.7 26.8-28.1-1-13.4 17-19.5 16.1-12.2-1.8-22.6 2-17.9 11.7-42.3.4-22.5 8.4-25.9 12.3-11.4.1-26.2-2.2-23.9 7.8l-44 2-1 8.6 150.4-2.9-.7-358.7z" transform="matrix(.60403 0 0 .63361 523.7 211)"/><path d="M315.2 657.5h-60.4l3.8-10.5 8.7 1 3.8-9.7 12.4 2 3-11.5 9.5-2 3.8-9.5 10.6-2 4.8 42.2z" transform="matrix(.60403 0 0 .63361 523.7 211)"/><path stroke-linecap="round" stroke-linejoin="round" d="M311.3 278.2h15.3v380.3h-15.3z" transform="matrix(.60403 0 0 .63361 523.7 211)"/><g><path d="M311.6 298.8c-11-5.2-13.9 23.4-11.8 24.4-10.2 1.4-11.6 4-11.5 6.7-.4 14 6.4 11.8 11.5 13.4l-1 13.4c-7.8-.3-9.8 2.7-8.5 7.7-.5 11.6 6.8 5.4 10.5 7.6v17.3c-10.4-1-12.3 4.1-9.6 12.4l5.8 3c-17.3-3-19.6 2.9-20 9 1.3 11.5 15.7 5.8 20.5 9.6-4.4 7-.6 8.8.4 12-11.7 0-11.3 5.4-11.5 10.5-1.3 10.8 5.8 9 10.6 10.5-10-1.2-19.6-2-19.2 5.8-.6 12.9 5 9.1 8.6 10.5-20-1.8-22.2.4-21.6 8.4 0 8.8 4.4 11.9 15 11.7-13.8-2.4-27-6.2-26.5 6.7.4 18.9 17.7 8.5 26.4 11.5-12.2-1.8-14.6 1.5-15.1 9-1.2 15.2 18.3 6 26.6 9.2-6.9 1.2-12.1 3.6-8.6 12.5 1.5 10.6 8 5.8 12.4 7.7-8-.5-9.8 10-8.6 25.8-2 16.6.9 26 7.7 26.8-28.1-1-13.4 17-19.5 16.1-12.2-1.8-22.6 2-17.9 11.7-42.3.4-22.5 8.4-25.9 12.3-11.4.1-26.2-2.2-23.9 7.8l-44 2-1 8.6 150.4-2.9-.7-358.7z" transform="matrix(-.60403 0 0 .63361 976.8 211)"/><path d="M315.2 657.5h-60.4l3.8-10.5 8.7 1 3.8-9.7 12.4 2 3-11.5 9.5-2 3.8-9.5 10.6-2 4.8 42.2z" transform="matrix(-.60403 0 0 .63361 976.8 211)"/><path stroke-linecap="round" stroke-linejoin="round" d="M311.3 278.2h15.3v380.3h-15.3z" transform="matrix(-.60403 0 0 .63361 976.8 211)"/></g></g><g stroke="#000" stroke-width="2" fill-rule="evenodd" stroke-linecap="round" stroke-linejoin="round"><path transform="matrix(.60403 0 0 .63361 558.1 245.8)" d="M363.1 113.7l-44-29-42.9 30.6 14-50.8-42.4-31.3 52.7-2.4 16.6-50 18.5 49.4 52.8.3-41.2 33z" fill="#e92600"/><path d="M501.4 63.6V133.5l-17.4-20-52 2.5.6.4 68.6 18.5 1.5.4-1 .5 31.5 9 38.6-30.9-70.6 20.5 19.1-22.2-19-48.6zm70 49.6l.9.4.3-.3h-1.1zm-70 22.9l4.5 33 41.5 27.3-.5-1.3v.9l-45.5-60zm-1.2.4l-26.1 12.2-13.6 49.4 1.5-1-.6.1 38.8-60.7z" fill="#fff700" transform="matrix(.60403 0 0 .63361 446.8 193.4)"/><path d="M507.2 132a7.4 7.4 0 11-14.8 0 7.4 7.4 0 0114.8 0z" transform="matrix(.60403 0 0 .63361 447.7 194.6)" fill="#5a1902"/><g><path fill="#fae3eb" d="M186.7 119.6h90.2v7.4h-90.2z" transform="matrix(.56673 -.21922 .20898 .59448 535 274.3)"/><path fill="#e92600" d="M186.7 112.7h90.2v7.4h-90.2z" transform="matrix(.56673 -.21922 .20898 .59448 535 274.3)"/><g><path fill="#fae3eb" d="M186.7 119.6h90.2v7.4h-90.2z" transform="scale(-.60403 .63361) rotate(-20.2 413.6 4693.8)"/><path fill="#e92600" d="M186.7 112.7h90.2v7.4h-90.2z" transform="scale(-.60403 .63361) rotate(-20.2 413.6 4693.8)"/></g></g><g><path fill="#fae3eb" d="M297.2 198.9h64.4v7.4h-64.4z" transform="scale(.60403 .63361) rotate(-45 1155.9 -640.7)"/><path fill="#e92600" d="M297.2 191.9h64.4v7.4h-64.4z" transform="scale(.60403 .63361) rotate(-45 1155.9 -640.7)"/><g><path fill="#fae3eb" d="M297.2 198.9h64.4v7.4h-64.4z" transform="scale(-.60403 .63361) rotate(-45 -86.2 2358)"/><path fill="#e92600" d="M297.2 191.9h64.4v7.4h-64.4z" transform="scale(-.60403 .63361) rotate(-45 -86.2 2358)"/></g></g></g><path d="M367.2 590.4c-22.6 16-42.2 31.3-53.4 45.3-5 5.4-9.9 11.2-14.4 17.7H96.2c22.7 38.8 5.8 1.4 50.5 58.7 33.4 4.6 64 10.4 96.3-1.6a60.7 60.7 0 0057.2-6c22.6-11.8 42.8-30.1 66.8-32.7h.8c24 2.6 44.3 21 66.9 32.7 17.1 13 37.8 12.5 57.2 6 29.8 13.5 60.6 4.6 91.2-.3 14.1-26.8 33.4-21.3 55.6-56.8H435.5c-4.5-6.4-9.3-12.2-14.3-17.6-11.2-14-30.8-29.4-53.5-45.4l-.3.2-.2-.2z" fill="#fff700" fill-rule="evenodd" stroke="#000" stroke-width="2" transform="matrix(.60403 0 0 .63361 528.3 211)"/><g stroke="#000" stroke-width="2" fill-rule="evenodd"><path d="M515.8 247.7c4.5 5.3 9 10.6 13.3 16-1.8 5 2.3 16.9 10.4 28.7 8.6 12.6 18.7 21 23.8 20 8.3 13.5 15.7 27.1 22.3 40.8-8.4-1.2-16.5-24.8-34-32.2-19-5-20-13-27.5-22 12.1 22.3 2 34.2 28.3 52a44.4 44.4 0 0027.4 9.1c4.3.6 7.5 1.4 10.2 2.5a455 455 0 0121.8 58c-8.5-3-12.3-29-29-40.1-9.4-3.9-20.3-3.4-27-10.5 7.8 12.4 7.8 27.5 21.8 42a47.3 47.3 0 0027 14.8c4.5 1.4 7.7 3 10.3 4.7 5 18.3 8.7 36.5 11.2 54.4-7.3-6.8-8.7-31.6-24.2-44.5-9.6-5.3-21.7-6.3-27.8-14.8 6.8 13.9 4.6 29.6 17.7 46.6 7.9 9.9 16.8 16.5 27 19.1 3.6 1.6 6.4 3.2 8.6 4.8 2 18.6 2.8 36.8 2.3 54.3-7.5-6.3-3.2-32.9-16.9-49.2-8.5-7-20.1-10.1-24.7-19.5 4.2 14.9-.8 30 9 49a51.8 51.8 0 0023.2 23.5c4 2.8 6.7 5.3 8.8 7.6a337 337 0 01-7.4 52.3c-9.8-5.7 2.3-34-9.7-54.7-7.7-8.8-19.4-14.4-22.3-25 1.5 16-6.8 30.2-.1 51.5a54.7 54.7 0 0019.8 28.7 50 50 0 019.1 11.7 349.8 349.8 0 01-15.8 45.1c-2.5-9.7 7.8-30-.5-47.6-6.7-9.3-18.1-16-19.8-26.2-.4 15-10.7 26.9-6.6 47.5 2.7 12 8.2 22 16.9 29.2 2.3 2.8 4 5.2 5.4 7.4a433.1 433.1 0 01-29.6 53.4c-13.8-8.4 14.2-28 11.6-53.3-3.3-11.1-11.8-21.3-10.1-31.6-5.4 14.2-19.1 22.3-22 43.5a52.5 52.5 0 006.2 33.7c4.2 10.8 3.5 16.3 4 23a511.5 511.5 0 01-29.9 38.3c-13.4-10.4 18-27.4 18.4-54-2.2-12-9.8-23.6-6.8-34-7.2 14.1-22.5 21-28 42.6a54.9 54.9 0 002.5 35.7c3 11.4 1.7 17 1.3 23.8l-1.2 1.4c-57.5 39.4-103.1 73.3-178 86.6-8 1-8.7 2.4-6.5 7.5 1.3 3.1 14.5 5.5 16.4 4 64.8-16.4 125.8-51.3 186-96.9l1.2-1.3c16.1-.8 31.8 1.3 46.8-5.2 25.1-10.6 28.3-28 44.5-49-8.6 6.8-22 8.7-37.1 9-24 2-31.3 30.7-44.9 34a533 533 0 0032.2-43.7c15.3-2.5 30.4-2.2 44-10 22.8-12.8 24-29.6 37.1-51.4-7.4 7.4-20 10.6-34.4 12.5-22.7 4.6-26.5 33.3-39.4 37.5 8.5-13.8 16-27.4 22.5-41l.1.4c17-14.1 38.6-17 52.7-32.6 17.3-19.2 12.9-35.1 18.3-59.5-4.7 9.2-15.5 16.2-28.4 22.5-23.5 13.6-11.4 49.6-32.5 49.5h-1.4a387.2 387.2 0 0016-46c13.8-13 30.6-19.9 40.6-36.3 14-23 7.8-39.3 9.7-66-3.2 10.5-12.6 19.5-24.2 28.1-19.5 16.9-6 50.5-21.6 56.6 3.6-15.9 6-31.6 7.4-47 10.2-15.2 24.4-24.8 30.7-42.5 8.7-24.4 0-38.8-3-64.7-1 10.6-8 21-17 31.3-14.8 19.7 3.5 49.2-9.5 58 .6-16.3.1-32.2-1.4-47.7 7.2-17.5 20.1-29.6 23.2-48.6 4.1-25.7-7-38.3-14.5-63.1.8 10.5-4.2 22-11.2 33.8-11.2 22.4 13.2 48.8.3 59.3a383.8 383.8 0 00-12-54c4.6-15.7 13.4-28.2 13.7-45.3.5-24.8-11.2-35.5-21.2-58.2 2 10-1 21.5-5.8 33.5-7 22.2 16.9 43.6 8.7 55.5a421.2 421.2 0 00-21.7-52c.7-17.2 8-31.3 5-48.6.3-23.9-20.7-30.7-40.9-48.9 3.7 8.9 19.1 15.8 11.8 30.7-2.8 23 26 39.2 16.3 52a435.2 435.2 0 00-23.1-37.7c1.5-4.7-2-15.6-8.8-26.5-5.3-8.8-17.6-21.7-28.7-22.7-.7 0-1.4.2-2 .6-5.2-5.4-10.2-10.1-14.8-14zm24.1 454c.7-1.4 1.3-2.7 1.8-4.2-.8 1.4-1.4 2.7-1.8 4.1zm30.1-50.5c.5-1.3 1-2.7 1.3-4.2-.7 1.4-1 2.8-1.3 4.2zm12.4-52.6v-4.1c-.2 1.4-.2 2.8 0 4zm7.3-63.2l-.7-4.4c0 1.6.3 3 .7 4.4zm-1.6-52.7c-.4-1.4-.9-2.9-1.5-4.3.4 1.6.8 3 1.5 4.3zm-14-56.1a38.2 38.2 0 000 0zm-21-60.1c.8 1.3 1.7 2.5 2.6 3.5l-2.5-3.5z" fill="#fff700" transform="matrix(.60403 0 0 .63361 521.5 211)"/><path d="M522.5 762.9V759v-3.5a330.6 330.6 0 01-.2-7c0-1.2.4-2.4.7-3.6.3-1.2.8-2.4 1.3-3.6l1.8-4.2 1.2-2.7c1.2-.4 1-1.7 1.5-2.5l.3-.3v-.2l-1 2v-.2l1.4-2v.2l-1.2 2.3-.4.5-.1.2 1-1.9-.5 1-.7 1.7c-.6 1.5-1.3 2.8-1.8 4.3-.6 1.1-1 2.3-1.4 3.5-.3 1.2-.7 2.4-.7 3.6v7c.2 1.2.3 2.3.2 3.5v3.8l-1.4 2zM591.6 779.2l-2.4 1.8-2.2 1.8a260.7 260.7 0 01-4.3 3.4c-.8.6-1.7.9-2.6 1.3l-2.9.9-3.5.8c-.8.3-1.5.4-2.3.5-.8-.5-1.5.3-2.3.3h-.3-.1l1.7-.2h-2.1.2c.7 0 1.3-.2 2-.3h.7l-1.7.2c.3 0 .6 0 1-.2l1.3-.3 3.6-.9c1-.2 2-.5 2.8-.9 1-.3 1.9-.6 2.6-1.2l1.6-1.2a81 81 0 002.8-2.2l2.1-1.8 2.4-1.8h2zM560.1 711.2c0-1.2-.2-2.4-.4-3.6 0-1.1-.3-2.3-.5-3.4a315.6 315.6 0 01-.9-6.6l.3-3.5c.2-1.2.5-2.4.9-3.5.3-1.5.9-2.8 1.3-4.3.2-.9.4-1.8.8-2.6 1-.5.7-1.8 1.1-2.6l.2-.3s.1-.3 0-.2l-.8 2v-.2l1.2-2v.2l-.9 2.3-.3.5s-.1.2 0 .2l.7-1.9-.4 1-.5 1.7-1.3 4.2c-.3 1.2-.7 2.4-.8 3.6-.2 1.1-.5 2.3-.3 3.5l.2 2.3.6 4.3.5 3.3.5 3.6-1.2 2zM627.6 719.3l-2 2c-.8.6-1.3 1.3-2 2a249.3 249.3 0 01-3.7 3.6c-.7.6-1.5 1-2.4 1.5-.8.5-1.7.8-2.6 1.2l-3.3 1.2-2 .7c-.9-.4-1.5.4-2.2.5h-.3s-.2.1-.2 0c.6 0 1.1-.2 1.7-.3h-.1l-1.9.3.1-.1 2-.5h.4l.2-.1-1.6.4.9-.3 1.2-.5c1.1-.4 2.3-.7 3.3-1.2 1-.3 1.8-.6 2.7-1.1.8-.4 1.6-.8 2.3-1.5l1.4-1.3 2.4-2.4 1.8-1.9 2-2 2-.2zM592.6 657.5l-1.5-3.2-1.6-3a307.2 307.2 0 01-3-5.8c-.5-1-.6-2.2-.8-3.4-.3-1.1-.4-2.3-.4-3.5l-.1-4.4c-.2-.9-.2-1.8-.1-2.7.8-.8 0-1.8.2-2.7v-.4-.2l-.1 2.1v-.2l.5-2.2v.2l-.1 2.4-.1.5v-1.7 1.1l.1 1.7c.1 1.4 0 2.9.2 4.3 0 1.2 0 2.4.3 3.6.2 1.1.4 2.2.9 3.3l1 2.1 1.9 3.8 1.6 2.9 1.6 3.2-.5 2.2zM658.9 643.5l-1.4 2.5-1.1 2.4a242.6 242.6 0 01-2.3 4.6c-.5.8-1.1 1.4-1.8 2.1l-2 2-2.8 2c-.5.6-1.1 1-1.7 1.4-1 0-1.2.9-1.9 1.2l-.3.1s-.1.1 0 .1l1.3-.9v.1l-1.7.8v-.1l1.7-1c.1-.2.3-.2.4-.3 0 0 .2-.1.2 0l-1.4.8.8-.5 1-.9 2.7-2.1a17 17 0 002.1-2c.6-.6 1.3-1.2 1.7-2l1-1.7 1.4-3 1.1-2.3c.5-.9 1-1.7 1.3-2.5l1.7-.8zM607 596.7l-1.8-3.3-2-3a333.2 333.2 0 01-3.5-5.7 25.5 25.5 0 01-2.1-7.2l-.7-4.5c-.2-1-.4-2-.4-3 .7-1-.2-1.9-.2-2.9v-.4-.2l.1 2.3v-.2l.2-2.5v.2l.2 2.6v.8l-.1-2v1.1l.4 1.8.7 4.6c.2 1.3.4 2.5.8 3.7.3 1.2.6 2.4 1.2 3.4l1.3 2.1 2.3 3.7 1.9 3 1.9 3.1-.1 2.5zM668.5 572l-1 3-.7 2.7a282 282 0 01-1.6 5.2c-.3 1-.9 1.7-1.4 2.5-.5.9-1.1 1.6-1.8 2.4-.7 1-1.5 1.8-2.3 2.7l-1.4 1.7c-1 0-1 1-1.7 1.5l-.2.2h-.1l1.2-1s0 0 0 0l-1.5 1s0 0 0 0l1.4-1.4.4-.3.1-.1-1.1 1 .6-.6.9-1c.7-1 1.6-1.8 2.3-2.7l1.8-2.3c.5-.8 1-1.6 1.3-2.5l.7-2 1-3.3c.2-.9.4-1.8.8-2.7l.9-2.8 1.4-1.1zM614.8 537.6l-2.3-2.7c-.7-.9-1.5-1.6-2.3-2.4a317.6 317.6 0 01-4.2-4.8c-.8-1-1.3-2-1.8-3-.6-1.2-1-2.3-1.4-3.5l-1.5-4.2-1-2.7c.6-1.1-.4-1.9-.6-2.8v-.4-.2l.4 2.1v-.1l-.3-2.4v.2l.7 2.4v.6l.1.2-.5-2 .3 1.2.7 1.6 1.4 4.2c.4 1.2.8 2.3 1.4 3.4.5 1 1 2.2 1.7 3l1.5 1.8 2.8 3.1 2.3 2.4c.7 1 1.5 1.8 2.3 2.7l.3 2.3zM666.4 502.8l-.3 2.9-.3 2.7a286 286 0 01-.5 5.3c-.1 1-.5 1.8-.8 2.7-.3.9-.7 1.7-1.2 2.5l-1.6 3-1 2c-.9 0-.8 1.1-1.2 1.6l-.3.3s0 .1 0 0l1-1.2h-.1l-1.2 1.4v-.2l1-1.5.3-.4.1-.1-.8 1.3.5-.8.6-1.2 1.6-3c.4-.8.9-1.6 1.2-2.5.3-.8.7-1.7.8-2.6l.2-2 .4-3.3c0-1 0-1.9.2-2.8 0-1 .2-1.9.3-2.8l1.1-1.3zM610.3 476l-2.8-2.3-2.7-2a318 318 0 01-5-4c-1-.7-1.6-1.7-2.3-2.6-.8-1-1.4-2-2-3.1l-2.2-4c-.6-.7-1-1.6-1.4-2.4.3-1.2-.8-1.7-1.1-2.6l-.2-.4v-.2l.8 2v-.1l-.8-2.3.1.1 1 2.3.3.6s.1.2 0 .2l-.8-1.9.5 1 1 1.5c.7 1.3 1.3 2.7 2.1 4 .6 1 1.2 2 2 3 .7 1 1.3 2 2.2 2.7l1.8 1.5a99 99 0 003.3 2.5l2.7 2 2.7 2.2.8 2.3zM654.8 432.4l.2 3 .2 2.7a285.8 285.8 0 01.5 5.2c0 1-.2 2-.3 2.8l-.8 2.8-1 3.2-.7 2c-.8.3-.5 1.4-.9 2l-.1.2s-.1.2 0 .2l.6-1.5v.1l-1 1.5v-.1l.8-1.8.2-.4s.1-.2 0-.1l-.5 1.4c0-.3.2-.5.3-.8l.4-1.3 1-3.2.8-2.7c.1-1 .3-1.8.3-2.8l-.1-1.9-.3-3.4-.3-2.7c0-1 0-2-.2-2.9l1-1.5zM594.7 412.3l-2.8-1.8-2.7-1.6a291.8 291.8 0 01-5-3.2 24.4 24.4 0 01-4.6-5c-1-1-1.8-2.2-2.6-3.4-.6-.6-1-1.4-1.6-2.2.1-1-1-1.5-1.3-2.3l-.2-.3c0-.1-.1-.2 0-.2l1 1.8-.2-.1-.9-2h.1l1.3 2 .2.6.1.2-1-1.7.6 1 1 1.2 2.5 3.5c.7 1 1.4 1.9 2.2 2.7.7.8 1.5 1.6 2.4 2.2l1.8 1.2a91 91 0 003.3 2l2.6 1.6 2.8 1.7 1 2zM629.4 365.4l.5 2.8.6 2.5a287.4 287.4 0 011 5 18.3 18.3 0 01-.2 5.4l-.5 3.2c0 .7-.2 1.3-.3 2-.7.4-.4 1.3-.6 2l-.1.2v.1l.4-1.5v.2l-.7 1.5v-.1l.5-1.8.1-.4v-.1l-.3 1.4.2-.8.2-1.3.5-3.2.3-2.7v-2.6l-.4-1.8-.7-3.2-.6-2.6-.5-2.7.6-1.5zM568.2 348.4l-2.9-1.2-2.7-1a273.4 273.4 0 01-5.3-2 23 23 0 01-5.1-3.8l-2.9-2.8c-.7-.5-1.3-1-1.8-1.7-.1-1-1.2-1.3-1.7-2l-.2-.3s-.1-.1-.1 0l1.3 1.4h-.2l-1.2-1.8h.1l1.6 1.7.3.4.1.2-1.2-1.4.7.8 1.1 1 3 2.8c.7.7 1.5 1.5 2.4 2.1.8.6 1.7 1.3 2.6 1.7l1.9.8 3.4 1.3c.9.3 1.8.5 2.7 1l2.8 1 1.3 1.8zM592.1 298.9l1 2.5 1 2.2a272 272 0 011.8 4.5 17.4 17.4 0 01.7 5v3c.2.7.2 1.3.1 2-.5.5 0 1.3-.2 1.9v.4l.1-1.5v.1l-.3 1.5s0 0 0 0v-1.8l.2-.3v-.2l-.1 1.4v-.8-1.2l-.1-3c0-.9 0-1.7-.2-2.6 0-.8-.2-1.6-.5-2.4l-.6-1.6-1.2-2.9-1-2.3-1-2.4.3-1.5zM540 276l2.5 2 2.4 1.6a273.3 273.3 0 014.5 3.4 23 23 0 014 5l2 3.4c.6.6 1 1.4 1.4 2.1-.2 1 .8 1.5 1.1 2.3l.1.4.1.1-.8-1.7s0 0 0 0l.8 2h-.1l-1-2-.3-.5v-.2l.8 1.6-.5-.9-.9-1.3-2-3.4c-.6-1-1.2-1.9-1.9-2.7-.6-.8-1.2-1.7-2-2.3l-1.7-1.2-2.9-2.2-2.4-1.6-2.4-1.8-.8-2z" stroke-linecap="round" stroke-linejoin="round" transform="matrix(.60403 0 0 .63361 521.5 211)"/><g><path d="M429.3 891.8c8 1 8.6 2.4 6.4 7.5-1.3 3.1-14.5 5.5-16.5 4-64.7-16.4-125.7-51.3-186-96.9l7.6-9.3c57.6 39.5 113.5 81.4 188.5 94.7z" fill="#00a500" transform="matrix(.60403 0 0 .63361 521.5 211)"/><g fill="#0cad00"><path d="M168.5 315.2c3.1-11.1-.4-34 11.3-30 9.1-18.7 13.5-19.6 17.8-20.5l2.7 5.5c8.2-6 17.2-10.3 27.8-11.4l-6 19.1c14.6 5.8-1.9 16.3-10 25.5 15.4 17.8-11.9 22.7-23.2 24.6l-20.4-12.8z" transform="matrix(.60403 0 0 .63361 521.5 211)"/><path d="M211.3 276.5l-1.2.7a6 6 0 00-2 2l-2 2.6a178.3 178.3 0 01-5 7l-2.8 3.6c-.6-2.3-.4-1.5 0 0 0 0 0 0 0 0l-.7-2.5-.6-1.7s0 0 0 0v.5c.8 2.6-.3-1.2-.3-1.2l.2.6a17 17 0 01-.6-3.7l-1.3-2.9c.1 1.5.4 3 .8 4.5 0 .3 0 .6.2.8l1.1 3.8.8 2.3-.2-.9-.1-.3-.2-.5.3.8.4.8h-.1s0 0 0 0c-.7 1-1.5 1.6-2 2.5l-2.2 3a31.2 31.2 0 00-4.4 7.3c-.7 1.7-1.2 3.4-2 5L186 313l-.4.8c.8-1.4 2.6-4.6 1.6-2.7l-1.7 4.2c1.7-2.6 3-5.3 4.5-8 .7-1.3 1.1-2.7 1.6-4.1l-.5.7-.4.6c2.7-5 2-3.8 1.3-2.3l-.4 1 .5-.6 2-3c.7-1 1.4-1.7 2.1-2.5l2.3-3 .3.6v-.6l-.2-.2a83 83 0 014-5.2c.7-.8 1.2-1.7 1.8-2.6l2-2.6a8.1 8.1 0 013-2.8l1.8-4.1zm-29.6 11.9a39 39 0 001 6.3l.3 1.3 1.7 5.3c.3 1.2.8 2.3 1.2 3.5l-.4-1.4 1.8 3.7-.2-.9c-2.3-7.8-1.6-5.3-.9-2.8l-.9-3-.9-2.4v-.3c0 .3 0 .7.2 1l-.5-1.8.2.8a24 24 0 01-.7-5.2l-2-4.1zm34 .4l-4.4 1.2c-1.4 1.1-3 2-4.7 2.8.4-.1 1.3-.5 1-.3 0 0-5.2 2.3-1.7.7l.6-.3-2.4.9c-7.6 3.4-5.3 2.3-3 1.2l-2.6 1.2-.7.4 4-1-1.2.4c1-.4 2.2-.7 3.2-1.2l5.2-2.1 1.1-.6c2-1 3.8-2 5.5-3.3zm-12.8 6.3l-.8.3-.2.1 1-.4zm-17.8 7l.4 1.2-.2-.3-.2-.8zm17.7 6.8l-.6.1-2 .3-2.2.3-1.8.4h.6c2.6-.4-1.3.1-1.3.1l.7-.1c-1.3 0-2.6.2-3.9 0l-3 1c1.5 0 3 0 4.5-.2h1c1.2-.3 2.5-.4 3.8-.6l2.2-.5h-.7l2.7-.8zm-2.7.9h-.3l-.4.1h.5l.2-.1z" stroke-linecap="round" stroke-linejoin="round" transform="matrix(.60403 0 0 .63361 521.5 211)"/></g><g stroke-width="2.7" stroke-linecap="round" stroke-linejoin="round"><path d="M231.4 757.2c4.9 18.1-6 36.7-24 41.7-18.3 5-47.2 11.1-41.8-24.1-10-8.6-11-16.2 1.7-22-5-16.6 5.8-26.5 22.4-19.7 8.9-3.7 17.8-14.1 26.2 3.6 12-8.2 16.4 5.3 15.5 20.5z" fill="#fffff7" transform="matrix(.11986 .46406 -.41363 .12743 916.6 237)"/><path d="M241.7 791.2c0 12-9.8 18.6-21 21.6-18.7 4.9-82.3-8.9-21-21.6 5.5-1.2-5.2-14.7-3.2-28.7 10.8-2 22.9 12.7 24.2 7.1 14.9-63.7 23.8 4.9 21 21.6z" fill="#0cad00" transform="matrix(.11986 .46406 -.41363 .12743 916.6 237)"/></g><g stroke-width="2.6" stroke-linecap="round" stroke-linejoin="round"><path d="M231.4 757.2c4.9 18.1-6 36.7-24 41.7-18.3 5-47.2 11.1-41.8-24.1-10-8.6-11-16.2 1.7-22-5-16.6 5.8-26.5 22.4-19.7 8.9-3.7 17.8-14.1 26.2 3.6 12-8.2 16.4 5.3 15.5 20.5z" fill="#fffff7" transform="matrix(.19098 .46222 -.4287 .19506 899.6 220)"/><path d="M241.7 791.2c0 12-9.8 18.6-21 21.6-18.7 4.9-82.3-8.9-21-21.6 5.5-1.2-5.2-14.7-3.2-28.7 10.8-2 22.9 12.7 24.2 7.1 14.9-63.7 23.8 4.9 21 21.6z" fill="#0cad00" transform="matrix(.19098 .46222 -.4287 .19506 899.6 220)"/></g><g stroke-width="2.4" stroke-linecap="round" stroke-linejoin="round"><path d="M231.4 757.2c4.9 18.1-6 36.7-24 41.7-18.3 5-47.2 11.1-41.8-24.1-10-8.6-11-16.2 1.7-22-5-16.6 5.8-26.5 22.4-19.7 8.9-3.7 17.8-14.1 26.2 3.6 12-8.2 16.4 5.3 15.5 20.5z" fill="#fffff7" transform="matrix(.2927 .43862 -.40893 .2984 854.2 181.3)"/><path d="M241.7 791.2c0 12-9.8 18.6-21 21.6-18.7 4.9-82.3-8.9-21-21.6 5.5-1.2-5.2-14.7-3.2-28.7 10.8-2 22.9 12.7 24.2 7.1 14.9-63.7 23.8 4.9 21 21.6z" fill="#0cad00" transform="matrix(.2927 .43862 -.40893 .2984 854.2 181.3)"/></g><g stroke-width="2.2" stroke-linecap="round" stroke-linejoin="round"><path d="M231.4 757.2c4.9 18.1-6 36.7-24 41.7-18.3 5-47.2 11.1-41.8-24.1-10-8.6-11-16.2 1.7-22-5-16.6 5.8-26.5 22.4-19.7 8.9-3.7 17.8-14.1 26.2 3.6 12-8.2 16.4 5.3 15.5 20.5z" fill="#fffff7" transform="matrix(.41317 .39301 -.39949 .37845 817.7 166.5)"/><path d="M241.7 791.2c0 12-9.8 18.6-21 21.6-18.7 4.9-82.3-8.9-21-21.6 5.5-1.2-5.2-14.7-3.2-28.7 10.8-2 22.9 12.7 24.2 7.1 14.9-63.7 23.8 4.9 21 21.6z" fill="#0cad00" transform="matrix(.41317 .39301 -.39949 .37845 817.7 166.5)"/></g><g stroke-width="2.2" stroke-linecap="round" stroke-linejoin="round"><path d="M231.4 757.2c4.9 18.1-6 36.7-24 41.7-18.3 5-47.2 11.1-41.8-24.1-10-8.6-11-16.2 1.7-22-5-16.6 5.8-26.5 22.4-19.7 8.9-3.7 17.8-14.1 26.2 3.6 12-8.2 16.4 5.3 15.5 20.5z" fill="#fffff7" transform="matrix(.46654 .34617 -.3395 .45587 762 154.1)"/><path d="M241.7 791.2c0 12-9.8 18.6-21 21.6-18.7 4.9-82.3-8.9-21-21.6 5.5-1.2-5.2-14.7-3.2-28.7 10.8-2 22.9 12.7 24.2 7.1 14.9-63.7 23.8 4.9 21 21.6z" fill="#0cad00" transform="matrix(.46654 .34617 -.3395 .45587 762 154.1)"/></g><g stroke-width="2.1" stroke-linecap="round" stroke-linejoin="round"><path d="M231.4 757.2c4.9 18.1-6 36.7-24 41.7-18.3 5-47.2 11.1-41.8-24.1-10-8.6-11-16.2 1.7-22-5-16.6 5.8-26.5 22.4-19.7 8.9-3.7 17.8-14.1 26.2 3.6 12-8.2 16.4 5.3 15.5 20.5z" fill="#fffff7" transform="matrix(.51957 .29233 -.25663 .54984 695.5 132.7)"/><path d="M241.7 791.2c0 12-9.8 18.6-21 21.6-18.7 4.9-82.3-8.9-21-21.6 5.5-1.2-5.2-14.7-3.2-28.7 10.8-2 22.9 12.7 24.2 7.1 14.9-63.7 23.8 4.9 21 21.6z" fill="#0cad00" transform="matrix(.51957 .29233 -.25663 .54984 695.5 132.7)"/></g><g stroke-linecap="round" stroke-linejoin="round"><path d="M231.4 757.2c4.9 18.1-6 36.7-24 41.7-18.3 5-47.2 11.1-41.8-24.1-10-8.6-11-16.2 1.7-22-5-16.6 5.8-26.5 22.4-19.7 8.9-3.7 17.8-14.1 26.2 3.6 12-8.2 16.4 5.3 15.5 20.5z" fill="#fffff7" transform="matrix(.60188 .135 -.13698 .59316 601.6 174)"/><path d="M241.7 791.2c0 12-9.8 18.6-21 21.6-18.7 4.9-82.3-8.9-21-21.6 5.5-1.2-5.2-14.7-3.2-28.7 10.8-2 22.9 12.7 24.2 7.1 14.9-63.7 23.8 4.9 21 21.6z" fill="#0cad00" transform="matrix(.60188 .135 -.13698 .59316 601.6 174)"/></g><g stroke-linecap="round" stroke-linejoin="round"><path d="M231.4 757.2c4.9 18.1-6 36.7-24 41.7-18.3 5-47.2 11.1-41.8-24.1-10-8.6-11-16.2 1.7-22-5-16.6 5.8-26.5 22.4-19.7 8.9-3.7 17.8-14.1 26.2 3.6 12-8.2 16.4 5.3 15.5 20.5z" fill="#fffff7" transform="matrix(.60403 0 0 .63361 521.5 211)"/><path d="M241.7 791.2c0 12-9.8 18.6-21 21.6-18.7 4.9-82.3-8.9-21-21.6 5.5-1.2-5.2-14.7-3.2-28.7 10.8-2 22.9 12.7 24.2 7.1 14.9-63.7 23.8 4.9 21 21.6z" fill="#0cad00" transform="matrix(.60403 0 0 .63361 521.5 211)"/></g></g></g><g stroke="#000" stroke-width="2"><g fill-rule="evenodd"><g fill="#fff" stroke-linecap="round" stroke-linejoin="round"><path d="M346.9 603.1h60.8v30.2h-60.8z" transform="matrix(.60403 0 0 .63361 524 211)"/><path d="M346.9 632.1h61.4v14.5h-61.4z" transform="matrix(.60403 0 0 .63361 524 211)"/><path d="M344.9 640.4h64.7v18.7h-64.7z" transform="matrix(.60403 0 0 .63361 524 211)"/></g><g fill="#fffff7"><path d="M361 242.5h14.6v366.7l-6.6 8.6-8-8.6V242.5z" stroke-linecap="round" stroke-linejoin="round" transform="matrix(.62173 0 0 .63361 518.2 211)"/><path d="M354.9 619.7c-5-3.2-6.5-10-8.2-16.6L357 242.7l9.4.8-4.7 367.3-6.8 9z" transform="matrix(.62173 0 0 .63361 518.2 211)"/><path d="M390.4 242.5H376v366.7l6.6 8.6 8-8.6V242.5z" stroke-linecap="round" stroke-linejoin="round" transform="matrix(.62173 0 0 .63361 518.2 211)"/><path d="M396.6 619.7c5-3.2 6.5-10 8.2-16.6l-10.3-360.4-9.4.8 4.7 367.3 6.8 9z" transform="matrix(.62173 0 0 .63361 518.2 211)"/><path stroke-linecap="round" stroke-linejoin="round" d="M355.7 231.7H395V245h-39.3z" transform="matrix(.62173 0 0 .63361 518.2 211)"/><path d="M374.3 170.3l-.5 19.2a65 65 0 00-4.4 5l-.1.1c-8.4 8.4-10.8 25-14.8 39.4h.2l-.2.8c5.6 3 8.1 1.4 9.8.1 1.7-1.3 2.5-1.8 4.1-3.8l6.3 7.3.2-.2.3.2 6.3-7.3c1.7 2 2.4 2.5 4.1 3.8 1.7 1.3 4.2 3 9.9 0l-.3-.9h.3c-4.1-14.3-6.5-31-14.9-39.4 0 0 0 0 0 0a65 65 0 00-4.5-5.1l-.4-19.2c-.8-1.9-1-.5-1.4 0z" transform="matrix(.62173 0 0 .63361 518.2 211)"/></g></g><path d="M357.9 648.7l11.8 8.1 11.8-8 9.3 9.1 12.1-12.6 6.3 20.5a119 119 0 0029.3 41.1c-21.1 6.4-40.8 17.6-68.8 1.8-28 15.8-47.6 4.6-68.7-1.8a119 119 0 0029.2-41.1l6.3-20.5 12.1 12.6 9.3-9.2z" fill="#fff" fill-rule="evenodd" transform="matrix(.60403 0 0 .63361 528.3 211)"/></g><g stroke="#000" stroke-width="2" fill="#fffff7" fill-rule="evenodd"><path d="M1006.4 862.4c17 10.3 26.5 14.7 35.7 18.7-33 32.2-27.4-8.5-35.7-18.7z" transform="matrix(.60403 0 0 .63361 22.2 232.5)"/><path d="M1095.9 809.8c-28.4 14.4-51.6 40.3-72 72.5-5.8 6.4-5.8 10.6 1.2 12.1 12.6-.1 19.7 4 24.2 10.3 11 1 17.6-1.3 20.6-6.7 19.3-22.5 33.9-44.3 75-63.4 5.3-1.6 7-6 6.6-14l-55.6-10.8z" transform="matrix(.60403 0 0 .63361 22.2 232.5)"/><path d="M1097.7 828.5c1.7 6.1 6.6 19.4 15.7 12.1 18.1-14 60.8-19.3 64-24.2 2.9-5.4 3.5-10.9 4.9-16.3l-84.6 28.4zM1410.8 857.5c-21.4 15-28.7 15.4-38.7 24.8 26.3 29.1 28-4.9 38.7-24.8z" transform="matrix(.60403 0 0 .63361 22.2 232.5)"/><path d="M1314.7 809.8c28.4 14.4 51.6 40.3 71.9 72.5 5.8 6.4 5.9 10.6-1.2 12.1-12.5-.1-19.7 4-24.2 10.3-11 1-17.6-1.3-20.5-6.7-19.3-22.5-34-44.3-75-63.4-5.4-1.6-7-6-6.6-14l55.6-10.8z" transform="matrix(.60403 0 0 .63361 22.2 232.5)"/><path d="M1312.9 828.5c-1.8 6.1-6.6 19.4-15.8 12.1-18-14-60.8-19.3-64-24.2-2.9-5.4-3.5-10.9-4.9-16.3l84.7 28.4z" transform="matrix(.60403 0 0 .63361 22.2 232.5)"/><path transform="matrix(.60403 0 0 .63361 24.4 237.5)" d="M1201.7 742c-45.7 1-87.1 15.7-126.4 37.6-4.2 5-9 9.8-5.4 16.3 15.4 5.8 20.8 30.8 29.6 37.5 16.6-19.2 43.9-34.3 102.2-37.5 58.2 3.2 85.5 18.3 102.1 37.5 8.9-6.7 14.2-31.7 29.6-37.5 3.6-6.5-1.2-11.4-5.4-16.3-39.2-22-80.7-36.5-126.3-37.5z"/></g><path d="M737.3 856.7c-.2-.4 0-1 .5-1.6.8-.8.8-1.5.9-6.2 0-3.1.2-5.7.4-6.2.8-1.4.8-3.9.1-5-.6-1-.6-1 .4-1.7 1-.6 1.3-.7 2.4-.2a8 8 0 002.3.4c1.3 0 1.8 1 1 2-.6.6-.7 1.6-.7 4a14 14 0 01-.5 4c-.2.5-.5 2.6-.6 4.6-.2 3.1 0 3.8.5 4.5 1.2 1.4.2 2-3.4 2-2.5 0-3.1 0-3.3-.6zm19.3-.2c-.2-.3 0-.8.3-1.1.4-.4.7-1.9.8-3.3.1-1.4.3-2.7.5-3l.4-5c.1-4.1 0-4.6-.7-5.6l-.8-1.1 1-1c1.7-1.5 3.7-1.3 5.3.4.7.7 1.3 1.6 1.3 2 5.4 9 3.1 9.9 6.5.1.3-.4.4-1 .3-1.2-.2-.8 1.8-2.3 3-2.3.6 0 1.8-.3 2.6-.6 2-.7 2.5-.3 1.6 1.4-.4.9-.6 1.9-.4 2.7 0 .7.4 2.6.6 4.1.3 1.6.6 3.2.8 3.6.2.4.4 1 .4 1.5 0 1 1.6 4.3 2.2 4.6.9.3.6 1.1-.5 1.8-1.4.9-7.3 1.2-7.5.5-.1-.3.2-.7.8-1 1.4-.5 1.5-.8.9-2.7-.3-.9-.7-2.5-.8-3.6a7 7 0 00-.6-2.5c-.2-.3-.4-1-.3-1.7 0-.9-.1-1.3-.6-1.4-.4 0-.7.1-.7.5l-3.5 10.5c0 1.3-.3 1.9-.9 2.2-.7.4-1 .3-1.3-.3-.6-.7-1.1-1.8-1.6-3a15 15 0 00-1-1.9l-1-1.9c-1.2-3-1.6-3.7-2-3.7-.5 0-.8 2.8-.6 5.3 0 .6-.1 1.3-.4 1.6-.3.4-.4.8 0 1.5.7 1.6.9 3.1.3 3.5-.6.6-4.1.6-4.4 0zm-30-.3v-2.1c.2-1.5.1-2-.4-2.5-.3-.3-.6-1-.6-1.7 0-2-1.8-2.8-3-1.1a6.9 6.9 0 000 5.2c.8 1.4 0 1.7-3.5 1.4-3.4-.3-4-.8-2.6-2.3.5-.6.8-1.4.8-2 0-.5.3-1.7.6-2.6.3-1 .6-2.4.6-3.3 0-.9.2-1.9.4-2.3.2-.4.5-2.4.6-4.5.2-2.1.5-4 .8-4.2.2-.2 1.5-.3 2.9-.1 2.8.2 3.4.8 2 2.3-.5.6-.8 1.5-.8 2.8 0 1-.3 2.2-.6 2.6-1.3 1.9-.1 2.6 1.4.9.5-.6 1.1-1 1.4-1 .7 0 3.8-3.5 3.8-4.3a1 1 0 00-.7-1c-.5-.1-.5-.3-.1-.8.8-1 6.7-.8 6.7.3 0 .5-1.7 2-2.4 2s-6 5.6-5.8 6.1c1 2.5 2 4.3 2.7 5 .4.5.7 1 .7 1.3a12 12 0 002.6 4.6c.6.5 1 1.1 1 1.3 0 .4-8 .5-8.4 0zm58.5-2.4a46.9 46.9 0 001.9-12.7c0-2 .2-4 .3-4.2.2-.3-.1-1-.6-1.7-1.1-1.5-.7-2.1 1.8-2.4a18 18 0 003.6-.8c1-.3 1.6-.4 2 0 .4.1 1.7 2.3 2.8 4.6a45.8 45.8 0 003.3 6.3c0 .4.3 1 .6 1.2.3.3.6.8.6 1a8 8 0 001.8 2.5c2 2 2 2.7.3 2.7-.6 0-1.4.3-1.9.7-.4.3-1.2.6-1.7.6-.6 0-1.4.3-1.8.6-1 .8-1.5.3-1.2-1.5.1-.9 0-2-.2-2.4-.4-.8-.7-.8-3.3-.6-1.6.1-3 .4-3.4.7-.3.3-.4 1.2-.4 3l.2 2.4-2.2.2c-1.2 0-2.3 0-2.5-.2zm7.6-9.1c.7-.2 1.2-.5 1.2-.9 0-.8-2.7-5.5-3.1-5.5-.4 0-1 5.6-.6 6.2.2.5.8.5 2.5.2zm-91.9 7.5c-.8-.8-1.2-1.5-1.2-2.3 0-.6-.3-1.4-.6-1.7-.5-.4-.6-1.7-.6-6.9 0-3.6.2-6.7.4-7.2.3-.6.2-1-.3-1.8-.3-.6-.5-1.3-.4-1.6.4-1.2 5.4-.6 5.4.6 0 .2-.6 1-1.4 1.9l-1.4 1.4v5.3c0 4.6.2 5.5 1 7.2.6 1.6 1 2 1.8 2a3 3 0 002-1 11 11 0 002.4-5c0-.5.2-1.3.5-1.7.4-.5.6-1.3.6-1.9 0-.6.3-1.4.6-1.8.3-.5.6-1.3.6-1.9 0-.5-.3-1.4-.6-1.8-.3-.5-.6-1.2-.6-1.6 0-.9 1-.9 5.9.2 2.1.4 2.4.6 2.3 1.3 0 .5-.6 1.1-1.2 1.4-.9.5-1 .8-1 2.2 0 1-.3 2.2-.6 2.8l-2 4.2c-3.4 7.3-4.2 8.1-8 8.6-2.1.2-2.4.1-3.6-1zm-18.6-4c-1.5-.9-3.2-2.4-3.2-3 0-.2-.4-1-1-1.6-.7-1-1-1.7-1-3.4 0-2.5.8-3.5 2.6-3.5 1.3 0 1.7 1 2.2 4.8.5 4.2 1.7 4.9 4 2.3 1.6-1.7 2.5-3.5 2.2-4.4-.1-.3-1.7-1.1-3.5-1.7-5-1.7-6.2-3.4-5.1-7.1 1-3.7 5.9-6.2 8.7-4.5.6.3 1.3.6 1.7.6 1.2 0 4.5 3.2 5 4.8 1 3-1.4 5-3.6 3-.8-.6-1.1-1.3-1.3-3-.3-2.3-1.3-4-2.4-4-.6 0-1.9 1.9-2.5 3.8-.5 1.3-.4 1.6.3 3a5 5 0 004.3 2.3c.3 0 1.2.4 2.1.9 3.2 1.7 3 4.3-.3 8a11 11 0 01-2.7 2.3c-.3 0-.7.3-1 .7-.7.8-3.8.7-5.5-.3zm126.2.1c-.8-1-5.6-11.3-5.5-11.9 0-.2-.3-.8-.7-1.2l-.8-1.1c0-.3-.3-1-.8-1.6-.5-.8-1-1-1.5-1-.4.2-.9 0-1-.3-.5-.6 1.1-2 2.4-2a5 5 0 002.1-.8c1.4-.9 2.8-.7 2.8.4 0 .4.7 2.2 1.5 4 .9 1.8 1.6 3.5 1.6 3.7 0 .6 2 2.4 2.3 2a29.5 29.5 0 01-.7-7.2c-.2-3.5-.1-4.2.6-5 .7-.8 3-1.2 4-.5.6.4 4 5.7 4.5 7 .2.5.6 1 1 1s.6-.7.6-3.3c0-3.9-.2-4.6-1.5-5-1.4-.6-1-1.7 1-2.8 3.3-1.6 4.8-1 3.2 1.2-.9 1.3-.9 1.4-.5 6.3l1 8.8c.4 4.3.3 4.8-1.5 5.3-1.2.3-2.7-.9-3.2-2.4-.1-.5-.7-1.4-1.2-2-.5-.7-1.2-1.8-1.5-2.6-.4-.8-1-1.7-1.4-2.1-.4-.4-.8-1-.8-1.2 0-.8-1.5-2.4-2-2-.4.2 0 7.6.5 8.2.2.2.4 1.9.4 3.8 0 3.2-.1 3.5-1 3.8a3 3 0 00-1.2.8c-.4.7-2 .6-2.7-.3zm-137.8-4.2c-.7-.1-2-.6-3.1-1.1-1.7-.8-1.9-1-1.7-1.9a8 8 0 01.9-1.7c.3-.5.5-1.2.5-1.5 0-1-1.5-3-2-2.7-.2.1-.8 0-1.3-.4-1.7-1.2-3.5-1.1-4.7 0-1 1-1 1.2-.5 2.3.5 1 .5 1.2 0 1.7-.5.4-1 .3-2.9-.7-2.5-1.4-3.2-2.7-1.4-2.7 1.4 0 1.8-.3 2.5-1.6 3-4.2 6.6-8 8.1-13.1-.2-1.1-.1-1.4.6-1.6.5 0 1.4.1 2.1.6.7.4 1.9.8 2.6 1 .7.2 1.4.6 1.6 1 .2.4.3 4.8.4 10 0 7.5.1 9.4.6 10.2.5.7.5 1.2.2 1.8-.4.9-.6.9-2.5.4zm-3.7-14.8c.2-4.4 0-4.7-1.9-2.5a38 38 0 00-2.2 3.2l-.8 1.3 1.3.6c.7.3 1.8.6 2.4.6 1 0 1 0 1.2-3.2zm159.8 13c0-.3.4-1 1-1.5 1-1 1-1.1.8-5-.5-9.8-.9-13.2-1.3-13.7-.3-.3-.5-.7-.5-1 0-.6 3-2.3 4-2.3.4 0 1-.2 1.5-.5.7-.4 1-.3 2.4 1.2.8.9 1.6 1.8 1.6 2 0 .3 1 1.7 2.3 3.1 1.3 1.5 2.4 3 2.4 3.3 0 .3 1.4 2 3 3.8 3.6 3.7 3.7 3.4-.8 5.6-2.6 1.3-3.4 1.1-3.4-.6 0-.7-.3-1.7-.8-2.1-1-1-3.3-1-4.2 0-.4.5-1.1.8-1.7.8-1.5 0-2.4 1.2-2.1 2.8.1.7.5 1.5.8 1.8.7.7.6 1.6-.2 1.6-.4 0-1 .3-1.5.6-1 .8-3.3.9-3.3.1zm7.1-10.4l1.2-1c0-.7-3.6-5-4-5-.2 0-.4 1.5-.4 3.3 0 3.3 0 3.3 1 3.3.6 0 1.6-.3 2.2-.6zm-185.3 2.9c-.5-.4-1.3-.6-1.8-.6-.6 0-1.4-.4-1.8-.8-.4-.5-.9-.7-1.2-.6-.2 0-.8-.2-1.2-.7-.4-.4-.8-.7-1-.6-.2.1-1-.3-1.8-1s-1.8-1.3-2.2-1.3c-1.2 0-.9-1.5.4-1.8 2.7-2.5 4.4-7.3 6.1-10.8 1-1.8 1.1-2.7 1-4-.3-2.2.5-2.9 2.2-1.9.7.4 1.6.8 2.1.9.5 0 1.4.5 2 1 .5.5 2 1.3 3 1.9 3 1.4 4.6 3.5 4.6 5.7s-.7 3.3-3 4.5c-1 .5-1.7 1-1.7 1.2 0 .1.3.6.8 1 .6.6.7 1.3.7 3 0 2.3-.6 3.2-3.3 4.7-1.8 1-2.9 1-4 .2zm1.1-4.8c2-1.8 1.8-3.4-.2-4.8-1.8-1.4-2.7-1.1-4 1.1-1.5 2.9-1.6 3.2-.6 4.1 1.3 1.3 3.2 1.1 4.8-.4zm3.1-7.5c1.2-.5 2-2.8 1.5-4.1-.4-1.2-1.8-2.5-2.7-2.5-.7 0-3.3 4.6-3.3 5.7 0 .5 1.7 1.3 2.9 1.4.4 0 1-.2 1.6-.5zm203.5 7.7c-.1-.1-.2-1.2 0-2.5.2-2 0-2.3-1-4a7 7 0 01-1.3-2.6c0-.4-.5-1.5-1.2-2.4a6.6 6.6 0 01-1.2-2.2c0-1.3-1.2-3-2.5-3.4-1.6-.6-1.7-1-.8-1.7 1-1 11.4-6.2 12.1-6.2 1 0 3.6 1.5 4.7 2.7.7.8.8 1.3.7 2.6-.3 1.7.2 2.5 1.2 2.5 1.1 0 4 1.7 4.4 2.5.6 1.2.5 3.7-.3 5.1-.9 1.7-2.5 3.6-3 3.6a51.3 51.3 0 01-11 6.2c-.4 0-.7 0-.8-.2zm8.8-7c1.3-2 1.4-2.9.4-4.7-.7-1-1-1.3-2.2-1.3-1.4 0-4.2 1.1-4.2 1.7 0 .5 1 2.6 2.3 4.6 1.2 2 2.3 2 3.7-.3zm-5.4-8c1.2-.7 1.7-3 1-4.4-.3-.6-1.1-1.2-2.2-1.5-3.3-1-3.9.2-2.1 4 1.3 2.8 1.8 3 3.3 2zm-235.3 6.5a5.6 5.6 0 01-4.3-3.5c-.5-1.2-.5-1.6 0-5.4.1-1.6 0-1.9-1.4-3.3l-1.5-1.6-.9.8c-1.7 1.6-2.3 2.5-2.3 3.8 0 .8-.2 1.4-.4 1.4a13 13 0 01-4.5-3.2l-1-1.3 1.1-.9 1.6-.8c.3 0 .6-.4.7-.8.2-.4 1.3-2 2.6-3.4a18.7 18.7 0 003-4.3c1.3-1.4 2.9-4.7 2.4-5-.8-.6-.4-1.4.8-1.4 1.2 0 1.8.4 5 3.4a8 8 0 002 1.5c.6 0 3.5 3.4 4 4.7.3.6.5 2.3.5 3.7 0 2.1-.2 2.8-1 3.7-1.1 1.3-2.2 2-3.4 2-.5 0-1.4.4-1.9.8-.8.6-.9 1-.8 4 .2 3.3.2 3.3 1.3 3.5 2.7.5 1.1 2-1.6 1.6zm.6-14.8c2.3-1.7 2.4-6.6.2-7.6-1-.5-1.1-.3-2.8 1.5-2.2 2.5-3.8 5-3.5 5.6.5.8 2.8 1.6 4 1.4a6 6 0 002.1-1zm250.8 12c-.3 0-.5-1-.5-2.1s-.1-2.2-.3-2.3c-.2-.1-.8-1-1.3-2-.4-1.1-1-2-1.1-2-.2 0-.5-.4-.7-.9-.1-.5-.7-1.6-1.3-2.3-.6-.8-1.3-2-1.6-2.7a7.9 7.9 0 00-1.9-2.2c-.7-.6-1.2-1.2-1.2-1.4 0-.2.5-.6 1.2-1 .7-.2 1.7-.9 2-1.4.5-.5 1-.9 1.3-.9.2 0 1-.5 1.8-1.2.7-.7 1.5-1.3 1.7-1.3.2 0 1-.5 1.7-1.2s1.6-1.2 2-1.2c1.2 0 3.1 3.2 2.7 4.4-.2.5-.6.5-1.5.3-3.7-.7-4.3-.7-5.3.3-1.1 1.1-1.2 2.4-.1 3.8.4.5.7 1.2.7 1.4 0 .2.4.8 1 1.3.8.8.8.8 1.7 0 .7-.5.9-1 .8-2.3 0-1.1 0-1.6.5-1.7.8-.2 3.8 5.7 3.4 6.7a.9.9 0 01-1.7 0c-.3-.8-2.9-.8-2.9 0 0 1 1.6 3.9 2.8 5 1 1.1 1.1 1.1 2.1.5 1.4-1 2.4-3.6 2.8-6.8a8 8 0 01.6-2.8c.4-.3 2 1.4 2 2.2 0 .4.2 1 .5 1.3.3.4.7 1.2.8 2 .3 1.1.1 1.4-1.7 3-1 .9-2.1 1.6-2.3 1.6-.3 0-1 .6-1.8 1.3l-1.6 1.2c-.2 0-1.3.9-2.4 1.9l-2.2 1.8-.7-.2zM600 802.9a302.4 302.4 0 00-8.9-8.3c0-.2.8-.7 1.7-1 1.7-.9 5.8-4.7 5.8-5.5 0-.3 1-1.6 2.2-3 1.2-1.3 2.3-3 2.6-3.7.5-1.6 1.4-1.8 2.5-.5l1 .8c.3 0 1.7 1.1 3.1 2.5a18 18 0 003 2.5c.2 0 1 .6 1.9 1.4 1.7 1.6 1.9 3 .6 4.2l-1.4 2c-.4.8-.8 1-1.4 1-.8-.2-.9-.5-1-3.5-.3-4.2-1-5.2-3.4-5.2-1.5 0-1.8.2-2.5 1.4l-1.5 2.3c-.4.5-.6 1-.4 1.2l2.6.2c2.5 0 3.2.4 2.2 1.5l-.6 1.2c0 .8-3 3.5-3.8 3.3-.6 0-.7-.4-.6-1.9.2-3.3-1.5-3.9-3.7-1.2-1.9 2.3-1.8 3.5.2 5.4 1.8 1.7 3.2 2 4.5 1 .8-.7 2.8-.9 4-.4.9.3.7 1.7-.3 2.2-.5.3-1.5 1-2.2 1.7-2 1.8-2.8 1.6-6.2-1.6zm295.7.8l-.2-1.9c0-1.3-.3-1.9-1.7-3.4-1.7-1.9-3-2.3-3.9-1.2-2.3 1.8-5.4-1.5-7-3-1-1.2-2.2-2.2-2.6-2.5-.8-.4-.7-.6 1.5-2.7a13 13 0 012.8-2.1c.2 0 .3.9.3 2.5-.1 2.2 0 2.6 1 3.6.8 1 1.3 1.1 3.2 1.1 2 0 2.2-.1 3.7-1.7 1.7-2 2-3.4.7-6-1-2-2-3-3-3.5-.6-.2-1-.5-1-.8 0-.2 1.2-1.5 2.7-2.8 2.1-2 2.7-2.5 3.3-2.1.4.2.7.6.7 1l1.4 3.2a9.5 9.5 0 011.4 5.4c0 2.3-.1 2.8-1.2 4.2a8 8 0 00-1.2 1.9c0 .3.8 1.3 3 4 .4.5 1.1 1 1.6 1 1.7 0 1.4.8-1.3 3.4-2.5 2.5-3.7 3.2-4.2 2.4zm9-7.5c0-.2 0-.9.2-1.5.4-1.6 0-4.3-.6-5.3-.3-.5-.6-1.2-.6-1.6 0-.3-.2-.9-.5-1.2-.4-.2-.6-1-.6-1.6 0-.6-.3-1.4-.6-1.8-.4-.5-.6-1.2-.6-1.7 0-1-1.4-4.1-2.2-4.8-1-.9-.6-1.9 1.6-4l2.1-2.2 1.3.7 2.7 1.9a7 7 0 001.8 1.1c.2 0 1 .6 1.7 1.3.8.7 1.6 1.2 1.9 1.2.2 0 .7.3 1 .6.2.4.7.7 1 .7.4 0 1.3.5 2 1.2 1.1 1 1.8 1.2 3.1 1.2 1.6 0 1.7.1 1.7 1.2 0 1.5-3.2 5-5 5.3-1 .2-1.2.1-1.6-1-.3-.8-1-1.5-1.9-2l-1.4-.7-2.1 2.2c-1.3 1.3-2.2 2.6-2.2 3.1 0 1 1.5 2.7 2.4 2.8 1.4.3 1.6.8.7 1.8-.5.6-1 1-1.3 1-.2 0-1 .6-1.8 1.2-1.5 1.3-1.8 1.5-2.1 1zm3-13.1a4 4 0 00.8-1.6c0-.7-3.9-3.3-4.5-3-.5.2-.5.6.2 2.4 1.3 3.6 2 4 3.5 2.2zM585 788.3a6 6 0 01-3.5-3.5c-1-2.2-1.1-4.6 0-6 .8-1.3 1.5-1.5 3-1 1.3.6 1.3 1.7-.2 3.5-2 2.4-1.4 4 1.4 4 1.6 0 1.8-.2 6-4.8 3.2-3.4 4.4-5 4.4-5.7 0-1.4.4-2.3 1-2.3.2 0 1.5 1.1 2.8 2.5l2.4 2.5-1 .8a54.8 54.8 0 00-6.5 5.8c-4.8 4.8-5 5-6.6 4.9a9 9 0 01-3.2-.7zm105-34.4c-1.3 0-2.3-.3-2.3-.5s-.2-.4-.5-.4-.8-.5-1.2-1.2c-.7-1.3-.9-3-.3-3 .3 0 .4-.1.3-.4 0-.3.6-.6 1.3-.8 2.1-.5 3 .5 2.6 3-.2 2-.2 2 .8 2 .5 0 1.1-.3 1.2-.6.1-.4.5-.6.7-.6.3 0 .7-.6.8-1.4.2-1 0-1.6-.5-2.5-.5-.6-.8-1.4-.8-1.7 0-.4-.2-.7-.4-.7s-.5-.4-.6-.9l-1-1.7c-.4-.4-1-1.5-1.4-2.3-.4-.8-1.6-2.4-2.6-3.4-1.7-1.8-2.4-3-1.6-2.7.1 0 1-.6 1.7-1.5 1.5-1.5 1.6-1.5 2.4-1l1 1c0 1.2.7 2.8 1.4 3.5.4.4.6 1 .5 1.2v.5c.6.2 2.1 2.7 2.1 3.3 0 .4.3.7.6.9.8.3 2.2 3.4 2 4.2-.2.3 0 .6.2.6.7 0 .5 1.5-.4 3.2-1.8 3.3-3 4-6 4zm119-.5c0-.2-.4-.4-.8-.4s-1.2-.5-1.8-1a3.2 3.2 0 01-.5-4.2 7 7 0 00.8-1.8c.2-1.1-.7-3.3-1.5-3.3s-2.5 3-2.3 4.2c.2 1.4-1.1 1.8-2.2.7-.5-.5-1.1-.8-1.5-.8-.3 0-.7-.5-1-1-.2-.7-.5-1-.8-.8-.3.1-.4 0-.3-.3.1-.3.6-.6 1-.7.4 0 1-.7 1.2-1.3l1.3-2c.5-.5.8-1.2.8-1.6 0-.3.3-.7.6-.9.4 0 .5-.5.4-.8-.1-.5 1.5-3 2.3-3.4.1 0 .3-.4.3-.7 0-.4.3-1.1.8-1.7.4-.6.7-1.4.5-1.8-.2-.6 0-.8.8-.8.5 0 1.2.3 1.4.6.3.4 1.1 1 1.9 1.3.7.3 1.4.8 1.5 1.2.1.3.4.6.7.6.5 0 3 2.8 3.7 4a6 6 0 01-.2 5.2c-.4.7-.8 1-1 1-.1-.2-.4 0-.6.5-.3.6-.9 1-1.5 1-.5 0-1.3.1-1.8.4-.6.3-.7.7-.5 1.9.1.8 0 1.6-.2 2-.2.2-.5 1.5-.6 2.7-.2 1.8-.1 2 .4 1.9.3-.2.6 0 .6.1 0 .3-.5.4-1 .4s-1-.2-1-.4zm1.3-12c1-.5 2.2-2.6 2.2-4 0-.3-.4-1.2-.9-1.8-1.3-2-2.2-1.5-4 2-1.4 3-1.5 3.2-.8 3.7.8.7 2.2.7 3.5 0zm-112.1 4c0-2.6-.2-4.1-.5-4.5-.3-.2-.5-1.3-.5-2.2a5 5 0 00-.3-2l-.4-1c-.3-2.4-.9-4.3-1.4-5-.4-.4-.7-1-.7-1.5 0-.3-.1-.6-.4-.4-.2.1-.2 0-.1-.4.2-.6.7-.8 1-.5l.9-.7c.4-.4 1-.7 1.3-.7a51 51 0 016.6 6.3c3.2 3.5 6.4 6.6 7 7 1.2.6 1.4 1.5.4 1.9-1.2.4-2.7 1.2-3.7 2-.3.3-.9.5-1.3.5-.5 0-.6-.3-.5-1.1.1-.6 0-1.4-.2-1.7-.6-.8-2.3-1.5-2.3-1 0 .3-.7.8-1.6 1.2-1 .4-1.7 1.1-2 1.8-.3.9-.1 1.2 1 2.5l1.4 1.5-1 .6c-.5.4-1 .8-1 1 0 .1-.3.3-.8.3-.9 0-1-.1-1-4zm3.3-6.1c.2-.3.4-.7.4-1 0-.4-2.5-3.5-3-3.5-.3 0-.2 2.8.3 3.9.4 1.1 1.5 1.4 2.3.6zm89 3.9c-.6-.1-1.7-.7-2.4-1.4-1-1.1-1.2-1.5-1-3.4a11.2 11.2 0 01.3-3c0-.8 1-3.2 1.8-4.9l.4-1.2c0-.2.3-1.3.8-2.3.5-1 .7-2.1.6-2.6-.4-1.5 0-2 1.8-1.8 1 .1 1.9.4 2.2.7.6.7.3 1.8-.6 2.2-.8.2-2.5 2.8-2.5 3.7 0 .3-.1.7-.3.8-.2.1-.5 1-.6 1.8l-.6 2c-.5.6-1.3 5-1 5.7.3.9 1.5 1.2 2.4.7.8-.4 4.9-8.5 4.9-9.6 0-.4.3-1 .8-1.4.6-.6.8-1.1.6-2.3-.3-2 .5-2.3 2.4-1.2.7.4 1.6.8 2.1.9.8 0 1 .3.8 1.1 0 .6-.4 1.4-.8 1.8-.4.4-1 1.6-1.6 2.7l-1.2 2.6-1.6 3.2c-2.1 4.7-3.7 5.8-7.6 5.2zm-10.2-3.6c-.5-.4-1.3-.7-2-.7-.6 0-1-.1-.8-.3.8-.6 4.2-9.3 4.2-10.7 0-1.2-1.1 0-2.4 2.7-2 4-3.2 5.8-4 5.8-1.2 0-1.7-1.3-2.1-5.4-.5-5-2.8-1.1-2.5 4.2.2 2.3 0 3-.6 2.1-.2-.2-1-.5-2-.6-1-.2-1.8-.5-1.8-.7 0-.2.2-.4.5-.4.6 0 2.4-3.5 2.4-4.7.1-1.9.7-4 1-4 .2 0 .4-.6.4-1.4 0-.8.3-2.3.7-3.5.6-2 .6-2.2 0-3-.5-.4-.7-.8-.5-.8.2 0 0-.3-.2-.6-.3-.4-.4-.8-.2-1 .3-.3 3.9.7 4.4 1.3.5.6 1.5 5 2 8.3.1 1 .4 2 .6 2.2.5.4 1.5-.6 2.1-2.2.3-.7.8-1.5 1.2-1.6.3-.1.6-.5.6-.9 0-.3.4-1.3 1-2 .8-1.2 1.2-1.4 2.5-1.4 1.7 0 4.4 1.1 4.4 1.8 0 .2-.5.8-1 1.3-.6.6-1 1.4-1 1.8 0 .5-.2 1-.4 1-.2.2-.4 1-.6 2-.1.9-.4 1.7-.6 1.8l-.6 1.8a7 7 0 01-.5 2c-.6.7-1.2 4-1 5.2.2 1.1.1 1.2-1.1 1.2a4 4 0 01-2.1-.6zm-67.1-1.3c-.4-.7-1-1.7-1.4-2-.4-.5-.8-1-.8-1.4 0-.3-.2-.5-.4-.5s-.4-.2-.4-.5c0-.2-.6-1.2-1.4-2.3-.8-1-1.3-1.8-1.2-1.8.2 0-.3-.8-1.1-1.8a8 8 0 01-1.4-2.3c0-.2-.1-.4-.3-.4-1.2.2-1.6-.1-1.5-1.1.1-1.2.8-1.9 1.6-1.6.2.1.7 0 1-.4 1-1.4 2.5-.6 2.9 1.6.1.6.5 1.5.8 1.9.3.3.6 1 .6 1.4 0 .3.2.6.4.6s.8.9 1.4 2c.6 1 1.2 1.7 1.5 1.5.2-.1.3-2.3.2-5.7-.1-5.3-.1-5.4.8-5.9 1.3-.6 2.4-.2 2.7 1 .1.5.5 1.1.8 1.4.3.3.5.9.5 1.4 0 .5.3 1 .6 1.2.3.1.6.7.6 1.3 0 .5.2 1 .4 1s.4.4.4.8c0 .8.7 1.7 1.3 1.7.2 0 .3-1.9.2-4.3-.1-3.3-.3-4.5-.8-5-1-1.2-.6-2.7.6-3 3-.6 3.4-.6 3.6 0 .2.4 0 1.1-.3 1.6-.6.8-.7 2.3-.7 9 0 8.9 0 8.8-2.2 9.3-1.3.2-2.5-.6-2.6-2a3 3 0 00-.6-1.1l-1-2.3c-.5-1-1-1.8-1.3-1.8-.5 0-.6.6-.4 3.6.3 4.4.3 5.6 0 5.8 0 .1-.6.3-1.3.4-1 0-1.3 0-1.8-1.3zm12.6-2.3c-.1-.2 0-.4.4-.4.3 0 .6-.3.6-.7 0-.4.2-1 .4-1.2.3-.3.6-1.9.7-3.5 0-1.7.3-4.5.5-6.2.2-1.7.5-4.1.5-5.4 0-1.2.3-2.5.4-2.8.5-.7 4.6-.6 4.6.1 0 .4.2.7.4.7.5 0 1.3 2.7 1 3.3-.1.2 0 .4.1.4.5 0 1.4 2.7 1 3.3 0 .2 0 .4.2.4.3 0 .6.5.7 1.2l.7 1.7.4.8c-.2.5.4 2.2 1.2 3.9.9 1.7.9 1.7 0 2.5-.5.6-1.3.8-3 .9-2.7 0-2.7 0-2-2.8.3-1.5-1-2.1-3.3-1.7-1.3.3-1.6.6-1.7 1.6 0 .8.1 1.4.8 1.9 1 .8.7 1.6-.6 1.6-.6 0-1 .2-1.2.4-.2.3-.8.4-1.4.4-.6 0-1.3-.1-1.4-.4zm6.7-7.7c.8-.3.8-1 0-3.8s-1.5-2.6-1.8.6c-.4 3.3 0 4 1.8 3.2zm29.4 7.7c-.4-.2-1.6-.4-2.7-.4-2.2-.1-2.6-.6-1.3-2 .5-.4 1-1.6 1-2.5.2-1 .5-1.7.7-1.7.1 0 .3-.8.3-1.8s.2-2.6.5-3.6c.5-1.9.7-6.7.3-7.8-.1-.6.4-.7 2.7-.8 3.3-.1 4.2.5 3.1 2.2-.3.6-.6 1.5-.6 2 0 .6-.3 1.8-.6 2.8-.4 1-.5 2-.4 2.3 0 .3-.1 1.5-.4 2.7-.8 3-1.1 6.4-.6 6.8.3.2.3.4 0 .8-.3.3-.3.8-.2 1 .3.6-1 .6-1.8 0zm4.8-19.4c0-.3-.2-.4-.4-.4-.3 0-.4.1-.2.4l.4.4.2-.4zm-20.3 18.3c.3 0 .5-.5.5-.8 0-.3.2-1 .5-1.5s.5-2.8.6-5c0-2.3.3-5.5.5-7.1.4-3.5 0-4.4-1.4-3-.5.4-1 1.2-1.2 1.6-.3 1-2 1.5-2.5.7-.4-.6-.1-4.5.4-5 .2-.3.4-.3.4 0 0 .5.1.5.5.2.2-.2 1.4-.3 2.6-.2l6.5.2c2.3.1 4.4.4 4.6.6.3.3.4 1 .2 2l-.3 2c0 .2-.2.4-.5.6-.4.1-1.2-.3-2.1-1.3-2.4-2.5-2.6-2.2-3 3.8-.1 1.9-.4 3.7-.6 4.1-.2.4-.3 2.5-.3 4.6v3.8H749c-1.6 0-2.7-.2-2.5-.3z"/></svg>