<svg xmlns="http://www.w3.org/2000/svg" height="1050" width="1500" version="1.0"><path d="M0 0h1500v1050H0z" fill="#187e37"/><path d="M751 769s46-37 85-57c38-21 73-50 110-109 37-58 48-215 48-215-85-32-122-107-122-107H630s-37 75-122 107c0 0 11 157 48 215 37 59 72 88 110 109 39 20 85 57 85 57z" fill="#faa74a"/><path d="M994 388c-85-32-122-107-122-107H630s-37 75-122 107l433 224 5-9c37-58 48-215 48-215z" fill="#dd1a22"/><path d="M556 603c37 59 72 88 110 109 39 20 85 57 85 57s46-37 85-57c36-20 70-48 105-100L508 388c0 9 12 159 48 215z" fill="#ffdf4f"/><path d="M512 391l429 220-11 16-344-190s-18-5-27-2-16 21-16 21-2-31-31-65z" fill="#faa74a"/><path d="M930 628h-1L586 438c-1 0-11-3-20-3l-7 1c-9 3-15 20-15 20h-2c0-1-3-31-31-65a1 1 0 011-1l429 221a1 1 0 010 1l-11 16zM566 433a87 87 0 0121 3l342 190 10-14-424-219c21 27 27 51 28 60 3-6 8-16 16-19l7-1z" fill="#8d3803"/><path d="M522 399l410 212-2 5-344-182s-56-29-54-24c2 2 5 14 5 14s-3-7-15-25z" fill="#ffe06a"/><path d="M612 455s4 23 20 21c15-2 27-10 32-10 6 1 11 9 11 9l10 5s-3-22-19-23c-16-2-28 10-36 9s-8-9-8-9l-9-5-1 3z" fill="#ffdf4f"/><path d="M685 481v-1l-10-5h-1s-4-7-10-8l-10 3c-6 3-13 6-22 7h-2c-14 0-19-21-19-22v-1l2-2a1 1 0 011 0l9 5a8 8 0 008 8l11-3a49 49 0 0124-6c16 2 20 23 20 24a1 1 0 01-1 1zm-9-7l8 4c-1-5-6-19-18-21h-3c-8 0-15 3-20 6-5 2-8 4-12 4h-1c-7-1-9-7-9-9l-7-5-1 2c0 2 5 20 17 20h2c8-1 15-4 21-6l12-4c5 1 10 8 11 9z" fill="#8d3803"/><path d="M605 451c-1 2-4 3-5 2l-3-1c-2-1-2-4-1-6l7-12c1-2 4-3 5-2l3 1c2 1 2 4 1 6l-7 12z" fill="#ffdf4f"/><path d="M601 454h-2l-2-2c-2-1-3-4-1-6l6-12c1-2 3-3 5-3h2l2 2c2 1 3 4 1 6l-6 12c-1 2-3 3-5 3zm6-22l-3 2-7 12v5l3 1c1 1 3 0 4-1l7-13v-4l-3-2h-1z" fill="#8d3803"/><path d="M611 457c-2 3-4 4-6 4l-3-2v-7l9-15c1-3 4-4 5-3l3 1c2 1 2 4 0 7l-8 15z" fill="#ffdf4f"/><path d="M606 462l-1-1-3-1c-2-1-2-5-1-8l9-15c1-3 3-4 5-4h2l3 2c2 1 2 4 0 7l-9 16c-1 2-3 4-5 4zm9-28l-4 3-8 16c-2 2-1 5 0 5l2 2c2 1 4-1 5-3l9-15v-6l-3-1-1-1z" fill="#8d3803"/><g><path d="M802 540l-3-19h-13l3 12 13 7z" fill="#ffdf4f"/><path d="M802 540l-13-6-1-1-3-12a1 1 0 011-1h13l1 1 3 18a1 1 0 01-1 1zm-12-7l11 5-3-16h-11l3 11z" fill="#8d3803"/></g><g><path d="M789 550s2 22 17 27 36 2 50 2c13-1 26 2 26 2s-2-12-20-16c-19-5-41 1-47 0-5 0-6-2-8-6l-18-9z" fill="#ffdf4f"/><path d="M882 582s-13-3-26-3l-10 1h-17c-9 0-17 0-23-2-15-5-17-27-17-28a1 1 0 011-1l17 10h1c2 3 2 5 8 5h8l21-2 17 2c19 5 21 16 21 17a1 1 0 01-1 1zm-24-4l23 2c-1-3-5-11-20-14l-16-2-20 1-10 1c-6-1-7-3-9-6l-16-9c1 5 4 21 16 25 6 2 14 3 23 3l17-1a321 321 0 0112 0z" fill="#8d3803"/></g><g><path d="M796 569h-1v-4-2-1c0-2 0-6 2-8a1 1 0 011 2l-1 6a57 57 0 010 3v4h-1zM801 574l-1-4c0-4 0-9 2-13h1v1l-1 12v4h-1zM808 578l-1-1-2-5v-1c0-3 0-7 2-10h2v1c-2 2-2 6-2 9v1l2 4a1 1 0 01-1 2zM815 579l-3-4-2-10a1 1 0 012 0c0 3 0 6 2 9 0 2 1 3 2 3a1 1 0 010 2h-1zM824 580c-2 0-4-2-4-4-2-2-4-6-4-10l1-1 1 1 3 9 3 3a1 1 0 010 2zM830 580l-4-4v-1l-3-5-1-2v-2-1h1l1 2 1 2 2 5 1 1 2 3 1 1v1h-1zM837 580l-3-4-1-1c-2-3-4-6-5-11a1 1 0 012 0c0 4 2 6 4 10l1 1 3 4a1 1 0 01-1 1zM845 580l-1-1-3-5-2-1c-2-2-5-5-4-9v-1l1 1c0 3 3 6 5 8l1 1 3 6a1 1 0 010 1zM850 579h-1v-1l-1-5-2-2a54 54 0 01-6-7l1-1h1l4 5 1 1 2 3c2 2 2 4 2 6v1h-1zM856 579v-1l-2-5-3-2c-2-2-5-5-4-8h1v1c0 2 2 4 4 6l3 2c2 2 2 4 2 6l-1 1zM862 579v-1l-2-4-2-3-1-1-2-4-1-2a1 1 0 112-1v2l2 4 1 1 2 3 2 5-1 1zM795 537l-1-1v-1l1-1 2-2 2-1h2v1l-1 1h-2l-2 2-1 1v1zM790 534a1 1 0 01-1-2l4-3 1-1 5-3a1 1 0 110 2l-4 2-1 1-4 3v1zM788 529a1 1 0 01-1-1l3-2 3-2 1-1 2-1h1l1-1v2h-2l-1 1-1 1-3 2-3 2zM677 476a1 1 0 01-1-2h2l2-2v-3a1 1 0 012 0l-1 4-2 2-2 1zM674 473a1 1 0 010-1l4-4v-3-1a1 1 0 012 0v1l-1 4c-1 1-3 4-5 4zM671 470a1 1 0 01-1-2c3-1 5-5 3-7a1 1 0 012-1c1 4 0 8-4 10zM668 468a1 1 0 01-1-1l2-6v-2h-1v-1a1 1 0 111-1v1l1 1v2c0 2 0 5-2 7zM665 467l-1-1 1-2-1-5-2-2a1 1 0 110-1c1 0 3 1 3 3 2 2 1 4 1 6v1l-1 1zM663 467h-1l-1-2-3-4h-1l-2-1h-1l-1-1a1 1 0 111-1h2l2 1v1c3 1 3 2 5 4v2a1 1 0 010 1zM657 468v-1l-3-3-6-3-1-1 1-1c3 0 5 2 7 3v1c2 1 4 3 3 4l-1 1zM654 470h-1l-1-2a8 8 0 01-2-2l-1-1-2-1-3-1h-1a1 1 0 110-1h5l2 2 2 1v1l1 1 2 2a1 1 0 01-1 1zM646 473h-1v-1c1-2-5-6-7-7a1 1 0 111-1c3 1 9 5 7 9zM642 474c-4 0-8-6-8-8a1 1 0 111 0c1 2 4 7 7 7a1 1 0 010 1zM635 476c-4-2-4-7-4-9a1 1 0 012 0c0 3 0 6 3 7a1 1 0 01-1 2zM627 477l-1-1c-1-2-3-5-2-7l1-2v-2a1 1 0 012 0l-1 2-1 2 2 6a1 1 0 010 2zM620 472l-1-1v-1l1-5h1l1-2a1 1 0 012 1l-2 1v1l-1 4v1l-1 1zM631 476h-1c-2-2-2-5-2-8v-2l1-1v3c0 3 0 5 2 7a1 1 0 010 1zM616 466l-1-1 2-2h1v-1l4-2h1l-1 1-3 2v1h-1l-1 1-1 1zM614 462a1 1 0 01-1-1h1l2-4 2-1h2v1l-1 1-2 1-2 3h-1zM613 459a1 1 0 01-1-2l2-2 2-1a1 1 0 011 1l-2 2-1 1-1 1zM608 442h-1l-1-2v-1l-2-6a1 1 0 011 0l2 5 1 1 1 2a1 1 0 01-1 1zM605 447h-1l-2-3-1-7h1a15 15 0 002 6l1 2a1 1 0 010 2zM603 452h-1l-5-9a1 1 0 012 0c0 2 2 6 4 7v1a1 1 0 010 1zM617 447h-1l-2-4-2-8 1-1v1c0 2 1 5 3 7l1 4a1 1 0 010 1zM613 453l-1-1-1-3-2-10 1-1v1l2 9 2 4a1 1 0 01-1 1z" fill="#8d3803"/><path d="M611 458h-1c-3-3-5-9-5-13l1-1 1 1 4 12a1 1 0 010 1zM608 460h-2c-2-2-4-9-4-10l1-1 1 1c0 1 1 7 3 9h3l-1 1h-1z" fill="#8d3803"/></g><g><path d="M749 546h-1s-33 3-37 33l1 16 2-15h7l2 14 2-14h5l2 14 2-14h7v20c0 6-16 10-22 10v2h58v-2c-5 0-21-4-21-10l-1-20h7l3 14 1-14h6l2 14 2-14h7l2 15 1-16c-3-30-37-33-37-33z"/></g><g><path fill="#faa74a" d="M746 296l7-12 6 12h18l-14 9 11 22-21-15-22 15 11-22-13-9z"/><path d="M776 330l-23-17-22 15-1-1 11-22-14-10h19l7-13 6 13h21l-16 10 12 25zm-23-19l19 14-10-20 12-8h-16l-5-11-6 11h-15l11 8-10 20 20-14z" fill="#8d3803"/></g><g><path d="M732 692l-13 7h8s2 12 0 22l-6 21s11-18 11-30v-20zM740 692s-7 13-7 17 1 8 3 10l7 2s1 6-1 11l-10 13s9-3 15-15c5-12 9-29-7-38zm6 24s-12 1-6-13c0 0 7 3 7 7l-1 6z"/><path d="M771 692l-6 6c-3 3-4 2-4 2l-1 4s12 2 10 13c-3 11-17 28-17 28s13-21 8-30c-4-8-7-8-7-8l5-14 12-1z"/><path d="M789 722c-2-7-5-10-5-10s5-20-6-20-6 16-3 20c0 0-3 17-2 21 2 4 5 7 9 6 4-2 9-11 7-17zm-12-24c1-2 4 5 4 8l-1 3s-6-6-3-11zm6 31c-2 3-6 3-6-3s2-9 2-9 6 8 4 12z"/></g><g><path d="M630 373c14-8 32-11 38-12l-2-4s-14 1-25 5c0 0-10 3-22 11-12 7-17 16-17 16l7-1c1-2 7-8 21-15z" fill="#faa74a"/><path d="M602 390a1 1 0 01-1-1c0-1 6-10 18-17l21-11a135 135 0 0127-4l1 4a1 1 0 010 1c-6 0-24 4-38 11a68 68 0 00-21 16 73 73 0 00-7 1zm64-32c-3 0-15 1-25 5 0 0-9 3-21 10-9 5-14 12-16 15l5-1c1-2 7-8 20-15 14-7 31-11 38-12l-1-2z" fill="#8d3803"/><path d="M641 406c15-7 34-9 38-9l-11-36c-6 1-24 4-38 12-14 7-20 13-21 15 8-1 21-3 33 1 0 0-9 7-16 17-3 5-5 10-5 13 3-3 9-8 20-13z" fill="#faa74a"/><path d="M621 420h-1v-1l5-14c6-8 13-13 15-15-5-2-11-3-17-3l-14 2-1-1v-1c2-2 7-7 21-15 15-8 33-11 38-12l1 1 12 36a1 1 0 01-1 1c-4 0-22 2-38 9a67 67 0 00-20 13zm2-34l19 2a1 1 0 011 2s-10 7-16 16l-5 11c4-3 9-7 18-11 15-7 32-9 38-10l-11-34c-6 1-23 4-37 11-11 6-16 11-19 14l12-1z" fill="#8d3803"/><path d="M679 397c-4 0-23 2-38 9-11 5-17 10-20 13l-1 7s10-11 28-17c19-7 33-7 33-7l-2-5z" fill="#faa74a"/><path d="M620 427l-1-1a31 31 0 011-7c3-3 9-8 20-13a136 136 0 0140-9l1 5v1c-1 0-14 0-32 6a67 67 0 00-29 18zm1-7v4c3-3 12-11 27-16 16-5 28-6 31-6l-1-4c-5 0-22 3-37 9-10 5-16 10-20 13z" fill="#8d3803"/><g><path fill="#faa74a" d="M675 385l6 17-31-8z"/><path d="M681 403h-1l-30-8a1 1 0 010-2l25-9a1 1 0 011 0l5 18a1 1 0 010 1zm-28-9l26 7-4-15-22 8z" fill="#8d3803"/></g><g><path d="M888 373c-15-8-33-11-38-12l1-4s14 1 26 5c0 0 9 3 21 11 12 7 17 16 17 16l-7-1c-1-2-7-8-20-15z" fill="#faa74a"/><path d="M915 390a73 73 0 00-7-2c-2-2-7-7-21-15a130 130 0 00-38-12l1-4 1-1s15 1 26 5l21 11c12 7 18 16 18 17a1 1 0 01-1 1zm-6-3l5 1c-3-3-8-10-17-15-11-7-21-10-21-11-9-3-22-4-25-4v2c6 1 23 5 37 12 13 7 19 13 21 15z" fill="#8d3803"/><path d="M876 406c-15-7-34-9-38-9l12-36c5 1 23 4 38 12 13 7 19 13 20 15-8-1-21-3-33 1 0 0 10 7 16 17l6 13c-3-3-9-8-21-13z" fill="#faa74a"/><path d="M897 420h-1c-3-3-9-8-20-13a134 134 0 00-38-10l11-36 1-1c5 1 24 4 38 12s19 13 21 15v1l-1 1-14-2c-6 0-12 1-17 3 3 2 10 7 15 15 3 4 4 9 5 14a1 1 0 010 1zm-58-24c6 1 23 3 38 10 9 4 15 8 18 11l-4-11c-7-9-16-16-16-16l-1-1 1-1 19-2 12 1c-2-3-8-8-19-14-13-7-31-10-37-11l-11 34z" fill="#8d3803"/><g><path d="M838 397c4 0 23 2 38 9 12 5 18 10 21 13v7s-10-11-28-17c-19-7-32-7-32-7l1-5z" fill="#faa74a"/><path d="M897 427h-1s-9-11-28-17a113 113 0 00-32-7v-1l2-5v-1c4 0 23 3 39 10a69 69 0 0120 13l1 7a1 1 0 01-1 1zm-59-25c3 0 15 1 31 6 15 5 24 13 27 16v-4c-3-3-9-8-20-13-15-6-32-9-37-9l-1 4z" fill="#8d3803"/></g></g><g><path fill="#faa74a" d="M842 385l-5 17 30-8z"/><path d="M837 403a1 1 0 01-1-1l5-18a1 1 0 011 0l25 9 1 1-1 1-30 8zm5-17l-4 15 26-7-22-8z" fill="#8d3803"/></g><g><path d="M765 335s65 2 117 21l2-5c-52-20-119-23-119-23h-13s-67 3-119 23l2 5c52-19 117-21 117-21h13z" fill="#faa74a"/><path d="M882 357c-51-19-116-22-117-22h-13a426 426 0 00-118 22l-2-6 1-1c51-20 118-22 119-22h13a424 424 0 01120 23l-2 6h-1zm-248-6l2 4c51-19 116-21 116-21h13c1 0 65 2 117 21l1-4c-51-19-117-22-118-22h-13s-67 3-118 22z" fill="#8d3803"/><path d="M765 335h-13s-65 2-117 21l13 34c49-20 104-19 104-19h13s56 0 104 19l13-34c-52-19-117-21-117-21z" fill="#faa74a"/><path d="M869 391c-48-19-103-20-104-20h-13a310 310 0 00-105 19l-13-33a1 1 0 011-1c51-20 117-22 117-22h13a428 428 0 01118 23l-13 33a1 1 0 01-1 1zm-104-21c1 0 56 1 104 19l12-32c-51-19-115-22-116-22h-13s-65 3-116 22l12 32c47-19 98-19 104-19h13z" fill="#8d3803"/><g><path d="M765 371h-13s-55-1-104 19l2 4c48-20 102-19 102-19h13s52 2 102 19l2-4c-48-19-104-19-104-19z" fill="#faa74a"/><path d="M867 395c-49-17-101-19-102-19h-13-1a293 293 0 00-102 18l-2-4 1-1c46-19 98-19 104-19h13a340 340 0 01105 20l-2 4-1 1zm-102-21c1 0 52 2 102 19l1-2c-48-19-102-20-103-20h-13c-6 0-57 1-103 19l1 3a295 295 0 01102-19h13z" fill="#8d3803"/></g></g></g><g><path d="M664 357l2-1 5 16h-2l-8-9 3 11h-2l-5-15 3-1 7 10-3-11zM678 353l3 10v5l-3 3h-2l-2-1-2-4-3-11h3l2 10 1 2 2 1 1-1v-3l-2-10 2-1zM683 364l2-1 1 2h3l1-2-1-1-2-1h-1l-3-1-1-3v-3c0-2 1-2 3-3l4 1 1 4h-2l-1-1-2-1-1 1v3h4l3 1 1 3v4l-3 2c-2 1-4 0-5-1l-1-3zM697 363l-1 3-2 1 1-17 3-1 7 16h-3l-1-3-4 1zm0-3l3-1-3-6v7zM709 351l2 13h-2l-2-13-3 1-1-3 9-2 1 3-4 1zM723 346v3l-6 1v3h6v3h-5v4h6l1 3-9 1-2-17 9-1zM733 346h2l1 16h-3l-5-11 1 11-3 1-1-17h3l5 11v-11zM743 356v-3h5v9h-1l-1-2-1 1-2 1c-2 0-3 0-4-2l-2-6 1-6c1-2 3-3 5-3l4 2 1 3h-3v-1l-2-1-2 1-1 5 1 4 2 1h2l1-3h-3zM756 356v-3h5v9h-2v-2l-1 1-3 1-3-2-2-7 1-6 5-2c1 0 3 0 4 2l1 3h-3v-1l-2-1-2 1-1 4 1 5 2 1h1l2-3h-3zM766 358l-1 4h-3l5-17 3 1 3 16h-3v-3l-4-1zm0-2h3l-1-7-2 7zM775 362l1-16h5l3 1 1 4-1 2-1 2 1 1v7h-3a14 14 0 010-4v-2l-1-1h-3v6h-2zm2-9h5v-2-1l-1-1h-3l-1 4zM789 360l-1 3h-3l6-16h3l2 17h-3v-4h-4zm1-3h3l-1-6-2 6zM813 353l-2 13h-2l2-13-4-1 1-3 9 2v2h-4zM821 351l-3 16h-2l3-16h2zM834 354l-3 16h-2l3-14-5 13h-3l1-14-3 13h-2l4-16h3l-1 14 5-13 3 1zM846 357l-2 10-3 5h-3l-2-1-1-2v-4l2-10h3l-3 11v2l1 1h2l1-2 3-11 2 1zM845 373l4-15 6 1 2 2v4l-1 2-2 1 1 2-1 3v3l-3-1a14 14 0 011-3v-2l-1-1-2-1-2 6-2-1zm4-8l3 1h2l1-1v-2l-1-1-3-1-2 4z"/></g><g><path d="M980 442c4-2 6-6 5-11s-6-8-11-8l-1-2 2-6-2-8-2-2v-2c-1-2-3-5-7-6-5-1-9 0-10 1l-4 4-3 2-3 3c-3 3-3 7-2 10l-1-1h-7a6 6 0 00-5 8l2 6-2 2-2 3-1 1c-4 4-4 8-3 12 0 3 0 6 2 8l3 3h-7a6 6 0 00-5 8l2 6-2 2-2 3-1 1c-4 4-4 8-3 12v4h-1a6 6 0 00-7 7l2 8-4 1-2 3-2 1c-5 3-6 8-5 12l-1 3a6 6 0 00-6 5l-1 8-4 1-3 2h-2c-5 1-8 6-8 10-2 2-3 4-3 7l-3-2a6 6 0 00-9 4l-2 8h-4c-2 0-4 2-5 3h-3c-6 1-9 6-9 10-3 2-4 5-4 8l-3-3a6 6 0 00-10 2l-3 8h-5l-5 2-6-1c-5 1-9 5-10 10-2 1-5 4-5 8v5c0 4 2 7 5 9l-7 5-9-6c-12-6-24-8-32-10l-3-1-7-8c-7-5-14-6-16-6h-2a6 6 0 00-5 8l-4 1-1-12c-2-6-12-15-15-17-2-2-5-2-7 0h-1l-3-3c-6-3-12-9-12-9-1-2-4-2-6-2-3-8-9-14-10-14l-3-2c-1-6-7-13-8-14-1-2-4-3-6-2l-3-5-4-9c0-2-2-3-4-3v-6l-4-16c-1-2-3-3-6-4l-1-8-3-11c-1-2-2-4-5-4v-11c0-2-2-5-4-5 1-8-1-16-2-19 0-2-2-4-4-4-1-9-9-21-10-24-2-2-5-3-7-2l-1-3c-2-4-2-11-2-14a6 6 0 00-11-3 58 58 0 00-11 30l-3 4v29l2 5-1 4a161 161 0 003 24c-1 3-1 7 1 10l1 3c1 5 2 11 6 17l3 3v5c0 1 8 17 13 24l4 4v6l9 13 6 3a6 6 0 00-2 10l17 15c-1 2-1 4 1 6 4 4 19 19 29 19l8-1-1 1a6 6 0 006 10l8-1 8 12c7 7 28 18 50 18l17-3-2 2-2 6c0 5 4 8 5 9 2 2 5 2 7 1l26-13 8-4 3-2c8 6 19 19 19 19l5 2c4-1 11-2 13-8l-1-5 1-1 2-5 9 1a6 6 0 007-7l-2-4 2 1c3 1 6 0 9-1 5 1 10 0 13-5 4-5 2-10-2-14l3 3a6 6 0 0010-2l1-4h8a6 6 0 005-8l-2-5 3 1c3 1 6 0 9-1 4 0 9-2 12-7v-7c2 0 3-2 3-3l1-4 8-1a6 6 0 005-8 25 25 0 00-5-7h1l5 2c3 0 6-1 8-3 5-1 9-3 10-8v-7h1c1-1 3-3 3-5l-1-4 7-2a6 6 0 003-10 25 25 0 00-7-5h7l7-5c4-2 7-6 7-11 0-3-1-5-3-7l1-4-1-3 5-3a6 6 0 001-10l-5-3 4-1c2-1 4-3 5-6 4-2 6-6 5-11l-1-3v-3l-1-3 5-3a6 6 0 001-10l-5-3 4-1c2-1 4-3 5-6zM675 638l2 1-1 1-1-1v-1zm40 7h1l-1 1v-1zm-9-37zm266-187zm1-1zM705 608v0zm-1 1zm-1 1zm0 0l-1 1 1-1zm-1 6zm-1-2zm0 1z" fill="#fff"/><path d="M796 682c-2 0-4-1-5-3l-18-18-3 2-7 4-27 13c-2 1-5 1-7-1-2-1-6-5-6-10l3-6-15 2c-22 0-44-11-51-18l-8-12-7 1a7 7 0 01-7-10h-6c-11-1-25-15-30-20-1-1-2-4-1-6-8-5-15-14-16-15a7 7 0 011-10l-5-3c-5-4-9-12-9-13-1-2-2-4-1-6l-4-4c-5-7-12-23-13-24v-5l-3-3-6-16v-3c-3-4-3-8-2-11l-1-2-2-22 1-4-1-4c-2-10-1-28 0-30 0-2 0-3 2-4v-1c0-4 3-20 11-30a7 7 0 0112 4 48 48 0 003 16c3-1 6 0 7 3 2 2 10 14 10 23 3 1 4 3 5 5l2 18c2 1 4 3 4 6v10l5 5 3 10 1 9c2 0 4 2 5 4a71 71 0 015 21l4 4 4 8 2 5c3-1 5 0 7 2 1 1 6 8 8 15l3 1c0 1 6 6 9 14l7 2 11 9 3 3c3-2 6-1 8 0 3 3 13 11 16 18l1 11a319 319 0 012-2c0-3 2-6 6-7h2c2 0 10 1 16 6l7 9h3c8 2 21 5 33 11l8 5 6-4c-3-2-4-5-4-8l-1-6c1-5 3-7 5-9 2-6 6-9 11-10l5 1 6-2h4l4-8a7 7 0 0110-2l2 2 4-6c1-6 4-10 9-10l4-1 5-3a16 16 0 013 0l2-7a7 7 0 0110-4l2 1 3-6c1-6 4-10 9-11h2l3-2 3-1 1-7a7 7 0 017-6v-2c-1-5 1-10 6-12l2-1 2-3 3-2-1-7a7 7 0 017-8l1-3c-2-4-1-9 2-12l2-1 1-4 2-1-2-6a7 7 0 016-9h4l-1-1c-2-3-2-6-1-9-2-5-1-9 2-12l2-1 1-4 2-1-2-6a7 7 0 016-9 24 24 0 017 1c0-4 0-7 3-9a9 9 0 015-5l4-5c3-1 7-2 11-1 5 1 7 4 7 6l1 3 2 2 2 8-2 6 1 1c5 1 10 4 11 8 1 5-1 9-5 13a11 11 0 01-8 6l3 2a7 7 0 010 11l-5 3 1 3v3l1 2c1 5-1 10-5 13a11 11 0 01-8 6l3 2a7 7 0 010 11l-5 3 1 3-1 4c2 2 3 4 3 7 0 5-3 9-8 11-2 3-4 5-7 6h-4l4 4a7 7 0 01-2 10l-7 3v3a7 7 0 01-3 6v6c-1 5-5 8-11 9-2 2-5 3-8 3l-4-1 3 5a7 7 0 01-5 9l-7 1-1 3-3 4-1 6c-2 5-6 7-11 7h-1a11 11 0 01-10 2l1 3a7 7 0 01-6 9h-8l-1 3a7 7 0 01-9 4c1 3 1 7-1 10s-6 5-10 5h-4c-3 1-6 2-9 0v3a7 7 0 01-7 8l-8-1-2 4-1 2v4c-1 7-9 8-13 9h-1zm-22-23v1l18 18c1 2 3 2 5 2 4 0 10-2 12-7l-1-4v-1l2-2 1-4v-1l10 1a5 5 0 006-6l-2-4-1-2 2 1 2 1c3 1 6 1 9-1l4 1c2 0 6-1 9-5 3-6-1-11-3-13v-3l2 1 2 3c2 2 3 2 5 2s3-2 4-3l1-4v-1h9a5 5 0 005-7l-3-4-1-3 2 2 3 1a9 9 0 008-2h2c5 0 8-2 10-6v-7l1-1 3-3v-4l8-1a5 5 0 005-7l-4-6h-1l1-2 1 1 5 1c4 0 6-1 8-3 2 0 8-1 10-8l-1-5v-1h1v-1c2-1 3-2 3-4l-1-3v-1l8-3a5 5 0 002-8l-6-5v-2h6c3 0 5-2 7-5 2-1 8-4 7-10l-3-6v-1l1-4-1-3 6-4a5 5 0 000-8c0-1-1-2-5-3l1-2 3-1c3-1 4-3 5-5l1-1c1-1 6-4 4-10l-1-3v-3l-1-3 6-4a5 5 0 000-8c0-1-1-2-5-3l1-2 3-1c3-1 4-3 5-5v-1h1c1-1 6-4 4-10-1-6-7-7-10-7l-2-2-1-1h1v-1h1l-1-1 1 1 1-5c0-3 0-5-2-7l-1-2h-1v-1-2c-1-2-2-4-7-5-3-1-6-1-9 1-1 1-3 2-3 4h-1l-3 2-2 3c-2 2-3 5-2 9l1 1h-2l-1-1-7-1a5 5 0 00-4 8l2 6v1l-2 1-2 3v1l-2 1c-4 4-3 9-2 11l1 8 3 3-1 1-6-1a5 5 0 00-4 8l2 6v1l-2 2-2 2v1l-2 1c-4 4-3 9-2 11v5h-2a5 5 0 00-6 6l2 8h-1l-3 2-2 3h-1l-2 1c-5 3-4 9-4 11v1l-1 2v1h-1a5 5 0 00-6 4v9h-5l-2 2-1 1h-2c-6 1-7 7-8 9v1c-1 1-3 3-3 6v2l-1-1-2-2h-5c-2 0-3 2-3 3l-2 9h-1a13 13 0 00-4 0c-2 0-3 1-4 3h-4c-7 1-8 7-9 10-2 2-3 5-3 7v3l-2-2-3-4-4-1c-2 0-3 2-4 3l-4 9h-1l-4-1c-2 0-3 1-4 3l-1 1-1-1-5-1c-4 0-8 4-9 9h-1c-2 2-4 4-4 8v5c0 4 2 7 5 9v1l-7 5h-1l-9-6a128 128 0 00-35-11h-1l-7-8a30 30 0 00-16-6h-1-1v1h-2v1l-2 3h1a5 5 0 000 1h-1 1v1h1-1v1h-6l-1-11c-2-7-12-15-15-17-1-2-4-2-6 0h-1l-4-3c-5-3-11-10-11-10l-6-1-1 1v-1c-3-8-9-14-9-15l-3-1-1-1c-1-6-7-13-8-14l-4-2h-1l-1 1v-1l-2-5c-2-1-3-5-4-8l-4-4h-1v-6l-4-15c-1-2-3-4-5-4h-1l-1-9-3-10c0-2-2-4-4-4h-1v-1-11c0-2-1-4-3-5h-1c1-8-1-16-2-19 0-2-2-3-4-4-1-9-9-21-10-23s-4-3-6-3l-1 1v-1l-1-2-2-15c0-2-2-4-4-4-2-1-4 0-5 1a57 57 0 00-12 30v1l-2 3c0 2-2 20 0 29l2 4v1l-2 4a161 161 0 004 24v1c-1 2-2 5 1 9l1 3c1 4 2 11 6 16l3 3v1 5s7 16 12 23l5 4v1 5c0 1 5 9 9 13l6 4h1l-1 1-3 2c-1 2-1 5 1 6 1 1 8 10 16 15h1l-1 1 1 5c5 5 19 19 29 19l8-1 1 2-1 1a5 5 0 005 9s3-2 8-2l1 1c0 1 2 6 7 11 7 8 29 18 50 18l17-3 1 2-2 2c-2 1-2 3-2 5 0 4 3 7 5 9h5l27-13 4-2 8-4zm-60-13v-2h1l1 1v1h-2zm-37-5l-1-1-2-1-2-1h7l-1 1-1 1v1z" fill="#8d3803"/><g><path d="M835 627s7 0 7 3l-1 5s7 5 4 9c-2 5-9 1-9 1s-3 3-6 2-6-5-4-12 5-7 9-8z" fill="#faa74a"/><path d="M832 648h-2c-4-2-7-6-5-13s6-8 9-9h1c1 0 8 1 8 4l-1 5c2 1 7 5 4 10l-5 2-5-1-4 2zm3-21v1c-4 1-6 1-8 7-3 8 2 11 3 11l2 1c2 0 3-2 3-2h1l5 1 4-2c2-4-4-8-5-8v-1l1-5-6-3z" fill="#8d3803"/><path d="M879 593s6-1 7 2v5s7 3 5 8c-2 4-8 2-8 2s-2 3-6 3c-3-1-6-4-5-11 0-6 3-7 7-9z" fill="#faa74a"/><path d="M878 614l-1-1c-4 0-7-4-6-11s4-8 7-10h2c3 0 6 0 7 3v4c1 1 7 5 5 9-1 2-3 3-6 3h-3c-1 1-2 3-5 3zm1-20c-3 1-6 3-7 8-1 8 4 10 5 10h1l4-2 1-1 3 1c2 0 4-1 4-3 2-3-5-6-5-7v-1-4l-5-1h-1z" fill="#8d3803"/><path d="M803 626s3-6 1-8l-5-1s-1-9-6-9c-5 1-6 8-6 8s-4 1-4 4c-1 4 1 8 8 10 7 1 9-1 12-4z" fill="#faa74a"/><path d="M795 631l-4-1c-7-1-9-6-9-10 0-3 3-4 4-5 1-3 2-7 7-8 5 0 6 7 6 9l5 1c3 2 0 8 0 9l-1 1c-2 2-4 4-8 4zm-2-22c-5 0-5 7-5 7l-1 1s-3 0-3 3c-1 2 0 7 7 9h4c3 0 5-1 7-3v-1l1-6-4-2h-1s-1-8-5-8z" fill="#8d3803"/><path d="M849 597s2-6 0-7l-5-1s-2-8-6-7c-5 1-5 8-5 8s-3 1-3 4c0 4 2 8 9 8 6 1 8-2 10-5z" fill="#faa74a"/><path d="M840 603h-2c-6-1-9-5-9-9 0-3 2-4 4-5 0-2 0-7 5-8 4 0 6 6 7 7l4 1c3 2 1 7 1 8v1c-2 3-4 5-10 5zm-2-20c-4 1-4 7-4 7v1s-3 1-3 3 0 7 8 7h1c5 0 6-1 8-4v-6a8 8 0 00-4-1l-1-1c0-1-2-6-5-6z" fill="#8d3803"/><path d="M914 557s6-1 7 1v5s8 2 7 6c-1 5-8 4-8 4s-1 3-5 3c-3 0-6-3-6-9-1-6 2-8 5-10z" fill="#faa74a"/><path d="M916 577h-1c-3-1-7-3-7-10 0-6 2-8 5-10l1-1h4c2 0 3 0 4 2v4c2 1 8 3 6 7 0 3-3 5-7 5-1 1-3 3-5 3zm-2-19c-3 2-5 3-5 9 1 7 5 8 7 8s3-3 3-3h1s6 1 7-3-6-6-6-6l-1-1v-4h-6z" fill="#8d3803"/><path d="M887 565s1-5-1-6l-4-1s-2-7-7-6c-4 1-3 7-3 7s-4 2-3 5c0 3 2 6 8 7 6 0 8-3 10-6z" fill="#faa74a"/><path d="M878 571h-1c-6 0-9-4-9-7s2-5 3-5c0-3 0-7 4-8h1c4 0 6 5 6 6h1l4 1c2 1 1 6 1 7v1h-1c-1 3-3 5-9 5zm-2-18h-1c-3 1-3 6-3 6v1s-3 1-3 4c1 1 1 6 8 6 6 0 7-2 9-5v-6h-4l-1-1c-1-1-2-5-5-5z" fill="#8d3803"/><path d="M938 515s5-3 7-2l1 5s8 0 8 4c0 5-6 6-6 6s0 4-4 4c-3 1-7 0-9-6s0-9 3-11z" fill="#faa74a"/><path d="M943 533c-2 0-6-1-8-7s0-9 2-12l6-2 2 1 2 4c2 0 8 1 8 5s-4 6-6 7l-4 4h-2zm-5-18c-2 3-4 5-2 10 2 6 5 7 7 7l1-1c3 0 3-3 3-3l1-1s6-1 5-5c0-3-6-3-7-3l-1-1-1-4h-1l-5 1z" fill="#8d3803"/><path d="M914 530s0-6-2-6l-5 1s-4-7-8-5c-4 3-1 9-1 9s-3 2-2 5 4 5 10 4c6-2 7-5 8-8z" fill="#faa74a"/><path d="M903 539c-4 0-6-2-8-5-1-3 1-5 2-6-1-2-2-6 2-8l2-1c3 0 5 3 6 5l5-1c2 0 3 6 3 7v1c-1 3-2 6-8 8h-4zm-2-18h-2c-3 2-1 7-1 7v1s-2 2-1 4c0 2 2 4 6 4h3c5-1 6-4 7-7l-2-5h-4-1c0-1-3-4-5-4z" fill="#8d3803"/><path d="M950 471s4-3 6-2l2 4s7-2 8 2-4 6-4 6 0 4-3 5c-2 1-6 1-9-4s-1-8 0-11z" fill="#faa74a"/><path d="M957 487c-2 0-5-1-8-5-3-5-1-8 0-11h1c0-1 3-3 5-3h1l3 4 2-1c3 0 5 2 6 4 1 3-2 6-5 7 0 1 0 3-2 4l-3 1zm-6-15c-2 3-3 5 0 9 2 4 4 4 6 4h2c2-1 2-4 2-4v-1s5-1 4-5l-4-2h-3-1s0-2-2-3l-4 2z" fill="#8d3803"/><path d="M932 489s-1-5-3-5l-4 2s-5-5-8-2c-3 2 0 7 0 7s-2 3 0 5c1 2 4 4 9 2 5-3 6-5 6-9z" fill="#faa74a"/><path d="M922 500c-2 0-5-1-6-3v-6c-1-2-2-6 0-8l3-1 6 3a8 8 0 014-1c2 0 3 4 4 5v1c-1 3-1 6-6 9l-5 1zm-3-16h-2c-2 3 1 7 1 7v1s-2 2-1 4c1 1 2 2 5 2l4-1c5-2 5-4 5-7v-1l-2-4-4 2h-1c-1-1-3-3-5-3z" fill="#8d3803"/><path d="M963 428s4-3 6-2l2 3s7-1 8 3-4 6-4 6 0 3-3 5c-2 1-6 0-9-5-3-4-1-7 0-10z" fill="#faa74a"/><path d="M970 444c-2 0-5-1-8-5-3-5-1-8 0-11h1c0-1 3-3 5-3h1l3 4 2-1c3 0 5 2 6 4 1 3-2 6-5 7 0 1 0 3-2 4l-3 1zm-6-15c-2 3-3 5 0 9 2 4 4 4 6 4h2c2-1 2-4 2-4v-1s5-1 4-5l-4-2h-3-1s0-2-2-3l-4 2z" fill="#8d3803"/><path d="M945 446s-1-5-3-5c-3 0-4 2-4 2s-5-5-8-2c-3 2 0 7 0 7s-2 3 0 5c1 2 4 4 9 2 5-3 6-5 6-9z" fill="#faa74a"/><path d="M935 457c-3 0-5-1-6-4v-5c-1-2-2-6 0-8l3-1 6 3a8 8 0 014-2c2 0 3 5 4 6v1c-1 3-1 6-6 8l-5 2zm-3-16h-2c-2 2 1 7 1 7v1s-2 2-1 4c1 0 2 2 5 2l4-1c4-2 5-4 5-7v-1l-2-4-4 2-1-1-5-2z" fill="#8d3803"/><path d="M954 408s-4-1-4 2c0 4 2 8 4 8s12 1 14-1c2-3 1-9-3-8 0 0 2-5-3-6-5-2-7 1-8 5z" fill="#faa74a"/><path d="M961 419h-7l-3-1-2-8c0-2 2-3 4-3h1c1-4 4-6 8-5 2 0 3 1 4 3v3l3 2v7l-8 2zm-8-10c-1 0-2 0-2 2-1 1 0 4 2 5l1 1h2l5 1c5 0 6-1 6-2v-5l-2-1a1 1 0 01-1-2v-3l-2-2c-4-1-6 1-7 5a1 1 0 01-1 1h-1z" fill="#8d3803"/><g><path d="M947 465l4-1 5 1c2 2 9 4 9 4l-1-3-3-2 11-8-5-2c-3-1-8 1-8 1l1-5-6 3-1 7-5 2a1676 1676 0 015-17l1 1 6-6c1-1 3 0 3 2 3 3 7 1 7 1s-4-1-5-4c0-2 5-5 5-5s-4 0-6-2c-2-3 2-7 2-7s-1-1-3 1-3 8-3 10l-6 6h-1l3-12 4-8 9-5h-3l-6-1v-5l-2 1-5 3-4-4c-3 3 2 9 3 11s1 12-1 15v2l-3-3 3-7-2-6-3 4s-3-4-6-5h-6l6 12h-4l-3 2s7 3 9 2c3-1 5 1 6 2l2 2-4 15-1 4-2-7 4-9c-1-3-3-3-3-3s2 6-2 7c-2 1-6-2-6-2s3 5 1 7-5 0-5 0 1 5 5 3h4l2 9-3 13-1 3-4-3 3-7-2-6-3 4s-3-4-6-5h-6l6 12h-4l-3 2s7 3 9 2c3-1 5 1 6 2l3 3-7 17-1-6c1-1 4-6 4-9-1-3-3-3-3-3s2 6-2 7c-2 1-6-2-6-2s3 5 1 7-5 0-5 0 1 5 5 3h4l2 7a794 794 0 01-7 17l-3-5 5-6-2-7-3 3s-2-5-6-6l-6-2 3 14h-3l-4 1s7 5 9 4c3 0 5 3 6 4l2 3-7 13-4 5 1-7c1-1 5-6 5-9s-2-4-2-4 0 7-4 7c-3 1-6-3-6-3s2 6 0 8c-3 1-6-1-6-1s0 5 6 4c1-1 3-1 3 1l1 8a76 76 0 01-11 13c-1-2-2-4-1-5 0-2 5-4 6-5l1-7-5 2s-1-5-4-8l-4-3-2 14-3-1h-4l8 7c2 0 4 3 4 5l2 3-9 9-7 6 2-7 8-7c1-3-1-4-1-4s-1 6-5 5c-3 0-5-4-5-4s0 6-3 7c-2 0-5-3-5-3s-1 5 4 6c2 0 4 0 3 2l-1 7-6 6-10 8v-6c0-1 6-2 7-4 2-2 2-7 2-7l-5 2s0-6-3-9l-4-5-4 15-3-1-4-1s4 7 7 8c2 1 3 5 4 6v4l-11 9-6 4 3-6c1-1 8-4 9-7s-1-5-1-5-2 7-6 6c-3-1-5-5-5-5s0 6-3 7-6-3-6-3-1 5 4 6c2 0 4 1 4 3l-2 6-19 11-3 2 1-6c1-1 6-1 8-3 2-1 3-7 3-7l-5 1s1-6-1-10l-4-5-7 15-3-2c-1-2-4-2-4-2s4 9 6 10c2 2 3 6 3 7v4a1328 1328 0 01-20 12l3-7c2 0 9-3 11-7 2-3 0-4 0-4s-3 7-8 5c-3-1-4-6-4-6s-1 7-5 7c-3 0-5-4-5-4s-2 5 3 7l4 3-1 2-3 3-18 11-32 13-7 5c-2 3 3 7 3 7l27-14c8-4 25-13 29-13l3-1 3 2c1 0 4 3 4 6 0 2 6 10 6 10l1-5-1-4 17 2-3-6c-2-4-8-6-8-6l4-4s-6-2-8-1c-3 1-5 6-7 6l-5-2 19-11 8 1c2 0 2 2 2 4-2 6 4 7 4 7s-3-4-1-7 9 0 9 0-4-4-4-7c1-5 9-4 9-4s-1-3-4-3c-4 0-10 5-11 6h-8l2-1 19-13 5 2 5 5c0 3 6 9 6 9l1-4-1-4h15l-3-5c-3-4-9-5-9-5l3-4h-7l-5 6-6-2 11-7 6-5h8c2 0 2 2 2 3 0 6 5 6 5 6s-3-3-2-6c2-3 8-2 8-2s-4-3-4-6c0-4 7-5 7-5s-1-2-4-2c-3 1-8 6-9 8l-7 1 13-11 4-3h2c2 1 5 3 5 5l7 8v-4l-1-4 14-1-3-4c-3-3-8-4-8-4l2-5-7 1-4 6-5-1 15-13 7-2c2 0 2 2 2 3 1 5 6 4 6 4s-3-2-2-5c0-3 7-3 7-3s-5-2-5-5c-1-4 6-5 6-5s-1-2-4-1-7 6-8 8l-6 2 11-15h4c2 0 5 1 6 3s9 6 9 6l-1-4-2-3 13-5-4-3c-4-3-9-2-9-2l1-5s-5 1-6 3c-2 1-2 6-3 7h-6a1034 1034 0 0010-16l8-5c2 0 3 2 3 3 2 5 7 3 7 3s-4-2-4-5 6-4 6-4-5-1-6-4c-2-4 4-7 4-7s-2-2-4 0c-3 2-5 8-5 10l-7 5 5-10 4-9a3590 3590 0 018 1l9 3-1-3-3-2 11-7-5-3c-3-1-8 1-8 1l1-5s-5 2-6 4l-1 7-4 1a276 276 0 004-16h1l6-6c1-1 3 0 3 2 3 4 7 1 7 1s-4-1-5-4c0-2 5-5 5-5s-4 1-6-2 2-7 2-7-1-1-3 1-3 8-3 10l-5 5 1-5 4-14z" fill="#faa74a"/><path d="M733 674c-1 0-4-2-4-5l1-2c2-2 5-5 7-5a398 398 0 0053-29l-3-2-4-3v-5a1 1 0 012 0s2 4 4 3c2 0 4-5 4-6a1 1 0 011 0l4 5 1 1c4 0 6-5 6-6a1 1 0 011 0c1 1 2 3 1 6-2 4-11 7-11 7l-3 5 3-1 15-10v-4c0-1-1-5-3-6s-5-9-6-10a1 1 0 011-1l5 1 2 2 6-14a1 1 0 011 0l4 5c2 3 2 7 2 9l4-1a1 1 0 011 1c0 1-1 6-3 8l-5 2-3 1-1 3 2-1 8-4 10-7 2-6-3-1-4-3-1-4a1 1 0 012 0s2 3 5 2l2-6a1 1 0 012 0c0 1 2 4 4 4 3 1 5-5 5-5h1c0-1 0-1 0 0 1 0 3 2 2 5-2 4-10 8-10 8l-1 3 3-3 8-6 3-2v-4c0-1-1-4-3-5-3-1-8-8-8-8a1 1 0 011-2h1l3 1 3 1 3-14a1 1 0 011 0l5 4 3 9 4-2a1 1 0 011 1l-2 8-5 2-2 1v4l8-7 6-5 2-7-3-2c-2 0-3 0-4-2l-1-4a1 1 0 012 0s1 2 3 2h1c2-1 2-5 2-6a1 1 0 012-1c0 2 2 4 4 5 3 0 5-6 5-6a1 1 0 011 0c1 0 2 2 1 5s-8 8-8 8l-1 4v-1a75 75 0 0013-12l-1-3c-1-1-2-4-4-4-3-1-8-7-9-7a1 1 0 011-2h4l3 1 1-13a1 1 0 011-1l5 3 4 8 3-2a1 1 0 011 1v7l-4 3-3 2 1 3a206 206 0 0010-12v-7l-2-1-1 1h-2c-3 0-5-4-5-5a1 1 0 012-1l3 1h1c2-1 1-5 1-7a1 1 0 011 0s3 3 5 2c4 0 3-6 3-6a1 1 0 011-1c1 1 3 2 3 5 0 4-6 10-6 10v3l2-3 7-12-2-3c0-1-3-3-5-3l-10-4a1 1 0 010-1l5-2h2l-3-13a1 1 0 011-1l6 2c3 1 5 4 6 6l3-3a1 1 0 011 0c0 1 2 6 1 8l-2 4-2 2 2 3a93 93 0 006-15l-2-6v-1l-2 1h-3c-2 0-4-2-4-3a1 1 0 011-1h3l2-1c1-1-1-4-2-5l1-1h1l4 2 1-1c3-1 1-6 1-6l1-1c1 0 3 1 3 4 1 3-3 10-3 10l1 2 5-14-2-2-5-2h-1l-9-2a1 1 0 010-1l3-3h2l-4-11v-1h6c3 1 5 3 6 5l2-3 1-1v1l3 6-2 4-1 2 2 3 1-2a464 464 0 003-13l-2-8v-1l-2 1h-3c-2 0-4-2-4-3a1 1 0 011-1h3l2-1c1-1-1-4-2-5l1-1h1l4 1h1c3-1 1-6 1-6a1 1 0 011-1c1 0 3 1 3 4 1 3-3 10-3 10l1 3v-1l4-13v-2l-1-1-5-2h-1l-9-2a1 1 0 010-2l3-2h2l-4-11v-1h6c3 1 5 3 6 5l2-3 1-1v1l3 6-2 4-1 2 2 2c1-3 2-13 1-14l-1-1c-2-3-6-9-3-11h1l4 3 5-3h2l1 4 4 1h4a1 1 0 010 1l-8 6c-3 3-4 6-4 7l-2 10 4-4s1-8 3-11l3-1h2a1 1 0 010 2s-4 3-2 6l4 1h1a1 1 0 010 2l-4 4 4 3a1 1 0 010 1l-3 1c-1 0-3 0-4-2l-2-2-7 6h-1a108 108 0 01-4 15l4-1v-3l1-4 5-4a1 1 0 011 1v3h8l5 3a1 1 0 010 1l-11 7 2 1 2 4a1 1 0 01-1 1c-1-1-8-2-9-4l-4-1h-4a292 292 0 00-5 17l3-3s1-8 3-10c1-2 2-2 3-2l2 1a1 1 0 010 1s-4 3-2 6l4 1h1a1 1 0 010 2l-4 4 4 3a1 1 0 010 1l-3 1c-1 0-3 0-4-2l-2-2v1a89 89 0 00-7 5 534 534 0 01-1 14v-3l1-4 5-4a1 1 0 011 1v3h8l5 3a1 1 0 010 1l-11 7 2 1 2 4a1 1 0 01-1 1c-1-1-8-2-9-4l-4-1h-4l-3 9-4 8 4-3s2-8 5-11l3-1 3 1a1 1 0 01-1 2s-5 3-3 6c0 2 4 3 5 3l1 1h-1c-1 1-5 2-5 4s3 4 3 4a1 1 0 010 1l-3 1c-1 0-3-1-5-4l-1-2h-1l-8 5a84 84 0 01-9 14l3 1 1-1 1-2 2-5 7-2h1v1l-1 3c2 0 5 0 8 2l5 4-1 1-12 5 1 2c2 1 1 4 1 4v1h-1l-9-6c-1-2-3-3-5-3h-4l-2 3-7 10 3-2s5-7 8-8h2l4 1v1l-1 1s-6 1-5 4c0 2 3 4 4 5v1h-1l-6 2c0 2 3 5 3 5v1h-1-1c-1 0-5 0-5-5l-2-2-6 1-14 13h2l2-2 3-4h7a1 1 0 011 1l-2 3 7 4 4 5a1 1 0 01-1 1l-13 1 1 3v4a1 1 0 01-2 0s-6-5-7-8c0-2-3-3-4-4l-2-1-1 1a528 528 0 000 4h1c3 0 4 2 4 2a1 1 0 01-1 1s-6 1-6 4c0 2 2 5 3 5l1 1-1 1h-3l-4 1c-1 2 2 5 2 5a1 1 0 01-1 2c-1 0-3 0-4-2-2-1-2-3-2-5l-1-3-7 1-7 5-10 6a13 13 0 004 1l2-2 4-4h8a1 1 0 010 1l-2 4 7 4 4 6a1 1 0 01-1 1h-14v7a1 1 0 01-1 0c-1 0-7-6-7-9 0-2-3-3-4-4l-5-2-18 13h2l2-1s7-6 12-6c3 0 4 3 5 4a1 1 0 01-1 1h-1c-2 0-6 0-7 3l3 6a1 1 0 01-1 2c0-1-2-2-5-2l-2 1c-2 3 1 6 1 6a1 1 0 01-1 2l-4-3c-1-1-2-3-1-5l-1-3-8-1-17 10 3 1 3-2 3-4h3l6 1a1 1 0 010 1l-3 4c2 1 6 3 8 6l3 6a1 1 0 01-1 1l-16-2 1 3-1 5a1 1 0 01-2 0l-6-10c0-3-2-5-4-6l-2-1-3 1-21 9a699 699 0 01-35 17zm51-49l1 2c0 1 1 2 3 2 3 1 4 3 3 5a13 13 0 010 2l-4 3c-2 2-12 9-18 11a625 625 0 00-38 19l2 4 26-13 8-4a154 154 0 0125-11l3 2c2 1 5 3 5 7l5 8v-2-4a1 1 0 010-1l16 1-3-5c-2-3-7-5-7-5a1 1 0 01-1-1l3-4h-6l-3 3-4 3-5-2a1 1 0 010-2 385 385 0 0019-11l9 1c1 1 2 2 1 5l1 4 1 1c0-1-1-4 1-5 0-2 2-2 3-2h3c-1-1-2-3-1-5 0-4 5-5 7-5l-2-1c-3 0-9 4-11 6h-8a1 1 0 010-1l2-2a2438 2438 0 0119-12l5 2c2 0 5 2 6 5l5 7v-2l-1-4 1-1h14l-3-4c-2-3-8-4-8-4v-1l2-4h-2l-4 1-2 3-3 3h-1l-6-2a1 1 0 010-2l11-7a44 44 0 007-5 96 96 0 018 0c2 0 3 2 3 4l1 4 1 1v-6c0-1 2-2 5-2l-2-5c0-4 4-5 7-5l-3-1c-3 1-7 5-9 7l-7 2a1 1 0 010-2 616 616 0 0015-13l1-1h1l3 1c1 0 4 2 5 5l5 6v-2a87 87 0 01-1-4h1l13-1-3-4c-2-3-7-3-7-3a1 1 0 01-1-2l2-3h-1l-4 1-2 3-3 3-5-1v-1c-1 0 0 0 0 0a265 265 0 0015-14 57 57 0 017-2c2 0 3 1 3 4l3 4c-1-2-2-3-1-5 0-2 3-3 5-3l-3-4c0-4 3-6 5-7l-2 1c-3 0-6 5-7 7-1 1-1 2-7 3l-1-1v-1l9-11 2-3 1-1 4 1c2 0 5 0 7 3l7 5-1-2a84 84 0 01-2-4l13-5-4-3c-3-2-8-1-8-1h-1v-1l1-4-5 2-1 4-2 4h-6a1 1 0 01-1-1 1043 1043 0 0010-17 93 93 0 0110-5c2 0 3 3 3 4l3 2h1c-2-1-3-2-3-4s2-4 4-4l-4-4c-1-3 2-6 3-7l-2 1c-2 1-4 7-5 9 0 1 0 2-7 5a1 1 0 01-1-1l5-10 4-9h1l3-1h1c1 0 4 0 5 2l7 3-1-2a77 77 0 01-3-2l1-1 10-6-4-2h-7a1 1 0 01-1 0v-4l-4 3v3l-1 4-5 1a1 1 0 01-1-1 282 282 0 005-16l7-6h1l3 2 3 2h1c-2-1-3-2-3-4-1-1 1-3 2-4l-4-2c-2-3 0-6 2-7l-2 1-2 9s0 2-6 6a1 1 0 01-1-1l1-5a334 334 0 015-15l4-1h1c1 0 4 0 5 2l7 3-1-2a77 77 0 01-3-3h1l10-7-4-1-3-1-4 1h-1v-4l-4 3v3l-1 4-6 1a1 1 0 01-1-1 1818 1818 0 017-17l6-5c1-1 3 0 4 2l3 2h1c-2-1-3-2-3-4-1-1 1-3 2-4l-4-2c-2-3 0-6 2-7l-2 1-2 9-6 6-1 1a1 1 0 01-1-1l2-12c0-2 3-6 5-8l5-4-5-2-1-4h-1l-4 4h-1l-4-3c-1 1 2 6 3 8l1 1c1 2 0 12-1 16v1a1 1 0 01-2 0l-3-3 2-4 1-3-1-4-2 2a1 1 0 01-1 0c-1 0-3-3-7-4l-3-1 4 11a1 1 0 010 2h-4l-1 1a29 29 0 007 1h1l6 2 2 2v1l-1 3-3 12a121 121 0 00-2 5h-1c-2-7-1-8-1-8l3-9-1-2c0 2 0 6-3 7l-4-1v6l-3 1h-2 7l2 1a76 76 0 012 9l-1 5-2 9a97 97 0 01-2 3h-1l-4-4 2-4 1-3-1-4-2 3h-1c-1 0-3-4-7-5l-3-1 4 11a1 1 0 010 2h-4l-1 1a29 29 0 007 1h1l6 2 2 3 1 1a650 650 0 01-8 17c-2-5-1-6-1-6l3-9-1-2c0 2 0 6-3 7l-4-1v6l-3 1h-2l2 1 2-1h3l2 1a61 61 0 012 8 864 864 0 01-9 16c-3-3-3-4-3-5l2-3 3-3-1-6-3 3a1 1 0 01-1 0s-2-5-5-7l-5-1 3 13v1h-1-4-2a25 25 0 009 4l6 3 2 3v1l-8 13-2 4-1 1a1 1 0 01-1 0v-7l5-9v-2c0 2-1 6-4 6l-5-1c0 2 0 4-2 5l-2 1-3-1 3 2h3c2 0 3 1 3 2a58 58 0 010 8 73 73 0 01-10 13 1 1 0 01-2 0c-2-4-1-5-1-6l3-2 3-3 1-5-3 2h-1l-1-1s0-5-3-7l-4-3-1 13a1 1 0 01-1 1l-3-1h-2l6 5c3 1 5 4 5 6l1 3v1l-8 8-5 5-2 1a1 1 0 01-2-1l3-6c2-2 7-5 8-8v-2c-1 2-3 6-6 5-2 0-3-1-4-3-1 2-1 5-3 5l-2 1-3-2v1l3 2c3 0 4 1 4 3a58 58 0 01-2 8l-6 5a86 86 0 01-10 8c-2-5-1-6-1-6l4-3 3-1 2-6-4 2a1 1 0 01-1-1s0-6-2-9l-4-3-3 14h-1l-4-2h-2l6 7c3 1 4 5 5 6v5l-4 2-8 7-5 3a1 1 0 01-1-1l2-6c2-1 8-4 9-7v-2c-1 2-3 5-6 5h-1l-4-3c0 2-1 4-3 5h-1l-4-2v1l3 2c3 1 5 2 4 4a39 39 0 01-2 7l-11 6a172 172 0 00-11 7v-7l5-2 4-1 2-6-4 1h-1v-1s1-6-1-9l-3-4-6 14a1 1 0 01-1 0l-3-3-3-1 5 9c3 1 4 6 4 7v4l-1 1a1307 1307 0 01-21 12v-1l4-7c2-1 9-4 10-7l1-3c-1 2-4 5-7 5h-1l-4-4c-1 2-2 5-5 5-2 0-4-1-5-3z" fill="#8d3803"/></g><g><path d="M814 617a1 1 0 010-1l1-4 2-7 1-1v1l-1 8-2 3-1 1z" fill="#8d3803"/></g><g><path d="M814 617v-1l-5-3a1 1 0 111-1l5 3 6-2a1 1 0 111 2l-7 2h-1z" fill="#8d3803"/></g><g><path d="M859 576v7l-1 3" fill="#faa74a"/><path d="M858 587l-1-1 1-4v-6a1 1 0 012-1l-1 8v3l-1 1z" fill="#8d3803"/></g><g><path d="M858 587l-5-2a1 1 0 110-2l5 2 6-2h1l-1 1-6 3z" fill="#8d3803"/></g><g><path d="M813 652l-7-3h-4" fill="#faa74a"/><path d="M813 652l-7-2h-4a1 1 0 110-2l4 1 8 2a1 1 0 01-1 1z" fill="#8d3803"/></g><g><path d="M803 655h-1v-6l5-6a1 1 0 111 1l-5 5 1 6h-1z" fill="#8d3803"/></g><g><path d="M862 620l-7-1h-4" fill="#faa74a"/><path d="M862 621h-1l-6-2h-4a1 1 0 110-1h4l7 1a1 1 0 010 2z" fill="#8d3803"/></g><g><path d="M852 625l-1-1-1-5 1-1 3-5a1 1 0 012 1l-4 5 1 5a1 1 0 01-1 1z" fill="#8d3803"/></g><g><path d="M893 544l1 7v3" fill="#faa74a"/><path d="M894 555l-1-1v-3l-1-7 1-1 1 1 1 7-1 3a1 1 0 010 1z" fill="#8d3803"/></g><g><path d="M893 555l-5-2a1 1 0 111-1l4 1 5-3a1 1 0 011 1l-5 3-1 1z" fill="#8d3803"/></g><g><path d="M900 586l-7-1h-3" fill="#faa74a"/><path d="M900 587l-7-1h-3a1 1 0 110-1l3-1 7 1 1 1-1 1z" fill="#8d3803"/></g><g><path d="M891 591v-1l-2-4 1-1 3-5a1 1 0 011 1l-3 5 1 4a1 1 0 01-1 1z" fill="#8d3803"/></g><g><path d="M914 508l2 6 1 3" fill="#faa74a"/><path d="M917 518l-1-4-3-6a1 1 0 112-1l2 7 1 3a1 1 0 01-1 1z" fill="#8d3803"/></g><g><path d="M912 518a1 1 0 010-2h5l4-4h1v1l-4 5h-6z" fill="#8d3803"/></g><g><path d="M932 546l-6 1-3 1" fill="#faa74a"/><path d="M923 549a1 1 0 01-1-1l4-1 6-2 1 1-1 1-6 1a18 18 0 01-3 1z" fill="#8d3803"/></g><g><path d="M925 553l-3-4v-1l2-6a1 1 0 111 1l-1 5 2 4a1 1 0 01-1 1z" fill="#8d3803"/></g><g><path d="M928 470l3 5 1 3" fill="#faa74a"/><path d="M932 478l-2-3-3-5a1 1 0 111-1l4 5 1 3a1 1 0 01-1 1z" fill="#8d3803"/></g><g><path d="M928 479a1 1 0 010-1l4-1 2-5h2v1l-3 5h-1l-4 1z" fill="#8d3803"/></g><g><path d="M951 500s-4 1-5 3l-3 1" fill="#faa74a"/><path d="M943 505a1 1 0 010-2l2-1 6-2a1 1 0 010 1l-5 2a16 16 0 01-3 2z" fill="#8d3803"/></g><g><path d="M946 508l-3-3-1-1 1-6h1v6l3 3a1 1 0 01-1 1z" fill="#8d3803"/></g><g><path d="M941 427l3 5 1 3" fill="#faa74a"/><path d="M945 435l-2-3-3-5a1 1 0 111-1l4 5 1 3a1 1 0 01-1 1z" fill="#8d3803"/></g><g><path d="M941 436a1 1 0 010-1l4-1 2-5h1l1 1-3 5h-1l-4 1z" fill="#8d3803"/></g><g><path d="M964 457s-4 1-5 3l-3 1" fill="#faa74a"/><path d="M956 462a1 1 0 010-2l2-1 6-3a1 1 0 010 2l-5 2a16 16 0 01-3 2z" fill="#8d3803"/></g><g><path d="M959 465l-3-3-1-1 1-6h1v6l3 3a1 1 0 01-1 1z" fill="#8d3803"/></g><g><path d="M744 647s-12-5-16-10c-5-6-8-15-13-19l-8-4s7 0 13 5c6 4 8 14 15 18l15 7s-3 3-6 3z" fill="#faa74a"/><path d="M744 647c-1 0-13-5-17-10l-5-8c-3-4-5-8-8-10l-7-4-1-1v-1h1c3 0 8 1 13 5 4 2 6 6 7 9l8 9c6 4 15 7 15 7a1 1 0 010 1s-3 3-6 3zm-30-31l1 1 8 11 5 8c4 5 15 9 16 10l4-2-14-7c-4-2-6-6-8-9l-6-9-6-3z" fill="#8d3803"/><path d="M745 648s-32-11-34-9c-3 2 0 5-4 7-4 1-11 0-15-1l-10-2 9-4 10-2-14-2-12-2c-4 0-7 0-11-2s-5-3-10-3c-6 0-11 2-11 2s6-5 10-6c4 0 13-1 17 1s11 2 11 2l-16-10c-3-2-10-3-10-3s-15 5-23 5-25-17-25-17 6 3 18 3 12 5 17 5h9s-15-13-21-13c-7 0-14 4-22 0s-18-16-18-16l11 1c5 0 15 3 19 5s7 6 7 6-15-17-17-17c-1 0-21-5-25-9l-8-11 9 1c4-1 11 2 14 5l4 4s-9-11-13-13c-4-3-14-1-19-8l-12-23s7 6 9 6 10 3 14 7l10 12s-8-21-13-24c-6-3-18-2-23-10s-5-17-7-19 0-4 0-4 3 6 7 6c4 1 11 5 14 8l8 13s-4-14-10-19c-5-5-19-9-20-15-2-6-2-21-2-21s4 5 7 6c2 1 11 9 12 14l1 8s0-14-4-18c-3-5-15-10-17-19s0-27 0-27l6 10c2 2 7 14 7 18 0 5 3 8 3 8s-2-21-4-25c-2-5-10-14-10-17s3-17 11-25c0 0 0 10 3 16 2 5 4 17 2 21l-2 7 2 17v3s6-8 4-14c-2-7-2-12 0-16l2-13s9 14 9 21c0 8-6 12-8 16-1 3-4 8-4 13s4 16 4 16v-11c0-7 1-12 6-17l6-12s4 17 0 24l-9 18v9l4 8s-4-15 1-21l10-15s1 18-1 23-6 11-5 19c0 7 3 15 4 16l2 5s3-8 1-12-5-13-2-19l6-15 3 10c2 5 2 18 0 22-1 5-4 8-4 14l2 11c0 4 4 8 4 8l-1-15c-1-6 0-12 3-16l3-11 4 14c0 5 0 14-3 18-2 3-3 8-3 11v6l8 10s2-8 1-11c-2-3-1-9-1-12l3-11s2 8 5 11c2 2 3 13 2 17l-4 13 13 17s0-6-4-13-4-12-3-15l4-13s8 9 8 15-3 15-2 19l3 11 8 6s-6-13-6-18l1-16s9 8 9 19c1 10 0 16 2 18l14 11c5 3 11 2 11 2l-3-4c-2-2-13-6-15-16l-2-14 12 10c6 4 10 11 10 16s3 13 6 15c4 3 3-3 1-5-2-3-5-10-4-15l-2-8s11 9 13 14c2 6 1 15 1 18s2 5 7 6c4 2 14 1 20 4 7 3 22 5 26 7 4 1 1 6 1 6z" fill="#faa74a"/><path d="M745 649c-1-1-27-9-33-9h-1l-1 2c0 2 0 4-3 4l-6 1-9-1-11-3a1 1 0 010-1l10-3 4-2a422 422 0 01-21-4h-2a19 19 0 01-10-2l-8-2-11 1a1 1 0 010-1s6-5 10-6h9l8 1 7 2-13-8c-2-2-7-3-8-3-2 0-16 5-24 5-9 0-25-17-25-18a1 1 0 011-1s5 3 17 3c7 0 10 2 13 4l4 2h7c-5-5-15-13-19-13l-7 1-7 1c-3 0-6 0-8-2-8-4-18-15-19-16a1 1 0 011-1l11 1c5 0 14 3 19 5l-10-9s-21-5-25-9-8-12-8-12v-1h1l8 1 10 2-5-5-6-1c-5-1-10-2-13-6a180 180 0 01-12-24h1c2 2 6 5 8 5s10 3 15 8l6 8c-3-8-7-17-11-19l-7-2c-5-1-12-3-16-8-3-5-4-11-5-15l-1-5c-3-2-1-4-1-4l1-1v1s4 5 7 6c4 0 12 4 15 8l4 6-7-12-9-5c-5-3-11-6-12-10a162 162 0 01-2-21h1l7 5c2 1 8 6 11 11l-2-6-6-5c-5-3-10-7-11-14a130 130 0 010-28h1l5 10a59 59 0 019 23c-1-7-2-18-4-21l-4-7-5-10c0-3 3-17 10-26a1 1 0 011 1l3 15c3 6 5 18 3 22l-2 7 2 17c2-3 3-7 2-11-2-7-2-12 0-17l2-12a1 1 0 011 0c1 0 9 14 9 21 0 6-3 10-5 13l-2 3c-2 3-4 8-4 13l2 12 1-7c-1-8 1-12 5-18 5-5 6-11 7-11h1c0 1 4 18 0 24l-9 18v9l2 4c-1-5-2-13 1-18a286 286 0 0011-15l1 1c0 1 1 18-1 23l-2 4c-2 5-4 9-4 15a43 43 0 006 18v-9c-2-4-5-13-2-20l6-14 1-1 1 1 3 10c1 5 2 18 0 23l-1 3c-2 3-3 6-3 10l1 7v4l3 6-1-13c-1-6 0-12 3-17l3-10a1 1 0 012 0c0 1 3 9 3 14 1 10 0 16-2 18-3 4-3 9-3 11v5l7 10v-9c-2-4-1-10 0-14l2-10a1 1 0 011 0l5 10c3 3 4 14 2 18l-3 13 11 14-3-10c-4-6-5-11-4-15l5-13a1 1 0 011 0s8 9 8 15l-2 11-1 8 4 10 5 4c-2-4-5-11-5-15a246 246 0 012-17h1c0 1 9 9 9 20a416 416 0 012 17l14 11 8 3-2-3-3-3c-4-2-10-6-12-14a215 215 0 01-1-15h1c0 1 6 7 12 10 6 4 10 12 10 17s3 12 6 15h1s0-3-2-5-5-10-4-15l-2-8a1 1 0 012-1s11 9 13 15l1 14v4c0 3 1 4 6 6l8 1c4 0 9 0 13 2 3 2 9 3 15 4l10 3 2 2v5l-1 1zm-33-11c6 0 28 7 33 9v-3l-2-2-10-2-15-5-12-2-9-1c-5-2-6-3-7-7v-4c0-4 1-10-1-14-1-3-7-9-10-12v6c0 5 3 12 5 14 1 2 2 5 1 7h-3c-4-3-6-11-7-16 0-5-3-12-9-15l-11-9 2 12c1 7 7 11 11 13l4 3 2 4a1 1 0 010 1h-1c-2 0-6 0-10-2l-15-12-1-11v-7c-1-8-6-14-8-17l-1 14c0 5 5 18 6 18l-1 1h-1l-7-6-1-1-3-11 1-9 1-10c0-4-4-10-6-13l-4 11c-1 4 0 9 3 15 4 7 4 12 4 13a1 1 0 01-1 0c-2-1-13-15-13-17-1-3 2-12 3-13 1-4 0-14-2-17l-4-8-2 8c0 4-1 9 1 12 1 3-1 11-1 12h-1l-8-11h-1v-6c0-2 0-8 4-12 2-2 2-8 2-17l-3-10c0 2-1 5-3 7-2 4-3 10-2 16a235 235 0 010 16h-1s-4-5-4-9l-1-4-1-7c0-4 2-8 3-11l2-3c1-4 1-17-1-21l-2-8-5 12c-4 6 0 15 2 18 1 4-1 13-1 13l-1 1-1-1-2-4c0-1-4-9-4-17-1-6 2-11 4-15l1-4c2-4 1-15 1-20l-8 12c-5 6-1 21-1 21a1 1 0 01-1 1l-5-9v-2-7l10-19c2-4 1-15 0-20l-6 9c-4 6-5 10-5 17 1 7-1 11-1 11h-1c0-1-4-11-4-16s3-11 5-14l2-3c2-3 5-7 5-12s-5-14-8-18l-2 10c-1 4-1 9 1 15 2 7-4 16-4 16a1 1 0 01-1-1v-3l-3-17 2-7c2-4 0-15-2-21-2-4-3-11-3-14-6 8-9 20-9 23l5 9 5 7a145 145 0 013 26h-1s-2-3-2-8c0-4-6-16-8-18l-4-7v24c1 6 6 10 11 13l6 5c3 5 4 18 4 18a1 1 0 01-1 1s-2-2-2-8c-1-5-9-12-12-13l-5-5 2 19c0 3 6 6 11 9l9 5c5 5 10 19 10 20a1 1 0 01-1 0l-9-12c-2-3-9-7-13-8-3 0-5-3-7-4h1l2 6c1 4 2 9 5 14s9 6 15 7l7 2c6 3 13 24 13 25a1 1 0 01-1 1s-5-8-10-12c-4-4-11-8-13-8l-6-3 10 20c3 4 8 4 12 5l7 2c4 2 13 13 13 14v1h-1l-5-5c-2-3-9-5-13-4l-7-1 7 10c3 3 22 8 25 8l14 14 3 3a1 1 0 01-1 1l-3-3-4-2c-4-2-14-5-19-5l-9-1c3 3 11 11 17 14l7 2 7-1 7-1c6 0 21 13 22 14a1 1 0 01-1 1h-9l-5-2c-3-2-5-4-12-4l-15-1c5 4 16 14 22 14 8 1 23-5 23-5h1s6 1 9 4a201 201 0 0017 11h-1s-7 0-11-2l-8-2-8 1h-1l-6 3 7-1 8 2 3 1c2 2 4 2 7 2h3l7 1 5 1a666 666 0 0014 4s-6 0-10 2l-6 3 7 1a39 39 0 0015 1l2-3 1-4h2z" fill="#8d3803"/><path d="M758 643s-27 15-47 15c-21 0-41-11-46-16s-7-10-7-10 14 18 36 19c22 2 36 0 45-5l11-7s8-1 8 4z" fill="#faa74a"/><path d="M711 659c-21 0-41-11-46-17-5-5-7-10-7-10a1 1 0 011-1s14 18 35 20h13c14 0 24-2 32-6l11-6 2-1 6 2 1 3h-1c0 1-27 16-47 16zm-48-21l3 3c5 6 25 16 45 16 18 0 42-13 46-15l-1-1-4-1h-2l-10 6c-8 5-19 7-33 7l-13-1c-14-1-25-9-31-14z" fill="#8d3803"/><path d="M804 672s-25-25-40-33c-16-8-33-10-39-12-5-2-13-5-19-5l-13 1s10 11 17 11 15-2 25 0l14 6s19 9 27 15c7 5 20 20 20 20s7-1 8-3z" fill="#faa74a"/><path d="M796 676v-1c-1 0-13-14-21-20a212 212 0 00-27-15s-5-3-14-5l-11-1h-13c-7 0-17-10-17-11l-1-1h14c6 0 15 3 20 4l7 2c8 2 20 4 31 10a226 226 0 0141 34c-1 3-8 4-9 4zm-47-37c1 1 20 9 27 15 7 5 19 18 20 20l7-2c-3-3-26-25-40-33-11-5-23-8-31-9l-7-2c-4-2-13-5-19-5h-11c3 3 10 10 15 10h6l7-1 12 2 14 5zM560 432l-1-1c-2 0-3-2-3-3l-1-1c-1-2-2-5-4-6a1 1 0 112-1 62 62 0 014 7l2 3h2v-1l1-3v-2l1-1 1 1-1 2v3l-1 2-2 1zM558 463h-1l-3-3-1-2a1 1 0 112-1l1 2 1 1-2-8a1 1 0 111-1c2 3 2 7 2 10v1a1 1 0 010 1zM571 448a1 1 0 01-1-1v-3l-1-4 1-1 1 1v4l1 2 1-3a1 1 0 011 1l-3 4zM574 477a1 1 0 01-1-1v-4l1-5v-1l1 1v6l1-2a1 1 0 012 0l-3 5-1 1zM564 491h-1l-2-2-1-1a1 1 0 111-1l1 1h1l-1-2v-3a1 1 0 111 0l1 3a11 11 0 001 2v2a1 1 0 01-1 1zM581 498h-1v-1l-1-2-1-3 1-1 1 1 1 2 2-3h1v1l-2 5v1h-1zM576 519h-1l-3-2h-2l-5-2a1 1 0 111-1l5 1 1 1h1l-1-2-4-4a1 1 0 012-1c0 2 2 3 3 4l1 2 3 3a1 1 0 01-1 1zM593 518l-1-1-1-7a1 1 0 111-1v1l1 3 1-1v-1c0-1 0-3 2-4a1 1 0 110 2l-1 3v2l-1 4h-1zM589 548l-4-2-5-1a1 1 0 111-2l4 2h2a17 17 0 00-2-1l-3-4a1 1 0 111-1l3 3 2 2 2 3a1 1 0 01-1 1zM600 540l-1-1v-7a1 1 0 012 0v5l2-3 2-3a1 1 0 011 1l-1 3-3 3-1 1-1 1zM614 564v-1-2l-1-6a1 1 0 012 0l1 3 1-2h1v1l-3 5v1l-1 1zM606 572l-2-1-9-3h-1l1-1 5 1-2-2-2-2a1 1 0 111-1l2 2 4 3 1 1 3 2a1 1 0 01-1 1zM629 576h-1l-1-3-2-3a1 1 0 112-1l2 3v0l1-3v-1l1 1v4l-1 2a1 1 0 01-1 1zM616 594a1 1 0 010-2h4c-2-1-5-3-8-2v-1-1l9 3h1a1 1 0 010 2l-5 1h-1zM645 596v-1h-1l-2-5-1-1a1 1 0 112-1v1l1 1v-2a1 1 0 011 0l1 6v1l-1 1zM636 616h-2a1 1 0 111-2h5l-6-2a1 1 0 112-1l7 1 1 1-4 3h-4z" fill="#8d3803"/><g><path d="M673 610h-1l-1-1v-1l-2-2-3-2a1 1 0 111-1l3 2v-1-1l1 1 1 3 2 2a1 1 0 01-1 1z" fill="#8d3803"/></g><g><path d="M689 623l-1-1-1-2v-2l-1-2a1 1 0 111-1l1 3v-3a1 1 0 012 0v7a1 1 0 01-1 1z" fill="#8d3803"/></g><g><path d="M676 632l-1-1 1-1h1l-6-1a1 1 0 110-2l6 2a53 53 0 015 0 1 1 0 010 2h-3l-3 1z" fill="#8d3803"/></g><g><path d="M705 642v-1a8 8 0 011-3l-3 1-2 1a1 1 0 11-1-1l2-1 5-2a1 1 0 011 1l-1 2-1 2-1 1z" fill="#8d3803"/></g></g></g></g><g><path d="M881 263H621s-38 83-129 118c0 0 10 157 52 235 42 77 123 118 150 134 28 17 57 41 57 41s29-24 57-41c27-16 108-57 150-134 42-78 52-235 52-235-91-35-129-118-129-118zm65 340c-37 59-72 88-110 109-39 20-85 57-85 57s-46-37-85-57c-38-21-73-50-110-109-37-58-48-215-48-215 85-32 122-107 122-107h242s37 75 122 107c0 0-11 157-48 215z" fill="#faa74a"/><path d="M751 792h-1v-1s-29-24-56-40l-10-6c-34-19-103-59-141-129-41-76-52-234-52-235v-1h1a241 241 0 00128-117l1-1h260l1 1s9 21 30 45c19 23 51 54 98 72h1v1c0 1-10 159-52 235a357 357 0 01-151 135c-27 16-56 40-56 40l-1 1zM493 381c1 11 11 160 52 234 37 69 106 110 140 129l10 6c25 15 53 37 56 40 3-3 31-25 56-40l10-6c34-19 103-60 141-129 40-74 51-223 51-234a243 243 0 01-129-117H622c-2 3-12 23-31 45-19 23-51 54-98 72zm259 388h-2s-46-36-84-56c-44-24-77-56-111-109-36-58-48-214-48-216v-1c85-31 122-105 122-106l1-1h242l1 1c0 1 37 75 122 106v1c0 2-12 158-48 216-34 53-67 85-111 109-38 20-84 56-84 56zm-1-1c4-3 47-37 84-57 44-23 77-55 110-108 36-56 48-204 49-214a244 244 0 01-123-107H631c-4 6-41 76-123 107 1 10 13 158 49 214 33 53 66 85 110 108 37 20 81 54 84 57z" fill="#8d3803"/></g><g><path d="M689 397s12-7 22 1 20 13 30 15l10 1h-12c-2 0-12-2-18-6s-11-8-14-8l-9 1s2-3 5-3l6 1s-5-4-11-3l-9 1z" fill="#ffe06a"/><path d="M880 520c-7-4-12-11-14-14l-5-16c0-3-4-7-7-7l-12-8c-2-1-1-1-2-4 0-3-4-5-4-13-1-7-10-11-10-11l-4-3c-3-4-6-14-7-16-2-3-6-12-8-13l-4-5-3-5c0-1-1-4-4-7l-10-6-4-2s-1-2-5-3-8 1-11 1h-3l-5-2h-2-8l-8 1-6 9 1 4 1 1c2 3 16 11 17 12h1l-4 1h-9c-2 0-5 0-5 2s-1 3 2 5 6 5 12 5a26 26 0 0113 3l4 7 2 3-1 1v1l-17 7c-8 3-23 17-24 18 0 1-5 3-10 3s-21 6-28 14c-3 4-7 5-11 6l5-2-7 1c-4 1-9 0-14-1-5 0-6-1-7-6-2-5 5-19 5-19 7-11 35-9 46-9 11 1 26-5 27-14s-9-13-9-13 4 6 4 10c-1 3-1 8-19 9-18 2-40-2-58 4-18 5-27 36-16 51 10 16 42 10 42 10l2 1-1 1-3 1-1 1-7 2c-3 0-5 3-5 3l-9 4c-4 2-2 5-2 5l1-1a15 15 0 015-2c-2 1-6 3-6 6 0 4 3 4 4 4v-2l1-3 4-1-1 1c-1 1-3 2-3 5l1 1v1c1 2 6 4 6 4l-2-4c0-2 2-3 4-5l11-1c3 0 3-2 4-3l4-2 6-1h2l-2 2c-2 2-15 7-16 12-1 2 1 5 1 6l2 4 1-6a19 19 0 012-1l3-2 1-1c-2 1-4 4-4 6l2 6 2 6 1 2v-6l1-4 1-2a43 43 0 012-4l4-4-1 1-1 3-2 3v1c-1 2 3 12 3 12l1-7 1-3 3-4c2-1 3-4 4-6l1-3v2l1 4v2l3 2v1c-1 2 2 9 2 9l2-4 2-5v-4-3-2c0-1-1-4 1-6l12-12 1-1 8 3c7 1 16-1 20-2 5-2 12-1 17 2 3 1 12 0 23-1v1l4 4c2 2 2 2 6 2h6l6 5-1-5 4 1 3 5v-3l-2-5s2-1 4 1c3 3 4 8 4 8s1-3-1-10c-1-4-6-7-8-8 4-3 4-8 6-8 3 1 4-1 6-2h1c1-1 12 1 16 3h1c2 2 1 4 1 6l-1 2-1 4v4l2 7 2 3 3-8v-6l2 1 6 7c2 2 2 7 2 10v1s4 0 5-4l-1-11h1l2 2h1l1 2c2 5-1 9-1 9s3-2 5-6v-6l1 1 5 4 1 6 2-8c0-4-2-8-7-10zm-219 9zm216-4z" fill="#faa74a"/><path d="M685 565l-3-8a78 78 0 01-3-8l-3 1-2-4c-1-2-3-5-2-8l6-6h-2l-10 2-3 3 1 2-1 3-8-4-1-1c-2-1-5-2-5-6l1-2h-1v-4l4-4 8-3a12 12 0 017-4l5-2h2l-12 1c-10 0-23-2-30-12-5-8-6-20-2-32 4-11 11-19 19-22 9-3 19-3 26-3h11a423 423 0 0022 0c16-2 17-6 17-8 1-2-2-7-4-9l-3-5 5 3c1 0 11 4 11 14-1 10-17 16-28 16h-3l-11-1c-18 0-28 3-32 9-2 5-6 15-5 18 2 4 2 4 6 5h3l11 1 6-1h1l5-4c7-8 23-14 29-15 5 0 8-1 9-2 2-2 17-15 24-19l16-6 1-1-1-2a106 106 0 01-5-7c-2-1-5-2-11-2s-10-3-13-5c-3-3-3-5-3-7v-1c1-3 4-3 6-3h3l4 1h2a66 66 0 01-15-12c-1-1-2-2-1-5 0-2 2-6 5-9v-1l6-1h8l2-1h2l3 1 4 1 2 1h1l3-1 6-1h2c4 1 6 3 7 4l3 1v1c2 0 7 4 10 6s4 5 5 7v1l1 2 1 2 3 3 2 2 4 6 3 7 3 6 5 10 3 2c2 1 10 6 10 13 0 5 2 7 3 9l2 3v2l1 1 11 8c3 0 9 5 9 9l5 15c1 3 6 10 13 13 5 3 8 7 8 12l-3 8-3 6v-6l-1-6-2-1-1 3-5 7-2-3s2-4 0-7v-2h-1v8c0 5-6 6-6 6h-2v-2-1c0-5 0-8-2-9a73 73 0 01-4-5v2c-1 5-4 9-4 9l-1 2-1-2-3-3a14 14 0 01-2-9l1-3 1-4v-1a54 54 0 000-3v-2l-1-1a60 60 0 00-14-3l-2 1h-1c-1 1-2 2-5 2l-1 2-3 4c3 1 7 4 8 8 2 7 1 11 1 11l-1 6-2-6c-1-2-2-6-4-7v-1a25 25 0 011 6l-3 1-3-5h-1l2 7-9-7h-6c-4 0-4-1-6-2h-1l-4-5-8 1h-9l-6-1-11-2h-4l-15 3-6-1-8-2-12 12v5a118 118 0 000 5l-1 5-2 5-2 4-1 4-2-4c0-2-2-7-1-10l-3-2-1-3c0 2-1 3-3 4l-2 4-2 2-1 7-3 1-3-10-2 15zm-2-28l2 3c-3 2-4 4-4 5l2 6 1 1v-3l1-3 2-4h1l7-7v4l-1 2-2 3h-1 1l-1 2-1 1 1 5v-1l2-3 4-4 1-3 1-2 1-3 2-1h2v7l1 1 2 1v1l1 1v5l2-4 1-4v-3l-1-2v-1c0-1 0-4 2-6l11-13h2l1-1 1 1 7 2h6l14-2 5-1c4 0 9 1 12 3l5 1a147 147 0 0018-1h3l-1 2a12 12 0 004 3l4 1h7l2 2v-1l1-1 5 1-1-1 1-1 3-1 3 2 1 1v-1c-1-4-5-6-8-7l-3-1 3-2 3-5c1-2 2-3 4-3l3-1 2-1 1-1h3l14 3h1l1 1c2 2 2 4 1 6v4l-1 4v4c-1 1 0 3 1 5l1 1 1-5 1-6-1-3 3 2h1l1 1 2 3 4 3c2 3 2 7 3 11l1-2v-11l-1-2h4v1l2 1 1 1 1 3 1 3h1l-1-6 3-1h1v1l5 4v-1c1-3 0-6-6-9-7-4-13-11-14-15-2-2-5-14-5-16s-4-5-6-6c-3 0-11-6-13-8-2-1-2-2-2-4v-1l-2-2c-1-2-3-5-3-10 0-7-8-11-9-11l-3-2-1-1-5-10-3-6-3-7-4-6-1-2-3-4-1-1-2-3v-1l-4-5-9-6h-1l-4-3s-1-2-4-2l-2-1-5 1a19 19 0 01-5 1h-2l-5-2h-1-1-2-7-6l-1 1-4 7v3h1v1l14 10 3 2 6 2-6 1a191 191 0 01-7 1h-4l-2-1-4 1 2 4c3 2 6 5 11 5a27 27 0 0114 3l5 7 2 4v1l-1 1v1h-2l-16 7c-8 4-22 16-23 18s-8 4-12 4-20 6-26 13c-3 4-7 6-13 7v-1h-2a70 70 0 01-14-1c-6-1-7-2-9-7-2-6 4-19 5-20v-1c5-7 16-10 35-10h11l2 1h1c11 0 24-6 24-13 1-3-1-5-2-7v4c0 5-2 9-20 11a112 112 0 01-22 0h-11l-25 3c-7 3-14 10-17 20-4 11-3 22 2 29 6 9 18 10 27 10l13-1h1c3 0 4 2 4 3l-1 1-4 3h-1l-6 2h-2l-4 3v1h-1a208 208 0 00-6 3l1 3c-3 1-5 3-5 4l1 2c0-1 0-3 2-4l5-1v-1h1v3h1-1v1a6 6 0 00-2 1l-1 3v2h1c0-3 3-4 5-6l12-2 2-1 1-1 4-2 6-1h1l1-1 5-1-5 6-5 4c-4 2-10 5-11 7l1 4 1-1 2-2v1-1l3-2 1-1zm1-9l-2 1-1 1-1 1 4-2 2-1h-2zm192-2l1-1-1 1 1-1h-2 2l1-1 1 1h-1l-2 1z"/><g><path d="M683 487z" fill="#faa74a"/><path d="M682 486h1l1 3h-1z"/></g><g><path d="M804 528c-4 0-4 0-6-2l-4-4 2-3s15-4 21-2c0 0 9 2 10 8 2 7 1 10 1 10s-1-5-4-8c-2-2-4-1-4-1l2 5v3l-3-5-4-1 1 5-6-5h-6z"/><path d="M662 519s2-3 5-3l7-2c1-1 5-1 5-3l-2-1s-32 6-42-10c-11-15-2-46 16-51 18-6 40-2 58-4 18-1 18-6 19-9 0-4-4-10-4-10s10 4 9 13-16 15-27 14c-11 0-39-2-46 9-8 12-9 25 1 26 11 1 22 3 28-5 7-8 23-14 28-14s10-2 10-3c1-1 16-15 24-18l22-9c2 0 39-4 53 8 0 0 9 4 10 11 0 8 4 10 4 13 1 3 0 3 2 4l12 8c3 0 7 4 7 7l5 16c2 3 7 10 14 14 5 2 7 6 7 10l-2 8s0-7-3-8l-5-5s3 4 1 8-5 6-5 6 3-4 1-9c-2-4-5-4-5-4l1 11c-1 4-5 4-5 4s1-7-3-12c-3-5-7-7-7-7v6l-3 8s-5-5-4-14c2-8 3-11 1-12-3-1-16-5-17-3h-1c-2 1-3 3-6 2-3 0-3 13-20 12-16 0-30 3-34 1-5-3-12-4-17-2-4 1-13 3-20 2l-8-3s-8 5-10 4c-3 0-7-2-8-3h-9l-1 1-6 4-10 1c-1 0-3 5-7 5-4-1-9 1-11 1-1 1-5 4-3 6l1 2s-5-1-5-4c-2-4 1-5 2-6l2-1s-6 0-7 3l1 3s-4 0-4-4 7-6 7-6l-6 1-1 2s-2-3 2-5l9-4z" fill="#faa74a"/><path d="M763 499s-2 5-12 4c-9-1-12-2-14 1l-10 12-13 14c-4 5-2 9-2 13l-3 9-1 4-2-10c-2-3-3-2-3-4l-1-4v-1l-5 8c-3 3-5 8-5 10v3s-4-10-3-12l3-6 1-1s-7 6-7 9l-1 9v2s-6-12-5-14l2-3c0-2 3-4 3-4l-7 5-1 6s-4-9-2-12 14-7 15-9l10-14c2-2 7-4 7-8 0-3 3-16 8-20s0-6 6-9c5-2 15-12 19-13 3-1 9-2 13-5 3-3 15 20 14 27s-4 13-4 13z" fill="#faa74a"/><path d="M849 521l2 4v3l-1 4 1 4s-4-6-3-10l1-5zM853 486c1 0 3 2 7 10l3 11 2 4 3 2c0 1 1 4 3 5l-6-6-5-6c1-2-1-8-3-10l-4-10z"/><path d="M835 477s1 4 5 7c5 3 10 4 11 6l7 15s-9-14-15-15c-5-1-5-4-7-6-2-3-3-6-1-7zM768 442s-1 9-8 12-9 0-13 2l-11 7-9 7 14-14 13-8 14-6zM731 437s-1 10-13 12-22 1-22 1-23 1-28 3-12 7-12 11c-1 4-5 7-5 5l4-8c2-3 7-12 12-12s16-4 27-1c11 2 19 1 25-1 6-3 11-6 12-10z" fill="#ffe06a"/><path d="M643 475s-4 6-2 10c1 3 0 5 3 4 3-2 2-5 5-3s2 3 1 4c0 1 0 2 2 2 2-1 3 1 3 2 0 2 5 1 7 1 2-1 4-1 4 1 0 1 5 3 6 1 1-1 0-3 3-4h4c4-1 9-2 13-8s9-9 12-9h4c-1 0-15 11-17 14-3 4-2 7-4 6l-4-1c-3 0-6-1-8 3s-2 6-5 4-4-5-7-4h-7c-2-2-2-3-4-3-1-1-2 0-2-2-1-3 1-3-3-2-3 0-6 0-6-3-1-4-4-8-2-10l3-5c0-2-1-3 2-5l4-3 4-3-9 13z" fill="#ffe06a"/><path d="M796 483c-1-1-8 3-10 1-1-1-9-4-10-7l-6-12c0-3 6-4 5-7-1-2 1-6-1-8s-4-11-7-14l-9-15c0-1-1-7-6-10l-17-11-1-4 6-9 8-1h10l5 2h3c3 0 7-2 11-1s5 3 5 3l4 2 10 6c3 3 4 6 4 7l3 5 4 5c2 1 6 10 8 13 2 2 5 15 9 18 0 0 6 1 7 10s4 16-2 20c-5 4-13 10-18 10-5-1-12 2-15-3z" fill="#faa74a"/><path d="M736 401s-2-1 0-4c1-3 6-2 9 0 2 2 11 9 16 8 5 0 15-1 17 1 1 2-13 7-16 7h-9c-1-1-15-9-17-12z"/><path d="M779 408s-6-1-11 2l-18 4h-9c-2 0-5 0-5 2s-1 3 2 5 6 5 12 5c6 1 9 1 12 3l6 1c5-1 13-5 13-9 0-5 6-8-2-13z" fill="#faa74a"/><path d="M763 392l2 1 3 1v2l2 2 4 3 4 3c1 1 3-1 4-2l2-2 1-2h6l-2-1-3-2-2-2v2h-1l-1-1-1-1-2-1h-1l-3 1-2 1h1l2 1 2 2v1l-3-1 2 2 3 2h-3l-4-2-2-3-1-2v-1l3-4 3-1h-3l-2 1-3 1-5 2zm17 8l-1-2 2-1 3 1c1 1 0 1-1 2l-1 1-2-1z"/><path d="M782 395s-1-2-3-2l-3 1s1 2 3 2l3-1z"/><path d="M778 394l1 1v-1-1l-1 1z" fill="#fff"/><path d="M748 390h2l2 2h-3l-1-2zM753 392s2 1 0 2h-4s-1 1 1 1h4l1-1-2-2z"/><path d="M751 389h-2l-4 1h-2v2h1l2 1h2l-2-2 1-1 4-1zM774 419l-3-1c-3-1-2-3-5-1-2 2 0 3-8 2l-14-1c-3 0-2 1 0 2 3 0 1 1 2 1h14l-7 2-6-1 1 2 5 1 7-1h6l6 1 3 1-5 1-6-1-7 1-4-1-10-2c-4-2-6-4-6-6l2-2c1-1 2 1 4 1 2 1 9-2 14-2 10 0 17-5 20-5h6v4c-1 3-7 5-9 5z"/><path d="M782 408l3 2c2 1 4 2 4 4l-1 1c2 0 2-1 2 1 0 1-1 2 1 2l2-4v-1l2-3-2 8-3 7-4 5-3 4-2 1 1 1 2-1 2-2 4-3c2-1 3-4 4-6 2-1 2-2 2-4l1-3v-3l1 6-1 4 1 4 2 2 1 2-5-4c-1 0-2 2-1 3l4 3 2 2-1 4c1 4 3 11 6 15l11 13c2 2-6 13-6 13s4-11 3-13l-2-1s0 3-1 2l-3-3-3 4c-1 1-1 2-3 0l-3-3-1 2 2 5c2 3 2 6 2 7s3 4 0 3l-8-6c0-2 1 0 3 0 1 0 4 0 2-1l-4-4 1-2c1-1 0-1-1-3l-1-3h3l2-1 1-2-1-4v-5l1-3-2-2 1 4-1 7c0 2 0 4-1 2l-2-5 1-3-2 2v3l-3 2v-2l3-4 1-2 1-2v-3l1-4v-5h-2l-2 4v5l-3-5-5-3-7-2-3-5-6-3c-2 0-3-2-3-2 1 0 7-1 11 4l2 4 2 2h4v-1c-1 0-4 1-4-1s2-2 1-3l-2-4-1-4c-1-1-2-3 0-3 1 1 2 3 2 1l-2-3s3 0 0-1l-4-2-3-1"/><path d="M765 429s11 10 13 14l7 6c2 1 6 3 7 5l-1 3-2-1-2-1c0 1 1 4 3 3 2 0 3 0 3-2 0-3 1-3-1-5l-5-4-8-5a91 91 0 00-14-13z"/><path d="M793 431l-3 3-1 2c0 1-2 2 0 2h3l3-1v-2l-2-4z" fill="#faa74a"/><path d="M737 392h3l2-2 4-2h4l4 1 4 1h8l2-1 3-1h5l1 1-3 1-1 2h3c1-1 1-2 3-1l2 1c2 0 3 0 1-1l-3-3-5-1-7 2-7-1-4-2-11 1-5 1-3 4zM760 398l4 2 4 2c1 0 2 0 1-1l-3-2c-1 0-5-2-6-1zM818 437l-4-10-5-8-3-6-7-9-2-5-3-1 3 3 1 2c0 1 6 9 6 13 1 5 6 16 6 20 1 3-1 6 2 8 4 2 2 2 4 4v4s5 0 4-5c0-5 0-8-2-10z" fill="#ffe06a"/><path d="M785 415c1-1-2-2-4-3h-5v1l2 1 3 2c1 0 3 1 4-1z" fill="#faa74a"/><path d="M741 396l3 2c2 1 9 7 15 8l12 1-2 1h-3v-1h-7l-2-1h-3v-1h-2l-1-1-2-1-2-1-1-1-2-2-2-1h-1-2-2v3h1l8 5 9 6h-2l-1-1-1-1-2-1-1-1-1-1-1 1-1-2h-1l-1-1-1-1-2-1-2-1-2-3 2-2 3-1z" fill="#ffe06a"/><path d="M771 449l3-1c1 0 3 2 2 3v4l-1 4h-1l2 2 5 4 3 2-8-2-4-3 1 4c0 2-2 4-1 6l5 7-5-3-5-8-3-5c-1 0-2-1-2 2v5l-5-6c-1-1-1 0-2 2 0 1 1 5-1 4l-4-3h-3l-4 4v7l-5-7c-1 0-3 1-3 3 0 3 1 6-1 5l-5-1c-2 0-2-4-3-3l-5 7-9 5-5 5-4 5s2-7 8-13l8-7-18 12-7 11-3 3-3 2-3 2-3 1-2 1 8-1 7-4-11 8-6 3-13 2 13-5c0-1 2-2 0-2l-12-1-4-1-6-1-12-4-9-8-2-6c-1-2-3-6-1-8 2-3 3-3 2-6 0-2-2-2 0-3l2-6 3-5c1-2 2-4 5-5l8-4c1-1 0-3 3-3l9-2s-9 3-10 5l-4 3-7 6-3 4-2 7-1 13c1 1-1 4 1 4 1 0 0 2 2 3 3 1 5 0 5 2l4 5 10 2c3 0 3 2 5 2h5c3 0 5 2 7 0l4-2 8-3c3-2 5-7 6-8 0 0 5-9 12-11l11-4 4-2c2 0 8-5 9-6 2-2 7-6 14-8 6-2 8 1 14-1 5-2 13-9 13-9z"/><path d="M720 516l2-1 3-6v-8l3 7c0 1 2 0 2-2l1-4 2-4 4-1 3-4v-5-5l3 6 2-6v10c-1 0-3 3-1 4 3 1 2 3 3 1l3-10 3 10h3l4-3 4-6c3-4 2-9 2-9 0-1 3 11 1 15-2 5-5 9-7 9l-11 2 2 4 1 3 7 3 2 1c-1 0-10-1-14 1-4 1-9 2-11 1h-4l-5-1-9 5M777 470s0 6 6 8c6 1 14 6 11 7l-9 1c-2 0-5 0-4 2 2 3 4 4 4 6l-2 4-5-9c-1-4 5-6 6-6 2-1 4-2-1-4-6-1-10-7-6-9z"/><path d="M759 468s1 6-2 7h-5l-4 3-1 2-5-1-5 3c-2 1-3 6-8 6-5-1-5 2-8 5l-4 6-4 5c-2 2 0-5 3-10 3-6 1-7 5-9 3-2 4-6 6-6l6 3c1 0 3-2 3-4 0-3 0-6 2-4 2 1 6 4 7 3l2-6 7 1 5-4zM700 498s4 5 2 7l-5 7 2-8c0-2-1-2-3-2l-3 1s6-3 7-5z" fill="#ffe06a"/><path d="M732 515l8-6 7-3-2 4-1 5-4-1-5 1h-3z" fill="#faa74a"/><path d="M831 505l-3 1h-2l-3 3-2 2c-1 0-2 6-8 7-5 2-11 2-15 2l-12-1c-1 0-7 3-10 1s-4-1-6-1l-5-1c-4 0-8-1-7-2 1 0 5-2 7-5s4-5 4-8v-5s3 5 3 8l-2 6 6-6 3-6 1-4c0-2 2 1 2 3l-2 6c0 1 5-2 5-4l3-5 1-5v8l-5 9-4 4c-1 0 5 1 9-5l5-10 4-4-1 4-2 4c1-1 8-4 7-8l-3-5-2-4c-1-2-2-4 0-3 2 0 4 2 5 3l3 3v3c1 2 3 3 1 5l-1 4-7 6s-2 3 0 5c3 2-2 3-3 3 0 0 5 1 9-1 3-3 0-5 2-7s4 0 7-3c2-2 2-4 1-6s2-2 5-4c3-1 4-1 4-4v-19s6 10 6 14l2 9c1 1-2 2-1 4l5 5 12 3c3 0 6 2 8 3 1 1 0 2-1 3l-1 3-4 5 1-2c0-2 1-4-1-6l-9-4-9-1z"/><path d="M831 459s-6 6-7 13c-1 4 2 9 2 9s-3-3-4-8c0-5 2-12 9-14zM769 439l4 6c2 2 2 5 2 7 1 1-2 4 0 7s4 6 8 7l8 5s-10-2-13-4c-2-2-7-5-7-8 0-2 4-5 2-8l-4-6-1-5 1-1zM683 487l-7 3c-3 1-5 4-5 4l3-5-7 1c-2 0-5 3-5 3l3-4h-6l-5 2 4-4h-5l2-1s-2-4-4-4l-6 2 6-3h-8s1-2 4-2h5l-4-4 4 1-2-5 3 2s-1-4-3-5l-2-1s2-1 4 1l3 2-2-4h3v-2l4-2s-7 14-5 19c1 5 2 6 7 6 5 1 10 2 14 1l7-1zM860 518l5 10 1 7-1 6s0-9-2-11l-6-7c-2-1-3-1-2-3l1-6 2 5 2-1zM868 520s8 7 8 9l-1 7s1-6-3-8c-3-2-4-3-4-8z"/><g><path d="M877 523s-1 2 2 5c3 2 5 3 5 5l1 2s1-5-2-7-5-2-6-5z"/></g><g><path d="M829 476s0-3 3-4c4-1 4 1 5 1l1 1s2-2-2-4c-3-1-7-1-7 2-1 2-2 3 0 4z"/></g><g><path d="M834 487s2 5 1 9c0 4-1 2-1 2s-3-3-2-4c1-2 3-5 2-7z"/></g><g><path d="M726 518l-13 14c-2 2-1 5-1 6v4s-3-4-3-8c1-4 1-7 3-9l14-7z"/></g><g><path d="M705 533s-2 5 0 8 1 5 1 5-3-1-3-3l-1-7-1 3c-1 2-2 5-4 6l-3 4s-1-4 2-5l4-8 4-5 1 2z"/></g><g><path d="M711 499l-12 22c-3 5-7 7-10 9s-13 7-13 9v6s-3-4-2-6c1-5 14-10 16-12l10-12c3-9 11-16 11-16z"/></g><g><path d="M691 533l-6 7-3 8v5s-3-5-2-8c0-3 5-7 5-7l-5 4s2-5 5-6l3-1 3-2z"/></g><g><path d="M688 543l6-7 4-6-1 5c-1 2-3 2-3 2v2l-5 4-2 4-1 3s-1-4 2-7z"/></g><g><path d="M706 547l2 3v2s2-1 2-3l2-3-2 6-2 4s-3-7-2-9z"/></g><g><path d="M690 546l1 3 1 5 1-2-1 7s-4-10-3-12c0-3 2-4 2-4l-1 3z"/></g><g><path d="M683 552l1 3 1-2v6l-4-8 1-3 1 4z"/></g><g><path d="M711 505s1-10 5-16c3-6 7-9 7-9s-9 4-11 12c-3 7-1 12-1 13z"/></g><g><path d="M710 506s-2 2 2 3c4 2 7 0 5 4-3 4-7 4-9 7s-5 4-5 4l-6 4-4 3-6 2 12-11c4-4 8-15 11-16z" fill="#ffe06a"/></g><g><path d="M694 521s-2 4-4 4l-6 1-4 2c-1 1-1 3-4 3l-11 1c-2 2-4 3-4 5l2 4s-5-2-6-4l-1-3 2 3c1 0 1-3 4-5l5-3 6-3c1-2 4-1 6-2 3-1 5-4 5-4s2 1 1 2c-1 2 0 2 1 2l7-5c3-1 7-6 7-6l-6 8z"/></g><g><path d="M665 525l-2 2-2 2-5 1-1 3v2s-3-2-2-4c1-3 3-4 6-5l6-1z"/></g><g><path d="M661 523l-5 2-4 2s2-4 5-4 9-4 9-4l-5 4z"/></g><g><path d="M693 507l-5 6v5c1 0 0 2-1 1-2 0-2-1-2-2-1 0-1-2-3 0-1 1-1 3-4 3l-8 3c-1 1-2 4-4 4l-4 2 5-4h-5l-5 1 7-4 7-4 8-2 6-2 3-4 5-3z" fill="#ffe06a"/></g></g></g></svg>