<svg xmlns="http://www.w3.org/2000/svg" height="1050" width="1500" version="1.0"><path d="M0 0h1500v1050H0z" fill="#466700"/><path d="M106.4 252.7C104 424.9 52.1 828.4 375 981.1c298.8-158.8 268.8-448.1 271.4-724.5-62.9-30.2-78.6-59-96-121.6-69.7-64.3-234.7-82.6-350.1-2.5-15 69.1-48.7 104.8-93.9 120z" fill="#3f7300" stroke="#000" stroke-width="3.7" transform="matrix(.80257 0 0 .6399 450 164.8)"/><path d="M376.8 392.5l2.6 283.7 43.1-63-1-158.2z" fill="#fceb66" stroke="#000" stroke-width="2.6" transform="matrix(.80257 0 0 .6399 450 164.8)"/><path d="M751.4 414.7l36.3 42.2 1.5 99.7-35.8 41z" fill="none"/><path d="M375.4 392.7l2 283.7-46.6-63.4 2.5-157z" fill="#e4474a" stroke="#000" stroke-width="2.6" transform="matrix(.80257 0 0 .6399 450 164.8)"/><path d="M376.5 98.2l10.6 53h41.5l-32.4 33.9 12.1 49.5-31.8-33.9-33.8 34.9 11.1-52.5-28.3-31.4 36.9 1z" fill="#fceb66" stroke="#000" stroke-width="2.6" transform="matrix(.80257 0 0 .6399 450 164.8)"/><path d="M227.4 763.5c-6.8 6.4-38 11-42.4-24-1.2-8.3 1.5-25 16-37 17.6-10 23.5-2.4 22.4-3.5C288 784 358 779.8 381 779.5c11.8 1.3 86.6-4 145.4-80.5 23.2-9.6 37.6 22.2 38.5 28 4 14.3-8.3 36.3-18.5 40-15.8 5.8-25.5-6.5-25.5-6.5-30 34.7-68.8 63-136 70-46.8 2.1-105.7-14.8-157.4-67z" fill="#fff0f0" stroke="#000" stroke-width="2.6" transform="matrix(.80257 0 0 .6399 450 164.8)"/><path d="M651.7 641.9l2 1.3-1.6 1.5c2-.7 3.6-.7 4.7.2 1.1.8 1.2 1.3 1.5 2l-2.4 1a3.4 3.4 0 00-4.4-1.6c-2.3 1-5.6 4.8-8.4 7.2L641 652zM663.1 650.2l2.4 1.4-6.3 7c-1.7 1.9-.7 3.2.3 3.8.7.5 3.6 2.1 6.4-.5l6-6.7 2.3 1.3-9.8 10.8-2-1.2 1.4-1.5c-2.2.6-4.3.5-6.8-1.2-1-1.1-2.9-2.3-.8-5.3zM681.7 655.5l2.5 1-3.5 6c1.7-.7 3.6-.9 6.3.3 2.4 1.4 3.3 3.2 2 5.4l-5 8.5-2.5-1 4.7-8c.4-.8 1.3-2.6-1.5-3.6-.4-.1-3.3-1.4-5.7 1.2l-4.7 7.7-2.5-1zM698 666.2l2.6 1-4.1 8c-1.2 2 .2 3.1 1.4 3.6.8.3 4 1.4 6-1.7l4-7.6 2.6.9-6.4 12.2-2.3-.8.9-1.7c-2 1-4 1.3-7 0-1.3-.8-3.4-1.6-2.3-5zM718.9 668.2l-.5 2.5 2.7.3.5-2.4zM717.8 673.2l2.9.3-2.8 13-2.7-.2zM735.3 679.8l-.2 2.2 8.6.4.2-2.3zM758.7 673.9h2.6v2c1-1.6 2.3-2.4 3.8-2.3 1.5 0 1.9.5 2.6.8l-1 2c-2-1-3.9-.4-4.6 1-1 1.9-.5 6.5-.8 9.8h-2.7zM783 671.8l-2.6.3c-5.8 1.5-5.7 3.5-5.9 5.5l2.8-.3c.1-1.2 0-2.5 3-3.2 3-.7 4.9-.1 5.3 2.2-1.5 1-4.7 1.7-7.4 2.9-4 2.6-1.8 5.7-.5 6.3 2.6 1.4 7.6.7 10.4-2.6.1.5.6 1 1 1.4l2.8-.6c-.3-.1-1.7-2.1-1.6-2.4l-2.7-7.4c-.7-1.5-2.2-2.2-4.6-2.1zm3.2 6.3c2 4.5-1.6 5.4-2.8 5.9-2 .6-4.5.3-4.6-1.8 0-2 5-2.6 7.4-4.1zM790.3 664.9l2.6-.8 3 6.2c.5-1.4 1.7-2.6 4.6-3.4 3-.3 5.2.4 6.3 2.6l4.2 8.8-2.7.8-3.8-8.3c-.6-.8-1.5-2.5-4.4-1.6-.4.1-3.5.9-2.9 4l3.7 8.1-2.6.8zM819.9 659.4l-2.3 1c-4.9 3-4 4.8-3.3 6.7l2.5-1c-.4-1.2-1-2.4 1.5-3.9 2.5-1.4 4.5-1.3 6 .8-1 1.3-3.8 2.8-5.9 4.7-2.7 3.5.7 5.8 2.3 6a8 8 0 008.6-5.2c.4.4 1 .7 1.6 1l2.3-1.3c-.2 0-2.4-1.5-2.5-1.8 0-.2-5.6-6.3-5.6-6.3-1.3-1.2-3-1.4-5.2-.7zm5.6 5c3.8 3.8.8 5.6-.1 6.4-1.7 1-4 1.5-5-.5-.9-1.9 3.5-3.8 5.1-5.8zM841.8 646.6l-2.3 1.4 3.6 11c-3.8-2.8-7.7-4.5-11.5-6.7l-2.3 1.2 14.6 8.2.7 2c0 1.6-1.4 2.3-2.8 2.8l1.8 1.5c2-.5 3.5-1.5 3.5-4.1zM847 644.1l2.2-1.5 7.4 6.3c2 1.7 3.7 1.2 4.7.5.7-.5 3.3-2.4.6-5l-7-6 2.1-1.6 11.3 9.7-1.9 1.4-1.6-1.4c.3 1.8-.2 3.4-2.8 5-1.6.7-3.4 1.9-6.7-.4z"/><path d="M376.1 390.5l45 64.9v157L378.3 678l-47.1-65 2.1-157.6z" fill="none" stroke="#000" stroke-width="2.6" transform="matrix(.80257 0 0 .6399 450 164.8)"/><path d="M349 432.6c13 17.6 7.1 38.4 10 57.8 7.4 26.1 27.2 27.6 34.3.7l2.8-43.6c1.8-10 6.5-8.8 10-12" fill="none" stroke="#000" stroke-width="2.6" transform="matrix(.80257 0 0 .6399 450 164.8)"/><path d="M376.1 432.6c-5.5-.7-7.8 22.6-7.8 27.8.3 12.5 6.6 21.8 10 22.1 5.3.3 8.2-16.2 7.8-24.3-1-8.2-3.5-18.4-10-25.6zM334 454c14.2 25.8 18.4 58.3 17 53.1l5.7 38.3c4.1 15.2 12.8 22 19.7 29" fill="none" stroke="#000" stroke-width="2.6" transform="matrix(.80257 0 0 .6399 450 164.8)"/><path d="M333.2 518.7l43.9 113.4" fill="none" stroke="#000" stroke-width="2.6" stroke-linecap="round" transform="matrix(.80257 0 0 .6399 450 164.8)"/><path d="M332 565.6c25.2 36 25.7 59.7 22.5 80.5M335.2 593.1c4.4-.8 9.5 8.5 11.5 13 1.7 2 1.2 10.6 0 12-.5.7-9.6-2-12-10.7-2.2-7.3-1.4-13 .5-14.3zM418.4 451.6c-10.4 5.7-14.4 42.3-14.8 46-1 43.3-10 56.5-11.6 59.2-22.7 40.3-11.6 52.2-3.5 68.4 5 5.6 10.1 10.4 15.2 12.8" fill="none" stroke="#000" stroke-width="2.6" transform="matrix(.80257 0 0 .6399 450 164.8)"/><path d="M420.6 486.3c-6.9 6.7-9 26.4-11 46.6-1.6 28.7-12.4 42.6-13.4 46.8-3.8 27 5.2 29.6 5.9 29.8 12.3 3.4 12.2 2.5 18 3.7" fill="none" stroke="#000" stroke-width="2.6" transform="matrix(.80257 0 0 .6399 450 164.8)"/><path d="M416.4 561.1c-6.2 8.5-9.5 14.9-13 21.3-2 5.8 4 11.3 5.6 11.2 2-.2 3.6-1.5 4.8-9.3z" fill="none" stroke="#000" stroke-width="2.6" stroke-linejoin="round" transform="matrix(.80257 0 0 .6399 450 164.8)"/><path d="M377 689.3a184 184 0 0116.6 44.3c3 14.9-23 38.2-29.4.6.3-12.8 2.8-20.5 12.8-44.9zM419.4 678a141.4 141.4 0 00-25 38.4c-3.2 9.4 3.7 24.5 8.7 24.3 5.1-.2 14-8.4 15.5-17.4 1.6-11.7 2.2-26.2.8-45.3zM446.7 646c6.4 26.2 5.4 46.4 2.7 50.7-4.8 9.4-14.9 19.3-21.5 1.4-1.9-7.7 10.5-41.6 18.8-52.1z" fill="#fceb66" stroke="#000" stroke-width="2.6" transform="matrix(.80257 0 0 .6399 450 164.8)"/><path d="M469.6 606.5c4.4 20.4 3.3 34.4 1.7 44.6-2.5 10.8-9 16.8-12 16.6-9-1.3-14-12.3-12.3-19.5a218.5 218.5 0 0122.6-41.7zM482.5 564.4c5 11.1 9.6 29.7 10.5 35.7.6 11.1-7 21-9.3 21.2-3.5.2-9.8-3.1-11-11-.3-3 5.7-39.7 9.8-46zM484.3 523.7c10 5.6 15.4 15.2 20.4 26a25 25 0 01-4.7 23.5c-3.3 2.3-11.7 5.3-12.8-4.9a147 147 0 00-3-44.6zM482.4 485.5c15.5-.6 24 19 24 19 1.3 5.7 1.1 9.9 1.4 14.5-.8 7.7-12.8 16.7-17.5 2.9-1.4-10.6 2.8-14.7-8-36.4z" fill="#fceb66" stroke="#000" stroke-width="2.6" transform="matrix(.80257 0 0 .6399 450 164.8)"/><path d="M469.3 448.6c18.5-2.5 25.3 7.3 26.6 11.2 7.8 11.5-5.9 39.2-14.6 12.5-.9-2.3-.4-13.7-12-23.7zM448.2 420.4c11.3-5 18.4-6.3 24-2.9 4.4 3.1 5.7 6.2 6.6 9.3 4.2 14.7-6.6 25.2-13.9 9.3-5.6-8.3-11.2-15.5-16.7-15.7z" fill="#fceb66" stroke="#000" stroke-width="2.6" transform="matrix(.80257 0 0 .6399 450 164.8)"/><path d="M420.4 614.2l37.3 81.5c8.7 3.1 19.2 9 19.4 12.5a23.9 23.9 0 01-19.1 8.3l-18.3 31.1c-3 5.7-11.5 7.2-12 .8l12.5-31.6c.5-5.2 3.1-6.8 0-20.6l-30.1-66z" fill="#fff0f0" stroke="#000" stroke-width="2.6" transform="matrix(.80257 0 0 .6399 450 164.8)"/><path d="M433 640.9c7 1.4 7.2 5.3 8.1 9L424.6 661l-.5 4-11 .1v-9.9l7.3.4.2-4.6zM444.9 661c4 7.6 5 10.5 5.2 11.7l-15.7 11.5v4.7l-10.6-4.1c0-1.6.4-5 .3-5.4l3.1-5.3 3.6.4z" fill="#fff0f0" stroke="#000" stroke-width="2.6" transform="matrix(.80257 0 0 .6399 450 164.8)"/><path d="M424.7 661c3.6-2 16-11.3 16.2-10.8 2 3.9 3.7 7.2 4.2 11l-14.4 13.2-3.5-.3-3 5.4c-3.4 0-4.2-.2-7.3-.4l.3-13.7 7-.2zM450.2 672.5c5.1 6.1 4.5 9.2 5.2 13l-14.2 7.6H438v5.3h-10.5l3.5-10.5 4.3 1.4-.3-5.2z" fill="#fff0f0" stroke="#000" stroke-width="2.6" transform="matrix(.80257 0 0 .6399 450 164.8)"/><path d="M419.6 650.8l20.4 45.4" fill="none" stroke="#000" stroke-width="2.6" transform="matrix(.80257 0 0 .6399 450 164.8)"/><path d="M345.2 437.8l-28.6-47.9 2 33.8 15 30.5zM416.7 448.7a39.3 39.3 0 0010.7-33.4l18-14.3v33c-13.2.2-18 11.4-24.2 20.7zM309.1 644c25.7 33.7 23.7 45.4 24 48-2.7 13.7-13.1 22.4-21 9.1-7-8.5-.6-36.7-3-57.2z" fill="#fff0f0" stroke="#000" stroke-width="2.6" transform="matrix(.80257 0 0 .6399 450 164.8)"/><path d="M342.1 629.1l-48.3 103.7c-1 2-5 6-7.4-1.7 0-3 8.1-20 6.5-16.1l44.4-93.6zM335.7 673.4s25.7 32.4 25.8 40.7c.4 35.3-16.2 27.8-23.4 9.3-5.3-16.7.8-34.3-2.4-50zM287 603.2c13.7 25.4 18.5 33.6 19.5 43 1.7 18.4-13.3 26.6-19 12.2-1.5-3.2-.3-39.6-.5-55.2zM273 561.8c7.3 16 11.3 36.3 11 38.8 0 5 .5 9.3-.1 11 .9 3.3-11.7 13.2-18.4 1.3-2-11.8 2.3-30.5 7.4-51.1z" fill="#fff0f0" stroke="#000" stroke-width="2.6" transform="matrix(.80257 0 0 .6399 450 164.8)"/><path d="M272.7 522.6c-2.9 12.6-1.5 26.3 0 36.7-.5 22-14.7 20.5-21.2 7.4-.9-13.8-.5-27.8 21.2-44.1zM275.5 483.8c-10.6 3.5-24.9 8.2-26.9 30.7.4 21.3 20 10.7 21.3 2.9 0-10.8-2.5-21.8 5.6-33.6zM287.4 450c-20.4-7-27.9 4.2-28.8 24.6 5.8 16.5 15 2.7 16.3 1 3.6-6.8 0-17 12.5-25.6zM308.3 420.4c-6.2-3.4-9.7-9.8-25.5-3-4.3 3.1-6.2 9.7-7.4 17.4 1.3 9 11.5 11.2 13.2 8.2 6.1-6.8 9.3-19 19.7-22.6z" fill="#fff0f0" stroke="#000" stroke-width="2.6" transform="matrix(.80257 0 0 .6399 450 164.8)"/><path d="M259.3 403.4l11.6 9.5c-52.2 20.7-71.3 48.4-100 74.1 0-14.2 9.8-57.6 17-81.6h-55c24.3-23 38.1-48.1 78.8-64.6 2.4 53.4 26.1 65 47.6 62.6zM546.4 338.8a326.7 326.7 0 0177.1 67.6h-53.3c14.2 53.2 10.8 54.3 14 80.2-23.9-30.6-70.2-61.8-97.7-75.4l9.5-3.7c7.3 3.4 14.5 7.6 21.8 1.8l9.5-18.2 4.8-19 12.2-14.3z" fill="#fceb66" stroke="#000" stroke-width="2.6" transform="matrix(.80257 0 0 .6399 450 164.8)"/><path d="M618.8 362.7c133.3-53.5 204.2-29.7 266 7.5l-20.3 48c-74.6-30-151.8-19.4-226.4-2.4z" fill="#fceb66"/><path d="M643.1 377.8l2-.5 2.4 6 5.4-8 2.7-.5-4.6 6.5 9.5 5.6-2.7.7-7.8-5-1.7 2.7 1.5 4.3-2 .4z"/><path d="M661.9 371.9l-2 .6.2 13.7 2.1-.6-.1-4.2 6.1-2 3.7 3 2.1-.7-12.1-9.8zm-.5 1.6l5.6 4.8-5.1 1.6c-.2-2.1 0-5-.5-6.4zM673.4 369.2l-2 .4 3.5 12.6 9.8-2-.3-1.3-7.9 1.4zM682.6 367.2l3.2 12.6 2-.4-3-12.6zM686.8 366.3l3.2-.5 7 10.1 2-11.4 3-.4 2.8 12.6-2 .2-2.5-10.4-2.2 11.2-1.9.3-7-10.1 2.5 10.7-2 .3zM712.3 361.8l-2.1.2-3.4 13.5 2.2-.3 1-4 6.5-1 2.8 3.6 2.3-.4-9.3-11.6zm-.8 1.5l4.1 5.6-5.4.8c.4-2.2 1.4-5 1.3-6.4zM723 359.8h2.2l9 9.6-.6-10 2-.1.8 12.8h-2.2l-9-9.7.6 10.1-2 .1zM739.7 359l12.7.4-.2 1.5-5.2-.3-.7 11.4-2.2-.1.7-11.3-5.3-.2c0-.7 0-1 .2-1.5zM760.6 359.3h-2.2l-6.9 12.5 2.2.1 2-3.8 6.7.2 1.8 4h2.3l-6-13zm-1.3 1.3l2.6 6.3-5.5-.2c1-2 2.6-4.6 3-6zM770.1 359.6h2.2l8 10.3.4-10h2l-.5 12.8H780l-8.1-10.3-.4 10h-2zM789.7 368l6 .8-.4 1.6-6-.8zM800.7 361.9l12.4 2.4-.6 1.5-5-1-3.5 11-2.2-.5 3.6-11-5.2-1 .5-1.4zM816.4 365.2l-4 12.5 2 .3 4.1-12.3zM822.3 366.3l3 .9-1 11.6 9.5-8.8 2.7 1-6 11.8-2-.7 5-9.8-9.4 8.4-1.8-.5 1-11.5-5.2 10-1.8-.6zM839.2 372l2 .6-4.2 6.8c-2 3.2-.6 4 1.4 5 3.2 1.5 5.2.1 6.4-2.6l4-6.3 1.9.8c-1.8 2.7-4.5 7.4-5.3 8.1 0 .3-2.6 3.8-8.3 1.1-.5-.4-5-1.6-2.2-6.4zM854 378.2l-9.4 10.2 1.6 1 4.3-4.5 2.9 1.8c1.5 1.7.4 4.8.4 7.3l2.1 1.2.4-4.3c0-1 .2-1.6-.7-3.2 1.2.4 3.6 2 6.4-.8.9-1.2 1.7-3.2-2-5.2l-6-3.5zm.8 2l4.5 2.8c1.8 1.3 1.4 2.5.8 3-.7.7-1.8 1.2-4 .4l-4.5-2.7 3.2-3.4z"/><path d="M475 377.2c21.7-2.2 28.4 19.9 41 32.4-7.3 2-16.2.5-28.4-9-6-4.5-8.4-15.6-12.6-23.4z" fill="#fceb66" stroke="#000" stroke-width="2.6" transform="matrix(.80257 0 0 .6399 450 164.8)"/><path d="M515.3 378l-1 30-14.1-18.5z" fill="#fceb66" stroke="#000" stroke-width="2.6" transform="matrix(.80257 0 0 .6399 450 164.8)"/><path d="M515.2 377.7a52 52 0 0113.7-24.5l.2 29c.1 10.8-8.2 18-13.4 27.4L514 406z" fill="#fceb66" stroke="#000" stroke-width="2.6" transform="matrix(.80257 0 0 .6399 450 164.8)"/><path d="M528.5 353.9c1.2-10.1 2-20.3 11-28l5.4 11.6-1 19.9-13.5 16.6z" fill="#fceb66" stroke="#000" stroke-width="2.6" stroke-linejoin="round" transform="matrix(.80257 0 0 .6399 450 164.8)"/><path d="M498.3 282.2c31.9 3 34.1 11.4 38.2 18.1 6.7 15.8 10.3 26.7 10.3 38.5-5.4-23.4-35.6-27-48.5-56.6z" fill="#fceb66" stroke="#000" stroke-width="2.6" transform="matrix(.80257 0 0 .6399 450 164.8)"/><path d="M472.8 269.3c5.8 9.9 11 20.5 18.2 28 8.5 8.3 12.9 5.6 20.4 5.1l-13.1-20c-4-6.9-10.2-12.5-25.5-13z" fill="#fceb66" stroke="#000" stroke-width="2.5" transform="matrix(.80257 0 0 .6399 450 164.8)"/><path d="M444.5 260.7c17-2.1 21.7 2.6 24 5.2l17.4 28.9c-7.1-2.1-13.2-1-22.5-9.5-6.9-6.4-11.8-16-18.9-24.6z" fill="#fceb66" stroke="#000" stroke-width="2.6" transform="matrix(.80257 0 0 .6399 450 164.8)"/><path d="M456.8 279c-6.9.8-13.7 1-20.5-1l-16-22.6c14 0 22.6 1.7 24.2 5.5zM415.8 251.4c-12.3-1.5-22 .4-22 .4 7 8.2 9 19.3 10.8 18.5 7.1 6 22.2 3.6 27.2 4.4z" fill="#fceb66" stroke="#000" stroke-width="2.6" stroke-linejoin="round" transform="matrix(.80257 0 0 .6399 450 164.8)"/><path d="M402.7 269.4c-13.5 1.5-22.6 1.5-22.7 1.5-1-9.3-9.3-13.5-14.2-20 11-5.3 20.3-4 28.7.5z" fill="#fceb66" stroke="#000" stroke-width="2.6" stroke-linejoin="round" transform="matrix(.80257 0 0 .6399 450 164.8)"/><path d="M365.8 250.8c-7.2-6.4-17.3-5.8-26 1.5l14 17.5 25.2.2c1.6-2.1-8.4-12-13.2-19.2z" fill="#fceb66" stroke="#000" stroke-width="2.6" transform="matrix(.80257 0 0 .6399 450 164.8)"/><path d="M340 251.3c-9.4-3.4-18-.3-26.2 5.7 1 4.2 6.3 10 14.4 17 6.4 1 14-.7 23.1-5.2z" fill="#fceb66" stroke="#000" stroke-width="2.6" transform="matrix(.80257 0 0 .6399 450 164.8)"/><path d="M314.3 257.3c-10.8-4-19 1-26.4 8.2l11.6 13.6c12.5 1.7 19.7-1.8 23-9.2z" fill="#fceb66" stroke="#000" stroke-width="2.6" transform="matrix(.80257 0 0 .6399 450 164.8)"/><path d="M288.7 265.5c-10.2-3.4-18.7 2.4-28 11.7 3.9 2.8 7.5 6 10.5 11 13.8 2 20.7-3.6 25.3-11.8z" fill="#fceb66" stroke="#000" stroke-width="2.6" transform="matrix(.80257 0 0 .6399 450 164.8)"/><path d="M260.3 278.6c-11.4-1.7-20.4 3.8-24 13.7 6 2.5 5.8 6.5 7.3 10.1 6 .8 19.8-4.6 26.9-15z" fill="#fceb66" stroke="#000" stroke-width="2.6" transform="matrix(.80257 0 0 .6399 450 164.8)"/><path d="M237.2 293.2c-14.9-4.2-29.1 9.3-31.2 18 3.9 2.1 16.6.2 25 1l12.3-11z" fill="#fceb66" stroke="#000" stroke-width="2.6" transform="matrix(.80257 0 0 .6399 450 164.8)"/><path d="M223.7 312.3c1 3.7-1.2 7.5-4 11.2-1.8-2.1-5.3-7.4-10.7-12.2z" fill="#fceb66" stroke="#000" stroke-width="2.6" transform="matrix(.80257 0 0 .6399 450 164.8)"/><path d="M206.3 310.3c-2.5 5.7 4 22.2 3.7 31.7l18.2 18.5c-2.7-12.5 2-21-8.3-37.7zM228.8 361.4c4.8 10.5 4.2 14.7 5.6 21.2l-12 .7c-11.8-22.9-8.7-27.5-10.8-38.5z" fill="#fceb66" stroke="#000" stroke-width="2.6" transform="matrix(.80257 0 0 .6399 450 164.8)"/><path d="M234.4 382.4l27.8.2 8.8 10.5c.6 11.6-26 8.8-31.7 7.5-5.5-1.4-18-18-18-18z" fill="#fceb66" stroke="#000" stroke-width="2.6" transform="matrix(.80257 0 0 .6399 450 164.8)"/><path d="M262 382.6c5.8-7 10.2-15.4 24.4-14l11.2 13.8c-4.4 7-11.2 12.2-26 10.7zM287.8 369.3c10.3-7 19.3-8 27.8-6.3l8.1 15.4c-9.6 2.6-20.3 6.3-25.9 4.2zM315.6 362.8c6.4-7 15.2-8.1 26-4l8.2 13c.5 8.4-13.8 6.5-25.1 6.6zM341.7 358.8c8.4-7.8 17-2.5 25.4-2.5l10.5 15.6c-8.3 6.3-16.7 11.4-26.8.7zM367.8 356.3c10-4.5 17.8-1.1 26 .9l10.8 14.7c-7.2 6.7-15.2 9.7-26.1 1-.3-3.3-4.2-9-10.7-16.6z" fill="#fceb66" stroke="#000" stroke-width="2.6" transform="matrix(.80257 0 0 .6399 450 164.8)"/><path d="M393.9 356.3c8.1-2.3 16.3-3.8 24.5 2.5l12.3 18c-4.5 13.2-15.5 3.9-26.1-4z" fill="#fceb66" stroke="#000" stroke-width="2.6" transform="matrix(.80257 0 0 .6399 450 164.8)"/><path d="M419.5 359.5c10.9-1.1 21.2-.8 27.8 9.1l13 17.3c-9.8 3.7-19.6 1.8-29.4-8.2z" fill="#fceb66" stroke="#000" stroke-width="2.6" transform="matrix(.80257 0 0 .6399 450 164.8)"/><path d="M447.7 368.6c19.1-1 23.1 4.2 27.8 9.1l8.1 19.4c-8-1.7-16.3 2.5-23.7-10.5z" fill="#fceb66" stroke="#000" stroke-width="2.5" transform="matrix(.80257 0 0 .6399 450 164.8)"/></svg>