<svg height="1080" viewBox="0 0 6912 4320" width="1728" xmlns="http://www.w3.org/2000/svg"><path d="M0 0h6912v4320H0z" fill="#fff"/><path d="M0 0h6912v1440H0z" fill="#b50027"/><path d="M0 0h2880v2880H0z" fill="#002d56"/><path d="M1504 394l103-73-126-1-37-120-40 119-126-2 101 75-41 119 103-72 101 75zM1011 482l57-112-112 57-88-89 19 124-112 57 124 20 20 124 57-112 124 20zM614 792l-2-126-72 103-120-38 75 101-73 102 119-40 75 101-2-125 120-40zM409 1250l-59-110-17 124-124 22 113 55-17 124 87-90 113 54-59-111 87-90zM438 1750l-104-71 43 119-99 77 125-5 43 118 35-120 125-5-104-70 35-121zM697 2182l-125-14 93 84-52 115 109-62 93 84-25-123 109-62-125-14-25-123zM1128 2441l-117 45 121 32 7 126 68-106 122 32-80-97 68-106-117 46-80-98zM1627 2472l-83 94 123-28 65 108 10-125 123-29-116-49 11-125-82 95-116-49zM2086 2267l-29 123 95-82 108 65-49-116 95-82-125 11-48-116-29 122-125 10zM2396 1871l31 121 47-116 125 8-97-80 46-117-106 67-96-80 31 122-106 67zM2339 899l118 43-70-104 78-99-121 35-69-105-5 126-121 34 118 43-5 126zM1984 543l124-17-110-60 23-123-91 86-111-60 54 114-91 86 125-16 54 113zM2486 1379l84 93-13-125 115-51-123-26-13-125-63 109-123-26 84 93-62 109z" fill="#fff" fill-rule="evenodd"/><path d="M919 2090h-37v-4h5l4-1 3-2v-62-3l-3-3-4-1-5-1v-4h37v4a34 34 0 00-9 2l-3 2v65l3 2a29 29 0 009 2v4zM1018 2013l-5 1-4 2c-2 1-3 3-3 5l-1 11v59h-5l-49-66v41l1 11 3 5 5 3 6 1v4h-33v-4a33 33 0 009-3c2-1 3-3 3-5l1-11v-40l-1-5-3-4-5-3-6-2v-4h23l46 62v-39l-1-10-3-6-5-2-6-1v-4h33v4zM1137 2058a91 91 0 00-7 1l-2 3-1 3v7a467 467 0 000 13l-15 5-15 2a39 39 0 01-27-11c-4-4-7-8-9-13-2-6-3-11-3-18 0-6 1-12 3-17s5-10 9-14l13-8a41 41 0 0128-2l9 4 2-4h4l1 28h-5l-3-9-4-8-7-6-10-2a23 23 0 00-19 10l-5 12a61 61 0 000 30l5 12c3 3 5 6 9 8l12 3 9-2 6-3v-6-10-4l-3-2-5-2h-5v-4h35v4zM1217 2019l8 13c2 5 3 11 3 18 0 6-1 12-3 17s-5 10-8 14a37 37 0 01-28 11l-15-3c-5-2-9-5-12-9-4-4-7-8-9-13-2-6-2-11-2-17 0-7 1-13 3-18s4-9 8-13a37 37 0 0127-12 38 38 0 0128 12zm-9 57l5-12a67 67 0 00-5-41c-2-4-5-6-8-8s-7-3-11-3-8 1-11 3c-3 3-6 5-8 9l-4 12a71 71 0 000 28l4 12a21 21 0 0019 11 21 21 0 0019-11zM1318 2050c0 7-2 13-4 18-3 5-6 9-10 12l-14 8-17 2h-33v-4a40 40 0 008-1l2-2 1-4v-58l-1-4-2-2-4-1-4-1v-4h36a46 46 0 0126 9c5 3 9 7 12 13 2 5 4 12 4 19zm-14 0l-3-15c-1-4-3-8-6-11-2-3-6-6-10-8l-12-2a143 143 0 00-10 0v62c0 4 1 6 3 7 2 2 5 2 9 2l13-2c4-2 7-4 9-7l5-11 2-15zM1472 2013l-4 1-3 1-3 3-2 5a10687 10687 0 00-21 68h-6l-20-62-21 62h-5l-12-41-8-29a10 10 0 00-4-6l-3-1-4-1v-4h33v4l-7 1-3 2v2a125 125 0 005 18l10 34 20-60h5l21 62a3095 3095 0 0014-54l-3-3-9-2v-4h30zM1550 2066l-1 24h-67v-4a93 93 0 008-1l2-3 1-3v-58l-1-3-2-3-4-1-4-1v-4h62v20h-4l-5-10c-3-3-5-5-7-5a53 53 0 00-10 0h-13v32h9l7-1 3-3 2-4 2-5h4v31h-4a24 24 0 00-4-10l-4-3-6-1h-9v25l1 5 2 4 4 1h12a48 48 0 0010-1l3-1 5-9 4-8h4v0zM1669 2031h-4l-2-5-3-5-4-5-3-2a54 54 0 00-10 0h-3v64l1 4 2 2 5 1 5 1v4h-38v-4a166 166 0 009-1l3-2 1-4v-65h-4a107 107 0 00-9 0l-4 2-4 5-3 5-1 5h-4v-22h70v22zM1761 2090h-22a485 485 0 00-26-37h-8v26l1 4 2 2 4 1h4v4h-34v-4a170 170 0 008-1l2-2 1-4v-58l-1-4-2-2-4-1-4-1v-4h37l10 1 8 4 6 6 2 8-2 9-4 6-6 4-8 3a939 939 0 0124 32l4 2 4 2h4v4zm-30-60c0-5-2-9-4-12-3-3-7-4-12-4h-10v34h7c6 0 10-1 14-5 3-3 5-7 5-13zM1845 2013l-5 1-5 2c-1 1-2 2-2 5l-1 10v35a23 23 0 01-10 20l-10 5-9 1-13-2-10-5-5-8c-2-2-2-5-2-8v-48l-1-3-3-3-3-1-4-1v-4h34v4a29 29 0 00-8 2l-2 2-1 3v45l1 7 2 6 6 6 11 2 10-2 7-6 3-6 1-7v-33l-1-10-2-6-6-2-5-1v-4h33v4zM1905 2053l4 6 1 8c0 7-3 13-8 18-5 4-12 7-20 7l-10-2-10-4-2 4h-5v-28h4l3 10 5 7 7 6 10 2 6-1 5-3 3-5a18 18 0 00-2-14c-2-3-4-5-8-7a350 350 0 00-17-7c-4-2-8-4-10-8-3-3-4-7-4-13 0-3 0-6 2-8a22 22 0 0113-12l9-2 10 2 8 4 3-4h4l1 27h-5l-3-9-4-7-6-6-9-2c-3 0-6 1-9 4-2 2-4 5-4 8 0 4 1 7 3 9l7 6 8 3a112 112 0 0114 7l6 4zM1992 2031h-4l-1-5-3-5-4-5-4-2a54 54 0 00-9 0h-4v64l1 4 3 2 4 1 5 1v4h-38v-4a166 166 0 0010-1l2-2 1-4v-65h-3a107 107 0 00-10 0l-3 2-4 5-3 5-2 5h-4v-22h70z" fill="#eed000" fill-rule="evenodd" stroke="#eed000" stroke-miterlimit="3.9" stroke-width="1.6"/><path d="M1443 1066s10 4 10 19c9-1 13 3 11 14 0 0-11-3-12 3-3 7-1 13 6 17 0 0 11 9 17-7l10-22c2-6 13-21 23-23h12s9 2 9 10c1 7-2 11-7 13-6 2-13-3-13-3l-5 1-5 8s-5 10-7 18c-2 7-6 26-26 29h-46c-19-3-23-22-25-29l-8-18c-1-4-4-7-5-8l-5-1s-7 5-12 3-8-6-8-13 9-10 9-10h12c10 2 22 17 24 23l9 22c7 16 18 7 18 7 6-4 8-10 6-17-2-6-13-3-13-3-1-11 2-15 11-14 0-15 10-19 10-19z" fill="#eed000"/><path d="M1500 1592h-111l13-435h86zM1500 1834h-119v-198h119z" fill="#eed000" fill-rule="evenodd" stroke="#002d56" stroke-miterlimit="3.9" stroke-width="8.5"/><path d="M1379 1614h120c9 0 15 5 15 11s-6 12-15 12h-120c-8 0-15-6-15-12s7-11 15-11z" fill="#eed000" stroke="#002d56" stroke-miterlimit="3.9" stroke-width="8.5"/><path d="M1388 1592h105c7 0 13 5 13 11v0c0 6-6 11-13 11h-105c-7 0-13-5-13-11v0c0-6 6-11 13-11z" fill="#eed000" fill-rule="evenodd" stroke="#002d56" stroke-miterlimit="3.9" stroke-width="8.5"/><path d="M1408 1673h63v130h-63z" fill="none" stroke="#002d56" stroke-miterlimit="3.9" stroke-width="8.5"/><path d="M1407 1142h72c6 0 11 4 11 8s-5 8-11 8h-72c-6 0-11-4-11-8s5-8 11-8z" fill="#eed000" stroke="#002d56" stroke-miterlimit="3.9" stroke-width="4.9"/><path d="M848 1857h1205v41H848z" fill="#eed000" fill-rule="evenodd" stroke="#002d56" stroke-miterlimit="3.9" stroke-width="10"/><path d="M796 1898h1310v43H796z" fill="#eed000" stroke="#002d56" stroke-miterlimit="3.9" stroke-width="6"/><path d="M883 974h1126v25H883z" fill="#eed000" fill-rule="evenodd" stroke="#002d56" stroke-miterlimit="3.9" stroke-width="9.6"/><path d="M1797 974a382 382 0 00-351-238c-158 0-293 98-352 238H955a517 517 0 01491-373c231 0 426 158 491 373z" fill="#eed000" fill-rule="evenodd" stroke="#002d56" stroke-width="4.9" stroke-linejoin="round" stroke-miterlimit="3.9"/><path d="M914 1000s19 11 35 46h1002s16-39 39-46z" fill="#eed000" fill-rule="evenodd" stroke="#002d56" stroke-miterlimit="3.9" stroke-width="6"/><path d="M1162 1055s93 159 282 157c186-2 281-152 281-152l50 74s18 25-18 56c-126 111-225 133-313 132-131-7-236-51-315-132-15-12-18-27-13-40z" fill="#eed000" fill-rule="evenodd" stroke="#002d56" stroke-width="4.9" stroke-linejoin="round" stroke-miterlimit="3.9"/><path d="M1114 1166s-6-32 45-6l4-104M1778 1144c-16-35-46 8-46 8l-7-91" fill="none" stroke="#002d56" stroke-miterlimit="3.9" stroke-width="6.4"/><path d="M944 1048h1007c3 0 6 3 6 7v2c0 4-3 7-6 7H944c-4 0-7-3-7-7v-2c0-4 3-7 7-7z" fill="#eed000" stroke="#002d56" stroke-miterlimit="3.9" stroke-width="5"/><path d="M1033 1065s10 3 10 19c9-2 13 3 11 14 0 0-11-3-12 3-3 7-1 13 6 17 0 0 11 9 17-8s10-22 10-22c2-6 13-20 23-22h12s9 2 9 9-2 11-7 13c-6 3-13-2-13-2-2-1-3 0-5 1l-5 7-7 19c-2 6-6 26-26 28h-46c-19-2-23-22-25-28l-8-19-5-7c-1-1-2-2-5-1 0 0-7 5-12 2-5-2-8-5-8-13 0-7 9-9 9-9h12c10 2 22 16 24 22l9 22c7 16 18 8 18 8 6-4 8-10 6-17-2-6-13-3-13-3-1-11 2-16 11-14 0-16 10-19 10-19z" fill="#eed000"/><path d="M1089 1592H977l15-435h83zM1092 1834H974v-198h118z" fill="#eed000" fill-rule="evenodd" stroke="#002d56" stroke-miterlimit="3.9" stroke-width="8.5"/><path d="M973 1614h120c8 0 15 5 15 11v0c0 6-7 12-15 12H973c-8 0-15-6-15-12v0c0-6 7-11 15-11zM981 1592h105c7 0 13 5 13 11v0c0 6-6 11-13 11H981c-8 0-14-5-14-11v0c0-6 6-11 14-11z" fill="#eed000" fill-rule="evenodd" stroke="#002d56" stroke-miterlimit="3.9" stroke-width="8.5"/><path d="M1002 1673h63v130h-63z" fill="none" stroke="#002d56" stroke-miterlimit="3.9" stroke-width="8.5"/><path d="M997 1144h72c6 0 11 3 11 8 0 4-5 7-11 7h-72c-6 0-11-3-11-7 0-5 5-8 11-8z" fill="#eed000" stroke="#002d56" stroke-miterlimit="3.9" stroke-width="4.9"/><path d="M949 1834h168v23H949z" fill="#eed000" fill-rule="evenodd" stroke="#002d56" stroke-miterlimit="3.9" stroke-width="4.1"/><path d="M1859 1066s10 4 10 19c9-1 13 3 11 14 0 0-10-3-12 3-3 7-1 13 6 17 0 0 11 9 18-7l9-22c2-6 13-21 23-23h12s9 2 10 10c0 7-3 11-8 13-6 2-13-3-13-3l-5 1-5 8s-5 10-7 18c-2 7-6 26-26 29h-46c-19-3-23-22-25-29l-8-18c-1-4-4-7-5-8l-5-1s-6 5-12 3c-5-2-8-6-8-13s9-10 9-10h12c10 2 22 17 24 23l9 22c7 16 18 7 18 7 6-4 8-10 6-17-2-6-13-3-13-3-1-11 2-15 11-14 0-15 10-19 10-19h1z" fill="#eed000"/><path d="M1917 1592h-111l15-435h82zM1923 1834h-118l-1-198h119z" fill="#eed000" fill-rule="evenodd" stroke="#002d56" stroke-miterlimit="3.9" stroke-width="8.5"/><path d="M1804 1614h120c8 0 15 5 15 11s-7 12-15 12h-120c-8 0-15-6-15-12s7-11 15-11z" fill="#eed000" stroke="#002d56" stroke-miterlimit="3.9" stroke-width="8.5"/><path d="M1810 1592h105c7 0 13 5 13 11v0c0 6-6 11-13 11h-105c-7 0-14-5-14-11v0c0-6 7-11 14-11z" fill="#eed000" fill-rule="evenodd" stroke="#002d56" stroke-miterlimit="3.9" stroke-width="8.5"/><path d="M1831 1673h64v130h-64z" fill="none" stroke="#002d56" stroke-miterlimit="3.9" stroke-width="8.5"/><path d="M1825 1142h72c6 0 11 4 11 8s-5 8-11 8h-72c-6 0-11-4-11-8s5-8 11-8z" fill="#eed000" stroke="#002d56" stroke-miterlimit="3.9" stroke-width="4.9"/><path d="M1354 1834h168v23h-168z" fill="#eed000" fill-rule="evenodd" stroke="#002d56" stroke-miterlimit="3.9" stroke-width="4.1"/><path d="M728 1526c-29-21-59-15-59-15s22-29 57-15c22 9 41 44 97 8s78-54 127-71c51-17 91-20 103-25 12-4 30-11 40-68 2-13 54 109 54 109s-8 40-57 62-136 37-184 75c-16 13-47 36-66 63-44 65-91 72-91 72s42-36 54-86c2-9-1-50 15-67-18 18-62-17-56-12 0 0-6-9-34-30zM1800 1341s9 50 105 74 112 57 128 64 56 37 100 23c17-6 65-19 69-16 1 2-14 27-16 30-32 38-44 44-56 49-26 13-28 15-46 16 0 0 17 22 20 57s49 71 49 71-62-16-90-54c-27-37-73-69-89-77-17-8-103-37-120-44-18-8-74-37-81-84-8-47 27-109 27-109z" fill="#eed000" fill-rule="evenodd" stroke="#002d56" stroke-miterlimit="3.9" stroke-width="7.4"/><path d="M883 1379c-65-26-45-43-45-43 16-29 37-65 117-96 107-41 216-23 187 25l-48 80s-13-34-71-13c-59 22-77 31-80 43-5 17-3 29 39 22-28 9-58 0-93-15z" fill="#eed000" stroke="#002d56" stroke-miterlimit="3.9" stroke-width="7.4"/><path d="M1884 1331c12 3 32 13 45 22 59 42 48 80 32 80-19 2 116-2 132-11s22-18 12-39-83-146-203-170-167 27-157 44c10 16 54 70 56 93 12-24 40-30 83-19z" fill="#eed000" stroke="#002d56" stroke-linejoin="round" stroke-miterlimit="3.9" stroke-width="6.4"/><g fill-rule="evenodd"><path d="M1826 1307l-23-33 6 36-9 2-11-63 10-2 30 42 15-49 9-2 11 63-13 2-6-36-12 39zM1922 1283c-2 10-6 17-12 21-5 5-12 6-19 5-7-2-12-6-16-12-3-6-4-14-2-23l1-4c2-9 5-16 10-21 6-5 13-6 21-5 7 2 13 6 16 13 3 6 3 14 1 23zm-14-3l1-2c1-8 2-14 1-18 0-4-3-6-8-7-4-1-7 0-9 3l-6 18v1c-2 9-3 15-2 18 1 4 3 6 8 7 4 1 7-1 9-4 3-3 5-8 6-16zM1973 1311c-5 9-10 15-16 17-6 3-12 2-19-1l-20-11 31-56 17 9c8 5 13 10 14 17 0 7-1 14-6 23zm-12-7l1-2c3-6 5-11 4-15 0-5-2-8-5-10l-5-2-21 39 5 3c4 2 7 2 10 0 3-1 7-6 11-13zM2007 1313l-11 13 12 12-6 7-13-12-13 12 18 18-7 7-27-27 44-46 27 26-7 7zM2014 1414l-7-11c9-6 15-10 18-14 2-4 3-7 1-10l-2-3-24 14-7-11 55-33 12 21c3 5 4 9 3 12-1 4-4 7-7 9l-3 1c-3 2-6 3-9 2s-6-3-8-6c1 5 0 9-3 14-4 5-10 10-19 15zm31-36l2-1 4-4-2-7-2-3-15 8 2 3 5 5c2 1 4 1 6-1zM1842 1493l-12-8 6-15-16-12-13 10-9-7 54-39 10 7zm-3-32l8-24-20 15zM1912 1467l-11-6-24 49-12-6 23-49-12-6 4-9 37 18zM1942 1468l-25 59-13-6 25-58zM1990 1526c-4 9-9 16-16 19-6 3-12 2-19-1s-11-7-13-14-1-15 3-24l1-3c4-9 9-15 15-18 6-4 13-4 21-1 7 4 11 9 13 16 1 7 0 15-4 23zm-12-6v-2c4-7 5-12 6-16s-2-7-6-9-8-2-10 1c-3 2-6 7-10 15v2c-4 8-6 13-6 17s2 6 6 8 7 1 10-1l10-15zM2033 1553l18-33 9 5-32 56-5-3-6-50-20 34-9-4 32-56 6 4zM945 1342l-9 5-47-46 12-7 30 29-11-41 9-5 31 28-13-39 10-6 18 63-8 5-32-29zM992 1251l19 61-13 4-19-61zM1065 1284c1 7 0 12-4 16-4 3-9 6-17 7l-11 1-8-1-1-11 7 2 10-1c4 0 7-1 9-3 1-1 2-3 1-6l-2-5-11-4c-5-1-8-3-11-6-3-2-5-6-6-11 0-5 1-10 4-14 4-3 9-6 16-7a43 43 0 0115 0l1 10a126 126 0 00-14 0c-3 0-6 1-7 3-2 1-2 3-2 4 0 3 1 4 2 5l12 4c5 1 9 3 12 6s5 7 5 11zM1262 1241c-2 3-5 6-8 7-4 2-8 1-13-1l-7-4-3-4 4-9a27 27 0 007 6l5 1 4-4 21-42 13 6zM1331 1266c-2 6-5 9-9 11-5 2-11 2-17-1-8-3-12-6-14-11s-2-10 1-17l15-40 13 5-16 42c-2 3-2 6-1 8s3 4 6 5h8c2 0 4-3 5-6l16-42 10 4zM1399 1280c-1 7-4 11-8 14-5 3-11 3-19 3l-10-3c-2-1-6-1-8-3l2-10 7 3 9 3 9-1c2-1 3-3 3-6 1-2 0-4-1-5l-9-7c-4-3-8-5-10-9-2-3-2-7-2-12 1-5 3-9 8-12 4-3 10-4 17-3a43 43 0 0114 4l-1 10a127 127 0 00-14-4l-8 1c-2 1-3 2-3 4l1 5c1 2 5 4 10 7 5 2 9 6 11 9s2 7 2 12zM1462 1248h-14v54h-14l1-54-14-1 1-9 40 1zM1499 1235l8 63-14 2-8-63zM1575 1279l-4 4-8 3c-8 2-15 2-22-2-6-3-11-10-14-20l-1-2c-2-9-2-18 1-25s9-11 16-14l9-2h5l3 10h-5l-7 1c-4 1-7 5-9 9-1 5-1 11 1 17v1c3 8 5 13 9 15 3 3 7 4 12 2a28 28 0 0011-6zM1594 1212l8 15 16-8 4 8-16 9 8 16 22-12 5 9-35 17-29-57 33-16 5 8zM923 1516c5 9 7 16 6 23-1 6-5 11-12 15l-19 10-31-55 17-10c8-4 15-5 21-2s12 8 16 16zm-13 6v-2c-4-6-7-10-11-12s-8-2-11 0l-5 2 22 39 6-3c3-1 5-4 5-8 0-3-2-9-6-16zM980 1492c4 9 5 17 3 24-2 6-7 11-14 14s-13 3-19 0c-7-3-12-10-16-19l-1-3c-4-9-5-16-3-23s6-13 14-16c7-3 14-3 20 1s11 10 15 19zm-13 4l-1-1-8-16c-3-3-6-3-11-1-4 1-6 4-6 8s2 9 5 17l1 2 8 16c3 2 6 2 11 1 3-2 5-5 5-9 1-3-1-9-4-17zM1030 1508l-29-29 13 35-9 3-22-60 10-3 37 35 6-51 8-3 22 60-12 4-12-34-5 40zM1114 876l-2 6-4 9c-6 8-13 12-21 14s-17-1-27-8l-2-1c-9-6-14-14-16-22-1-9 0-17 6-25l6-8 5-4 9 7-5 3-5 6c-3 5-4 10-2 15 2 6 6 10 12 15h1c7 5 13 8 18 8 5-1 9-3 12-7a35 35 0 006-14zM1149 791c8 8 12 15 13 23 0 8-3 15-9 22-6 6-13 9-21 9-8-1-16-5-23-12l-3-3c-8-7-12-15-13-23s1-15 8-22 14-10 22-9 16 5 23 12zm-12 11l-2-2c-6-6-11-10-15-11-4-2-8-1-12 3s-5 7-3 11c1 4 6 9 12 16l2 1c7 7 12 11 16 13 3 1 7 0 11-4 3-4 4-7 3-12l-12-15zM1212 747l-25-34 9-6 42 57-6 4-54-15 26 36-9 7-42-58 7-5zM1300 711c3 7 3 13 0 19-3 5-8 10-16 13l-12 5-9 2-5-11 8-1 11-4c5-2 8-4 9-6v-8l-4-4h-14c-6 0-10-1-14-3-4-1-8-5-10-10s-2-10 0-15c3-6 8-10 16-14a53 53 0 0116-5l5 10a155 155 0 00-16 5l-8 6c-2 2-1 3 0 5 1 3 3 4 4 4h14c7 0 12 1 16 3s7 5 9 9zM1361 653l-14 4 15 58-15 4-16-58-15 4-3-10 46-12zM1403 637l16-1 5 71-16 1zM1504 649l-15-1-5 60-15-1 4-60-16-1 1-10 47 3zM1581 710c-1 6-5 11-10 13-5 3-12 3-20 0-9-3-14-7-17-12s-3-11-1-19l14-45 16 5-15 47v9c1 2 4 4 8 5 4 2 7 2 9 1 2-2 4-4 5-8l15-48 11 4zM1670 706l-13-7-28 53-14-7 28-54-15-7 5-9 42 21zM1710 718l13 10-42 57-13-9zM1772 822c-8 8-16 12-24 12-8 1-15-2-21-8-6-7-9-14-9-21 1-8 5-16 13-24l2-3c8-7 15-11 23-12 9-1 16 1 23 8 6 7 9 14 8 22s-5 16-13 23zm-11-12l1-2c7-6 11-11 13-15s0-8-4-12c-3-4-7-5-11-3-4 1-9 5-16 12l-1 1c-7 7-11 12-13 16-1 4 0 8 4 12 3 3 7 4 11 2 4-1 10-5 16-11zM1816 884l34-25 6 9-57 42-4-6 15-55-36 26-7-9 58-41 5 7z" fill="#002d56"/><path d="M1673 1399s4-4 5-1 2 6 1 7l-3 4-2 4h-4l-1 5-1 4 1 4 3 6-2-4 3 5c2 6 23 12 31 15 16 7 14 42 15 45 2 3 9 49 9 56s-9 49-10 58l-2 24c0 2-3 0-4 1l-1 12-2 12c-1 9-9 10-9 10s-1 32-2 39c-2 8-3 9-1 31s-3 47-3 47l-11 45c-2 6 1 11 2 16l1 11h-74c-2 0 1-7 3-12 2-2 5-5 10-6s6-7 9-13c3-7 1-22-1-31s-6-30-6-38-4-25-9-37c-4-12-6-37-6-40l-1-5c-2-3-2-7-4-14-4-12-4-26-4-38s-6-26-8-29l-1-6-13 5-13 9c-3 3-6 3-11 4-10 1-19-11-22-28-2-18 1-26 22-26h21s2 5-1 6l-5 2 5 5 10-6 3-6-1-10a442 442 0 01-1-59c0-7 0-22 4-28 4-8 25-11 25-11s10-1 11-4l4-7c-6-2-8-9-9-11l-3-12-3-12v-9h-7l-8-1-6-1-6-1s-6-6 0-11 15-8 16-9l2-2v-2c-2-2-3-5-5-12s16-10 16-10l21 2h13c7 0 16 3 21 4s10 6 12 10c3 5 14 11 17 14l12 18c4 6 0 5-1 5-6 4-39-3-36-3 2 0 2-1-1-2v2l-2 8z" fill="#eed000" stroke="#eed000" stroke-miterlimit="3.9" stroke-width="1.6"/></g><path d="M1638 1491c1-18 3-32 5-43v-5c-4-1-7-1-12-6" fill="none" stroke="#002d56" stroke-miterlimit="3.9" stroke-width="4.1"/><path d="M1610 1680l1-7s2-4 1-12 0-31 2-42 19-45 21-54l2-35-1-13" fill="none" stroke="#002d56" stroke-miterlimit="3.9" stroke-width="4.9"/><path d="M1595 1592c2 3 7 16 8 29s-2 26 2 38l6 14 4 5c0 3 2 28 7 40 4 12 6 30 6 37s4 30 6 38 4 24 1 31c-3 6-4 11-8 13-4 1-6 2-8 6-4 4-8 12-6 12h72l-1-11c-1-4-6-11-5-17l13-44s6-26 4-47-4-22-2-29c2-8 3-38 3-38s14-4 15-13l6-49c0-8 10-50 10-58s-7-53-9-56c-1-3 0-30-16-37-8-3-28-17-30-23l-3-5" fill="none"/><path d="M1632 1432l-4 7s-32 7-36 15a252 252 0 00-3 87l1 10" fill="none" stroke="#002d56" stroke-linejoin="round" stroke-miterlimit="3.9" stroke-width="5.4"/><path d="M1651 1539c0 3-1 25 8 39l24 42c2 3 8 4 10 7 7 17-1 35 10 37l2 10" fill="none" stroke="#002d56" stroke-miterlimit="3.9" stroke-width="4.9"/><path d="M1674 1432c-2 3-14 10-21 10-2 0-1 5-2 11v48l-1 9" fill="none" stroke="#002d56" stroke-miterlimit="3.9" stroke-width="4.1"/><path d="M1685 1478l4 17 6 31 2 19 1 17-1 15-1 10-3 9-3 31c12-3 20 0 26 4" fill="none" stroke="#002d56" stroke-width="4.9" stroke-linecap="round" stroke-linejoin="round" stroke-miterlimit="3.9"/><path d="M1604 1446v3c-1-6 20 85 90 127l3 2" fill="none" stroke="#002d56" stroke-miterlimit="3.9" stroke-width="4.9"/><path d="M1617 1443c8 23 30 81 80 112l1 4M1628 1582c13 2 21 2 33-1M1648 1648l7 42 3 36 1 28 1 37v42c-7 5-11 12-11 22" fill="none" stroke="#002d56" stroke-miterlimit="3.9" stroke-width="4.9"/><path d="M1578 1557c-4 6-25-6-26 13-1 14 1 30 15 32l10-7 3-3" fill="none" stroke="#002d56" stroke-linejoin="round" stroke-miterlimit="3.9" stroke-width="4.5"/><path d="M1566 1549c-6-92-4-172 12-234-41 60-24 234-24 234z" fill="#eed000" fill-rule="evenodd"/><path d="M1590 1549l-3 8-10 5" fill="none" stroke="#002d56" stroke-linejoin="round" stroke-miterlimit="3.9" stroke-width="5.4"/><path d="M1576 1560s7 20 1 35" fill="none" stroke="#002d56" stroke-linejoin="round" stroke-miterlimit="3.9" stroke-width="4.5"/><path d="M1566 1550h12s2 5-1 6l-6 2" fill="none" stroke="#002d56" stroke-linejoin="round" stroke-miterlimit="3.9" stroke-width="3.5"/><path d="M1568 1600c-3 3-6 3-11 4-10 1-19-11-22-28-2-18 0-26 19-27" fill="none" stroke="#002d56" stroke-miterlimit="3.9" stroke-width="3.5"/><path d="M1571 1558h-13s-7 1-7 7c-1 9-1 22 3 27l4 4" fill="none" stroke="#002d56" stroke-miterlimit="3.9" stroke-width="3.5"/><path d="M1617 1380l1 7-2 3h-7l-8-1-6-1-5-1s-6-8 0-13l14-9h2" fill="none" stroke="#002d56" stroke-miterlimit="3.9" stroke-width="4.1"/><path clip-rule="evenodd" d="M1617 1382v7" fill="none" stroke="#002d56" stroke-miterlimit="3.9" stroke-width="1.6"/><path d="M1618 1387s-2 7-1 10l3 12 3 12c1 2 3 10 10 12s14 0 18-3" fill="none" stroke="#002d56" stroke-miterlimit="3.9" stroke-width="3.3"/><path d="M1631 1417l4-1 4 1h10M1634 1421s7 2 11 0M1644 1388s7-3 13 2" fill="none" stroke="#002d56" stroke-miterlimit="3.9" stroke-width="2.5"/><path d="M1635 1388c1 1 0 5-1 7l-2 6-1 5 2 2h5l4-1c1 1 3 0 3-2l-1-4-3-2" fill="none" stroke="#002d56" stroke-miterlimit="3.9" stroke-width="2"/><path d="M1622 1389c1-1 8-4 14-1" fill="none" stroke="#002d56" stroke-miterlimit="3.9" stroke-width="2.5"/><ellipse cx="-1652.3" cy="-1364.4" fill="#002d56" rx="4.6" ry="1.1" stroke="#002d56" stroke-miterlimit="3.9" stroke-width="1.6" transform="rotate(-179)"/><path d="M1632 1432l1 1c6 1 14 0 18-3M1616 1339s-18 5-16 12l6 12 6 14c1 2 0 7 4 5 23-12 73 8 62 7-3 0 32 7 38 3 1-1 3-2-1-8l-14-17c-3-3-12-9-15-14-3-4-10-8-15-9l-21-3-13-1c2 1-16-2-21-1z" fill="none" stroke="#002d56" stroke-miterlimit="3.9" stroke-width="3.3"/><path d="M1658 1706s18 11 40-1c20-10 3-2 3-2M1614 1708s20 10 41-1" fill="none" stroke="#002d56" stroke-miterlimit="3.9" stroke-width="4.9"/><ellipse cx="-1787.1" cy="-1213.4" fill="#002d56" rx="4.8" ry="1.2" stroke="#002d56" stroke-miterlimit="3.9" stroke-width="1.6" transform="rotate(-174)"/><path d="M1624 1593c12 5 31 4 43 0" fill="none" stroke="#002d56" stroke-miterlimit="3.9" stroke-width="4.9"/><path d="M1780 1834h168v23h-168z" fill="#eed000" fill-rule="evenodd" stroke="#002d56" stroke-miterlimit="3.9" stroke-width=".7"/><path d="M0 2880h6912v1440H0z" fill="#b50027"/></svg>