<svg xmlns="http://www.w3.org/2000/svg" width="1200" height="600" viewBox="0 0 48 24"><clipPath id="a"><path d="M0 0h24v3.75L21 6v4.5h3V14H0z"/></clipPath><clipPath id="b"><path d="M0 0v6h22v6h-1zm21 0H10.5v13H0v-1z"/></clipPath><path fill="#012169" d="M0 0h48v24H0z"/><g clip-path="url(#a)"><path d="M0 0l21 12m0-12L0 12" stroke="#fff" stroke-width="2.4"/><path d="M0 0l21 12m0-12L0 12" stroke="#c8102e" stroke-width="1.6" clip-path="url(#b)"/><path d="M10.5 0v14M0 6h24" stroke="#fff" stroke-width="4"/><path d="M10.5 0v14M0 6h24" stroke="#c8102e" stroke-width="2.4"/></g><path d="M48 19.5H0m48-9H21m0-9h27" stroke="#fff" stroke-width="3"/><path d="M21 4.5h27m-48 9h48m-48 9h48" stroke="#c8102e" stroke-width="3"/></svg>