<svg xmlns="http://www.w3.org/2000/svg" width="1000" height="600"><path fill="#FFF" d="M0 0h1000v600H0z"/><g fill="#002768"><path d="M379.93 539v-2.71h2.3c1.46 0 2.43-.2 2.89-.6.46-.38.7-1.44.7-3.14v-21.18c0-1.67-.24-2.72-.7-3.11-.46-.4-1.43-.6-2.9-.6h-2.3V505h16.78v2.67h-2.28c-1.49 0-2.46.2-2.9.59-.46.4-.68 1.44-.68 3.11v21.18c0 1.7.23 2.75.7 3.15.46.4 1.42.59 2.9.59h2.27v2.7h-16.78zM399.61 504.99h16.73v2.67h-2.53c-1.49 0-2.46.2-2.92.59-.47.4-.7 1.43-.7 3.11v24.93h8.12c2.46 0 4.36-.23 5.7-.7a4.8 4.8 0 002.81-2.27c.44-.84.77-1.87.96-3.1.2-1.2.3-2.76.3-4.62v-.73h2.65v14.12H399.6v-2.7h2.08c1.47 0 2.44-.2 2.92-.6.47-.38.7-1.44.7-3.14v-21.18c0-1.67-.23-2.72-.7-3.11-.46-.4-1.43-.6-2.9-.6h-2.09V505zM434.26 504.99h16.72v2.67h-2.52c-1.49 0-2.46.2-2.92.59-.47.4-.7 1.43-.7 3.11v24.93h8.12c2.46 0 4.36-.23 5.69-.7a4.83 4.83 0 002.82-2.27c.44-.84.77-1.87.96-3.1.2-1.2.3-2.76.3-4.62v-.73h2.64v14.12h-31.1v-2.7h2.07c1.47 0 2.44-.2 2.92-.6.47-.38.7-1.44.7-3.14v-21.18c0-1.67-.23-2.72-.7-3.11-.46-.4-1.43-.6-2.92-.6h-2.08V505zM469 539v-2.71h2.3c1.46 0 2.42-.2 2.89-.6.46-.38.7-1.44.7-3.14v-21.18c0-1.67-.24-2.72-.7-3.11-.47-.4-1.43-.6-2.9-.6H469V505h16.78v2.67h-2.28c-1.49 0-2.46.2-2.9.59-.46.4-.68 1.44-.68 3.11v21.18c0 1.7.23 2.75.7 3.15.46.4 1.42.59 2.89.59h2.28v2.7h-16.79zM522.81 539.13h-4.3l-20.83-29.54v22.96c0 1.7.23 2.75.7 3.15.46.4 1.42.59 2.89.59h2.54v2.7H488.7v-2.7h1.99c1.47 0 2.44-.2 2.9-.6.48-.38.7-1.44.7-3.14v-21.12c0-1.7-.22-2.76-.7-3.16-.47-.4-1.43-.6-2.9-.6h-1.98V505h11.4l19.3 27.32v-20.88c0-1.7-.23-2.76-.7-3.16-.46-.4-1.42-.6-2.88-.6h-2.7V505h14.96v2.67h-1.68c-1.46 0-2.44.2-2.89.6-.46.4-.7 1.46-.7 3.16v27.7zM536.94 521.96c0 4.63 1.16 8.31 3.47 11.07 2.31 2.75 5.4 4.12 9.24 4.12s6.93-1.37 9.25-4.12c2.31-2.76 3.47-6.44 3.47-11.07 0-4.61-1.15-8.3-3.46-11.03-2.31-2.73-5.4-4.1-9.26-4.1-3.84 0-6.93 1.37-9.24 4.1-2.3 2.73-3.47 6.42-3.47 11.03zm-5.51 0c0-2.64.47-5.09 1.43-7.36a16.89 16.89 0 019.86-9.42c2.19-.8 4.5-1.2 6.94-1.2s4.75.4 6.94 1.2a16.89 16.89 0 019.87 9.42c.95 2.25 1.42 4.71 1.42 7.36 0 2.67-.47 5.14-1.42 7.4a16.79 16.79 0 01-9.87 9.43c-2.19.81-4.5 1.21-6.94 1.21s-4.75-.4-6.94-1.2a16.89 16.89 0 01-9.86-9.44 18.84 18.84 0 01-1.43-7.4zM571.43 539v-2.71h2.3c1.47 0 2.43-.2 2.9-.6.46-.38.69-1.44.69-3.14v-21.18c0-1.67-.23-2.72-.7-3.11-.46-.4-1.42-.6-2.89-.6h-2.3V505h16.77v2.67h-2.28c-1.48 0-2.46.2-2.9.59-.45.4-.67 1.44-.67 3.11v21.18c0 1.7.23 2.75.7 3.15.46.4 1.42.59 2.88.59h2.28v2.7h-16.78zM591.9 539v-14.1h2.8c.52 3.7 1.9 6.6 4.16 8.73a11.84 11.84 0 008.46 3.18c2.46 0 4.44-.6 5.91-1.76a5.6 5.6 0 002.23-4.62c0-1.64-.56-2.9-1.68-3.82-1.12-.92-3.17-1.7-6.16-2.37l-4.2-.92c-4.55-1.02-7.6-2.24-9.12-3.66-1.52-1.41-2.3-3.5-2.3-6.26 0-2.87 1.11-5.16 3.32-6.86 2.2-1.71 5.2-2.56 8.95-2.56 1.87 0 3.62.31 5.28.93 1.66.63 3.27 1.58 4.84 2.86l1.48-3.07h2.38v12.87h-2.75c-.43-3.43-1.6-6.06-3.52-7.9-1.92-1.82-4.48-2.74-7.66-2.74-2.5 0-4.46.5-5.86 1.52a4.93 4.93 0 00-2.1 4.24c0 1.42.55 2.57 1.66 3.46 1.12.88 2.86 1.55 5.24 2.01l4.9 1.02c4.36.87 7.43 2.09 9.22 3.64 1.8 1.55 2.7 3.73 2.7 6.55a9.6 9.6 0 01-3.49 7.69c-2.33 1.97-5.37 2.96-9.12 2.96-2.17 0-4.19-.4-6.03-1.17a17.08 17.08 0 01-5.28-3.6l-1.65 3.75h-2.61z"/></g><path fill="#64B4FF" d="M572.09 364.53s14 27.34 18.46 27.36c4.45 0 18.02 1.3 22.84 1.33 4.83 0 12.33-2.21 20.06-1.12 7.97 1.12 11.7 1.15 16.7.01 4.38-.98 14.72.76 20.27 1.49 7.72-7.62 18.98-28.52 18.98-28.52l-117.15-.56"/><path fill="none" stroke="#3C3C9E" stroke-width="1.2014304" d="M591.7 391.55c4.46.01 18.4 1.85 23.21 1.88 4.83-.02 12.34-2.22 20.06-1.13 7.98 1.13 11.7 1.15 16.71.01 4.38-.97 13.44 1.32 18.27.95"/><path fill="#64B4FF" d="M327.38 376l10.59 15.75c-5.2 1.57-20.36-1.58-25.1.17-5.45-5.15-13.02-15.93-13.02-15.93l27.53.01z"/><path fill="none" stroke="#000" stroke-width="1.2014304" d="M325.68 376.18l-25.72-.01m36.67 15.57c-5.2 1.57-17.83-1.04-22.56.7"/><g fill="none" stroke="#3C3C9E" stroke-width="1.79"><path d="M585.96 370.84c2.04-.57 6.31-1.3 10.03.37m30.84 9.35c2.04-.56 6.3-1.3 10.02.38m16.73-9.5c2.04-.55 6.31-1.3 10.03.37M616.24 373.83c2.05-.54 6.32-1.3 10.04.37M597.47 373.28c2.05-.57 6.32-1.3 10.03.37M645.57 387.86c2.06-.57 6.32-1.3 10.04.37m5.76-2.99c2.05-.56 6.32-1.29 10.03.39m-23.4-4.14c2.05-.54 6.32-1.3 10.04.38m-1.87-6.15c2.06-.54 6.32-1.3 10.04.38M609.92 383.35c2.04-.56 6.3-1.3 10.02.38m-26.2 3.88c2.06-.54 6.33-1.3 10.05.4" stroke-width="2.2401671"/></g><g fill="#3C3C9E" stroke="#FFF" stroke-width="1.43"><path d="M625.72 380.68c1.64-1.33 6.69-4.46 12.04.48M646.84 381.46c1.62-1.35 6.68-4.48 12.04.48M655.16 375.64c1.63-1.33 6.68-4.47 12.04.48M652.63 371.45c1.64-1.32 6.71-4.47 12.04.47M596.6 373.23c1.64-1.32 6.69-4.48 12.04.45M609.07 383.25c1.64-1.34 6.68-4.48 12.04.45M592.72 387.54c1.64-1.34 6.7-4.46 12.04.48M660.34 385.37c1.64-1.34 6.68-4.48 12.04.43M615.17 374.11c1.64-1.33 6.7-4.45 12.04.48M585.01 370.84c1.64-1.34 6.69-4.48 12.04.43M607.44 379.05c1.64-1.32 6.7-4.47 12.04.47M637.48 376.84c1.62-1.35 6.68-4.48 12.04.45M644.58 387.88c1.64-1.34 6.7-4.47 12.06.44M638.21 370.41c1.64-1.31 5.06-4.47 10.4.46M602.41 370.08c1.63-1.32 5.94-4.45 11.28.5M668.39 370.72c1.64-1.31 5.05-4.44 10.4.47M631.22 385.63c1.64-1.34 5.07-4.47 10.4.46M628.25 372.21c1.64-1.34 5.07-4.48 10.4.47M617.95 370.34c.52-1.42 2.74-5.15 6.46.52M592 377.68c1.62-1.33 5.04-4.44 10.4.46M608.32 389.22c2.47-2.04 5.82-3.8 10.4.44M595.11 382.47c2.48-2.02 5.8-3.76 10.4.47M661.4 379.82c2.47-2.03 5.79-3.77 10.4.46M665.85 374.9c2.49-2.02 5.8-3.78 10.41.47M623.1 389.66c1.64-1.34 5.07-4.47 10.4.46M313.23 381.07c1.64-1.34 6.68-4.45 12.04.48M320.72 387.77c1.64-1.34 5.07-4.47 10.4.46" stroke-width="1.7896307"/></g><path fill="#B4B4B4" d="M471.87 351.27l3.26-10.56 2.54-3.28 19.24 2.56 28.3 6.2 15.08 2.76 24.12 40.92 24.68 1.82-22.45 26.04-74.79.01-13.89-7.34-20.66-18.81 29.3-23.5-14.73-16.82z"/><path fill="#B4B4B4" stroke="#000" stroke-width="1.3390943" d="M524.5 345.63c4.63-.79 24.52-2.34 30.45 9.06 0 0-.27-.01-2.6.08 3.07.2 16.26-3.53 21.63 12.32-1.96-.73-3.63-.56-3.63-.56s12.82-1.34 20.23 23.7c1.3 4.65-16.53-1.69-26.2 1.48m26.1-.44c4 1.47 4.75 8.27 6.79 10.36 2.05 2.04 6.68 4.85 6.3 8.38-.37 3.55-5.94 8.58-10.97 9.7-5 1.12-18.76-2.43-23.96-1.9-5.19.58-20.62 5.24-29.17 5.04-8.55-.2-17.26-3.93-24.5-3.74-7.24.15-19.89 1.1-23.58-1.34m-7.08-5.41c-.93-3.35-2.4-14.5 10.23-19.01 3.9-1.39 6.22-1.4 7.98-1.95 2.86-.9 5.1-1.77 7.17-1.04 2.04.75 3.98 5.24 11.03 6.17m3.93-32.84c-2.41-.2-4.26-4.47-10.02-3.74-5.77.75-14.33 6.53-15.62 14.18-1.31 7.66-1.41 10.72 3.97 16.68"/><path d="M519.07 373.16v10.2c0 .63.32 1.04.95 1.04h1.34v1.82H513v-1.82h1.41c.66 0 .96-.41.96-1.04v-6.65h-2.32v-1.82h.54c1.25 0 2.15-.4 2.71-1.73h2.78M535.43 376.1c0 1.4-1.04 2.03-2.22 2.46 1.74.67 2.9 1.75 2.9 3.75 0 3.3-2.93 4.22-6.04 4.22-2.35 0-5.82-.48-5.82-3.55 0-1.73.93-2.66 2.5-3.22-1.08-.54-2.02-1.52-2.02-2.78 0-3.32 2.82-4.14 5.62-4.14 2.06 0 5.08.65 5.08 3.26zm-7.03 4.56c-.84.29-1.57 1.25-1.57 1.96 0 1.87 1.77 2.33 3.32 2.33 1.14 0 2.64-.4 2.64-1.77 0-.62-.36-1.07-1.9-1.62l-2.5-.9zm3.65-3.18c.54-.32.8-.72.8-1.39 0-1.34-1.44-1.66-2.51-1.66-1 0-2.3.25-2.3 1.46 0 .49.3.85.8 1.03l2.66.92.55-.36M541.44 379.2a4.82 4.82 0 013.29-.97c2.41 0 4.43 1.43 4.43 3.94 0 3.08-2.72 4.36-5.47 4.36-4.23 0-6.2-2.38-6.2-6.27 0-4.42 2.03-7.42 6.73-7.42 1.68 0 4.4.85 4.4 2.74 0 1.34-.78 1.88-2.13 1.88-.92 0-1.67-.64-1.67-1.43 0-.66.26-.95.83-1.26a1.91 1.91 0 00-1.1-.33c-2.21 0-3.11 1.6-3.11 3.58v1.19zm.23 3.2c0 1.65.67 2.41 1.77 2.41s1.76-.76 1.76-2.41c0-1.67-.66-2.44-1.76-2.44s-1.77.76-1.77 2.44M561.69 376.1c0 1.4-1.04 2.03-2.22 2.46 1.74.67 2.9 1.75 2.9 3.75 0 3.3-2.95 4.22-6.04 4.22-2.35 0-5.83-.48-5.83-3.55 0-1.73.92-2.66 2.5-3.22-1.08-.54-2.03-1.52-2.03-2.78 0-3.32 2.83-4.14 5.62-4.14 2.1 0 5.1.65 5.1 3.26zm-7.04 4.56c-.84.29-1.56 1.25-1.56 1.96 0 1.87 1.76 2.33 3.31 2.33 1.16 0 2.65-.4 2.65-1.77 0-.62-.37-1.07-1.92-1.62l-2.48-.9zm3.67-3.18c.54-.32.8-.72.8-1.39 0-1.34-1.44-1.66-2.53-1.66-.99 0-2.28.25-2.28 1.46 0 .49.3.85.8 1.03l2.66.92.55-.36M539.03 397.8v10.22c0 .6.3 1.04.96 1.04h1.33v1.8h-8.36v-1.8h1.43c.65 0 .95-.44.95-1.04v-6.67h-2.31v-1.82h.53c1.26 0 2.16-.41 2.72-1.72h2.78M555.4 400.73c0 1.4-1.04 2.06-2.22 2.46 1.74.7 2.9 1.75 2.9 3.75 0 3.3-2.95 4.23-6.05 4.23-2.35 0-5.83-.49-5.83-3.57 0-1.71.93-2.64 2.5-3.19-1.07-.55-2.02-1.51-2.02-2.78 0-3.31 2.83-4.15 5.62-4.15 2.07 0 5.1.65 5.1 3.25zm-7.04 4.56c-.84.29-1.57 1.25-1.57 1.96 0 1.87 1.77 2.33 3.32 2.33 1.14 0 2.64-.4 2.64-1.78 0-.6-.36-1.05-1.91-1.61l-2.48-.9zm3.65-3.15c.54-.33.79-.72.79-1.4 0-1.33-1.44-1.66-2.52-1.66-.98 0-2.27.23-2.27 1.47 0 .48.29.83.8 1l2.65.92.55-.33M565.29 397.8v10.22c0 .6.3 1.04.95 1.04h1.33v1.8h-8.36v-1.8h1.42c.66 0 .96-.44.96-1.04v-6.67h-2.32v-1.82h.54c1.25 0 2.14-.41 2.69-1.72h2.8M581.65 400.73c0 1.4-1.03 2.06-2.22 2.46 1.74.7 2.9 1.75 2.9 3.75 0 3.3-2.95 4.23-6.04 4.23-2.34 0-5.82-.49-5.82-3.57 0-1.71.93-2.64 2.5-3.19-1.07-.55-2.02-1.51-2.02-2.78 0-3.31 2.83-4.15 5.62-4.15 2.07 0 5.08.65 5.08 3.25zm-7.04 4.56c-.83.29-1.56 1.25-1.56 1.96 0 1.87 1.76 2.33 3.32 2.33 1.13 0 2.64-.4 2.64-1.78 0-.6-.37-1.05-1.92-1.61l-2.48-.9zm3.66-3.15c.55-.33.8-.72.8-1.4 0-1.33-1.44-1.66-2.52-1.66-.98 0-2.27.23-2.27 1.47 0 .48.27.83.8 1l2.64.92.55-.33"/><g><path fill="#FFB30F" stroke="#000" stroke-width="1.4892731" d="M459.51 324.34c2.78 8.64 20.68 33.42 44.78 32.83-1.31 7-35.7 77.52-127.81 82.5-25.98-87.76 21.91-142.8 38.27-148.12 5.47 22.27 35.88 32.35 44.75 32.8h.01z"/><path fill="#FFF" d="M457.07 328.21c2.54 7.88 11.32 44.18 25.9 56.12-5.7 6.02-42.38 46.87-101.75 49.23-19.23-59.96 5-103.29 13.28-117.15 18.85 13.76 54.45 11.4 62.56 11.8"/><path fill="#002768" d="M412.07 297.47c9.67 20.97 35.52 28.34 44.9 30.4 3.16 15.77 34.32 34.9 41.25 33.35-1.21 8.58-17.54 26.4-22.97 31.17-.1-.1-87.08-63.74-87.06-63.77 2.43-7.36 18.41-31.02 23.88-31.15"/><g fill="#BE0A2F"><path d="M466.76 392.94c.05-.02 4.64 3.35 4.7 3.33a426.95 426.95 0 01-15.65 11.95c0 .01 11-15.3 10.95-15.28M385.86 333.72c.02-.02 6.9 5.08 6.9 5.08l-15.92 22.27c3.02-11.99 3.35-14.63 9.02-27.35M397.9 342.51l8.69 6.31-32.47 45.36c-.9-5.89-.25-13.23.27-18.78l23.51-32.89M411.66 352.51l8.62 6.4-43.08 60.18c-.88-4.75-2.25-10.78-2.47-15.01l36.93-51.57M439.24 372.7l8.62 6.35-35.59 49.53c-2.25 1.21-13.1 3.33-15.68 3.75l42.65-59.63M425.62 362.76l8.49 6.25-45.82 63.92c-1.01.56-3.95.46-6.98.53-.4-1.88-1.54-4.88-1.95-6.14l46.26-64.56M453.03 382.82l8.65 6.31-19.55 27.11c-2.25 1.2-16.17 8.36-19.61 9.31l30.51-42.73"/></g><path fill="#FFF" d="M408.83 316.08l-2.32 8.09-3.08-8.22 7.15 5.23-8.67-.38 6.92-4.72zM422.92 315.07l-2.31 8.08-3.08-8.22 7.14 5.23-8.67-.37 6.92-4.72zM411.7 329.76l-2.3 8.09-3.09-8.23 7.15 5.24-8.67-.38 6.92-4.72zM426.35 328.92l-2.32 8.09-3.07-8.22 7.14 5.23-8.67-.38 6.92-4.72zM441.83 328.66l-2.31 8.09-3.08-8.23 7.14 5.23-8.67-.37 6.92-4.72zM460.94 342.61l-2.31 8.09-3.08-8.22 7.14 5.23-8.67-.38 6.92-4.72zM446.07 343.2l-2.31 8.09-3.08-8.22 7.15 5.23-8.68-.38 6.92-4.72zM431.06 343.67l-2.32 8.08-3.08-8.22 7.15 5.23-8.68-.38 6.93-4.71zM449.89 357.7l-2.31 8.1-3.08-8.23 7.14 5.23-8.67-.37 6.92-4.72zM464.47 356.5l-2.32 8.1-3.07-8.23 7.14 5.23-8.67-.38 6.92-4.71zM477.75 355.17l-2.32 8.08-3.08-8.22 7.15 5.23-8.67-.37 6.92-4.72zM466.97 370.21l-2.31 8.08-3.08-8.22 7.15 5.23-8.68-.37 6.92-4.72zM481.18 369l-2.32 8.1-3.08-8.23 7.15 5.23-8.67-.37 6.92-4.72z"/></g><g><path fill="#FFE60F" stroke="#FFF" stroke-width=".3128725" d="M586.03 364.1l89.3.13-65.44-29.6-23.86 29.47h0z"/><path fill="#FFE60F" stroke="#FFF" stroke-width=".3128725" d="M612.46 352s-15.52-7.67-17.18-8.4c-1.67-.74-5.57-.57-5.57-.57s.35 3.41 1.85 4.1c1.5.7 19.79 7.3 19.79 7.3m2.41-4.76s-12.28-7.37-15.13-8.86c-2.85-1.49-6.68-1.02-6.68-1.02s1.8 3.24 3.34 3.94c1.51.67 17.18 8.28 17.18 8.28m58.32 11.43s9.07-1.25 11.59-1.67c2.54-.42 6.9-6.14 6.9-6.14s-4.82-2.74-7.45-2.27c-2.6.46-25.63 7.25-25.63 7.25s25.35-6.6 27.66-7.4c2.34-.83 5.22-5.63 5.22-5.63s-3.87-1.25-5.94-.55l-28.07 9.66s28.9-9.6 31.21-10.77c2.3-1.17 5.21-6.16 5.21-6.16s-3.95-.85-5.2-.2c-.74.39-12.33 5.76-21.26 10.6 7.89-3.85 17.55-8.6 19.59-9.69 3.54-1.85 10.6-11.18 10.6-11.18s-6.73.86-8.72 2.06c-2 1.19-33 21.24-33 21.24s33.69-21.31 36.43-23.1c2.76-1.8 5.84-9.33 5.84-9.33s-5.42.33-7.5 1.85l-36.53 27.31s36.93-27.62 39.33-29.55c2.36-1.87 4.73-9.22 4.73-9.22s-5.41-.29-7.6 1.33c-2.2 1.6-37.92 35.77-37.92 35.77s39.08-37.21 42.2-39.98c3.1-2.76 6.33-10.81 6.33-10.81s-5.9 1.11-7.72 3.17c-1.84 2.07-42.12 46.6-42.12 46.6s45.55-50.75 47.79-53.12c2.23-2.4 3.73-9.53 3.73-9.53s-5.5 2.32-7.82 4.78c-2.32 2.44-45.38 56.38-45.38 56.38l44.09-55c2.55-3.2 3.7-9.32 3.7-9.32s-5.7 2.01-8.07 5.13c-2.38 3.1-41.1 58-41.1 58s32.34-46.1 33.4-47.45c1.04-1.4 1.1-6.16 1.1-6.16s-3.2.95-4.17 2.42C675.12 294.42 644.8 343 644.8 343s32.8-52.37 33.95-54.35c1.15-1.95.74-5.76.74-5.76s-2.73.7-4 2.23c-1.24 1.54-32 57.23-32 57.23s33.65-60.43 34.71-62.27c1.06-1.8 1.11-7.65 1.11-7.65s-4.14 1.31-5.75 3.28c-1.62 1.96-31.17 66.2-31.17 66.2s32.13-68.18 33.96-72.27c1.84-4.1 2.24-10.63 2.24-10.63s-4.06.92-5.48 3.18c-1.3 2.04-32.68 78.48-32.68 78.48l34.64-84.07 1.11-8.4s-6.78 4.5-7.8 7.64c-.5 1.57-13.17 37.67-19.75 58.62a6266.75 6266.75 0 0119.57-57.69c.76-1.8-.09-6.32-.09-6.32s-4.68 4.02-5.5 6.7c-.34 1.24-9.04 31.21-14.23 50.46 3.96-13.42 10.52-37.04 10.88-38.16.93-2.76-.72-8-.72-8s-2.8 3.85-3.72 7.81l-14.95 64.32c3.95-16.18 13.09-56.67 13.83-59.45.85-3.28-2.03-8.95-2.03-8.95s-3.23 2.93-3.54 5.2c-.22 1.65-5.62 37-8.65 56.8 3.35-20.3 8.33-57.3 8.65-59.58.43-3.17-2.4-9.16-2.4-9.16s-2.9 2.43-2.98 4.04c-.1 1.6-7.21 77.47-7.21 77.47s7.48-79.65 7.78-82.62c.29-2.97-2.41-8.03-2.41-8.03s-2.1 1.9-2.23 3.72c-.1 1.19-1.78 36.36-2.97 61.57 1.58-26.22 3.02-63.92 3.16-66.43.22-3.83-2.6-7.43-2.6-7.43s-1.83 2.12-2.05 5.97c-.25 4.62-.84 93.09-.84 93.09s.9-94.4.85-97.38c-.05-2.97-4.06-8.98-4.06-8.98s-3.2 4.87-2.98 9.15l4.54 97.2s-3.59-83.5-4.18-87.87c-.57-4.4-5.2-7.84-5.2-7.84s-1.7 4.88-1.3 10.43c.4 5.58 7.04 61.4 7.04 61.4-2.63-21.6-6.1-50.25-6.3-52.04-.33-2.9-5.48-8.59-5.48-8.59s-.4 9.08.47 13.53c.52 2.73 12.92 71.15 12.92 71.15s-11.62-64.48-12.39-68.26c-.73-3.78-4.43-6.54-4.43-6.54s-.9 6.32.35 12.31c.58 2.77 14.8 62.5 14.8 62.5-1-5.04-14.06-59.44-14.78-62.5-.78-3.16-3.33-5.97-3.33-5.97s-.81 6.1-.03 8.57c.8 2.5 16.85 60.46 16.85 60.46s-17.36-61.02-19.44-66.79c-1.27-3.59-6.2-8.4-6.2-8.4s-.1 6.05.92 8.49c.73 1.74 13.17 35.74 20.34 54.49-7.65-20.5-22.18-59.57-22.83-61.46-.86-2.62-7.78-8.96-7.78-8.96s-1.13 4.1-.2 6.14c.94 2.04 33.74 76.96 33.74 76.96l-32.8-74.92c-2.14-4.84-9.65-8.77-9.65-8.77s.57 9.44 2.57 13.27c2.02 3.81 38.2 71.28 38.2 71.28s-33.62-62.97-34.85-65.14c-1.24-2.15-7.8-5.42-7.8-5.42s1.33 7.59 3.33 10.65c1.45 2.22 32.96 51.49 32.96 51.49-10.05-16-29.37-46.57-30.73-47.95-1.9-1.89-8.45-5.14-8.45-5.14s3.71 10.17 6.02 13.05c2.29 2.9 37.67 49.3 37.67 49.3s-35.1-46.4-36.93-48.23c-2.12-2.13-7.43-3.44-7.43-3.44s3.53 8.1 6.12 11.18c2.6 3.06 35.25 41.9 35.25 41.9s-29.81-35.95-32.64-38.84c-2.86-2.87-8.17-3.56-8.17-3.56s3.44 7.62 7.97 12.33a7482.2 7482.2 0 0031.17 31.45M610.3 357.03s-23.43-4.78-26.46-5.32c-3.04-.57-13.28.82-13.28.82s9.75 5.13 14.48 5.43c4.72.31 24.33 1.98 24.33 1.98"/><path fill="#FFE60F" stroke="#FFF" stroke-width=".3128725" d="M616.99 345.4s-22.97-24.39-25.6-26.23c-2.6-1.86-8.74-1.87-8.74-1.87s.57 5.65 3.53 7.63c2.96 2 29.25 22.15 29.25 22.15s-14.22-11.14-16.7-12.98c-2.48-1.84-8-.93-8-.93s4.03 5.39 6.79 7.27c2.75 1.89 16.25 9.25 16.25 9.25m-2.44 4.74s-18.62-6.95-22-8.05c-3.39-1.06-14.68-.55-14.68-.55s6.25 5.2 9.19 5.87c2.94.64 26.47 5.32 26.47 5.32m-.94 2.9s-24.33-2.48-26.55-2.16c-2.22.31-9.48 3.34-9.48 3.34s7.18 1.83 9.83 1.89c2.66.05 26.01-1.29 26.01-1.29"/><path fill="#FFB316" d="M649.45 364.18c0-8.99-7.27-16.28-16.23-16.28S617 355.2 617 364.18h32.45"/></g><g fill="#FFF"><path stroke="#3F863F" stroke-width="1.2765198" d="M348.97 409.5c-1.21-2.27-1.39-7.88-1.39-7.88s-.42 6.71-1.99 9.26"/><path stroke="#FFF" stroke-width="1.2765198" d="M347.64 399.58c.08 3.1 1.33 9.93 2.52 10.82"/><path stroke="#3F863F" stroke-width="1.0262217999999999" d="M376.55 448c-.99-1.84-1.14-6.38-1.14-6.38s-.33 5.44-1.61 7.5"/><path stroke="#FFF" stroke-width="1.0262217999999999" d="M375.48 439.97c.07 2.48 1.07 8.02 2.02 8.73"/><path stroke="#3F863F" stroke-width="1.2765198" d="M471.43 465.6c1.15-2.3 1.15-7.94 1.15-7.94s.64 6.7 2.29 9.2"/><path stroke="#FFF" stroke-width="1.2765198" d="M472.44 455.61c.03 3.1-1.01 10-2.15 10.91"/><path stroke="#3F863F" stroke-width="1.2765198" d="M521.31 463.28c1.15-2.3 1.15-7.9 1.15-7.9s.63 6.69 2.3 9.2"/><path stroke="#FFF" stroke-width="1.2765198" d="M522.33 453.32c0 3.08-1.02 9.98-2.16 10.89"/><path stroke="#3F863F" stroke-width="1.2765198" d="M353.79 421.5c1.14-2.33 1.14-7.93 1.14-7.93s.65 6.67 2.29 9.2"/><path stroke="#FFF" stroke-width="1.2765198" d="M354.79 411.52c.02 3.1-1 9.99-2.17 10.93"/><path stroke="#3F863F" stroke-width="1.2765198" d="M428.53 462.12c1.14-2.3 1.15-7.94 1.15-7.94s.62 6.7 2.29 9.23"/><path stroke="#FFF" stroke-width="1.2765198" d="M429.54 452.12c.01 3.1-1.01 10-2.15 10.91"/><path stroke="#3F863F" stroke-width="1.2765198" d="M576.02 472.62c-1.22-2.28-1.4-7.88-1.4-7.88s-.42 6.7-2 9.24"/><path stroke="#FFF" stroke-width="1.2765198" d="M574.7 462.7c.09 3.06 1.33 9.92 2.5 10.78"/><path stroke="#3F863F" stroke-width="1.1388559" d="M447 469.35c-1.1-2.05-1.25-7.1-1.25-7.1s-.39 6.04-1.8 8.33"/><path stroke="#FFF" stroke-width="1.1388559" d="M445.81 460.42c.06 2.74 1.19 8.93 2.25 9.7"/><path stroke="#3F863F" stroke-width="1.2765198" d="M453.96 473.42c1.14-2.3 1.15-7.93 1.15-7.93s.62 6.7 2.29 9.2"/><path stroke="#FFF" stroke-width="1.2765198" d="M454.96 463.46c.02 3.05-1 9.97-2.14 10.89"/><path stroke="#3F863F" stroke-width="1.2765198" d="M466.42 469.83c-1.24-2.25-1.39-7.89-1.39-7.89s-.42 6.71-2 9.27"/><path stroke="#FFF" stroke-width="1.2765198" d="M465.1 459.9c.07 3.1 1.33 9.93 2.5 10.83"/><path stroke="#3F863F" stroke-width="1.2765198" d="M463.06 486.82c-1.22-2.27-1.4-7.88-1.4-7.88s-.42 6.7-2 9.25"/><path stroke="#FFF" stroke-width="1.2765198" d="M461.74 476.89c.08 3.06 1.33 9.93 2.5 10.8"/><path stroke="#3F863F" stroke-width="1.1388559" d="M498.47 461.9c-1.09-2.06-1.25-7.09-1.25-7.09s-.37 6.05-1.79 8.35"/><path stroke="#FFF" stroke-width="1.1388559" d="M497.28 452.97c.08 2.8 1.2 8.95 2.26 9.75"/><path stroke="#3F863F" stroke-width="1.2765198" d="M502.17 481.72c-1.22-2.3-1.4-7.89-1.4-7.89s-.42 6.7-2 9.25"/><path stroke="#FFF" stroke-width="1.2765198" d="M500.85 471.78c.09 3.07 1.33 9.94 2.5 10.79"/><path stroke="#3F863F" stroke-width="1.2765198" d="M489.54 476.7c1.15-2.3 1.15-7.91 1.15-7.91s.64 6.7 2.29 9.2"/><path stroke="#FFF" stroke-width="1.2765198" d="M490.54 466.72c.02 3.08-1.01 9.98-2.15 10.9"/><path stroke="#3F863F" stroke-width="1.2765198" d="M480.24 487.6c1.14-2.3 1.13-7.91 1.13-7.91s.65 6.67 2.3 9.17"/><path stroke="#FFF" stroke-width="1.2765198" d="M481.24 477.64c.03 3.08-1 9.97-2.15 10.89"/><path stroke="#3F863F" stroke-width="1.0262217999999999" d="M481.84 461.62c.94-1.9.93-6.42.93-6.42s.52 5.4 1.86 7.45"/><path stroke="#FFF" stroke-width="1.0262217999999999" d="M482.67 453.52c0 2.5-.82 8.1-1.76 8.84"/><path stroke="#3F863F" stroke-width="1.0262217999999999" d="M518.4 486.46c.94-1.9.95-6.42.95-6.42-.01 0 .51 5.4 1.85 7.45"/><path stroke="#FFF" stroke-width="1.0262217999999999" d="M519.24 478.36c0 2.5-.82 8.1-1.74 8.81"/><path stroke="#3F863F" stroke-width="1.0262217999999999" d="M510.26 460.97c.93-1.87.93-6.42.93-6.42s.51 5.43 1.86 7.44"/><path stroke="#FFF" stroke-width="1.0262217999999999" d="M511.09 452.9c.01 2.5-.82 8.07-1.75 8.82"/><path stroke="#3F863F" stroke-width="1.2765198" d="M492.6 489.68c1.14-2.3 1.14-7.91 1.14-7.91s.64 6.67 2.3 9.2"/><path stroke="#FFF" stroke-width="1.2765198" d="M493.6 479.7c0 3.08-1.02 9.98-2.16 10.9"/><path stroke="#3F863F" stroke-width="1.2765198" d="M508.37 490.42c1.15-2.3 1.14-7.91 1.14-7.91s.65 6.67 2.3 9.17"/><path stroke="#FFF" stroke-width="1.2765198" d="M509.39 480.45c.02 3.08-1.02 9.98-2.16 10.9"/><path stroke="#3F863F" stroke-width="1.2765198" d="M472.17 485.32c-1.23-2.28-1.4-7.88-1.4-7.88s-.42 6.7-2 9.26"/><path stroke="#FFF" stroke-width="1.2765198" d="M470.84 475.39c.08 3.1 1.33 9.93 2.5 10.8"/><path stroke="#3F863F" stroke-width="1.2765198" d="M476.16 474.93c1.14-2.32 1.14-7.93 1.14-7.93s.65 6.68 2.3 9.19"/><path stroke="#FFF" stroke-width="1.2765198" d="M477.16 464.95c.03 3.09-1 9.98-2.15 10.9"/><path stroke="#3F863F" stroke-width="1.2765198" d="M450.62 481.96c-1.22-2.28-1.4-7.89-1.4-7.89s-.42 6.68-2 9.26"/><path stroke="#FFF" stroke-width="1.2765198" d="M449.3 472c.08 3.11 1.32 9.97 2.5 10.83"/><path stroke="#3F863F" stroke-width="1.2765198" d="M438.91 477.5c1.14-2.31 1.13-7.9 1.13-7.9s.65 6.69 2.3 9.19"/><path stroke="#FFF" stroke-width="1.2765198" d="M439.92 467.53c.02 3.07-1 9.97-2.16 10.9"/><path stroke="#3F863F" stroke-width="1.2765198" d="M402.33 465.26c1.14-2.3 1.13-7.9 1.13-7.9s.65 6.69 2.29 9.19"/><path stroke="#FFF" stroke-width="1.2765198" d="M403.33 455.3c.03 3.08-1 9.97-2.15 10.89"/><path stroke="#3F863F" stroke-width="1.2765198" d="M415.6 471.22c-1.21-2.28-1.39-7.89-1.39-7.89s-.43 6.69-2 9.25"/><path stroke="#FFF" stroke-width="1.2765198" d="M414.29 461.3c.07 3.06 1.32 9.9 2.49 10.8"/><path stroke="#3F863F" stroke-width="1.2765198" d="M421 473.48c1.13-2.31 1.14-7.93 1.14-7.93s.63 6.7 2.28 9.22"/><path stroke="#FFF" stroke-width="1.2765198" d="M422 463.52c.02 3.08-1 9.98-2.16 10.89"/><path stroke="#3F863F" stroke-width="1.0262217999999999" d="M434.33 474.91c-.97-1.87-1.12-6.4-1.12-6.4s-.34 5.42-1.62 7.49"/><path stroke="#FFF" stroke-width="1.0262217999999999" d="M433.27 466.84c.06 2.5 1.06 8.07 2.02 8.77"/><path stroke="#3F863F" stroke-width="1.2765198" d="M440.23 465.16c-1.23-2.28-1.39-7.88-1.39-7.88s-.44 6.7-2 9.26"/><path stroke="#FFF" stroke-width="1.2765198" d="M438.91 455.22c.07 3.1 1.33 9.94 2.5 10.8"/><path stroke="#3F863F" stroke-width="1.2765198" d="M415.06 453.06c1.15-2.3 1.15-7.91 1.15-7.91s.63 6.7 2.3 9.2"/><path stroke="#FFF" stroke-width="1.2765198" d="M416.07 443.08c.02 3.08-1 9.98-2.15 10.9"/><path stroke="#3F863F" stroke-width="1.2765198" d="M394.26 460.5c-1.22-2.32-1.39-7.92-1.39-7.92s-.42 6.7-2 9.25"/><path stroke="#FFF" stroke-width="1.2765198" d="M392.93 450.52c.07 3.1 1.32 9.97 2.5 10.82"/><path stroke="#3F863F" stroke-width="1.2765198" d="M381.26 452.48c1.14-2.34 1.15-7.93 1.15-7.93s.63 6.7 2.29 9.2"/><path stroke="#FFF" stroke-width="1.2765198" d="M382.25 442.5c.02 3.09-1 9.98-2.14 10.9"/><path stroke="#3F863F" stroke-width="1.2765198" d="M398.53 451.9c-1.21-2.3-1.39-7.89-1.39-7.89s-.43 6.7-2 9.25"/><path stroke="#FFF" stroke-width="1.2765198" d="M397.21 441.96c.08 3.08 1.32 9.95 2.5 10.8"/><path stroke="#3F863F" stroke-width="1.0262217999999999" d="M407.48 450.93c.92-1.89.92-6.42.92-6.42s.53 5.4 1.87 7.45"/><path stroke="#FFF" stroke-width="1.0262217999999999" d="M408.3 442.83c.02 2.5-.81 8.1-1.74 8.84"/><path stroke="#3F863F" stroke-width="1.1388559" d="M488.01 461.3c1.03-2.07 1.03-7.12 1.03-7.12s.57 6.04 2.07 8.28"/><path stroke="#FFF" stroke-width="1.1388559" d="M488.91 452.35c.03 2.77-.9 8.97-1.94 9.8"/><path stroke="#3F863F" stroke-width="1.2765198" d="M503.2 461.06c1.16-2.3 1.16-7.94 1.16-7.94s.62 6.7 2.29 9.2"/><path stroke="#FFF" stroke-width="1.2765198" d="M504.2 451.08c.02 3.05-1 9.98-2.15 10.89"/><path stroke="#3F863F" stroke-width="1.0262217999999999" d="M517.6 473.22c-.97-1.86-1.1-6.4-1.1-6.4s-.34 5.42-1.63 7.51"/><path stroke="#FFF" stroke-width="1.0262217999999999" d="M516.53 465.15c.06 2.51 1.07 8.03 2.02 8.77"/><path stroke="#3F863F" stroke-width=".9261026" d="M532.38 483.1c-.9-1.67-1.03-5.77-1.03-5.77s-.31 4.89-1.46 6.77"/><path stroke="#FFF" stroke-width=".9261026" d="M531.4 475.87c.06 2.26.98 7.24 1.83 7.88"/><path stroke="#3F863F" stroke-width="1.2765198" d="M526.4 476.85c1.16-2.35 1.16-7.93 1.16-7.93s.64 6.68 2.29 9.18"/><path stroke="#FFF" stroke-width="1.2765198" d="M527.4 466.84c.03 3.09-1 10-2.13 10.92"/><path stroke="#3F863F" stroke-width="1.2765198" d="M533.85 463.07c-1.21-2.25-1.39-7.88-1.39-7.88s-.42 6.7-2 9.26"/><path stroke="#FFF" stroke-width="1.2765198" d="M532.54 453.13c.07 3.1 1.33 9.93 2.49 10.83"/><path stroke="#3F863F" stroke-width="1.2765198" d="M506.72 473.55c1.15-2.3 1.15-7.91 1.15-7.91s.63 6.7 2.3 9.2"/><path stroke="#FFF" stroke-width="1.2765198" d="M507.73 463.57c.02 3.08-1.01 9.98-2.15 10.89"/><path stroke="#3F863F" stroke-width="1.2765198" d="M539.06 472.23c-1.23-2.28-1.39-7.88-1.39-7.88s-.41 6.67-2 9.22"/><path stroke="#FFF" stroke-width="1.2765198" d="M537.73 462.28c.08 3.1 1.32 9.96 2.5 10.82"/><path stroke="#3F863F" stroke-width="1.2765198" d="M568.6 459.18c-1.22-2.28-1.4-7.89-1.4-7.89s-.4 6.71-1.98 9.27"/><path stroke="#FFF" stroke-width="1.2765198" d="M567.28 449.25c.08 3.08 1.34 9.94 2.52 10.82"/><path stroke="#3F863F" stroke-width="1.2765198" d="M540.46 449.98c1.14-2.32 1.14-7.9 1.14-7.9s.64 6.66 2.29 9.16"/><path stroke="#FFF" stroke-width="1.2765198" d="M541.46 440c.03 3.08-1 9.98-2.14 10.9"/><path stroke="#3F863F" stroke-width="1.2765198" d="M565.33 473.93c1.15-2.3 1.15-7.9 1.15-7.9s.62 6.69 2.29 9.2"/><path stroke="#FFF" stroke-width="1.2765198" d="M566.34 464c.03 3.05-1 9.93-2.15 10.88"/><path stroke="#3F863F" stroke-width="1.2765198" d="M583.65 453.07c1.15-2.3 1.15-7.93 1.15-7.93s.64 6.7 2.3 9.22"/><path stroke="#FFF" stroke-width="1.2765198" d="M584.66 442.92c.02 3.08-1.01 9.98-2.15 10.89"/><path stroke="#3F863F" stroke-width="1.2765198" d="M550.85 477.26c-1.22-2.28-1.4-7.88-1.4-7.88s-.42 6.7-2 9.25"/><path stroke="#FFF" stroke-width="1.2765198" d="M549.52 467.34c.08 3.06 1.33 9.93 2.5 10.8"/><path stroke="#3F863F" stroke-width="1.2765198" d="M549.36 459.12c1.15-2.32 1.15-7.91 1.15-7.91s.64 6.67 2.29 9.2"/><path stroke="#FFF" stroke-width="1.2765198" d="M550.37 449.14c.03 3.08-1.01 9.98-2.15 10.89"/><path stroke="#3F863F" stroke-width="1.0262217999999999" d="M558.22 464.25c-.99-1.84-1.13-6.4-1.13-6.4s-.35 5.45-1.61 7.52"/><path stroke="#FFF" stroke-width="1.0262217999999999" d="M557.14 456.2c.07 2.52 1.07 8.05 2.02 8.77"/><path stroke="#3F863F" stroke-width="1.2765198" d="M530.9 446.9c1.14-2.3 1.14-7.93 1.14-7.93s.65 6.7 2.29 9.2"/><path stroke="#FFF" stroke-width="1.2765198" d="M531.9 436.93c.03 3.05-1 9.97-2.15 10.88"/><path stroke="#3F863F" stroke-width="1.2765198" d="M574.16 459.88c1.15-2.33 1.15-7.94 1.15-7.94s.64 6.69 2.3 9.2"/><path stroke="#FFF" stroke-width="1.2765198" d="M575.18 449.9c.02 3.1-1.02 10-2.16 10.9"/><path stroke="#3F863F" stroke-width="1.2765198" d="M559.76 479.43c-1.22-2.3-1.39-7.9-1.39-7.9s-.43 6.7-2 9.25"/><path stroke="#FFF" stroke-width="1.2765198" d="M558.44 469.47c.08 3.1 1.32 9.96 2.5 10.82"/><path stroke="#3F863F" stroke-width="1.0262217999999999" d="M557.08 449.9c.93-1.87.93-6.43.93-6.43s.51 5.43 1.86 7.45"/><path stroke="#FFF" stroke-width="1.0262217999999999" d="M557.9 441.82c0 2.5-.82 8.07-1.76 8.81"/><path stroke="#3F863F" stroke-width="1.2765198" d="M516.04 435.43c1.16-2.35 1.14-7.95 1.14-7.95s.64 6.7 2.3 9.2"/><path stroke="#FFF" stroke-width="1.2765198" d="M517.05 425.43c.02 3.07-1 9.97-2.16 10.88"/><path stroke="#3F863F" stroke-width=".9261026" d="M550.7 443.6c-.9-1.67-1.02-5.77-1.02-5.77s-.3 4.9-1.46 6.77"/><path stroke="#FFF" stroke-width=".9261026" d="M549.73 436.36c.05 2.23.97 7.24 1.83 7.88"/><path stroke="#3F863F" stroke-width="1.1388559" d="M576.7 445.7c-1.1-2.07-1.26-7.1-1.26-7.1s-.38 6.02-1.79 8.31"/><path stroke="#FFF" stroke-width="1.1388559" d="M575.5 436.75c.08 2.77 1.2 8.95 2.26 9.74"/><path stroke="#3F863F" stroke-width="1.2765198" d="M528.5 434.25c-1.22-2.3-1.4-7.89-1.4-7.89s-.42 6.7-1.98 9.25"/><path stroke="#FFF" stroke-width="1.2765198" d="M527.17 424.32c.09 3.07 1.33 9.93 2.5 10.82"/><path stroke="#3F863F" stroke-width="1.2765198" d="M505 432.76c-1.22-2.3-1.38-7.88-1.38-7.88s-.44 6.7-2 9.24"/><path stroke="#FFF" stroke-width="1.2765198" d="M503.67 422.82c.08 3.07 1.34 9.94 2.51 10.8"/><path stroke="#3F863F" stroke-width=".9261026" d="M540.67 433.8c-.87-1.67-1.01-5.77-1.01-5.77s-.31 4.9-1.46 6.77"/><path stroke="#3F863F" stroke-width="1.0262217999999999" d="M559.4 437.97c.93-1.88.93-6.42.93-6.42s.53 5.39 1.87 7.44"/><path stroke="#FFF" stroke-width="1.0262217999999999" d="M560.22 429.9c.01 2.48-.81 8.07-1.75 8.8"/><path stroke="#3F863F" stroke-width="1.2765198" d="M567.32 443.05c-1.23-2.28-1.4-7.89-1.4-7.89s-.42 6.7-2 9.25"/><path stroke="#FFF" stroke-width="1.2765198" d="M566 433.12c.1 3.07 1.33 9.93 2.5 10.79"/><path stroke="#3F863F" stroke-width="1.2640049" d="M564.16 431.4c1.04-2.08 1.04-7.11 1.04-7.11s.57 6.02 2.07 8.26"/><path stroke="#3F863F" stroke-width="1.1388559" d="M582.71 465.47c1.03-2.07 1.03-7.14 1.03-7.14s.57 6.02 2.07 8.27"/><path stroke="#FFF" stroke-width="1.1388559" d="M583.62 456.48c.02 2.77-.9 9-1.94 9.8"/><path stroke="#3F863F" stroke-width="1.2765198" d="M547.27 433.46c1.14-2.33 1.14-7.92 1.14-7.92s.64 6.7 2.29 9.2"/><path stroke="#FFF" stroke-width="1.2765198" d="M548.26 423.47c.02 3.1-1 9.99-2.16 10.92"/><path stroke="#3F863F" stroke-width="1.0262217999999999" d="M544.04 468.59c.93-1.89.93-6.42.93-6.42s.52 5.4 1.85 7.45"/><path stroke="#FFF" stroke-width="1.0262217999999999" d="M544.85 460.5c.03 2.48-.8 8.06-1.74 8.8"/><path stroke="#3F863F" stroke-width=".9261026" d="M571.46 430.92c.84-1.69.84-5.77.84-5.77s.46 4.86 1.68 6.67"/><path stroke="#3F863F" stroke-width="1.0262217999999999" d="M557.2 430.48c-1-1.84-1.12-6.4-1.12-6.4s-.34 5.43-1.63 7.52"/><path stroke="#FFF" stroke-width="1.0262217999999999" d="M556.13 422.42c.06 2.52 1.06 8.07 2.03 8.8"/><path stroke="#3F863F" stroke-width="1.0262217999999999" d="M579.95 439.27c.92-1.87.92-6.42.92-6.42s.51 5.44 1.85 7.44"/><path stroke="#FFF" stroke-width="1.0262217999999999" d="M580.75 431.2c.02 2.51-.8 8.08-1.74 8.83"/><path stroke="#3F863F" stroke-width="1.1388559" d="M580.88 429.3c-1.08-2.1-1.25-7.13-1.25-7.13s-.39 6.05-1.8 8.35"/><path stroke="#FFF" stroke-width="1.1388559" d="M579.7 420.32c.08 2.79 1.2 8.95 2.26 9.75"/><path stroke="#3F863F" stroke-width="1.2765198" d="M591 434.35c1.16-2.34 1.15-7.94 1.15-7.94s.64 6.69 2.3 9.19"/><path stroke="#FFF" stroke-width="1.2765198" d="M592.01 424.35c.01 3.12-1.01 10.01-2.15 10.92"/><path stroke="#3F863F" stroke-width="1.2765198" d="M601.12 456.68c-1.21-2.28-1.39-7.89-1.39-7.89s-.42 6.7-2 9.26"/><path stroke="#FFF" stroke-width="1.2765198" d="M599.8 446.75c.07 3.1 1.32 9.94 2.5 10.8"/><path stroke="#3F863F" stroke-width="1.1388559" d="M591.53 462.2c1.03-2.07 1.04-7.11 1.04-7.11s.57 6.02 2.07 8.26"/><path stroke="#FFF" stroke-width="1.1388559" d="M592.45 453.22c.02 2.78-.9 8.97-1.95 9.81"/><path stroke="#3F863F" stroke-width="1.1388559" d="M591.82 446.39c1.03-2.1 1.03-7.15 1.03-7.15s.57 6.02 2.06 8.26"/><path stroke="#FFF" stroke-width="1.1388559" d="M592.74 437.39c0 2.78-.92 9.01-1.96 9.84"/><path stroke="#228B22" stroke-width="1.1388559" d="M604.11 428.64c-1.11-2.06-1.25-7.1-1.25-7.1s-.38 6.03-1.8 8.33"/><path stroke="#FFF" stroke-width="1.1388559" d="M602.92 419.7c.07 2.78 1.2 8.94 2.26 9.74"/><path stroke="#3F863F" stroke-width="1.2765198" d="M599.34 443.12c1.17-2.34 1.15-7.93 1.15-7.93s.63 6.7 2.3 9.2"/><path stroke="#FFF" stroke-width="1.2765198" d="M600.36 433.13c.02 3.07-1.02 9.97-2.16 10.9"/><path stroke="#3F863F" stroke-width="1.0262217999999999" d="M606.58 453.3c.92-1.86.94-6.41.94-6.41s.5 5.42 1.85 7.45"/><path stroke="#FFF" stroke-width="1.0262217999999999" d="M607.4 445.24c.02 2.5-.81 8.07-1.74 8.8"/><path stroke="#3F863F" stroke-width="1.0262217999999999" d="M609.14 441c-1-1.87-1.12-6.4-1.12-6.4s-.34 5.42-1.63 7.48"/><path stroke="#FFF" stroke-width="1.0262217999999999" d="M608.05 432.92c.07 2.52 1.08 8.07 2.02 8.78"/><path stroke="#228B22" stroke-width="1.2640049" d="M611.82 427.74c1.15-2.35 1.15-7.93 1.15-7.93-.01 0 .63 6.7 2.28 9.18"/><path stroke="#FFF" stroke-width="1.2765198" d="M612.82 417.73c.03 3.12-1 10.01-2.15 10.92"/><path stroke="#3F863F" stroke-width="1.1388559" d="M621.73 440.07c1.04-2.08 1.04-7.15 1.04-7.15s.56 6.02 2.07 8.27"/><path stroke="#FFF" stroke-width="1.1388559" d="M622.65 431.07c.02 2.78-.9 8.97-1.93 9.8"/><path stroke="#3F863F" stroke-width="1.1388559" d="M615.54 441.97c-1.1-2.06-1.25-7.1-1.25-7.1s-.4 6.02-1.8 8.31"/><path stroke="#FFF" stroke-width="1.1388559" d="M614.35 433.02c.07 2.8 1.19 8.95 2.25 9.74"/><path stroke="#3F863F" stroke-width="1.2765198" d="M613.89 411.18c-1.22-2.27-1.4-7.88-1.4-7.88s-.42 6.68-2 9.25"/><path stroke="#FFF" stroke-width="1.2765198" d="M612.56 401.26c.09 3.07 1.33 9.92 2.5 10.8"/><path stroke="#3F863F" stroke-width="1.2765198" d="M619.8 427.54c1.16-2.3 1.16-7.93 1.16-7.93s.63 6.7 2.29 9.22"/><path stroke="#FFF" stroke-width="1.2765198" d="M620.8 417.57c.03 3.08-1 9.97-2.15 10.88"/><path stroke="#3F863F" stroke-width="1.1388559" d="M638 424.89c1.04-2.08 1.04-7.12 1.04-7.12s.58 6 2.07 8.26"/><path stroke="#FFF" stroke-width="1.1388559" d="M638.92 415.9c.02 2.78-.92 8.99-1.94 9.81"/><path stroke="#3F863F" stroke-width="1.1388559" d="M631.27 422.6c-1.09-2.07-1.25-7.1-1.25-7.1s-.37 6.02-1.8 8.35"/><path stroke="#FFF" stroke-width="1.1388559" d="M630.08 413.65c.08 2.79 1.19 8.95 2.25 9.75"/><path stroke="#3F863F" stroke-width=".9261026" d="M631.66 434.5c-.9-1.67-1.02-5.77-1.02-5.77s-.31 4.9-1.46 6.77"/><path stroke="#FFF" stroke-width=".9261026" d="M630.7 427.24c.06 2.25.96 7.26 1.8 7.9"/><path stroke="#3F863F" stroke-width="1.2765198" d="M619.45 410.2c1.14-2.32 1.14-7.95 1.14-7.95s.64 6.7 2.3 9.2"/><path stroke="#FFF" stroke-width="1.2765198" d="M620.46 400.23c.02 3.08-1 9.98-2.16 10.9"/><path stroke="#3F863F" stroke-width="1.2765198" d="M626.51 408.16c1.14-2.32 1.13-7.91 1.13-7.91s.65 6.67 2.3 9.17"/><path stroke="#FFF" stroke-width="1.2765198" d="M627.51 398.18c.03 3.05-1 9.98-2.15 10.89"/><path stroke="#3F863F" stroke-width="1.1388559" d="M636.85 412.17c-1.1-2.06-1.25-7.13-1.25-7.13s-.39 6.06-1.82 8.36"/><path stroke="#FFF" stroke-width="1.1388559" d="M635.66 403.24c.06 2.76 1.2 8.94 2.25 9.72"/><path stroke="#3F863F" stroke-width="1.1388559" d="M644.28 408.53c-1.08-2.06-1.25-7.1-1.25-7.1s-.37 6.02-1.79 8.31"/><path stroke="#FFF" stroke-width="1.1388559" d="M643.1 399.6c.07 2.79 1.18 8.94 2.25 9.73"/><path stroke="#3F863F" stroke-width="1.1388559" d="M648.33 410.26c1.02-2.1 1.04-7.14 1.04-7.14s.57 6 2.06 8.26"/><path stroke="#FFF" stroke-width="1.1388559" d="M649.24 401.26c.03 2.78-.91 9-1.95 9.84"/><path stroke="#3F863F" stroke-width="1.0262217999999999" d="M656.54 407.63c-1-1.84-1.14-6.37-1.14-6.37s-.34 5.42-1.63 7.48"/><path stroke="#FFF" stroke-width="1.0262217999999999" d="M655.46 399.57c.06 2.52 1.08 8.07 2.02 8.8"/><path stroke="#3F863F" stroke-width="1.2765198" d="M367.52 437.75c1.15-2.35 1.15-7.93 1.15-7.93s.64 6.68 2.28 9.18"/><path stroke="#FFF" stroke-width="1.2765198" d="M368.52 427.75c.02 3.1-1 10.02-2.17 10.93"/><path stroke="#3F863F" stroke-width="1.2765198" d="M359.36 436.19c-1.24-2.25-1.4-7.89-1.4-7.89s-.42 6.71-2 9.27"/><path stroke="#FFF" stroke-width="1.2765198" d="M358.03 426.26c.08 3.1 1.33 9.93 2.5 10.83"/><path stroke="#3F863F" stroke-width="1.0262217999999999" d="M353.15 431.4c-.98-1.87-1.14-6.39-1.14-6.39s-.34 5.42-1.6 7.47"/><path stroke="#FFF" stroke-width="1.0262217999999999" d="M352.09 423.35c.07 2.48 1.06 8.06 2.02 8.76"/><path stroke="#3F863F" stroke-width="1.2765198" d="M343.58 426.71c1.13-2.3 1.12-7.9 1.12-7.9s.64 6.7 2.3 9.2"/><path stroke="#FFF" stroke-width="1.2765198" d="M344.56 416.74c.03 3.08-1 9.97-2.15 10.89"/><path stroke="#3F863F" stroke-width="1.2765198" d="M329.28 408.6c1.14-2.31 1.13-7.9 1.13-7.9s.63 6.7 2.3 9.2"/><path stroke="#FFF" stroke-width="1.2765198" d="M330.29 398.63c.02 3.08-1 9.98-2.16 10.89"/><path stroke="#3F863F" stroke-width=".9261026" d="M325.62 401.3c-.9-1.68-1.03-5.75-1.03-5.75s-.3 4.87-1.45 6.72"/><path stroke="#FFF" stroke-width=".9261026" d="M324.67 394.04c.05 2.25.96 7.26 1.82 7.9"/></g><g><path fill="#3F863F" stroke="#000" stroke-width="1.2765198" d="M352 360.6c-.48 5.22-.29 11.84 2.05 17.5a55.03 55.03 0 00-22.69-11.8c-4.73-4.59-9.63-21.28-7.87-27.25 9.01-.55 26.64 14.29 28.5 21.55h0zM369.04 395.03c-8.18-5.35-15.69-6.9-33.97-6.44 2.77 10.24 30.63 22.48 35.28 21.63-.4-1.76-1.77-13.58-1.3-15.2h0z"/><path fill="#3F863F" stroke="#000" stroke-width="1.2765198" d="M368.96 394.75c-23.7-10.51-17.35-44.63-13.16-48.6 11.7 6.45 12.7 21.56 14.18 25.57-1.02 8.69-1.2 16.41-1.02 23.03h0z"/><path fill="#3F863F" stroke="#000" stroke-width="1.2765198" d="M364.69 392.4c-5.66-4.1-9.1-9.04-10.55-14.1-6.98-6.31-17.75-12.67-31.49-13.15.26 11.13 9.55 21.47 15.03 23.43 8.91.01 18.11-.44 27.02 3.86l-.01-.04h0zM461.24 442.37c-3.9 4.3-17.2 17.9-40.4 7.72 3.43-4 6.31-4.48 8.45-4.74 7.43.75 17.47-2.22 23.23-6.9 2.88 1.5 7.88 3.73 8.72 3.92h0z"/><path fill="#3F863F" stroke="#000" stroke-width="1.2765198" d="M460.6 428.12c-6.87-4.58-14.11-4.02-21.17-6.17-.77 13.95 21.29 19.47 23.2 21.07 2.32-1.21 7.43-2.39 10.88-2.13-2.6-1.97-9.94-5.69-12.9-12.77h0z"/><path fill="#3F863F" stroke="#000" stroke-width="1.2765198" d="M504.9 442.22c2.98-.09 12.07-2.21 14.67-.19 2.6 2.07 7.8 8.01 3.7 12.13-4.08 4.1-7.8-1.68-9.47-2.63-1.67-.92-7.04-6.52-28.97-2.26-9.57 1.86-9.58 8.04-20.55 10.26-8 1.63-9.02.1-18.2-.2 3.81-4.66 6.88-7.46 10.4-12.3 3.55-4.86 13.86-6.31 17.01-6.15-4.74-3.24-15.78-8.1-15.85-27.32 7.24 1.68 15.88 3.43 26.25 23.78-3.98-8.56-11.21-17.45-14.38-18.85-.71-.3.38-12.56 1.7-14.63 7.79 8.3 8.9 8.45 12.8 12.33 5.67 5.6 4.64 13.8 7.62 18.45 3.06 4.86 9.36 7.68 13.26 7.58h0z"/><path fill="#3F863F" stroke="#000" stroke-width="1.2765198" d="M452.5 438.45c-3.06 2.52-17 11.1-33.35 4.57 9.03-11.39 14.68-11.57 24.36-10.99 2.23 2.23 5.65 5.03 9 6.42h0zM370.33 410.22c-1.02-.59-13.38 1.03-15.14 3.73.56 4.84 13.83 12.21 17.55 11.2-.65-4.1-2.5-13.14-2.4-14.93h0z"/><path fill="none" stroke="#000" stroke-width="1.2765198" d="M520.94 446.71c1.3 1.86.7 6.21-2.7 4.16m.4.14c2.51.37 2.87-2.33 2.5-3.9"/><path fill="none" stroke="#3F863F" stroke-width="1.2765198" d="M521.15 445.66c3.98 7.59-2.05 7.47-3.82 4.6"/><path fill="none" stroke="#000" stroke-width="1.126341" d="M475.12 414.74c1.11 3.76 8.22 12.02 9.71 17.28m-20.94-9.77c1.12 2.26 8.59 10.91 13.08 14.3m-29.56-7.9c1.12 1.1 9.35 7.88 17.21 10.13m-19.84-1.87c-3.36-.4-12.72 0-17.97 4.13m23.58 3.36c-2.99.75-14.22 1.9-20.21 4.9m46.03-3.36c-8.97.72-13.12 8.24-20.59 9.75m-98.7-100.01c0 3.38.72 21.04 5.97 25.93m-35.52-36.07c2.24 8.63 15.7 15.4 16.82 20.67m17.53 49.97c2.26-.74 6.36-1.12 8.99 1.12m-26.9-24.81c3.36.02 19.81 3.78 24.67 10.92m-39.65-31.95c4.12 1.48 18.71 10.14 22.07 16.93"/></g><g><path fill="#FFF" stroke="#000" stroke-width="1.0262217999999999" d="M303.7 347.6c3.07.93 11.7.87 14.5-5 .8-1.71.75-5.03 3.35-8.38 2.6-3.36 6.55-4 7.17-8.11 1.13-7.46-7.25-6.46-8.9-10.64-1.41-3.53.38-4.57 4.1-5.42 2.41-.52 9.94 2.33 26.16 8.97 11.9 4.86 22.67 1.88 26.3-.55 4.12-2.74 7.9-10.62 14.97-16.94 1.2-1.08 17.1-6.35 22.67-16.05 2.77-4.8 6.35-21.62-8.14-32.45-14.47-10.82-34.9-17.92-43.43-21.66-8.55-3.73-21.3-5.88-22.74-16.6-.65-4.76 3.43-6.67 6.8-6.55 4.44.21 10.27 1.85 13.8 2.19 2.6.27 11.45 1.39 12.84-6.91a9.79 9.79 0 01-1.49-2.04c-.29 1.48-1.03 4.54-6.97 4.17-7.12-.45-14.4-5.1-19.91-5.08-6.67 0-11.3 3.59-17.97 5.45-6.45 1.8-14.28 1.3-17.84 7.81-2.24 4.1-4.1 18.66 6.66 29.1 10.75 10.47 16.77 15.47 41.94 25.03 18.48 7 23.06 10.84 25.3 13.46 2.23 2.62 2.13 5.12 1.25 6.14-1.1 1.3-6.78 2.51-21.07-3.65-12.88-5.54-23.2-6.37-29.15-6.35-5.94-.03-22.39 2.98-25.27 8.76-3.34 6.7-.75 8.2-.1 18.17.17 2.83-.62 6.7.9 10.17 1.12 2.52 3.8 5.49 5.75 6.32 5.84 2.52 3.6 5.44 1.75 7.66-1.85 2.23-4.45 6.44-3.82 9.99.94 5.3-9.4 8.99-9.4 8.99h0zM487.6 93.12c-6.42 2.44-7.64 1.47-9.85 3.24-3.63 2.89-6.62 6.06-7.45 4.75-1.1-1.77 9.51-3.61 11.71-10.32 1.77-5.43-.63-6.45-1.92-15.33-2-13.7-8.64-16.05-13.47-14.56-4.83 1.52-17.85 7.94-39.02 15.28-14.9 5.17-38.91 7.76-43.12 15.27-1.66 3-6.7 15.35 10.4 27.62 3.88 2.8 5.09 3.56 14.94 6.81-5.99-.91-14.06-3.38-33.47-2.05-35.35 2.45-72.6 35.2-68.1 61.2 1.1 6.42 9.37 3.84 16.06 4.94 6.69 1.13 7.7 4.28 12.53 3.5 4.83-.75 5.66-8.04 10.5-8.78 4.83-.74 4.46 4.12 9.65 4.1 5.2.02 9.5-8.76 13.23-8.38-1.85-.75-2.24-.65-3.54-.83-3.32 2.63-7.53 3.63-10.13 2.13-2.59-1.48-3.4-3.82-7.22-3.8-2.23-.03-4.45 1.17-9.1 4.55 3.9-4.75 20.58-30.1 56.12-22.73 16.24 3.37 18.2-1.75 18.95-4.38.75-2.6-.74-6.88 0-13.86.62-5.68 4.11-9.71 2.99-13.46-1.12-3.71-3.02-5.64-9.28-7.72-2.77-.94-2.51-2.28-1.31-3.3 1.23-1.1 5.12-1.25 7.9-1.74 4.9-.8 29.18-6.77 45.45-17 8.41-5.3 13.2-10.95 13.58-7.62.26 2.32-12.18 3.97-11.83 9.48.15 2.34.33 6 7.16 6.52 4.92.38 7.94-3.1 11.33-6.05 4.07-3.57 5.64-4.6 6.3-7.48h0z"/><path fill="#BE0A2F" stroke="#000" stroke-width="1.0262217999999999" d="M361.06 234.95c-18.05-7.54-31.9-14.9-22.59-28.87-10.71 5.37-28.73 1.79-27.66 15.8 3.52 45.95 87.36 37.06 79.9 74.64 19.02-2.65 36.29-31.45 4.49-46.23a1074.63 1074.63 0 00-34.14-15.34h0zm49.85-104.5c3.24.8-.25 6.48-1.2 11.94-.6 3.57 2.62 10.77-.3 12.4-9.97 5.5-51.12-16-74.48 30.52-2.68 5.34-7.59.02-11.88-.38-7.46-.73-13.05.72-11.01-5.42 17.58-53.14 73.17-55.33 98.87-49.06h0zm43.86-60.64c6.67-2.84 12.15-5.11 15.64-4.08 6.99 2.1 5.2 16.44 7.71 19.73-4.14-1.4-10.88 3.13-18.47 8.12-6 3.94-12.96 7.76-19.15 10.21-4.85 1.92-12.1 4.1-18.9 5.53-11.7 2.47-22.36 4.2-19.45 9.23-4.46-1.65-18.58-11.05-14.55-21.8 2.24-5.97 10.3-8.6 19.7-11 9.4-2.37 17.67-4.22 26.25-7.48 8.6-3.31 14.53-5.56 21.22-8.46h0zM317.33 284.14c31.97-11.9 47.8 11.92 69.36 8.23.38 9.67-7.92 26.8-24.65 25.67-11.6-.77-39.71-21.84-48.9-4.72-.35-12.3-7.2-24.93 4.2-29.18h0z"/><path d="M324.03 290.48c-.59-.73-1.25-1.04-2.22-.9-1 .15-2.01 1-1.86 2.12.15.98 1.2 1.37 2.04 1.57l.96.21c1.92.44 3.4 1.25 3.72 3.4a3.97 3.97 0 01-3.5 4.55 4 4 0 01-4.44-3l1.57-.56c.19 1.4 1.44 2.24 2.81 2.06 1.37-.2 2.18-1.5 1.98-2.83-.19-1.37-1.38-1.8-2.54-2.1l-.93-.24c-1.52-.43-2.96-1.05-3.22-2.83-.3-2.05 1.32-3.57 3.25-3.83 1.4-.2 2.67.31 3.54 1.45l-1.16.93M335.07 300.78l-1.6-.14.87-11.4-3.04-.23.11-1.45 7.69.59-.12 1.46-3.04-.22-.87 11.39M343.34 298.95l-2.5 2.48-1.62-.62 10.46-10.36 1.02 14.72-1.62-.61-.24-3.53-5.5-2.08zm5.12-5.2l-3.97 4.06 4.27 1.6-.3-5.67M357.24 307.57l-1.51-.5 3.58-10.8-2.9-.96.48-1.4 7.29 2.44-.47 1.37-2.88-.96-3.56 10.8M367.7 297.41l6.84.84-.18 1.46-5.24-.66-.44 3.58 5.1.63-.18 1.46-5.1-.64-.6 4.83 5.26.65-.17 1.47-6.84-.84 1.55-12.77"/><g><path d="M397.14 280.94c-.56.55-.78 1.16-.56 1.95.2.87 1.02 1.63 1.95 1.4.84-.2 1.05-1.13 1.14-1.86l.1-.84c.21-1.64.75-3 2.51-3.44a3.37 3.37 0 014.17 2.55 3.4 3.4 0 01-2.14 4.03l-.61-1.27a2.05 2.05 0 001.49-2.57c-.3-1.14-1.45-1.7-2.57-1.41-1.14.28-1.4 1.32-1.55 2.34l-.11.8c-.22 1.35-.63 2.63-2.1 2.99-1.72.44-3.13-.81-3.53-2.43-.3-1.19.02-2.3.9-3.14l.91.9M392.68 266.32a5.67 5.67 0 017.96 1.44 5.71 5.71 0 11-9.34 6.56 5.78 5.78 0 011.38-8zm.8 1.12a4.35 4.35 0 00-1.15 6.13 4.3 4.3 0 006.14 1.05 4.42 4.42 0 001.14-6.13 4.4 4.4 0 00-6.14-1.05M388.72 259.9l-7.49 4.45-1.19-.9 10.77-6.27-3.23 12.06-1.19-.91 2.33-8.44M378.2 262.5l-5.13-2.87.6-1.08 3.95 2.2 1.49-2.69-3.83-2.14.6-1.09 3.83 2.13 2-3.63-3.93-2.19.6-1.09 5.13 2.86-5.3 9.6M368.44 245.41l1.52.66 1.04 5.57.52.23 1.9-4.23 1.23.56-4.48 10-1.5-.67a5.71 5.71 0 01-2.42-1.67 3 3 0 01-.23-2.96 2.99 2.99 0 013.65-1.73l-1.23-5.76zm2.6 7.5l-.4-.19c-1.27-.58-2.75-.96-3.46.64-.7 1.56.68 2.45 1.91 3l.34.15 1.62-3.6M361.67 254.51l-5.43-2.25.48-1.14 4.16 1.71 1.17-2.83-4.04-1.67.46-1.15 4.05 1.66 1.57-3.82-4.17-1.72.48-1.17 5.43 2.25-4.16 10.14M356.02 240.3l1.26.52-4.2 10.14-1.26-.52 4.2-10.13M341.2 239.8l.17-.4c1.25-2.75 4.13-3.98 6.92-2.7a5.68 5.68 0 012.7 7.47 5.7 5.7 0 01-10.72-.89l1.24-.43a4.37 4.37 0 002.4 3.05 4.37 4.37 0 005.81-2.25c.95-2.1.13-4.86-2.03-5.85-1.54-.7-3.8-.12-4.59 1.48l2.57 1.18-.5 1.13-3.97-1.79M334.67 243.1l-1.93-11.78-4.57 6.7-1.13-.77 6.45-9.43 1.91 11.78 4.62-6.75 1.13.77-6.48 9.49M329.6 223.72l.85 1.1-7.69 5.95 1.6 2.06-1 .77-4.01-5.22.99-.75 1.59 2.06 7.68-5.97M317.33 224.94l-.57-1.47 3.36-4.23-5.33-.79-.57-1.46 7.05 1.08 4.43-1.76.5 1.28-4.42 1.73-4.45 5.62"/></g><g><path d="M317.5 175.06l12.36-1.91-6.97-4.88.82-1.16 9.83 6.87-12.37 1.9 7.03 4.93-.82 1.18-9.89-6.93M335.3 167.1l1.1 2.98-1.1 1.1-4.49-12.42 12.32 4.72-1.1 1.06-2.96-1.13-3.77 3.7zm-2.3-6.09l1.8 4.74 2.92-2.87L333 161M347.54 160.13l-1.14.9-6.15-8.15-2.17 1.66-.79-1.05 5.49-4.17.78 1.05-2.16 1.64 6.14 8.12M354.2 155.68l-1.23.74-5.96-9.84 1.22-.75 5.97 9.85M366.44 143.51a6 6 0 01-3.23 7.89 5.92 5.92 0 01-7.86-3.22 6.01 6.01 0 0111.09-4.67zm-1.31.57a4.52 4.52 0 00-6.04-2.52 4.55 4.55 0 00-2.42 6.07 4.62 4.62 0 006.03 2.53 4.65 4.65 0 002.43-6.08M370.03 135.94l10.13 7.39-1.53-8.4 1.41-.25 2.16 11.81-10.13-7.37 1.54 8.46-1.41.28-2.17-11.92M388.25 142.89l-1.37 2.85-1.54-.02 5.76-11.93 5.23 12.17-1.54-.03-1.25-2.94-5.29-.1zm2.78-5.95l-2.15 4.65 4.1.09-1.95-4.71M401.47 145.54l3.45.59-.22 1.3-4.87-.84 1.97-11.39 1.41.24-1.74 10.1"/></g><g><path d="M398.1 95.55l1.67 7.18c.45 1.99 1.49 3.7 3.82 3.15 2.34-.54 2.5-2.51 2.04-4.5l-1.67-7.19 1.5-.36 1.8 7.7c.62 2.7-.56 5.13-3.35 5.8-2.78.64-4.92-1.02-5.54-3.71l-1.78-7.71 1.51-.34M411.42 91.77L423 98.79l-2.42-8.91 1.5-.4 3.4 12.55-11.6-7.05 2.44 9-1.5.43-3.41-12.64M433.46 98.96l-1.48.5-3.84-11.89 1.48-.48 3.84 11.87M448.99 84.82a6.43 6.43 0 01-2.55 8.84 6.4 6.4 0 01-8.84-2.52 6.55 6.55 0 012.55-8.84 6.5 6.5 0 018.84 2.52zm-1.35.75a4.9 4.9 0 00-6.79-2 4.93 4.93 0 00-1.91 6.82 4.97 4.97 0 108.7-4.82M450.9 75.97l12.77 4.5-4.17-8.22 1.38-.7 5.86 11.58-12.76-4.5 4.2 8.3-1.37.7-5.9-11.66"/></g><path fill="none" stroke="#000" stroke-width="1.3390943" d="M375.96 276.1c13.38 6.7 10.37 18.1 10.54 20.18"/></g><g><path fill="#785A3C" stroke="#000" stroke-width="1.3390943" d="M511.89 299.38c5.44 5.46 7.12 14.86 7.27 17.1.2 3.52.73 10.45-4.47 11.2-5.2.73-8.82-.67-10.86-1.97 0-1.5-1.55-3.62-2.38-3.88-1.7-.5-1.98-.88-3.48.01-.37.43-3.98-.25-4.9-1.44-3.33-4.37-3.77-19.45-13.63-27.83-5.93-5.03-7.34-6.9-24.5-14.53-34.4-15.36-55.81-55.6-57.99-58.62-2.79-3.83-7.68-8.83-11.05-9.7-15.7-4.12-15.88-11.39-16.34-15.68 3.9 6.44 19.32 11.59 18.57 8.2-.53-2.37-2.55-6.16-8.91-10.43-5.56-3.75-5.93-9.9-8.16-11-2.23-1.11-5.02-1.88-9.1-.95 7.07-14.93 24.53-5.38 24.53-5.38 4.46 4.46 8.65 9.22 11.33 11.2 2.97 2.16 4.69 5.25 17.64 8.38 17.44 2.8 29.8 5.72 34.44 6.75 1.43-2.68 1.8-22.02-1.17-26.48-2.97-4.48-7.05-7.47-9.28-17.19a169.92 169.92 0 00-8.9-27.6c-3.69-8.94 3-16.41 14.88-17.5 31.82-3 48.09 17.38 51.08 19.22"/><path fill="#785A3C" d="M511.71 301l40.85-32.47-47.94-33.6 7.1 66.07z"/><path fill="#D2B78C" stroke="#000" stroke-width="1.3390943" d="M551.46 267.93c18.42 20.8 36.06 62.18 36.76 67.63-.19 7.44-4.55 4.2-6.77 2.51-.1 3.46-4.93 3.43-7.35.45-1.11 4.5-6.32 3.1-9.29-.74.94 3.92-5.84 4.2-8.53-.02.73 2.73-4.38 1.58-5.93-.75-.02 1.5.26 3.83-4.1.75-4.81-7.1-35.89-39.91-34.36-38.38"/><path d="M519.76 296.13s10.93 11.57 12.43 13.36c1.5 1.8 4.12 5.92 1.68 7.87-2.8 2.25-8.05-2.63-8.61-3.18-.94-.96-18.23-20.02-18.23-20.02s21.87 25.75 25.98 22.56c4.32-3.34-12.89-20.2-13.25-20.59"/><path fill="none" stroke="#000" stroke-width="1.4266986" d="M550.32 337.06c0-5.4-13.84-22.98-17.2-26.53m23.16 27.25c-1.29-9.58-13.52-26.78-16.97-31.1m25.5 31.13c-1.03-6.67-11.02-27.18-15.88-33.2m25.17 33.94c-.69-4.55-13.28-30.55-18.8-36.93m26.35 36.46c.49-6.6-7.27-23.04-25.77-49.04"/><path fill="none" stroke="#FFF" stroke-width="1.4392135" d="M551.57 336.13c0-5.43-13.91-23.1-17.3-26.68m23.29 27.4c-1.3-9.63-13.6-26.92-17.07-31.3m25.65 31.33c-1.02-6.7-11.07-27.33-15.96-33.39m25.31 34.14c-.69-4.56-13.35-30.72-18.91-37.14m26.5 36.67c.48-6.63-7.31-23.17-25.92-49.34"/><path fill="none" stroke="#000" stroke-width="1.4266986" d="M545.6 274.83c.5.64 15.79 21.68 18.13 25.56 1.86 3.09 2.15 6.47.28 7.6-1.87 1.15-4.49-1.58-6.45-3.65-1.97-2.05-18.41-24.9-19.92-26.77-1.48-1.89 15.06 20.2 17.03 23.2 1.32 2.07 2.21 4.78 1.1 6.1-1.3 1.6-4.66.29-5.8-1.01a1231.5 1231.5 0 01-13.08-16.26c-.18-.37 10.3 12.48 11.5 14.38 1.3 2.04 1.68 5.36-.93 7.13-1.1.74-3.33-.55-5.95-2.76-5.7-4.8-11.9-13.88-14.8-16.32 3.18 2.84 7.96 9.21 11.03 12.68 3.12 3.51 3.65 6.58 1.58 7.9-2.05 1.32-4.58-.47-6.54-2.62-1.97-2.17-11.6-12.22-12.9-13.74-1.32-1.5 11.27 12 12.42 13.35"/><g><path fill="#D2B78C" d="M397.49 217.8l7.5 12.53 5.57 8.36v-10.31l8.9 1.68-2.5-10.6 10.83 1.4-5-7.81 8.9 1.67-5.29-8.92 10 2.52-7.22-8.65 12.23.56-16.4-3.34-10.56-1.68-16.96 22.58z"/><path fill="#BE0A2F" stroke="#000" stroke-width="1.2765198" d="M373.51 197.97c-.84-1.58.28-.84-1.49-3.27 5.28 2.9 8.46-1 13.18 2.35 1.21 1.4 3.44 4.75 2.7 5.77-1.12 1.97-10.5-1.77-14.39-4.85z"/><path fill="#FFF" stroke="#000" stroke-width="1.3390943" d="M397.01 219.52c-2.79-3.83-7.68-8.81-11.05-9.7-15.69-4.12-15.88-11.39-16.34-15.68 3.9 6.44 19.32 11.59 18.57 8.2-.52-2.37-2.55-6.17-8.9-10.43-5.57-3.75-5.94-9.9-8.17-11-2.23-1.11-5.02-1.88-9.1-.95 7.07-14.93 24.53-5.38 24.53-5.38 4.46 4.46 8.65 9.22 11.33 11.2 2.98 2.16 4.7 5.25 17.64 8.38"/><path fill="#FFB316" d="M386.83 175.63s-1.72 8.37 1.5 13.78c3.22 5.4 4.3 9.3 4.44 12.02.29 5.45-2.63 8.86-6 7.99-15.69-4.12-15.51-9.75-16.88-14.94 3.73 7.34 17.98 11.62 19.12 8.76.6-1.5-2.56-6.91-8.92-11.17-5.55-3.75-5.38-7.9-7.43-10.64-2.23-1.85-5.02-2.61-9.46-2.4 8.36-13.13 23.63-3.4 23.63-3.4z"/><path fill="#FFF" stroke="#000" stroke-width="1.3390943" d="M386.44 174.46c17.65-5.58 24.14 15.5 37.7 15.52-3.17 2.97-9.93 2.96-17.1 1.48-7.25-1.51-20.6-17-20.6-17h0z"/><path fill="#FFF" stroke="#000" stroke-width="1.0262217999999999" d="M395.34 191.27c2.78 2.24 10.4-.17 10.4-.17-6.67-3.18-12.05-9.15-12.05-9.15-2.24 5.78.02 8 1.65 9.32z"/><path d="M396.91 189c1.42 1.16 5.32-.08 5.32-.08a23.08 23.08 0 01-6.17-4.68c-1.81 1.9.02 4.1.85 4.8"/></g><g><path fill="#785A3C" stroke="#000" stroke-width="1.3390943" d="M456.75 278.88c-4.27.7-5.03 21.98 3.68 27.5.37-1.66 2.79-1.56 4.93.93.74.91.71 2.9.26 3.17 1.15 3.19 4.1 4.4 8.26 4.68 5.95.37 12.54-4.85 12.92-11.94-2.23-5.98-6.17-9.53-9.29-12.2-6.57-5.72-15.86-10.1-20.79-12.16l.03.02h0z"/><path fill="#FFB30F" stroke="#000" stroke-width="1.3390943" d="M466 309.39c0 2.61-5.94 4.09-1.86 8.58 4.08 4.46 3.72 4.1 6.31 5.22 2.6 1.13 7.81-.37 7.06 4.12-.75 4.45-6.88 3.17-8.92-.2-.98-1.6-3.72-4.84-7.44-3.92-3.21.81-3.71 1.48-5.2 4.86-1.5 3.34-2.62 5.57-5.58 3.71-2.97-1.87-1.1-3.74.75-5.59 1.85-1.88 2.96-2.6 2.59-4.48-.37-1.85-4.45-2.23-7.41-1.49-2.97.74-5.2-2.6-3.72-4.48 1.5-1.85 5.95-1.48 7.81 0 1.84 1.49 6.3 3.37 8.16 2.62 1.85-.73 1.49-9.33 1.87-11.93.4-2.64 5.59-.21 5.59 2.98h0zM503.52 324.44c1.59 4.25-5.12 9.3-1.04 13.78 4.08 4.5 8.33 2.94 11.14 2.62 1.67-.17 7.8-.35 7.05 4.11-.58 3.55-7.2 2.18-13 0-1.74-.66-5.76-2.22-8.72-.77-2.98 1.49-3.44 2.9-4.1 7.1-.56 3.62-3.44 5.39-6.4 3.51-2.97-1.86-1.87-3.72 0-5.6a8.46 8.46 0 002.14-6.89c-.38-1.86-4.46-2.23-7.44-1.49-2.96.72-5.19-2.6-3.7-4.48 1.49-1.85 5.95-1.49 7.8 0 1.86 1.5 6.32 3.37 8.18 2.62 1.84-.74 2.14-14.5 2.5-17.12 1.6-1.05 4.49-.4 5.59 2.59v.02h0z"/><path d="M469.05 290.38c2.44.94 7.5 6.2 8.61 10.7M468.11 298.29c1.88 1.47 3.92 4.68 4.86 7.5M459.7 295.26c.38 1.69 0 3.2 2.43 5.62M495.52 312.84c.17 3.94 5.9 4.9 6.26 6.86M491.31 301.39c2.52.09 6.36 1.11 7.58 5.44-1.88-3.55-6.64-5.28-7.58-5.44M513.58 323.5c-3.13-10.83-8.66-12.41-8.26-10.77 3.1 2.9 3.18 2.38 4.4 4.17 2.54 3.74 3.3 7.52 3.86 6.6M515.33 321.96c-.54-4.1-2.51-3.5-2.38-2.26.48.53 1.08 1.16 1.37 1.76.22.53.55 1.12 1.01.5M520.69 343.48c3.08-.2 4.36 3.04 3.8 4.93-1.39-3.07-3.72-2.53-4.45-2.05-.02-.02 1.21-1.6.65-2.88M479.26 336.73c-3.03-.47-4.64 2.63-4.26 4.55 1.67-2.95 3.95-2.16 4.63-1.6 0 0-1.04-1.7-.37-2.95M477.61 326.8c3.02.56 3.52 4.01 2.54 5.7-.62-3.3-3.01-3.33-3.85-3.04 0 0 1.56-1.28 1.31-2.65M442.28 316.5c-3.08-.03-4.2 3.3-3.55 5.13 1.22-3.14 3.58-2.73 4.35-2.3 0 .02-1.3-1.48-.8-2.83M449.28 330.83c-1.13 1.96-.85 4.26-.62 5.29 2.08-3.37 2.77-3.47 3.6-3.7 0 0-2.07-.3-2.98-1.6M488.2 353.87c-1.13 1.96-.85 4.26-.63 5.29 2.08-3.37 2.77-3.47 3.6-3.7 0 0-2.06-.3-2.97-1.6"/></g><g><path d="M487.12 290.56c-.37 1.78 2.43 1.88 2.62 4.13M473.47 287.84c8.76 3.69 10.15-4 8.32-5.16l-.29-.19c2.9 1.14 2.52 12.8-8.03 5.35M420.05 214.8c-3.65 1.56-5.91-3.32-4.56-6.36-4.83 3.6 1.6 10.19 5.54 8.12 4.8-2.52 2.64-10.08-2.87-7.57 3.63-.17 5.31 4.33 1.9 5.81"/><path d="M414.35 221.3c-2.57 2.15-4.82-.58-4.87-3.16-2 3.5 3.04 6.83 5.93 4.53 3.34-2.7 1.15-9.85-5.05-6.68 5.24-.09 6.08 3.57 3.99 5.32M406.11 228.78c-3.34.2-4.35-1.94-3.06-4.33-2.7 2.09-.62 6.2 3.11 6.06 4.53-.18 5.61-5 1.92-7.35 2.1 3.3 1.5 5.42-1.97 5.62M432.9 213.66c-1.82-.42-3.08-2.49-1.93-4.45-3.73 3.15.17 5.83 1.76 6.2 4 .88 7.06-4.01 2.3-7.27 2.17 3.1 1.14 6.32-2.12 5.52M414.44 237.25c-.8 2.63-4.12 1.07-4.77-1.17-.74 4.12 5 4.55 5.95 1.62 1.17-3.55-1.8-5.68-4.58-3.46 2.5-.63 4.25.28 3.4 3.01M423.53 243.42c-.32 3.33-5.19 2.32-6.72-.16.22 5.1 8 4.08 8.44.39.54-4.53-5.97-8.06-8.27-1.18 3.8-3.88 6.9-2.54 6.55.95"/><path d="M429.15 236.09c-.32 3.36-5.2 2.31-6.72-.17.2 5.11 7.99 4.11 8.43.42.53-4.56-5.97-8.06-8.28-1.2 3.82-3.87 6.92-2.52 6.57.95M443.28 216.81c-3.05-1.36-.54-5.68 2.28-6.35-4.88-1.4-6.4 6.32-3.04 7.88 4.13 1.95 9.5-3.1 3.74-7.5 2.47 4.85.2 7.4-2.98 5.97M453.4 209.32c-.32 3.36-4.01 2.25-4.82.69 1.2 3.98 6.12 3.25 6.55-.44.54-4.52-5.95-8.06-8.27-1.19 3.8-3.87 6.9-2.52 6.55.94M415.54 198c1.31.67 1.77 4.33.84 5.29-.94.92-2.9 2.34-2.9.91 1.3-1.01 1.4-1.3 2.06-2.35.65-1.03.37-2.52 0-3.85M410.74 210.58c1.28-1.01 1.4-3.89-.17-5.74-1.6-1.83-4.27-1.95-5.56-.93-1.27 1.03-1.02 3.33.56 5.18 1.58 1.86 3.9 2.52 5.17 1.5"/><path fill="#D2B78C" d="M409.48 209.47c.91-.71 1.15-2.96.02-4.24a3.14 3.14 0 00-4.05-.45c-.93.73-.76 2.36.35 3.69 1.11 1.29 2.77 1.74 3.68 1"/><path d="M404.87 213.61c-1.72 1.59-3.8-.75-4.76-2.58.38 3.44 3.37 5.28 5.5 3.82 2.62-1.78 2.12-5.22-1.59-7.27 2.68 2.9 2.82 4.25.85 6.03"/><path d="M401.38 219.4c1.28-1 1.6-3.34.01-5.19-1.58-1.83-4.46-2.51-5.74-1.49-1.28 1.03-1.03 3.36.55 5.2 1.58 1.84 3.9 2.5 5.18 1.49"/><path fill="#D2B78C" d="M400.13 218.28a2.55 2.55 0 00.21-3.66c-1.12-1.3-3.31-1.77-4.25-1-.93.73-.76 2.36.35 3.68 1.11 1.3 2.75 1.74 3.7.98"/><path d="M423.88 206.29c-2.07-.96-2.01-4.08.88-4.24-4.35-1.6-4.96 3.41-1.9 5.63 3.69 2.66 10.74-.38 6-4.7 2.2 4.32-1.8 4.74-4.98 3.31M428.68 214.05a2.85 2.85 0 00-2.08.59c-1.28.99-1.03 3.31.56 5.17 1.58 1.85 3.9 2.52 5.18 1.5 1.28-1.03 1.6-3.33 0-5.18a5.76 5.76 0 00-3.66-2.08zm-.18 1.11c.98.07 2.1.54 2.8 1.34a2.58 2.58 0 01-.2 3.7c-.92.7-2.59.27-3.7-1.03-1.13-1.3-1.28-2.96-.36-3.67.35-.26.87-.37 1.46-.34zM424.36 219.67c-.86.04-1.65.3-2.2.74-2.22 1.76.03 5.29.65 6 1.84 2.12 4.52 2.9 6 1.73 1.47-1.16 1.62-4.53-.22-6.63a5.2 5.2 0 00-4.23-1.84zm.59 1.11c.87.05 1.79.4 2.43 1.14 1.28 1.5 1.79 4.36.7 5.2-1.05.86-3.72.03-5-1.47-1.3-1.49-1.47-3.4-.41-4.25a3.46 3.46 0 012.28-.62zM437.75 200.86c-1.73.14-3.35.99-4 1.96-1.04 1.6.06 4.07 2.47 5.53 2.9 1.73 5.24 1.28 6.25-.27 1.04-1.57.7-5.16-1.72-6.6-.9-.55-1.96-.71-3-.62zm.58 1.04c.51 0 1 .12 1.42.38 1.7 1.04 2.5 3.97 1.74 5.09-.75 1.13-3.53 1.2-5.23.2-1.69-1.06-2.46-2.8-1.71-3.93.56-.88 2.25-1.78 3.78-1.74zM469.64 270.27c3.64-.94 6.46 1.6 5.9 4.89-.57 3.3-5.63 4.03-7.5 1.89 2.9.55 4.59.56 5.8-1.7 1.22-2.24-1.01-4.23-4.2-5.08M470.89 257.99c1.15 1.06 2.22 3.55-.31 4.12-2.33.52-4.42-1.4-3.17-3.8.53 1.38.63 3.08 2.53 2.86 1.68-.22.95-3.18.95-3.18"/><path d="M460.54 261.96c-.65-.74 3.77-3.56 6.55-.86 2.79 2.7.53 6.9-2.27 6.6 1.08-.95 3.12-2.49 1.73-4.88-1.43-2.44-4.52-1.49-6.01-.86"/><path d="M458.41 266.46c3.02-1.28 10.03 3.37 4.86 7.95-5.17 4.55-9.83-1.84-9.81-4.4 2.02 2.46 6.2 5.57 8.6 3.17 2.23-2.23.82-4.67-3.65-6.72M469.88 225.37c1.42-.45 4.3.4 4.01 2.93-.27 2.53-2.15 4.02-4.39 3.37-2.25-.64 2.9.38 2.82-3.28-.12-3.67-3-2.83-2.44-3.02M465.08 235.56c.65-2.11 6.57-4.94 8.74.06 2.14 5-1.63 7.23-5.96 4.41 3.4 1.15 6.6-.26 4.88-3.44-2.13-3.87-5.5-2.18-7.64-1M454.2 231.52c-1.2.05-2.42.63-3.22 2.57-1.6 3.86 3.58 6 5.18 6.4 1.59.4 4.88.68 6.36-1.86 2.11-3.67-3.56-6.22-5.3-6.57-.65-.13-1.81-.59-3.01-.54zm1.27 1.83c.59.03 1.1.16 1.4.21 2.96.49 5.28 2.43 3.83 4.13-1.46 1.75-4.09 1.63-4.89 1.34-.8-.25-4.66-2.28-3.32-4.3.82-1.23 2-1.45 2.98-1.38zM459.78 251.7c-.82.02-1.64.4-2.2 1.72-1.07 2.6 2.43 4.07 3.51 4.34 1.08.28 3.32.44 4.3-1.25 1.45-2.49-2.4-4.2-3.57-4.43-.45-.09-1.23-.41-2.04-.39zm.45 1.23c.56-.05 1.09.09 1.35.13 2 .34 3.58 1.62 2.59 2.8-.99 1.17-2.77 1.09-3.32.9-.53-.19-3.15-1.54-2.25-2.89a2.06 2.06 0 011.63-.94zM452.43 256.09c.7-1 5.06-.5 6.08 2.35.92 2.46-.84 6.38-4.97 6.58 3-1.69 3.85-4.33 3.3-5.74-.8-2-2.34-2.73-4.4-3.2M443.55 262.38c2.79-1.19 10.66 4.32 5.89 8.54-4.78 4.23-9.07-1.7-9.07-4.06 1.76 3.42 5.83 5.22 7.94 2.93 2.62-2.83.02-5.83-4.76-7.4M462.8 243.75c-1.2.05-2.42.62-3.22 2.56-1.6 3.87 3.58 6 5.18 6.41 1.6.39 4.9.68 6.36-1.86 2.11-3.67-3.55-6.21-5.3-6.58-.65-.12-1.81-.58-3.01-.53zm1.28 1.81c.59.04 1.1.15 1.4.2 2.96.5 5.29 2.4 3.82 4.13-1.46 1.75-4.1 1.6-4.9 1.34-.8-.25-4.65-2.28-3.32-4.3.82-1.22 2.03-1.42 3-1.37zM459.26 226.11c-.58.04-1.2.43-1.6 1.74-.8 2.68 1.78 4.12 2.56 4.4.78.28 2.44.47 3.16-1.28 1.04-2.5-1.76-4.26-2.63-4.48-.31-.09-.89-.41-1.49-.38zm.7 1.44c.3-.04.52.06.72.12 1.47.36 2.54 1.46 1.8 2.65a2.1 2.1 0 01-2.43.95c-.39-.19-2.3-1.82-1.26-2.95.49-.53.86-.72 1.16-.77zM463.03 225.46c-.04-.76-1.11-5.1 3.37-4.6 4.5.47-3.46-2.08-4.5.28-1 2.33 1.23 5.81 1.13 4.32M465.93 217.68c.77-1.17 2.44-3.9 7.03-1.52 2.52 1.34-.18-2.7-3.27-2.62-4.13.13-5.16 6.3-3.76 4.14M454.88 241.14c1.47-.62 5.9 3.78 3.08 6.77-2.8 3-8.87-.55-8.12-6.1.84 4.72 4.98 6.82 6.63 4.72 1.67-2.18-.08-4.16-1.59-5.39"/><path d="M451.5 254.56c2.72-.25 3.18-4.66 1.03-6.17-2.14-1.51-5.98-1.31-6.36 2.5 1.5-2.22 3.88-2.65 5.33-1.3 1.3 1.24 1.77 3.2-.02 4.97M440.84 260.5c2.6 2.06 6.74-1.36 6.13-4.51-.6-3.14-4.09-6.24-7.67-3.22 3.2-.7 5.63.99 5.75 3.4.11 2.17-1.15 4.3-4.2 4.32M431.7 261.12c3.8.32 5-4.46 2.91-7.3-2-2.71-7.98-2.83-8.12 2.12 1.91-4.4 5.28-3 6.87-.92 1.45 1.9 1.78 4.8-1.67 6.1"/><path d="M429.34 245.46c1.77-.84 7.2.58 5.98 4.78-1.21 4.23-5.14.38-5.62-1.89.94 1.15 4.02 3.77 4.4 1.4.53-3.24-2.14-4.01-4.76-4.29M437.73 243.7c1.86-.87 7.55.61 6.28 5.05-1.3 4.46-5.42.4-5.9-1.96.98 1.17 4.22 3.95 4.6 1.47.56-3.41-2.24-4.25-4.98-4.55M447.91 239.3c-.39 3.9-3.99 3.15-6.04 1.7 2.59 4.16 7.5 2.9 8.03-1.4.63-5.25-5.1-8.9-9.57-3.24 5.86-2.61 7.98-1.06 7.58 2.94"/><path d="M448.55 229.43c.8 2.62-.1 4.15-3.52 3.32 3.3 3.33 7.01-.05 5.37-4.05-1.99-4.9-7.47-3.73-8.08.2 1.38-2.6 5.37-2.27 6.23.53M451.1 223.25c1 1.45.65 2.98-.63 3.94 1.07.99 4.49-1.46 2.22-5.13-2.21-3.66-6.67-2.14-6.63.22 2.24-1.29 3.4-1.44 5.04.97M458.89 219.56c-.45 1.68-1.75 2.24-3.93 1.95.77 1.26 4.55 2.58 5.9-1.54 1.3-4.07-4.47-7.17-7.55-4.04 3.73-.64 6.35.78 5.58 3.63"/><path d="M459.26 210.42c.4-1.73 1.67-2.33 3.85-2.12-.82-1.25-4.66-2.39-5.8 1.77-1.14 4.14 4.77 7 7.7 3.73-3.7.79-6.37-.53-5.75-3.38M435.31 235.21c-.59.04-1.2.43-1.6 1.75-.79 2.67 1.78 4.1 2.58 4.4.79.3 2.42.46 3.15-1.27 1.06-2.53-1.76-4.27-2.63-4.5-.32-.1-.91-.42-1.5-.38zm.69 1.44c.3-.04.54.08.72.14 1.47.34 2.53 1.44 1.8 2.64a2.04 2.04 0 01-2.42.9c-.39-.16-2.3-1.78-1.27-2.92.5-.53.86-.72 1.17-.76zM433.95 227.01c-.7.04-1.4.5-1.86 2.02-.92 3.09 2.07 4.77 2.98 5.1.93.32 2.82.54 3.66-1.5 1.22-2.91-2.04-4.93-3.03-5.18-.4-.1-1.08-.47-1.75-.44zm.78 1.7c.36-.06.62.07.84.13 1.7.4 2.93 1.7 2.1 3.08a2.4 2.4 0 01-2.82 1.05c-.47-.22-2.66-2.1-1.47-3.4.57-.6 1-.82 1.35-.87zM440.7 225.06a2.92 2.92 0 01-5.05-1.57c-.87 3.45 3.18 5.28 6.1 2.94 3.56-2.84 2.4-8.41-3.17-7.34 4.06.9 4.78 3.74 2.11 5.97M421.16 229.5c-.3 3.06-2.74 3.06-4.87 2.7 2.78 2.8 5.97.9 6.33-2.47.46-4.17-4.4-6-6.28-2.42 2.73-1.6 5.12-.96 4.82 2.2"/></g><g><path d="M441.63 135.7c-.88 2.18-2.41 3.05-5.4 2.33 2.66 1.98 5.85.5 6.2-2.15.36-1.68-1.48-4.96-5.7-3.82 3.81.14 5.05 2.9 4.9 3.65M455.97 120.62c-1.39 3.1-7.43 3.37-11.6 2.38 4.04 3.03 11.95 2.9 13.25-1.71.56-2.55-.68-7.11-7.13-5.35 5.43.2 5.82 2.95 5.48 4.68"/><path d="M443.36 125.27c-1.27 2.74-3.42 3.41-7.57 2.41 4.04 3.03 8.14.95 8.82-2.16.55-2.53-.69-7.09-7.13-5.32 5.43.16 6.23 3.32 5.88 5.07M451.82 143.6c-.45-3.91-6.65-4.74-11.1-3.9 4.97-2.6 12.25-.55 12.37 3.95.14 4.53-3.81 7.87-9.68 4.7 5.3 1.05 8.86-.8 8.4-4.75M467.47 123.25c-.23 2.27-3.74 2.26-5.62 1.82 2.55 1.88 5.95.85 6.41-1.67.45-2.5-1.41-4.73-5.43-3.63 3.62.14 4.9 1.2 4.64 3.48M476.43 126.08c-.3 2.92-4.86 2.44-7.24 1.9.56.42-.65.55.04.82 3.31 1.24 7.65.64 8.18-2.5.54-3.21-1.79-6.01-6.9-4.64 4.6.18 6.24 1.52 5.92 4.42"/><path d="M470.13 131.79c-.32 2.89-4.26 5.2-9.73 4.48 6.71 2.2 10.14-1.08 10.72-4.27.58-3.19-3.23-6.4-8.35-5.04 4.6.15 7.67 1.92 7.36 4.83M472.53 135.38c5.02.08 7.96 2.37 5.8 4.73-2.17 2.35-6.69 1.57-7.48 1.48 1.2 1.07 1.08 2.66-.5 4.43-1.04 1.15-2.75 1.17-4.72.5 1.18 1.27 2.08 2.54.98 4.72-1.48 2.98-7.27 1.79-8.05.9a3.84 3.84 0 01-1.47 3.64c-1.47 1.09-4.33 1.49-5.21.47 2.94-.26 4.24-.82 5.3-2.95.6-1.15-.58-2.35-2.36-3.83 2.67 1.6 8.36 3.76 10.51.89.9-1.15.7-3.74-5.2-6.1 2.85.98 7.83 2.1 9.43.5 1.58-1.58.1-4.16-4.7-5.43 3.83.9 11.09 2.77 12.18.3.9-2.03-.38-3.17-4.51-4.25M453.67 133.67c-1.25 2.72-7.56 3.11-11.7 1.28 4.24 3.67 12.26 2.1 12.95-1.05.55-2.52-.69-7.08-7.13-5.32 5.43.17 6.22 3.36 5.88 5.09M454.32 169c-.26 3.32-4.9 3.26-7.65 2.64 3.7 2.77 9.08 1.28 9.37-2.43.38-4.98-5.8-7.79-11.7-6.16 5.3.16 10.36 1.34 9.98 5.95"/><path d="M460.25 179.8c-.27 3.34-4.9 3.32-7.67 2.66 3.7 2.78 9.09 1.32 9.37-2.41.4-4.99-5.79-7.8-11.7-6.2 5.31.18 10.37 1.35 10 5.95M465.4 190.16c-.25 3-4.2 3.08-6.7 2.5 3.34 2.5 7.73 1.1 8.46-2.18.89-4.05-2.53-6.43-7.78-4.5 5.03-.2 6.32.75 6.03 4.18M465.17 200.7c-.32 3.34-4.9 3.31-7.65 2.64 3.7 2.76 8.91 1.31 9.37-2.43.53-4.52-3.3-7.29-9.22-5.7 5.31.2 7.85 2.02 7.5 5.49"/><path d="M474.42 185.72c-3.43 2.42-7.4.7-8.35-2.13-.9-2.68 3.3-3 6.42-3.57-.62-.15.16-.51-.42-.6-4.18-.74-8.43 1.01-7.74 4.58.8 4.08 6.81 6.26 10.85 2.42-.56.27-.3-1.02-.76-.7M471.04 174.24c-4.3 3.47-8.4.39-9.14-2.13-.7-2.35 3.16-3.93 5.97-3.77-.42-.08-.05-.5-.46-.55-3.68-.3-7.83 1.52-7.22 4.65.83 4.28 6.95 6.48 11.19 2.42-.31.14-.1-.82-.34-.62M465.42 161.72c1.18 4.16-1.59 4.77-4.45 4.45-3.1-.34-4.08-1.82-2.63-3.32-.01-1.31-.43-.68-.67-.48-2.92 2.57.9 4.77 3.35 5.04 3.81.4 6.55-1.46 4.93-5.74 0 .27-.6-.16-.53.05M451.05 158.27c-.27 3.34-4.18 2.43-7.25 2.25 3.47 2.47 8.68 1.58 8.97-2.13.39-5-5.32-7.1-11.23-5.48 5.3.17 9.86.75 9.51 5.36M487.28 136.12c-.06.42-2.4 1.17-2.4 1.17-1.98.44-3.64.04-4.5-.13.92.67 2.12 1 3.31 1.02l4.47-2.5c.45-2.49-2.79-4.92-6.82-3.82 3.63.13 6.4 1.32 5.94 4.26M477.99 207.25c-.28 2.77-4.07 2.73-6.34 2.2 3.07 2.28 7.39 1.07 7.75-2 .44-3.75-2.73-6.05-7.6-4.7 4.37.12 6.46 1.64 6.19 4.5"/><path fill="none" stroke="#000" stroke-width="1.3516092000000002" d="M436.57 197.9c21.07 3.88 31.35 8.59 40.69 14.9"/><path fill="#785A3C" stroke="#000" stroke-width="1.3390943" d="M474.82 217.04c7.07-9.47 4.3-22.19 3.38-26.28-.93-4.1-3.43-9.6-5.56-12.88-6.43-9.85-8.9-18.08-6.47-26.3 2.42-8.2 19.69-13.78 26.4-17.53 6.7-3.73 8.54-7.26 19.42-12.49 16.32-7.82 29.26-4.26 54.9-.52 25.63 3.75 70.57 24.68 81.7 31.79 11.14 7.1 4 11.18.38 10.43 6.8 2.58 10.23 8.26 10.08 11.98-.17 4-3.24 4.62-15.3.33 7.02 4.59 5.23 9.36-1.88 8.36-8.61-.43-23.85-5.79-27.85-8.36 3.5 4.34 3.62 7.2 1.32 9.42-5.47 2.55-11.18-.36-21-2.72 5.28 12.97-9.95 10.14-15.25 7.07 1.48 10.17-8.08 9.8-14.11 7.08 4.82 3.81 17.8 22.77 20.4 27.24 2.19 4.38 5.32 15.87-8.31 2.14-4.42-4.43-.58.34-8.6-9.7 7.78 9.66 4.45 4.84 9.17 10.81 10.1 12.8 10.63 15.49 8.09 18.03-3.88.56-8.54-3.96-27.21-25.61 23.62 29.27 11.35 26.63 9.31 25.7-2.19-.97-11.34-8.73-17.63-15.17l-1.24-1.2c1.5 1.97-1.32-.47 0 1.2 1.64 2.14 2.74 5.63.29 8.1-1.4 1.38-4.26 1.03-5.44-.1-3.82-3.69-13.84-9.96-16.44-12.13 4.86 4.01 13.47 9.4 16.44 12.13 4.27 3.88 6.75 8.34 4.3 11.54-1.22 1.58-5.23 1.43-7.95-.95-.69-.59-10.93-7.9-14.4-10.6 6.09 4.52 15.98 11.6 18.88 14.08 3.83 3.28 9.79 11.85 7.85 14.74-.3.47-.7.8-1.14 1.02-2.67 1.36-7.41-1-8.77-2.14-1.6-1.32-14.6-11.07-19.08-14.38 2.43 1.89 17.02 12.89 18.7 14.11 2.8 2.02 4.86 10.44 2.14 12.1-2.7 1.68-4.48.85-6.83-.28-2.33-1.14-10.84-8.45-15.98-12.5 4.2 3.4 13.45 10.45 15.41 12.41 1.06 1.05 6.82 9.11 3.36 11.73-2.14 1.62-7.1 1.12-10.66-1.22-1.76-1.16-5.15-3.93-7.49-5.16"/><g><path d="M471.85 167.86c-1.55-3.35-1.21-9.35-.4-12.06 2.42-8.22 18.76-13.41 25.46-17.15 6.7-3.73 8.56-7.29 19.43-12.5 16.32-7.82 29.45-5.2 55.08-1.46 14.03 2.08 34.1 8.83 50.8 16.53-17.37-7.05-34.95-13.72-51.14-15.81-17.92-2.3-35.79-7.49-54.31 1.41-11.3 5.46-14.44 9.72-19.5 12.55-5.04 2.8-22.73 10.3-24.43 16.71-1.69 6.38-.16 6.95.19 8.81.44 2.53.08 3.64-1.18 2.97"/><path d="M502.22 256.56c3.36 2.74 10.83 5.93 12.33 3.12 1.5-2.8.86-4.88-4.19-8.27 4.02 2.64 12.63-.93 4.12-8.81 10.19 4.8 11.41-6.29 6-9.87 5.78 2.27 9.72-5.05 2.99-9.76 4.4 1.03 9.63-2.33 3.27-8.36 11.5 7.64 19.55 5.18 16.29-2.89 12.82.66 4.41-9.87-6.06-15.58 12.63 4.6 18.43-5.08 9.84-7.9 10.1.28 12.91-7.5 2.44-10.3 7.2.35 17.3-6.7 3.84-10.81 29 11.75 40.6 3.85 26.87-4.8 4.09.76 11.87-10.12-3.08-11.44 8.03 2.16 23.56-7.39 3.55-12.12 0 0-18.6-4.6-26.19-5.74.66.84 22.54 5.65 26.18 6.78 3.66 1.14 8.24 3.75 7.02 6.58-1.21 2.8-5.72 4.42-11.87 3.27-6.17-1.11-20.13-3.87-21.34-4.06 2.25.66 19.73 5.46 21.51 5.92 1.78.5 9.11 2.56 8.24 5.86-1.04 3.83-4.87 3.66-7.59 3.47-2.71-.19-20.21-4.53-22.45-4.9-2.24-.37 23.48 6.39 24.6 7.14 1.13.76 5.81 3.69 5.23 6.02-.56 2.35-9.63 2.63-14.49 1.41-4.87-1.21-38.7-10.17-39.47-9.98 2.9.93 20.21 6.3 22.35 7.35 2.15 1.03 7.01 2.43 6.18 4.87-.85 2.47-7.5 4.5-10.1 4.03-2.62-.45-27.7-6.12-31.53-6.86 3.65 1.22 30.03 7.7 31.81 8.64 1.78.95 6.63 3.32 5.6 5.26-1.03 1.97-3.84 3.57-8.23 2.72-4.4-.85-27.32-7.62-29.65-8.2 4.02 1.7 27.77 9.52 29.28 10.64 1.5 1.17 4.95 2.64 3.18 4.72-1.78 2.04-8.33 1.75-11.14 1.1-2.8-.63-23.1-6.95-25.35-7.62-2.25-.66 21.48 8.69 23.56 9.79 4.49 2.36 14.03 10.45 11.79 12.11-3.1 2.32-6.64.57-7.3.28-.66-.26-26.73-11.65-27.96-12.4 3.28 1.42 27.69 13.45 28.99 14.96 1.3 1.47.82 4.6-.85 5.45-1.7.82-5.82-.08-10.77-2.64-5.42-2.83-19.72-7.81-23.66-7.81 3.65.85 16.84 6.1 19.65 8.37 2.32 1.87 3.45 4.42 2.22 5.44-1.21 1.03-4.1 1.28-5.98.45-1.86-.85-10.66-5.25-16.73-6.95 4.3 2.05 14.42 7.47 16.46 8.92 2.61 1.9 4.56 5 3.64 6.68-.94 1.7-3.93 1.95-6 1.12-2.05-.85-21.6-9.6-23.65-10.43-2.07-.86 21.31 10.53 23.19 12.3 1.85 1.8 4.4 6.01 3.07 7.81-1.3 1.8-4.87 1.86-7.85.28-3.52-1.88-17.02-10.16-18.89-11.68 2.62 2 17.59 12.78 18.89 14.67 1.29 1.89 3.34 4.8 1.95 6-1.41 1.25-5.78.37-6.83-.48a821.18 821.18 0 00-18.97-12.84c3.84 3.44 17.58 14.82 19.17 16.13 1.59 1.31 5.33 5 3.64 6.2-1.69 1.25-8.13-2.3-9.45-2.9-1.3-.56-4-1.29-4.57-1.69-.56-.36 4.57 3.68 2.7 5.17-1.8 1.48-1.87.85-3.92 1.15 2.05 1.5 7.67 6.37 4.48 8.83-3.17 2.41-9.63-2.08-10.09-3.02-.46-.94 2.8 3.76.74 5.35-2.07 1.6-5.42-.56-5.9-1.03-.46-.46 3.18 2.26 1.03 4.52-2.15 2.25-3.64-.47-4.22-1.03-.26.65-.1 2.72-2.06 2.72-1.4-.03-2.22-1.42-2.98-2.26.09.65.99 4.38 3.37 3.77 1.39-.36 2.15-1.31 2.14-2.08.83.94 3.55 1.7 4.58.67 1.02-1.04 1.11-3 .65-3.77 1.4.86 3.09.68 4.39-.08 1.31-.76 1.23-3.01.75-3.68 1.32 1.4 6.75 3.76 9.27.3 2.53-3.46-1.77-7.32-2.89-8.17 1.03.28 4.67-1.94 1.22-5.05"/><path d="M550.6 122.11c11.97.77 16.28 3.76 15.24 8.46-.72 3.3-4.87 3.38-7.1 3 3.35 2.06 2.87 4.51 2.6 6.97-.38 3.38-3.66 4.98-7.11 5.04 2.15.66 5.8 2.84 5.23 6.03-.7 4-3.56 4.52-5.06 4.5 1.98.75 5.15 2.16 4.03 6.49-1.12 4.32-4.7 4.4-11.24 2.82 5.9 1.69 10.1-1.22 10.12-3.3 0-2.07-1.3-4.7-3.92-5.08-2.63-.36-25.36-6.57-26.86-6.57 4.02.38 23.94 4.35 25.46 4.5 1.49.22 5.4-.74 5.7-2.62.57-3.37-2.42-5.24-4.85-5.82-2.43-.56-20.11-4.72-22.55-5.27 3.93.49 18.88 2.87 20.4 2.92 3.55.21 8.8-.84 8.97-3.73.11-1.74-.74-5.18-2.8-6.12-2.06-.94-14.4-3.76-20.58-3.4 7.96-.37 16.55 1.13 20.49 1.53 3.93.4 7.32-.73 7.58-2.42.48-3.2-2.8-6.77-13.73-7.91"/><path d="M619.17 138.3c21.32 9.57 37.85 17.22 35.24 22.46-1.4 2.8-4.16 2.3-5.46 2.5 7.89 2.48 11.34 10.67 9.48 14.03-1.78 3.22-13.47-1.42-14.7-1.75 2.7 1.38 7.1 5.6 2.62 8.05-4.5 2.44-28.35-5.1-32.34-8.05 1.85 1.64 3.9 5.4 2.23 8.4-2.93 5.2-19.1-1.14-21.92-1.68 1.24 3 1.7 7.21-1.02 8.62-4.5 2.32-10.75-.02-14.12-1.32.38 2.14.01 6.9-3.84 7.97-3 .86-8.59.25-11.5-1.97-5.88-3.39-19.45-7.52-23.08-9.67 3.54 1.11 21.76 7.62 23.47 8.16 4.48 1.53 9.76 2.2 11.5 1.05 1.67-1.11 2.53-5.9-.47-7.04-2.97-1.1-28.13-10.53-30.58-11.28-2.42-.76 31.34 9.51 33.95 10.46 2.63.93 11.51 3.73 13.3 1.8 2.04-2.26 1.3-7.52-1.68-8.66-3-1.14-35.81-12.32-39.38-13.64 4.67 1.32 42.62 13.08 45.07 13.74 1.41.38 15.25 4.52 17.3 2.83 2.06-1.69 1.32-5.9-2.42-8.16s-29.09-11.95-33.94-13.45c11.88 3.74 33.31 10.75 38.06 12.53 3.55 1.29 22.71 8.06 26.47 7.9 6.27-.3 5.63-3.57-.47-6.78-3.93-2.06-51.5-20.13-64.05-24.46 10.2 3.01 58.83 19.56 65.65 22.01 5.76 2.08 13.17 4.72 14.03 2.39 2.17-5.93-7.55-10.81-11.3-12.34-3.74-1.48-28.06-11.66-66.21-24.08 21.13 3.58 65.09 22.3 68.09 22.77 2.04.32 7.1.52 6.08-3.1-.6-2-3.58-5.28-34.06-20.24"/><path d="M562.24 194.24c3.55.66 21.66 26.5 23.12 29.4 1.46 2.92 3.13 7.25 1.26 8.4-1.87 1.12-7.3-1.9-10.85-5.84 1.32.93 2.16 2.64 6.08 4.8 1.55.83 8.95 12.17 4.6 14.66-4.34 2.53-11.17-5.76-13.03-8-1.86-2.26-7-8.73-7.93-9.67-.94-.93 12.14 15.6 6.9 17.93-4.5 2.02-10.84-4.11-12.52-5.41-1.68-1.33-22.34-21.83-20.19-22.02.94-.74 18.98 18.71 21.6 20.78 2.62 2.06 6.81 6.3 9.82 5.35 3-.92-1.96-8.72-2.8-9.95-.84-1.22-14.86-21.63-16.63-23.59 3.92 4.62 20.48 21.7 22.62 24.26 2.15 2.52 8.3 10.72 10.94 8.63 2.6-2.05-4.5-12.86-6.26-14.83-5.04-3.78-20.74-24.64-25.04-30.35 8.22 8.54 22.79 25.27 24.19 26.89 1.4 1.57 6.07 5.81 7.38 4.98 1.32-.87-1.31-6.95-2.31-8.28a3250 3250 0 00-20.93-28.08M516.26 140.04c2.89 1.03 10.62 2.64 9.15 7.87-1.03 3.65-6.55 2.15-8.05 2.35 1.59 1.13 2.05 3.18.65 5.46-1.5 2.44-6.27 2.8-8.8 1.85 2.43 1.43 3.82 3.24 2.62 5.64-1.12 2.24-3.66 2.08-5.52 2.07 1.97 1.01 4.88 2.8 3.26 6.28-1.12 2.44-2.05 1.79-3.74 2.17 1.78.38 4.03 1.6 3.74 4.68-.2 2.36-1.31 3.39-3.55 3.95 1.13.55 2.62 2.83 2.14 5.55a5.48 5.48 0 01-4.58 4.4c.94.76 2.38 1.06 1.69 4.52-.48 2.35-2.07 3.01-3.93 3.2 1.21.65 3.04 2.17 2.43 5.62-.48 2.63-3.56 3.37-5.06 3.2-1.49-.2-7.1-1.13-8.6-1.7 2.53-.26 6.92.2 8.8.2 1.87 0 3.1-.38 3.36-1.87.38-2.06-.74-3.76-1.87-4.3a37.32 37.32 0 00-6.36-2.46c2.72-.09 4.97.66 6.36.4 1.4-.3 3.37-.85 3.55-2.67.2-1.76.12-2.31-1.58-3.06-1.68-.74-4.2-1.43-7.58-2.17 2.8.19 5.8 0 7.49.01 1.69-.02 3.94-1.99 4.13-3.3.17-1.33.29-3.57-2.15-4.7-1.62-.73-7.78-.76-9.54-1.4 2.51-.76 8.32-.18 9.64-.38 1.3-.18 2.99-.83 3.45-3.1.26-1.28-.93-2.7-2.43-3.29-1.66-.6-8.52-2.42-10.01-3.36 2.44-.29 7.1 1.21 8.97 1.02 1.88-.18 3.54-.9 3.76-2.24.27-1.77-1.13-3.27-3-4.23-1.86-.9-5.7-2.71-7.75-4.11 4.39.66 6.63 1.77 8.5 1.79 1.88-.02 4.22-.1 4.59-1.24.37-1.12.2-2.34-1.12-3.46-1.31-1.12-7.1-5.17-8.87-6.8 4.4 1.32 5.98 2.9 8.04 3.6 3.09 1.03 7.4.28 8.14-1.24.74-1.49.93-2.89-.75-3.93-1.25-.75-8.5-3.58-10.94-4.98 5.23 1.03 7.95 2.17 10.4 2.73 1.56.35 7.84 1.31 8.69-1.14.64-1.95-.85-4.03-7.77-7.43M525.8 136.92c-2.97-3.68-7.57-.75-4.21 3.5-1.22-4.25.84-5.28 4.22-3.5M512.6 132.03c5.2 2.77 9.18-2.3 4.46-5.79-.3-.2-.29.6-.68.4 3.16 3.52 1.27 5.84-3.78 5.39"/><path d="M504.24 143.08c6.72 3.56 11.73-3.6 4.12-7.81 4.42 5.53 2 8.37-4.12 7.8M485.16 153.68c6.7 3.56 18-5.47 10.36-9.65 4.43 5.5-4.27 10.2-10.36 9.65M490.51 155.03c1.3 1.78 2.42 8-4.49 8.07 2.24 1.31 3.35 2.54 3 4.34-.58 2.7-2.77 2.54-4.69 3.18 4.86 1.7 9.73 2.35 4.4 8.35 6.26-3.18 3.29-7.23-.66-8.17.84-.48 4.22-3.94 1.6-7.24 2.16-.18 5.42-6.08.84-8.53M474.5 157.37c1.98 0 5.98 1.26 5.8 5.05-.09 2.08-1.02 2.75-1.86 3.48 1.02.58 2.61 3.5.55 6.12.1-1.61.94-5.27-4.96-5.64 1.88-.85 3.1-.56 4.12-2.08a3.6 3.6 0 00.1-4.28c-.86-1.29-3.74-2.65-3.74-2.65M478.62 175.3c3.18-.44 7.29-.64 6.25 5 2.72-.65 7.4 2.35 4.12 6.38 1.86 1.23 3.83 4.7.74 7.03 2.25 3.56 2.71 6.03.08 7.44.94 3.75 3.27 7.7-3.83 9.96 3.44-1.5 4.3-5.46 2.9-7.44-1.4-1.95-1.12-1.77-3.18-2.71 2.61-1.14 4.11-.48 4.11-3.87.02-1.16-1.31-2.98-3.26-3.57 2.79-.83 2.89-1.69 2.61-3.66-.26-1.97-2.5-3.1-3.35-3.17 1.11-.49 3.74-2.16 2.33-4.04-1.6-2.13-4.4-.84-6.27-.48 1.4-1.5 2.05-3.76 1.21-4.61-.81-.84-3.82-2.34-4.46-2.26M482.5 218.24c1.7-.59 8.43.1 7.29 6.88-1.12 6.75-.28-2.25-2.7-4.53-1.95-1.8-5.9-1.86-4.59-2.35M511.41 299.81c-5.35-6.03-6.37-7.43-6.37-7.43s.32.31 7.27 6.65l-.9.78M492.07 286.92c3.94 1.42 6.27-.17 5.25-3.85 3.74 2.61 7.39 1.73 7.3-3.18 4.68 1.7 6.1-.56 5.15-4.5 9.05.86 7.19-6 4.4-8.64 2.8 2.63 3.74 8.45-5.33 7.6.92 3.93-.5 6.2-5.15 4.5.1 4.88-3.55 5.83-7.3 3.18 1.02 3.67-.38 6.3-4.32 4.9M514.73 293.06c-.39 1-2.27 2.51-6.38-.23 3.28.56 4.16.91 5.05-.84 1.5-2.99-4.01-6.86-4.01-6.86 1.7.65 7.1 3.48 5.34 7.93M521.29 282.8c-1.24 1.6-3.2 2.36-6.75.2 3.27.53 4.55.52 5.42-1.2 1.5-3.02-1.4-5.85-1.4-5.85 1.7.67 4.5 2.43 2.73 6.86M497.53 252.73c.74.06-2.35 1.32-1.41 2.63.94 1.33.56 1.59 1.59 1.78 1.03.19-3.08.45-3.18-1.42-.07-1.87.94-3.19 3-2.99M492.94 259.94c.19.95-2.25 7.33-8.42 2.35-4.8-3.89-.09-7.7 4.13-6.58-.94.29-6.46.75-2.63 5.36 2.9 3.46 6.46.19 6.92-1.13M482.47 261.15c.85 1.23 2.55 4.07.56 6.22-1.21 1.32-3.65.93-5.14.18 0 1.01-4.3 5.42-6.65-1.04.94.65 2.8 2.25 4.3 1.52 1.78-.88 1.13-2.65.86-3.3-.28-.65 3.6 3.08 5.6 1.42 2.14-1.78.47-5 .47-5M478.57 222.36c-.23-1.38 8.79 2.74 6.35 7.45-2.43 4.68-7.77.73-8.42-.28-.64-1.05 4.65 2.2 6.37.07 2.34-2.92-4.12-6.09-4.3-7.24M482.77 234.95c1.21.57 4.49 6.94-2.63 7.62-7.11.65-4.2-7.23-3.17-7.88 1.03-.65-2.24 6.48 3.08 5.83 5.33-.67 2.72-5.57 2.72-5.57"/><path d="M475 241.74c-1.12.04-2.28.58-3.03 2.38-1.5 3.67 3.38 5.68 4.88 6.05 1.51.37 5.27 1.02 6.64-1.38 2-3.45-3.99-6.2-5.63-6.52-.62-.13-1.73-.58-2.85-.53zm1.3 1.7c.55.03 1.02.16 1.3.2 2.79.47 5.64 2.66 4.25 4.29-1.37 1.62-4.51 1.12-5.27.87-.73-.27-4.38-2.14-3.12-4.01a2.98 2.98 0 012.84-1.34z"/><path d="M478.82 250.45c1.97.67 5.7 8.45-2.91 8.28-8.61-.2-5.13-6.21-3.36-7.91.18.95-3.77 6.64 3.36 6.32 6.1-.3 3.1-5.46 2.91-6.69M486.72 246.98c-.79-.08-1.68.2-2.39 1.9-1.11 2.7 1.8 4.02 2.9 4.3 1.13.3 3.37.58 4.4-1.19 1.5-2.59-2.42-4.48-3.64-4.73-.34-.07-.8-.23-1.27-.28zm.9 1.35l.48.08v-.02c2.08.35 3.64 1.8 2.61 3-1.02 1.25-2.8 1.05-3.36.85-.55-.18-2.52-1.41-1.6-2.81.7-1.07 1.35-1.17 1.87-1.1z"/></g><g fill="#C88E44"><path d="M499.3 254.2c3.37 2.74 10.84 5.93 12.34 3.11 1.5-2.79.85-4.88-4.2-8.27 4.02 2.64 12.63-.93 4.12-8.81 10.2 4.8 11.42-6.28 6-9.86 5.78 2.26 9.72-5.06 2.99-9.76 4.4 1.02 9.64-2.33 3.28-8.36 11.5 7.63 19.55 5.18 16.28-2.9 12.83.67 4.42-9.87-6.06-15.59 12.63 4.6 18.44-5.08 9.84-7.9 10.1.3 12.92-7.48 2.44-10.3 7.2.37 17.3-6.68 3.84-10.8 29 11.76 40.6 3.86 26.87-4.79 4.1.75 11.88-10.12-3.08-11.45 8.04 2.17 23.57-7.38 3.56-12.11 0 0-18.6-4.6-26.2-5.75.67.84 22.54 5.66 26.18 6.79 3.66 1.13 8.24 3.75 7.03 6.58-1.22 2.8-5.72 4.42-11.88 3.26-6.17-1.11-20.12-3.86-21.34-4.05 2.25.65 19.74 5.46 21.51 5.92 1.78.49 9.12 2.55 8.24 5.86-1.04 3.83-4.87 3.65-7.58 3.46-2.72-.19-20.22-4.53-22.46-4.9-2.24-.37 23.48 6.4 24.6 7.14 1.13.77 5.81 3.7 5.24 6.02-.56 2.36-9.64 2.63-14.5 1.42-4.86-1.22-38.7-10.18-39.47-9.99 2.9.94 20.22 6.3 22.36 7.36 2.15 1.02 7 2.43 6.18 4.87-.85 2.46-7.5 4.49-10.11 4.03-2.62-.45-27.69-6.12-31.53-6.86 3.66 1.21 30.04 7.7 31.81 8.63 1.78.95 6.64 3.32 5.61 5.26-1.04 1.98-3.84 3.58-8.23 2.73-4.4-.85-27.32-7.62-29.65-8.2 4.02 1.7 27.77 9.51 29.27 10.64 1.5 1.16 4.96 2.64 3.18 4.72-1.78 2.04-8.32 1.75-11.14 1.1-2.8-.64-23.09-6.96-25.34-7.62-2.25-.67 21.47 8.68 23.55 9.78 4.5 2.37 14.03 10.45 11.8 12.12-3.1 2.31-6.64.56-7.3.27-.67-.26-26.74-11.65-27.96-12.4 3.28 1.43 27.68 13.45 28.98 14.97 1.3 1.46.83 4.6-.85 5.44-1.69.83-5.82-.07-10.76-2.64-5.42-2.83-19.73-7.8-23.67-7.8 3.64.84 16.85 6.09 19.65 8.36 2.33 1.87 3.45 4.42 2.23 5.45-1.22 1.03-4.1 1.28-5.98.45-1.87-.85-10.67-5.26-16.74-6.96 4.3 2.05 14.42 7.46 16.46 8.92 2.62 1.9 4.57 5.01 3.64 6.69-.94 1.69-3.93 1.95-6 1.11-2.05-.85-21.6-9.6-23.65-10.42-2.06-.87 21.32 10.52 23.2 12.3 1.85 1.79 4.39 6 3.06 7.8-1.3 1.8-4.87 1.86-7.85.28-3.51-1.87-17.02-10.16-18.88-11.67 2.61 1.99 17.58 12.77 18.88 14.66 1.3 1.88 3.34 4.8 1.96 6.01-1.42 1.24-5.79.36-6.84-.49a821.18 821.18 0 00-18.97-12.84c3.84 3.44 17.58 14.82 19.16 16.13 1.59 1.32 5.33 5 3.64 6.21-1.69 1.24-8.13-2.31-9.45-2.9-1.3-.56-4-1.3-4.56-1.7-.57-.35 4.56 3.69 2.69 5.18-1.8 1.47-1.87.85-3.92 1.14 2.05 1.49 7.67 6.37 4.48 8.82-3.17 2.41-9.62-2.08-10.09-3.02-.46-.94 2.8 3.76.74 5.35-2.06 1.6-5.42-.55-5.9-1.03-.46-.46 3.18 2.27 1.03 4.52-2.15 2.25-3.64-.46-4.22-1.03-.27.65-.1 2.72-2.06 2.72-1.4-.03-2.22-1.42-2.98-2.25.09.65.99 4.38 3.37 3.75 1.39-.36 2.15-1.31 2.14-2.08.84.94 3.55 1.7 4.58.67 1.02-1.04 1.11-3 .65-3.77 1.4.86 3.09.66 4.4-.08 1.3-.76 1.22-3.01.74-3.68 1.32 1.4 6.75 3.76 9.28.3 2.52-3.46-1.78-7.32-2.9-8.17 1.03.28 4.67-1.94 1.22-5.05"/><path d="M547.7 119.74c11.97.76 16.28 3.75 15.24 8.46-.73 3.29-4.87 3.38-7.11 3 3.35 2.05 2.88 4.5 2.6 6.96-.37 3.38-3.64 4.98-7.1 5.04 2.15.67 5.8 2.84 5.22 6.03-.7 4-3.55 4.52-5.05 4.5 1.98.75 5.14 2.16 4.03 6.5-1.13 4.31-4.7 4.4-11.24 2.8 5.9 1.7 10.1-1.2 10.11-3.3 0-2.06-1.31-4.69-3.93-5.06-2.63-.37-25.35-6.57-26.85-6.57 4.01.37 23.94 4.34 25.45 4.5 1.49.21 5.4-.75 5.7-2.63.57-3.36-2.42-5.24-4.85-5.82-2.43-.56-20.1-4.72-22.55-5.27 3.93.5 18.89 2.87 20.4 2.92 3.55.21 8.8-.84 8.97-3.73.12-1.74-.74-5.18-2.8-6.12-2.05-.94-14.4-3.75-20.58-3.4 7.96-.37 16.55 1.14 20.5 1.54 3.92.38 7.31-.74 7.58-2.43.47-3.2-2.8-6.77-13.73-7.91"/><path d="M616.26 135.93c21.33 9.57 37.86 17.22 35.25 22.46-1.4 2.8-4.16 2.3-5.46 2.5 7.88 2.49 11.34 10.67 9.47 14.04-1.77 3.21-13.46-1.43-14.69-1.75 2.72 1.37 7.1 5.59 2.62 8.04-4.5 2.44-28.35-5.1-32.34-8.04 1.85 1.63 3.9 5.39 2.23 8.38-2.93 5.2-19.1-1.14-21.92-1.68 1.24 3 1.7 7.21-1.02 8.63-4.5 2.31-10.76-.03-14.12-1.33.37 2.14.01 6.9-3.84 7.97-3 .86-8.59.25-11.5-1.96-5.89-3.38-19.45-7.53-23.1-9.68 3.55 1.12 21.77 7.62 23.47 8.16 4.48 1.53 9.76 2.2 11.5 1.05 1.7-1.11 2.53-5.9-.46-7.04-2.98-1.1-28.13-10.53-30.59-11.28a2829.5 2829.5 0 0133.96 10.45c2.62.93 11.5 3.73 13.29 1.8 2.05-2.26 1.31-7.52-1.68-8.66-3-1.14-35.8-12.32-39.37-13.64 4.67 1.32 42.61 13.08 45.06 13.74 1.42.38 15.26 4.52 17.31 2.83 2.05-1.69 1.32-5.9-2.43-8.16-3.74-2.26-29.08-11.95-33.94-13.45 11.88 3.74 33.32 10.75 38.06 12.53 3.56 1.29 22.72 8.06 26.47 7.9 6.27-.3 5.63-3.57-.46-6.78-3.93-2.06-51.51-20.13-64.05-24.46 10.2 3.01 58.83 19.56 65.65 22 5.76 2.09 13.16 4.73 14.03 2.4 2.16-5.93-7.56-10.81-11.3-12.34-3.74-1.48-28.06-11.66-66.22-24.08 21.14 3.58 65.1 22.3 68.1 22.77 2.03.32 7.09.52 6.08-3.1-.6-1.99-3.58-5.25-34.06-20.22M513.35 137.66c2.9 1.04 10.63 2.64 9.15 7.87-1.02 3.65-6.54 2.15-8.05 2.35 1.6 1.13 2.06 3.18.66 5.46-1.5 2.44-6.27 2.8-8.8 1.85 2.43 1.43 3.81 3.24 2.61 5.65-1.11 2.24-3.65 2.07-5.52 2.06 1.98 1.01 4.88 2.8 3.27 6.28-1.13 2.44-2.06 1.8-3.74 2.17 1.78.39 4.03 1.6 3.74 4.68-.21 2.36-1.31 3.39-3.55 3.95 1.12.55 2.61 2.83 2.14 5.55a5.48 5.48 0 01-4.58 4.4c.93.77 2.37 1.07 1.69 4.52-.48 2.35-2.07 3.02-3.93 3.2 1.21.66 3.04 2.17 2.42 5.62-.47 2.63-3.55 3.37-5.05 3.2-1.5-.2-7.1-1.13-8.61-1.7 2.54-.26 6.93.2 8.8.2 1.87 0 3.11-.38 3.36-1.87.39-2.05-.74-3.76-1.86-4.3a37.32 37.32 0 00-6.36-2.46c2.72-.07 4.97.66 6.36.4 1.4-.3 3.36-.85 3.55-2.66.2-1.77.11-2.32-1.59-3.07-1.68-.74-4.2-1.43-7.57-2.17 2.8.2 5.8 0 7.48.02 1.7-.03 3.95-2 4.13-3.3.18-1.33.3-3.57-2.15-4.7-1.61-.74-7.77-.76-9.53-1.41 2.51-.76 8.32-.18 9.63-.38 1.3-.18 3-.83 3.46-3.1.26-1.28-.93-2.7-2.43-3.28-1.67-.62-8.52-2.43-10.01-3.37 2.44-.29 7.1 1.21 8.97 1.01 1.88-.18 3.54-.9 3.75-2.24.28-1.77-1.12-3.27-2.99-4.23-1.86-.91-5.7-2.72-7.76-4.11 4.4.66 6.64 1.77 8.51 1.79 1.88-.03 4.22-.12 4.58-1.24.4-1.12.2-2.34-1.11-3.46s-7.1-5.17-8.87-6.8c4.39 1.32 5.98 2.9 8.03 3.6 3.1 1.03 7.4.27 8.15-1.24.74-1.49.92-2.9-.75-3.93-1.25-.75-8.51-3.58-10.94-4.98 5.23 1.03 7.95 2.16 10.39 2.73 1.56.35 7.84 1.31 8.7-1.14.63-1.93-.87-4.02-7.78-7.42M509.69 129.65c5.2 2.78 9.17-2.3 4.45-5.78-.3-.22-.29.58-.67.38 3.16 3.53 1.27 5.86-3.78 5.4"/><path d="M501.34 140.71c6.72 3.57 11.73-3.6 4.12-7.8 4.4 5.52 1.99 8.35-4.12 7.8M482.25 151.3c6.71 3.57 18-5.47 10.37-9.65 4.43 5.52-4.27 10.21-10.37 9.65M487.61 152.65c1.31 1.78 2.42 8-4.5 8.09 2.25 1.3 3.36 2.54 3 4.34-.58 2.7-2.77 2.54-4.68 3.18 4.85 1.69 9.72 2.35 4.4 8.34 6.26-3.19 3.28-7.23-.66-8.17.84-.47 4.22-3.94 1.6-7.23 2.15-.19 5.42-6.1.84-8.55M471.6 155c1.98 0 5.97 1.27 5.8 5.06-.09 2.08-1.03 2.74-1.87 3.48 1.03.57 2.62 3.5.55 6.12.1-1.62.94-5.27-4.95-5.65 1.88-.85 3.09-.56 4.12-2.07a3.6 3.6 0 00.1-4.28c-.87-1.3-3.75-2.66-3.75-2.66M475.7 172.92c3.19-.43 7.3-.63 6.25 5.01 2.72-.66 7.4 2.34 4.12 6.37 1.87 1.23 3.83 4.7.74 7.03 2.25 3.56 2.72 6.04.09 7.44.94 3.75 3.26 7.7-3.83 9.96 3.44-1.49 4.29-5.46 2.89-7.43-1.4-1.96-1.12-1.78-3.18-2.72 2.62-1.14 4.12-.48 4.13-3.85.01-1.18-1.31-2.98-3.27-3.57 2.8-.84 2.9-1.68 2.62-3.67-.26-1.96-2.5-3.09-3.36-3.16 1.12-.5 3.75-2.17 2.33-4.05-1.59-2.12-4.39-.83-6.27-.47 1.4-1.5 2.05-3.77 1.22-4.62-.83-.84-3.83-2.34-4.47-2.27"/></g><path fill="none" stroke="#C88E44" stroke-width="1.3390943" d="M542.48 234.71c-3.83-3.7-13.85-9.96-16.45-12.14 4.84 4.03 13.45 9.41 16.45 12.14 4.26 3.88 6.74 8.34 4.29 11.54-1.23 1.58-5.23 1.43-7.95-.95-.69-.59-10.92-7.9-14.4-10.6 6.1 4.52 15.98 11.59 18.88 14.08 3.83 3.28 9.79 11.85 7.85 14.74m-1.15 1.04c-2.67 1.36-7.41-1-8.78-2.15-1.59-1.32-14.59-11.07-19.07-14.38 2.43 1.89 17.02 12.89 18.7 14.11 2.8 2.02 4.85 10.44 2.14 12.1-2.7 1.68-4.48.84-6.83-.28-2.33-1.14-10.84-8.45-15.99-12.5 4.2 3.39 13.46 10.45 15.42 12.41 1.04 1.05 6.82 9.11 3.36 11.73-2.14 1.62-7.1 1.12-10.67-1.22-1.75-1.16-5.14-3.93-7.48-5.17"/></g></g></svg>