<svg xmlns="http://www.w3.org/2000/svg" xmlns:xlink="http://www.w3.org/1999/xlink" width="750" height="500"><path fill="#000f5d" d="M0 0h750v500H0z"/><use transform="translate(95 -302.6)" xlink:href="#a"/><use transform="translate(165.1 -240)" xlink:href="#a"/><use transform="translate(202.3 -149.8)" xlink:href="#a"/><use transform="translate(126.4 -126.4)" xlink:href="#a"/><use transform="translate(187.9 -50)" xlink:href="#a"/><use transform="translate(131.7 27)" xlink:href="#a"/><use transform="translate(88.7 -37.1)" xlink:href="#a"/><use transform="translate(48 75)" xlink:href="#a"/><use transform="translate(-53 75)" xlink:href="#a"/><use transform="translate(-89 -37.1)" xlink:href="#a"/><use transform="translate(-136.8 27)" xlink:href="#a"/><use transform="translate(-192 -50)" xlink:href="#a"/><use transform="translate(-204.4 -149.8)" xlink:href="#a"/><use transform="translate(-127 -126.4)" xlink:href="#a"/><use transform="translate(-166.3 -240)" xlink:href="#a"/><use transform="translate(-95.8 -302.6)" xlink:href="#a"/><use transform="translate(-.2 -328.7)" xlink:href="#a"/><use transform="matrix(-1 0 0 1 752.2 0)" xlink:href="#b"/><use transform="matrix(-1 0 0 1 751.8 0)" xlink:href="#c"/><use transform="matrix(-1 0 0 1 751.7 0)" xlink:href="#d"/><path d="M355 372h15.9l5.3-15.6L381 372h16.1l-12.5 10.2 4.6 14.8-13.2-9-13 9 4.4-15-12.4-10z" id="a" fill="#d59f0f"/><path d="M346.4 114.7h22.5l7.4-22 6.8 22h22.7L388.2 129l6.4 20.8-18.6-12.5-18.4 12.6 6.3-21.1-17.5-14.1zM347.5 222.7v-.2c-18.2-24 .2-32.7.6-49.7 12 22.3-5.6 29.3 15.3 50l-15.9-.1z" fill="#d59f0f"/><path d="M367.6 222.7a48.7 48.7 0 01-9-32.7c2-9.3 8.4-18.5 7.5-25.6 3.4 8 6.6 11 5.6 16.9 5-15.2 16.7-23 32.5-23.8-28.4 21.7 8.7 38.3-15.8 65.2h-20.8z" fill="#d59f0f"/><path d="M393.6 222.8c22.6-27.3-6.1-41.3 20-53.5 1 8-5.4 8-2.5 18 .4 4.2-.1 7.7-1.5 10.7 2.6-3.3 7.8-9.5 11.1-11.9-7.8 11.8.6 22-18.2 36.7h-9.2M389.8 281.6c1-25.6 6.5-33.4 16.9-44l-61-.1c10.4 10.7 15.9 18.5 16.8 44h27.3zM376 344l8 25 4.4-74.1h-24.6l4.3 74zM376 456c3.5-3.3 4.5-14 4.5-14l2.1-43.2-6.6-4.7-6.6 4.7 2 43.3s1 10.6 4.5 13.9zM411.5 233l-70.7-.1v-6.7h70.8v6.8zM394.3 292.6H357v-8.3h37.3v8.3z" fill="#d59f0f"/><path d="M200.6 226.5l133.2-16-.4-3.5-133.3 16 .5 3.5z" id="d" fill="#d59f0f"/><path d="M225.9 145.7l109.6 42.1 1.3-3.3-109.6-42.2-1.3 3.4z" id="c" fill="#d59f0f"/><path d="M293.7 98.7l47.2 67.1 3-2-47.2-67.2-3 2z" id="b" fill="#d59f0f"/><path d="M373.9 142.7v24.5h3.5v-24.5H374zM336.9 115l-15.5-8 1-2 15.5 7.9-1 2m2.6-5.6L327 97.2l1.8-1.9 14.7 3a11.5 11.5 0 011.6.4L335 89l1.6-1.6 12.5 12-1.8 2-15-3a7.8 7.8 0 01-1.4-.4l10.2 9.8-1.6 1.6m13.2-28.7L349 82l4.8 12.3 3.8-1.5c1.7-.6 2.7-1.6 3-3 .5-1.3.3-3-.5-5.1-.8-2-1.8-3.3-3-4-1.3-.8-2.7-.8-4.3-.2m-.4 16.7L346 81l6.2-2.5c2.2-.8 4.2-.8 6 0 1.7 1 3 2.6 4 5.2s1.2 5 .6 6.9a7 7 0 01-4.4 4.2l-6 2.4m16.3-5L367.3 75l2.4-.2 1.3 17.3-2.3.2m10.6-7l5.3 1-1.2-8.1-4 7m-6.4 6.2l9.6-16 2.6.6 3 18.3-2.4-.5-.9-5.4-6.7-1.3-2.8 4.7-2.4-.4m17 3.8L400 81l2 1.4-.3 15a11.5 11.5 0 01-.2 1.7l8-11.6 1.8 1.2-9.8 14.4-2.1-1.5.4-15.2a7.8 7.8 0 01.1-1.4l-8 11.6-1.8-1.3m21.7 9.5l2.8 4.6 5.1-6.4-8 1.8m-8.7-.4l18.1-3.8 1.4 2.2-11.3 14.7-1.3-2.1 3.4-4.4-3.7-5.8-5.3 1.2-1.3-2" fill="#d59f0f"/></svg>