<svg height="477" viewBox="0 0 188.91 126.21" width="714" xmlns="http://www.w3.org/2000/svg"><path d="M-301.55 98.25h0s0 0 0 0h0" fill="none" stroke="#000" stroke-width=".26"/><path d="M108.17 52.33l13.7-4.04 6.07.23v4.04l-8.65-.34-7.3 3.48-3.15-.56z" fill="#0a1f62" fill-rule="evenodd"/><path d="M58.67 53.47l10.44-5.63 1.08 4.31-10.8 6 1.44 4.07 7.8-5.4 11.27-5.27 5.87 4.32-11.87 3.12L58.2 70.6l-1.8-5.27 3.6-3.12.23-1.8-1.44-3.23z" fill="#0a1e65" fill-rule="evenodd" stroke="#000" stroke-width=".26034680000000004"/><path d="M0 0h188.91v126.2H0z" fill="#fff"/><path d="M140.8 0h48.11v126.2h-48.1z" fill="#d80025"/><path d="M0 0h48.11v126.2H0z" fill="#0a1f62"/><path d="M103.43 22.89h-.42c-.52.03-1.05.08-1.63.16-2.46.33-3.2.7-4.64 2.3-1.33 1.49-1.52 2.23-1.25 4.92.23 2.29.16 3.58-.24 4.5-.24.55-.29.57-1.06.47-.45-.06-1.55 0-2.46.1l-1.65.21-.52-1.27a8.37 8.37 0 01-.62-2.5c-.1-1.45-.87-3.24-1.64-3.86a16.52 16.52 0 00-4.84-2.4c-1.2-.31-1.86-.35-4.05-.22-2.7.15-5.42.55-5.42.8s1.9.48 3.12.37l1.2-.1-1.02-.01c-.56 0-1.28-.04-1.6-.09-.56-.08-.58-.1-.2-.28.73-.37 3.64-.64 5.49-.51 2.31.16 3.52.53 5.53 1.7 1.35.8 1.7 1.1 2.22 1.98a7.1 7.1 0 011 3.5c0 .77.59 2.36 1.3 3.45.3.48.56 1.02.56 1.2 0 .47-.76.43-1.05-.05-.15-.24-.33-.35-.45-.26-.26.2-.25.58.01.46.12-.05.31.16.43.47.18.5.16.63-.13 1.07-.32.5-.32.52-.01.82.63.6.52 4.1-.12 3.69-.09-.06-.33.12-.55.4-.42.55-.77.67-.88.3-.05-.16-.18-.13-.46.12-.35.3-.43.31-.78.07-.3-.22-.47-.22-.74-.04-.2.13-.44.19-.55.12-.3-.2-.05 1.38.37 2.3.79 1.7 1.54 2.4 2.58 2.34.78-.04 2.54.55 3.34 1.11.33.23.91.53 1.3.67.4.13.93.41 1.19.62.44.34 1.65.62 5.2 1.17 1.48.23 2.8.79 2.92 1.23.02.09-.03.23-.14.42.21-.18.49-.37.8-.42-.22-.08-.38-.28-.6-.73-.35-.69-.36-.77-.1-.73.3.05.47.3.69 1.01.07.25.14.3.2.14.15-.51-.55-1.48-1.23-1.7-.37-.13-.84-.4-1.05-.62-.21-.21-.43-.33-.49-.26-.06.08.28.52.77 1 .94.92 1.02 1.2.23.78a8.4 8.4 0 00-1.58-.52 6.33 6.33 0 01-3.18-1.55c-.41-.42-.52-.48-.4-.2.1.23.3.51.45.64.5.46.26.62-.35.24-.37-.23-.74-.32-.94-.24-.26.11-.52-.07-1.08-.74a4.65 4.65 0 01-.75-1.05c0-.1-.08-.17-.17-.16-.12 0-.12.14.01.4.1.22.16.44.11.5-.13.16-.54-.53-.82-1.43-.25-.76-.29-.81-.3-.33-.02.78-.35.47-.35-.34 0-.72-.27-1.08-.39-.52-.06.33-.07.33-.2 0-.19-.48.36-1.81 1.05-2.56.82-.88 2.14-1.68 2.84-1.72.8-.05 1.49.34 1.97 1.1.6.96.98 1.35 2.14 2.18a9.72 9.72 0 011.52 1.33c.51.63.78 1.49.55 1.76-.26.32-1.36.02-1.75-.48-.4-.51-2.09-1.88-1.9-1.54.15.27-.13.27-.38 0-.31-.35-.25.07.07.46.16.18.39.33.51.33.13-.01.23.15.23.36 0 .54.45.97 1 .94.25-.02.54.07.65.19.11.12.58.18 1.05.14.47-.04.85.01.85.12 0 .2-.16.24-.93.26-.47 0-.48.02-.13.18.21.09.65.13.98.1 1.01-.1 2.07 1.4 1.85 2.63-.08.46-.07.49.1.18.48-.93-.12-2.59-1.12-3.06-.29-.13-.44-.44-.57-1.13-.26-1.36-.53-1.73-2.22-2.97-.83-.61-1.7-1.39-1.92-1.72-.44-.64-1.2-2.45-1.7-4a7.4 7.4 0 00-.86-1.7 5.32 5.32 0 01-.58-.94c0-.06.3-.3.67-.5.37-.23.68-.48.68-.57 0-.09.1-.17.21-.18.41-.02 1.31-1.21 1.31-1.73 0-.3.09-.49.21-.46.15.02.2-.23.2-.8-.01-.55.06-.84.2-.85a.4.4 0 00.3-.18c.06-.1-.13-.15-.41-.12-.43.04-.5.11-.42.43.3 1.26.3 1.27.02 1.16-.2-.08-.27 0-.27.3 0 .57-.17 1.02-.4 1.03-.1.01-.27.2-.36.44-.1.24-.24.42-.32.4-.08-.02-.21.08-.29.23-.08.15-.2.28-.27.28-.22.02-1.4.99-1.4 1.15 0 .09.12.27.26.4.44.4 1.07 1.74 1.52 3.24l.42 1.47c0 .03-.2-.02-.44-.1-.68-.27-1.27-.16-2.24.42-1.26.75-2.4 1.96-2.74 2.9l-.3.8-.2-.82c-.1-.45-.26-.77-.35-.7-.24.18-.39-.8-.25-1.62.07-.4.15-1.43.17-2.29.03-1.3-.02-1.6-.3-1.91-.32-.35-.32-.36.04-.82.19-.25.31-.5.26-.56-.1-.1 2.09-.48 3.19-.54.62-.04.65-.06.36-.3-.3-.23-.28-.27.35-.68 1.8-1.17 2.2-2.69 1.74-6.6-.27-2.37-.14-2.97 1-4.42 1.44-1.83 2.34-2.3 4.95-2.56 3.48-.34 4.76-.06 14.38 3.2 4 1.35 4.62 1.6 4.46 1.8-.07.07-.32.14-.57.16-.76.04-4.07-.93-5.24-1.54a4.78 4.78 0 00-2.54-.61 8.8 8.8 0 01-2.2-.32 5.01 5.01 0 00-1.86-.19 7.6 7.6 0 01-1.98-.13 3.22 3.22 0 00-1.53-.03c-.35.1-.48.19-.3.2.19 0 .57.03.85.05l2.37.12c1.02.05 2.28.2 2.79.35.5.14 1.54.28 2.28.3.84.04 1.55.18 1.89.4a29.4 29.4 0 005.3 1.73c.8.1 1.51-.32 1.16-.68-.3-.32-2.92-1.27-8.79-3.19-4.58-1.5-6.68-2.04-8.79-2.02zm-.2 2.44c-.43 0-.36.3.16.72.4.3.43.4.24.69-.16.22-.17.32-.03.31.44-.02.4-.68-.06-1.08-.34-.3-.41-.44-.24-.53.16-.08.14-.11-.07-.11zm-1.44.27h-.06c-.09.03-.15.1-.15.22s.23.45.5.74c1.07 1.08.45 1.3-.93.31-.69-.49-.98-.6-1.12-.43-.14.17-.03.38.43.82.73.72.78 1 .15.88-1.65-.3-1.63-.3-1.49.08l.22.7c.04.19.16.34.25.33.1 0 .12-.14.06-.3l-.21-.6c-.1-.27-.05-.3.2-.18.56.24 1.56.25 1.68.01.07-.12-.12-.47-.43-.78-.78-.8-.54-.84.47-.08.91.68 1.4.68 1.4 0 0-.2-.22-.59-.5-.84-.6-.55-.66-.79-.13-.49.35.2.36.18.15-.1-.14-.2-.34-.3-.49-.3zm-29.39.98a50.32 50.32 0 00-9.04 1.28c-.86.26-1.3.67-1.11 1.02.21.39 3.75 0 6.94-.76l2.7-.62c1.39-.3 1.46-.34.85-.42-.37-.05-.58-.1-.47-.13a.27.27 0 00.21-.24c0-.09-.03-.14-.08-.13zm5.81-.06c-.38.01-.72.07-.82.14-.15.1.15.14.73.11.61-.03.94.03.88.15-.06.12 0 .2.14.2.13-.02.29-.15.34-.3.07-.22-.13-.3-.87-.3h-.4zm22.78-.33l.5.48c.53.49.6.53.6.39 0-.05-.25-.26-.55-.48zm4.4.06c-.15 0-.3.04-.42.1-.35.17-.31.2.44.48a51.63 51.63 0 017.07 3.06c2.31 1.25 2.54 1.33 2.73.98.3-.58-1.08-1.39-5.72-3.35a19.28 19.28 0 00-2.81-1.04c-.17.01-.54-.06-.81-.15a1.39 1.39 0 00-.48-.08zm-24.4.66c-.12 0-.29.03-.48.11-.28.11-.36.2-.2.2.16 0 .3.08.3.17 0 .1.3.21.67.26.37.05.68.16.68.25 0 .1.3.21.67.26.44.05.68.19.68.38 0 .16.08.28.17.28.42-.03.1-.59-.42-.76-.33-.1-.6-.26-.6-.35 0-.08-.3-.2-.68-.24-.38-.05-.64-.17-.59-.27.1-.2.01-.3-.2-.3zm-6.33.24c-.21.02-.56.1-.96.2-.64.18-2.46.62-4.06.99-2.8.64-3.58.92-3.58 1.3 0 .09.13.2.3.24.57.14.99.06 3.42-.66l4.31-1.28c1.3-.37 1.7-.55 1.31-.57-.3-.02-.55-.1-.55-.19 0-.03-.07-.04-.2-.03zm33.86-.74c-.06 0-.1.01-.11.03-.16.19-.3.12 2.3 1.24 1.26.55 2.97 1.38 3.81 1.86 1.54.87 2.62 1.1 2.62.56 0-.35-.72-.83-3.18-2.08a11.45 11.45 0 00-2.82-1.1c-.47-.05-1.25-.2-1.73-.35-.37-.11-.71-.17-.89-.16zm-31.1 1.13c-.9.04-2.95.58-5.9 1.54-2.25.73-2.4.82-2.1 1.23.3.4.77.35 2.02-.19a18.4 18.4 0 012-.7c.55-.15 1.86-.6 2.93-1.01 1.79-.7 1.9-.76 1.35-.86a1.38 1.38 0 00-.3-.01zm22.06-.43c-.07 0-.1.06-.1.15s.21.25.47.35c.73.3.84.23.3-.16-.35-.24-.56-.35-.67-.34zm5.05-.05c-.12 0-.2.03-.25.08-.12.15.38.44 1.65.95 1 .4 2.93 1.26 4.28 1.92 1.35.65 2.6 1.22 2.79 1.26.44.1.61.04.63-.2.03-.27-3.54-2.09-5.45-2.78l-2.67-.97a3.42 3.42 0 00-.98-.26zm8.77.02c-.16.02.53.46 1.53 1 1.01.52 2 1.08 2.2 1.24.4.3 2.09.2 2.03-.12-.02-.1-1.01-.48-2.2-.86-1.2-.38-2.41-.82-2.71-.98-.3-.17-.68-.3-.85-.28zm-34.12.83c-.33.04-1.11.28-2.69.81-1.32.45-2.74.9-3.16 1-1.44.33-2.33 1.03-1.56 1.22.16.04.58.06.93.06.76-.02 7.49-2.65 6.93-2.7-.21-.03-.34-.13-.29-.23.06-.12.03-.18-.16-.16zm-17.63.43c-.92.05-8.56 2.43-9.09 2.83-.08.06-.04.18.09.26.4.28 2.52.04 3.68-.41a30.2 30.2 0 014.8-1.39c1.06-.19 1.28-.48.42-.56-.5-.04-.52-.06-.17-.22.34-.16.54-.53.27-.51zm19.87-.08c-.42 0-2.73.85-5.78 2.1-.46.19-.88.34-.95.35-.08 0-.43.16-.78.36l-.66.35.42.36c.53.47.8.39 3.87-1.16a24.75 24.75 0 013.37-1.46c1.06-.27 1.33-.46.61-.44-.4.02-.43-.01-.17-.15.23-.12.27-.2.13-.3h-.06zm21.95-.51l-.08.01c-.2.1-.06.23.49.45.9.35 3.54 1.7 5.65 2.89 1.47.82 2.28.97 2.43.43.14-.5-7.46-3.86-8.49-3.78zm-1.03.6c-.05-.01-.1 0-.14 0-.5.09-.46.13.65.67.65.32 2.02 1.08 3.04 1.69 1.02.6 2.08 1.2 2.37 1.3.64.25.63.25.92.02.39-.3.03-.62-1.8-1.62-2.28-1.24-4.28-2.06-5.04-2.07zm-37.9 1.01l-.26.01c-.42.04-1.17.18-2.4.43-2.22.45-3.8.91-5.54 1.64-1.34.56-1.53.75-1 .99.76.33 3.31-.11 5.57-.96 1.17-.44 2.7-.95 3.43-1.14.89-.23 1.3-.43 1.3-.62 0-.2-.13-.22-.52-.1-.37.12-.5.1-.41-.06.06-.11.02-.18-.18-.19zm20.05-.4c-.1 0-.14.1-.08.2.06.1.03.2-.07.2-.35.02-.18.33.28.51.63.25.69.25.34-.04a.85.85 0 01-.3-.56c0-.18-.08-.32-.17-.31zm-2.37.28c-.11 0-.25.02-.43.04-1.2.16-6.16 2.54-6.16 2.95 0 .1.13.26.3.36.4.26 1.13.04 2.68-.82.73-.4 1.9-.92 2.6-1.15 1.8-.57 1.7-.51 1.54-1.01-.1-.3-.18-.39-.53-.37zm18.39-.35c-.35.01-.45.08-.45.25 0 .16.13.33.3.37a35.8 35.8 0 014.68 2.5c1.22.8 2.3 1 2.3.43 0-.4-.59-.8-3.24-2.25-1.76-.97-2.5-1.27-3.17-1.3h-.42zm-31.91 1.1a7.2 7.2 0 00-1.34.37c-1.67.56-1.64.56-1.37.17.11-.17.18-.3.14-.3-1 .06-6.51 2-7.03 2.48-.28.26-.28.29.12.45.66.27 1.48.15 3.05-.42.79-.3 2.54-.93 3.89-1.42 1.35-.5 2.52-.97 2.6-1.07.17-.19.16-.27-.06-.25zm30.29-.66c-.07 0-.13.03-.16.07-.05.06 0 .29.1.49.3.52.28.56-.3.6-.55.03-.64.25-.25.6.14.13.26.32.26.42 0 .1-.12.15-.26.1-.26-.1-.35.3-.13.55.07.07.15.04.18-.07.03-.1.17-.16.3-.1.35.13.31-.52-.05-.98-.29-.36-.29-.37.17-.27.4.1.46.05.46-.35 0-.25-.09-.55-.2-.68-.11-.12-.13-.22-.03-.23.09 0 .25.08.35.2.12.12.22.12.28 0 .1-.18-.43-.38-.72-.35zm21.72-.26h-.25c-.39.03-.67.11-.78.24-.05.06.28.24.73.4.44.17 1.08.41 1.4.55 1.4.57 5.65 2.07 7.44 2.62 1.07.32 3.17 1.1 4.66 1.7 1.49.61 2.8 1.11 2.9 1.11.3 0 .42-.33.18-.54a35.19 35.19 0 00-5.95-3 150 150 0 00-8.21-2.76 7.63 7.63 0 00-2.12-.32zM85.39 30.1c-.03 0-.03.05.02.13.07.13.01.23-.14.24-.32.02-.35.34-.06.46.36.15.4.12.42-.28.02-.22-.05-.45-.16-.51l-.08-.04zm-1.76.13a15.83 15.83 0 00-5.57 2.15c-.93.54-1.18.86-.9 1.18.3.31 1.45-.1 3.44-1.25.8-.46 1.84-.91 2.33-1.02.8-.17.89-.23.89-.66 0-.3-.04-.4-.19-.4zm16.39-.37a.1.1 0 00-.03 0c-.4.18-.15.57.69 1.13l2.27 1.53c.96.65 1.58.94 1.97.92.73-.04.72-.44-.03-1.05-.7-.6-4.42-2.5-4.87-2.53zm-31 .8a8 8 0 00-1.98.6c-3.86 1.47-4.35 1.74-3.84 2.09.45.3 1.25.1 4.29-1.08 3.12-1.22 4-1.69 2.58-1.38-.55.12-.8.1-.8-.05 0-.12-.07-.19-.25-.19zm50.02-.83c-.16 0-.31.04-.5.1-1 .27-1.27.57-.62.7.27.05 1.14.35 1.93.66 1.36.54 3.6 1.32 10.57 3.72 2.95 1 4.13 1.2 4.27.67.12-.41-1.39-1.05-6.44-2.72-2.68-.89-5.78-1.98-6.9-2.44-1.38-.56-1.85-.73-2.31-.7zm-47.8 1.4c-.29 0-1.03.3-3.15 1.15-2.28.91-2.88 1.24-2.88 1.53 0 .38 1.5.29 2.63-.15 3.73-1.44 4.9-1.94 4.95-2.14.04-.15-.18-.21-.62-.19-.37.02-.72-.04-.78-.14-.02-.04-.07-.07-.16-.06zm14.73-.2c-.08 0-.1.07-.04.18.06.1 0 .2-.11.21-.13.01 0 .23.26.49.4.39.44.5.26.78-.2.28-.16.38.23.72.33.28.43.51.36.82-.07.3 0 .49.27.64.28.15.33.27.19.43-.27.34-.23.94.07.92.14 0 .24.06.23.14v.4c.02.32.4.19.5-.18.04-.16 0-.2-.12-.11-.12.1-.2-.03-.2-.36 0-.27-.05-.49-.12-.47-.33.08-.4-.02-.2-.31.18-.27.15-.37-.18-.61-.38-.29-.38-.3-.07-.6.23-.21.26-.33.12-.38a2.65 2.65 0 01-.6-.44c-.37-.34-.37-.36-.06-.65.3-.29.28-.32-.25-.67-.47-.3-.51-.38-.26-.5.24-.13.26-.2.08-.31-.16-.1-.29-.15-.36-.14zm-1.28.26l-.43.02a7.33 7.33 0 00-3.4 1.23c-.63.54-.95 1-.83 1.2.12.22 1.04.16 1.15-.07.21-.4 1.64-1.08 2.65-1.27 1.23-.22 1.92-.57 1.09-.54-.48.02-.5 0-.18-.29.23-.21.26-.27-.05-.28zm15.12-.24h-.12a.64.64 0 00-.13.05c-.47.2-.26.71.6 1.42.42.34 1.12.99 1.56 1.43.6.6.93.8 1.34.77.44-.02.55-.1.55-.43 0-.5-.82-1.4-2.03-2.25-1.05-.73-1.47-.98-1.77-.99zm16.65-.25l-.3.01c-.23.02-.37.08-.37.19 0 .09.55.37 1.23.64l2.58 1.04c4.76 2 8.94 3.62 9.97 3.85.65.15 1.3.23 1.42.17.12-.05.3-.1.38-.1.08 0 .15-.18.15-.37 0-.45-.47-.67-3.72-1.75a188.93 188.93 0 01-8.37-2.97 9.08 9.08 0 00-2.97-.7zM73.3 32.17c-.4.01-1.17.24-2.38.7-2.46.95-2.9 1.23-2.55 1.62.17.18 1.44-.1 3.98-.91 2.34-.75 3.28-1.23 2.03-1.05-.5.08-.72.03-.72-.14 0-.15-.11-.22-.36-.22zm41.75-.8c-.1 0-.18 0-.25.02-.2.01-.32.06-.26.13.2.2 3.43 1.86 3.93 2.01.22.07 1.2.52 2.2 1 .98.5 2.55 1.23 3.48 1.64 1.2.53 1.93.74 2.5.71 1.52-.08.93-.52-2.7-2-1.94-.78-3.82-1.56-4.2-1.73-2.6-1.18-4.14-1.76-4.7-1.77zm-1.38.36h-.14c-.43.09-.33.2 1.1 1.18.86.6 2.63 1.64 3.92 2.3 2.35 1.23 3.1 1.42 3.48.89.15-.24-.04-.42-1.05-1-.68-.38-1.77-.9-2.42-1.17-.64-.25-1.93-.88-2.86-1.38-1-.53-1.67-.8-2.03-.82zm-28.22.75c-.77.02-3.05.62-3.51.98-.47.36-.65.94-.37 1.24.15.16.81.01 2.03-.47.49-.2 1.13-.4 1.44-.46.32-.07.53-.21.5-.36a.8.8 0 01.13-.5c.13-.2.13-.3 0-.4-.04-.02-.11-.03-.22-.03zm27.05-.38c-.03 0-.06 0-.07.03-.06.08.07.27.29.44.43.31 2.92 2.43 3.06 2.6.26.33 1.2.9 1.7 1.04.75.2.7.2 1.13.04.53-.2.36-.4-.94-1.08-.62-.33-1.62-.93-2.23-1.33-1.87-1.25-2.68-1.74-2.94-1.74zm-13.39.4c-.18.03-.26.22-.21.56.02.25.6 1 1.28 1.7.89.92 1.34 1.25 1.6 1.19.9-.2.34-1.28-1.42-2.75-.6-.5-1.01-.72-1.25-.7zm11.32-.25l-.06.01c0 .03.51.5 1.14 1.03.63.54 1.63 1.42 2.22 1.96.6.55 1.32 1.1 1.6 1.23.3.13.6.2.7.17.42-.17.18-.6-.87-1.55-2.12-1.91-3.27-2.71-4.05-2.8-.3-.04-.57-.06-.68-.05zm-35.05.87c-.45.03-1.28.24-2.42.64-1.71.6-2.18.83-2.14 1.07.03.16.24.35.47.42.6.17 1.72-.08 3.47-.76 1.64-.63 2.14-.97 1.38-.93-.26.02-.43-.06-.37-.16.1-.2-.03-.3-.39-.28zm34.02-.68c-.06 0-.13 0-.21.02-.38.05-.68.14-.68.2 0 .07.61.65 1.36 1.3l2.06 1.77c.74.65 1.65.78 1.65.24 0-.37-.49-.88-2.32-2.43-1.1-.92-1.39-1.13-1.86-1.1zm-1.55.44c-.1.01.1.5.47 1.1.36.6.7 1.3.77 1.55.07.24.37.55.66.68 1.2.54 1.78.1 1.02-.78-.73-.84-2.7-2.56-2.92-2.55zm-28.75.73a8.03 8.03 0 01-1.7.39c-.9.12-3.45 1.12-3.87 1.53-.16.16-.17.27-.02.47.31.41 1.08.25 3.43-.74 2.03-.86 2.88-1.33 2.32-1.3-.11.01-.15-.08-.09-.21.06-.1.04-.15-.07-.14zm27.72-.46h-.2l-.66.04.67 1c.7 1.02 1.31 2.41 1.08 2.43-.08 0-.32-.4-.56-.9a9.17 9.17 0 00-.87-1.47c-.4-.5-.53-.56-1.22-.45-.43.06-.78.2-.78.32s.3.56.65.98a8.02 8.02 0 011.63 3.06c.07.43-.03.3-.4-.48-.65-1.38-2.02-3.08-2.28-2.83-.1.1-.42.28-.7.4l-.5.22.77.92c.98 1.19 1.84 2.68 1.84 3.2 0 .29-.1.19-.36-.36a17 17 0 00-2.06-3.09c-.21-.19-.34-.17-.7.12-.23.2-.43.43-.43.51 0 .08.48.69 1.06 1.34.58.66 1.2 1.54 1.4 1.95.18.42.4.82.5.9.1.06.32 0 .5-.15.2-.15.54-.35.78-.43.24-.08.53-.38.63-.65.11-.28.29-.52.4-.52.35-.02.82-.68.82-1.16 0-.33.16-.54.6-.77.36-.2.58-.46.58-.68 0-.54-.61-1.93-1.2-2.75-.39-.56-.56-.7-.99-.7zm-8.38.41l-.1.58c-.1.51 0 .68.76 1.41.47.46 1.05 1.07 1.28 1.35.48.59.57.61.84.2.3-.43.04-.84-1.46-2.27zm-12.4.4l-.15.01c-.78.06-2.78.72-3.2 1.07-.48.39-.53 1-.1 1.27.42.26.62.22 1.25-.25.31-.23.98-.56 1.5-.75.8-.28.93-.4.97-.85.05-.4.01-.5-.28-.5zm-5.76.35c-.22 0-.95.29-2.3.89-1.98.89-2.53 1.25-2.36 1.55.26.48 2.62-.18 4.53-1.28.92-.52 1.05-.94.23-.71-.51.14-.52.13-.22-.16.2-.2.25-.3.12-.3zm7.63.05c-.12 0-.21.04-.21.11 0 .1.15.17.34.16.18-.01.34-.05.34-.1 0-.04-.16-.1-.34-.15a.62.62 0 00-.13-.02zm-6.35.85c-.56.03-1.04.51-.9.92.07.23.25.3.64.23.44-.08.55-.19.6-.63.05-.46 0-.54-.34-.52zm4.93.1c-.5.03-2.32.85-2.64 1.2-.42.46-.5 1.05-.17 1.19l.25.1c.02 0 .48-.27 1.02-.62.53-.35 1.18-.74 1.42-.86.35-.17.43-.32.37-.62-.05-.22-.16-.4-.25-.39zm11.56-.09c-.1 0-.23.2-.29.42-.09.33.13.68 1.07 1.7a7.13 7.13 0 001.36 1.29c.36-.02.39-.81.04-1.36-.41-.64-1.92-2.06-2.18-2.05zm-3.87.44a.1.1 0 01.05.03c.04.05-.04.2-.18.35-.16.16-.26.18-.26.05 0-.2.25-.45.39-.43zm-.8.03c.14 0 .21.08.16.19-.06.1-.18.2-.27.2-.09.02-.16-.07-.16-.18 0-.1.12-.2.27-.2zm-13.4.35c-.13 0-.36.07-.7.22-.91.4-1.31.79-1.15 1.09.15.27 1.25.2 1.94-.12.5-.23.52-.28.28-.57a1.14 1.14 0 01-.26-.54c0-.05-.04-.08-.11-.08zm11.96-.26c.1-.01.13.08.07.19-.05.1-.13.2-.18.2-.04 0-.07-.08-.07-.19 0-.1.08-.2.18-.2zm-1.1.13c.03 0 .05 0 .07.02.1.06.17.15.17.2 0 .05-.07.1-.17.1-.09 0-.17-.09-.17-.2 0-.09.05-.13.1-.12zm-8.56.77h-.1c-.63.05-1.1.62-.68 1.06.1.12.5.18.87.12.54-.07.69-.18.73-.52.04-.32-.08-.46-.48-.6a1.1 1.1 0 00-.34-.06zm11-.2c.1 0 .17.08.17.19 0 .1-.08.2-.17.2-.1 0-.17-.07-.17-.18 0-.11.08-.2.17-.2zm-1.72.1c.24 0 .25.02.03.2-.33.26-.56.28-.42.02.05-.11.23-.2.39-.21zm5.76-.1a.2.2 0 00-.04 0c-.64.15-.48.68.59 1.96 1.06 1.28 1.54 1.48 1.64.69.07-.58-1.64-2.62-2.19-2.65zm-10.44.26h-.13a3.9 3.9 0 00-1.8.79c-.44.32-.6.82-.35 1.1.2.22.56.1 1.2-.42a4.6 4.6 0 011.1-.68c.25-.09.46-.27.46-.42 0-.24-.18-.36-.48-.37zm5.5-.12c.05 0 .1.02.13.08.05.1-.02.23-.16.3-.14.07-.25.05-.25-.05 0-.17.12-.3.23-.33h.05zm-14.9.47h-.04l-.23.08c-.22.08-.34.29-.34.59 0 .61.24.58.48-.06.17-.44.23-.6.14-.6zm11.14-.25a.3.3 0 00-.15.04c-.14.08-.26.22-.26.33 0 .26.38.07.47-.23.02-.09 0-.14-.06-.14zm-7.75.42c-.05.02-.16.13-.36.36-.5.57-.53.91-.13 1.18.17.1.52.13.8.05.62-.16.99-.54.5-.51-.43.02-.75-.32-.75-.82 0-.18 0-.27-.06-.26zm15.27.1a.43.43 0 00-.12.03c-.2.08-.37.23-.37.32s.54.8 1.2 1.58c1.2 1.43 1.85 1.77 1.85 1 0-.23-.52-1-1.15-1.73-.84-.97-1.14-1.24-1.41-1.2zm-8.45.32c-.12 0-.3.05-.53.13-1.13.36-1.91 1.14-1.55 1.54.27.3.89.02 1.63-.74.66-.66.81-.95.45-.93zm-9.57.33c-.56.02-.58.1-.73.74-.23.97-.22 1.14.08 1.8.31.68.59.72.59.08 0-.26.11-.58.25-.72.14-.15.25-.37.25-.5 0-.14.16-.48.34-.77.19-.28.34-.55.34-.58 0-.04-.38-.06-.84-.06l-.28.01zm23.34-.33a.5.5 0 00-.22.1c-.48.32-.43.64.18 1.28.29.3.87 1.07 1.28 1.72.77 1.2 1.3 1.49 1.53.81.18-.55-.78-2.32-1.74-3.22-.58-.54-.82-.72-1.03-.69zm-18.12.43c-.32.02-1.1.95-1.48 1.8-.25.56-.17 1.85.13 2.28.1.13.39.22.66.2.45-.02.48-.07.48-.81 0-.77.5-2.22.85-2.5.25-.2.2-.89-.07-.87-.13 0-.36-.03-.5-.1a.15.15 0 00-.06 0zm5.05.03h-.1c-.38.03-1.51 1.36-1.37 1.62.07.12.3.21.53.2.31-.02.5-.22.75-.87.36-.88.4-.96.2-.95zm6.82-.13h-.01a4 4 0 00.52 1.05c.33.54.76 1.32.97 1.74.42.85 1 1 .99.28 0-.28-.44-.93-1.21-1.8-.63-.7-1.17-1.24-1.26-1.27zm-6.24.49c-.3.02-.65.75-.5 1.04.08.14.23.04.43-.28.38-.59.4-.78.07-.76zm-9.49.3c-.25.03-.47.4-.77 1.18-.39 1-.4 2.07-.03 2.94.16.37.33.67.38.67.06 0 .2-.55.3-1.21s.4-1.56.64-1.98l.45-.77-.45-.5c-.2-.22-.37-.33-.52-.32zm5.15.17c-.24 0-.43.26-.73.87a3.4 3.4 0 00-.17 2.9c.44.96 1.04.6.95-.6-.03-.34.09-1.12.25-1.74.26-.97.27-1.14.05-1.29-.13-.09-.25-.14-.36-.14zm15.84.03c-.7.04-.7.74.02 1.93.35.6.87 1.35 1.15 1.68.6.72 1.28.8 1.28.13 0-1.15-1.72-3.78-2.45-3.74zm-19.13.53c-.34.02-1.03.9-1.36 1.74-.62 1.58-.52 2.74.33 3.77.19.23.39.41.44.41.05 0 .1-.48.12-1.05a5.1 5.1 0 01.24-1.53c.2-.46.4-3.35.23-3.34zm4.34.34c-.66.04-.9 2.59-.35 3.74.21.44.25.45.69.15.25-.17.33-.44.34-1.24.01-.57.07-1.25.14-1.52.18-.73.04-1.25-.26-.95-.17.17-.23.18-.23.02 0-.12-.15-.21-.33-.2zm3.13.32a.66.66 0 00-.35.18c-.34.3-.61 2.04-.47 2.95.06.37.18.52.37.47.2-.06.3-.42.37-1.58.06-.83.16-1.6.22-1.71.11-.22.02-.33-.14-.31zm-1.12.15h-.15c-.42.03-.56.15-.7.58-.2.63-.26 2.66-.08 2.98.34.63.82-.19.96-1.67.06-.67.17-1.37.23-1.56.09-.26.05-.33-.26-.33zm1.68.1c-.28.01-.43 1.6-.21 2.25.22.67.38.22.35-.99a3.8 3.8 0 00-.14-1.26zm10.23-.08l-.45.4c-.24.22-.45.47-.45.55 0 .08.27.55.61 1.04.34.5.7 1.1.79 1.33.1.27.32.42.57.41.33-.02.4-.13.4-.62 0-.77-.36-1.67-.97-2.47zm5.57.92l-.45.52c-.25.28-.53.52-.62.52-.48.03-.02.38.98.74 1.91.69 3.58 1.7 4.9 2.95.68.65 1.28 1.19 1.32 1.18.05 0 .08-.14.08-.3 0-.6-3.53-3.9-5.6-5.22l-.6-.4zm-7.21.4c-.07.01-.11.07-.11.18 0 .1.28.7.62 1.35.4.76.72 1.16.93 1.15.49-.03.37-.61-.33-1.65-.44-.64-.9-1.05-1.11-1.03zm-.77.46c-.2 0-.19.07.03.34.15.19.4.66.54 1.05.26.7.6.95.6.44 0-.42-.9-1.85-1.17-1.83zm-15.53.44c-.08.01-.14.1-.2.25a3.32 3.32 0 00.88 3.9c.78.62 1.05.68.88.2a4.7 4.7 0 01-.27-2.76c.24-1.41.23-1.46-.11-1.3-.17.06-.5 0-.76-.13-.21-.12-.33-.17-.42-.16zm1.82.85a.09.09 0 00-.07.03c-.2.24-.12 1.74.14 2.73.3 1.12.78 1.69 1.61 1.9.33.08.62.12.65.09.04-.04-.17-.6-.46-1.25a4.99 4.99 0 01-.53-2.22c0-.94-.03-1.02-.34-.9-.2.06-.48-.01-.65-.18-.12-.13-.26-.2-.35-.2zm5.55.36c.09 0 .15.21.13.48-.03.64-.28.66-.28.02 0-.27.07-.5.15-.5zm15.3-.1c-.33.01-.55.08-.48.21.06.1-.07.21-.28.23-.22.02.06.18.62.35.56.16 1.2.27 1.44.24.63-.1.52-.62-.17-.85-.37-.12-.8-.18-1.13-.17zm-16.74.85c.07 0 .1.07.1.2 0 .34-.1.4-.24.14-.05-.1-.02-.24.08-.31a.11.11 0 01.06-.03zm14.54-.29a.43.43 0 00-.16.04c-.25.13-.13.26.62.67 1.08.6 1.18.6 1.6.22.3-.27.28-.3-.26-.4a5.37 5.37 0 01-1.12-.38 1.4 1.4 0 00-.68-.15zm4.77.04l.6.52c.32.28 1.13 1.08 1.8 1.77 1.1 1.13 1.74 1.51 1.74 1.04 0-.26-2.6-2.48-3.44-2.94zm-6.1.27c-.03 0-.04.01-.05.02-.12.15.68 1.05 1.07 1.22.48.2.9.17 1.02-.07.1-.2-1.7-1.2-2.04-1.17zM88.39 45c.09 0 .17.17.17.39 0 .21-.08.4-.17.4-.1 0-.17-.17-.17-.38 0-.22.07-.4.17-.4zm18.35-.15l.34.43.34.43-.43-.07a4.96 4.96 0 01-.76-.21c-.39-.15-.47-.25 1.3 1.56 1.28 1.3 1.97 1.63 2.27 1.06.13-.27-1.72-2.38-2.51-2.87l-.55-.33zm-6.44.27c-.16 0-.24.16-.24.48 0 .34.12.55.37.64.2.07.52.09.69.02.28-.1.27-.16-.15-.64-.29-.34-.52-.5-.67-.5zm-12.78.72c.08 0 .19.16.24.38.1.45-.14.54-.29.1-.13-.4-.13-.47.05-.48zm17.98-.24c-.04 0-.03.07.02.22.12.35-.12.48-.3.16-.06-.1-.19-.18-.28-.18-.1 0 .41.64 1.14 1.4.86.91 1.46 1.4 1.71 1.38.21-.02.39-.1.39-.18 0-.15-1.6-1.9-2.36-2.56-.18-.16-.28-.24-.32-.24zm-16.3.74c.14 0 .36.4.37.7 0 .37-.13.31-.35-.14-.1-.22-.14-.46-.08-.53a.07.07 0 01.06-.03zm14.96-.21c-.3.01-.21.2.59 1.15.52.62 1.07 1.23 1.2 1.35.35.31.7.27.7-.06 0-.43-2.08-2.47-2.49-2.44zm-.71.37c-.02.01.06.11.23.33.18.22.27.46.21.54-.06.07 0 .28.16.46.14.18.28.44.3.59.02.14.1.36.16.5.16.28.73.28.88-.01.13-.25-1.16-2-1.67-2.29a1.6 1.6 0 00-.27-.12zm.16.56c-.1 0-.17.1-.17.2 0 .11.08.2.17.19.1 0 .17-.1.17-.2s-.08-.2-.17-.2zm-15.62.4c.06 0 .13.1.21.27.12.24.18.48.14.53-.13.17-.5-.46-.42-.72.02-.06.04-.09.07-.09zm.68.07c.11 0 .28.14.4.38.1.2.11.38.03.39-.18 0-.54-.4-.54-.6 0-.11.04-.17.1-.17zm14.15-.16c-.05.05 0 .28.11.5.18.39.17.4-.15.22-.45-.25-.45-.1 0 .6.35.55 1 .73 1 .28a4.4 4.4 0 00-.94-1.6h-.02zM90 48.15l.38.35c.21.2.38.38.38.42 0 .15-.13.05-.43-.35zm8.65.41c.05-.01.07.06.07.21 0 .19.11.33.26.32.14 0 .22.08.16.19-.15.29-.35.26-.6-.07-.16-.22-.17-.35-.02-.53.05-.07.1-.1.13-.12zm-3.97 1.57c-.02.01.03.12.13.33.1.24.27.43.36.42.24-.01.2-.1-.2-.5-.18-.17-.27-.26-.3-.25z" fill="#69310b"/><path d="M68.84 42.47a11.42 11.42 0 00-1.4.1 4.53 4.53 0 00-1.44.47 5.29 5.29 0 00-1.52 1.33 1.55 1.55 0 00-.27.82 1.68 1.68 0 00.06.44 2.63 2.63 0 00.32.75l.1.17.07.1c.13.2.27.4.44.6.35.45.64.87.8 1.14.1.17.14.28.13.3-.03.05-.2.16-.44.3-.25.15-.6.34-.95.52a56.96 56.96 0 00-4.94 2.83c-.81.53-1.43.98-1.69 1.25a8.3 8.3 0 00-1.45 2.36c-.1.26-.16.5-.2.78a8.38 8.38 0 00-.02 1.62 8.31 8.31 0 00.24 1.55c.03.11.07.21.12.3.08.18.18.32.3.4a2.39 2.39 0 01.3.18c0 .02.02.03.04.04l.13.1a7.6 7.6 0 011.3 1.21c.11.15.18.27.15.31a.82.82 0 01-.11.14l-.12.12-.12.11-.7.63a15.41 15.41 0 00-1.68 1.7 4.07 4.07 0 00-.59.92 1.87 1.87 0 00-.13.53c-.02.3.03.62.15 1a6.16 6.16 0 00.4.98 15.42 15.42 0 01.72 2.62 11.11 11.11 0 00.22.84c.05.15.1.28.16.38.05.1.1.18.15.21.05.04.1.08.17.1a1.32 1.32 0 00.5.11 3.63 3.63 0 001.07-.09c.28-.05.58-.13.91-.23l1-.3 1.2 1.4a29.2 29.2 0 011.8 2.39c.1.13.21.25.33.33a1 1 0 00.22.13.55.55 0 00.2.05c.19.01.44-.01.74-.07.37-.07.8-.19 1.28-.33a25.26 25.26 0 004.19-1.79c.25-.13.48-.27.7-.4.62-.4 1.69-1.02 2.36-1.38.65-.33 1.37-.76 2.19-1.29a70.81 70.81 0 004.96-3.55l1.94-1.45.25-.19c.66-.48 1.2-.87 1.46-1.03a11.48 11.48 0 011.7-.9 14.93 14.93 0 011.38-.54 3.71 3.71 0 01.51-.12h.1a.8.8 0 01.12.02l.07.04.02.03.02.05c.03.16-.1.54-.45 1.48-.32.87-.63 1.64-.7 1.71 0 .02-.08.04-.2.06-.37.07-1.16.16-2.04.22-2.25.16-3.5.56-4.83 1.54a2.38 2.38 0 00-.8 1.08c-.06.17-.1.35-.11.52a1.2 1.2 0 00.03.34c.06.2.58.68 1.15 1.08l.23.17a15.3 15.3 0 011.92 1.73c.3.32.62.63.9.87.26.24.48.41.58.45l.07.02a2.23 2.23 0 00.6-.07c.3-.07.7-.2 1.12-.35a21.57 21.57 0 003.45-1.7c.23-.14.43-.28.58-.41a27.3 27.3 0 002.3-2.23l.3-.34a59.84 59.84 0 005.91-7.48l.33-.56c1.29-2.28 2.06-3.62 2.51-4.34l.35-.52c.08-.1.15-.23.2-.36a.85.85 0 00.1-.3c0-.04 0-.09.02-.15a3.59 3.59 0 01.23-.71l.26-.6 1.41.81a13.67 13.67 0 001.18.6c.12.04.23.08.35.1.24.07.5.11.85.15a19.35 19.35 0 001.3.1 16.5 16.5 0 004.12-.15c.8-.13 1.39-.24 1.9-.37.85-.22 1.48-.5 2.5-1.05a17.83 17.83 0 015.29-1.8 3.7 3.7 0 011.31-.08c.04.01.07.03.08.06v.03c0 .12-.06.23-.13.23l-.12.08c-.18.16-.54.52-.92.94-.66.74-.86.94-1.45 1.08a5.82 5.82 0 01-.74.14 19.82 19.82 0 00-2.05.44 47.72 47.72 0 00-8.73 3.45c-.25.13-.46.26-.65.38-.46.3-.72.55-.83.8-.04.1-.06.2-.06.32.01.2.1.43.27.7.11.16.25.43.4.73l.45 1c.29.68.52 1.32.52 1.49V65a.2.2 0 01-.02.05.2.2 0 01-.06.07.25.25 0 01-.09.05c-.14.05-.36.01-.62-.1a11.71 11.71 0 00-.76-.4l-.23-.12-1.06-.49-.26-.11-.86-.37-.24-.1a38 38 0 00-1.32-.52 5.36 5.36 0 00-.92-.29 2.03 2.03 0 00-.33 0 .69.69 0 00-.46.19 1.34 1.34 0 00-.2.24 3.64 3.64 0 00-.27.38c-.61 1-1.72 3.1-2.03 3.84a.95.95 0 00-.08.25c0 .15.31.6.7 1a46.67 46.67 0 012.15 2.69 19.53 19.53 0 01.97 1.43 1.86 1.86 0 00.78.43c.4.11 1.5.5 2.43.87l1.7.67 1.1-.75c.3-.2.61-.39.89-.53s.5-.23.63-.24c.12 0 .52.03 1.06.11l1.95.31c1.42.25 3.32.52 4.21.6l1.63.14-.67.52a12.32 12.32 0 00-1.54 1.49c-.2.23-.34.43-.38.55l-.02.05c0 .02 0 .02.02.03h.1l.08-.03c.12-.05.3-.14.48-.26a5.26 5.26 0 011.04-.5c.4-.17.8-.3 1.08-.37a.9.9 0 01.3-.03c.02 0 .04 0 .04.02v.03c0 .02-.02.03-.03.05-.1.13-.39.4-.73.68a6.33 6.33 0 00-1.07 1.1 3.17 3.17 0 00-.43.76.63.63 0 00-.03.18c0 .02 0 .03.02.03.02.02.05.02.1.01l.1-.02c.14-.04.33-.13.54-.25 1.44-.82 3.97-1.04 6.26-.55l.2.04a12.43 12.43 0 003 .02c.78-.1 1.28-.32 1.66-.75a2.38 2.38 0 00.35-.5 4.6 4.6 0 00.47-1.1l.03-.18a2.73 2.73 0 00.04-.55l-.01-.2-.03-.2-.03-.22-.02-.09c-.05-.27-.13-.58-.23-.94l-.17-.63a17.8 17.8 0 01-.44-2.13 2.4 2.4 0 00-.2-.5 1.64 1.64 0 00-.32-.41 4.85 4.85 0 00-1.78-.87 21.28 21.28 0 00-4.57-.83 4.97 4.97 0 00-.76 0 6.54 6.54 0 01-1.05-.11 9.14 9.14 0 00-.82-.11h-.07a21.44 21.44 0 00-1.15-.08l-1.33-.05.56-.7.16-.2c.1-.13.17-.23.21-.33.12-.22.1-.37 0-.63-.04-.1-.16-.24-.32-.4a4.37 4.37 0 00-.6-.49 7.62 7.62 0 00-.48-.33 6.73 6.73 0 01-1.03-.8.28.28 0 01-.05-.07v-.03-.02a.66.66 0 01.18-.11 21.65 21.65 0 013.66-1.2l.99-.2.96 1.02a20.28 20.28 0 001.47 1.4 2.98 2.98 0 00.3.19 3.44 3.44 0 001.48.43 1.91 1.91 0 00.71-.1 93.49 93.49 0 012.08-.8c.94-.34 1.61-.51 2.47-.67.87-.16 1.44-.27 1.85-.39a2.9 2.9 0 00.76-.33 1.72 1.72 0 00.32-.27 5.12 5.12 0 00.6-.77c.06-.11.1-.22.12-.35a10.16 10.16 0 00.05-.77 5.36 5.36 0 00-.4-2.05l-.17-.46a12.73 12.73 0 01-.49-2 1.15 1.15 0 00-.12-.29.15.15 0 00-.03-.04 33.1 33.1 0 00-5.24-.38 7.72 7.72 0 01-1.3-.07l-.03-.01v-.02c0-.02.04-.04.12-.07l.14-.03c.28-.06.75-.13 1.29-.17a7.78 7.78 0 001.96-.4 2.24 2.24 0 00.74-.52 1.04 1.04 0 00.24-.5 1.15 1.15 0 00-.02-.57 19.25 19.25 0 00-.67-1.52 33.16 33.16 0 00-1.43-2.51 1.15 1.15 0 00-.09-.11 1.75 1.75 0 00-.64-.39l-.08-.02-.14-.05a4.82 4.82 0 00-.86-.2 10.5 10.5 0 00-.72-.09 38.47 38.47 0 00-5.6-.04c-.76.06-1.43.16-2.17.3-3.5.68-7.73 2.37-10.67 4.26a9.3 9.3 0 01-3.66 1.41 7.2 7.2 0 01-1.01.04.71.71 0 01-.15-.03c-.3.05-.58.23-.8.4v.01c-.02.06-.06.11-.1.18l-.02.01-.14.2c-.22.28-.51.6-.85.96l-.03.03c-.16.17-.33.34-.51.5l-.06.06-.56.51-.57.49-.11.1a20.09 20.09 0 01-.36.28l-.13.1-.25.17-.1.07-.33.23-.44.32a21.03 21.03 0 00-1.84 1.57l-1.43 1.34-.26-.88a4.9 4.9 0 00-.24-.62 1.67 1.67 0 00-.7-.65 2.48 2.48 0 01-.32-.22 8.1 8.1 0 01-1.2-1.09 5.25 5.25 0 00-1.2-1 7.77 7.77 0 00-1.06.06 12.09 12.09 0 00-2.2.48c-.02-.06.22-.4.62-.86.37-.42.68-.85.82-1.09a.47.47 0 00.07-.17 1.6 1.6 0 00-.1-.46 2.46 2.46 0 00-1.2-1.3 13.98 13.98 0 01-1.73-1.6l-1.24-1.38-1.54.2c-1.97.27-5.24 1.29-8.17 2.47-.71.3-1.4.6-2.06.9l-.22.1a28.93 28.93 0 00-3.42 1.91 48.73 48.73 0 00-2.06 1.37c-.72.52-1.4.99-2.01 1.4-.62.4-1.19.75-1.67 1.02-.37.2-.7.38-.98.5l-.16.07a4.98 4.98 0 01-.53.18.7.7 0 01-.29.01 1.58 1.58 0 01-.5-.19.75.75 0 01-.3-.42 2.15 2.15 0 01-.07-.8 1.74 1.74 0 01.11-.5l.08-.15c.08-.16.2-.32.36-.5.09-.1.17-.2.26-.28.6-.63 1.19-1 3-1.92a93.64 93.64 0 006.47-3.71 4.55 4.55 0 00.75-.61c.1-.13.19-.27.25-.43a3.8 3.8 0 00.17-.78l.01-.03a8.22 8.22 0 00.04-1.15V49a23.63 23.63 0 01.44-3.85c.04-.24.05-.43.05-.58 0-.31-.06-.5-.18-.8-.23-.55-.6-.9-1.21-1.1a5.39 5.39 0 00-1.56-.2h-.34zm.6.33c.02 0 .03.01.05.03.03.02.05.07.08.16.08.21.18.64.36 1.43.26 1.11.3 1.69.19 1.67h-.02a5.94 5.94 0 01-.52-1.44 12.7 12.7 0 01-.31-1.6c0-.1 0-.16.03-.17.06-.05.1-.08.14-.08zm.6.04c.03-.01.07 0 .13.02a.7.7 0 01.11.05.42.42 0 01.17.18l.06.15a7.75 7.75 0 01.23 1.65c.02.2.02.37.02.49s-.02.2-.04.25c-.02.03-.04.04-.06.04l-.03-.02c-.07-.05-.16-.24-.25-.54a7.6 7.6 0 01-.13-.46l-.02-.08a14.18 14.18 0 01-.26-1.57c0-.05 0-.09.02-.12 0-.02.03-.04.05-.04zm-1.57.03h.07l.12.07c.06.05.12.12.17.21l.05.1.07.2c.03.16.05.27.05.35l-.01.08-.02.05-.03.04a.2.2 0 01-.11.03l-.1-.01a.4.4 0 01-.22-.26l-.17-.6c-.03-.08-.03-.15 0-.2a.1.1 0 01.02-.02c.02-.03.06-.04.11-.04zm-.8.02c.07 0 .18.1.27.23a1.72 1.72 0 01.25.5 1.42 1.42 0 01.06.33V44l-.02.04v.01a.09.09 0 01-.05.03h-.04a.35.35 0 01-.15-.05.98.98 0 01-.39-.45c-.18-.47-.23-.61-.1-.66a1.95 1.95 0 01.18-.03zm3.34.21h.03c.03.01.06.04.1.08.15.17.33.56.33.84 0 .22-.04.43-.1.6-.02.12-.06.22-.1.28l-.07.07c-.02.02-.04.02-.06 0l-.03-.01a.15.15 0 01-.03-.04 9.87 9.87 0 01-.14-1.7c.01-.08.03-.11.07-.12zm-4.3.06c.04 0 .1 0 .16.03.06.02.12.06.18.12.13.1.25.26.33.44a2.4 2.4 0 01.11 1.4l-.03.02h-.02a.54.54 0 01-.11-.15l-.04-.06a14.7 14.7 0 01-.69-1.43.63.63 0 01-.04-.16c0-.07.02-.12.04-.15a.14.14 0 01.1-.06zm-.86.36a.2.2 0 01.06.02c.04.03.1.07.15.13a7.03 7.03 0 011.23 2.25c.03.12.03.2.01.27-.03.11-.14.1-.3 0l-.15-.14a2.09 2.09 0 01-.34-.49l-.5-.91a5.23 5.23 0 01-.26-.6 1.1 1.1 0 01-.07-.28c0-.08.01-.14.04-.18a.23.23 0 01.08-.07h.05zm-.58.54l.04.01.04.02a5.85 5.85 0 01.67 1.16 9.82 9.82 0 01.4 1.01c.02.07.02.11 0 .13-.08.11-.18.13-.31.05a1.86 1.86 0 01-.46-.56 11.99 11.99 0 01-.65-1.23 1.25 1.25 0 01-.04-.12v-.02a.57.57 0 01-.01-.18c0-.06.02-.1.05-.14a.37.37 0 01.2-.12h.07zm-.62 1c.02 0 .05 0 .08.03l.06.05c.1.09.22.27.37.54.1.18.19.36.23.5l.04.17v.06l-.03.03a.18.18 0 01-.05.03.23.23 0 01-.12 0 .69.69 0 01-.21-.1 1.31 1.31 0 01-.42-.57.8.8 0 01-.07-.28l.01-.2v-.01a.5.5 0 01.06-.2.08.08 0 01.05-.05zm4.06 1.18h.03l.07.08.06.11a1.46 1.46 0 01.13.44c.01.08 0 .14-.01.19-.02.04-.04.07-.08.08-.03 0-.08-.01-.13-.05a.6.6 0 01-.07-.07c-.08-.09-.12-.29-.12-.46 0-.1.02-.17.04-.23a.2.2 0 01.03-.07l.03-.02h.02zm-.66.18l.06.01c.13.07.3.41.31.69 0 .1-.04.19-.1.23a.11.11 0 01-.05.02c-.05 0-.1-.04-.15-.11-.13-.2-.22-.6-.15-.77l.02-.04a.08.08 0 01.06-.03zm-.66.23c.03 0 .07.02.12.05a.84.84 0 01.34.47l.04.18v.17c-.03.12-.05.19-.08.2 0 .02-.02.02-.03.01-.06-.02-.14-.14-.27-.37a1.99 1.99 0 01-.19-.4.58.58 0 01-.02-.19c0-.07.04-.12.09-.12zm-.65.23c.04.01.1.04.14.1.08.08.17.23.27.44a1.7 1.7 0 01.15.53c0 .04 0 .08-.02.1a.1.1 0 01-.03.06c-.03.02-.09 0-.15-.03a.66.66 0 01-.06-.06c-.28-.24-.65-.87-.53-1.01a.44.44 0 01.12-.1.2.2 0 01.05-.03h.06zm-.88.24c.09 0 .28.2.44.48.16.26.26.57.23.67l-.02.04c-.07.06-.25-.19-.67-.94-.06-.1-.07-.19-.03-.23a.07.07 0 01.05-.02zm60.47 1.58a.6.6 0 01.08 0l.03.01.06.02.14.05.03.02.15.1a2.86 2.86 0 01.47.43l.05.08a.3.3 0 01.02.07.2.2 0 01-.02.13l-.03.06c-.13.15-.29.1-.53-.2a3.06 3.06 0 00-.26-.26c-.15-.13-.27-.15-.37-.08a.36.36 0 00-.07.08.75.75 0 00-.07.1c-.03.06 0 .14.05.25.09.17.28.41.53.65a2.89 2.89 0 01.63.8c.09.23.06.43-.09.65a1.4 1.4 0 01-.15.19 3.25 3.25 0 01-.24.24.4.4 0 01-.35.07c-.1-.02-.2-.06-.34-.12a8.02 8.02 0 01-.23-.12 1.45 1.45 0 01-.56-.5l-.04-.08a1.1 1.1 0 01-.08-.16c-.05-.14-.06-.26-.02-.36l.04-.05c0-.02.04-.02.07 0 .04 0 .1.03.15.07a2.08 2.08 0 01.4.31c.2.19.35.3.47.33.08.03.15.03.2-.02a.3.3 0 00.06-.05c.07-.09.08-.18 0-.32a.93.93 0 00-.06-.1l-.02-.02a4.46 4.46 0 00-.37-.4 2.68 2.68 0 01-.4-.49 1.3 1.3 0 01-.2-.46.72.72 0 01.03-.4.61.61 0 01.1-.16.8.8 0 01.17-.14l.13-.08.06-.04c.1-.05.2-.08.29-.1h.09zm-2.32.02c.08 0 .15.02.2.04.06.02.1.05.12.08l.02.04v.07a.2.2 0 01-.04.07c-.09.1-.27.19-.5.2-.16.01-.26.02-.32.1l-.02.04a.64.64 0 00-.04.22c0 .2.03.52.07 1.03a14.32 14.32 0 01.04 1.03c0 .23-.04.34-.1.35-.06 0-.1 0-.15-.03l-.02-.02-.02-.01a.42.42 0 01-.07-.09 1.2 1.2 0 01-.11-.33 12.49 12.49 0 01-.13-.98 8.32 8.32 0 00-.06-.59 1.36 1.36 0 00-.1-.35.56.56 0 00-.17-.22 1.4 1.4 0 00-.29-.16l-.52-.23.67-.07a17.63 17.63 0 001.28-.18h.27zm-3.17.3c.03 0 .06.03.1.07.06.1.14.26.22.5a6.09 6.09 0 01.23.9c.1.45.16.79.18 1.03 0 .16 0 .28-.02.37a.34.34 0 01-.05.1.21.21 0 01-.08.06c-.03.02-.06 0-.1-.02a.31.31 0 01-.04-.05 1.8 1.8 0 01-.24-.62l-.07-.27a1.16 1.16 0 00-.15-.34.3.3 0 00-.27-.14h-.08l-.4.13c-.13.05-.22.1-.27.16a.29.29 0 00-.04.08.74.74 0 00-.02.25 3.53 3.53 0 00.05.4 2.56 2.56 0 01.01.65c-.01.08-.04.12-.09.12-.13.01-.2-.02-.28-.21-.03-.1-.07-.23-.1-.41l-.13-.72c-.1-.59-.22-1.22-.29-1.4-.05-.15-.04-.27.01-.32a.1.1 0 01.07-.03c.03 0 .06 0 .09.03l.04.04.05.06c.07.09.13.2.17.34.03.1.07.17.1.23l.07.09c.05.04.1.08.17.1.1.03.24.03.42.02.14 0 .24-.01.32-.03a.33.33 0 00.18-.09l.03-.04.02-.03c.04-.1.05-.23.05-.43 0-.25.02-.42.06-.5l.02-.05.06-.03zm-53.15.15l.28.05a2.79 2.79 0 01.6.28c.09.06.13.14.15.25v.12a2.72 2.72 0 01-.06.51 1.15 1.15 0 00.15.73l.22.31.26.38.02.04c.08.16.03.23-.12.3a.27.27 0 01-.15.03.8.8 0 01-.4-.19 2.17 2.17 0 01-.22-.2 2.54 2.54 0 00-.33-.3c-.14-.08-.26-.12-.36-.1a.27.27 0 00-.08.02.47.47 0 00-.09.06.3.3 0 00-.06.07.44.44 0 00-.06.22c0 .15.02.34.08.62a13.2 13.2 0 00.09.42c0 .07-.03.14-.08.2a.22.22 0 01-.07.05h-.05a.32.32 0 01-.08-.06 4.63 4.63 0 01-.42-.63c-.28-.5-.58-1.16-.74-1.64-.07-.2-.11-.37-.11-.48 0-.2 1.3-1.04 1.63-1.06zm48.78.52l.25.01h.04l.06.01a.93.93 0 01.2.05.88.88 0 01.1.05l.05.02.04.03.03.03.03.06c.02.05.02.09 0 .11a.1.1 0 01-.03.04.2.2 0 01-.06.03 3.58 3.58 0 01-.52-.02c-.31-.04-.48-.05-.58 0a.17.17 0 00-.06.03.17.17 0 00-.04.06l-.01.09v.1c0 .06 0 .13.02.22l.08.3c.07.23.17.48.27.72.15.33.27.54.4.67.05.06.11.1.18.13l.1.02a.69.69 0 00.31-.04.52.52 0 00.25-.2.45.45 0 00.05-.14.38.38 0 000-.14c-.01-.14-.11-.26-.3-.3a.72.72 0 01-.17-.07.4.4 0 01-.05-.03l-.05-.04a.16.16 0 01-.02-.05c-.07-.16.16-.38.63-.52.14-.04.28-.06.4-.06.11 0 .21 0 .28.04.1.04.15.11.09.2a.52.52 0 01-.1.1c-.05.04-.1.15-.13.3-.03.14-.05.32-.05.5 0 .24-.03.43-.09.59a1 1 0 01-.29.4c-.2.18-.45.33-.54.34h-.1a.76.76 0 01-.2-.06 1.11 1.11 0 01-.3-.18 1.97 1.97 0 01-.38-.38 4.12 4.12 0 01-.78-1.95v-.26c0-.16.04-.31.1-.43a.66.66 0 01.16-.2.85.85 0 01.2-.1 1.63 1.63 0 01.53-.08zm-48.87.2l-.16.03a.84.84 0 00-.37.24.7.7 0 00-.17.38.41.41 0 00.11.3c.18.2.33.14.74-.26.26-.27.32-.38.2-.52a.62.62 0 00-.06-.06.44.44 0 00-.28-.1zm46.21.57h.04a.5.5 0 01.23.2 16.59 16.59 0 01.99 2.05c.18.43.32.82.37 1.02l.01.1c0 .03 0 .07-.02.1l-.03.04a.2.2 0 01-.1.06h-.02a.37.37 0 01-.2-.03.47.47 0 01-.25-.28 47 47 0 00-.59-1.62c-.2-.55-.34-.95-.42-1.22-.05-.2-.06-.33-.04-.38 0-.02.01-.03.03-.04zm-49 .25c.16 0 .33.17.5.54.07.13.13.28.2.45.1.29.19.53.25.75.09.32.12.57.1.8 0 .1-.03.2-.07.3 0 .04-.02.07-.03.1l-.1.2a.84.84 0 01-.27.26l-.03.02a1.53 1.53 0 01-.84.25.7.7 0 01-.1-.01.64.64 0 01-.26-.1 1.2 1.2 0 01-.16-.16 9.3 9.3 0 01-1.03-2.04.98.98 0 01-.04-.23l.01-.07a.4.4 0 01.11-.14.12.12 0 01.08-.03c.03 0 .06.02.1.04 0 .02.03.03.04.05a2.67 2.67 0 01.37.63c.06.1.1.23.17.36a5.18 5.18 0 00.46.84c.16.19.3.3.45.31h.08c.12 0 .23-.08.33-.2a1.2 1.2 0 00.14-.2.54.54 0 00.06-.22 1.4 1.4 0 00-.03-.29c-.04-.18-.12-.4-.24-.72a498.77 498.77 0 01-.49-1.33.15.15 0 01.04-.08.19.19 0 01.03-.03.28.28 0 01.1-.04h.07zm47.23.63a.83.83 0 01.47.18c.12.1.21.24.27.4.06.14.09.3.1.49a2 2 0 00.12.48 3.02 3.02 0 00.43.8c.14.18.26.36.35.5.1.15.15.27.15.32 0 .05 0 .1-.02.13l-.03.04c-.04.05-.11.05-.2.02a1.8 1.8 0 01-.72-.65l-.15-.2a1.12 1.12 0 00-.32-.33.25.25 0 00-.09-.03c-.09 0-.18.04-.3.12-.35.24-.36.29-.12.81a4.77 4.77 0 01.26.76.2.2 0 01-.02.08.22.22 0 01-.05.07.25.25 0 01-.16.07h-.03l-.02-.03a5.43 5.43 0 01-.3-.46 15.55 15.55 0 01-.85-1.72 12.45 12.45 0 01-.3-.78 1.71 1.71 0 01-.07-.38V52a.34.34 0 01.1-.1 2.96 2.96 0 01.7-.38 2.65 2.65 0 01.5-.16 1.34 1.34 0 01.3-.02zm.04.54h-.15c-.09 0-.17.02-.25.03a1.21 1.21 0 00-.35.12.54.54 0 00-.11.09.35.35 0 00-.1.24l.01.07a.78.78 0 00.08.26 1.28 1.28 0 00.11.19l.06.06.07.04c.04.02.09.03.14.02l.1-.01.09-.04a1.84 1.84 0 00.52-.33c.19-.18.25-.38.2-.52a.28.28 0 00-.05-.07.42.42 0 00-.24-.14.82.82 0 00-.13-.01zm-50.77.85c.08 0 .15 0 .23.02.07.01.14.03.2.06.08.04.17.12.26.22a3.4 3.4 0 01.6 1 3.6 3.6 0 01.21.62l.03.26c0 .04 0 .1-.02.15v.02a1.37 1.37 0 01-.36.6c-.19.18-.5.36-.76.43a.97.97 0 01-.42.05c-.15-.02-.29-.11-.47-.3a4.28 4.28 0 01-.25-.27 3.28 3.28 0 01-.57-1.58v-.3a1.1 1.1 0 01.1-.35c.14-.27.49-.48.85-.58.13-.03.25-.04.37-.05zm64.98.3c.03 0 .05 0 .08.02.02 0 .04.02.06.05l.06.08c.03.06.06.15.07.24a1.52 1.52 0 01-.02.53c-.03.15-.06.27-.1.36-.05.17-.12.25-.2.25-.05 0-.12-.03-.19-.11a.55.55 0 01-.1-.27v-.2c-.02-.36.05-.79.17-.88a.36.36 0 01.09-.06.22.22 0 01.08-.01zm-1.03.03c.18-.01.27.03.3.23.03.08.03.18.04.31v.22l-.01.35c-.03.3-.1.44-.21.45h-.12a.34.34 0 01-.1-.03.26.26 0 01-.08-.06.34.34 0 01-.06-.08.86.86 0 01-.07-.28 3.6 3.6 0 01-.01-.76c.02-.13.05-.22.1-.27.05-.05.12-.08.22-.08zm-.93.05a.2.2 0 01.07 0c.13.05.19.28.19.77 0 .43-.04.66-.14.75a.17.17 0 01-.12.05c-.04 0-.08 0-.11-.03-.05-.05-.09-.12-.11-.24l-.02-.14a3.88 3.88 0 01.05-.97c.04-.12.1-.18.2-.19zm2.88.03a.17.17 0 01.16.08c.06.1.1.3.1.6s-.04.49-.1.6a.23.23 0 01-.05.05.18.18 0 01-.11.04.17.17 0 01-.16-.08l-.01-.02a.49.49 0 01-.05-.14v-.02a2.16 2.16 0 010-.84.54.54 0 01.06-.17.2.2 0 01.16-.1zm-66.04.14l-.13.01a.63.63 0 00-.3.16.57.57 0 00-.07.08c-.06.1-.1.2-.11.34l-.01.14a2.33 2.33 0 00.12.65c.06.17.14.36.25.55l.15.2c.09.08.18.13.27.16a.57.57 0 00.68-.26.82.82 0 00.1-.33c.02-.12 0-.25-.03-.4a2.6 2.6 0 00-.5-1.05.73.73 0 00-.34-.25h-.08zm66.88 0c.1 0 .18.07.22.2l.02.07a1.43 1.43 0 01-.02.53.7.7 0 01-.09.23.28.28 0 01-.06.06.13.13 0 01-.14.02.23.23 0 01-.07-.05c-.17-.18-.14-.68-.02-.92a.34.34 0 01.08-.1.15.15 0 01.08-.03zm.87.23a.1.1 0 01.06.02c.1.06.17.2.17.3 0 .1-.07.18-.17.19a.1.1 0 01-.06-.02.2.2 0 01-.05-.07.36.36 0 01-.04-.1.53.53 0 01-.01-.1c0-.14.04-.22.1-.22zm-5.4.1l.05.03c.02 0 .03.02.05.04.02.04.04.1.05.17.03.14.02.34-.03.57-.06.28-.17.5-.26.51-.02 0-.04-.01-.06-.04-.1-.15-.1-.64-.04-.96.02-.13.06-.22.11-.26.05-.04.09-.05.12-.05zm-.9.85c.02 0 .03 0 .04.02.04.02.07.08.07.17 0 .17-.08.36-.17.43-.07.05-.13.03-.16-.06a.37.37 0 01-.01-.1.61.61 0 01.05-.25.43.43 0 01.12-.18.12.12 0 01.06-.03zm-35.18 1.42l.05.01c.03.03.04.09.02.17a.63.63 0 01-.3.36.19.19 0 01-.08.02c-.02 0-.04 0-.06-.02-.02-.03-.03-.09 0-.16.03-.14.17-.3.29-.36l.04-.02h.04zm-1.1.24c.17-.01.3.03.37.1a.3.3 0 01.08.14c.03.08.02.19-.03.3a1.12 1.12 0 01-.26.35.42.42 0 01-.12.06.27.27 0 01-.05.02h-.06-.01l-.04-.02a.22.22 0 01-.06-.05l-.02-.02-.02-.03-.02-.02a.48.48 0 01-.03-.07l-.01-.05-.01-.02a1.48 1.48 0 01-.03-.39l.05-.14a.3.3 0 01.08-.1.36.36 0 01.2-.07zm40.12.05h.03c.02 0 .03.02.05.04l.04.07a6.35 6.35 0 01.17 1.11c.02.48.08.94.14 1.18.02.09.04.15.07.17a.2.2 0 00.04.04.8.8 0 00.25.11c.14.04.31.07.49.07a4.34 4.34 0 01.59.05c.14.04.22.08.27.16.03.04.05.1.05.17l-.01.02c-.06.1-.57.2-1.18.24l-1.18.06v-1.78c0-.47 0-.82.02-1.09l.04-.4c.03-.15.07-.22.12-.22zm-2.94 0a.1.1 0 01.04.01l.1.1v.05a11.09 11.09 0 01-.1 1.52 29.03 29.03 0 01-.28 1.67v.02a.77.77 0 01-.07.16.34.34 0 01-.09.1.19.19 0 01-.1.04c-.12 0-.25-.1-.38-.3a2.4 2.4 0 01-.2-.38l-.3-.71-.14.83a2.4 2.4 0 01-.19.68.47.47 0 01-.05.08.23.23 0 01-.06.05.15.15 0 01-.14 0 .32.32 0 01-.07-.04 2.4 2.4 0 01-.36-.53 6.45 6.45 0 01-.34-.76 17.17 17.17 0 01-.71-2.03v-.08c0-.04 0-.08.02-.1.03-.04.07-.06.12-.06.13 0 .42.38.65.85a5.7 5.7 0 00.36.62l.04.02s.02 0 .03-.02l.02-.02a.32.32 0 00.05-.09l.07-.24c.05-.2.1-.48.17-.86.04-.2.09-.34.14-.43a.29.29 0 01.04-.04.15.15 0 01.07-.05c.03 0 .07 0 .11.03a.76.76 0 01.13.12l.08.09.25.42.36.7.22-.62a4.07 4.07 0 01.16-.41l.03-.05a1.66 1.66 0 01.15-.24l.03-.02a.32.32 0 01.05-.05l.03-.01.06-.02zm6.22.02l.04.03.03.08.04.11a13.42 13.42 0 01.12 1.23l.04 1.39.88.1a5 5 0 01.67.16c.07.04.13.07.16.12a.2.2 0 01.06.13.28.28 0 01-.06.17l-.02.03-.02.02a.43.43 0 01-.24.12 11.24 11.24 0 01-1.95-.21.27.27 0 01-.1-.05c-.03-.03-.03-.49 0-1.11l.04-.67c.07-1.12.2-1.67.31-1.65zm-4.93.03c.07 0 .12.04.17.14l.09.27a6 6 0 01.1.7l.2 1.75a2.06 2.06 0 01.02.5v.03l-.02.04a.16.16 0 01-.05.04.26.26 0 01-.13.04c-.1 0-.19 0-.25-.08a.3.3 0 01-.03-.05.72.72 0 01-.06-.16c-.07-.26-.1-.76-.17-1.69-.05-.62-.06-1-.04-1.22.01-.14.04-.23.08-.27l.03-.02a.15.15 0 01.06-.02zm-39.48.15a.3.3 0 01.18.05l.06.04.1.11c.14.21.2.53.1.76-.17.31-.47.26-.61-.06a8.43 8.43 0 01-.13-.54c-.05-.3.03-.34.3-.36zm-.94.06h.05c.04 0 .09.03.13.06.16.14.26.47.26.9 0 .13-.02.22-.05.28l-.02.05c-.06.08-.16.07-.26-.03a1.27 1.27 0 01-.17-.26 1.9 1.9 0 01-.13-.38 1.1 1.1 0 01-.04-.31v-.02c.01-.07.03-.12.05-.17l.02-.03.03-.04a.21.21 0 01.13-.05zm-.93.25c.07 0 .14.01.2.04l.02.01a.4.4 0 01.1.08l.07.1c.09.17.14.42.14.73 0 .1-.02.19-.05.25a.3.3 0 01-.03.05.2.2 0 01-.2.08.3.3 0 01-.1-.04.76.76 0 01-.3-.42 2.75 2.75 0 01-.15-.58l.01-.16a.18.18 0 01.08-.1.32.32 0 01.09-.03l.12-.01zm-.92.25c.2-.01.38.3.42.7l.01.17c0 .08-.02.14-.04.19a.2.2 0 01-.16.1h-.06a.38.38 0 01-.11-.04.6.6 0 01-.27-.25 1.19 1.19 0 01-.1-.23.79.79 0 01-.04-.28l.02-.12a.37.37 0 01.05-.1.35.35 0 01.28-.14zm-.93.28c.03 0 .06.02.1.04l.08.12c.02.04.05.08.06.13l.06.17v.03c.03.1.04.2.04.3l-.01.15-.03.06a.3.3 0 01-.03.05.2.2 0 01-.17.08.25.25 0 01-.1-.03.38.38 0 01-.1-.07.54.54 0 01-.09-.12.93.93 0 01-.1-.3h.01a.83.83 0 01.04-.39c.05-.14.14-.22.24-.22zm-1 .46l.04.02c.05.02.1.06.14.12a1.05 1.05 0 01.13.52.6.6 0 01-.03.2l-.02.03c-.02.02-.04.04-.06.04h-.08a.27.27 0 01-.14-.08.37.37 0 01-.06-.07.52.52 0 01-.04-.09 1.4 1.4 0 01-.04-.52.3.3 0 01.03-.1l.03-.03a.12.12 0 01.1-.04zm35.53.08c.19 0 .27.03.27.1v.03l-.03.04a.57.57 0 01-.1.09 4.92 4.92 0 01-.66.35c-.43.17-.67.4-.7.6-.02.16.08.29.3.35a.96.96 0 00.26.04c.24.02.41.08.51.16a.32.32 0 01.07.1c.02.02.03.06.02.09 0 .1-.1.2-.3.29-.24.1-.33.28-.3.57.02.14.05.23.1.3l.1.04c.15.06.46-.01 1.06-.18.19-.05.32-.08.4-.08h.08a.1.1 0 01.07.09v.16a.48.48 0 01-.16.25l-.1.08a4.68 4.68 0 01-1.56.63c-.16.03-.28.01-.35-.04a.17.17 0 01-.06-.07 55.22 55.22 0 01-.8-3.32l.02-.08a.24.24 0 01.06-.07c.14-.15.53-.27 1.35-.45.19-.04.34-.06.45-.07zm-36.37.35l.05.01c.04.01.08.03.11.06a.43.43 0 01.13.16.3.3 0 01.04.13c0 .1-.08.19-.16.19a.23.23 0 01-.15-.05.48.48 0 01-.16-.23c-.03-.08-.03-.17.01-.23.04-.03.08-.05.13-.04zm8.57.1a.3.3 0 01.09 0h.01l.01.01.02.02V58.3l-.02.01-.04.04a.7.7 0 01-.11.09l-.11.06-.07.04-.17.08-.07.03-.3.13c-.3.11-.55.27-.66.4-.03.04-.05.08-.05.11 0 .12.02.23.05.32a.54.54 0 00.54.35c.06 0 .11 0 .17-.02a1.14 1.14 0 01.2-.02.83.83 0 01.16.02l.12.06a.2.2 0 01.04.04l.02.05a.2.2 0 01.01.05v.05l-.02.04a.2.2 0 01-.03.04.26.26 0 01-.1.06.46.46 0 01-.13.02c-.1 0-.2.03-.27.07a.4.4 0 00-.2.27.64.64 0 00-.02.14 1.14 1.14 0 00.09.45l.04.08c.04.05.09.08.16.1h.28l.5-.1c.47-.08.72-.1.83-.06.05.02.07.06.08.1a.3.3 0 01.01.08c0 .08-.03.15-.1.2a.57.57 0 01-.09.07c-.13.08-.32.14-.6.2l-.63.13c-.75.12-.8-.12-1.24-1.58l-.5-1.65.42-.21a6.2 6.2 0 011.69-.44zM79 58.3c.07 0 .13.02.17.05.04.03.06.06.07.1v.03c0 .11-.1.2-.25.22-.1 0-.19-.04-.23-.11a.15.15 0 01-.02-.08v-.04l.02-.03a.22.22 0 01.06-.07.32.32 0 01.18-.07zm4.48.13h.14c.04 0 .06.02.07.04.05.1-.36.4-1.23.97a69.27 69.27 0 00-5.1 3.58 98.28 98.28 0 01-2.35 1.68c-.47.3-.92.6-1.41.89-.74.44-1.56.89-2.64 1.46a25.21 25.21 0 01-3.25 1.6.23.23 0 01-.1.01.05.05 0 01-.03-.02l-.01-.03c0-.07-.03-.88-.04-1.8l-.04-1.66-.72-.02a2.72 2.72 0 01-.5-.06.61.61 0 01-.16-.06.16.16 0 01-.04-.04.06.06 0 01-.01-.04c0-.02.03-.07.09-.13.05-.06.14-.13.24-.22.2-.17.5-.37.8-.58.63-.41 1.53-1.02 2-1.36a19.93 19.93 0 012.5-1.44 38.95 38.95 0 012-.97 4.3 4.3 0 01.86-.27l.54-.13c1.17-.26 2.79-.52 4.24-.68a28.34 28.34 0 004.15-.72zm-5.26.14c.06 0 .11.01.14.04.03.03.02.06-.02.08s-.11.04-.2.04c-.2 0-.24-.04-.1-.11a.42.42 0 01.18-.05zm34.78.36l.05.01.05.02.02.01a.42.42 0 01.08.07l.02.02.02.04.02.02.03.05v.03l.04.08.1.4a19.51 19.51 0 01.4 2.64l-.02.17a.67.67 0 01-.04.08c-.19.39-.64.14-1.07-.6l-.46-.8v1.11l-.01.44v.04c-.02.26-.05.48-.08.62-.02.07-.04.12-.06.13-.05.04-.18-.07-.36-.26a20.43 20.43 0 01-1.73-2.54c-.12-.24-.15-.37-.09-.39l.06.01c.06.02.13.08.23.16l.6.6.8.9-.09-1.22c-.1-1.44.08-1.57.78-.59.27.38.46.58.59.62.03.01.06 0 .08-.01.08-.06.09-.3.03-.7l-.14-.9c-.01-.1.01-.18.05-.22a.13.13 0 01.1-.03zm-14.91.07c.07 0 .14.02.21.05.08.02.15.06.23.11a1.68 1.68 0 01.34.3 8.83 8.83 0 01.36.43c.06.08.1.15.11.2v.08s0 .02-.02.02a.18.18 0 01-.09.03c-.08 0-.2 0-.36-.04-.21-.04-.37-.02-.46.05a.2.2 0 00-.03.03.14.14 0 00-.03.1l.01.05a.29.29 0 00.07.1l.11.08.06.06.03.08v.08c0 .03 0 .06-.02.09a.58.58 0 01-.06.1.24.24 0 01-.06.05c-.1.06-.23 0-.41-.22a7.73 7.73 0 01-.53-.76 1.07 1.07 0 01-.14-.38c0-.07 0-.13.02-.2a1 1 0 01.2-.32.6.6 0 01.27-.16.62.62 0 01.18-.02zm.05.23h-.06a.21.21 0 00-.09.04.35.35 0 00-.1.16.73.73 0 00-.03.23v.06a.26.26 0 00.07.13c.13.13.4.08.53-.16.04-.08.03-.17-.01-.25a.43.43 0 00-.12-.14.35.35 0 00-.19-.07zm-13.1.36l.08.01c.1.04.17.16.17.3l-.01.14a26.07 26.07 0 00-.2 1.58l-.11 1.23.6-.33.46-.23c.13-.05.22-.08.3-.09l.09.01c.01 0 .02 0 .03.02.05.03.07.1.07.2 0 .03-.02.08-.07.14a1.32 1.32 0 01-.2.21 6.08 6.08 0 01-1.8 1.08.1.1 0 01-.03-.03.3.3 0 01-.05-.11c-.05-.2-.05-.59 0-1.14a18.19 18.19 0 01.2-1.4 5.88 5.88 0 00.04-.79h-.08c-.1.01-.3.11-.52.25-.16.1-.3.19-.43.25-.13.05-.24.08-.33.1l-.12-.01a.2.2 0 01-.09-.05.2.2 0 01-.05-.08.35.35 0 01-.02-.12c0-.3 1.58-1.15 2.07-1.14zm-25.78.26c.05 0 .1.02.16.05a.43.43 0 01.13.14.7.7 0 01.05.11l.02.09-.01.06-.03.03h-.06a.33.33 0 01-.14-.09.83.83 0 01-.2-.3v-.04c0-.03.03-.05.08-.05zm37.24.5c.03 0 .07 0 .11.03.07.02.15.07.24.15l.1.1a3.03 3.03 0 01.48.66 2.63 2.63 0 01.25.77c.02.15.03.3.01.43-.01.23-.08.43-.2.57a.51.51 0 01-.12.11c-.33.22-.94.22-1.23-.04a4.25 4.25 0 01-.56-.77 1.6 1.6 0 01-.2-.58.4.4 0 01.02-.08.2.2 0 01.02-.05.12.12 0 01.07-.06c.12-.03.32.1.56.41a2.72 2.72 0 00.42.44c.16.13.3.16.39.11a.18.18 0 00.06-.05c.03-.04.05-.1.06-.18.01-.07 0-.16-.02-.27v-.04a2.1 2.1 0 00-.09-.27l-.01-.05a3.59 3.59 0 00-.3-.63c-.06-.12-.1-.23-.13-.32-.04-.14-.04-.24-.02-.3.02-.05.05-.08.09-.08zm-37.8.56c.08-.02.27.12.44.3a2 2 0 01.22.26c.06.09.1.17.1.22 0 .15-.12.15-.28.05a1.47 1.47 0 01-.5-.6c-.03-.1-.04-.18 0-.21 0-.01 0-.02.02-.02zm68.53.13a.2.2 0 01.1.02.35.35 0 01.11.07l.1.13c.07.1.13.22.18.37a3.39 3.39 0 01.18.82c.04.33.05.55.05.7 0 .27-.06.33-.2.34a.3.3 0 01-.12-.02.48.48 0 01-.12-.06.63.63 0 01-.19-.24c-.13-.29-.24-.98-.26-1.5-.02-.3 0-.54.05-.59a.22.22 0 01.12-.04zm-1.75.03a.19.19 0 01.15.06l.04.05c.03.04.06.09.08.15.07.18.12.47.16.87.03.27.06.6.07.98.02.32 0 .6-.04.76a.45.45 0 01-.07.16.12.12 0 01-.04.03.31.31 0 01-.1.03c-.16.02-.24-.17-.31-.76l-.1-.92a4.5 4.5 0 01-.01-1.27c0-.03.02-.06.04-.08l.06-.04.07-.02zm2.7.05a.4.4 0 01.22.04.57.57 0 01.25.24 4.36 4.36 0 01.3 1.51l-.04.06a.15.15 0 01-.05.04.48.48 0 01-.18.04c-.06 0-.11 0-.16-.03a.3.3 0 01-.13-.11.57.57 0 01-.04-.1 3.6 3.6 0 01-.11-.45 11.33 11.33 0 00-.21-.96c-.03-.08-.03-.15 0-.2a.2.2 0 01.15-.08zm2.05.07c.15 0 .29.07.4.24.06.08.11.19.16.31.04.13.09.27.12.44.07.34.07.47-.06.52a.9.9 0 01-.17.03h-.12a.27.27 0 01-.18-.06.31.31 0 01-.06-.08 3.3 3.3 0 01-.25-1.27.18.18 0 01.06-.1.17.17 0 01.1-.03zm-3.87.03h.02l.02.02.05.06.01.03.05.07a2.48 2.48 0 01.16.44l.02.04v.03c.07.2.13.42.19.64l.04.16.08.38v.03l.04.26v.01c0 .09 0 .15-.02.18a.48.48 0 01-.08.12.26.26 0 01-.08.05c-.07.03-.14.02-.21-.02a.39.39 0 01-.05-.04.62.62 0 01-.12-.18c-.05-.1-.1-.22-.11-.37a18.42 18.42 0 01-.1-.78 8.8 8.8 0 01-.04-.6l.01-.22c0-.06.02-.12.03-.16l.01-.06.01-.02.02-.03.02-.02.03-.02zm2.94.02a.37.37 0 01.26.11.5.5 0 01.1.15l.07.2c.05.25.14.58.2.74v.18c0 .04-.02.08-.04.11a.33.33 0 01-.08.09.3.3 0 01-.15.06c-.17.02-.3-.15-.43-.53-.05-.15-.1-.34-.14-.55-.1-.44-.06-.54.21-.55zm-4.55.07c.02 0 .04.03.07.07l.07.2c.05.17.09.4.12.65.05.51.13 1.08.16 1.27.04.21 0 .36-.06.42a.11.11 0 01-.1.03.2.2 0 01-.08-.04.6.6 0 01-.17-.23 3.54 3.54 0 01-.13-.56 7.57 7.57 0 01-.03-1.17c0-.24.03-.44.07-.55.02-.04.04-.07.06-.08h.02zm-.8.06c.06 0 .1 0 .15.03a.18.18 0 01.06.05c.08.1.09.34.09.83 0 .25.03.54.07.8.04.27.1.5.17.65a1.56 1.56 0 01.14.48c0 .04 0 .07-.02.1a.1.1 0 01-.02.03.1.1 0 01-.07.02c-.1-.01-.23-.11-.4-.32a3.51 3.51 0 01-.7-2.24h-.01c0-.1.01-.17.03-.23.05-.15.16-.19.39-.2h.13zm7.4 0c.03 0 .05 0 .07.02a.39.39 0 01.1.05l.05.04.04.03.04.06.04.04.03.07.03.05.03.08.02.05.02.1V62c.01.05.01.1 0 .14a.79.79 0 01-.14.37l-.02.05a.3.3 0 01-.04.04.17.17 0 01-.04.02c-.03.02-.06.01-.1 0a.27.27 0 01-.05-.05c-.21-.23-.42-1.01-.23-1.16a.22.22 0 01.15-.04zm-49.66.1c.05 0 .14.1.26.25a11.2 11.2 0 01.69 1.18c.53 1.08.76 1.96.6 1.97-.02 0-.05-.01-.08-.04a1.82 1.82 0 01-.3-.38c-.13-.22-.3-.49-.45-.77a27.06 27.06 0 01-.82-1.6 4.12 4.12 0 01-.14-.4c0-.05.03-.1.07-.14a.3.3 0 01.17-.06zm50.67.03c.07 0 .15.04.2.1.04.04.07.1.09.15.03.08.02.18-.02.26a.57.57 0 01-.12.16c-.05.04-.1.07-.13.07s-.06 0-.08-.02a.23.23 0 01-.07-.06.43.43 0 01-.05-.1.64.64 0 01-.05-.34.27.27 0 01.1-.17.22.22 0 01.13-.05zm-9.5.1c.02 0 .03 0 .05.02l.08.14c.07.18.16.49.25.94l.09.43c.07.37.1.59.08.7l-.01.04c-.05.07-.17.01-.38-.12-.22-.13-.3-.43-.3-1.14a8.64 8.64 0 01.06-.86v-.02l.03-.08c0-.02.02-.03.03-.04l.03-.01zm-30.17.02c.1 0 .2.04.24.1l.02.08c0 .05-.02.1-.04.14a.18.18 0 01-.05.05.14.14 0 01-.07.02c-.08 0-.2-.08-.26-.18a.13.13 0 01-.01-.11l.01-.03.02-.02a.16.16 0 01.04-.03.28.28 0 01.1-.02zm29.5.04c.07 0 .12.1.16.25a2.92 2.92 0 01.03.7l-.04.21c-.02.1-.05.17-.09.2a.05.05 0 01-.03.01l-.08-.03a.28.28 0 01-.03-.05 1.57 1.57 0 01-.17-1.01c0-.02 0-.04.02-.06a.94.94 0 01.05-.09.53.53 0 01.05-.06.2.2 0 01.1-.07h.03zm-30.73.5h.22l.05.01a3.6 3.6 0 01.37.06l.07.01a2.08 2.08 0 01.28.1l.06.03h.02l.07.06.01.02.01.02a.1.1 0 010 .04c0 .05-.02.1-.06.13-.07.06-.2.1-.35.12h-.2a2.63 2.63 0 01-1.06-.23.35.35 0 01-.07-.05l-.01-.02a.12.12 0 01-.03-.07l.01-.06c0-.02.02-.03.04-.05.05-.07.19-.1.36-.12h.21zm-11.3.58c.1 0 .2.02.28.06a.79.79 0 01.25.16 1.02 1.02 0 01.2.26 1.18 1.18 0 01.14.64 1 1 0 01-.02.11l-.02.12a.65.65 0 00.08.34 2.77 2.77 0 00.44.54c.31.3.45.46.46.6 0 .05 0 .1-.04.14a.58.58 0 01-.06.08c-.12.12-.23.15-.4.06-.1-.06-.21-.15-.37-.3a3.01 3.01 0 00-.25-.2c-.15-.12-.3-.2-.42-.23a.61.61 0 00-.09-.02h-.16a.28.28 0 00-.17.12.46.46 0 00-.06.16.9.9 0 00-.02.21c0 .26.07.53.17.59l.03.03.03.04a.6.6 0 01.06.12.95.95 0 01.04.3c0 .2-.02.32-.08.37a.08.08 0 01-.04.02l-.05-.01c-.12-.04-.29-.24-.5-.6a11.57 11.57 0 01-1.1-2.51.55.55 0 01-.02-.24l.08-.14a.95.95 0 01.16-.15c.11-.1.27-.21.44-.3.33-.2.73-.35 1.01-.37zm14.26.03a.59.59 0 01.33.08c.17.1.35.29.53.56a3.88 3.88 0 01.43.86l.03.13.02.12a1.12 1.12 0 01-.04.44 1.1 1.1 0 01-.22.4l-.1.11v.01l-.14.12a.97.97 0 01-.26.16.68.68 0 01-.4.02.8.8 0 01-.3-.15 1.32 1.32 0 01-.09-.08h-.01a1.66 1.66 0 01-.3-.36 2.96 2.96 0 01-.3-.59l-.02-.04a2.21 2.21 0 01-.1-.46 1.59 1.59 0 010-.42l.04-.13c.06-.21.18-.4.35-.54.1-.08.2-.14.29-.18a.78.78 0 01.26-.06zm-4.06.2a6.65 6.65 0 01.98.06c.24.03.44.07.56.12l.09.06.04.07c.02.05.03.1 0 .14a.12.12 0 01-.04.05.37.37 0 01-.15.04c-.21.02-.58-.01-.95-.07-.49-.08-.97-.2-1.06-.31-.02-.02-.02-.04 0-.06a.23.23 0 01.1-.05c.1-.02.25-.04.43-.04zm-10.4.44h-.06c-.1.02-.22.1-.4.24-.21.17-.34.31-.39.44a.29.29 0 00.02.26.5.5 0 00.06.09c.19.2.57.12.85-.16l.12-.13c.1-.13.15-.22.18-.3a.2.2 0 000-.12.34.34 0 00-.08-.13 1.52 1.52 0 00-.07-.07c-.08-.07-.15-.1-.22-.12zm14.43.11h-.07a.27.27 0 00-.07.03.45.45 0 00-.23.26.7.7 0 00-.04.24l.01.18a1.52 1.52 0 00.25.6 1.02 1.02 0 00.2.23l.13.08c.07.03.14.04.2.03a.33.33 0 00.18-.09.46.46 0 00.09-.11.67.67 0 00.08-.27v-.1-.04-.06l-.01-.04-.01-.06-.01-.05-.02-.05-.03-.09-.05-.12-.04-.07-.06-.1-.05-.08a1.3 1.3 0 00-.18-.19l-.03-.02-.04-.03-.03-.01-.04-.03-.04-.01-.03-.01a.38.38 0 00-.07-.02zm-4.83.1l.14.01c.16.05.65.12 1.1.17.27.03.52.09.66.15.06.02.1.05.12.07l.02.04c0 .01 0 .03-.02.04a.25.25 0 01-.1.07 3.53 3.53 0 01-1.7-.03.79.79 0 01-.24-.15.55.55 0 01-.07-.09.38.38 0 01-.05-.08.23.23 0 01-.01-.08v-.04l.01-.03c.02-.02.05-.04.09-.05h.05zm25.92.2h.07l.27.1.21.13.09.06a3.65 3.65 0 01.49.4c.09.09.14.16.11.2a.48.48 0 01-.18.19.82.82 0 01-.13.06c-.23.09-.5.09-.58-.05a4.6 4.6 0 01-.41-.92v-.13l.01-.02.02-.02h.03zm-.8.04c.05 0 .13.07.23.17l.16.18c.21.28.44.65.52.89a.5.5 0 01.03.15.2.2 0 01-.02.1.1.1 0 01-.07.05c-.05.02-.13 0-.21-.04a1.33 1.33 0 01-.27-.2c-.1-.08-.19-.18-.26-.3a3.6 3.6 0 01-.24-.43c-.11-.24-.13-.4-.06-.5a.18.18 0 01.08-.04.34.34 0 01.1-.03zm-.95.37l.07.01.07.04c.05.02.1.06.16.11a2.68 2.68 0 01.74 1.2v.1c0 .22-.08.32-.21.34h-.07a.48.48 0 01-.15-.04.84.84 0 01-.17-.1 1.25 1.25 0 01-.3-.31l-.02-.05a7.93 7.93 0 01-.21-.38c-.24-.48-.26-.7-.08-.84a.64.64 0 01.11-.06l.06-.02zm-24.3.28h.25a5.73 5.73 0 011 .21 1 1 0 01.17.09c.05.03.07.05.07.08a.1.1 0 01-.01.05.15.15 0 01-.05.05.48.48 0 01-.19.06 2.28 2.28 0 01-1.09-.17c-.16-.07-.27-.15-.3-.24-.01-.04 0-.07.02-.1.02-.01.07-.03.13-.03zm23.38.25c.05 0 .12.04.2.12l.09.1a4 4 0 01.36.5c.24.37.42.77.35.86-.06.08-.12.12-.18.12h-.04l-.03-.01a.37.37 0 01-.1-.07l-.05-.04a5.6 5.6 0 01-.77-1.16.57.57 0 01-.05-.26l.01-.05.02-.04c.04-.04.1-.07.19-.07zm-35.52.12l.2.01c.03 0 .05.02.07.03.05.02.1.05.14.1.07.06.13.15.18.26.04.06.07.14.1.21l.07.3v.13a.6.6 0 01-.13.33 6.78 6.78 0 01-1.05 1.01.25.25 0 00-.08.13c-.03.12.05.29.25.65.04.1.1.18.13.27l.03.06a3.39 3.39 0 01.18.5v.23l-.03.05a.1.1 0 01-.03.03h-.02l-.01.01h-.04a.3.3 0 01-.1-.07 3.5 3.5 0 01-.62-.92l-.87-1.64-.36-.64.41-.39a1.83 1.83 0 01.34-.25 2.71 2.71 0 011.24-.4zm39.86.21l.15.01c.1.02.2.06.29.12.18.11.33.3.38.48l.02.13c0 .12 0 .2-.03.27a.17.17 0 01-.04.07.1.1 0 01-.06.03l-.08-.01a2.68 2.68 0 01-.56-.38c-.16-.17-.25-.38-.25-.52a.3.3 0 01.01-.06c0-.01 0-.03.02-.04l.02-.04a.18.18 0 01.13-.06zm-5.2.1v.01h.05c.06.03.13.08.2.15a3.26 3.26 0 01.68 1 .5.5 0 01.03.16v.1l-.04.07-.03.02h-.11a1.9 1.9 0 01-.54-.5 2.96 2.96 0 01-.3-.39 1.12 1.12 0 01-.15-.38.3.3 0 010-.1h.01c.02-.06.07-.1.14-.12a.3.3 0 01.06-.01zm-22.79.03l.3.03.3.1c.14.05.26.11.32.18.02.02.04.04.04.06a.16.16 0 01-.03.15c-.06.07-.17.1-.3.12a.98.98 0 01-.64-.19c-.14-.1-.24-.23-.25-.32 0-.03 0-.05.02-.07l.03-.03a.34.34 0 01.13-.03h.08zm-12.19.3h-.15l-.18.06a.64.64 0 00-.14.07.7.7 0 00-.3.58.5.5 0 00.12.33c.07.08.13.12.2.11.03 0 .06 0 .08-.02.12-.04.26-.16.48-.38a1.27 1.27 0 00.2-.29.52.52 0 00.05-.13v-.11c-.01-.06-.03-.1-.07-.14a.29.29 0 00-.1-.06.49.49 0 00-.19-.03zm-10.58 0h.06l.06.04c.06.05.12.14.16.25a1.07 1.07 0 01.06.38 1.34 1.34 0 01-.05.34.36.36 0 01-.05.1c-.02.03-.04.05-.06.05l-.04-.01a.15.15 0 01-.04-.03.77.77 0 01-.14-.26 2.15 2.15 0 01-.11-.55.63.63 0 01.02-.2l.02-.04a.17.17 0 01.1-.07zm.78.02a.1.1 0 01.07.02c.05.03.08.08.1.14v.08l-.02.08c-.1.18-.17.23-.21.15a.37.37 0 01-.04-.14v-.12c0-.12.04-.2.1-.2zm49.23.03c.07 0 .24.12.43.28a4.29 4.29 0 01.51.55.9.9 0 01.13.23l.01.05c0 .02 0 .04-.02.06a.17.17 0 01-.04.05.25.25 0 01-.15.05l-.06-.01a.35.35 0 01-.06-.04l-.15-.12a3.11 3.11 0 01-.63-.9.5.5 0 01-.02-.08l.01-.1.04-.02zm-50.99.09c.02 0 .05.01.08.04.1.07.2.24.31.44a3.14 3.14 0 01.23.6c.02.05.02.1.02.15 0 .16-.1.23-.22.21a.25.25 0 01-.13-.07 2.73 2.73 0 01-.36-1V66c-.03-.17-.02-.29.04-.33l.03-.01zm45.69.03h.06a.5.5 0 01.19.07 2.47 2.47 0 01.52.52c.01.03.02.05.01.06l-.01.02a.11.11 0 01-.05.02 1.42 1.42 0 01-.27.01h-.08a1.19 1.19 0 01-.51-.24c-.32-.25-.32-.26-.02-.41a.4.4 0 01.16-.05zm4.6.27c.07 0 .18.05.3.14l.18.16c.21.2.42.47.5.66l.03.14v.06a.37.37 0 01-.08.1.26.26 0 01-.14.07c-.05 0-.11 0-.17-.02a1.17 1.17 0 01-.52-.46 4.76 4.76 0 01-.24-.38.8.8 0 01-.1-.26.2.2 0 01.01-.08.15.15 0 01.04-.07l.04-.02a.37.37 0 01.15-.04zm-26.81 0a.3.3 0 01.2.1l.04.06c.06.1-.05.22-.24.29-.16.06-.27.04-.31-.04a.25.25 0 01-.03-.11c0-.2.17-.3.34-.3zm-24.11.08c.04 0 .07.02.1.05.03.01.04.03.06.05.08.1.16.28.23.55a4.09 4.09 0 01.12.83l-.01.05a.47.47 0 01-.07.1.25.25 0 01-.07.05.16.16 0 01-.07.02.2.2 0 01-.12-.05l-.04-.02-.04-.05-.03-.04a4.22 4.22 0 01-.32-1.01.92.92 0 010-.3.3.3 0 01.07-.14.28.28 0 01.13-.08.2.2 0 01.06 0zm50.18.36c.08 0 .19.05.28.14a.85.85 0 01.17.22c.07.13.11.21.12.27 0 .04 0 .06-.02.08a.12.12 0 01-.04.03h-.06a.9.9 0 01-.34 0 .38.38 0 01-.16-.08.33.33 0 01-.06-.07.49.49 0 01-.07-.2v-.12c0-.09.01-.15.05-.2a.17.17 0 01.13-.07zm-51.13.28c.03 0 .06 0 .1.02.02 0 .05.02.08.05l.1.08a1.4 1.4 0 01.3.75V67.8l-.02.1a.37.37 0 01-.1.19.28.28 0 01-.12.06.17.17 0 01-.13-.01.43.43 0 01-.13-.11l-.12-.18a1.7 1.7 0 01-.2-.7l.02-.21a.37.37 0 01.07-.16c.05-.05.1-.08.15-.09zm50.42.17c.06 0 .11.02.14.05.03.03.02.06-.02.08a.47.47 0 01-.2.04c-.1 0-.16-.01-.18-.03v-.04a.42.42 0 01.26-.1zM67 67.01c.15.03.17.41.1 1.6 0 .17-.06.31-.13.38a.11.11 0 01-.07.03c-.02 0-.05-.02-.07-.07a.52.52 0 01-.02-.08v-.02a3.83 3.83 0 01-.03-.85 3.84 3.84 0 01.15-.93.18.18 0 01.03-.05h.01V67h.02zm24.01.02c.07 0 .13 0 .18.02.14.04.27.11.37.21a1 1 0 01.12.13c.14.2.23.45.26.74a2.24 2.24 0 01-.18 1.14 2.8 2.8 0 01-.8 1.04.29.29 0 01-.12.06l-.06-.02a4.8 4.8 0 01-.45-.66 11.21 11.21 0 01-.59-1.3c-.1-.27-.16-.5-.16-.62 0-.2.26-.43.62-.58a2.3 2.3 0 01.81-.16zm-27.88.33c.04.01.08.04.12.1.04.06.08.15.13.27.15.38.16.58.02.75a.37.37 0 01-.06.05.17.17 0 01-.04.03c-.07.02-.13-.02-.2-.14a1.82 1.82 0 01-.1-.22c-.15-.38-.16-.58-.02-.75.06-.06.1-.1.15-.09zm23.07.14a.14.14 0 01.11.05.21.21 0 01.04.21c0 .03-.02.05-.04.07a.19.19 0 01-.04.03v.01a.15.15 0 01-.07.02c-.1 0-.17-.08-.17-.18 0-.11.07-.2.17-.2zm-1.17.06c.1 0 .22.05.32.14a.6.6 0 01.12.15l.04.08v.1l-.01.13c-.03.1-.1.15-.17.16h-.13-.02a.34.34 0 01-.1-.06l-.01-.02-.02-.02a.5.5 0 01-.1-.18c-.07-.18-.08-.36-.03-.42a.17.17 0 01.11-.06zm-18.78.03c.02 0 .03.01.05.04.02.02.04.05.05.1l.05.14a2.94 2.94 0 01.04 1.03c-.04.2-.13.35-.22.36-.04 0-.07-.05-.09-.14a4.5 4.5 0 010-1.3c.02-.11.05-.19.09-.22h.03zm24.4.02h-.06a.2.2 0 00-.09.03.24.24 0 00-.06.06c-.06.09-.08.22-.07.39a1.76 1.76 0 00.17.61c.08.2.16.36.22.47.09.13.16.19.23.17.03 0 .06-.02.09-.05.07-.07.14-.2.22-.42.16-.41.14-.57-.11-.88a1.87 1.87 0 00-.29-.27l-.02-.02a.67.67 0 00-.16-.08h-.01a.36.36 0 00-.06-.02zm-6.74.02a.5.5 0 01.13.02c.13.03.27.12.38.23a1.01 1.01 0 01.23.41c.02.05.02.1.02.15v.05c-.01.04-.03.06-.05.09a.19.19 0 01-.05.03.26.26 0 01-.08.03h-.12a.75.75 0 01-.27-.09.9.9 0 01-.25-.2c-.2-.24-.32-.4-.34-.5 0-.05 0-.1.03-.12l.03-.03a.76.76 0 01.34-.07zm4.64.32c.02 0 .03.01.05.03l.06.09a11.53 11.53 0 011.25 3.06v.08c0 .06-.03.1-.05.13-.06.08-.18.09-.32.04a2.18 2.18 0 01-.41-.25 4.34 4.34 0 01-.51-.47 4.1 4.1 0 00-.65-.6.4.4 0 00-.15-.06l-.03.01c-.02.02-.03.06-.03.11 0 .17.08.48.2.8.14.43.27.87.27.98v.07l-.04.1c0 .02-.02.03-.03.03-.06.04-.15-.01-.25-.14a2.71 2.71 0 01-.3-.57l-.58-1.56a4.06 4.06 0 01-.23-.84c-.01-.15 0-.26.06-.32.03-.04.09-.05.16-.04.05 0 .12.03.2.07a5.43 5.43 0 01.84.75 4.04 4.04 0 00.89.83v-.01-.01c.03-.1-.06-.51-.22-1-.19-.57-.3-.9-.32-1.08v-.15l.02-.03.02-.02a.18.18 0 01.1-.03zm-26.22 0a.2.2 0 01.07 0 .3.3 0 01.17.14l.05.08a.74.74 0 01.06.33c0 .05 0 .1-.02.14a.42.42 0 01-.08.18.26.26 0 01-.04.03.17.17 0 01-.1.04.23.23 0 01-.13-.04h-.02c-.2-.15-.3-.57-.14-.78a.36.36 0 01.1-.08.23.23 0 01.08-.04zm20.46 0l.08.02c.07.03.14.08.22.15a2.9 2.9 0 01.53.63c.03.04.04.07.04.09 0 .07-.02.12-.05.17-.14.17-.53.08-.81-.25a1.64 1.64 0 01-.23-.33.5.5 0 01-.03-.08.32.32 0 01-.02-.08l.01-.07.03-.07a.47.47 0 01.1-.11.23.23 0 01.08-.06h.05zm-17.2.07l.03.01.03.03c.06.1.13.29.17.54l.03.25c.01.16 0 .3-.02.42v.03c-.03.14-.07.24-.12.3a.15.15 0 01-.04.02.12.12 0 01-.04.01c-.02 0-.05 0-.08-.03a.28.28 0 01-.05-.04.3.3 0 01-.05-.11 3.41 3.41 0 010-1.15c.01-.1.04-.18.07-.23a.14.14 0 01.03-.04l.03-.01zm5.94.2l.06.02a.32.32 0 01.14.08l.02.02a.28.28 0 01.07.2s0 .02-.02.03a1.32 1.32 0 01-.21.2 3.4 3.4 0 01-.54.32c-.62.3-.76.46-.72.79l.02.11v.03l.03.06c.07.15.21.18.54.13.17-.03.31-.03.42 0 .16.03.24.1.22.2 0 .04-.02.07-.04.1a.49.49 0 01-.11.13c-.05.04-.1.08-.18.12-.12.07-.22.13-.28.19a.47.47 0 00-.08.08.24.24 0 00-.04.09v.1l.03.1.07.14a3.97 3.97 0 00.25.35l.07.05c.05.02.11.02.2 0 .12-.04.3-.13.56-.26a7.62 7.62 0 01.82-.36h.11l.03.02.02.06.01.09a.1.1 0 01-.02.05 2.6 2.6 0 01-.5.46 6.11 6.11 0 01-.67.43l-.15.09-.17.09c-.2.1-.35.16-.42.17-.03 0-.07-.04-.13-.12-.12-.15-.3-.43-.48-.77a18.85 18.85 0 01-.95-2.05 1.86 1.86 0 01-.06-.27l.01-.04a4.35 4.35 0 01.79-.53c.22-.1.45-.23.63-.34l.09-.05.29-.2c.08-.08.18-.11.27-.1zm-6.66.1c.03 0 .07.03.1.07.06.06.08.45.04.87l-.06.76-.14-.74a2.62 2.62 0 01-.06-.55c0-.25.04-.4.12-.4zm16.98.03l.11.03.07.05.06.06c.27.26.56.8.47.99-.13.23-.25.26-.48.04a1.59 1.59 0 01-.47-.64c-.09-.2-.08-.37.02-.46a.24.24 0 01.04-.03.33.33 0 01.11-.04h.07zm-17.66.24c.07 0 .15.15.21.36a2.34 2.34 0 01.1.49 1.36 1.36 0 01-.06.48.3.3 0 01-.06.1.1.1 0 01-.03.03c-.06.02-.12-.04-.17-.2a3.76 3.76 0 01-.13-.76c-.02-.24.01-.41.08-.47a.1.1 0 01.06-.03zm-2.63.07c.1 0 .18.06.22.16.02.05.03.1.03.17a.7.7 0 01-.03.22c-.06.17-.18.32-.28.32a.2.2 0 01-.15-.05c-.16-.13-.2-.5-.05-.7a.29.29 0 01.04-.03.35.35 0 01.22-.09zm19.33.14h.04c.12.05.3.23.5.55l.25.4c.02.06.03.1.01.12-.02.04-.08.05-.18.06a.31.31 0 01-.12-.02.7.7 0 01-.24-.16 1.23 1.23 0 01-.12-.13 1.11 1.11 0 01-.25-.62c0-.07.01-.12.03-.16a.1.1 0 01.03-.03l.05-.01zm-17.4.25a.1.1 0 01.05 0l.06.05.05.06c.03.04.07.1.1.18l.03.12c.03.09.05.19.05.3.03.25 0 .47-.05.57l-.02.04a.05.05 0 01-.03.01c-.08 0-.15-.06-.2-.16a.96.96 0 01-.1-.28 2.3 2.3 0 01-.07-.55c0-.18.03-.28.08-.32l.03-.02h.02zm-.66.26l.05.01.04.03a.28.28 0 01.07.06l.02.04.04.06.02.04.03.07.02.06.02.08.01.07.02.1V70l.02.18c0 .24-.04.39-.12.43a.11.11 0 01-.07 0c-.07 0-.17-.07-.28-.2a.81.81 0 01-.17-.37l-.02-.03c-.04-.26.02-.53.17-.65a.19.19 0 01.09-.04h.04zm-2.12.07a.3.3 0 01.2.07.43.43 0 01.14.2l.03.15v.12l-.02.05c-.03.08-.1.1-.2.06a.38.38 0 01-.12-.11 1.57 1.57 0 01-.16-.33v-.01a.27.27 0 01-.02-.1c0-.07.06-.1.15-.1zm40.74 0l.1.03a.7.7 0 01.07.02l.07.03a1.44 1.44 0 01.26.16l.08.05.1.1.08.05.1.1.08.08c.04.03.07.08.1.12l.07.07.15.2a23.69 23.69 0 01.8 1.28c.08.15.14.28.16.37.03.1.03.17 0 .2a.4.4 0 01-.24.14l-.05-.03-.1-.1a18.06 18.06 0 01-1.03-1.3l-.69-1c-.18-.28-.3-.47-.27-.5a.15.15 0 01.1-.06h.06zm-21.1.14l.05.01c.01 0 .03 0 .05.02h.02l.02.02.05.04c.07.06.13.13.17.2a.4.4 0 01.07.19c0 .12-.11.18-.24.18a.43.43 0 01-.29-.1.28.28 0 01-.06-.07c-.1-.19-.06-.37.04-.44a.2.2 0 01.12-.05zm-18.3.24h.06l.03.01.02.01.05.05.04.06c.06.1.1.23.1.39 0 .2-.07.38-.16.39-.05 0-.1-.03-.14-.09a.97.97 0 01-.16-.48c0-.08.01-.16.04-.22.04-.07.08-.11.13-.12zm23.09.01c.05.01.1.04.17.09l.13.11.32.35a8.74 8.74 0 011.13 1.93c.07.2.1.37.07.47l-.07.17c-.04.07-.08.07-.15-.01l-.13-.19a.86.86 0 00-.14-.17c-.1-.09-.2-.1-.36-.07a2.17 2.17 0 00-.41.15c-.08.04-.15.09-.21.14a.69.69 0 00-.28.41c-.04.24-.1.41-.16.5a.31.31 0 01-.03.05.17.17 0 01-.03.03.1.1 0 01-.03.01c-.08.02-.15-.07-.2-.3a20.5 20.5 0 01-.05-2.04c.04-1.4.08-1.57.39-1.63h.04zm-25.02.1c.09.01.18.1.27.22.06.09.1.2.15.32.06.18.1.38.1.6v.37c0 .1-.02.16-.03.16a.2.2 0 01-.07-.01l-.03-.02a.49.49 0 01-.12-.1 2.35 2.35 0 01-.48-1.1.69.69 0 01.02-.3.23.23 0 01.04-.06.21.21 0 01.07-.06l.04-.02h.04zm8.3.1h.03c.02.02.05.05.07.1a.7.7 0 01.03.07l.02.07.04.14.05.29.04.37.04.45a26.05 26.05 0 01.07 1.17c.02.66.02 1-.05 1.17a.27.27 0 01-.2.18h-.06a.37.37 0 01-.17-.07c-.15-.1-.32-.31-.5-.62a6.24 6.24 0 00-.37-.54c-.08-.1-.14-.18-.19-.2-.01-.02-.03-.02-.04-.02l-.02.02a.83.83 0 00-.08.24v.04c-.04.19-.07.44-.08.72a4.7 4.7 0 01-.1.75c-.03.15-.07.26-.1.32a.1.1 0 01-.05.04h-.02a2.87 2.87 0 01-.23-.24c-.22-.29-.54-.76-.85-1.25a9.12 9.12 0 01-.98-1.8l.02-.02a.46.46 0 01.2-.04h.15l.09.03.2.12a2.77 2.77 0 01.52.64l.42.74.08-.97a4.83 4.83 0 01.13-.71.76.76 0 01.1-.2.33.33 0 01.06-.07.22.22 0 01.06-.04.22.22 0 01.14 0h.01l.09.04.19.16c.1.1.21.25.34.43l.49.71.08-1.07c.03-.36.1-.7.16-.92a.75.75 0 01.08-.2.1.1 0 01.04-.03h.04zm-7 .35c.1 0 .19.04.23.1l.02.08c0 .06-.03.1-.08.15a.31.31 0 01-.36.02.17.17 0 01-.07-.14c0-.08.06-.15.15-.19a.33.33 0 01.1-.02zm41.96.02a.1.1 0 01.03 0c.1.02.23.1.41.29a3.72 3.72 0 01.6.77c.08.12.12.22.13.29v.05a.38.38 0 01-.15.16.16.16 0 01-.08.02.27.27 0 01-.1-.03.9.9 0 01-.22-.2 4.3 4.3 0 01-.44-.61l-.04-.08a3.24 3.24 0 01-.06-.1l-.04-.08-.04-.1-.02-.04-.03-.09v-.04a.4.4 0 01-.02-.06v-.04-.04a.1.1 0 01.03-.04l.02-.02h.02zm-44.06.2a.2.2 0 01.1.05 2.46 2.46 0 01.59.96c.1.35.05.56-.11.52a.37.37 0 01-.14-.07 1.45 1.45 0 01-.27-.3c-.24-.34-.36-.63-.35-.84a.37.37 0 01.15-.3c0-.01.02-.02.03-.01zm25.86.27v.63c0 .16.01.28.04.38l.02.09c.03.08.07.12.13.14h.05c.08 0 .15-.02.2-.05a.3.3 0 00.1-.07c.13-.16.07-.45-.18-.73l-.36-.4zm19.78.2l.1.02a.9.9 0 01.18.1l.05.04.02.04s0 .02-.02.03a.48.48 0 01-.23.06c-.1 0-.2-.04-.24-.1a.14.14 0 01-.02-.07.1.1 0 01.05-.1.17.17 0 01.1-.02zm-46.31.26c.14-.01.35.2.5.46a1 1 0 01.14.43c0 .12-.02.2-.07.23a.1.1 0 01-.07.02c-.05 0-.1-.04-.18-.1l-.04-.03a1.47 1.47 0 01-.21-.27 2.13 2.13 0 01-.18-.32c-.09-.2-.1-.3-.04-.37l.03-.02a.24.24 0 01.12-.03zm47.34.23a5.41 5.41 0 011.12.32c.55.22 1.36.5 1.8.62a2.74 2.74 0 01.65.27l.06.05c.04.04.05.07.04.1a.58.58 0 01-.04.11.33.33 0 01-.06.08.25.25 0 01-.07.06.3.3 0 01-.1.02c-.07 0-.16 0-.26-.03s-.21-.08-.35-.15a55.68 55.68 0 00-2.82-1.27.23.23 0 01-.07-.06c-.01-.02-.02-.04-.01-.06 0-.01 0-.02.02-.03l.03-.02.06-.01zm-47.87.41c.04 0 .08.02.12.04.07.04.14.11.18.2a.3.3 0 01.03.12c0 .1-.07.2-.16.2-.15 0-.3-.2-.32-.37 0-.05 0-.1.03-.14a.13.13 0 01.12-.05zm46.97.04c.06-.01.16 0 .26.03a6.27 6.27 0 01.84.3l.54.2c.92.39 1.93.84 2.03.95.08.09.1.14.06.17h-.1c-.1 0-.26-.05-.5-.12l-.4-.15a38.42 38.42 0 01-2.33-.98 4.85 4.85 0 01-.5-.3l-.01-.02V72c.02-.03.06-.05.1-.05zm-.85.61a6.04 6.04 0 01.96.19 14.33 14.33 0 012.35.93c.14.07.26.15.34.21l.1.1.02.04a.1.1 0 010 .03l-.01.13-.02.02-.03.02c-.11.04-.43-.1-1.26-.5a16.47 16.47 0 00-2.59-.97.68.68 0 01-.09-.05.15.15 0 01-.04-.04v-.03c0-.02.01-.03.03-.04a.6.6 0 01.23-.04zm17.23 1.82a.2.2 0 01.08.02c.05.02.1.06.15.12.05.05.09.12.11.19.04.1.05.21 0 .3a.46.46 0 01-.2.2.17.17 0 01-.12.02.2.2 0 01-.08-.04.31.31 0 01-.04-.04.7.7 0 01-.1-.6.34.34 0 01.06-.1.22.22 0 01.03-.04.16.16 0 01.1-.03zm2 .01c.04 0 .08.02.11.06a3.17 3.17 0 01.26 1 15.69 15.69 0 00.2 1.41c0 .05 0 .08-.03.11-.04.06-.11.1-.23.1-.06 0-.12 0-.17-.04a.23.23 0 01-.06-.06.74.74 0 01-.1-.25 7.97 7.97 0 01-.12-2.18.43.43 0 01.07-.1.12.12 0 01.08-.05zm-1 0c.17 0 .26.1.34.52.06.26.1.63.17 1.18.06.54.06.73-.06.8a.36.36 0 01-.16.04c-.04 0-.09 0-.12-.02a.33.33 0 01-.11-.09.67.67 0 01-.09-.14c-.06-.12-.1-.28-.14-.48a4.67 4.67 0 01-.07-1.12c0-.34.04-.55.14-.63a.17.17 0 01.1-.05zm1.9.12h.07c.18.07.32.35.4.84a8.16 8.16 0 01.07 1.42c0 .18-.02.33-.05.44a.56.56 0 01-.05.13.16.16 0 01-.06.06l-.04.01c-.06 0-.13-.06-.21-.2a14.92 14.92 0 01-.24-2.42c.02-.2.05-.27.12-.28zm-3.9.04a.38.38 0 01.26.12.4.4 0 01.1.17.17.17 0 01-.05.18.37.37 0 01-.23.08.41.41 0 01-.2-.04.29.29 0 01-.1-.07.27.27 0 01-.05-.18c0-.04 0-.08.02-.12l.03-.04a.24.24 0 01.12-.08.32.32 0 01.1-.02zm5 .11h.01c.2.06.6 2.13.53 2.64l-.01.08a.39.39 0 01-.06.1.22.22 0 01-.03.03c-.14.1-.34-.06-.47-.45a2.06 2.06 0 01-.08-.31 6.12 6.12 0 01-.01-1.92.62.62 0 01.03-.09c.02-.05.05-.08.08-.08zm-5.86.1c.08 0 .16.05.2.12l.03.05.02.11v.06a.32.32 0 01-.11.2.24.24 0 01-.14.05c-.04 0-.07 0-.1-.02a.24.24 0 01-.11-.1.31.31 0 01-.05-.16v-.06c.02-.1.08-.18.16-.22a.23.23 0 01.1-.03zm6.79.03c.04.01.09.04.14.1l.07.1a1.6 1.6 0 01.18.49 3.28 3.28 0 01.07.44 9.62 9.62 0 00.23 1.36c-.02.24-.4.29-.55.02-.1-.17-.23-.99-.3-1.62v-.03a5.64 5.64 0 01-.03-.59v-.08l.02-.06c.03-.07.07-.11.12-.12a.1.1 0 01.04 0zm1.14.3h.1c.17.07.27.31.31.78a7.65 7.65 0 01.01 1c-.07.68-.39.83-.55.13-.1-.41-.13-.89-.1-1.26.01-.23.05-.43.1-.54a.32.32 0 01.04-.06c.03-.04.06-.05.09-.06zm-8.67.1c.09 0 .12.09.06.2-.06.11-.18.2-.27.21-.05 0-.08-.02-.1-.05v-.06c0-.03.02-.05.03-.08a.42.42 0 01.12-.14l.04-.03a.26.26 0 01.11-.04zm9.63.6c.04 0 .1.05.14.12a1.42 1.42 0 01.24.54c.01.07.02.13.01.19v.05a.73.73 0 01-.11.2.33.33 0 01-.06.06.11.11 0 01-.06.03l-.03-.01a.15.15 0 01-.03-.03.9.9 0 01-.1-.24l-.01-.04-.01-.04a2.74 2.74 0 01-.09-.56c0-.08 0-.15.02-.2a.1.1 0 01.02-.04c.02-.03.04-.04.07-.03zm-6.88.03c.03 0 .06 0 .09.03l.04.03.04.05a1.1 1.1 0 01.2.76c0 .05-.02.09-.03.13-.16.3-.37.19-.47-.26a5.52 5.52 0 01-.1-.6c.03-.1.1-.13.23-.14zm-.83.25a.2.2 0 01.05 0h.02a.2.2 0 01.03.02.24.24 0 01.11.1c.03.04.04.1.04.16 0 .16 0 .35.02.43.01.2-.27.3-.4.15a.57.57 0 01-.13-.37.94.94 0 01.05-.28l.01-.03a.44.44 0 01.06-.1l.01-.02.02-.02a.18.18 0 01.11-.04zm-.85.44c.04 0 .07 0 .1.02l.05.04c.02.02.05.06.06.1a.5.5 0 01.05.22v.08h-.01c0 .05-.02.1-.04.14a.39.39 0 01-.06.1.21.21 0 01-.15.08c-.1 0-.2-.08-.23-.22a.59.59 0 010-.3.43.43 0 01.1-.19.23.23 0 01.08-.06l.05-.01zm-.8.64c.06 0 .11 0 .15.04.05.06-.07.21-.26.34-.25.17-.35.18-.35.03v-.06a.4.4 0 01.09-.14.72.72 0 01.29-.19l.07-.02z" fill="#0a1e65"/><g fill="#d80025"><path d="M84.94 94.11c-1.4 0-2.52 1.04-2.52 2.33v6.11c0 1.3 1.12 2.33 2.52 2.33h2.95c1.4 0 2.53-1.04 2.53-2.33v-6.1c0-1.3-1.13-2.34-2.53-2.34zm1.48 1.56c.81 0 1.47.6 1.47 1.36v4.94c0 .75-.66 1.36-1.47 1.36s-1.48-.6-1.48-1.36v-4.94c0-.76.66-1.36 1.48-1.36zM76.94 94.17v.14c.43.21.73.63.73 1.1v8.4c0 .47-.3.89-.73 1.1v.14h3.8v-.25a1.22 1.22 0 01-.55-1v-8.38c0-.41.21-.77.54-1v-.25z"/><g fill-rule="evenodd"><path d="M107.15 94.22l-5 9.64s0 .77-1.03 1.01h2.63s-.45-.3-.32-.6c.13-.29.38-.76.38-.76h5.07l.51.83s-.26.47-.64.47h4.42s-.57-.23-.83-.7l-5.2-9.9zm-.77 4.26l1.92 3.96-3.97-.05 2.05-3.91zM103.13 94.21h-.06.14-.08zm-.06 0h-2.4c.55.52.23.9.23.9l-1.09 3.72-1.83-4.61h-.22l-2.24 4.55s-.77-3.07-.84-3.55c-.05-.35.3-.8.47-1h-3.87c.84.53.84.83.84.83l2.43 9.82s2.05-5.15 2.25-5.68c.19-.53.51.12.51.12l2.24 5.86s2.76-9.53 2.95-10.3c.13-.52.4-.63.57-.65z"/></g></g><g fill="#fff"><path d="M60.48 68.06c.3-.34.58-.64.64-.66.13-.06-.07-1.03-.23-1.1-.06-.02-.23.14-.38.34-.15.21-.3.4-.35.42-.12.05-.7-1.38-.83-2-.12-.64-.31-.78-.65-.48-.27.23-.25.32.37 2.2.26.77.48 1.55.5 1.73.06.43.27.33.93-.45zm1.91-1.88c.03-.12-.18-.95-.47-1.86-.57-1.75-.76-2.02-1.1-1.56-.15.2-.08.56.37 2 .3.97.58 1.78.63 1.8.17.06.52-.17.57-.38zm2.46-1.98c.37-.36.55-.67.55-.93 0-.56-.22-1-.55-1.02-.24-.03-.28-.1-.3-.5-.03-.54-.37-.96-.75-.94-.33.01-1.57.75-1.6.93 0 .08.17.77.39 1.53.21.77.43 1.57.48 1.8l.08.4.58-.37c.31-.2.82-.6 1.12-.9zm-1.23-.5c-.13-.31-.1-.44.13-.62.2-.16.39-.19.6-.1.29.1.3.14.12.5-.3.58-.64.67-.85.21zm-.33-1.34c-.25-.1-.26-.36-.03-.54.28-.23.62.04.43.33-.16.23-.24.27-.4.21zm4.87-.31c.21-.22-.09-.94-.35-.83-.1.05-.31.21-.47.37-.4.4-.64.38-.74-.06-.06-.26 0-.43.25-.6.18-.12.36-.34.4-.47.1-.33-.22-.61-.46-.4-.1.09-.28.15-.39.14-.35-.05-.15-.48.39-.8.43-.27.5-.38.43-.65-.09-.3-.12-.3-.49-.05l-.89.58c-.37.24-.48.4-.44.62.05.27.8 3.06.87 3.2a9.2 9.2 0 001.89-1.05zm1.25-1.42c-.2-.89.43-1.17.8-.36.1.22.2.26.43.16.4-.18.42-.3.08-.66-.25-.27-.27-.4-.13-.86.19-.65-.1-1.45-.59-1.6-.4-.14-1.19.07-1.6.41-.31.26-.32.35-.1 1.24l.37 1.63c.16.75.28.9.63.74.18-.08.2-.26.1-.7zm-.3-1.58a1.28 1.28 0 01-.23-.47c-.07-.24 0-.36.32-.55.74-.41 1.04.24.4.85-.27.25-.37.28-.49.17zm13.06-4.15c.08-.34-.3-1.03-.68-1.21-.14-.07-.5-.12-.82-.1-.58.02-.91-.26-.5-.43.12-.05.49-.12.81-.14.79-.05.81-.07.66-.43-.17-.37-.77-.36-1.62.01-.63.28-.92.84-.7 1.34.1.22.28.3.7.29.99-.02 1.04 0 1.24.33.32.54-.15.77-1.14.56-.24-.05-.3 0-.36.27-.04.18-.01.38.05.45.1.1.83.07 1.48-.06.28-.05.81-.59.88-.88zm-8.96 3.9a7.03 7.03 0 00-.3-1.18c-.34-1.05-.32-1.38.1-1.63.24-.15.31-.29.25-.52l-.1-.31-1.15.62c-1.06.57-1.36.86-1.1 1.04.07.04.22.03.35-.03.46-.2.71.07.94 1.02.31 1.3.46 1.57.77 1.43.15-.06.25-.25.24-.45zm2.28-1.02c.06-.24-.69-3.02-.85-3.14-.13-.1-.57.1-.6.27 0 .07.13.61.3 1.2l.44 1.6c.12.45.17.5.4.4.14-.06.28-.2.31-.33zm3.54-1.75c-.13-.3-.18-.3-.95 0-.73.28-.84.29-.98.06-.21-.34.09-.73.73-.96.42-.14.48-.22.42-.46-.07-.24-.17-.26-.64-.12-.66.19-.76.17-.78-.17 0-.2.12-.29.72-.49.71-.23.73-.24.6-.54-.14-.3-.16-.3-1.22.16l-1.08.48.14.51.33 1.45c.32 1.6.23 1.55 1.64.93 1.2-.53 1.2-.54 1.07-.85zM128.09 71.51c-.19-1.68-.3-1.96-.75-1.9-.3.03-.32.24-.14.96.1.35.1.63.03.7-.15.12-.66-.41-1.13-1.19-.3-.5-.4-.57-.7-.5l-.33.1.19 1.7c.15 1.36.23 1.72.4 1.81.36.19.46 0 .4-.8-.05-.92.12-1.05.57-.41.47.65 1.14 1.23 1.4 1.2.22-.03.23-.17.06-1.67zm-3.93 1.54c.06-.1 0-.9-.16-1.91l-.27-1.73h-.34c-.3 0-.35.06-.37.53-.02.7.38 2.98.57 3.18.08.09.22.15.3.14.1-.01.22-.1.27-.2zm-1.61-.02c.07-.16-.18-.83-.82-2.18-.68-1.44-.92-1.75-1.27-1.65-.23.07-.35.36-.63 1.53-.45 1.93-.47 2.24-.1 2.2.16-.03.37-.19.48-.36.17-.3.23-.32.71-.21.3.06.7.28.92.47.39.36.61.42.7.2zm-1.9-1.47c-.22-.11-.2-.83.01-.86.19-.02.46.46.4.72-.06.25-.14.28-.42.14zm-2.65-.24c-.06-1.45 0-1.6.7-1.56.39.03.42 0 .38-.33-.03-.28-.12-.37-.4-.4l-1.4-.2a3.71 3.71 0 00-1.22-.05c-.35.2-.14.51.46.72l.6.2.08 1.33c.09 1.53.18 1.8.58 1.68.26-.07.28-.17.22-1.39zm-2.58-1a23.61 23.61 0 00-.16-1.87 1.16 1.16 0 00-.36-.04c-.3 0-.32.04-.26.88.03.48 0 .88-.06.88-.06.01-.41-.45-.77-1.01-.64-1.01-1.05-1.32-1.26-.94-.06.1-.06.87-.01 1.73.08 1.34.12 1.6.33 1.76.13.11.33.17.44.14.16-.06.18-.21.08-.8-.08-.43-.07-.72 0-.73.08-.01.43.42.79.96.57.85.7.97 1.01.93l.36-.04-.13-1.84zm-4.44.82c.13-.22.2-3.36.09-3.52-.04-.06-.21-.09-.38-.07-.28.03-.3.12-.32 1.13-.06 2.4-.05 2.46.15 2.56.26.14.34.12.46-.1zm-2.15-2.46c-.42-1.69-.62-2.1-1.01-2.05-.2.03-.24.08-1.1 1.65-.76 1.36-.76 1.53 0 1.44.65-.08 1.5.25 1.66.65.1.26.61.36.79.16.05-.06-.1-.89-.34-1.85zm-1.22.36c-.32-.15-.34-.4-.06-.88.3-.52.47-.41.55.35.08.64-.03.75-.5.53zm-2.15-.04c.03-.18.1-.93.16-1.67.1-1.2.09-1.36-.11-1.53-.2-.17-.3-.13-.93.36-.44.33-.76.49-.82.4a5.09 5.09 0 01-.28-.98c-.16-.72-.24-.87-.52-.98-.27-.1-.36-.1-.42.04-.2.43-.59 2.99-.49 3.19.17.35.52.12.62-.42.16-.78.34-.71.54.2.1.45.23.82.28.82.05-.01.3-.26.55-.56.25-.3.53-.56.62-.57.2-.03.28.58.15 1.2-.08.36-.07.5.09.66.27.28.5.21.56-.17z"/></g></svg>