<svg xmlns="http://www.w3.org/2000/svg" version="1.0" width="950" height="500"><path d="M0 500h950V0H0v500z" fill="#006"/><path d="M487.43 399.64c.31.39.6 1.47.86 2.18.35.98.82 1.54 1.29 2.25a14.54 14.54 0 005.44 4.58c2.77 1.36 3.64 2.3 6.11 4.3.23-3.36-2.16-6-2.6-7.14-.6-.21-6.72-4.65-7.78-6.16-.95-1.35-1.52-3.16-1.95-5.13-.58-2.71-.79-2.85-1.91-5.32a31.2 31.2 0 017.27-1.11c6.55.16 5.84 5.7 10.36 11.35 1.42 1.77 1.76 1.25 1.83 2.21 1.98.88 1.82 1.19 4.68 1.81 1.59.35 4.36.4 5.3 1.3l1.26-.03-2.64-1.9a22.91 22.91 0 01-2.73-2.16c-5.8-5.28-7.33-12.37-15.42-13.3 1.12-.73 7.27-1.33 8.47-1.44 3-.27 4.34 2.23 5.36 4.4 1.84 3.93.62 6.92 1.16 8.08.43.94 3.95 3.83 5.32 4.28l-1.8-11.88c-.63-1.8-3.71-4.1-5.22-5.1-2.02-1.32-1.4-.4-1.8-1.37 7.1.89 3.89-.98 7.7 3.35 3.17 3.6 8.07 3.73 12.85 4.15 6.41.56 9.37 5.37 15.42 7.28l-4.85-5.86c-5.1-5.1-8.12-2.4-14.16-7.25-2.73-2.2-4.23-1.78-7.75-2.81 6.53-.78 5.48-1.42 10.09 1.56 10.03 6.5 16.52 3.62 27 2.27 1.25-.16 5.06-.18 5.92-.54l-.59-.46c-1.8-.84-6.5-1.05-8.32-1.16-7.83-.45-10.6-3.43-16.6-4.52-2.6-.47-7.1-.61-9.22.41l7.62 2.26c.95.51 2.18 1.05 3.38 1.48 1.1.4 3.25.54 3.87.9l-9.04-2.22c-1.56-.71-2.65-1.1-4.58-1.37-3.03-.42-2.25.02-3.42-.94l-.95-.59 7.8-1.38c2.66-.49 4.5-1.7 7.02-2.22 6.82-1.41 8.97.47 14.55 2.6 7.88 3 14.83 2.24 22.15-1.93 2.37-1.35 2.73-1.27 5.07-1.68l.9-.17c.87-.27.42-.1.85-.42l-11.38-.1c-1.16.07-3.56.87-4.9 1.07-5.16.77-9.97-1.72-14.7-3.17-8.97-2.76-16.38 3.51-18.92 3.85 5.4-8.3 3.87-6.57 7.4-15.26.7-1.73 1.63-3.55 2.06-5.4-3.82 3.57-4.67 5.8-7.18 9.75-1.44 2.25-.73.52-1.7 3.73-.84 2.81-1.93 5.8-3.65 7.46-1.8 1.73-5.17 2.86-7.8 3.15l.39-1.48-2.87 1.32c-1.01 1.13-.86 1.1-2.45 1.61-1.46.48-5.38 1.44-6.93 1.24 1.74-.72 13.08-5.33 14.16-5.94 1.7-.96 2.59-1.9 3.79-2.97 2.62-2.36 3.68-4.24 5.66-7.9l5.13-7.92c-3.6 2.04-6.84 3.9-9.9 6.68-2.5 2.27-1.47 2.17-4.32 4.08-1.76 1.19-3.1 1.85-5.2 2.93-11.48 5.89-10.1 9.14-13.53 11.4-1.6 1.06-4.17 1.69-6.56 1.8l.84-1.04c.37-.35.53-.48.85-.75 3.72-3.08 1.44-1.4 5.48-4 10.39-6.71 8.72-19.63 10.47-24.5.34-.95.52-1.26.61-2.38l-2.76 6.2c-2.31 5.33-8.24 10.93-11.14 15.15a63 63 0 00-3.36 5.58c-2.26 4.12-4.41 6.11-10.2 7.16-3.76.67-2.58.3-6.7 1.97l3.54.73 2.2 10.51zM433.03 380.6c1.62.97 1.52 1.37 4.93 3.26l1.66 1.3c-5.34 2.7-8.7 2.69-13.2 10.55-2.15 3.74-2.97 5.06-5.75 7.54-.64.57-3.48 3.36-3.67 3.92l-.12 2.04c3.13-.63 13.13-5.9 15.63-8.76 1.54-1.75 3.39-5.08 4.71-7.48l5.84-6.34-8.1 3.77c.75-1.1 1.4-1.8 2.78-2.61 1.68-.99 5.54-2.8 7.4-1.64.63.39-.46.29 1.3.48l5.14.71c-.4.6-1.98 1.67-2.8 2.29-1.12.85-2.07 1.51-2.91 2.5-.86 1.02-1.6 1.78-2.4 3.02-1.46 2.26-.16.84-2.27 3.27l8.16-10.23c-2.28.31-8.1 2.85-9.96 5.6-2.27 3.35-.66 10.3-8.5 15.62-1.1.74-.53.22-1.5 1.29.6-.11 7.3-2.99 8.03-3.43a17.1 17.1 0 003.24-2.45c.78-.73 2.09-2.54 3-3.03.16-.71 2.32-4.55 2.94-5.94 2.05-4.6 3.76-8.41 10.15-7.81 3.02.28 2.83.88 6.56-1.49l-5.77-1.4c-2.87-1.48-4.78-10.53-7.09-13.51-1.1-1.44-1.87-2.14-3.02-4.02-2.81-4.6-3.94-11.8-7.34-13.49l1.6 9.73c-.2 3.27.59 6.8 1.94 9.19 1.58 2.81 2.41 4.46 5.06 6.32 2.2 1.56 4.7 3.12 5.27 6.13-6.39.19-2.7.3-7.28-.61-3.04-.6-3.66.18-6.48-1.37a13.62 13.62 0 01-6.67-9.2l2.78 4.42c.66.85 2.34 3.24 3.5 3.33l-3.18-7.17c-1.97-5.38-.18-13.41-5.05-21.52-.63-1.05-1.3-2.37-2.44-2.71l1.57 7.36c.53 5.3-1.62 8.52.03 16.26.82 3.83 1 3.32 2.03 5.54.25.54.15.29.25.78z" fill="#396f4a" fill-rule="evenodd"/><path d="M340.13 305.52l-1.55 1.15-1.6-.66c-2.59 1.15-.6 1.5-4.96.69-1.02 3-.4 2.22-2.5 3.38l.35 1.88c-.63.52-.7.26-1.2.92-1.54 1.99-1.88 4.14-2.2 4.82-1.27 2.59-.39 3.13.94 7.04 1.22-.21.93-.19 1.77-.85l-.4-1.09c.05-.05.12-.2.13-.16.02.04.1-.12.12-.16l.9-1.41c.6.22.37.07.77.58.69-3.14 3.67-6.05 5.82-7.44l11.56-1.5c.05-.08.12-.29.14-.24.23.5.1-.04.44-.94 1.42.77-.21 1.02 3.06.55-1.16 3.44.74 2.72 2.87 2.9l.44.08c.05.01.14.07.18.08.04.01.12.05.18.1.62.82 2 3.1 2.45 4.02l.8.02c1.18-1.2.76-1.2.9-2.98.06-.82 1.49-4.33 1.5-4.39.33-1.83-.77-1.16 3.15-3.05l.23-1.19c2.54-.67 1.09-.65 2.59-1.16 1.74-.6.56.39 2.75-1.38.07.04.15.04.17.14l.6.46c1.07.49 1.05-.82 3.24 1.15l.41.4c1.31 1.3.86 1.11 3.59-.02-.02-2.2-1.91-2.25-3.46-3.64-1.66-1.5-4.76-1.35-5.9-1.61l-2.47-.87c-.73 1.16-.66 1.12-1.75 2.28l-.14.13-3.77 4c-.53-.98-.38-1.8-1.33-2.39-1.01-.63-1.96-.4-2.38-1.71-.34-1.04.77-4.44 1.77-5.89 3.3-4.79 4.51-3.76 10.61-3.8l.68-1.3c-.53-.36-3.8-.89-4.63-.66-1.36.37.4.69-4.18.94.64-1.09.44-.52 1.37-1.12.68-.44.09-.5 1.56-.82 3.67-.55 4.39-.17 7.62.57-.12-1.1-.64-1.51-1.33-2.18-1.45-1.41-2.98-2.29-5.11-2.3-4.5 0-2.72.52-3.96 1.1-1.64.76.7-.95-1.77.97l-.15.12-.99.36c-.61.3-.68.6-.86 1.23-.48 1.73 0 .46-.68 1.54-.41.66-.39.74-.82 1.35-1.32 1.85.4.21-1.73 2.68l.82 1.9-1.55 1.63c-1.9 1.05-2.42-.76-3.38 2.35-.1.36-.07.32-.24.79-.63 1.72-2.65 2.2-3.46 3.12-.47.93.46 1.98 1.02 2.5l1.18 2.32c-1.08-.2-.23 0-1.34-1.07-1.65-1.62-.91-1.42-1.82-2.52-1.15-1.4-3.16-1.3-5.07-1.74zM337.27 265.84c-2.01.57.03.44-3.38 1.07-.25 1.1.23-.35-.1.4-.5 1.17-1.53 2.3-2.25 3.37-.74-.25-3.67-2.61-7.33-2.43l-3.03.1c-1.27 1.66-2.88 1.05-4.24 3.53-1.3 2.35-1.84-1.16-1.64 5.96l1.66-.05c1.62-1.72-.34-.26 2-1.43 1.08-.55-.46-.57 1.78-.47.12-1.4-.12-.83.52-1.36l1.1-.74c.03 2.7-.08 1.91-2.88 3.92 1.61.58 3.83-2.13 6.64-1.8l6.99 1.95c.02 2.17-.27 3.2.5 3.6l1.94.76c1.32.55 1.39.28 2.66-.1.32-.29.73-.71 1.4-.7 2.3.04 2.83 1.35 3.45 1.43l2.29-.12c0-.24-.06-.63 0-.85.18-.8.21-.47.9-1.05 1.54-1.3 3.4-2.06 4.03-2.98 1.44-2.09-.12.28 2.06-2l1.28-1.01c-.6-1.28-1.65-1.47-3.22-1.47-5.06-.37-3.15-1.8-6.11 2.02l-2.44-2.21-1.35.8 1.9-1.94 1.67 1.66 1.04-1c-.21-1.53-1.06-2.78-1.7-4.17.94-.35 1.16.2 1.64 1.22l.87 2.42c1.67-.54 2.45-.16 4.16.12l3.97.68c.97-1.45-.27-3.63-1.3-4.7-.06-.05-.24-.2-.3-.27-.04-.05-.1-.1-.13-.15-1.17-1.62 1-1.08-2.68-1.28-1.83-.1-.5-.92-2.22-.78-7.52.62-5.5-.94-9.62-3.15-1.25-.68-3-.52-4.04-.8-.92-.25-.44-.27-1.45-.7-.96 1.2-1.87.03-3.1 2.13l-1.67 3.7c.24.29.4.42.6.7l.7 1.03c2.48-.16 1.54-.6 5.03-2.13l1.26-.87.14-.15c.46-.4-.09-.71 1.14-.52.83.12.62.3.86.81z" fill="#edb200" fill-rule="evenodd"/><path d="M568.98 374.45c-2.62-1.35-3.9-2.95-5.37-5.11-3-4.39-4.17-3.5-6.02-4.53 1.42-.5 1.16-.33 2.35-1.15 2.61-1.82 1.92-.35 5.26-.62 1.21-.1 1.96-.25 3 .35 2.16 1.24 3.39 4 5.24 5.33l2.4 1.25c-.63-1.75-1.26.02-3.9-6.25-1-2.37-2.9-4-5.7-4.1-1.9.02-5.7.41-6.8 1.37l-2.04 1.75c-.87.7-1.16.88-2.15 1.39.94-4.35 2.55-13.07 3.72-16.61 1.03-3.12 4.56-13 4.24-16.26l-2.53 4.68c-2.68 4.79-6.4 7.88-8 13.68-2.08 7.52 3.65 11.3-2.38 17.14-.84.81-2.98 2.33-4.45 2.73l2.35-8.12c1.12-2.52 1.99-4.38 2.76-7.53.86-3.53.39-5.88.48-9.34.04-1.37.4-8.67.17-9.16-2.37 3.8-3.64 5.16-4.6 9.7-.18.85-.62 12.85-.56 13.77l2.93-8.02-2.3 10.85c-.76 2.09-3.66 7.62-3.29 9.67l12.45-.84c2.16 3.95 1.69 4.56 4.58 4.94 2.34.3 6.65.24 8.16-.96z" fill="#396d4c" fill-rule="evenodd"/><path d="M390.81 359.43c-7-1.25-7.96 1.3-11.14 3.64a9.14 9.14 0 01-5.57 2.08l-5.26 2.23c6.3.86 6.69.85 11.49-.4 4.7-1.22 8.57-8.84 15.47-1.82-1.1.34-.56.21-1.36.74-.08.04-3.18 1.46-4.24 2.81l-3.63 5.96c2.64.34 1.36.86 4.64-2.51a15.8 15.8 0 014.54-3.04c1.87-.84 4.3-1.27 6.43-.42 3.32 1.32 3.57-.77 6.27 1.26-1.34.85-3.48-.96-8.6 1.1-2.86 1.14-3.98 2.7-6.72 3.84l-16.89-2.2c.45.66.86.7 1.62 1.1l3.52 2.43c.71.62 4.39 3.14 5.22 3.45 1.24.46 3.93.63 5.37.5 4.11-.36 5.28-2.04 7.99-3.6 1.28-.75 2.45-1.48 3.78-2.19.6-.32 1.47-.73 2.05-.94.53-.2.5-.14 1.01-.29l1.19-.57c-1.56-.68-3.66-.64-5.4-.74 2.95-2.09 8.53.92 11.29 2.12l-.24-.67c-.52-1.02-2.25-2.13-3.4-2.64-3.94-1.76-2.9-10.86-3.03-13.99-.17-4.17-1.34-5.66-2.6-9.08-1.59-4.24-1.14-2.03-1.87-3.84-.28-.7-.5-1.52-.71-2.26l-.7-1.83c-.02-.1-.1-.12-.15-.17l.15 3.8c.35 1.2.23-.12.35 1.46.07.85.02.88.28 1.68.63 1.92 1.05 4 1.46 6.17.36 1.9-.24 4.63-.36 6.78-.17 2.92.16 4.34.32 6.97l-6.32-1.4-2.78-3.25c-2.27-3.43-.95-1.56-3.47-2.27z" fill="#396d4b" fill-rule="evenodd"/><path d="M333.45 260.22c.42-2.28-.6-1.64-2.3-2.73l2.8.9c1.66.03-.98-.67 2.7.18 0 0 .83-.1-.26-1.56l-1.67-1.64c-1.8-1.3-.52-.66-2.84-1.97l-.04-1.56c.4.3 4.68 2.98 4.72 3.37l.17.66c.22.68.98 1.83 1.4 2.6l2.1.34c.52-.65.31-.68.65-1.21.6-.91.33-.3 1.32-.84 1.39-.75-.32-.31 2.6-1.68.43-1.7.19-3.68.38-5.36.4-3.58.37-3.45-1.15-4.42.2-1.14.74-1.47-1.23-3.67l-2.79-2.46c-.42.86-.03.33-.9 1.27l-.17-1.99c-1.1-.63-1.4-.42-1.84-1.49-2.2.59-1.2 2.34-2.83 4.02-2.7 2.77-.8 2.9-1.05 4.32-.06.36-.75.62-1.13.8l.1 1.92c-.34.15-.34.06-1-.13l-.18 2.9c-2.23-.16-3.25-1.25-4.88-2.49-1.4.2-1.41.4-2.17 1.2-.93-.23-1.3-.08-1.86-.2-1.15-.23-.39-.52-1.44-.76l-1.95 2.05c-4.6-.05-.98.12-3.9 1-2.52.75-2.06 1.3-3.1 5.44.66.2 1.32-.23 2.11-.72 2.08-1.3.49.17 4.72-1.8l2.44-1.1c.8.4 1.65.4 4.23 1.52l1.46.67c-1.5.92-4-1.15-6.74-.63-.81.15.34.2-1.9.8l-.15.06-3.44 1.78c2.12-.38.96-.72 4.91-.98 2-.13 3.59-.07 5.5.2 1.8.24 2.97.64 4.38 1.36.7.37 1.36.7 1.87 1.1 1.05.83.68 1.12 2.35.93zM614.42 281.28c.6-.13 1.27-.28 1.86-.58.48-.24.59-.35.85-.76l.1-.19.3-.54 2.78-1.67-.09-1.6c1.99-.21.8-.02 1.74-1.22l.96-2.28c.32-.35 7.23-4.56 11.35.23l2.43 3c2.45-1.21 1.13-5.72.57-7.92-.62-2.42-3.42-2.85-5.47-4.5l-.79.7-1.08-.8c-1.02.67.3-.12-.66.71-.87.75-.65.07-1.36.83-.81.88.57-.8-.22.34-.85 1.27-1.05.55-2.48 1.3-1.2.62-.16.43-1.7 1.19l.72 1.58c2.6.17 2.36-1.67 3.63.04-.23.15.02.07-.58.33-2.56 1.13-2.03-.18-4.98 2.68.23-3.4.54-2.4-.98-4.7-.68-1.03-.46-.74-1.7-1.56-.05.03-.14.02-.16.1l-.92.42c-1.06-.5-.86-.93-1.82-.96-3.18-.12-4.43 2.3-3.95 4.67-.68.78-.4.81-1.12 0-.44-.49-1.37-4.2-1.4-4.46a8.95 8.95 0 01-2.35-1.86c-1.84-2.07-.56-2.38-4.98-3.17-2.4-.43-.93.27-3.35-.98l-1.08.9-5.04-1.3c-.15.26-.34.69-.46.87-.88 1.31-.9 0-.2 3.66 1.76.14 1.05.2 2.27-.52 1.36-.8.78-.1 2.09-.09 1.67.03.08-.47 2.25-.08l2.34-.19c1.43 2.73-.2-1.23 2.25 2.69l1.59-.02c.04 2.32-.34 1.75 2.33 2.55 0 2.43-.13 1.13.62 2.63l.09.18.08.18c.47 1.03.22.9.8 1.91.2.35.22.31.48.88l.62 2.11 2.54-.36c-.04-.05-.12-.18-.15-.13l-.7-.67c-1.08-1.39-.16-2.78.87-3.75-.33 2.63.5 2.9 1.28 4.3 1.47 2.63.27 1.02 2.76 2.96l-3.26-1.61-2.91 1.34.93 2.23 2.03.05.43.91z" fill="#edb200" fill-rule="evenodd"/><path d="M417.5 374.9c-4.71-.64-9.9 2.72-12.9 5.5-8.24 7.6-9.81 6.03-20.55 10.64.32.25-.46.26.93.47l10.51-.46c8.64-.9 9.84-3.85 16.3-8.6a63.95 63.95 0 013.7-2.53c1.43-.9 2.96-1.31 4.6-1.84-1.2-.6-3.5-.12-4.8.28-2.72.82-2.78 1.54-4.3 1.08 2.5-2.19 7.53-3.42 11.22-1.5l2.95 1.63-1.2-10.35c.14.18.28-.06.28 1.25 0 2.56-.3 4.63 1.7 7.53.58.85 1.22 1.29 1.84 2.07l2.61-.16-3.43-2.95a16.74 16.74 0 01-.14-6.02c.72-5.48 1.32-5.71-.84-10.6-2.47-5.59-4.84-7.01-8.04-11.46-.45-.62-.91-1.25-1.24-2.01-.16-.37-.25-.75-.4-1.19l-.35-.76c-.02-.1-.07-.12-.12-.17l2.39 7.37c1.26 2.08 2.68 3.8 3.47 6.57a29.49 29.49 0 011.04 9.37 24.6 24.6 0 00.17 4.85c.24 1.5.73 2.5.74 4.04-2.48-.94-3.48-1.4-6.13-2.05z" fill="#396f4a" fill-rule="evenodd"/><path d="M355.54 327.04c-1.23.87-1.95.98-3.94.92l7.01 1.35c-.41.45-.14.39-1.75.7-2.47.46-2.78 1.31-4.22 2.49l-.78.66c2.3-.1 2.8-1.61 5.08-2.06l6.37.39 7.4 10.4c-1.46-.14-6.3-1.05-7.1-.68l.3.16c1.61.25 4.1.59 5.55.98 2.27.62 2.6.93 3.76 2.4-.86.8-.23.96-1.3 1.18.5.45.13.4 1.22.6.7.14.75.02 1.38-.02 1.16-.06 1.48.33 1.5 1.52.76-.18-.04-.22 1 .28l1.45.8c-1.17.26-1.54.06-2.31.2-.8.14-1.23.43-2.33.55l-.26.58c.2 0 1.08.07 1.12.06 1.14-.15-.05-.08.9-.45 2.33-.9 3.91 1.02 5.37 2.2.53.43.49.46.86 1.05-4.36.38-4.69 1.78-6.47 2.2l-6.94 1.18c.04.04.11.05.13.13.07.23 1.33.65 1.64.8 3.13 1.54 4.71 3.02 10.15-.4l3.53-2.2c3.95 2.46 1.55 2.74 5.18 3.54.22.04.96.26 1.1.28 2.43.25.84.35 1.38-.53-3.8-9.29 5.89-9.82 3.8-20.7-1.37 2.01-1.16 5.93-4.3 9.45-4.38 4.94-3.08 5.72-2.89 9.56-3.27-2.54-5.82-3.33-3.73-8.58.62-1.59 4.52-6.52-.56-9.08l-.66 6.2c-1.37 3-1.09 2.4-1.52 5.82l-2.1-5.1a8.11 8.11 0 00-.5-6.71l-1.12 8.3c-1.45-1.14-2.17-1.26-2.07-3.64l-.73-.18-.54.74-1.7-1.95c-.49-.49-2.23-2.5-2.56-3.12-1.39-2.61-.55-5.03.06-7.59-.43.3-.7.47-1.16.9-.46.45-.12.26-.49.48-.4.24.02.39-.35.01-.62 1.23 1.11.54.33 3.73-2.45-2.13-1.64-1.34-3.52-4.07-1.68-2.44-.73-3.71-.94-6.67l-.95 2.12c-.2.44-.13.32-.33.54l-1.76-2.3c-1.85-2.56.38-6.29.38-10.52l-.47.4.05-.4c-.51.55-1.38 6.51-1.64 7.77-.83-1.15-2.3-2.89-2.58-4.22.75-.03 1.2.04 1.68-.21l-.81-.02c-.44-.92-1.83-3.2-2.45-4.03.1 2.55.62 3.6-1.58 3.49l-7.34-.85c.93 2.17 2.37 1.78 2.72 1.9.99.31.54 1.52 3.32.95 1.29-.27 1.21-.22 2.1.11l.38.16.2.06c1.92.65 1.03.88 3.05 3.52l2.67 4.02a38.33 38.33 0 01-5.37-1.55zM445.59 404.29c3.1.05 5.55-1.46 7.96-2.36.64-.62 3.08-2.18 4-2.73 1.37-.84 2.5-1.46 4.1-2.4l8.4-4.6c2.46-1.32 6.42-3.24 9.23-4.03 7.48-2.1 4.8-4.15 11.46-8.35a74.26 74.26 0 014.12-2.38 19.12 19.12 0 003.77-2.73c6.62-5.84 2.84-8.05 10.66-18.89.43-.6.85-1.2 1.23-1.7l-6.43 7.35c-1.78 3.13-3.8 5.62-6.44 7.38-4.23 2.85-9.02 4.7-12.15 8.71-.97 1.24-1.43 2.87-2.3 4.47-2.09 3.87-3.77 4.08-8.05 6.05-6.92 3.18-11.84 5.26-18.23 9.4-2.51 1.63-6.57 3.75-10.21 3.59l-1.12 3.22z" fill="#396d4b" fill-rule="evenodd"/><path d="M340.21 298.37l1.96-.56c1.52-1.06 2.17-1.3.99-4.22a11.57 11.57 0 00-3.08-3.73c-1.64-.92-2.58-1.66-4.51-1.88-1.13-.12-1.78-1.19-4.76-1.82-.8-.17-2.35-.72-2.5-.72-.62 0-1.48.5-2.6.44-1.2-.08-1.22-.34-2 .34-2.9 2.51-3.82-.02-5.72 2.15l-2.36 2.8c-1.89 1.87-1.9.43-2.12 3.42-.2 2.9 1.7.83 4.1-.04l.66-2.2c.41 0-.07-.26 1.18.3l-1.21 2.57c3-.66 3.45-2.64 11.74-.68 5.48 1.3 7.96 3.36 10.23 3.83zM338.95 282.62a5.14 5.14 0 00-.03 2.47c.13.42.28.55.55.78l.33.21c.36.3.18.02.4.37.54.84-.34.44.42 1.54.16.23 1 1 1.41 1.3 1.97-.1 1.74-.29 3.46.23 1.7 1.08.79 1.8.8 3.39.02 1.5-.12 3.86 1.46 4.11.67-1.23 1-1.02 1.22-2.64-.47-1.93-.44-3.22 1.3-3.94.29.5.4-.43.14.79l-.82 2.69c1.62-.9 2.4-2.7 3.93-4.97 2.3-3.4 4.97-6.8 8.57-8.78 2.99-1.64 3.12-.7 3.91-2.62.26-.63.03-.55 1.02-1.14-1.38-2.48.4-2.27-4.27-2.74-1.3-.14-.24-.25-1.79.23-2.8.87-1.72-.59-3.4 1.06l-1.62-.67c-.68 1.1-.08.9-.4 1.77l-.41.64c-.85 1.2-.57.63-1.07 1.14l-.13.14-.22.31c-.87 1-.3.06-1.67 1.1l.89 2.5c-.61.39-.56.2-1.1.5-1.92 1.02-1 .03-2.64 2.8-1.14.02-1.1-.21-1.41.46-.17.34.23.39-1.05 1.12l.63 2.21-1.82-.21.45-4.48c-.46-.39.6-.25-.6-.32-.6-.04-.66.5-2 .17-.08-.01-.3-.1-.39-.13-2.39-.7-.85-.57-1.98-1.29-.5-.33-1.24-.02-2.07-.1z" fill="#edb200" fill-rule="evenodd"/><path d="M586.04 326.25c.1 1.74-.5 2.74-.81 4.31.56.4.33 4.1.19 4.96-.33 2-3.07 5.83-4.34 7.26-2.06 2.32-1.72 2.6-2.86 2.72l.86-3.13 1.13-.26-1.12-.11-.19-1.83-.19.51c-.42 1.58.06-.69-.2 1.23a9.25 9.25 0 01-.3 1.56c-.26.8-.68 1.8-1 2.5-.56 1.25-.6 1.37-1.43 2.1-.97.83-.81.98-1.54 1.98-.82 1.12-2.48 3.09-3.81 3.49-2.27.68-.79-.1-3.35 2.06-.69.58-.32.35-1.21.72l-1.2-7.28c-.7-1.1-2.54-4.81-3.64-5.47l.53 7.48c1.26 6.58-.36 6.93.62 8.45.78-.58.68-.37 1-1.27 1.52-4.26 1.12-3.87-.45-7.8-.22-.55-.77-1.59-.72-2.18.08-.83-.14-.05.28-.6 1.44 3.19 3 5.47 2.46 8.65-.11.63-.32.97-.46 1.46-.27.97-.51 1 .32 1.27.88-.27 1.6-.41 2.45-.73 5.43-2.05 8.41 2.01 14.76-3.1 2.04-1.65-.37-.69 4.14-3.02-2.43-.31-4.5.85-6.55 1.37l-7.57.49c.33-.53.03-.15.4-.55l1.8-1.47c.85-.75 1.35-1.12 2.28-1.79 1.8-1.28 3.18-1.33 5.6-2.56l-3.24.36c.48-1.2 7.46-8.07 9.07-9.14 1.33-.89 3.78-1.04 4.54-1.7-1.05-.14-.51-.04-.74-.42l-4.65 1.69c.14-.89 1.49-2.4 2.1-3.23l.34.24.42.34c.06-1.32.36-1.6 1.02-2.28 1.14-1.18.6-.33 1.72-1.06-1.43.27-.9.04-1.87-.56l-4.01 4.07c.35-4.94.53-2.25 1.45-4.65.47-1.22-.21-1.88-.06-3.03.04-.33.24-.9.3-1.31.13-.99-.04-1.02-.12-1.2l-1.55 1.84-.6-1.38z" fill="#396d4b" fill-rule="evenodd"/><path d="M608.03 302.75l-1.05 2.09c1.43-.08.92-.82 2.29-1.11.78-.17-.42.22.5-.07l1.73-1.2c1.8 1.01 1.57.54 2.44-.56l1.08.66.83-.83 1.86.52c.5 1.63.71.67 1.65 1.24.8.49 1.5 1.12 1.8 1.9.8 2.08.4.12.17 5.2l1.19.47-.43 2.84-2.52 1.32.9 2.83c1.71.03.61.95 2.38 1.32l3.01-.37c.73-1.75.09-.68 1.28-2.78 1.06-1.86.45-.84.04-2.58-.26-1.1.85-.92-.99-4.4l.72-1.11-.9-3.55c-.17-1.04.08.23 0-.76-.05-.72-.14-.48-.22-1.43-.07-.9-.48-2.17-1.02-2.62-4.3-3.23-1.53-.43-5.37-2.24-1-.47-1.14-.25-3.03-.48-2.67 2.2-2.08-.23-3.79 1.72l-1.59 1.68-1.58-.66c-.15.34-.37 1.09-.55 1.4-.55.98-.46.2-.83 1.56zM616.23 252.92c1.12.97 1.1.82 2.8.35.85-1.5 1.08-1.42 2.05-2.45 1.3-1.37 1.07-1.21 2.02-2.78l-.48-1.41c.67-.1 2.25.35 1.88-2.96l-.78-4.13-2.47-.47c1.48-2.87-2.1-1.04-3.25-3.27-1.1.21-2.23.64-2.36 2.09-.07.86.06 1.43-1.8 2.44-1.58.85-1.26-.02-2.4 3.28-1.65 4.72 3.61 7.3 4.8 9.3z" fill="#edb200" fill-rule="evenodd"/><path d="M467.32 386.78c-2.28-.12-2.7-.15-4.68.71-1.05.46-2.67 1.5-3.49 2.2l-3.74 7.36a47.6 47.6 0 004.35-2.68c.81-.78.81-3.89 1.84-5.2.96-1.24 4.06-.62 5.96-.46l5.33-1.01c-2.3-1.02-3.27-.25-4.35-7.55-1.67-11.43-3.08-10.8-10.98-18.85-1.55-1.58-1.05-1.48-3.07-3.05.6 5.32 4.25 10.48 6.7 14.04 2.63 3.8 3.15 6.88 4.56 10.88.45 1.28 1.21 2.28 1.57 3.61z" fill="#396d4b" fill-rule="evenodd"/><path d="M597.64 349.36c-.22-.68.4.03-.35-.7-.3-.29-2.02-.9-2.64-1.15-2.59-1.02-.1-.48-3.55-1.38l1.06-1.64 1.91 1.64 1.98-.2c1.4 1.24-.68 1.31 3.37 1.32l.12 1.66c.83.17.2-.1 1.35.43l-.32 1.65 2.18.83c.32 2.52-.5 4.54-2.1 6.4l-.5-1.55c-.21 1.47.54 3.58 2 3.1.92-.3.48-.9 1.12-1.56 1.19-1.2.56 1 2.08-1.48.33-.55.24-.13.52-.76.16-.34.47-1.78.56-2.26.3-1.63.24-.8-.24-2.02-.25-.67-.44-1.4-.66-2.05-.62-1.8.18-1.45-1.95-3.47-.75-.7-.79-.25-1.45-1.26-1.68-2.56-1.39-.74-3.24-1.64l-5.93-2.45c-.78.2-.13.2-1.24.41-.52.1-.9.1-1.33.14-1.3.14-3.51.64-4.72 1.15-2.4 1-.65.04-3.05 2.78.02.05.07.08.08.16 0 .08.06.13.07.16l.27 1.2c1.16-.96.8-.86 1.63-1.82 1.2.06.72.2 1.29.33 1.44.3-.85-.63 3.78.23-.88 1.3-.18.52-1.3.5-1.7-.05-2.88.79-4.56 1.63 3.06-.36 9.45-.43 12.29 1.03.93.48.48.53 1.47.64zM606.9 254.25c.67 1.02.96.48 2.1 1.95l1.75 2.38c-.67 1.01-.9 1.14-1.83 1.96-.1 1.88 1.06 2.8 1.6 4.37l.34.07c1.46.13 2.58-.59 4.1-1.25l.07-2.06.48-2.85c-.26-.7.4-1.55.17-3.03-.19-1.18-.88-2-1.51-2.86-.54-.73-1.58-1.45-2.1-2.26-.5-.79-.13-.86-.87-1.27-1.54-.85.09.88-2.73-1.36-1.41-1.12-1.78-.46-3.19-1.16a9.05 9.05 0 00-2.85-.64 15.97 15.97 0 00-5.03 1.48c-.28.48-.37 1.03-1.06 1.35-1.14.53-.29-.33-1.88.67l1.05 2.58.81-1.09c1.28.23.65.55 1.94.11.88-.3 2.7-.72 3.8-.57.9.12.45.54 1.58-.13.5.39.37.29.81.99l1.08-.67c2.3 2.02 1.19 1.53 4.6 1.99 1.3 3.26 1.05 2.77 4.2 4.97l-1.75 1.14c-.6-.95.08-.54-.78-1.34-.48-.45-.87-.44-1.29-.88-.39-.42-.17-.15-.4-.72-.49-1.2.1-.11-.66-1.25l-.4-.8-2.15.18zM578.9 340.17l.19 1.83 1.12.1c1.5-.73.75-.97 1.67-2.29 1.33-1.92 1.36-4.92 2.21-6.2.92-1.37.57-1.78 1.14-3.05.3-1.57.9-2.57.81-4.3-.93-2.58-.3-6.02-4.25-10.61-.6-.69-1.07-1.06-2.3-1.14-1.7-.1-2.07-.36-3.3-.61l-5.68.14c-.12.43-.32.6-.24 1.23l3.56 1.08 1.35-.66c1.25 1.45.6.94 2.34 1.96l.05 2.17-1.33.9c2.15 1.9.44 1.58 2.51 2.96-.57-2.74-1.84-1.67.81-4.4-.07 1.58-.58 1.5.67 2.8.54.57.56.38.71 1.47.1.68-.02 1.2.2 1.9.44 1.5 1.04.95.71 3.48l-1.09 3.36c.2 1.24.52 1.83.36 3.23a4.59 4.59 0 01-1.2 2.78l.26-3.95c-1.74 5.02-.73 3.84-1.28 5.82z" fill="#edb200" fill-rule="evenodd"/><path d="M427.82 380.72l-1.94.63c-2.06.45-3.63 1.41-5.28 2.59-2.46 1.75-5.48 5.68-7.59 8.12a14.84 14.84 0 01-2.76 2.67c-3.06 2.3-3.2 2.03-7.07 3.33 5.79.16 13.96-2.85 17.11-6.3.47-.52.8-.8 1.35-1.36.64-.63.74-1 1.34-1.65.71-.78 2.32-2.27 3.12-2.84l8.79-2.58c-.68-1.41-1.31-.97-1.9-2.73l-1.72-.47c-1.3.41.57.29-1.32.66-.72.13-1.52.09-2.13-.07z" fill="#396f4a" fill-rule="evenodd"/><path d="M350.59 253.59c-3.65-.8-3.42-.29-4.07.7a9.3 9.3 0 01-1.97 2.1c-1.12.54-.3-.07-1.27.92-.36.38-1.88 1.72-2.04 2.08-.28.67.53 4.19 2.74 2.13l2.7-1.36.38-1.52 1.03.7c.05-.05.1-.2.13-.15.01.04.1-.12.12-.14.65-.55.55-.28 1.06-.6l.13-.11c.25-.16-.01-.05.5-.3.8-.4.2.14 1.3-.98l2.72-.01c2.02 2.24.53-1.09 3.26 2.73-3.76-.5-3.76-1.56-7.75-.57-1.6.4-.83.64-2.43 1.37-1.55.71-.7 1.01-3.04 2.14-.6.3-.56.18-.98.3l-.98.44 1 1.85c1.04-.34.87-.5 1.5-1.24 5.62-6.51 13.3-2.13 13.42-2.14l.93-.41c-.16-1.06-.89.43-.66-2.22.82-.16 1.52 1.25 2.43 2.56l1.47-.06c.46-1.03-.11-.42.72-2.2 1.01-2.17-1.96-2.98-3.3-4.17l-2.34-1.89c-.83.13-.65.26-1.53.1l-.23-.06-.23-.07c-2.1-.55-2.17-.37-3.7-.95l-1.02 1.03zM590.9 325.18l.82.09c.54-1.79.55-.48-.06-2.41-.6-1.92-.62-1.83-.22-2.5l1.51 2.77.78-1.12-1.98-2.2c.49-2.18.35-3.9 1.11-5.07.55-.85.46-.75 1.45-1-1.53 3.56-.64 1.57-1 4.1-.24 1.73-.22 2.53 1.5 3 1.28.34.7.12 1.6-.12 1.25-.34 1.08.08 2.24-.19 1.46-.33.4-.44 1.56-.9.85-.34.9-.02 1.79-.54l.04-1.63c-.47-.48-.51-1.86-.82-2.53-.28-.63-2.4-2.39-3.08-2.63-1.9-.67-2.48.11-4.26.87-1.49-.83-1.84-1.15-2.53-2.75-.82-1.91-1-1.5-1.87-2.18-1.3-1.03-2.23-1.8-4.81-1.63-1.8.12-2.28 1.01-3.23 2.1.7.14 3.85 0 5.56 1.21.57.4.56.8 1.04 1.38 1.51 1.8.96.32 1.83 3.03l1.42 3.17c-.43-.18-.54-.53-.9-.96l-1.39-1c-.02-1.4.17-1.3-.39-2.38l-.5-.9c-.4-.43.35-.36-1.28-.24l1.27 2.58-1.26.03c0 1.1.97 2.3 1.9 4.3.19-.3.33.66.02-1.54l-.2-1.78c2.6 4.35.57 5.3 2.35 9.57zM582.55 288.9c-.21 1.98.95 3.29 1.58 3.6 1.54.12.9-.08 1.81-.37.62-.2 1.26-.13 1.89-.12l4.06-.3c.72.55 1.31.5 2.51.7l.15 1.54c2.22.7 2.84 3.65 3.6 4.48l.3.25c-.8 1.35.15 1.45.69 2.62.34.75.58 1.83 1 2.78.2.48.8 5.66.97 6.84 2.33-.78 1.07-1.36 1.53-4.8.23-1.74-.59-4.16-.92-6.08-.5-2.94-.36-5.4-1.8-7.4-.9-1.26-1.19-2.36-3.35-2.39-.36-2.12-1.67-2.23-4.02-3.17l-.57 1.27c-.03-.05-.07-.21-.08-.17-.01.04-.07-.14-.09-.17-1.35-1.91-4.55-.74-6.89-.19-1.75.42-.25.05-1.07.59-.47.3-.75.25-1.3.5zM376.01 348.04c-.01-1.2-.33-1.59-1.5-1.52-.62.03-.66.15-1.37.02-1.1-.21-.72-.16-1.21-.6-.95-.08-1.97.28-3.14.23-2.92 4.46-1.2 1.76-4.26 2.8-1.37.45-.41.38-1.82.88l-1 .4-.19.1c-1.24.61-1.39 1.67-3.2 3.89l.86 2.44c-.7 1.06-1.19.58-1.3 1.9-.84 3.96-1.41.84.4 5 .75 1.7-.55.93-.21 2.62l3.3 4.6c.56-.31 1.09-1 2.94-2.13-.66-2.96-1.08-6.8-.34-9.92.3-1.3 1.18-2.93 1.81-3.89 1.12-1.69 1.64-1.93 2.62-3.14-1.86.53-1.24.92-2.52 2.16-1.63 1.57-.7 0-1.58 1.94-.71 1.56-1.03 1.33-1.28 4.4l-.84 4.15c-1.03-.37-.86-.6-1.6-2.87l1.6-.22c-.56-3.44-.49-2.16-.2-5.7l2.03-1.68c1.6-1.44 1.93-2.39 2.54-4 3.96-.56 3.85-1.88 7-1.6 1.38.14 1.54.45 2.46-.26zM334.2 329.26c0 1.49.22 1.02-.32 2.08-1.71 3.4.6 1.06-2.1 5.66l2.93.05-.4-1.81 1.3-.46c1.79-4.83 1.55-.9 1.91-4.7l2.03.48-.03-1.71.98.35.54-.9c1.22.5.83.26 3.52-1.77 1.57.85 1.09 1 3.8-1.33l1.08.83c.97-.38.37-.46 1.16-.7 2.32-.35 2.04.1 3.17 1.09l.82-1.22 1.65 1.31 1.69-.73c-.1-.94-.22-.96-.72-1.53-2.1-2.4-4.14-.43-7.2-2.04-.88-.46-4.16-1.16-5.23-.79-.59.2-.43.45-1.45.64-1.24.24-.82-.24-2.05.43-1.03.55-.08.29-1.58.6-1.4.3-.93.23-1.88 1.1l-.15.13c-2.53 2.25-.17 1.64-1.98 3.96-.67.86-.32.66-1.49.98zM615.6 290.8l1.03-.03c4.01-1.46 2.94-1.54 8.15-2.12 3.6-.4 5.77.48 9.1 1.42-.2-1.78.07-1.11-1.38-1.55l-1.34-1.36c1.74-.46.18.11 1.01.17 1.51.1-.7-1.26 3.37.53l-.82 1.34 1.76 1.58 1.09-.92a6.15 6.15 0 00-1.1-4.24c-.95-1.46-1.6-1.57-3.55-1.85-2.12-.31-2.28-1.02-3.79-1.67-1.38-.6-.7.05-2.1-.02-.43-.02-1.7-.39-1.98-.42-1.02.57-.3.42-1.16.67-1.01.3.2-.26-.8.12-.57.21-.25.27-.82.43-.61.16-.65.04-1.29.1-2.4.21-2.98.89-3.52 2.13l-1.96-.37.23 1.9c-4.1 1.52-3.02 1-2.92 2.63.1 1.8-.07-.26-.29 1.53 2.34-.9 1.69-.28 2.43-2.67l1.97.06.3-.31.13-.15 1.73.03c2.31-1.77 1.5-1.31 3.53-1.35l.81-1.05.68.72c.34.35.32.35.68.63l1.08-1.32 1.6.15.17.05c.45.16.2.19.9.67.31.2.5.28.8.42l1.9-1.5c-.13 1.2 0 1.25-.46 1.57l-.18.12-.5.34c-1.6.91-2.03-.03-3.42-.39l-1.03.98c-5.64-.8-3.19-.24-5.45.88-1.38.69-1.56-.38-2.95.3-1 .48-1.43.8-1.64 1.82zM366.79 339.32l-.35-.27c-.98-.7-.77-1.75-1.67-2.3l-2.87.44-7.61-.27c-1.46 2.6.44-.44-2.41 2.7-3.84 4.22-1.78.9-4.88 3.77-1.11 1.04-.65.81-1.12 1.34l-1.22 1.1.99 2.45c-.73.65-1.8.95-2.73 1.27-.05 4.77-1.59 2.29 1.64 6.45l.97-1.07c.98-1.04.27.07.65-1.2l.05-.2c.55-1.77 1.17-2.76 1.46-4.2.36-1.83.1-.41.7-1.33.64-.99-.36-.03 1.52-2.39l2.1-.2c.3-.77.14-.99.29-1.39.5-1.38-.08-.28 1.08-.75l1.74-2.03c.24 0 .87 0 1.06-.06.94-.26.34-.46 1.4-.82 2.36-.82 1.7.41 3.66-1.6.08.02.18.02.22.12.04.11.34.2.41.23.6.24.05.13.81.19l3.49.47c1.13-.22.2.1.62-.45zM602.78 317.11c.66 1.5 1.08.54 1.94.06 1.65.74.87.52 2.11.58.9.05-.25.22.8.03.78-.13-.3-.07 1.46-.34.77-.11.26-.04 1.05-.5 2.41.98 2.82 1.44 5.01.85l1.42 2.92c.64.93.06-.4.66.88.83.29 2.33 2.17 2.37 2.32l.2 4.31 3.28-.29c.11-4.4-.54-4.35-1.5-6-.48-.84-1.36-2.52-1.34-3.39-1.3-1.18-1.1-1.38-1.95-2.26-.9-.92-1.45-.8-2.25-1.81-1.51-1.94-3.24-1.62-5.96-1.71l-.75 1.33c-2.07-.4-.9-1.1-3.23.34-.98.6-1.1.34-1.76.68-.51.25.05.18-1.58.92l.02 1.08zM619.2 259.1l.71.42.6-.33c.79-1.73 4.07-3.64 6.97-3.86l8.4 2.51 2.38-1.4c.28-1.99-1.25-3.15-2.52-4.75-1.74-2.2-4.3-.86-5.2-1.04-1.16-.24-.6-.7-2.53-.35-1.18.21-1.29.5-2.75.45-2.04-.06-3.09 1.59-4.27 2.92l2.14.12.74 1.74-2.8 1.32.18-1.5c-1.47.01-1.56.22-2.15 1.33-.7 1.3-.4.05-.75 2.13l.86.29zM596.32 331.05c-1.89-.06-1.23-.18-2.15.72-1.28 1.25-.24-.76-1.67.7-1.13.73-.58-.12-1.72 1.06-.66.68-.96.96-1.02 2.28 1.6.04.6.16 1.53-.42.71-.44-.18 0 .73-.4l1.7-.43h.18c1.44-.09.18-.47 1.88.06.57-.82.75-1.08 1.97-.77.86.22 1.6.34 2.21.77l.16.13c.66.5-.29.2.57.4 1.08.05 1.84-.65 2.82 2.1l2.3.2c-.3 4.37 1.05.4.13 7.03-.07.04-.18 0-.22.1-.13.38.05-.04-.86.44l3.54 1.24c.27-.97.13-2.13.38-3.12.37-1.49.88-1 .09-2.77-1-2.23.07-3.16-1.21-5.58-.74-1.39-4.53-3.2-5.65-3.39-2.73-.45-.61-1.92-3.8 0-1.09-.35-.5-.43-1.9-.35zM368.4 333.11c.37.38-.04.23.35 0 .37-.23.03-.04.5-.49.44-.43.72-.6 1.15-.9l1.95-3.9c-.62 1.37-1.53 1.52-2.15 2.46l-.73 1.2-.6-1.63c.87-1.74.75-1.38 1.62-2l.16-.1.28-.26c1.24-1.17 1.05-1.23 1.43-2.91.17-.04.66-.09.68-.1.83-.22.2.1.76-.33.93-.73 2.35-2.7 3.7-2.75.43-.02.14.06.56-.05.83-.21-.05-.16 1.2-.46.89-.2.5.05 1.31-.32 1.12-.5-.18-.3 1.25-.33 1.25-.01.35-.03 1.14-.2 1.14-.25.06-.18 1.19.28l2.58-.14-.3 1.14c-6.5-.63-2.08.36-5.27.5-1.2.04-1.14-.15-2.37.23-1.47.46-.49.08-2.27 1.83-.33.33-.4.45-.74.8 1.8-.7 1.45-1.71 6.3-2.25l7.76-.67c.04-.04.44-.2.37-1-.23-3-5.81-4.33-10.08-3.05-.83.25-.63.41-1.2.7-.76.37-1.8-.02-2.58.44l-2.85 3.38s-2.9.57-4.35 3.25c-.5.94-1.19 1.25-1.2 2.47-.03 1.66.7.7-.85 2.44.62 1.22.41 1.5 1.3 2.72z" fill="#edb200" fill-rule="evenodd"/><path d="M414.1 372.98c.78.57.38.3.87 1.06l3.02-.1c-.3-1.58-.89-2.23-.93-4.25-.08-3.75 1.42-9.13 1.43-13.57 0-2.24-.34-2.39-1.42-3.66-1.66-1.95-2.72-4.83-2.17-7.55.4-1.98.77-1.35.84-3.85l-1.07 15.84c-.32 2.75-.91 5.5-1.22 8.21-.81 7.26.59 5.24.65 7.87z" fill="#396f4a" fill-rule="evenodd"/><path d="M377.6 330.4l-1.6-.21c-1.7 2.3-2.05 1.93-2.57 3.88-.46 1.67-.06 1.26-.17 2.52-.1 1.1-.29.24-.32 3.07l1.67.23c-.18-3.37-.46-1.56 1.5-3.43 1.94-1.85 1.59-2.12 1.5-3.94 1.28.14 1.31.45 2.55.2l2.61-.68c1.81 1.68.98 2.7 4.5 2.25l.43 1.55c-2.36-.21-1.38-.6-2.85-.22 1.9 1.28 3.5 1.06 5.86 1.11.54-3.85-1.86-4.74-4.09-6.4-1.8-1.34-1.92-.72-4.1-.87l-4.16-.68-.77 1.61zM605.83 302.75l.08.48c.61-.27.44-.14 1.01-.7l.93-1.06c.04-1.12.8-2.12 1.43-2.83l-.26-3.88-.84-5.75c-.24-.67-.59-.7-.97-1.2-1.33-1.8.33-2.03-5.99-2.13l-.61 1.43c3.51 1.3 2.26 1.48 3.9 2.8l.54.37c-.01 1.56-.43 1.3-.67 2.6l1.1 2.01c-.18 1.26-.53.47-.27 1.67.61 2.85.08 2.62.66 4.24.23.64.54 1.36-.04 1.95z" fill="#edb200" fill-rule="evenodd"/><path d="M342.17 297.8l-1.96.57 1.04 1.13c-1.17 1.16-2.19 1.8-3.49 2.7l7.57-.24c-.85.32-2.48.03-3.63.35l-2.75 1.62.8.42a8.9 8.9 0 007-2.13c1.27-1.06 1.66-.88 2.4-1.94 2.09-3.01 3.53-2.65 4.69-6.3-.27.24-.19.14-.46.49l-.36.49c-.64.76-1.96 1.23-3.31 1.93-.38-.88.44-.25-.74-2.51-.22 1.62-.55 1.41-1.22 2.64.64 1.49.5 2.01.17 3.69-1.9-4.67-1.74-3.97-3.05-8.56-.46-1.6-.23-1.78.62-2.63-1.72-.52-1.49-.33-3.46-.24 2.19 2.68 1.76 4.32 2.35 6.04l2.37 6.48c-1.54-.35-.84-.78-2.66-1.85-1.68-.99-.57-.65-1.28-1.51-.32-.38-.07.33-.64-.63z" fill="#396d4b" fill-rule="evenodd"/><path d="M399.15 364.11c-.29-7.1 3.52-9.49 3.26-11.36l-.85-4.53c-.63.34-.22.05-.9.62-3.5 2.96-6.09 7.73-4.93 12.56a3.9 3.9 0 001.17 2.02c.82.9.71.78 2.25.7z" fill="#396f4a" fill-rule="evenodd"/><path d="M525.81 350.21l-2.42 4c-2.54 4.32-4.28 14.48-3.47 15.44.48.56 2.93-1.53 3.7-2.2 1.9-1.64.75-7.19 1.23-11.85.2-1.82.73-3.5.96-5.39zM614.42 281.28c.2.93-.2.77-2.1 2.33-.05-.04-.24-.2-.44-.47-.7-1-.33-1.17-1.02-2.04l-.54 3.06-1.32.4 1.14-.05c.36.6.43.54.4 1.1-.04.98-.71 2.12-.74 2.53-.08 1.06.54-.25.08 1.07-.5 1.4-.53-.77-.37 2.93l-.49 2.62.26 3.88c.84-1.14 1.2-4.12 6.26-7.02l1.09-.85-1.03.03c-.85.51-1.93 1.06-2.71 1.69-.98.78-1.1 1.42-2.23 1.83l2.88-9.59c.54-.98 5.81-3.08 6.9-5.24l-3.06 1.3.14-1.58-.3.54a1.65 1.65 0 01-.95.95c-.58.3-1.24.45-1.85.58z" fill="#396d4b" fill-rule="evenodd"/><path d="M619.15 261.24c.03.5-.08.38-.73.98l-1.71 1.02-.3 1.03c.06.04.14.03.17.11l.33.21c3.33 1.82 1.31-1.2 5.7 1.83l.87-.48c1.37-.85 1.52-.68 3.5-1.07.17-.97.71-1.2.33-2.32-.86-2.53-5.58-2.94-6.84-2.86-.86.21-1.15.54-1.32 1.55z" fill="#edb200" fill-rule="evenodd"/><path d="M570.56 352.33c2.86-.27 1.83-7.69 1.75-9.36l1.08 6.32c3.32-1.35-.17-12.38-.86-14.96-1.82 1.7-2.44 6.54-2.16 8.78.18 1.48.88 2.76.9 4.35.04 2.36-.41 2.86-.7 4.87z" fill="#396d4b" fill-rule="evenodd"/><path d="M534.61 358.5l4.05-1.73c.37-.26.58-.45.92-.74.32-.26.18-.1.45-.38l.45-.63c.65-.93.94-.93 1.45-2.33l2.82-11.4c-.53.34-1.97 3.4-2.44 4.2-1.85 3.14-7.45 10.2-7.7 13.02z" fill="#396f4a" fill-rule="evenodd"/><path d="M609 284.56l1.32-.4.54-3.06-1.18-3.12c-1.7-.44.1.12-2.15.74l-1.7.66c.4.37-.24.34 1.37.35l.02 1.28 1.16.18c.04 2.17.55 3.05-1.55.75l-1.83-1.68c.03-1.32.02-1.32.75-1.96l1.65-1.3c-.64-1.33-3.98-1.58-4.03-1.58l-4.13 2.67 2.8.3-1.26 1.76c5.23 1.49 3.18-.37 7.93 5.14.41-.52.07.1.3-.73z" fill="#edb200" fill-rule="evenodd"/><path d="M454.26 402.31c-.85 4.56-3.19 9.78-4.93 14.36 2.08-3.4 3.51-4.66 5.87-7.62 1.8-2.24 3.4-5.23 4.1-8.12.48-1.95.16-1.11-.29-1.38-.44.56-3.89 2.65-4.75 2.76z" fill="#396f4a" fill-rule="evenodd"/><path d="M337.27 265.84c.42 1.01-.52-.01 1.78 1.43-5.57 2.78-2.14 1.45-3.76 3.44-.05.07-.24.2-.3.25l-.14.13c-1.9 1.9-.18 1.4-3.32 3.47l-3.53-1.52-1.33.58-1.13-.9-.76 1.03c-.57.01-.52-.04-.73-.05l-.67.02c-.62 1.01.08 1.63 1.13 1.6 1.8-.07-.2-.78 2.44-.53.88.08 2.25-.06 3 .27.66.3.15.36 2.15 1.35 1.76-1.6 1.81-2.26 3.12-4.74l1.16-.36c.26-3.08.19-1.12 2.32-2.04 1.98-.86.52-1.06 3.72-.33-.06-2.02-.71-1.09-1.83-2.05l-2.29-1.69-1.03.64z" fill="#006" fill-rule="evenodd"/><path d="M450.16 370.13c.94-3.03-1.07-11.7-1.64-15.21-1.66 1.7-1.24 5.84-1.26 8.54-.03 2.54-.45 1.78.7 3.9.5.92 1.6 2.27 2.2 2.77z" fill="#396d4b" fill-rule="evenodd"/><path d="M603.64 324.36c.13-1.24 6.13-2.18 7.7 2.12.38 1.02 0 .94.51 1.7l1.2.76c.48-.8.86-1.24.83-2.06a6.64 6.64 0 00-1-2.47c-2.45-2.92-1.56-2.53-4.1-3.04-2.5 0-2.27.54-4.33.58-2.25.04-1.72.43-1.9.6-.94.86-1.07.66-1.38.9l2.47.91z" fill="#edb200" fill-rule="evenodd"/><path d="M363.88 318.26c-.7 3.21-.73.7-1.2 2.91-.45 2.08-.94.86.3 2.88.34-.53.74-3.68 2.3-4.92.83-.65.47.03 1.66-.81.98-.69.95-.41 3.56-.17-1 .4-4.44 1.37-4.79 2.25l-.08.2-.7 2.3c2.85-3.18.67-2.37 7.82-3.87.49-3.2-2.94-4.04-5.15-2.72-1.02.6-.47.17-1.38.43-1.52.44-.23 0-1.14.84-.44.4-.73.41-1.2.68z" fill="#eab002" fill-rule="evenodd"/><path d="M498.84 405.49c.82.09 1.54.29 2.37.33.15.01.98 0 1.1-.03 1.31-.35.6.13.86-.75-.89-.09-1.09-.33-1.54-1.1a33.7 33.7 0 01-.91-1.69l-5.74-1.96c-1.76-.8-3.2-2.75-4.23-2.88 2.18 5.2 5.88 4.79 8.1 8.08z" fill="#396d4b" fill-rule="evenodd"/><path d="M363.48 277.25c-2.25.44-1.18.66-2.11.68-3 .07-1.62-.55-4.07 1.17l-.2 1.7c-.07.04-.18 0-.21.1-.06.15-1.7.51-2.37 1.98-.23.5.36.5-.69 1.16-.05.04-.13.07-.18.1l-.35.18-.17 1.63c-.38.19-.52.15-.7.24-1.15.58.18.4-2.2.54.2.9.5 1.1.5 1.91.01.87-.56.1.43 1.66.83-1.05.29-1.06.92-2.24.3-.55 2.98-3.04 3.47-3.6.77-.86 2.5-3.92 5-5.28l4.77-2.18-1.3-1.11-.54 1.36z" fill="#006" fill-rule="evenodd"/><path d="M578.67 334.98c1.4-5.85-1.8-3.88-5.58-6.84l-2.46-2.1c.86 4.93 4.94 6.33 6.92 7.95.81.66.33.55 1.12 1z" fill="#396d4b" fill-rule="evenodd"/><path d="M444.17 383.64c-1.85-3.79-1.85-1.86-.7-7.84.14.27.16.09.2.67.04.78-.28 1.32-.36 1.98-.35 2.6 1.58 3.43 4.16 5.52-.8-.57-1.83-1.18-2.2-1.99-.26-2.28 2.06-2.4-.64-5.59-1.02-1.2-.62-.57-1.29-2.23-.5.16-.81-.36-1.56 1.95-.3.9-.25 2.1-.2 3.07.1 1.8.63 4.16 2.59 4.46z" fill="#396d4c" fill-rule="evenodd"/><path d="M591.55 336.77c.23.37-.3.28.74.41 3.95-.67 10.53-.38 11.87 4.09l.34 1.28.07.23.15.43c.25-.23.33.13.55-.92.2-.96-.32-2.34-.6-3.39-1.6-.6-2.24-1.19-3.34-2.14-1.1-.97-1.77-1.04-3.65-1.96-4.1 1.6-3.55.33-5.14.98-1.24.52-.03.14-.99.99z" fill="#edb200" fill-rule="evenodd"/><path d="M330.62 320.77l1.09-3.76c.4-1.37.7-1.84 2.43-2.75 7.44-3.93 4.32-3.56 13.49-2.76-.32-.59.05-.2-.38-.59a3.7 3.7 0 00-2.03-.66c-1.4-.09-.53-.14-1.22-.24-.37-.05-1.26.1-1.8.13-1.76.09.13-.59-1.87.01l-2.26.76c-.51.25-.86.51-1.45.75-1.56.63-2.9 1.09-3.9 2.07-.43.42-.65 1.32-1.26 2.2-.83 1.22-2.12 3.52-.84 4.84z" fill="#006" fill-rule="evenodd"/><path d="M476.46 390.28c.85.74 2.74 1.27 4.66 2.47l4.33 2.82-.16-3.24c-3.5-1.5-5.97-4.49-8.83-2.05z" fill="#396d4b" fill-rule="evenodd"/><path d="M594.01 264.97c6.87-.88 10.05 2 13.02 7.83 1.6 3.16.35 1.59 2.78 4.22-.5-2.33-.7-3.12-2.35-4.34-.29-2.78-.08-.15-1.08-2.97-.35-.97.16-.1-.66-1.02-3-3.35-1.72-1-3.1-2.84-1-1.33-1.45-2.23-3.35-1.91-2.21.36-4.13-.54-5.26 1.03z" fill="#e9ae03" fill-rule="evenodd"/><path d="M320.17 292.98c1.3.72 5.16-1.11 6.66-1.4l6.4 2.02c.05-.62.23-.97-.17-1.51-.54-.72-2.23-.89-2.73-.99l-1.02-.2-.16-.04-2.2-.72a6.22 6.22 0 01-2.87 1.1l-2.72.45c-.93.2-1.76-.24-1.19 1.29z" fill="#006" fill-rule="evenodd"/><path d="M595.24 330.28c.54-.54 1.87-.79 2.76-1.74 1.22-1.3.85-1.31 2.43-1.95l.49-.19-1.02-.07-.01-.74c-1.47.29.24-.16-2.06 1.43-.84.59-1.48.82-2.39 1.11-.8.27-2.15.48-2.72.82-.88.51-1.06 1.07-2.1 1.45l1.1-5.13-.81-.08-.94 6.13c.87-.4.57-.72 1.95-1 .83-.17 2.3-.05 3.32-.04z" fill="#386a4e" fill-rule="evenodd"/><path d="M595.78 322.88c-.8-.56-.01-.23-.8-.57-.26.45-.25 1.92-.67 2.81l-1.51 2.9c1.47-.46.48-.51 1.37-1.11.7-.48 1.5-.21 2.4-.36l2.53-2.8-2.42.87c.45-2.25 4.48-2.2 6.24-3.99-.9-.4-2.42.42-3.6 1.1-1.98 1.14-.3.06-3.54 1.15z" fill="#396d4c" fill-rule="evenodd"/><path d="M591.9 294.9c1.09 2.58 4.2.13 8 16.06-.08-.7-.32-1.72-.4-2.27-.18-1.1.08-2.08-.07-3.12-.24-1.74-1.24-3.05-1.74-4.46-2-5.59-.31-1.6-2.83-5.03-1.17-1.6-.52-.84-2.28-2.45-.3.45-.47.6-.68 1.26z" fill="#e4ac05" fill-rule="evenodd"/><path d="M536.55 375.65c1.3.66 4.63-1.44 10.44-.47l10 2.1c-.55-.71-3.56-1.44-4.48-1.73-4.13-1.26-6.8-1.82-11.16-1.38-.99.1-4.18.98-4.8 1.48z" fill="#006" fill-rule="evenodd"/><path d="M361.19 315.93l-.05.4.47-.4c.62-2.82 2.18-5.74 4.32-7 3.49-2.04 5.43-.82 8.95.35-.37-.81-.63-.82-1.61-1.36-5.23-2.86-6.7.16-8.7 1.55-.58.4-1.48.62-1.95 1.32-.33.48-1.2 4.27-1.43 5.14z" fill="#e6ad05" fill-rule="evenodd"/><path d="M615.5 258.82l-.47 2.85 1.64.32c1.57-1.86.36-.2.9-4.74.2-1.6.24-.77-.6-2.95 1.93-.32 1.37 1.55 2.06-1.03-1.7.47-1.67.62-2.8-.35l.42 6.55c-.66-.18-.56-.2-1.14-.65z" fill="#386a4e" fill-rule="evenodd"/><path d="M504.19 384.89c1.31-.36 3.42-2.25 4.58-3.03 1.5-1.02 3-1.88 4.85-2.73l9.65-5.7c-.8.33-.62.29-1.3.77-1.9 1.32-6.77 3.04-9.07 4.2-2.33 1.18-7.9 4.82-8.71 6.49zM333.73 294.08c1.42.19 2.88.6 4.26 1.16 1.46.59 2.37 1.79 3.91 1.28.07-1.04-1.67-1.83-2.49-2.2a7.3 7.3 0 01-.87-.44c-1.18-.76.1-.6-2.92-.6-.3-.4-.1-.08-.32-.55l-.22-.52a8.83 8.83 0 00-1.35 1.87zM483.09 385.2c2.8-1.04 2.5-4.35 8.66-8.44l3.07-2.33c-.99.41-2.51 1.06-3.72 1.68a11.03 11.03 0 00-3.07 2.63c-.96 1.08-4.59 5.38-4.94 6.47z" fill="#006" fill-rule="evenodd"/><path d="M605.91 303.23l-.08-.48c-.76-.43-.82-.48-1.02-1.42-.67-.52-.42-.43-.83-1-.65.16-1.04-.2-.54 1.75l.38 4.73c-.04 1.57-.15.99.36 2.46 1.94-.45.55-1.4-.12-5.4-.22-1.27-.26-1.05.12-1.94l.94 2.3c.64 1.63.04 1.25 1.08 2.65.03-2.05-.88-2.03-.29-3.65z" fill="#386a4e" fill-rule="evenodd"/><path d="M609.06 320.25c1.3.19 3.4.18 4.34.94.82-.1.9.73.83-.79-.06-1-1.11-.75-3.55-1.42-.83-.23-4.19.18-5.2.57.42.82-.02.53 1.35.64.67.06 1.51.05 2.23.06zM608.25 306.06c-.1.79.35.48 1.15.41 4.35-1.73.66-1.68 7.96-1.38-1.42-2.9-3.33-1.37-4.35-1.17-1.7.33-1.76.2-3.26 1.12l-.34.2c-.66.46-.45.6-1.16.82z" fill="#eab002" fill-rule="evenodd"/><path d="M334.63 260.47l.32.2c.05.01.14.06.2.07 2.12.54 1.79.4 4.18 1.74l1.68.76c0-5.14-5.51-3.58-6.38-2.77z" fill="#edb200" fill-rule="evenodd"/><path d="M359.47 293.8a8.46 8.46 0 00-2.48 3.17l-.4.72c-.8 1.43-.24.75-2.24 2.28l1 2.12c1.02-.98 1.5-3.41 2.64-4.89.4-.5 1.97-3.16 2-3.7l-.25-1.42c-.2.4-.1-.28-.24.66-.05.32-.03.73-.03 1.07zM357.46 309.52c.23 1.08.58 2.05.23 2.8-.25.57-.85.45-.49 1.88l.37.84c1.5-.51.26.06 1.59-3.13.4-.96.15-1.63.73-3.89-1.9-.12-1.4.47-1.8 1l-.27.28-.17.12-.2.1zM493.2 385.55c.23.16-.55 1.2 2-.45.73-.47 1.17-.86 1.87-1.39 3.41-2.57 6.22-6.78 9.01-10.26-1.44.73-4.87 5.13-6 6.5-1.66 2-4.8 4.68-6.88 5.6z" fill="#006" fill-rule="evenodd"/><path d="M602.44 324.91c-1.44-.15-1.62-.32-2.55.68l.01.74 1.02.07c2.76-1.8 6.9-.07 9.32.72-.36-1.76.01-.4-3.76-2.8-.56.17-2.09.92-3.17.95-1.32.04-.78-.21-.87-.36zM606.9 254.25c-.24-.37 0-.1-.37-.46-.91-.88-.42-.22-1.27-1.69-2.5.65-1.93-.61-5.02.07-2.4.52-1.14.04-4.25.99.65.3 4.35-.18 5.75-.12 2.43.12 3.52.95 5.16 1.2z" fill="#e6ad05" fill-rule="evenodd"/><path d="M574.95 378.4l7.33-.43c1.31-.07 1.32.1 2.38-.48-4.19 0-2.95-.3-5.27-.95-1-.28-.23-.3-1.28.1l-1.18.52c-1.05.38-1.35.47-1.98 1.24z" fill="#386a4e" fill-rule="evenodd"/><path d="M340.34 331.58l-1.76.15c-.49 1.08-2.14 3.42-2.91 4.6a9.43 9.43 0 001.97-1.75c1.01-1.12 1.27-1.05 2.2-1.86 1.82-1.58 2.58-1.8 4.46-3.41-.93-.61-1.1-.1-2.18.55-1.92 1.12-.66.6-1.78 1.72z" fill="#eab002" fill-rule="evenodd"/><path d="M404.95 346.86c.64-2.6.85-6.46-.1-8.81-.23 1.6-.38 3.55-.75 5-.4 1.64-.37 2.8.85 3.81z" fill="#386a4e" fill-rule="evenodd"/><path d="M351.6 327.96c1.99.06 2.71-.05 3.94-.92-.04-.01-6.66-.32-7.96.41-1.6.9-1.03.3-2.27 1.04.78.38 4.22-.5 6.3-.53z" fill="#e9ae03" fill-rule="evenodd"/><path d="M575.94 320.08c0-2.31.23-1.52-.93-3.3l-4.21.04c.8 1.03 1.29 1.12 2.5 1.64 1.17.52 1.63 1.12 2.64 1.62z" fill="#eab002" fill-rule="evenodd"/><path d="M521 408.58c-1.3-.53-1.44-1.48-2.31-2.19-.72-.58-2.06-.9-3.2-1.16l-.85.25c1.15.5 2.9 1.86 4.24 2.62 2.32 1.3 1.66.91 3.7 3.02-.6-1.4-1.1-1.22-1.57-2.54zM603.81 311.25c5.03-.97 4.08-.73 7.77-3.45-1.5.41-2.41 1.2-3.98 1.56-1.59.37-3.3.23-3.79 1.89z" fill="#386a4e" fill-rule="evenodd"/><path d="M513.53 383.5l10 4.45c-.9-.17-3.49-2.3-4.4-2.86-1.02-.6-4.38-2.44-5.6-1.59z" fill="#006" fill-rule="evenodd"/><path d="M558.15 338.23c1.03-1.26 2.06-3.3 1.55-4.85l-.78-1.32c-.5 1.1-.9 4.96-.77 6.17z" fill="#386a4e" fill-rule="evenodd"/><path d="M618.22 305.63c.47 1.24 1.46 1.85 1.77 2.92.1.38.23 1.91.23 2.33-.01 1.41-.37 1 .22 2.27 1.02-.53.79-.23.45-1.6-.27-1.1-.13-1.17-.16-2.3l-1.1-3.79-1.4.17z" fill="#e6ad05" fill-rule="evenodd"/><path d="M352.89 345.64c3.2-1.7.38-.98 6.51-3.5-1.67-.63-.93-.63-2.93.16-1.38.55-.15-.05-1.2.97-1 .99-1.95.63-2.38 2.37z" fill="#ce9b0e" fill-rule="evenodd"/><path d="M616.64 321.65c-.49-.2-.45-.34-1.08-.3-1.4.1-.6.1-.88.54 2.35.71 3.1 3.23 4.3 5.7.3-1.9-.2-1.87-.8-3.28l-1.54-2.66z" fill="#e4ac05" fill-rule="evenodd"/><path d="M599.1 350.76l1.42 5.3 1.12-2.64c-.6-.6-.86-.75-1.3-1.32-.32-.42-.59-.96-1.24-1.34z" fill="#ce9b0e" fill-rule="evenodd"/><path d="M339.69 245.53a4.96 4.96 0 001.9-1.26l-.09-2.15c-1.68.23-2 1.49-1.81 3.4zM335.62 251.54l1.72-1.01-.09-2.78c-1.62.63-1.78 1.6-1.63 3.79z" fill="#006" fill-rule="evenodd"/><path d="M377.94 336c1.85-1.81 3.2-1.6 6.34-1.07l-1.78-1.42c-2.67.24-3.68.4-4.56 2.48z" fill="#dea90a" fill-rule="evenodd"/><path d="M348.1 352.35l3.46-5.07c-1.52.28-1.94.45-2.44 1.72s-.92 1.87-1.03 3.35z" fill="#dba50b" fill-rule="evenodd"/><path d="M627.82 253.43l-.2.81c.51.26 3.18-.2 4.4-.3l-1.28-1.38c-.93.3-.6.35-1.29.67-1 .48-.38.18-1.63.2zM341.13 252.52c.6-.13.33-.23 1.7-1.13l1.54-1.5-.35-1.94c-.04.06-.1.08-.11.2-.02.13-.15.34-.18.4-.97 2.57-1.72 1.22-2.6 3.97zM330.7 257.58c-.34-.83-.83-1.45-1.25-2.04-.77.03-2.72.34-1.45 1.37l2.7.67z" fill="#006" fill-rule="evenodd"/><path d="M585.63 293.53l.44.23 3.12.37-.03-1.55c-1.46.68-2.62-.24-3.53.95z" fill="#eab002" fill-rule="evenodd"/><path d="M636.12 272.13c-.38-.93-2.05-2.16-3.1-2.86-.12.75-.49.33 1 2.01.61.7.97 1.18 2.1.85zM355.86 312.5l-.88.82c.78.43 1.22.04 1.81-.28l-.02-2.2h-1.67c.48 1.1.6.42.76 1.67z" fill="#006" fill-rule="evenodd"/><path d="M603.98 300.33c.4.57.16.48.83 1-.68-2.76-.28-2.9-.48-4.44-.1-.72-.13-.58-.7-1.35-.06.12-.47-.08-.24 1.18.09.5.31.57.42.96.24.8.15 1.8.17 2.65z" fill="#b48c24" fill-rule="evenodd"/><path fill="#386a4e" fill-rule="evenodd" d="M383.04 378.86l-4.7 2.99 5.65-2.28z"/><path d="M444.35 402.13c-.17.41-.37.95-.57 1.53.4 1.01-.26.15.71.53.5-.84 1.12-1.8 1.05-3.5-.85.54-.92.98-1.19 1.44z" fill="#396f4a" fill-rule="evenodd"/><path d="M329.18 323.88c.06-.06.14-.25.18-.2.03.06.12-.13.16-.17.51-.48.36-.33 1.23-.71l-.05-1.15c-.4-.51-.16-.36-.77-.58l-.9 1.4c-.02.05-.1.21-.12.17-.01-.04-.08.1-.12.16l.39 1.08zM353.55 306.33c.2.82.45.9.59 1.7.23 1.31-.3.23.45 2.3.25-.28.32.25.44-1.06a9.36 9.36 0 00-.07-1.38c-.17-.97-.4-1.44-1.41-1.56z" fill="#006" fill-rule="evenodd"/><path d="M609.4 306.47c-.8.07-1.25.38-1.15-.4-.06.06-.15.06-.18.18-.25 1.02-.15.13-.33.35l-.45.62-1.08 1.36c1.04.11 1.1.17 2.8-1.55.36-.38.07-.05.38-.56z" fill="#386a4e" fill-rule="evenodd"/><path d="M629.22 269.51c1.65-.07 2.08-.45 3.37-1.18l-.77-.8c-1 .31-.37.28-1.27.88-1.07.73-.47-.08-1.33 1.1z" fill="#006" fill-rule="evenodd"/><path d="M589.78 294.08l.5-.26c.04.05.1.07.12.16.02.1.1.13.13.16l.48.52.67-1.85-1.6-.4c-.37.48-.55.53-.3 1.67z" fill="#e9ae03" fill-rule="evenodd"/><path d="M603.07 292.67l.46-1.85c-1.17-.67-.26.3-2.02-1.61.26 1.09.8 2.93 1.56 3.46z" fill="#e6ad05" fill-rule="evenodd"/><path d="M375.78 324.68c-2.36.1-2.3.7-2.93 2.6 1.1-.57.56-.27 1.34-1.13.49-.53 1.07-.96 1.6-1.47z" fill="#dea90a" fill-rule="evenodd"/><path d="M504.26 404.78c.03-.76.3-.72-.67-1.73l-.58-.59-.64.28c.45 1.13.79 1.77 1.89 2.04z" fill="#396f4a" fill-rule="evenodd"/><path d="M624.48 255.31c1.14-.29 1.87-.28 2.53-1.43l-1.15-.42c-.4.37-1.1 1.27-1.38 1.85z" fill="#006" fill-rule="evenodd"/><path d="M375.86 337.83c-.28 2.3-.62 1.6-.08 2.92l1.27-3.65c-.6.43-.59.35-1.19.73z" fill="#dea90a" fill-rule="evenodd"/><path d="M619.15 261.24c.17-1 .46-1.34 1.32-1.55l.05-.5-.6.33-.72-.42c-.28 1.6-.65.25-1.16 2.1l1.11.04z" fill="#386a4e" fill-rule="evenodd"/><path d="M632.36 254.51l1.81.84-.18-1.91c-.53.09-.53-.12-1.26.6-.38.36-.14.15-.37.47z" fill="#006" fill-rule="evenodd"/><path d="M586.41 311.6l.07-.72-2.93-1.06c.32 1.01-.02.3 1.35 1.1.74.45.67.71 1.51.67z" fill="#e4ac05" fill-rule="evenodd"/><path d="M373.57 350.44l.26-.58c-.96.02-1.36.14-2.2.33-1.14.26-1.05.04-1.55.75l3.5-.5z" fill="#b58c1b" fill-rule="evenodd"/><path d="M603.18 314.55l1.37-.33.47-1.82c-.77.47-.48.39-1.08.95-.77.73-.76.24-.76 1.2z" fill="#386a4e" fill-rule="evenodd"/><path d="M363.9 341.37l-.3-.16c-1.9.15-2.03-1.01-3.39.76l3.7-.6z" fill="#bb9223" fill-rule="evenodd"/><path d="M580.06 330.42c.12-.2.05.08.28-.58.36-1.03.25-.83-.52-2.09-.4.75-.23 1.9.24 2.67z" fill="#e4ac05" fill-rule="evenodd"/><path d="M375.14 343.64l.73.18c-.12-1 .03-1.87-.42-2.5-.56.69-.22 1.21-.31 2.32z" fill="#d6a429" fill-rule="evenodd"/><path d="M353.55 306.33l-.22-.91c-1 .18-1.23.42-1.53 1.42l1.75-.51zM617.94 242.75c.24.05.78.19 1.03.23.56.1.21.15 1-.12-.26-.61-.02-.16-.55-.41l-.1-.04c-1.75-.92-1.01 0-1.38.34zM602.96 279.23c.6.44.22.64 1.57-.33-1.93-.87-1.38.14-1.57.33z" fill="#006" fill-rule="evenodd"/><path d="M599.1 350.76c-.08-1.04.07-.3-.38-.65l-.51-.3c.03.07.07.1.1.22l.24.37c.47.47.06.05.55.36z" fill="#a68333" fill-rule="evenodd"/><path d="M366.79 339.32l.18-.54c-1.28-.23-.1-.1-.53.27l.35.27z" fill="#8a7244" fill-rule="evenodd"/><path d="M598.2 349.8l-.56-.44c-.16.5-.3.4.2.5l.37-.05z" fill="#c89919" fill-rule="evenodd"/><path d="M-2497.32 2384.65zM-465.56-402.47v3.13"/><path d="M478.3 346.78c57.6 0 104.12-46.5 104.12-104.05 0-57.28-46.52-104.05-104.12-104.05-57.33 0-104.13 46.77-104.13 104.05 0 57.56 46.8 104.05 104.13 104.05" fill="#e6ad05"/><path d="M417.1 312.74l1.38 1.1c1.1 1.11 2.77-.27 4.15-1.65 2.22-2.5 1.39-3.6.83-4.15l-1.66-1.11-4.7 5.81M444.5 329.35l1.67.55c1.66.55 2.77-1.1 3.32-2.77 1.39-3.32.28-3.87-.55-4.15l-1.94-.83-2.5 7.2M465.56 334.88l1.94.28c1.66 0 2.49-1.94 2.49-3.6.55-3.6-.83-3.88-1.66-4.15h-1.94l-.83 7.47M456.97 161.65l1.94-.28c1.66-.55 1.66-2.49 1.1-4.43-.82-3.32-2.2-3.32-3.04-3.04l-1.66.28 1.66 7.47M535.07 181.02l1.38 1.38c1.11 1.1 2.77 0 4.16-1.38 2.21-2.5 1.66-3.6.83-4.15l-1.11-1.39-5.26 5.54M522.6 163.58l-3.04 3.33 1.94 1.38 1.38-4.7zM518.73 318.55l1.1 4.7 2.22-1.1-3.32-3.6z" fill="#fff"/><path d="M478.3 343.46c55.66 0 100.8-45.1 100.8-100.73 0-55.62-45.14-100.45-100.8-100.45a100.3 100.3 0 00-100.53 100.45c0 55.62 44.86 100.73 100.53 100.73" fill="#fff"/><path d="M473.86 169.95s-1.1-3.6-5.81-3.6c-4.99 0-8.3 1.1-9.14 5.26-1.1 3.87 0 4.15 0 4.15s-.83 4.98-.55 6.09c.27 1.38 3.32 2.49 3.32 2.49s1.1-.28 1.94-2.77c.83-2.21 1.66-3.32 2.21-4.98.56-1.66 1.11-3.87 2.22-4.43 1.38-.83 4.15-1.66 4.15-1.66l1.66-.55" fill="#fdb83c"/><path d="M462.23 302.5l2.77 2.77c1.94 1.94 2.77 3.32 4.43 4.15 1.67.55 4.71 2.21 3.05 3.87-1.66 1.94-4.7 1.11-8.03.28-3.32-.83-6.92-2.21-7.76-2.49-.83-.28-.83-1.1-.83-4.43.28-3.32 0-6.08-1.1-13.28-1.39-7.47-1.94-13-.83-19.37 1.38-6.37 1.1-9.13 1.1-9.13l-3.04-1.39s.27-8.85.83-15.22c.83-6.64.55-8.3-.28-9.96-1.1-1.93-1.94-8.3.55-10.51 2.77-1.94 3.6-4.98 3.6-4.98s-1.66-4.99-1.66-7.75c0-3.05-1.38-5.26-2.21-5.81-.56-.28-2.22-4.16-1.39-6.92.83-2.77 2.22-8.86 4.43-11.35 2.5-2.21 5.27-6.36 5.27-6.36s-3.88-1.39-2.77-4.98c.55-2.22.83-3.88.83-3.88s-.56-3.32.27-4.7c1.11-1.39 1.94-1.66 1.94-1.66l3.6.55s-2.21 5.81-1.66 6.92c.55 1.1 2.5 0 2.5 0l-1.4 5.26s-3.04.83-1.93 4.42c.83 2.22 3.32 3.05 6.1 4.7.55.29 1.1-2.2 1.38-2.48.83-.28 1.38 1.66 1.38 1.66s2.5 3.04 4.71 6.09c2.22 2.76 6.92 4.98 6.92 4.98l5.82-1.66s-2.5 5.25-5.26 5.8c-2.77.29-12.74-1.93-12.74-1.93l-3.32-3.87s-5.54-2.22-6.65-1.66c-1.39.55-2.5 1.38-2.5 1.38l1.94 1.1-1.66 2.22.28 1.1 1.38.56-1.66 1.66h3.33l5.81 1.66s3.88 3.32 6.1 3.88a5.73 5.73 0 013.04 1.38s.55 8.58 0 10.8c-.83 2.48 0 6.08.83 12.45.83 6.64 1.11 22.96 1.11 22.96l-1.94 4.98s1.39 4.99-.55 9.69c-2.22 4.7-2.22 7.2-3.33 12.73-1.38 5.53-3.87 11.35-2.21 14.11 1.38 2.77 8.58 6.37 8.58 6.37s-1.38 2.76-2.77 3.04c-1.66.28-6.37-1.1-6.37-1.1l-3.32-2.5-3.6-3.87s1.1-5.54 1.1-10.52c0-4.98.56-13.83 1.95-16.6 1.38-3.04 2.49-5.81 1.94-6.92-.28-1.38-.28-2.77-.28-2.77l-3.88.56s-1.94 6.09-2.21 12.17c0 6.1-.28 15.5 0 17.71 0 1.94.27 6.1.27 6.1" fill="#d88f28"/><path d="M500.17 181.3s1.11-.83-1.1-2.22c-2.22-1.1-3.05-.28-3.88-3.6-1.1-3.32-1.39-5.25-1.39-5.25l-3.04-.83s2.77-2.5 4.43-2.5c1.38 0 6.1.28 7.2 2.77 1.38 2.5 1.1 4.98 1.1 6.92 0 1.94 1.67.55.28 3.05-1.66 2.49-1.66 3.32-1.66 3.32l-1.94-1.67M479.13 307.2s2.49-.27 4.15-.82c1.94-.83 2.77-1.11 2.77-1.11s2.5-.83 3.05 0c.27.83 2.49 2.21 2.49 2.21s.55 1.11-2.5 2.22c-2.76 1.38-5.8 3.32-3.04 3.87 3.05.55 3.6 1.38 7.75.28 4.16-1.1 6.1-1.39 7.2-1.39.84 0 2.5-.55 2.5-.55l-.28-4.98s-3.32 1.66-3.88 3.04c-.55 1.66-.55 2.22-.55 2.22h-.83s.55-3.88-.28-4.98c-1.1-.83-3.32-3.32-4.7-1.94-1.11 1.1-2.22 4.15-5 4.15-2.76 0-5.53-.55-6.36-.55-.83 0-2.5-1.66-2.5-1.66M452.82 238.85s-3.33-4.7-1.39-7.47c1.94-2.76 4.43-6.64 4.43-6.64l3.6.28s-1.93-1.1-.27 2.49c1.94 3.6 2.77 4.15 4.7 3.32 1.94-.83 3.33-3.32 3.33-3.32l3.04 3.04s-1.38 2.22-4.15 3.05c-2.77 1.1-4.15 1.38-5.54.27a21.9 21.9 0 00-2.77-1.38s-2.49 4.98-4.98 6.36" fill="#68613e"/><path fill="#68613e" d="M456.42 221.97l2.49 3.05 7.2-.28-2.77-3.32zM469.16 215.06l1.66-4.15.83.27-1.1 5.54-1.12-1.11-.27-.55z"/><path fill="#21205f" d="M501 182.96l-4.98 4.15-.83-1.11-.83.28-3.05 5.8 11.08-6.91h1.38z"/><path d="M468.6 185.72s-.83-2.76-2.49-3.6c-1.38-.83-2.22-.55-2.22-.55s1.11-3.32 2.22-5.8c1.39-2.22 1.39-3.33 2.77-3.88 1.66-.83 4.15-.83 4.15-.83s1.11 3.6.56 4.15c-.56.83.55 3.87.55 3.87s0 .28-.83 2.21c-.83 1.67 0 5.82-1.1 4.99-1.11-.83-3.6-.56-3.6-.56M499.34 181.3s-5.26 1.66-6.37 3.04c-.83 1.1-1.38 1.38-1.38 1.38s-2.5-.83-1.94-1.93l.55-1.39-1.93-2.76.83-4.16.27-4.7 3.88-.55 1.38 5.25.84 3.05 2.77-.56 1.1 3.32M469.71 203.99s-1.38-4.7-4.7-4.98c-3.05-.28-6.38.55-6.38.55l1.39 1.1-1.39 1.39.28 1.94 1.38.55-1.38 1.38h3.05l3.32 1.11 3.6.28.83-3.32M477.19 224.46l.27-3.6 2.22-1.1s-.83-1.38 1.1-1.66c2.22-.55 5.82-.28 5.82-.28l.28 5.26-2.21.83-1.39 3.05-1.1 1.1-3.05-1.1-.28-1.39-2.22.83.56-2.49" fill="#fbd9e1"/><path d="M491.03 306.65l-4.7-3.04s2.77-2.21 1.38-13.56c-1.66-11.35-2.21-38.74-1.38-48.15 1.1-9.41.83-29.61.83-29.61s-4.43 1.66-9.14.55c-4.43-.83-8.59-3.6-8.59-3.6l1.67-5.25s3.87.27 7.2.83l4.98.83 5.82-4.98 1.66-6.92.83-1.39 11.35-6.64s5.82.83 4.43 17.71c-1.1 17.16-1.1 23.8.28 34.32 1.66 10.79 1.39 18.26-.28 26.29-1.93 8.3-3.32 11.62-3.04 22.97.55 11.34 0 19.64 0 19.64l-3.88 1.39s.83-8.58.83-14.4c0-5.8-.28-18.8-.55-21.3-.28-2.49.55-5.81.55-5.81l-1.94-2.5s.28 11.08.56 18.55c.27 7.75.55 16.88-.56 20.48-1.1 3.32-1.1 4.15-1.1 4.15s-3.05-3.6-4.44-2.22a6.02 6.02 0 01-2.77 1.66" fill="#2b3636"/><path d="M497.4 311.91s3.05-10.8 2.77-14.67c-.27-4.15-1.1-24.35-1.1-26.84v-6.09l1.38-.27s1.1 14.94 1.1 22.14c0 7.19-.27 17.15-.82 19.92-.83 2.49-1.94 6.09-1.94 6.09l-1.39-.28" fill="#bce6fb"/><path d="M492.97 168.01c-.27.83 1.11 1.11.56 2.22-1.11.83-2.77.83-4.16.83-.27-2.22 1.66-3.32 3.6-3.05M498.51 168.01c-.27.56.28 1.39-.27 1.66-1.39.56-2.77.83-4.16 1.11 0-.55-.28-1.38 0-1.94 1.39-.55 2.77-.83 4.43-.83M465.83 168.29c0 .83 0 1.94-1.1 1.66v.83c-1.11.28-2.22.28-3.33.28 0-.83 0-1.39.56-1.66.55-.83 2.49.27 2.49-1.11h1.38M474.7 170.23c.27.55.27 1.66-.56 1.93h-1.38v-2.21l1.94.28M464.45 172.44c0 .55 0 1.38-.28 1.66h-1.38c-.56-1.1.27-2.21 1.66-1.66M502.11 174.1c.28.83.28 1.66-.27 2.5v1.1h-2.77v-1.66c.83.27 1.1-.56 1.1-1.11l.28-1.94c.55.28 2.22-.27 1.66 1.11M467.77 175.2c-.27.84.28 2.5-1.1 2.22-.28 0-.56 0-.84.28 0 .27.28.27.28.27-.55 0-1.38.28-1.94-.27-.55 0-.28.55-.28 1.1h-1.93c0-1.1.55-2.2.83-2.76h3.04c-.27-.28-.27-.56-.27-.83.83-.28 1.38 0 2.21 0M465.28 179.36c0 .55.28 1.38-.55 1.66h-1.11v-1.94l1.66.28M462.79 181.85l-1.94-.28c-.28-.83 0-1.38.55-1.93h1.39v2.2M501.28 179.64c.28 1.1-1.1 1.65 0 2.2h1.39c.27.84.55 1.95.27 2.78h-1.66c0-.28.28-.83 0-1.11-.55.83-1.1.83-1.94.83-.83-.28-.27-1.94-.55-2.77.83-.28-.28-1.66.55-1.93h1.94M463.9 184.34c-.28.28-1.11-.28-1.39.28.28.55.83 1.66 1.66 1.93 1.66-.27.56 1.66.83 2.5-.27 0-.55 0-.27.55-1.94.83-1.67-1.66-3.33-.83 0-.28-.27-.28-.27-.56-.56 0-.28.83-.56.83h-1.66c.28-.55-.28-1.66.55-1.66.56-1.1 1.11-2.21.83-3.32h.28v-1.1c1.39.83 1.94-1.11 3.32-.28v1.66M470.26 185.72c0 1.11.28 1.94.84 2.22v1.38h-1.94c0-1.1-1.11-1.1-.83-2.21-1.11 0-1.39-1.11-1.11-1.94 1.38-.55 1.66 1.1 3.04.55M494.63 186.55c0 .28-.27.56 0 .56 0 .83 0 2.21 1.11 1.66 0 .55.28 1.38-.27 1.66h-1.39c-.28-.83.28-1.66-.55-1.94h-1.11v-1.94h2.21M472.2 189.6c0 1.38 1.66 1.66.83 3.04-1.1.28-.27 1.66-.55 2.77h-1.66c0-.83-.56-1.66-.28-2.5 0 0 .28 0 .28-.27v-3.04h1.38M492.7 191.26c.27.83-.28 1.66-.56 2.21h-1.66c0-1.38.55-3.32 2.22-2.21M502.39 196.51v.28c0 .28 0 .28.28.28 0 1.66-.83 3.32-1.94 4.43h-1.39v-.28c0 .28-.83.28-1.38.28-.56-1.39.55-2.22 1.38-2.77 1.11-.55 1.11-3.32 3.05-2.22M479.13 199c-.28 1.11 0 2.22-.28 3.33 0 .83-1.1.55-1.66.55l-.28-4.15c0 .28.28 0 .28-.28.55 0 1.38 0 1.94.56M472.76 202.88h-1.94c0-.83.28-1.66.55-2.49h1.39v2.49M453.37 202.6h.83c0 1.66-1.1 3.05-1.38 4.7-.28.56-.56 1.4-1.94 1.11 0-.55-.28-.27-.56-.55a3.22 3.22 0 01-.55-2.77c0-.55 2.77-.27.83-.55-.28-1.38.83-1.94.83-3.04h1.66l.28 1.1M471.1 203.43v1.66h-1.94v-1.66z" fill="#010101"/><path d="M518.45 99.1l-4.98 17.44c-.28.55-.28.83-.28 1.1.28.28.28.56.83.56h.55c.28-.28.56-.55.56-1.1l4.98-17.44c.28-.55.28-.83.28-1.1-.28-.28-.28-.28-.83-.56-.28 0-.55 0-.55.28-.28 0-.56.27-.56.83" fill="#232364"/><path d="M461.4 205.1c0 .55-.55.55-.83.82h-1.1c0-.83-.56-1.93.27-1.93.83 0 1.94 0 1.66 1.1M470.26 206.2c0 .83 0 1.66-.55 2.21-.55.28-1.66.28-1.94-.27-1.1-1.94 1.39-2.22 2.5-1.94M507.65 208.14H506c0-.56-.28-1.66.28-1.94h1.66l-.28 1.94M454.76 207.3c0 .56.55 1.11-.28 1.67h-1.39c-.27-1.39.56-2.22 1.67-1.66M463.9 210.07c.27 0 1.66-.27 1.66.28v1.39c-.83.27-2.22-.28-1.94.55-.83 0-1.94.28-1.94-.83l-.28-1.39c.56.28.56-.55.83-.55.56 0 1.66-.27 1.66.55M455.86 209.52c.28.55 0 .83.28.83h.55v1.66c0-.27-.27 0-.27 0v.28h-1.94c-.28-.83-.83-1.66-.83-2.77h2.21M468.33 210.35c.27.56-.28 1.1-.28 1.66-.28 0-1.39.28-1.39-.27-.55-1.39.56-1.67 1.67-1.39M491.59 212.84c.28.56-.28 1.1-.28 1.66-.28.56-1.1.28-1.38 0-.83-.55-.28-1.66 0-2.21.55 0 1.38 0 1.66.55M458.91 213.95c.55 0 .55.28.83.28v1.66c-.83 0-1.66.27-2.21-.56-.28.56 0 1.1 0 1.66h-1.94v-1.66c1.1.28.83-.83.83-1.66.27 0 1.1.28.83-.55.83 0 1.66 0 1.66.83M461.96 217.27c.55.83.83 1.66 1.38 2.21 1.66 0 .83 1.94 1.66 2.77-.55 1.1.83 1.38 1.11 2.21 1.1-.55.83.83 1.94.28 1.38-.28 1.38 1.66 2.77.83.83.83 2.21 1.1 3.88.83l.27.56c.56 0 0-1.11.83-1.11-.27-.83.56-1.39.56-2.22.83-.27 1.94 0 2.77.83v1.11c-.28 0 0 .83-.28 1.1h-1.39v-.27c-.27 0-.55 0-.55.28v1.66c-1.66-.55-1.94.83-3.6.28-.28.27-.83 0-1.38.27 0-.55-.83-.27-1.11-.27 0 0-.56.27-.28.55h-2.5v-.83c-.27-.28-.82.28-1.1.55v1.39H465c-.27-1.66 1.66-2.77.56-4.15h-1.67c0-1.11-.27-1.67-.27-2.77-.28 0-.56-.28-.83 0 0-.56.27-1.39-.28-1.66-.83 0-1.66 1.66-2.77.55l.28-2.21c.27 0 .83.27 1.1 0-.55-.56-.55-1.39-1.38-1.94 0 .28-.28.28-.28.28v-2.22c1.11.28 2.5-.27 2.5 1.11M470.54 216.44c.28 1.1-.28 1.66-.28 2.77h-1.66c0-1.11.56-1.94.28-2.77h1.66M506.54 221.14v2.5c-.27 0-.83-.28-.83 0-.27-.56-.83.27-1.1.27-.56 0-1.11.28-1.67 0v-3.32c1.66-.28 1.94.83 3.6.55" fill="#010101"/><path d="M458.63 222.53c0 .83.83.55 1.39.83v.55h1.1c0 .55.28.83 0 .83.56.28.28 1.1.28 1.39-.83.27 0 1.66-1.38 1.66v1.1h-2.22c-.27-1.66 0-3.04-.27-4.43-.28-.27-.84 0-1.39 0-.28-.83-.55-1.93 0-2.76.83 0 1.94.27 2.5.83M488.27 223.63c-.56-.27-1.11 0-1.67 0v-1.66h1.67v1.66M486.05 223.36c0 1.1 0 1.66-.55 2.49h-1.11c-.28.55 0 1.38-.56 1.66h-1.38v-1.66h1.66c.28-.83 0-1.66.28-2.5h1.66M488.27 225.85c.27.83 0 1.94 0 3.04h-1.67v-3.04h1.67M458.63 230.55l1.66.28c.28.83-.55 1.38-.27 2.21-.83.28-1.66 0-2.77 0v-.55c-.28.28-.56.28-.56.28-.27-1.11 0-1.66.28-2.5.56.28 1.39-.27 1.66.28M470.82 239.96c0 1.1 1.1 1.66.28 3.05 0 1.93-.56 3.87-.84 5.53h-1.93c-.56-1.66 1.1-3.04.55-4.43 0-1.66-1.1-5.26 1.94-4.15M470.26 254.63c.28.55-.27 1.1-.55 1.66h-1.94c0-.56-.27-1.39.28-1.66h2.21M453.65 256.29l-.28 3.32h-1.94c0-1.38.56-2.21.56-3.6.55 0 1.38-.28 1.66.28M471.65 259.33c.83 0 1.94.28 2.5 0 .55.28.82 0 1.1-.27v-.56c1.1.28 1.66-.83 2.5-.55 0-.28 0-.28.27-.55h1.38c-.27 1.66 0 3.87-.27 5.8-.56.56-2.22.56-1.67 1.94-1.93 0-3.6.83-5.81.83-.28-1.1.83-2.49 0-3.6-.83.28 0 .84-.55 1.4v2.48c-.84 0-1.11.28-1.94 0 0-.55 0-1.66-.83-1.66-.83.28-.28 1.38-.56 1.94-1.1-.28-2.21.83-3.88.55v-1.94H465l.28-2.76-.28-.28h-.27v-1.38h.55c.28-.83-.55-2.5.83-1.94h1.1c-.27 1.1-.55 2.5 0 3.6.29-.28.56-.56.29-1.1l2.49-.29c0 .28 0 .28.27.28h.28v-1.1l-.83-.28c-.55-1.11.28-1.66.28-2.77h1.66v2.21M460.57 259.33c0 2.77-.28 4.98 0 7.47-1.38.56-2.5-1.1-3.32.56v1.1c-.56 0-1.1 0-1.39.28.28.28.83 0 1.39 0-.28.83 0 1.38-.28 2.21-.28 0-1.1 0-1.38-.27 0 .27-.28.27-.28.55h.28c0 .56.27 1.39-.28 1.39-.28.55-.55.55-.83.83h-1.1c-.29-1.11.27-2.22.27-3.05.83-.28 2.21.28 1.94-1.1l-1.39-.28c-.27-1.1.28-2.5.28-3.88 0-.27-.55-.55-.83-.27v-1.66l2.21-.28c.28.55-.55 1.66.56 1.66h1.1c0 .28 0 .28.28.28.56.27.56-.56.56-.56 0-1.93.27-3.6.55-5.25.55 0 1.66-.28 1.66.27M463.34 261c-.28.82.55 1.93-.28 2.2v4.16l-1.93-.28c.27-1.94.27-3.87.27-6.09h1.94M453.1 264.31c-.56 0-1.67 0-1.67-.55v-1.38h1.66v1.93M500.45 264.04c.83.27.28 1.1.28 1.66h-1.94c0-.83 0-1.94.28-2.5.83 0 1.38 0 1.38.84M469.43 267.91c-.83 1.66 1.67 1.94 1.11 3.6v1.1c-.55 0-1.38-.27-1.66.56v1.1l-1.94-.27c0-1.94 1.1-4.15.83-6.37.56.28 1.11-.27 1.66.28M506.27 271.23l-.28 3.32c-.83.28-1.66.56-2.5 0 0-.27-.27 0-.55 0-.27-1.38.56-2.21.56-3.32.83-.28 1.66 0 2.77 0M456.42 274.55c-.28.83 0 1.66-.28 2.5-1.38-.84-1.66 1.38-3.32.55 0-1.11.27-1.66 0-2.77 1.38 0 2.21-.55 3.6-.28M462.79 276.77h-1.39c-.27-.56 0-1.39 0-1.94h1.39v1.94M505.71 278.98c.28.83-.27 1.66-.27 2.49h-1.67c0-1.38 0-3.04 1.94-2.49M454.2 280.09c.28.27-.55 1.1.28 1.1 0 .56-.28 1.39.28 1.66h.27c0 1.39 0 1.39-.55 2.5.55 0-.28 1.93.83 1.66v1.38l-.28.28c0 .83 0 1.1-.55 1.66h-1.1a45.22 45.22 0 01-.56-6.1c-.28-.82 0-2.2-.56-3.31-.27-1.39 1.39-.56 1.94-.83M505.44 287.28h-1.67c0-.83-.27-1.38 0-1.94h1.67v1.94M455.86 290.6c.28 1.39 1.11 3.32 0 4.43-1.93.83-1.38-1.1-1.93-1.94.27-.83-.56-1.38-.28-2.49h2.21M505.16 292.54h-1.66c0-.55-.28-1.1.27-1.66h1.39v1.66M465.56 295.86v1.1h-1.67v-1.65c.56 0 1.67-.56 1.67.55M502.67 297.24h-1.39c-.28-.55-.28-1.38-.28-1.93h1.67v1.93M457.25 296.41c-.56 1.11 1.1 1.67.55 3.05-.83 0-3.04.83-2.77-.83.28-.55-.27-1.39 0-2.22h2.22M504.88 297.8c.28.55 0 1.38 0 1.93h-1.66c0-1.1.28-2.2 1.66-1.93M464.45 299.46c-.28.83 0 1.1 0 1.66-.83.28-1.39.55-2.22.55l-.27-2.21h2.49M457.8 302.5h-1.94c0-.83-.55-1.38-.27-2.49h2.21v2.5M488.82 300.57c-.28.83.28 1.38-.55 1.93h-1.11c0-1.1 0-2.49 1.66-1.93M463.62 302.23c-.56 1.1.55 1.38 0 2.49h-3.6v-1.94c.55 0 .27-.28.27-.55h3.33M457.25 303.89c.28.55-.28 1.1 0 1.66v.27h-1.66c0-.83 0-1.38.27-1.93h1.39M489.37 311.08c-1.1-.28-1.94.55-3.04.28-.28-.56 0-1.39 0-1.94h3.32l-.28 1.66M499.62 311.91h.55v1.94h-3.32c0-.83-.28-1.66.28-1.94h2.49M487.71 313.85c0 .27.28.83-.28.83.28 0 .28.27.28.27v.28c-1.1.28-2.21-.28-3.32-.55v-1.39c1.38-.55 2.5.56 3.32.56M494.36 313.3c.27 1.1-.28 1.65-1.11 1.93h-1.1c0-.55-.28-1.38.27-1.94h1.94" fill="#010101"/><path d="M421.8 303.89l3.05 2.76c2.49 1.94.83 4.98-.56 6.64-1.66 1.94-4.7 4.16-6.92 2.22l-3.05-2.5 7.48-9.12M431.22 311.63l-6.65 9.41-1.66-1.1 6.64-9.69zM438.14 315.79l1.66 1.1-8.58 8.3-1.39-.83 3.05-11.62 1.94 1.1-2.77 8.59 6.09-6.64zM443.4 318.55l-4.98 10.52-1.66-.83 4.98-10.52zM445.9 319.66l3.87 1.38c3.05 1.11 2.5 4.43 1.66 6.64-.83 2.22-2.77 5.26-5.54 4.43l-3.87-1.66 3.87-10.8M455.86 329.9l-.55 2.77 4.98 1.38-.55 1.94-6.92-1.66 2.77-11.35 6.64 1.66-.27 1.94-4.99-1.11-.55 2.5 4.43.82-.56 2.21zM464.73 325.2l4.15.27c3.32.55 3.32 3.88 3.32 6.09-.55 2.49-1.66 5.81-4.7 5.53l-3.88-.55 1.1-11.35M478.85 326.3l1.94-.28c1.66 6.37 1.94 7.2 2.21 8.58 0-1.38.28-2.49.83-8.58l1.94-.27c1.66 6.36 1.66 6.92 1.94 8.3.28-1.1.28-1.94 1.1-8.58h1.95l-1.94 11.62-1.66.28-2.22-8.86c-.27 2.22-.27 3.05-.83 9.14h-1.66l-3.6-11.35M495.74 331l.56 2.77 5.26-.83.28 1.94-6.93 1.38-2.5-11.34 6.93-1.39.28 1.94-4.7 1.1.27 2.5 4.7-1.1.28 1.93zM513.47 323.53l.83 1.94-3.88 1.38 1.94 4.7-1.94.56-4.15-10.79 6.09-2.5.83 1.95-4.43 1.66 1.1 2.49zM520.94 327.68l-1.66.83-2.77-11.62 1.94-1.1 8.59 8.57-1.94 1.11-1.66-1.94-3.05 1.66.55 2.5zM523.16 313.02l1.66-1.1 5.26 7.74 3.88-2.5 1.38 1.67-5.53 3.87zM530.36 308.04l1.38-1.39 6.37 7.2 3.33-3.05 1.38 1.66-4.98 4.16zM421.25 178.53c1.94 2.21 1.94 4.15.27 5.8-.55.84-1.66 1.4-3.04 1.12-1.11 0-1.66-.56-2.5-1.39l-5.53-5.53 1.38-1.39 5.26 5.26c1.11 1.1 2.22 1.1 2.77.56 1.11-.83.83-1.94 0-2.77l-5.54-5.54 1.66-1.38 5.27 5.26M422.63 172.16l4.99 6.37-1.67 1.1-6.92-9.13 1.66-1.38 7.76 4.43-4.71-6.64 1.38-1.11 6.93 9.4-1.39 1.11-8.03-4.42zM430.1 162.75l6.1 9.97-1.66 1.1-6.1-9.96zM442.02 169.4l-1.66.83-4.44-8.58-2.49 1.38-.83-1.94 6.65-3.32 1.1 1.94-2.49 1.1 4.16 8.59zM446.72 161.92l.84 2.77 4.98-1.66.55 1.94-6.37 2.21-4.15-10.8 6.37-2.48.83 1.94-4.7 1.93.82 2.22 4.16-1.66.83 1.93zM469.16 149.75l2.21-.28c1.39 6.37 1.39 7.2 1.66 8.58.28-1.38.28-2.5 1.11-8.58h1.94c1.38 6.37 1.38 6.92 1.66 8.3.28-1.1.28-1.93 1.39-8.58h1.94l-2.22 11.9h-1.94c-1.1-5.8-1.38-6.91-1.66-9.13-.28 2.22-.28 3.05-1.1 9.13h-1.95l-3.04-11.34M486.05 156.39l-.28 2.77 4.99.55-.28 2.21-6.92-.83 1.1-11.62 6.93.83-.28 1.94-4.98-.55-.28 2.49 4.7.55-.27 1.94zM500.17 160.26c-.27.56-.27 1.94 1.39 2.22.83.27 1.94.27 2.21-.83.28-.83-.27-1.39-1.38-1.94l-.83-.55c-1.39-.83-2.5-1.66-1.94-4.15.55-1.11 1.66-3.32 4.43-2.22 2.77.56 3.05 3.05 2.5 4.43l-1.67-.55c0-.56.28-1.66-1.38-2.22-.83 0-1.66 0-1.94 1.1-.28.84.28 1.12.55 1.4l1.94 1.38c1.1.55 2.22 1.66 1.66 3.6-1.1 3.31-3.87 2.76-4.7 2.48-3.33-.83-3.05-3.32-2.77-4.7l1.93.55M510.7 167.74l-1.94-.83 3.6-8.86-2.5-1.1.84-1.94 6.92 3.04-.83 1.94-2.5-1.11-3.6 8.86zM516.24 170.23l-1.67-.83 8.59-8.58 1.94 1.1-2.77 11.63-1.94-.83.55-2.5-3.04-1.65-1.66 1.66zM530.36 169.12l-4.98 6.64-1.39-.83 6.92-9.4 1.67 1.1-1.94 8.85 4.98-6.64 1.39 1.1-6.93 9.42-1.66-1.1 1.94-9.14zM540.33 172.72l2.77 2.76c2.5 2.22.55 4.99-1.1 6.65-1.67 1.93-4.72 3.87-6.93 1.93l-2.77-3.04 8.03-8.3" fill="#21205f"/><path fill="none" stroke="#010101" stroke-width=".8584984999999999" d="M473.31 260.16v-.27h0v.27z"/><path d="M474.14 169.95c.28-.55-.83-2.21-1.94-2.5-3.32-.82-6.92-1.65-10.52.84-1.94 1.1-2.5 3.32-3.05 5.26-.27.83 0 2.49 1.11 2.21a7.12 7.12 0 001.94-4.43M459.74 175.76c-1.38 1.94-1.94 5.81-.83 8.03l1.38.83M458.91 177.14c0-.55.55-1.1-.28-1.93M500.45 168.57l.55.27c.28.56.56.28.84.56 1.66 2.76 1.66 5.53 1.1 8.3.83.55 1.11 1.38.83 2.21l-1.66 2.22M502.94 177.7h-1.38M500.45 168.57h-1.66l.28-1.11c-1.67-.28-4.71-.83-6.65.55M499.07 167.46c.55.28 1.38.55 1.38 1.1M466.94 167.74l-1.66.55M465.83 169.12h0M493.8 169.67h-.27" fill="none" stroke="#010101" stroke-width=".86"/><path d="M468.88 171.33l-1.1.56c0 .27-.28.83.27.83M467.77 172.72c-.27.83-1.1 1.1-1.66 2.21M467.22 173.27c-.28-.28-.28-.55-.83-.55M467.5 172.72l.27-.83M468.88 171.33c0-.27 0-.55-.28-1.1M471.93 170.78l-.28.83M471.93 170.78l1.1-.28M463.9 172.16c.27-.55 1.1-.83.83-1.38M494.08 172.16c.28.56.83.56 1.39.28M494.91 172.72c-1.38.55 0 1.93-.55 3.04l.83.83.83-.28c0-.83 0-1.93.28-2.21M495.19 176.6l.55 1.65c0 .28.56-.28.83-.28.56.28.83.28 1.11 0v.28M496.02 178.25c-.28-.28-.55.83-.55 1.1M495.47 179.08l.27-.83M494.36 173.27l.27-.55M494.08 172.16c0-.55-.28-1.1.28-1.38M489.1 175.48h2.49M490.2 175.76l.28 1.38M490.2 175.76h-.83c-.83 1.1-1.1 3.04-1.38 4.15 1.66 0 1.1 2.77 2.5 2.22-.29 1.38-1.67 2.76.27 3.87l.83-.28.28-.83c2.21-1.66 4.43-1.93 6.92-2.76M491.59 185.72l.83.56M490.48 182.13l-1.11-.56" fill="none" stroke="#010101" stroke-width=".86"/><path d="M488.27 177.97c0-1.1 1.38-2.2.55-3.04l.83-3.6M473.31 172.16h0M473.31 176.04c0 1.93 1.66 2.76 1.39 4.15l-1.39 1.1c.28.56-.28 1.11-.55 1.67 0 1.66.55 3.04-1.11 3.6l-1.1-.28" fill="none" stroke="#010101" stroke-width=".86"/><path d="M472.76 182.96h-.83c-.83-1.11.27-1.94.55-2.77M472.2 180.74l1.11.55M472.76 176.31c-.56.56-1.11.83-1.11.83M472.76 176.31l-1.94-.55M472.76 176.31c1.38-1.38.83-2.76.83-4.15M501.56 172.72v.27M460.3 179.08c1.1-1.66 1.1-3.87 2.21-5.26M463.62 174.38l-.56 1.93M468.05 175.21h-.28M498.51 176.04l.56.27M501.56 177.7v.27M498.24 179.91l-.84.28M498.24 179.91c1.1-.27 1.1-1.1 1.38-2.21-.55.83-.28 3.04-1.38 2.21M465.83 178.8l-.27-.83M462.23 178.8l-.27.56M463.62 178.8v.84M490.2 179.08v.28M463.06 179.64h.56M468.6 179.91l.83.83M466.11 182.68l1.66 2.77M466.11 182.68l-1.66-.55c-.56-.28-.56.55-1.39.27l-.27-.55c.55 0 .83.55 1.66.28l-.28-1.39M464.45 182.13l1.66.55M460.85 181.85v1.11M496.57 186.83c1.11 0 2.22-1.66 3.05-2.21" fill="none" stroke="#010101" stroke-width=".86"/><path d="M496.57 186.83l-.27 2.49h.55c1.94-1.38 4.43-2.77 6.37-4.15l1.38 1.66c2.77 6.09 4.71 13.28 2.22 19.65M496.02 187.1c0-.27-.55.56-1.39.56M495.19 186c.83-.55 2.21-1.66 3.6-2.21M495.74 185.72l.83 1.11M466.94 186c-1.1 0-2.21-.83-3.05-1.66M467.22 188.21c-.28-.83-1.39-.55-2.22-1.1M469.71 189.32c0 .83-1.1 1.66-.83 2.5l1.94 1.65M468.6 191.26l-3.6-2.49M491.59 190.98c.28-1.1.55-1.66.83-2.21M458.63 188.77l-.27.55c-4.71 3.32-4.71 7.75-6.37 12.18M458.36 189.32l.27-.55M461.96 188.77l.27.55M460.02 188.77l.27.83M471.37 189.32v.28M463.89 189.6h0M463.89 189.32l3.33 4.43M494.63 190.15l-1.66 1.38M501.84 192.36c0 1.39.83 3.05 0 3.6" fill="none" stroke="#010101" stroke-width=".86"/><path d="M501.84 192.36c-.28-.83-1.67-1.66-2.5-1.66-4.43 1.11-8.03 5.54-9.14 8.03-1.93 1.38-1.38 1.66-1.93 3.04l-4.44 3.6c-.27.55-.55.83 0 1.66" fill="none" stroke="#010101" stroke-width=".86"/><path d="M483.56 205.92c-.28-.55-.83-.27-1.39 0l-.27 1.11M482.17 205.92c-3.32-1.1-7.47 0-9.97-1.93l-1.38.27M472.2 203.99v-.83M476.91 204.54v-1.11M483 205.65l.83-.28M488.27 199.84c-1.94.55-3.88 1.1-5.54 2.49v.83M482.73 202.33l-3.6-2.77M488.82 200.11v-.83l1.66-5.8h.55c-1.1.82-1.1 3.04-1.93 4.7l1.1.55.56-.83M491.31 197.07a11.81 11.81 0 013.6-3.88M491.59 192.36h0M477.46 198.18c-1.66-1.66-2.76-3.6-4.15-5.54M454.2 202.33c.83-2.77.83-4.98 2.5-7.75M470.82 195.96c.55 2.77-1.39 4.7-1.39 7.2 0-1.11-.83-2.5-2.49-3.05-.83.56-.55-.55-1.1-.83-2.78-.55-5.27-1.38-7.2.28v.55a6.5 6.5 0 003.04.56c-.83.55-2.5 0-3.32 1.93v.83l2.77-.83" fill="none" stroke="#010101" stroke-width=".86"/><path fill="none" stroke="#010101" stroke-width=".8584984999999999" d="M458.36 203.43l.27.56.56.55"/><path fill="none" stroke="#010101" stroke-width=".86" d="M459.74 201.22v-.55"/><path fill="none" stroke="#010101" stroke-width=".8584984999999999" d="M465.83 199.28h.56l.55.83"/><path fill="none" stroke="#010101" stroke-width=".86" d="M468.6 201.22l.83.28M469.99 200.94c.27-1.1-1.11-1.93-1.11-3.04M469.71 199.28l.28.28M470.54 195.96c-.55 0-1.38-.83-1.38-1.38M471.93 200.11c.55-.55 0-1.38.27-2.49v-2.21M505.16 207.58l.55.28c-.83 0-1.1 2.77-1.38 3.6l1.1.83c.28 0 1.67-.28 1.39-1.66l.28-2.5M506.54 212.29c-.27 3.04-.27 4.98-.55 8.58"/><path fill="none" stroke="#010101" stroke-width=".8584984999999999" d="M505.99 217.55l-1.66.55-1.11 2.21v-.27l-2.22 1.38"/><path fill="none" stroke="#010101" stroke-width=".86" d="M503.22 220.04l.28-.83M504.33 218.1c-1.66-1.38-3.05 1.38-3.88 1.66"/><path fill="none" stroke="#010101" stroke-width=".8584984999999999" d="M503.5 217.55l.83-2.22-.56-.83-1.1.56-3.33 3.87"/><path d="M503.77 214.5c.83-.27 1.11-2.21.56-3.04l-.83.28-3.05 3.87M503.5 211.74l1.1-1.39M505.16 208.41c-.28-2.2.55-4.98 0-7.47l-1.1-5.25M475.8 201.5c0-1.11-.55-3.05-1.66-4.15M497.4 202.05c-1.93 1.1-5.81 2.77-7.47 3.87" fill="none" stroke="#010101" stroke-width=".86"/><path d="M496.3 202.6c.83-1.1.83-.27 1.66-1.1l-.56.55M494.36 208.69l-.56.83M493.8 208.7l-.55.55-6.37 3.6c.28 3.04 0 5.53.28 9.4M486.88 217.55c-1.94-.28-2.77.27-4.43 0-1.38.83-2.5.55-3.32 2.21 0 1.1.83 1.94 1.66 1.38.28-1.38 1.1-1.1 1.94-1.38 1.1 1.1 2.49 1.1 2.49 2.77v.83M479.13 219.76c-.28-.28-1.11 0-1.94.28l-.28 3.6M476.91 222.53c-.83-.83-1.66.83-2.77.27l-1.38 1.11" fill="none" stroke="#010101" stroke-width=".86"/><path d="M473.59 223.36v-.56c-1.94.28-3.88.83-5.54.56M473.59 222.8h.55M476.91 222.53l.28-2.5c-.83-.55-3.05-.27-3.33-1.38l-3.32-1.38M473.86 218.65c.84-.83 1.11-1.66 1.94-2.76" fill="none" stroke="#010101" stroke-width=".86"/><path d="M475.8 219.76l1.39.28-.28-.83c.28-1.94.28-4.43.28-6.1l-4.99-1.65c-.83 1.38-1.1 3.6-1.38 4.98" fill="none" stroke="#010101" stroke-width=".86"/><path d="M472.2 211.46c-.27-1.1-1.1 0-1.1-.55a21.08 21.08 0 00-1.67 5.53c.28-1.66-1.38-2.5-1.93-4.7M469.16 214.78l.55-.28" fill="none" stroke="#010101" stroke-width=".86"/><path d="M470.54 211.18c0-.55-1.1-1.66-1.66-1.38l.28-.83.27.83M470.54 210.63l1.66.83" fill="none" stroke="#010101" stroke-width=".86"/><path fill="none" stroke="#010101" stroke-width=".8584984999999999" d="M477.19 213.12l5.54.55.27-.55-1.93-1.66"/><path d="M483 213.12c1.39.55 3.33-.28 3.88-.28M493.25 209.25c2.22-.84 4.7-4.99 6.65-6.92l-5.54 6.36M471.1 203.16h-.28M450.6 204.54h0M469.43 204.54l-.55 1.38M470.54 204.54l-.55 1.38M456.42 205.92l-.83 3.6M458.91 206.75c1.66.56 2.5-.55 3.6 0 1.94.83 3.32.83 4.99.56h0c-.84 0-.84 1.94-.84 2.21l.56.55" fill="none" stroke="#010101" stroke-width=".86"/><path d="M466.66 209.52l-.55-.27c0 .82-.55 1.66.28 1.93-.28 0-.56.28-.83 0l.27-.55M466.11 209.25l.55-.56M458.91 206.75c-.28-.27 0-.83 0-.83" fill="none" stroke="#010101" stroke-width=".86"/><path fill="none" stroke="#010101" stroke-width=".8584984999999999" d="M454.2 207.03v-.55l.28.55h-.28"/><path d="M457.25 210.9c.83 0 2.21.84 2.5-.83v-1.66M459.46 210.63h2.22M458.36 211.18c-.83.56-.28 1.1-.83 1.39M457.53 212.01c-1.39-.83.27-3.04 0-4.43M462.51 208.41v.84M452.82 209.52l.27-.55M452.82 209.52l1.11.55" fill="none" stroke="#010101" stroke-width=".86"/><path fill="none" stroke="#010101" stroke-width=".8584984999999999" d="M452.82 209.52h-.56l-.55-1.1"/><path fill="none" stroke="#010101" stroke-width=".86" d="M454.2 208.97l-.27 1.1M487.71 209.52c-1.1.28-3.04-.27-3.88-.55M464.73 209.52v.28M466.66 216.16c-.83-.83-2.77-2.76-3.6-3.87M455.86 219.76c.83.55 1.39.83 2.5.83.55-1.38-1.39-2.21-1.39-3.6"/><path fill="none" stroke="#010101" stroke-width=".8584984999999999" d="M458.36 219.2h.83v-1.1l-.56-.55"/><path fill="none" stroke="#010101" stroke-width=".86" d="M459.19 219.21l.55.55"/><path fill="none" stroke="#010101" stroke-width=".8584984999999999" d="M458.36 219.48v1.11l1.1.83"/><path d="M458.36 220.6c-.83 0-1.11 0-1.67-.29v1.39M456.7 220.87c-1.94-2.5-1.11-5.81-1.94-8.3M455.86 212.57l.56 1.1M504.88 212.57h0M483 213.12l.83.28M484.11 213.4h0" fill="none" stroke="#010101" stroke-width=".86"/><path fill="none" stroke="#010101" stroke-width=".8584984999999999" d="M504.33 215.33l1.66-.27.28.55h-1.67"/><path fill="none" stroke="#010101" stroke-width=".86" d="M459.46 216.16h.28M470.82 216.72h0M490.76 219.2h-.56c-.83-.55-.55-1.1 0-1.65 1.11 0 .83.83.56 1.66M469.71 218.65v.83M469.16 221.42c-1.66.28-3.33-.28-4.71-.83M460.57 222.53l-.55.83M489.93 223.08c.55 5.81.83 13.28 2.21 19.37 1.66 6.92 4.16 15.22 7.48 21.03"/><path fill="none" stroke="#010101" stroke-width=".8584984999999999" d="M489.93 223.08h-1.39v-.55l1.39.55"/><path d="M462.79 222.8c-.56.28-1.39.83-1.39 1.11" fill="none" stroke="#010101" stroke-width=".86"/><path fill="none" stroke="#010101" stroke-width=".8584984999999999" d="M486.88 225.57v-1.94h-.83.83"/><path fill="none" stroke="#010101" stroke-width=".86" d="M508.2 256.84l-2.49 14.39M508.2 256.84c1.11-11.62-.83-22.41-2.21-33.76M460.02 223.36l.55.83M503.22 232.77a44.16 44.16 0 010-8.58M457.53 225.57l-1.11-.28c-4.16 3.33-5.82 7.2-4.99 12.18.56.83.83 1.38 1.39 1.38 2.21-1.1 4.15-2.49 4.7-4.98l-1.1-.27-3.33 3.04M456.42 233.6l.27-.83M457.53 233.87v-.55M452.82 238.85c.83 5.54 0 11.35-.28 16.89"/><path d="M456.42 225.3c-.56-.28 0 0 0 0v-.84M482.45 226.4l-1.1-.27c0 .55-.28 1.66.82 1.93l1.11-.83" fill="none" stroke="#010101" stroke-width=".86"/><path fill="none" stroke="#010101" stroke-width=".8584984999999999" d="M480.79 227.5l-.83-.27-.56-.55"/><path d="M479.68 226.96l.28-1.39-.56-.55c.56 1.1 1.94.83 3.05 1.38M483.56 225.29l.27.56M462.79 225.85l.27.83" fill="none" stroke="#010101" stroke-width=".86"/><path fill="none" stroke="#010101" stroke-width=".8584984999999999" d="M462.79 225.85l-1.39-.28 2.22.28"/><path fill="none" stroke="#010101" stroke-width=".86" d="M484.39 225.85h0M484.94 225.85h0M504.6 251.86l.28 14.11M504.6 251.86c0-9.68 1.39-16.33-.27-25.46M478.57 242.73h.28l-.28 1.1c.28 4.16.56 9.14.56 13.29M478.57 242.73c-.55-4.7-.83-9.96-1.94-14.4M457.8 228.62v1.66M460.02 230c1.38 1.1 3.6.55 4.43.55-.28 1.11.28 2.77.55 3.32 1.11 0 2.77.28 2.77-.55.28-1.38-1.1-1.94-1.1-2.77"/><path d="M467.77 232.77h1.66c.56-.83 1.11-1.11.56-2.77l-.83.28c-1.11-.28-.56-.83-.83-.83M469.99 229.72v.56M469.43 232.77v6.92" fill="none" stroke="#010101" stroke-width=".86"/><path fill="none" stroke="#010101" stroke-width=".8584984999999999" d="M469.43 232.77l-1.66.55-.83 5.26"/><path fill="none" stroke="#010101" stroke-width=".86" d="M467.5 234.7l-.28-.83M465.56 234.15c-1.94.83-3.6.83-5.82-.83"/><path fill="none" stroke="#010101" stroke-width=".8584984999999999" d="M462.23 234.43l.28-3.6-.83-.28M460.02 230.83V230l-.28-1.66"/><path d="M472.2 234.98c-1.38.83-.83 3.04-1.66 4.7M472.2 234.98l.56-6.09M486.88 229.72l1.1-.27 1.67 18.54 4.43 36.25c.28 4.7.28 9.4.28 14.39.55 1.1 1.38.55 2.49 2.21" fill="none" stroke="#010101" stroke-width=".86"/><path d="M495.19 299.46c-1.66 1.38-.83 4.15-1.66 5.8.55.56 1.38-.27 1.94 0 1.1.56 1.93 1.95 2.49 3.05h.28c3.32-14.94.83-27.12 1.1-42.34M498.24 308.31c.55.56-.56.28-.28 1.11l-.28 2.21M493.53 305.27c-.56 1.38-3.33 2.21-3.05 4.15l1.39.83M490.48 309.42h-.83" fill="none" stroke="#010101" stroke-width=".86"/><path d="M491.03 307.76c-.83-.83-1.66-2.77-2.76-2.21l-.84.55c-.55.28-1.1-.55-1.38-.83-.55.28-2.22 0-1.66 1.1l1.1 1.11M484.39 306.38a6.68 6.68 0 00-4.99 1.1v.83c.83 1.11 1.39.83 1.94 1.11l.28.28 4.43.27" fill="none" stroke="#010101" stroke-width=".86"/><path d="M481.34 309.42c-1.66-1.38-2.49.83-4.15 1.1h-4.43c-.56.28.83.84.55 1.4.28 1.37-1.66 2.2-2.77 2.48-1.38.28-3.6 0-4.98-.55-1.11-.83-2.77-.83-3.33-1.39-2.49-1.1-5.26-.27-6.64-2.21-.28-1.66.27-3.32.55-4.43M456.97 310.8l.56-1.1" fill="none" stroke="#010101" stroke-width=".86"/><path fill="none" stroke="#010101" stroke-width=".8584984999999999" d="M457.53 311.36l.83.27h.27l.28-.83M458.63 311.63l1.39.28.27-.83"/><path fill="none" stroke="#010101" stroke-width=".86" d="M462.23 312.46l.28.28M464.45 313.29v-.55M464.45 313.3c.28.27 1.66-.56 1.1.55M472.76 310.8c-1.66.83-3.05.83-4.43.83a53.52 53.52 0 00-9.42-3.04l-1.1-.83-.28-1.94"/><path fill="none" stroke="#010101" stroke-width=".8584984999999999" d="M472.76 310.8l-.83-.83-4.16-1.66-.83.56"/><path d="M467.77 308.31c-.83-1.93-2.49-2.49-4.43-3.87M471.93 309.97l.83.56M479.4 308.87v-1.39l-3.32-1.1c0-1.11-1.1-1.11-1.66-1.66l-3.6-3.88-.83.28M470.82 300.84l-.28-1.38c-1.66 0-2.77 1.38-4.15 1.38M470.54 299.46l-.28-1.94c-.55-.83-1.66.83-2.49.28l-1.1-.56-.84 1.11.83.83-2.77.28.28-1.66 1.66.55" fill="none" stroke="#010101" stroke-width=".86"/><path d="M466.66 297.24c-.83-.83-.83.28-.83-.83 1.11.28 3.33 1.11 4.43 1.11.56-1.66.84-3.04.84-4.15a1.77 1.77 0 00-1.67 0M471.1 293.37c.55-1.1 1.1-2.5.83-3.87l-1.67.55M471.93 289.5c1.1-1.11.83-2.22 1.38-3.32-.55-.28-1.1.27-1.66.55M473.31 286.18c1.1-3.6 1.66-7.75 1.94-10.52 2.21-4.43 2.21-6.09 1.94-10.24M486.05 305.27c.55-.83 1.1-1.66 1.1-2.5M486.88 303.89l1.39 1.66M491.03 307.76l.84-.55M494.36 300.01v-1.38M486.88 229.72c-.83 21.86-1.94 39.3.55 58.95.56 4.7 1.11 8.02.84 11.9h-.28M486.88 229.72v-.83M472.2 243.28c.83-3.32 2.22-8.02 2.5-11.9M457.53 231.66h0M463.06 234.43h0M455.86 242.73l-.27 8.85M472.76 244.94l-2.77 9.41M465.83 256.56c0-1.93 1.39-3.87 1.94-6.64l.56-1.1M469.71 248.26l-1.11 6.37M472.48 252.41l-1.66 4.43M454.48 262.93c.55-2.21 0-5.81.55-8.02M455.59 262.93c.27-1.66 1.1-4.43.83-6.64M467.77 256.56l-.83 1.94" fill="none" stroke="#010101" stroke-width=".86"/><path fill="none" stroke="#010101" stroke-width=".8584984999999999" d="M469.43 260.72l-1.1-.28-.28.55"/><path fill="none" stroke="#010101" stroke-width=".86" d="M468.33 260.44l.83-3.88M472.76 257.67l-.28 1.94M459.46 257.67v1.66M457.53 258.5l-.28 6.09M464.73 259.33c0 .56-.28 1.11 0 1.66-.28 1.39-.56 2.77-.28 4.15M464.73 259.33v-.55M462.79 261c.27-.84.55-1.94-.83-1.94l-.28 1.66M471.93 259.33l.55.28M451.71 259.61v2.77M453.09 259.61l-.27 2.77M453.65 264.31c-.28 0-.28 0 0 0M471.65 265.7h-.55M504.05 271.5l-.55-1.38h-.56c-1.1 1.11-.83 2.77-1.66 3.33.28 4.42-.55 7.74.28 11.62 1.38-.83 1.94-2.5 2.5-3.6M501.56 285.07c0 1.38-.56 3.6.55 4.43l1.66-2.22M502.11 289.5c-1.1.83-.55 4.42-.55 5.8M501.56 290.33v-1.39"/><path d="M501.28 273.45c0-1.11-.83-3.05-.55-4.43 0-.83.55-2.22 0-3.32 1.38 1.93 1.66 2.76 2.77 4.42M468.88 266.25s-.83.55-.55 1.66" fill="none" stroke="#010101" stroke-width=".86"/><path fill="none" stroke="#010101" stroke-width=".8584984999999999" d="M468.05 267.08v-.83h.83"/><path fill="none" stroke="#010101" stroke-width=".86" d="M460.85 266.25h0M463.9 266.8c-.28.28-.84 0-1.11 0M462.51 274v.55h-.55c1.66-1.93 1.93-5.25 2.49-7.47M456.69 268.46v.28M454.76 268.74l-.56 1.66M455.86 274.28c0-.56.83-1.39.28-2.22l.28-1.38-.28 1.38M470.54 272.62h.56M453.37 274.83c.28-.28.28-.83.56-1.66M465 283.41l1.11.55M465 283.4c-.55.28-.27 1.67-.27 1.94l1.38.84M464.73 285.34c-.28.28 0 1.11 0 1.94l1.1.56M464.73 287.28c-.84.56 0 1.39-.28 3.05l1.38.27M464.45 290.33c-.28.27.28 1.93.28 2.49l1.1.55M464.73 292.82c-.28.83-.56 1.66.55 1.93"/><path d="M464.73 294.48c-.28.27.27.83-.28.83v-.83M465 283.4c0-3.04.83-6.63 1.94-9.12M470.82 275.1c-.83 0-1.1-.27-1.94-.82M505.44 275.66v-.55" fill="none" stroke="#010101" stroke-width=".86"/><path fill="none" stroke="#010101" stroke-width=".8584984999999999" d="M505.44 275.66l-.56 3.32h-.28M505.44 275.66l-1.11-.28-1.39 4.7"/><path d="M504.33 275.38c-.28-.27 0-.27 0 0M462.23 299.46c-.55-8.58 0-14.4.28-22.7M455.59 282.58v.27M455.59 282.58c0-.56.27-.83-.28-1.39l-.83.28c.55-.83 1.38-.55 1.1-2.21-.27-.28-.82.27-1.1.83" fill="none" stroke="#010101" stroke-width=".86"/><path fill="none" stroke="#010101" stroke-width=".8584984999999999" d="M454.76 279.53l.83-.27v-2.22 4.7"/><path fill="none" stroke="#010101" stroke-width=".86" d="M453.65 277.32l-.56 2.49M505.16 281.47l-.56 3.87M455.03 284.24h0M455.03 285.34l.28-.83M455.86 287.28l-.27.28M504.33 290.88c.27-1.1.27-2.21.55-3.6l-.28 3.6h-.27M455.86 289.77l-.27.56M453.93 290.33h0M503.5 292.82l-.83 2.49M504.33 297.8c.27-1.11.55-3.6.27-4.98M455.03 295.31h.28M456.97 295.31l-.28.83M500.17 308.87c.56.27 1.39-.56 1.94-1.39.28-2.76.83-4.98 1.39-7.75M502.11 307.48l1.39-.27c.83-1.66 1.1-5.54 1.1-7.48"/><path d="M503.5 307.2c.55 1.94-.28 3.33-.28 5.26-1.1.83-1.94.83-2.77.83" fill="none" stroke="#010101" stroke-width=".86"/><path fill="none" stroke="#010101" stroke-width=".8584984999999999" d="M501.84 313.02v-.83l-1.39.27"/><path fill="none" stroke="#010101" stroke-width=".86" d="M501.84 312.19l1.38-.56M500.17 308.87l-1.1 2.76M500.17 308.87l1.67-11.63M457.53 299.73h0M456.14 299.73h0M464.45 300.84l1.38 1.11"/><path fill="none" stroke="#010101" stroke-width=".8584984999999999" d="M462.79 301.95v-.28h.27l-.27.28"/><path fill="none" stroke="#010101" stroke-width=".86" d="M457.25 303.61l.28-.83"/><path fill="none" stroke="#010101" stroke-width=".8584984999999999" d="M457.25 303.6h-.83l-.28-1.1"/><path fill="none" stroke="#010101" stroke-width=".86" d="M460.02 303.33h0M459.74 304.72h.28M477.74 308.59c-1.94 1.1-4.7-1.1-7.48-.83M489.65 310.8l1.38.56M484.39 313.02v.83M484.11 313.57c.56-.28 1.1-2.49 2.22-2.21M494.36 314.12c.27-1.1 1.38 0 1.66-1.1l.55.27-2.21.83M490.48 314.95c.55.28.83.28 1.39 0M490.48 314.95l-2.49.28"/><path fill="none" stroke="#010101" stroke-width=".8584984999999999" d="M490.48 314.95v-.55l-2.5-.28"/><path d="M490.48 314.4c.55-.55.83 0 1.66-.55" fill="none" stroke="#010101" stroke-width=".86"/><path d="M466.11 327.13l2.22.28c.83 0 1.38.27 1.66 1.38.55.56.55 1.66.55 2.5-.28 1.1-.55 1.93-.83 2.48-.55 1.1-1.38 1.39-2.5 1.39l-1.93-.28.83-7.75M447 322.15l1.66.55c.83.28 1.39.83 1.66 1.94.28.55 0 1.66-.27 2.5a6.03 6.03 0 01-1.39 2.2c-.83.83-1.66 1.11-2.77.56l-1.66-.55 2.77-7.2M421.8 306.65l1.39 1.11c.83.55 1.1 1.1.83 2.21 0 .83-.56 1.66-1.11 2.5-.56.55-1.39 1.38-1.94 1.38-1.1.83-1.94.55-2.77-.28l-1.38-1.1 4.98-5.82M540.05 175.48l1.66 1.11c.56.83.84 1.1.56 2.21 0 .84-.83 1.67-1.39 2.5a8.4 8.4 0 01-1.94 1.38c-1.1.55-2.21.28-2.76-.55l-1.39-1.39 5.26-5.26M519 167.18l3.6-3.6-1.1 4.99zM519.84 323.26l-1.11-4.98 3.88 3.87z" fill="#fff"/><path d="M453.1 152.52l3.87-.83c3.05-.83 4.43 2.2 4.99 4.42.55 2.22.83 6.1-2.22 6.92l-3.88.83-2.77-11.34" fill="#21205f"/><path d="M455.03 154.18l1.94-.56c.83-.27 1.66-.27 2.22.56.55.55 1.1 1.38 1.38 2.49.28.83.28 1.66 0 2.49 0 1.1-.83 1.66-1.94 1.93l-1.66.56-1.94-7.47" fill="#fff"/><path d="M453.1 152.52l3.87-.83c3.05-.83 4.43 2.2 4.99 4.42.55 2.22.83 6.1-2.22 6.92l-3.88.83-2.77-11.34" fill="#21205f"/><path d="M455.03 154.18l1.94-.56c.83-.27 1.66-.27 2.22.56.55.55 1.1 1.38 1.38 2.49.28.83.28 1.66 0 2.49 0 1.1-.83 1.66-1.94 1.93l-1.66.56-1.94-7.47" fill="#fff"/><path d="M323.76 199.84l12.74 3.04c.28 0 .28.28.28.28v.27l-.28.28-1.1-.28a21.08 21.08 0 00-5.82-.83c-2.5 0-4.15.28-5.54.83-.55.28-.83.83-.83 1.39-.28.27 0 .83.28 1.1.27.28.83.56 1.38.83l27.7 6.65c.83.27 1.38.27 1.66 0l.83-.83c0-.56 0-1.39-.56-1.94a3.72 3.72 0 00-1.66-1.94 16.92 16.92 0 00-5.54-2.49l-3.6-.83s-.27 0-.27-.28v-.27h.55l3.32.83c3.6.83 5.82 1.93 7.2 3.6 1.11 1.1 1.39 2.49 1.11 3.87a4.3 4.3 0 01-1.66 2.21 6.17 6.17 0 01-3.6 1.1c-3.05 0-6.65-.27-10.52-1.1l-3.88-1.1a32.03 32.03 0 01-7.75-2.77c-2.5-1.1-4.16-2.21-5.27-3.6-.55-1.1-.83-1.94-.55-3.04.28-1.11 1.38-1.94 3.32-2.5l-1.94-2.2v-.28zM341.77 187.66l7.75 2.77c4.43 1.38 7.48 3.32 9.14 5.53.83 1.39 1.1 3.05.83 4.43-.55.83-1.1 1.66-2.22 2.21-1.1.56-2.21.83-3.87.83-2.5 0-4.99-.55-7.76-1.38l-8.86-3.32c-4.43-1.38-7.2-3.32-8.58-5.54-1.11-1.38-1.39-2.76-.84-4.15.28-.83.56-1.38 1.11-1.93.56-.28 1.11-.83 1.94-1.11.83 0 1.66-.28 2.77-.28 1.1 0 2.22 0 3.32.28a60.4 60.4 0 015.27 1.66zm13.57 13c1.1.28 1.93.28 2.49.28.55-.27.83-.27 1.1-.83 0-.27 0-.55-.27-1.1a3.81 3.81 0 00-1.1-.83l-26.87-9.69c-.83-.28-1.39-.28-1.94 0-.55 0-.55.28-.83.55 0 .56 0 .83.28 1.11.27.55.83.83 1.66 1.1l25.48 9.42zM333.18 176.87l-.83 1.1h-.28-.27c0-.27 0-.27.27-.27l2.77-5.26 18.83 7.47-16.61-11.9 2.77-5.26v-.27h.27v.27c.28 0 0 0 0 .28l-.55 1.1 28.52 14.95.84-1.38h.27l.28.27-3.6 6.37v.28h-.28v-.28-.28l.56-1.1-27.42-14.12 25.48 17.44c.27.27.55.27.55.27v.28l-.55 1.38h-.28-.55l-28.53-11.07 24.93 12.73c.83.28 1.38.56 1.66.56s.55 0 .83-.28l.55-.83c.28-.28.28-.28.28 0h.28v.28l-1.94 3.6h-.28v-.56c0-.55 0-.83-.28-1.1-.27-.28-.55-.84-1.38-1.11l-26.31-13.56zM344.26 156.11l-.56 1.11-.27.28h-.28v-.56l3.6-4.98 17.72 10.24-14.95-14.11 3.6-4.7v-.28h.28l.27.27-.27.28-.83 1.1 26.3 18.82.84-1.1h.27c.28.27.28.27 0 .27l-4.15 5.82s0 .27-.28.27v-.27h-.28v-.28l1.11-1.1-25.2-18 22.71 21.04c.28.27.28.27.28.55.27 0 0 0 0 0l-.83 1.38c-.28 0-.28 0-.83-.27l-26.31-15.22 22.7 16.6c.84.28 1.11.55 1.39.55.55.28.83 0 1.1-.27l.84-.56h.28v.56l-2.5 3.04h-.27v-.55c.27-.56.27-.83 0-1.11a4.86 4.86 0 00-1.11-1.38l-24.37-17.44zM375 138.4l6.1 5.54c3.31 3.04 5.25 6.08 5.8 8.58.56 1.93.28 3.32-.82 4.42a5.27 5.27 0 01-2.77 1.39c-1.39 0-2.5-.28-3.88-.83-2.5-1.11-4.43-2.5-6.65-4.43l-6.92-6.64c-3.32-3.05-5.26-5.81-5.82-8.3-.27-1.94 0-3.33 1.11-4.43a5.8 5.8 0 011.66-1.1c.56-.29 1.39-.29 2.22-.29.83.28 1.66.56 2.77.83 1.1.56 1.94 1.11 3.04 1.66a17.69 17.69 0 014.16 3.6zm7.2 17.16c.83.83 1.66 1.1 2.21 1.38.56 0 .83 0 1.11-.27.28-.28.28-.83.28-1.11 0-.55-.28-.83-.56-1.38l-20.77-19.38a3 3 0 00-1.93-.83c-.28 0-.83 0-.83.28-.28.28-.56.55-.28.83 0 .55.28 1.38.83 1.94l19.94 18.54zM379.15 120.97c-.27-.55-.83-.83-1.1-.83-.28-.28-.56 0-1.11 0l-.56.55h-.27l-.28-.27s0-.28.28-.28l3.04-2.5h.28v.28l-.28.28c0 .55-.27.83-.27 1.1.27.28.55.84.83 1.4l19.94 23.24-2.77 2.21-23.82-19.37 17.72 20.75c.56.56 1.11.83 1.39 1.11h.83l.83-.55h.28c.27 0 .27.27.27.27s-.27 0-.27.28l-3.05 2.5h-.28v-.56c.28-.56.56-.83.28-1.1 0-.56-.28-.84-.83-1.67l-19.39-22.7-.83.84h-.27c-.28 0-.28 0-.28-.28h.28l4.43-3.87 19.1 15.77-14.12-16.6zM384.97 113.77l-1.11.56s-.28 0-.28-.28v-.28l5.82-3.6h.55v.28h-.27l-.84.83L402.41 129l-8.86-18.26-1.38-1.66-.83.55h-.28-.28v-.27l.28-.28 5.82-3.6h.27v.56l-1.1.55 13.84 17.71-8.86-17.71c0-.28-.28-.55-.28-.55-.27-.56-.55-.83-.83-1.11-.27 0-.55-.28-.83 0l-.55.28c-.28 0-.28 0-.28-.28-.28 0-.28-.28 0-.28l3.05-1.94h.27v.28a2.1 2.1 0 00-.55 1.1c0 .84.28 1.4.55 2.22l12.19 24.9a7.5 7.5 0 01.83 2.22v.28l-1.38.83c-.28.27-.56.27-.56 0l-1.66-1.94-16.06-19.92 11.63 23.24c.55 1.1.83 1.94.83 1.94 0 .28 0 .28-.28.55l-1.38.83h-.28c-.28 0-.55-.55-1.38-1.38l-19.11-24.08zM407.95 99.94l-1.1.83-.28-.28c-.28 0-.28-.28 0-.28l11.35-5.25 5.27 11.34-.28.28h-.28s0-.28-.28-.55c-1.1-2.22-2.21-4.16-3.87-5.82-1.39-1.66-2.5-2.49-3.33-2.76-.55-.28-1.1 0-1.66.27l-1.38.56 6.64 14.11c.56-.55 1.11-1.1 1.11-1.94.28-1.38 0-3.04-1.1-4.98l-.56-1.66v-.28h.55l6.65 14.95v.55h-.28l-.27-.28-.56-1.38c-.83-1.94-1.94-3.32-3.32-4.15-.55-.55-1.39-.83-1.66-.55-.28 0-.28.27-.28.27v.56l6.37 14.11.55-.28c.56-.27 1.11-.83 1.39-1.38.55-.83.55-1.66.55-2.77 0-1.38 0-2.49-.27-3.87-.56-2.22-.83-3.88-1.39-4.98l-.55-1.11v-.55h.27l.28.27 5.54 12.46-11.63 4.98c0 .27 0 .27-.28.27v-.27-.28h.28l1.1-.55-13.29-29.61zM427.9 91.91l2.2-.83 13.86 29.61.83-.27c.27 0 .27 0 .55.27 0 0-.28 0-.28.28l-6.37 1.94h-.27v-.28s0-.28.27-.28l.83-.27-2.49-5.82-3.88 1.39.84 3.32v.55c.27.83.55 1.1.83 1.39.27.27.83.27 1.1.27h.56v.56l-3.88 1.1h-.28v-.27l.28-.28.83-.83v-2.77l-5.54-28.78zm1.93 8.03l3.32 17.15 3.6-1.38-6.92-15.77zM440.9 88.31l-1.38.28c-.27 0-.27-.28-.27-.28v-.27l7.47-1.39c0-.27 0 0 0 0h.28v.28h-.28l-1.38.55 6.37 31.55 1.1-.28c.56-.27 1.12-.55 1.4-.83.55-.55.82-1.38 1.1-2.76.28-1.66.28-3.88.28-5.81 0-2.22-.28-3.32-.28-3.88v-.55h.55l2.5 13.28-12.19 2.5h-.28s0-.28-.27-.28l.27-.28 1.39-.28-6.37-31.55zM459.74 85h-.55a.6.6 0 00-.56.55c-.55.27-.83 1.1-.83 1.93a22.16 22.16 0 00-.83 6.37c-.28 2.49-.28 3.87-.28 4.43v1.1c-.27 0-.27 0-.27-.27-.28 0-.28 0-.28-.28l-1.38-13.84 14.4-1.38 1.38 13.84v.27h-.28c0 .28-.27 0-.27 0v-.27-.83c-.28-.83-.56-2.22-1.11-4.43a43.27 43.27 0 00-2.22-5.81c-.27-.83-.83-1.39-1.1-1.66 0-.28-.28-.28-.56-.28h-.83l3.33 32.1h1.66c.27 0 .27 0 .27.28l-.27.27-8.03.83s-.28 0-.28-.27v-.28h.28l1.93-.28-3.32-32.1zM475.25 115.99l.83-32.1h-1.38l-.28-.28s0-.28.28-.28h6.64l.28.28c0 .28 0 .28-.28.28h-.83l-.28 15.22H483l.56-14.95h-1.11c0-.27-.28-.27-.28-.27 0-.28.28-.28.28-.28h6.92l.28.28c0 .27 0 .27-.28.27H488l-.83 32.1 1.38.28h.28v.28c0 .27-.28.27-.28.27l-6.64-.27h-.28v-.56H482.73l.27-16.6h-2.77l-.55 16.6h1.1l.29.28c-.28 0-.28 0-.28.28l-6.93-.28c-.27 0-.27 0-.27-.28l.27-.27h1.39zM512.91 100.21l-1.66 8.03c-.83 4.7-2.5 8.02-4.15 9.68-1.39 1.39-2.77 1.94-4.43 1.66a4.98 4.98 0 01-2.5-1.66c-.83-1.1-1.1-2.21-1.38-3.87a24.8 24.8 0 01.28-7.75l1.93-9.4c.84-4.43 2.22-7.48 4.16-9.42a4.57 4.57 0 014.15-1.38c.56.28 1.39.55 1.94.83.56.55.83 1.1 1.39 1.94.27.55.55 1.66.55 2.77.28 1.1.28 2.2.28 3.32 0 1.93-.28 3.6-.56 5.25zm-11.07 15.5c0 1.1 0 1.94.27 2.5 0 .54.28.54.83.82.28 0 .56 0 .83-.28.56-.27.56-.83.83-1.38l5.54-27.95c0-.83 0-1.38-.27-1.94 0-.27-.28-.55-.83-.55-.28-.28-.56 0-.84.28-.55.27-.83.83-.83 1.66l-5.53 26.84zM521.5 89.97l-1.11-.55c-.28 0-.28-.28-.28-.28s.28 0 .28-.27l11.63 3.87-3.6 11.62c0 .28 0 .28-.28.28-.27 0-.27 0-.27-.28 0 0 0-.27.27-.55.28-1.66.56-3.87.84-5.81 0-2.21 0-3.87-.28-4.7 0-.28-.28-.83-.56-1.11-.27-.28-.83-.28-1.38-.55l-.83-.28-4.7 14.94a3 3 0 001.93-.83c1.1-.83 2.22-2.49 2.77-4.98l.55-1.1v-.28h.28v.27c.28 0 .28 0 0 .28l-4.99 15.77c0 .28-.27.28-.27 0-.28 0-.28 0 0-.27l.55-1.66c.56-2.22.83-3.88.28-5.26-.28-.83-.56-1.38-1.39-1.38l-4.7 15.22 1.38.27v.56h-.28l-6.92-2.22h-.28v-.55h.28l1.39.55 9.69-30.72zM545.87 99.1l-1.1-.82h-.29V98c.28 0 .28 0 .28-.28 0 0 .28 0 .28.28l6.37 3.32s.27.28 0 .28l-.28.27-1.1-.83-7.48 14.4 9.96-8.59c.84-.55 1.11-1.1 1.39-1.66.28-.27.55-.83.28-1.1 0-.28 0-.56-.28-.83l-.83-.56v-.27h.28c0-.28 0-.28.27 0l4.71 2.49c.28.27 0 .27 0 .27v.28l-1.1-.55c-.56 0-1.11 0-1.67.27-.55.56-1.66 1.11-3.05 2.5l-4.7 3.87-4.99 22.14.83.55h.28v.28c-.28 0-.28.27-.28.27h-.27l-6.1-3.32-.27-.27c.27-.28.27-.28.55-.28l1.1.55 3.6-15.5-7.2 13.57 1.12.83h.27v.27s-.27 0-.27.28l-.28-.28-6.37-3.32v-.27h.28l1.1.55 14.96-28.5zM564.42 109.35l-1.38-.83v-.56h.28l10.52 7.2-6.92 10.24h-.56v-.28s0-.28.28-.55c1.38-1.94 2.21-4.15 3.04-6.37.56-1.94.84-3.32.56-4.15 0-.55-.56-1.1-1.1-1.38l-1.12-.83-8.86 12.73a2.7 2.7 0 002.5.27 8.83 8.83 0 003.6-3.6l1.1-1.38c.28-.28.28 0 .28 0v.28l-9.42 13.56h-.27v-.28l.83-1.38a7.59 7.59 0 001.94-4.98c0-.83 0-1.39-.56-1.66 0 0-.28-.28-.28 0 0 0-.27 0-.27.27l-8.86 12.73.55.28a4 4 0 001.94.55c.55 0 1.66-.27 2.77-1.1.83-.56 1.94-1.39 3.04-2.22 1.39-1.66 2.5-2.77 3.33-3.87l.83-1.1h.27s.28 0 .28.27l-8.03 11.34-10.25-7.2-.27-.27h.27v-.28c.28 0 .28 0 .28.28l1.1.55 18.56-26.28zM584.09 127.06c.27-.28.55-.83.55-1.11.28-.28 0-.83 0-1.1l-.83-.56c0-.28 0-.28.28-.28v-.27s.27 0 .27.27l3.05 2.5v.27l-.28.28s0-.28-.27-.28c-.56 0-.84-.28-1.39 0-.28 0-.55.28-1.1.83l-19.95 22.97-2.77-2.22 15.79-26.56-18 20.75c-.56.56-.83 1.11-.83 1.39 0 .55 0 .83.27 1.1l.56.83v.28h-.28-.28l-2.76-2.77h-.28c0-.27 0-.27.28-.27h.55c.28.27.83.27 1.1.27.28-.27.84-.55 1.4-1.1l19.38-22.7-.83-.83v-.27h.27l4.43 3.6-12.74 21.58 14.4-16.6zM594.06 133.97l-.28-.27c-.28-.28-.56-.28-.83-.28-.56 0-1.11 0-2.22.55-1.66.83-3.6 1.66-5.54 3.05-1.94 1.38-3.32 2.21-3.6 2.77l-.55.27h-.28c-.27 0-.27-.27-.27-.27.27 0 .27-.28.27-.28l10.25-9.41 9.7 10.52-10.25 9.4c0 .28-.28.28-.28.28h-.28v-.28c0-.27 0-.27.28-.27l.55-.56c.56-.55 1.66-1.93 3.05-3.6a77.1 77.1 0 003.32-4.97c.56-1.11.56-1.66.56-1.94v-.83l-.56-.28-23.81 21.59 1.1 1.38v.28h-.27l-5.54-6.09v-.28s0-.27.27-.27v.27l1.39 1.39 23.82-21.87zM604.58 146.43l-.83-1.1c0-.29 0-.29.28-.29h.27l4.16 5.82v.27h-.56l-.55-1.1-24.93 17.7c-.55.56-.83.84-.83 1.39-.27.28 0 .83.28 1.38a2.91 2.91 0 002.5 1.39c1.1 0 2.49-.28 3.87-1.39l19.94-14.11c.83-.83 1.38-1.1 1.66-1.66 0-.28 0-.55-.28-1.1V152.78h.28l2.22 3.05v.27h-.28c-.28 0-.28 0-.28-.27-.27 0-.55-.28-.83-.28-.55.28-1.38.55-2.21 1.1l-20.5 14.67c-1.38.83-2.49 1.39-3.87 1.11-1.11-.28-2.22-1.1-3.33-2.5-1.1-1.65-1.66-3.03-1.38-4.42.27-1.1 1.38-2.21 3.04-3.32l22.16-15.77zM620.64 169.95l-11.63 6.36c0 .28-.28.28-.28.28s0-.28-.27-.28v-.27s.27 0 .27-.28l1.11-.55a25.09 25.09 0 004.43-3.05c1.94-1.93 3.05-3.32 3.6-4.7 0-.55 0-1.1-.27-1.38-.28-.56-.56-.56-.84-.83-.55 0-1.1.27-1.66.55l-24.92 13.84c-.56.27-1.1.83-1.1 1.1-.29.55-.29.83 0 1.1.27.56.82 1.12 1.65 1.4.83.27 1.66.27 2.5.27 1.93-.28 3.87-1.1 5.81-2.22l3.05-1.65c.27-.28.27-.28.55-.28v.55l-.28.28-3.04 1.66c-3.05 1.66-5.54 2.49-7.76 2.21a4.55 4.55 0 01-3.32-2.21c-.55-.83-.55-1.66-.28-2.77 0-.83.83-1.94 1.94-3.04 1.94-2.22 4.99-4.43 8.59-6.37l3.32-1.93a38.51 38.51 0 017.75-3.32c2.5-.84 4.43-1.11 6.1-.84 1.1.28 1.94 1.11 2.49 1.94.55.83.28 2.22-.55 3.88l2.76.55h.28zM622.86 176.6l-.56-1.4v-.27h.28c.28 0 .28 0 .28.28l2.77 6.64s0 .28-.28.28h-.28l-.55-1.39-14.96 6.09h13.3c.83 0 1.66 0 2.21-.28l.83-.83c.28-.27.28-.55.28-.83l-.28-.83c0-.27 0-.27.28-.27h.28v.27l2.21 4.98c0 .28-.27.28-.27.28h-.28l-.56-.83a1.52 1.52 0 00-1.38-.83c-.83-.28-1.94-.28-3.88-.28h-5.81l-18.28 13.84.28.83v.28h-.56l-2.77-6.65c.28 0 .28-.27.28-.27h.28l.55 1.38 12.74-9.68-14.12 5.8.27 1.4c.28 0 .28 0 0 .27h-.27l-2.77-6.92v-.28c.27 0 .27 0 .27.28l.56 1.1 29.9-12.17zM615.38 203.43l14.68-7.74v-.83c-.28-.28 0-.28 0-.28v-.28c.27 0 .27 0 .27.28l1.94 6.92v.27h-.55l-.28-1.66-13.84 7.2 12.18-.56c.28 0 .83-.27 1.1-.27.56 0 1.12-.28 1.4-.56.27-.27.27-.55.27-.83v-.83s0-.27.28-.27l.27.27.83 3.6s.28.28 0 .28c0 0-.27 0-.27-.28-.56-.55-1.66-.83-3.05-.55l-14.12.55-15.23 4.15.27 1.66v.28h-.27l-.28-.28-1.94-7.75v-.27h.55l.28 1.93 15.51-4.15z" fill="#e6ad05"/></svg>