<svg xmlns="http://www.w3.org/2000/svg" xmlns:xlink="http://www.w3.org/1999/xlink" height="300" width="600"><path d="M0 0h600v300H0z" fill="#cf142b"/><g transform="matrix(1.05678 .03432 -.03393 1.03889 -14.5 -31.1)" fill="#f9dd16" stroke="#000"><g id="a"><path d="M226 126.3a21 21 0 002.9 1.8l6.8-1.6s-3.8 4.6-3.6 4.7l4 4.7-7.2-.6-4.8 3.8-1-5-6.2-2.2 5.2-1.8 1.6-4s2 .3 2.3.2z"/><path d="M314.5 136.2c0-4.2-8.4-23.4-9.7-26.4a38 38 0 01-6.5-12.6c-.7-4.4-3-7.9-6.4-9-3.9-2.1-7.6-1.3-11.2-1a6.3 6.3 0 00-4.2 2.7c-2 2.8-3 2.6-4.3 3.8-11.2 1.8-21.7 7.5-29.7 11.4-4.2 3-7.8 4.6-9.5 5-4.5 0-7.7-2.1-9.3-3.3L208.3 93c-4.4-3.3-5.5 1.5-4.6 2.2 1.4 3.2-1.8 5.1 10.4 16.6l4.6 9.4s-.2 2.6 0 2.7c2.2 5.3 5.7 4 7.4 2.5l3.6-3.3s7.2-2.2 7.3-2.5a98 98 0 0030.7-4.1c3-1.7 3.1-.3 5.7-2.4 2.1-1.4 1-.2 4.9-3.8 1.2-1 2.1.6 2.4 1.8.2 11.2 1.5 18.3 2.6 29.4L300 150z" fill="#fff" stroke-width="1.3"/><path d="M217.8 102.3c.2.1-2.7 9.6-2.7 9.6l-2.7-2.7 1.9-10z" stroke="none"/><g fill="none"><path d="M218 102l-1 4.2-.6 2.6-.7 2.6c0 .8-.3 1.6-.5 2.4m-1.8-16.2l.3 1.5-.5 3.4-.4 2.4-.6 2.2c0 .8-.2 1.5-.4 2.3" stroke-width="1.1"/><path d="M262.2 96.6c3.6 4 4.7 10.5 4 14.1M248.4 120.2v-.1c-.2.4 0 .2-.4-.7-.4-.4-.7-2.6 0-3.8l.9-2.1c0-.2.3-.4.4-.5M222.8 106.8v.1c0-.2-.2.3-.3.5l-1.1 1.8-1.2 1.8-1.2 2-1.2 2-1 1.5 1-1.6-1 1.6M209.8 94.7l.4 1.4c-.1.5-.2 2.5-.4 3.1a23 23 0 00-.4 2.2l-.4 2.2c0 .7-.2 1.3-.3 2M225.4 117.6c-.8-1-1.3-.6-1.9-.6-.6 0-1.7.6-2.8 1.7l-1.2 1.2-.7.7M288.5 87.8s0 0 0 0c.1-.3 0 0 .2.8.2.7.2 1.1.5 1.7M275.4 91.2c0 .1-.1 9.1.2 10.3l.5 2.3.1 1.5.7 1.6c.2.6.7.7 1 1.2.3.5 1 1.2 1.3 1.5M269.1 116l-1.6-1c-.6-.4-2.3-2.4-2.4-3.8"/><path d="M275.9 103.1l-2.4 2.5c-2 1.8-7.2 4.9-7.8 5.1-.6.3-1.4 1-2 1l-2 .6-2 .3a55.6 55.6 0 01-13.8.3l-1.7.1c-.7 0-1.2 0-1.8.2-.5.2-1.3.5-1.9.9-.8.3-1.2.7-1.8 1l-8.4 5c-.8.4-3.7 1.2-4.4-.8l-.6-2.2c-.2-.7 0-1.5 0-2.2.6-3.4 1.7-4.7 2-5.3l.4-.6M297.9 96.4v.2c0-.4 0-.2-.5.4l-1.5 1.4-1.3 1.3c-.4.5-.9.6-1.4 1-.8.2-1.3.5-2 .8l-2 1.3c-.5.6-1 1-1.4 1.7l-1.1 2-1 1.7 1-1.8-1 1.8M291.6 144.2l.1-.2c-.2.4-.2.3 0-.5l.3-2.8.3-2.7c0-1 0-2-.2-3l-.2-2.8c0-.8 0-1.6-.2-2.5 0-.6 0-1.5-.3-2.3.1-.6 0-1.2-.2-1.7l-.6-2.5-.5-2c0-.8-.5-1.8-.7-2.4l-.5-1.7c-.2-.6-.6-1.2-.7-1.8l-.7-1.8-.7-1.8c-.3-.7-.6-1.3-.7-2-.3-.2-.3-.4-.5-.6"/></g><path d="M289.9 91.7c-.9 2-3 4.8-3 4.9l-2.1 4c-1 2.4-.4 3.3 0 4 .9 1.4 1 2.2 1.6 3.3.2 1.4-2.2 1.8-2.2 1.9-5.2 1.8-7.7-3.1-7.8-3.4-.7-2.6-.6-3 1-3.5 1.8-.4 2.5-.5 3.4-1.1 1.7-1.3 2.9-5 2.9-5.1l.2-2.2c.2-1-.3-2 .2-3.5.7-1.6 1.1-2 2.7-2.1 2-.2 3.7 1.2 3 2.8z"/></g><use transform="rotate(120 300 150)" xlink:href="#a" width="100%" height="100%"/><use transform="rotate(-120 300 150)" xlink:href="#a" width="100%" height="100%"/><path d="M304.6 169.4c-1.8-1-3.1-1.1-3.8-.7-1-5.7-1.9-11.5-3.2-17.2l-16.8-7.1c1.7-1.1 2.5-2.2 2.5-3 5.5 2 10.9 4.1 16.5 5.8l14.6-11c0 2 .6 3.3 1.3 3.7-4.5 3.7-9 7.4-13.3 11.4l2.2 18z" stroke-width="1.3"/></g></svg>