<svg width="1500" height="900" xmlns="http://www.w3.org/2000/svg"><path fill="#fff" d="M0 0h1500v900H0z"/><path d="M699.2 647.7c98.4-54.1 159.2-196.1 141.5-382h-283c-17.6 185.9 43.2 327.9 141.5 382" fill="#1f2c5c"/><path d="M611.3 281.3l7.4 22.4 23.5.3-18.9 14 7 22.6-19-13.7-19.2 13.7 7-22.6-18.8-14 23.5-.3 7.5-22.4" fill="#fff"/><path d="M888.7 515.2l.4-1-.4 1" fill="#31319c"/><path d="M897.2 350.4s-1.9.2-4 1.5l-6.3 9.6c-.3-6 2.5-13.1 6.2-20.8l2.8-5.5c8-15.6-2.8-20-2.8-20v.6l-28.9 4.1c-20.4 21.5-11.8 60.3-3.7 110.2 6.5 39.9 8.2 46 2.3 72v.1l-8-2s-10.2 2.5-12.7 14.9c-8.3 42-7.7 61-43.3 96.8-37.7 38-66.8 35.5-77.3 35.5s-6 14-6 14v.2c-4.8.6-10.6.7-16.7.7-5.6 0-11.2 0-16-.7l.2-.1s4.5-14-6-14c-10.6 0-49.5-3.2-76.8-36.2-27-32.7-37.5-53.7-39.5-63.8.5-.1 4.5-.7 7.4-1.9 3-1.2 7.4-9 3-23.6-4.3-14.7-8.6-21.2-16.3-19.4l-5.9 1.6-.1.2c-8.8-14.2-12.8-36.9-6.9-74.3 8-50 16.7-88.7-3.7-110.2l-29.5-4.2-.2-.5s-10.2 2.8-4.1 15c6 12.1 5.5 12.1 1.3 22-4.1 9.7-1.4 16.2 6.5 21.8 0 0-7-9.3 3.3-17.2l6 9.3.4-.7c-.6 12.6-3 30.1-8.3 58.2-10.6 56 4 92.9 18.9 100l7.7-2.3a35 35 0 014.4 16.5l.3.2-9 3s-3.7 8.7-1.2 15.5c2.4 6.9 12.3 41.7 43.3 72.9 30.9 31 54.5 44.3 93.4 45.6v8.5c0 6.7 13.6 7.5 26.9 7.5H699.2c14 0 27.8-.7 27.8-7.5V675c39-1.3 65.2-14 95.3-46 34.3-36.4 43.3-81.2 47-105.5v-.3c.5.2 3.7 1.6 7.4 2.2 3.7.5 6.4 1.9 11.1-8.2l1.6-4c12.4-29.8-.6-89.6-.6-89.6a516.2 516.2 0 01-7.9-52.2c1.1.5 9.1 4.4 13.2 2 4.3-2.5 5.5-5.9 1.8-11.5s-1.2-9.6 1.2-11.5" fill="#1f2c5c"/><path d="M699.2 691c-13.6 0-27.8-.6-27.8-7.5V655c0 6.8 14.2 7.5 27.8 7.5m-16.2-.9s4.5-14-6-14c-10.6 0-49.5-3.2-76.8-36.2-27.2-33-37.7-54.2-39.5-64.1-2-10-3.1-13.7 1.8-15L536 541s-3.7 8.7-1.2 15.5c2.4 6.9 12.3 41.7 43.3 72.9 30.9 31 54.5 44.3 93.5 45.6m-.1-19.6c0-3 2-4.6 5.2-2.1 4.3 3.4 7.1 1.6 6.8-1.6M560.7 547.5s4.3-.6 7.4-1.9c3-1.2 7.4-9 3-23.6-4.3-14.7-8.6-21.2-16.3-19.3l-5.9 1.5m-8.7 17.2a35 35 0 014.4 16.4m-12-14.3L559 516c-15.3-12-25-36-17.2-85.9 8-50 16.7-88.7-3.7-110.2l-29.7-4.2s8.8 4.2 11.6 21c2.8 16.8 4.2 30.8-6.5 86.9-10.6 56 4 92.9 19 100zm-24-208.3s-10.3 2.9-4.2 15c6 12.1 5.5 12.1 1.3 22-4.1 9.7-1.4 16.2 6.4 21.8 0 0-6.8-9.3 3.4-17.2l6 9.3m40.3 166.2s7.4-2 4 5.2l-1.7 3.5c-1.3 3 1.7 6 4.3 4.2m-9.6-29.1c3.9-1.2 6.4-4 1.1-5.8-5.7-2-5.4-7.2-2.6-8m142 188.7c13.5 0 27.8-.6 27.8-7.5V655c0 6.9-14.3 7.5-27.9 7.5M727 675c39-1.3 65.2-14 95.3-46 34.4-36.4 43.3-81.2 47-105.5 2.2-13 6-18 10.3-17.1l-24.8-6.2s-10.2 2.5-12.7 14.9c-8.3 42-7.7 61-43.3 96.8-37.7 38-66.8 35.5-77.3 35.5s-6 14.1-6 14.1m11.6-6c0-3.1-2-4.7-5.2-2.2-4.3 3.4-7.2 1.6-6.8-1.6m154.2-128.5s3.4 1.5 7.5 2.2c4 .6 6.8 2.2 12.3-11.2 5.6-13.4-12 29 .3-1 12.4-29.8-.6-89.6-.6-89.6-10.7-56-9.3-70-6.5-86.9 2.8-16.8 11.6-21 11.6-21l-29.7 4.2c-20.4 21.5-11.8 60.3-3.7 110.2 6.5 39.9 8.2 46.1 2.3 72m30.3-186.9s10.9 4.4 2.8 20c-8 15.5-14.2 29.6-2.8 37.3m-12.3-1.2s9 4.7 13.3 2.2c4.3-2.5 5.6-6 1.8-11.6-3.7-5.6-1.2-9.6 1.3-11.5 0 0-8 .7-10.2 11.2m-8.7 144.8c5.3 1.2 5.3 7.2 1.6 10.3-3.8 3-5.6 7.7-1.3 9" fill="none" stroke="#fff" stroke-width="2.8"/><g fill="#e6a300"><path d="M642.7 373.9c.4.4.6 1.2.4 1.5-1.2-.1-2.7-.4-4-1-.6.1-1.1-.6-1.6 0-.4.2-.2 1.2-1 .8-.2-.7-.1-1.7.4-2.2.9-.6 2.7-.5 3.9 0 .8-.2 1.3.2 1.9.8M641.5 376.4c1 .2 1.6.7 1.7 1.8l-.2.4c-2.3-1.5-5 0-7.2 0-.3-.7-.3-1 0-1.5 1.2-1 3.3-1.5 5-.7h.7M643.3 380.7v1c-1.4-.5-2.8-1-4.3-.7l-3.1 1.1c-.6-.3-.4-1-.4-1.4 1-1.2 2.5-1 3.7-1.4 1.6-.1 3.3-.1 4.1 1.4M640.3 384.6c-.3.6-1 1-1.6 1.4-.5 0-.8-.5-1-1 .6-.6 1.6-.5 2.4-.8l.2.4M759.6 394c-1.6 7-4.1 14-6 21-.7 1.1-.7 2.6-1.5 3.7-1.8 6.8-4 13.3-6.1 20-1.6-2.7.7-4.9 1-7.3.7-3 1.8-5.7 2.4-8.8 1.6-3.4 1.8-6.8 3.6-10.4 1.3-4.8 2.6-9.6 4.1-14.1.7-1.4.8-2.8 1.3-4.2.4 0 1-.2 1.1.1M756.5 396.8c-.7-.6-1.3-1.6-1-2.7l1.1-2.3c1 1.3.4 3.7-.1 5M759.5 403c-.5.2-.7.8-1.3 1 1.1-3.3 1-7.8 4-10.1-.7 3-1.6 6-2.7 9M756 398.6c-1 1.9-1.2 3.9-2 5.8-1.4-2.3 0-4.9 1-7.2.3.5 1.8.4 1 1.4M753 408.3c-.7 0-.6-.7-1-1-.3-.9 0-2 .7-2.8 1.9.9.5 2.5.3 3.8M758.9 405c-.4 1.7-.3 3.8-2.3 4.3 0-1.6 1-3.1 1.2-4.8.4 0 .6.7 1 .6"/></g><path d="M753.4 408.3c-.6 0-.5-.7-.9-1-.4-.8 0-2 .6-2.7 1.9.9.5 2.4.3 3.7zm5.8-3.2c-.4 1.6-.3 3.7-2.2 4.2 0-1.6.9-3 1.2-4.7.3 0 .5.7 1 .5z" fill="none" stroke="#000" stroke-miterlimit="10" stroke-width=".6"/><path d="M761.6 393.2c-1 .8-1.7 1.8-2.2 3l.6-2.2.1-.8h-.5c-.3-.2-.7-.2-1-.2h-.7l-.3.4v.2c0-.9-.2-1.7-.7-2.4l-.7-.9-.4 1-1 2.3a3 3 0 00.7 3.2l-.3-.2-.7-1-.4 1.2-.5 1.2c-.8 2-1.7 4.3-.4 6.5l.6 1 .3-.5-2 6.8c-.9 1.9-1.4 3.7-1.9 5.5-.4 1.7-.9 3.2-1.6 4.8v.1c-.3 1.7-.8 3.3-1.3 4.8l-1.1 4c-.1.8-.4 1.5-.7 2.3l-.6 1.5c0-3.2.6-6.3 1.2-9.2.9-4.7 1.8-9.5.9-14.6 0-.5-.2-1-.4-1.3l-.2-.3.9-2.6c.3-3.3-.7-6.5-2.8-9l-.3-.5-.2-.6c-1.3-4.4-2-8.8-2.6-13.4-.4-2.7-.8-5.5-1.4-8.3-1-2.5-1.8-5-2.6-7.4-1.4-4.3-2.8-8.8-5.1-12.8-1-2.9-3.9-3.5-6.3-4a2 2 0 00-.8-.2l-.3-.1-.2-.2h-.3l-.8-.1c-.3-.4-.9-.4-1.2-.4h-.3v-.1c-.8-.4-1.4-.5-1.9-.3-.7.2-.9 1-1.1 1.6v.2a1 1 0 00-1-.5h-.6v.6c0-.4-.2-.8-.4-1.2v-.1a15.6 15.6 0 01-3.6-10.4v-.8l.5-.4-.4-.3.3-3.4c0-1.3.1-2.4.4-3.7v.5l-.2 3.3-.1 1.2c-.2.9-.3 1.8.1 2.8l.4.8-.6.2c.1 1.6.4 2.7.7 3.5.1 1.3.7 2.2 1.2 3.2.5.7 1 1.4 1.1 2.4l1.3-.2c-.1-1.1-.7-3-1.3-4.2l-.1-.2c-.8-.7-1-1.8-1-3l1 2.7c.7 1.5 1.4 3 1.7 4.5l1.3-.3-.2-1.3c0-.9 0-2-.7-2.8-.3-1.2-.8-2.4-1.3-3.5-.8-1.9-1.6-3.6-1.4-5.6v-.2l-.1-1.2c0-.6 0-1.2-.3-1.9l.2-.1v-.4-.7c0-.4 0-.8-.2-1.3.6-2.5.5-5.6.4-8.3 0-6.6-2.5-11.8-7-14.3h.2l-1.1-.5-.5-.1-.2-.2h-.3c-.3.1-.6 0-1-.2-.5-.2-1.1-.4-1.9-.2-.6-.2-1.2 0-1.7 0-.5.2-.7.2-.8.1.3-1.5 0-3-.6-4.1l-1-1.8c-.1-.9-.3-1.7-.7-2.4l-.7-1.5-.3 1.3c-.3-2.8-1.6-5.5-4-8.2l-1.4-1.7.2 1.1a5.4 5.4 0 00-6-3h-.3l-.2.3c-.7 1.1-.7 2.3-.7 3.3v.7l.1.1c.8 1.4 2.2 2 3.5 2.5l-.7-.1-1.3-.2h-.7v.7c0 .3 0 .5.2.7a9 9 0 00-5-2.8h-.4l-.2.2c-1 1-1 2.6-.7 3.7 0 2.2 1.7 3.5 3.5 4.4l-1-.2h-.9l.3.9a7.8 7.8 0 00.2.6v.2l.1.2.8 1.5c.7 1.5 1.5 3.4 3.8 3.2h.1c-.3 0-.6.2-1 .4l-.3.3.1.4c.4 1.1 1.2 1.7 2 2.2.8.6 1.3 1 1.4 1.7l.1.3.3.1.6.3c.5.4 1.5 1 2.4.1l.2-.2c-3.1 4-4.8 9.4-4.7 14.8l.8.1v.1h-.9c0 1.4-.2 3 .4 4.6l.6 1.5.5-1.2.3 1.2-1 .1v1.1c.3 1 .4 2 .4 3.2l.1 2-.1.8c0 .5-.1 1-.3 1.3-1 3-2 6.2-1.9 9.3l-.2-.3-.4.2-2 .6c-1.2.5-2.4.9-3.7 1.2-1.8 0-3.3.4-4.4 1.2h-.1v.1l-1.3 1.5c-1 1.3-2.2 2.6-2.7 4.3a14.5 14.5 0 00-2.1 9.6c-.1 3.2-.6 5.9-1.4 8.5v-.1c-.7 1.4-.7 2.7-.7 4 0 1 0 1.9-.4 2.8v.2c0 1.3-.5 2.5-1 3.7-.7 1.3-1.3 2.7-1.4 4.3v2h-.1l.2.6.8 1.2-1.9-1.3-1.4-1c-1.5-1-3.2-1.5-4.9-1.9-2-.5-4-1-5.5-2.6-.6-3.2-.8-6.9-1-9.7l-1.4-13.6v-.6c0-3-.4-6.2-.7-9.3a157 157 0 01-.6-7.2v-.3l.2-.2h-.2v-.2h-.1c0-.2-.2-.3-.3-.5v-.6c.1-1.8 0-3.5-.2-5.1-.2-1.4-.3-3-.3-4.5v-.2a7.2 7.2 0 01-.4-5.2l.1-.3-.2-.2v-.1c0-.2 0-.5-.3-.8-.4-.2-.8 0-1 0l-.4.1v.1h-.2v.7c0 .5-.4.8-1 1.2l-.3.2-.1.1c-.6.7-.2 1.4 0 1.8.2.3.3.5.2.7-1.3 5.4-2 10.4-2.8 15.7l-1 6.3-.6 4.3c-.5 3.3-1 6.4-1.3 9.8v.3l.2.2.5.6h.1c-1.3-.3-3-.2-3.9.4h-.1c-.6.7-.8 1.8-.6 2.9l.1.3.3.1.4.1-1.2.7h-.1v.2c-.4.7-.4 1.2 0 2v.4h1.8c-.7 0-1.5.4-2 1l-.2.2v.5c0 .5-.1 1.4.7 1.8l.2.1h.3l.1-.1c-.7.3-1.2.8-1.4 1.8v.2c.6 2 2 3.4 3.2 4.4-.4 5.4-.6 9.8-.6 14.8-1.1 16.3-.5 32.4.1 48l.2 5.9 1.2 11c.8 8.4 1.7 17.2 3 25.4a400.9 400.9 0 0023.9 89.2c-.4.6-.5 1-.4 1.4.2.6.7.9 1.1 1 .6.3.9.4 1 1v.7l.7-.2c.6.2 1 0 1.2-.5v-.2c.1-1.1-.2-2.1-.5-3-.3-1.1-.6-2.2-.4-3.3v-.1l-2-27-.7-7.4a229.7 229.7 0 01-1.3-18c-.4-5.1-.8-10-1.4-15-.3-7.2-1-14.7-1.6-21.9-.7-7.2-1.3-14.6-1.7-21.8-.5-4.6-.8-8.8-1-14v-.1a16 16 0 01-.5-3.5c0-1.1 0-2.3-.3-3.4l-1.2-15-1.2-14.7v-.3l-.2-.1v-.1c0-2.6-.2-5-.4-7.4a129 129 0 01-.3-5.1 21 21 0 008.6 5.3c.7.4 1.3 1 1.9 1.5 1.3 1 2.7 2.3 5.1 1.9h.1c1.4-.5 2-1.6 2.6-2.6.3-.5.5-1 .9-1.4v-.1c.2-.2.2-.5.2-.7v-.1h.3l.2-.3 1-1.1v.3l-.4.7h.5v.3h1.3v-1l.7-2.3v.7h1.2l.2-1.4.2-1.2c0 .2.2.4.4.6l.6.7.4-.8c1.8-3.4.8-7.3 0-10.7V393.2c-.3-.5-.2-1.2-.2-2 0-1 0-2-.5-2.9 0-1.4-.4-2.9-.7-4.3l.6.8 1 1v-1.4l.2-.5-.1 1.2v.1c.8 6.5 1 13.4.5 21.6v.2c.2.9.2 1.7.2 2.4 0 1.2-.1 2.5.6 3.7l1 3 .3.5c.3.6.2 1.2 0 1.7v.3l-.1.8h.1l.2.8h.2a1 1 0 00-.3.6c0 .4.1.7.3 1l.6 1.7-.4.3v.1l-.1.2c-.1.6 0 1 .2 1.4.1.2.4.4.8.5h.2l.5.4c-2.9 2.5-3.2 6-3.5 9-.2 1.4-.3 2.8-.7 4v.2c-.2 6.3-2 12.2-3.4 17.5v.1c-.2 1.5-.6 3-1 4.5-.6 1.8-1.1 3.8-1.1 5.5v.1c.4 2.1.3 4.9-.3 8.2h-.2v.6l-.1 2.7v1l-.1.8-.1 1.5v1.3c0 .7-.2 1.4.2 2.1a1 1 0 000 1c.3.3.7.4 1.1.3l.8-.2-.4-.7-.1-.3.2-.2.8.2c.5-1.3.3-2.7.1-4.1v-.5l.5-.1c.5 2.7.5 4.9.4 7 0 2.3 0 4.6.6 7.4l.5 2.3c.9 3.5 1.7 7 1 10.5v.1c0 2.4 1 4.5 2 6.4l1.2 2.6-.5-.9-1.2-1.9v2.2l-.1 1.9c-.1 1.4-.3 2.8.2 4 0 .2 0 .4-.2.7l-.3.6v.2c-.5 7.5.4 14.6 2.5 20.6v.1h.1v.1c0 .3 0 .7.3 1l.2.6c-.1-.2-.3-.3-.6-.4l-.8-.2v.8c.1 2.3.5 4.4 1 6.3.5 2.5 1 4.9.7 7.8 0 .8-.3 1.5-.5 1.9l-.1.1a8.1 8.1 0 01-1.9 3.3v.1l-.3-.2v.3l-.2.3.2.2-.5.9h-.2l-.1.2-.1.2-1 1.7c-1 1.5-2 3.2-1.2 5.1v.2c-.7 1.5-2 2.5-3.3 3.5-1.7 1.3-3.4 2.6-3.7 5.3-.1 1.8.3 3.5.8 5.2l.4 2v.2l.3.1c1.4 1.2 3.4.2 4.8-.5l.2-.1c1-.2 1.8-.9 2.7-1.6l1.3-1h-1c2.3-.7 3.8-2.6 5.3-4.4.6-.8 1.1-1.5 1.8-2.1 1-.9 2.1-1.5 3.3-2.1 1.3-.7 2.6-1.4 3.7-2.3l1.9-1.7 1-7.4v-.6c-.1-1.2-.6-2-1-3l-.6-1v-.2h-.1a7.9 7.9 0 00-2.5-1.8h-.1.4c.4.2 1 .4 1.4 0 .2-.1.4-.4.3-1l-.2-1.8c-.1-1.4-.3-2.8-.7-4.1l-.2-.5h-.4-.2c2-1.1 2-3.7 2-5.8l.1-2 .2-1.3-1.1.6c-.6.4-.8 1-1 1.3v-.6a45.8 45.8 0 002.5-26.8l-.2-1.4-1 1.1v.2c2-4.3 2.3-9.2 2.5-14 .2-2.9.4-6 1-8.7.2-1.3.2-2.5 0-3.7 0-1.4 0-2.7.5-4l.2-.3-.2-.3c-.6-1.1-.2-2 .2-3.2.3-1 .6-2 .4-3.3l.7-1.6h.3c.5-.2.7-.5.9-.8v.9l.2.4H704.4l.2-.3c.3-.5.3-1 .3-1.7v-.6V480.8l.2.1.4.4.3.3.4-.2c.5-.3.7-.7.7-1.1l.1.7v.2h.2v.1c.2.3.6.7 1.3.5h.2l.1-.3c.2-.2.3-.5.3-.8.1.6.5 1 1.2 1h.2l.2-.2c.3-.3.4-.6.4-1 0 .3.2.6.4.8l.2.2h.3c.3 0 .8 0 1.1-.3l.2-.2v-.2-1.4c0 .5.3 1.5 1.4 1.5l-.3.1-1 .7-.4.3v.2c-.2.2-.7.4-1 1v.4c.2 1 .2 1.9.2 2.8.1 2 .2 3.9 1.2 5.9l.6 1.1.6-1.1.1-.3v1.7a82 82 0 00.4 17l.7 3.5a126.6 126.6 0 01-.1.6l-.5-1-.6.8c-.9 1-.8 3.5-.7 4.3-.6 5.6-1 11 .4 16.5l.2 5c.4 5.9.7 11.3-1 17.1l-.1.1v.2c0 .4-.1.7-.5 1.2s-1 1.2-.6 2.3l.2.5.5 1.4c-.3.2-.5.5-.7.9v.5l.4 1 .5 2-.1.3c-.6 1-.8 1.8-.6 2.6.4 1.2 1.6 1.8 2.8 2.4.9.4 1.8.9 2.2 1.5v.1c.4.4.7 1 1 1.6.1.6.4 1.1.7 1.6 1 3.4 3 5.7 5.8 7v.1h.1c.8.1 1.5.5 2.3.8 1.7.8 3.7 1.7 5.7.2l.1-.1.1-.2a8 8 0 00.5-5.5c1-4.5-1.9-8.1-4.5-10.4.1-1.3-.5-2.4-1-3.2-.5-.7-.8-1.3-1-1.9l-.2-1.5-.1.1-.2-.8-.2-.8-.5-1.3c-.3-.4-.5-.8-.6-1.3v-.2c-.3-.5-.1-1 .1-1.6.3-.5.5-1.1.4-1.8l-.2-1-.8.6-.2.2c1.4-2.3 1.6-5 1.9-7.7.1-1.7.3-3.5.7-5.1v-.1a45 45 0 011.8-8.2c.8-3 1.6-6 1.8-9.2.4-.6.6-1 .7-1.6v-.2c-.2-1.3 0-2.5 0-3.8.3-2 .4-4-.2-6l-.2-.4h-.5c-.5 0-.8.3-1 .5.1-1 .7-2 1.3-2.9l.6-1 .6-1.1-1.2.1c-1 .1-1.4.8-1.7 1.3v.2l1.8-3 1.2-1.7-1-.8-1 .8c2.3-3.4 3.5-7.4 3.9-12.9v-.1c-.1-1.2 0-2.4.3-3.6.3-1.3.6-2.6.3-4l4.8-.5.7.2-.4-4.6.5-1.5.2-2.4-.3-4.3-.5-11 .1-.6.8-.2c2.3-.5 2.2-2.4 2.2-4v-.2l.3.4.3.2.3-.1c1-.5 1-1.4 1-2.2l.1-1v-.1h.1c.4 0 1 0 1.3-.4l.3-.2v-.3c-.1-.6.1-1 .6-1.7.4-.5.9-1.2 1-2v-.1c-.3-2.3-1.1-4.3-2-6.2-.5-1.2-1-2.3-1.3-3.4v-.1l.2.4.8 1.2.4-1.3.4-1.3c2-6 4-12.3 5.7-18.6.4-.6.6-1.3.8-2 .2-.6.3-1.1.6-1.6v-.1l2.3-7.5.8-2.8 1.2-.4c.5-.1.8-.5 1-.7l.4-.4h.2l.1-.3c1.2-3 2-6.1 2.8-9l.4-1.9-1.5 1.2zM644.4 362l.4-3.6v-.3l-.2-.2c.4-5 1.2-10.8 2-16.5l.4-3.2a85.6 85.6 0 01.6 7.4l-.2-.1.2 1.1v.9h-.3l.4.8.2 1.3v.2l.2 3.8.2 2.6v.1c.4 1.7.4 3.3.4 5 0 1.2 0 2.3.2 3.5.3 2 .5 4 .6 6.2l.6 6.1a26.6 26.6 0 00.4 5l.1 1.6c0 .8.2 1.6 0 2.2a6 6 0 01-1.5-2l-.8-1.3-.2-.2h-.8c.1-.2.2-.4.4-.4l.2-.2v-.2c.7-2.3-.8-4.3-2-6l-.6-.8c0-.7 0-1.4.2-2.2l.2-3c0-.8-.6-1.5-1.6-2.1a28 28 0 01.3-5.5zm10 63c.5 5.7.5 10.1 1.4 15.2-.5 3 .6 6.1.6 9.3.2.6.2 1.3.2 2.2.2 5.3 1.1 10.8 1.3 15.7.3 1 0 2.2.3 3.4-.2.5 0 1.6.3 2-.2 1.7.3 3 0 4.4.4.7 0 2 .2 2.8.1 2.4 1 4.8.6 7.2.7 4 .4 8 1 12.2-.2 3.1.9 6.4.8 9.2.5.4-.2 1 .2 1.4 0 1 .5 2.4.3 3.5 0 3.3.7 5.7.6 9.2.7 3.6.4 7.6 1 11-.3 3.8.7 6.3.7 10l1.6 21.5c.4 1 .4 2.5.5 3.7.3 1.8.4 4 .6 6-.1 1.2.4 2.3 0 3.3-.7-1.7-1.8-3.4-2-5.4-2.6-6.9-4.4-14-6.6-21.2-1-2.8-1.4-5.7-2-8.6-.7-1-.7-2.1-1-3.2-1.8-6-3-12.4-3.8-19-.8-1.4 0-2.7-1-4.3-.5-1.2.3-2.5-.6-3.6-1.6-9.8-2.8-19.3-3-29.5 0-1.3 1.4-2.2.8-3.6-.8-8.1-1.4-17-2-25.5-.7-3.5.3-7.4-1.7-10.5-1-2.6-1-5.5-1.3-8.3-1.5-15-1.2-30.1-.6-45.4 1-.2 1.5.2 2.2.3 2.7 3.6 5.6 7.3 8.4 10.6.4 5.3 1.3 10.6 1.3 16l.2.9v.2c.4 2.4 0 4.5.6 7zM714 567.7v-.1l.2.3-.2-.2zm15.6-69.5l-.2.2a19.8 19.8 0 00.2-.2zm4.4-59.7v-.3h.3v.8l-.3-.5zm2.4 2.8c-.1 1.1-.4 2.2-.7 3.5l-.3 1.4-.1-.8-.4-3.4 1.2-.5v-.6c0-.7.1-1.7-.7-2.3l-1.1-1v.7l-.3-1.2.3-3.7-1.3-4-1-4.5v-.3l-.4-4.2-.1-.6v-.1c-.2-.4-.3-1-.8-1.3l-.5-1.2c.2-.2.5-.5.6-1l.2-.2-.3-.4-.5-.6-.5-2 1-1.4V411.3c0-3.8-1-7.6-2-11.2-.8-3.5-1.7-6.8-1.9-10.2.5 2.1 1.4 4.4 2.8 6.9l.5 1 .6-1c.3-.5.2-1 0-1.6v-.5l.8-1.3v.3l.5-1.5c.5-1.5.6-3 .5-4.6a40 40 0 01-.2 12v.2c.2 1.3-.1 2.8-.5 4.4-.5 2-1 4.2-.5 6.3v-.1c0 .4.2.8.5 1 .3.2.7.3 1.1.2l.5.8c.2 1.8.7 3.5 1.2 5.2.5 1.5 1 3 1.1 4.5v.2c.3.5.4 1.1.4 1.8 0 .5 0 1.1.2 1.7 0 2.4 0 4.7.2 6.9.2 3 .4 5.9 0 8.6z"/><g fill="#e6a300"><path d="M693 288.7c.1 1.5.3 2.9.2 4.5-1.4-1.6-2.9-4.8-5-6.5-.5.2-.4.7-.2 1 1 1.3 2.1 2.7 2.8 4.2-1.4-.4-2.9-1-3.7-2.4 0-1-.2-2.3.6-3.4 2.2-.4 4.4.5 5.3 2.6M698 300.8c-.1.3.2.4.3.6.3-.2.7-1 .9-1.7v-2c1 1.9.8 4.3-.1 6.2-1.2-1.6-1.8-3.7-2.9-5.3-.8-1.6-2-3.5-2.7-5.2l.1.1c1-1.2 1-2.4.8-4 2.7 3 4.5 6.8 3.6 11.3M692.7 302.4c1 2 2 4 2.2 6.3-.1.2-.2.4-.4.3-3.4-6-6.9-12.3-11.5-17.2-.6 0-.6.7-.4 1a63.4 63.4 0 0110.6 18c-.7.7-1.5-.4-2.2-.6-.4-2-2.9-2.1-3.4-4 .8-.6 2.4 0 2.8-.9-.6-.6-1.5-.4-2.3-.6-2.8.3-3-2.8-4.1-4.5l-.3-.8c1 0 2.5 1 3.4 0-2-1-5.3-2.2-5.2-5-.4-1-.3-2.4.4-3.1 5.1.7 8 7 10.4 11.1M690.5 293c1.8-.8 1.8 2 2.8 2.8v.4l-3.6-1c-.6-1-1.7-1.5-1.7-2.5l2.5.3M696.5 302.1c-1.1-1.3-3.6-.5-3.8-2.5 1.7.2 3.2.9 3.8 2.5M701.5 305.7c.5 1.5 2 0 3.1.5 1.2-.4 2 .7 3 .5.4.3 1.1.3 1.6.6 4.8 2.8 6.6 8.5 6.6 13.8.1 2.8.2 5.9-.4 8.3.2.8 0 1.4.1 2l-.2.1c-.3-.4-.1-1.4 0-2a40 40 0 00-1.3-15c-1.3-1.4-2-3.7-4-4.5-.1.1-.5 0-.4.3.3.9 1.3 1.5 2 2.3 3.4 5.2 2.5 12 2.5 18-.9 2.8-.3 5.2-1 8-.2 4.6.8 8.5 3.6 12 1 1.9 1.1 4.7.2 6.6l.3.2c1.2-1.5 1.3-3.3 1.2-5.5v-.3c.7 0 .2 1 .6 1.3 1.3-.8.6-3.8 3-2.5.4.5 1.2-.1 1.5.6h1.1c.3.5 1 .3 1.4.7 2.4.4 5.2 1 6 3.6 3.5 6.3 5 13.5 7.6 20 1.5 7.4 1.9 14.7 4 21.8-1.6-1.1-1.1-3.4-2.1-4.7-.4 0-.5.3-.7.4a7 7 0 002.8 6c.3-.1.7.2.6-.5 2 2.4 3 5.5 2.7 8.6-.7-2.8-3.6-4.7-6-5.6-1-.7-2 0-2.8.3-3 2.5-3.8 6.3-5.2 9.6-.4.1-.8-.2-.8-.6-.8-3.6 1.5-7.5 1-10.6a39 39 0 00.1-13.1c-.5-1.5.2-4-1-5.2-.6 3.1.5 7-.6 10.5a12 12 0 01-.7-6c.3-4.5.7-9 1.7-12.7 0-1.3.3-4-.3-4.9-.3 0-.4.2-.6.4.4 3.5-.9 6.3-1 9.6-.2 1-.4 2.3-.8 3.3-.3-5.5 1.3-11 2-16.6-.1-2.9-1-5.4-1.3-8.5-.2-.3-.5-.4-.7-.2-.4.8 0 2 0 2.8.8 4 0 8.6-.3 12.6-.3 4.6-2.2 9-1.3 13.4.6 3 .2 6.7 2 9.4 0 .7.3 1.4 0 1.9-2-3.6-3.7-8-2.5-12.5-.4-.5.5-1.6-.7-1.5-1 1.8-.4 3.3-.7 5.3-.3 7.9 3.7 15.5 4 23.5-.5 1-1.4 2.2-2.7 2.4.8-2.6 1.3-4.5 1.1-7.1-.3-2-1-4-2.2-5.8-1 .5-.2 1.5-.1 2.2 1 1.5.7 3.5.6 5.1-1.4.5.5 2.7-1.6 2.7-.6.7.4 1.6-.4 2.2-.6-.4-1.3 0-1.4.6-.3 1.3-1.8.3-2.7.5-1-1 0-2 0-3.1 1.3-1.9.6-4 1.6-6 .2-3 .5-5.9-.1-9.2-1.3.8.1 2.7-1 3.7 0 1.1.1 2.5-.2 3.6.5 2.2-1.1 3.9-1.4 6-1.5 2.6-1 7.7-5.7 7.2-.7-.7-1-1.7-1-2.6-1 .5-.4 1.8-1 2.6-1.6-.1-3.2-1-5-.8-1.1-.8-.1-2.5-.8-3.7-1.3 1 .1 3.5-1.6 4.1-2.5.1-4.8-.6-7 0-3.3-2.9-2.6-8.2-2.6-12.3-.2-.1-.4-.4-.5-.1-.7 2.2-.8 4.8-.9 7.2l.8 3.9c-.4 0-.4-.5-.5-.7-2-3.2-.4-7.8-.5-11l.1-6.7c-.3-.7-.2-2-1.2-2.2-.8.7.2 1.3 0 2.1 1.4 6.2-1.3 12-.4 18.2-.7.3-1.1-.3-1.6-.8-.7-.9-.4-2.2-1.4-2.9-.8 1 .2 1.7 0 3-1.7.2-2.1-2.2-3.4-2.7-.7 1 .4 2.3-.6 2.8-.8.1-1.4-.5-2-.7-1.4-1.8-.5-3.7-.9-6.1.4-7.6.3-14.7-.5-21.8.3-3.9-.4-8.3 0-12 .5-1.8 0-4.3.7-6-.2-.5.4-1 0-1.7-.8.9-1 2-1.3 3.1-1.1-.3-.7-2-1.2-2.8-1-2.5-.4-4.5-1.4-7 0-1.6.1-2.4-.1-4l-.4-.1c-1.4 6 1.4 11.7 2.6 17.3 0 .2-.3 0-.4 0-2.2-2.3-2.4-5.7-3.3-8.8h-.2c-1 5 2.7 8.7 3.2 13.4.6 1.9.5 3.7.8 5.6l-.3 2.3c-2.3-2.5-1.6-5.9-2.9-8.5-.5 4.3 1.7 8.4 2 12.6.8 1.4 0 3.4.5 5 .9 3.3 1.9 7.1.2 10.4-.5-.5-.3-1 0-1.5 1.4-4.9-1.1-9-2-13.6h-.4c-.3 2 .9 4.1.8 6.4 1 3.6.2 7.5-.3 11-.2-2.8.9-6-.5-9.3-.3-1.2.2-2.4-.6-3.1l-.3.7c0 4.2 1.2 9.6-.6 13.5v.2c-.2-.7.2-2 .4-2.6.7-4.2-.7-7.8-1.3-11.7-.2-1.5-2.1-1.1-2.3-2.6-.4-.5-1-.6-1.5-.6-.5-1.5-2-.6-3-.2-.5.3-.9 1-1.6 1 .1-3.2 2.4-5.2 2.4-8.1.8-2.1-.1-4.4 1-6.7 1-3 1.3-5.6 1.4-8.7-.4-2.9.2-6.5 2.1-9.3.6-2.2 2.4-3.8 3.8-5.7a7.3 7.3 0 014.2-1.1c2.2-.4 3.7-1.2 5.8-1.8.6 1 .2 2.6 1.6 3 0 1.6 1.6 2.2 2 3.7 1.4 0 .5 1.8 1.7 2 .7.6 1.2-.1 1.5-.7.2-.6-.3-1.6-1-1.7l-1.4.2-.2-.7c.5.4 1.3.5 1.7 0 .6-.3.7-1 .3-1.6l-.7-.6c.3 0 .6-.4.8-.6l1.2 1 .3-.5c-.2-.1 0-.3 0-.5a28 28 0 012.9 5.7c1 1.1 3 1 3.8 2.6.5.7.4 2 1.7 2.2l.2-.5c-1-1.7-2-4-4.4-4.4-.7-.5-1-1.4-1.1-2.2 1.3-.6 1.7 1.5 2.8.6-1.3-2.4-4.1-4.2-5.6-6.3l1-.1c-.2.6.1 1.1.6 1.3.5 0 1 0 1.4-.2.2.5.4 1.1 1 1.2.7.2 1.2-.1 1.4-.8 0-.4-.3-1-.6-1.3-.7-.4-1 .3-1.6.2 0-.5-.3-1-.8-1.3-.4 0-.8 0-1 .3v-.7h.5v.3c.3-.1.5-.3.8-.3a2 2 0 001.1 1.4c.7 0 1-.6 1.1-1.1 0 .7.2 1.4.9 1.7.7.2.9-.6 1.3-1 0 .7.6 1.2 1.2 1.3.1.3-.2.3-.3.4-.5-.2-1-1-1.6-.5-.4 0-.6.3-.8.5 0 .7 0 1.3.7 1.6.5.1 1 0 1.3-.3 1 .1 1.8 1.2 2.6.2-.1 1.2.5 2.4-.2 3.3.5 1.9-.9 3.5-1 5.4l.3.4c.6-.6.8-1.4 1.4-2 .2.1 0 .6.3.7.6-.1.8-.7 1.2-1 1-1.2 3-.6 3.7-2 .7-.8.7-1.4 1.3-2.2v-.1c.6-.9 1-2.5 2-2.7.4 1-1.2 2.1.3 2.8-.8.4-1.3 1.5-.6 2.1.4.5 1 .5 1.4.3.6-.3.7-1 .5-1.6l-.5-.4c.7-.6.8-1 .6-2.1h-.1c.2-.7 1-1.4.2-2.3-.2-.6-1.6 0-1.1-1.2-.4-.7-1-.2-1.5 0l-.2.2c.2-.1 1-1 .7-1.5-2.5-3.5-1.8-7.3-1.8-11.2h.2c-.6-.4 0-1 0-1.5-.2-5.8 1.4-12.3.4-18.4-.1-2.7-2-4.5-4.3-6-1.2-.5-2.7-.2-3.7-1.3-1.5-.4-1.2 2-2.6.9-1.3-1-3.5 1.7-3.7-.9-1 .8-1.7 2-3 2-.2-.6.7-1 0-1.6-4.7 3.6-4.5 10.4-4.4 15.6.1 4 1.5 8 2.2 11.7 1 1.2 0 3.7.7 5 1-.7 1.8-1.3 2-2.4 1.1-1 2.5 0 3.6.1 1.8 1 3.9 2.1 6.1 1.5 1.7.8 1.3 3 1.7 4.5-1 .6-.5 2-.8 2.7-.4-.5-.6-1.4-1.6-1-.2.3-.7.6-1.2.3-.4-.4-.8-.3-1.3-.1l-.4.4a2 2 0 00-.6-.9c-.5.1-1.1-.3-1.4.3 0-1.5-2.1-.4-2.2-1.7-.2-.5-1.8 0-1.5-1.2a3 3 0 01-1.6-1.7h-.8c-.7.5-.5 1.3 0 1.8 1 .4.7 1.8 2 1.8l-1.3-.1c.2-.6-.3-1.2-.8-1.3-.3-.2-.8 0-1 .4 0 .7 0 1.3.7 1.7.6-.2.7.3.8.7-.1 0-.2 0-.1.1-.9 0-1.5-2.1-2.3-.7v.5c-.9.1-.9 1.2-1.4 1.7l-.6 1.9c-.6-3 1.3-5.9 2-8.8 1.4-2.8 1.1-6.2-.2-9.1-1-4-2.3-7.6-1.7-12.1 0-1 1-2.2.3-3.2l-.5.6-.8 4.8c-.2-6.9 2.8-14 8.3-18.2 1-.5 2-.3 2.4-1.4-.4-.3-1.1-.6-1.2-1.1.5-1 1.6-1.9 1.7-3.1.5 1 .8 2.3.5 3.8"/><path d="M698 306c-.1.5-.7.5-1 .5-1-1-2.3-2-2.4-3.5 1.4.5 2.9 1.4 3.4 3M712.4 318.2c.5 4 .6 8.3-2.4 11 .7 1.9 1.3 4.4.3 6.3-1.2 1.7-2 4-4 4.6-3-1.3-7.5 1.8-9.3-2-.2-1.9-1.4-3.2-2-4.8h.6l.1-4.2c-2.9-3-2.8-6.9-1.8-10.4.7-1.1 1-3 2.5-3.3 4.7-.4 9.3-1.8 13.6.4.9.6 1.7 1.5 2.3 2.4M690 328.8c.2.5.2 1.3.1 1.5a9.5 9.5 0 01-.3-4.3c.2 1.2 0 1.8.2 2.8M648 331.2c-.6 1.9-.6 4 .3 5.6 0 3.4.7 6.3.6 9.6h-.4c-.3-3.1-.4-6-.9-9.4l-.3-.2-.6.7c-.9 6.7-2 14.7-2.5 21l.1.2c-.2 3.3-1 6.2-.6 9.5.7.3 1.5 1 1.5 1.8.2 2-.6 3.8-.3 5.4 1.4 2 3.3 4 2.7 6.3-1.1.7-1.2 3-3 2.4-1.1-1.4 1-2.6-.4-4-.3-1.2 1-2.3 0-3.4a3 3 0 00-.1-2.9c-.7-1.1-1.9-2.2-3.3-2.2l-.6-.5c.5-4.8 1.3-9.3 2-14.1 1.2-7.6 2-14.4 3.8-22 .2-.9-1-1.4-.4-2.2.7-.4 1.5-.8 1.5-2h.3v-.2c.6-.2.3.4.5.7M715.8 335.1c-.3 3.5 2 6.3 2.7 9.4 1 1.2.6 2.8.9 4-.8-3.8-3.6-7-3.6-11l-.5-.1c-.5.3-.2.9-.4 1.4-.5-1.3 0-2.5 0-3.8l.3-3.3c.8 1.2.2 2.3.6 3.4M690 346.6c-.2 2-.5 3.6-1 5.5-.8-3.7.4-7.8 1.6-11.3.3-.8.3-1.6.5-2.5-.3-1.7 0-3.5-.6-5.3v-.8c1.5 4.5 1.9 10-.5 14.4M714.7 339.3l.3.5-.3-.5M715.1 340c.3 1.8.2 3.8 1.5 5 .5 1.2 1 3 1.2 4-.5-2.3-2.2-3.4-2.3-5.7-.5-.8-.7-2.2-.7-3.3 0 .2.2 0 .3 0M712.5 347.7l-.1.5-.5-.2c-.3-.5.5-1 .6-.3M711 348.4c.2.2 0 1-.5.9a.4.4 0 01-.5-.4c0-.5.5-.6 1-.5M709.4 349.9c0 .3-.4.3-.5.6-.4 0-.5-.2-.6-.5-.1-.6 1-1 1.1-.1M718.2 350.4l-.2-.9.2.6v.3"/><g><path d="M713 349.9c.2.2 0 .4-.3.6-.3.1-.6-.2-.6-.5s.6-.6 1-.1M711.5 350.8c-.2.3 0 .6-.3.8-.6.2-.6-.3-.8-.5.3-.5.8-.5 1.1-.3M706.1 352.1c-.5.3-1-.4-1.6-.2 0-1.3 1.4 0 1.7.2M709.5 352c.3.3 0 .6-.2.6-.4.1-.4 0-.5-.4-.2-.4.8-.8.7-.1M707.8 352.6v.9c-.4 0-.7-.1-1-.3 0-.6.6-1.1 1-.6M692.7 353.9l-1 .5v-.5c.2-.3.7-.3 1 0M744.5 410.1c.4 2.2.4 4.6.7 6.7 1.2-.3.6-2.3 1-3.2l-.2-3.8c.2.4.6.9.6 1.5 1.6 9.7-3 17.9-2 27.4.9 3.2 2.8 6.1 3.2 9.5-.1 1.5-1.8 2.3-1.6 3.9-.6.5-1.6-.3-1.6.8-.3 1 0 2.3-.7 2.7-.8-.6.4-2.4-1-2.3-1 2 .8 5.4-2 6 .6-2.4-1.3-4-1.7-6.4-.9-1.1-.3-3-1.2-4.3-1.6 2.3.9 4.4.8 6.9.3.2.2.8.1 1-.4.5-.6 1.4-1.4 1.2-.4-1.3 0-3.3-1.1-4.4-.1-.6-.2-1.5-.8-1.9l-.2.2c.6 4.4-1.2 8.6-.8 12.8l.9.7c-1 3-1.8 6-2.9 9-.4.2-.7-.2-1 .3.1 1 .2 2.4-.4 3.3-.8-1 .4-3.4-1.3-3.4-.9.9.4 2.4-.8 3.1-.3-1-.2-2.5-.9-3.1-1.2.7 0 2.7-1.1 3.6 0 .5.1 1.2.7 1.2.4 0 1 .2 1.3.5.6 1.3 1.6 2.3.5 3.7l-3.6 12.3c-.8 0-1.6 0-2 .9-.2.7.4 1 .4 1.6-1.1.2-2.4.1-3 1.3.5 2.6.4 5 1.3 7.4 0 1.3.1 2.6 1.1 3.4 2.8-1.8 4.1-4.7 6.7-7.1.5-1 .4-1.7-.2-2.5-.4-.5-1-.7-.6-1.3.7-.2 1-1.2.7-1.8-2-1.3.4-2.9.3-4.6.8-3 2.2-6.5 3-9.3l.3-.3c1.6 3-.5 6-.1 9.2a24 24 0 01-4.7 13.8c-.2.2 0 .4.2.6.8-.4 1.9-1.2 2.6-1.8-1.4 2.2-3.1 4.3-4 6.9l.2.5c.6-.5 1.2-.8 1.6-1.6.4-.4.6-1.5 1.6-1.6-1 1.7-2.4 3.2-2 5.3l.4.3c.4-.3.5-1.2 1.3-1.2 1 3.2-.3 6.5.2 9.6-.1.5-.4 1-.8 1.5-.2 6-3 11.5-3.5 17.5-1.5 5.1.2 11.7-4.8 15v.5c1.7.4 2.1-1.3 3.4-2.2.2 1.2-1.2 2.2-.5 3.6.2 1 .8 1.8 1 2.7h-.6c-.3-.2-.9-.5-1.4-.6-3.1-.6-5 2.4-8.3 1.4-.2 0 0 .3 0 .5 1.9 1.3 4.7.5 6.7-.5 1 .4 2.3 0 3.1.7-.2 1.4-.3 3-1.8 3.8-2.8 1.1-5-1.2-7-2.3-.7-1-2.1-1.3-2.4-2.5l4.6-2.2c.2-.9-1.1-.7-1.7-.6a10 10 0 01-4.2 1.7c-.4-1.5 1.3-1.9 1.2-3.4 2.2-7.5 1-14.5.8-22.4-1.5-5.5-1-11.1-.4-16.4 0-1.1 0-3.1.6-3.8 1 2 1 4.8 1.7 7.2.2 0 .3-.3.5-.4 0-4-1-7.2-1.5-11.3-1.1-6-.6-13-.4-19.8 0-.7.6-2.3 0-3.1-2 .5-.7 2.4-1.2 4l-.2.3c-1.5-2.8-1-5.4-1.4-8.5.3-.7.9-.7 1.2-1.1v-.2c.8-.7 2.7-1.1 2.6-2.5-.8-.9 0-2.9-1.2-3.2-1.1 1.1.2 2.5-.4 3.7-1 .2-.8-.8-1.1-1.4-.2-.8.6-2-.6-2-1.2 1-.3 2.5-.4 4-.2.2-.5 0-.7 0-1-1 .3-2.4-.7-3.5-1.2 0-.7 1.5-1 2 .1.6.3 1.4 0 1.8-.8 0-.4-.7-.7-1-.4-1 .9-2.3-.7-2.6-1 1.2.2 2.4-.6 3.7-.3.1-.4-.1-.6-.3-.4-1.3.4-2.6-.5-3.6-1.7.3-.2 2.9-1.3 3.5l-.4-.3c0-.9.7-3-.7-3.6-.7.8-.3 2.5-.7 3.3h-.4c-.3-.9.7-2.4-.3-3.3-1.3.5-.1 2.3-1.5 2.7-.9-.6.7-3.4-1-2.9-.4.9-.1 2-.6 2.8-1.4-.5 0-2.4-.6-3.1-.3-.4-.6-.4-.9-.1-.3.8 0 2.2-.7 2.7-.2-1.2 0-2.7-1.1-3.4-.7.8.1 2.6-.7 3-1.7-.6.2-2.6-1.6-3.2-1 .6.2 3-1 2.5-.3-1 .1-2-.6-2.7-1.2.4-.1 2-1 2.8.4 1.2 1.6 1.6 2 2.8.6.8 1.6.6 2.2.1-.1.7-1 .7-1.1 1.4.9 1.9-.3 3.7-1.2 5.2.1.5.6.6 1 .7-.2.5-.6 1.2-.4 1.7.4.9 1.1 0 1.7 0 0 .9-1.3 1.5-.8 2.5 1.4.5 1.4-1.2 2-2 .1-.2.4-.7.1-1.1l-.4-.3c1.6-2.3 2-4.9 2.7-7.3l.1-.4c.4-.1.4.4.5.6.6 2.5-1.8 4.3-.5 6.8-1.2 2.6 0 5-.6 7.9-1.6 7.7-.2 16.7-4 23.5-.5 1.7-.1 2.6-.2 4.3 0 .4.5.3.7 0 .8-1.3 0-3.3 1.1-4.8a44.6 44.6 0 01-2.3 26.5c-.1.7-.3 1.3.3 1.9 1 .2.7-1.3 1.5-1.8-.4 2.6.7 7-2.8 7.9-.2.3-.6.3-.5.7.5 1 1.3 0 2 0 .6 1.8.6 4 .9 5.9 0 .7-.7.4-1 .3-.5-.2-1.1-.5-1.7-.2 0 .2-.3.4-.2.6 1.2.8 2.5 1.1 3.5 2.3.6 1.3 1.4 2.4 1.6 4a9 9 0 01-4.1-.5c-3-.5-6.2-1.5-9 0-.7 0-1.5-.3-2-.7 1-.8 1.6-2.2 2.1-3.5.4-.6.6-1.5.7-2.3.4-5.3-1.6-9-1.7-14 .4 0 .4.7 1.1.5.6-.4.2-1.2 0-1.7-.5-.2 0-.8-.4-1a52.4 52.4 0 01-2.5-20.5c.2-.5.7-1 .5-1.6-.6-1.6 0-3.8 0-5.7l.7 1.6c.2.7-.4 1.6.5 1.8 1.2-1 .3-1.7.4-3-1-3-3.2-5.6-3-8.8.8-4.4-.8-9-1.7-13.1-1-5.5 0-8.9-1-14.6-.2-.2-.4-.5-.7-.4 0-.9.8-2.5-.2-3.3-2.2 2.2.2 6-1 8.5.4-2.3 0-4.5-.5-6.8l-.6.2.1-2.7h.1c.6-2.8 1-6.1.4-8.8 0-3.1 1.7-6.6 2.1-10a73.7 73.7 0 003.4-17.6c1.3-4 0-9.4 4-12.7 1.7-.3 1.3 1.9 1.5 2.9.1 1.4 0 2.6.5 3.8.5.2.5-.2.6-.4 0-1.7-.4-3.7.7-5-.2-.7.9-.5 1.3-.4 1 3.2.6 7.1 1.6 10.2.4-.4.1-1 .5-1.6.1-1.5.3-4 .1-5.5.2-1.4 2.5-3 1-4.2-3 0-5.8-1-8.7-1.4-.6-.1-.7-.6-.6-1.1.8-.9 1.8-.3 2.7 0 4.5.4 8.3 1.3 13 1.7 3.4-.6 7.5.8 11.2 0 2.5.1 4.7-.4 7.1-.4.6-.7 1.7 0 2.3-.7 1 .4 1.5-.7 2.6-.3 1-.5 2.8-.2 3.9-.7 1.5 0 3.1 0 4 1 0 .5-.2.8-.6 1-8.3-1.8-16 2.8-24.1 1.9l-7.5-.3-.2.2c.5.6.8 0 1.3.6 2.2.2 4 .7 6 1 5 .3 9.5.4 14.5-1.2.6 0 1.3-.3 1.8-.2-.8.9-2.1.9-3 1.9.1.8.9.2 1.3.3.4-.3 1.2-.4 1.7-.7 1.1 0 2.5-.9 3.7 0 .2.5.9.6 1.3 1 .8 1 .5 3 2.1 3 .6 3 2.6 5.6 2.7 8.4.4 1.3.2 3 .7 4.4l.5-.6c-.2-2 .3-4.4 0-6.7l.5.7c.5 3 .7 6.4 1 9.3.2 0 .4 0 .6-.3.3-2.3 1.2-5 1.5-7.2.8-4.8-.3-10-.1-15.6-.4-1.4 0-2.6-.6-3.8-.3-3.2-2-6.2-2.3-9.7a12 12 0 012.6-6.1c1-1 2.2-2.7 4.1-2.2 2.8.6 2.5 3.9 3.5 6M675.4 411.5c.3-.6.1-1.5.5-2.2l-.3 2.2h-.2M675 413c-.1-.4.2-.9.4-1.3 0 .2 0 .9-.3 1.3"/><path d="M730.4 416.2c0 1-1.3 1-2 1.3-6.9 1-12.5 5-19.8 4.7-.4.3 0 .7.4.8 2.7.6 4.8-.8 7.2-.6.5-.5.8 0 1.4-.3 4.4-1.5 8-3 12.8-3.1.5.3.6.9.7 1.2-1.3.6-3 .3-4.3.7-2.5.6-4.5 2.2-6.9 2.9-4 1.4-8.6 1.4-13 1.6l-1.2-.3c.6-.3 1.6.4 2-.5-.8-.8-2.3-.4-3.4-.3-4.3 1.7-8.1-1-12.2-1.7-2.5 0-5.3.1-7.5-1-.2-.1-.4-.6-.1-.8 3.2-1 7.2-1.4 10.2 0 3.2 1.3 7 2 10.4 1.3 2.8-.7 6.1-.4 8.7-1 .2-.3-.2-.4-.3-.6-3.1-.4-6.2 0-9.2.4-3.1.2-6.4-.3-9.2-1.5h-.4l-1.8-.7c-2.4-.2-5.5-.6-7.6.3h-1c0-.7.3-1.6-.1-2.5 1.2-.8 2.8.3 4.3 0 1.2 0 2.3 1 3.5.6 5.9 1.8 11 .7 17.2 1.2-1.5.2-3.2.3-4.8.7.2.1.1.4.4.4 1.3-.2 2.9.5 4.4.2 1.5 0 3-.4 4.5-.5.8-.4 1.9-.2 2.7-.4v.3c5.5 1.6 8.7-3.2 13.6-3.4l.5.6M733.5 432.7c-1.6-.5-1-2.2-1.6-3.7 1.2.9 1.2 2.6 1.6 3.7M733.6 437.4c-.5-.2-.2-.5-.2-1 .3.1 0 .7.2 1M735.7 442c-.4-.8-.4-1.8-.5-2.7.9.7.3 2 .5 2.6M692.7 442.9c-.3-.8-.2-1.6-.2-2.4.6.6.5 1.9.2 2.4M717.5 449.1c0 2.3.2 4.4-.8 6.3h-.6c0-2.2.5-4.4.8-6.7.3 0 .6.2.6.4M740 457.7c-.4 3.6-2 7.2-3 10.6-3 9.4-6 18.6-8.8 28-2-.3-.1-1.8-.4-2.7.5-1.9 1.3-3.3 1.5-5.1l.6-1.1c.6-3.1 1.8-5.7 2.4-8.5 1.3-3.2 2.5-7.5 3.4-11 .5-.1 0-.4.3-.7.8-2.9 2-5.6 2.8-8.4.3-.5.6-1 1.2-1"/></g><path d="M739.5 465.2h.1v.4-.4M739.6 466c0 2.3.6 5.1.4 7.2.2-1-.9-2-.5-3.2-.3-1.2-.2-2.8 0-4h.1M736.2 477.5c0-.6-.3-1.4 0-1.9.1.6.4 1.4 0 1.9M737.8 477h.1v.8-.9M740 478.8c0-.5-.2-1 .1-1.3l-.1 1.3M737.7 479.6v-.7.6"/><g><path d="M740.1 483.6c-.5-.5-.5-1.4-.3-2.2 0-.4-.2-1.4.2-1.8.9 1.3-.3 2.7.1 4M676.5 486.4c-.4.1-.5-.3-.4-.5.3 0 .3.3.4.5M696.7 493.8c.5 1-.2 2-.7 2.7-.7.3-.6-.5-.7-.7.1-.8.5-2 1.4-2M728.6 497.8l.3.4c-.3.7-2 .4-1.3 1.5.8.6 1.4 1.3 2 2-.9 2.2-3 4-4.5 5.9l-.9.6c-.5-1-.7-3-1-4.5-.1-1.3-.1-2.6-.6-3.7 1-.5 2.3-.4 3.4-.8.1-.4.3-.7.1-1.1-.1-.3-.8-.5-.6-1 1.2-.2 2 .4 3.1.7M715.6 565.6c2.2 1.5 4.2 3 7 3.5-1 .6-1.8 1.8-2.1 3-.3.2-.7 0-1 .1-2.4-2.3-5.1-4.3-6.4-7.7.6-1.5 1.8.5 2.5 1"/><path d="M728.8 570c2.9 2.5 5.5 6 4.5 10.2.6 1.5.4 3.8-.4 5.3-2.6 2-5-.7-7.5-1.1a10.4 10.4 0 01-5.4-6.7c-.8-1-1-2.5-1.8-3.4-1.3-2.3-6.6-2-4.4-5.9 2.3 1.9 4 4.3 6.8 5.7 1.4.1 1-2.2 2.1-2.8.4 2.2 2.1 3.8 3.3 5.5 1 1.4 2.2 2.6 4.2 2 .6-.5 1.3-1.2 1-2.2-.5-2-2.4-3-3.3-4.7.3.1.5 0 .6-.4.1-1-.6-1.6-1.2-2.5-.8-.4-1.3-1-2.2-1 1-.6 1-2 1.8-3.2.4 2 2.3 3.1 2 5.2M693.3 568.6c0 .4.5 0 .7.4-.5.6-1.3 1-2.2 1.2-2 1.2-5.3 1.8-7.3.7-.7-.7-.5-1.6-.6-2.5.6.8 2 .1 3 0 .4-.6 1.1 0 1.6-.4 1.7 0 3.2.4 4.8.6M683.2 570.6l.7 1.5a4.7 4.7 0 00-3.7 2.8c-1.1-2.2 1.2-4.3 2.2-6.4.7.2.3 1.4.8 2M697.7 570c.2 2-1.9 2.4-2.8 3.4a12.5 12.5 0 01-7.3 2.3c-1-.7-.5-1.7-1.4-2.4v-.5c2.6.2 4.5-.9 6.8-1.4 1.2-.6 2-1.1 3-1.9.6.1 1.4-.2 1.7.6"/><path d="M724.5 569.6c0 3.2 3 4.8 4 7.5-1 .1-1-1.3-1.8-1.8a6.8 6.8 0 01-2.5-5.7h.3M727.3 571.5c-.5.4-.3.7-.3 1.1-1-.7-.9-2-1.1-3 .8.3 1.2 1.3 1.4 2"/></g><path d="M684.4 573.5l-.1-1.1.2.4-.1.7M681.2 580.5c-1 0-1 1.3-2 1.2 1-1 2.1-2.4 3-3.5a8.8 8.8 0 002-4.2c-.1 2.4-1.3 4.8-3 6.5M682.3 574.6h.1v.4-.4"/><path d="M687.3 577.1c3-.1 5.9-.9 8.4-1.9-.2 1.2-3 .6-1.8 2.1l1.9-.4c-2 1.8-5 2.6-7.1 4.4-2.3 2.4-4.2 6.4-7.8 6.5l-2.5.9v.5c1 .6 2-.5 3-.4-.8.7-1.6 1.3-2.6 1.5-1.3.7-3.1 1.7-4.3.7-.5-2.2-1.4-4.5-1.3-7 .5-4.3 5.5-4.8 7-8.6.2.1.4.2.5.6v.6c-.8 2-6 3-3.1 5.8.7.5 1.5 1 2.3.5 2.7-1.8 5.1-4.6 5.7-8 .2.9 1 1.7 1.7 2.2"/><path d="M678.7 580.1c.4-.3.8-1 1.3-1.1 0 .7-1 .7-1.3 1.1"/></g><path d="M704.5 321c1.6.2 2.7-.8 4.4-.5 1 .3 1.8 1 2.6 1.5 0 .6-.2.8-.6 1-1.7-.5-.7 1.7-2.4 1.3-1.3 1.2-3.2-1-4 1-.6 2.4 2 2.9 2.8 4.6.6 1 1.3 2.2 1.3 3.3-1.5-.1-1.3-3.3-3.4-2.4-.8.6-2 1.2-3 .9-.9-.6-2-.5-2.7-1.3-1.1.3-1.4 1.6-2.3 2.3l-.4-.1c-.2-1.1.7-1.7 1.3-2.4 1-.4 1.1-1.2 2-1.6.2.3.1 1 .7 1.2 1.1-.3 2.4 1.1 3.2-.4 0-3-2-6.1-.5-9.1.5-.1.5.7 1 .7"/><path d="M670.7 393c-1.5-.5-2.6.3-3.7 1 .4 1.1 1.8 2 2.7 3-.1.5.7 1.2-.1 1.4-2-2-3.7-3.1-6-4.8-3.3-2.3-8-1.4-10.7-4.7-.5-3.1-.8-6.7-1-10-.6-4.6-1-9.5-1.4-14.1-.1-5.3-1-11.2-1.3-16.6 0-.4-.3-1.2-.7-1.4 0 .5-.2 1.2.3 1.3 0 .1-.1.3-.3.3l.3 1.7c-.2 2.1.4 4.4.4 6.5.6 2.8.2 5.8.6 8.4.5 4 .6 8 1.1 12.4 0 2 .4 3.5.5 5-.1 1.5.6 3.6-.3 4.8-1.7-.8-2.2-2.6-3-3.9h-.5c-.3 1.7-1.3 3 0 4.7.4 1 1.1 1.6 1.4 2.5-.2.2-.4.1-.5 0-1.3-.8-1.9-3-3.6-2.8-.5.4-.7 1-.9 1.6-.5.3-1.1.1-1.6 0-.9-1-.6-2.4-.5-3.7.3-.6 1-.3 1.3-.6.3-.3 0-.8-.2-1-1-.9-1.7-2.2-3.6-1.8-1.3.9-3.7.6-3.9 2.3a8 8 0 003.2 4.3c-.4 5.2-.6 9.8-.6 15-1.3 18.5-.3 36.2.3 54 1.3 12.1 2.4 24.6 4 36.3a401.4 401.4 0 0024 89.4c-1.5 2.3 1.5 1.2 1.7 3.2.3 0 .6.2.7-.2.1-2.2-1.3-4-.9-6.3-.7-11.7-1.7-22.6-2.7-34.4-.4-4.4-.9-9.5-1-14-.5-6.4-1-12.5-1.7-18.8-.7-14.7-2.5-29.4-3.3-43.9a234 234 0 01-1-14c-.7-2.3-.3-4.6-.8-7-1-10.1-1.4-19.4-2.4-29.7l-.3-.2c0-5-.7-9.5-.7-14.3l.2-.3c2 3.4 5.9 5.3 9.4 6.6 2.3 1.1 3.4 3.8 6.6 3.3 1.8-.6 2.1-2.5 3.2-3.8.2-.4 0-1.1.7-1.1.3-.5.8-1 .7-1.6-1.2 1-1.6 2.8-2.8 4 0-.1-.4-.2-.4-.6.3-3 2.4-5.2 3.7-7.8.4-3.8-1.5-7.7-4.6-9.6zm-16 32.4c.4 5.6.4 10 1.3 15-.5 3.2.6 6.2.6 9.4.2.7.2 1.3.2 2.2.2 5.3 1.1 10.8 1.3 15.8.4 1 0 2 .4 3.3-.2.6 0 1.6.2 2-.2 1.7.3 3 0 4.4.5.7 0 2 .3 2.8 0 2.4.9 4.8.5 7.2.7 4 .4 8 1 12.2-.2 3.2 1 6.4.8 9.2.6.4-.2 1 .2 1.4 0 1 .5 2.4.3 3.6 0 3.2.8 5.7.6 9.1.7 3.7.4 7.6 1.1 11-.4 3.8.6 6.3.6 10 .6 7.6 1 14.3 1.7 21.5.3 1 .3 2.5.4 3.7.3 1.8.4 4 .6 6.1 0 1.1.4 2.2 0 3.2-.6-1.7-1.7-3.4-2-5.4-2.6-6.9-4.4-14-6.6-21.2-1-2.8-1.4-5.7-2-8.6-.7-.9-.7-2.1-1-3.2-1.8-6-3-12.4-3.8-18.9-.8-1.5 0-2.8-1-4.4-.5-1.2.3-2.5-.6-3.6a203 203 0 01-3-29.5c0-1.3 1.4-2.2.8-3.6a741 741 0 01-1.9-25.5c-.8-3.5.2-7.4-1.8-10.5-1-2.6-.9-5.5-1.2-8.3-1.6-15-1.3-30.1-.6-45.4.9-.2 1.4.2 2.2.3 2.7 3.6 5.5 7.3 8.3 10.6.4 5.3 1.3 10.6 1.3 16 .8 2.7 0 5.2.8 8z" fill="#e6a300"/><path d="M701.2 320.5c1 .2.5 1.7.8 2.1-.3.9-.4 1.8-1.5 2-1.7.2-3.6 0-4.7-1 .1-1-2.4-.3-1.3-1.8 1.7-2.5 4.9-.1 6.7-1.3"/><path d="M704.4 335.2c-.2 1.7-2 .7-3 1.2-.4-.3-.7-1-.3-1.4 1 .6 2.3-.2 3.3.2M706.3 333.8c.1-.3.7-.3 1 0 .2.3 0 .5.2.7-3.1.3-6.3 0-9.4.3-.2 0-.2-.3-.1-.5.6-1 1.7-.2 2.5-.7 2 .9 3.8-1 5.7.2" fill="#e6a300"/><path d="M711 357.3a43 43 0 00-4.2 2.9c1.5-3.5 4-6 6.7-8.5-1.2 1.5-2 3.7-2.4 5.6M716.2 360.1c.5 1.3-2.2 1.1-.7 2.5 0 .4-.1.9-.5 1-.3.2-.5 0-.6.4.1.5.5 1.2 0 1.7-.2.4-1 .2-.6.7h-.1c-.5.6.4 1.8-1 2h-.7c-.2.4.4.7.2 1.2-.4.6-1 .9-1.7.7 0 .6-.2 1.4-.7 1.6-.7-.1-1 .2-1.4-.2 0-.6 0-1.3.6-1.7 2.4 1 .4-2.7 3-1.7-.3-.5-.2-1.2-.2-1.7.5-.3 1-.1 1.4-.5-.1-.6-.6-1.2 0-1.7l.9-.5c-.5-.5-.4-1.3-.3-1.9l1-.6c-.3-.4-.7-1-.5-1.7.5-.6 1.8-.4 2 .4M695 360.4c-.3.4.2 1-.5 1.3-.6 0-1.4-.3-1.6-1 0-.6.2-1 .6-1.3.8 0 1.2.3 1.5 1M695.9 363c-.1.6 0 1.3-.6 1.5-.6 0-1.2-.4-1.4-1-.3-.5.2-1 .5-1.6.8 0 1.2.4 1.5 1M697.2 365.8c.2.5-.4 1-.7 1.3-.6 0-1.2-.3-1.4-1 0-.4 0-1 .5-1.1.8-.2 1.6.1 1.6.8M698.8 368.5c0 .3 0 1-.5 1.2-.5-.2-1.4 0-1.5-.8 0-.5 0-1 .4-1.4.7-.4 1.6.3 1.6 1M700.6 370.2c.3.7 0 1-.3 1.4-.6 0-1.3 0-1.5-.8 0-.5 0-1 .5-1.2 1-.5.5 1 1.3.6M704.3 371.6c1-.6 1.7 1.3 2.2-.2.4-.4 1-.3 1.6 0 .3.5-.1 1.3-.6 1.6-.7.1-.9-.3-1.5-.5-.4.4-.4 1.1-1.2 1-.7.1-1.3-.5-1.5-1.1-.5.6-1 .6-1.7.5-.3-.4-.6-.8-.5-1.2.1-.6.7-.4 1-.8 1 0 1 2.3 2.2.7M722.4 441.8c.3 8-1.5 15.2-3 22.5-.4 2-1 3.7-.6 5.4-.1.3-.4.7-.8.7-1-.6-.3-2-.6-2.9-.1-2.4-.8-3.8-1-6.2l.4-.3c.7.3.5 1.6 1.4 1.2 1.2-2.3 1.3-5 2.1-7.5 1.4-4 1-8.6 1.6-13l.5.1M726.6 476.9l-.1 1.4c-.5-.2-.8.3-1-.1l-.3-3.1a1 1 0 011-.6c.6.7 0 2 .4 2.4M724.5 478.3c-.2.2-.6.5-1 .4 0-1.4-.5-2.6.2-4 .9 1 .5 2.4.8 3.6M722.4 479c-.2.4-.7.4-1 0 .2-1.1-.7-2.9.4-3.9.8 1.2.5 2.3.6 3.8M687.5 478.2c-.2.2-.4.3-.8.3-.5-.7-.2-1.9 0-2.8l.4-.2c.5.7.6 1.8.4 2.7M691.6 477.8c-.2.4-.4.2-.7.3-.4-.8-.5-2 0-2.6 1 .3.6 1.5.7 2.3M720.4 476.3c-.2 1.2.7 2.3 0 3.3-1 0-1-1-1.3-1.7 0-.6 0-1.6.5-2.3.5-.1.7.4.8.7M689.2 478h-.7c-.1-.8-.4-1.7.3-2.4.8.4.2 1.6.4 2.4M685.9 478.3c-.3.3-.5.8-1 .6l-.6-.6c-.5 1-1.6.7-2.2 1.2-.3.2-.7.2-1-.2 0 0-.2-.2-.4-.1-.4.4-.3 1-1 1.3-1-.4-.5-2-.4-3 .2-.2.3-.6.6-.7.4 0 .7.3.7.8v.2c.6-.2.4-1 .8-1.3 1.1 1 2.4-1.9 3 .2.2-.3.2-.9.7-1 1.3.2.5 1.7.8 2.5M718.3 478.8c.1.4.5.7.2 1.1-.2.2-.4.1-.7.1-.8-1-.6-2.3-.6-3.4l.6-.3c.5.7.4 1.5.5 2.5M676.4 485.4c-.1.1-.2.2-.3.1-.6-1 .2-2.2-.2-3l.1-1.7c1 1.5-.5 3.1.4 4.6"/><path d="M704.5 321c1.6.2 2.7-.8 4.4-.5 1 .3 1.8 1 2.6 1.5 0 .6-.2.8-.6 1-1.7-.5-.7 1.7-2.4 1.3-1.3 1.2-3.2-1-4 1-.6 2.4 2 2.9 2.8 4.6.6 1 1.3 2.2 1.3 3.3-1.5-.1-1.3-3.3-3.4-2.4-.8.6-2 1.2-3 .9-.9-.6-2-.5-2.7-1.3-1.1.3-1.4 1.6-2.3 2.3l-.4-.1c-.2-1.1.7-1.7 1.3-2.4 1-.4 1.1-1.2 2-1.6.2.3.1 1 .7 1.2 1.1-.3 2.4 1.1 3.2-.4 0-3-2-6.1-.5-9.1.5-.1.5.7 1 .7zm-60.2 69.8c2.7 3.5 5.5 7.2 8.3 10.5.4 5.3 1.3 10.6 1.3 16 .8 2.7 0 5.2.8 8 .4 5.7.4 10.1 1.3 15.2-.5 3 .6 6.1.6 9.3.2.6.2 1.3.2 2.2.2 5.3 1.1 10.8 1.3 15.7.4 1 0 2.2.4 3.4-.2.6 0 1.6.2 2-.2 1.7.3 3 0 4.4.4.7 0 2 .3 2.8 0 2.4.9 4.8.5 7.2.7 4 .4 8 1 12.2-.2 3.2 1 6.4.8 9.2.6.4-.2 1 .2 1.4 0 1 .5 2.4.3 3.6 0 3.2.8 5.7.6 9.1.7 3.7.4 7.6 1.1 11-.4 3.8.6 6.3.6 10 .6 7.6 1 14.3 1.7 21.5.3 1 .3 2.5.4 3.7.3 1.8.4 4 .6 6.1 0 1.1.4 2.2 0 3.2-.6-1.7-1.7-3.4-2-5.4-2.6-6.9-4.4-14-6.6-21.2-1-2.8-1.4-5.7-2-8.6-.7-.9-.7-2.1-1-3.2-1.8-6-3-12.4-3.8-18.9-.8-1.5 0-2.8-1-4.4-.5-1.2.3-2.5-.6-3.6a203 203 0 01-3-29.5c0-1.3 1.4-2.2.8-3.6-.8-8.1-1.4-17-1.9-25.5-.8-3.5.2-7.4-1.8-10.5-1-2.6-.9-5.5-1.2-8.3-1.6-15-1.3-30.1-.6-45.4.9-.2 1.4.2 2.2.3h0zm57-70.3c.8.2.4 1.7.7 2.1-.3.9-.4 1.8-1.5 2-1.7.2-3.6 0-4.7-1 .1-1.1-2.4-.3-1.3-1.8 1.7-2.5 4.8-.1 6.7-1.3zm9.7 36.8a43 43 0 00-4.2 2.9c1.5-3.5 4-6 6.7-8.5-1.2 1.5-2 3.7-2.5 5.6zm5.2 2.8c.5 1.3-2.2 1.1-.7 2.5 0 .4-.1.9-.5 1-.3.2-.6 0-.6.4.1.5.5 1.2 0 1.7-.2.4-1 .2-.6.7h-.1c-.5.6.4 1.8-1 2h-.7c-.2.4.4.7.2 1.2-.4.6-1 .9-1.7.7 0 .6-.2 1.4-.7 1.6-.7-.1-1 .2-1.4-.2 0-.6 0-1.3.5-1.7 2.5 1 .5-2.7 3.1-1.7-.3-.5-.3-1.2-.2-1.7.5-.3 1-.1 1.4-.5-.1-.6-.6-1.2 0-1.7l.9-.5c-.5-.5-.4-1.3-.3-1.9l1-.6c-.3-.4-.7-1-.5-1.7.5-.6 1.8-.4 2 .4h0zm-21.2.3c-.3.4.2 1-.5 1.3-.6 0-1.4-.3-1.6-1 0-.6.2-1 .6-1.3.7 0 1.2.3 1.5 1zm.9 2.5c0 .7 0 1.4-.6 1.6-.6 0-1.2-.4-1.4-1-.3-.5.2-1 .5-1.6.8 0 1.2.4 1.5 1zm1.3 3c.2.4-.4 1-.7 1.2-.6 0-1.2-.3-1.5-1 0-.4 0-1 .6-1.1.8-.2 1.6.1 1.6.8zm1.6 2.6c0 .3 0 1-.5 1.2-.5-.2-1.4 0-1.5-.8 0-.5 0-1 .4-1.4.7-.4 1.6.3 1.6 1zm1.8 1.7c.3.7 0 1-.3 1.4-.6 0-1.3 0-1.5-.8 0-.5 0-1 .5-1.2 1-.5.5 1 1.3.6zm3.7 1.4c1-.6 1.7 1.3 2.2-.2.4-.4 1-.3 1.6 0 .3.5-.1 1.3-.6 1.6-.7.1-.9-.3-1.5-.5-.4.4-.4 1.1-1.2 1-.7.1-1.4-.5-1.5-1.1-.5.6-1 .6-1.7.5-.3-.4-.6-.8-.5-1.2.1-.6.7-.4 1-.8 1 0 1 2.3 2.2.7zm18.1 70.2c.3 8-1.5 15.2-3 22.5-.5 2-1 3.7-.7 5.4 0 .3-.3.7-.7.7-1-.6-.3-2-.6-2.9-.1-2.4-.8-3.8-1-6.2l.4-.3c.7.3.5 1.5 1.4 1.2 1.2-2.3 1.3-5 2-7.5 1.5-4 1.2-8.6 1.7-13l.5.1zm4.2 35l-.1 1.5c-.5-.2-.8.3-1-.1l-.3-3.1a1 1 0 011-.6c.6.7 0 2 .4 2.4zm-2.1 1.5c-.2.2-.6.5-1 .4 0-1.4-.5-2.6.2-4 .9 1 .5 2.4.8 3.6zm-2 .6c-.3.5-.8.5-1 0 0-1-.8-2.8.3-3.8.8 1.2.5 2.3.6 3.8zm-35-.7c-.2.2-.4.3-.8.3-.5-.7-.2-1.9 0-2.8l.4-.2c.5.7.6 1.8.4 2.7zm4.1-.4c-.2.4-.4.2-.7.3-.4-.8-.5-2 0-2.6 1 .3.6 1.5.7 2.3zm28.8-1.5c-.2 1.2.7 2.3 0 3.3-1 0-1-1-1.3-1.7 0-.6 0-1.6.5-2.3.5-.2.7.4.8.7zm-31.2 1.7h-.7c-.1-.8-.4-1.7.3-2.4.8.3.2 1.6.4 2.4zm-3.3.2c-.3.4-.5 1-1 .7l-.6-.6c-.5 1-1.6.7-2.2 1.2-.3.2-.7.2-1-.2 0 0-.2-.2-.4-.1-.4.4-.3 1-1 1.3-1-.4-.5-2-.4-3 .2-.2.3-.6.6-.7.4 0 .7.3.7.8v.2c.6-.2.4-1 .8-1.3 1.1 1 2.4-1.9 3 .2.2-.3.2-.9.6-1 1.4.2.6 1.7.9 2.5zm32.4.6c.1.4.5.7.2 1.1-.2.2-.4.1-.7.1-.8-1-.6-2.2-.6-3.4l.6-.3c.5.7.3 1.5.5 2.5zm-42 6.6s-.1.2-.2 0c-.6-.9.2-2.1-.2-3l.1-1.6c1 1.4-.5 3.1.4 4.6zM693 288.7c.1 1.5.3 2.9.2 4.5-1.4-1.6-2.9-4.8-5-6.5-.5.2-.4.7-.2 1 1 1.3 2.1 2.7 2.8 4.2-1.4-.4-2.9-1-3.7-2.4 0-1-.2-2.3.5-3.4 2.3-.4 4.5.5 5.4 2.6zm5 12c-.1.4.2.5.3.7.3-.2.7-1 .9-1.7v-2c1 1.9.8 4.3-.1 6.2-1.2-1.6-1.8-3.7-2.9-5.3-.8-1.6-2-3.5-2.7-5.2l.1.1c1-1.2 1-2.4.8-4 2.7 3 4.5 6.8 3.6 11.3zm-5.3 1.7c1 2 2 4 2.2 6.3-.1.2-.2.3-.4.3-3.4-6-6.9-12.3-11.5-17.2-.6 0-.6.7-.4 1a63.4 63.4 0 0110.6 18c-.7.7-1.5-.4-2.2-.6-.4-2-2.9-2.1-3.4-4 .8-.6 2.4 0 2.8-1-.6-.6-1.5-.3-2.3-.6-2.8.4-3-2.7-4.1-4.4l-.3-.8c1 0 2.5 1 3.4 0-2.1-1-5.3-2.2-5.2-5-.4-1-.3-2.4.4-3.1 5.1.7 8 7 10.4 11.1h0zm-2.2-9.4c1.8-.8 1.8 2 2.8 2.8v.4l-3.6-1c-.6-1-1.7-1.5-1.7-2.5l2.5.3zm6 9.1c-1.1-1.3-3.6-.5-3.8-2.5 1.7.2 3.2.9 3.8 2.5zm5 3.6c.5 1.5 2 0 3.1.5 1.2-.4 2 .7 3 .5.4.3 1.1.3 1.6.6 4.8 2.8 6.6 8.5 6.6 13.8.1 2.8.2 5.9-.4 8.3.2.8 0 1.4.1 2l-.2.1c-.3-.4-.1-1.4 0-2a40 40 0 00-1.3-15c-1.3-1.4-2-3.7-4-4.5-.1.1-.5 0-.4.3.3.9 1.3 1.5 2 2.3 3.4 5.2 2.5 12 2.5 18-.9 2.8-.3 5.2-1 8-.2 4.6.8 8.5 3.6 12 1 1.9 1.1 4.7.2 6.6l.3.2c1.2-1.5 1.3-3.3 1.2-5.5v-.3c.7 0 .2 1 .6 1.3 1.3-.8.6-3.8 3-2.5.4.5 1.2-.1 1.5.6h1.1c.3.5 1 .3 1.4.7 2.4.4 5.2 1 6 3.6 3.5 6.3 5 13.5 7.6 20 1.5 7.4 1.9 14.7 4 21.8-1.6-1.1-1.1-3.4-2.1-4.7-.4 0-.5.3-.7.4a7 7 0 002.8 6c.3-.1.7.2.6-.5 2 2.4 3 5.5 2.7 8.6-.7-2.8-3.6-4.7-6-5.6-1-.7-2 0-2.8.3-3 2.5-3.8 6.3-5.2 9.6-.4.1-.8-.2-.8-.6-.8-3.6 1.5-7.5 1-10.6a39 39 0 00.1-13.1c-.5-1.5.2-4-1-5.2-.6 3.1.5 7-.6 10.5a12 12 0 01-.7-6c.3-4.5.7-9 1.7-12.7 0-1.3.3-4-.3-4.9-.3 0-.4.2-.6.4.4 3.5-.9 6.3-1 9.6-.2 1-.4 2.3-.8 3.3-.3-5.5 1.3-11 2-16.6-.1-2.9-1-5.4-1.3-8.5-.2-.3-.5-.4-.7-.2-.4.8 0 2 0 2.8.8 4 0 8.6-.3 12.6-.3 4.6-2.2 9-1.3 13.4.6 3 .2 6.7 2 9.4 0 .7.3 1.4 0 1.9-2-3.6-3.7-8-2.5-12.5-.4-.5.5-1.6-.7-1.5-1 1.8-.4 3.3-.7 5.3-.3 7.9 3.7 15.5 4 23.5-.5 1-1.4 2.2-2.7 2.4.8-2.6 1.3-4.5 1.1-7.1-.3-2-1-4-2.2-5.8-1 .5-.2 1.5-.1 2.2 1 1.5.7 3.5.6 5.1-1.4.5.5 2.7-1.6 2.7-.6.7.4 1.6-.4 2.2-.6-.4-1.3 0-1.4.6-.3 1.3-1.8.3-2.7.5-1-1 0-2 0-3.1 1.3-1.9.6-4 1.6-6 .2-3 .5-5.9-.1-9.2-1.3.8.1 2.7-1 3.7 0 1.1.1 2.5-.2 3.6.5 2.2-1.1 3.9-1.4 6-1.5 2.6-1 7.7-5.7 7.2-.7-.7-1-1.7-1-2.6-1 .5-.4 1.8-1 2.6-1.6-.1-3.2-1-5-.8-1.1-.8-.1-2.5-.8-3.8-1.3 1 .1 3.6-1.6 4.2-2.4.1-4.8-.6-7 0-3.3-2.9-2.6-8.2-2.6-12.3-.2-.1-.4-.4-.5-.1-.6 2.2-.8 4.8-.9 7.2l.8 3.9c-.4 0-.4-.5-.5-.7-2-3.2-.4-7.8-.5-11l.1-6.7c-.3-.7-.2-2-1.2-2.2-.8.7.2 1.3 0 2.1 1.4 6.2-1.3 12-.4 18.2-.7.3-1.1-.3-1.6-.8-.7-.9-.4-2.2-1.4-2.9-.8 1 .2 1.7 0 3-1.7.2-2.1-2.2-3.4-2.7-.7 1 .4 2.3-.6 2.8-.8.1-1.4-.5-2-.7-1.4-1.8-.5-3.7-.9-6.1.4-7.6.3-14.7-.5-21.8.3-3.9-.4-8.3 0-12 .5-1.8 0-4.3.7-6-.2-.5.5-1 0-1.7-.8.9-1 2-1.3 3.1-1.1-.3-.7-2-1.2-2.8-1-2.5-.4-4.5-1.4-7 0-1.6.1-2.4-.1-4l-.4-.1c-1.4 6 1.4 11.7 2.6 17.3 0 .2-.3 0-.4 0-2.2-2.3-2.4-5.7-3.3-8.8h-.2c-1 5 2.7 8.7 3.2 13.4.6 1.9.5 3.7.8 5.6l-.3 2.3c-2.3-2.5-1.6-5.9-2.9-8.5-.5 4.3 1.7 8.4 2 12.6.8 1.4 0 3.4.5 5 .9 3.3 1.9 7.1.2 10.4-.5-.5-.3-1 0-1.5 1.4-4.9-1.1-9-2-13.6h-.4c-.3 2 .9 4.1.8 6.4 1 3.6.2 7.5-.3 11-.2-2.8.9-6-.5-9.3-.3-1.2.2-2.4-.6-3.1l-.3.7c0 4.2 1.2 9.6-.6 13.5h0v.2h0c-.2-.7.2-2 .4-2.6.7-4.2-.7-7.8-1.3-11.7-.2-1.5-2.1-1.1-2.3-2.6-.4-.5-1-.6-1.5-.6-.5-1.5-2-.6-3-.2-.5.3-.9 1-1.6 1 .1-3.2 2.4-5.2 2.4-8.1.8-2.1-.1-4.4 1-6.7 1-3 1.3-5.6 1.4-8.7-.4-2.9.2-6.5 2.1-9.3.6-2.2 2.4-3.8 3.8-5.7a7.3 7.3 0 014.2-1.1c2.2-.4 3.7-1.2 5.8-1.8.6 1 .2 2.6 1.6 3 0 1.6 1.6 2.2 2 3.7 1.4 0 .5 1.8 1.7 2 .7.6 1.2-.1 1.5-.7.2-.6-.3-1.6-1-1.7l-1.4.2-.2-.7c.5.4 1.3.5 1.7 0 .6-.3.7-1 .3-1.6l-.7-.6c.3 0 .6-.4.8-.6l1.2 1 .3-.5c-.2-.1 0-.3 0-.5a28 28 0 012.9 5.7c1 1.1 3 1 3.8 2.6.5.7.4 2 1.7 2.2l.2-.5c-1-1.7-2-4-4.4-4.4-.7-.5-1-1.4-1.1-2.2 1.3-.6 1.7 1.5 2.8.6-1.3-2.4-4.1-4.2-5.6-6.3l1-.1c-.2.6.1 1.1.6 1.3.5 0 1 0 1.4-.2.2.5.4 1.1 1 1.2.7.2 1.2-.1 1.4-.8 0-.4-.3-1-.6-1.3-.7-.4-1 .3-1.6.2 0-.5-.3-1-.8-1.3-.4 0-.8 0-1 .3v-.7h.5v.3c.3-.1.5-.3.8-.3a2 2 0 001.1 1.4c.7 0 1-.6 1.1-1.1 0 .7.2 1.4.9 1.7.7.2.9-.6 1.3-1 0 .7.6 1.2 1.2 1.3.1.3-.2.3-.3.4-.5-.2-1-1-1.6-.5-.4 0-.6.3-.8.5 0 .7 0 1.3.7 1.6.5.1 1 0 1.3-.3 1 .1 1.8 1.2 2.6.2-.1 1.2.5 2.4-.2 3.3.5 1.9-.9 3.5-1 5.4l.3.4c.6-.6.8-1.4 1.4-2 .2.1 0 .6.3.7.6-.1.8-.7 1.2-1 1-1.2 3-.6 3.7-2 .7-.8.7-1.4 1.3-2.2v-.1c.6-.9 1-2.5 2-2.7.4 1-1.2 2.1.3 2.8-.8.4-1.3 1.5-.6 2.1.4.5 1 .5 1.4.3.6-.3.7-1 .5-1.6l-.5-.4c.7-.6.8-1 .6-2.1h-.1c.2-.7 1-1.4.2-2.3-.2-.6-1.6 0-1.1-1.2-.4-.7-1-.2-1.5 0l-.2.2c.2-.1 1-1 .7-1.5-2.5-3.5-1.8-7.3-1.8-11.2h.2c-.6-.4 0-1 0-1.5-.2-5.8 1.4-12.3.4-18.4-.1-2.7-2-4.5-4.3-6-1.1-.5-2.7-.2-3.7-1.3-1.5-.4-1.2 2-2.6.9-1.3-1-3.5 1.7-3.7-.9-1 .8-1.7 2-3 2-.2-.6.7-1 0-1.6-4.7 3.6-4.5 10.4-4.4 15.6.1 4 1.5 8 2.2 11.7 1 1.2 0 3.7.7 5 1-.7 1.8-1.3 2-2.4 1.1-1 2.5 0 3.6.1 1.8 1 3.9 2.1 6.1 1.5 1.7.8 1.3 3 1.7 4.5-1 .6-.5 2-.8 2.7-.4-.5-.6-1.4-1.6-1-.2.3-.7.6-1.2.3-.4-.4-.8-.3-1.3-.1l-.4.4a2 2 0 00-.6-.9c-.5.1-1.1-.3-1.4.3 0-1.5-2.1-.4-2.2-1.7-.2-.5-1.8 0-1.5-1.2a3 3 0 01-1.6-1.7h-.8c-.7.5-.5 1.3 0 1.8 1 .4.7 1.8 2 1.8l-1.3-.1c.2-.6-.3-1.2-.8-1.4-.3-.1-.8.1-1 .5 0 .7 0 1.3.7 1.7.6-.2.7.3.8.7-.1 0-.2 0-.1.1-.9 0-1.5-2.1-2.3-.7v.5c-.9.1-.9 1.2-1.4 1.7l-.6 1.9c-.6-3 1.3-6 2-8.8 1.4-2.8 1.1-6.2-.2-9.1-1-4-2.3-7.6-1.7-12.1 0-1 1-2.2.3-3.2l-.5.6-.8 4.8c-.2-6.9 2.8-14 8.3-18.2 1-.5 2-.3 2.4-1.4-.4-.3-1.1-.6-1.2-1.1.5-1 1.6-1.9 1.7-3.1.5 1 .8 2.3.5 3.8h0v0h0v0h0zm-3.6.4c0 .4-.6.4-1 .3-1-1-2.2-2-2.3-3.4 1.4.4 2.9 1.4 3.3 3zm14.4 12.1c.6 4 .7 8.3-2.3 11 .7 1.9 1.3 4.4.3 6.3-1.2 1.7-2 4-4 4.6-3-1.3-7.5 1.8-9.3-2-.2-1.9-1.4-3.2-2-4.8h.6l.1-4.2c-2.9-3-2.8-6.9-1.8-10.4.7-1.1 1-3 2.5-3.3 4.7-.4 9.3-1.8 13.6.4.9.6 1.7 1.5 2.3 2.4zM690 328.8c.3.5.3 1.3.2 1.5a9.5 9.5 0 01-.3-4.3c.2 1.2 0 1.8.1 2.8zm-42 2.4c-.5 1.9-.5 4 .4 5.6 0 3.4.7 6.3.6 9.6h-.4c-.3-3.1-.3-6-.9-9.4l-.3-.2-.6.7c-.9 6.7-2 14.7-2.5 21l.1.1c-.1 3.4-1 6.3-.6 9.6.7.3 1.5 1 1.5 1.8.2 2-.6 3.8-.3 5.4 1.4 2 3.3 4 2.7 6.3-1.1.7-1.2 3-3 2.3-1.1-1.3 1-2.5-.4-4-.3-1 1-2.2 0-3.3a3 3 0 00-.1-3c-.7-1-1.8-2-3.3-2l-.6-.6c.5-4.8 1.3-9.3 2-14.1 1.2-7.6 2-14.4 3.8-22 .2-.9-1-1.5-.4-2.2.7-.4 1.5-.8 1.5-2h.3v-.2c.6-.2.3.4.5.6h0zm67.9 4c-.3 3.4 2 6.2 2.7 9.3 1 1.2.6 2.7.9 4-.8-3.8-3.6-7-3.6-11-.1-.2-.3 0-.5-.2-.5.4-.2 1-.4 1.4-.5-1.2 0-2.4 0-3.7l.3-3.3c.8 1.2.2 2.3.6 3.4zM690 346.5c-.2 2-.5 3.6-1 5.5-.8-3.7.4-7.8 1.6-11.3.3-.8.3-1.6.5-2.5-.3-1.7 0-3.5-.6-5.3v-.8c1.5 4.5 1.9 10-.5 14.4zm24.8-7.3l.2.5zm.3.8c.3 1.7.2 3.7 1.5 5 .5 1.1 1 3 1.2 3.8-.5-2.2-2.3-3.3-2.3-5.6-.5-.8-.7-2.2-.7-3.4 0 .2.2.2.3.2zm-65.9 8.1c.3 5.3 1.2 11.3 1.2 16.6l1.5 14.1a85 85 0 001 10c2.8 3.3 7.4 2.4 10.7 4.7 2.3 1.7 4 2.7 6 4.8.8-.2 0-.9 0-1.4-.8-1-2.2-2-2.6-3 1.1-.7 2.2-1.5 3.7-1 3.1 2 5 5.8 4.6 9.6-1.3 2.6-3.5 4.8-3.8 7.8.1.4.4.5.5.6 1.2-1.2 1.6-3 2.8-4 0 .5-.4 1-.7 1.6-.7 0-.5.7-.7 1-1.1 1.4-1.4 3.3-3.2 3.9-3.2.5-4.3-2.2-6.6-3.3a18.2 18.2 0 01-9.5-6.6l-.1.3c0 4.8.7 9.3.7 14.3l.3.2c1 10.3 1.4 19.6 2.3 29.7.6 2.4.2 4.7.8 7l1 14c.9 14.5 2.6 29.2 3.4 43.9.7 6.3 1.1 12.4 1.7 18.8.1 4.5.6 9.6 1 14 1 11.8 2 22.7 2.7 34.4-.5 2.3 1 4.1 1 6.3-.3.4-.5.1-.8.2-.2-2-3.2-1-1.7-3.2a400 400 0 01-24-89.4c-1.6-11.7-2.7-24.2-4-36.3-.7-17.8-1.6-35.5-.3-54 0-5.2.2-9.8.6-15a8 8 0 01-3.2-4.3c.2-1.7 2.6-1.4 3.9-2.3 1.8-.4 2.5.9 3.6 1.7.2.3.5.8.2 1-.3.4-1 .1-1.3.7-.1 1.3-.4 2.6.5 3.6.5.2 1.1.4 1.6 0 .2-.6.4-1.2 1-1.5 1.6-.3 2.1 2 3.4 2.9h.6c-.3-1-1-1.7-1.4-2.6-1.3-1.6-.3-3 0-4.7h.4c1 1.3 1.4 3.1 3 3.9 1-1.2.3-3.3.4-4.8-.1-1.5-.5-3-.5-5-.5-4.3-.6-8.5-1.1-12.4-.4-2.6 0-5.6-.6-8.5 0-2-.6-4.3-.4-6.4l-.3-1.7.3-.3c-.5 0-.3-.8-.3-1.3.4.2.6 1 .7 1.4h0zm63.3-.5l-.1.5-.5-.2c-.3-.5.5-1 .6-.3zm-1.5.6c.2.3 0 1.2-.5 1a.4.4 0 01-.5-.4c0-.5.5-.7 1-.6zm-1.6 1.5c0 .4-.4.4-.5.7-.4 0-.5-.2-.6-.5 0-.6 1-1 1.1-.2zm8.8.6l-.3-.9.3.6zm-5.2-.6c.2.3 0 .5-.3.7-.3.1-.6-.2-.6-.5s.6-.6 1-.2zm-1.5 1c-.2.3 0 .6-.3.8-.6.2-.6-.3-.8-.5.3-.5.8-.5 1.1-.3zm-5.3 1.3c-.6.3-1-.4-1.7-.2 0-1.3 1.4 0 1.7.2zm3.3 0c.3.2 0 .5-.2.5-.4.1-.4 0-.5-.4-.2-.4.8-.8.7-.1zm-1.7.5v.9c-.4 0-.7-.1-1-.3 0-.6.6-1.1 1-.6zm-15.1 1.3l-1 .5v-.5c.2-.3.7-.3 1 0z" fill="none" stroke="#000" stroke-miterlimit="10" stroke-width=".4"/><path d="M642.7 373.9c.4.4.6 1.2.4 1.5-1.2-.1-2.7-.4-4-1-.6.1-1.1-.6-1.6 0-.4.2-.2 1.2-1 .8-.2-.7-.1-1.7.4-2.2.9-.6 2.7-.5 3.9 0 .8-.2 1.3.2 1.9.8z" fill="#e6a300"/><path d="M642.7 373.9c.4.4.6 1.2.4 1.5-1.2-.1-2.7-.4-4-1-.6.1-1.1-.6-1.6 0-.4.2-.2 1.2-1 .8-.2-.7-.1-1.7.4-2.2.9-.6 2.7-.5 3.9 0 .8-.2 1.3.2 1.9.8z" fill="none" stroke="#000" stroke-miterlimit="10" stroke-width=".6"/><path d="M641.5 376.4c1 .2 1.6.7 1.7 1.8l-.2.4c-2.3-1.5-5 0-7.2 0-.3-.7-.3-1 0-1.5 1.2-1 3.3-1.5 5-.7h.7z" fill="#e6a300"/><path d="M641.5 376.4c1 .2 1.6.7 1.7 1.8l-.2.4c-2.3-1.5-5 0-7.2 0-.3-.7-.3-1 0-1.5 1.2-1 3.3-1.5 5-.7h.7v0z" fill="none" stroke="#000" stroke-miterlimit="10" stroke-width=".6"/><path d="M643.3 380.7v1c-1.4-.5-2.8-1-4.3-.7l-3.1 1.1c-.6-.3-.4-1-.4-1.4 1-1.2 2.5-1 3.7-1.4 1.6-.1 3.3-.1 4.1 1.4z" fill="#e6a300"/><path d="M643.3 380.7v1c-1.4-.5-2.8-1-4.3-.7l-3.1 1.1c-.6-.3-.4-1-.4-1.4 1-1.2 2.5-1 3.7-1.4 1.6-.1 3.3-.1 4.1 1.4zm-3 3.9c-.3.6-1 1-1.6 1.4-.5 0-.8-.5-1-1 .6-.6 1.6-.5 2.4-.8z" fill="none" stroke="#000" stroke-miterlimit="10" stroke-width=".6"/><path d="M759.6 394c-1.6 7-4.1 14-6 21-.7 1.1-.7 2.6-1.5 3.7-1.8 6.8-4 13.3-6.1 20-1.6-2.7.7-4.9 1-7.3.7-3 1.8-5.7 2.4-8.8 1.6-3.4 1.8-6.8 3.6-10.4 1.3-4.8 2.6-9.6 4.1-14.1.7-1.4.8-2.8 1.3-4.2.4 0 1-.2 1.1.1z" fill="#e6a300"/><path d="M759.6 394c-1.6 7-4.1 14-6 21-.7 1.1-.7 2.6-1.5 3.7-1.8 6.8-4 13.3-6.1 20-1.6-2.7.7-4.9 1-7.3.7-3 1.8-5.7 2.4-8.8 1.6-3.4 1.8-6.8 3.6-10.4 1.3-4.8 2.6-9.6 4.1-14.1.7-1.4.8-2.8 1.3-4.2.4 0 1-.2 1.1.1h0zm-15.1 16.1c.4 2.2.4 4.6.8 6.7 1-.3.5-2.3.8-3.2v-3.8c.1.4.5.9.5 1.5 1.6 9.7-3 17.9-2 27.4 1 3.2 2.8 6 3.2 9.5-.1 1.5-1.8 2.3-1.6 3.9-.6.5-1.6-.3-1.6.8-.3 1 .1 2.3-.7 2.7-.8-.6.4-2.4-1-2.3-1 2 .9 5.4-2 6 .6-2.4-1.3-4-1.7-6.4-.9-1.2-.3-3-1.2-4.3-1.6 2.3.9 4.4.8 6.9.3.2.2.8.2 1-.5.5-.7 1.4-1.5 1.2-.4-1.3 0-3.3-1.1-4.4-.1-.6-.2-1.5-.8-1.9l-.2.2c.6 4.4-1.2 8.6-.8 12.8l.9.7c-1 3-1.8 6-2.9 8.9-.4.3-.7 0-1 .4.1 1 .2 2.4-.4 3.3-.8-1 .4-3.4-1.2-3.4-1 .9.3 2.4-.9 3.1-.3-1-.2-2.5-.9-3.1-1.2.7 0 2.7-1.1 3.6 0 .5.2 1.2.7 1.2.4 0 1 .2 1.3.5.6 1.3 1.6 2.3.5 3.7-1 4-2.4 8.2-3.6 12.3-.8 0-1.6 0-2 .9-.2.7.4 1 .4 1.6-1.1.2-2.4.1-3 1.3.5 2.6.4 5 1.4 7.4-.1 1.3 0 2.6 1 3.4 2.8-1.8 4.1-4.7 6.7-7.1.5-1 .4-1.7-.2-2.5-.4-.5-1-.7-.6-1.3.7-.2 1-1.2.7-1.8-2-1.3.4-2.9.3-4.7.8-2.8 2.2-6.4 3-9.2l.3-.3c1.6 3-.5 6-.1 9.2a24 24 0 01-4.7 13.8c-.2.2 0 .4.2.6.8-.4 1.9-1.2 2.6-1.8-1.4 2.2-3.1 4.3-4 6.9l.2.5c.6-.5 1.2-.8 1.6-1.6.4-.4.6-1.5 1.6-1.6-1 1.7-2.4 3.2-2 5.3l.4.3c.4-.3.5-1.2 1.3-1.2 1 3.2-.3 6.5.2 9.6-.1.5-.4 1-.8 1.5-.2 6-3 11.5-3.5 17.5-1.5 5.1.2 11.6-4.8 15v.5c1.7.4 2.2-1.3 3.4-2.2.2 1.2-1.2 2.2-.5 3.6.2 1 .8 1.8 1 2.7h-.6l-1.3-.6c-3.2-.6-5.1 2.4-8.4 1.4-.2 0 0 .3 0 .5 1.9 1.3 4.7.5 6.7-.5 1 .4 2.3 0 3.1.7-.2 1.4-.3 3-1.8 3.8-2.8 1-5-1.2-7-2.3-.7-1-2.1-1.3-2.4-2.5l4.6-2.2c.2-.9-1.1-.7-1.7-.6a10 10 0 01-4.2 1.7c-.4-1.5 1.3-1.9 1.2-3.4 2.2-7.5 1-14.5.8-22.4-1.4-5.5-1-11.1-.4-16.4 0-1.1 0-3.1.6-3.9 1 2.2 1 4.9 1.7 7.2.2 0 .3-.2.5-.3 0-4-1-7.2-1.5-11.3-1.1-6.1-.6-13-.4-19.8 0-.8.6-2.3 0-3.1-2 .5-.6 2.4-1.2 4l-.2.3c-1.5-2.8-.9-5.4-1.4-8.5.3-.7.9-.8 1.3-1.1l-.1-.2c.8-.8 2.7-1.1 2.6-2.5-.8-.9 0-3-1.2-3.2-1.1 1.1.3 2.5-.4 3.7-1 .2-.8-.8-1.1-1.4-.2-.8.6-2-.6-2-1.1 1-.3 2.5-.4 4-.2.2-.5 0-.7 0-1-1 .3-2.4-.7-3.5-1.2 0-.7 1.5-1 2 .2.6.3 1.4 0 1.8-.8 0-.4-.7-.7-1-.4-1 .9-2.3-.7-2.6-1 1.2.2 2.4-.6 3.7-.3.1-.4-.1-.6-.3-.4-1.3.4-2.6-.5-3.6-1.7.3-.2 2.9-1.3 3.5l-.3-.3c-.1-.9.6-3-.8-3.6-.7.8-.3 2.5-.7 3.3h-.4c-.3-.9.7-2.5-.3-3.3-1.3.5-.1 2.3-1.4 2.7-1-.6.6-3.4-1.1-2.9-.4.9-.1 2-.6 2.8-1.4-.5 0-2.4-.6-3.1-.3-.4-.6-.4-.9-.1-.3.8 0 2.2-.7 2.7-.2-1.2 0-2.7-1.1-3.4-.7.8.1 2.6-.7 3-1.7-.6.2-2.7-1.6-3.2-1 .5.2 3-1 2.5-.3-1 .1-2-.6-2.7-1.2.4-.1 2-1 2.8.4 1.2 1.6 1.6 2 2.8.6.8 1.6.6 2.2.1 0 .7-1 .7-1.1 1.4.9 1.9-.3 3.7-1.2 5.2.1.5.6.6 1 .7-.2.5-.6 1.2-.4 1.7.5.9 1.1 0 1.7 0 0 .9-1.3 1.5-.8 2.5 1.4.5 1.4-1.2 2-2 .2-.2.4-.7.2-1.1l-.5-.3c1.6-2.3 2-4.9 2.7-7.3l.1-.4c.4-.1.4.4.5.6.6 2.5-1.8 4.3-.5 6.8-1.2 2.6 0 5-.6 7.9-1.6 7.7-.2 16.7-4 23.5-.5 1.7-.1 2.6-.2 4.3 0 .4.5.3.7 0 .8-1.3 0-3.3 1.1-4.8a44.6 44.6 0 01-2.3 26.5c-.1.7-.3 1.3.3 1.9 1 .2.7-1.3 1.5-1.8-.3 2.6.8 7-2.8 7.9-.2.3-.6.3-.4.7.4 1 1.2 0 1.9 0 .6 1.8.6 4 .9 5.9 0 .7-.7.4-1 .3-.5-.2-1.1-.5-1.7-.2 0 .2-.3.3-.2.6 1.2.8 2.5 1.1 3.5 2.3.6 1.3 1.4 2.4 1.6 3.9a9 9 0 01-4.1-.4c-3-.5-6.2-1.5-9 0-.7 0-1.5-.3-2-.7 1-.8 1.7-2.2 2.1-3.5.4-.6.6-1.5.7-2.3.4-5.3-1.6-9-1.7-14 .4 0 .5.7 1.1.5.6-.5.2-1.2 0-1.7-.5-.2 0-.8-.4-1.1a52.4 52.4 0 01-2.4-20.4c.1-.5.6-1 .4-1.6-.6-1.6 0-3.8 0-5.7l.7 1.6c.2.7-.4 1.6.5 1.8 1.2-1 .3-1.7.4-3-1-3-3.2-5.6-3-8.8.8-4.4-.8-9-1.7-13.1-1-5.5 0-8.9-1-14.6-.2-.2-.4-.5-.7-.4 0-.9.8-2.6-.2-3.3-2.2 2.2.2 6-.9 8.5.3-2.3-.2-4.5-.6-6.8l-.6.2.1-2.7h.1c.6-2.8 1-6.1.4-8.8 0-3.1 1.7-6.7 2.1-10a73.7 73.7 0 003.4-17.6c1.3-4 0-9.4 4-12.7 1.7-.3 1.3 1.9 1.5 2.9.1 1.4 0 2.6.5 3.8.5.2.5-.2.6-.4 0-1.7-.4-3.7.7-5-.2-.8.9-.5 1.3-.4 1 3.2.6 7.1 1.7 10.2.3-.5 0-1 .4-1.6.1-1.5.3-4 .1-5.5.2-1.4 2.5-3 1-4.2-3 0-5.8-1.1-8.7-1.4-.6-.1-.7-.6-.6-1.1.9-.9 1.8-.3 2.7 0 4.5.4 8.3 1.3 13 1.7 3.4-.6 7.5.8 11.2 0 2.5.1 4.7-.4 7.1-.4.6-.7 1.7 0 2.3-.7 1 .4 1.5-.7 2.6-.3 1-.5 2.8-.2 3.9-.7 1.5 0 3.1 0 4 1 0 .5-.2.8-.6 1-8.3-1.8-16 2.7-24.1 1.9-2.6-.3-5-.2-7.5-.3l-.2.2c.5.6.8 0 1.3.6 2.2.2 4 .7 6 1 5 .3 9.5.4 14.5-1.2.6-.1 1.3-.4 1.8-.3-.8 1-2.1 1-3 2 .1.8.9.2 1.3.3.4-.3 1.2-.4 1.7-.7 1.1 0 2.5-.9 3.7 0 .2.5.9.6 1.3 1 .9 1 .5 3 2.1 3 .6 3 2.6 5.6 2.7 8.4.4 1.3.2 3 .7 4.4l.6-.6c-.3-2 .3-4.4-.1-6.7l.5.7c.5 3 .7 6.4 1 9.3.2 0 .4 0 .6-.3.3-2.3 1.2-5 1.5-7.2.8-4.8-.3-10-.1-15.6-.4-1.4 0-2.6-.6-3.8-.3-3.2-2-6.3-2.3-9.7a12 12 0 012.6-6.1c1-1 2.2-2.7 4.1-2.3 2.8.7 2.5 4 3.5 6h0zm-69.1 1.4c.3-.6.1-1.5.5-2.2l-.3 2.2zm-.3 1.4c-.2-.3 0-.8.3-1.3 0 .3 0 1-.3 1.3zm55.3 3.3c0 1-1.3 1-2 1.3-6.9 1-12.5 5-19.8 4.7-.4.3 0 .7.4.8 2.7.6 4.8-.8 7.2-.6.5-.5.8 0 1.4-.3 4.4-1.5 8-3 12.8-3.1.5.3.6.9.7 1.2-1.3.6-3 .3-4.3.7-2.5.6-4.5 2.2-6.9 2.9-4 1.4-8.6 1.4-13 1.6l-1.2-.3c.6-.3 1.6.4 2-.5-.8-.8-2.3-.4-3.4-.3-4.3 1.7-8.1-1-12.2-1.7-2.5 0-5.3.1-7.5-1-.2-.1-.4-.6-.1-.8 3.2-1 7.1-1.4 10.2 0 3.2 1.3 7 2 10.4 1.3 2.8-.7 6.1-.4 8.7-1 .2-.3-.2-.4-.3-.6-3.1-.4-6.2 0-9.2.4-3.1.2-6.4-.3-9.2-1.5h-.4l-1.8-.7c-2.4-.2-5.5-.6-7.6.3h-1c0-.7.3-1.6-.1-2.5 1.2-.8 2.8.3 4.3 0 1.2 0 2.3 1 3.5.6 5.9 1.8 11 .7 17.2 1.2-1.5.2-3.2.3-4.8.7.2.1.1.4.4.4 1.3-.2 2.9.5 4.4.2 1.5 0 3-.4 4.5-.5.8-.4 1.9-.2 2.7-.4v.3c5.5 1.6 8.7-3.2 13.6-3.4l.5.6h0zm3.1 16.5c-1.6-.5-1-2.2-1.6-3.7 1.1.9 1.2 2.6 1.6 3.7zm0 4.7c-.4-.2-.1-.5-.1-1 .3.1 0 .7.2 1zm2.2 4.5c-.4-.7-.4-1.7-.5-2.6.9.7.3 2 .5 2.6zm-43 1c-.3-.8-.3-1.6-.2-2.4.6.6.5 1.9.2 2.4zm24.8 6.2c0 2.3.2 4.4-.8 6.3h-.6c0-2.2.5-4.4.8-6.7.3 0 .6.2.6.4zm22.5 8.6c-.4 3.6-2 7.2-3 10.6-3 9.4-6 18.6-8.8 27.9-2-.2-.1-1.7-.4-2.6.5-1.9 1.3-3.3 1.5-5.1l.6-1.2c.6-3 1.8-5.6 2.4-8.4 1.3-3.2 2.5-7.5 3.4-11 .5-.1 0-.4.3-.7.8-2.9 2-5.7 2.8-8.5.3-.4.6-.9 1.2-1h0zm-.5 7.5h.1v.4h0zm.1.7c0 2.3.6 5.2.4 7.3.2-1-.9-2-.5-3.2-.3-1.2-.2-2.8 0-4h.1zm-3.4 11.6c0-.6-.3-1.4 0-1.9.1.6.4 1.4 0 1.9zm1.6-.6h.1v.9h0zm2.1 1.9c0-.5 0-1 .2-1.3zm-2.2.8l.1-.7v.6zm2.4 4c-.5-.5-.5-1.4-.3-2.2 0-.4-.2-1.4.2-1.8.9 1.3-.3 2.7.1 4zm-63.6 2.8c-.4.1-.5-.3-.4-.5.3 0 .3.3.4.5zm20.2 7.4c.5 1-.2 2-.7 2.7-.7.3-.6-.6-.7-.7.1-.8.5-2 1.4-2z" fill="none" stroke="#000" stroke-miterlimit="10" stroke-width=".6"/><path d="M728.6 497.8l.3.4c-.3.7-2 .4-1.3 1.5.8.6 1.4 1.3 2 2-.9 2.2-3 4-4.5 5.9l-.9.6c-.5-1-.7-3-1-4.5-.1-1.3-.1-2.6-.6-3.7 1-.5 2.3-.4 3.4-.8.1-.4.3-.7.1-1.1-.1-.3-.8-.5-.6-1 1.2-.2 2 .4 3.1.7zm-13 67.8c2.2 1.5 4.2 3 7 3.5-1 .6-1.8 1.8-2.1 3-.3.2-.7 0-1 .1-2.4-2.3-5.1-4.3-6.4-7.7.6-1.5 1.8.5 2.5 1zm13.2 4.4c2.9 2.5 5.5 6 4.5 10.2.6 1.5.4 3.8-.4 5.3-2.6 2-5-.7-7.5-1.1a10.4 10.4 0 01-5.4-6.7c-.7-1-1-2.5-1.8-3.4-1.3-2.3-6.6-2-4.4-5.9 2.3 1.9 4 4.3 6.8 5.7 1.4.1 1-2.2 2.1-2.8.4 2.2 2.1 3.8 3.3 5.5 1 1.4 2.2 2.6 4.2 2 .6-.5 1.3-1.2 1-2.2-.4-2-2.4-3-3.3-4.7.3.1.5 0 .6-.4.1-1-.6-1.6-1.2-2.5-.8-.4-1.2-1-2.2-1 1-.6 1-2 1.8-3.2.4 2 2.3 3.1 2 5.2zm-35.5-1.4c0 .4.5 0 .7.3-.5.7-1.3 1-2.2 1.2-2 1.3-5.3 1.9-7.3.8-.6-.7-.5-1.6-.6-2.5.6.8 2 .1 3 0 .4-.6 1.1 0 1.6-.4 1.7 0 3.2.4 4.8.6zm-10.1 2l.7 1.5a4.7 4.7 0 00-3.7 2.8c-1-2.2 1.2-4.4 2.2-6.4.7.2.3 1.4.8 2zm14.5-.5c.2 1.9-1.9 2.3-2.8 3.3a12.5 12.5 0 01-7.3 2.3c-1-.7-.5-1.7-1.4-2.4v-.5c2.6.2 4.5-.9 6.8-1.4 1.2-.6 2-1.1 3.1-1.9.5.1 1.3-.2 1.6.6zm26.8-.4c0 3.1 3 4.7 4 7.4-1 .1-1-1.3-1.8-1.8a6.8 6.8 0 01-2.5-5.7h.3zm2.8 1.8c-.5.4-.2.7-.3 1.1-1-.7-.9-2-1.1-3 .8.3 1.2 1.3 1.4 2zm-43 2v-1.1l.2.4-.1.7zm-3.1 7c-1 0-1 1.3-2 1.2 1-1 2.1-2.4 3-3.5a8.8 8.8 0 002.1-4.2c-.2 2.4-1.4 4.8-3.1 6.5zm1.1-6h.1v.5-.4zm5 2.6c3-.1 5.9-.9 8.4-1.9-.2 1.2-3 .6-1.8 2.1l1.9-.4c-2 1.8-5 2.6-7 4.4-2.4 2.4-4.3 6.4-8 6.5l-2.4.9v.5c1 .6 2-.5 3-.4-.8.7-1.6 1.3-2.6 1.5-1.3.7-3.1 1.7-4.3.7-.5-2.2-1.4-4.5-1.3-7 .5-4.3 5.5-4.8 7-8.6.2.1.4.2.5.6v.6c-.8 2-6 3-3.1 5.8.7.5 1.5 1 2.3.5 2.7-1.8 5.1-4.6 5.7-8 .2.9 1 1.7 1.7 2.2zm-8.6 3c.4-.3.8-1 1.3-1.1 0 .7-1 .7-1.3 1.1zm77.8-183.3c-.7-.6-1.3-1.6-1-2.7l1.1-2.3c1 1.3.4 3.6-.1 5zm3 6.1c-.4.3-.7.8-1.3 1 1.1-3.2 1-7.7 4-10-.7 3-1.5 6-2.7 9zm-3.5-4.3c-1 1.9-1.2 3.9-2 5.8-1.4-2.3 0-4.9 1-7.2.3.5 1.8.4 1 1.4z" fill="#e6a300"/><path d="M728.6 497.8l.3.4c-.3.7-2 .4-1.3 1.5.8.6 1.4 1.3 2 2-.9 2.2-3 4-4.5 5.9l-.9.6c-.5-1-.7-3-1-4.5-.1-1.3-.1-2.6-.6-3.7 1-.5 2.3-.4 3.4-.8.1-.4.3-.7.1-1.1-.1-.3-.8-.5-.6-1 1.2-.2 2 .4 3.1.7zm-13 67.8c2.2 1.5 4.2 3 7 3.5-1 .6-1.8 1.8-2.1 3-.3.2-.7 0-1 .1-2.4-2.3-5.1-4.3-6.4-7.7.6-1.5 1.8.5 2.5 1zm13.2 4.4c2.9 2.5 5.5 6 4.5 10.2.6 1.5.4 3.8-.4 5.3-2.6 2-5-.7-7.5-1.1a10.4 10.4 0 01-5.4-6.7c-.7-1-1-2.5-1.8-3.4-1.3-2.3-6.6-2-4.4-5.9 2.3 1.9 4 4.3 6.8 5.7 1.4.1 1-2.2 2.1-2.8.4 2.2 2.1 3.8 3.3 5.5 1 1.4 2.2 2.6 4.2 2 .6-.5 1.3-1.2 1-2.2-.4-2-2.4-3-3.3-4.7.3.1.5 0 .6-.4.1-1-.6-1.6-1.2-2.5-.8-.4-1.2-1-2.2-1 1-.6 1-2 1.8-3.2.4 2 2.3 3.1 2 5.2zm-35.5-1.4c0 .4.5 0 .7.3-.5.7-1.3 1-2.2 1.2-2 1.3-5.3 1.9-7.3.8-.6-.7-.5-1.6-.6-2.5.6.8 2 .1 3 0 .4-.6 1.1 0 1.6-.4 1.7 0 3.2.4 4.8.6zm-10.1 2l.7 1.5a4.7 4.7 0 00-3.7 2.8c-1-2.2 1.2-4.4 2.2-6.4.7.2.3 1.4.8 2zm14.5-.5c.2 1.9-1.9 2.3-2.8 3.3a12.5 12.5 0 01-7.3 2.3c-1-.7-.5-1.7-1.4-2.4v-.5c2.6.2 4.5-.9 6.8-1.4 1.2-.6 2-1.1 3.1-1.9.5.1 1.3-.2 1.6.6zm26.8-.4c0 3.1 3 4.7 4 7.4-1 .1-1-1.3-1.8-1.8a6.8 6.8 0 01-2.5-5.7h.3zm2.8 1.8c-.5.4-.2.7-.3 1.1-1-.7-.9-2-1.1-3 .8.3 1.2 1.3 1.4 2zm-43 2v-1.1l.2.4-.1.7zm-3.1 7c-1 0-1 1.3-2 1.2 1-1 2.1-2.4 3-3.5a8.8 8.8 0 002.1-4.2c-.2 2.4-1.4 4.8-3.1 6.5zm1.1-6h.1v.5h0v-.4zm5 2.6c3-.1 5.9-.9 8.4-1.9-.2 1.2-3 .6-1.8 2.1l1.9-.4c-2 1.8-5 2.6-7 4.4-2.4 2.4-4.3 6.4-8 6.5l-2.4.9v.5c1 .6 2-.5 3-.4-.8.7-1.6 1.3-2.6 1.5-1.3.7-3.1 1.7-4.3.7-.5-2.2-1.4-4.5-1.3-7 .5-4.3 5.5-4.8 7-8.6.2.1.4.2.5.6v.6c-.8 2-6 3-3.1 5.8.7.5 1.5 1 2.3.5 2.7-1.8 5.1-4.6 5.7-8 .2.9 1 1.7 1.7 2.2v0h0zm-8.6 3c.4-.3.8-1 1.3-1.1 0 .7-1 .7-1.3 1.1zm77.8-183.3c-.7-.6-1.3-1.6-1-2.7l1.1-2.3c1 1.3.4 3.6-.1 5zm3 6.1c-.4.3-.7.8-1.3 1 1.1-3.2 1-7.7 4-10-.7 3-1.5 6-2.7 9zm-3.5-4.3c-1 1.9-1.2 3.9-2 5.8-1.4-2.3 0-4.9 1-7.2.3.5 1.8.4 1 1.4z" fill="none" stroke="#000" stroke-miterlimit="10" stroke-width=".6"/><g fill-rule="evenodd"><path d="M700.5 333.6h0zm.2 0c-.7 0-1.3.1-1.7.3-.3.2-1.4.3-.9.9l1.8-.2h3.6c.6-.2 1.3 0 1.9-.1h2.4c0-.3-.4-.1-.4-.2l-.6-.3-1.1-.4h-2c-.3.5-.8.5-1.3.4h-.4c-.4-.3-.7-.5-1.2-.4h-.1zm1.7.4h.1zm1.3-.4h-.2.2zm-4.4.1h-.2.2zm.8.9c-.1 0-.2 0 0 0zM700.8 335.2v.4l.1.5.3.7.3.1h.3c.3-.2.6-.2.8-.2h.8l.6-.4c.1-.2.2-.3.1-.6v-.2c-.2 0-.3.2-.5.1a3 3 0 01-1.4.2c-.3 0-.6-.2-.8-.3l-.6-.3zM717.2 448.8l.2 4.7-.8 2h-.7l.8-6.2zM696.4 493.7l.4.8-1 2-.4-.3v-1zM640 384.4l-.4 1-1 .8-.9-1.3z"/></g><g fill="#e6a300"><path d="M861.7 532.9l.2-.7c.2-.1.3-.9.4-1.8l.4-1.7.2-1.2c0-.6.1-1.1.3-1.2 0 0 .3-1.2.4-2.5.1-2.2.1-2.3-.5-3-.5-.5-2.7-1.7-3.2-1.7-.3 0-.1 1 .2 1.2l.4.6c0 .2 0 .4.2.4l.6.7c.5 1 .6 4.1.1 5l-.4.9c-.2.4-2 .6-2 .2 0-.1-.3-.2-.7-.2-.4 0-.8-.1-.9-.3l-1-.2a3 3 0 01-1.5-.4c-.5-.3-.6-.6-.5-1.3.2-1.2.6-1.6 1.7-2 .9-.1 1.1-.6.5-1l-1-.4a3 3 0 00-1-.3c-.4 0-.7 0-.8-.2-.1-.2-.6-.3-1.1-.3-.6 0-1 .1-1.1.3-.1.1 0 .2 0 .2.2 0 .3.2.4.4l.6 1.2c.6.8.7 1.6.3 1.6l-.2.6c0 .6-.1.6-1.2.6-.7 0-1.3 0-1.4-.2 0-.2-.4-.3-.7-.3-.7 0-1.4-.3-2.2-1-.5-.4-.5-1.3 0-2.6.5-.9.9-1.2 2.9-3 .8-.6.8-1.2-.1-1.2-.4 0-.8.1-.9.3l-.8.2c-1.1 0-1.7.3-1.7.7 0 .3-.2.6-.3.6l-.2.8-.2.6c-.2 0-.3.8-.4 1.8l-.4 2c-.2 0-.3.5-.3 1s0 1-.2 1.2l-.4 1.7c-.2 1.8.1 2 1.2.8.7-.7 2-1 2.8-.5.2.2 1.2.3 2 .4 1 .1 1.7.3 1.7.4l1.9.3 2 .4c0 .2.5.3 1 .3s1 0 1.1.2l1 .3c1.2.2 1.6.6 1.6 1.4 0 1 .5 1.4.9.8.2-.2.3-.6.3-1zm-16.3 13.6c0-.5-.1-1-.3-1a7.3 7.3 0 01-1.5-3c0-1 .6-1.3 3-1 1.2 0 2.4.2 2.5.3l2.3.4a7 7 0 012.1.4l.9.2c.4 0 1 0 1.1.2l1.3.4c.9.1 1.5.9 1.5 1.8 0 .4.6.4 1 0l.4-2.1c0-1 .2-1.9.3-2 .1 0 .2-.5.2-1.1 0-.8 0-1.1-.3-1.1-.2 0-.4 0-.5.2-.2.3-1.6 1-2.1 1l-.6-.2c0-.2-.6-.3-1-.3-.6 0-1-.1-1.1-.2 0-.2-1.5-.4-3.3-.4-1.8-.1-3.3-.3-3.3-.4l-1.2-.3c-2.6-.4-2.6-1.5-.2-3.8 1-1 1.7-1.8 1.5-2-.2-.3-2.8 0-4 .4-.7.4-.7.4-.7 2 0 .8-.1 1.6-.3 1.7l-.2 1.2-.2 1.2c-.1 0-.3.7-.4 1.5 0 .8-.4 2-.8 2.7l-.6 1.3.7.7a7 7 0 002.2 1.5c.3.1.6.3.7.5l.6.2c.2 0 .3-.3.3-1zm3 9.5l-1.2-.7c-.2 0-.4-.2-.4-.3 0-.1-.1-.2-.3-.2-.4 0-1.5-1.2-1.3-1.4l2.2-.3a9 9 0 002.2-.3c.1-.1.5 0 .7.1.4.3.4.6.3 1.6-.3 2-.8 2.4-2.2 1.5zm6.4 7.4c.2-.3.3-.7.3-1 0-.3.1-.5.3-.6l.4-2c.1-2.1 0-2.2-1.3-1.2-.5.4-.9.5-1 .3l-.6-.2c-1 0-1.3-.7-1-2.2 0-.7.2-1.5.3-1.7.1-.2.3-.8.3-1.3.2-.8.3-1 .7-1 .3 0 .7 0 .9-.2.4-.4 1.7.3 1.7 1 0 .6.9.9 1.4.5.2-.2.4-.8.5-1.4 0-.7.3-1.3.4-1.4l.3-2c.2-1.5.2-1.6-.3-1.6-.3 0-.6.1-.7.3-.4.6-1.8 1-4 1.1-1.2.1-2.2.3-2.2.4 0 0-.8.2-1.7.2-1 0-1.7 0-1.8.2 0 .1-1.6.3-3.4.4-4 .2-4.8.5-4.8 1.6 0 .8.6 1.7 1.1 1.7.2 0 .3 0 .3.2l.8.7a43.3 43.3 0 012.8 1.6l1 .8.6.4c.2 0 .7.3 1.2.7.4.3 1.4 1 2 1.2 2 1 2.2 1.2 3.2 2 .6.6.9 1.1.9 1.5 0 .4.1.7.2.7.2 0 .3.1.3.3 0 .5.5.5.9 0zm-16.3 9.4c.1-.3.2-.6 0-.7-.5-.4-1.5-2.9-1.5-4V567h1.4c.7 0 1.4 0 1.4.2l1.4.4c.7.1 1.3.3 1.3.4l.9.2.8.2c.1.2.7.3 1.3.4l1.4.4 1 .3c1.9.4 3 1.3 3.4 2.7.2.5.2.5.6 0 .3-.4.6-1.1.7-1.7 0-.5.2-1.1.3-1.3.5-1 .7-1.7.9-2.5 0-.8 0-1-.3-1s-.8.3-1 .7c-.7.6-1.9.8-2.1.3-.1 0-.7-.3-1.3-.3a5 5 0 01-1.4-.4 5 5 0 00-1.4-.3c-.7-.1-1.3-.3-1.3-.4-.1-.2-.5-.3-.9-.3s-.7 0-.8-.2l-1-.4c-.5 0-1.1-.2-1.3-.3l-1.1-.5a2 2 0 01-1-.6c-.4-.5 0-2.1.7-2.5 1.8-1 3.1-2.5 2.3-2.6-1-.1-3.8.1-4 .3-.3.2-.4.8-.4 1.6 0 .7 0 1.3-.2 1.3s-.8 1.3-1 2.4l-.2 1.2-.4 1.3c-.1 1-.5 2-1 2.2l-.3 1.1c0 .9 0 1 .8 1.9l1 1c.2 0 .5.2.8.5.7.8 1 .8 1.5.1zm-5.5 11c-1.7-.9-2.6-1.6-2.6-2 0-.6 1.5-3.2 2.1-3.8 1-1 2.7-.9 3.7 0 .7.7.8 1 .8 2 0 1.5-1.5 4.6-2.3 4.5-.1 0-1-.3-1.7-.8zm10.8 8c.6-1 1-2.2 1-2.4l.4-.8c.8-1 0-2-.8-1-.5.6-2.3.5-3.4 0-.5-.4-1-.6-1.2-.6-.2 0-.3 0-.3-.2s-.4-.3-.8-.5l-1.2-.7c-.6-.5-.1-1.3 1-1.3.3 0 .8 0 .9-.2 0-.1.7-.3 1.5-.3s1.5 0 1.6-.2l2.5-.3c1.7-.2 2.5-.3 2.8-.6 1-1 2.2-4.5 1.5-4.5l-.8.6c-.3.4-.8.6-1.2.6-.4 0-.8.1-.8.3-.1 0-1.3.3-2.6.3-1.3.1-2.6.3-3 .5-1 .5-1.3 0-1.4-2 0-2.4-1-3.9-2.5-4.3-.3 0-.8-.3-1.1-.4-.4-.2-.8-.2-1.6.2l-1.4.9-.7.4c-.2 0-.4.2-.5.4 0 .3-.5.9-1 1.4l-.9 1.7c0 .3-.3.6-.4.6 0 0-.2.2-.2.5l-.7 1.9-.8 1.8-.4.8c-.3.3-.6 1-.7 1.6-.1.8 0 1 .3 1 .2 0 .4 0 .4-.2s1.4-1 2-1l.4.2c0 .1.3.3.8.4a6 6 0 011.5.6l1.2.7c.2 0 .4.2.4.3s.2.2.5.2l1.4.5 1.2.5.4.2c0 .2 3.2 1.8 3.5 1.8.4 0 1 1 1 1.8 0 .9.5 1.5 1 1.1l1.2-2.3zm-9.4 15.9c.2-.6.7-1.5 1-1.6l.6-1.2c.3-.5.7-1.1 1-1.3.1-.2.6-.8.8-1.4l1-1.6c1.2-1 1-2.3-.6-4.3-.4-.5-.7-1-.7-1.2 0-.1-.2-.3-.5-.3-.4 0-.5.2-.5.9 0 .4.2.9.3 1 .3.2.3 3.7 0 3.9l-.4.8c0 .4-.2.8-.4.8 0 0-.2.1-.2.3 0 .5-.8 1.1-1.4 1.1-.4 0-1-.1-1.3-.3l-1-.6a34.5 34.5 0 00-2.1-1.7c-.9-.6-1-1.5-.4-2l.3-.6.6-.8c.4-.5.8-.6 1.8-.6.7 0 1.3 0 1.3-.2 0-.3-1.2-1.6-1.7-1.8-.2 0-.8-.4-1.3-.8-.6-.3-1.3-.6-1.6-.6-.5 0-.6.1-.4.7 0 .4.3.7.4.7.4.2.3 1-.6 2.5l-.4 1c-.2.4-.4.5-1 .4l-1.1-.7-.8-.4a4 4 0 01-1.3-1c-1-1-1.2-1.7-.4-2.6l.8-1.1c.1-.3.7-.8 1.2-1a7 7 0 001.1-.7l1.1-.3c.5 0 1-.3 1.2-.4.4-.4-.3-1-1-1-.4 0-.8-.1-1-.3-.1-.1-.7-.2-1.3-.1-1 0-1 .1-1.6 1.1a5 5 0 01-.8 1.3c-.3.1-.6.6-1.3 2l-.8 1.2c-.2.1-.3.3-.3.5l-.7 1a3221.2 3221.2 0 01-1.2 1.9c0 .3-.4.7-.6 1-.3.3-.4.6-.3.7.2.3 1 .2 1.3-.2.7-.8 2-.3 5.3 2l.8.6.5.3a4404.6 4404.6 0 003.3 2.4l1 .4c.3 0 1 .6 1.4 1 .9 1 1.1 2 .6 2.5-.2.2-.2.3 0 .6.4.4.5.4 1.2-.5.5-.5 1-1.2 1-1.4zm-19.5 3.8c-.5-.6-1-1-1.3-1-.1 0-.4-.2-.4-.5l-.5-.8c-.3-.3-.3-.5 0-1 1.2-1.8 2.6-2.9 3.9-2.9.8 0 1.1.2 1.9 1 1.3 1.5 1.3 2.4-.3 4.3l-1 1.3c-.5.8-1.2.6-2.3-.4zm7.7 6.4l-.6-.5c0-.2-.3-.3-.4-.3-.2 0-.9-.6-1.6-1.2a5.3 5.3 0 00-1.5-1.3c-.1 0-.3-.3-.3-.6 0-.5.4-1 1.4-2 1.4-1.5 1.4-1.5 2.8-1.5 1.3 0 1.5 0 2.5 1s1.1 1 1.1 2.4c0 1 0 1.5-.3 1.7-.2.2-.4.4-.4.6 0 .4-1.2 1.5-1.8 1.7h-.9zm-.1 4a211.3 211.3 0 014-4.5l.8-1c.4-.3.7-.7.7-.9l.5-.7c.5-.4.6-.7.6-2.2 0-1.2-.1-2-.3-2.2-.2-.1-.3-.4-.3-.7 0-.2-.3-.6-.7-1-1.2-1-2-1.3-4-1.2h-2v-1c0-.7 0-1.4-.2-1.7-.6-1-1.8-2.1-2.3-2.1-.3 0-.6-.2-.6-.3 0-.1-.4-.2-.9-.2-.4 0-.8 0-.8.2s-.4.3-.9.4c-.7.1-1.4.8-4 3.5a33.9 33.9 0 00-4.9 6c0 .4.1.4 1 .3.4-.1 1-.3 1.2-.5h.3c0 .2.2.3.5.3a9 9 0 012.6 2l2.4 2c.1 0 .7.4 1.2 1s1 .9 1.2.9c.3 0 2.4 2.2 2.8 2.9.2.4.2.7 0 .9-.4.3-.3 1.6 0 1.6s1.2-.8 2-1.8zm-6 6.6c2.6-2.7 3-3.4 1.7-3.4-.4 0-.7.1-.7.3 0 .1-.3.2-.7.2-.5 0-1-.3-2-1.2-.6-.7-1.4-1.4-1.8-1.6-.3-.1-.7-.5-.8-1-.2-.3-.5-.6-.7-.6a18 18 0 01-2.7-2.4l-2.4-2.5V615c0-1 0-1.5-.2-1.5-.5 0-5 4.8-5 5.3s0 .5 1.3.4l1.3-.1 3.1 3c1.7 1.7 3.3 3.1 3.4 3.1.1 0 1 .7 1.8 1.6l1.5 1.6v1.2c-.3 2.2 0 2 3-1zm-14 12.6c.4-.3.7-.6.9-.6 0 0 1-.8 2-2l2.2-1.9c.1 0 .7-.4 1.2-1 .5-.5 1-1 1.2-1l.8-.4c.3-.4.4-.7.2-1.6 0-.7-.2-1.3-.3-1.5-.2-.1-.3-.7-.4-1.2-.3-1.2-.8-1.8-1.3-1.4-.3.2-.5.7-.5 1.8 0 2-1 3.8-2.4 5.3-1.6 1.6-2 1.5-4.4-1l-3-3.2a7.4 7.4 0 01-1.4-1.9c0-.3-.5-1-1-1.3-1.4-1.5-2-2.8-1.3-3.5.2-.1.2-.4.2-.6-.2-.5-1-.6-1-.2 0 .2 0 .3-.2.3s-.9.5-1.4 1c-.6.7-1.2 1.2-1.4 1.2-.4 0-2 1.7-2 2.2 0 .7.6 1 1.2.7.9-.5 1.6-.3 2.8.8.6.6 1 1.2 1 1.3l1.4 1.6c.7.7 1.4 1.4 1.4 1.6 0 .1.5.9 1.2 1.6l1.2 1.5.9 1.2c.4.6.7 1 .6 1.1-.2 0-.3.3-.3.7 0 .3 0 .6-.2.6-.4 0-.3.4 0 .8.4.4 1.3 0 2.2-1zm-28.7 4.5c-.3-.3-.3-.5 0-.9.2-.4.2-.6-.4-1.3-.6-.8-.9-2.1-.4-2.1.1 0 .3-.2.3-.4s.1-.4.3-.4.4 0 .4-.2c0-.1.3-.3.7-.4.4 0 .8-.2.9-.4l1.2-.2c.8 0 1.1.2 1.7.8.6.6.7.9.7 2.1 0 1.6-.5 2.5-1.6 2.5-.4 0-.7 0-.8.2-.2.4-1.6 1-2.2 1-.3 0-.7-.1-.8-.3zm4.6 7.7c-.4-.5-1.2-1.8-2-3.5-.3-.6-.6-1.1-.8-1.2-.5-.2 0-1 .7-1.2l.9-.5c0-.1.3-.3.7-.4.4 0 .8-.2.9-.4 0 0 .6-.2 1.3-.2 1 0 1.2.1 2 1 1 1 1 1 1 2.8 0 1.7-.1 2.2-1 2.6l-1.5.8c-1.3.7-1.7.8-2.2.2zm-2.5 4.6l.8-.4c.3 0 1-.4 1.3-.7l1.7-1c.6-.2 1.2-.6 1.5-.9l1-.6c.4 0 .8-.3.9-.4l1.2-.7c.9-.5 1.6-1.3 2-2.4l.4-.8c.6-1 0-3.4-1-4.7l-.2-.6c0-.2 0-.4-.3-.5l-.9-.5-1.2-.2h-.7v-2.3c0-2.2 0-2.4-.6-3-1-1-2.5-1.6-3.8-1.4-1.2.1-3.3 1-4.6 1.9l-1.7 1c-.5.2-.9.5-.9.6 0 .1-.3.3-.7.3a5 5 0 00-1.4.8l-1 .6-.7.5c-.4.5-.4.5 0 1 .3.2.5.3.8 0 .5-.2 1.5.2 2 .8.3.3.3.4 0 .4-.6 0-.6.3 0 .7l.3.6c0 .2.2.7.6 1l.7 1.4c.1.4.3.7.4.7.1 0 .3.3.4.7 0 .4.3.9.5 1 .3.2.6.6.7 1 0 .3.3.8.6 1 1.1 1.4 1.6 3.5.8 4.1-.3.3-.4 1-.2 1.3.2.2 1.1 0 1.3-.3zm-12.7 5.4l.5-.1-.1-8.6-.2-8.6.6-.6c.2-.4.7-.7 1-.7.3 0 .4-.2.4-.5 0-.6-.3-.8-1-.5l-1 .6-1.8.3c-.7 0-1.3.2-1.3.3l-.7.4c-.4 0-.8.3-1 .4-.1.3.4 1 1 1 .1 0 .6.2.9.5.4.4.5.8.5 2 0 .7.1 1.4.3 1.5.3.1.3 6.5 0 6.8-.1.2-2.5-2-2.5-2.4 0-.2-.6-1-1.4-1.7a7.7 7.7 0 01-1.5-1.8l-.6-.7c-.6-.5-.9-1.9-.4-2.2.2 0 .3-.5.3-.9 0-.5-.1-.7-.6-.7a2 2 0 00-1 .4 2 2 0 01-1 .4c-.4 0-.6 0-.6.2 0 .1-.3.3-.8.4-.4 0-1 .3-1.4.5a3 3 0 01-1 .3c-.4 0-.3 1 .2 1.4.2.2.6.3.8.3.4 0 3.4 2.8 3.4 3.2l1.1 1.2a39.5 39.5 0 004.3 5c3 3.1 3.3 3.3 4.6 3zm-22 6.2c.3-.3 1-.4 2.9-.4 1.4 0 2.7 0 3-.2l1.5-.7c1.5-.7 3.4-2.7 3.4-3.7 0-.3.1-.8.3-1 .2-.2.2-.4 0-.8-.2-.3-.3-.9-.4-1.3-.2-1-1.9-2.5-2.7-2.5-.3 0-.7-.2-.8-.3-.2-.2-1.3-.4-2.7-.4a10 10 0 01-2.6-.3c-.1-.2-1-.3-1.7-.3-1.5 0-3.3-.6-3.3-1.1 0-.2-.1-.3-.3-.3-.4 0-.2-1.3.2-1.9.7-.8 1.7-1.3 2.6-1.3l1-.2c0-.2.4-.3.8-.3.3 0 .5.1.5.3l1.2.2c.8 0 1.3.2 1.9.6 1 .8 2 1 2.3.5.4-.4-.2-1.5-1.7-3.1l-1.2-1.3-.7.6c-.6.6-.9.7-3.2.8-2.2.1-2.8.2-3.7.8a8.7 8.7 0 00-3 2.6c-.4.7-.6 3.6-.2 3.6.2 0 .3.2.3.3 0 .4 1.5 2 1.9 2 .1 0 .3 0 .3.2 0 .1.2.2.5.2.4 0 .7.1.9.3.1.1 1.7.3 3.6.4 1.8 0 3.3.2 3.3.3l1 .2c.7 0 1.3.2 1.5.4l.7.4c.1 0 .2.1.2.3 0 .2.1.4.3.4.3 0 .2 1.4-.2 1.7l-.3.6c0 .3-1.7 1.1-2.3 1.1-.2 0-.5.1-.5.3l-2 .2-2-.2c0-.2-.3-.3-.5-.3-.5 0-2.5-1-2.5-1.2 0-.3-1-.5-1.4-.3-.4.1-.4 1.3 0 1.3 0 0 .2.1.2.3 0 .2.2.6.6.9l.6.8c0 1 1.8 1.5 2.4.8z" stroke-width=".2"/><path d="M859.6 369.9c.7-.9 1-1 7.3-1 6.2-.1 6.6-.1 7.2.7 1.3 1.5 1.8 1 1.8-1.8s-.4-3.4-1.4-2c-.6 1-.7 1-6.2 1-3 0-5.5-.1-5.5-.3a65 65 0 0110.4-4.5c1.5-.5 2.3-1 2.2-1.4 0-.3-1.7-1.3-3.7-2.2-5.1-2.3-8.5-4-8.5-4.4 0-.2.8-.3 1.8-.1l5.3.4c2.9.3 3.4.4 4.3 1.3.8.9 1 1 1.3.5.4-.6.5-6 .1-6l-1 .6c-.8.5-1.6.6-4.7.2l-6.4-.4c-2.4 0-2.8 0-3.5-1-1.2-1.6-1.7-.8-1.5 2.4v2.8l4.3 1.8c4.6 2 6.5 3 6.1 3.5a40 40 0 01-5.3 2.2c-3.5 1.3-5.4 2.2-5.7 2.7-.2.5-.3 1.8-.2 3l.3 2.6c0 .5.4.3 1.2-.6zm4.2 20l6.7-.7c4.2-.2 4.7-.2 5.4.5l.9.7-.3-5.7a69 69 0 00-.5-6.6c-.1-.7-.8-1.1-2.2-1.6-1-.3-2-.5-2.2-.4-.1.1.4.7 1 1.3 1.7 1.3 2.4 2.7 2.7 5.1.3 2.6-.4 3.3-3.9 3.6-2.4.3-2.6.2-3.2-.7-1-1.3-.9-3.6.1-4.5 1.5-1.3 1-1.9-1.2-1.7-2.4.2-2.7.5-1.8 1.4.8 1 1.6 5.2 1.1 5.8-.2.2-1.4.4-2.7.6-3 .2-3.4-.2-3.5-3.7 0-2 .1-2.7.9-3.8.5-.7.8-1.3.7-1.5-.3-.3-2.6.7-3 1.4-.2.5.5 9.7 1 12l.2 1 1-1.1c.6-.9 1.3-1.2 2.8-1.5zm3.3 22.5c0-.3-.7-1.2-1.6-2.1-1.4-1.4-2-3-1.2-3.5l6.4-1.1c5.7-.9 6.1-.9 7.2-.3 1 .7 1.1.7 1.1 0 0-1-.7-5.3-.9-5.5 0 0-.6.3-1.1.8-.8.7-1.8 1-5.7 1.6l-6.4.8c-1.5 0-1.5 0-1.7-1.5 0-1 .2-2 1-3.2 1.2-2.1.7-2.3-1.9-1-1.3.7-1.6 1-1.4 1.7.5 1.7 1.8 11 1.6 11.5-.2.7.5 1.3 2.2 1.8 2 .6 2.4.6 2.4 0zm.4 19.4c.4-1.1 1-1.3 8-2.8 5.3-1.2 6.4-1.2 7.1-.4.3.3.7.6 1 .6.4 0 .3-.3-1.3-7.8l-1-5.1-1.6-.6c-1-.2-2-.4-2.4-.3-.7 0-.6.2.6 1 1.8 1.3 2.5 2.4 3 5.2.5 2 .5 2.2-.2 3-1 .8-5.4 1.4-6 .7-.3-.2-.6-1.3-.7-2.4-.2-1.7-.1-2 .7-2.8.5-.5.7-.9.4-1-.5-.4-3.5 0-4.6.6-.7.4-.7.5 0 .8 1.3.4 2.1 1.9 2.3 3.9v1.8l-2.3.5c-3 .6-3.6.3-3.9-2.4-.3-2.2-.1-3.5.6-5 .7-1.4.2-1.7-1.4-.6-1.2.8-1.5 1.2-1.3 1.9l.8 5.2c.6 4.2 1.3 7 1.7 7l.5-1zm2.8 13.3c0-.8 1.3-1.6 3.3-2 10-2.2 11.1-2.4 11.6-1.6.5.7 1 .4 1-.7 0-1.6-1-4.6-1.5-4.8-.3 0-.5.1-.5.5 0 .9-1 1.2-7.3 2.6-6.6 1.4-6.7 1.4-7.6.4-.4-.5-.9-.7-1-.5-.3.3.6 5.3 1 6.1.3.5 1 .5 1 0zm2.8 19.7c.2-.6 1.9-1.7 6-3.7 8-4 8.9-4.4 9-5 .2-1-1.4-2.3-2.7-2.3-1.3 0-9.7-2-11.8-2.8-.6-.2-1.5-.8-2-1.3-.6-.5-1-.7-1.2-.4-.4.4 0 5 .4 5.5.1.1.8-.2 1.5-.6l1.2-1 3.9.8c5.7 1 5.7 1.3.6 4l-4.6 2.2c-.2 0-.5-.3-.9-.7-1-1-1.5-.3-1.2 1.8.5 3.7.6 4.4 1 4.4.2 0 .6-.4.8-.9zm3.8 15.6c-2.9-.6-4.5-2.8-4-5.2.4-2.7 2.2-3.5 7.3-3.6 2.9 0 4.2.2 5.3.7 3.6 1.7 2.7 7-1.3 8.1-1.6.5-5.6.5-7.3 0zm8.5 2.7c2.5-1.3 3.8-3.8 3.6-7.3-.2-5.2-.2-6 .1-8.4.4-3 0-3.3-1-.5-.5 1.1-1 2.1-1.3 2.2s-1.1 0-1.8-.4a14 14 0 00-7.8-.6 10 10 0 00-5.7 5.4 8.2 8.2 0 004.2 9.5c2.7 1.3 7.2 1.4 9.7 0zM555.9 570c-.6-.6-1.1-1.4-1.1-1.6l-.3-1c-.2-.6 1-1.4 3.4-2.3 1.6-.6 2.7.7 2.7 3.2 0 2.4-.5 3-2.3 3-1 0-1.6-.3-2.4-1.2zm4.9 4.7c1.5-.6 2.4-2.3 2.4-4.3 0-2.6-4-12-5-12-.2 0-.6.6-.8 1.4-.3 1.2-.9 1.6-6 4.2-5.5 2.7-7.2 3.2-8.2 2.3-1.1-1.2-1 1 .4 3.8 1.4 3 2.3 3.7 2.5 1.8.1-1 .6-1.4 2.6-2.5 1.4-.8 2.8-1.4 3-1.4.3 0 1.1 1.1 1.9 2.5 2.1 4.1 4.2 5.3 7.2 4.2zm.7 20.2c1.9-.3 2.1-1.3.5-1.7-2.7-.7-6-3.8-6-5.7 0-.5 2-1.9 5.5-4 5.3-3.3 5.7-3.4 7.4-3.2 1.6.2 1.8.2 1.5-.5-.4-1.1-3.7-6-4-6-.2 0-.4.6-.4 1.3 0 1-.4 1.5-4 3.9-7 4.5-8 5-9 4.5-1.1-.8-2-.6-1.7.2.6 1.4 6.5 11.2 7 11.5.2.1.7.2 1 .1l2.2-.4zm10.5 5.8c-.4-.6-.5-1.2-.3-1.4.5-.5 3.5-1.4 3.7-1.2.3.2-1.9 3.6-2.3 3.6-.2 0-.7-.4-1-1zm.3 11.4c0-1 1.3-3.5 4.3-8.5 2.4-4 4.4-7.4 4.4-7.6 0-1-1.3-1.5-2.8-1a604.5 604.5 0 01-15.8 4c-1.5-.3-1.5-.3-1.7.2-.2.5 3.7 5 4.1 4.8.2-.1.3-.7.1-1.2-.2-1 .8-2 2.8-2.5 1-.2 1.3 0 2.4 1.3 1.6 2 1.7 3.5.4 4.9-.7.7-1.3 1-2.1.8-.6-.2-1.1-.1-1.1 0 0 1 4 6.6 4.6 6.3.2-.1.4-.8.4-1.5zm14.4 11.9c2-1.3.8-2.2-1.7-1.4-1.6.4-2 .4-3.3-.3a4.7 4.7 0 01-2.8-4.2c0-2.3 3.9-7 7-8.6 1.6-.8 2-.8 3.7 0 1.8.8 3 3.2 3 5.7 0 1.8.7 2 1.5.3.8-1.4.9-3.2.2-3.6l-1.4-1.8a9.2 9.2 0 00-6.4-3.8c-5 0-10.9 6.3-10.4 11.3.5 5.3 6.6 8.9 10.6 6.4zm4.8 9.2c-.2-1.3.4-2 5.8-7.7 3.5-3.5 3.8-3.8 5-3.6 2 .5 1.5-.6-1.3-3.2-2.8-2.8-3.5-3-3.2-1 .3 1.3 0 1.7-4.3 6.4-4.4 4.8-4.7 5-6 4.8-2-.2-1.9.5.8 3.4 2.3 2.5 3.4 2.8 3.2 1zm13.3 10c-2-1-3.8-2.3-3.8-3 0-1.3 7.8-11.4 8.7-11.4.5 0 1.6.7 2.5 1.6 1.5 1.4 1.7 1.8 1.7 3.6 0 2.3-1.4 4.8-4 7.4-2.2 2-3.4 2.5-5 1.7zm6.2 1.7c2.4-1.3 4-3 5.3-6 1-2.1 1-2.5.6-4.4-.3-1.3-1.1-2.8-2-3.9-1.8-2.2-8-6.8-9-6.8-.7 0-.8.1-.4.5 1.3 1.3 0 3.7-4.3 8.7-1 1-2 2.5-2.5 3.1-.7 1-1.3 1.2-2.3 1.3-.8 0-1.5.2-1.5.4-.1.3 1 1.4 2.4 2.5 1.5 1.1 3.2 2.6 3.9 3.3 1.9 2 2.7 2.2 5.3 2.3 1.8 0 3-.3 4.5-1zm9.4 1.7l-1-.6c-.4-.3 1.3-1.8 2-1.8.3 0 1-.3 1.3-.7 1-1 1.4-.5.6 1l-.8 1.9c-.3.8-1 .9-2.1.2zm4.9 12a42 42 0 011.5-14.2c.3-.4.5-1.7.6-3.4 0-3.8-.5-3.8-4.8-.1a32.2 32.2 0 01-4.3 3.3c-.5.2-2 1.3-3.2 2.4-2.3 2-3.5 2.7-4.4 2.6-2.1-.4-1.3.8 1.7 2.5 1.1.7 2.2 1.1 2.4 1 .2-.1.2-.8 0-1.5-.1-1 0-1.4 1-2.4 1.4-1.5 1.8-1.5 4-.2 2 1.3 2.2 1.8 1.7 3.8-.3 1.3-.6 1.7-1.7 2-.7.2-1.3.5-1.3.6 0 .3 5.8 3.8 6.3 3.8l.5-.3zm22.8 7.7c0-.3-.3-.8-.6-1.3-.5-.9-.4-1.4 2.7-9.4 1.2-3.2 1.9-4.3 2.7-4.7 1.6-.7.8-1.5-2.2-2.3l-2.8-.8-1.3 1.6a46 46 0 01-5.9 6.8c-.3 0-.4-1.3-.3-5.4l.3-5.6-2.4-1.1-2.6-1.1c-.6 0-1.3 1.4-1 2 .3.5-.1 2.1-1 4.9l-2.2 6.2c-.5 1.3-1.1 2.2-1.9 2.7-1.6.9-1.2 1.7 1.3 2.5 2.4.8 3 .5 2.2-1-.4-.7-.2-1.5.8-4.4a34 34 0 012.7-7v6.8c-.3 6.4-.3 7.1.4 7.7.8.7.5 1 6.1-6.2 3.4-4.3 4.5-5.5 4-4l-1.3 4.2c-1.3 4.2-2.2 6-3.2 6.3-.9.2-1 1.1-.3 1.6 1.7 1 5.8 1.8 5.8 1z" stroke-width=".4"/></g><path d="M679 151.2c-1.3-.2-3.1.2-2.6 1.9-.4 2.2 2.7 3.4 2.8 5.1-2.1 2.5-2.4 6.7-6 7.8-2 1.6-3.2-2.8-5.4-2.3-1.3 1.5-2.4 3.3-3.6 5-.1 3.7-4.2 5.3-6.7 7.3-5 3.4-10.3 6.4-13.6 11.4-2.3 3.2-5.6 5.7-7 9.4.6 4 4 7.1 6.4 10.3 6.2 7.3 13.1 14 21.4 19 2.3 1.9 5.5 3 7.2 5.5.2 2-2.9 2.6-4.5 2.2-5.2-1.8-11-2.8-16.3-.3-2.5 1.4-5-1.1-7.7-1.1-3.8-.6-8.8-.6-11.2 3-.8 2-1 4.7 1.2 6 3.7 3 9 2.8 13.5 2.6 3.3-.2 6.3-1.8 9.2-3.2 3.9.4 7 4 11.1 3.2 3.7.5 7-2 10.2-2.8 3.8 1.8 8 3.4 12.2 2.7 2.7-.1 5.2-2 7.7-2.4 5.4 2.4 11.8 4 17.3 1.1 2.8-1.9 5.7.7 8.7 1 4.6 1.5 9.2-.2 13.5-1.8 3.4 2 7.7 3 11.6 1.7 3.2-1.4 5-6.3 2-8.7-5.8-4-13.5-3-19.8-1-3 1.7-5.8-1.8-9.1-1.5-4.4-.2-8.8 0-13 1.5-1.8.6-4.2-.4-4-2.6 0-4.4-3.1-7.9-5-11.7-2.5-3-6.8-3.3-9.8-5.7-1.6-1-3.2-2.7-4.7-3.5-1.8 2.9-5.7 1.6-7.8-.3-2-1.9-4.6-2.7-6.5-4.7-1.5-1.4-4.3-1-4.8-3.4-.8-2-3.5-2.3-4.3-4.3.9-2.6 3.6-4.2 5.2-6.3l8.3-8.8c1.6-.8 3.7 0 5.1-1.6 1.4-.9 4-2.4 2.2-4.3-1.6-1.8.7-4 2.7-4 2.8.1 6.4-1.1 8.5 1.5 1.4 1.4 2.8-.7 3.3-2 1.8-1 3.5 1.4 5 2.2a652 652 0 0146.3 39.6c5.5 5.6 10.4 11.7 15.6 17.6a312 312 0 0115.6 19.8c-2.3-7-5.8-13.6-9.7-19.7L757 215a379.2 379.2 0 00-49.4-45.2c-1.7-1.7-4.3-2.8-5.2-5 0-2 2.9-4.3.5-5.8-1.5-.5-3.5.6-4.7-1-3.7-3.2-7.5-7.3-12.8-6.8-2.1 0-4.3-.2-6.5-.1z" fill="#e6a300"/><path d="M777.9 250.4a281 281 0 00-22.6-27.7 33.8 33.8 0 01-3.8-4.4c0-1.6-33.5-31-46.8-41.2-7.2-5.4-7.7-5.7-7.7-3.7 0 1-1.9 2.1-3 1.8-.4-.2-1.1-.7-1.5-1.3-.6-1-.8-1-4.7-.8-3.8 0-4 .2-4.9 1.2-.8 1-.8 1 .2 2.1 1.2 1.3 1 3-.5 3.7-.5.2-1.6 1-2.4 1.7-1.2 1-1.6 1.2-3 1-1.6-.3-2.1.1-4.2 3-.3.6-1.2 1.3-2 1.8-.6.5-1.8 1.7-2.5 2.8-.7 1.1-2.4 3-3.8 4-2.6 2.2-3.2 3.5-1.8 4 1.6.5 3.4 2.2 3.8 3.6.5 1.4.7 1.5 2 1.5s1.8.3 3.2 1.9c1 1.1 2 1.9 2.6 1.9.5 0 1.5.7 2.3 1.5 2.7 2.8 5.9 3.5 7.4 1.5l.9-1 2.4 2c2.3 2 6.4 4.4 10 5.7 1.7.6 2.6 1.8 4.4 5.5.5 1 1.4 2.7 2 3.5.8 1.3 1 2.1 1 4 0 2.3.1 2.5 1.2 3 1.1.6 1.5.6 4.3-.4 2.6-1 3.9-1.1 7.7-1.2 4.2 0 5 .2 7.5 1.2l3 1.2 3.7-1.1c2-.7 5-1.3 6.7-1.4 5.4-.4 11.3 1.6 13 4.3 2.1 3.5-.5 8-5.2 9-2.7.7-5 .3-7.8-1.1-2-1-2.3-1.1-3.5-.6-4.8 2-6.8 2.3-10.3 1.8-1.8-.2-4.5-.9-5.8-1.4l-2.5-1-2.7 1.2a19 19 0 01-4.8 1.4c-2.5.3-7.6-.7-10.1-2-2.2-1-2.1-1-5.3.4-4.9 2.2-9 2-14.2-.4l-2.7-1.2-2.7 1.2c-5.4 2.7-9 2.7-14.3 0a23 23 0 00-3.6-1.6c-.3 0-1.1.4-2 1-2.6 1.7-5.6 2.5-10.6 2.5-5.5 0-9.3-1-11.5-3.2a5.4 5.4 0 01.4-8c1.5-1.3 4.9-2.4 7.3-2.4 2 0 6.5 1 8.1 1.9 1.1.5 1.4.5 3.5-.6 2-1 2.7-1 6.7-1 3.8 0 4.7 0 7.1 1 2.7 1.2 2.9 1.2 4.5.5 1-.4 1.8-.9 1.8-1.1 0-.3-1-1.2-2.4-2a106.2 106.2 0 01-19-14.2 66.2 66.2 0 01-14-17.8c-.4-1.9 0-2.9 3-6 1.4-1.6 3.8-4.5 5.2-6.4 2.1-2.8 3.4-4 6-5.7l6.6-4.3c5.1-3.3 6.4-4.6 6.3-6.2-.1-1 .1-1.6.8-2 .5-.4 1.3-1.5 1.8-2.5 1.2-2.4 2.3-2.6 4.4-.6l1.5 1.5 1.7-.6c1.4-.6 1.8-1 2.2-2.3l1.5-3 1.1-1.8a7 7 0 00-1.3-1.4c-1.7-1.5-2.2-4.5-.9-5.7.7-.6 1.3-.7 2.7-.5 1 .2 2.5.3 3.3.2 6.5-.2 6.4-.2 9.2 1.3 1.6.9 3.9 2.6 5.6 4.3 2.8 2.8 2.8 2.8 3.8 2.2 1.1-.8 2-.5 3.4 1 .7.9.7 1-.4 3-.6 1.2-1 2.4-1 2.7 0 .3.6 1 1.5 1.6 2.1 1.4 14 10.8 19.4 15.4 4.7 4 9.2 8 19.5 17.8a175.4 175.4 0 0125.5 29.2 86.5 86.5 0 0111.3 22.2c.3 1.8-.7 1.4-2.2-1zm-3.4-8.8a95 95 0 00-12-17.5 53.4 53.4 0 01-4.3-5.8c-1-2.6-17.4-18.8-31.7-31.2A520.6 520.6 0 00704 169l-3-2-.9 1.2c-.5.6-1 1.4-.9 1.8.1.3 3.2 3 6.9 5.8 9.7 7.6 16.1 13 30.8 26a212.3 212.3 0 0121 21.2 215.8 215.8 0 0118 21.5l-1.3-2.8zm-126.2 1.2c2.9-.7 6-2.4 6-3.2 0-.8-5.2-4.4-8.1-5.5a17.4 17.4 0 00-10.6-.3c-3.2 1.5-4.2 4.5-2.2 6.5 2.6 2.6 9.5 3.8 15 2.5zm42.2.1c.1-.2.5-.4 1-.4a6 6 0 002-.9l1.5-.8-1.6-1.5-3-2.6c-.6-.7-2.2-1.7-3.3-2.3a20 20 0 00-13-.8c-1.4.5-2.6 1.1-2.6 1.4-.2.7 6.7 5.4 9.7 6.7 1.7.8 4.6 1.3 8.3 1.6.4 0 .8-.1 1-.4zm42-.8c1-.4 1.8-1 1.8-1.2 0-.7-6.9-5.7-9.4-6.7a19.3 19.3 0 00-12-.6c-1.3.5-2.4 1-2.4 1.4-.1.6 4.7 4.2 7.4 5.7 4.6 2.3 11.2 3 14.6 1.4zm-41.8-9.3c0-.8 4.7-1.7 8-1.5 3.4.1 3.5 0 3.9-1 .4-1.2.3-1.3-2.9-7.1-.8-1.6-1.7-3-2-3.3s-2.4-1.4-4.6-2.5a83 83 0 01-5-2.7l-1.2-.8.2 1.8a5 5 0 01-.4 3.1c-.3.7-.6 1.8-.6 2.4 0 .6-.3 2-.7 3.1-1 3.6-.7 7.7.8 7.7.3 0 1.1.4 2 .8 1.4.8 2.5.8 2.5 0zm-9.7-2.4c0-.7-1.7-2.5-3.2-3.4-1.8-1.2-1.2-1.6.7-.6.7.4 1.4.6 1.5.5s-.3-1.1-1-2.2c-2.3-3.2-3-5.2-2.7-7.3l.3-2 .6 1.4c.3.7.4 1.5.3 1.7-.6 1 4.2 6 5.6 6 1 0 2.8-7.3 2.3-9.3-.4-1.3-.6-1.4-2.3-1.5-3.5-.2-4.7-.6-6.3-2-.8-.8-2.2-1.8-3-2.1-.9-.3-2-1.3-2.7-2.1-1.2-1.6-2.1-1.9-2.5-.8-.2.5 0 1 .8 1.5 1.6 1.2 2.1 2.2 1.5 3.3-.5 1-1.5 1-2.8.2-1.2-.9-1.3-2 0-1.7 1.2.4 1-.9-.6-2.5-.8-.8-1.7-2.4-2.1-3.6-.6-1.5-1.2-2.4-2.1-3-2.5-1.4-3.3-.6-1.4 1.5.9 1 1 1.3.6 1.8s-.6.5-1.3-.2c-.9-.9-1.8-6.1-1.4-7.7.1-.6 1.1-1.7 2.2-2.5 3.1-2.2 3.9-3 5.2-5a19 19 0 001.2-2.3l-1.4.1c-1 .2-1.5 0-1.5-.2 0-.3.2-.5.5-.5s1.4-.5 2.5-1.2c1-.7 2-1.1 2.3-1 .6.2 3-2.3 3-3a8 8 0 00-1.8-2.3l-1.8-1.8-1.2.8c-1 .7-2 1-5.2 1-2.2.2-3.4.2-2.7.1 2.9-.4 5-1.1 6.4-2l1.5-1-3.5-3.5-2.5 2a72.9 72.9 0 01-7.6 5.2c-5.6 3.3-7.4 4.9-10 8.8a46 46 0 01-4.3 5.2c-2.8 3-3.2 4-2.2 5.6a95.4 95.4 0 0017 19.1c2.3 2.3 9.9 7.4 14.4 10l2.5 1.3-1.9-1.8c-1-1-2.7-3-3.6-4.4-1-1.4-2.5-3.3-3.5-4.3-1.8-1.9-1.6-2.2 1.3-1.3 1.1.3 2 1.2 4.5 4.5 3.4 4.5 5.4 6.7 7.6 8 1.5.9 3.8 1.2 3.8.5zm-27-26c-.6-.6-.2-3 .9-4.4 1.3-2 1.8-1.4.6.6-.7 1-.8 1.6-.5 2.4.6 1.3-.1 2.3-1 1.5zm-2-4c0-2 3.1-4.5 5.6-4.4.7 0 .5.1-.6.6-2 .7-3.3 1.8-3.3 2.9 0 .9-.7 2-1.3 2-.2 0-.3-.5-.3-1zm21.9 29.4l-.4-.5c-.3-.1-.5 0-.5.2s.2.4.5.4l.4-.1zm5.6-49.9c.4-.6.5-1 .2-1-.5-.2-2 1-2 1.6 0 .7 1.2.3 1.8-.6zm-1.2-2.4c.7-.3 1-.7 1-1.5 0-1.5-1.4-1.4-2.3.2-1 1.9-.8 2 1.3 1.3zm-3.2-1.4a7 7 0 00.9-1.6c0-.7-1.2-.3-2.1.7-.8.8-.9 1.1-.5 1.7.8.8.8.8 1.7-.8zm-1.5-2.6c.8-.3 1-2.1.2-2.5-.6-.4-1 .1-1.4 1.6-.3 1.1 0 1.3 1.2.9zm8.7-1.7c.7-1.1 1-1.4 1.6-1.2.4.2 2.1.4 3.9.5 3 .2 3.2.1 4.7-1.2.9-.7 1.8-1.9 2.2-2.5.6-1.1.5-1.4-.2-3.1-.5-1-1-2-1.2-2-.8 0-1.4 1.3-1.4 2.5.2 1.9 0 2-1 2.5-.8.4-1.2.3-2.4-.5a5.4 5.4 0 00-5.2-.6l-1.1.4.2-2c.3-2.2-.3-5-1.1-5.3-1.3-.5-3.6 3.3-3.6 5.8 0 1.3-.2 1.5-1.2 1.5-3 0-2.7 1 1 4.7 2.9 2.7 3.4 2.7 4.8.5zm13.4 0c.2-.8 1.6-3.1 3.2-5.3 3.4-4.5 4-5.6 3.7-6.2-.5-.8-1-.4-1.8 1.4-.4 1-1.2 2.1-1.7 2.6l-1 .8.3-1.7c.4-2.3-.3-3.7-3.4-6.7a20.2 20.2 0 00-8.8-5c-1.1-.1-1.6 0-2.6 1L682 154l-1.3-1c-1.1-1.2-3-1.4-3.3-.4-.2.6.7 2.8 1.3 3.2 1 .6 2.6.7 3 .2 2.5-3.1 2.9-3.4 4.4-3.4 2 0 5.4 2 8.5 5 3 2.8 3.5 4.2 2.5 6.3-.4.8-.7 2-.7 2.6 0 .6-.6 2.1-1.4 3.4-1.4 2.2-1.6 3.6-.3 3.3.4 0 .8-.7 1-1.4zm-25-.2c.8-1.5.3-2-1-.9-.7.5-.9 1-.7 1.5.4 1 1 .8 1.7-.6zm-3.7-3.1c.1-.6.2-1.2 0-1.3-.3-.4-2 1.4-1.8 1.8.6.9 1.5.6 1.8-.5zm3 0c.7-.5.9-.9.6-1.2-.5-.5-1.2-.1-1.8 1-.5 1 0 1 1.2.1zm20.8-5.4c.4-.8 1.2-1.9 2-2.4.9-.8 1.1-1.1.7-1.5-.7-1-1.8-.7-3.1.8-1.9 2-2.4 3.1-1.8 3.9.8 1 1.6.7 2.2-.8zm5.3-.7c0-.5-.3-.8-.6-.8-.7 0-.7 0-.4 1 .4.9 1 .8 1-.2zM689 160c2-2.3 2.2-3.3.8-3.7-.7-.3-1.2 0-2.5 1.5-1 1.2-1.6 2.2-1.6 3 0 1.8 1.4 1.5 3.3-.8zm-3-2.4c1.2-1.6 1.3-2.4.3-3.2-.6-.5-.9-.4-2 1-1.8 2.1-2 3.6-.5 3.6.7 0 1.4-.5 2.1-1.4z" stroke-width=".4"/><path d="M736.3 232.8c-2.7.6-5.8 2.3-5.8 3 0 .9 5 4.3 7.9 5.4 2.8 1.1 8 1.3 10.2.2 3.1-1.3 4.1-4.2 2.2-6.2-2.6-2.5-9.2-3.7-14.5-2.4zm-40 0c-.2.2-.6.4-1 .4s-1.3.4-2 .8l-1.5.9 1.6 1.4 2.9 2.5c.6.6 2 1.7 3.2 2.3 2.8 1.5 8.9 1.9 12.6.7 1.4-.5 2.5-1 2.6-1.4a35 35 0 00-9.4-6.4c-1.7-.8-4.6-1.3-8.1-1.6-.4 0-.8.1-1 .4zm-43.2.6c-1 .5-1.8 1-1.8 1.2a34 34 0 009.1 6.5c3.5 1.4 8.6 1.7 11.7.6 1.2-.5 2.3-1 2.3-1.4.1-.6-4.5-4-7.2-5.4-4.4-2.3-10.8-3-14.1-1.5z" fill="#1f2c5c" stroke-width=".4"/><path d="M530.4 356a8.1 8.1 0 01-1.8-2.3c-.5-1.4-.9-5.7-.5-6.3.2-.2 1.8-.5 3.6-.6l3.3-.1.2 2.5c0 2.2 0 2.7-.8 3.3l-.8 1c0 .5 2.3.5 4.1.1l1.4-.2-1-.7c-.5-.5-1-1.5-1.2-2.7-.6-3-.3-3.4 2-3.8 2.7-.3 3.7 0 4 1.3.5 1.8 0 5-1 6.3-1.3 1.8-.8 2.4 1.2 1.3 2-1 1.9-.6 1.3-8-.3-2.7-.6-5.1-.8-5.3-.2-.3-.8-.1-1.4.2-.6.4-3 .8-7.5 1.1l-6.6.5-2-1.9.3 5.6c.4 7.7.5 8.3 2.2 9.2.8.4 1.9.7 2.3.7.7 0 .6-.2-.5-1.3zm14 18c0-2.7-.5-3.4-1.3-1.9-.4.8-.8.9-5 .9-2.5 0-4.5-.2-4.5-.4s2.4-1.8 5.3-3.5c3-1.8 5.5-3.5 5.6-3.9.4-.9.3-6 0-6-.2 0-.6.5-.9 1-.4.7-1 .7-7.5.7-6.7 0-7 0-7.9-.9-.4-.5-1-.7-1-.6-.2.2-.4 1.4-.5 2.8-.2 2.6.4 3.3 1.4 1.6.5-.7 1-.8 6.5-.8 3.3 0 6 .2 6.2.3.1.2-.4.8-1.1 1.4a59.9 59.9 0 01-7.2 4.5l-3 1.9c-3 1.8-3.7 3.1-2.3 3.7.4.1 3.8.2 7.7.2 7 0 7 0 8 1 .4.6 1 1 1.1.8.2 0 .4-1.4.4-2.8zm-11.9 18.8c.7-.5 2-2.7 3-4.9 2.1-4.4 3.2-5.8 4.4-5.8 2.8 0 2.5 5.5-.4 8.7-.8.9-1.3 1.8-1.2 2 .2 0 1.2-.1 2.2-.4 1.8-.6 2-.8 2-1.9 0-.6.3-2 .6-2.8 1-3.9.2-7.8-2-8.6a6 6 0 00-4.8.6 24 24 0 00-4.1 7.5c-1 2.3-1.8 3.1-3.2 3.1-1.7 0-2.4-1-2.4-3.3a8 8 0 012.6-6.3c1.8-1.8 2-2.5.4-2.1-3.2.8-3.2.8-3.3 2 0 .7-.3 2.1-.7 3.2-.9 2.5-.9 5.4 0 7 1.4 2.8 4.7 3.7 7 2zm6 18.8c.7-.2.9-.7 1.2-3l1.2-6.6.4-4c-.1-.2-.6 0-1 .4-.9.7-3.1.6-10-.4-4.7-.8-5-.9-5.2-2.1-.6-2.4-1-1-2.7 7.9-.9 4.7-.7 5.2 1.7 6.5 2.1 1 2.5.7 1-.8a6 6 0 01-1.3-2.5c-.3-1.8.2-4.9 1-5.8.7-.8 1-.8 3.6-.4l3 .5-.1 1.7c0 2.6-.5 3.9-1.7 4.4-1.3.6-.7 1 2.3 1.4 2.2.3 2.6 0 1.4-.9-.8-.5-1-2.7-.4-5 .3-1 .4-1 2.5-.8 3.4.3 4 .8 4 2.9 0 1.8-1.4 4.4-3 5.6-1.5 1-.4 1.7 2 1zm-9.2 20.6c-.5-.5-.7-1.5-.7-3v-2.4h2c1 0 2.4.1 3 .3.8.2.9.4.7 2.2a6 6 0 01-1 2.9c-.9 1-3 1-4 0zm4.6 3.1c.7-.8 1.4-2.2 1.7-3.4 1-4.8 1.8-9.7 1.6-10-.2-.1-.7.2-1.2.7-1.3 1.1-2.1 1.1-9-.1-4.6-.8-5.7-1.2-6.3-2-1.1-1.3-1.6-.6-1.9 3l-.2 3 .9-.7c.8-.8 1.1-.8 4-.4 1.7.3 3.3.6 3.5.8.1.2.1 1.7-.1 3.4-.4 2.6-.3 3.2.3 4.5 1.5 3 4.7 3.5 6.7 1.2zm-1 17.7c.3-.4 1.6-12.9 1.4-13.6-.2-.5-.5-.4-1.3.5-.7.7-1.3 1-2 .8l-6.3-.7c-6.4-.5-6.7-.6-7-1.6-.2-.5-.4-.8-.6-.8a112 112 0 00-1.7 13.3c0 .7 2.5 2.4 3.6 2.4.5 0 .5-.2-.2-1-1.3-1.3-2-4.2-1.5-6.9l.4-2.2h3.3c2 .2 3.4.4 3.6.7.2.3.2 1.3 0 2.4a4 4 0 01-1.4 3c-1.4 1.2-1.4 1.2 2.2 1.7 2 .3 2.5 0 1.4-1-.8-.7-.9-5.1-.1-5.7.7-.6 4.8 0 5.3.8.8 1.3 0 4.6-1.5 6.5-.6.7-1 1.5-1 1.8 0 .6.2.6 1.5.2a7 7 0 001.8-.6zm-.3 18.8c.4-.3.4-1.7.1-5-.2-2.5-.3-5.6-.1-6.9l.2-2.3-2-.7-2.3-.7c-.6 0-.2 1 1 2.3.8 1 1.2 1.9 1.2 2.9 0 1.7 0 1.7-7.6 2-5.7.2-5.8.2-6.8-.8-.5-.6-1-1-1.2-1l-.1 3.5c0 2 0 3.5.2 3.5s.7-.4 1.3-1l1-1 13.4.2v1.5a6 6 0 01-1.2 3.1c-.6.8-1 1.7-.8 1.8.2.4 3-.6 3.7-1.4zm-13 11.5l3.6-.6 5.8-1c3-.7 3.1-.7 4.2.2 1.5 1 1.6 1 1.6-.4 0-3-1.4-7-2-5.5-.3 1-1.3 1.7-3.4 2-1.2 0-2.9.4-3.7.5l-4.4 1c-3 .4-3 .4-4.1-.6l-1-1 .2 2.3.7 4 .4 1.6.6-1.1c.3-.6 1-1.2 1.5-1.4zm18 17.5l1.5-1.4-1.6-5.5-1.7-6.6c-.1-1.4-.4-1.6-2.9-1.9-2.7-.4-3.2.3-1 1.4 2.1 1.1 3.5 3.5 2.5 4.4-.7.6-11.2 4-12.6 4-.5 0-1.2-.3-1.5-.7-1.4-1.7-1.5.3-.1 4.5.7 2.2 1.1 2.4 1.7.7.4-1 .9-1.3 3.7-2.2 4.7-1.5 9.5-2.5 10.2-2.2 1 .3.9 2.5-.1 4.6-1.3 2.6-.6 3 1.8.9z" fill="#e6a300" stroke-width=".4"/></svg>