<svg xmlns="http://www.w3.org/2000/svg" width="685" height="457" version="1.0"><path d="M-2513.4 2322.1z"/><path d="M0 457h685V0H0v457z" fill="#00287e"/><path d="M324 280.8H390l.4-.4v17.9c0 4 .6 7.6-7.2 9.5l-40.3 10.7s-32.5-8.8-40.3-10.7c-7.7-2-7.1-5.4-7.1-9.5v-.3l.7-.1 2-.3.7-.1.6-.1h.1l.5-.1h.2l.5-.1h.2a5.1 5.1 0 00.7-.2h.4l.3-.1h.4l.2-.1.6-.1c3.3-.6 5.7 0 10.7-.8 5-.7 8.5-.5 14.6-1.1 6.2-.6 13-1.4 15-2 2-.5 3.6-1.3 8.6-2.2 5-1 3.1-1.2 3.1-1.2l-4-1.3c-2.5-1-2.1-1.4-5.4-2-3.3-.5-1 .6-3.8 0-3-.5-3.5-.9-3.5-.9s-3.5-.4-4.8-.8c-1.3-.4-2.3-.2-3-.7-.8-.6-4.1-1.8-4.1-1.8s-1.8-.4-3.3-1" fill="#9ed9ff"/><path d="M343.2 322.8c2 0 4.6.8 2 5.7-2.7 5 5.6 7.9 5.6 7.9l3.2-3.3c-3.9-3.4-3.9-4.6.7-7.6 4.6-3.1 6.6 4.2 6.6 4.2l3.4-1.6.4-4.2c9.2.8 14.6 0 22.6-5-15.3 5-24.1-.7-24.1-.7l23-6.2c6.1-1.5 10-3 10-11v-77.6c0-24.6 9.2-21.9 9.2-21.9l-10-16.1c-25.3 8.8-30.7-7.3-52.6-7.3-21.9 0-27.2 16.1-52.6 7.3l-10 16.1s9.3-2.7 9.3 21.9v77.5c0 8 3.8 9.6 10 11.1l23 6.2s-8.9 5.7-24.2.8c8 5 13.4 5.7 22.6 5l.4 4.1 3.5 1.6s1.9-7.3 6.5-4.2c4.6 3 4.6 4.2.5 7.7l2.9 3.4s8.9-3 6.2-8 0-5.8 1.9-5.8l-.4-4.3s-32.6-8.8-40.3-10.7c-7.7-2-7.1-5.4-7.1-9.5V229h94.9v69.3c0 4 .6 7.6-7.2 9.5l-40.3 10.7.4 4.3" fill="#006fff"/><path d="M305.8 302.6c4.6 0 6.3-1.1 9.2-1.1 2.9 0 4.6 0 8.6-1.2 4-1.1 15.6-2.3 10.4-.5-5.2 1.7-3.4 2.3 4.6 1.7 8-.6 13.3-1.2 12.7-2.9-.6-1.7.2-.6-4.4-.2-4.6.4-5-.4-5-.4s1.5-1.9 4.6-1.5c3 .4 7.7-.2 9.4-.6 1.7-.4 3.6 1.8 1.5 2.1-2 .4-1 1.8.6 2 1.5.1 2.7 3.8-6.3 3.2-9-.6-12 .4-18 .6-6.2.2-13.7.4-10.4-.6 3.2-1 5-1.5-2.5-.4-7.5 1.2-6.5.2-12.5.6-6 .4-9 .4-9 .4l6.5-1.2M357.4 291.8c-4.6.4 6.2-.7 8.5-1 2.2-.2 7.2-1 2.9.2-4.4 1.1-4.2 1.2-.5 1 3.8 0 6.1-.6 6.4-.6h2.4s2.7 0-4 .9c-6.8.9-12 1.2-9.7.7 2.2-.4 7-1 1.4-.8-5.5.3-6.8 0-4.6-.3 2.3-.3-.6-.4-2.8-.1" fill="#006fff"/><path d="M389.9 287.5s3 .4-3 .1c-5.9-.2-8-.1-8-.1s-2.3-.1 2.5.5 10.8 1.2 6 1.5c-4.8.2-7.1.7-5.6 1 1.5.2 2.3.1 3.8-.1 1.6-.3 3.1 0 3.1 0l1.5.2v2.5s1 .1-3.4.1-11 .3-7.7.4l6.7.1h4.6M346 282.3c1.6 0 6.8.6 4.5.6s-3.2.5.4.7l6.7.2-7 .6s-4.7 0-3.7-.4-1.8-1-1.8-1l-1.3-.9 2.1.2M369.1 306c7.3-.1 5.8-.7 14.2-2.2 8.5-1.5.8-3-4.4-4s8.7-1.8 7.1-2.1c-1.5-.4-10.5.3-16.3.3-5.7 0-1.1 3.5 4.8 4 6 .6-6.7 1.4-12.7 1.6 0 0 2.5 1.1-9.6 1.7-12 .6-20.7.8-15.5 1.5 5.2.8 25.7 1 11.5 2.4-14.2 1.3-18.4.5-21.3 1.1-2.9.6-8.8 1.3-8.8 1.3s6.9 1.8 7.5 1.8c.5 0-2-.8 6.7-.8 8.6 0 14.4-.6 21.3-1.3 6.9-.8 18.2-2.3 11.5-3-6.7-.5-11-1.5-5.6-1.5s9.6-.7 9.6-.7" fill="#006fff"/><path d="M326.7 144.3l-2.3-1.5s-.2 2.7 1.6 5.5M332 157s-2.6-1-3.5-1.6c-1-.5-3.3-1-3.3-1v-1c.2-.3.3-.5.3-.8 0-.6-.3-1.1-.6-1.5l-1.2-2.2c-2.2-2.7-3-2.5-6.8-3.4a28 28 0 01-6.5-2.5s-.7 2.7 3.3 4.2 8.2 3.8 8.2 3.8-.4 1.6-3 1.4a8 8 0 01-1.6-.3v-.7a2 2 0 00-3.8-.7 17 17 0 01-3-2c-2.2-1.7-6-3.6-9.3-3.6a875.9 875.9 0 006.8 5.3 2 2 0 00-1.8 2.4c-1.3-.2-1.7-.7-2.9-1.4v-.4a2 2 0 00-2-2 2 2 0 00-1.6 1l-1.8-.3c-3-.4-6 0-6 0s.9 1 2.2 1.3c1.3.4 3 0 3.5 1.8.2 1 0 1.3 0 2h-.2v-.5a2 2 0 10-3.8.7 2 2 0 00-2.8 1.8c0 1 .9 2 2 2a2 2 0 001.8-2.7 2.3 2.3 0 001.2.1v.6a2 2 0 001.8 2c-.2.8-.7.7-2.3 1.6-2.3 1.4-6.8 5-6.8 5s3.3-1 5.6-1.5c2.3-.6 4.2-1.2 5-3.3.8-2 2.7-4.2 2.7-4.2l.7-.5v.3a2 2 0 104 0c0-.2 0-.4-.2-.6l1.2.6s.2 3-1.7 5c-2 2-6 4.4-6 4.4s4 .6 6.4-1.1c2.3-1.8 2.1-2.7 3.3-4.8 1.1-2.1 2-2.5 2-2.5h1.1a2 2 0 002.2 2.8 7 7 0 01-.7.4c-3 1.8-5.4 4.6-5.4 4.6s1.9 1.4 5.2-1.3c3.2-2.7 4-4.4 5.7-5.2 1.7-.7 3.9-.2 3.9-.2s-.6 2.5-4 4.4c-3.5 2-5.8 4.8-5.8 4.8s2.5-.1 4.6-1.3l4.6-2.7M295.4 274c2.2 0 3.9-.2 7 1.8 3 1.9 4 2.6 6 3 2.2.4 2.2 0 4.5 1s1.2 1.2 3.6 1c2.5-.2 4.5-.8 6-.2l4.4 1.3s3.3 1.2 4 1.7c.8.6 1.8.4 3.1.8 1.4.4 4.8.8 4.8.8s.6.3 3.5 1c2.8.5.5-.7 3.8 0 3.3.5 2.9.9 5.4 1.8 2.5 1 4 1.4 4 1.4s2 .2-3 1.1c-5 1-6.8 1.8-8.7 2.3-2 .6-8.8 1.4-15 2-6.1.5-9.6.3-14.6 1.1s-7.4.2-10.7.8l-8.3 1.3.2-24M316.8 334c7.2 5.8 10.2 5.4 18.3 16.3-3.8-9.8-4.6-12-9.8-16.4 8.6 6 11.2 6 17.5 16.1-14-42-71.3-19.5-86.6-13.2 19.9-4.6 34.8 1.4 42.6 11 0 0-3.5-9.3-6.9-13.3 13.2 8 13 7.2 19.9 14.7 0 0-5-11.8-5.8-14.1 10.4 2.8 18.1 14.6 18.1 14.6s-3.3-9.3-7.3-15.6" fill="#35b336"/><path d="M368.9 334c-7.2 5.8-10.2 5.4-18.3 16.3 3.8-9.8 4.6-12 9.8-16.4-8.6 6-11.2 6-17.6 16.1 14.2-42 71.4-19.5 86.7-13.2-19.9-4.6-34.8 1.4-42.6 11 0 0 3.4-9.3 6.9-13.3-13.2 8-13 7.2-19.9 14.7 0 0 5-11.8 5.8-14.1-10.4 2.8-18.1 14.6-18.1 14.6s3.3-9.3 7.3-15.6" fill="#35b336"/><path d="M200.6 99.5c-.7-3 0-5 .6-3 .6 2.2.9 2.5.9 2.5" fill="#86473f"/><path d="M289.9 223.4c0-24.6-9.2-21.9-9.2-21.9l10-16.1c8.7 3 15.1 3.1 20.7 1.9v-.5s-.5-2.3-2-6.9c-1.4-4.6-2.5-4.6-5.7-4.9-3.2-.3-10.4 4.3-16.1 6-5.8 1.8-12.1 4-12.1 4s-4.3-7.7-5.8-9.4c-1.4-1.7-3.4-2.6-4.9-7-1.4-4.2-2-4.2-4.8-7.4l-8-9.1c0-.2.2-.6 1-1.6 1-1 3.4-.6 7.1-1 3.7-.5 3.6-4.3 4.5-5.6.8-1.3.4-1.1.1-4.3-.3-3.1-3-4.1-4.6-4.6-1.6-.4-4-1.3-6.8-3.4-2.7-2.2-10.5-6-12-7-1.6-1-.2-2.7 1.4-3.2 1.6-.6 11.4 0 15-.3 3.5-.3 1.2-1.2-.2-1.6-1.4-.4-8.6-1-8.6-1s4-.6 14.2-5.3c10.2-4.8 13.1-14.6 13.1-14.6a24.5 24.5 0 01-12.2 8c-2 .4-.7-2 .1-5 .9-3-.6-1.3-2.9 3-2.3 4.4-8.4 6.5-11.5 7.7-3 1.1-2.6 1 .2-1.6 2.7-2.6 3-4.3 4.3-8 1.3-3.5.7-4.4-1.7.2a46 46 0 01-13.1 11.8c-2.2 1.3-.6-2.3.7-5.6 1.3-3.3.7-3.4-.9-.7a21.2 21.2 0 01-5.7 7c-2.6 2-2.2 1-2.2-.5 0-6-2.1-7.5-2.9-8.4-.7-.8-1.4-1.8-.5 1.2.8 3 .3 6.5 0 7.8-.3 1.2-1.3.7-2.3 0-1-.5-2-2.2-1-4 5.1-9.6 4.4-15.2 4.4-19.6 0-4.5-1.3-1.2-1.3-1.2.7 16.6-7.6 20.4-7.6 20.4-1.6-6.4-2.6-5.6-2.6-5.6 0 3-1 5-1 5s-7.2-8.1-5.8-15.5c1.5-7.3-.5-11.2-.5-11.2-2 22.6-18 14.7-18 14.7l7.9 5.3c-2.7 10.4-16 4.9-16 4.9 4.2 8 28.2 4.6 28.2 4.6s2.2 2.7 6.8 5.9l8.8 6-1.3.7c-5.8-4.2-11.5-4.2-15-2.7-3.4 1.6-5.4 3.5-5.4 3.5 2 7.3 12 8.8 12 8.8a44 44 0 00-.8 19.6c1.1 8.4-1.6 16.5-1.6 16.5l3.1-2s.4 2.4 0 4.3.8 2.7 2.3 3.4c1.5.8 1.5 2.7 1.5 2.7v4.6l2.7-1.5s1.2 8.8 1.2 12.3c0 3.4-.8 6.5-1.2 8-.4 1.6-.7 5-.7 5l2.3-1.1s-2.7 10.3-4.6 14.5c-2 4.3-12 10.4-22.3 21.2-10.4 10.7-8 20.7-8.8 25.7-.8 5 3 1.9 3 1.9s5.4 7.3 5.4 16.5-5.7 14.6-7.7 16.5c-1.9 2-.3 3.4-.7 6.9a18 18 0 001.9 10.7c1.9 3.5.4 16.2 0 19.6-.4 3.5 0 3.5 1.5 4.6 1.6 1.2 3.5 3.9 5.8 5.8s3.4-1.2 3.8-3.8c.4-2.7-.8-3.1-.8-3.1l.6-.3s-1.7-1.2-4.3-4.6c-2.6-3.5-1.4-12.7-.6-22.2.9-9.5 1.5-7.8 11.3-16.7 9.7-8.9 15.5-23.9 15.5-23.9s3.2 2 10 6.7c7 4.6 5 4.3 3.2 12-1.7 7.8-1.4 9.8 0 11.8 1.5 2 3.2 3.8 7.5 5.8s4.6 2.3 9 8c4.3 5.8 6.6 7.3 10.6 7.8 4 .6 4 2.3 4 2.3l6.6-2.8c-1.4-4-4.9-3.5-8.6-3.8-3.7-.3-4-1.1-8.3-5.7-4.4-4.6-7-8.4-9.8-15.6-2.9-7.2.3-13 4.6-25 4.3-12.1-1.7-16.7-1.7-16.7s5.4-6.3 10.6-11c5.2-4.6 11-16 11.5-19.2.6-3.2 1.2-3.2 5.5-3 4.3.4 2.3 8.4 1.7 15-.6 6.7-1.1 7.2.6 9.3 1.7 2 1.1 3.7.3 8.3-.8 3.9 4 6.1 6.6 5.5v-43M473.5 123.8c12.1-1.5 21.9-11.8 26-17.3 4-5.5-1.2-4-3-2-1.7 2-.2 1.1-4 4.6-3.7 3.5-4.9 2.6-3.4-.9 1.4-3.4-3 .6-7.5 3.8-4.6 3.1-4.9 1.4-2-1.7 2.8-3.2-.3-2-3.2-.6-2.9 1.4-9.2 3.7-9.2 3.7s-.6-2.3 6.6-6.3c7.2-4 17-12.1 18.4-15.8 1.5-3.8.3-6-1.7-1.5-2 4.6-4.3 4-7.8 1.2-8.3 7.2-8-.9-8-.9l-2.3 3.7c-1.5 2.4-3.5 2-5 1.2-1.3-.9-2-1.4-6.2 2.6-4.4 4-9-4.3-9.3-8.7-.2-4.3-.5-4.6-2-.2-1.4 4.3-.2 9.7 2 15.5 2.3 5.8-1.7 3.5-4.3 3.2-2.6-.3-8.3-5.5-11.5-8.7-3.2-3.1-2.6-2.3-2.6.6s1.8 6.6 1.8 6.6-9-3.7-12.1-6.9c-3.2-3.1-3.8-1.4-2.3 1.2 1.4 2.6 2.3 8.3 16.7 10.3 14.3 2 17.8 5.2 17.2 10.1-17.5 1.4-23.6-5.5-25-6.6-1.4-1.2-.6 3.4-.6 3.4s-6-2-8.6-4.9c-2.6-2.8-2.3.3 0 3.2 10.3 13.3 34.3 10.2 34.3 10.2s-4.6 2.3-6.5 4.2c-2 2-3.5 2.3-5.6 2.5-6.1.4-9.4.2-14.7 2.7-5.4 2.5-4.6 7.7-3.9 11 .8 3.2 5.8 3.2 7 4.5 1 1.4 4.2 1.6 5.1 1 1-.6 1.2-1.7 2.9-2.5s2.7-.4 1.7 2c-1 2.2-7.7 9.3-11 12.6-3.2 3.2-2.4 2.9-2.8 5.2-.4 2.3 1.3 2.8 1.2 4.2-.2 1.3-.4 1.7-2.2 4.2-1.7 2.5-4 4.6-4.2 6.3-.2 1.8-5 5.8-5 5.8-6.3-3.8-14.7-8.7-18.2-11-3.5-2.3-3.5-2.8-9-2.8-5.6 0-7.7 6.3-8 11.9l.4.3c3.9 0 8.4-.8 13.7-2.6l10 16s-1.8-.4-3.9 1.2l.5.3 3.5 3.2-7.5 3.2h-.3c-.9 3.2-1.5 7.7-1.5 14v41.4c3.2-1.9 3-8 2.1-13.1 4-.6 2.9-4.6 2-5-.8-.2-1.4-14.3-.3-20.7 1.2-6.3 3.2-5.1 7-5.7 3.7-.6 2.5 3.5 3.7 8.3 1.1 5 4.3 9.3 4.3 9.3l-.3-3.5s-1.1-3.4 2.6 2c3.7 5.5 23.3 16.7 23.3 16.7s-3.7 2.6-6.9 12.1 3.7 20.7 1.4 36a35 35 0 01-14.3 22.4c-5.2 3-6.4 5.2-6.4 5.2l5.8 3.2s.8-1.5 2.3-2.9c1.4-1.5 0-1.5 3.7-1.5 3.8 0 5-5.1 7.2-10 2.3-5 10.7-13.8 10.7-13.8 3.4-5.2 2.5-4.6 2-7.2-.6-2.6-1.8-5.2-.3-10.4a44.2 44.2 0 0116.1-21.6v5.2c0 11 3.2 12 12.4 25s6.9 28.8 6 36.6c-.8 7.8-4.3 10.6-4.3 10.6l2.3 8.4s.3-.9 1.2-2.6c.8-1.7 2.6-5.5 4.3-6.6 1.7-1.2 2.3.6 2-7-.3-7.4.3-14.6 2-25 1.7-10.3.9-7.7-2.6-17.5-3.4-9.8-1.1-11 1.7-17.3 3-6.3 4.7-11.8 4.7-11.8s2.5.3 2.3-2.9c0-7.2-5.8-13.5-16.5-23.3-10.6-9.8-12.3-19.8-12.3-19.8h.3c-1.5-5.5 2-3 2-3-1.8-6.3 2.3-13.2 2.3-13.2-2.6-5.1-2.3-6.9-2.3-6.9l2.3-1.4c-3.2-10-2.3-10.7-2.3-10.7l2.3-.5c-.3-5.2.3-9.2.3-9.2l2.8.2s-.3-6.3 1.5-14.4c1.7-8 3.7-3.7 0-19.8 9.8-2.9 9.2-7.8 9.2-7.8s-5-2.6-11-2.6-3.7-3.1.6-3.4" fill="#86473f"/><path d="M362.4 125l2.9 2.2 1.1-4c.4 1.2 3.9 3.6 3.9 3.6l1-3 2.8 5 2.3-1.8c.8 2 3.5 3 3.5 3l1.7-3.7s-2.1-4 .6 0 5.5 3.4 5.5 3.4l1-2.9 3.8 4 2.1-3c2.2 7.5 4.6 10.8 4.6 10.8l1.4-.6c.6 5.2 2.3 8 2.3 8l1.5-4.4 1.6 7.9c.7 3.8 2 5.8 2 5.8l.8-3.5 3 6c5.7-39.8-11.4-57.8-17.7-65.5-6.4-7.7-21-12.9-30.7-13.4-9.8-.6-8.3 9.8-.8 14.2 5.8 3.4-3.8 11.1-3.8 11.1l-2.2-3.3h-.1s-.2.8.3 2.3c.6 1.6.6 3 .6 3l-1.3.1s-.2 1.4-.6 2.5c-.4 1.2.6 2.7.6 2.7l-2.7-2.3-.6 3.2-2.9-1.9-1 3-2-2-1.4 2-2.3-1.2-1.3 2.8-2.1-2.7-2 2.7-1.3-2.8-.4.7-1.1-1.7-1.4 3.3s-1-2.5-2.3-2.7c-1.3-.2-1.7-.2-2.3-.6-.5-.4-.5-3-.5-3l-2 .5 2-8.4.1.2c-6.5-4.8-11.7-8.5-9.2-17.3 1.8-6.5-5-13.4-21 .2-18.7 17.6-24.3 50.4-23 71.7l3.2-6.1 1.3 1.5 2.9-6 1.3 1s4.8-4.6 5.8-8.4c1-3.8.2.6.2.6l1.1 1.7s1.2.8 2.3-1.3l4.8-8.9s-.6 3.7 1.6 4.4c0 0 2.4-.7 4.6-4.5l1.5 2.3s3.6-1.6 4.4-3.7l1 3s3.8-2.6 5.5-5.3l1.7 3.8s2.5-1.5 3.7-4l4.2 3s-1.9 2.8 1 6.2c-.4 2.3 0 6.5 0 6.5l-.8 3.5c-.4 1.7-.8 3.3-.6 5.4.2 2 1 4 3.3 4.4 2.3.4 3 1 5.6 1.3 2.5.4 4.4-.2 6.5-.7 2-.6 2.9-2.7 2.7-4.3-.2-1.5-.4-1.1-.4-3.8 0-2.7-1-4.8 1-4.8 1.9 0 2.3-.8 3.6 2.3 1.3 3 1.3 2.3 1.3 5.6 0 3.2 0 5.3 2 5.7 1.9.4 1 .8 4.4.6l6.3-.4a4.8 4.8 0 004.4-3.2c.6-1.8.4-2.5.2-4-.2-1.6.6.5-.8-2.7a54.2 54.2 0 01-3-11.6c-.4-3-1-6.1-.8-9.2M325.9 166.8v-8l39.7-.8v8.1l-39.7.7" fill="#86473f"/><path d="M332.9 155.2s1.7.6-2.7 3.4-7.3 2.9-7.3 5.4c0 2.5.5 2.6.5 2.6h2.7c1.3 0 2.7.4 3.4 0 .7-.2 1.7 1.2 3.4.8 1.6-.3 3.3-1.2 3.3-1.2l1.4.5c1.4.4.8.3 2.8 0l3.4-.8s2.4-2.9-.8-4.8c-3.1-1.9-4.5-2.2-5-2.6-.4-.4-.8-1.6-1-2.6M355.5 156.1s1.6 1.3-1.8 3.3c-3.5 2-5.8 1.2-6 4.1-.3 2.4.4 3.2.4 3.2l2.8-.4s.6-.2 1.3-1.6c.8-1.5 3.1-3.3 3.1-3.3s1-.5.3 2.2 1 3.5 1 3.5l2.2-.1.3-2.7v-2.8s.3-.2 1.3.8 1.1 1.1 1.7 2.8c.6 1.8.5 1.6.9 1.6l2.3-.5s2.4-2.7.3-4.2c-2.1-1.6-5.5-2.6-6.8-5.6" fill="#ffef6f"/><path d="M365.9 162.7l10.8-2.6.2 1 3.2-2.7-4.1-.5.2.8-10.6 2.6M366 165.8l15.1 3.6-.2 1 4.1-1-3.4-2.3-.2.9-15.1-3.6M366.3 164.3l19.6-.2v.9l3.7-2-3.9-1.3v1l-19.5.2M390.3 281v-52h-95l.1 45c2.2 0 3.9-.2 7 1.8 3 1.9 4 2.6 6 3 2.2.4 2.2 0 4.5 1s1.2 1.2 3.6 1c2.5-.2 4.5-.8 6-.2l67.8.4" fill="#ffef6f"/><path d="M326.1 289.4c1.6-.8 2.4-1 3.7.2l1.3-6.5c.2-1.2 2.3-7 2.3-7l.4 6.2c.2 3.8-.5 5.6 2 6.1 2.4.6 4 0 4 0s-1.6-.4-1.6-3c0-2.7-1-12.7-1.1-13.9-.2-1.1-.2-3-.2-3l.8-3h3.4c2-.3 2.7-1 3.5-1 .7 0 1.7-.4 1.7-.4l.4-1.4s-2.5-.3-4.6-.3c-2.1 0-4-.8-4-.8s-.4-.4-.6-1.8c-.2-1.3-2-2.8-2-2.8s.8-.8.8-2c0-1.1 1-1.7.2-3-.8-1.4-1.1-2.3-3-1.7-2 .5-2 .3-2.7 2.3-.8 1.9-.4 1.7-.2 2.6.2 1-.2 1.4-.2 1.4s-1.2-1.2-1.8-.2c-.5 1-1.1 1.5-1.1 1.5l-2.1.2-.6-2s-.4-1-.6-2.2l-1-4.2-1.3-1.6s-.7 2-.5 2.5c.1.6 1 2.5 1 4v4.9s0 1.9 1.8 2.3c2 .3 4.3.3 4.3.3s.5.8.7 4l.2 2.8c.2 1.7-.2 1-.6 4.4a80 80 0 01-1.7 9.2c-.4 1.5-1 6.9-1 6.9" fill="#86473f"/><path d="M253.4 261.4l-5.4 5s5.8 8.4 1.2 20.7c-4.6 12.3.8 16.1.8 16.1s-2.3-8.8 3-22.2c5.4-13.5 4.2-13.9.4-19.6M192.8 320.5c1.9-3 4.2-12-.8-16.5L191 305l.3 11.2 1.2 2.7M200.8 297c2.7-10.7.4-13 2.7-26.8 2.3-13.8.8-28 6.5-26 5.8 1.8 13.1 5.7 12 14.5a73.6 73.6 0 01-13.1 29.2c-5.8 7.6-8 11.8-7.7 7.6" fill="#b37535"/><path d="M200.8 267.9c5.4-8.9-.3-21.5 8.1-26.9 8.4-5.3 5-3.4 5-3.4s-14.6 1.5-15.4 18.8c-.7 17.3 1.2 13.4 2.3 11.5M234.6 211.9c-8 22-10.7 30.3-6.5 34.5 4.2 4.2 10.7 3.8 16.9-5.4a89.4 89.4 0 0010.3-25c.8-3 .4-4.9 7-2.2 6.5 2.7 15 5.7 18.8 6.9 3.8 1.1 7.2 0 6.9 13-.4 13-2.3 11.6-1.6 18 .8 6.6-.7 12.4 3.1 13.5l-.4-46.8s-18.4-7.3-21.1-9.2c-2.7-2-7-22.7-12.7-33.4-5.7-10.8-14.2-18.4-19.5-26.9-5.4-8.4-5.8-12.6-2-10.7 3.9 1.9 7.7 6.9 14.6 7.7 0 0-3.4-3.1-5.3-5.4-2-2.3-3.1-3.5-1.2-3.5 2 0 3.8.4 3.8 2.3 0 2-.3 2 3.1 3.1 3.5 1.2 5.4 0 2-2-3.5-1.8-3.5-5.7-3.5-5.7s3.8.8 6.1 2.3c2.3 1.6 3.9 3.5 3.9 3.5l6.1-3s-1.5-.9-5-.9c-3.4 0-8.4-2.3-9.6-3.4-1.1-1.2-6.1-6.1-12.7-4.6-6.5 1.5-8 3.8-8 3.8h-2.7l1.2 2s-2 1.5-2.4 5.3c-.3 3.9 2 2 2 2s1.1 1.9 1.5 8.8c.4 6.9-1.5 4.2-1.5 9.6 0 5.3.4 6.5.4 6.5s1.5-4.6 1.9.4c.4 5-1.2 8.4 2.7 14.2 3.8 5.7 3.4 9.5 3.4 9.5l-3.8-3.8s2.7.8.4 8.8c-2.3 8.1 1.1 7.3 1.1 7.3s2.3.8.8 4.3c-1.6 3.4 1.9 1.1 1.9 1.1s1.1-.8-.4 3.5M207.7 127s5.8-3.8 10.8-2.6c5 1.1 7.7 6.1 7.7 6.1s-7.3 3.5-10 2c-2.7-1.6-8.5-5.5-8.5-5.5M190 111.3c6.6 0 9.7-1.1 10.8-6.5-.3 5.4 2.7 5.4-10.7 6.5M200.5 101.3c-3.1 0 7.2-2.3 8.8-6.1 1.5-3.8 1.5-3 0 1.1-1.6 4.3-2 5-8.8 5M473.7 284.4c-6.8-10.7-6.1-13-6.5-21.1-.4-8-2.7-8.4-.4-13.8 2.3-5.4 12.7-8.5 15 0 2.3 8.4 5 13 .4 23s-5.8 16.1-8.5 11.9M461.8 261.8s-3.8-3.5-10 6.9c-6.1 10.3-8.4 9.6-8.8 17.6-.4 8 .8 13 .8 13l3-.3s-2.2-8.5-.7-12.7c1.5-4.2 5-11.1 9.2-15l7-6.5-.5-3M433.8 216s.8 12 9.6 18.9c8.8 6.9 13 10.4 16.1 7.7 3-2.7 4.6-2.7.4-12a68.2 68.2 0 01-6.9-19.1V200l2.7 4.2-.4-12.3 2.3 1.5s-.8-3.4-1.2-8c-.3-4.6-.3-7.3-.3-7.3l2.6 2.7s-.7-6.5-1.9-10.8c-1.1-4.2-.7-2.3-.7-2.3l3 2 1.2-8.5 1.5-10s1.2-1.1 2-7.3c.7-6.1 1-7.6 1-7.6s2 0 6.6-.8 10.4-4.6 10.4-4.6-5.8-3.8-12.3-1.5c-6.5 2.3-8 2.3-8 2.3s-5-5-9.3-2.3c-4.2 2.6-6.9 5.3-11.1 5.7-4.2.4-10.8-.4-12.7 3-1.9 3.5-3.8 6.2-.4 7.4 0 0 0-4.6 2.3-5.4l5.8-2s7-.3 10-2.2c3-2 5-3.5 8-3 3.1.3 5.8-1.2 3.5 3s-6.1 5-6.1 5 3 .7.7 5c-2.3 4.2-5 5.3-6.1 6.9l-5 6.9 5-1.2-8.9 12.7 4.7-1.5-4.3 3.8 2.3.8-7.3 8.8s-.3 2.7-3.8 6.5c-3.4 3.8-3.8 3.5-5.4 5.4-1.5 1.9-3 4.6-3 4.6s-3.5 5.4-9.6 7.7c-6.2 2.3-13.8 4.6-13.8 4.6s-1.6 5.3-1.2 18.4c.4 13 .4 18.4.4 18.4s1.5-.8 2-11.5c.3-10.8-3.5-20.7 7.2-23 10.7-2.3 17.7-5.4 25.3-5.8 7.7-.4 9.6 1.2 5.8 3-3.9 2-5.4 2.4-5.4 2.4s2.3-2.3 2.7 2.3M383.1 188s-.3-8.4 4.3-8.7c4.6-.4 5-.4 10.3 4.5 5.4 5 5 8.9 3.9 10.8l-5.4-8.8-13 2.3M445.7 109.4s7.7 0 8.8 3c1.2 3.1 3.1 12.7 3.1 12.7s4.6 2.7 7.7.8c3-2 1.5-2 5.3-4.2 3.9-2.3 16.5-7.7 16.5-7.7s-3-.8-1.1-3c2-2.4-.4 1-.4 1s-6.5 3.5-9.2 4c-2.7.3-2.3-1.6-1.1-2.8l-8.5 2.3s-2.3-.4-1.1-3c1.1-2.7 3.8-5 3.8-5s-5-1.6-6.1 3.4c-1.2 5-.8 10.8-.8 10.8h-3l-1.2-7.3c-.8-3.9-3.9-12-3.9-12s1.2 4.3-.3 6.2c-1.6 2-8.5.8-8.5.8M421.1 98.3s4.3 5 7.3 6.9c3.1 1.9 9.6 2.7 9.6 2.7L433.4 97l.8 7.7s-10-3.9-13-6.5" fill="#b37535"/><path d="M419.2 111.3s6.2 3.8 9.6 5.4v-3.5s3.5 3.5 9.2 5.8c5.8 2.3 7.3 1.9 16.5 1.1l-.7 2s-9.2 0-13.9-.8c-4.6-.8-9.2-3.9-9.2-3.9l1.2 2.7s-.8.8-3.5-.4c-2.7-1-9.6-7.2-9.6-7.2M327 289s1-6.3 1.6-8.8l1.4-6.7c.4-2 1.1-2.7.8-3.9-.4-1.1-.2-.7-.4-2.5-.2-1.7-.8-3.4-.8-4.6 0-1.1-.6-1 .6-2 1.1-1.2 1.9-4.3 2.5-1l.6 3.4 2.6-4.6.6.4-3.2 5.8s-.6-.8-.6 2c0 3 .7 4.5-.2 5-1 .6-.8 1.8-.2 2.2.6.3.4.5-.6 3a57 57 0 00-2.1 7.3l-1.1 4.8-1.6.2M336 287.9l-.3-3.3c-.3-4-1-8-1-8l.9-2.6s-.6.6.1 3.5c.8 2.9 1 6.5 1.2 8 .2 1.6.8 2.7.8 2.7l-1.8-.3M336.1 253.7s-1.5 0-2-.8c-.7-.7-1.2.2-1.2.2s-.4 1 0 2l.7 1.9h1.8l1.1-1.6-.4-1.7" fill="#b37535"/><path d="M332.3 268.9s2 .5 2.9.4l1-.3-2.4.8h1.2l-3 2M322.3 254s1.2.9 1.2 3a10 10 0 001.7 4.6s-2.3.7-2.7-1.2c-.4-1.9-.2-6.3-.2-6.3" fill="#b37535"/><path d="M328.6 100.6s6.2-9.2 2.5-12.7c-3.6-3.5-4.2-3-4.2-3s-.8-.6-.8-2c0 0-1.1-.2-2.8.2-1.8.4-2-1.1-1.2-3.6s3.5-4.6 8.3-2.7c0 0 2.4-2.3 6.5-.8 4.8 1.7 9 3.8 11.5 10.4 2.5 6.5 3 6.9 4.4 8.8l3.8 5.7h-.1s-.2.8.4 2.4c.5 1.5.5 2.8.5 2.8l-1.3.2s-.2 1.4-.6 2.5c-.4 1.2.6 2.7.6 2.7l-2.7-2.3-.6 3.2-2.9-1.9-1 3-2-2-1.4 2-2.3-1.2-1.3 2.8-2.1-2.7-2 2.7-1.3-2.8-.4.7-1.1-1.7-1.4 3.3s-1-2.5-2.3-2.7c-1.3-.2-1.7-.2-2.3-.6-.5-.4-.5-3-.5-3l-2 .5 2-8.4.2.2M363.4 135.5c4 4 12.6 8.4 8.2 10 0 0-2 .4-3.4-1-1.4-1.3.2.6.2.6s0 1.5-1.4 1.9c0 0-2.9-5.6-3.6-11.5M349.6 148.7c-2 0-5.8.3-5.8-3.8 0-1.5-1-2 .8-2.5 1.7-.6 1.3-2.1 2.8.8 0 0 2.3 3 2.2 5.5M322.3 248.5l-.2-.2.2.2M322.3 255v-.3c0-1.6-.8-3.5-1-4 0-.3 0-.9.2-1.4l-.5 1 1.1 3 .2 1.7M331.9 280.6h1.8l-.3-4.4-1.5 4.4M328.8 273.3c.4-3.5.8-2.7.6-4.4l-.2-2.7c-.2-3.3-.7-4-.7-4s-2.4 0-4.3-.4-1.9-2.3-1.9-2.3V257c-.5.8-2 3-5.6 5-4.6 2.7-5 5.4-1.9 5.4s2.3-1.5 6.2 1.6c3.8 3 3.4 2.6-3.9 1.1s-5.3-1.5-8.4-.8c-3 .8-5 1.2-2.3 2.3 2.7 1.2 5 2.3 1.9 3.1-3 .8-6 1-6 1 3.1 1.9 4 2.6 6.2 3 2.1.4 2.1 0 4.4 1 2.3 1 1.2 1.2 3.7 1 2.4-.2 4.4-.8 5.9-.2h5c.5-2 1-4.8 1.3-7.3" fill="#fff"/><path d="M385.4 248.3c-3.8 1.2-5.7 1.6-6.9-1.5-1.1-3-5.7-2-7.6-1.2a19 19 0 01-5.8 1.2c-1.1 0-5.4-2.7-3-3.5 2.2-.7 1-6.1-5.4-3.8-6.6 2.3-11.5 1.5-7 3.5 4.7 1.9 7.3 5 2 6.5-5.4 1.5-7.3 3.4-9.2 3.8-2 .4-1.6 1.2-3.9-2.3-2.3-3.4-3.4-6.1-6.9-3.4-3.4 2.6-2.7 5-4.2 6-1.5 1.3-2.7 1.3-2.7 1.3l-1.3-4.3.7 3.3c.2 1.1.6 2 .6 2l.6 2.2 2.1-.2s.6-.6 1.1-1.5c.6-1 1.8.2 1.8.2s.4-.4.2-1.4c-.2-1-.6-.7.2-2.7.7-1.9.7-1.7 2.6-2.3 2-.5 2.3.4 3.1 1.8.8 1.3-.2 1.9-.2 3 0 1.2-.7 2-.7 2s1.7 1.5 1.9 2.8c.2 1.4.5 1.8.5 1.8s2 .7 4 .7c2.2 0 4.7.4 4.7.4l-.4 1.3s-1 .4-1.7.4c-.8 0-1.6.8-3.5 1-1.9.2-3.4 0-3.4 0l-.8 3s0 2 .2 3.1l.9 9.1 52.3.3v-34.5s-1 .8-4.9 2M342.8 352c-39.5.7-60.2-4.3-93.2-16.6-33-12.2-34.2 2.3-44.5 10.4l-4 5.4 2.3-1.1.5.3c33 30.3 66.8 61.2 139 61.6 70.2-.8 101.7-31.6 134.7-62l.5-.4 2.4 1.2-3.3-5.7c-10.4-8.1-14.2-19.6-41-9.7a216.5 216.5 0 01-93.4 16.6v16.8c60.5-.3 84.3-11.4 99.8-18.5-19.5 15.7-46 40.2-99.8 38.7-54 1.5-84.6-22.8-104.2-38.5 16.3 7 43.4 18 104.2 18.3V352" fill="#fff"/><path d="M371.8 281c1-1.2 1.5-2.6 1.5-4.2a6.3 6.3 0 10-11.3 3.8M345 278.2h14.3v-1.5H345v1.5zM359.2 275.2l-12.5-1.5-.1 1.1 12.5 1.5.1-1.1M359.6 273.6l-13.2-5.8-.5 1 13.2 5.9.5-1M360.5 272.2l-10.8-6.5-.6 1 10.8 6.5.6-1M361.5 270.9l-11-12.1-.9.8 11 12 .9-.7M363 270l-7.4-10.3-1 .6 7.4 10.3 1-.7M364.3 269.1l-6-18-1 .4 6 18 1-.4M366 268.9l-2.5-12.4-1.1.2 2.5 12.4 1.1-.3M367.6 268.7l1.8-19h-1.1l-1.8 18.9h1.1M369.3 269.1l2.7-12.3-1.1-.2-2.7 12.3 1 .2M370.8 269.6l9.3-16.6-1-.5-9.3 16.5 1 .6M372.2 270.7l7.4-10.2-.9-.7-7.4 10.2.9.7M373.4 271.8l15.2-11.4-.7-1-15.2 11.4.7 1M374.2 273.3l11-6.3-.7-1-10.9 6.3.6 1M374.8 274.7l12.9-2.9-.3-1.1-12.8 3 .2 1M375 276.5l12.5-1.3-.1-1.2-12.6 1.3.2 1.2M375 278l11.6 2.3.3-1-11.7-2.3-.2 1" fill="#ffb935"/><path d="M342.6 63.6A164 164 0 01416 81s2 0 3.4-2.9c1.5-2.9 2-3.1 2-3.1s11.5 10 17.3 12c0 0-2.6-5.4-2.6-11.8l13.8-4c-10-4.6-22.4-12.4-28.8-19.3-6.3-6.9-16.7-9.5-17.8-3.4-1.2 6-2.6 8-2.6 8S376.5 47 342.6 47c-34 0-58.2 9.5-58.2 9.5s-1.4-2-2.6-8c-1.1-6-11.5-3.5-17.8 3.4a101 101 0 01-28.8 19.3l13.8 4c0 6.4-2.6 11.8-2.6 11.8 5.8-2 17.3-12 17.3-12s.6.2 2 3.1S269 81 269 81a164 164 0 0173.5-17.3" fill="#ef1439"/><path d="M232.5 130.9c3-.2 4.6-1.7 7.3-.8 2.7 1 4 1.7 6.1 3.7 2.1 1.9 1.2 1 1.2 1s-2.5-1-3.5.1c-1 1.2-4.4 1.4-5.5 0-1.2-1.3-.8-2-2.3-2.3-1.6-.4-2.3-.2-4.5-1-2-.7-2-1-2-1l5 .9c1.3.1 2.2-.2 3.2 1 1 1 .6.9 1.3.3.8-.6 1.4-1.5 2-1.2.5.4 2 .2 1.5 1.6-.6 1.3-.4 1.3-.4 1.3s.6-.4 1.5-.5l1.4-.2-4.8-2.5c-1-.6-2-.8-3.9-.6l-3.6.2M263.6 137.6c-1.7-.4-1.7.4-3.7 1.1l-3 1.2s1.5 1.1 2.9.8c1.3-.4 3.4-1.2 4.6-1.2l-.8-2M210.4 127.2c2.5-1.1 2.1-1.3 5.4-.7 3.3.5 5 .3 6.7 2.7 1.7 2.3-3.2 1.9-4.6 1.1-1.3-.8-7.3-2-8-3M433.2 143.6c-3.4 5-7 1.1-4-2.3 1-1.2 1.5-1.3 2.3-1.7 2-1.2 4.3-1.4 4.3-1.4s-3.7 1.2-5 2.8c-1.3 1.6-.2 1.4-.5 2.5-.3 1-.2 1 .7.4.9-.7 1 0 1.6-1.2.6-1.2 1.2.1.6 1M445.5 135.9c2.5-1.8 4.2-3.1 5.8-3.5 1.5-.4 2.7-.2 4 .4l2 1-3.3-.4s-1.2 4.6-3 .6l-2.8 1-2.7.9M464.5 134c1-.8.8-1.2 3-1.8 2.4-.5 2.8-1.3 4.3-1l4.4 1s-2.1 1.8-5.7 1.8h-6M330.4 76.7c2.3 1 4.1 1.7 7.6 4 3.6 2.3.5 1.8-.5 1-1-.9-1.8-.8-1.8-.8s-1.4 1.5-2.3-.4c-.8-1.9.2-1.4-.8-2.1-1-.7-2.8-1.6-2.8-1.6l.6-.1M327.7 165.5c0-2-.2-3 .8-4 1-.8 3.1-2 3.1-2s-1.6.4-2 2.9c-.6 2.5-1 3.5-.6 4h-1.5l.2-.9M335.5 166.2c.3-.4.8-1 .3-2.3-.4-1.4-1.1-2.9-.6-3.2.4-.3.7-.5 1 1.2.3 1.6 0 3.3 1 4.4l-.9-.4-.8.3M323.3 166.8l1 1.4.7-1.5M331.3 167.3s.7.6 1 2c.5 1.3.5.7.5.7l.5-1.3.4-1.3h-2.4M340 166.9l1 2s0-.3.5-.9c.5-.6.7-1.6.7-1.6l-2 .3M348.2 166.6c-.2.5.5 2 .5 2l1.2-2h-1.7M356.5 167.3l1.4 1.9.7-2.2-2.1.3M362.5 166.7l1.4 2 .4-.7.9-1.8-2.7.5M345.7 262.1l1-5.5.6.2-.8 5.5M345.1 264.4l-2 16.6-1 1.7-.8.4.6.5-1.2 4.3 1.6.3.7-5s.8-1.3 1.2-2.8c.4-1.6 1.7-16.1 1.7-16.1M326.1 289.4s2.2-1.2 3.5-.2c1.3 1-.2 1.5-1 1.5-.7 0-2.5-1.3-2.5-1.3M339.8 288.6l.4.6s-.6.2-2.5.2c-2 0-3.1-1.2-3.1-1.2M277.6 329.4l-1.5-3.4-4.7 4.2 1.2-1.2-8.6-.8s4 .8 4.9 1.4l1.7 1.4-.4.3 7.4-2M196.6 347.4c2.3.3 7-.3 7.8-.8l-1.2 4.9-1.7.5-4.9-4.6M420.3 333l.3-1.1-5.2-4.3-2.3 3.1 7.2 2.3M478.1 340.2l4.3 2.6-1.1 1.8-3.5-1.8.3 7-1.4-5.8-1.7-.9 3.1-2.9M245.1 346c-.2.6.2 1.2.8 1.4.6.1 1.2-.1 1.4-.7.3-.9-.4-1.4-1-1.8-.5-.4-.9-.7-1.1-1.2-.3-.6-.4-1.3-.2-1.8.5-1.3 1.9-2 3.2-1.5 1.2.4 2 1.8 1.6 3l-1.6-.4a1 1 0 00-.6-1.2c-.5-.1-1 .1-1 .6-.3.6.2 1 .6 1.3.5.4 1 .8 1.3 1.3.5.6.6 1.3.3 2.1-.5 1.4-2 2.2-3.5 1.7-1.4-.5-2.2-2-1.8-3.3l1.6.5M252.1 341.8l1.5.5-2.6 8.1-1.5-.5 2.6-8M264.7 355c-.8-.1-1.4-.6-2-1.2-.7.2-1.7 0-2.4-.2a4.5 4.5 0 01-.9-8.1c1-.6 2.3-.7 3.5-.3 2.3.7 3.8 3.2 3 5.6a4 4 0 01-1.8 2.3l.8.5h.2l-.4 1.4M270 347.6l-1.5 5c0 .4-.2.8-.1 1.2 0 .5.4.9.8 1 .4.1 1 0 1.2-.3.4-.3.5-.7.6-1.1l1.5-5 1.6.4-1.6 5c-.2.8-.5 1.6-1.2 2a3 3 0 01-2.5.5 3 3 0 01-1.8-1.6c-.4-.9-.2-1.7 0-2.5l1.6-5 1.5.4M280 350.5l3.7 1-.4 1.5-2.4-.7-.5 1.9 2.3.6-.4 1.5-2.3-.6-.5 1.9 2.4.6-.4 1.5-4-1 .7-2.2-2.2-.6-1.9 1.8-1.7-.5 7.6-6.7M286.2 352l2.4.5c.8.2 1.5.4 2 1 .5.7.7 1.5.5 2.3a3 3 0 01-1 1.7c-.5.3-1 .5-1.7.5l1.6 3.5-1.9-.4-1.5-3.6-.7 3.1-1.5-.3 1.8-8.3M293 353.4l1.6.3-1.5 8.4-1.6-.3 1.5-8.4M296.6 360.2c0 .7.4 1.2 1 1.3a1 1 0 001.3-1c.1-.9-.6-1.2-1.3-1.6-.5-.2-1-.5-1.3-1-.3-.4-.5-1.1-.4-1.7a2.4 2.4 0 012.8-2c1.3.2 2.3 1.4 2.1 2.7l-1.6-.2c0-.5-.3-1-.8-1s-1 .3-1 .8c0 .6.5 1 1 1.1l1.5 1c.5.6.7 1.3.6 2.1a2.7 2.7 0 01-3.1 2.3c-1.5-.3-2.6-1.5-2.4-3l1.6.2M305.5 363.7l.7-8.4 2 .1c.8 0 1.6.1 2.3.7.6.5 1 1.3 1 2.2-.1.8-.6 1.6-1.3 2-.7.6-1.7.4-2.5.4h-.3l-.3 3.2-1.6-.2M313 355.8l4.5.2v1.5l-3-.1-.1 2h2.8v1.6l-2.9-.1-.1 2h3v1.6l-4.6-.2.4-8.5M319.3 356l1.8.1 3.4 6.4.1-6.3h1.6l-.2 8.6h-1.8l-3.4-6.4-.2 6.2h-1.5l.2-8.5M328.2 356.3h1.6l-.2 8.5h-1.5l.1-8.5M331.8 356.4h1.8l3.5 6.3v-6.2h1.6v8.5h-1.8l-3.5-6.3v6.2h-1.7l.1-8.5M341.7 362.6c0 .7.6 1 1.2 1s1.1-.4 1.1-1c0-1-.7-1.2-1.4-1.4-.6-.2-1-.4-1.5-.8-.4-.5-.7-1-.7-1.7 0-1.4 1.2-2.4 2.6-2.4 1.3 0 2.4 1.1 2.4 2.5h-1.6a1 1 0 00-1-1c-.5 0-.8.5-.8 1 0 .6.6.8 1 1 .7.2 1.2.4 1.7.8.6.5 1 1.1 1 2-.1 1.5-1.4 2.6-2.9 2.6-1.4 0-2.7-1.1-2.7-2.6h1.6M348.7 356.5v5.3c0 .4 0 .8.2 1.1.3.5.7.8 1.2.8.4 0 .8-.3 1-.7.3-.4.2-.8.2-1.2v-5.3h1.5l.1 5.2c0 .9 0 1.7-.6 2.4a3 3 0 01-2.2 1 3 3 0 01-2.2-1c-.6-.6-.7-1.4-.7-2.3l-.1-5.3h1.6M354.8 356.4h1.6l.2 6.9 2.6-.1v1.5l-4 .2-.4-8.5M363 356h1.3l4 8.2-1.7.1-1-2.1-3 .2-.8 2.2-1.8.1 3-8.7M369 355.7l2.2-.2 2.9 6.2 1.7-6.7 2-.2.9 8.5-1.6.2-.6-6.4-1.6 6.6h-1.3l-2.8-6 .6 6.3-1.6.1-.8-8.4M386 353.7l1.2-.1 4.8 7.9-1.7.2-1.2-2-3 .4-.6 2.3-1.7.3 2.2-9M392 352.8l2-.4 3.5 6 1-6.8 2.2-.4 1.5 8.3-1.5.3-1.2-6.2-1 6.6-1.3.3-3.3-5.9 1.2 6.3-1.6.3-1.6-8.4M410.9 357.5l-.2-1c-.4 1-1.6 1.6-2.4 1.8-2.4.6-4.7-1-5.3-3.2-.5-2.4.8-4.8 3.2-5.4.8-.2 2.1-.1 2.9.5l-.2-1 4-1 .3 1.5-2.5.6.5 2 2.3-.6.4 1.5-2.3.5.4 2 2.5-.7.4 1.5-4 1M414.4 347.8l1.7-.5 5.2 5-1.8-6 1.6-.5 2.4 8.2-1.7.5-5.2-5 1.8 6-1.5.4-2.5-8.1M425.6 344.3l1.2-.4 6 7-1.6.5-1.6-1.8-2.8 1-.2 2.4-1.6.5.6-9.2M431.2 342.4l2-.8 4.5 5.3-.2-7 2-.7 3 8-1.4.5-2.3-6 .2 6.8-1.2.5-4.3-5.2 2.3 6-1.5.5-3-8M253 373.8c.2-1.4.3-3-1.1-4-1.7-1.1-3.4.2-4.4 1.8-1.3 2-2 4.2-.2 5.4 1.4.9 2.8 0 4-.6l1.5 1.7c-1.6 1.3-4.1 1.8-6.9 0-3.1-2.1-4.5-5.4-2.3-8.7 2.2-3.4 5.7-3.4 8.5-1.6 1.2.8 1.5 1.5 1.7 2l.4-.3 1.3.9-.4 4.1-2.1-.7M257.2 383.2l.5.2c.9.5 1.5.9 2 0l3.2-5.6c.5-.9-.1-1.3-1-1.8l-.5-.2.7-1.3 7.4 4.1-.7 1.3-.5-.2c-.9-.5-1.5-.8-2 0l-3.2 5.6c-.5.9.1 1.3 1 1.8l.5.3-.8 1.3-7.3-4.2.7-1.3M270.7 390.7l.5.2c1 .4 1.6.6 2-.3l2.6-5.9c.4-.9-.3-1.2-1.2-1.7l-.5-.2.6-1.3 7.4 3.2c3.6 1.6 5 4.1 4.4 5.6-.7 1.5-2.4 2-4.2 1.5l.6 2.9c.2 1 .4 1.5 1.7 2l.6.3-.6 1.3-5-2.2-1-5.6-1-.3-.8 2c-.4.9.2 1.2 1 1.6l.6.2-.6 1.3-7.7-3.3.6-1.3M303.3 396.3c-.2-1.4-.6-3-2.3-3.5-2-.5-3 1.3-3.6 3.1-.6 2.3-.5 4.7 1.5 5.2 1.6.4 2.7-.8 3.7-1.8l1.9 1.2c-1.1 1.7-3.3 3-6.6 2-3.6-1-6-3.6-4.9-7.5 1-3.8 4.4-5 7.6-4 1.4.3 2 .9 2.3 1.3l.3-.5 1.5.4.9 4.1h-2.3M319.5 394.8l-.2 1.5h-.5c-.8-.2-1.2 0-1.3.5l-.8 6c-.1 1.2.6 2 2 2.1 1.7.2 2.4-.3 2.6-1.8l.7-5.7c0-.6-.2-.8-1-.9l-.8-.1.2-1.5 6.4.9-.2 1.4h-.7c-1-.2-1.3 0-1.3.5l-.8 6.2c-.4 2.6-3 2.9-5.7 2.5-5.1-.6-5.4-2.6-5.2-4.6l.7-5.5c0-.5-.3-.8-1.3-1h-.5l.2-1.5 7.5 1M332.6 406.2h.5c1 0 1.7 0 1.7-1v-6.5c0-1-.8-1-1.8-1h-.5v-1.5h7.3l2.6 6.2 2.6-6.3h7.3v1.4h-.6c-1 0-1.7 0-1.7 1.1v6.4c0 1 .8 1 1.8 1h.5v1.5h-8v-1.4h.7c1 0 1.4-.2 1.4-.8v-6.6h-.1l-3.7 8.9h-1.5l-3.8-9v6.7c0 .7.4.9 1.4.9h.6v1.4h-6.7v-1.4M359.2 403.2l1.8-.9c1.1.8 3.3 2.1 5.6 1.8 1.3-.2 2-.9 2-1.4-.2-.7-1-.9-2.5-1.1l-4.2-.7c-1.7-.3-2.8-1.3-3-2.4-.3-2 1.7-3.9 4.5-4.3 1.2-.2 2.3 0 2.8.1v-.3l1.6-.3 2.4 2.9-1.8.9c-1.2-1-2.7-2-4.6-1.7-1.1.2-1.7.7-1.6 1.3.2.7 1.4 1 2.7 1.1l4 .7c1.7.2 2.8 1 3 2.4.3 2-2 4-5 4.4-.6.1-1.7.2-3.2-.2v.5l-1.9.3-2.6-3M379.2 401.7l.6-.2c1-.2 1.6-.5 1.3-1.5l-1.6-6.1c-.3-1-1-.9-2-.6l-.5.2-.4-1.5 7.6-2c3.2-1 6.5-.7 7.2 1.7.7 2.5-3 4.1-6 5l-1 .2.5 2.1c.3 1 1 .9 2 .6l.8-.2.4 1.4-8.5 2.3-.4-1.4M399.6 395.7l.5-.2c1-.4 1.6-.7 1.2-1.6l-2.2-6c-.4-1-1-.8-2-.4l-.5.2-.5-1.4 8-3 .4 1.4-.5.2c-1 .3-1.6.7-1.2 1.6l2.2 6c.4 1 1 .7 2 .4l.5-.2.5 1.4-8 3-.4-1.4M421 380.3c-1-1-2.3-2-4-1.1-1.8.8-1.5 3-.6 4.7 1 2 2.6 3.8 4.5 2.9 1.5-.7 1.5-2.4 1.6-3.8l2.2-.3c.3 2-.6 4.4-3.6 5.8-3.4 1.7-7 1.2-8.6-2.4-1.8-3.7 0-6.7 3-8.1a4 4 0 012.6-.5v-.5l1.4-.7 3.3 2.6-1.7 1.4M431.7 381.2l.5-.3c.8-.6 1.4-1 .8-1.9l-3.6-5.3c-.5-.8-1.2-.5-2 .1l-.5.3-.8-1.2 10-6.7 3.6 1.3-1.3 1.7c-2-1-4-.1-5.9 1.2l-.4.2 2 2.9.7-.5c.7-.5.9-1 .5-1.6l-.3-.4 1.7-1.1 2.6 3.8-1.7 1.2-.3-.4c-.4-.6-.8-.8-1.6-.2l-.8.5 2 3 .6-.5c2.5-1.7 3.3-2.8 3.6-5.3l2-.7-.1 4-10.4 7.1-.9-1.2"/><path d="M274.3 62l5.6-1.9.6 2-3.7 1.2.9 2.4 3.5-1.2.6 1.9-3.5 1.2.9 2.4 3.6-1.3.7 1.9-5.6 2-3.7-10.5M294.8 67.1L292 56.4l2.6-.6c1-.3 2-.6 3-.2 1 .4 1.8 1.2 2.1 2.3.3 1 .1 2.2-.5 3-.7 1-2 1.3-3 1.6h-.4l1 4.1-2 .5M301 54.2l2-.5 2 8.9 3.3-.7.4 1.9-5.3 1.2-2.3-10.9M310.5 52.2l1.2 6.8c0 .5.1 1 .5 1.5.3.5 1 .8 1.6.7.5-.1 1-.5 1.2-1 .2-.6.1-1.2 0-1.7l-1.2-6.8 2-.4 1.2 6.8c.2 1 .3 2.1-.3 3a4 4 0 01-2.6 2 4 4 0 01-3-.8c-1-.8-1.2-1.8-1.4-3l-1.2-6.7 2-.4M319 50.9l3.2-.4c1-.1 2-.1 3 .4.9.6 1.5 1.6 1.6 2.6a4 4 0 01-.7 2.5c-.4.6-1 1-1.8 1.3l3.5 3.7-2.6.3-3.3-3.9.5 4.2-2 .3-1.3-11M328.6 49.9l2-.2.9 11-2 .2-.9-11M333.8 49.5h2c1 0 2-.2 3 .3.8.4 1.5 1.4 1.5 2.4 0 .9-.3 1.7-1 2.2 1.1.3 1.8 1.3 1.9 2.6 0 1-.4 2-1.3 2.6-.8.7-2 .8-3 .9H334l-.3-11M345.6 49.3l-.2 7c0 .4 0 1 .2 1.4.3.6.8 1 1.4 1 .5 0 1.1-.3 1.4-.7.3-.5.3-1.1.4-1.7l.1-6.9h2v7c-.1 1-.2 2-1 3a4 4 0 01-3 1.3 4 4 0 01-2.7-1.4c-.8-1-.9-2-.9-3.1l.2-7 2 .1M354.8 57.7c0 .9.6 1.4 1.5 1.5.7 0 1.4-.5 1.5-1.3.1-1.2-.9-1.6-1.8-2-.7-.3-1.3-.5-1.8-1.2-.5-.5-.7-1.4-.7-2.1.2-1.8 1.8-3 3.5-3 1.7.2 3.1 1.8 3 3.5l-2.1-.2c0-.7-.5-1.2-1.2-1.2-.6-.1-1.1.4-1.1 1-.1.8.6 1.2 1.2 1.5.8.3 1.5.6 2.1 1.2a3 3 0 011 2.6c-.2 2-2 3.3-3.9 3.2-1.9-.2-3.4-1.8-3.3-3.7l2.1.2M375 52.2l-1.4 6.8c0 .5-.2 1 0 1.5.1.6.6 1.1 1.2 1.2.5.1 1.1 0 1.5-.5.4-.4.5-1 .6-1.5l1.3-6.8 2 .4L379 60c-.2 1.1-.5 2.1-1.3 2.8-.9.7-2 1-3.2.9-1-.2-2-1-2.5-1.9-.6-1-.5-2-.3-3.2l1.3-6.7 2 .3M383.4 54l2.2.5 2.5 9 2-7.9 2 .5-2.8 10.8-2.2-.6-2.5-9-2 7.9-2-.5 2.8-10.8M397 57.6l-2 6.6c-.1.5-.3 1-.2 1.5 0 .6.5 1.2 1 1.4.6.1 1.2 0 1.6-.4.5-.4.6-1 .8-1.5l2-6.6 2 .7-2 6.5c-.4 1-.7 2-1.7 2.6a4 4 0 01-3.2.5 4 4 0 01-2.3-2c-.5-1.2-.3-2.2 0-3.3l2-6.6 2 .6M405.2 60.2l2.7 1-.2 9 5.8-7 2.6 1-3.9 10.4-1.9-.7 2.9-7.8-5.6 6.8-1.6-.6.2-8.8-2.9 7.8-1.9-.7 3.8-10.4M294.9 218.7h.6c1 0 1.8-.1 1.8-1.6v-10.6c-2 .2-2.6 1.3-4 3.5l-2-.7 2.5-5H305l2.3 4.8-1.9 1c-1-1.8-2-3.2-4-3.6V217c0 1.5.7 1.6 1.7 1.6h.7v2h-9v-2M315.6 204.3v2.2h-.5c-.8 0-1.2.2-1.2 1v8.6c0 1.7.8 2.7 2.3 2.7 1.7 0 2.3-.9 2.3-3v-8.2c0-.9-.3-1.1-1-1.1h-1v-2.2h6.6v2.2h-.7c-1 0-1.3.3-1.3 1v9c0 3.7-2.6 4.6-5.4 4.6-5.3 0-5.8-2.8-5.8-5.7v-7.8c0-.8-.5-1.1-1.5-1.1h-.5v-2.2h7.7M324.6 218.7h.5c1 0 1.8-.1 1.8-1.6v-9c0-1.5-.8-1.6-1.8-1.6h-.5v-2.1h12.2l2.3 4.5-2 .8c-1.2-2.6-3.3-3.2-5.7-3.2h-.5v4.9h1c.8 0 1.2-.4 1.2-1.5v-.7h2.1v6.7h-2v-.7c0-1-.3-1.6-1.4-1.6h-1v5h.9c3 0 4.3-.6 6-3.4l2 .8-2.3 4.8h-12.8v-2.1M341.1 218.7h.6c1 0 1.8-.1 1.8-1.6v-9c0-1.5-.8-1.6-1.8-1.6h-.6v-2.1h6.3c3.5 0 7.3.4 7.3 4.3 0 2-1.3 3.4-4.3 3.6 3.4.1 5.3 2 5.4 3.8 0 4.4-3.9 4.7-7.2 4.7h-7.5v-2.1M365 204c5 0 7 4.3 7 8.6 0 4.2-2 8.5-7 8.5-3.8 0-6.8-2.8-6.8-8.5s3-8.6 6.9-8.6M374 218.7h.5c1 0 1.8-.1 1.8-1.6v-9c0-1.5-.8-1.6-1.8-1.6h-.6v-2.1h8.3c4 0 6.4 2.5 6.4 4.8s-1.5 3.9-3.4 4.4l1.7 3.4c.7 1.2 1 1.7 2.4 1.7h.8v2h-5.7l-3.2-6.6h-1v3c0 1.5.8 1.6 1.7 1.6h.5v2H374v-2M263.2 351.9c.6-.3 1-.9 1.2-1.6a3 3 0 00-2-3.7 3 3 0 00-2.2.3c-.6.3-1.2.9-1.4 1.5l-.1.5v1.4a3 3 0 002.2 2h1l1.3-.4M278.5 355l.6-2-1.8 1.7 1.2.3M287.7 356.5c.4 0 1 .1 1.3-.1.3-.2.5-.5.6-.8 0-.4 0-.8-.3-1-.3-.4-.6-.5-1-.6l-.9-.2-.5 2.5.8.2M307.8 359.2h1.2c.5-.2.8-.5.9-1 0-.5-.3-1-.8-1.1l-1.1-.2h-.3l-.2 2.2h.3M364.9 360.7l-1-2.5-.8 2.6 1.8-.1M404.6 354.7a2.8 2.8 0 003.3 2c1.5-.3 2.4-1.8 2-3.3a2.8 2.8 0 00-3.3-2.2c-1.6.4-2.4 2-2 3.5M428.6 348.4l-1.7-2.2v2.7l1.7-.5M279 389c1.4.6 3.2 1 3.8-.3.5-1.3-1-2.3-2.6-3l-.5-.2-1.4 3.2.7.3M384 395.4l.8-.2c1.4-.4 2.8-1.1 2.4-2.5-.4-1.4-2.3-1.3-3.8-.8h-.4l1 3.5M388.2 358.3l-1.2-2.5-.6 2.7 1.8-.2" fill="#fff"/><path d="M295.6 60.5c.5 0 1-.2 1.5-.5s.8-1 .6-1.6c-.1-.6-.7-1-1.3-1l-1.5.3-.4.1.7 2.8h.4M322.8 55.7c.5 0 1.2-.2 1.6-.6.3-.3.4-.8.3-1.3 0-.4-.3-.9-.7-1.1-.5-.3-1-.3-1.5-.2l-1.2.1.4 3.3 1.1-.2M337 58.5c.5 0 1.1 0 1.6-.5.4-.2.5-.6.5-1 0-.6-.3-1-.7-1.2-.5-.2-1-.2-1.5-.1h-.9v2.8h1M336.3 53.7c.5 0 1 0 1.4-.2.4-.2.6-.6.6-1a1 1 0 00-.7-1c-.4-.2-1 0-1.4 0h-.3v2.2h.4" fill="#ef1439"/><path d="M348 211.2c1.3 0 2.4-.9 2.4-2.2 0-1.5-1-2.3-2.5-2.3h-.4v4.5h.4M348 218.7c2 0 3.2-1 3.2-2.5 0-2-2-2.6-3.2-2.6h-.5v5h.4M365 218.8c2 0 2.5-3.4 2.5-6.2 0-2.7-.4-6.2-2.4-6.2s-2.5 3.5-2.5 6.2c0 2.8.5 6.2 2.5 6.2M381 211.8c1.6 0 3.4-.4 3.4-2.5 0-2-1.7-2.6-3.6-2.6h-.5v5.1h.7" fill="#006fff"/><path d="M203.5 344.3s1.2.4.8 3c-.4 2.7-1.5 5.8-3.8 3.9-2.3-2-4.3-4.6-5.8-5.8-1.5-1.1-2-1.1-1.5-4.6.3-3.4 1.9-16 0-19.6-2-3.4-2.3-7.2-2-10.7.4-3.5-1.1-5 .8-6.9 2-2 7.7-7.3 7.7-16.5s-5.4-16.5-5.4-16.5-3.8 3-3-2c.7-5-1.6-14.9 8.8-25.6 10.3-10.8 20.3-17 22.2-21.2 2-4.2 4.6-14.5 4.6-14.5l-2.3 1.1s.4-3.4.8-5c.4-1.5 1.1-4.6 1.1-8 0-3.5-1.1-12.3-1.1-12.3l-2.7 1.5V180s0-1.9-1.5-2.7c-1.6-.7-2.7-1.5-2.3-3.4.4-2 0-4.2 0-4.2l-3 1.9s2.6-8 1.4-16.5a44 44 0 01.8-19.6s-10-1.5-11.9-8.8c0 0 2-2 5.4-3.5 3.4-1.5 9.2-1.5 15 2.7l1.2-.7-8.7-6c-4.6-3.2-6.8-6-6.8-6s-24 3.4-28.2-4.5c0 0 13.2 5.5 16-5l-8-5.2s16.2 7.9 18-14.7c0 0 2 3.9.6 11.2-1.4 7.4 5.8 15.4 5.8 15.4s1-2 1-4.9c0 0 1-.8 2.6 5.6 0 0 8.3-3.8 7.6-20.4 0 0 1.3-3.3 1.3 1.2 0 4.4.7 10-4.5 19.5-.8 1.9 0 3.6 1 4.2 1 .6 2 1.1 2.3-.1.3-1.3.9-4.8 0-7.8-.8-3-.1-2 .6-1.2.7.9 2.9 2.3 2.9 8.4 0 1.4-.4 2.4 2.1.6 2.6-2 4.2-4.4 5.8-7 1.6-2.8 2.2-2.7.9.6-1.3 3.3-3 7-.8 5.6a45.6 45.6 0 0013.1-11.8c2.5-4.6 3-3.7 1.8-.1-1.3 3.6-1.6 5.3-4.3 8-2.8 2.5-3.2 2.6-.2 1.5 3-1.2 9.2-3.3 11.5-7.6 2.3-4.4 3.8-6 2.9-3-.9 3-2.2 5.3-.1 4.8 2-.4 9-3.3 12.2-7.9 0 0-2.9 9.8-13.1 14.6a61.4 61.4 0 01-14.3 5.3s7.2.6 8.7 1c1.4.4 3.7 1.3.1 1.6-3.6.3-13.4-.3-15 .3-1.5.5-3 2.3-1.4 3.3s9.4 4.7 12.1 6.9c2.7 2.1 5.2 3 6.8 3.4 1.5.5 4.3 1.5 4.6 4.6.3 3.2.7 3-.2 4.3-.8 1.3-.7 5-4.4 5.5-3.8.5-6 0-7 1.1a6.2 6.2 0 00-1.2 1.6m-51.3-52.6c-.7-3 0-5 .6-3 .6 2.2.9 2.5.9 2.5m49.5 52.7l8.3 9.5c3 3.2 3.5 3.2 5 7.5 1.4 4.3 3.4 5.2 4.8 6.9 1.5 1.7 5.8 9.5 5.8 9.5s6.3-2.3 12-4c5.8-1.8 13-6.4 16.2-6 3.2.2 4.3.2 5.7 4.8 1.5 4.6 2 6.9 2 6.9m-28.1 16.4c-1.5 1.5-3.8 3-4 4.3-.4 1.5-1.2 6.1-1.2 6.1l11.8 4.9m-.2 47.9c-2.6.4-7.1-1.8-6.4-5.6.8-4.6 1.4-6.3-.3-8.4-1.8-2-1.2-2.5-.6-9.2.6-6.6 2.6-14.6-1.7-15-4.4-.2-5-.2-5.5 3a52.3 52.3 0 01-11.5 19.2c-5.2 4.6-10.7 11-10.7 11s6 4.6 1.8 16.7c-4.3 12-7.5 17.8-4.6 25 2.8 7.2 5.4 11 9.8 15.6 4.3 4.6 4.6 5.4 8.3 5.7 3.7.3 7.2-.3 8.6 3.7m-6.6 3s0-1.8-4-2.4c-4-.5-6.4-2-10.7-7.7-4.3-5.8-4.6-6-8.9-8.1-4.3-2-6-3.7-7.5-5.8-1.4-2-1.7-4 0-11.7 1.7-7.8 3.8-7.5-3.1-12.1l-10.1-6.7s-5.8 15-15.6 24c-9.7 8.8-10.3 7.1-11.2 16.6-.9 9.5-2 18.7.6 22.2 2.6 3.4 4.3 4.6 4.3 4.6m72.5-116s-4.3-1.2-6-2.3c-1.7-1.2-3.2-1.4-7-1.2-3.7.3-10.9-4-10.9-4m25.4-7.2s-9.2-3.4-10.7-5.2l-5.2-6.3m13.3-17s1.1 1.4 2.3 6.6c1.1 5.2 2.6 7.5 2.3 10.4-.3 2.9-.9 4.3-.9 4.3M226 276.6s2-8.9 1.7-13.8c-.3-4.9 2-8.9 2-8.9" fill="none" stroke="#000" stroke-width=".875"/><path d="M253 261.4s-4 4.3-5.4 5.2c-1.5.8-2.6 4-7.8 5.4-5.2 1.5-9 3.2-9 3.2m-30.7-171.8s4.6 2 7.3 5.6c0 0-5 .6-4-3.3m16.8 5.2s-2 2-3.6-.2m10.1 5.2s3.9.6 5.6 2c1.7 1.3 6 5.9 6 5.9m9.7-11.3s-4.8 2.5-6.3 3.8c-1.5 1.3-3 1-2.3 3.8.8 3 1.4 3.5 1.4 3.5m23.6 20.1l-5.4 1.6c-2.3.6-3.3 1.7-4 2.3-.8.5-3.1.4-3.7.2m130.3 39.9c.4-5.6 2.5-12 8-12 5.6 0 5.6.7 9 3 3.5 2.3 12 7 18.3 11 0 0 4.8-4.1 5-5.9.2-1.7 2.5-3.8 4.2-6.3 1.7-2.5 2-2.9 2.1-4.2.2-1.4-1.5-2-1.1-4.2.4-2.3-.4-2 2.9-5.2 3.2-3.3 10-10.4 10.9-12.7 1-2.3 0-2.7-1.7-1.9-1.8.8-2 2-3 2.5-.9.6-4 .4-5-1-1.2-1.3-6.2-1.3-7-4.6-.8-3.2-1.5-8.4 3.8-11 5.4-2.4 8.7-2.2 14.8-2.6 2.1-.2 3.7-.6 5.6-2.5 1.9-1.9 6.5-4.2 6.5-4.2s-24 3-34.3-10.2c-2.3-2.9-2.6-6 0-3.1a25 25 0 008.6 4.9s-.9-4.7.6-3.5c1.4 1.1 7.4 8 25 6.6.6-4.9-2.9-8-17.3-10s-15.2-7.8-16.7-10.4c-1.4-2.6-.8-4.3 2.3-1.2 3.2 3.2 12.1 7 12.1 7s-1.7-3.8-1.7-6.7c0-2.9-.6-3.7 2.6-.6 3.2 3.2 9 8.4 11.5 8.7 2.6.3 6.6 2.6 4.3-3.2-2.3-5.7-3.4-11.2-2-15.5 1.5-4.3 1.7-4 2 .3.3 4.3 5 12.6 9.2 8.6 4.4-4 5-3.5 6.4-2.6 1.4.9 3.4 1.2 4.9-1.1l2.3-3.8s-.3 8 8 .9c3.5 2.9 5.8 3.4 7.8-1.2s3.2-2.3 1.7 1.5C490.8 95 481 103 473.8 107c-7.2 4-6.6 6.3-6.6 6.3s6.3-2.3 9.2-3.7c2.9-1.5 6-2.6 3.2.6-3 3.1-2.6 4.9 2 1.7s8.9-7.2 7.5-3.8c-1.5 3.5-.3 4.4 3.4 1 3.7-3.5 2.3-2.7 4-4.7 1.8-2 7-3.4 3 2-4.1 5.5-13.9 15.9-26 17.3-4.3.3-6.6 3.4-.6 3.4s11 2.6 11 2.6.5 5-9.2 7.8c3.7 16.1 1.7 11.8 0 19.9-1.8 8-1.5 14.4-1.5 14.4l-2.9-.3s-.5 4-.2 9.2l-2.3.6s-1 .5 2.3 10.6l-2.3 1.4s-.3 1.8 2.3 7c0 0-4 6.9-2.3 13.2 0 0-3.5-2.6-2 2.9m-.3 0s1.7 10 12.3 19.8c10.7 9.8 16.5 16.1 16.5 23.3.2 3.2-2.3 3-2.3 3s-1.8 5.4-4.7 11.7c-2.8 6.4-5.1 7.5-1.7 17.3 3.5 9.8 4.3 7.2 2.6 17.6a117.6 117.6 0 00-2 25c.3 7.5-.3 5.7-2 6.9-1.7 1.2-3.5 4.9-4.3 6.6-.9 1.7-1.2 2.6-1.2 2.6l-2.3-8.3s3.5-3 4.3-10.7c.9-7.7 3.2-23.6-6-36.5-9.2-13-12.4-14.1-12.4-25v-5.3s-12.5 8.5-16.1 21.6c-1.5 5.2-.3 7.8.3 10.4.5 2.6 1.4 2-2 7.2 0 0-8.4 9-10.7 13.8-2.3 4.9-3.4 10-7.2 10-3.7 0-2.5 0-3.7 1.5l-2.3 2.9-5.8-3.2s1.2-2.3 6.4-5.2a35 35 0 0014.3-22.4c2.3-15.3-4.6-26.5-1.4-36 3.2-9.5 7-12 7-12s-19.7-11.3-23.4-16.8c-3.7-5.4-2.6-2-2.6-2l.3 3.5s-3.2-4.4-4.3-9.2c-1.2-5 0-9-3.8-8.4-3.7.6-5.7-.6-6.9 5.8-1.1 6.3-.5 20.4.3 20.7.9.3 2 4.3-2 4.9.9 5.2 1.2 11.5-2.3 13.2m2-55.5l7.5-3.2-3.5-3.1m3.5 2.8l7.8-2.6s.2-4 1.1-5.2c.9-1.1-.3-1.7 1.7-3.7s4.3-2.3 6.4-3.7l3.4-2.6" fill="none" stroke="#000" stroke-width=".875"/><path d="M418 192.3s.3-2.6 1.4-4.6m2.3-3.2s1.5 2.6 4 .3m2.3-12.4s.6 1.5 3.2-1.4 3.8-4.6 3.8-4.6m-25.7 53.8s13.9-2.6 18.7-3.7c5-1.2 5.8-1.2 5.8-1.2m28.2 49.2s.6-3.1-1.4-8M430 150.3s2.3 1.7 4.3-.3 4-4.6 8.9-3.5m31.2-9s-.4-.3-3.5 0H466m-190.4 17.8c-1.4-21.3 4.2-54.2 22.8-71.8 16.1-13.6 22.9-6.7 21.1-.2-2.5 8.8 2.7 12.5 9.2 17.3 0 0 6.2-9.2 2.5-12.7-3.6-3.5-4.2-3-4.2-3s-.8-.6-.8-2c0 0-1.1-.2-2.8.2-1.8.4-2-1.1-1.2-3.6s3.5-4.6 8.3-2.7c0 0 2.4-2.3 6.5-.8 4.8 1.7 9 3.8 11.5 10.4 2.5 6.5 3 6.9 4.4 8.8l6 9s9.6-7.7 3.8-11.1c-7.5-4.4-9-14.8.8-14.2 9.8.6 24.3 5.7 30.7 13.4 6.3 7.7 23.4 25.7 17.6 65.4l-2.8-6-.8 3.6s-1.4-2-2.1-5.8l-1.6-7.9-1.5 4.4s-1.7-2.8-2.3-8l-1.3.6s-2.5-3.3-4.6-10.8l-2.1 3-3.9-4-1 3s-2.8.5-5.5-3.5-.6 0-.6 0l-1.7 3.6s-2.7-1-3.5-2.9l-2.3 1.8-2.8-5-1 3s-3.5-2.4-3.8-3.6l-1.2 4-2.9-2.3m-87 30.4l3.2-6.2 1.3 1.5 2.9-6 1.3 1s4.8-4.5 5.8-8.4c1-3.8.2.6.2.6l1.1 1.7s1.2.8 2.3-1.3l4.8-8.9s-.6 3.7 1.6 4.5c0 0 2.4-.8 4.6-4.6l1.5 2.3s3.6-1.6 4.4-3.7l1 3s3.8-2.6 5.5-5.3l1.7 3.9s2.5-1.6 3.7-4l4.2 3s-1.9 2.7 1 6.1c-.4 2.3 0 6.6 0 6.6l-.8 3.4c-.4 1.7-.8 3.3-.6 5.4.2 2 1 4 3.3 4.4 2.3.4 3 1 5.6 1.3 2.5.4 4.4-.2 6.5-.7 2-.6 2.9-2.7 2.7-4.3-.2-1.5-.4-1.1-.4-3.8 0-2.7-1-4.8 1-4.8 1.9 0 2.3-.8 3.6 2.3 1.3 3 1.3 2.3 1.3 5.6 0 3.2 0 5.4 2 5.7 1.9.4 1 .8 4.4.6l6.3-.4a4.9 4.9 0 004.4-3.2c.6-1.8.4-2.5.2-4-.2-1.6.6.5-.8-2.7a53.9 53.9 0 01-3-11.6c-.4-3-1-6.1-.8-9.2M278.6 149c1-1.7 1.7-22.8 6.9-34.1m-3 29.9c.9-2 2.2-20.3 6.6-27.4m1.4 18.8c.7-5.4 1-8.7 4-16m3.6 9.6l1.6-5.5m4.6 5l1.1-3M409 151.9s-.4-7.5-1.4-13.4c-1-6-1.7-8.3-1.7-8.3m-1.5 12s-.4-5.5-1.2-10.3c-.8-4.8-2.5-9-2.5-9m.2 15.2s-1.7-10.4-4-17.5m-2.1 7.5c-1-3.4-3.5-10-3.5-10m-2.3 8.7l-2.3-7m-5.4 5.2l-1.5-3.4m-51.2-21.1l-2 8.4 2-.6s0 2.7.5 3.1c.6.4 1 .4 2.3.6 1.4.2 2.3 2.7 2.3 2.7l1.4-3.3 1.1 1.7.4-.7 1.3 2.8 2-2.6 2 2.6 1.4-2.8 2.3 1.1 1.4-1.9 2 2 1-3 3 2 .5-3.3 2.7 2.3s-1-1.5-.6-2.7c.4-1.1.6-2.5.6-2.5l1.3-.2s0-1.3-.6-2.8c-.5-1.6-.3-2.3-.3-2.3" fill="none" stroke="#000" stroke-width=".875"/><path d="M326.1 82.7s2.5-.4 6.4 1.6m-40.1 26c0 2.2-.4 5.2 4.2-1m-2.9-5.5c0 2.1-.4 5.2 4.2-1m-.3 7.7c0 2.1-.4 5.2 4.2-1m1.7-3.2c0 2.1-.4 5.2 4.2-1m-6.5-2.4c0 2-.4 5.1 4.2-1m-7-7c0 2.2-.5 5.3 4.1-.9m-.1 22c0 2-.4 5.1 4.2-1m2.3-12.5c0 2.1-.4 5.2 4.2-1m-1.7 9c0 2.1-.4 5.2 4.2-1m-3.7 9.1c0 2.1-.3 5.2 4.3-1m3-4.4c0 2.1-.3 5.2 4.3-1m-20-1c0 2-.4 5 4.2-1m-15.5-11.6c0 2.2-.4 5.2 4.2-1m-8.2 8.5c0 2.1-.4 5.2 4.2-1m6.9-15c0 2-.4 5.1 4.2-1m90.6 21.2c0 2.2.4 5.2-4.2-1m2.8-5.5c0 2.1.4 5.2-4.2-1m.4 7.7c0 2.1.4 5.2-4.2-1m-1.7-3.2c0 2.1.3 5.2-4.3-1m6.6-2.4c0 2 .3 5.1-4.3-1m7.1-7c0 2.2.4 5.3-4.2-.9m.2 22c0 2 .4 5.1-4.2-1m-2.3-12.5c0 2.1.4 5.2-4.2-1m1.7 9c0 2.1.4 5.2-4.2-1m3.6 9.1c0 2.1.4 5.2-4.2-1m-3-4.4c0 2.1.3 5.2-4.3-1m20-1c0 2 .3 5-4.3-1m15.6-11.6c0 2.2.4 5.2-4.3-1m8.3 8.5c0 2.1.4 5.2-4.2-1m-7-15c0 2 .5 5.1-4.1-1m-19.6 46.4c4 4 12.6 8.4 8.2 10 0 0-2 .4-3.4-1-1.4-1.3.2.6.2.6s0 1.5-1.4 1.9m-17.4 1.7c-2 0-4.6.2-5.8-3.8m-11 10.3s1.8.6-2.6 3.4-7.3 2.9-7.3 5.4c0 2.5.5 2.6.5 2.6h2.7c1.3 0 2.7.4 3.4 0 .7-.2 1.7 1.2 3.4.8 1.6-.3 3.3-1.2 3.3-1.2l1.4.5c1.4.4.8.3 2.8 0l3.4-.8s2.4-2.9-.8-4.8c-3.1-1.9-4.5-2.2-5-2.6-.4-.4-.8-1.6-1-2.6m18.5.2s1.6 1.3-1.8 3.3c-3.5 2-5.8 1.2-6 4.1-.3 2.4.4 3.2.4 3.2l2.8-.4s.6-.2 1.3-1.6c.8-1.5 3.1-3.3 3.1-3.3s1-.5.3 2.2 1 3.5 1 3.5l2.2-.1.3-2.7v-2.8s.3-.2 1.3.8 1.1 1.1 1.7 2.8c.6 1.8.5 1.6.9 1.6l2.3-.5s2.4-2.7.3-4.2c-2.1-1.6-5.5-2.6-6.8-5.6M264 74.6s-2-5-3.2-7.5c-1.1-2.6-4.3-5.2 2.6-8 6.9-3 18.7-4.1 17.8-11.6m-22.4 15.8c1.4 3.2 2.6 2.3 6.6.6 4-1.7 12.7-5.8 18.7-7.8m58.5 7.5A164 164 0 01416 81s2 0 3.4-2.9c1.5-2.9 2-3.1 2-3.1s11.5 10 17.3 12c0 0-2.6-5.4-2.6-11.8l13.8-4c-10-4.6-22.4-12.4-28.8-19.3-6.3-6.9-16.7-9.5-17.8-3.4-1.2 6-2.6 8-2.6 8S376.5 47 342.6 47c-34 0-58.2 9.5-58.2 9.5s-1.4-2-2.6-8c-1.1-6-11.5-3.5-17.8 3.4a101 101 0 01-28.8 19.3l13.8 4c0 6.4-2.6 11.8-2.6 11.8 5.8-2 17.3-12 17.3-12s.6.2 2 3.1S269 81 269 81a164 164 0 0173.5-17.3h0z" fill="none" stroke="#000" stroke-width=".875"/><path d="M421.1 74.6s2-5 3.2-7.5c1.2-2.6 4.3-5.2-2.6-8-6.9-3-18.7-4.1-17.8-11.6m22.4 15.8c-1.4 3.2-2.6 2.3-6.6.6-4-1.7-12.7-5.8-18.7-7.8M338 158.5l17.1-.3m5 0l5.4-.2v4m-2.9 4.2h-3.9m-3 0l-4.9.2m-3 0l-5.8.1m-16.2-5.4v-2.3l4.1-.1m2-1.7s-2.6-1-3.5-1.6c-1-.5-3.3-1-3.3-1v-1c.2-.3.3-.5.3-.8 0-.6-.3-1.1-.6-1.5l-1.2-2.2c-2.2-2.7-3-2.5-6.8-3.4a28 28 0 01-6.5-2.5s-.7 2.7 3.3 4.2 8.2 3.8 8.2 3.8-.4 1.6-3 1.4a8 8 0 01-1.6-.3v-.7a2 2 0 00-3.8-.7 17 17 0 01-3-2c-2.2-1.7-6-3.6-9.3-3.6a875.9 875.9 0 006.8 5.3 2 2 0 00-1.8 2.4c-1.3-.2-1.7-.7-2.9-1.4v-.4a2 2 0 00-2-2 2 2 0 00-1.6 1l-1.8-.3c-3-.4-6 0-6 0s.9 1 2.2 1.3c1.3.4 3 0 3.5 1.8.2 1 0 1.3 0 2h-.2v-.5a2 2 0 10-3.8.7 2 2 0 00-2.8 1.8c0 1 .9 2 2 2a2 2 0 001.8-2.7 2.3 2.3 0 001.2.1v.6a2 2 0 001.8 2c-.2.8-.7.7-2.3 1.6-2.3 1.4-6.8 5-6.8 5s3.3-1 5.6-1.5c2.3-.6 4.2-1.2 5-3.3.8-2 2.7-4.2 2.7-4.2l.7-.5v.3a2 2 0 104 0c0-.2 0-.4-.2-.6l1.2.6s.2 3-1.7 5c-2 2-6 4.4-6 4.4s4 .6 6.4-1.1c2.3-1.8 2.1-2.7 3.3-4.8 1.1-2.1 2-2.5 2-2.5h1.1a2 2 0 002.2 2.8 7 7 0 01-.7.4c-3 1.8-5.4 4.6-5.4 4.6s1.9 1.4 5.2-1.3c3.2-2.7 4-4.4 5.7-5.2 1.7-.7 3.9-.2 3.9-.2s-.6 2.5-4 4.4c-3.5 2-5.8 4.8-5.8 4.8s2.5-.1 4.6-1.3l4.6-2.7m3.8-19.2l-2.3-1.5s-.2 2.7 1.6 5.5m39.9 14.4l10.8-2.6.2 1 3.2-2.7-4.1-.5.2.8-10.6 2.6m.4 4.5l15.1 3.6-.2 1 4.1-1-3.4-2.3-.2.9-15.1-3.6m0 0l19.6-.3v.9l3.7-2-3.9-1.3v1l-19.5.2m-23.4 155.6s-32.5-8.8-40.3-10.7c-7.7-2-7.1-5.4-7.1-9.5V229h95v69.3c0 4 .5 7.6-7.3 9.5L343 318.5m-7.8 18s8.9-3 6.2-8 0-5.7 2-5.7" fill="none" stroke="#000" stroke-width=".875"/><path d="M325.2 329.4s2-7 6.5-4c4.6 3.1 4.2 4.8.4 8.2m32.7-6l.3-3.7c9.2.8 14.6 0 22.6-5-15.3 5-24.1-.7-24.1-.7s16.9-4.6 23-6.1c6.1-1.6 10-3.1 10-11.2v-77.5c0-24.6 9.2-21.9 9.2-21.9l-10-16.1c-25.3 8.8-30.7-7.3-52.6-7.3-21.9 0-27.2 16.1-52.6 7.3l-10 16.1s9.3-2.7 9.3 21.9v77.5c0 8 3.8 9.6 10 11.2l23 6s-8.8 5.8-24.2.9c8 5 13.4 5.7 22.6 5l.4 3.9M354 333c-3.9-3.4-3.9-4.6.7-7.6 4.6-3.1 6.4 3.4 6.4 3.4m-17.9-6.1c2 0 4.6.8 2 5.7-2.7 5 5.5 7.8 5.5 7.8M295.4 274c2.2 0 3.9-.2 7 1.8 3 1.9 4 2.6 6 3 2.2.4 2.2 0 4.5 1s1.2 1.2 3.6 1c2.5-.2 4.5-.8 6-.2l4.4 1.3m12 3.3s.5.3 3.4 1c2.8.5.5-.7 3.8 0 3.3.5 2.9.9 5.4 1.8 2.5 1 4 1.4 4 1.4s2 .2-3 1.1c-5 1-6.8 1.8-8.7 2.3-2 .6-8.8 1.4-15 2-6.1.5-9.6.3-14.5 1.1-5 .8-7.5.2-10.8.8l-8.2 1.3m94.6-17.2H338m-4.5 0h-2m-4.3 0h-4.5m3.3 8.6c1.6-.8 2.4-1 3.7.2l1.3-6.5c.2-1.2 2.3-7 2.3-7l.4 6.2c.2 3.8-.5 5.6 2 6.1 2.4.6 4 0 4 0s-1.6-.4-1.6-3c0-2.7-1-12.7-1.1-13.9-.2-1.1-.2-3-.2-3l.8-3h3.4c2-.3 2.7-1 3.5-1 .7 0 1.7-.4 1.7-.4l.4-1.4s-2.5-.3-4.6-.3c-2.1 0-4-.8-4-.8s-.4-.4-.6-1.8c-.2-1.3-2-2.8-2-2.8s.8-.8.8-2c0-1.1 1-1.7.2-3-.8-1.4-1.1-2.3-3-1.7-2 .5-2 .3-2.7 2.3-.8 1.9-.4 1.7-.2 2.6.2 1-.2 1.4-.2 1.4s-1.2-1.2-1.8-.2c-.5 1-1.1 1.5-1.1 1.5l-2.1.2-.6-2s-.4-1-.6-2.2l-1-4.2-1.3-1.6s-.7 2-.5 2.5c.1.6 1 2.5 1 4v4.9s0 1.9 1.8 2.3c2 .3 4.3.3 4.3.3s.5.8.7 4l.2 2.8c.2 1.7-.2 1-.6 4.4a80 80 0 01-1.7 9.2c-.4 1.5-1 6.9-1 6.9zm4.8-6.1l3 1M316.7 334c7.2 5.7 10.2 5.3 18.3 16.2-3.8-9.8-4.6-12-9.8-16.4 8.6 6 11.2 6 17.5 16.1-14-42-71.3-19.5-86.6-13.2 19.9-4.6 34.8 1.4 42.6 11 0 0-3.5-9.3-6.9-13.3 13.2 8 13 7.2 19.9 14.7 0 0-5-11.8-5.8-14.1 10.4 2.8 18.1 14.6 18.1 14.6s-3.3-9.3-7.3-15.6zm52 0c-7.1 5.7-10.1 5.3-18.2 16.2 3.8-9.8 4.6-12 9.8-16.4-8.6 6-11.2 6-17.6 16.1 14.2-42 71.4-19.5 86.7-13.2-19.9-4.6-34.8 1.4-42.6 11 0 0 3.4-9.3 6.9-13.3-13.2 8-13 7.2-19.9 14.7 0 0 5-11.8 5.8-14.1-10.4 2.8-18.1 14.6-18.1 14.6s3.3-9.3 7.3-15.6zm108.4 11c-10.4-8.1-14.2-19.6-41-9.7a216.5 216.5 0 01-93.4 16.6c-39.5.7-60.2-4.3-93.2-16.6-33-12.2-34.2 2.3-44.5 10.4m274 4.6c-11.1-5-15-9.2-30.7-2.7-15.8 6.6-37.2 20.7-105.6 21.1-68.3-.3-94-14.2-109.7-20.7-15.8-6.5-19.6-2.3-30.7 2.7" fill="none" stroke="#000" stroke-width=".875"/><path d="M443.4 349.7c-19.6 15.7-46 40.8-100.6 39.3-54.5 1.5-85.2-23.2-104.7-39m239.5 0c-33 30.3-64.5 61.2-134.8 62-72.1-.4-105.9-31.3-138.9-61.6M326.1 82.7s2.5-.4 6.4 1.6" fill="none" stroke="#000" stroke-width=".875"/></svg>