<svg xmlns="http://www.w3.org/2000/svg" height="960" width="1440" version="1.0"><path d="M0 960h1440V0H0z" fill="#002a86"/><path d="M660 800c34 9 89 6 89 7l21-3c2-2 25-8 28-9l29-11c19-7 38-22 54-35l8-7c8-11 17-16 26-27 25-33 38-64 46-99 0 0 7-40 6-57 0 0 0-26-4-42-7-29-17-57-34-82a248 248 0 00-240-114c-22 1-42 10-62 17-41 18-78 47-105 85a255 255 0 00-30 225c12 28 28 59 51 82 29 33 68 54 93 62l24 8"/><path d="M661 798c12 3 33 6 48 6a227 227 0 00122-25l24-14c23-15 50-45 50-45 14-15 25-30 33-48 19-37 26-72 27-110 0 0-1-39-10-64-9-35-41-85-50-93-30-33-65-55-103-69-27-11-54-14-85-14l-26 2c-42 4-75 21-111 44-58 40-90 104-97 169a239 239 0 0066 194c18 22 53 42 53 42 9 7 59 25 59 25" fill="#ffd90f"/><path d="M720 330c17-1 27-3 61 5 11 2 50 20 60 26 23 9 67 57 67 57l29 45c5 13 13 25 16 39 4 20 5 41 7 63a229 229 0 01-48 140h-1c-15 15-26 33-45 44 1 1 3 2 3 4-2 5-12 4-12 5-6-2-15 8-22 12-28 19-72 28-72 28-22 2-65-1-65-1-18-1-56-12-70-20l-45-22a242 242 0 01-94-163l-1-51c3-36 18-71 35-103 11-19 55-59 55-59 5-5 35-24 38-25 57-28 104-24 104-24"/><path d="M922 441l-16-23-9-8c-8-9-43-42-63-50-47-23-72-26-72-26-15-2-47-3-53-2-48 0-98 27-104 32 0 0-52 34-73 66l7 13c8 1 10 9 11 15 1 2 4 6 7 6 8-9 15-20 23-28l3-1c10 4 7 15 11 22 10 8 15 19 22 29 4-4 8-7 11-12 8 1 11-10 19-7 13 7 7 21 13 32 4 4 7 9 8 14 16-14 38-16 59-15 13-2 24-9 37-8 19-1 31-18 49-17 10 3 22-2 31-5 12-13 33-7 48-13 11 0 17-12 28-12l3-2" fill="#ffd90f"/><path d="M602 427c2-2 3-1 5-4l3 5c-3 6-8-1-13 2-4 3-8 3-13 2 0 0-1 0 0 0-6-2-10-2-16 1-3-1-7-4-10-2l-8 1c1-3 5-4 7-5h1c3 0 8-7 12-1 3-1 5-3 7-2 2 5 6 2 9 1 2-2 4-1 6-1l1 2 4-3c2 2 2 6 5 4" fill="#fff"/><path d="M957 565a243 243 0 01-41 129c-4-3-8 1-11-2h-1c-8-1-20 0-27-8-5-3-10-7-9-14-9-10-24-10-36-14-2-2-3-5-3-7-7-12-5-27-16-38 5-3 9-2 14-4 3-2 4-4 4-8-2-2-3-4-6-4-10-2-17 6-26 9h-4c5-5 12-9 19-9l5-6c2-3-3-5-5-6-13 0-24 7-33 16l-6-1c-15-7-32-9-46-17 0 0 7 3 8 2l17-5c4 0 17 0 21 2s12 2 17 2c7 2 12-2 14-3 2-2 7-5 12-4l31-2c3 1 6 3 12 3 7 0 16 1 18-1s9-6 18-5l22 2c6 1 15-2 22-3l16-4" fill="#1691ff"/><path d="M957 558l-2-29h-10c-1 2-2 0-3 0l-22-1c-14 4-28 0-41 0l-53 3c-9-5-19 1-29-1-19-2-39 4-57 1-7 0-13 4-19 3-10-7-22-1-32 0-4-1-8-4-12-3-1 3-6 0-7 2l2 2c0 9 8 8 13 11 5 2 6 6 8 10 6 2 10 6 15 10 0 0 41 1 44-1 3-1 44-2 59-1s30-4 38-4c9 1 49-3 56-1 8 2 30 2 32 0s20-1 20-1" fill="#a8efff"/><path d="M796 607l-4-1" fill="#fff"/><path d="M792 606c-9 7-17 17-23 26-1 1 0 2 1 3 8-3 10-12 15-18 3-6 7-4 11-11h-4" fill="#a2d100"/><path d="M673 727l-11 1c-11 0-24-3-35-7 7-7 19-10 28-17 2-4 3-7 3-11 6 9 9 20 13 30l2 4" fill="#a81800"/><path d="M675 726h3c-7-12-9-28 0-39 3-2 5 1 7 1l10-24-2-1-5 1h-38c-6-1-16 5-20-3 0-7-3-13-2-20-1-3 2-4 4-5 1 2 3 1 4 1 4 2 12 1 19 0l31-1c-1-6-7-10-4-15 5-2 10-5 13-2l13 18 6-10 10-19c5 2 14-2 13 6-4 6-6 15-11 21h13c5 1 11-3 18-3 2-6 5-13 8-17l13-13-4-2c-5 0-9-3-14-5-12-1-22-7-32-11-8-12-20-9-31-13l-12-2h-5c1 4-6 8-2 15-3 4-9 5-12 6-2-1-3 2-3 3 4 2 7 2 11 2 8 4 20 0 28 7l-3 6c-6-2-8 3-14 2-12-6-22 3-33-3-10 5-16-2-25 2-8 3-14-3-20-3 3 6 1 10 4 16l-6 4 3 1 5 5c-1 2-2 4-4 4-5 2-13 3-17 0-2-1-4-2-4-5 1-1 2-2 3-1 2-1 2-3 2-3 0-3-3-3-5-5-6-5 2-11 0-17l-4 1c0 5 0 11 2 16-1 3-4 5-7 5 1 3 7 3 6 8-5 3-14-1-20 0-2-2-3-3-3-5 2-3 4-4 7-4 0-5-6-6-7-10 0-4 0-7 3-11h-11c1 5 5 10 2 15-3 4-7 4-10 5h6c3 1 3 3 5 5 2 3 0 6-2 9l-8 1c-6-1-11-3-17-2-3-1-4-4-4-7 3-4 7-4 11-6 2-3-3-3-4-5-2-2-4-5-3-8 2-5 6-8 9-10-3 0-6 0-9 2h-5c-4 0-9 2-13 0l-2-2c-1-3 0-7 3-8 4-3 12-4 18-3v-3h-1c-2-3-7 0-9-2-4-4-9-9-8-16 1-4 8-4 7-9-9-1-19 0-28 1-3 29 5 55 12 81 1 2 4 2 6 3 31 3 62 6 91 14 6 6 16 12 19 21 8-2 16-3 24-1 3 1 7 2 8 4v-1l4 2c10 11 13 24 18 37l1 4" fill="#a2d100"/><path d="M678 566l-8-14c-2-3-5-4-8-3-5-9-13-19-23-20-5-4-3-11-5-16l-12-21-3-6c5-6 11-10 18-13l4 4 4 4c0 16 11 27 17 40l1 7 2 4c8 4 5 18 16 15l5 3c2 5 6 11 13 12 4 3 6 6 11 8-8-1-17-4-26-4h-6" fill="#e8d9a8"/><path d="M841 479l2 2h6l1 1v-1c9 6 18-4 25 5l-2 5v-1h-4c-1 2-4-2-4 2-1-2-4-1-5-1l-2-1c-1 0-3-2-4 0l-2-2v1l-1-1h-1-1l-2-2v1c-2 0-3 1-4-1v3l-2-3s-2 0-2 2c-2 3-1-1-3-1v1l-2-1h1l-2 1c0-2-2 0-3-2h1c-2 0-3 2-3 0v-1 1c-1-3-4 1-4-2h-1l-1-1c-1 1-2-3-2 0l-1-1v-1l-1 2v-1h-4v-1l-4 1h-4l-4 2c-4-2-6 2-9 1h-3c0 2-2 2-1 3-4 5-12 5-19 6s-8 0-13 3c9-2 6 3 9 1 3 1 5 3 8 1 4 2 8-4 11 1-1 5-6 4-9 5-6-2-11-4-18-2h-6l-3-1h-6c-6-2-8-1-14 1-6-1-10 3-14 0l-18 1c-5 0-9 3-14 5-4 2-9 5-12 9l-6 2v-3c19-20 50-13 72-18 12-8 28-2 41-9 15-6 27-19 46-13l6-1c1 3 3 2 6 2l5 1" fill="#e8d9a8"/><path d="M843 476c5-1 10-5 15-4 6-4 11-6 17-7h7c3-2 8-1 12-3h5v1c4-3 9-1 12-5 3-6 11-5 15-9l-3-6-10 4c-12 12-31 13-47 15-13-2-21 13-34 14l1 1 3-3v2-1l1 1h6" fill="#e8d9a8"/><path d="M787 526c11 0 22 2 33 0l10 2 47-2c14-2 27 3 39 0h38v-1c-2-27-13-51-25-73h-5c-5 3-11 4-15 9l-2 2h-3c-7-1-13 2-20 2-3 2-7 2-10 2-9 0-15 8-24 8l-6 3 2 2h7l1 1 2-1 1 1v-1h3l1 1v-1l1 1v-1c2 0 5-1 7 1h1l3 1 1 1c4 2 1 5 2 8l-16 2-17-4-1-1-1 1c-12 5-20-10-32-5-3 1-8 2-11 1-4 0-8 3-10 7-7 3-15 2-22 4 6 7 22-7 20 7-10 8-22-2-33 3l-13-3c-10-1-16 5-27 2l-21 2c-7 2-14 7-19 12l-7 4v4l3 3c4 0 8-3 13-2 12 8 23-4 35 0 7 7 15-2 23-1 10 3 19 2 28 1l5-12 11-6c2-1 15-9 20-9h39c8 1 18 2 17 3-1 2-5 11-9 8s-5-3-16-3l-20 1c-9 1-14 0-20 4-6 5-9 12-9 12" fill="#a81800"/><path d="M643 474c4 3 5 7 6 11 1 12 7 21 15 30v-2c-1-7-8-10-9-18-6-8 0-21-10-26l-6 3 4 2M617 488l-1 2h-2v-3c-7-7-9-17-18-23-11-6-3-20-14-26l-3 4 2 5c1 3 1 6 3 8 7 10 24 16 23 30 2 15 23 21 23 37 1 3-1 7 2 10 10 0 14 12 23 14-2-7-9-14-17-14-9-5-4-18-11-24l-8-16-2-4" fill="#a89982"/><path d="M577 444l-13 15v6c-1 5 0 9 2 13 9 10 6 25 18 35 3 4 5 9 6 15 15 5 31 7 44 17l15 6c4-4 6 2 10 0l-1-1c-2 2-3-2-5-2-9 0-12-15-22-13-5-4-3-10-5-15-1-16-24-20-22-38-4-12-19-19-25-30l-1-4-1-4" fill="#e8d9a8"/><path d="M562 461l-3 4-5 1c-7-4-7-12-10-18-8-1-11-10-15-15-1 2 0 4-3 5 1 2 1 5 3 6l16 14 4 10c7 1 5 9 6 14 1 17 26 21 24 40 1 3 4 6 2 9l-2-2c-6 1-12 2-18 1l-10-7c-9-4-16 3-24 8h4l2-2 10-3 12 1c6 1 6 9 11 12 7-1 11 7 17 9 0-5-6-8-8-11 2-3 2 1 4 1 0-4 6 0 8-1l1-1c11-1 23 0 30 12 2 2 6-2 8-1 9 1 11 11 18 16h1v-5c5-10-10-6-15-12h1-1c-1-3-5-3-8-5l-14-5 1-1c-5 1-11-1-15-3l-7-3c-1-10-8-18-14-26 0-14-16-24-12-38l1-4" fill="#a89982"/><path d="M535 548h-2c-5 0-3 8-9 7l-3 3h-27c-1 1-1 2-2 1-2-3-1-10 0-14 8-3 17-3 23-10-7-5-16-3-23-1 4-33 16-64 32-94-1 6 8 7 10 13 11 2 7 16 17 19 2 6 0 13 3 18 4 11 20 15 22 27l1 9c-8 1-18 3-25-5-3-1-8-3-12 0-6 0-10 5-15 9l-2 2 6 1 3-1 9-3c7 0 12-1 16 4 3 12 17 7 22 16 3 1 7 5 10 2 0-2-2-1-3-2 0-3-1-7-4-9 12-1 25-4 32 9 1 2 4 2 6 2-4 14-22 4-30 7l-34 2-2 1c-1-1-2-3-4-3-5 2-6-4-9-6l-6-4" fill="#e8d9a8"/><path d="M539 553l5 7c3 2 8-1 8 5-3 6 5 14-3 18-8-4-12 9-20 2-3-1-6 0-8-3s-6-7-4-11c0-4 8-5 7-10 1-5 8-4 8-10l3-1 4 3" fill="#008600"/><path d="M871 490l-1 1 1-1" fill="#fff"/><path d="M511 535c-6 5-12 5-19 7-4-10 7-6 12-8 2-2 5 1 7 1" fill="#a89982"/><path d="M576 594h-1c-5-2 0-8-3-10-3 2 0 5-1 7-1 5-7 1-8 5l10-1 3-1" fill="#a2d100"/><path d="M631 586l4-1c2-1 4-3 4-6 8-5 0-11 0-16l-8-11c-10-8-8 10-17 10-8 7 3 12 2 19 0 3 2 5 5 5l2 1 8-1" fill="#008600"/><path d="M628 592c1 0 2-1 1-3h-6l1 3h4M657 595c0-2 0-4-1-3l-2 3h3" fill="#a81800"/><path d="M652 596c-9 5-16-4-25-1h-4c-3 3-7 1-11 2-2-1-5 1-7 1l-7-1c-5 1-10 3-15 2-3 0-4-2-5-4l-4 2-13 1-1-2h-2v1c-5-2-12-1-16-4h-9c-7-1-15 1-20 4v4c9 1 16 0 25-3 1 1 3 0 3 2 4 1 8 0 12 3v-1h19c2-2 3 0 5-2l2 2h2c3 0 7-2 10 1l-1 1c1-1 3 0 3-2 3-1 9 0 11 2 7-5 14 5 19 2 10-4 20 1 29-2 12 5 23-4 33 2 4 0 11 0 14-3-6-3-15-1-21-4-6 0-12-1-17-3h-9" fill="#008600"/><path d="M604 596l1-2-5-1-1 2" fill="#a81800"/><path d="M606 593l6-3c2-6 0-14-3-20l-7 1-6 6 2 9c2 0 1 2 2 3v2l6 2" fill="#008600"/><path d="M540 592l-2-3c-3-1-3 1-4 2l6 1" fill="#a81800"/><path d="M673 561c1 4 7 10 1 15v9c-4 2-12 1-14 6-1-6-13 0-11-10-1-2-7-3-3-7-2-3 2-6 3-8 1-4-2-8 1-12 1-2 3-1 4-1 1 2 3 3 5 2 3-3 5-4 8-2 1 4 4 5 6 8" fill="#008600"/><path d="M611 561l-4 6c-4 0-9 0-11 5l-1 3c-6-2-10-8-16-6-3 1-5 6-9 5-2-3-3-6-7-7-3 0-6 1-8 3v-7c0-1 2 1 2-1 19-1 38-2 54 0M645 566l-1 1v-2l1 1" fill="#a2d100"/><path d="M571 577c1 3-1 5-3 6-2 3 2 6-1 8-3 1-5-1-6 2-1-3-8-1-5-5v-14c1-1 3-4 5-4 5 1 6 6 10 7M595 582c1 4-9 3-5 9-2 2-6 2-9 4-1-3-5-3-6-5 2-2 2-4 0-6-3-1 0-5 0-8 2-2 4-5 7-4 4 1 11 4 13 10" fill="#008600"/><path d="M933 577l1-1-1-1 1 2 1-1-3 1v-2l1 2M930 577h-3-1-2c1-2 2 0 3-1l1 1 3-2c0 1 1 2-1 2M908 577l-3 1c-2-1-3 1-5 2l-1-1c1 1 6-3 9-2M896 578v1c-3-2-5-1-8 1v-1c-5 4-13-1-18 3l-4-1c5 0 11-4 15-1 3 0 7 0 9-2l1-1h1l4 1M914 578l1-1-1 1 1 1 1-1v1l5-1c-1 0-2 3-4 1h-2l-4-2 3 1" fill="#fff"/><path d="M653 591c-2 3-6 2-9 3-4-1-7-3-12-2-1-5 6-3 8-7l3-6c7 3 1 12 10 12M554 585c-1 2-2 4-1 6l4 2v2c-6-2-15 0-18-7 3-5 8 1 12-4 1-2 3 0 3 1" fill="#a2d100"/><path d="M816 588c-2 6-9 4-13 7-15 8-27 20-37 35-1 3 0 7 3 8 4 2 6-2 9-4 9-19 25-29 42-37 3 1 8 0 8 4-2 5-8 3-13 5-15 9-27 26-38 37-2 4-5 7-8 9l-31-4c-3 6-7 10-12 15-1-5-7-9-9-13 3-4 4-9 9-12 11 2 22-2 32-4 7-17 22-32 37-43 7-2 14-7 21-3" fill="#354600"/><path d="M598 592c-3 4-6 4-11 4 3 1 6-1 7-4 0-2-2-4 1-5 2 0 1 4 3 5M621 592l-8 2c3-2 2-5 3-7 1 2 7 1 5 5" fill="#a2d100"/><path d="M859 590h1c-4 2-8 1-12 1 2-2 6-1 11-2v1M864 604v-1l1 2 1-1h-1c4 2 5-1 8 0v1h-3v1h-1c-2 1 0 0 0-1h-2v1l-1-1h-2c-1-2-4-1-2-3l2 2" fill="#fff"/><path d="M545 622c3-1 8-1 8-4 1-3 1-7-1-10-1-7-10-6-13-2-4 2-6 6-6 10l7 6h5M537 628l-7 3c-2 2 0 4 2 5 8-3 15 4 22-1 2-3 0-5-1-7h-16" fill="#008600"/><path d="M538 627l2-4h3v4h-5" fill="#a81800"/><path d="M859 605c-1 4-7 3-10 3-2-2-6 0-9 0l3-2v1c1-2 2-1 3-1 2-3 4 2 5 0v1h2l6-2 1-1v1h-1" fill="#fff"/><path d="M577 623h4c2 0 1-2 1-3-5-4 1-10-2-14-2-2-4 0-6 0v-1c-3 0-4 2-7 3-7 6 1 9 4 14l6 1M577 630l4 3-16-2 5-2 7 1" fill="#008600"/><path d="M571 628l1-2v-2h4v4h-5" fill="#a81800"/><path d="M603 623l4-2c-2-3-1-9-3-13-3-1-6-4-9-3-4 0-4 5-4 7-6 6 2 8 4 12l8-1M595 631l-2 2 4 2c4-2 11 1 13-3-1 0-2-2-3-1l-2-1-10 1" fill="#008600"/><path d="M602 629l-1-3h-5v3h6M734 612c-2 13-13 22-18 33-4 3-5 8-7 13l-2 6c-1 9-6 18-8 28l-10-3c4-11 7-23 14-33 3-5 4-11 8-16 2-9 9-17 12-25-1-8 7-2 11-3" fill="#a81800"/><path d="M761 679l-4-6c-5 1-6 7-11 5h-9c-4-5-8-8-8-14l9-10v-1c2-5 9 0 13-1l18 3a121 121 0 0118 2c0 3-4 5-2 7 2 4 6 7 6 13l-7 1-18 1h-5" fill="#a89982"/><path d="M762 682c1 5 0 10-1 16-4 6-10 10-16 14-10 2-19 0-28-5 0-1-1-2 1-3 5-1 9-4 13-7l-10-16c-3 0-6 0-7-2s2-5 3-7l-5-8-9 30c3 1 8-1 11 3 0 11-9 21-18 28h9c3 1 10-2 13 2l-1 1c3 2 3 6 4 10 3-1 5 2 8 0 1-3 1-7 4-9 4-3 9-4 12-5h6c9-1 18 4 27 3 19 3 39 1 57-5 12-2 29-11 41-2-4 6-12 12-18 18v2c2 3 5 8 8 7 17-11 30-28 43-42l5-8h-2s-2 0-3-2l-1 3c-7-3-16-2-24-4l-12 2v-1c-3 2-7 0-9-1-6-5-16 3-21-6-4-7 7-5 5-11 3-6 8-2 12-3l1-1h2l2-1v-1c-2-4-6-3-8-5l-27-7c-9 4-16 1-24 3-1-1-4 0-4-2h-1c-2 0-3-2-3-3 3-3 3-6 3-9l6-5c-1-9 12-10 11-19-1-4-4-7-6-10-13 13-27 25-37 39l15 3c2 0 2 2 2 3-1 1-1 3-3 3 0 6 8 11 6 18l-10 1c-4 2-7 0-12 1h-10" fill="#a2d100"/><path d="M862 675h-10c-2 1-3 4-3 5l-4 4c-1 2 1 3 2 4 12-3 22 9 34 3-2-1-2-4-4-4-5-2-10-7-12-13l-3 1" fill="#008600"/><path d="M914 618c3-1 6-3 9-2 1 0 6 5 8 2l7-1c-3 3-5 0-8 2h-5c-2-2-5-3-7-2-3 1-6 3-9 2-4-6-10-1-15-2 5 1 12-5 16 1h4" fill="#fff"/><path d="M705 639c1 4-3 6-2 10l-1 1c-5-6-8-12-14-16l-4-11c12-9 15 11 21 16" fill="#a81800"/><path d="M856 626l-1 1c3 3 7 2 9 1 4-4 9 4 13 1l-2-2c2 1 5 2 6-1l2-1c2 3-3 2-4 4-4 1-9 2-12-1-3 1-8 4-12 1-1-5-4-1-7-1l-6 2c4-3 5-3 10-4 0 0 3-2 4 0" fill="#fff"/><path d="M828 656c-9 3-16 1-25 2l-3-1c4-4 1-11 8-12 2-1 1-5 2-8 4-2 8-6 9-10 1 10 7 19 9 29" fill="#008600"/><path d="M700 652l-4 9c-6-3-13 0-19-1-15 0-26 0-40 2 2-6 0-12 0-17l-2-4 21-2 29-1h3c5 3 7 9 12 14" fill="#354600"/><path d="M634 661h-1c0-8-4-14-1-21 4 5 3 14 2 21M911 641c0 2 3-1 2 2-5-1-7 5-12 3l-9-1c-3 2-5 2-7 1 4 1 9-1 11-2 4 3 8 1 11 0 1-1 2-3 4-3M914 642v1-1M917 643l-2 1 1-2 1 1" fill="#fff"/><path d="M533 651c21 2 44 5 64 11 1 2 2 3 1 5-6 3-14 5-21 5-2 2-2 4-1 6 6 6 14 7 21 11 16 3 28-13 46-6 5 1 10 3 13 7-2 4-1 9-4 12l-30 17c-15-4-32-6-45-1-3-1-5 3-7 2-4 4-8 4-11 8h-1c-19-23-40-46-49-73l-3-9c8 3 18 4 27 5" fill="#e86f00"/><path d="M742 694c-1 3-4 3-6 4l-18-31-5-7 2-8c11 13 17 28 27 42" fill="#a81800"/><path d="M874 664v1c2 1 1-1 2-1l2-1s-1 3-2 2l-1 1c-4 2-8-8-12-5-4-2-6 3-9-1 3 1 7-1 10-1 5 0 5 7 10 5M906 665l-2-1h5l-2 2h-2c0-2-1 0-2-2v1c-3-2-4 0-6 0l-2 1c1-4 5-3 8-2 0 1 2 2 3 1" fill="#fff"/><path d="M612 674l5 8-17 5c-7-3-15-6-22-12 7 0 12-3 19-4 3-1 5-3 4-6 5 2 8 7 11 9" fill="#a81800"/><path d="M717 677l2-2 1 1-3 1M754 701c-7 7-17 10-27 6l-4-1 16-5c6-3 8-10 13-13 2-2 5-5 6-9 2 7 1 16-4 22" fill="#a89982"/><path d="M742 688l-4-7h10l-6 7" fill="#a2d100"/><path d="M754 681c-3 4-6 8-10 10l8-9 2-1" fill="#3c5858"/><path d="M703 696c-1 11-8 20-15 29l-8 1c2-3-3-5-3-8-3-10-3-20 2-28l24 6" fill="#a89982"/><path d="M710 697c1 10-9 18-15 24 5-8 11-15 11-25l4 1" fill="#3c5858"/><path d="M872 720c-6 7-14 11-17 18 0 6 7 10 11 14-18 9-40 0-59 5-18 4-32 7-52 4-1-9 6-22-6-25-5-3-12 3-14-6 19-11 42 5 62 1 24 1 47-13 70-12l5 1M678 729c2 2 7-2 9 1l2-1c8-2 15-1 23-1-3 6-13 7-15 15-4 7-4 13-7 19-8-5-22 2-32-4-22-5-45-6-67-4-1 1-5 0-6-2s2-5 5-8h-1c2-3 6-5 5-9-5-7-10-9-16-15 36-12 64 20 100 10" fill="#e8d9a8"/><path d="M576 722c5 4 12 9 16 15l-10 12-22-19c4-4 9-7 14-8l1 1 1-1M717 736l-7-1 6-6c0 2 2 4 1 7M737 739l-5-1 1-6 4 7" fill="#a81800"/><path d="M704 738c-3 4-6 8-6 13-2 2 0 5-3 7 1 2-2 3-1 5-2 1 0 3 0 5 4 2 8 4 13 2 8-2 22-1 37 4 7-2 7-10 9-16-2-6 2-11-2-17-3-3-6-2-9-4 0 0-3 5-8 5-6 0-16-3-16-3l-14-1" fill="#e8d9a8"/><path d="M687 764c4 1 3 9 8 8 9 4 14-1 26-1 3-1 16 4 23 6 4-1 8-3 9-8l1-5c15 2 34 1 49-4 14-2 31-2 44-1l-11 8c-17 12-35 18-58 25-26 7-54 3-79 4-27-4-53-12-77-25l-28-14c23-1 45-1 69 6l24 1" fill="#a2d100"/><path d="M673 353c-4-1-7 0-10 2h-2c-2 1-2 4-1 6 0 2 3 2 5 3h5c2 0 3-2 5-3h22l4-2c3-1 5 0 7 1l5-1h8v1c1 1 1-3 3 0h4l1-2 4-1h6l2-2h5v2h1l1 2c3 0 7 1 9-2h6v-1l6 1c5 2 10 4 15 4 1-1 3-2 3-4v-3c-2-3-4-5-8-4l-1-1-12-1v-1c-3-1-6-2-10-1l-9 4c-3 1-5-1-8-2-3 0-6 2-8 4l-3-1-2-2-7 1h-2c-1-2-1-4-3-5l-9-1-1 2-4 2-8 2h-8c-4-1-8-1-11 3M670 377h-7c-1 1 0 3 1 4l6 1c3 5 9 7 15 5 2 0 3-4 5-4l14 2c5 1 10 1 14-2 2-1 4 1 7 2l1 2h8l7 1 4-3h2c1 0 3-1 4 1 0-2 1-1 2-1v-1l13 1h7c2-1 3-3 2-5-2-2-6-1-8-2h-7l-6-2-5-4c-3-1-7-1-9 1 0 1 0 1 0 0-2 2-5 2-7 1l-5-1-2 1c-1 0-2 2-3 1h-4l-1 1c-3 1-5 2-8 1l-1-1h-2c-1-3-5-3-7-3 0 0-1 1 0 0-3 1-5 2-7 1s-5-3-7-2c0 0-2 1-1 2h-3c-3-1-6-2-8 0-2 1-4 1-4 3M781 399c-3-2-7-2-10 0-2 3-2 8 1 9l3 1c3 0 7 1 9-2v-2h8l5 3 4 2h3c2-1 3-3 5-3h5l7 2c1 1 3 0 4-1l3-1v-1l3 1 2 1h5c2 1 4 1 6-1l3-2h6l2-1 9-1c3 0 6-5 3-7-2-3-7-2-10 0l-2-1v1h-21l-1-1c-4 1-7 4-10 3l-3-2h-1c-3-2-6-2-9-1l-2 1c-5 1-10 1-15-1h-7l-5 3M865 422c-3-1-6-3-9-1-2 2 0 4 2 6l5 3h9c2-1 3-1 3-3h13c1 1 3 3 4 2 3-2 2-5 1-8 0-2-3-2-4-2h-1c-3 1-5 2-7 1-4-1-9-3-13 0h-2M856 436c0 1 0 0 0 0h-12l-5-1-2 1s0 1 0 0l-1 1h-6c-2-1-4-3-6-2l-1 1h-5c-4-1-7 1-10 2l-4 1-3-3-8 2c-2 0-4 0-5-2v-1c-4 0-11-1-12 5l2 3 18 4c0-1 0 0 0 0l4-2h3c4 3 8 4 13 3 1-3 4-1 7-2v2h3l7-1h3v-2l7 1h2l3-1 2 1h6c3-2 2-6 2-9l-2-1M775 458l-7 1-7 2h-6v4c1 2 3 3 5 3h9c2 0 2-2 3-3 2-2 4-1 6-1 4 5 10 3 15 4 2-2 5-4 5-7h-2c-2-2-4-3-6-2-3 1-7 2-10 1-2 1-2-1-4-1M610 418l12-5 17 45-11 7-18-47M633 404l13 53 12-3-11-54-14 4M666 397l-2 57 11 4 3-60-12-1M677 461l4 9 31-40-6-11-29 42M684 475l2 8 40-20v-13l-42 25M686 488v8l41-10-1-11-40 13" fill="#fff"/><path d="M771 527l4-8c0-1 19-14 28-15 9-2 14 0 22-1 9-1 32 2 32 2s-2 5-4 5-11-5-20-2c-8 2-14 0-21 0-8 0-16 3-20 7-5 4-10 12-10 12h-11" fill="#e8d9a8"/><path d="M712 568l6 5 10 6c1 1 9 3 13 0 3-3 20-5 26-3 6 1 30 6 33 4 4-3 7-9 16-8h36c3 1 22 4 24 1 2-2 8-6 16-6l23 2c5 2 17-1 21-2l18-3c2-1 1-4 1-4s-11-1-15 1c-4 1-23 4-26 2s-11-3-17-3l-48 2-28 3h-18l-34 1-17 2-29 1-12-1M919 584l1-1v-1l1 2v-1l-2 1v-2 2M916 585h-3l1-1h-1c0 2-2 0-3 0h1l3-1 1 2c0-2 1-2 2-3 0 1 1 3-1 3M894 584l-3 2c-1-1-3 0-4 1l-1-1-1 1 9-3M883 586v1c-4-3-6-1-8 0h-1c-4 3-13-2-18 2l-3-1c5 0 10-3 15-1 3 1 6 1 9-1v-2l1 1 1-1 4 2M901 585l1 1c2 1 4 0 5-1 0 0-2 4-4 2h-1l-4-2v-1l3 1M846 598v-1c-3 2-8 2-12 2 2-3 7-1 11-2l1 1M850 611h1v1l1-1v1c3 1 5-1 7-1l1 1-2 1v-1h-2v2l-1-1c-1 1 0 0 0 0l-1-1-1 1v-1c0 2-2 1-3 1 0-3-4-1-2-3 1-1 2 1 2 1M840 611c-1 5-6 3-10 3-2-2-6 0-9 0l3-1 3-1c2-2 4 3 5 1 1 2 2 0 3 0l5-2 1-1v2l-1-1M901 626c3-2 5-4 8-2 2 0 6 5 9 2l7-2c-3 3-5 0-9 3v-1c-1 2-3 2-5 0-2-1-5-2-7-1-2 0-5 2-9 1-3-6-9 0-15-1 6 0 12-5 17 1h4M838 635v1c2 3 6 2 9 1 4-4 8 4 13 1l-2-2c2 1 4 2 6 0l2-2c1 4-3 2-4 4-4 1-9 3-13-1-3 1-8 4-11 1-1-5-4-1-8-1l-5 2c4-3 5-3 9-4 1 0 4-2 4 0M898 648c0 2 2 0 1 2-4-1-6 5-12 3h-9c-2 2-5 1-7 0 5 1 9-1 12-2 3 3 8 1 11 0 1-1 2-3 4-3M900 649l1 1-1-1M904 650l-2 1v-2l2 1M890 679v1c2 1 1-1 1-1l3-1s-1 3-3 2v1c-4 2-8-8-13-5-3-2-5 3-8-1 3 1 7-1 10-1 5 0 5 7 10 5M905 679c-1-1-1-2-2-1h4c1 1-1 1-2 2h-1c0-2-2 0-2-2l-1 1c-2-2-3 0-6 0l-1 1c0-4 5-3 8-2 0 1 2 2 3 1M910 601c-2 5-7 3-10 4-3-2-7 0-10 0 1-1 1-2 3-2l3-1c2-2 4 3 5 1v1c1 1 2-1 3-1l6-2v1-1M896 594h1c-4 2-9 1-12 1 1-2 6-1 10-2l1 1M901 608v-1l1 2v-1c3 2 5-1 7 0l1 1h-4v1h-1v-1l-1-1-1 2v-1h-2c-1-2-5-1-3-3 2 0 2 1 3 2M896 609c-2 4-7 3-10 3-2-2-7 0-9 0l2-2v1c2-2 3-1 4-1 2-3 3 2 5 0l-1 1h3l6-2 1-1v1h-1M842 580c-1 4-6 3-10 3-2-2-6 0-9 0l3-2v1c1-2 2-1 3-1 2-3 4 2 5 0v1h3l5-2 1-1v1h-1" fill="#fff"/><path d="M833 576h1c-4 2-9 1-12 1 1-2 6-1 10-2l1 1M838 590v-1l1 2v-1 1c3 1 5-2 7-1l1 1h-4v1h-1v-1h-1l-1 1v-1h-2c-1-2-5-1-3-3 2 0 2 1 3 2M833 591c-2 4-7 3-10 3-2-2-7 0-9 0l2-2v1c1-2 3-1 4-1 2-3 3 2 5 0l-1 1h3l6-2v-1 1M871 646c-2 4-7 3-10 3-2-2-7 0-9 0l2-2v1l4-2c2-2 3 3 5 1l-1 1h3l6-3h1v1l-1-1M858 638c-4 2-8 1-12 2 2-3 6-2 11-3l1 1M862 652h1v1l1-1v1c3 1 4-2 7-1v1h-3v1h-1v-1h-2v1l-1-1h-2c-1-2-4 0-2-3l2 2M857 652c-2 4-7 3-10 3-2-2-7 0-9 0l2-2v1c1-2 3-1 4-1 1-3 3 2 5 0l-1 1h3l6-2v-1 1M910 627c-2 5-7 3-10 3-2-2-7 0-9 0l2-1 4-1c1-2 3 3 5 1h-1c1 2 2 0 3 0l6-2v-1 2-1M896 620h1c-4 2-8 1-12 1 2-2 6-1 11-2v1M901 634v-1l1 2 1-1h-1c3 2 5-1 8 0v1h-4v1h-1v-1l-1-1v2l-1-1h-2c-1-2-4-1-2-3 1-1 2 1 2 2M896 635c-1 4-7 3-10 3-2-2-7 0-9 0l2-2 1 1c1-2 2-2 3-2 2-2 4 3 5 1v1h2l6-3h1v1l-1-1M857 615c-2 5-7 3-10 4-2-2-7 0-9 0l2-2 4-1c1-2 3 3 5 1l-1 1c1 1 2-1 3-1l6-2v1-1M843 608h1c-4 2-8 1-12 1 2-2 6-1 11-2v1M848 622v-1l1 2 1-1h-1c3 2 5-1 7 0l1 1h-4v1h-1v-1l-1-1v2l-1-1h-2c-1-2-4-1-2-3l2 2M841 622c-2 5-7 3-10 4-2-2-7 0-9 0l2-2h1l3-1c2-2 3 3 5 1l-1 1c2 1 2-1 3-1l6-2h1v1l-1-1M935 648c-2 5-7 3-10 4-3-3-7-1-9-1l2-1 3-1c2-2 4 3 5 1 1 2 2 0 3 0l6-2v-1 2-1M921 641h1c-4 2-8 1-12 1 1-2 6-1 10-2l1 1M926 655v-1l1 2v-1c3 2 5-1 7 0l1 1h-4v1h-1v-1l-1-1-1 2v-1h-2c-1-2-5-1-3-3 2 0 2 1 3 2M921 656c-2 4-7 3-10 3-2-2-7 0-9 0l2-2 1 1c1-2 2-1 3-1 2-3 3 2 5 0l-1 1h3l6-2 1-1v1h-1M888 600c-2 4-7 3-10 3-2-2-7 0-9 0l2-2 1 1c1-2 2-2 3-2 2-2 3 3 5 1l-1 1h3l6-2 1-1v1h-1M875 592c-3 2-8 1-12 2 2-3 7-2 11-3l1 1M879 606h1v1l1-1v1c3 1 4-2 7-1v1h-3v1h-1v-1h-2v1l-1-1h-2c-1-2-4 0-2-3l2 2M875 607c-2 4-7 3-10 3-3-2-7 0-10 0l3-2v1c1-2 2-1 3-1 2-2 4 2 5 0v1h3l6-2v-1 1M945 598c-2 5-7 3-10 4-3-2-7 0-10 0 1-1 1-2 3-2l3-1c2-2 4 3 5 1v1c1 1 2-1 3-1l6-2v1-1M931 591h1c-4 2-9 1-12 1 1-2 6-1 10-2l1 1M936 605l1 1v-1 1c3 1 5-2 7-1l1 1h-4v1h-1v-1h-1l-1 1v-1h-2c-1-2-5-1-3-3 2 0 2 1 3 2M931 606c-2 4-7 3-10 3-2-2-7 0-9 0l2-2v1c1-2 3-1 4-1 2-3 3 2 5 0l-1 1h3l6-2 1-1v1h-1M952 585c-2 5-7 3-10 3-2-2-7 0-9 0l2-1h1l3-1c2-2 4 3 5 1 1 2 1 0 2 0l6-2 1-1v2l-1-1M939 578v-1c-3 3-8 2-12 2 2-2 7-1 11-2l1 1M943 592l1-1v2l1-1c3 2 4-1 7 0v1h-3v1h-1v-1l-1-1-1 2v-1h-3c0-2-4-1-2-3 1-1 2 1 2 2" fill="#fff"/><path d="M939 592c-2 5-7 4-10 4-3-2-7 0-9 0l2-2 3-1c2-2 4 3 6 1l-1 1c1 1 2-1 3-1l6-2v1-1M939 629c-1 5-6 3-9 4-3-3-7 0-10 0 1-2 1-2 3-2l3-1c2-2 4 3 5 1v1c1 1 2-1 3-1l5-2 1-1v2l-1-1M926 622c-3 2-8 1-11 1 1-2 6-1 10-2l1 1M934 638l1 1 1-1-1 1c3 1 5-2 7-1l1 1h-4v1h-1v-1h-1v1l-1-1h-2c-1-2-5 0-3-3 2 0 2 1 3 2M926 637c-2 4-7 3-10 3-2-2-7 0-9 0l2-2v1c1-2 3-1 4-1 1-3 3 2 5 0l-1 1h3l6-2v-1 1M764 581c-2 5-7 3-10 4-2-2-7 0-9 0l2-2 4-1c2-2 3 3 5 1l-1 1c1 1 2-1 3-1l6-2v1-1M777 593h1v1l1-1v1c3 1 4-2 7-1v1h-3v1h-1v-1h-2v1l-1-1h-2c-1-2-4 0-2-3l2 2M776 586c-2 4-7 3-10 3-2-2-7 0-9 0l2-2h1l3-1c2-2 4 3 5 1v1c1 1 1-1 2-1l6-2h1v1l-1-1M786 585l1 1v-1 1c3 1 5-2 7-1l1 1h-4v1h-1v-1h-1l-1 1v-1h-2c-1-2-5 0-3-3 2 0 2 1 3 2M812 580l1 1 1-1-1 1c3 1 5-1 7-1l1 1-1 1v-1h-3v2l-1-1c-1 1 1 0 0 0l-1-1v1l-1-1c0 2-2 1-2 1-1-3-5-1-3-4 2 0 3 2 3 2M847 578l1 1 1-1-1 1c3 1 5-2 7-1l1 1-1 1v-1h-3v2l-1-1c-1 1 1 0 0 0l-1-1v1l-1-1c0 2-2 1-2 1-1-3-5-1-3-4 2 0 2 1 3 2M947 572c-2 4-7 3-10 3-2-2-7 0-9 0l2-2 1 1c1-2 2-1 3-1 2-2 4 2 5 0v1h2l6-2 1-1v1h-1M880 616c-2 5-7 3-10 3-2-2-7 0-9 0l2-1h1l3-1c2-2 3 3 5 1h-1c1 2 2 0 3 0l6-2 1-1v2l-1-1M928 669c-2 4-7 3-10 3-3-2-7 0-10 0l3-2v1c1-2 2-1 3-1 2-2 4 2 5 0v1h3l6-2v-1 1M931 533c4 2 3 7 3 10-2 2 0 7 0 9l-2-2h1c-2-2-1-3-1-4-3-2 2-3 0-5l1 1v-3l-2-6-1-1h1v1M921 555c5-2 3-7 4-10-3-2 0-7-1-9l-1 2-1 4c-2 1 3 3 1 5v-1c2 1 0 2 0 3l-2 6h-1 2-1M905 531c5 2 3 7 4 10-3 3 0 7 0 10-2-1-2-1-2-3l-1-3c-2-2 3-4 1-5 2-1 0-2 0-3l-2-6h-1 2-1M896 553c4-1 3-7 3-10-2-2 0-6 0-9l-2 3h1c-2 1-1 2-1 3-2 2 2 4 0 5h1v2l-2 6-1 1h1v-1M872 536c5 2 3 7 3 10-2 2 0 7 0 9l-1-2-1-4c-2-1 3-3 1-5v1c2-1 0-2 0-3l-2-6h-1 2-1M863 558c4-2 3-7 3-10-2-2 0-7 0-9l-2 2h1c-2 1-1 3-1 4-3 2 2 3 0 5l1-1v3l-2 6-1 1h1v-1M888 530c5 2 3 7 4 10-2 2 0 7 0 9l-2-2-1-4c-2-1 3-3 1-5l1 1c1-1-1-2-1-3l-2-6h-1 2-1M879 552c4-2 3-7 3-10-2-2 0-7 0-9l-2 2h1c-2 2-1 3-1 4-2 2 2 3 0 5l1-1v3l-2 6-1 1h1v-1M856 532c4 2 3 7 3 10-2 2 0 7 0 9l-2-2h1c-2-1-1-2-1-4-3-1 2-3 0-5l1 1v-3l-2-6h-1 1M846 554c5-2 3-7 3-10-2-2 0-7 0-9l-1 2v1l-1 3c-2 2 3 3 1 5v-1c2 1 0 2 0 3l-2 6-1 1h2l-1-1M837 538c5 2 3 7 3 10-2 2 0 7 0 9l-2-2 1-1c-2-1-1-2-1-3-2-2 2-3 0-5l1 1v-3l-2-6-1-1h1v1M828 560c4-2 3-7 3-10-2-3 0-7 0-9l-2 2h1c-2 1-1 2-1 3-3 2 2 4 0 6l1-1v3l-2 6h-1 1M819 533c4 1 3 7 3 10-2 2 0 6 0 9l-2-3h1c-2-1-1-2-1-3-3-2 2-4 0-5h1v-2l-2-6-1-1h1v1M809 555c5-2 3-7 4-10-2-3 0-7 0-10-1 1-2 1-2 3l-1 3c-2 2 3 4 1 5h1c1 1-1 2-1 3l-2 5v1h1l-1-1M801 540c5 1 3 6 4 10-2 2 0 6 0 9-2-1-2-1-2-3l-1-3c-2-2 3-4 1-5 2-1 0-2 0-3l-2-5-1-1h2l-1 1M792 561c4-1 3-6 3-10-2-2 0-6 0-9l-2 3h1c-2 1-1 2-1 3-2 2 2 4 0 5h1v3l-2 5-1 1h1v-1M785 533c5 2 3 7 4 10-2 2 0 7 0 9l-2-2v-1l-1-3c-2-2 3-4 1-5h1c1-1-1-1-1-2l-2-6v-1h1l-1 1M776 555c5-2 3-7 3-10-2-3 0-7 0-10l-1 3-1 3c-2 2 3 4 1 5 2 1 0 2 0 3l-2 6h-1 2-1M768 541c4 2 3 7 3 10-2 2 0 7 0 9l-2-2 1-1c-2-1-1-2-1-3-2-2 2-4 0-5h1v-2l-2-6-1-1h1v1M759 563c4-2 3-7 3-10-2-3 0-7 0-10-1 1-2 1-2 3l-1 3c-2 2 3 4 1 5h1v3l-3 6h1-1" fill="#fff"/><path d="M755 533c4 2 3 7 3 10-2 2 0 7 0 9l-2-2h1c-2-1-1-3-1-4-3-1 2-3 0-5l1 1v-3l-2-6h-1 1M745 555c5-2 3-7 4-10-3-2-1-7-1-9l-1 2-1 4c-2 2 3 3 1 5v-1c2 1 0 2 0 3l-2 6-1 1h2l-1-1" fill="#fff"/><path d="M742 546c5 2 3 7 4 10-2 2 0 7 0 9l-2-2v-1l-1-3c-2-2 3-3 1-5l1 1c1-1-1-2-1-3l-2-6-1-1h2l-1 1M733 565c5-2 3-7 4-10-2-2 0-7 0-9l-2 2-1 4c-2 1 3 3 1 5l1-1c1 1-1 2-1 3l-2 6h-1 2-1M727 534c5 2 3 7 3 10-2 3 0 7 0 9l-1-2-1-3c-2-2 3-4 1-5 2-1 0-2 0-3l-2-6h-1 2-1M718 556c4-2 3-7 3-10-2-2 0-7 0-9l-2 2 1 1c-2 1-1 2-1 3-3 2 2 3 0 5h1v2l-2 6-1 1h1v-1M712 532c4 2 3 7 3 10-2 2 0 7 0 9l-2-2h1c-2-1-1-3-1-4-3-1 2-3 0-5l1 1v-3l-2-6h-1 1M702 554c5-2 3-7 4-10-2-2 0-7 0-9l-2 2-1 4c-2 2 3 3 1 5l1-1c1 1-1 2-1 3l-2 6h1-1" fill="#fff"/><path d="M705 533c5 2 3 7 4 10-2 2 0 7 0 9l-2-2-1-4c-2-1 3-3 1-5l1 1c1-1-1-2-1-3l-2-6h1-1M696 555c5-2 3-7 3-10-2-2 0-7 0-9l-2 2h1c-2 1-1 3-1 4-2 2 2 3 0 5l1-1v3l-2 6-1 1h1v-1M732 542c4 2 3 7 3 10-2 2 0 7 0 9l-2-2 1-1c-2-1-1-2-1-3-3-2 2-4 0-5h1v-2l-2-6-1-1h1v1M722 564c5-2 3-7 4-10-2-3 0-7 0-10-1 1-2 1-2 3l-1 3c-2 2 3 4 1 5h1c1 1-1 2-1 3l-2 6h1-1M717 541c5 2 3 7 3 10-2 2 0 7 0 9l-1-2-1-4c-2-1 3-3 1-5v1c2-1 0-2 0-3l-2-6h-1 2-1" fill="#1691ff"/><path d="M708 563c4-2 3-7 3-10-2-2 0-7 0-9l-2 2h1c-2 2-1 3-1 4-3 2 2 3 0 5l1-1v3l-2 6-1 1h1v-1M746 532c5 2 3 7 3 10-2 3 0 7 0 9l-1-2c-2-1-1-2-1-3-2-2 3-4 1-5 2-1 0-2 0-3l-2-6h-1 2-1M737 554c4-2 3-7 3-10-2-2 0-7 0-9l-2 2 1 1c-2 1-1 2-1 3-3 2 2 3 0 5h1v2l-2 6-1 1h1v-1M760 542c5 2 4 7 4 10-2 2 0 7 0 9l-2-2-1-4c-2-1 3-3 1-5l1 1c1-1-1-2-1-3l-2-6h1-1M751 564c5-2 3-7 3-10-2-2 0-7 0-9l-1 2-1 4c-2 1 3 3 1 5v-1c2 1 0 2 0 3l-2 6h-1 2-1M772 531c5 2 3 7 4 10-2 3 0 7 0 10-1-1-2-1-2-3l-1-3c-2-2 3-4 1-5h1c1-1-1-2-1-3l-2-6h1-1" fill="#1691ff"/><path d="M763 553c5-1 3-7 3-10-2-2 0-7 0-9l-2 2 1 1c-2 1-1 2-1 3-2 2 3 4 0 5h1v2l-2 6-1 1h1v-1M779 542c5 2 3 7 3 10-2 2 0 7 0 9l-1-2-1-4c-2-1 3-3 1-5v1c2-1 0-2 0-3l-2-6h-1 2-1M770 564c4-2 3-7 3-10-2-2 0-7 0-9l-2 2h1c-2 1-1 3-1 4-3 2 2 3 0 5l1-1v3l-2 6h-1 1M796 531c5 2 3 7 3 10-2 3 0 7 0 10l-1-3-1-3c-2-2 3-4 1-5 2-1 0-2 0-3l-2-6h-1 2-1M787 553c4-1 3-7 3-10-2-2 0-6 0-9l-2 3h1c-2 1-1 2-1 3-3 2 2 4 0 5h1v2l-2 6-1 1h1v-1M801 542c5 1 3 6 4 9-3 3-1 7-1 10l-1-3-1-3c-2-2 3-4 1-5 2-1 0-2 0-3l-2-5-1-1h2l-1 1M816 532c4 2 3 7 3 10-2 2 0 7 0 9l-2-2-1-4c-2-1 3-3 1-5l1 1v-3l-3-6h1-1M806 554c5-2 3-7 3-10-2-2 0-7 0-9l-1 2-1 4c-2 2 3 3 1 5v-1c2 1 0 2 0 3l-2 6h-1 2-1M830 542c5 2 3 7 3 10-2 2 0 7 0 9l-2-2 1-1c-2-1-1-2-1-3-2-2 3-3 0-5l1 1v-3l-2-6-1-1h1v1M822 560c4-2 3-7 3-10-2-2 0-7 0-9l-2 2 1 1c-2 1-2 2-1 3-3 2 2 3 0 5l1-1v3l-2 6-1 1h1v-1M842 531c4 2 3 7 3 10-2 3 0 7 0 9l-2-2h1c-2-1-1-2-1-3-2-2 2-4 0-6l1 1v-3l-2-6h-1 1" fill="#1691ff"/><path d="M832 553c5-2 4-7 4-10-2-2 0-7 0-9l-2 2v1l-1 3c-2 2 3 3 1 5l1-1c1 1-1 2-1 3l-2 6v1h1l-1-1M849 542c4 2 3 7 3 10-2 2 0 7 0 9l-2-2 1-1c-2-1-1-2-1-3-3-2 2-3 0-5l1 1v-3l-2-6-1-1h1v1M837 558c5-1 3-7 4-10-2-2 0-6 0-9-1 1-2 1-2 3l-1 3c-2 2 3 4 1 5h1c1 1-1 1-1 2l-2 6v1h1l-1-1M866 531c4 2 3 7 3 10-2 3 0 7 0 9l-2-2h1c-2-1-1-2-1-3-3-2 2-4 0-6l1 1v-3l-2-6h-1 1M856 553c5-2 3-7 4-10-2-2 0-7 0-9l-2 2v1l-1 3c-2 2 3 3 1 5l1-1c1 1-1 2-1 3l-2 6-1 1h2l-1-1M884 541c5 1 3 7 3 10-2 2 0 7 0 9l-1-2v-1l-1-3c-2-2 3-4 1-5 2-1 0-1 0-2l-2-6-1-1h2l-1 1M898 531c5 2 3 7 4 10-2 3 0 7 0 9l-2-2-1-3c-2-2 3-4 1-6l1 1c1-1-1-2-1-3l-2-6h1-1M889 553c5-2 3-7 3-10-2-2 0-7 0-9l-2 2 1 1c-2 1-1 2-1 3-2 2 3 3 0 5l1-1c2 2 0 2 0 3l-2 6-1 1h1v-1M913 541c4 2 3 7 3 10-2 2 0 7 0 9l-2-2h1c-2-1-1-3-1-4-2-1 2-3 0-5l1 1v-3l-2-6h-1 1M904 557c5-1 3-6 4-9-2-3 0-7 0-10-1 1-2 1-2 3l-1 3c-2 2 3 4 1 5h1c1 1-1 2-1 3l-2 5v1h1l-1-1M925 530c4 2 3 7 3 10-2 3 0 7 0 10l-2-3h1c-2-1-1-2-1-3-3-2 2-4 0-5h1v-3l-2-6h-1 1" fill="#1691ff"/><path d="M915 552c5-2 3-7 4-10-2-2 0-7 0-9l-2 2v1l-1 3c-2 2 3 4 1 5h1c1 1-1 1-1 2l-2 6v1h1l-1-1M931 537c5 2 3 7 4 10-3 2-1 7-1 9l-1-2v-1l-1-3c-2-2 3-4 1-5 2-1 0-1 0-2l-2-6-1-1h2l-1 1M921 560c4-2 3-7 3-10-2-2 0-7 0-9l-2 2h1c-2 1-1 3-1 4-3 2 2 3 0 5l1-1v3l-2 6-1 1 1-1M949 530c4 2 3 7 3 10-2 3 0 7 0 10-1-1-2-1-2-3l-1-3c-2-2 3-4 1-5h1v-3l-3-6h1-1M939 552c5-1 3-7 3-10-2-2 0-7 0-9l-1 2v1l-1 3c-2 2 3 4 1 5 2 1 0 1 0 2l-2 6-1 1h2l-1-1M870 558c5-2 3-7 3-10-2-3 0-7 0-10l-1 3-1 3c-2 2 3 4 1 5 2 1 0 2 0 3l-2 6h-1 2-1M876 549c5-2 3-7 3-10-2-2 0-7 0-9l-2 2 1 1c-2 1-1 2-1 3-2 2 3 3 0 5l1-1c2 2 0 2 0 3l-2 6-1 1h1v-1" fill="#1691ff"/><path d="M944 556c4-2 3-7 3-10-2-2 0-7 0-9l-2 2 1 1c-2 1-1 2-1 3-3 2 2 3 0 5l1-1v3l-2 6-1 1h1v-1M936 533c5 2 3 7 3 10-2 2 0 7 0 9l-1-2-1-4c-2-2 3-3 1-5v1c2-1 0-2 0-3l-2-6-1-1h2l-1 1" fill="#fff"/><path d="M887 587c0 2 2 0 1 2-4-1-6 5-12 3h-9c-3 2-5 1-7 0 5 1 9-1 12-2 3 3 8 1 11 0 1-1 2-3 4-3M873 594c0 2 2 0 2 2-5-1-7 5-13 4l-8-1c-3 2-6 1-7 1 4 0 9-2 11-3 4 3 8 2 11 0 1-1 2-3 4-3M872 581c-2 4-7 3-10 3-2-2-7 0-9 0l2-2v1c1-2 2-1 4-1 1-3 3 2 5 0l-1 1h3l6-2v-1 1M921 578c0 2 2 0 1 2-5-1-7 5-12 4l-9-1c-3 2-5 1-7 1 5 0 9-2 12-3 3 3 8 2 11 0 0-1 2-3 4-3" fill="#a8efff"/><path d="M907 586c0 2 2-1 2 1-5-1-7 6-13 4l-8-1c-3 2-6 2-7 1 4 1 8-2 11-3 4 4 8 2 11 1 1-2 2-3 4-3M906 572c-2 5-7 3-10 3-3-2-7 0-10 0l3-2v1c1-2 2-1 3-1 2-2 4 3 5 0v1c1 2 2 0 3 0l6-2v-1 2-1M937 584c0 2 2-1 2 2-5-2-7 5-13 3l-9-1c-2 2-5 2-6 1 4 1 8-2 11-3 4 4 8 2 11 1 1-1 2-3 4-3M924 591c0 2 2 0 1 2-5-1-7 5-12 3h-9c-3 2-5 1-7 0 4 1 9-1 11-2 4 3 8 1 11 0 1-1 2-3 5-3M922 577c-2 5-7 3-10 4-2-2-7 0-9 0l2-2 4-1c1-2 3 3 5 1l-1 1c1 1 2-1 3-1l6-2v1-1M949 608c0 2 2 0 1 2-4-1-6 5-12 4l-9-1c-2 2-5 1-7 1 5 0 9-2 12-3 3 3 8 2 11 0 1-1 2-3 4-3M935 616c0 2 2-1 2 1-5-1-7 6-13 4l-8-1c-3 2-6 2-7 1 4 1 9-2 11-3 4 4 8 2 11 1 1-2 2-3 4-3M934 602c-2 5-7 3-10 3-2-2-7 0-9 0l2-2v1c1-2 2-1 4-1 1-2 3 3 5 0l-1 1c1 2 2 0 3 0l6-2v-1 2-1M946 620c0 2 2-1 1 2-5-1-7 5-12 3l-9-1c-3 2-5 2-7 1 4 1 9-1 12-2 3 3 8 1 11 0 0-1 2-3 4-3M928 630c0 2 2 0 2 2-5-1-7 5-13 4l-9-1c-2 2-5 1-6 1 4 0 8-2 11-3 4 3 8 2 11 0 1-1 2-3 4-3" fill="#a8efff"/><path d="M926 617c-1 4-6 3-10 3-2-2-6 0-9 0l3-2v1c1-2 2-1 3-1 2-3 4 2 5 0v1h3l5-2 1-1v1h-1M898 613c0 2 2 0 1 2-5-1-7 5-12 3h-9c-3 2-5 1-7 0 5 1 9-1 12-2 3 3 8 1 11 0 0-1 2-3 4-3M884 620c0 2 2 0 2 2-5-1-7 5-13 4l-8-1c-3 2-6 1-7 1 4 0 8-2 11-3 4 3 8 2 11 0 1-1 2-3 4-3M883 607c-2 4-7 3-10 3-3-2-7 0-10 0l3-2v1c1-2 2-1 3-1 2-3 4 2 5 0v1h3l6-2v-1 1" fill="#a8efff"/><path d="M864 608c-1 2 2-1 1 2-5-1-7 5-12 3l-9-1c-3 2-5 2-7 1 4 1 9-1 11-2 4 3 8 1 11 0 1-1 2-3 5-3M850 615c0 2 2 0 1 2-4-1-6 5-12 4l-9-1c-2 2-5 1-7 1 5 0 9-2 12-3 4 3 8 2 11 0 1-1 2-3 4-3M848 602c-1 4-7 3-10 3-2-2-6 0-9 0l3-2v1c1-2 2-1 3-1 2-3 4 2 5 0v1h2l6-2 1-1v1h-1M874 635c0 2 2 0 1 2-5-1-7 5-12 4-3-1-7-2-9-1-3 2-5 1-7 0 4 1 9-1 12-2 3 3 8 1 11 0 0-1 2-3 4-3M856 642c0 2 2 0 2 2-5-1-7 6-13 4l-9-1c-2 2-5 1-7 1 5 0 9-2 12-3 4 4 8 2 11 0 1-1 2-3 4-3M847 629c-2 5-7 3-10 4-3-2-7 0-9 0l2-2 3-1c2-2 4 3 6 1l-1 1c1 1 2-1 3-1l6-2v1-1M908 637c0 2 2-1 1 1-5-1-7 6-12 4l-9-1c-3 2-5 2-7 1 5 1 9-2 12-3 3 4 8 2 11 1 0-2 2-3 4-3M894 644c0 2 2 0 2 2-5-1-7 5-13 3h-8c-3 2-6 1-7 0 4 1 8-1 11-2 4 3 8 1 11 0 1-1 2-3 4-3M893 630c-2 5-7 3-10 4-3-2-7 0-10 0 1-1 1-2 3-2l3-1c2-2 4 3 5 1v1c1 1 2-1 3-1l6-2v1-1M933 646c0 2 3-1 2 2-5-1-7 5-12 3l-9-1c-3 2-5 2-7 1 4 1 9-1 11-2 4 3 8 1 11 0 1-1 2-3 5-3M920 653c0 2 2 0 1 2-4-1-6 5-12 3h-9c-2 2-5 1-7 0 5 1 9-1 12-2 4 3 8 1 11 0 1-1 2-3 4-3" fill="#a8efff"/><path d="M918 640c-1 4-7 3-10 3-2-2-6 0-9 0 1-1 1-2 3-2l3-1c2-2 4 3 5 1v1c1 1 1-1 2-1l6-2h1v1l-1-1M910 674c0 2 2-1 2 1-5-1-7 6-13 4l-8-1c-3 2-6 2-7 1 4 1 9-2 11-3 4 4 8 2 11 1 1-2 2-3 4-3M895 665c0 2 2 0 2 2-5-1-7 5-13 3h-9c-2 2-5 1-6 0 4 1 8-1 11-2 4 3 8 1 11 0 1-1 2-3 4-3" fill="#a8efff"/><path d="M895 667c-2 5-7 3-10 4-2-2-7 0-9 0l2-2h1l3-1c2-2 4 3 5 1v1c1 1 1-1 2-1l6-2h1v1l-1-1M925 675c0 2 2 0 1 2-5-1-7 5-12 3h-9c-3 2-5 1-7 0 4 1 9-1 12-2 3 3 7 1 11 0 0-1 2-3 4-3M911 682c0 2 2 0 2 2-5-1-7 6-13 4l-9-1c-2 2-5 1-6 1 4 0 8-2 11-3 4 3 8 2 11 0 1-1 2-3 4-3M909 669c-1 4-6 3-10 3-2-2-6 0-9 0l3-2v1c1-2 2-1 3-1 2-3 4 2 5 0v1h3l5-2 1-1v1h-1M790 586c0 2 2 0 2 2-5-1-7 6-13 4l-8-1c-3 2-6 1-7 1 4 0 9-2 11-3 4 3 8 2 11 0 1-1 2-3 4-3M775 580c-1 5-7 3-10 3-2-2-7 0-9 0l2-1h1l3-1c2-2 4 3 5 1 1 2 1 0 2 0l6-2 1-1v2l-1-1" fill="#a8efff"/><path d="M615 739c0-6 3-9 9-9s10 3 10 9-4 10-10 10-9-4-9-10zm9-6c-3 0-4 3-4 6s1 6 4 6c4 0 5-3 5-6s-1-6-5-6M645 752h-5v-19h8c3 0 7 1 7 5 0 3-2 4-4 5 3 0 4 1 4 4l1 5h-6v-4c0-2-1-3-3-3h-2v7zm2-11c2 0 3 0 3-2s-1-2-3-2h-2v4h2M660 745c0-6 3-9 9-9s10 3 10 9-3 10-10 10c-6 0-9-4-9-10zm9-6c-3 0-4 4-4 7 0 2 1 5 4 5 4 0 5-3 5-5 0-3-1-7-5-7"/><path d="M708 760v-3M740 759v-3" fill="none" stroke="#000" stroke-width="12.7"/><path d="M760 755v-18h8c5 0 8 1 8 6 0 4-3 6-8 6h-3v6h-5zm8-10c2 0 2-1 2-2 0-2 0-2-2-3h-3v5h3M778 755v-18h5v14h8v4h-13M793 753l8-19h6l7 19h-6l-1-4h-7l-2 4h-5zm13-7l-3-8-2 8h5M819 737h-6v-4h17v4h-6v15h-5v-15M829 751l7-19h6l7 19h-5l-2-4h-7l-1 4h-5zm12-8l-2-7-3 7h5M721 758l-7-12h6l4 8 4-8h5l-7 12v10h-5v-10"/><g font-weight="700" font-size="58" font-family="Swis721 BT" text-anchor="middle" fill="#ffd90f"><path style="line-height:125%;text-align:center" d="M293 254v-92h27l18 70 18-70h28v92h-17v-74l-19 74h-19l-19-74v74h-17M454 208c0 10 3 18 7 23 5 6 11 9 19 9s14-3 19-9c4-5 6-13 6-23s-2-18-6-23c-5-6-11-9-19-9s-14 3-19 9c-4 5-7 13-7 23m-19 0c0-15 4-26 12-35s19-13 33-13c13 0 24 4 32 13s12 20 12 35-4 26-12 35-19 13-32 13c-14 0-25-4-33-13s-12-20-12-35M575 254v-92h20l37 63v-63h18v92h-19l-37-63v63h-19M724 254v-75h-27v-17h73v17h-27v75h-19M851 181l-13 38h25l-12-38m-11-19h21l33 92h-19l-7-19h-35l-6 19h-20l33-92M940 254v-92h19l37 63v-63h19v92h-19l-38-63v63h-18M1104 181l-13 38h26l-13-38m-11-19h22l32 92h-19l-6-19h-36l-6 19h-19l32-92"/></g></svg>