<svg xmlns="http://www.w3.org/2000/svg" version="1.0" width="750" height="500"><path fill="#0033a0" fill-rule="evenodd" d="M0 0h750v500H0z"/><path d="M229.7 247.9c-1-.3-2.2-1.1-3.3-2-1.3-1-3.4-3.4-5.8-6.7a21.5 21.5 0 00-6-5.8c-3-1.8-8.3-3-13.4-3.1a11 11 0 00-3.6.5c-1.4.3-2.1.6-3 1-.9.5-1.1.5-.6.6a280.1 280.1 0 018.1 1.1c4.2.8 7.8 1.8 10 2.7a12 12 0 013.1 1.7c.7.6.7.8-.6 1l-1.1.3c-.1.1 0 0 1.5 1.3 1.8 1.3 2.4 2 3 2.9.5 1 1.3 1.9.4 1.7-.4 0-1.5-.5-2-.5-2-.3-2.6-.3-3.6-.8s-1.9-.8-2.4-.9c-.8 0-.8-.2.4 1.2 1 1.1 1.4 1.7 1.7 2.2.4.7.6 1.5-.2 1.3-1.3-.3-3.2-1.2-4-1.8l-3.3-3c-1-1-3.7-3.2-5.3-4.3-2-1.3-4.2-2.1-6.7-2.5-1.3-.2-3.3-.3-3.5-.1-.2.1-.4.2.2.4 1.8.6 3.7 1.9 6 4l2.4 3c.8 1.2 1.2 2.1 1 2.5 0 .2.6.5-.3.5-.6 0-1.9-.1-2.4-.3-.8-.2-2.4-1-2.9-1.2-1-.7-2.3-2-2.6-2.6-.3-.5-1.4-1.8-2-2.3-1.6-1.3-2.3-1.8-3.7-2.2-2-.4-5.4-.3-7.8.7a124.9 124.9 0 01-9 3.3c-1 .4-2.3 1-2.9 1-3 .8-7.3 2.6-11.4 4.3-4.2 1.8-7.9 5-11.6 8.1-3.7 3-5.3 5.3-7.6 7.5a28.2 28.2 0 00-4.7 5.9c-.3-.1.6-3.7 2-7.3 1.4-3.5 3.8-7.3 3.4-7-1 .6 3.4-3.6 10.2-7.3 5.2-2.9 12.4-4.6 16.8-6.1 4-1.4 4.9-1.6 6.5-3.3 1.3-1.3 2-2.3 2.2-3.5l.9-3.2c0-.3.5-1 .6-1.4.4-1 .8-2.2 1.5-3.4 1-1.4 3-3.3 3.4-3.2.6.2.5 3 0 5.3-.5 1.7-1.1 3.4-1.7 4.7-.2.4 0 .3.1.3.2 0 1.2-1.1 1.8-2a25.2 25.2 0 004-9.2c.6-2.4 1.2-4.7 1.6-5.7.5-1 1.8-2.3 2.1-2.3.2 0 .2.4.3 1.2l.2 1.4c.3.8 0 .7 1.4-.6l2.6-2.3c.4-.2.6.3.7 1.9.2 1.7 0 2.4-.5 3.5-.2.3-.1.3 0 .3l1.6-1.3c1-.8 1.6-.7 1.4.2l-.5 1a9 9 0 01-3 5.1 43 43 0 01-5.6 4.5c-1.5 1-2.3 1.7-3.3 2.7-.7.6-1 1-1.2 1.4-.3.6-.2.5 0 .6a17.2 17.2 0 0013-9.1c2.5-4 2.8-6.3 2-9-.4-1-1-2.4-1.5-3-2.4-3-3.4-6.5-3-8 .3-.8 1.1-.6 1.4.2.3 1 1.8 2.3 2.4 2.3.2 0 .2-.1.3-.6a17 17 0 000-3.3c-.1-.6 0-.7.2-.6.5.1 2.2 1.4 2.7 2.2.3.6.2.6.2-.1 0-.3.2-.5.3-.5.2 0 .1.2.2.2l.4 1a16.3 16.3 0 01.8 11.9c-.5 1.5-1 2.5-2 4.2-.9 1.6-.9 1.6-2.1 3.2a40.5 40.5 0 01-4.4 5.3c.1.2 2-.2 3.2-.8 1-.5 2.4-1.5 3.1-2.3 1.1-1 2.7-3 3.4-4 .4-.7 1.1-2.8 1.5-3.7a14 14 0 001.2-5.5 13 13 0 00-1.6-6.2c-.8-1.5-.8-1.5-1-2.5-.5-1.9-.8-4.8-.2-4.7.2 0 .5.2 1 .6.4.3.5.6.8.5 0 0 .2-.3.2-1 0-.9 0-1 .3-1.6l.5-1.2c.1-.4.5-.5.6-.6.3-.3 1 .4 1.6 1.4.7 1.2.8 1.3 1 1.3.2 0 .3-.2 1.1-2.3.8-2 1.6-3.2 2-3.1a18.4 18.4 0 01-.9 11.6c-1.3 3.7-1.8 5.9-1.4 5.9.4 0 1.5-1.7 3-4 1-2 1.5-3.6 1.6-4.7 0-.4 0-1.7-.2-2.4-.8-5.4-1-5.5-1-8 0-1.7.5-2.2.6-2.5.2-.8.7-.4 1.5 1.3a25.2 25.2 0 012 7.4c.2.2.3-.7.4-1.5.2-1.3 0-3.5-.6-5.5l-1-2.8-.4-1.2-.7-1.8c-.5-1.2 0-1.3 1-.5a11.1 11.1 0 014 5.3c.1 0 .4-.6.5-1.2a41.7 41.7 0 001-7.6s.2 0 .3.3c0 .2.3.4.3 1.7a31 31 0 01-.7 5.6c-2.1 9.2 2.3 1.2 3.6-1.2 1-2 3.3-6.5 3.4-7 .2-.9 0-1.7-1.1-3.4l-1.7-3c-2.1-3.8-4-7.9-4.2-9.3 0-.4.1-.5.4-.3l3 4c.4.8 1 1.5 1 2.2-.6.7 0 .5 0 .6.6-.2.9 0 1.6 1 1 1 1.3 1.5 1.5 1.5.2 0 0 0 0-.5 0-1-.4-3.3-1-5a31.9 31.9 0 00-3.6-7l-3.5-3.4c-.7-.5-.7-.7-.4-1 1.1-.6 3.4 1.2 6.3 5l2 2.7c.7.8.7.8.8-1 .2-1.5.2-1.6.5-1.6.1 0 .4 0 .6.2h.8l1.1.1-.2 3.5c0 2.8 0 3.2.2 3.3.1.3 0 .3.7-.3.6-.6.9-1 1.6-3a15 15 0 016.2-8l2.4-1c1.3-.4 1.5-.4 1.3 1l-.7 2.3c-.9 2-2 4-2.9 4.7-.4.2-.8.6-1.4.7-1.7 1.2-2.2 3.2-4 4 0 .3-.3.8-1.4 2.5-.8 1.4-1.6 2.9-2 4.5l-.4.8h.2l1.8-2.4a20 20 0 013.8-4.2c.9-.7 2.3-1.4 3.4-1.8.8-.2 1-.2 1.1 0 .2 0 .5.5.2 1.2a15 15 0 01-2.4 3.5c-1.5 1.8-2.5 2.7-5.5 5.7l-3.1 3.3a27 27 0 00-4 5.9c-.6 1-1.6 2-1.7 2 0 .1-.3 1.7-.6 1.7-3.5 2-3.1 5.4-5 8.1l-.6 1.1-1.5 3.2.1.2s.6 0 1.1-.2c1.5-.3 2-.3 2.5-.1.4.1.6 0 .8-.2.4-.4 2-1 2.2-1 .3 0 .2 0 .1.4 0 .1 0 .6-.2 1-.4.6-.8.7-.7.8h1.4c1.5-.2 1.6-.2 1.6.3 0 .7 0 1.4-1 2.2-.5.4-1.1.5-.7.6 1 .4 1.8.6 1.8.8 0 .2.3.2-.7.4-1 .3-1.7.4-2.3 1a10.2 10.2 0 01-7.4 2.5c-1 0-1.9-.2-3 .4-.8.3-1.2.4-2.3 1.8a206.7 206.7 0 01-7.1 9.9l.9-.2a57.6 57.6 0 0011.3-6l1.8-1.2a60.2 60.2 0 008.8-7c.6-.5 2-2.5 2.2-3l.1-1.3c.1-1.2-.3-2.4-.8-5.3-.6-3.5-.3-6.3 0-8 .4-1 1-2 1.4-2 .4.2 1.1 1.8 1.3 3 .3 1.5.3 2.6 0 6.3-.4 2.6-.3 5.6 0 5.9.3.2.9-.4 1.2-1.2l.9-3c.8-2.8 1-3.2 2.3-4.6a37 37 0 002-2c1-.9 2.2-2.3 2.6-3.3.8-1.6.6-2.5.1-5.1l-.3-2.3-.2-2.5c-.2-1.4.2-4.2.6-4.9.1-.2.4-.2.7.1.8.9 1.4 2.5 1.6 4.6v4.4c0 1 0 1.2.2 1l1-1.7a33.2 33.2 0 011.7-3l.7-1.4.7-.3 1.2-.4c.3-.2.7-.2.7-.2.6.1-.4 1.5-1.4 3.4l-.7 1.7c-.5.9-.7 1.2-.6 1.4l1 .1c.7 0 .6-.3.6 0l.3.7c.3.7.7 1.3-.1 1.6l-1.2.1c-.4.2-.6.3-.3.4.3.1 2.1-.4 4-.8a15 15 0 013-.5c.4 0 .4 0 .5.2 0 .1.2.5 0 .7a7 7 0 01-2.3 1.3l-1.9.4-3.7.4c-1.2 0-1.3-.2-2.4.5l-1.4 1.1c-.3.4-1.2 1.5-2 2.2-1.5 1.5-2.4 2.3-2.9 3-1.2 1.5-2.6 3.5-2.6 4.7v.4h.2l1-.4c.7-.3.8-.4 1-.8.5-.9 1.3-1.6 2.2-2.2.8-.6 2-1.1 2.9-1.3l1.7-.4c.9-.2 1.9-.4 3.2-.5l2.6-.1c1.8-.2 2.5-.4 2.5-.2 0 .4-1.3 1.6-3 2.2l-2.3.7-2.5.8-1.7.5a21 21 0 00-3.7 2c-.6.4-.8.4-.8.6l.5-.2c1-.5 3.7-1 4.7-1.2 1.4-.4 2.6-.5 3.9-.5 1.6 0 2.2 0 1.7.6-.8.9-2.6 2-5.4 2.5-2.2.5-5.3 1.3-6.7 1.8-.2 0-1.1.3-1.5.6l-3 2c-2.3 1.9-2.6 2-4.2 3.5-1.1 1-2 1.7-2.2 2.1-.1.3 0 .5.7.4 1.9-.5 3.5-1.3 5.5-2.2 1.2-.6 2-1.1 3-2.1 1.4-1.1 2-1.4 3.5-2 2-1.1 4-1.3 5.7-1.4 1 0 1.7 0 1.9.2.3.3 0 .8-1.2 1.4l-2.1 1.2c0 .2-.3.6 0 .7.5 0 1.4.4 1.4.6 0 .3-.2.6-.7 1-.6.4-2.4 1.6-2.6 1.6-.8-1.1.7.3 1.1.4 1.5.4 2.6 1.2 2.7 1.6.1.1-.6.2-1.3.5-1.4.4-2 .6-2.8.6h-4.8c-4.4-.1-6-.4-8.2 0-2.9.5-5.4 1.2-7.2 2.5-1 .6-3 1.6-3 1.8-.1.2.2.5 3.7.6 6.2.3 7 .2 11.5-1.2 2.5-.8 3-.9 3.8-1 .7 0 1.4 0 1.5.2.2.1-.1.2-.5.7-.4.5-.9 1.2-.9 1.4l2 .3c1.2.1 1.7.5 2 .8.3.3.4.2-.2.6-.8.4-1.5 1.1-1.2 1.5.2.1-.5 0 1.8.6l2.7.9c.3 0 1.3 0 1.1.3-.4.8-.7 1-1.2 1-.8.3-1.8.7-2.8.8-.9.1-1.4.4-2.7.4h-2l-2-.2a41.6 41.6 0 01-6.5-1.5l-2.5-1c-1.5-.6-2.3-.9-4.2-1.3-3.5-.9-5.3-1.1-6.2-1.1l-2.5.1-2.6.8c-1.2.4-1.5.3-1.5.5l1.6.2c2.6 0 4.1.4 7.2 1.2 1.2.3 3.1 1 4.4 1.6l2.5 1 1.6.6c1.1.4 2 .8 3 1.4l2.4 1.4c1.6 1 3.8 3 3.8 3.4l-.8.3c-1.8.5-1.7.2-1.3 1 .5.6 1.3 1.3 2.8 2.2 1.9 1.1 2.5 1.3 2.3 1.6-.4.3-1.6.6-2.2.4a21 21 0 00-2.3-.3c-.3.3-.7 0-1 .3 0 .4.4 1.4 1 2.5.5.6 1.3 1.7 1 1.7l-1.6-.3z" fill="#00843d"/><path d="M188.8 269a46 46 0 01-2.6-3.3 71.2 71.2 0 00-22.4-19c-1.3-.6-3.8-1.7-4.2-1.7a41.8 41.8 0 00-12.3 6.5l-2 1.6a81 81 0 00-15.3 16c-.3 0-.3-.3 0-1.4a27.7 27.7 0 012-6.3 60.6 60.6 0 013.6-7.5c.5-.5 4-3.4 5-4a70.8 70.8 0 0113.3-6.7 119.3 119.3 0 01-5.8-2.3l-5-1.8a16.8 16.8 0 00-6.4-1.6c-1.2 0-1.5 0-2.3.2-2.3.5-4.2 1.9-6 4.3-1.6 2.1-3.4 3.2-6.3 4l-1.4.1c-1.1 0-1.1 0-1-.8.5-1.7 2-3.8 4.3-6 1.3-1.2 2.3-1.9 3.4-2.6l1-.6c.1-.3-.7-.3-2.6-.1-1.3.1-3 .7-4.5 1.3a32 32 0 00-6.9 5 34.5 34.5 0 01-4.7 4c-.6.3-2.2.9-3 1-.6.1-.7.1-.8 0v-.6c.1-.8.4-1.2 1.5-2.5l1-1.2c0-.3-.5-.2-1.7.4-.8.4-1.7.6-3 .8-1.9.2-2.7.4-3 .6-.6.3-.7.2-.6-.2.2-.8.7-1.9 1.6-2.8a15 15 0 012.4-2c1-.8 1-1 .5-1-1.6-.4-1.8-.7-1-1.5a9 9 0 013-1.7 51.4 51.4 0 0111.2-2.7l2.8-.5c4-.5 3.7-.4 3.7-.6 0-.4-3-1.2-5.3-1.5a37.3 37.3 0 00-13.4 2.3c-.3 0-.8.3-1.1.5-1.8.9-3.5 2.6-6 5.9-1.5 2-3.1 4-3.8 4.7-1.3 1.4-3.5 3-4.9 3.5l-2 .5c-.6 0-.5-.1.5-1.7l.8-1.4c.4-1 .5-1.3.2-1.4a7 7 0 00-2.1.2 4 4 0 01-2.1 0l-1.3-.6c0-.2.2-.3 2.3-1.6a12 12 0 002.2-1.5c1-1 1-1 0-1.3a5 5 0 01-1.3-.5v-.3a21 21 0 017.6-5.2 78.1 78.1 0 0110.4-4 38.6 38.6 0 016.9-1.2c.2-.2 0-.3-.7-.5-1.3-.4-2-.5-3.8-.7a31.5 31.5 0 00-10.4 2.2 34.2 34.2 0 01-8 2.4c-2.2.3-6.4.3-8.2-.2-1.7-.4-3.3-1-4-1.6-.4-.3-.4-.5 0-.7h.5l1-.3 1.9-.6c2-.5 2.3-.7 2.3-1 0-.2-.4-.5-1.2-1l-.8-.4 1.2-.9c.4-.2.8-.3 2-.4.6 0 1-.1 1.1-.2.2 0 0-.4-.6-1.1-.7-.9-.7-1-.3-1.2.3-.1 1.2-.2 1.9 0a51.6 51.6 0 015.6 1.7l3 .6h7.4c2.3-.1 2.3-.2.8-1.2l-3-1.7c-2.4-1-4.2-1.4-7-1.7H84a14.7 14.7 0 01-7.2-1.4c0-.4 1.5-1.4 2.6-1.6.9-.3.9-.4 0-1-1-.5-2-1.7-2-2.2 0-.1.1-.2.3-.2l.6-.2c.7-.3.3-.7-1-1.5a5 5 0 01-2-1.5c-.1-.3-.1-.3 0-.4.6-.4 2.7-.5 4.2-.2s3.3 1 4.5 1.7c1.3.6 2 1 3 2l1.6 1.2a23.4 23.4 0 006.8 2.8c.2-.1 0-.4-.7-1.2A53.1 53.1 0 0085 208c-1.9-.6-3.6-1-5.8-1.5-1.5-.2-3.5-.8-4.3-1.2-1-.5-1.7-1.2-2-1.9-.2-.3-.1-.3 0-.4a14 14 0 014.7 0l3.3.7c.8.3 1 .3.9.2a53.7 53.7 0 00-6.5-2.7 14 14 0 01-4.4-1.9 6.3 6.3 0 01-1.6-1.5h1.4l3 .4c2.4.1 4.2.4 6 .8 1 .3 2.7 1 3.6 1.7.6.5 1.6 1.5 1.9 2 .3.6.5.8 1 1 .4.3.7.3.7.1.1-.3-.5-1.9-1-2.9l-1.1-1.4c-.1 0-.3 0-.5.2-.5.3-1.2.4-1.5.3a1 1 0 01-.5-.8c0-.4-.3-.6-.8-.6-.6 0-1.3-.3-1.7-.6-.4-.3-.6-.6-.8-1.2v-.5h-1.3c-1 0-1.2 0-1.4-.2-.4-.3-.5-.5-.5-1 0-.7.5-1.4 1.3-2 .4-.2.5-.4.3-.5l-3.4-.3h-.5v.8c0 .8 0 .8-.3 1.4-.6 1-1.4 1.3-2.2 1-.5-.4-.7-.6-.7-1.5l-.1-.8-.4.3c-.5.7-1 1.3-1.4 1.5-1 .6-1.7.1-1.7-1 0-.7.6-1.8 1.5-2.6l.4-.5c0-.1-.4-.4-.6-.4l-.4.3-.8.6c-.5.2-.6.2-1.6.2-1.3 0-1.6 0-1.9-.5-.2-.4-.2-.6.1-1.1.4-.8 1.2-1.2 2.8-1.3 1 0 1 0 .9-.5v-1.3c.1-.3 0-.5-.6-1a33.4 33.4 0 01-7-6.3c-1.6-2-2.5-3.5-2.2-3.7l2.3.5c2 .8 3.1 1.5 5.2 3.3a60.5 60.5 0 003.3 2.9c1.8 1.8 3.2 3 3.5 3.2.3.1.4.1.8 0 1-.3 1.6.1 1.9 1 0 .3.1.4.4.5.3.2.7.1.9 0 0-.1 0-.4-.4-1a68505.2 68505.2 0 01-2.5-5c-.2-.1-.4 0-.8.2-.8.5-1.9.7-2.5.4-.4-.2-.7-.7-.7-1.2 0-.4.4-1.2.7-1.5.3-.3.2-.5-.5-.5-1-.2-1.9-.6-2.3-1.3-.2-.4-.3-1.1 0-1.7.1-.5 0-.7-.4-.8-.5-.1-2.3-1-2.9-1.4-.3-.1-.9-.7-1.4-1.2-.7-.6-1-1-1.5-1.1-1.4-.7-1.4-1 0-1.1 1.4-.2 2.7-.2 3.7 0 1.6.1 2.3.3 3.8 1l.8.3c.2-.1 0-.4-.6-2a33.8 33.8 0 01-1.3-3.4c-.1-.5-.3-.4-.8.3s-1.2 1.5-1.9 2c-.5.3-1.3.6-1.4.5-.2-.1 0-.6.4-1.3l.4-1c0-.3 0-.3-.2-.2h-.8c-.4 0-.5 0-.8-.3-.2-.1-.4-.5-.5-.7l-.3-.4h-.5a4 4 0 01-2.3 0c-.6-.3-1-1.3-.6-2.2a3 3 0 011.4-1.5l.6-.3v-.6-1c.2-.7.8-1.5 1.4-1.7.2 0 .3-.1.3-.2l-1-1a14.7 14.7 0 01-2.5-2.8c-.7-.8-1.3-2-1.3-2.3v-.2h.7c.9 0 2.2.5 3.4 1.2 1.2.7 2 1.2 3.3 2.4 1.3 1.3 1.4 1.3 1.3.2a25 25 0 00-.4-4.3c-.2-1.4-.3-1.5-1-.8l-.7.7c-.7.5-1.5.3-1.8-.4-.3-.6-.3-1-.1-1.7.1-.6.2-.8 0-.9l-.6-.3c-1-.2-1.4-.5-1.7-1.1-.8-1.5 0-2.8 1.9-3 .7 0 .7-.1.5-.7-.5-.8-.5-2-.2-2.5a2 2 0 012.6-.8c.6.3.9.5 1.3 1l.4.6.6-.3c1-.6 2.2-1 2.7-.8.5.1.8.6.8 1.3 0 1-.4 2-1.2 3l-.3.4.6.6c1.4 1.1 1.7 2.3.9 3-.5.5-1.1.6-2 .4h-.6v4.4c.3 1.6.5 1.7 1 .6.8-2 2.3-4.6 3.4-5.7.5-.6.8-.7 1-.6 0 .2.2 1.8.1 2.8 0 1.8-.3 2.7-1.2 4.4l-.5 1.2h.8c.9 0 1.4.2 1.7.4 1 .8.7 2-.7 2.9l-.4.3c0 .1.2.4.5.6.5.6.7 1 .8 1.8 0 .6-.1 1-.5 1.5-.6.9-2.2 1-3.8.3-.3-.1-.3-.1-.4 0a31.6 31.6 0 002 6.8c.2.6.3.5.9-1 1-3 2-5 3.3-6.4.5-.6 1-.8 1.1-.8.2.1.2 1.1.1 2 0 .7-.7 4-.8 4.1 0 .1.1.3.3.3l1-.7.8-.7v.8c0 1.2-.3 2-1.4 3.9-.4.7-.4.8.1.9 1 .1 1.8 1 1.7 1.9-.2.8-1 1.9-2.2 2.7l-.7.7.8.4c1 .4 1.4.7 1.9 1.1.5.6.6.8.6 1.5 0 1-.2 1.2-1.2 1.4l-.6.2c0 .1.2.8 1.4 3 .7 1.2 1 1.6 1.1 1.6v-.7c0-2.3.4-4.7.8-5.9.6-1.5 1-2.2 1.8-2.5.3-.1.3-.1.4 0 .2.1.4.7.6 2 .3 1.8.2 3.4-.4 7.2-.2.9-.1 1 .5.8.6-.2 1.6-.1 2 .1.3.1.6.4.7.6l.3.3.9-.2c1.4-.2 2.5 0 2.8.6.3.6.2 1.5-.2 2.1-.3.4-.3.4 0 1 .3.2.3.3.4.9 0 .5 0 .7-.2 1.2-.4.8-.4.8 0 1.1.5.4.6.7.6 1.3-.1 1-1 1.4-2.4 1.2-.6-.1-.8-.1-.8 0l.6.8c1 1 1.3 1.7 2.1 5 .4 1.3.8 2.4 1 2.6.2.1.2.2.3 0a28.7 28.7 0 00-.1-6.3 26.2 26.2 0 010-5c.3-1 .6-2 1-2.8.4-.7.5-.8.8-.7.6.3 1.1 1.1 1.5 2.2.4 1 .4 3.8.1 5.6a338 338 0 00-1 8c.2 1 .4 1.5 1 2.2.2.2.5.6.6 1a33.1 33.1 0 007.3 6.1 77.7 77.7 0 0014.9 8.6c.1-.2 0-.6-.9-1.6a50 50 0 01-3.2-4.3 88.6 88.6 0 01-3-4.2c-.3-.3-1.4-.9-2.3-1-.5-.2-1-.3-2.3-.3-3.2 0-4.8-.5-6.4-2-1-.7-1.1-.8-2.1-1.1-1.2-.3-1.5-.4-1.8-.7-.3-.3 0-.6.8-1 .3 0 .5-.2.6-.3l-.4-.6c-.6-.7-.8-1.2-.8-1.8 0-.9 0-.9 1.2-.7h1.2v-.6a3 3 0 01-.6-1.4c0-.3 0-.3.4-.3.6 0 1.4.3 2.6 1.1.3.3.4.3.8.2.5-.1 1 0 2 .1 1 .2 1 .2.7-.8l-1.3-2.2-.4.2c-.3.1-.4.2-1 .2-.5 0-.7 0-1-.2-.3-.2-.5-.7-.5-1.1 0-.4-.2-.6-.4-.6-.3 0-.6-.3-.8-.6-.2-.4-.2-.4-1-.2h-.7c-.3-.1-.7-.7-.7-1 0-.4 0-.5.5-.9l.4-.4v-.5-.8c.2-.3.2-.3 0-.8l-.2-.7c0-.3 0-.3-.6-.9-.5-.5-.5-1.3 0-1.8.4-.3.4-.5 0-1.3l-1.3-2a24.5 24.5 0 00-5.3-7.1c-5-5-5.3-5.4-7.2-7.6-1.4-1.8-2.3-3.3-2.3-4.2v-.5h.6c1 0 3 .9 4 1.6 1.6 1.2 3 2.6 4.6 4.8.8 1.2 1 1.1.6 0s-.9-2-1.7-3.2l-1.6-2.3h-.6c-1 .1-2.6-.6-3.5-1.6-.7-1-.8-1.3-.5-2.4 0-.2 0-.3-.6-.9a13.4 13.4 0 01-3.4-8v-.3h.6c1.4.2 3.4 1 4.5 1.9.8.6 2 1.7 2.6 2.6.8 1.2 2.2 4 2.8 5.7.5 1.3 1.3 2.5 1.7 2.4h.2v-2.8-3c-.2-.3-.2-.3-.5-.2-.7.1-1.1 0-1.5-.2-.5-.3-.7-.6-.6-1.1.1-.9.1-.8-.4-1-1.3-.5-1.7-1.4-1.2-2.6l.2-.4-.3-.6c-.3-.5-.3-.6-.3-1.5 0-.8 0-1 .2-1.3.4-.8 1-1 2-.9.8.2 1 .2 1 0 .1-.3-.5-.8-1.9-1.3l-1-.4-2.8-1.5c-1-.5-1.7-1.2-2.7-2.2-1-1-1.4-1.5-1.9-2.4a17 17 0 00-1.6-2.4c-.5-.6-.6-.8-.4-1l1.6.3a27 27 0 015.8 3.3c.1 0 .2 0 0-.1 0-.2-.7-1-1.8-1.9-2-1.8-3.8-3.7-4.6-5-.2-.3-.4-.9-.3-1 .2-.6 3 1 5.3 2.9a59 59 0 015 4.5l-.3-.7c-.4-.3 0-.3.8-.1h.7v-1c-.2-1.2-.8-3.7-1-3.8 0-.2-.2 0-.7.7-.4.6-.8.8-1.4.8-.6 0-1-.1-1.2-.5-.2-.2-.2-.3-.2-1l.2-1.4c.2-.4.2-.6.1-.6h-1c-.7 0-.8-.1-1.2-.3l-.7-.6c-.2-.4-.3-.5-.3-1.1 0-.6 0-.7.3-1 .4-.6 1-.9 2.2-1 .7 0 1-.1 1-.2l-.2-.8a3 3 0 01-.4-1.4c0-1 0-1.3.6-1.9.8-.8 2-1 3-.2.5.5 1 1.4 1.2 2.6 0 .4.3.3.9-.2.8-.7 1.2-.9 1.8-.9a2 2 0 011.7.8c.3.5.4 1.2 0 1.9-.2.5-1 1.2-1.6 1.6-.8.4-.8.6-.2.8 1 .4 2.2 1 2.6 1.5.9 1.2.4 2.5-1 2.8-.6.1-1.2 0-2.2-.5l-.9-.3.2 1.7.5 3.8c.2 1.5.4 1.6.8 1l.5-.3c.2 0 .6 1 .7 2l.2.8c0 .1.4-.2.8-.8l.7-1 .4-.5-.4-.4c-.9-.3-1.2-1-1.2-2 .1-1.1 1-1.7 2.3-1.6h.6v-1c.1-.7.3-1.3.7-1.6.2-.2.8-.5 1.1-.5.6 0 1.4.7 1.7 1.4.3.7.4.7.9.2.7-.8 1.5-1 2.4-.8.8.3 1.2.9 1.2 1.7 0 .6-.1 1-.7 1.6-.5.5-.5.6 0 .9.6.3.9 1 .8 1.8-.1 1-.7 1.9-1.4 2l-.9.1c-.6 0-.7.1-.8.6-.2 1-.5 1.6-1 2.1-.3.3-.4.3-.8.3-.6 0-1.1-.1-1.5-.6-.4-.5-.6-.9-.8-1.8-.3-1-.3-1.1-.5-1.1-.4 0-1.6 1.3-2.3 2.5l-.7 1.3c0 .2 0 .2.9.3 1 .1 1.6.4 2 .8.2.4.2.6 0 1.5v.7l.4.3c.8.4 1 1 .8 1.7-.1.7-.3 1-.7 1.2-.4.3-1.2.4-1.6.4-.2 0-.6 0-.6.2l.4.4c.5.5.7 1 .6 1.5 0 .6-.3 1-.8 1.2-.3.1-.4.2-.8 0h-.6-.2c-.2.2-.2.3-.1 1.3 0 1.6.2 2 .5 2l1.6-2.1c1.3-1.9 3.7-4.4 4.7-5 .4-.3 1.2-.6 1.5-.6.4 0 .8.2 1.2.5.1.2.3.4.2.5l-.6.5c-1 .7-1.1 1-.5 1.1 1.2.4 1.2 1.5 0 2-.5.2-.5.3-.6 1-.1.8-.6 1.4-1.5 1.5-.5 0-.5.1-.6.6-.2.5-.8 1-1.2 1.2-.2 0-.4 0-.7-.2l-.5-.2c-.2.1-.9 1.4-1.7 3.3-.8 2.2-1.3 4.5-1 4.7l.8-.8c.6-.8 1.2-1.3 1.5-1.3.2 0 .3-.2.5-.8.1-.8.5-1.5 2.3-4a128.2 128.2 0 002.2-2.8c.7.3 0 2.5-1.7 6.4a106.6 106.6 0 01-5.2 10c0 .5.2 1.4.5 2l.6 1.2c.3.8 2.6 5.2 3.3 6.3 1.3 2.2 2.1 3.4 2.4 3.4.2 0 .2 0 .2-.4l-.5-3.2c-.3-1.4-.6-3.4-.6-5-.1-1.7-.1-1.7-.8-1.2-.4.2-.5.2-1 .2-.7 0-1-.1-1.3-.7-.4-.6-.4-1.4.2-2.3.3-.4.3-.6.2-.7l-.1-.1c-.2 0-.8-.7-1-1-.5-.8-.2-1.6.7-2 .3-.2.5-.3 1.3-.3h1l.1-.8c0-.9.2-1.4.7-1.9a2 2 0 012.2-.4c.7.3 1 1.2 1 2.5v.7h.7c.6 0 .7 0 1 .2.6.3.8.6.8 1.1.1.8-.4 1.4-1.4 1.7-.3 0-.5.2-.5.2l.4.6c.8.9 1 1.3.8 2-.1.5-.5 1-1 1.2-.6.3-1.2.2-2-.5-.7-.8-.7-.7-.6 1l.2 3c.3 2.1.5 2.5.9 1.9 0-.2.4-.7.6-1 1-1.5 2.9-3.3 4-3.6.4-.2.7-.1.7.1 0 .1 0 .4-.3.8a35.3 35.3 0 00-3 9v2.2c.2.2.3 0 .5-1a29 29 0 011.4-4.2c.6-1.3 1.5-2.4 1.9-2.4 0 0 .2.1.3.4a27 27 0 01-.5 10.7c-.3 2.3-.4 2.8-.2 3.5.3 1.2 1 2.7 1.7 3.9 1.3 2 2 3.1 2.3 3.1.2 0 .2-.1 0-1.1a179.1 179.1 0 01-.8-2.5 38 38 0 01-1.6-5.4 24.3 24.3 0 01.3-8c.2 0 .5.1 1 .6.3.4.8 1.2 1.2 2.5l1 2.2c.2.2.4 0 .8-.7.5-1 1-1.6 1.7-1.9.6-.2.6-.2.8.6l.5 1.1c.3.8.5 1.3.5 2v.6c0 .1.4 0 .8-.3l1.2-.8c.5 0 .5 0 .4 1l-.2 1.8c-.2 2-.6 3.6-1.3 5-1 1.9-1.5 3.4-1.7 5.3v2.2c.2 1.4.5 2.7.8 3.5l1.9 3.8a32 32 0 002.2 3c1.8 2 3.7 3.5 5.5 4 1 .3 1 .1-.1-1.2a35.8 35.8 0 01-5.5-7.7 16.7 16.7 0 01-2.1-8.2 17.8 17.8 0 012.7-9.2c.2-.1.3.1.3.6 0 .7.2.7.7 0 .9-.9 2-1.6 2.5-1.5.3.1.3 0 0 .7-.3.8-.4 1.3-.3 2.3.1 1.3.2 1.6.3 1.6.2.1.5 0 1-.6.8-.6 1.3-1.3 1.5-2.1.2-.5.2-.5.5-.4.7.3 1 1.2 1 2.3-.1.9-.4 1.9-.9 3-.7 1.7-1 2-2.3 4a7.9 7.9 0 00-1.5 7.2c.3 1 1.2 3 1.9 4 2.8 4.4 2.9 4.5 5.7 6.6a16 16 0 006 2.7h1v-.3l-1.4-1.5a27.6 27.6 0 01-8.6-7c-1.8-1.8-2.4-2.7-3-4.7l-.5-1.6c-.3-.8-.3-1 0-1 .3-.2 1 .1 1.9 1l.5.3c.2 0 .2 0 .1-.6v-2.7l.2-1.2v-.9l.4.1 2.8 2.6c1 1 1.1 1 1.4.3l.1-1.5c0-1.2 0-1.2.6-.9.9.6 1.8 1.8 2.3 3 .5 1.2.7 2 1.4 4.9.6 2.2 1.3 4.4 2 5.8.6 1.6 1.9 3.6 2.6 4.2.2.3.3.4.3.2l-.1-.7c-1-2.7-1.4-5-1.3-6.8 0-1 .2-1.5.5-1.5s1.4.7 2.2 1.5l1.1 1.4a24.4 24.4 0 013.3 8.2c.3 1.3 1 2.6 2.5 4 1.4 1.3 2.4 1.7 6.2 3 3 1 2.8.9 4 .5a268.6 268.6 0 016-2c.8-.4 2-1.4 2.7-2.2 1-1 1.6-2.1 1.8-3 .2-1.2.8-3 1.3-4.6a22 22 0 012.3-4.3 8 8 0 012.4-2.2l.6-.3.1.2c.3.3.4.9.4 2 0 1 0 1.5-.3 2.5l-1 4c-.2.3-.2.5 0 .5.1 0 .8-.7 1.2-1.4a23.8 23.8 0 003.6-9 93.5 93.5 0 01.9-3.3c.5-1.9 1.2-3 2.2-4 .6-.5 1-.7 1-.5v1.2c0 1.2.2 1.7.5 1.8.2 0 .3 0 2.4-2 1.3-1.1 1.8-1.5 2-1.4v.8l.1 2c.1.8.1 1.2 0 1.6-.2 1.2 0 1.2 1 .4.7-.6 1-.8 1.4-.8.4 0 .5.2.2.9l-.6 1.7c-.4 1.8-1 2.8-2.6 4.5a30.7 30.7 0 01-6 4.8l-1.6 1.2c-1.9 1.5-2.9 2.5-2.7 3l1.2-.1c3-.7 5.5-2 8-4.4a30.4 30.4 0 005.3-8.5c.3-1 .4-1.1.4-2 0-1.6-.1-2.5-.9-4l-.8-1.5a15.9 15.9 0 01-2.8-5c-.7-2.1-.6-3.7.4-4.2.3-.2.4-.1.6.5a5 5 0 001.2 1.8c1 .9 1.3 1 1.4.6l.2-1.6v-1.3l-.2-.7c-.4-.9-.3-1 .3-.8.6.2 1.2.6 1.9 1.3.3.4.7.6.8.6l.1-.4c0-.5 0-.6.3-.6s1.5 2.8 2.2 5c.2 1 .5 3.2.5 4.2 0 2-.5 4.6-1.4 6.6-1.2 3-3.4 6.1-6.4 9.5-1 1.2-1 1.3.5.8 2-.7 3.7-2 5.7-4.5a19.7 19.7 0 004-8.2c.2-1.1.2-1.3.2-2.8 0-1.3 0-1.6-.2-2.4a16 16 0 00-1.3-3.5c-1-2.1-1.1-2.7-1.6-7v-1c.2-.1.8.2 1.4.7 1 .7 1 .7 1-.6 0-.6.1-.7.4-1.3l.6-1.4.2-.7c.1-.2.8.2 1.4.8.2.1.6.7.8 1.1.6 1 .8 1.1 1 .5l.7-1.5c.8-2.2 1.6-3.4 2.1-3.4.3 0 .3.2.4 1.2.3 2.7.4 4.8.2 6.6-.1 1-.2 1.2-1 3.3a51.4 51.4 0 00-1.5 6 55.4 55.4 0 003.4-5.3c.7-1.5.9-2.4.7-3.4-.8-5-1-6.5-1-9.2-.1-2 .2-3.7.6-3.8.5 0 1.3 1 1.9 2.4.5 1.4 1.2 3.5 1.5 5.3 0 .2.3.3.4 0v-1c0-1.8-.5-3.9-1.4-6.4a177 177 0 01-1.6-5c.6 0 1.7.7 2.7 1.7.7.6 1.6 1.8 2.4 3.2.2.2.4.3.4.1.2-.3.6-3.5.7-5.5.1-1.2 0-1.3-.6-.7-.8.7-1.5.9-2.2.4-.5-.3-.8-.7-.9-1.3 0-.3 0-.5.2-.9l.7-.9c.5-.5.6-.7.2-.7-1.3-.3-1.8-.8-1.8-1.7 0-.6.3-1 .8-1.2.3-.2.4-.2 1-.2h.8v-1c0-.8.1-1 .3-1.3.3-.7.9-1 1.6-1 1.3.1 2 1 2 2.5 0 .5.1.8.2.8h.9c.5 0 .9 0 1.1.2 1.6.6 1.6 2 0 3l-.3.3.3.5c1 1.6.5 3-1 3.2-.4 0-.5 0-1-.3-.8-.5-.8-.5-.9 1.1a35.4 35.4 0 01-.9 6.2l-.2 1.8v.8c.2 0 .5-.2 1-1a57.4 57.4 0 003.9-6.6l2-4.2.1-1v-.7l-1-1.7-1.2-2.2-3.2-6.3a15 15 0 01-1.6-4.8v-.8c.2-.3.5-.2.6.1 0 .2.3.5.5.8l.7.9c0 .2.5.8 1 1.5a10.9 10.9 0 012.2 4.1l.3.1c.4.1.9.5 1.3 1.1.8 1 1 1.1 1 .3a25.3 25.3 0 00-2.7-7.2l-.5.1c-.5.3-.9.2-1.3 0-.3-.3-.7-.9-.7-1.1 0-.3-.2-.5-.6-.5a2 2 0 01-.6-.2c-.5-.3-.7-.7-.8-1.5-.1-.5-.1-.5-.7-.8-.8-.4-1-1-.7-1.6l.6-.3.5-.3c0-.2-.4-.5-1-1-.5-.4-.6-.5-.3-.8.5-.5 1.1-.7 1.8-.4a17 17 0 015.8 5.6c1.5 2 1.6 2.1 1.8 1.8l.2-1.6c0-1.5 0-1.7-.4-1.6a7 7 0 01-.7.1c-.8.1-1.2-.3-1.4-1.1-.1-.7 0-1.1.6-1.6.5-.5.4-.7-.5-.7-.8 0-1.2 0-1.5-.4-.4-.4-.7-1.2-.6-1.7 0-.5.2-.8.8-1 .6-.4.7-.5.5-1.1-.3-.8-.2-1.2.2-1.6.4-.4 1-.6 2-.7.6 0 .8 0 .8-.2s-1.3-2.4-2-3.1c-.3-.5-.8-.8-1-.8-.3 0-.3 0-.5 1-.1.7-.4 1.5-.8 1.8-.1.2-.5.4-.8.5-.4.2-.6.3-1 .2-.2 0-.4 0-.6-.2-.3-.2-.8-1.2-.9-1.8-.2-1-.1-1-1-1-1 0-1.4-.2-1.8-.8-.4-.7-.5-1.9-.2-2.5l.8-.8c.3 0 .2-.3-.3-1-.5-.5-.7-.8-.7-1.3 0-1.9 2.4-2.4 3.8-.8l.5.4.4-.5c.2-.6.7-1.2 1-1.4.6-.3 1.5 0 2 .7.3.4.5 1.3.4 1.7v.4c.1.2.2.2.6.2 1.3-.2 2.3.6 2.3 1.8 0 .9-.2 1.3-1.1 1.8-.5.3-.5.4 0 1l.8 1c.5.7.7.8.8.3l.2-1c.1-.8.4-1.4.6-1.4l.4.3c.4.5.6.4.7-.3a391.2 391.2 0 01.8-6.1l-.8.2c-1.4.7-2.5.7-3.2 0-.4-.4-.5-.9-.4-1.5 0-.3.2-.5.6-1 .5-.4 1-.7 2.3-1.3.6-.2.6-.4-.2-.8-1.2-.7-2-2-1.8-3 .2-.7 1-1.3 2-1.3.4 0 1.3.5 1.9 1 .5.6.7.6.7.3.3-1.3.6-2 1.1-2.5 1-1 2.7-.7 3.4.6.3.5.3.5.2 1.2 0 .7 0 1-.3 1.5l-.3.9 1 .1c1.3.1 2 .4 2.4 1.1.2.5.3.9.2 1.4-.2 1-1.1 1.5-2.5 1.4-.8 0-.8 0-.6.8.2.7.3 1.6.2 2-.3 1-1.5 1.2-2.3.5-.2-.1-.4-.5-.6-.8-.3-.6-.5-.8-.6-.5-.3.4-1 3.9-1 4.5 0 .4 0 .5.9.3.8-.2 1-.1.6.3-.3.3-.4.7-.2.7l.3-.2a48.1 48.1 0 017.4-6.5c1.5-.8 2.5-1.1 2.5-.7.2.8-1.6 2.8-6.2 7.2-.6.5-.7.7-.5.7l1.7-1c2.4-1.6 3.7-2.2 5-2.4 1-.2 1-.1.4.7l-1.8 2.6c-.7 1.1-2.6 3.2-3.7 4-1.1.7-3 1.6-4.3 2.1-.8.3-1.9.8-2 1-.3.3-.3.6 0 .6h.7c.6-.2 1.2 0 1.6.1l.4.6c.5.7.4 2.2-.1 3-.3.4-.3.5 0 .9.4.9.2 1.7-.6 2.2a2 2 0 01-.7.3c-.3 0-.6.2-.5.4.3.9.2 1.4-.5 1.8l-1 .1h-.8v.2a34.8 34.8 0 00-.1 5.7c0 .1.1.2.3 0 .3 0 .9-1 1.1-1.5l.5-1c1-2.4 1.2-2.9 2.2-4.6.7-1 1-1.5 1.9-2.4 1.1-1.1 3-2.3 4.2-2.6a8 8 0 012-.3c.2.1.1.8 0 1.7-.6 2.5-2.2 5.5-3.7 7-.3.2-.3.3-.2.8.2.4.2.6 0 1.2-.6 1-1.5 1.8-2.8 2.2a3 3 0 01-1.1.1l-.8.1c-.3.2-2.1 3-2.5 3.8l-1 2.4c0 .2.1.2.3.1l1-1.2c1.7-2.6 3.7-4.4 5.8-5.3.8-.4 2.2-.7 2.6-.7.3 0 .3 0 .3.3 0 .8-.7 2.3-1.9 3.8l-.8 1c-.7.9-4.8 5.2-6.9 7.2a24.7 24.7 0 00-4.6 5.8 89.8 89.8 0 01-2.4 4.2l.4.4c.4.4.5.7.4 1.2-.1.3-.5.7-.8 1-.1 0-.2.2-.2.5 0 .4 0 .6-.2.8-.2.3-.2.5 0 .8v1.3l.3.3c.7.4.8 1.1.1 1.7-.4.4-.5.4-1.2.2l-.5-.2-.1.2c-.3.4-.7.8-.9.8-.3 0-.4.2-.4.6l-.2.6c-.1.3-.3.4-.6.5-.8.3-1.4.3-1.8-.1-.1-.1-.2-.2-.3-.1-.2 0-.8 1.1-1.4 2.1-.3.7-.3 1-.1 1 0 .1.4 0 .8 0 .6-.2 1-.2 1.7-.2l1.2-.1c.7-.6 2-1.2 2.5-1.1h.4v.5c0 .4-.1.5-.4 1-.3.5-.3.7-.1.8l1.8-.1c.4-.1.5 0 .5.6 0 .5 0 .6-.2 1.1l-.6 1-.4.5.3.3c1.2.5 1.4.6 1.2.9-.2.3-.7.5-1.6.7-1.2.2-1.5.4-2.1 1-1 1-2.1 1.5-3.7 1.8-.7.2-1.3.2-2.8.3-2.2 0-2.7 0-3.8.5-.8.3-1 .5-1.8 1.8l-4.6 6.2c-1.4 2-1.8 2.5-1.8 2.7a2514.6 2514.6 0 017.1-3.3 129 129 0 009-5.8c2.6-1.8 5.1-4 6.6-5.8.9-1.2 1-1.4 1.2-2.6.1-.9 0-2-.4-4.6-1-6.4-.9-9.4.7-11 .5-.4.7-.5.9-.3.4.4 1.1 2.4 1.3 3.5a21 21 0 01-.2 6.4c-.2 2.4-.2 4.7 0 5h.3c.3-.2.7-1.2 1-2.8l1.3-3.7c.2-.4.5-.8 1-1.2.6-.8.6-1 0-.9-1.5.2-2.1 0-2.5-.6-.3-.6-.2-1.3.5-1.8l.3-.3-.3-.7c-.4-1.1-.4-1.6 0-2.3l.3-.6-.2-.5c-.3-.5-.4-1.3-.1-1.9.3-.7 1.3-1 2.5-.7 1.2.3 1.1.3 1.5 0 .4-.6.8-.8 1.6-.8h1c.4.2.5.2.6.1V187l-.5-3.5c0-1.5 0-3 .4-4.4.3-1.2.3-1.2 1-.8.7.5 1.6 2.3 1.9 4.3l.1 2.8c0 1.7.1 2 .2 2 0 .1.2 0 .2 0 1-1.6 2.4-4.3 2.4-4.5 0-.2-.1-.2-.6-.3-.6-.2-1-.4-1-.9-.4-1.1.3-2.3 1.8-3l.8-.3c.2 0 .6-.3.5-.4l-.5-.5c-1.3-.9-2.2-2-2.3-3 0-.8.5-1.5 1.6-1.7.6-.2.6-.3.2-1a8.5 8.5 0 01-1.5-3.8l.1-.7.9.7c.6.6.8.7 1 .7l.1-.4-.2-1.4a13 13 0 01-.5-3.3c0-1 0-1.2.2-1.2.1 0 .7.4 1 .8 1.2 1.1 2.6 4 3.5 6.6.4 1.3.5 1.3 1 0a28.2 28.2 0 001.7-6.1c0-.1-.1-.1-.4 0-1 .4-2.3.6-3 .3-.6-.2-.8-.4-1-1-.3-.5-.3-.6-.3-1.2 0-.7.3-1.1.9-1.8l.4-.4-.4-.4-.8-.6c-.8-.8-.6-1.9.3-2.4.4-.1.6-.2 1.3-.2h1l-.4-1c-1-1.8-1.3-3.3-1.3-5.1 0-1.3.1-2 .2-2.2.6-.6 3.4 3.6 4.5 6.6l.3.4c.2 0 .3-.1.5-1.7l.1-2.5c.1-1.9.1-1.9-.8-1.6-1 .2-1.6 0-2-.5l-.3-.7c0-.6.1-.9 1-1.8.9-.8 1-1 .8-1.2-.1 0-.9-1.3-1-1.8-.2-.3-.2-.6-.2-1.3 0-.8 0-.8.2-1 .3-.4.8-.4 1.6-.2.6.2 1.3.5 1.7.9.4.2.6.2.7-.2a3 3 0 012.2-1.5c.8 0 1.4.3 1.8 1 .4.7.2 2-.2 2.7-.1 0-.2.2-.1.3 0 .2 0 .2.6.3 1.5.1 2.4 1 2 2.3-.1 1-.5 1.3-2.2 1.8-.4 0-.5.3-.3.8.2.4.2 1.6 0 1.9-.2.4-.5.7-.9.7-.6.1-1.1-.2-2-1.3-.2-.2-.2-.2-.3-.1l-.2.6-.2 1.3a18 18 0 00-.3 4.5l1.4-1a13 13 0 014.8-3.3c.7-.2 1.8-.4 2.3-.3.2 0 .2 0 .1.3 0 .4-.6 1.3-1.3 2.2-.5.7-1.7 2-3 3.1-.7.6-.7.7 0 1 .4.1.9.7 1 1.2l.2 1.2v.7l.5.3c1.2.6 1.8 1.6 1.6 2.5-.1.6-.4 1-.8 1.2-.3.2-1.4.2-2 0l-.6-.1c-.2 0-.2 0-.4.5-.5.8-1 1.2-1.8 1l-.4-.1c-.2 0-.1.3.4 1.2.4.8.4 1 .3 1.1 0 .2-.3.2-1-.2a7 7 0 01-2.5-2.5c-.1-.2-.2-.3-.4-.2l-.5 1a46.9 46.9 0 01-1.6 4.5c0 .2.3.1 1.1-.2a13.2 13.2 0 017.7-.8c.7.2.7.3-.4.9a5 5 0 00-1.6 1.2c-.7.7-1.8 1.5-2.5 1.9l-1.2.5-1 .4.1.7c.2.7.2 1-.1 1.6-.3.7-1.3 1.2-2.2 1.2l-.8.1.4.7c.4.6.5 1.2.4 1.6-.2.7-.6 1-1.4 1-.7 0-1.1-.1-1.7-.5l-.6-.4-1.9 3.5-1.2 2.6c0 .3.2.3.7.3.4-.1.6-.3.7-.9.2-.3.2-.5.5-.6.4-.3.8-.4 1.3-.2h.7a30 30 0 003.4-3 45.3 45.3 0 015-4.2c1.6-1.4 2.9-2 4.8-2.5 1-.3 1.2-.3 1.2 0 0 .4-1.1 2.2-2.2 3.5a66.9 66.9 0 01-7.5 6.8l-.2 1V189.3h.8c1.4.1 2.1.3 2.7.8.5.5.6 1.4.1 1.8-.3.3-1 .5-2 .4-.8 0-1.6-.4-2-.9-.3-.4-.5-.4-.9-.1-.3.2-.2.4.2.7.6.5 1.2 1.4 1.4 2 .2.8.1 1.3-.3 1.7l-.5.3c-.6 0-1.3-.7-2.1-1.8l-.5-.6v.8c0 1-.2 1.3-.8 1.6-.6.3-.8.3-1.3 0-.7-.3-1.2-1.3-1.2-2.4v-.7h-2.3c-2 .2-2.2.3-1.2.9.6.4 1 1 1.2 1.5 0 .5 0 .9-.3 1.1-.3.4-.7.4-1.8.4-.7 0-1 0-1.1.2l-.2.5c0 .3-.2.6-.3.7-.4.4-1.2.8-2 1h-.7l-.2.6c-.2.7-.3.8-1 .8-.4 0-.8-.1-1-.4l-.3-.1c-.7 0-2.7 4-2.2 4.4.2 0 1-.2 1.2-.5l.6-.8c.5-.7 1.2-1.6 2-2l.5-.5.2-.1.8-.3.8-.3.5-.2 2.5-.6a72.8 72.8 0 018.4-.7c.1 0-.3.5-1.1 1.2-1 .8-1.9 1.2-4.6 2a29 29 0 00-6.8 2.8h.5l2.9-.8c1.7-.4 5.3-.4 5.6 0 .1.2-.2.9-.8 1.4-1 1-2.6 1.5-6 2.1a65.7 65.7 0 00-6 1.6c-.6.2-1 .3-1.4.7l-2 1.4a78.9 78.9 0 00-5.4 4.4c-1 .9-1.4 1.5-1 1.5a19.7 19.7 0 004.3-1.4c1.2-.4 3-1.5 4-2.4a11 11 0 013.1-2.2c1.2-.5 2-.9 3.4-1.3a10 10 0 013.3-.4c.8 0 1.1.1 1.5.3.2 0 .5.2.5.3 0 .1-.4.7-1 1l-1.1.8c-1.6.7-1.8 1.2-.7 1.5.7.1.7.1.7.4 0 .5-.8 1.3-2 2a3 3 0 00-.7.5c-.1.2 0 .4.5.5.8.3 2 1 2.4 1.3.3.3.4.4.3.5l-2.8.8-1.5.4h-11.6a20.5 20.5 0 00-10 3.4c-.9.5-1 .7-1 .8.2.1 3.3.4 5.7.4a20.5 20.5 0 008.8-1.3l1.4-.4c1.5-.5 2.7-.7 3.2-.6.5 0 1 .2 1 .4l-.6.8c-.7.7-.8 1-.6 1.1 0 .1.2.2 1.4.3l1.3.3c.5.1 1.5.8 1.5 1l-.7.5c-1 .5-1.4 1-1 1.2a53 53 0 005.6 1.8c.1 0 .1.2-.2.5-.6.7-2.5 1.4-4.8 1.7a27.7 27.7 0 01-10.6-.8c-1-.2-3-1-4.2-1.5l-1.8-.7c-1.6-.5-4.9-1.3-6.6-1.6-1.3-.2-2.8-.3-2.4-.5a57.2 57.2 0 0115.9 4.2c4 1 9 1 12.1 0 1-.3 1.9-.7 2-.9 0-.2 0-.2-4.5-1.6l-1-.4c-.2 0-.1-.3 0-.7.3-.4.5-.6 1-.9.6-.2.6-.4.2-.7-.3-.3-1-.5-2.1-.6-1.5-.2-1.6-.2-1.7-.4l.8-1.4c.3-.2.4-.5.4-.6l-1-.2c-.6 0-2.6.6-3.8 1-1.4.4-4.1 1.1-5 1.2a56 56 0 01-10.7-.4l2.3-1.7c3.8-2.4 8.1-3.4 14-3.1a2062.9 2062.9 0 004.7.2 14.7 14.7 0 004.5-.6c1.8-.5 1.9-.6 1.4-1-.3-.3-1.8-1-2.7-1.2-1-.2-1-.2-.8-.3l.6-.3a7 7 0 001-.5l.6-.3.8-.7c.7-.7.7-.8-.2-1.1a2 2 0 01-.7-.3v-.5c.3-.4.8-.8 2-1.4.8-.4 1.5-1 1.5-1.1l-.3-.3-1.6-.1c-1.2 0-1.4 0-2.4.3-1.4.3-2.8.8-4 1.4-1 .6-1.6 1-2.5 1.8a16.2 16.2 0 01-5.3 3c-2 1-4.6 1.6-4.6 1.3 0-.3 1.1-1.6 2.1-2.4a73.6 73.6 0 018.7-6.4c2.2-.8 4.5-1.3 6.5-1.7 3-.6 4.5-1.1 5.4-2 .5-.4.6-.7.4-.9a11 11 0 00-3.2 0 27.5 27.5 0 00-7.7 2.1c-.4 0 .2-.6 1-1.1a17.7 17.7 0 012.9-1.6l2.1-.9a44 44 0 013-1c2-.5 3.6-1.2 4.5-1.8.4-.3.5-.7.3-.7l-5 .4c-4.9.4-8 1.9-9.5 4.4l-.5.7-1.5.7c-.3 0-.4-.2-.3-.7.2-1 .6-2 1.4-3.2.7-1.2 1.3-2 3.4-4a34 34 0 002.4-2.6c.2-.4 1.1-1 2-1.5l.6-.4h1.4a19.5 19.5 0 004.3-.7c1.2-.1 2-.4 2.8-.8.8-.4 1.1-.6 1.1-.9 0-.4-.8-.3-3.8.4-2.5.5-3.9.6-4 .3 0-.2.1-.2 1-.5.8-.3 1.1-.4 1.1-.6l-.2-.6-.3-.7c-.1-.3-.2-.3-.8-.2-.5 0-1 0-1-.2a167096.2 167096.2 0 012.8-6.3s-.4 0-.7.2a5 5 0 01-1 .4 2 2 0 00-.6.2l-.7 1.2c-1.6 3-2.9 5.1-3.1 5.1v-.9-2.8c0-2.2-.1-3-.6-4.5s-1-2.1-1.4-2.1c-.3 0-.3.1-.6 1.2a15 15 0 000 4.6 92.7 92.7 0 00.8 6c0 .9 0 1-.2 1.8a7 7 0 01-.9 2 16 16 0 01-2 2.4 72.5 72.5 0 00-3.6 4l-1.2 3.4c-.1.7-.8 2.6-1 3-.2.3-.6.8-.8.8-.2 0-.3-.5-.4-2.1a24 24 0 01.4-5.7c.2-2 .1-4-.2-5.3-.2-.8-.7-2-1-2.1 0-.2-.1-.2-.3 0-.5.2-1.1 1.2-1.3 2.4-.3 1.2-.1 4.4.3 6.8l.6 4.3c.2 1.7 0 3-.7 3.8a22.2 22.2 0 01-5.3 5.2 95.4 95.4 0 01-18.9 11.1h-.5l1.3-1.8a12839.9 12839.9 0 006.8-9.2c.3-.4 1-.7 2-1l.9-.4h2c2 0 2.6-.1 3.7-.4 1.1-.4 1.9-.8 2.8-1.6.6-.6.9-.7 2-1a5 5 0 001.2-.3c.3-.3-.2-.7-1.3-.8l-.6-.2.5-.5c1-.6 1.5-1.5 1.5-2.1 0-.5 0-.6-1-.5h-2l.4-.7c.5-.7.7-1 .7-1.3 0-.3-.4-.3-1.1 0a8 8 0 00-1.2.8l-.6.4-.5-.1c-.6-.2-.7-.2-2.3.1-1.1.2-1.3.2-1.2-.2 0-.3.8-1.8 1.6-3.1l.5-1v-1c0-1.5.3-2.7.8-4.1 1-2.3 2.6-4 4.2-4.4l.6-.2 2.2-3.5c2.3-3.9 2.2-3.7 5.5-7a107.5 107.5 0 008-8.8c.5-.8 1-1.8 1-2.2 0-.3 0-.4-.2-.4-.3 0-1.2.2-1.9.5-2 .8-3.9 2.4-5.5 4.6a999.4 999.4 0 00-2.7 3.5c-.2-.1 0-1.3.6-2.7.6-1.6 1.2-2.5 2.7-4.7.7-1.1.8-1.2.8-1.6 0-.3 0-.6.2-.9.3-.7 1.8-2.2 2.5-2.5a3 3 0 011-.1c.6 0 .7 0 1-.3l.6-.5a17 17 0 003-6c.3-1.4.2-1.6-.6-1.4a10 10 0 00-5.3 3 21 21 0 00-3.5 6c-.7 1.8-1 2.3-1.7 3-.6.6-.9.8-1 .6-.2-.1-.2-2.9 0-5v-1.9h-.6l-.9-.1c-.8-.3-1-.3-1 0a30 30 0 00-.3 2.9l-.3-.1-2-2.6c-2.4-3.3-4.2-5-5.4-5.5-.7-.2-1.5-.1-1.5.3l.6.6a45 45 0 012.8 2.6c.6.6 1.2 1.4 1.7 2.5l.8 1.4 1.8 4c.6 1.6 1.1 4 1.1 4.8l-.1.6c-.2 0-.4-.1-1-1-1-1.4-1.5-1.7-2-1.6-.4.2-.5 0-.4-.4 0-.7-.3-1.6-1.2-3l-2.5-3.4c-.4-.4-.5 0-.2 1l1.3 3.4 3.4 6.8c2 3.3 2 3.4 2 4.3a74.4 74.4 0 01-6.4 12.4c-.4.6-1 1-1 1-.3 0-.4-.3-.4-1l.6-3.5a63.3 63.3 0 00.7-7.2c-.1-.5-.4-.8-.5-.6l-.2.8c0 3-.4 5.5-.7 7-.2.6-.5 1-.6 1l-.2-.4c-.4-1.5-2.4-4-4-5-.9-.7-1-.5-.5.7a56.4 56.4 0 012.6 8c.3 1.8.1 4-.4 4.6l-.2.2v-.3l-.2-.9a20 20 0 00-2.7-7.8c-.5-.4-.6-.2-.8 1.2a46 46 0 00.9 10.2c.2 1.9.2 2.1-.2 3.4-.4 1.2-2 4.1-3.1 5.6-.6.8-1.4 1.7-1.6 1.7-.2 0 0-1 .2-2.1l1.7-5.1c.9-2.6 1-3.1 1-5.5l-.3-4.7c-.1-.3-.3-.3-.5 0-.3.2-1 1.5-1.5 2.8-.7 1.9-1 2.3-1.1 2.4-.2 0-.5-.3-.9-1.2-.5-1-1.3-1.9-1.7-1.8l-.3.4-.6 1.3-.4.8v2c-.3.1-.8-.1-1.3-.6-.5-.4-.8-.6-1-.4v1.4c.2 2.3.6 3.8 1.3 5.3.9 1.8 1.2 2.8 1.6 4.2l.1 2.3c0 2-.2 3.1-.7 4.7-.5 1.8-1.9 4.3-3 5.8-2.1 2.7-3.5 4-5.7 5-1.1.6-3 1-3.1.8 0-.1 0-.3.9-1.1 2.4-2.6 4.6-5.4 5.8-7.7 1.2-2.2 1.7-3.5 2.3-5.8.2-1 .2-1.2.2-3 0-1.9 0-2.5-.5-4.2-.3-1.2-1-3.3-1.3-3.7-.3-.2-.4 0-.4.5s0 .5-.2.5l-.5-.6a7.1 7.1 0 00-1.8-2c-.3-.2-.4-.2-.5 0-.1 0-.1.1 0 .8v1.8l-.1 1.3c0 .7-.1.7-.8.4a6 6 0 01-2.3-2.4l-.4-.6c-.1-.1-.4.2-.5.7a5 5 0 000 2.3c.5 1.5 1.4 3.3 2.3 4.6 1.4 1.9 2 3 2.3 4.3.2.6.2.9.2 2 0 1.3 0 1.7-.6 3.1-1 2.1-3.6 6.3-5 7.9-.4.3-2.2 1.8-3 2.2a17.5 17.5 0 01-7 2.6c-.4 0-.4 0-.3-.2 0-.5.6-1.2 1.5-2 1.1-1.1 1.8-1.7 5.5-4.4 1.7-1.2 4-3.2 4.7-4.2.8-1 1.3-2 1.6-3.4l.3-1c.4-1 0-1-1.3 0-.7.6-1.3 1-1.5 1-.2 0-.2 0 0-.6.4-.6.6-1.5.6-2.2l-.3-2.7c-.1-.3-.5 0-2.2 1.5-1 1-1.8 1.6-2 1.6-.2 0-.7-1.4-.6-2.2 0-.4 0-.8-.2-.8a5 5 0 00-1.3 1.4c-.6 1-1.2 2.5-2 6-1 4-1.8 6-3.4 8.6-.7 1.2-2.5 3.2-2.8 3.2-.2 0-.2-.2.2-1a29 29 0 001.5-4.7c.6-2.6.5-4.7-.1-4.5a7 7 0 00-2.6 2.5l-.6.9a23 23 0 00-2.8 7.2c0 .5-.2 1.1-.4 1.4-.7 1.5-3 3.7-4.5 4.4a27.9 27.9 0 01-4 1.4 161.2 161.2 0 00-12 4 60.5 60.5 0 00-13 7.7l-1.1 1c-.8.7-.8.7-1.2 1.6a52.7 52.7 0 00-3.9 8.3c-.4 1.2-1 3.5-1 4v.2c.2 0 .8-.8 1.4-1.6a12 12 0 011.2-1.5l1-1.3a131 131 0 017-7.1 55.8 55.8 0 0122.5-13c.6 0 1.7-.5 2.6-.8a324.5 324.5 0 0114.8-5c1.3-.2 2.7-.2 3.7 0 .6.2 1.6.5 2.3.9.5.3 1.7 1.1 2.2 1.6.6.5 1.6 1.6 2 2.2a9.6 9.6 0 007.8 4c.3-.2.2-.8-.3-1.7-.8-1.4-1.5-2.4-2.9-3.7-2-2.2-4.6-4-6.3-4.4l-.5-.3c0-.2.6-.3 1.9-.3 2.5 0 4.8.5 7 1.5 1.9.9 4.4 2.8 7.2 5.5 3.1 3 4.2 3.8 5.4 4.2l2 .5c.2 0 .3 0 .3-.2 0-.4-.4-1.2-1.6-2.6-1.6-1.9-1.6-2-.7-1.8.5 0 .8.1 1.7.6 1.6.7 1.6.7 4.1 1l1.5.3c.8.2.9 0 .4-.7-.7-1.2-1.5-2-3.1-3.3l-2-1.6c0-.1.2-.2 1.2-.3 1 0 1.2-.2 1.2-.5 0-.2-.6-.6-1.2-1a16.2 16.2 0 00-4.5-1.7c-.2-.2-1.5-.5-3-1a114.6 114.6 0 00-13.2-2.3c0-.3 2.3-1.3 3.6-1.5 1.4-.4 2.6-.6 3.4-.6 1.5-.1 4.5.2 7.5.8 2.7.5 6 1.8 7.6 2.9 1.4 1 3 2.6 4 4l5 6.3c1.7 1.7 3.8 3.2 5.4 3.6.6.2.8.1.8 0l-.3-.7-1.2-2.5c-.2-.8-.2-1 0-1.1.2-.1 1.2 0 2.5.2 1 .2 1.1.2 1.6.1.7 0 1-.2.8-.4l-.9-.7c-2.2-1.5-3-2-3.4-2.7-.7-.9-.7-1 .5-1.2l1-.4v-.2c0-.4-2-2-3.3-2.8a51.3 51.3 0 00-23-7.6c0-.5 4-1.6 6-1.7l1.3.1c.1.1-.8.2-1.1.2-2.8.4-4 .7-4.3 1-.2.2 0 .2 1 .3a47.7 47.7 0 0116.8 5.4c1.7 1 4.9 2.9 6 3.8.5.5 1.3 1.4 1.3 1.6 0 .2-.2.3-1 .5l-1 .2c-.6.4 1 1.7 4.3 3.7l.8.6-1.1.5a6 6 0 01-2.8 0 7 7 0 00-1.3-.2c-.3 0-.4 0-.4.3 0 .5.5 1.7 1.4 3.1l.6 1c0 .2-.2.2-.9 0a7 7 0 01-2.4-.7 13 13 0 01-3-2.3 54 54 0 01-5.5-6.6 16.4 16.4 0 00-9-6.6 31.8 31.8 0 00-11.5-1.3c-1.6.2-3.8.8-4.3 1.2-.4.2-.1.3 1.2.5 3.2.4 6.3 1 8.7 1.5 2.9.6 6.2 1.6 7.7 2.2 1.4.6 2.3 1.2 2.8 1.7.8.8.6 1-.6 1.3l-.8.2c0 .1 0 .3.9 1 1.9 1.4 2.7 2.2 3.4 3.3.4.7.8 2 .7 2l-.6-.3c-.4-.2-.8-.3-1.8-.4-3.1-.5-3.2-.5-4.4-1.1-1.2-.6-1.6-.7-1.6-.4l1.3 1.7c.8 1 1.1 1.5 1.1 2.2 0 .6 0 .6-1.2.3a8 8 0 01-3-1.2c-.6-.4-3.1-2.6-4.7-4.2-2.1-2-4.3-3.6-6.5-4.7-1.2-.5-2-.8-3.6-1.1-1.1-.3-3.2-.4-3.3-.3-.1.2 0 .4.6.6 1.1.6 2.3 1.5 4 3 1.2 1.1 1.9 2 2.7 3.2a7 7 0 011.3 2.9v.6h-1.9c-2.6-.5-5.2-2.1-6.6-4.2-1.5-2.1-4-4-6.3-4.4a16 16 0 00-4.2 0l-2.7.9a275.5 275.5 0 01-11 4c-1.2.3-1.4.4-1.4.6l2.3 1a74.1 74.1 0 014.6 2 53.3 53.3 0 0111 7.4c.5.4.6.6.8 1a76.5 76.5 0 003.2 6.9c1 2 2 5.8 2 7 0 .7 0 .8-.3.5z" fill="#121212"/><path d="M188.7 267.8l-.5-2-.3-1a49 49 0 00-4.3-9.8c-.1-.5-.4-.8-1.3-1.6l-1.2-1-3-2.3a48.3 48.3 0 00-11.5-5.8l-1.4-.5c-.9-.4-1-.4-2.7.1l-1.7.6c-.4.3-.3.4 1.4 1.1A57.7 57.7 0 01174 253a66 66 0 0113.4 13.8 5 5 0 001.1 1.2h.2zM89 247c1-.2 2.5-1 3.6-1.8 1.3-1 3.1-3 5.6-6.3 2.3-3.2 3.9-4.8 5.5-5.8 3.1-1.9 9-3.2 14.1-3.2 1.4 0 2 0 4 .5 1.3.4 2.1.6 3 1.1.9.4 1 .6.5.7a280.1 280.1 0 00-8.1 1.1 66 66 0 00-10.4 2.6 10 10 0 00-2.8 1.4c-.6.6-.4.9 1 1l.9.3s0 .2-1.7 1.5a12.3 12.3 0 00-3.2 3.1c-.5 1-.5 1.2.5 1l1.4-.3c2-.2 2.7-.4 3.6-.8 1.1-.6 1.6-.8 2.1-.8.8-.1.8.2-.5 1.6-1 1.1-1.4 1.7-1.7 2.2-.3.7-.2 1 .6.8 1.3-.3 2.4-.8 3.2-1.3.5-.4 3.2-2.6 3.6-3.1 1-1 3.8-3.3 5.5-4.4a16.1 16.1 0 0110.9-2.4c.1.1 0 .2-.6.4-1.8.6-3.7 1.9-6 4l-2.4 3c-.8 1.2-1.2 2.1-1 2.5 0 .2 0 .2 1 .1l1.6-.2 2.7-1.2c1-.7 2.3-2 2.6-2.5.3-.5 1.6-2 2.3-2.4a8.8 8.8 0 014-2c2-.6 5.1-.2 7.5.8a124.9 124.9 0 009 3.3l2.9 1c1 .4 1.1.5 1.7.3l3-1c.1-.2-.3-.4-2.3-1-4.1-1.4-4.7-1.7-6.3-3.3a7.3 7.3 0 01-2.1-3.5 33 33 0 00-1.4-4.5c-.3-.9-1-2.4-1.8-3.6-.9-1.5-2.6-3-3-2.9-.6.2-.5 2.6 0 4.9.5 1.7 1.1 3.4 1.7 4.7.2.4.2.6 0 .6s-1.5-1.4-2.2-2.3a23.8 23.8 0 01-3.9-9.1c-.6-2.4-1.2-4.7-1.7-5.7-.4-1-1.5-2.2-1.8-2.1-.2 0-.2 0-.3.9l-.2 1.4c-.3.8-.4.8-1.8-.5l-2.2-2c-.4-.3-.5-.1-.6 1.4-.2 1.7-.1 2.5.4 3.6l.2.5c-.2.1-.9-.3-2-1.3-1-.8-1.2-.7-1 .2l.3.8a9 9 0 003 5.1 43 43 0 005.6 4.5c1.5 1 2.3 1.7 3.3 2.7.7.6 1 1 1.2 1.4.3.6.3.8.2 1a17.8 17.8 0 01-8.2-3.4c-2.2-1.6-3-2.6-5.2-6-2.5-4-3-6.5-2.1-9.2.3-.9 1-2.3 1.5-2.9 2.4-3 3.7-6.8 2.8-8.2-.2-.3-.4-.2-.7.4-.5 1-2.3 2.5-2.8 2.5-.2 0-.2 0-.3-.5V203c0-.6 0-.7-.3-.6-.5.1-1.8 1.4-2.3 2.3-.3.6-.5.5-.5-.2l-.1-.5h-.2l-.5 1a16.3 16.3 0 00-.7 11.9c.5 1.5 1 2.5 2 4.2.9 1.6.9 1.6 2.1 3.2a40.5 40.5 0 004.4 5.3c-.1.2-2-.2-3.2-.8-1-.5-2.4-1.5-3.1-2.3-1.1-1-2.7-3-3.4-4l-1.9-3.7c-.7-1.6-1-3.5-1-5.6 0-2.1.3-3.4 1.5-5.8a11 11 0 001-2.8c.5-1.9.8-4.7.4-4.7l-.8.6c-.5.3-1.1.6-1.3.5v-1c0-.8 0-.9-.3-1.5a138.3 138.3 0 01-.9-1.9c-.3-.3-1 .4-1.6 1.4-.7 1.2-1 1.4-1.1 1.4-.3 0-.4-.2-1.2-2.3-.8-2.1-1.4-3.1-1.7-3-.4.2-.7 4.8-.4 6.9 0 1 .2 1.4 1.2 4.4 1.3 3.8 1.9 6.2 1.5 6.2-.4 0-1.7-1.7-3.1-4a13 13 0 01-2-4.7 47.8 47.8 0 001-13c-.2-.9-.7-.5-1.5 1.2a25.2 25.2 0 00-2 7.4c-.2.2-.6-.7-.7-1.5-.3-1.3 0-3.6.5-5.6a35.2 35.2 0 012.2-5.6c.5-1.2.4-1.4-.7-.6a11.1 11.1 0 00-4 5.3c-.1 0-.4-.6-.5-1.2a41.7 41.7 0 01-1-7.6s-.2 0-.3.3l-.1 1.7c0 1.6.2 3.2.6 5.6.6 3.2.7 4.5.3 4.6-.5.1-2-2.2-4-5.8-1.1-2-3.3-6.5-3.4-7-.2-.9 0-1.7 1.1-3.4l1.7-3c2.1-3.8 4-7.9 4.2-9.3 0-.4-.1-.5-.4-.3l-3 4c-.4.8-.7 1.6-.7 2.2v.6h-.4c-.5-.2-.8 0-1.5 1-1 1-1.3 1.5-1.5 1.5-.2 0-.2 0-.2-.4 0-1 .6-3.4 1.3-5.1a31.9 31.9 0 013.5-7l3.5-3.4c.7-.5.7-.7.4-1-1.1-.6-3.4 1.2-6.3 5l-2 2.7c-.7.8-.7.8-.9-1 0-1.5 0-1.6-.4-1.6-.1 0-.4 0-.6.2H90v3.5c0 3 0 3.4-.2 3.5-.1.3-.3.2-1-.4-.6-.6-.9-1-1.6-3-1.7-4.3-3.3-6.5-5.9-8.2-.5-.3-1.1-.6-2.3-1-1.4-.4-1.5-.2-1.3 1.1.2 1 .3 1.4.7 2.2.8 2.1 2 3.9 2.8 4.5.4.3.5.3 1.1.4.5 0 .8 0 1 .2.5.2 1.6 1.1 2 1.6.4.4.7 1 .7 1.6 0 .5.2 1 .6 1.3l1.5 2.3c.8 1.4 1.5 3.1 2 4.7 0 .6.1.8 0 .8H90l-1.8-2.4a20 20 0 00-3.8-4.2c-.9-.7-2.3-1.4-3.4-1.8-.8-.2-1-.2-1.1 0-.2 0 0 .5.3 1.1.5 1 .8 1.5 2.3 3.3a76.2 76.2 0 008.5 9 32 32 0 014 6l1.4 2.3.6.2c.9.2 1.5.6 2.4 1.5.7.7.8.8 1.3 1.9l.8 2c.3 1 .3 1.2.4 2.6v1.5l.6 1.1 1.6 3.2-.1.2s-.6 0-1.1-.2c-1.5-.3-2-.3-2.5-.1-.4.1-.6 0-.8-.2a6 6 0 00-2.1-1.2c-.3 0-.3.2-.2.6l.5 1c.4.6.5.7.4.8h-1.4c-1.5-.2-1.6-.2-1.6.3 0 .7.6 1.4 1.6 2.2.5.4.5.5.1.6-1 .1-1.7.4-1.7.6 0 .2.4.3 1.4.6 1 .2 1.4.4 2 1 1.5 1.5 3.7 2 7.2 2 1 0 2 .3 3 .8.8.4 1 .5 2 1.9a206.7 206.7 0 007.1 9.9l-.9-.2a57.6 57.6 0 01-11.3-6l-1.8-1.2a60.2 60.2 0 01-8.8-7c-.6-.5-2-2.5-2.2-3l-.3-1.3c0-1.2 0-2.4.6-5.3.6-3.5.7-6.3.3-8-.3-1-1-2-1.4-2-.3.2-1 1.8-1.2 3-.3 1.5-.3 2.6 0 6.3.4 2.6.3 5.6 0 5.9-.3.2-.9-.4-1.2-1.2l-.9-3c-.8-2.8-1-3.2-2.3-4.6a37 37 0 01-2-2c-1-.9-2.2-2.3-2.6-3.3-.8-1.6-1-2.5-.5-5.1a239.5 239.5 0 01.7-4.9 13 13 0 00-.4-4.8c-.1-.2-.4-.2-.7.1-.8.9-1.4 2.5-1.6 4.6v4.4c0 1 0 1.2-.2 1l-1-1.7a33.2 33.2 0 00-1.7-3l-.7-1.4-.8-.3-1-.4c-.4-.2-.6-.3-.7-.2l1.6 3.4a113.1 113.1 0 011.2 2.8l-.9.1c-.8 0-.9 0-1 .3l-.2.7c-.3.7-.3.7.5 1l1 .4c.4.1.5.3.2.4-.4.2-2.3 0-4-.5a15 15 0 00-3-.5c-.5 0-.6 0-.6.2 0 .1 0 .3.3.4.4.3 1.8.9 2.7 1l1.5.4 3.6.5c1.3 0 1.6.1 2.6.8.6.4 1 .7 1.4 1.2l2 2 2.9 3.1c1.2 1.6 2.2 3.7 2.2 4.9v.4h-.2l-1-.4c-.7-.3-.8-.4-1-.8a8 8 0 00-2.2-2.4 11.9 11.9 0 00-4.5-1.8l-3.5-.5a223 223 0 01-4.4-.2c0 .5 1.6 1.3 3.3 1.9a2386.6 2386.6 0 016 2l3.7 2c.6.5 1 .9 1 1.1l-1-.2c-1-.5-3.4-1.3-4.4-1.5-1.5-.4-3-.6-4.2-.6-1.6 0-1.8.2-1.3.8.8.9 2.8 1.7 5.6 2.3 2.2.4 5.7 1.3 7.2 1.8l1 .7 2.7 2.1a37.7 37.7 0 016.4 5.8c.1.3 0 .4-.8.2a26 26 0 01-5.7-2c-1.2-.6-2-1.1-3-2.1a12 12 0 00-3.2-2.1c-2-1-4-1.7-5.7-1.8-1 0-1.9 0-2.1.2-.3.2.2.8 1.4 1.4 1.1.6 1.9 1.3 1.8 1.7 0 .2-.1.3-.5.3-.4.1-.8.3-.8.5 0 .3.4.8.8 1.1a11.4 11.4 0 002.7 1.4c.1.2.1.2-.8.4-1.4.3-2.9 1-3 1.3-.1.2 0 .3.8.6l3.6.8h4.3c4.4-.2 6-.1 8.4.2a19.3 19.3 0 019.9 4.7c.1.2-.2.2-3.7.4-6.1.2-7 .1-11.5-1.3-2.5-.8-3.3-1-4.1-1.1h-1c-.2.2-.1.3.3.8s.8 1.1.8 1.3c0 .2-.3.3-1.6.4-1.3.2-2 .4-2.3.7-.3.2-.2.3.3.6.9.5 1.3 1.3 1 1.6-.2.2-1 .4-3.4 1.1l-1.8.5c-.3.1-.3.3 0 .5.1.2 1.2.7 1.8.9a27.4 27.4 0 006 .8 48.6 48.6 0 005.9-.8 51.8 51.8 0 005.4-1.8 37.3 37.3 0 0110-2.4l3.4.5 2.4.7c1.2.4 1.5.6 1.5.8l-1.6.2c-2.6 0-4.2.3-7.3 1.1a60.7 60.7 0 00-14 5.9c-1.7 1-3.5 2.4-3.5 2.8 0 .2 0 .3.4.4 1.9.5 1.8.4 1.4 1.1a9 9 0 01-3 2.4c-1.8 1.1-1.9 1.2-1.7 1.4.4.3 1.6.4 3 .1l1.5-.2h.7v.3c0 .7-.6 2.1-1.3 3.2-.5.6-.5 1-.1 1l.6-.2z" fill="#00843d"/><path d="M219.3 202c.5-.2.7-.6.5-1.2-.3-.8-.2-.9.4-.6.4.2.4.2.6 0 .2-.1.3-.3.4-.8l.2-.4.5.3c.7.5 1.2.5 1.5-.2v-.5c-.1-.3-.3-.4-1-.6-.2 0-.3-.1-.3-.2l.3-.3c.2-.3.3-.4.2-.6 0-.4-.1-.5-.5-.7-.4-.1-.3-.2.1-.5.6-.3.7-.6.5-1.1v-.5l.3-.2c.4 0 .8-.6.8-.8 0-.7-.3-.9-1.2-.8-1 0-1.5.3-2.4 1.3-1 1-1.6 2-2.2 3.7a6 6 0 00-.4 2.3c0 2 .2 2.7 1 2.7l.7-.2zM101 201.6c.4-.1.5-.4.6-1.3a10 10 0 00-2.2-6.8c-1-1.2-1.8-1.7-2.7-1.7-.7 0-.9 0-1.2.4v.5c.1.4.4.6.8.8.5.1.5.1.3.4-.1.3-.2.8 0 1l.4.3.4.3-.4.3c-.4.1-.4.3-.4.6 0 .2 0 .4.3.6.3.3.2.5-.2.5-.3 0-.9.5-1 .7l.4.8c.3.2.7.1 1.1-.2l.6-.3c.1 0 .2.2.2.5s.4.8.6.8l.5-.2c.4-.2.5 0 .4.5-.2.4-.2.9 0 1.1 0 .2.8.6 1.1.6.1 0 .3 0 .5-.2zM236.4 200c.2-.2.2-.3.2-.5-.2-.7-.2-.6.6-.7 1.3 0 2-.4 2.4-1 .1-.2.2-.4.1-.8v-.5h1.4l1.6-.1c.8-.5.3-1.7-.8-2.4-.6-.3-1-.4-1.5-.2a8 8 0 00-1.8 1.8c-.2.2-.8 1-1.5 1.5-1.1 1-1.9 1.9-2 2.3-.2.3-.1.6.2.7.4.2.8.2 1 0zM84 199.4c.2-.2.2-.3.2-.6 0-.2-4.8-5.1-5.3-5.5a1 1 0 00-.6-.2c-1 0-2.2 1-2.2 1.8s.3.9 2 .9h1.3v.5c0 .6 0 1 .5 1.3.5.3 1.1.5 2 .6.8 0 1 0 .8.4-.2.8.5 1.2 1.2.8zM231.8 198.1c.8-.1 1.4-.3 1.9-.7.8-.6 2.5-2.3 3.2-3.4a6.5 6.5 0 00.7-2.9c0-1-.2-1.8-.5-2.2-.6-.7-2.7-.4-3 .5 0 .3-.2.3-1 .1-1-.3-1.5-.3-2-.1-.6.1-.8.3-.9.8 0 .5.1 1.1.6 1.6l.4.5-.4.3c-.4.2-.5.3-.6.8-.2.6.2 1.7.7 2.3l.3.4h-.5c-.3 0-.4.1-.7.4-.2.2-.3.3-.3.6 0 .9.8 1.2 2.1 1zM89 197.4l.3-.3c.4-.7 0-1.5-1-1.5-.4 0-.5-.1-.2-.4.5-.3 1-1.3 1-2 0-.5-.3-1-.7-1.2l-.3-.2.3-.5c.5-.5.5-.7.6-1.2.2-1.2-1-1.6-2.9-1.1-.9.2-1 .2-1-.3l-.7-.5a2 2 0 00-1-.2l-1 .1c-.3.3-.6.8-.7 1.5-.3 1.5.1 3.2 1.3 4.6l.7 1c.3.3 1.3 1.3 1.9 1.6.9.7 2.6 1 3.3.6zM248 195.8l.5-.5c.3-.6 0-2.2-.5-2.7-.2-.2-.3-.2-.7-.2l-.7.2c-.3.2-.6.7-.6 1.1 0 .8.6 1.8 1.1 2 .5.3.5.3.9 0zM252 195.4c.3-.3.3-1-.2-1.8-.6-1.2-1.8-2-2.3-1.5-.6.5 0 2 1.3 3.1.5.4.9.5 1.1.2zM72 195c.9-.3 1.5-1.8 1-2.6-.2-.4-.6-.6-1.2-.6l-.6.1c-.3.3-.6 1.3-.6 2 0 .6.2 1 .6 1.1.4.2.4.2.8 0zM68 194.7c.8-.3 1.8-1.8 2-2.6 0-.8-.5-1-1.3-.7-.7.4-1.6 1.7-1.7 2.5 0 .4 0 .4.3.7.2.3.4.3.8.1z" fill="#ffa300"/><path d="M249 192.7c0-.2-.1-.5-.3-.5-.2 0-.2.3 0 .6 0 .2.1.2.2-.1z" fill="#121212"/><path d="M70.7 191.8c0-.2 0-.3-.2-.2-.1 0-.2.3 0 .4 0 .1.2 0 .2-.2zM255.3 191.8c.8-.4.3-1.6-.8-2a8 8 0 00-1.4-.1l-1.2.1c-.3.3-.4.8-.1 1.2.3.4.8.8 1.3.9h2.2zM66.5 191c.5-.2 1-.6 1-.9.1-.3 0-.7-.1-.9-.4-.3-2.3-.2-3 .2-1 .4-1 1.6-.2 1.7.9.2 1.7.1 2.3-.1zM247.7 190c.7-.6.7-1.7 0-2.7-.6-.9-1.8-1-2.2-.2a2 2 0 00-.1 1.5c.2.7.5 1.2 1 1.5.5.3 1 .3 1.3 0z" fill="#ffa300"/><path d="M249 190c0-.2-.3-.4-.4-.4l-.2.2c0 .2.1.2.2.2h.3z" fill="#121212"/><path d="M73 189.4c.4-.4.6-.6.8-1.2.5-1.6-.3-2.6-1.5-2.1-.7.4-1 .8-1.2 1.6-.2 1 .3 2 1.2 2l.6-.3zM250.8 189.6c1-.3 1.4-1.6.9-2.3-.4-.5-1.2-1-1.8-1-.4 0-.5 0-.8.3-.3.4-.5.7-.5 1.3l.4 1.4c.3.3 1.1.5 1.8.3z" fill="#ffa300"/><path d="M70.8 189.2c.1 0-.1-.3-.3-.2v.2c0 .2.2.2.3 0z" fill="#121212"/><path d="M70 188.8c.4-.3.6-.8.6-1.5s-.1-1-.5-1.3c-.7-.6-2.4 0-2.7.9-.2.9.2 1.7 1.1 2 .4.1 1.3 0 1.5-.1z" fill="#ffa300"/><path d="M248.6 186.8c.4-.7.6-.8 1.3-.8.6 0 .7 0 1.3.4l.6.3c.2 0 2.3-1.5 3.1-2.3a26.3 26.3 0 006.4-7v-.4c0-.2-.5-.1-1.5.2-1.6.5-2.1.9-4.7 3l-1.6 1.2-2 1.8a99 99 0 01-3.6 3.5c0 .1.2.5.3.4l.4-.3zM71.3 186.3a48.7 48.7 0 01-2.7-2.8 59.5 59.5 0 00-7.5-6.1c-1-.5-2.5-1-2.9-1-.6 0-.2.7 1.8 3 1.9 2.3 6.8 6.6 7.4 6.6l.7-.3c1.1-.5 2.2-.4 2.7.4.2.4.3.5.5.2z" fill="#00843d"/><path d="M221.8 183.5c.9-.4 1-1.6.1-2.5l-.5-.4c-.4-.2-.3-.4.4-.7l.9-.6c.3-.3.5-.9.4-1.2 0-.3-.5-.8-1-.9h-1.9c-.2.2-.5.2-.5.2v-.5c.3-1.3 0-2.5-1-3l-1.4.1c-.8.4-1 2.1-.4 3 .3.4.3.6.1.6l-.7-.2c-1.4-.6-2.4-.1-2.3 1 0 .3 0 .4.3.6.4.3 1 .5 2 .6l.7.1-.4.4c-.7.3-1.5 1-1.8 1.5-.2.5-.2 1 .1 1.4.3.4.6.6 1.1.6.4 0 .5 0 .8-.3.4-.3.8-.8 1.4-1.8l.5-.7.2.5c.4 1.2 1.5 2.3 2.4 2.4l.5-.2zM103.8 183.1c.4-.2.7-.6.8-1 .1-.6-.5-1.5-1.7-2.2l-.6-.5c0-.2 0-.2.8-.2l1.1-.1c1-.3 1.4-1.2.8-1.9-.2-.2-.3-.3-.9-.3-.4 0-.7 0-1.1.2-.9.2-1 .2-.6-.4.2-.4.3-.7.3-1.4 0-.8-.2-1.4-.7-1.6-.7-.4-1.7-.1-2.1.7-.3.4-.4 1.3-.3 2l.1.7-.6-.2c-.9-.2-2 0-2.4.2-.4.3-.5.4-.5.8 0 .6.6 1.2 1.5 1.7l.5.3-.3.3c-.4.2-.7.5-1 1.1-.3 1 .2 1.9 1.2 1.9.4 0 .8-.3 1.4-.8.4-.5.6-.8.8-1.5l.2-.5.4.4 1 1.6c.8.8 1.3 1 2 .7zM244.5 182a4 4 0 001.6-1l.6-.4.2.3c.4.7 1.2 1.1 2 1.2.7 0 1 0 1.3-.5.2-.6 0-1-1-2.2-.7-.8-.8-1-.5-1 1.5.4 1.5.4 2 .3.8-.2 1.3-.4 1.7-1 .2-.3.2-.4.2-.9 0-.6-.3-1-.7-1.3-.6-.4-1.6-.2-3 .6l-.8.4c-.1 0-.3-.3-.4-.7-.4-.7-1-1.5-1.6-2-1.5-1-3.4-1-4 .1-.3.6 0 1.5 1 2.4.7.7 1.2 1 2.1 1.6.7.3.7.4 0 .5l-2.1.8c-.8.4-1.4 1-1.5 1.6 0 .5 0 1 .2 1.1.4.4 1.8.5 2.7.2zM77.2 181.6c.4-.1.5-.4.5-1 0-.7-.3-1.2-1.2-1.8l-2.5-1-.5-.1.4-.3a7 7 0 002.3-1.5c.8-.8 1-1.4 1-2 0-.4 0-.5-.2-.8-1.2-1.1-3.7-.3-5 1.6l-.4.8c-.2.6-.2.6-1.3 0-2-1-2.8-1-3.3 0-.4.7-.4 1.4 0 2 .4.3 1.2.7 2 .7l1.6-.3c.4-.1.2.2-.5 1-1 1-1.3 1.7-1 2.2.3.3.7.6 1 .6.3 0 1-.3 1.4-.5l1-1 .1-.2.7.6c.6.6 1.2 1 1.8 1 .6.2 1.7.2 2 0z" fill="#ffa300"/><path d="M249.3 175.5c1.2-.6 1.8-.7 2.5-.5.5.2.6.2 1 0a9.3 9.3 0 002.5-1c.2 0 1.2-.8 2-1.6l1.2-1c.7-.4.3-.5-1.6-.5-2.6 0-4.8.5-6.6 1.7l-.6.3a94.7 94.7 0 002.8-7.9l.8 1c.7 1.2 1.3 2 2 2.4 1 .6 1 .2 0-1.6l-.6-.8c0-.2-.5-1-1-1.6-1-1.6-1-1.7-.6-2.5.5-1 1-1.4 3.2-3l3.8-3.3c1-1 2.4-3 2.3-3.3 0-.2-.4-.2-1.3 0-1.2.3-2.7 1.1-3.9 2a69.1 69.1 0 00-3.3 2.9V155l.6-4.4c.2-1.5.2-1.8 0-2.3-.2-.5-.4-.6-.8-.3-.2 0-.4.2-.5.3l-.1 2c-.1 2.8-.6 5.6-1 5.6-.1 0-.2-.1-.5-1a18 18 0 00-3.8-6.7c-.3 0-.4.3-.4 1.6 0 1.5.2 2.7.7 3.7.5 1 1.5 3 2 3.5.4.4.7 1 1 2 .6 1.4.6 2.5.3 4.3-.8 3.7-1.8 6.8-2.6 8-.4.5-.5.5-.8-.5a22 22 0 00-3-6.8c-.6-.7-1-1-1.1-1-.1 0-.2 0-.2.6s0 1.4.4 2.7c.6 2.8.6 3 .3 3s-1-.5-1.3-.8c-.3-.3-.7-.4-.7-.2a8.7 8.7 0 002.3 4.4l.8.3c1 .5 1.7 1.2 2.6 2.7l.2.2 1-.5zM71.5 174.9c.1-.4.5-.8.9-1.2.6-.6.8-.7 1.6-1.1l1-.4.4-.8c.6-.8 1-1.9 1.4-2.6.2-.7.2-.9 0-1 0 0-.2 0-.5.3-.7.6-1.5.9-1.5.6l.7-3.7c.2-.9.3-2 .2-2.2 0-.2-.1-.3-.2-.3-.3 0-1.1 1-2 2.5-.7 1-1.8 3.8-2.1 5.2-.2.8-.3 1-.4 1-.3 0-.6-.5-1.3-2.1-.8-2-2-7-2-8.2 0-1.3.7-3.3 1.5-4.3.5-.7 1.5-2.3 1.8-3 .8-1.6 1-2.6 1-4.4 0-1.2 0-1.4-.2-1.6-.1-.1-.1 0-.6.4a19.6 19.6 0 00-3.5 6.4c-.2.8-.3 1-.5 1-.4 0-.8-3.3-.8-6 0-1.6 0-1.7-.6-2-.4-.3-.6-.3-.8.2-.3.6-.3.8-.1 1.8a103 103 0 01.6 7c0 .3-.3.1-1.6-1.1a14 14 0 00-4.5-3.3 6 6 0 00-2.3-.6c-.4.1 0 .8 1.2 2.4a19.6 19.6 0 003.7 3.6l1.1.9c1.6 1 2.7 2.1 3 2.9.5.8.4 1-.7 2.9a22.7 22.7 0 00-2.1 3.7c0 .2 0 .2.3.2s1.2-.8 1.6-1.3l.8-1.2c.9-1.4.9-1.4 1-.6a21 21 0 001.6 4.8c.9 1.9 1.1 2.6 1 2.7l-.2-.2-3-1.4c-1.7-.5-2.2-.5-4-.5-1.5 0-1.9 0-1.9.3l.4.3 1.2 1a9.2 9.2 0 003.8 2.4c.9.3 1.2.3 1.5.1.5-.2 1.6 0 2.8.6.8.5 1 .5 1.3-.1z" fill="#00843d"/><path d="M235.2 169.7a4.3 4.3 0 002.6-2c.3-.6 0-1.2-.6-1.4-.7-.2-1.3 0-2.5 1.2-1 .8-1.4 1.8-1 2.2.3.2.9.2 1.5 0zM85.6 169.2c.3-.3.2-.5 0-1.1l-1.1-1.3c-1-.8-1.2-1-1.7-1-.7-.1-1.3.3-1.3.8 0 .6.8 1.7 1.5 2.1.5.4 1.4.7 2 .7.4 0 .5 0 .6-.2zM257.3 166.4c.3-.2.6-.9.6-1.3v-.5l.7.3c.6.3.7.3 1.4.4.7 0 .8 0 1-.2.4-.2.6-.7.6-1.2 0-.4-.3-1-.7-1.3l-1-.6-.6-.4.1-.5c.2-.5.1-1-.2-1.6-.3-.6-.7-1-1.3-1-.4 0-.6.1-1.2.5-2 1.3-3.4 2.7-3.4 3.6 0 .6.2.9 1 1.2l.7.6c.2 1 .3 1.2.7 1.6.6.6 1 .8 1.6.4zM63.5 165.4c.4-.4.5-.6.6-1l.2-.6c0-.3 0-.4.6-.5 1.4-.5 1.5-1.6.2-3l-2.4-2c-.8-.4-.8-.4-1.3-.4-.4 0-.6 0-.8.3-.7.4-1 1.5-.7 2.3v.5l-.4.2a3 3 0 00-1.5 1.1c-.3.6-.4 1-.2 1.6.1.4.2.5.5.6l.7.2c.5 0 1.4-.2 2-.5l.4-.2v.3c0 .4.2 1 .5 1.3.2.3.3.3.7.3.4 0 .4 0 1-.5zM222.5 165.7c.1-.1.2-.2.1-.6 0-1.2-2-3.9-3.3-4.5-.9-.4-1.8-.2-1.8.4 0 .4.6.8 1.4.8.3 0 .4.1.2.4-.2.4-.1.9 0 1.3.3.5.8.7 1.6.6.6 0 .7 0 .5.3-.2.3-.1.8.3 1.2.4.3.7.4 1 .1zM97.7 165.3c.5-.2.8-1 .5-1.3-.3-.2 0-.3.6-.3l1-.1c.6-.4.8-1.1.5-1.7 0-.2-.1-.4 0-.4l.5-.2c.5 0 .6 0 .8-.3.5-.5.3-1-.4-1-.7-.1-1.6.4-2.5 1.4-1 1-1.9 2.7-1.9 3.5 0 .5.4.7 1 .4z" fill="#ffa300"/><path d="M65 163.9s0-.1-.1 0h-.2c0 .1 0 .2.1.1l.2-.1z" fill="#121212"/><path d="M249.4 163.7c.7-.2 1.4-.6 1.6-.9.1-.1.3-.5.3-.8.2-1.3-.6-3.9-1.6-5-.5-.4-.9-.6-1.8-.6-1 0-1.3 0-1.6.4-.6.7-.1 1.6 1.3 2.4.6.3.6.5.2.7-.5.2-1 .8-1.2 1.3-.3.7-.2 1.6.2 2 .5.6 1.6.7 2.6.5zM231.5 163.3c.7-.4.7-1 0-1.8-.3-.3-.2-.4.6-.4.5 0 .7 0 1-.2l.5-.5c.4-.6.2-1.4-.4-1.8-.3-.2-.5-.4-.3-.4.3 0 .7-.3 1-.6l.2-1.2c0-.6 0-.8-.2-1.1-.3-.5-.6-.8-1.3-.8a3 3 0 00-2 .8l-.2.2-.2-.2-.3-.5-.5-.5c-.3-.3-.4-.3-1-.3l-.9.1-.2.5c-.1.3 0 1 .3 1.3.3.4.2.5-.9.5h-1.2c-.4.3-.6.7-.6 1 0 .5.4 1 1 1.2.4.3.4.5-.2.6-.5 0-.9.3-1 .7-.3.4-.2.7 0 1.1.3.7 1 .8 1.8.3l.5-.3v.5c0 .5 0 .6.3.8.5.7 1.4.9 2 .5.4-.3.5-.3.6 0 .3.5 1 .7 1.6.5zM72.2 163c.7-.4 1-1.7.5-2.6-.2-.4-.8-1-1.2-1.2-.2 0-.3-.2-.3-.3l.6-.4c.6-.3 1.2-.8 1.4-1.2.3-.5.1-1-.4-1.4l-1.2-.1h-1c-1 .4-1.6 1.3-2.2 3.1-.4 1.2-.5 2.3-.3 2.8.3.6 1 1.1 1.8 1.4a5 5 0 002.3-.2zM89 162.8l.5-.5.3-.3.4.2c.6.4 1.3.3 1.9-.3.2-.2.2-.3.3-.9v-.5l.4.2c.9.7 1.9.5 2.1-.2.2-1-.2-1.6-1.2-1.8l-.6-.2.5-.4c.8-.4 1.1-1 .8-1.6-.2-.6-.4-.6-1.6-.6h-1c-.2-.2-.2-.3 0-.5.4-.3.5-1 .3-1.6-.1-.4-1-.6-1.8-.3-.3.2-.8.7-1 1.1l-.1.3-.5-.3c-.8-.6-2-.8-2.6-.5-.4.2-.7.8-.8 1.4 0 .9.4 1.9 1 2.1.2 0 .3.2.3.2l-.2.2c-.4.1-.7.6-.7 1.1 0 .6.1 1 .6 1.2.4.2.5.3 1 .3.9 0 1 .1.6.5-.6.6-.7 1-.3 1.4.4.4 1 .5 1.4.3z" fill="#ffa300"/><path d="M224.5 158.1v-.4c0-.5.2-1 .5-1.3.3-.3.7-.4 1.4-.4l.6-.1v-1.6c.3-.5.5-.7 1.2-.7l1 .1c.5.2.7.2 1 0v-1.4c-.4-.5-1.2-.8-1.8-.6-.3 0-.8.6-1 1-.1.1-.1.1-.6-.1a2 2 0 00-1-.2c-.8 0-1.5.2-1.8.5-.3.2-.3.2-.3.6l.2 1.1c.2.3.3.6.2.7l-.4.2c-1.2.2-1.4.7-1 1.7.2.6.3.8.9.9h.9zM96.3 157.5c.3-.2.4-.4.6-1 .2-.8 0-1.2-.9-1.4-.7-.3-.7-.3-.5-1 .3-.7.3-1.4.1-1.6l-.6-.4a3.6 3.6 0 00-2.8.2l-.2-.3c-.3-.6-.7-.9-1.4-.9-.5 0-1 .3-1.3.7v1.3c.3.2.4.2 1 0s1.1-.2 1.7 0c.4.2.6.8.5 1.6v.7h.6c1.2.1 1.8.7 1.8 1.6 0 .6.1.7.7.7l.7-.2z" fill="#ffa300"/><path d="M230.7 154c.3-.5.8-.9 1.7-1.3 2.4-.9 3.5-1.4 4.7-2.1a17.2 17.2 0 004.5-4.9l.6-1c.7-.8.7-1 .5-1-.3-.2-3 1-3.8 1.6a76 76 0 01-6.3 4c0-.2 1-1.2 2.7-2.7 4-3.6 5.8-5.4 6.7-6.8.6-.7.3-.9-.6-.5-.7.3-2 1.2-2.6 1.7l-1.8 1.5a40.5 40.5 0 00-5 4.9v-1.2-.4h-1.1v-1.1l.5-2.4c.8-3.5.9-3.6.6-3.7-.1 0-1.1.5-1.3.8l-.3.6a96 96 0 00-.7 4.4c-.4 3.3-.4 3.1-.7 3.1l-.5-.3c-.5-.5-.7-.3-1 1v1.3c.1 1-.2.8-1.1-.6-.9-1.2-1.5-1.9-1.8-2-.3-.1-1.1-.2-1.3 0-.2.2 0 .4.4.6a8 8 0 012.5 3c.5 1 .9 1.5 1 1.5l.4-.2a2 2 0 011.2-.5c1.4 0 2.3 1.4 1.6 2.6-.2.3-.3.5-.2.6.2.1.3 0 .5-.4zM89.3 153.8l-.2-.6c-.2-.3-.2-.4-.2-1s.3-1 1-1.3c.6-.3 1.3-.2 2 .3l.4.3c.2 0 .3-.3 1.1-1.7A8.1 8.1 0 0196 147c.3-.2.5-.6.2-.7l-1.2.1c-.3.2-1 1-1.7 2s-.9 1.1-1 1.1c-.2 0-.2 0-.2-1 0-1.3-.2-2.1-.5-2.1-.1 0-.4 0-.5.3l-.5.2c-.2 0-.4-.4-.4-.8a24.4 24.4 0 00-.5-4c-.4-2.8-.6-3.3-1.2-3.7-.7-.5-.7-.6-.9-.4l-.1.3.4 2c.5 2 .8 3.3.9 4.3 0 .6 0 .7-.6.6-.5-.2-.6 0-.5.5 0 .6 0 1-.2 1l-.8-.9a32.6 32.6 0 00-9.3-7.3c-.1 0-.1.1 0 .4.7 1.1 2.4 2.9 5.6 5.8a38.4 38.4 0 014 4 172.4 172.4 0 00-5.1-3.3c-1.3-.8-3.2-1.9-4.3-2.3-.8-.3-1-.1-.5.5.5.7.9 1.3 1 1.7l1.3 1.7a17.3 17.3 0 008.2 5.3c.6.3 1.2.9 1.3 1.3.2.4.4.6.5.2z" fill="#00843d"/><path d="M221.5 150.8c.8-.4 1.2-1.3 1.4-3.3v-1.1h.8c1-.1 1.4-.2 2-.6.6-.3.7-.6.7-1.4 0-.6-.2-.9-.7-1.2-.3-.2-1.3-.3-2 0l-.4.1v-.7c.2-.6.2-.8.1-1.2 0-.7-.2-.9-.7-1.2-.5-.4-1-.4-1.4 0-.4.4-.8 1.2-.9 1.8 0 .6-.2.8-.4.5-1.2-1.7-1.9-2.1-2.8-1.9-.8.2-1.2.9-1.1 1.6 0 .4.6 1.1 1.2 1.6l.4.5s-.1.2-.4.2c-1 .2-1.4.8-1.2 2 0 .6.3 1 .7 1.3.4.3 1 .4 1.7.2s.7-.2.6.3c0 .8.4 2 1 2.6.2.2.3.2.7.2l.7-.3zM257.6 151c.2-.1.3-.3.4-.6v-1c0-.3-.1-.8-.3-1l-.1-.5.9-.3c.4 0 1-.2 1.1-.3.8-.4 1.1-1.3.8-2-.3-.8-1.2-1.2-2.2-1h-.7c-.3.1-.3-.1 0-.7 1.3-2 .9-3.7-.8-3.7-.5 0-1.2.4-1.5.8a4 4 0 00-.7 1.4c0 .3-.2.2-.5-.1a6.3 6.3 0 00-2.5-1.3h-.7c-.3.2-.4.5-.3 1.2 0 .9.4 1.7 1 2.3l.7.5c.1.2.2 0-1.3 1.5-1 .9-1.2 1.5-.7 2l.3.4h.8c.7 0 .7 0 1.4-.4a9 9 0 001.1-.7l.6-.3.2.6c.3 1.2 1.4 2.8 2.1 3.2.4.2.6.2.9 0zM99.3 150.5c.6-.3 1-1.4 1-2.4l.1-.7h.5c.4.2 1.1.3 1.5.1.3-.1.6-.4.8-.8.2-.3.2-.5.2-1.1 0-.7 0-.7-.2-1-.2-.2-.5-.4-.9-.5l-.5-.3.4-.4.8-.9c.3-.3.4-.5.4-.9 0-.8-.3-1.3-1.2-1.5-.6-.2-1.2 0-1.7.6l-.8 1c-.3.6-.5.5-.6-.1 0-1-.5-1.8-1.1-2-.5-.3-.8-.3-1.2 0-.6.5-.8 1.5-.6 2.6v.6l-.5-.2c-.7-.2-1.3-.2-1.8 0-.3.1-.4.2-.5.6-.6 1.2 0 2.1 1.5 2.4l1.1.2.6.2.1 1c0 1 .2 2 .5 2.4.2.5.7 1 1.1 1 .5.2.7.2 1 .1zM62.7 150.2c.7-.4 1.7-1.9 2-3l.4-.7s.4.1.7.4c.9.6 1 .7 1.8.9 1.2.3 1.8 0 1.8-1 0-.6-.5-1.2-1.4-2-.5-.3-.8-.6-.8-.7l.4-.3c1-.5 1.7-2.5 1.3-3.5-.1-.5-.6-.6-1.7-.2-.9.4-1.5.8-1.8 1.1l-.3.3-.2-.5c-.3-.9-.7-1.4-1.6-1.7a2 2 0 00-1.5 0c-.3.3-.7 1-.7 1.5 0 .6.3 1.4.8 2.2l.3.4H61c-1.1 0-1.1 0-1.5.3-.5.3-.8.7-.8 1.2 0 1 .9 1.8 2.4 2l.5.2c.2 0 .2.1 0 .7-.6 1.2-.3 2.6.5 2.6l.5-.2zM235 141.6c.4-.2.5-.6.5-1.3 0-1-.2-1.3-.8-1.9-.9-.8-.8-.9.4-.5.9.2 2.2.2 2.6 0 .5-.3.8-1 .7-1.7-.1-.7-.7-1.1-1.9-1.3H234c-.3 0-.3-.1 0-.3.5-.2 1-.8 1.2-1.3.2-.6.3-1.6.1-2.1-.2-1-1.3-1.5-2.3-1.2-1 .3-1.6 1.4-1.7 3.1l-.1 1-.5-.5c-.8-1.3-1.9-2-2.8-1.8-.8.2-1.3.9-1.2 1.6.2 1 1.6 2.2 3 2.5.4.1.6.3.4.4l-1 .4c-2 .7-2.8 1.2-3.2 1.9-.3.7 0 1.4.6 1.7l.9.1c.9 0 1.1-.1 2.1-.8l2.2-1.5c.6-.4.7-.4.7.3.2 1.2.8 2.7 1.4 3.1.4.2.9.2 1.2 0zM85.5 140.9c.3-.2.8-.6 1-1l.6-2 .1-.8s.4.1 1 .7c.8.6 2.4 1.6 3 1.8.5.2 1.3.3 1.8.2.6-.2 1-1 .7-1.7-.3-.7-1.4-1.4-3.3-2l-1-.5c0-.2.2-.2.6-.3.8-.2 1-.4 1.7-.9 1-.8 1.4-2 1-2.6-.4-.4-.9-.6-1.4-.6-.9 0-2 .8-2.6 1.8l-.4.5-.1-.6c0-.6-.2-1.7-.4-2.3-.3-.6-.9-1.1-1.3-1.3-.7-.2-1.5 0-2 .4-1 1-.4 3.5.9 4.2.4.2.5.4.1.4H82.4l-.4.2c-.7.3-.8.6-.8 1.2 0 1.6 1.2 2 3.6 1.3.5-.1.7 0 .6.2l-.5.5c-.5.4-.6.6-.8 1.5v1c.1.7.8 1 1.4.7z" fill="#ffa300"/><path d="M161 188.5c-.3 0-.3-.1.7-3.7a338 338 0 002.9-10c.1-.1 1.8-.3 2.9-.3h.4l.2.5.4.7a246.3 246.3 0 014.8 12c-.1 0-2.6.3-2.8.2l-.3-.2-.7-1.7-.3-.5a26.8 26.8 0 00-4.4.3c-.2 0-.3.4-.5 1.2l-.5 1.3-1.2.2a36 36 0 00-1.7 0z" fill="#121212"/><path d="M163.4 187.9c.2 0 .2-.2.6-1.5l.4-1 2-.3 2.4-.1c.6 0 .7 0 1 .6a7 7 0 00.8 1.7c.2.2 1.6.1 2 0 .1-.2.1-.5-.2-1.2a56.5 56.5 0 01-1.8-4.1 150.9 150.9 0 01-3-7 10.7 10.7 0 00-2.7.3l-.4 1.1-.5 1.9-2.6 9.2c0 .5.1.5 1 .5l1-.1z" fill="#ffa300"/><path d="M165 183.2l.5-2a37.5 37.5 0 001-3.7l.6 1.3a120.8 120.8 0 001.6 4.2c-.1.2-.5.2-2.3.3H165z" fill="#121212"/><path d="M167.2 182.7c.8 0 1-.2.8-.6-1.3-3-1.3-3-1.5-2.8l-.5 1.7c-.4 1.3-.4 1.6-.3 1.7 0 .1.6.2 1.5 0z" fill="#0033a0"/><path d="M154.3 188.3h-.9l-.2-.5a105.7 105.7 0 00-1.6-6 196.4 196.4 0 01-2-7.3c.1-.2 2.8 0 3 .1l.2.7a1666.6 1666.6 0 002.3 8.1l.1-.2.5-1.3a125 125 0 002.1-6c.3-.8.4-1 .6-1 .2 0 1.7 0 2.4.2.4 0 .4 0 .4.3l-.4 1a609.7 609.7 0 00-4.4 11c-.4 1.1-.4 1-2 1z" fill="#121212"/><path d="M155.7 187.8l1.6-3.8a163.6 163.6 0 012.4-5.8c.8-2.2 1-2.5.8-2.6l-1-.1c-1-.1-1-.1-1.3.6a79.3 79.3 0 00-2 5.8l-1.2 3.3c0 .3-.2 0-.5-.8 0-.5-.2-1-.3-1.3a264 264 0 00-2-8l-1-.1c-1.1 0-1 0-.6 1.5a330.3 330.3 0 013.1 11.2l.7.2a400.5 400.5 0 011.3 0z" fill="#ffa300"/><path d="M144.2 187.3a133.4 133.4 0 00-8.6-2l-.7-.3c0-.1 0-.9.3-1.7l.2-1.1a375.2 375.2 0 012.7-10.2h.6a74.5 74.5 0 007 1.6c1.6.4 1.7.4 1.8.7l-.5 2.2-.3.2a67 67 0 01-3.4-.8c-2.8-.7-2.9-.7-3-.4l-.5 2c.1.2.2.2 2.4.7 3.3.7 3.6.8 3.6 1l-.6 2.4-.9-.1a87 87 0 01-5.2-1l-.6 2.4.2.3a64.1 64.1 0 006.2 1.5c.4 0 .5.2.2 1.3-.4 1.4-.4 1.4-1 1.3z" fill="#121212"/><path d="M144.4 186.6l.2-.7c.3-.8.3-.8-1.6-1.2l-4.7-1.1c-.3-.1-.3-.4 0-1.8.4-1.8.5-2 .7-2l5.2 1.2c.5.1.7 0 .8-.3l.2-.8v-.5h-.4a147 147 0 00-5.2-1.3c-.4-.1-.4-.3-.1-1.3a35.5 35.5 0 00.5-2c.1-.1.4 0 1.8.3l4.4 1c.3 0 .4-.1.5-.3.2-.4.2-1.3 0-1.4l-2.2-.6a271.3 271.3 0 01-6-1.2c-.1 0-.3 0-.3.2a54.5 54.5 0 01-1.6 6.3 130.9 130.9 0 01-1.2 5.5c.1.2.2.2 2.3.7 5.8 1.3 6.6 1.5 6.7 1.3z" fill="#ffa300"/><path d="M176.3 187.1l-.5-1.8A5125.5 5125.5 0 01173 174l4-1 1.5-.3c1.4-.4 2-.4 3.1 0 1 .3 2 1.1 2.7 2a6.3 6.3 0 011 2.8c.2.6.4 2.4.3 3.1a7.5 7.5 0 01-.9 3.2c-.4.6-1.1 1.3-1.6 1.6l-2.1.6a140 140 0 00-4.8 1z" fill="#121212"/><path d="M179.9 186c2.9-.7 3.2-.8 3.9-1.6 1.2-1.1 1.8-3 1.6-5.1-.3-2.6-1.1-4.4-2.7-5.5-.7-.5-1.3-.7-2.2-.8-.9 0-1.2 0-4.7.9-2 .5-2 .5-2.1.7l.4 2a782.7 782.7 0 012.6 10l3.2-.6z" fill="#ffa300"/><path d="M178.4 184.3l-.3-.9-.6-2.4c-1-4.3-1.3-5.2-1.1-5.3l3.2-.8c1 0 2.1.7 2.8 2a8 8 0 01.7 4.8c-.5 1.5-1.3 2-3.8 2.5-.8.2-.8.2-1 .1z" fill="#121212"/><path d="M180 183.6c1-.2 1.6-.5 2-.9.9-.9 1-2.3.5-4.4-.3-1-.7-1.7-1.2-2.2-.5-.5-1-.7-1.6-.7-.5 0-2.4.4-2.7.6-.2.1-.2.3 0 1.2a174.5 174.5 0 011.4 5.8c.2.6.3.8.6.8l1-.2z" fill="#0033a0"/><path d="M188.5 183.9v-1a230.5 230.5 0 00-.9-9.8l-.2-3.2a22 22 0 013-1.3 133.2 133.2 0 006.9 7.2 139.7 139.7 0 002.8 3.1c0 .1-.7.5-1.9 1-.9.4-.8.4-1.9-.7l-.8-.8a38.4 38.4 0 00-4 1.7c-.2 0-.2.3-.2 1.4v1.3l-.1.1-2.6 1.2-.1-.2z" fill="#121212"/><path d="M190 183c.6-.3.9-.4 1-.6l-.1-1.2v-1.3c0-.2 3.9-2 4.5-2 .2 0 .3 0 .8.6 1 1.1 1.2 1.2 1.3 1.2l1-.4c.7-.3.8-.4.8-.6l-1.3-1.5a516.4 516.4 0 01-7.7-8c-.2 0-2.3.8-2.4 1l.3 4.4a234.4 234.4 0 01.8 8.7c.1.2.2.1 1-.3z" fill="#ffa300"/><path d="M190.7 177.5l-.4-3.1c-.2-1.9-.2-2.5-.1-2.5l4 4.3a159.5 159.5 0 00-3.4 1.5l-.1-.2z" fill="#121212"/><path d="M192.4 176.7l1-.5-.1-.3c-.2-.4-2.3-2.6-2.4-2.6l-.2.1.4 3.6c0 .2.5 0 1.3-.3z" fill="#0033a0"/><path d="M129.4 183.3c-1.2-.6-1.6-.8-1.7-1l-.3-2a890.6 890.6 0 00-1-6.8c0-.1 0-.1-.2 0l-.2.2-.2.6a99.9 99.9 0 00-2.7 6c-.1.2-.3.2-1.4-.3a121.4 121.4 0 00-1.4-.8 68.6 68.6 0 003.1-7.5 297.8 297.8 0 012.3-4.7 10.6 10.6 0 012.6 1.2l.3 2.1 1 6.8c.2 0 .3 0 .3-.2a70.8 70.8 0 003-6.8c.3 0 2.7 1 2.7 1.2l-.7 1.8a99.6 99.6 0 00-3.2 7.6c-.2.7-1 2.6-1.2 2.8-.1.1-.3.1-1.1-.2z" fill="#121212"/><path d="M130.9 181.6l1.1-2.7.9-2.2a692.8 692.8 0 002-5.2l-.9-.5c-.5-.2-.7-.3-.9-.2l-.4.7c-.7 1.6-1 2-1 2.4a63.5 63.5 0 01-2 4.7c-.3.8-.4.7-.6-1.3a548 548 0 00-1.3-9l-1.6-.7h-.4a791.2 791.2 0 01-4.9 11.2c0 .3.3.5 1 .8.7.3.9.3 1 0a37.5 37.5 0 012-4.6l.5-1a110.7 110.7 0 001.2-2.6l.2.8a2282.7 2282.7 0 001.2 9.5c.1.4.3.6 1 .8l.7.3c.2.1.4.2.5.1l.7-1.3z" fill="#ffa300"/><path d="M184.2 162a39.6 39.6 0 00-4-2.7l-.9-.7a71.4 71.4 0 00-6.7-4.8 34.5 34.5 0 00-3.5-2.4 387 387 0 00-9.4-6.6 60.7 60.7 0 01-7.5 5.2 131.6 131.6 0 01-6.6 4.7 34.8 34.8 0 00-2.6 1.8 145.4 145.4 0 00-7.8 5.6l-.2.1.4-1.3a196 196 0 003.2-9.7 604.1 604.1 0 005.8-17.6l-1.8-1.5a89.6 89.6 0 00-4-3 194.4 194.4 0 00-7.5-5.5 51 51 0 00-3.3-2.4 2712.5 2712.5 0 01-8-6H135c14.2 0 15.2 0 15.3-.2l.8-2.2a172.3 172.3 0 011.9-5.6 1444.2 1444.2 0 016.9-20.7l2.1 6.4a1934.3 1934.3 0 007.4 22.2l8.3.2a4641.6 4641.6 0 0122.2.2c0 .1-1.9 1.6-3.3 2.5a83 83 0 00-4.9 3.6 432 432 0 00-16 11.7c-.1.2-.2 0 1 3.5a572.1 572.1 0 013.7 11.8 948.4 948.4 0 003.8 11.8c.7 2.2.7 2.3 0 1.7z" fill="#121212"/><path d="M184 161l-.5-1.8a1286 1286 0 00-6.6-20.5l-1.7-5.5 3.1-2.3a119.1 119.1 0 006.8-4.9 123.2 123.2 0 017.6-5.6 251.6 251.6 0 016-4.4v-.2h-5.5a1986.5 1986.5 0 01-17.8-.1c-6.2 0-6.3 0-6.4-.4a136 136 0 00-2.1-6.6 850.7 850.7 0 00-7.2-20.7 251 251 0 00-5.7 17c0 .4-.3 1.1-.6 1.8a44 44 0 01-3 8.7h-4.9a1164.6 1164.6 0 00-24.4.3l3.7 2.8 3.2 2.3a179.2 179.2 0 008.2 6.1 226.4 226.4 0 018.6 6.5l-.3 1.1-1.2 3.6a2602.7 2602.7 0 01-7.5 22.7c0 .4.2.3 2.7-1.5a154 154 0 004.7-3.4 118.5 118.5 0 005.8-4.2 460.8 460.8 0 0010.5-7.4h.6a53 53 0 013.8 2.8 90.6 90.6 0 015.7 4 96.5 96.5 0 004 2.9 79.8 79.8 0 005.2 3.7l4.2 3c.7.5 1 .5 1 .1z" fill="#fff"/><path d="M268 141.9c-.7-.2-1.7-.7-2.5-1.2-3-2-5-5.4-6.4-10.2-.5-1.8-1-2.1-3.8-2.8a44.4 44.4 0 01-4.5-1.1 47.2 47.2 0 01-11.9-5.2 35 35 0 01-4.5-3.6 26 26 0 01-2.4-3c-.2-.4-.4-.6-.5-.6l-.9.5c-1.3.9-2 1.1-3.3 1.1a5 5 0 01-2.5-.5c-2-1-3.4-2.1-4.9-4.1l-2-3.4a45.5 45.5 0 00-5-8 39.1 39.1 0 00-4.2-4.9 52 52 0 00-9.5-8.5 53 53 0 00-11.5-6.4 50.7 50.7 0 00-10.7-3.7 73 73 0 00-57.8 11.2A54.1 54.1 0 00106 101c-1.1 1.3-3.1 4.6-4.3 6.8a15.8 15.8 0 01-6 6.6l-1 .4c-.7.2-1 .3-1.8.3l-1.6-.1c-.8-.2-1.4-.5-2.2-1-.3-.3-.6-.4-.7-.4l-.8 1a23.7 23.7 0 01-6.6 6 54.6 54.6 0 01-15 6c-2.5.5-3.2.6-3.8 1-1 .4-1.1.6-1.7 2.4a22 22 0 01-4.6 8.5c-1.1 1-2.7 2-4.3 2.5h-.7c-.2 0-.3-.2-.4-.4 0-.4 0-.6.8-1A7.4 7.4 0 0054 136c1.1-2.2 1.5-3.9 1.7-6.7 0-1.8.1-2.1.7-3a11 11 0 015-4.3 48.1 48.1 0 0015.8-14.6c.4-.7.5-1 .3-1-.3-.3-2.5-.9-6.8-1.8l-3.2-1c-.6-.3-1.3-.9-1.7-1.4-1.4-1.7-.8-4.3 1.6-7.9 1-1.4 3-3.8 4.5-5.2a24 24 0 004.4-5.2c.6-.9.6-1 .1-1.6A23.2 23.2 0 0064 75.6c-1.8-.4-2.3-.7-3.2-2.3L59 71.2c-2.7-3-2.6-2.8-2.7-4.1-.1-1-.3-1.5-.8-2.2-.5-1-1.4-1.7-2.8-2.4-.6-.3-2.4-1-2.8-1-.3-.1-.6-.3-.6-.6l.1-.3c.5-.5 4.4-.3 6.3.3 2.1.6 3.6 1.7 4.7 3.3.6 1 1.2 2.7 1.4 4 0 .5 0 .8.2.9l1 .2a27.5 27.5 0 019.8 2.4c1.9 1 3 1.7 3.8 2.8l1.8 2.8a1436 1436 0 014.5 7.9c.9 1.2 1.5 2 1.8 2l.3-.3 1.1-1.5c2-2.6 2.7-3.4 4.8-5.8a136.5 136.5 0 0113.2-12.1l3.2-2.3a116.6 116.6 0 0115.3-8.6 60.5 60.5 0 018.3-3 98.2 98.2 0 0174 6.7 109.7 109.7 0 0116.9 12.1c2 1.7 7.8 7.7 9.4 9.7a98.5 98.5 0 014.2 5.5 21 21 0 003.6-5.2 29.4 29.4 0 012-3.6l1.4-2.4c1.5-2.2 2.4-3 4.4-4.1.9-.5 2.3-1 3-1.3 2.8-.8 4-1 7-1.3 1.5-.1 1.5-.1 1.6-1 .1-1.2.5-2.6 1-3.6 1-1.8 3-3.2 5.7-3.8.9-.2 1.2-.3 2.7-.3h2.1c.6.1.9.4.8.7 0 .2-.3.3-1.6.7a9 9 0 00-4 2.2c-.7.9-1 1.8-1.2 3l-.2 1c0 .2-.6.9-1.5 1.7a17.3 17.3 0 00-3 3.5c-.3.6-1 1.5-1.6 1.8l-1 .3a22.7 22.7 0 00-12 5.9c-.9.8-1.3 1.4-1.3 1.6a17.5 17.5 0 004.1 5.6c1.2 1.1 2.5 2.5 4.2 4.7 1.2 1.5 2.5 4 3 5.4.2 1 .2 2.3 0 3-.7 1.7-2.3 2.7-5.6 3.4a24378.2 24378.2 0 00-5.7 1.3l-1.1.5c-.3.4 1.7 3.5 3.4 5.5a60.7 60.7 0 009.7 8.3l3 1.8 2.4 1.6c.9.6 2 1.7 2.5 2.4l.5 1.2c.3.7.3.9.4 2.5 0 2.2.4 3.8 1.2 5.7.8 2 2 3.4 3.2 4.3.6.4.8.7.6 1-.1.4-.5.5-1.2.3z" fill="#121212"/><path d="M268.8 141.5c0-.1 0-.3-.3-.5-.8-.6-2-1.8-2.3-2.4a16.8 16.8 0 01-2.5-8.3c0-1.5 0-1.6-.3-2.2l-.5-1a15 15 0 00-4.7-3.8 47.5 47.5 0 01-16.7-15.8 12 12 0 00-3.7 1.3c-.8.3-2.1 1-2.6 1.4-.5.3-1.6 1.4-2 1.9a19.3 19.3 0 01-1.4 1.7c0 .3 1.7 2.5 2.6 3.6a36 36 0 009 6.1l1.4.6a62 62 0 0011.6 3.6c1 .2 1.7.5 2.2 1l.6 1c.6 2.3 1.4 4.6 2.2 5.9a13 13 0 005 5.2c1 .7 2.3 1 2.4.7zM51.8 140.5c2-.6 4-2 5.3-4l.7-1c1-1.3 2-3.9 2.5-6 .4-1.6 1-2.1 2.6-2.6a18.1 18.1 0 012.8-.7l1.4-.3a37.2 37.2 0 005.1-1.5 46.5 46.5 0 0011-5.9 20 20 0 004.8-5.3c0-.2-1.6-2.3-2.3-2.9-.6-.6-2.1-1.6-3.3-2.1a28 28 0 00-4.1-1.5c-.2 0-.4.2-.7.8-.7 1.4-1.8 3-3 4.4a50.7 50.7 0 01-15.4 11.8c-.8.7-2 2-2.5 2.7-.6 1-.6 1.3-.7 3-.1 3-.7 5.1-2 7.5a7.7 7.7 0 01-2.5 2.9c-.6.4-.7.5-.4.8h.7z" fill="#ffa300"/><path d="M228.4 115.4c1.4-.3 3-1.4 4.1-3a9.9 9.9 0 012.4-2.4c1-.7 1.5-1 3.3-1.8 2.2-1 5.6-2 8.5-2.6 1.8-.3 3.3-.7 3.4-.8.2-.2 0-.3-.7-.5-2.2-.5-4.7-2.6-7.4-6.2a49.7 49.7 0 01-3.9-5.5 138.2 138.2 0 01-3.6-5.5 64.7 64.7 0 00-9.7-11.4 66.2 66.2 0 00-10.8-9l-1.6-1.2a64.6 64.6 0 00-6.6-4.2 46.2 46.2 0 00-9.1-4.5 77.8 77.8 0 00-20.9-6 74.2 74.2 0 00-5.7-.7 96.3 96.3 0 00-44.6 5.7 106.3 106.3 0 00-17.5 9.3 203.9 203.9 0 01-6 4.5 59 59 0 01-2.6 2.2 54.4 54.4 0 00-7 6.6l-1.6 1.9a52.1 52.1 0 00-7 8.8 81 81 0 00-3.5 5 73.5 73.5 0 01-3.3 4.5c-1.7 2-3.4 3.4-5 4.2-.7.4-1.8.8-2.1.8h-.3c-.4.3-.2.4 4.3 1.5a57 57 0 017.2 2.1c1.2.5 2.7 1.3 3.5 1.8.9.6 2 1.6 2.7 2.6a7.1 7.1 0 003.8 3c.9.3 1.9.3 3 0 1.9-.4 3.8-1.8 5.6-4.3 1-1.2 1-1.2 2-3a51 51 0 018.3-11.8 79.5 79.5 0 0112.5-10.8l1-.5A65.3 65.3 0 01160.2 74a71.9 71.9 0 0131.1 7.1 57.9 57.9 0 0118.5 14.4l1 1.3a33.3 33.3 0 013.5 4.4 76.6 76.6 0 016 9.7c2.4 3.4 5.3 5 8.1 4.4z" fill="#ffa300"/><path d="M104.1 91.7a1255 1255 0 01-7.7-8.2L100 80c1.4-1.2 2.4-1.8 3.5-1.9.7 0 1.2.1 1.8.5 1 .7 1.5 1.4 1.6 2.5.2.7.1.7 1.1.8.8.2 1.8.6 2.3 1.2l.7 1c.2.5.3.7.3 1.3 0 1.3-.3 2.3-1.4 3.3a53.2 53.2 0 01-4.5 4.3l-1.3-1.2z" fill="#121212"/><path d="M106.1 89.1a18 18 0 002.6-2.6c.1-.3.2-.8 0-1.2 0-.3-.7-1-1-1l-.6-.2c-.6 0-.8.1-2.3 1.7-.9.8-1.2 1.2-1.2 1.3a11 11 0 001.8 2c.4.2.4.2.7 0zM103.3 84l1.3-1.4c.2-.5.2-1-.1-1.4-.5-.7-1.4-.9-2.1-.4-.6.4-2.4 2.3-2.4 2.5l.8 1 1 .9c.3 0 .6-.3 1.5-1.2z" fill="#ffa300"/><path d="M214 92c-1.1-1.1-1-1-.8-2.2a155.7 155.7 0 011.4-5.8c.6-2.8.6-2.9.4-2.9l-1.3 1.3A130.2 130.2 0 01209 87a18 18 0 01-1.8-1.7l2.4-2.6a780.5 780.5 0 016.6-6.9c.2 0 1.9 1.6 1.9 1.8l-.7 3.1-1.4 6.4c.1.2.3 0 .7-.3a217.3 217.3 0 005.4-5.5c.1 0 1.8 1.6 1.8 1.8l-1.1 1.2a209.6 209.6 0 00-6.7 7.1c-.6.7-1.1 1.1-1.2 1.1l-1-.7zM113.3 84.9l-.1-.3a60.2 60.2 0 00-1.3-4.5 594.7 594.7 0 00-2.1-8.3c.3-.3 2.2-1.6 2.4-1.6l.7.4a2868 2868 0 018 5.8c2.5 1.8 2.4 1.8 2.3 2l-2 1.4c-.2 0-.7-.3-1.6-1l-.7-.5-3.7 2.5c-.3.2-.2.4.1 1.7.4 1.3.4 1.2-.5 1.8l-1 .6c-.3.3-.4.3-.5 0z" fill="#121212"/><path d="M114.8 78.3l.6-.5.9-.6c.6-.4.6-.6-.1-1a502.8 502.8 0 01-3-2.1c-.3 0-.2.6.7 3.1.4 1.3.4 1.4 1 1z" fill="#ffa300"/><path d="M204.7 83.6c-.4-.3-1-.6-1.1-.8-.4-.3-.4-.3-.4-.7.1-.6.4-1 1.6-2.7.5-.8.5-1.4 0-2-.3-.4-2.7-2-2.9-2-.2 0-.5.4-1.5 2-1.2 1.7-1.4 2-1.6 2-.2 0-2-1.2-2-1.4l.6-1a233 233 0 005-7.5c.6-1 1.4-2 1.6-2.2.1 0 .5.1 1.3.7l.4.3a41.7 41.7 0 015.5 4.3c.4.7.4 1.4 0 2.3-.2.9-.4 1-1 1.7s-1.2 1-2 1c-.6.1-.7.2-.5.9v1c0 .4-.1.5-.9 1.6-1 1.6-1 1.9-1 2.3 0 .4-.2.6-.3.6l-.8-.4z" fill="#121212"/><path d="M207.7 75.5c1-.5 1.4-1.7.9-2.4-.3-.4-3.2-2.3-3.5-2.3-.1 0-.3 0-.5.3l-1.4 2.1c0 .2.6.7 2.5 2 .8.5 1.3.6 2 .3z" fill="#ffa300"/><path d="M126.2 76.4l-1-1.7a460.6 460.6 0 00-3.9-7.4c-.1 0-1 .3-2.4 1l-1 .4-.6-.9c-.3-.6-.4-.8-.3-1a57.8 57.8 0 019.2-4.6l1 1.8-.7.4A15 15 0 00124 66l1.6 3.5 3 6c0 .2-.2.4-1 .8l-1.2.5-.2-.3zM191 75.6c-1.3-.3-2.4-1-3.2-1.8A5 5 0 01186 70c0-1.1 0-2 .4-3 .8-2.1 2-3.7 4-4.6.9-.5 1.5-.6 2.5-.5a8 8 0 015 2.5c1.4 1.7 1.5 4.8.3 7.2a7.5 7.5 0 01-4 3.9c-.8.3-2.3.3-3.2.1z" fill="#121212"/><path d="M193.2 73.1c1.7-.5 3-2.6 3.3-4.9.1-1.5-.6-2.8-2.1-3.5-.6-.3-.7-.3-1.6-.3-.8 0-1 0-1.3.2-.8.4-1.7 1.4-2.3 2.5-.7 1.5-.8 3.3-.2 4.4.3.5 1 1.2 1.7 1.4.7.4 1.7.4 2.5.2z" fill="#ffa300"/><path d="M136.3 72.1l-.8-2.3c-2.6-7.6-2.6-7.5-2.8-7.6l-.8.2-1.6.5c-1.3.4-1.1.5-1.5-.4-.3-1-.4-1.3-.3-1.4a64 64 0 018.2-2.8l1-.4c.6-.1.6-.2 1 1 .2.7.3.9.2 1l-1 .4c-1.5.4-2.3.8-2.4.9l1.5 4.6a934.2 934.2 0 011.8 5.7l-2.3.8-.2-.2zM179 70.8a63.8 63.8 0 01-5.8-1.6l.2-.8c0-.4.3-1.2.5-1.9a201.8 201.8 0 012.8-9.9l1.1.3 3.7 1c1.9.5 3 1.1 3.6 2.1.2.4.2.5.2 1.6 0 1 0 1.1-.2 1.5a5 5 0 01-.8 1l-.6.7.1.3c.6 1.2.7 2 .5 3 0 .3-.2.8-.4 1-.3.6-1.1 1.4-1.7 1.6-.4.2-.6.3-1.6.3-.8 0-1.2 0-1.7-.2z" fill="#121212"/><path d="M181 68.5c.4-.2.7-.5.8-1 .2-.7 0-1.3-.3-1.7-.3-.2-.5-.3-2.5-.8-1.5-.4-1.7-.4-1.9-.1l-.7 2.7c0 .2.5.4 2.8 1a3 3 0 001.8 0zM182.1 63c1-.5 1-2 0-2.6-.2-.1-1.8-.6-3.3-.9-.2 0-.4.1-.5.5l-.1.4a12 12 0 00-.4 1.6c0 .2.2.4 1 .6 2.2.6 2.7.7 3.3.4z" fill="#ffa300"/><path d="M144 69.9l-.4-2.1A530.5 530.5 0 00142 57l1-.3 1.2-.2c.3 0 .4.2.5.7a73 73 0 001 5.4l.3 2.5c.3 1.7.5 2.2.7 2.2l1.2-.3c2.8-.5 4.6-.8 4.7-.7l.1.6a42 42 0 00.2 1.4 51.1 51.1 0 00-8.6 1.7l-.1-.1zM155.2 68.3l-.1-1.5a4527.9 4527.9 0 00-.1-11.5l4.7-.2 4.7.1v2l-1.9.1a130.3 130.3 0 00-4.7.4c-.2.3 0 2.3 0 2.5l3 .1h3.2v2.2h-.3l-3 .2H158c-.2.2-.2.3-.1 1.7v1.5c.2.2.5.2 3.6.1l3.4.1c.2.1.2.3.1 1l-.1 1a310.4 310.4 0 00-9.6 0z" fill="#121212"/><path d="M252.5 103.9c1.2-.6 2-1.8 2-3 0-1.1-.6-2.9-1.2-4a33.9 33.9 0 00-6-7.6l-2-2c-.7-1-1.9-2.8-2.3-3.7-.7-1.3-1.1-2.9-1.1-4.2 0-1-.1-1.1-.4-.8a54.4 54.4 0 00-3.2 5.7 51.7 51.7 0 01-2.6 3.9l.3.5 4 6c1 1.6 2.7 3.8 3.8 5.1 1.2 1.4 2.5 2.6 3.8 3.4 1.3.7 2.2 1 3.6 1l1.3-.3zM70.5 103c.9-.2 2.3-1 3.3-1.7a30 30 0 006.5-7.7 144.4 144.4 0 004-5.8l-.5-.8a47.3 47.3 0 01-3.2-5.2l-2-3.5c-.3-.4-.4-.2-.4 1L78 81a15 15 0 01-3.6 6.1 35.9 35.9 0 01-3.2 3.2l-1 1.2c-1.9 2-2.7 3.2-3.9 5.3-.3.5-.7 1.8-.9 2.5-.3 1.8.7 3.6 2.4 4 .5 0 2 0 2.7-.2z" fill="#ffa300"/><path d="M244 81.9a24 24 0 0111.5-6.1l2-.5a4 4 0 001.5-1.7c.3-.6 1.2-1.7 2.4-2.8l.4-.6a33.2 33.2 0 00-14.3 2c-2.6 1.3-4.6 3.4-5.2 5.5a8 8 0 00.6 5c.1 0 .3 0 1-.8zM77.4 81.8c.7-1.8.7-3.7.2-5a9 9 0 00-3-3.7c-1.1-.7-3.2-1.7-4.4-2.1a31.8 31.8 0 00-12-1.4l.9 1.1 2 2.5c.4.7 1 1.3 1.5 1.6l1.7.5c1.4.3 3.7 1 5 1.6 1 .4 2.6 1.3 4.2 2.4.8.5 2.2 1.7 2.8 2.4.8.8.9.8 1.1 0zM262.5 69.4c.4-.2.8-.5 1-.9l.1-1c.2-1.5.5-2.2 1.4-3.1.5-.6 1.5-1.3 2.2-1.7l1.5-.5c1.8-.6 1.8-.7.1-.8-2.9-.2-5.5.5-7.3 1.8a6 6 0 00-2 2.7c-.4.8-.6 1.4-.8 2.4v1.2h1.8l2-.1zM61.4 69l.1-.2L61 66a6 6 0 00-.8-1.6 8 8 0 00-4.7-3.2c-1.2-.3-2.3-.5-3.9-.5-1.1 0-1.5 0-1.5.2s.2.2 1.1.6c1 .3 2 .8 2.6 1.1a7 7 0 012.4 2.5c.2.5.5 1.5.5 2 0 1.2.6 1.8 1.8 2H60l1.4-.1z" fill="#ffa300"/></svg>