<svg width="660" height="440" version="1.0" xmlns="http://www.w3.org/2000/svg"><path d="M0 440h660V0H0v440z" fill="#002a86"/><g fill="#efae0e"><path d="M336.5 71.7l10.3-7.5h-13l-4-11.6L326 64h-12.7l10.3 7.6-4.1 12.4 10.5-7.7 10.5 7.7-4.1-12.4M242.6 101.6l10.2-7.9-13 .5-4.4-11.6-3.5 11.8-12.6.6 10.2 7.2-3.5 12.4 10.4-8.1 10.7 7.3-4.5-12.2M186 188.8l13.1-1-11-6.8 2.7-12-9.4 8-11-6.5 5 11.6-10 8.5 13-1.1 4.8 12.1 2.8-12.8M198 284l9.6-9-12.8 1.8-5.3-11.1-2.4 12.2-12.6 1.5 11 6.2-2.6 12.8 9.6-9 11 6.5L198 284M264.2 351l2.3-12.9-9.6 9.1-10.9-5.8 5.6 11.2-9.2 8.9 12.6-1.7 5.5 11.8 2.4-13 12.8-1.6-11.5-6"/><path d="M301.7 75.4l-1.5-.7-1.5-.8-3.2-.3-3 .2-2.5.5-3 .8-2.4.1 3.7-2 5-2.8L298 67l1.7-1.7 1.3-1.5 1 .2 1-.4.8-.6.6-.7.2-1.2-.2-1-.6-1-1-.6-1-.4-1 .2-1 .6-.7 1-.1 1 .1 1 .4 1 .8.7-.2.2-3 2.6-3.6 2.5-3.8 2-4 2-8 3.5-8.1 2.4 1.5-1 1.5-1 5.7-2.8 4.3-2.5 1.9-1.7 1.7-1.9L288 66l1-2.2 1.2-2.5.6-2.6-2.5.4-2 .5-2.3 1-1.9 1.1-3.8 2.6-3.2 3.2-2.8 3.4-2.2 3.4-1.7 3-1.1 2.3-.4.3-1-.3-.3-.8.1-1.1.4-1.3 1.2-3.2.9-3.4h1l.9-.4.7-.7.4-1v-1l-.4-.9-.7-.7-1-.4H268l-1 .4-.5.7-.4 1-.2 1 .4.7.4.5.7.6-.9 3-1.3 3.4-1.7 3.6-1.7 2.8-8 4.9-.3-.8v-1.1l.8-2.4.7-1.4 1.3-1 2.7-2.2 1-1.3.7-2 .3-2.7v-3.7l-.5 1-1.1.7-2.9 1.8-3 2.3-1.3 1.3-1.1 1.7-.4 1.1.2 1.5.6 1.5.9 2 .4 1v1.2l-.2 2.4-2.5 1.9-.7.6-.2.5.2.4.2.2 1.1.2 1.1-.6 3-1.9 2.5-.3h2.8l1.3.3 1.3.6 1.2.7.7 1.2-.6 1-.1.8.1 1.2.4 1 1 .7 1 .3 1.2-.1 1.1-.6.8-1 .4-1-.2-1.2-.6-1-.7-.7-1-.4h-1.1l-1 .4-1.6-1.7-2-1.3-2-.6-2-.1 3.7-2.3 2-.4 2 .2 2 .4 2.1 1 2.8 1.6 3.6 1.5 1.9.6 1.9.2h2l2-.6 3.1-1.3 1.1-.4h1.4l-1-1.3-1.7-1.5-3.4-3-2.2-1-2.5-.3-2.4.2-2 .7-2.7 1.1-2.7.8-2.4.4-2.3-.6 3.4-1.7 2.7-1.3 8.8-3 2.3.2 2.4.9 2.3 1.1 2 1.5 3.2 1.7 3.2 1 3.4.4 3.4-.4 3-1 2.8-1.3 2.5-1.9 1.7-2.2-2.3.2-2.4-.4-2.5-.8-2.2-1.3M220.4 121.9l-1.7.2-1.7.4-2.6 1.7-2.3 1.8-1.7 2.1-1.9 2.5-1.8 1.5 1.7-3.8 2.2-5.5 1.7-5.4.4-2.5v-1.8l1-.6.5-1 .4-.9v-1l-.6-1-.8-.8-1-.4-1.2.2-1 .4-.7 1-.4.9v1.1l.4 1 .8.7.9.4 1.1.1v.2l-1 4-1.2 4.1-1.7 4.2-2 4-4.2 7.6-4.7 6.8 1.3-3.7 2.6-5.7 1.7-4.3.4-2.5.3-2.6v-2.5l-.3-2.6-.8-2.4-1.1-2.5-1.5 1.7-1.5 2-1.1 1.8-1 2-1.3 4.6-.6 4.5v4.3l.2 4 .6 3.4.6 2.6-.2.5-1 .2-.7-.4-.6-.9-.6-1.3-.9-3.2-1.3-3.2.7-.6.4-1 .2-.8-.2-1-.7-.7-.8-.6-1.1-.2-1 .4-.7.6-.6.9-.1 1 .3.9.6.7.6.6.7.2h1l1 2.8 1 3.6 1 3.7.1 3.4-3.2 8.9-.7-.6-.6-1-1-2.2-.1-1.7.4-1.7.7-3.2v-1.5l-.7-2-1.3-2.5-2.3-3v1.1l-.4 1.3-1 3.2-1 3.8-.2 1.9.2 1.9.3 1 1 1.2 1.5 1 1.9.7.9.6.8 1 1.3 2-1 3v1l.2.5.2.2h.4l1-.6.7-1.1 1.1-3.4 1.5-1.7 2.4-1.7 1.4-.5 1.3-.4h1.3l1.3.4v.9l.6 1 .7.7 1 .5h1.3l1-.3.9-1 .3-.9.2-1.3-.5-1-.8-.9-1.1-.6h-1l-1 .4-.8.6-.6 1-2.3-.5-2.2.2-2 .8-1.8 1.1 1.5-4.1 1.3-1.4 1.7-1 2-1 2.2-.6 3.2-.4 3.7-.9 2-.8 1.6-1 1.5-1.2 1.1-1.7 1.7-2.8.8-1 1-.9-1.6-.4-2.2-.3-4.5-.2-2.3.5-2.3 1.3-1.9 1.7-1 1.7-1.4 2.6-1.7 2.3-1.7 1.5-2 1.1 1.5-3.4 1.3-2.6 5-7.9 2.1-1.1 2.1-.9 3-.4 2.3-.2 3.5-.6 3.2-1.1 2.9-1.9 2.4-2.2 2-2.7 1.4-2.8.7-2.8v-3l-1.6 1.7-2.1 1-2.5 1-2.6.4M183.9 208.8l-1.3 1.2-1 1.3-1.3 3-.6 2.8v5.7l-.5 2.4-1-4.1-1.5-5.5-2-5.4-1.2-2.3-1-1.7.3-1v-.9l-.4-1-.6-.7-1-.5h-1.2l-1 .2-.9.7-.5 1v1.1l.3 1.1.8.8.7.5 1.2.2.9-.2 1-.7v.4l1.6 3.7 1.5 4 1.2 4.1.9 4.3 1.1 8.9.4 8.2-.9-1.5-.6-2.1-1-6.1-1.3-4.5-1-2.3-1.4-2.2-1.5-2.1-1.9-1.7-2-1.7-2.3-1.1-.4 2.2v2.3l.8 4.5 1.7 4.3 2.2 4 2.6 3.5 2.7 3 2.4 2.5 2.1 1.7v.6l-.6.7-.7.2-1.1-.4-1.2-.7-2.6-2.1-1.5-1-1.5-.7.2-1-.2-1-.6-.8-.7-.6-1-.4-.9.2-1 .6-.5.7-.4 1 .2 1.1.6.8.7.7.8.2h1l.7-.4.5-.5 2.7 1.7 3 2.2 3 2.5 2.2 2.4 2.7 9h-.8l-1.1-.3-2-1.4-1.2-1-.8-1.6-1.3-3-1.1-1.3-1.7-1.1-2.4-1.4-3.6-.7.5.7.6 1.4 1.1 3.2 1.4 3.5.9 1.7 1.3 1.3 1.1.8 1.3.2h1.7l2.1-.8h1.1l1.2.4 2.2.7 1.1 3 .6.8.4.4h.4l.3-.4.4-1-.2-1.2-1.1-3.2.4-2.5.7-2.8.6-1.3 1-1 1-.9 1.2-.4.7.8 1 .3 1.1.2 1-.2.9-.7.7-1 .2-1-.3-1.2-.6-1.1-1.1-.6-1.2-.2-1.1.4-1 .6-.5.7-.2 1.1v1l-2 1.1-1.8 1.5-1 2-.8 1.8-1.1-4.2.1-2 .8-2 1-1.6 1.2-1.9 2.5-2.3 2.2-3 1.2-1.6.7-2 .4-1.8v-2l-.4-3.5-.2-1 .4-1.4-1.5.8-2 1-3.6 2.5-1.5 1.9-1 2.3-.6 2.4.2 2.2.6 2.9v2.6l-.4 2.5-1.1 2-1.3-6.6-.8-9.2 1-2.2 1.5-2.1 1.7-1.9 1.8-1.7 2.5-2.4 1.9-3 1-3.2.7-3.2v-3.2l-.8-3.2-1.1-2.7-1.7-2.4-.4 2.2-1 2.3-1.2 2.3-2 1.8M208.2 300.1l-.4 1.7.2 1.5.5 3.2 1.3 2.7 1.5 2 2 2.7.9 2-3.2-2.6-4.5-3.6-5-3.2-2-1-2-.5-.3-1.1-.5-.8-1-.5-1-.2-1 .2-1 .5-.7 1-.2 1.1.2 1.1.5.8 1 .7 1.1.2 1-.2.9-.3.6-.8.3-1.1.4.2 3.6 1.9 3.6 2.4 3.3 2.6 3.4 3 6.2 6.2 5.3 6.4-1.8-.8-1.6-1.4-4.5-4.2-4-2.8-2-1.1-2.5-1-2.4-.5-2.5-.4h-2.6l-2.6.4 1.1 2 3 3.4 1.7 1.5 4 2.5 4.1 1.9 4.1 1.1 4 1 3.4.3 2.6.2.6.4v1l-.6.5-1.1.4h-1.3l-3.4.2-3.6.3-.4-1-.5-.6-1-.4h-1l-1 .4-.6.7-.4 1-.2.9.6 1.1.6.6.9.3 1.1.2.8-.4.5-.5.6-.6.2-1h10.8l3.1.7 7.5 5.4-.5.6-1.2.3-2.4.4-1.7-.4-1.5-.7-2.8-1.5-1.5-.4H223l-2.6.6-3.4 1.3 1 .3 1 .6 2.9 2 3.4 2 1.7.7 1.8.4h1.4l1-.8 1.4-1 1.3-1.8 1-.5.9-.6 2.4-.6 2.7 1.5.7.4h.6l.4-.2.2-.3-.4-1.2-1-.9-2.8-1.9-1.3-2-1-2.7-.1-1.5v-1.3l.3-1.3.8-1.2 1 .2 1-.2 1-.5.6-1 .3-1v-1.2l-.5-1-1-.7-1-.4h-1.2l-1.1.6-.8 1-.4 1 .2 1 .4 1 .7.7-1 2-.5 2.3v2.3l.8 1.8-3.6-2.6-1-1.7-.5-1.9-.3-2 .1-2.1.4-3.4v-3.8l-.2-2-.3-1.9-1-1.9-1.1-1.5-2.5-2.4-.7-1-.4-1.1-1 1.3-.9 2.1-1.3 4.3-.2 2.3.8 2.4 1 2.3 1.4 1.7 2 2 1.8 2.1 1.1 2.3.4 2-2.8-2.2-2.1-2.1-6.2-7-.8-2.2v-2.6l.2-2.7.6-2.4.5-3.4-.3-3.6-1-3.2-1.5-2.8-2-2.6-2.5-2-2.4-1.6-2.9-.8 1.2 2.1.5 2.3.2 2.6-.4 2.6M338.2 385h4l2.2-.6 2-1v-.5l-.3-.5-2.6-1-4-1.5-2.3-1.1-2.4-1.3-3.6-1.9-2.4-.7-1.7-.6-1-.6-1-1.1-2.1-3-1.5-3.8-.2-1.7v-1.5l1-.3.7-.8.5-1 .2-.9-.4-1.1-.5-1-1-.7-1.3-.2-1.1.4-1 .7-.5 1-.2 1.1.2 1.1.5.8 1 .7 1 .2.1 3 .8 3.8 1 3.2.8 1.3.8.7-4.3-.3-1.7-1-1.5-1.3-1.5-1.5-1-2-1.3-3-2-3.4-1.2-1.6-1.5-1.3-1.5-1-1.9-.8-3.4-.8-1-.6-1-.7v1.7l.3 2.2 1 4.4 1.1 2 1.9 2 2 1.2 2.1.6 2.8.6 2.5 1 2 1.2 1.8 1.7-3.8-.6-2.8-.5-9-2.8-1.8-1.5-1.3-2.3-1-2.3-1-2.2-1.3-3.4-2.1-2.6-2.7-2.3-2.8-1.9-3-1-3-.7-3 .2-2.8.8 1.9 1 1.8 1.8 1.5 2 1 2.5.7 1.7.8 1.3 2.2 2.3 2.7 1.7 2.2.9 2.8 1.1 2.1 1.5-4.5-.6-5.5-.7-5.6-.2-2.4.2-2.1.6-.8-.8-.9-.3h-1l-.9.3-1 .8-.3 1-.2 1 .4 1 .7 1 1 .5h1.1l1.1-.4.8-.5.5-1 .2-1.1-.3-1h.3l4.2-.1 4.1.2 4.4.3 4.5.8 8.4 2.2 8 2.7-4-.2-6.2-1.1-4.7-.4-2.5.1-2.4.4-2.5.8-2.4 1-2.3 1.2-1.9 1.7 2.1 1.2 2 1 2.3.5 2.3.4h4.5l4.5-.6 4.4-1.2 3.7-1.3 3-1.5 2.5-1.1h.5l.6 1-.2.7-.7.8-1.2.9-3 1.7-1.3 1-1.3 1-.8-.5-.9-.2-1.1.2-.8.5-.5.8-.4 1 .2 1 .5.8.8.8 1 .2 1-.2.8-.6.6-.6.3-.7v-1l-.2-.7 2.5-1.9 3.2-1.9 3.4-1.8 3-1.2h2.6l2.5.6 2.2.6 2.3.3 1.3.2 1.5.6 3 1.9 2.8 2 2.5 2.3M417.4 102l-10-8 12.8.4 4.4-11.4 3.5 11.8 12.8.6-10.5 7 3.6 12.5-10.4-8L413 114l4.5-12M473.7 189.1l-12.8-1.1 11-6.6-2.7-12 9.6 8 10.9-6.6-5 11.7 10 8.5-13.1-1.1-5 11.8-3-12.6M461.8 284.3l-9.4-8.8 12.6 1.7 5.3-11.3 2.6 12.2 12.8 1.7-11.3 6.2 2.7 12.8-9.6-9-11.3 6.2 5.6-11.7M395.8 351.1l-2.3-12.6 9.2 9 11.1-5.8-5.2 11.3 8.8 8.8-12.6-1.7-5.3 11.7-2.4-12.8-12.8-1.7 11.5-6.2"/><path d="M358.3 75.8l1.5-1 1.5-.5 3.2-.4 3 .2 2.5.6 3 .7h2.4l-3.7-1.8-5-2.9-4.6-3.3-1.9-1.7-1.3-1.5h-1l-.9-.2-1-.6-.5-1-.2-1 .2-1 .6-1 1-.7 1-.2 1.2.2 1 .6.5.9.2 1.1v1l-.6 1-.8.5.2.2 3.2 2.6 3.4 2.4 3.8 2.3 4 2 8.2 3.5 8 2.4-1.6-1.1-1.9-1.1-5.4-2.7-4.2-2.6-1.9-1.5-1.6-1.9-1.5-2-1.4-2.1-1-2.5-.5-2.6 2.3.3 2.2.6 2.1.8 2 1.1 3.8 2.8L385 68l2.7 3.4 2.2 3.2 1.7 3 1.1 2.4.6.2 1-.3.1-.8v-1l-.3-1.3-1.4-3.1-.9-3.4h-1l-.9-.4-.5-.8-.4-.9v-1l.4-.9.5-.7 1.1-.4h1l1 .4.7.7.4 1v.7l-.2 1-.6.5-.6.6.8 3 1.5 3.4 1.5 3.5 1.9 2.9 7.9 4.9.2-1v-1l-.8-2.4-.7-1.3-1.3-1.1-2.5-2-1-1.4-.9-2-.3-2.9V69l.7.8 1 1 2.8 1.8 3.2 2.3 1.3 1.3 1 1.7.3 1.1v1.5l-.6 1.5-1 1.9-.5 1v1.3l.4 2.2 2.5 1.9.5.7.2.6v.4l-.4.1-1.1.2-1.1-.5-2.9-2-2.4-.3h-2.8l-1.5.4-1.3.6-1.2.7-.7 1.1.6 1 .1.9v1.1l-.5 1-1 .7-1 .2h-1.2l-1.1-.5-.8-1-.2-1.1v-1.1l.6-1.2 1-.5.9-.4h1l1 .4 1.5-1.7 2-1.3 2-.8h2l-3.7-2.4-1.9-.2-2 .2-2.1.4-2 .9-3 1.7-3.3 1.5-2 .5-2 .2h-2l-2-.5-3-1.4-1-.3h-1.4l1-1.3 1.7-1.7 3.4-2.8 2-1 2.5-.4 2.6.2 1.9.8 2.6 1.1 2.6.8 2.5.1 2.3-.3-3.4-1.9-2.7-1.1-8.6-3-2.5.1-2.4 1-2.3 1-2 1.4-3 1.9-3.4 1-3.4.1-3.2-.2-3.2-1L353 82l-2.3-1.7L349 78l2.5.1 2.2-.3 2.5-.8 2.2-1.3M439.6 122.3l1.9.2 1.5.3 2.8 1.6 2.3 2 1.5 2.1 1.9 2.4 1.8 1.6-1.6-4-2.1-5.3-1.9-5.4-.4-2.5v-2l-.9-.6-.6-.7-.3-1 .1-1 .4-1 1-.8.9-.4h1.1l1.1.6.8.7.4 1.2-.2 1-.4 1-.7.8-1 .3h-1v.4l1 4 1.1 4.1 1.7 4 2 4.1 4.2 7.5 5 7-1.4-3.8-2.8-5.6-1.5-4.5-.6-2.5-.3-2.4v-2.5l.3-2.6.8-2.5 1.1-2.4 1.7 1.7 1.3 1.9 1.1 1.9 1 2 1.3 4.5.6 4.6.2 4.3-.4 4-.4 3.3-.8 2.6.4.6 1 .2.7-.4.6-1 .4-1.2.9-3.2 1.3-3.2-.7-.8-.4-.7-.2-1 .4-.9.5-1 1-.3 1-.2.8.2 1 .7.4.8.2 1.1-.2 1-.6.7-.8.4-.7.4-.7-.2-1.2 3-1.1 3.5-.7 3.8-.4 3.4 3.2 8.7.7-.4.6-1 1-2.4.1-1.5-.2-1.7-.7-3.2V149l.5-2 1.3-2.5 2.3-2.8v1l.4 1.4 1.1 3.2 1 3.6.1 2v2l-.5 1-1 1.2-1.3.7-2 1-.8.5-1 1-1 2 .7 3v1.4l-.4.4h-.4l-1-.6-.5-1.1-1.1-3.4-1.7-1.7-2.3-1.7-1.3-.8-1.3-.1-1.5-.2-1.3.5v1l-.4 1-.7.7-1.2.4-1 .1-1.2-.5-.8-.8-.5-1.1v-1.1l.4-1.2.7-.7 1.1-.6h1.2l.9.4.7.6.6.9 2.5-.4 2.2.2 2 .8 1.8 1.1-1.7-4.2-1.3-1.3-1.7-1.3-1.9-.7-2-.6-3.5-.4-3.5-1.1-2-.8-1.6-.9-1.5-1.1-1.3-1.7-1.7-3-.6-1-1.1-.7 1.5-.4 2.4-.4 4.4-.1 2.4.5 2 1.3 2 1.7 1.3 1.7 1.3 2.6 1.5 2.1 1.9 1.7 1.9 1.1-1.5-3.5-1.4-2.5-5-7.9-2.1-1.3-2.4-.8-2.5-.3-2.4-.2-3.6-.6-3.2-1.1-2.8-1.9-2.5-2.3-1.9-2.6-1.3-2.8-.7-3v-2.8l1.7 1.5 2 1.3 2.5 1 2.4.3M476.3 209l1.1 1.4 1 1.3 1.3 2.8.6 3 .1 2.6v3l.6 2.3 1-4 1.5-5.6 1.8-5.4 1.1-2.1 1.2-1.7-.4-1v-.9l.4-1 .7-.9 1-.4 1.1-.1 1.1.3.8.8.5 1v1l-.1 1.2-.8.8-1 .5-.9.2-1.1-.4-.7-.5-.2.2-1.7 3.7-1.5 4.1-1.2 4.2-.9 4.3-1.1 8.9-.4 8.2.7-1.7.6-2 1.3-6 1.3-4.8 1-2.2 1.3-2 1.7-2.1 1.7-2 2-1.4 2.5-1.4.2 2.5v2.3l-.2 2.2-.6 2.3-1.7 4.3-2.2 4-2.5 3.5-2.6 3-2.4 2.5-2.1 1.5-.2.7.6.8h.9l1-.4 1-.7 2.9-2 1.5-1 1.5-.8-.4-1 .2-.9.6-.8.7-.5 1-.4 1.1.2.7.4.8 1 .2.9-.2.9-.4 1-1 .5-.7.4h-.7l-.8-.4-.7-.6-2.6 1.7-3 2.3-2.9 2.4-2.4 2.5-2.7 9h1l1-.4 2.2-1.3 1-1.1.9-1.5 1-3 1.2-1.3 1.7-1.3 2.6-1.2 3.6-.7-.7.7-.6 1.3-1 3.2-1.5 3.6-.9 1.5-1.3 1.5-1 .6-1.4.4-1.7-.2-2.1-.6h-1l-1.3.2-2.2 1-1.2 3-.3.5-.6.4h-.4l-.3-.2-.4-1 .2-1.3 1.1-3.3-.2-2.3-.7-2.8-.8-1.3-1-1.2-.9-.7-1.3-.6-.7 1-1 .3-1 .2-1-.3-1-.6-.6-1-.1-1.3.1-1.1.8-1 1-.5 1-.2 1.2.2 1 .7.5.8.4 1.1-.2 1 2 1.1 1.8 1.5 1 1.9.8 1.9 1.3-4.4-.3-1.8-.6-2-1-1.8-1.4-1.7-2.3-2.3-2.4-3-1-1.8-.7-1.7-.6-2v-2l.6-3.4v-1.1l-.4-1.3 1.5.5 2 1.2 3.6 2.6 1.5 1.9 1.2 2.2.3 2.5-.1 2-.4 3-.2 2.7.6 2.4.7 2.1 1-3.8.5-2.8.8-9.2-1-2.2-1.5-2.1-1.7-2-1.8-1.6-2.5-2.6-1.9-2.9-1.1-3.2-.6-3.1.2-3.4.6-3 1.1-2.8 1.7-2.3.6 2.3.7 2.2 1.5 2 1.9 2M452 300.3l.2 1.7v1.7l-.7 3.2-1.3 2.6-1.5 2-2 2.5-.9 2.3 3.2-2.6 4.5-3.6 5-3.2 2.2-1.1 1.9-.6.3-1 .6-.7.8-.5 1-.2 1.2.2 1 .5.5.8.2 1-.2 1.2-.5 1-1 .7-1 .2-1-.2-1-.6-.6-.7-.3-1-.2.2-3.6 2-3.6 2.4-3.5 2.6-3.4 2.8-6 6.4-5.5 6.4 3.4-2.2 4.7-4.2 3.7-2.8 2.3-1.1 2.3-1 2.4-.7 2.6-.4h2.5l2.6.6-1.1 1.8-1.3 2-1.7 1.6-1.7 1.5-4 2.5-4 1.7-4.2 1.3-4 1-3.4.3h-2.6l-.4.6v.9l.6.5 1 .4h4.8l3.4.4.4-.8.7-.7 1-.4h1l.8.4.8.7.4 1v1l-.4.9-.8.7-.9.4h-1l-.9-.2-.5-.6-.4-.7-.2-.8-3.2-.3h-3.8l-3.7.3-3.4.6-7.5 5.5.7.5 1 .4 2.6.2 1.5-.2 1.5-.8 2.8-1.6 1.7-.4h2l2.9.7 3.4 1.3-1.1.4-1.2.6-2.8 1.9-3.2 2-1.9.8-1.7.4-1.3-.2-1.3-.6-1.3-1.1-1.3-1.7-.8-.6-1.1-.5-2.3-.6-2.8 1.5-.7.4h-.6l-.4-.2v-.4l.2-1.1 1-1 2.8-1.8 1.3-2 1-2.9.3-1.3V331l-.4-1.3-.7-1.2-1.1.2-1-.2-1-.3-.7-1-.3-1.1.1-1.1.6-1 .8-1 1-.1h1.4l1 .5.7 1 .4 1v1l-.4 1-.8.8 1 2 .5 2.3-.1 2.2-.8 2 3.6-2.7 1-1.7.7-1.9.2-2V326l-.4-3.2-.2-4 .2-1.9.5-1.8.8-2 1.1-1.4 2.5-2.4.7-1 .6-1.3.7 1.5 1 2 1.5 4.4v2.3l-.6 2.4-1.1 2.2-1.3 1.7-2.3 2-1.7 2.2-1.2 2.2-.3 2.1 3-2.4 2.1-2 6.2-6.9.6-2.4v-2.5l-.2-2.6-.6-2.5-.3-3.5.1-3.4 1.2-3.2 1.5-3 1.8-2.5 2.5-2 2.6-1.5 2.7-1-1 2-.7 2.5v2.5l.3 2.6M321.8 385.2l-1.7.2H318l-2.3-.6-1.9-1.3-.2-.4.6-.4 2.5-.9 3.9-1.5 2.5-1.1 2.2-1.5 3.8-1.7 2.2-1 1.7-.4 1.1-.5 1-1.1 2-3.2 1.6-3.6.3-1.7-.1-1.5-1-.4-.7-.7-.6-1-.2-1.1.4-1.1.7-1 1-.5 1.1-.2 1.1.4 1 .5.5 1.2.2 1-.2 1.2-.5.8-1 .7-1 .2-.1 3-.6 3.6-1.3 3.4-.5 1.3-1 .7 4.5-.4 1.7-.9 1.5-1.3 1.4-1.7 1-1.9 1.4-3 1.9-3.4 1.1-1.5 1.5-1.5 1.7-1 1.7-.7 3.4-.9 1-.4 1.2-.7-.2 1.6-.1 2.3-1.2 4.3-1 2.1-1.8 1.7-2.3 1.5-1.8.6-2.9.5-2.6 1-2 1.3-1.6 1.7 3.8-.6 2.8-.5 8.9-2.9 1.7-1.7 1.5-2 1-2.3.8-2.4 1.5-3.2 2.1-2.9 2.5-2.2 2.8-1.7 3-1.1 3.2-.6 3 .2 2.6.7-1.8 1.2-1.7 1.7-1.5 2-1.2 2.5-.5 1.5-1 1.5-2.2 2.2-2.5 1.6-2.4 1.1-2.8 1.1-2 1.3 4.2-.5 5.7-.6 5.8-.2 2.4.2 2 .6.7-.8 1-.4h.9l1 .2.8.8.6 1v1.2l-.4 1-.7 1-1 .3-1.1.2-1.1-.4-.8-.8-.3-.7-.2-1.1.2-1h-.2l-4.2-.2h-4.3l-4.3.6-4.4.8-8.6 2-8 2.8 4.2-.2 6-1 4.7-.4 2.5.1 2.6.4 2.5.6 2.2 1.1 2.3 1.3 2 1.7-2 1.1-2.3 1-2 .6-2.3.3h-4.7l-4.5-.5-4.2-1.2-3.7-1.3-3.2-1.5-2.3-1.3-.5.2-.6.7.2 1 .7.7 1.2.8 2.8 1.9 1.5.9 1.3 1.1.8-.5.9-.2 1 .2.9.5.5.8-.1 1 .1.8-.3 1-1 .6-1 .3-.9-.2-.9-.5-.5-.6-.2-1v-.7l.2-.7-2.5-1.9-3.2-2-3.4-1.8-3.2-1.1H340l-2.4.6-2.3.5-2 .2-1.6.4-1.3.6-3 1.7-3 2.2-2.5 2"/></g><path d="M329 90.2a128.8 128.8 0 100 257.6 128.8 128.8 0 000-257.6" fill="#efae0e" stroke="#000" stroke-width=".322497"/><path d="M329 95a124 124 0 100 248 124 124 0 000-248" fill="#efae0e"/><path d="M329 95a124 124 0 110 248 124 124 0 010-248z" fill="none" stroke="#000" stroke-width=".322497"/><path d="M329 99a120 120 0 100 240 120 120 0 000-240" fill="#002a86"/><path d="M329 120a99 99 0 100 198 99 99 0 000-198" fill="#efae0e"/><g stroke="#000" stroke-width=".9"><path d="M402.1 245.8a21.4 21.4 0 01-9.8 1c-1.5-.2-4.4-1-6.4-.6-5.7 1-122.9-1.4-149-5.7.5 2.1 1.1 4.2 1.8 6.2l174 16.3a94 94 0 007.6-19.4c-4.7.1-15 1.2-18.2 2.2zm-124 30.6c8 1 18.6-2 25.7-3.2a213 213 0 0124.9-2.4c4 0 3.6-1 4.5-1.9.9-.9 2.4-1 3.4-.5 1.8.9 4.3.7 8-1 3.7-1.5 7-2 9.8-1a275.7 275.7 0 0041.5.2L240.4 252a94.8 94.8 0 0014.7 26c6.7.7 16-2.6 23-1.6z" fill="none" stroke-width=".322497"/><path d="M396 266.6l-3 .2c-4.8 2.2-30.8 3.7-36.6 2.5-1.7-.3-4.2 0-6.1.8-2 .8-4.4 1.4-7.5 1-3-.4-4.7.6-6 1.6-1.4.9-4.3 2-9.7 1.3a29 29 0 00-15.2 3c-1.4-.9-5.3-.6-8.1-3.8-7 1.2-17.7 4.2-25.7 3.2-7-1-16.3 2.3-23 1.5A94.2 94.2 0 00410 268c0-.2.2-.3.3-.5a80 80 0 00-14.3-.8" fill="#4f9eff" stroke-width=".322497"/><path d="M396 266.6l-3 .2c-4.8 2.2-30.8 3.7-36.6 2.5-1.7-.3-4.2 0-6.1.8-2 .8-4.4 1.4-7.5 1-3-.4-4.7.6-6 1.6-1.4.9-4.3 2-9.7 1.3a29 29 0 00-15.2 3c-1.4-.9-5.3-.6-8.1-3.8-7 1.2-17.7 4.2-25.7 3.2-7-1-16.3 2.3-23 1.5A94.2 94.2 0 00410 268c0-.2.2-.3.3-.5a80 80 0 00-14.3-.8z" fill="none" stroke-width=".322497"/><path d="M329.4 124.7a94.5 94.5 0 00-94.6 94.6H424a94.6 94.6 0 00-94.5-94.6" fill="#fff" stroke-width=".322497"/><path d="M234.5 219c0 7.4.8 14.6 2.5 21.5 26 4.3 143.2 6.8 148.9 5.7 2-.3 5 .4 6.4.6 3.4.4 6.2 0 9.8-1 3.2-1 13.5-2 18.2-2.2 2.1-7.9 3.2-16.1 3.2-24.6h-189" fill="#4f9eff" stroke-width=".322497"/><path d="M380 228.6h-8.2v4.4h8l.1-4.4zm-22 0l.1 4.1 7 .2-.1-4.3zm7.3 0l.1 4.3h6v-4.3zm22.7 17.8c-3 0-4.8.3-6 2a7.2 7.2 0 00-1 2.3h6.9c.1-1.7.2-3.2.1-4.3zm-7 4.3a17 17 0 00-.6 4.6l6.9.1.6-4.8zm2.5 10.5c1.8 0 2.8-.2 2.9-.5l.9-5.3-7-.1a7 7 0 003.2 5.9zm-107-30.2a88.3 88.3 0 016 14.2m-12.3-17.8L254 212l16.3 17.4" fill="none" stroke-width=".322497"/></g><path d="M277 229.4c2-.1 1.7-2.5 1.1-3.7-.8-1.7-4.7-3.1-7.6-3.6 0 2.2-.4 4.2-.2 7.4 3-.3 4.6.1 6.7 0" fill="#efae0e"/><path d="M277 229.4c2-.1 1.7-2.5 1.1-3.7-.8-1.7-4.7-3.1-7.6-3.6 0 2.2-.4 4.2-.2 7.4 3-.3 4.6.1 6.7 0z" fill="none" stroke="#000" stroke-width=".322497"/><path d="M380.6 252.4c-.5 2.5-.4 5.5 1.6 7.7l-96.2-9-4.3-.3-2.8-7.3c-2-5.2-5-11.4-8.6-14 3-.3 4.6.1 6.7 0 2-.2 1.7-2.6 1.1-3.8-.8-1.7-4.7-3.1-7.6-3.6v-.8c-4.3-1.8-12-5-16.5-9a264.6 264.6 0 0044.3 13l2.4.5a806 806 0 0049.3 6.7l7.8.2-.1-4.1h-1V227H380v-1.5c3.7.8 8.8 1.5 12.8 1.9l1.9.1 3.3.3c-1.3.4-2.5 1.2-3 2.6-.7 2.7-1.4 6-.3 8.5-1.7.1-2.7.1-4 .6L388 246v.3c-3 0-4.8.3-6 2" fill="#803e2b"/><path d="M380.6 252.4c-.5 2.5-.4 5.5 1.6 7.7l-96.2-9-4.3-.3-2.8-7.3c-2-5.2-5-11.4-8.6-14 3-.3 4.6.1 6.7 0 2-.2 1.7-2.6 1.1-3.8-.8-1.7-4.7-3.1-7.6-3.6v-.8c-4.3-1.8-12-5-16.5-9a264.6 264.6 0 0044.3 13l2.4.5a806 806 0 0049.3 6.7l7.8.2-.1-4.1h-1V227H380v-1.5c3.7.8 8.8 1.5 12.8 1.9l1.9.1 3.3.3c-1.3.4-2.5 1.2-3 2.6-.7 2.7-1.4 6-.3 8.5-1.7.1-2.7.1-4 .6L388 246v.3c-3 0-4.8.3-6 2" fill="none" stroke="#000" stroke-width=".322497"/><g fill="#efae0e"><path d="M293.3 320.8l-4.9-2.1.5-5.3-3.5 4-4.7-2 2.6 4.4-3.5 4 5.1-1.1 2.7 4.6.5-5.4zM364.9 320.9l5-2.1-.6-5.3 3.5 4 4.7-2-2.5 4.4 3.4 4-5.1-1.2-2.7 4.7-.5-5.4z"/><g stroke-width="1.5"><path d="M328.8 108.1a2 2 0 100 4 2 2 0 000-4M246.6 146a2 2 0 000 4c1 0 2-1 2-2s-1-2-2-2M221.5 198.9c-1 0-2 .9-2 2a2 2 0 102-2M224.5 248.7c-1 0-1.9.9-1.9 2a2 2 0 103.9 0c0-1.1-.9-2-2-2M379.2 120a2 2 0 010 4 2 2 0 110-4M301.8 322.5l-2.5-.7.4-1.4c.6.2 1 .2 1.4.2.4 0 .8 0 1.1-.2.3-.2.5-.4.6-.7l.2-.4 1.8.5-2.9 10.6-2-.6 1.9-7.3M323.4 322.4v1.7a15 15 0 00-4.4 9l-2.2-.2c.1-2 .9-4 2.2-6 .8-1.3 1.5-2.2 2-2.7l-5.4-.2.1-2 7.7.4M340.4 322.6v1.7l-1.3 1.7a15.7 15.7 0 00-2.3 5l-.3 2.4h-2.3c.1-2 .7-4 2-6.1a15 15 0 012-2.7h-5.5v-2h7.7M356 320.5c-.7-.5-1.5-.7-2.5-.6-.7 0-1.3.3-1.8.7-.5.4-.8.8-1 1.4-.4.6-.5 1.4-.6 2.4l.1 2a7 7 0 001.1 3.4c.8 1.1 1.9 1.6 3.3 1.4 1.2-.1 2.1-.6 2.7-1.4.5-.9.7-1.8.6-2.8-.1-1-.5-1.8-1.2-2.4-.7-.6-1.5-.9-2.5-.8a3 3 0 00-1.1.4c-.4.1-.7.4-.9.7l.1-1.9c.3-.8.7-1.3 1.4-1.3.5 0 .8 0 1.1.4l.3.5 2-.2a3 3 0 00-1.1-2M259 301.2l-1.5-1.7c.4-.3.6-.7.6-1 0-.6-.2-1.3-.8-2l-1-.8c-.6-.3-1.2-.3-1.6.2a1 1 0 00-.3.9c0 .4.2.8.6 1.5l.6 1c.6 1 .9 1.8 1 2.4.1.9-.2 1.7-1 2.4s-1.6 1-2.6.9c-1 0-2-.7-2.9-1.7a4.8 4.8 0 01-1.3-2.8c-.1-1 .3-2 1.1-2.8l1.5 1.6c-.4.5-.6 1-.4 1.6 0 .4.3.8.7 1.2.4.5.8.7 1.2.8.4.1.8 0 1-.3.4-.2.5-.6.4-1a6 6 0 00-.6-1.3l-1-1.8c-.4-.7-.6-1.4-.7-2 0-.8.3-1.5 1-2.2.8-.7 1.7-1 2.7-.8 1 0 2 .7 3 1.7s1.4 2.2 1.5 3.2c0 1-.3 2-1.2 2.8"/></g><path d="M242.8 284.7l3.4 4.2 2.2-1.8-3.9-4.8 1.5-1.3 5.4 6.5-8.5 7.2-5.2-6.3 1.5-1.3 3.7 4.5 1.9-1.5-3.5-4.1zM230.5 277.7l1.4 2.3 11.5-2.6-1.3-2-2.4.5-2.2-3.5 1.6-1.8-1.3-2.1zM232.9 257l3 7.2-10.2 4.4-1-2.1 8.5-3.6-2.2-5.1zM229.4 191.6l-9-2.2-.7 3.3-2-.5 2.2-8.7 1.9.4-.8 3.3 9 2.1zM229 172.7l-4-1.6 1-2.2 10.2 4.4-1 2.1-4.5-2-1.7 4 4.6 2-1 2.2-10.2-4.4 1-2.1 3.8 1.6zM239 158.9l-2.9 4.6 2.4 1.5 3.3-5.2 1.7 1-4.5 7.2-9.4-6 4.4-6.9 1.7 1-3.2 5 2 1.3 2.9-4.5zM256 141.5l1.6-1.5c.4.3.8.5 1.1.5.6 0 1.2-.2 1.9-.8.4-.4.7-.7.8-1 .4-.7.3-1.2-.1-1.7a1 1 0 00-1-.3l-1.4.7-1 .6c-1 .6-1.9 1-2.4 1-.9.2-1.7-.1-2.5-1-.6-.7-1-1.5-.9-2.5.1-1 .7-2 1.7-3 .8-.7 1.8-1.2 2.8-1.3 1-.1 2 .3 2.8 1l-1.6 1.6c-.5-.4-1-.6-1.6-.4-.4.1-.8.3-1.2.7-.4.4-.7.8-.8 1.3-.1.4 0 .8.3 1 .3.4.6.4 1 .4l1.4-.7 1.7-1c.7-.4 1.4-.7 2-.7.7 0 1.5.2 2.2 1 .7.7 1 1.6.9 2.6-.1 1-.7 2-1.7 3s-2.2 1.6-3.2 1.6c-1 .1-2-.3-2.8-1.1M272.7 132.2l-5-7.7-2.8 1.8-1-1.6 7.4-5 1.1 1.7-2.8 1.8 5 7.7zM282.2 114.2l-2.4 1.1 1.1 11.8 2.2-1-.3-2.4 3.7-1.8 1.7 1.8 2.2-1zM298.6 120l-2.4-8.8-3.3.9-.5-2 8.7-2.3.5 1.9-3.2.9 2.5 8.8zM316.1 111.4l-5.3.9.4 2.8 6-1 .4 2-8.3 1.3-1.7-11 8-1.3.3 2-5.8.9.4 2.3 5.3-.8zM345.6 105.4c-1.6 0-2.8.3-3.7 1.2-1.1 1-1.7 2.5-1.8 4.5 0 2 .4 3.6 1.5 4.7.8.9 2 1.3 3.6 1.4 1.6 0 2.9-.4 3.7-1.2 1.2-1 1.8-2.5 1.8-4.5.1-2-.4-3.6-1.5-4.7-.8-.9-2-1.4-3.6-1.4zm0 2c.9 0 1.6.4 2.1 1 .5.8.8 1.7.7 3 0 1.2-.3 2.2-.9 2.9-.5.6-1.3 1-2.2 1-1-.1-1.6-.5-2.2-1.2-.5-.7-.7-1.7-.7-3 0-1.2.3-2.1 1-2.8.5-.7 1.2-1 2.1-1zM357.6 119.5l-2.2-.7 3.6-10.6 7.4 2.6-.6 1.8-5.3-1.8-.8 2.5 4.6 1.5-.6 1.9-4.6-1.6zM388.3 133.8l-1.7-1.3 7-8.7 2 1.6-1.5 8.8 4.9-6 1.7 1.3-7 8.7-1.8-1.5 1.4-9zM409.2 145.8l-3.8-3.8-2 2 4.3 4.4-1.4 1.4-6-6 7.9-7.9 5.8 5.8-1.4 1.4-4.2-4.2-1.7 1.7 3.9 3.8zM426.3 158.6l1.3 2-10.9 3.7-1.3-1.8 4.6-4.8 1.6-1.6-2 1-6.1 2.5-1.3-1.8 7.4-8.9 1.4 2-4.4 4.9-1.3 1.3 1.6-.8 6-2.6 1.4 2-4.5 4.8-1.3 1.2 1.6-.6zM435.4 190.4l4.1-1.1.6 2.2-10.7 3-.6-2.3 4.8-1.3-1.2-4.2-4.7 1.3-.7-2.2 10.8-3 .6 2.3-4.1 1.1z"/><g stroke-width="1.5"><path d="M430.7 199.3l.4 2.4 2.4.4.6 4-2.2 1.1.4 2.5 10.4-5.5-.4-2.6zm4.8 3.1l4.5.8-4.1 2zM434.9 219.8l8.7 2v3.3h-11.1V223h9.3l-9.3-2.1v-2.3l9.3-2h-9.3v-2.2h11v3.3l-8.6 2M432.2 231.4l-.3 2.3 4 .5-.4 2.4c-.2 1.2 0 2.2.4 3 .5.7 1.4 1.1 2.7 1.3 1.2.1 2 0 2.7-.7a4 4 0 001.2-2.5l.7-4.8zm5.5 3.1l3.3.4-.3 2.2c-.1.5-.3 1-.6 1.2-.2.3-.7.4-1.3.3-.5 0-1-.3-1.1-.6a2 2 0 01-.3-1.3zM433 245.8l-.7 2.2h-1.2c-.5.2-1 .8-1.2 1.7l-.3 1.3c0 .7.4 1.1 1 1.3.3.1.7 0 1-.2l.9-1.3.6-1c.6-1 1.1-1.7 1.5-2 .7-.6 1.6-.8 2.7-.4.9.3 1.6.9 2 1.8.4.9.4 2 0 3.3-.4 1.1-1 2-1.8 2.6-.9.6-1.8.8-3 .4l.7-2.1c.6.2 1.2 0 1.6-.4.3-.3.5-.7.7-1.2.2-.6.2-1 0-1.5 0-.4-.3-.7-.7-.8a1 1 0 00-1 .2l-1 1.3-1 1.7a5 5 0 01-1.3 1.5c-.7.5-1.5.6-2.4.3-1-.3-1.7-1-2.1-1.9a5 5 0 010-3.4c.5-1.4 1.1-2.4 2-3 .9-.6 1.9-.7 3-.4"/></g><path d="M428.3 267.7l3.9 1.8-1 2.1L421 267l1-2.2 4.5 2.1 1.8-4-4.5-2 1-2.1 10 4.6-1 2.1-3.8-1.7zM416.5 274l1.2-1.9 9.5 5.8-1.2 2zM422.4 286.2l-8.7-6.9-1.4 1.8 3.4 2.7-1.5 2c-.4.5-.8.7-1.1.8-.4 0-.8-.1-1.4-.6l-.8-.6a5 5 0 00-1.4-.8l-1.6 2 .3.2h.7l.9.7.5.4c.7.5 1.2.8 1.6.9.4 0 .9 0 1.4-.4-.3.7-.2 1.2 0 1.8a3.2 3.2 0 003.1 2c.5 0 .9-.2 1.3-.4a5 5 0 001.3-1.3l3.4-4.3M402.2 299.7l3.9-3.7-2-2-4.4 4.2-1.4-1.4 6-5.9 7.8 8-5.9 5.7-1.4-1.4 4.3-4.1-1.7-1.7-3.9 3.7zM216 228.2c-.9.8-1.3 2-1.2 3.7 0 1.5.5 2.8 1.4 3.6 1 1 2.6 1.6 4.6 1.5 2 0 3.5-.6 4.5-1.8.9-.8 1.3-2 1.2-3.7 0-1.6-.5-2.8-1.4-3.6-1-1-2.6-1.6-4.6-1.5-2 0-3.5.6-4.5 1.8M225.7 217.7v2.3h-11.1v-8h2v5.7h2.5v-5l2 .1v4.9zM332 170.1l-2.4 34.4-1.2-.2-2.1-34z"/></g><path d="M320.1 179.7l5.5 25.1m6.7.2l5.8-25.2" fill="none" stroke="#000" stroke-width=".322497"/><path fill="#efae0e" d="M309.9 174l13 31.8-1.3.4-16.7-29.6z"/><path fill="none" stroke="#000" stroke-width=".322497" d="M303.4 187.7l16 20.2"/><path fill="#efae0e" d="M291.8 187.1l26 22.6-1 .9-28.3-18.8zM281.6 206.8l33 9-.3 1.1-33.7-4.6z"/><path fill="none" stroke="#000" stroke-width=".322497" d="M292.3 202.4l23.2 10.8"/><path fill="#efae0e" d="M348.2 174l-13 31.8 1.2.4 16.8-29.6z"/><path fill="none" stroke="#000" stroke-width=".322497" d="M354.6 187.7L338.7 208"/><path fill="#efae0e" d="M366.2 187.1l-25.9 22.6 1 .9 28.2-18.8zM376.5 206.8l-33.1 9 .4 1.1 33.6-4.6z"/><path d="M264.5 216.2l36.4-24.4m2.9.3v34.3m3.3.5l-2.5-34.7m5.2 35.1l-4.7-35m-1.3 31.4l5.7 1.5m-5.7-4l5.3 1m-5.3-4.1l4.9.7m-4.9-7.2l4 1m-4-8l3 .4m-3-3l2.7.2m-2.7-4.7h2m-2-2.4l1.7.3m60.3 7l-23.3 10.8" fill="none" stroke="#000" stroke-width=".322497"/><path d="M383.5 261.2c1.8 0 2.8-.2 2.9-.5l.9-5.3-7-.1a7 7 0 003.2 5.9" fill="#d4212f"/><path d="M383.5 261.2c1.8 0 2.8-.2 2.9-.5l.9-5.3-7-.1a7 7 0 003.2 5.9z" fill="none" stroke="#000" stroke-width=".322497"/><path d="M381 250.7a17.3 17.3 0 00-.6 4.6l6.9.1.6-4.8-7 .1" fill="#d4212f"/><path d="M381 250.7a17.3 17.3 0 00-.6 4.6l6.9.1.6-4.8z" fill="none" stroke="#000" stroke-width=".322497"/><path d="M388 246.4c-3 0-4.8.3-6 2a7.1 7.1 0 00-1 2.3h6.9c.1-1.7.2-3.2.1-4.3" fill="#d4212f"/><path d="M388 246.4c-3 0-4.8.3-6 2a7.1 7.1 0 00-1 2.3h6.9c.1-1.7.2-3.2.1-4.3z" fill="none" stroke="#000" stroke-width=".322497"/><path fill="#803e2b" d="M379 186.8l-.8 8.7h.7l.2-8.7z"/><path transform="matrix(.52407 0 0 .5259 -67.3 193)" fill="none" stroke="#000" stroke-width=".6" d="M851.6-12L850 4.7h1.5l.2-16.5z"/><path fill="#803e2b" d="M375 227h3.5l.4-28.4h-1z"/><path transform="matrix(.52407 0 0 .5259 -67.3 193)" fill="none" stroke="#000" stroke-width=".6" d="M844 64.5h6.7l.7-53.9-2 .1z"/><path fill="#803e2b" d="M379 198.6l2.2-1.8v-1.3H375l-.2 1.4 3.1 1.8z"/><path transform="matrix(.52407 0 0 .5259 -67.3 193)" fill="none" stroke="#000" stroke-width=".6" d="M851.4 10.6l4.5-3.4V4.6h-12.2l-.2 2.8 5.9 3.3z"/><path fill="#803e2b" d="M380 185.8l-2.2-.1v1.2l1.2-.1h1z"/><path transform="matrix(.52407 0 0 .5259 -67.3 193)" fill="none" stroke="#000" stroke-width=".6" d="M853.6-13.8l-4.3-.2v2.2l2.3-.1h.1l1.6-.1z"/><path fill="#803e2b" d="M353.3 175l.9-15.5-1.9 15.5z"/><path transform="matrix(.52407 0 0 .5259 -67.3 193)" fill="none" stroke="#000" stroke-width=".6" d="M802.5-34.2l1.7-29.6-3.5 29.5z"/><path d="M350.5 190l-5.1 42.1a119.2 119.2 0 004.6.4l2.4-42.5h-2" fill="#803e2b"/><path d="M350.5 190l-5.1 42.1a119.2 119.2 0 004.6.4l2.4-42.5z" fill="none" stroke="#000" stroke-width=".322497"/><path fill="#803e2b" d="M352 178l-1 8.2h1.6l.5-8z"/><path transform="matrix(.52407 0 0 .5259 -67.3 193)" fill="none" stroke="#000" stroke-width=".6" d="M800-28.5L798-13l3.3.2.9-15.3z"/><path fill="#803e2b" d="M350.5 190h6.3l-.2-3.6-4-.2H351l-3-.1.9 4z"/><path transform="matrix(.52407 0 0 .5259 -67.3 193)" fill="none" stroke="#000" stroke-width=".6" d="M797.2-5.6l3.7-.1 8.4-.2-.4-6.7-7.6-.3-3.2-.2-5.6-.2 1.6 7.8z"/><path fill="#803e2b" d="M350.7 174.9l-.2 3 1.4.2 1.2.1 2.1.2.4-3.2-2.3-.1h-1z"/><path transform="matrix(.52407 0 0 .5259 -67.3 193)" fill="none" stroke="#000" stroke-width=".6" d="M797.5-34.5l-.3 5.7 2.7.3 2.3.3 4 .4.7-6-4.4-.4h-1.8z"/><path d="M296.2 225c.7 0 1.4.2 2 .4l2.5.4 2.4-33.8-2.2-.2-4.7 33.1" fill="#803e2b"/><path d="M296.2 225c.7 0 1.4.2 2 .4l2.5.4 2.4-33.8-2.2-.2z" fill="none" stroke="#000" stroke-width=".322497"/><path fill="#803e2b" d="M304.1 178.3l1.2-16.9-2.4 16.8z"/><path transform="matrix(.52407 0 0 .5259 -67.3 193)" fill="none" stroke="#000" stroke-width=".6" d="M708.7-28l2.2-32.1-4.5 32z"/><path fill="#803e2b" d="M301.3 189l2 .1.6-8.2-1.4-.2z"/><path transform="matrix(.52407 0 0 .5259 -67.3 193)" fill="none" stroke="#000" stroke-width=".6" d="M703.4-7.6l3.8.2 1.1-15.7-2.6-.4z"/><path fill="#803e2b" d="M304 180.9l1.8.2.2-2.7-1.9-.1h-1.2l-1.8-.2.1 2.5 1.3.1z"/><path transform="matrix(.52407 0 0 .5259 -67.3 193)" fill="none" stroke="#000" stroke-width=".6" d="M708.3-23.1l3.7.4.3-5-3.6-.3-2.3-.2-3.5-.2.3 4.7 2.5.2z"/><path fill="#803e2b" d="M305.1 192.3l.2-3-2-.2h-2l-3-.2v2.6l2.6.3 2.2.2z"/><path transform="matrix(.52407 0 0 .5259 -67.3 193)" fill="none" stroke="#000" stroke-width=".6" d="M710.6-1.5l.3-5.7-3.7-.2-3.8-.2-5.9-.3v5l5.1.6 4.2.4z"/><path d="M365.3 228.6l.1 4.3h6v-4.3h-6" fill="#fff"/><path d="M365.3 228.6l.1 4.3h6v-4.3z" fill="none" stroke="#000" stroke-width=".322497"/><path d="M358 228.6l.1 4.1 7 .2-.1-4.3h-7" fill="#fff"/><path d="M358 228.6l.1 4.1 7 .2-.1-4.3z" fill="none" stroke="#000" stroke-width=".322497"/><path d="M380 228.6h-8.2v4.4h8l.1-4.4" fill="#fff"/><path d="M380 228.6h-8.2v4.4h8l.1-4.4z" fill="none" stroke="#000" stroke-width=".322497"/><path d="M313.4 164.8v.1c-.2 1.2-.5 2.2-2.4 2.6 2.2 1 4.1.1 4.3-1 0-1.3 1.3-2 3-2-2 0-2-.8-5 .3" fill="#d4212f"/><path d="M313.4 164.8v.1c-.2 1.2-.5 2.2-2.4 2.6 2.2 1 4.1.1 4.3-1 0-1.3 1.3-2 3-2-2 0-2-.8-5 .3z" fill="none" stroke="#000" stroke-width=".322497"/><path d="M319.6 159.4c1 1.5 0 3.3-1.6 3-1.7-.2-4.2.4-4.6 2.4 2.8-1.1 3-.4 5-.4 4.5 0 2.3-3.8 1.2-5" fill="#d4212f"/><path d="M319.6 159.4c1 1.5 0 3.3-1.6 3-1.7-.2-4.2.4-4.6 2.4 2.8-1.1 3-.4 5-.4 4.5 0 2.3-3.8 1.2-5z" fill="none" stroke="#000" stroke-width=".322497"/><path d="M319.3 159l.3.4c1 1.2 3.3 5-1.3 5 1.7 0 4.2-.7 4.7-2.4s-1.3-4-1.6-5.2c-1.1.3-2 .6-2.8 1 .1.4.4.8.7 1.2" fill="#d4212f"/><path d="M319.3 159l.3.4c1 1.2 3.3 5-1.3 5 1.7 0 4.2-.7 4.7-2.4s-1.3-4-1.6-5.2c-1.1.3-2 .6-2.8 1 .1.4.4.8.7 1.2z" fill="none" stroke="#000" stroke-width=".322497"/><path d="M353.8 160.7c-4 .2-6.3-.2-9.8-2.8-7.2-5.5-19.7-8-25-2.5-.7.8-.8 1.7-.4 2.4.7-.4 1.7-.7 2.8-1a21 21 0 0115.4 3c4.3 3.4 11 6 16.4 6.3-.6-1.6-.3-4 .6-5.4" fill="#d4212f"/><path d="M353.8 160.7c-4 .2-6.3-.2-9.8-2.8-7.2-5.5-19.7-8-25-2.5-.7.8-.8 1.7-.4 2.4.7-.4 1.7-.7 2.8-1a21 21 0 0115.4 3c4.3 3.4 11 6 16.4 6.3-.6-1.6-.3-4 .6-5.4z" fill="none" stroke="#000" stroke-width=".322497"/><path d="M304.5 162.3c-4.7-1.1-16.4-.4-16.8 5.5a6.6 6.6 0 014.2-1.7c1 0 1.9.1 2.8.3 2.9.6 7.1.5 9.1.5-.2-1.6-.3-3 .7-4.6" fill="#d4212f"/><path d="M304.5 162.3c-4.7-1.1-16.4-.4-16.8 5.5a6.6 6.6 0 014.2-1.7c1 0 1.9.1 2.8.3 2.9.6 7.1.5 9.1.5-.2-1.6-.3-3 .7-4.6z" fill="none" stroke="#000" stroke-width=".322497"/><path d="M291.3 174.5c0 .7-.2 1.4-1.5 2-2 1-6.6 3.8-7.4 8a25 25 0 017.9-5.8c1.9-.6 2.4-1.3 2.8-2-.2-.7-1-1.5-1.8-2.2" fill="#d4212f"/><path d="M291.3 174.5c0 .7-.2 1.4-1.5 2-2 1-6.6 3.8-7.4 8a25 25 0 017.9-5.8c1.9-.6 2.4-1.3 2.8-2-.2-.7-1-1.5-1.8-2.2z" fill="none" stroke="#000" stroke-width=".322497"/><path d="M292.3 171.8c-1.6-2-1.5-4-.4-5.7-1.4 0-2.8.4-4.2 1.7 0 2.8 1.5 5 2.7 6l.9.7c.8.8 1.6 1.5 1.8 2.2.7-1.2.7-3-.8-4.9" fill="#d4212f"/><path d="M347.7 232.3l3.9-42.2m1.5 0l-2 42.4m2.7 0l.5-42.5m-2.9 2h2.9m-3.1 2.2l3 .1m-3.2 2l3.2.2m-3.4 1.9h3.4m-3.6 2.3l3.5.1m-3.7 2.6l3.7.1m-4 2.6h4m-4.3 3l4.3.1m-4.5 2.5l4.4.2m-4.7 2.7l4.7.2m-5 2.9l5 .2m-5.2 2.3l5.1.2m-5.3 2l5.3.1m-5.5 2l5.5.3m-5.8 2.3l5.8.2m3-37.4l4.7 37m4.7 0l-9.5-37m2.9 37l-3.7-37m1.2 37l-1.5-37m.1 2.2l1.5-.1m-1.4 1.6h1.9m-1.8 3.2l2.5-.3M356 199h3m-3 2l3.5-.4m-3.3 2.8l3.6-1.5m-3.6 3.3l4-1.5m-3.9 3.6l4.4-1.6m-4.3 4.1l4.8-2.3m-4.6 6.6l5.8-2m-5.7 5.1l6.3-2.7m-6.2 5.5l6.9-2.8m-6.8 4.6l7.3-2.4m-7.2 4.8l7.7-3m-7.6 5.8l8.1-3.7m-73-51.5c-1.6-2-1.5-4-.4-5.7-1.4 0-2.8.4-4.2 1.7 0 2.8 1.5 5 2.7 6l.9.7c.8.8 1.6 1.5 1.8 2.2.7-1.2.7-3-.8-4.9z" fill="none" stroke="#000" stroke-width=".322497"/><path d="M317.2 306.8c1-2.7 2.6-10.8 2-14.3.1-1 .2-2.4 0-2.9-1.5 0-3.7-.2-6.1-.1 2 9.6-1.9 15-.5 18.7 1.7 1.7 3.6 1.2 4.6-1.4" fill="#efae0e"/><path d="M317.2 306.8c1-2.7 2.6-10.8 2-14.3 0 0 0 0 0 0s0 0 0 0h0c.1-1 .2-2.4 0-2.9-1.5 0-3.7-.2-6.1-.1 2 9.6-1.9 15-.5 18.7 1.7 1.7 3.6 1.2 4.6-1.4z" fill="none" stroke="#000" stroke-width=".322497"/><path d="M336 294c-.7.7-1.3 1.5-1.7 2.6-.7 1.6-1 3.8-.9 6.2 2.7-2.6 6.6-9.1 2.6-8.8" fill="#efae0e"/><path d="M336 294c-.7.7-1.3 1.5-1.7 2.6-.7 1.6-1 3.8-.9 6.2 2.7-2.6 6.6-9.1 2.6-8.8z" fill="none" stroke="#000" stroke-width=".322497"/><path d="M325.8 307a7 7 0 01-3.7 4.4c1 1.4 1.7 2 2.5 1.6.8-.5 2.8-2.6 3.8-4.7-1 0-2-.4-2.6-1.3" fill="#efae0e"/><path d="M325.8 307a7 7 0 01-3.7 4.4c1 1.4 1.7 2 2.5 1.6.8-.5 2.8-2.6 3.8-4.7-1 0-2-.4-2.6-1.3z" fill="none" stroke="#000" stroke-width=".322497"/><path d="M325.3 302.6c-2.3-4-1.6-7.7.6-8.6-.1-.9-.2-1.6-.4-2-1-2.9-6-1.1-6.4.5.7 3.5-1 11.6-2 14.3-.9 2.6-2.8 3.1-4.5 1.4-.4 4.8 5.4 5.5 9.5 3.2a7 7 0 003.7-4.4 16.7 16.7 0 00.4-3l-1-1.4" fill="#efae0e"/><path d="M325.3 302.6c-2.3-4-1.6-7.7.6-8.6-.1-.9-.2-1.6-.4-2-1-2.9-6-1.1-6.4.5.7 3.5-1 11.6-2 14.3-.9 2.6-2.8 3.1-4.5 1.4-.4 4.8 5.4 5.5 9.5 3.2a7 7 0 003.7-4.4 16.7 16.7 0 00.4-3l-1-1.4z" fill="none" stroke="#000" stroke-width=".322497"/><path d="M326.2 296.4l-.3-2.4c-2.2 1-2.9 4.6-.6 8.6l.9 1.5c.2-2.5.2-5.4 0-7.7" fill="#efae0e"/><path d="M326.2 296.4l-.3-2.4c-2.2 1-2.9 4.6-.6 8.6l.9 1.5c.2-2.5.2-5.4 0-7.7z" fill="none" stroke="#000" stroke-width=".322497"/><path d="M349 287.9c-1.7 1.1-3.3 1-4.5 1.4-.4 1.5-1.2 2.9-2.8 4.5.8.8 1 2 .4 3.2-1.6 2.7-.7 9 .4 10.8 1 1.7 2.3 1.2 3.7-.4.3-2.4 0-3.7.2-7.8.3-3.4 2-7.7 2.6-11.7" fill="#efae0e"/><path d="M333.5 304.1l.1 1.4-.1-1.4zm0-1.3a28.2 28.2 0 000 0zm15.5-15c-1.7 1.2-3.3 1.2-4.5 1.5-.4 1.5-1.2 2.9-2.8 4.5.8.8 1 2 .4 3.2-1.6 2.7-.7 9 .4 10.8 1 1.7 2.3 1.2 3.7-.4.3-2.4 0-3.7.2-7.8.3-3.4 2-7.7 2.6-11.7z" fill="none" stroke="#000" stroke-width=".322497"/><path d="M333.6 305.5c-.6 1.1-1.8 2-3 2.4 1.2 2 3.5 4.3 4.3 4.6 1 .5 1.6.2 2.5-1a8.4 8.4 0 01-3.8-6" fill="#efae0e"/><path d="M333.6 305.5c-.6 1.1-1.8 2-3 2.4 1.2 2 3.5 4.3 4.3 4.6 1 .5 1.6.2 2.5-1a8.4 8.4 0 01-3.8-6z" fill="none" stroke="#000" stroke-width=".322497"/><path d="M333.5 304.1v-1.3c-.1-2.4.1-4.6.8-6.2-2-1.8-7-1.5-8.1-.2.2 2.4.2 5.2 0 7.7l-.1 1c0 .7-.2 1.3-.3 2 .6.8 1.6 1.1 2.7 1.2.7 0 1.4-.2 2.1-.4a5.9 5.9 0 003-2.4l-.1-1.4" fill="#efae0e"/><path d="M333.5 304.1v-1.3c-.1-2.4.1-4.6.8-6.2-2-1.8-7-1.5-8.1-.2.2 2.4.2 5.2 0 7.7l-.1 1c0 .7-.2 1.3-.3 2 .6.8 1.6 1.1 2.7 1.2.7 0 1.4-.2 2.1-.4a5.9 5.9 0 003-2.4l-.1-1.4h0z" fill="none" stroke="#000" stroke-width=".322497"/><path d="M342.5 307.8a12 12 0 01-1.1-4.1 19 19 0 01-.1-3.4c0-1.3.3-2.4.8-3.3.7-1.2.4-2.4-.4-3.2-.8-.7-2.2-1-3.9-.7-.7.2-1.3.5-1.8 1 4-.4.1 6.1-2.6 8.7l.1 1.3.1 1.4c.3 2.6 2 4.7 3.8 6 1.4.9 2.8 1.4 4 1.4 2.7 0 4.8-2 4.8-5.5-1.3 1.6-2.7 2.1-3.7.4" fill="#efae0e"/><path d="M382.2 260.1l-96.2-9-4.3-.3-43-4c.5 1.7 1.1 3.5 1.8 5.2l155.4 14.6c4.6-.2 10.8.2 14.3.8l2.5-4.4zm-48.7 44h0zm0-1.3zm9 5a12 12 0 01-1.1-4.1 19 19 0 01-.1-3.4c0-1.3.3-2.4.8-3.3.7-1.2.4-2.4-.4-3.2-.8-.7-2.2-1-3.9-.7-.7.2-1.3.5-1.8 1 4-.4.1 6.1-2.6 8.7l.1 1.3h0l.1 1.4c.3 2.6 2 4.7 3.8 6 1.4.9 2.8 1.4 4 1.4 2.7 0 4.8-2 4.8-5.5-1.3 1.6-2.7 2.1-3.7.4z" fill="none" stroke="#000" stroke-width=".322497"/><path d="M311.9 277a29 29 0 0115.2-3c5.4.7 8.3-.4 9.7-1.3 1.3-1 3-2 6-1.6 3 .4 5.5-.2 7.5-1s4.4-1 6-.8c5.9 1.2 31.9-.3 36.7-2.5-5.6.7-35.8.7-38.6-.3-2.8-1.1-6-.6-9.8 1-3.7 1.6-6.2 1.8-8 1-1-.5-2.5-.5-3.4.4-.9 1-.5 1.9-4.5 1.9s-17.2 1-24.9 2.4c2.8 3.2 6.7 3 8 3.7" fill="#fff"/><path d="M311.9 277a29 29 0 0115.2-3c5.4.7 8.3-.4 9.7-1.3 1.3-1 3-2 6-1.6 3 .4 5.5-.2 7.5-1s4.4-1 6-.8c5.9 1.2 31.9-.3 36.7-2.5-5.6.7-35.8.7-38.6-.3-2.8-1.1-6-.6-9.8 1-3.7 1.6-6.2 1.8-8 1-1-.5-2.5-.5-3.4.4-.9 1-.5 1.9-4.5 1.9s-17.2 1-24.9 2.4c2.8 3.2 6.7 3 8 3.7z" fill="none" stroke="#000" stroke-width=".322497"/><path d="M278.2 284.7c3.6 2.9 13 1.2 14.9.3 1.8-1 3.4-1.7 7.5-2 4.6-.2 8.2-.7 11.7-4.2 1.6-1.7.6-2.2-.6-3-1.1-.7-4.6-2-6.3-4.2-.7-.9-1.6-.5-2.5 0-1 .5-3.2.1-5-.4-1.6-.5-15-.8-17.7 1.6-2.6 2.4-7.2 4.3-4.3 8.9.7 1.2 1.3 2.2 2.3 3" fill="#949492"/><path d="M278.2 284.7c3.6 2.9 13 1.2 14.9.3 1.8-1 3.4-1.7 7.5-2 4.6-.2 8.2-.7 11.7-4.2 1.6-1.7.6-2.2-.6-3-1.1-.7-4.6-2-6.3-4.2-.7-.9-1.6-.5-2.5 0-1 .5-3.2.1-5-.4-1.6-.5-15-.8-17.7 1.6-2.6 2.4-7.2 4.3-4.3 8.9.7 1.2 1.3 2.2 2.3 3z" fill="none" stroke="#000" stroke-width=".322497"/><path d="M340.2 219c-.1-6.3-4-11-11-11-6 0-11.1 4-11.5 11h22.5" fill="#efae0e"/><path d="M281.8 158.6c0-1.2.8-2.2 2-2.2 1.3 0 2.6 1.1 2.4 2.1-.2 1.5-.3 2.3-1.8 2.5-1.3 0-2.6-.6-2.6-2.4" fill="#d4212f"/><path d="M281.8 158.6c0-1.2.8-2.2 2-2.2 1.3 0 2.6 1.1 2.4 2.1-.2 1.5-.3 2.3-1.8 2.5-1.3 0-2.6-.6-2.6-2.4z" fill="none" stroke="#000" stroke-width=".322497"/><path d="M273.3 148.2c0-1.1.8-2.2 2-2.2 1.3 0 2.6 1.2 2.5 2.2-.3 1.4-.4 2.3-1.9 2.4-1.3 0-2.6-.6-2.6-2.4" fill="#d4212f"/><path d="M273.3 148.2c0-1.1.8-2.2 2-2.2 1.3 0 2.6 1.2 2.5 2.2-.3 1.4-.4 2.3-1.9 2.4-1.3 0-2.6-.6-2.6-2.4z" fill="none" stroke="#000" stroke-width=".322497"/><path d="M262.7 182.8c-.5-1-.2-2.4 1-3 1.1-.4 2.8 0 3 1 .4 1.5.7 2.3-.6 3-1.2.7-2.7.6-3.4-1" fill="#d4212f"/><path d="M262.7 182.8c-.5-1-.2-2.4 1-3 1.1-.4 2.8 0 3 1 .4 1.5.7 2.3-.6 3-1.2.7-2.7.6-3.4-1z" fill="none" stroke="#000" stroke-width=".322497"/><path d="M250.7 176.8c-.4-1-.1-2.4 1-2.9s2.8 0 3 1c.4 1.4.7 2.3-.6 3-1.1.6-2.6.5-3.4-1" fill="#d4212f"/><path d="M250.7 176.8c-.4-1-.1-2.4 1-2.9s2.8 0 3 1c.4 1.4.7 2.3-.6 3-1.1.6-2.6.5-3.4-1z" fill="none" stroke="#000" stroke-width=".322497"/><path d="M240.6 210.3c-.8-.7-1-2-.2-3s2.5-1.1 3.2-.3c.9 1.1 1.4 1.8.5 3-.8 1-2.2 1.5-3.5.3" fill="#d4212f"/><path d="M240.6 210.3c-.8-.7-1-2-.2-3s2.5-1.1 3.2-.3c.9 1.1 1.4 1.8.5 3-.8 1-2.2 1.5-3.5.3z" fill="none" stroke="#000" stroke-width=".322497"/><path d="M256.4 243.1c-1.1-.3-2-1.5-1.5-2.7.3-1.1 1.8-2 2.7-1.6 1.3.7 2.1 1 1.8 2.5-.3 1.3-1.4 2.3-3 1.8" fill="#d4212f"/><path d="M256.4 243.1c-1.1-.3-2-1.5-1.5-2.7.3-1.1 1.8-2 2.7-1.6 1.3.7 2.1 1 1.8 2.5-.3 1.3-1.4 2.3-3 1.8z" fill="none" stroke="#000" stroke-width=".322497"/><path d="M244 248c-1.1-.3-2-1.4-1.5-2.6.3-1.2 1.8-2 2.7-1.6 1.3.6 2.1 1 1.8 2.5-.3 1.2-1.4 2.3-3 1.8" fill="#d4212f"/><path d="M244 248c-1.1-.3-2-1.4-1.5-2.6.3-1.2 1.8-2 2.7-1.6 1.3.6 2.1 1 1.8 2.5-.3 1.2-1.4 2.3-3 1.8z" fill="none" stroke="#000" stroke-width=".322497"/><path d="M269.6 270c-1.1 0-2.3-.8-2.3-2 0-1.3 1.1-2.6 2.1-2.5 1.4.2 2.3.3 2.5 1.8.1 1.3-.5 2.6-2.3 2.7" fill="#d4212f"/><path d="M269.6 270c-1.1 0-2.3-.8-2.3-2 0-1.3 1.1-2.6 2.1-2.5 1.4.2 2.3.3 2.5 1.8.1 1.3-.5 2.6-2.3 2.7z" fill="none" stroke="#000" stroke-width=".322497"/><path d="M259.6 278.8c-1.2 0-2.3-.8-2.3-2s1-2.6 2-2.5c1.5.2 2.4.3 2.5 1.8.2 1.3-.5 2.6-2.2 2.7" fill="#d4212f"/><path d="M259.6 278.8c-1.2 0-2.3-.8-2.3-2s1-2.6 2-2.5c1.5.2 2.4.3 2.5 1.8.2 1.3-.5 2.6-2.2 2.7z" fill="none" stroke="#000" stroke-width=".322497"/><path d="M284 300.6c-1 .6-2.4.3-3-.8-.5-1.1 0-2.8 1-3.1 1.3-.4 2.2-.7 3 .5.6 1.2.6 2.7-1 3.4" fill="#d4212f"/><path d="M284 300.6c-1 .6-2.4.3-3-.8-.5-1.1 0-2.8 1-3.1 1.3-.4 2.2-.7 3 .5.6 1.2.6 2.7-1 3.4z" fill="none" stroke="#000" stroke-width=".322497"/><path d="M304.4 134.6c0-1.2.8-2.2 2-2.2 1.3 0 2.6 1.1 2.4 2.1-.2 1.5-.3 2.3-1.8 2.5-1.3 0-2.6-.6-2.6-2.4" fill="#d4212f"/><path d="M304.4 134.6c0-1.2.8-2.2 2-2.2 1.3 0 2.6 1.1 2.4 2.1-.2 1.5-.3 2.3-1.8 2.5-1.3 0-2.6-.6-2.6-2.4z" fill="none" stroke="#000" stroke-width=".322497"/><path d="M289.4 288.4c-1 .5-2.3.3-2.9-.8-.5-1.2 0-2.9.9-3.2 1.4-.4 2.2-.7 3 .6.6 1.1.6 2.6-1 3.4" fill="#d4212f"/><path d="M279.7 232.8c8.3 5.3 24.8 7.8 34 8.6 16.9 1.5 41.3 2 56.5 1.1.2.7.1 1.8 0 2.3-12.6 1-47-.3-52.2-.9-5.3-.5-27-2.2-38.3-11zm9.7 55.6c-1 .5-2.3.3-2.9-.8-.5-1.2 0-2.9.9-3.2 1.4-.4 2.2-.7 3 .6.6 1.1.6 2.6-1 3.4z" fill="none" stroke="#000" stroke-width=".322497"/><path d="M280.2 223.2c.3 2 .6 3.8.6 5.8 1.6.6 3.4 1.2 5.3 1.7v-5.5l-5.9-2" fill="#fff"/><path d="M280.2 223.2c.3 2 .6 3.8.6 5.8 1.6.6 3.4 1.2 5.3 1.7v-5.5l-5.9-2z" fill="none" stroke="#000" stroke-width=".322497"/><path d="M297.5 228l-.1 5.2 5.5 1V229a240 240 0 01-5.4-1" fill="#fff"/><path d="M297.5 228l-.1 5.2 5.5 1V229a240 240 0 01-5.4-1z" fill="none" stroke="#000" stroke-width=".322497"/><path d="M289 226v5.4l5.5 1.3.2-5.3-5.7-1.4" fill="#fff"/><path d="M289 226v5.4l5.5 1.3.2-5.3-5.7-1.4z" fill="none" stroke="#000" stroke-width=".322497"/><path d="M356.6 234.5l.1 4 5.3.1-.1-4-5.3-.1" fill="#fff"/><path d="M356.6 234.5l.1 4 5.3.1-.1-4-5.3-.1z" fill="none" stroke="#000" stroke-width=".322497"/><path d="M348.3 234.1v4.2l5.6.2.1-4.1c-2 0-3.8-.2-5.7-.3" fill="#fff"/><path d="M348.3 234.1v4.2l5.6.2.1-4.1c-2 0-3.8-.2-5.7-.3z" fill="none" stroke="#000" stroke-width=".322497"/><path d="M365 234.7l.1 4h5.3v-4h-5.3" fill="#fff"/><path d="M365 234.7l.1 4h5.3v-4h-5.3z" fill="none" stroke="#000" stroke-width=".322497"/><path d="M339.8 233.5v4.4l5.8.3v-4.3c-2 0-4-.2-5.8-.4" fill="#fff"/><path d="M339.8 233.5v4.4l5.8.3v-4.3c-2 0-4-.2-5.8-.4z" fill="none" stroke="#000" stroke-width=".322497"/><path d="M377.1 234.7h-3.6l.2 3.9h3.4v-4" fill="#fff"/><path d="M377.1 234.7h-3.6l.2 3.9h3.4v-4z" fill="none" stroke="#000" stroke-width=".322497"/><path d="M314.2 230.9l.2 4.8 5.7.6.1-4.6-6-.8" fill="#fff"/><path d="M314.2 230.9l.2 4.8 5.7.6.1-4.6-6-.8z" fill="none" stroke="#000" stroke-width=".322497"/><path d="M305.9 229.6l.1 5 5.6.7v-4.8l-5.7-1" fill="#fff"/><path d="M305.9 229.6l.1 5 5.6.7v-4.8l-5.7-1z" fill="none" stroke="#000" stroke-width=".322497"/><path d="M330.8 232.8l.1 4.6 6.2.4v-4.4a453 453 0 01-6.3-.6" fill="#fff"/><path d="M330.8 232.8l.1 4.6 6.2.4v-4.4a453 453 0 01-6.3-.6z" fill="none" stroke="#000" stroke-width=".322497"/><path d="M323.1 232h-.2v4.6h.2l5 .6.1-4.6-5-.6" fill="#fff"/><path d="M323.1 232h-.2v4.6h.2l5 .6.1-4.6-5-.6z" fill="none" stroke="#000" stroke-width=".322497"/><path d="M286 251.2a18 18 0 00-2.4-5 577.2 577.2 0 0029 2.6l7 .5 5 .4a1566.6 1566.6 0 0056 2.7c.3-1.5.8-3.1 1.4-4-12.9.4-81.3-2.2-103-5l2.7 7.4 4.3.4" fill="#d4212f"/><path d="M388 230.2l-.1 5.6h1l.1-5.5zm-2-.2v5.6h.8v-5.5zm5.2.5l-1-.1-.3 5.6h1zm-7.6-.7l-.4 5.5 1.3.1.2-5.5zm-2.9 8.1l4 7.5h2.9l2.1-7zm1.1-10l-.8 8.8 10.8.2 2-7.9zM286 251.3a18 18 0 00-2.4-5 577.2 577.2 0 0029 2.6l7 .5 5 .4a1566.6 1566.6 0 0056 2.7c.3-1.5.8-3.1 1.4-4-12.9.4-81.3-2.2-103-5l2.7 7.4z" fill="none" stroke="#000" stroke-width=".322497"/><path d="M294.5 250.6c1.5.3 3.3.5 5.4.7l.2-3.5-5.5-.4v3.2" fill="#fff"/><path d="M294.5 250.6c1.5.3 3.3.5 5.4.7l.2-3.5-5.5-.4v3.2z" fill="none" stroke="#000" stroke-width=".322497"/><path d="M345.3 255.6l4 .4v-4.8l-4.3-.2.3 4.6" fill="#fff"/><path d="M345.3 255.6l4 .4v-4.8l-4.3-.2z" fill="none" stroke="#000" stroke-width=".322497"/><path d="M357.2 256.8l4.9.3V252l-5.2-.3.3 5.2" fill="#fff"/><path d="M357.2 256.8l4.9.3V252l-5.2-.3z" fill="none" stroke="#000" stroke-width=".322497"/><path d="M332.2 254.4l4.7.4v-4.3l-4.8-.3.1 4.2" fill="#fff"/><path d="M332.2 254.4l4.7.4v-4.3l-4.8-.3z" fill="none" stroke="#000" stroke-width=".322497"/><path d="M306.4 252l6 .6.2-3.8-6.3-.5.1 3.7" fill="#fff"/><path d="M306.4 252l6 .6.2-3.8-6.3-.5z" fill="none" stroke="#000" stroke-width=".322497"/><path d="M319.7 253.3l4.8.4.2-4-5-.4v4" fill="#fff"/><path d="M319.7 253.3l4.8.4.2-4-5-.4z" fill="none" stroke="#000" stroke-width=".322497"/><path d="M379.7 265.8l-4.4-19c-.4-1.7 1.2-3 2-.6l7.2 19.4-4.8.2" fill="#fff"/><path d="M379.7 265.8l-4.4-19c-.4-1.7 1.2-3 2-.6l7.2 19.4z" fill="none" stroke="#000" stroke-width=".322497"/><path d="M365.8 265s-2.7-16.1-3-17.8c-.5-1.8 1-4 2-.5 1 3.6 5.9 18.5 5.9 18.5l-4.9-.2" fill="#fff"/><path d="M365.8 265s-2.7-16.1-3-17.8c-.5-1.8 1-4 2-.5 1 3.6 5.9 18.5 5.9 18.5z" fill="none" stroke="#000" stroke-width=".322497"/><path d="M353 264.3s-2.5-17.9-2.9-19.2c-.4-1.2.9-2 1.5-.2s5.3 19.4 5.3 19.4H353" fill="#fff"/><path d="M353 264.3s-2.5-17.9-2.9-19.2c-.4-1.2.9-2 1.5-.2s5.3 19.4 5.3 19.4z" fill="none" stroke="#000" stroke-width=".322497"/><path d="M339.6 264s.7-18.5.6-19.6c-.1-1.2 1.3-1.7 1.6-.1l1.8 19.5-4 .2" fill="#fff"/><path d="M339.6 264s.7-18.5.6-19.6c-.1-1.2 1.3-1.7 1.6-.1l1.8 19.5z" fill="none" stroke="#000" stroke-width=".322497"/><path d="M326.4 263s1.3-18.4 1.2-19.4c-.1-1 1.3-2 1.5 0 .3 2 1.6 19.4 1.6 19.4h-4.3" fill="#fff"/><path d="M326.4 263s1.3-18.4 1.2-19.4c-.1-1 1.3-2 1.5 0 .3 2 1.6 19.4 1.6 19.4z" fill="none" stroke="#000" stroke-width=".322497"/><path d="M312.1 262.9l4.3-19.9c.3-1.2 1.2-1 1.2.1l-.5 19.9-5-.1" fill="#fff"/><path d="M312.1 262.9l4.3-19.9c.3-1.2 1.2-1 1.2.1l-.5 19.9z" fill="none" stroke="#000" stroke-width=".322497"/><path d="M298.2 260.8l5-16.6c.3-1.4 2.4-1 2.2.5 0 1.5-3.3 16.4-3.3 16.4l-3.9-.3" fill="#fff"/><path d="M298.2 260.8l5-16.6c.3-1.4 2.4-1 2.2.5 0 1.5-3.3 16.4-3.3 16.4z" fill="none" stroke="#000" stroke-width=".322497"/><path d="M283.3 259.7l8.8-16.1c.8-1.6 2.3-1 1.6.1l-6.7 16h-3.7" fill="#fff"/><path d="M283.3 259.7l8.8-16.1c.8-1.6 2.3-1 1.6.1l-6.7 16z" fill="none" stroke="#000" stroke-width=".322497"/><path d="M376.6 158.4c0-1.1-.9-2.2-2.1-2.2-1.2 0-2.6 1.2-2.4 2.2.2 1.4.4 2.3 1.8 2.4 1.3.1 2.7-.6 2.7-2.4" fill="#d4212f"/><path d="M376.6 158.4c0-1.1-.9-2.2-2.1-2.2-1.2 0-2.6 1.2-2.4 2.2.2 1.4.4 2.3 1.8 2.4 1.3.1 2.7-.6 2.7-2.4z" fill="none" stroke="#000" stroke-width=".322497"/><path d="M385 148c0-1-.8-2.2-2-2.2s-2.6 1.2-2.4 2.2c.2 1.4.3 2.3 1.8 2.4 1.3.1 2.6-.6 2.6-2.3" fill="#d4212f"/><path d="M385 148c0-1-.8-2.2-2-2.2s-2.6 1.2-2.4 2.2c.2 1.4.3 2.3 1.8 2.4 1.3.1 2.6-.6 2.6-2.3z" fill="none" stroke="#000" stroke-width=".322497"/><path d="M395.6 182.6c.5-1 .2-2.4-1-2.9-1-.5-2.7 0-3 1-.4 1.4-.6 2.3.7 3 1.1.6 2.6.5 3.3-1" fill="#d4212f"/><path d="M395.6 182.6c.5-1 .2-2.4-1-2.9-1-.5-2.7 0-3 1-.4 1.4-.6 2.3.7 3 1.1.6 2.6.5 3.3-1z" fill="none" stroke="#000" stroke-width=".322497"/><path d="M407.6 176.7c.5-1.1.2-2.4-1-3-1.1-.4-2.8 0-3 1-.4 1.5-.7 2.3.6 3 1.2.7 2.7.6 3.4-1" fill="#d4212f"/><path d="M407.6 176.7c.5-1.1.2-2.4-1-3-1.1-.4-2.8 0-3 1-.4 1.5-.7 2.3.6 3 1.2.7 2.7.6 3.4-1z" fill="none" stroke="#000" stroke-width=".322497"/><path d="M417.7 210.2c.9-.8 1.1-2.1.3-3-.9-1-2.6-1.2-3.2-.4-1 1.1-1.5 1.8-.6 3 .8 1 2.2 1.6 3.5.4" fill="#d4212f"/><path d="M417.7 210.2c.9-.8 1.1-2.1.3-3-.9-1-2.6-1.2-3.2-.4-1 1.1-1.5 1.8-.6 3 .8 1 2.2 1.6 3.5.4z" fill="none" stroke="#000" stroke-width=".322497"/><path d="M402 243c1-.4 1.9-1.5 1.5-2.7-.4-1.2-2-2-2.8-1.6-1.3.6-2 1-1.8 2.4.3 1.3 1.4 2.4 3 1.8" fill="#d4212f"/><path d="M402 243c1-.4 1.9-1.5 1.5-2.7-.4-1.2-2-2-2.8-1.6-1.3.6-2 1-1.8 2.4.3 1.3 1.4 2.4 3 1.8z" fill="none" stroke="#000" stroke-width=".322497"/><path d="M414.4 248c1-.4 1.9-1.6 1.5-2.7-.4-1.2-2-2.1-2.8-1.7-1.3.7-2 1-1.8 2.5.4 1.3 1.4 2.3 3 1.8" fill="#d4212f"/><path d="M414.4 248c1-.4 1.9-1.6 1.5-2.7-.4-1.2-2-2.1-2.8-1.7-1.3.7-2 1-1.8 2.5.4 1.3 1.4 2.3 3 1.8z" fill="none" stroke="#000" stroke-width=".322497"/><path d="M388.7 269.8c1.2 0 2.3-.7 2.3-2 0-1.2-1-2.6-2-2.4-1.5.1-2.4.2-2.5 1.7-.2 1.3.5 2.7 2.2 2.7" fill="#d4212f"/><path d="M388.7 269.8c1.2 0 2.3-.7 2.3-2 0-1.2-1-2.6-2-2.4-1.5.1-2.4.2-2.5 1.7-.2 1.3.5 2.7 2.2 2.7z" fill="none" stroke="#000" stroke-width=".322497"/><path d="M398.8 278.6c1.1 0 2.2-.7 2.3-2 0-1.2-1.1-2.5-2.1-2.4-1.5.2-2.3.3-2.5 1.7-.1 1.3.5 2.7 2.3 2.7" fill="#d4212f"/><path d="M398.8 278.6c1.1 0 2.2-.7 2.3-2 0-1.2-1.1-2.5-2.1-2.4-1.5.2-2.3.3-2.5 1.7-.1 1.3.5 2.7 2.3 2.7z" fill="none" stroke="#000" stroke-width=".322497"/><path d="M368.9 288.3c1 .5 2.4.2 3-.9.5-1.1 0-2.8-1-3.1-1.3-.4-2.2-.7-3 .5-.6 1.2-.6 2.7 1 3.5" fill="#d4212f"/><path d="M368.9 288.3c1 .5 2.4.2 3-.9.5-1.1 0-2.8-1-3.1-1.3-.4-2.2-.7-3 .5-.6 1.2-.6 2.7 1 3.5z" fill="none" stroke="#000" stroke-width=".322497"/><path d="M374.3 300.5c1 .5 2.4.3 3-.9.5-1 0-2.8-1-3-1.3-.5-2.1-.8-2.9.5-.7 1.1-.6 2.6 1 3.4" fill="#d4212f"/><path d="M374.3 300.5c1 .5 2.4.3 3-.9.5-1 0-2.8-1-3-1.3-.5-2.1-.8-2.9.5-.7 1.1-.6 2.6 1 3.4z" fill="none" stroke="#000" stroke-width=".322497"/><path d="M354 134.4c0-1.1-.9-2.2-2-2.2-1.3 0-2.6 1.2-2.5 2.2.3 1.4.4 2.3 1.8 2.4 1.4.1 2.7-.6 2.7-2.4" fill="#d4212f"/><path d="M354 134.4c0-1.1-.9-2.2-2-2.2-1.3 0-2.6 1.2-2.5 2.2.3 1.4.4 2.3 1.8 2.4 1.4.1 2.7-.6 2.7-2.4z" fill="none" stroke="#000" stroke-width=".322497"/><g fill="#002a86"><path d="M353 326c.3-.2.6-.4 1-.4s.8 0 1.1.4c.4.3.6.8.6 1.4.1.6 0 1-.2 1.4-.3.4-.6.6-1.1.7-.5 0-.9-.1-1.3-.5-.3-.3-.5-.8-.6-1.3 0-.8.1-1.3.5-1.7M233.3 277.5l3-3.5 1.5 2.4zM282 117l3.1 3.5-2.5 1.2zM417 289.7c-.5.2-1 .1-1.5-.3s-.7-.8-.6-1.3c0-.3.3-.6.6-1l1.6-2.1 2.4 1.8-1.7 2.2c-.3.3-.6.6-.9.7M223.6 233.8c-.6.6-1.6.9-2.9 1-1.2 0-2.2-.3-2.9-.8-.7-.5-1-1.3-1-2.2 0-1 .2-1.7 1-2.2.6-.6 1.5-.9 2.8-1 1.2 0 2.2.3 2.9.8.7.5 1 1.3 1 2.2.1 1-.2 1.7-.9 2.2"/></g><path d="M399.8 204l-4 13-3.1 10.4 1.9.1 5.8-25.6zm-2.2 7.3l2.2-7.3z" fill="none" stroke="#000" stroke-width=".322497"/><path d="M395.4 202.8a22.2 22.2 0 00-9.6 2.4c-2.6 1.4-4.7 2.8-7.8 3.3l-.1 1.9-.4 2.4-.4 1.6-.5 1.6-.4 1.5a91.5 91.5 0 00-1 3.8c2 .7 6-1 7.7-2.6 3.5-3.3 8.7-3.1 13-1.7l.5-2 .5-1.6.7-2.1 2.2-7.3a7.8 7.8 0 00-4.4-1.2z" fill="#d4212f"/><g fill="none" stroke="#fff" stroke-width="2"><path d="M377 214.4c3 0 7.2-4.6 10.6-4.9 3.6-.2 7.4-1.5 8.2-1.5M388.7 207.6c-4.2.2-8.5 4.9-11.3 4.9M377.9 210.4c3-.4 6.9-4.2 10.4-4.3M396.3 215.7c-3.2-1.9-9-1.2-12.1.6-1.8 1-6 4.4-8.7 4" stroke-width=".71666"/><path d="M376 218.1c2.3.2 6.8-2.7 8.5-3.7 3.1-1.9 9.3-2.3 12.4-.3" stroke-width=".71666"/></g><path d="M399.8 204s-3.3-2.8-12 .3c.2-.4-.2 4.8.9 6.8 0 0 4-.7 8.8.6" fill="#002a86"/><path d="M376.5 216.3c3 .4 7.3-4.4 11-5.1 0 0 4.5-1 10 .5" fill="none" stroke="#fff" stroke-width=".71666"/><path d="M395.4 202.8c-2 0-4.3.5-6.3 1.1h0l-3.3 1.4c-2.6 1.3-4.7 2.7-7.8 3.2l-.1 1.9s0 0 0 0l-.4 2.4s0 0 0 0l-.4 1.6s0 0 0 0l-.5 1.6-.4 1.5s0 0 0 0a91.5 91.5 0 00-1 3.8c2 .7 6-1 7.7-2.6 3.5-3.3 8.7-3.1 13-1.7l.5-2h0l.5-1.6s0 0 0 0l.7-2.1 2.2-7.3a7.8 7.8 0 00-4.4-1.2z" fill="none" stroke="#000" stroke-width=".322497"/><path d="M319.7 142.6c2.2-1.8 4.9-3.6 6.6-4.5a15.4 15.4 0 00-8.6-1.9c2-1 4-4 4.1-6.5-3.4-.5-8.3 1.8-10 4.4-1 1.7-4.5 5.4-6.8 7.5.6-1.6 1.7-3.5 1.7-5.2 0-.7-.7-.9-1 0-.8 3.3-4.5 6.3-7.9 7.4-4.6 1.6-9.4 4-14.1 6.9-.7-.6-.9-1.2-.9-1.8.1-1.3 1.9-1.9 4-2 3.5-.1 15.3-7.2 13.3-13.5-1.3 2.7-4.6 3.6-9.2 4-5.7.5-10.5 5.7-9.3 11.5.3 1.4.4 2.2.4 2.9a72.7 72.7 0 00-5.3 3.8c.3-2 .3-4.4-.2-5.8-.3-.9-1.3-2-1 0 .3 1.5-.4 5.5-1.8 8.4-5.1 4.6-9.8 10-13.6 16.4a2 2 0 01-1.2-1.2c-.4-1.2 1-2.5 2.8-3.4 3-1.6 10.8-13 6.5-18-.1 3.1-2.8 5.3-6.7 7.5-5 3-7.2 9.7-3.7 14.4a15 15 0 011.4 2.1 73 73 0 00-2.6 5.2c-.6-1.6-1.4-3.4-2.3-4.3-.6-.7-2-1.3-.9.4.8 1 1.6 4.2 1.8 7A77 77 0 00249 206a2 2 0 01-1.6-.6c-.9-1 0-2.7 1.3-4.3 2.3-2.6 5.2-16-.7-19 1.1 2.9-.6 5.9-3.4 9.5-3.5 4.5-3 11.6 2 14.6l2.1 1.6a88 88 0 00-.5 5c-1.2-1.5-3-3.1-4.3-3.7-.9-.4-2.4-.4-.7.7 1.3.8 3.6 3.8 4.9 6.7-.3 7.2.2 14.8 1.7 22.6-.6.1-1 0-1.5-.2-1.1-.6-1.1-2.3-.6-4 .8-3-2.2-15.5-8.3-16.4 2 2.2 2 5.2 1 9.2-1 4.9 2.2 11 7.5 12.2l2.2.6c.3 2 1 4.2 1.6 6.6-1.7-.8-4-1.5-5.4-1.5-1 0-2.3.6-.3.9 1.4.2 4.5 1.8 6.8 3.8 2 5.5 4.9 11.7 8.8 18a2 2 0 01-1.6.6c-1.3-.1-1.8-2-1.9-4 0-3.5-7-15.4-13.3-13.6 2.7 1.4 3.5 4.8 3.8 9.3.5 5.7 5.6 10.6 11.4 9.5l2.5-.4c1.2 1.9 2.5 3.7 4 5.5-2-.1-4.2 0-5.6.4-.9.3-2 1.4 0 1 1.4-.3 4.9.2 7.7 1.3a78 78 0 0012.6 12 2 2 0 01-1.1.8c-1.3.2-3.5-2-4-4-1.1-3.4-10.4-7.5-16-4 3 .6 5-.4 6.6 4 2 5.4 9.2 7.3 13.6 5.2l2.2-1c1.8 1.3 3.7 2.6 5.7 3.8-1.6.6-3.4 1.6-4.3 2.4-.7.7-1.3 2.1.3 1 1-.8 3.9-1.7 6.6-2a71.2 71.2 0 0021 7.2c-.1.7-.5 1.1-.8 1.4-1 1-2.7 0-4.3-1.4-2.5-2.3-15.8-5.7-19 .1 3-1 5.9.8 9.4 3.7 4.4 3.7 11.4 3.5 14.7-1.5a6.3 6.3 0 011.8-2l4.2.6.7-3.4-4.5-.7c.5-1.2 1.2-2.7.6-4.4-1-3-6-7.5-10.7-7.5-3.8 0-7-4.2-10-4.5 1 1.9 1.8 3.3 2.1 5.3 1 5.1 6.8 8.3 13.7 7.7 1.7-.1 3 1.7 3.3 3.2a79 79 0 01-21.1-7.3c-1.8-2-2.4-4-2.6-5.2-.4-1.8-1.3-2-1 .2.2 1 .5 2.4 1 3.5-1.7-.9-3.3-1.9-4.9-3 1-1 2.6-2 2.8-4.1.3-3.3-2.4-9.3-6.7-11.4-3.4-1.6-4.7-6.7-7.2-8.2.2 2.1.2 3.7-.2 5.7-1.3 5.1 2.6 10.4 9.1 12.7 2 .7 2.2 3.4 1.5 4.9-4.7-3.2-9-6.9-13-11a12.2 12.2 0 01-.8-7.6c.4-1.8-.2-2.4-.9-.3-.4 1.5-.8 3.5-.7 5a65.8 65.8 0 01-4.1-5.5c1-1.3 3.5-1.6 4.4-4 1.2-3 .2-9.6-3.4-12.7-2.9-2.5-2.8-7.7-4.9-9.9a16 16 0 01-1.6 5.5c-2.6 4.6-.2 10.7 5.5 14.7 2 1.4 1 4.9-.5 5.6a78.3 78.3 0 01-8.4-17.7c-.3-3.8 1-6.2 1.7-7.4 1-1.6.5-2.4-.8-.6a19 19 0 00-2.2 4l-1.4-6c1.2-.3 3.2.2 4.5-1.2 1.8-2 2.9-7.7.6-11.8-1.8-3.2-.2-7.5-1.4-10.1-.9 1.6-1.6 2.7-3 3.7-3.5 2.8-3.2 8.8.6 14.4 1.2 1.7-.1 3.8-1.5 4.3a96 96 0 01-1.2-31.4c1.5 0 3.5 1.2 5.6.2 3-1.5 6.7-7 6-11.7-.4-3.8 3.2-7.6 3.1-10.6-1.6 1.4-3 2.2-4.9 2.9-5 1.7-7.3 7.8-5.8 14.6.5 2.2-2.3 4-3.9 3.8 1-6.5 2.7-13.3 5.2-19.8 2.8-3.2 5.7-4 7.2-4.2 1.8-.4 2.1-1.2-.1-1-1.8.2-4.2.8-5.6 1.6 1-2.2 2-4.4 3.2-6.5 1.6.4 3 2.6 5.5 2.3 3.3-.2 8.7-4 10-8.6.9-3.6 5.6-5.8 6.7-8.6-2 .6-3.6 1-5.6.8-5.3-.3-9.7 4.5-10.9 11.4-.4 2.3-4 3-5.2 2a63.2 63.2 0 0112.9-16.3c3.8-1.7 6.6-1.2 8.1-.9 1.8.5 2.4-.1.3-.8a17 17 0 00-5.3-1 84 84 0 015.7-4.1c1.3 1 1.7 3.6 4 4.4 3.1 1.1 9.6 0 12.7-3.7 2.4-2.9 7.6-2.8 9.7-5-2.1-.2-3.7-.6-5.4-1.5-4.7-2.5-10.7 0-14.6 5.7-1.3 2-4.8 1-5.6-.4 6.2-4 12.7-6.8 20.3-8.9v-1c6.5 3.1 12.9 1.7 15 0" fill="#3f863f"/><path d="M319.7 142.6c2.2-1.8 4.9-3.6 6.6-4.5a15.4 15.4 0 00-8.6-1.9c2-1 4-4 4.1-6.5-3.4-.5-8.3 1.8-10 4.4-1 1.7-4.5 5.4-6.8 7.5.6-1.6 1.7-3.5 1.7-5.2 0-.7-.7-.9-1 0-.8 3.3-4.5 6.3-7.9 7.4-4.6 1.6-9.4 4-14.1 6.9-.7-.6-.9-1.2-.9-1.8.1-1.3 1.9-1.9 4-2 3.5-.1 15.3-7.2 13.3-13.5-1.3 2.7-4.6 3.6-9.2 4-5.7.5-10.5 5.7-9.3 11.5.3 1.4.4 2.2.4 2.9a72.7 72.7 0 00-5.3 3.8c.3-2 .3-4.4-.2-5.8-.3-.9-1.3-2-1 0 .3 1.5-.4 5.5-1.8 8.4-5.1 4.6-9.8 10-13.6 16.4a2 2 0 01-1.2-1.2c-.4-1.2 1-2.5 2.8-3.4 3-1.6 10.8-13 6.5-18-.1 3.1-2.8 5.3-6.7 7.5-5 3-7.2 9.7-3.7 14.4a15 15 0 011.4 2.1 73 73 0 00-2.6 5.2c-.6-1.6-1.4-3.4-2.3-4.3-.6-.7-2-1.3-.9.4.8 1 1.6 4.2 1.8 7A77 77 0 00249 206a2 2 0 01-1.6-.6c-.9-1 0-2.7 1.3-4.3 2.3-2.6 5.2-16-.7-19 1.1 2.9-.6 5.9-3.4 9.5-3.5 4.5-3 11.6 2 14.6l2.1 1.6a88 88 0 00-.5 5c-1.2-1.5-3-3.1-4.3-3.7-.9-.4-2.4-.4-.7.7 1.3.8 3.6 3.8 4.9 6.7-.3 7.2.2 14.8 1.7 22.6-.6.1-1 0-1.5-.2-1.1-.6-1.1-2.3-.6-4 .8-3-2.2-15.5-8.3-16.4 2 2.2 2 5.2 1 9.2-1 4.9 2.2 11 7.5 12.2l2.2.6c.3 2 1 4.2 1.6 6.6-1.7-.8-4-1.5-5.4-1.5-1 0-2.3.6-.3.9 1.4.2 4.5 1.8 6.8 3.8 2 5.5 4.9 11.7 8.8 18a2 2 0 01-1.6.6c-1.3-.1-1.8-2-1.9-4 0-3.5-7-15.4-13.3-13.6 2.7 1.4 3.5 4.8 3.8 9.3.5 5.7 5.6 10.6 11.4 9.5l2.5-.4c1.2 1.9 2.5 3.7 4 5.5-2-.1-4.2 0-5.6.4-.9.3-2 1.4 0 1 1.4-.3 4.9.2 7.7 1.3a78 78 0 0012.6 12 2 2 0 01-1.1.8c-1.3.2-3.5-2-4-4-1.1-3.4-10.4-7.5-16-4 3 .6 5-.4 6.6 4 2 5.4 9.2 7.3 13.6 5.2l2.2-1c1.8 1.3 3.7 2.6 5.7 3.8-1.6.6-3.4 1.6-4.3 2.4-.7.7-1.3 2.1.3 1 1-.8 3.9-1.7 6.6-2a71.2 71.2 0 0021 7.2c-.1.7-.5 1.1-.8 1.4-1 1-2.7 0-4.3-1.4-2.5-2.3-15.8-5.7-19 .1 3-1 5.9.8 9.4 3.7 4.4 3.7 11.4 3.5 14.7-1.5a6.3 6.3 0 011.8-2l4.2.6.7-3.4-4.5-.7c.5-1.2 1.2-2.7.6-4.4-1-3-6-7.5-10.7-7.5-3.8 0-7-4.2-10-4.5 1 1.9 1.8 3.3 2.1 5.3 1 5.1 6.8 8.3 13.7 7.7 1.7-.1 3 1.7 3.3 3.2a79 79 0 01-21.1-7.3c-1.8-2-2.4-4-2.6-5.2-.4-1.8-1.3-2-1 .2.2 1 .5 2.4 1 3.5-1.7-.9-3.3-1.9-4.9-3 1-1 2.6-2 2.8-4.1.3-3.3-2.4-9.3-6.7-11.4-3.4-1.6-4.7-6.7-7.2-8.2.2 2.1.2 3.7-.2 5.7-1.3 5.1 2.6 10.4 9.1 12.7 2 .7 2.2 3.4 1.5 4.9-4.7-3.2-9-6.9-13-11a12.2 12.2 0 01-.8-7.6c.4-1.8-.2-2.4-.9-.3-.4 1.5-.8 3.5-.7 5a65.8 65.8 0 01-4.1-5.5c1-1.3 3.5-1.6 4.4-4 1.2-3 .2-9.6-3.4-12.7-2.9-2.5-2.8-7.7-4.9-9.9a16 16 0 01-1.6 5.5c-2.6 4.6-.2 10.7 5.5 14.7 2 1.4 1 4.9-.5 5.6a78.3 78.3 0 01-8.4-17.7c-.3-3.8 1-6.2 1.7-7.4 1-1.6.5-2.4-.8-.6a19 19 0 00-2.2 4l-1.4-6c1.2-.3 3.2.2 4.5-1.2 1.8-2 2.9-7.7.6-11.8-1.8-3.2-.2-7.5-1.4-10.1-.9 1.6-1.6 2.7-3 3.7-3.5 2.8-3.2 8.8.6 14.4 1.2 1.7-.1 3.8-1.5 4.3a96 96 0 01-1.2-31.4c1.5 0 3.5 1.2 5.6.2 3-1.5 6.7-7 6-11.7-.4-3.8 3.2-7.6 3.1-10.6-1.6 1.4-3 2.2-4.9 2.9-5 1.7-7.3 7.8-5.8 14.6.5 2.2-2.3 4-3.9 3.8 1-6.5 2.7-13.3 5.2-19.8 2.8-3.2 5.7-4 7.2-4.2 1.8-.4 2.1-1.2-.1-1-1.8.2-4.2.8-5.6 1.6 1-2.2 2-4.4 3.2-6.5 1.6.4 3 2.6 5.5 2.3 3.3-.2 8.7-4 10-8.6.9-3.6 5.6-5.8 6.7-8.6-2 .6-3.6 1-5.6.8-5.3-.3-9.7 4.5-10.9 11.4-.4 2.3-4 3-5.2 2a63.2 63.2 0 0112.9-16.3c3.8-1.7 6.6-1.2 8.1-.9 1.8.5 2.4-.1.3-.8a17 17 0 00-5.3-1 84 84 0 015.7-4.1c1.3 1 1.7 3.6 4 4.4 3.1 1.1 9.6 0 12.7-3.7 2.4-2.9 7.6-2.8 9.7-5-2.1-.2-3.7-.6-5.4-1.5-4.7-2.5-10.7 0-14.6 5.7-1.3 2-4.8 1-5.6-.4 6.2-4 12.7-6.8 20.3-8.9v-1c6.5 3.1 12.9 1.7 15 0z" fill="none" stroke="#000" stroke-width=".322497"/><path d="M344.2 299.9l-3 .4c0 1.1 0 2.3.2 3.4l3-.4c.7.3 1.2.8 2 2 3.3 5 10.3 5.3 14.8 1.6 3.5-3 6.4-4.7 9.3-3.7-3.1-5.9-16.5-2.5-19-.1-1.6 1.4-3.2 2.3-4.2 1.4-.4-.4-.8-.8-.9-1.6 7.7-1.4 14.6-4 20.6-7.1 2.9.2 6 1.2 7 2 1.6 1.2 1-.2.4-1-1-.9-3-1.8-4.7-2.5a73 73 0 005.7-3.7c.6.1 1.4.5 2.5 1 4.4 2.2 11.7.2 13.6-5.2 1.5-4.3 3.7-3.4 6.7-4-5.6-3.4-15 .7-16 4-.6 2-2.8 4.3-4 4a2 2 0 01-1.4-.9 79 79 0 0012.4-11.7 18 18 0 018.2-1.5c1.9.5.8-.6-.1-1-1.4-.4-3.8-.5-5.7-.3l4-5.5c.6 0 1.4 0 2.7.3 5.7 1.2 10.9-3.7 11.3-9.5.4-4.5 1.1-7.9 3.9-9.3-6.4-1.8-13.3 10.2-13.4 13.6 0 2.1-.6 4-1.9 4a2 2 0 01-1.7-.7c4-6.2 6.9-12.4 8.9-17.9 2.3-2 5.4-3.6 6.9-3.8 2-.3.6-.9-.4-.9-1.4 0-3.7.7-5.4 1.5.7-2.4 1.3-4.6 1.7-6.6l2.1-.6c5.4-1.3 8.6-7.3 7.5-12.2-.9-4-1-7 1-9.2-6 1-9 13.5-8.2 16.4.5 1.8.5 3.5-.7 4-.4.3-.9.4-1.5.2a104 104 0 001.8-22.6 18 18 0 014.9-6.7c1.6-1 .1-1-.8-.7a16 16 0 00-4.3 3.7l-.5-5a14 14 0 012.2-1.5c5-3.1 5.5-10.2 2-14.7-2.9-3.6-4.6-6.6-3.5-9.5-5.9 3-3 16.5-.6 19 1.3 1.7 2.1 3.4 1.2 4.3a2 2 0 01-1.5.7 77.4 77.4 0 00-6.1-21.6c.1-2.9 1-6 1.7-7.1 1.1-1.6-.2-1-.9-.3-.8.9-1.7 2.6-2.3 4.3-.8-1.8-1.6-3.6-2.6-5.2l1.4-2.2c3.5-4.7 1.3-11.4-3.6-14.3-4-2.3-6.7-4.5-6.7-7.5-4.4 5 3.4 16.3 6.4 18 1.9.9 3.3 2.1 2.8 3.4a2 2 0 01-1.2 1.1 72 72 0 00-13.5-16.3c-1.4-3-2.2-7-2-8.5.4-2-.6-.9-.9 0-.4 1.4-.4 4-.2 5.9a74.4 74.4 0 00-5.3-3.9c0-.7.1-1.5.4-2.9 1.2-5.8-3.6-11-9.3-11.5-4.5-.4-7.9-1.2-9.2-4-2 6.4 9.9 13.4 13.3 13.6 2.1 0 4 .6 4 2a2 2 0 01-.8 1.7c-4.7-3-9.5-5.2-14.2-6.8-3.4-1.2-7-4.1-8-7.5-.1-.8-.8-.6-.8 0 0 1.7 1 3.7 1.6 5.2-2.3-2-5.8-5.8-6.8-7.4-1.6-2.7-6.5-5-10-4.4a9.1 9.1 0 004.1 6.5c-2.9 0-5.8.1-8.6 1.8 1.7 1 4.4 2.7 6.6 4.6 2.2 1.8 8.7 3.2 15.1 0 .1.4.2.8 0 1 7.7 2.1 14.2 5 20.4 9-.8 1.4-4.3 2.3-5.6.3-4-5.7-10-8.2-14.6-5.7-1.8 1-3.3 1.3-5.5 1.6 2.2 2.1 7.4 2 9.8 5 3 3.7 9.5 4.8 12.6 3.6 2.4-.8 2.7-3.4 4-4.4a82 82 0 015.7 4.2c-1.6 0-3.6.4-5.2.9-2.1.7-1.5 1.3.3.9 1.4-.4 4.3-.8 8 .8a63 63 0 0113 16.3c-1.3 1-4.9.4-5.3-2-1.1-6.8-5.6-11.6-10.8-11.3-2 0-3.6-.3-5.6-.9 1 2.9 5.7 5 6.7 8.7 1.3 4.6 6.7 8.3 10 8.6 2.5.2 3.9-2 5.4-2.3a79 79 0 013.2 6.4c-1.4-.8-3.7-1.4-5.6-1.5-2.2-.3-1.9.6 0 .9 1.5.3 4.3 1 7.2 4.3a89.8 89.8 0 015.1 19.8c-1.6.1-4.3-1.7-3.8-3.9 1.4-6.8-1-12.9-5.9-14.6-1.9-.6-3.2-1.5-4.9-2.8 0 3 3.5 6.7 3 10.5a13.2 13.2 0 006.1 11.7c2.1 1 4.1-.2 5.7-.1 1.2 9.6 1 20.5-1.3 31.4-1.3-.5-2.6-2.7-1.5-4.4 3.8-5.6 4.1-11.6.6-14.3-1.3-1-2-2.2-3-3.8-1.2 2.7.4 6.9-1.3 10.1-2.3 4-1.3 9.8.6 11.8 1.3 1.4 3.2 1 4.5 1.3l-1.5 6c-.5-1.4-1.4-2.9-2.2-4-1.3-1.8-1.7-1-.7.5.7 1.2 1.9 3.7 1.7 7.4-2.1 6.2-4.9 12.2-8.4 17.7-1.5-.7-2.5-4.2-.5-5.6 5.6-4 8-10 5.5-14.7-1-1.8-1.3-3.3-1.7-5.4-2 2.1-2 7.4-4.8 9.8a13.2 13.2 0 00-3.5 12.7c.9 2.4 3.5 2.7 4.5 4-1.3 2-2.7 3.8-4.1 5.5 0-1.5-.3-3.5-.8-5-.6-2.1-1.3-1.5-.9.3.3 1.4.7 4-.8 7.6a74.5 74.5 0 01-13 11c-.7-1.4-.4-4.2 1.5-4.8 6.5-2.4 10.4-7.6 9.2-12.8-.5-2-.4-3.5-.2-5.7-2.6 1.6-3.8 6.6-7.2 8.3-4.4 2-7 8-6.7 11.3.2 2 1.8 3 2.7 4.2l-4.8 3 .9-3.6c.3-2.2-.5-2-1-.2-.2 1.2-.8 3.1-2.5 5.2a79 79 0 01-21.1 7.4c.2-1.6 1.5-3.4 3.3-3.2 6.9.5 12.6-2.6 13.6-7.8.4-2 1-3.4 2.2-5.3-3 .4-6.3 4.5-10 4.5-4.8 0-9.7 4.4-10.8 7.6-.6 1.6.1 3.1.6 4.4" fill="#3f863f"/><path d="M344.2 299.9l-3 .4c0 1.1 0 2.3.2 3.4l3-.4c.7.3 1.2.8 2 2 3.3 5 10.3 5.3 14.8 1.6 3.5-3 6.4-4.7 9.3-3.7-3.1-5.9-16.5-2.5-19-.1-1.6 1.4-3.2 2.3-4.2 1.4-.4-.4-.8-.8-.9-1.6 7.7-1.4 14.6-4 20.6-7.1 2.9.2 6 1.2 7 2 1.6 1.2 1-.2.4-1-1-.9-3-1.8-4.7-2.5a73 73 0 005.7-3.7c.6.1 1.4.5 2.5 1 4.4 2.2 11.7.2 13.6-5.2 1.5-4.3 3.7-3.4 6.7-4-5.6-3.4-15 .7-16 4-.6 2-2.8 4.3-4 4a2 2 0 01-1.4-.9 79 79 0 0012.4-11.7 18 18 0 018.2-1.5c1.9.5.8-.6-.1-1-1.4-.4-3.8-.5-5.7-.3l4-5.5c.6 0 1.4 0 2.7.3 5.7 1.2 10.9-3.7 11.3-9.5.4-4.5 1.1-7.9 3.9-9.3-6.4-1.8-13.3 10.2-13.4 13.6 0 2.1-.6 4-1.9 4a2 2 0 01-1.7-.7c4-6.2 6.9-12.4 8.9-17.9 2.3-2 5.4-3.6 6.9-3.8 2-.3.6-.9-.4-.9-1.4 0-3.7.7-5.4 1.5.7-2.4 1.3-4.6 1.7-6.6l2.1-.6c5.4-1.3 8.6-7.3 7.5-12.2-.9-4-1-7 1-9.2-6 1-9 13.5-8.2 16.4.5 1.8.5 3.5-.7 4-.4.3-.9.4-1.5.2a104 104 0 001.8-22.6 18 18 0 014.9-6.7c1.6-1 .1-1-.8-.7a16 16 0 00-4.3 3.7l-.5-5a14 14 0 012.2-1.5c5-3.1 5.5-10.2 2-14.7-2.9-3.6-4.6-6.6-3.5-9.5-5.9 3-3 16.5-.6 19 1.3 1.7 2.1 3.4 1.2 4.3a2 2 0 01-1.5.7 77.4 77.4 0 00-6.1-21.6c.1-2.9 1-6 1.7-7.1 1.1-1.6-.2-1-.9-.3-.8.9-1.7 2.6-2.3 4.3-.8-1.8-1.6-3.6-2.6-5.2l1.4-2.2c3.5-4.7 1.3-11.4-3.6-14.3-4-2.3-6.7-4.5-6.7-7.5-4.4 5 3.4 16.3 6.4 18 1.9.9 3.3 2.1 2.8 3.4a2 2 0 01-1.2 1.1 72 72 0 00-13.5-16.3c-1.4-3-2.2-7-2-8.5.4-2-.6-.9-.9 0-.4 1.4-.4 4-.2 5.9a74.4 74.4 0 00-5.3-3.9c0-.7.1-1.5.4-2.9 1.2-5.8-3.6-11-9.3-11.5-4.5-.4-7.9-1.2-9.2-4-2 6.4 9.9 13.4 13.3 13.6 2.1 0 4 .6 4 2a2 2 0 01-.8 1.7c-4.7-3-9.5-5.2-14.2-6.8-3.4-1.2-7-4.1-8-7.5-.1-.8-.8-.6-.8 0 0 1.7 1 3.7 1.6 5.2-2.3-2-5.8-5.8-6.8-7.4-1.6-2.7-6.5-5-10-4.4a9.1 9.1 0 004.1 6.5c-2.9 0-5.8.1-8.6 1.8 1.7 1 4.4 2.7 6.6 4.6 2.2 1.8 8.7 3.2 15.1 0 .1.4.2.8 0 1 7.7 2.1 14.2 5 20.4 9-.8 1.4-4.3 2.3-5.6.3-4-5.7-10-8.2-14.6-5.7-1.8 1-3.3 1.3-5.5 1.6 2.2 2.1 7.4 2 9.8 5 3 3.7 9.5 4.8 12.6 3.6 2.4-.8 2.7-3.4 4-4.4a82 82 0 015.7 4.2c-1.6 0-3.6.4-5.2.9-2.1.7-1.5 1.3.3.9 1.4-.4 4.3-.8 8 .8a63 63 0 0113 16.3c-1.3 1-4.9.4-5.3-2-1.1-6.8-5.6-11.6-10.8-11.3-2 0-3.6-.3-5.6-.9 1 2.9 5.7 5 6.7 8.7 1.3 4.6 6.7 8.3 10 8.6 2.5.2 3.9-2 5.4-2.3a79 79 0 013.2 6.4c-1.4-.8-3.7-1.4-5.6-1.5-2.2-.3-1.9.6 0 .9 1.5.3 4.3 1 7.2 4.3a89.8 89.8 0 015.1 19.8c-1.6.1-4.3-1.7-3.8-3.9 1.4-6.8-1-12.9-5.9-14.6-1.9-.6-3.2-1.5-4.9-2.8 0 3 3.5 6.7 3 10.5a13.2 13.2 0 006.1 11.7c2.1 1 4.1-.2 5.7-.1 1.2 9.6 1 20.5-1.3 31.4-1.3-.5-2.6-2.7-1.5-4.4 3.8-5.6 4.1-11.6.6-14.3-1.3-1-2-2.2-3-3.8-1.2 2.7.4 6.9-1.3 10.1-2.3 4-1.3 9.8.6 11.8 1.3 1.4 3.2 1 4.5 1.3l-1.5 6c-.5-1.4-1.4-2.9-2.2-4-1.3-1.8-1.7-1-.7.5.7 1.2 1.9 3.7 1.7 7.4-2.1 6.2-4.9 12.2-8.4 17.7-1.5-.7-2.5-4.2-.5-5.6 5.6-4 8-10 5.5-14.7-1-1.8-1.3-3.3-1.7-5.4-2 2.1-2 7.4-4.8 9.8a13.2 13.2 0 00-3.5 12.7c.9 2.4 3.5 2.7 4.5 4-1.3 2-2.7 3.8-4.1 5.5 0-1.5-.3-3.5-.8-5-.6-2.1-1.3-1.5-.9.3.3 1.4.7 4-.8 7.6a74.5 74.5 0 01-13 11c-.7-1.4-.4-4.2 1.5-4.8 6.5-2.4 10.4-7.6 9.2-12.8-.5-2-.4-3.5-.2-5.7-2.6 1.6-3.8 6.6-7.2 8.3-4.4 2-7 8-6.7 11.3.2 2 1.8 3 2.7 4.2l-4.8 3 .9-3.6c.3-2.2-.5-2-1-.2-.2 1.2-.8 3.1-2.5 5.2a79 79 0 01-21.1 7.4c.2-1.6 1.5-3.4 3.3-3.2 6.9.5 12.6-2.6 13.6-7.8.4-2 1-3.4 2.2-5.3-3 .4-6.3 4.5-10 4.5-4.8 0-9.7 4.4-10.8 7.6-.6 1.6.1 3.1.6 4.4z" fill="none" stroke="#000" stroke-width=".322497"/></svg>