<svg xmlns="http://www.w3.org/2000/svg" version="1.0" width="750" height="500"><path font-size="12" fill="#bf0a30" fill-rule="evenodd" d="M0 0h750v250.1H0z"/><path font-size="12" fill="#fff" fill-rule="evenodd" d="M0 250.2h750V500H0z"/><path font-size="12" fill="#002868" fill-rule="evenodd" stroke-width="1pt" d="M0 0h250v500H0z"/><path d="M37.4 117.3c-15.6 8.7-18.5 12.4-27 19l19 .5c-.3 1.7-4.4 23.8-4.8 25.3a116 116 0 0140.6-19.3c7.8-2.2-.6-10-1.4-12.2a50.5 50.5 0 00-13.3 8.7" font-size="12" fill="#ffca00" fill-rule="evenodd" stroke="#002868"/><path d="M50.7 139.2c29.2-26.7 125.6-26 152.5.8.8-.3 18.2-29.6 17.3-29.3-52.7-37-147.2-30.6-186.8-1.5l.5 1.8 16.5 28.2z" font-size="12" fill="#ffca00" fill-rule="evenodd" stroke="#002868"/><path d="M55.8 127.6l-8.5-16 13.6 12.1-3.2-17.5 9 15M105.2 100.8c0-4.7 3.9-5 6.5-4.2 1.5 1.1 2.3 5 .5 7.1l-3.7 3.2c-1.3 1.6-2.7 3.4-2.6 5.4l8.3-.3M120.3 95.7c-1.5.8-2 2-2.4 3.7-.2 2 0 6.7.3 8.7.4 1.5.8 2.4 1.9 3.4 1.2.7 2.6.6 3.4 0 1-.5 1.8-1.8 2.2-3.2.6-1.9.5-7.4.1-9.4-.4-1.3-.9-2.4-2-3.2a4.5 4.5 0 00-3.5 0zM160.2 100.3c1.6-.7 2.8-1.5 4-3l-2.2 16.5M172.4 99.4l8 2.4a70.5 70.5 0 00-9.5 14.2M187 103.6l7.7 3.7a48.4 48.4 0 00-11.6 12.2M206.5 113.5l-5-3-4.5 6c3.2-.6 5.4.4 6.3 3.3.6 4.3-2 6.7-4.8 6.8-2.9-.1-4.4-1.7-4.8-5M71 119s.4-17.9.6-17.9c0-.7 10.1 14.9 10.1 14.9h0M71.3 112.6l6.8-2" font-size="12" fill="none" fill-rule="evenodd" stroke="#002868" stroke-width="3.1" stroke-linecap="round" stroke-linejoin="round"/><path d="M31.4 288.1l10 .2-.3-43.2 19.1 43.4h10.4V225l-10.2.1.2 40.2-17.9-40-11.1.1-.2 62.7zM213.6 245.1h10.6v-5.6a18 18 0 00-5.3-11.6 17.2 17.2 0 00-8.8-5c-3.1-1.3-10.7-1-14.6 1.2a25 25 0 00-11 14.4 73.6 73.6 0 00.4 35 22.3 22.3 0 0011.8 14.3c3.3 1 9 2 14.4.5 5.9-2.3 8.6-6.1 10.9-10.2 1.4-2.8 3-8.1 2.8-14h-11.1c0 2.3-.4 4.8-1 7-1.3 3-3.2 5-8 5a8.5 8.5 0 01-7.2-3.8c-2.4-2.3-3-7.6-3.2-9a53 53 0 011.1-20.4c.8-2.9 2.2-5.5 4.2-6.8a11 11 0 018.1-.9c2.4.8 4.6 2.5 5.3 4.9.5 2.2.6 3.6.6 5z" font-size="12" fill="#ffca00" fill-rule="evenodd" stroke-width=".6"/><path d="M152 290.2l-23.8-18.5-24.4 18.4 9.7-28.8-24.8-18.2 29.8.7 9-29.6 8.8 29.2 30.4-.1-24.4 17.3 9.7 29.6z" font-size="12" fill="#fff" fill-rule="evenodd" stroke-width=".6"/><path d="M50.8 139.3s0 0 0 0" fill="none" fill-rule="evenodd" stroke="#000" stroke-width="1pt"/><path d="M50.8 139.2c1 1 3.2.8 6 .2 2.3-.2 4.9-.3 7-.6 3.3.3 5.3 1.1 3.9 2.7" fill="none" fill-rule="evenodd" stroke="#002868"/><path d="M216.6 118.3c15.7 8.7 18.5 12.3 27 19l-19 .4 4.8 25.4a116 116 0 00-40.6-19.4c-7.7-2.2 1-10.2 1.7-12.3a38 38 0 0113 8.9" font-size="12" fill="#ffca00" fill-rule="evenodd" stroke="#002868"/><path d="M203.3 140.2s0 0 0 0" fill="none" fill-rule="evenodd" stroke="#000" stroke-width="1pt"/><path d="M203 140.1c-1.8.8-3.6.5-5.8.3-2-.3-4.4-.7-6.7-.7-4 0-5.4 1.6-4.1 2.7" fill="none" fill-rule="evenodd" stroke="#002868"/><path d="M129.4 101.9l6 .1" font-size="12" fill="none" fill-rule="evenodd" stroke="#002868" stroke-width="2.2" stroke-linecap="round" stroke-linejoin="round"/><path d="M138.7 98l-.4 14.3M145 113c.8-10.4-.6-10.7-5.6-10.7" font-size="12" fill="none" fill-rule="evenodd" stroke="#002868" stroke-width="2.3" stroke-linecap="round" stroke-linejoin="round"/><path d="M131.7 97.4l-.2 12c0 2.3.7 2.9 2.7 2.9" fill="none" fill-rule="evenodd" stroke="#002868" stroke-width="2.3" stroke-linecap="round" stroke-linejoin="round"/><path d="M80.6 99l7.4 7.5 1.4 8.1M92.2 96.4l-4 10.4" font-size="12" fill="none" fill-rule="evenodd" stroke="#002868" stroke-width="3.1" stroke-linecap="round" stroke-linejoin="round"/><path d="M38 387.5c-15.6-8.6-18.4-12.1-27-18.7l19-.4c-.2-1.7-4.4-23.2-4.8-24.8a117 117 0 0040.6 19c7.8 2-.6 9.8-1.4 11.8a50.6 50.6 0 01-13.3-8.5" font-size="12" fill="#ffca00" fill-rule="evenodd" stroke="#002868"/><path d="M51.4 366c29.1 26.2 125.5 25.6 152.4-.7.9.3 18.2 29 17.4 28.6C168.4 430 74 424 34.3 395.4l.5-1.7L51.4 366z" font-size="12" fill="#ffca00" fill-rule="evenodd" stroke="#002868"/><path d="M50.8 366.3s0 0 0 0" fill="none" fill-rule="evenodd" stroke="#000" stroke-width="1.3"/><path d="M51.5 366c1-1 3-.7 6-.2 2.2.3 4.8.4 6.9.6 3.4-.3 5.3-1 4-2.6" fill="none" fill-rule="evenodd" stroke="#002868"/><path d="M217.3 386.5c15.6-8.5 18.4-12 27-18.6l-19-.4c.2-1.7 4.4-23.3 4.8-24.8a117 117 0 01-40.6 19c-7.8 2 .9 9.9 1.7 12a38 38 0 0013-8.7" font-size="12" fill="#ffca00" fill-rule="evenodd" stroke="#002868"/><path d="M203.3 365.4s0 0 0 0" fill="none" fill-rule="evenodd" stroke="#000" stroke-width="1.3"/><path d="M203.6 365.1c-1.7-.8-3.6-.4-5.7-.2-2.1.3-4.5.6-6.8.7-4 0-5.3-1.6-4.1-2.7" fill="none" fill-rule="evenodd" stroke="#002868"/><path d="M126.7 400.3c1.3-4.3 4.1-3.8 6.7-3.2 2 1.4 2.3 5.3.4 7.5l-3.6 2.7c-1.5 1-3 2.9-3 5l8.7-.2M118 399.7a7 7 0 003.1-3l-.7 15.7" font-size="12" fill="none" fill-rule="evenodd" stroke="#002868" stroke-width="3.1" stroke-linecap="round" stroke-linejoin="round"/><path d="M98.8 392.9l-2.8 17 8.4 1.1" font-size="12" fill="none" fill-rule="evenodd" stroke="#002868" stroke-width="3.1" stroke-linecap="round"/><path d="M88.9 409l2.6-17.7" font-size="12" fill="none" fill-rule="evenodd" stroke="#002868" stroke-width="3.1" stroke-linecap="round" stroke-linejoin="round"/><path d="M58.8 399.7l6.4-16.3c2 1 4.4 1.3 6.6 3.2 1.3 2.3.7 7-3.3 7.5-2.2-.3-4-1.3-6-2.2" font-size="12" fill="none" fill-rule="evenodd" stroke="#002868" stroke-width="3.1" stroke-linecap="round"/><path d="M164 396.4c1.2-1.2 2-2.5 2.8-4.5l3.3 17.3M171.3 391.4l8.4-3a91 91 0 00.3 18M184 387l8.5-3.3c-.4 6.4-.8 13.2.4 18M204 380.4c-1-1.6-2.4-2.2-4.5-1.6-1.9 1.7-2.2 3-2.4 5 .1 2.6.8 5 2 7.3.8 2 2.5 3.6 3.7 3.9 1.5.5 2.6.4 3.8-.6.8-1.2 1.2-3 1.2-4.5a5.8 5.8 0 00-3-4.6c-1.6-.6-2.2-.7-3.5-.1-2 1.2-2.4 3.4-2.1 5.7" font-size="12" fill="none" fill-rule="evenodd" stroke="#002868" stroke-width="3.1" stroke-linecap="round" stroke-linejoin="round"/><path d="M138 401.7l6-.2" font-size="12" fill="none" fill-rule="evenodd" stroke="#002868" stroke-width="2.2" stroke-linecap="round" stroke-linejoin="round"/><path d="M140 397l.6 12c.1 2.3.9 3 2.9 2.8" fill="none" fill-rule="evenodd" stroke="#002868" stroke-width="2.3" stroke-linecap="round" stroke-linejoin="round"/><path d="M146 397l1.6 14.3M154.2 411c-.6-10.4-2-10.5-6.9-9.8" font-size="12" fill="none" fill-rule="evenodd" stroke="#002868" stroke-width="2.3" stroke-linecap="round" stroke-linejoin="round"/><path d="M43.8 392.4s12.8-13.5 13-13.4c.5-.5-2.6 18.6-2.6 18.6h0M48.5 387.7l6.6 3.2" font-size="12" fill="none" fill-rule="evenodd" stroke="#002868" stroke-width="3.1" stroke-linecap="round" stroke-linejoin="round"/><path d="M72.8 405.5l4.7-17.5c2 .5 4 .8 6 1.5 1.4.4 3.4 2.1 2.6 4.8-.4 1.6-1.1 3-2.3 4" font-size="12" fill="none" fill-rule="evenodd" stroke="#002868" stroke-width="3.1" stroke-linecap="round"/><path d="M75.4 396.5l6.4 1.7c1.8.6 2.2 2.1 2.2 2.2.3 1.4-.8 7.5-.8 7.5" font-size="12" fill="none" fill-rule="evenodd" stroke="#002868" stroke-width="3.1" stroke-linecap="round" stroke-linejoin="round"/></svg>