<svg xmlns="http://www.w3.org/2000/svg" version="1.0" width="675" height="450"><path d="M-2514.3 2316.8z"/><path d="M0 450h675V0H0v450z" fill="#0073cf"/><path d="M374.4 234.3h.3-.3" fill="#9a3b26"/><path d="M292 79.8c-.4.4-.7.9-1.2.5.1-8.3-3.5-15.2-7.6-21.7-.5-1-1.7-1.6-2.6-1.9 1.9 5.4.5 10.1 1.4 15.5 0 .2.5.5 0 .7-.8-1.6-1.7-3.1-2.2-4.8-.9-1.6-2.4-2.9-4-3.8-2.6-1-4.3-3.3-6.7-4.9-.9-.2-1.7-1.4-2.5-1.5h-1.3l-.2 1.2c0 .5.3 1 .2 1.5 3.2 4.7 8 8 9.9 13.5-1.1-.1-2-1.3-3.4-1.2-.3 0-.3.4-.3.7.9 2.2 2.5 4.2 3.1 6.4-5.5-2.8-3.9-10.4-9.1-13.6-.8-.3-1.4-1.9-2.3-1.4.7 1.6 1 3.1 1.5 4.7.6 1.3.5 2.3.8 3.6l-.2-.2c-1.9-.5-3.2-2.2-5.1-2.5l-.4.3c3.4 3.3 5.3 7.4 7.6 11.3a27 27 0 007.1 11.8l-1.8 2-1.4 1.4c-1-.6-2.1-1.3-3.2-1.8-.7-.2-.7.6-.7 1l2.3 3.4-1 .7v.1l-.7.6c-4.2 5.8-7.6 11-9.7 17.7-.7-.2-1.8-.7-2.2 0-1.2 1.5-.3 3 .6 4.4l-.8 1.4c-.3-.6-.7-1-1.2-1.4-2.7 1.4-.3 4-.3 5.9a78 78 0 00-4.3 18.2c-1.2 1.4-2.8 2.8-3.5 4.6v.1a5 5 0 00-.6 2c-.7 1-2.5.5-3.9.8-1 .3-.4 1.2-.5 1.9.7 1.2 2 .3 3.2.8h.8c-.1 2.3-2.6 1.9-4 2.5-1.5.5-3.4.2-4.5 1.3.6.1.8.7 1 1.1.5 1.3-1.2 1.8-1.7 2.9l.1 7.2c.6.5.2 1-.1 1.5-.1 2.5-.6 5-.4 7.6-.1.7.6.4.9.7v7.2c.3.5.9.2 1.2.5-.8 3.3.7 7 .2 10.6.2.4.8.3 1 .6-.3 1.3-1.1 2.5-1.2 3.7-.2 3.5-.8 7.4-.7 11l.2.2c.2.2.4-.1.6 0l-.1.5c-1 4 1 7.8.2 12 .4.8 1.4.5 2.1.5-.3.8-.6 1.7-1.3 2.2-2 2.5-.2 5-.8 7.9l1 .4c0 .4-.5.6-.5 1 .4 1.9.5 4.5 2.2 5.9 1 0 .9-1 1.4-1.6 0-1 .6-2 .9-3 2.5-2 2.2-4.6 2.3-7.6-.4-2 1.2-3.6 1.3-5.7-.2-2.2 1.4-4 1.7-6.1-.7-2.2 1.3-3.7 1.1-5.7-2-3.1 1.4-6.1-.2-9.2 1.5-1 .8-2.6 1.3-4 1.2-2.4-1.5-3.7.5-5.9 1.6-2-.5-6 2.8-7.3l1.2 1.2h.1l.5.4c1.6 5.2 4 10.2 6.6 15.2 2.5 5 6.2 9.4 9.3 14.1-2.3 2.4-4.6 5-7.1 7.3-1.7-2.6-2.5-5.9-4.7-8.3h-.1l-.3-.2c-1.6-.5-3.3 0-4.6 1.3-1.6 1-2.2 2.4-3 4-1.4 3.7 3.3 5.2 4.8 7.2.7.5 2.1.6 2.1 1.5-2.8 5-8.1 8.5-11.9 12.8-2.4 3.4-7.5 6.5-8 11 .2.7 1 1.1 1.5.7 8.8-5.9 15.8-13.8 24-21.4.4-.3.5.5.8 0 .5.6 1.3.6 2 .5.1-.8-.2-1.8-.5-2.6 2.7-2.8 6.5-5.6 9.6-8.4-.3 2.2-1.3 4.3-2 6.5-.8 1.3-2.2 1.4-3.2 2.1-1.1.4-2-.6-3-.2-.9 1 0 2.5.2 3.6-.5.7-1.4-.2-2.1.3-1.7.8-1 2.9-1.5 4.3.4.6 1 1 1.6 1.1-.2 1-.3 2-.8 3-.4 1-1.7 1.5-1.7 2.7.8 2.1-.4 4.1-.2 6.2l.4.7c.5 0 1.5-.1 2-.3.3 1.5-1.2 2-2.1 2.6-1.3 2.5-.5 5.7-.8 8.3-.2 1.4-.3 3.5.4 4.3 0 1-1.2 2.2-.4 3.2.1 2 1 4.6.5 6.7 0 1.1-.7 3.4.6 4 0 2.7.6 4.6.4 7.2 1.4 1.1-.4 2.7.2 3.8.2.6.6.9 1 1.2-.4 2-.5 4.3.7 6.1-.1 1.9 1 3.6 1.6 5.3 1-.4 1-1.6 1.3-2.5 2-2.2 3-5.8 1.9-8.8 2.2-1.7 1.3-4.7 1.1-7 1.1-1.9.9-4 .8-6 1-1.8.9-3.1.6-5 1.5-2.3.7-5 1.9-7.4.5-1-.8-2 .2-3 1.2-.3 1.2-1.8 1-2.7-.7-2.9.3-5.7-.1-8.7.8-1.6 1.3-3.3 1.7-5 .5-1.6-.6-3.1-.4-4.7.5-.5.6-2 1.9-1.4.9 0 .7-1.1.5-1.6-.8-1.8 1-2.9.6-4.5-1-2.6-3.4-4.5-4-7.2l1.6-5.4.6.6.5 1-.4 1c1.1 3.1 5 .5 6.4 3.4-.3.3-.3.8-.3 1 .3 1.6 2 2 3.1 2.4 1.1.6 2.3-.7 2.9.7 3.7 2 7.2 5 11 6.9v.3h-.6c0 .8-1 1.4-1.6 2-1.3-.4-2.5-1.3-4.1-1.1 0 .4.3.6.1 1 .4.8 1.1 1.3 1.8 1.5 1.1.3 2.6.1 3.4-.3-.4.9-.6 1.8-1.1 2.7-1.8 2.3-4.3 4.2-7.3 4.4 0 .7-.1 1.5-.3 2.2.2.8.8 1 1.4 1.2.4.6 0 1.3 0 1.7-.2 1.6-.9 3.4 1 4.3.2 1-.7 1.6-.6 2.6 0 .7.8.9 1.2 1.3.1.2-.1.4-.2.6.4 2.2-.6 4.5 1.4 6.3-1.6 1.2.2 3-.6 4.4-.1.7 1 .4.7 1.1-.7.8-.5 2-.5 3 1.6 1.6-.5 3.6-.4 5.5 1.4 2.6 1.5 6.2.7 8.9 0 .7 1 .4 1.2.7l-.3.3c0 2.4-1.4 4.7-.5 7.3 1.3 4.5 0 10.3 3.4 14.1.6-.1 1-.5 1.4-1 1.5-3.2 2-6.3 2.7-9.6 1.7-1.5 1.8-3.9 2-5.9 0-3 1-6 1-9.3 1.4-3.6 2.7-8.2 1-12-.5-.2-.8-.6-1-1 1-2 1.8-5 .6-7.3-.3-.7.3-.4.7-.6.5-.2.8-.6.8-1.2.2-.7.3-1.2-.2-1.8-1.3-3.2 1.3-6.1.7-9.2-2.5-2.5.4-5.5-.7-8.6-.7-1.2-2.2-.3-3.2-.8-2.6-1.3-.4-4.3-.6-6.2l1 .2c3.5 2.6 8 2.7 12.2 3.8.6.4 1.5.4 1.6 1.2.6.7 1.2 1 2 1 1.4.2 2.4-1.8 3.6-1 1-.2 1 .8 1.6 1.4 1.2.8 3 0 4.2-.7l.6 1.6c-.3 1.7-.2 3.5-.3 5.1l-.2.3c-1.4-.3-2.5-1.7-3.5-2.7-1.2.4-1.3 1.5-2 2.4-.1.9 1 1.8 1.6 2.5-.2.2-.6.2-.8.2-1.2.9-3.2.2-4.1 1.4 0 2.3-.3 4.3.4 6.4.6.6 1.2 0 1.8-.2.3 1 .4 2 .4 3-3.6 1.3-.9 4.5-1.8 6.8-.7 2 1.6 1.4 2.3 1.5-.7 1.4.2 3.9-2 4.5-.6.4-.4 1.2-.4 2 0 1 1.3.9 1.8 1.2-.7 2.1-.8 4.8-1.2 6.8 0 .7.7.7 1 1.1-.3 1.1-.4 2.7-.1 4-1.5 1.5-1.2 4.1-.8 5.7 0 .3.3.2.6.4-.2.2-.1.6-.2.8-.5 1.9-1.4 3.7.4 5.2a41 41 0 00-1 6.5c.5 2.5 2 4.9 1 7.5-.6 4 1.6 7.5 1.7 11.6 1.7 0 1.8-2 2.5-3.3.7-2.4 1.7-4.5 1.9-7.1-.1-3.1 1.6-5.7 2.9-8.3 1-1.5.7-3.4.5-5 1-1.5 1-3.4 1.3-5 0-.6-.6-1-.3-1.5 1.7-2.9 1.6-6.8 1.8-10.2 1.3-2.2 1-5.3 1-7.8 1.3-3.4 1.2-7.2 1.6-10.8-.1-1-1.8-2.5.1-3.2.4-2 1.3-4.7.1-6.7l1.1-1.4c.4-.9-.4-1.5-.7-2.2a18.3 18.3 0 01-3.3-4.9c-.7-.9-1.9-.1-2.4-.8V254l-.2-.5c2.7-.1 5.6-.2 8-.5 7.6.2 15.7-1 23.3-3.8.6 1 1.8.3 2.5.5 0 1.4-.3 2.7-.6 4.1-.1.2-.4.3-.3.6-1.6 1.2-1.8-1.6-3.1-2-.9.5-1.2 1.5-1.5 2.3-.2 1-1.3 2.1-.3 2.9-.7.6-1.6.5-2.3.8-1 .4-.8 1.2-.6 2 0 .8 1 1 1.3 1.3-.5.6-1.4.2-2 .8-.3 2.6.2 4.5.7 6.9.1.8 1.1 2-.2 2.3-1 1-.6 2.7-.2 3.8.6.2 1.2-.3 1.7.2-.5.7-.9 1.4-1.2 2.2-.4 4.2 1 8.5 1 12.7h1.5c-.5 1.6-1.6 2.9-1.5 4.7 1.5 3 1.7 6.8.7 10.2.4 1.2.4 2.5.5 3.8.1.7.6 0 1 .4l.2 4.3c.2 1.2 0 2.7 1 3.3l-.3.4c-.3 3.2-.3 5.9-.3 9.3 0 .6.4 1.3 1 1 1-.5 2.2-1.5 2.2-2.7 0-1 .3-2.1.7-3.1l-.1-.2c2-2 2.3-4.8 2.5-7 .3-3.4 1.3-6.5 2-10-.4-4.2 1.7-8.2.7-12.3 1.5-1.5 1-3.4 2.1-5 .4-1.8-.5-3.8.4-5.6.3-1.7-.9-3-1-4.4.8-2.6-2-4.4-2-6.7 1.3-.8 3.2 0 4-1.5.1-.9-.4-1.7-.5-2.6.4-.3.8-.4 1.3-.5 1.6-.3 0-1.7.7-2.3l-.3.3-1.9-2.6c-.4-.7.5-1.2.2-1.9-1.8-2.1-3.1-4.7-3.8-7.4-2-1-1.5-3.5-1.5-5 2.7 1.1 6 1.1 8.8 1.4 3.5-.4 5.6 3.5 9.3 2.2 1 .1 2.2-.6 3.4-.7l2.8 5.1-.5.3c0 1.3 0 3.4-.5 4.4-.3.9 0 2.1 1.1 2.5-1.1 1.2-.8 3-1.3 4.7 0 .7.8 0 1.2.4-2.2 1.7-1 5-2.6 7.1-.5 1 .1 1.7.5 2.4-1.2 2.4-.2 5 1 7.1-.9 1.1-1.3 2.6-.9 4 1.5 1.6-.8 2.9-.5 4.6.7 2.4.7 5.1-1 7.2-1 1.6.8 2.9.5 4.4-1 2.3 1.1 4 .5 6.4-.1 1.2 1 1.8 2 1.4 1-.7 1.4-2 1.4-3-1.3-3 3.5-4.6 2.8-7.7 0-3.2 2.4-5.4 2.8-8.5 1.2-1 1.9-2.5 1.6-3.8-1.4-3.2 1.4-5.6 1.4-8.5-.4-2.7 1-4.6 1.3-7.2l.1-1c1.7 1.9 3 4.1 4.4 6.2 1.4 2.3 3.5 4.3 4.5 6.7.3.1.3-.3.4-.4 2 2.8 5 4 7.6 5.5 1.2-1.1-.4-2.8-.7-4.2-.2-.7-1-1.2-.9-1.8-.3-.9-1.4-1.8-1.6-2.6-.4-.7-.9-1.4-1.7-1.6-1.8-3-2.9-6.4-4.9-9.4-1.5-2.8-3.7-5.5-4.5-8.5l1.3-.7c0-2-.1-3.7-1-5.4-.3-.7-1-1.4-1-2 .5.2 1.1.9 1.7 1 1-.6 1.4-1.8 1.7-2.8.3-1.5-1.3-2.4-2-3.6.5-.2 1.1 0 1.8-.1 1.2-.6 1.2-2 1.7-3.2-.1-.8-.8-1.1-1-1.8 2.6-3.4-2.6-4.9-3.2-8 .5-.5.8-.5 1.5-.5 1.6 0 1-2.2 1.4-3.2 0-1.4-1.7-1.6-2.3-2.8-3.1-2.9.3-6.5-.5-10.1 2.8-1.7 2.5-4.6 2-7.5l.7-.4.3 2c.3.4.8.7 1.4.5 1-1 1-2.6.8-4.2l.7-.6c.9-1.5 1.8-3 2.5-4.7l2.2-5.4.2.6c-.2 2 .6 4.2.4 6.2 0 .8 1 .8 1.6.9l-1.1 1.5c-1.6 2.3 0 4.6-1.4 6.9 1 2.2-2 4.9.2 6.8-.4.4-1 .7-1.1 1.3-.5 1.2.7 2.1 1.3 3 0 .5-.6 1.1-1 1.7-1 1.7.2 3.4 0 5.2-1 1-1.5 2.5-1 3.7 2 1.7 0 4.2 1 6.3-2.3 3 .7 6 .9 9.2h.4c1.2-1.5 2.9-3.2 3.2-5.2 1.4-1.6 1.9-3.6 3.1-5.4 2 1.1-.7-.8.7-1.4-.7-2.6 1.8-4.1 1-6.5.3-3.3 2-6 3.4-9 .2-3.5 2-7.1 2.3-10.6 2.2-2.6 2.2-6.1 2.7-9.4-.5-3.3.8-6.3.5-9.8 3-2.9-.3-6.7 1.4-10.2-.5-2.7 1-5.8.4-8l.4-.4c-.3-1.2-1.6-.7-2.6-.9l-2.2-4.8c-.4-1 .3-1.6.7-2.3.1-.6.8-1.6-.1-2-.8-.5-1.8-.1-2.3.7-1.7 1.6-2-.5-2.5-2l-1.3-1.6c0-1.5-.6-3-1.8-4 1.2-6.9-1.2-13-1.6-19.3 0-2.4-1.3-4.4-1.2-6.7l.4.1c.5-.2.6-.8.5-1.3-.7-1.6-2-3-3.4-4l-.2-.8c.1-.5-.5-.7-.4-1.2.4-.4 1.2.2 1.5-.5.4-2.4-2.3-4-4-5 0-1.3-1-2.2-1-3.3-2.8-4.9-5.2-9.9-8.9-14.4 4-3.8 7.8-8 12.3-12 1.1-1.3 2.6-2.5 2.8-4.5a9.8 9.8 0 00-2-3.8l.9-.8a8 8 0 001.8-1.8c-.6-1.1-2-2-2.8-3-1 .6-2.1 1.7-2.6 2.7-.7-.6-1.3-1.7-2.3-2-1.2-.3-2.4-.1-3.2.7-3.3 3.4-7 5.9-9.8 9.7l-1 .4c-2-1.1-2.3 1.5-3.6 2-.7-1.7-3.1-.4-3.8-2.4l.2-.1c.7-.6.5-1.4 0-2a7.2 7.2 0 00-4-.1l-.6-1c-.3-.8-1.5-1.2-1.9-2-5.2-3.4-10-6.8-15.7-9.1a87 87 0 00-19.8-6.2V68c.4-.5.5-1 .3-1.5-.6-1-1.6 0-2.4 0-1.3 1.2-3.6.8-5.3.9.5-.7 1.4-1.6 1-2.7-2 .4-4 1-5.8 2.2-3.1-.3-5.8-.2-9-.2-7.5 1.2-15.5 2-22.7 4.7-.9.1-4 1.2-4 1.2-.3-.9-1.1-.6-1.8-1-2.5.9-2.4 4-5 4.6a33 33 0 00-2.8-5.2c-1.2-1.8-3-4-5.4-3.6-.3.4-.5.8-.2 1.3 1.4 3.2 2.4 6.7 2.7 10.4"/><path d="M418.7 229.6l.1 1.3c1.7.4 3.7.4 4.7-1.2l.3-1.9-3.7 1.3-1.4.5M427.6 230.6a6 6 0 01-.8-2.8c.2 0 .4 0 .5.2 1.2.6 1.2-1 1.8-1.4 1.2 1.2-.6 2.3-.7 3.5l-.3 1-.5-.5" fill="#9a3b26"/><path d="M431.9 215.3c-.8.2-1 1.7-1.6 2.5l-1-.7c-1.3.1-1-.8-1-1.9h-.4c-.4 1 .6 2.9-.9 3.3-1.3 2.7-4.4 3.1-6.8 3.5-2.5-1.9.2-4.1-.5-6.3 1.2-1.6.4-3.6.6-5.3.2-1.5 1.4-2.6 2-4-.5 0-1.3.3-1.7-.3l-.3-5c0-.5-.3-1-.2-1.4l-.2-1.4a93 93 0 007-25c-.3-1.2.9-.7 1.4-1.5.6 1.4.7 3 .5 4.6-.1 1.2-1 2.2-1.1 3.3h.3c2.2-2.3 1.5-6.1.8-8.9l-.5-1.7c-.5-1.3-1.6-2.6-1-4.1l.8 1c.2.5 0 1.7.6 2 0-1 .3-2.2-.6-2.8l.5-.4 1 .9c0 .6.7 1 .8 1.6.2 5 .3 10.9.7 16.5.8-1.4.2-3.3.4-5 .7.7.8 1.8 1.4 2.4.5-.9-.4-1.7-.7-2.5-.4 0-.7.1-.9-.2l-.3-10.3c1.4.7 2.1-1.4 3.4-1.4.7 1-.4 2-.8 2.8-.2 1.4.7 2.3 1 3.5a18 18 0 011.6 3.5c.4-.5 1-.4 1.7-.3.4 1.3.2 3.2 0 4.8.7 3.7-1.7 6.5-.3 10.5.6 1.4-.9 2.2-1.3 3.3.6 3-1.4 6-.3 8.8-.8 2.3-.4 4.5-1 6.7-1.1-1.2-2.5-2.1-3.6-3.4-.2-.2 0-1-.7-.8.1 1.7 1 3.3 1.7 5 .2.7 1.2 1.1 1.2 2l-.7 2h-1" fill="#efe8c7"/><path d="M432.8 215.9c-.7 2.5-1 5-2 7.7l-.3-.2c-1-1.2-1-3.6-3-3.4 0 1.3.2 3.1-.8 4.3-.8-.2-.3-1.5-1.3-1.6-1.2 1-2.9 2-4.6 2.3l-1.2.4c-.4-.5-1-1-.9-1.6 0-.7.6-1 1.2-1.4 2-.3 3.9-.5 5.5-1.4 1.2-1.4 2.7-2.3 3.2-4l1.4 1c1.4.4 1.5-1.3 2-2.4l.8.3" fill="#9a3b26"/><path d="M419.7 225.6c.4.4.6.8.2 1.4-.5.7-1 1.4-1.1 2.2l1.3-.6c1.3-.7 2.8-.8 4.1-1.3a6 6 0 01-.4 3.4c-1.6.6-2.8 1.3-4.5.6-.2.5 0 1 0 1.7-.5 1-1.7 2-1.2 3.3l1.7-1.7c1.7 1.5 3.2.1 5.1 0 .5.1.7 1 1.2.5.7-1.2 1.8-1.7 1.7-3.1 0-.2 0-.3.2-.5l-.8-.7c-1-1-1.2-2.5-1-3.6.9-.4 1.1.6 1.8.4.3-.7.6-1.8 1-2.1.8 0 .4 1.8 1.2 1.1 0-.2 0-.6.3-.7 0-.4.3-1.1.2-1.8-1.3-.7-1.6-2.4-2.4-3.6-.6.8.2 1.4-.2 2.3-.5.7-.5 1.9-1.5 2-.6 0-.8-.6-1-1 .1 0 0-.2-.2-.3-1.6.8-2.9 1.8-4.6 1.8l-1 .3" fill="#efe8c7"/><path d="M405.7 272.2c-.6-.7-1.3-1.3-2.1-1.9 0 1.3.5 2.9 1.3 4l-.6.2c.3.3.4.8.9 1l.4-2 .1-1.3" fill="#9a3b26"/><path d="M336.4 302l-.8-1c-.9-.2 0 1-.6 1.3-.5-.3-.6-1-1.2-.7-.7.2-.5 1.2-.3 1.7.5 1.4 1.7 3.4 1 4.6-.3-.1-.6-.4-.9-.1v3.3c-.2.1-.3.3-.5.2-.2-.1-.3-.2-.3-.4-.6-.1-1-.8-1.6-.4.5 2.7 3.5 4 3.8 6.9-.2 2-1.5 3.5-2.6 5-1.1-.4-1.3-1.8-2.4-2.3-.9 1-.6 2.5-.2 3.5 1 2.4 0 6-1.3 8.3-.9-1.6 0-3.9-1.2-5.2l-1.1.9c.2-.6 0-1.8.5-2.5l.4.2c.5.3 1 .1 1.4-.3.3-2-.6-4.2-.8-6-.6-.8-1.3-1.4-2.2-1.4.3-1.8.2-3.4 1.2-5 1.4-.5 2.7-1.3 3.8-2.3.3-.8 1-1.6.6-2.5-1.8 0-4 2.7-5.2.3 0-.5 0-1.5.8-1.3 1.4-1.3 3-2.8 4.3-4.4-1.2-1.7-3.5.2-4.9-1.3 0-1.6-.3-3.2.4-4.5-.4 0-.8 0-1.1-.4.1-2.5.7-5 1.2-7.4-.6-.2-1.4 0-1.8-.7-1-2.6 2.7-2.6 2-5.2.4-.6-.3-1.9 1-2 .7-.4 1.4-1.1 1.4-1.9-1.1 1.2-2.6 2.5-4.2 2.1l-.4-6c.5-.6 1.4-1.2 2-1.8 0-1.2 0-2.3-.4-3.6-.7 0-1 .9-1.7.6-.5-.5-.1-1.3-.5-1.7-.1-1.3-.4-3.4.2-4.6 1.6-.3 3.3-.9 5-1.3-.5-1-1.9-1.6-1.9-2.7.4-.8.8-1.5 1.4-2 1.1 1.2 2.3 2.8 4.2 2.3.3-1.5 0-3.8.2-5.7v-1.2c.7.2 1.5.2 2.2.3 0 .2-.2.1-.3.3-.1 1.4.3 3 .1 4.2.8 3.1-1.5 5.5-.9 8.4 0 2.5 2 4.2 2.8 6.3l.4-.2c-.4-1.3-1.2-2.4-2-3.4-.3-1.6-.8-2.8-.5-4.5 0-1.2.3-2.5.6-3.4.9.2 2-.1 2.4 1 .3 2.1 2.7 3.3 3.5 5.2.8 1-.6 1.2-.9 1.7-.6.6 0 1.3.2 1.9.3 1.9.4 4.8-1.3 6-.4 1.2.7 2 .8 3-.4 2.8-1 5.6-.8 8.4-.6.7-.4 1.2-.7 2-.6-.9-.8-1.9-1.2-2.8-.4-.7-.8-1.6-1.5-2-.3 2 .2 4.6.5 6.7l-.2.2c-.5 0-.8-.2-1.2-.3 0-1-.8-1.8-1-2.8h-.3c0 .8.4 2.2 1.3 2.7l-.2.4c.5 1.5 1.3 2.9 1.7 4.4 1.6 1.2.6 3 .7 4.6l-1 .3" fill="#efe8c7"/><path d="M336 302.2h-.3c0 .2 0 .6-.5.7-.7 0-.6-.6-1-.9-.6 1.2.5 2.2.8 3.3.3.9.5 2 .2 2.7l-.4.3c-.1-.2-.3 0-.5-.1l-.2 3.2c-.3.8-1 .3-1.5.1-.1-.3-.4-.4-.7-.5h-.1c.8 1.4 1.7 2.7 2.9 3.9 1-1.8 1.6-4.2.8-6.1 1.5-1.4 1.2-3.8 1.6-5.7l-1.1-.9" fill="#9a3b26"/><path d="M245.7 157.3v-2c-1.3-.3-2.4.3-3.7.4-.2.3 0 .8-.1 1.1.9 1 2.1 0 3.2.5h.6" fill="#efe8c7"/><path d="M428 169.4a6 6 0 01-.6-1.2c-.5-1.6-1.3-3-2.5-4.2-.5 0-1-1.3-1.8-1.3-.4 0-1-.1-1.2.4.4 1.4 1.6 2.6 2.4 4 1 1.5 1.4 3.6 3.2 4.9.6-.2.3-1 .2-1.3-.2-.3-.5-.6-.4-1 .4 0 .5.6.9.8l-.2-1.1M257 124l.7 1.2c1 1 .6 1.7.2 2.8-1-.6-1.3-1.6-1.8-2.6l1-1.3M279.8 229.2c-.7-1-1.7-2-2.5-2.9.6-.3 1-.8 1.6-1.4 1.6 1.6 2.9 3 4.7 4.4-.8.2-2.4.4-3 .3l-.8-.4" fill="#9a3b26"/><path d="M414 209.4l-.4-1.8a131 131 0 0010.6-34.5c.2-1.2.4-2.6.8-3.7 2.8 2.1.8 4.9.8 7.6-1.1 5.1-2 10.2-4 14.8-.2 1.2-1.2 2.7-1.4 3.7-2.3 4.4-3.3 9.3-5.9 13.5l-.5.4M418.4 126.8c.8.3 1.7.8 2.5 1.3l-.1-.9h.2c-.2-.6 0-1.5-1-1.6-.7-.6-1.7-1-2.6-1.5-.1.5 0 1 .4 1.5l.6 1.1" fill="#9a3b26"/><path d="M403.1 89.6c3.1 4.8 2.3 11.1 2.6 16 5.3-5.7 11-11 16.5-16.6.7-1 1.4-1.9.8-3.2l-.3-.2-.1.1c-.7-2.9-3.7-4.5-5.4-7-1-.5-1.6-.4-2.6 0-3.5 3-7.7 6.3-10.7 10.3l-.8.6M422.1 81.8c.5-.5 1.4-.9 1.6-1.6-.6-.9-1.5-1.5-2.3-2.2-.9.7-1.6 1.5-2 2.5l2 2 .7-.7" fill="#efe8c7"/><path d="M388 88l-.3.3c-.1 0-.2 0-.2-.2l-.2.1v1.3c1.9.5 4.6-.9 5.2 1.6-.5.2-.4.7-.6 1.1.8 1.6 2.2.2 3.5.3l2.4 1.7-.1.6c-2.2 1.4-4 3.6-6 5.3-.8.8-2 2-3.4 1.4-.5-.2 0-.6 0-1-.3-1.6.6-3-.2-4.6-1.6-.6-3.8-.7-6-.7-.2.8-.6 1.7-.6 2.3-.2 1.2-.3 2.3-.8 3.4h-5c-.7 1.6-.5 3.8-.5 5.5.4.3 1.3.6 1.7.3.6.5 2.4 0 3.1.5.2 1.3-.5 3.1.5 3.9-9.6 9.8-20 19.4-29.4 29.6h-.3c-.5-2.7-.6-6.3-.9-8.8-.5-.4 0-1.5-1-1.3-1.4 1.6-1.8 3.6-2.8 5.5-1.4 2.5-1.4 5.4-1.6 8.3-.2.9.4 1.8-.2 2.5-.5-7.7-.9-15.9-6.1-22-.5-.6-.8-1-1.6-1.2-.3.4-.6.8-.4 1.4 2.3 4.1 1 9.4-.2 13.6-.2-2.2-.1-4.4-.2-6.4.4-6-2-11.5-5.1-16.2-.6-.4-1.4-.8-2-.4-.4.4.2 1 .1 1.4.5 6.3.4 13.5-.6 19.8.3 3 1.3 6.3 1.8 9.2.1 1.3.5 2.4-.1 3.5-.5-.3-.8-1-1.3-1.3-1-2.3-3.2-4.4-4.5-6.8 1.3-2.4 2.4-5 3.5-7.4a53 53 0 00-3-29.4c-1-1.5-1.7-4-3.9-4.1-.5.2-.3 1-.4 1.2 2.6 6-1.5 12 .8 18.4.1 6 2 12.6-.1 18.9-.2.1-.4.4-.7.3-2.3-1.5-2.9-4.2-2.6-6.6 1.6-2.3 2.6-5 2.7-7.6 0-6.7.5-14.2-5-19.6-1.7-.7-2.8-2.7-4.6-3-.7 2.4-1 5.4-.3 7.8 2.6 3.3 3.7 8.1 3.2 11.9l-2.1-1.6c-1.3-.2-2.5 1-3.3 2-.6-1.4-1.6-2.4-2.1-3.8.1-.6.4-1.2.9-1.4 1.5-5.8 3.7-11.4 1.6-17.6-.7-1.8 1.8-.5 2.4-1.7l.2-6.3c-1.6-.7-3.7-.8-5.3-1.2-.4-1.6.1-3.5 0-5.2-1.8-.8-3.7-1.6-5.6-1.4a13 13 0 00-.6-3.8c0-.5-.7-1.2 0-1.5.5.6.2 1 .7 1.5 2-.4 2-2.8 3.6-3.8a77 77 0 0113-3.9c7.1-.8 14.4-2.1 21-2.2l.7.1c-.2.6-.3 1.2-.1 1.9 2 .7 3-2.6 5.3-2.1.5.2.5-.2 1.6.4 1.2 0-.1 1.2.9 1.6 1.4.4 2.2-1 3.4-1.5.6.4 1.4.2 2 .7 4 .5 7.4 2.5 11.2 3.3 8.3 4 17.1 7 24.7 12.5l.2.7" fill="#b3995d"/><path d="M391 86a81.7 81.7 0 00-38-17.5l-2.7 2.1c2.4 1.3 5.3 1 7.6 2.4 8.9 2.3 17 6.5 25.1 10.7 1.6.9 4 2.6 5.6 3.7l2.4-1.3" fill="#9a3b26"/><path d="M382.3 242.4c2.5 1.9 5 4 8.3 4 .2 0 .5-.2.5-.4-.5-.2 0-.4-.3-.6l-2.5-6.5c-1.8.4-3.5 1.8-5.2 2.8l-.8.7" fill="#1691ff"/><path d="M381.5 241.8l-.9-.6 1.2-1c1.9-1 3.6-2.2 5.3-3.3.4.4.5.9.8 1.3-1.7 1.2-3.6 2.2-5.2 3.2l-1.2.4M367.2 247.2l-.1.6-.4 1c-3 1.2-5.9 1.8-9 2.7-5 1.3-10.7.8-15.5 1.5-3 0-6.8.5-9.8 0l2.4-2.1c4 .4 7.6-.2 11.6-.4 7.2-.9 13.6-.4 20-3.1l.8-.2" fill="#9a3b26"/><path d="M389.4 186.5c-.3.1-.5.3-.9.3-3.1-.1-5.2 3-6.8 5-2.4 4.3-3.3 9.2-6.6 12.9-.6-1.4-1.9-2.4-2-4 1.8-1.5 3-3.5 4.2-5.4 4-5.7 2.4-13.2 2.9-20 .6-2.7 1-5.7.2-8.3-.3-.4-.1-1.1-.8-1 0 .5-.5.7-.6 1-8.2 6-4.6 17-8.2 25.1-1 2-.5 4-1 6-1.2-1.5-2.5-3-4-4.2v-.6l2.8-4.7c1.7-3 2.7-6.7 3.8-10 1-5.6 3.7-10.7 3.6-16.4-.5-2.3-.3-5-2.2-6.8-1 2.3-2.6 4-4.5 5.7-4.4 4-7.3 9.8-4.9 16l-.2.7c-.3 0-.4-.6-.8-.4-2.7.4-4 3.6-4.5 6a6 6 0 01-1.6-4.1c2.7-3.5 4.2-7.2 4-11.8-.5-4.9-2-9.7-2.8-14.8 5-4 8.6-8.2 13.1-13l19.1-18.2c3.3-3.3 6.6-6.3 10-9.4-.7 2.5-1.4 5-1.7 7.8 0 1.8 1.4 3.4 1.8 5.2a16 16 0 00-.4 12c-1.3 3-1.7 6.6-1.3 10-2.4 3.2-1.3 7.3-.4 11-2 3-1.2 7.5-.2 10.9-1.5 2.3-3 4.7-2.8 7.5 0 1.9 2.4 3.5.8 5.4-.5 1.5.5 2.7.5 4-.8.6-1.2 1.8-1.1 2.7 0 1 .9 2 .6 2.9-1 1-.6 2.5-.1 3.7-.3.3-.8.8-1 1.3 0 .9.2 1.9.9 2.6-.2 1.5-.1 2.4.1 3.9.4.5 1-.2 1.2-.6-.2-.8 1-1.2.4-2 .4-1.2.5-3 .5-4.2.7-1.3.6-3.1.6-4.6l.2.3.5-.6v-5.2h.5c.4-.7.8-1.4.8-2 .7-1.8 1-4.2.7-6.1l.6-.6c.3-2.4 1.4-3.6 1.1-6-.1-1-.1-1.6-.4-2.4-.3-1.3-1-2.6.5-3.6l-.1-.2c1.4-2 1-4.2 1-6.3.8-1 .9-2.6 1.1-3.7-.5-1.2 1-1.7.6-3 3.3-3.4 2.7-8 2.2-12.2 2.5-3.7 1.4-8.3.8-12.3a27 27 0 002-13l-.7-2c1.8 2.2 3.1 5 4.3 7.7l-.2.2c-.1-.2-.3-.1-.5-.1-.5.2 0 .7-.3.9.5 1.2 1.8 2 3 2.4 0 .5.3 1.2.6 1.8l.3 1-1.9-.8c-.2-.2-.6-.3-1 0 0 3.1 3.5 3 5 5.4a82 82 0 013.7 26h-.7c-1 1.6.8 3 1.7 4.2-.4.4.3 1.5-.6 1.3l-.1-.2c-.7-.2-1.6-.6-2 .2-.4 2.2 2 3.6 2.6 5.6a141.3 141.3 0 01-11.1 38.6l-.7-1c-.3-.2-.8-.4-.9-.3a9 9 0 00-.4 3.3l-1 .5v-.3l-.4-.7c-.8-.7-1.2.2-1.7.6-.7-.2.5-1.4-.7-1.3-2 1.8-4 4-4.5 6.6.3 2.2-1.1 4.8-2.2 6.7-1-6.4 5-11 2.6-17l-1.7-4.8c-.3-.6-.3-1.5-1-1.7.2 3.6-1.9 7.2-4 10.3-.9 2.2-2.1 4.2-3 6.3l-.3-.4c-.3-7 0-17.3 1.2-24.6 0-2 0-3.8-.6-5.2-1.2.7-2.2 1.5-3.1 2.4l-1.5.2M346 174.9c-1.4-.1-2.7.4-3.8 1-2.2 1.3-.6 3.2-.5 5-1.3-.4-3-.2-4.6-.7-1.8-.3-3.6-.8-5.6-.9.5-1 1.5-1.5 2.1-2.4l.3-.8c1-.5 1.3-.6 2-1.3 2.3-2.2 6.5-1.2 8.9-1l1 .6.1.5" fill="#b3995d"/><path d="M369.6 234.8c2-.6 4.2-1.3 6.4-1.5.4 1.2.1 2.3 0 3.7-2.2.3-4.3 0-6.5-.2v-.6l.1-1.4" fill="#9a3b26"/><path d="M307.8 129.6a32.8 32.8 0 00-6-9.8c-2.1.9-4 3-6.2 4-8 2.2-14.7-3.4-23-2-.6-.3-1.1.2-1.5-.4.6-1.2 2.2-2.4 3.3-3.3.8-.7 2-.6 2.9-1-2.5-3.2-2.6-8-6.5-10-.1-.6-.7-1.2-.3-1.7.3-.5 1-.6 1.5-.4 6.2.8 8.5 7.5 13.7 10 2.4.6 5 .2 7.3.8 2.5.3 4.7 2.1 7.4 1.4-1-2.5-2.9-5.8-6-6-3.6-1-7.8-1.6-11.6-1.7-.1-.3-1-.3-1.4-.5-3.5-1.2-6.6-3.9-9-6.8l-1.2 1c-.6 1-1.6 2-2.1 3.2-3.7 5.3-7.7 10.7-9.5 16.8.2 1.8 1.5 3.5 1 5.3-.4-.5-1.3-.7-1.6-1.4l-1 1.6a7 7 0 011.2 3.9c-.3.3-.5.6-1 .5l-1-.9-.6.6c-1.2 4.2-3 13.2-3 13.2a85 85 0 001.5 30.4c.5 2.4.9 4.4 1 7 1.1 1 3 1.4 3.2 3-.7.8-1.6.6-2.4.7 0 .8.4 1.5 0 2.2 1.6 1.2 3.5 1.7 4.7 3.2.4.7-.5 1-1 1.4h-.7c.2 1.4 1.3 2.9 1.7 4.2a119 119 0 0012.9 20.7l4.1-4.4 20.5-21.1c.3-.3 0-.4.3-.7.8-.1 1.2.5 1.8.6-.2-1.2-.7-3.1.3-4.4 4-3.6 8-7.5 12-11.4-.8-.7-1.7-1-2.2-1.8.7-.7 1.6-1 2.2-1.5-1.8 0-4 .8-6 .2-1.5-.6-2.6-.6-4-1.3-.5.2-.9-.3-1.1-.5v-.4c1.1-.4 2-1.3 3-1.8-2.3-1-5.6-2.2-5.5-5.4-.2-.6.4-.7.7-.9 2.4-.1 5.9 2 8.6.4 3.9-.9 9.2-.2 12.8-3.1-4.8.3-9.7 2.6-14.4 2.5-3.1-1-6.6-1.5-9.3-3.9a10 10 0 01-4.3-3c4.1-3.5 8.5.7 13.2-.2 3.1-.6 5.5-3 8.6-2.7 3.3-.6 7.6 1.9 10.3-1.3-.5-.5-.7-1.3-1.2-1.5 0-.7-.8-1.4-1.1-2-.7-.8-1.5-1.7-2.5-1.9-1.4 0-2.3.7-3.3 1.3-2 1.2-4 2.8-6.1 3.8-2 .6-4.4 1.3-6.5.7-4-1-8.2-2.1-11-5.3-1.6-2-2.6-4.3-4.1-6.2-.2-.5.3-.8.4-1 1.6-.5 2.7 1 4 .8 3.9 1.7 7.8 4.7 12.4 3.2 2.9-1.3 6.3-.6 9.2-2.2l-2.4-2.8c-2.5.7-4.2 2.2-6.8 2.6-5.7 2-9.3-4.1-15.2-2.5-1.3-.5-3-.4-4.4-1.2-1.6-.3-2.5-1.2-4.1-1.5-1.1-.5-2.2-1.5-2.6-2.8-.7-.3-.6-1.1-1.3-1.7h.2c-.8-1.1-2-2.2-3-3.1.4-1 1.7-.5 2.5-.6 2.4.5 4.8 1.4 6.9 2.4 2.3.7 4.5-.1 7 1a16 16 0 016.8 3.2c.8.4 1.9.4 2.8.7 0-.6-.5-1-.7-1.7-.2-1.2-.1-2.6.4-3.6 1.7-.3 3.7-.4 5.5.1l-.1-1.3" fill="#b3995d"/><path d="M367.9 247l2.1.6c-.3 1-1.4 1.7-2.5 1.8-.5-.5 0-1 .1-1.4l.3-1M410.5 210.1l.3 1.1h.7l-.2-1.5-.7.6M271.6 97.7l2.2 1.3c.7-1.4 2-2.5 3-3.7l-2.1-1.1c-.5.9-1.3 1.6-2 2.3l-1.1 1.2M339.1 70l.7-1.2c.4-.6 1-1 1.2-1.6-3.3-.3-7-.5-11 .1a106.3 106.3 0 00-24.8 5.9s-.3 2-.9 2.7c2-.4 3.9-1.4 6-1.9 6.6-2.2 12.8-2.3 19.8-3.5 2.5 0 5.4-.6 8.1-.5h1" fill="#9a3b26"/><path d="M292 79.8l.4-.2"/><path d="M290.9 84.7l-.6 5.3c.3.7.4 1.5 1 2-.2-3.1 2.2-5.4 1.8-8.6-.3.1-.5.4-.7.7l-1.5.6" fill="#b3995d"/><path d="M346.5 65.3c-.8 1.8-3 3-4.2 4.6-1.3.6-2 1.8-3.2 2.2 0-2.1 1.8-4 3.5-5.5 1.2-.7 2.6-.9 4-1.3M353.3 66.4c.3 1.5-1.5 2-2 2.8l-4.4 2.7c-.1-.5.3-1.2.7-1.7a9.8 9.8 0 015.7-3.8M348.8 67.9l-2 2.3h-1.6s-.8 0-1.6-.4l2-2.2c.9.2 2 0 3.2.3M301.8 78.5c-.3.4-.5.9-.9 1.1-.7-2.8.7-5.9 3.1-7.6 2 2.4-1.6 4.2-2.2 6.5" fill="#9a3b26"/><path d="M275.5 74.6c1 1.7 3 2.2 4.3 3.6 1.2 1.5 3.2 3 3.2 5a6 6 0 01-2.5-1.4c-1.6-1.2-3.8-.7-5.2-2.3-.9-2-2.3-4-3-6.1 1 .2 2 1 3.2 1.2" fill="#395839"/><path d="M300.2 76c-.5.7-.3 1.8-.8 2.4l-.4-1.6c.5 0 .7-.7 1.2-.7M305.4 85.9c0 2-.5 3.5 0 5.4 1.9.2 3.9.3 5.3 1.2l-.2 5.5c-.5.5-1.4 0-2 .4-.9-2.6-2.5-4.8-4-7-.5 0-.8-.5-1.2-.1-1.2 3 .8 6.3 0 9.6-.2 2.3-.7 4.4-.3 6.5-.6.1-1.6 0-2.4-.2 2.8-6 3.3-14.6-.8-20.5.2-.7.2-1.5.6-2.2 1.8.1 3.5.6 5 1.4" fill="#9a3b26"/><path d="M280.2 88.2l-.8 1-2.8-2.5h.2a13 13 0 003.4 1.5" fill="#1691ff"/><path d="M395.4 87.8c-2.5 1.5-4.7 1.5-7.3 1.2h-.2c.3-1 1.6-1.3 2.4-2 1.6-.7 3.5-.5 5 .2v.6M283 90c-.3.3-.6.8-1 .7l-2.2-1.3c1-1.9 2.2.2 3.2.5M395.5 89.5c-1.2 0-2.3 2-3.1.3.8-.7 2-.5 2.8-1.2-.2.1 0 .7.3 1" fill="#9a3b26"/><path d="M347.8 90.4v5.9c1.2-.2 2.6.4 3.7 1 .8 1 .1 2.4.1 3.5-.6 1 .2 3.3-1.8 2.8-1.2 0-2-.6-3.2-.3-.4 3.2-.3 6.5-1.3 9.5-1.7 1.2-3.8.4-5.7.1-1.8-.3-.5-2.4-.7-3.3.4-2.1 0-4.6.3-7-1.5-.5-3.5.2-4.6-.8-.2-1.8.3-4.1.4-6.2 1.6-1.6 5.9 1.3 5.5-2.5.2-1.2 0-2.8.6-4 2.3.6 4.4.6 6.7 1.3"/><path d="M401.2 110.1l-.4.4c0 .7-.7 1-1.3 1.6-12 11.3-24.7 23.1-35.5 34.7-1.9 1.8-3.6 3.6-5.6 5.2-1.2-3.7-1.2-8-4.4-10.5-.2 0-.4 0-.6.2 1 3.2-.8 6.4-.6 9.8.5 2.3-.8 4.5-.7 6.7l-1.2.8c2.2-5.7 1.1-11.3 0-17.2l.1-.6c10.7-11 21.3-21 32.2-31.9 4.8-4.4 9.5-9.4 14.5-14 0 5 2.5 8.9 4 13l-.5 1.8M402.2 101.7c-1.3-3-1.8-6-1-9.3 1.4 3.1 1.7 6.9 1.5 10.5l-.5-1.2" fill="#efe8c7"/><path d="M401.4 102.2a18 18 0 01-1.3-9.3c.2-.6.6-1.3 1.3-1 1 .7 1 1.7 1.4 2.6.6 4.5 1.3 9.2-.1 13.8l-.6 2.3-.5.8c-1 3.8-3.5 8.7-.5 12.5h.4v.5c1.1 1.8 1.8 3.6 2.7 5.6 1.1 3 2.3 6.2 4 9 2-4 1-8.1-.1-12.2-3.9-4.2-5-9.5-6.4-14.7.1-.2.1-.6.4-.6 1.2 3.4 2.1 7 3.5 10.4 1 1.7 2.3 3.1 3.3 4.8 1.3-3.5 2.2-7.4 1.7-11.4-.7-3.2-3-7-6.6-7.8 0-.2.3-.1.5-.1l.1-1c.5-5.3.6-10.9-1.3-15.8-.5-.5-.9-1.8-1.8-1.3-.7 1.3-2.3 1.7-2.8 3.2a19 19 0 002 10.6c0 .4 1.2 2.7 1.4 4h.1c.3-.5 0-1.3.3-1.6l.1-1.5-1.2-1.8" fill="#773141"/><path d="M347.1 90.8c.4 1.6-.2 4.1.2 5.8.5.5 1.4 0 2 .4l1.7.6c.2 1.8 0 3.5-.6 5.3-1.5.4-3.5-.9-4.6.3-.2 3.3-.3 6.1-1 9.4-1.1.6-2.4 0-3.4.2-.7-.1-1.5-.2-2-.7.4-3.4.4-6.6.3-10-1-.4-2 0-3.1-.2l-1.2-.2c0-2.1 0-4 .4-5.8 1.9-.7 3 .1 4.8-.5.8-1.6.4-3.7.8-5.5l5.7.9" fill="#9a3b26"/><path d="M286.3 92a16 16 0 01-3.2-1c.9-1.5 2.2.5 3.2 1" fill="#b3995d"/><path d="M397.9 90.5c.1.2.4.3.5.7-1 .6-2 .5-3 .6-1 0-2 .7-2.9.3 0-.3.3-.6.6-.8.6.2.7-.5 1.1-.6 1.3-.5 2.4-.5 3.7-.2M397.8 93.4c-.6 0-1-.5-1.4-.8.6 0 1.2 0 1.6-.4-.2.3-.3.8-.2 1.2" fill="#9a3b26"/><path d="M296.1 96.3c.6.2 1.2.3 1.5.7.2 2.6-.3 4.3-.5 6.8-1-1-1.2-2.7-2.2-4-.2-1.2 0-2.4.3-3.5h.9" fill="#b3995d"/><path d="M296.1 95.7c.5 0 1 .4 1.5.3-.2-1-.7-2-1-3-.5.8-.9 1.7-1.2 2.6l.7.1" fill="#9a3b26"/><path d="M289.2 98c1.3 3 3.6 5.8 5 9-3-.6-4.5-3.9-7.5-4.4-4.1-.8-8.6-1.3-12.3-3.4.6-1.3 2-2.3 2.9-3.3 3.8 1 7.9 2.2 11.9 2" fill="#b3995d"/><path d="M387.4 95.9l.4.4c.1 2 0 3.3-.2 5.4.5.5 1.1.5 1.7.5-2.5 3-5.7 6-8.7 8.6v-4.1c-1.6-.7-3 0-4.7-.6-.2-1.4-.1-3.1.2-4.6 1.4-.3 3.7.4 5.3-.2.7-1.8.7-3.8 1.3-5.6 1.8-.1 3 .6 4.7.2M269.8 100.3c-1.8 2-3.1 3.3-3.8 4.6-3.5 4.5-5.6 9.5-7.7 14.5.3 1 .6 2 1.1 2.9 2.5-7.3 7.1-13.2 12.4-20.6l-2-1.4" fill="#9a3b26"/><path d="M405.9 106c-.4.4-.6.9-.6 1.6 1.4.3 2.9 1.4 3.5 2.3l-2.5-3-.4-1" fill="#d1b881"/><path d="M406.3 105.6c.6-.5 1.5-1 1.9-1.8h.2c3.3 4.6 6 9.5 8.5 14.4l1 2.6c-3.8.4-3.4-4.3-5.3-6.3-1.8-2.7-3.6-5.5-6-7.9l-.3-1" fill="#9a3b26"/><path d="M303.1 108.6c.2 2.2 2.3 4.5.5 6.6-1-2.3-4.5-4.2-3.3-7.3.9.4 2 .1 2.8.7" fill="#b3995d"/><path d="M258 120c1 2.6 1.5 5.2 2.4 7.6-2-1.5-3-4-4.4-6.1-.4-.8 0-1.7.7-2.3.5 0 1.2.3 1.4.9M422.1 125.1c0 .3.2.7-.1.8-2.5-1.1-4.4-2.6-6.8-3.5-.4-.3-1-.8-1-1.3 3.3 0 6.4 1.1 8 4M256 126.5c1 2 2.8 3.6 2.7 5.9-1.5-.4-3.1-2.2-3.6-3.8.3-.2-.3-.2-.3-.2-.2-1.4-1.7-2.8-.5-4.2 1.2.2 1.1 1.6 1.7 2.3" fill="#9a3b26"/><path d="M407.3 139.1c.5.6-.2 1.2.6 1.7.3 3.5.6 7.5-1.6 10.3-.4-1.4-.6-3.5-1.3-5-1.2-5.1-5-9.2-5-14.6 0-2 .6-4 1.2-6 2.6 4.4 3.4 9.4 6.1 13.6" fill="#773141"/><path d="M424.6 133.1c-3.5 0-5-4.3-8.2-5-.3-.6-1.2-1-1-1.6 3.6.9 7.9 2.9 9.2 6.6M256.3 131.8a76.6 76.6 0 00-4 22.5c-.2 4.5-.3 8.5.5 13 .3 5.4 2.3 10 3 15.6-1.1-1.3-4-.9-3.5-3-1.5-6.1-1.2-11.3-2-17.3l.1-1.1.1.1v-4.4c.4-5.1-.5-11.5 1.4-17 .6-3.6 1.7-7 3-10.4.2.7 1 1.2 1.4 2" fill="#9a3b26"/><path d="M424 135.3c1.5 5 1.2 11.3 2.6 16.2 0 2.4.5 5.2 0 7.5-.6-.9-2-.7-2.3-1.8-.3-6.4-.6-13.3-2.1-19.3-.2-2.2-1-4-1.6-6 .8 1.5 3.9 1 3.3 3.4" fill="#9a3b26"/><path d="M306.9 134.3l1.5.2c.9.3 2 .6 2.3 1.5-.7 0-1-.9-1.8-.8-1.5-.4-3.4-.9-4.8-.1-.2-.2-.1-.4-.1-.6.3.1.3-.3.4-.4.6.3 2 0 2.5.2"/><path d="M405.4 152.3l-.3.3c0 1.5 0 3.2-.5 4.6-1-3.7-4-6.3-4.9-10-.2-3-.3-6.6.9-9.6a36 36 0 014.8 14.7" fill="#773141"/><path d="M337.5 153.4c-.8.5-1 1.3-1.7 1.6-.9-1-1.8-1.7-2.5-2.8 0-3.1 1-5.9 1.8-8.6l.4-1.9c.1 4 1.1 7.9 2 11.7" fill="#b3995d"/><path d="M249.2 153.2c-.9 1.7-1 3.5-1.5 5.5l1.9 1 .4-6.9-.8.4" fill="#1691ff"/><path d="M249.9 151.8V148c-1.2 1.3-2.7 2.9-3 4.8-1.4 3.5-.5 8.2-1.2 11.6-.7 2.3.2 5-.6 7.4-.5 1-1.3 2.2-2.5 2.4-.6-1 .8-1 1.2-1.6 1-1.9 1.1-4.1.7-6l-1.2 1.4c-.3.4-.5-.2-.8-.3 1-1 1.8-1.9 2.3-3 0-2 1-4.3.7-5.6-2 2-5 1.6-7.3 2.5.3.5.7 1.2.5 2-3.6 1.8-1 5.5-1.8 8.6.2 1 1.5.6 2.2 1.2 0 1.1-1.4.3-2 .7-.6 2.5-.7 5.3-.3 8 .3 0 .3-.3.6-.5l.2.4 2.7-.4c0 .1.3.3.1.5-.8.3-2 .2-2.8.6 0 .5-.6 2 .6 2 .7.3 1.6 1 1.4 2 .6.6 1.1-.3 1.8-.1.5.6 0 1.1 0 1.7-1.1.9-1.6 2.6-3 2 0 3.6.6 6.7.6 10.5.5.3 1.4-.2 1.8.4-.3.6-.7.2-1 .5-.6 1.9-1.4 3.7-1.2 6l1.1-.3c1.1.8.2 2.7.8 3.9 1-.6 2.2-1.5 2.8-2.7 1.3-.5.6 1.2 1.2 1.6.9 0 .8-1.1 1.5-1.2.2.1 0 .5.2.6.7.1.9 1 1.6 1.4.4 0 .5-.6.7-1 .3 0 .4.3.6.3V209c-1.4-1.7 2-2.3 1-4.2.8-2-.4-3.7 0-5.8-.8-1.8-2-4.2-1.2-6.2 1-.1 1 1.6 1.2 1.7-.1-2.3 1.5-3.6 2.2-5.6.2-.3.5 0 .7.2l-.2 2h.1c.8-.6.8-1.4.6-2.2 0-.1.2-.3.4-.3l.2-.5-.3-.4c.8-2.3-2.3-2.4-2.6-4.5-.4-.6-.3-1.9.6-2.1-1.7-5.3-1.2-10.2-1.9-15.5-1-1.8 1-5.3-1.8-5.9-.4-.4-.5.1-.8.3 0-2.4.2-5.3 1.7-7.3l.9-.8" fill="#efe8c7"/><path d="M254.6 188.5c1.8 1.6 4.4 2.3 6.3 3.9.1.2.4.3.2.5-.4.7-1.3.4-1.9.3-1.7-1-3.4-1.2-4.6-3l.2-1-.2-.7" fill="#9a3b26"/><path d="M343.8 164.1l-1.6-1.5c1-1.8 0-4 .4-5.9.4-3.1 1.5-6 1.7-9.2.9 5.2 1 11.7-.5 16.6" fill="#efe8c7"/><path d="M404 159c0 2 0 4.1-1 5.8-2.3-4.8-6.1-9.8-4.2-15.5 0-.3.1-1 .5-1.2.9 4 4.8 6.7 4.7 11" fill="#773141"/><path d="M337.7 154c0 1.3.5 2.5.7 3.9-.5-1-2.1-1.7-2-2.8l1.3-1.2" fill="#efe8c7"/><path d="M426.6 160.4c1.3.7 1.4 2.2 1.6 3.5 0 .3-.3.8-.1 1-1.4-2-4.3-4.3-5.2-6.8l.2-.3c1.2.7 3 1 3.5 2.6" fill="#9a3b26"/><path d="M331.5 159c-.2.6-.9 1-1.1 1.4 0-.4.5-1.1.4-1.8.4-.1.5.3.7.5M354 167.4l-.4-.4c-1.5-.3-2.7.5-3.8 1.6-.5.7-1 1.5-.9 2.5-.4-1-1.4-2-2-3 .4-2 2.4-3.4 2.7-5.3.6-1.3 1.1-3 2.7-3.8.5 3.1 2 5 2 8.4h-.3" fill="#b3995d"/><path d="M353.3 168c-.3-.3-.5-.4-.8-.3-1.1.2-2.2 1-2.6 2-.4.5-.1 1.2-.4 1.5.6 1.7 2.2 3 3.3 4.4.8-.8.5-1.7.8-2.7.6-1.5.8-2.9.8-4.3l-1.1-.7" fill="#1d5c42"/><path d="M402.3 165.1c-.8 2.3.8 4.5.6 6.9 0 1.6-.6 2.6-.8 4.1h-.1c-2.1-5.4-5.3-11.5-3.1-17.4 1 2.2 2.3 4.3 3.4 6.4" fill="#773141"/><path d="M248.5 162c-.2 1-.6 2.5.4 3 0 .6.5.9.6 1.3-.1.2-.2.4-.4.2-.4-.4-.6-1.1-1-1.4-.2 1-1.3 2.6-.2 3.4.3.6.6 1.2.5 1.9-.6-.4-.7-1.2-1.2-1.8 0 .4-.2 1-.5 1.2h-.2c.3-2.8 1-5 1.4-7.7l.2-.2c0 .1.2 0 .4 0"/><path d="M426.7 165.4c-.2-1.3-2.4-1.7-1.8-3.3.7 1 2.6 2 1.8 3.3" fill="#9a3b26"/><path d="M305.6 170.1c-.1-1-2.3-1-3.2-2a3.8 3.8 0 01-2-3.2c2.5-.5 4.4 1.2 7 .7 2-.9 4.2-1 6.4-1.3-3 1.5-5.3 3.8-8.2 5.8" fill="#1d5c42"/><path d="M339.1 167.7c-5.5 0-9.4 3.7-14.5 5.2a19 19 0 01-7 .5c.7-.7 1.4-1.3 1.8-2.1 1-.7 3-1.7 3-1.7s5.3 0 7.7-.6c2.4-1.3 5-2 7.3-3.3l1.7 2" fill="#efe8c7"/><path d="M401.2 176.3l-.2.1c.3 3 .4 6-.8 8.6-1.4-3-3.2-5.9-4-9.1 0-2.4 1.3-4.3 2.3-6.3 1 2 1.8 4.4 2.7 6.7" fill="#773141"/><path d="M352.1 171c-.9 1.2.8 2.4.4 3.5-.6-.3-.6-1.4-1.1-2-.2-.6-.1-1.6.7-1.5"/><path d="M315.1 173.7a9.3 9.3 0 003.6-2c-1.2 1-2 2.2-3.6 2" fill="#b3995d"/><path d="M245 174.7c-.2 1 0 2.1-.7 2.7-.1-.9.2-1.9.1-2.9.2-.2.6 0 .6.2M432.5 175.4c0 1.2 1.2 2.2.9 3.5-.9-1.4-1.4-3-2-4.4.7-.3.8.5 1 .9"/><path d="M333.3 176.5c-1.4.6-1.8 3.7-3.7 2.4l-1.4-.1c1.6-.9 3.4-1.8 5.1-2.3" fill="#efe8c7"/><path d="M246.5 178c.4 1.9-1.3 4.2 1 5.7.2.4.6.8.2 1.2-.6-.5-.8-1.4-1.4-2-.4 1.5-.4 2.9-1.4 4.2-.2.3-.5.2-.7 0 2.4-2.5.8-6.5 2.3-9.2M350.8 178.8c-.6-.1-1.7-.1-2.3-.3v-.3c.8.2 1.7 0 2.3.6M244.8 183.3c-.2.1-.3.3-.5.3 0-.8-.3-2.3.6-2.6v2.3"/><path d="M258.8 185.9c.1.6-.6.5-.9.8-2.3-.5-5.5-1-6.1-3.9a2 2 0 010-.9l.4-.2c2.4 1 4.5 2.7 6.6 4.2" fill="#9a3b26"/><path d="M399.7 185.6l-.4.4v2c-1.1-2-3-4.5-2-7 .8 1.5 1.5 3.3 2.4 4.6" fill="#773141"/><path d="M363 183.4c-.6 1-.6 2.8-1.6 4l-.2-.4c.3-.4.5-1.1.7-1.8 0-.6-.2-2 1-1.8"/><path d="M238.9 186.3c0 .5 0 1.1.6 1.3l1.4-.1c0 1-1 1.3-1.5 2-.6 0-1 .3-1.6 0-.5-1.1-.2-2.9-.3-4.4.5.4 1.1.5 1.4 1.2" fill="#9a3b26"/><path d="M429.4 184c-.4.7-1 1.5-1.8 1.7.3-.6.9-1.5 1.8-1.6M437.4 184.8c-.2.3 0 .6-.3.5-.3-.4-.9-.7-1-1.1a1 1 0 011.3.6"/><path d="M392.6 234.7l-.1-.5.2-.4 1.6-1.3 1.3-1.3h.1c1-.9 1.8-2 2.7-3.4 1 3.5-2.9 4.2-5 6l-.8 1" fill="#9a3b26"/><path d="M394 234.4c1.2-1 3-2 4.1-3-.2 3-2 5.5-3.3 8.1-.5-1.1-1.3-2.5-1.9-4l1-1" fill="#1691ff"/><path d="M389.6 228.7l-1.3-2.6c1.9-1 4-2.4 4.7-4.7-.1 3-.3 4.9-1.3 7.4 0 .6-.6 1-1 1.4l-1.1-1.5" fill="#b3995d"/><path d="M390.7 231.2c2.1-1.9 2.7-5.1 3-7.7 0-3.3-.3-6.5.9-9.6 1.5-5.1 6-9.1 6.6-14.6 1.7 4.3 3.4 9.7.4 13.8-2.1 5.1-1.1 11.7-4.9 16.2l-2.8 2.8-1.6 1.3-.5.8c.4 2.5 1.9 4.6 2.8 6.8 1 .2.5-.9 1-1.2 2.5-3.8 4-8.6 3.7-13 .5-4.4 4.7-8.1 4.5-13 .5-2 2.2-3.5 3.5-5 1 7.7 1.8 16-1.7 23.2-2 4.8-5.7 8.2-8.3 12.6 1 3 3.1 6.1 4.7 9.2 5.1 9 11.2 17.5 15.4 26.8-1.1.3-2.8.9-3.3 2.3-7.8-10.6-14.3-21.5-21-32.5.3-.5.8.2.9-.6l-.5-.3c-3 1.7-7.5 2-10.4-.4-3.6-1.2-7.2-.3-10.8-1.5-3.3-.7-6.2-2.2-9.7-2.5-2.6-1-5.3-2-7-4.6-.3-.5-.3-1.4.5-1.5 3.4-.6 6 1.9 9.5 1.3 3.3 0 6.6-2 9.7-.3l3.7.8c3.9 3 7.8 5.8 12.7 5.9l.2-.5c-.9-2.7-2-5.3-3.2-7.8.1-.1-1-1.6-1.2-2.3-1.5-2.9-4.4-2.7-7-3.4-1.3-.3-2.7 0-4-.4-4 .8-7.7 2.7-12 3-3.7 0-8 .7-10-3.3-.4-1-1.3-1.7-1.3-2.7 6 1.3 12.6.5 18.2-.8 2 .5 4.2-.6 6 0 2.1.9 4.1 2 6.3 2.6 1.1-.4 0-1.4 0-2-.6-1.3-1.6-2.3-2.4-3.4-3.4 2-8.6 1.2-12.3 1.6-5-1.8-10.3-4.3-16.2-3-1.4.2-3 1-4.2 0 1.4-1.2 2-3.3 4-3.3 3-1.3 6.2.4 9.4.3 3.3-.6 6 1.3 9.2 0l3.7-.7c1 .4 1.7 1.5 2.7 1.8l.2-.1c.5.4 1.4.5 2.1.3.3-.4-.1-.8-.4-1-2.4.6-3.7-1.6-5-2.9-.2-.9.7-1.4 1.2-2 .3.3.6.8 1.2.5 1.5-.7 1.7.9 3.1.9.9 1 1.5 2 2.5 3 0 .2.3 0 .4-.2-.3-1-1.5-2-2.2-2.8-.8-1.3-.5-3.4.4-4.6-.5-.6.5-1.2.9-1.6 1.2-1.1 2.9-.2 4.4-.8 0 2.1 1 4.3.8 6.4-.4 1.1-1.6 1.8-1.9 3.1.1 0 .3.3.5.2 1.2-1.3 2.7-2.6 2.1-4.7-1-1.8 0-3.8-.8-5.6 2.7-7.5-2.4-18.2 5-24.1l1.6-1.5c.7 5.3-1.2 11.2-1 16.8 0 4.9-.2 10.4.4 15.3.2 3-1.3 6-3.7 7.6-.7.2-1.3.6-1.9 1 .2 1.2.9 2.3 1.4 3.5l1.8 2.1" fill="#1d5c42"/><path d="M431.4 184.8c-.1 1.4.8 3-.3 3.9v-4h.3"/><path d="M256.4 187l.3 2c-1-.2-1.7-.7-2.2-1.5v-1.1c.7-.2 1.2.6 1.9.7" fill="#9a3b26"/><path d="M399 191.5c0 .2-.1-.5-.5-.3-.2.4 0 1.3 0 1.9-1.1-1.9-3-4.7-1.2-6.9a7.7 7.7 0 011.7 5.3" fill="#773141"/><path d="M245.2 190c.3 1.6 1 3 1.6 4.2l-.3.4c-1-1.3-1.4-3-1.9-4.5-.3.5-.5 1.7-1.4 1.5a14 14 0 001.6-2.9c.8.1 0 1 .4 1.4M426.8 190.2c.7-.4 1.4-1.3 2-1.4-.3.7-1 1.5-2 1.4"/><path d="M305.8 197.5c.7 1 1.5 2.3 2.8 2 6.6-3.8 11.4-10 16.9-15.6l1.2.6c4 .9 7.5 3.6 11.4 5 5.1.3 9.6-3.3 13.5-6.4 1.4-.4 2.4 1.3 3.3 2.2 0 .5 1.2 1 .2 1.4-1.3-.7-2.8 0-4-.2-.8 0-1 1-1 1.5.5 2.1 1.8 3.9 3.5 5.2l-.8.6-2.1.4c-3.7-.2-7.4-1.6-11-2.7-.8-.5-2-.7-3-1-3.3-.3-7-.7-10.1.2-.3.7 0 1.7.3 2.4 3.1 2.4 6.7 3.5 9.9 5.7 3.6 2.4 6.8-.2 10.2-1l6.7-.2c.7 0 1.6 0 2.3.3a7 7 0 005.8-1.2l1.7 1.7c-.7-.4-1.6 0-2.6 0-1.2.3-3.1.2-4.2.6-.9.5-2 .3-2.7.8-3.8.8-6.5 3.6-10.5 3.9-2.8.4-5.4-1.5-8.1-.1.1 2.4 1.8 3.8 3.4 5.3 2.5 1.7 6.3 1.1 8.6 0h.2c.8-.6 1.7-1.3 2.8-1.5l-.3 1.4a12.5 12.5 0 01-10 5.6c-1 .1-1.8 1-2.8.6 0-1.7.3-4.2-.3-5.8-.5-.2-1.2-.6-1.7-.2-1.7-.9-3.2 0-4.9.6.6.8.1 2.4 0 3.5-1.6.8-3.2 0-4.8.7 0 .8-.5 1.5-.3 2.2-.6 1.7-.3 3.7 0 5.2.5.5 1.1-.2 1.7.2.8 0 1.2-.1 1.8.1-.2 3.1-.4 6-.4 9 2.3.6 4.7.6 6.9.5.7-2.6.5-5.4.8-8l4.9-1c.8-.8.3-2.9.4-4l.2-.2c2.3.4 4.6 0 6.8-.2-1.6 1.3-3.4 2.4-5 3.4l.4 1c.8.6 2 .7 2.9.3l.1.1c1.2-.2 2-.8 3.1-.8-.4 1.1-1.6 1.6-2 2.7.6 1.5 2.6 1 4 1 2.4-.9 5.6-1 8-.5 3.5 1.1 6.1 1.8 9.4 3.3-1.8.7-3.2.7-5 1-3.9.5-8 .1-11.6-.7l-.2.3c.1 1.9 1.6 3.6 2.7 5.3 2.3 2.3 5 2 8 1.8 1.9.1 3.8-.3 5.6-.8l.1 1.1v1c2.4.4 5 .9 7.5.5.4-1.2.4-2.8.4-4.3.4-.7 1.3 0 2-.2 2.8 1 6.7-.2 8 3.5-2.2 1.4-4.1 2.8-6.3 4l.1.1.3-.1-1 .1c-1.5-.8-3-1.4-5-1.3-2.4-1-5.7-.1-8.2.3-4 1.2-7.3-2-11-1.1-.6.3-1 .8-.9 1.5 2.3 4.5 7.3 5.3 12 6.5l-.8.2c-2.4.9-4.8 1.6-7.4 2-7.7.6-15.7 1.7-23.2 2l-.4-.4c.5-1 1.3-2 1.3-3.4-.5-.3-.7-1.1-1.4-.8-1.7 1.2-2.6 3.5-4.4 4.6-.9-.4-2-.5-2.9-.8.8-1.4 4-2.4 2.5-4.4-.1-.2-.5 0-.6-.2-.6 0-1.2 0-1.4.7-1.9.8-2.6 2.4-4.1 3.5-.2.3-.6-.1-.8-.2a87.4 87.4 0 01-28.2-12.1c-1.4-.7-.1-1.6-.4-2.8-1-1.7-2.3-.5-3.4-.4-1 .8-1.7-.8-2.4-1.3.3-.4.7-.4 1-.8a3 3 0 00-.1-2.1c-1.9-.7-3.9-.5-5.6-.7-1-1.3-2.5-2.4-3.7-3.6l-.1.1-.8-1.1c3-3 6.5-6 9.3-9.1v9.9l.4.6c1.7-.4 4.1 0 5.8-.5.6-2.6.5-5 1-7.6 1.1-1 3.2 0 4.7-.3v-7.7c-1-1.6-4.6 1.3-4-2 2.8-2.7 6.6-5.4 9-8.6.9-.9-.7-1.6-.9-2.4l.4-.4.6 1" fill="#b3995d"/><path d="M305.6 196.1l.7-.6c-.2-.9-1-2-1.7-2.7-1 0-1.6 1.5-2.4 1-.9-1.2-1.2-2.8-.7-4.2 1.8.2 3.4 1.2 4.6 2.9.6 2 3 3.8 2.4 6.1.2 0 .4-.2.5-.4 0-2.6-1.9-4.3-2.8-6.4-1-1.7-2.9-2.3-4.4-2.7l12.3-11.7c2 1.4 3.8 1.3 6 2.2-.2.2-.5.4-.6.7-.3 1 0 1.8.8 2.4 1.7.2 3.4.4 4.8 1.2-4 4.5-8.3 8.9-12.7 12.7-1.5 1.1-2.7 2.5-4.6 2.3-.6-.3-1.1-.8-1.5-1.4l-.7-1.4" fill="#efe8c7"/><path d="M350.7 208.3c-1.6 3.8-6 5.8-9.8 6.3-.7.3-1.6.2-2.3.8.7 1.4 2.3 1.5 3.4 2 3.9.5 8.4 0 11-3.3 2.6-1.7 5.6-3.6 6.5-6.8-2.7.4-5.6 0-8.3 0l-.5 1" fill="#1d5c42"/><path d="M330.7 162.3c1 0 1.7.5 2.7 0 .4-.2 1.1-.4 1-1-1.2-1.6-2.1-2.4-3.6-3.7l-.3.3c-.9 5.6-6.5 10.3-11.3 12.8-4.3 3.3-11 4.6-15.8 1.7 3.2-2.2 6.6-5 10-7.2 3.2-1.6 7.5-1.4 10-4.4-.8-.3-1.6.1-2.4.1-.4 0-1 .5-1.2 0-3.5 1.1-7.3 2-11.2 2.4-1.9 0-3-.8-4.9-1-3.2-1.1-6.2-3-9-5.3 2.7-2.2 6.4-.4 9.2.2 3.8 1.1 6.4-1.7 9.7-2.6 4.3-.7 9.4 1.5 12.7-1.2h-.1l.4-.5c-.7-2-2.4-4.3-4.2-5.7-.9-.2-2-.6-2.7 0-5 2.3-9.7 7.9-15.8 5-3.7-.4-6.6-2.5-9.2-5-1.5-2-2.7-4-4-6.1l.5-.2c3.2.5 6 2.1 8.8 3.6 5.3 2.7 8.8-.6 13.2-.9 1.3-.3 3.1-.3 3.4-1.7l-2.3-2.7c-2.6 0-4.5 2.4-7.2 2.7-3.8 1.4-7.5-1.8-10.8-2.7-3.5 0-7-.3-10.3-1.6-3.8-.5-5-4.5-7.4-7-.2-.5-1-.7-1.1-1.2 2.3-.6 4.3.8 6.3 1.4 2.2 1.3 5.2 1.3 7.8 1.4 4.4.1 6.8 4.2 11.1 4.5.9-.8 1.3.5 2 .4 1.3.7 2.5.3 3.9.6.2 0 .4-.4.2-.6-2 .1-4.2 0-5.8-1.7-.9-1-.5-2.3-.5-3.6 1-1.7 3.7-.5 5.5-.6 2 .5 2.7 2.7 3.9 4 .3 0 .2.3.6 0-.2-.8-1.1-1.1-1.4-1.9-.7-1-1.5-1.7-2.5-2.1l-.3-1.3c-1.1-4-3.7-7.4-6.1-10.7-.9-.3-1.4.7-2.1.9-4.3 5.4-11.6 3.4-17.3 2.1-3.5-1.7-7.1-.2-11.1-1 .7-1 2-2 3-2.8 1.4-.2 2.8-1.6 4.2-.6.3-.3-.1-.6-.2-.8 1.8-.8 3.8-1.4 5.7-1.3-2.1-.7-4.5.2-6.3 1-2.8-2.5-2.5-6.5-5.6-8.8-.6-.6-2-1.4-1.5-2.4 6 0 8.5 6.3 13 9.2 2.2 1.4 5.2 1.1 7.8 1.4 3 .5 5.5 1.8 8.4 2 .7 0 1-.7.8-1.2-.9-2.1-2.2-4.3-4.2-5.6-2.2-.5-4.3-1.5-6.6-1.7-5.3 0-10.2-.9-14-4.4a77.6 77.6 0 01-4.9-5.1c-1-.6-2-1.5-3-2.6 0-.4-.7-1-.3-1.4 2.5 1.5 5 3.3 7.6 4.5 2.3 1 5 1.2 7.6 2 4 0 6.7 3 10 5h1c.5-.3.6-.7.6-1.1-1.7-3-3.8-5.8-5.2-9-2.9-.4-6-.3-8.6-1.2-4.8-.9-8.7-4.6-10.8-9-2-5.7-5.3-10.7-9-15.7l.1-.1c1.4 1.2 3.5 1.1 4.8 2.7 1.3 4.3 3.9 8.5 8 11.2.8.5 1.8.8 2.2 2 2.8 2.8 6.2 4.7 10 5.3.6 0 1 1.3 1.5.3-1.4-2.6-4.5-3.3-6.6-4.9 0 0-.2-.3-.4-.2l-6.6-3c-6.6-4.4-7.9-12.3-10-19 .7.7 1.6 1.2 2.3 2.1.3.2-.3.9.3.5 3 2.8 2.4 7.4 5.5 10.4 2 2 4.9 2 7.4 3 1.1 1 2.5 2.1 4 1.6 0-3.4-3.7-5.8-6.1-7.7-2.7-2.2-3.5-6-6-8.7-2-2.6-5.5-4.7-6-8l.9-.8c2 1.3 4 2.8 5.7 4.4 2.6 1.9 6 3 7.4 6 1.3 4.6 4.9 8.4 6.2 13 1.4 1.8 0 3.8.4 5.8.2.5.5 1.7 1.2 1.4-.2-.4-.3-.8-.6-1.1.1-3.3 0-6.3-1.6-9.1-4.5-6.2-2-13.4-3.6-20.5-.2-.3-.2-.4 0-.7 5.1 6 8 13.4 8.6 21.3 1.4 4.8-2.2 9.8 1 14 .4.4.4 1.6 1 1.4-1.6-3.5 1-6.5 1.5-9.7.3-5.5-.4-11.7-3-16.5 0-.6.8-.6 1.3-.5 3.7 2.8 5.6 6.8 6.7 11 .4 1.8 1.2 3.7 1 5.8-1 4.5-3.7 8-5.4 12.3-1.2 3.5 1.7 5.7 2.5 8.5.3.5 0 1 .3 1.4 1-4.4 2.4-9.7 0-14.2.2-1.7 1.8-3.3 2.3-5.1 4 6 3.1 14.7.1 20.6-1 3.4 2.3 5.3 3.7 8h.8a5 5 0 001-3 18.7 18.7 0 01-1-11.3c1-3.4-1-6.4-.2-9.8 1.3 1 1.6 2.6 2.7 3.8 2.6 4.2 2.7 10.5 1.8 15.2-1 2.4-.5 5.4-2.5 7.5-.4 1.7 1.3 3.1 1.9 4.7l.5.2.2 4.7c.1 1.3 2.1 1.1 1.4 2.8.3.5 1.2.9 1.7.5-1.2-1.7-.5-4.7-.7-6.6l-.4-.4c.3 2.3-.4 4.5.6 6.5l-.2.2c-1.1-.6-.4-2.5-2-2.9 0-1.4-.4-3.5-.1-4.8.4-1.1 1.7-1.5 2.6-2 4.6 1.8.5 5.4 1 8.4h.2c.1-.4.4-1 .2-1.2a19 19 0 00.9-12.8c-.1-3.3-4.2-5.4-3-9.1.2-1 .1-2.3.6-3.3l3 2.3c6 4.5 5.5 12.3 5.8 18.7.2 3.5-1.6 6.4-3.1 9.3 0 2.7 1 5.7 3.6 6.7.8-.1-.2-.7.6-1 1-4 1.9-8.8.8-13.2 0-5.6-1.8-11.4-.3-17.3.6-2.8-.8-5.1-.6-7.7.6.3 1.2 1 1.6 1.5a51 51 0 015 27.4c-.1 4.4-2.3 8-4.1 11.8.8 2.2 3 3.9 4 6 .8.9 1.2 2.7 2.8 2.4 1.4-4-1-7.2-1-10.9-1.3-3.5.4-7.8.5-11-.4-3.9.3-9-.6-12 .2-.2.4 0 .6 0 3.2 3.4 3.8 7.8 5.4 11.9-.1 5.3.7 10.7-.8 16-.7 2.8-1.8 5.8-1.8 8.4l6 6.8.4-.2c-.5-5.1-2.4-9.4-2.7-14.5-1.3-5.2 1.6-9.1 1.6-14.2 0-2.3-1.1-4-1.2-6.1 2.7 3.3 5 7 5.9 11.2a41.7 41.7 0 01-.5 20.7c-.7 2.2.6 4.8-.6 6.8.9.7 1.2 1.2 2 2v.6c.2.1.3-.1.4-.2 1.8-4.8 2.2-10 1.3-15.2-.3-1.1-.6-2.8.2-3.8h-.1c-.8-2 0-3.9 0-6.2.9-3 2-6 3.8-8.6l.2.4c-.2 8.2 3.5 16.6 1.5 24-.5 4.4-2.7 8.3-4.6 12.3.5 1.1 1.5 2.1 2.3 3l.1-.1c.8 2 2.5 3.4 3.9 5.1.6 0 .8-.3 1.1-.6.6-3 1.6-5.6 1.3-8.3 0-4.3-3.4-8.2-1.5-12.5-.4-3.7 1-8.1 1-12.2.5.6.8 1.2 1.2 1.9 1.7 4.6 2.4 9.7 3.7 14.5 1.5 7.2 3 14.7-2.8 20.4.3.6.3 1.3.7 1.9.2 1.2 1.4 2.4 2 3.7.4.4.8 1.3 1.4 1.5 0-1-1.2-1.8-1.1-3 .9-1.9.8-4.2 3-5.4.6-.1 1.3-.3 1.8.1a24 24 0 00-.7 7c1.5 2.2-1.9 3.2-1.2 5.2.7-1.9 2.6-3 2-5.3-.7-3.1.9-6.2.3-9.5-3.4-8 5.6-13.4 9.3-19.2 1.4 2.7 1.8 6.5 1 9.5-2 7.3-3.2 15-6.6 21.8-.9 2.1-2.9 3.9-3.2 6.2l4 4.5c.4-.2.7.5 1 0 0-4.5 2-8.6 2.8-12.8.6-6.7.7-14 6.8-18.5.4 1.4.6 3 .3 4.6-1.7 8.4 1.6 17.7-4.4 24.8-1 1.3-1.7 3-3.1 3.8-.5.7.2 1.2.3 2a13 13 0 011.7 3.1c1.8-.3 2.2-2 3.1-3.3 3-5.4 3.9-14.3 11.8-15l.4.3a15.2 15.2 0 00-2.7 11.5 16.5 16.5 0 01-10.1 8c.3.3.2 1 .2 1.5.8 1.2 1.6 2.8 2.7 3.7.9 1.7-1 3.4-.3 5.1-.8-.4-1.4-.8-2.3-.8a12 12 0 00-3.2-4.4c-1.4-1.9-3.6-.6-5.2-.1-4.8 3-9.4 6.6-15 8-3.1.6-6 2.1-9.2 2.1-.4 0-.8-.4-.7-.7 7.3-4.3 13.4-11.6 22-13.3 1.7-.3 3.5 0 4.8-.7-.3-1.1-1.2-1.9-1.5-2.9h-.5v.3c-3.1 1.8-7 1.9-10.6 2.3-3.3 1-7.4-1.3-10.4 1.2-2.5 1-5.5 1.5-8.2.5-1.5-1.2-4.1-2.6-3.8-4.8l2-.3c4 1.4 8.7.5 12-1.7a25 25 0 018.5-2.8c2 .2 3.7-.8 5.9-.4l-2.2-2.5c-1.7.8-3.3 1.6-5.3 1.4-2.5-1.1-5.6.2-8.8-.4-3.5.2-6.5 3.3-10 1.7-3-2-6.3-3.4-9.4-5.1-.9-.6-2-1.5-1.8-2.6 1-1.1 3.1-.4 4.2-.6 5.7-.8 9.9 2.3 15 3.2 2 .3 4.7 1.1 6.7.2l1.5-.3c.8.6 1.7 1.1 2.6 1.5l.3-.5c1.1-.1 2.3 0 3.4-.6v-.2c-1.2-.5-2.5.6-4 .4-3-1-5.4-4.1-6-7.2 1-.5 2.3-.5 3.4-.5 1.5.1 2.4 1 3.3 2.1.4.8 1.4 1.7.7 2.5-.8-.7-2-1-3-1 1.4.6 2.7 1.4 4 2.5 0 0 0-.2.2-.1.2-.3-.2-.8.4-.9-.9-1.4-1.4-3.2-2.9-4.3.2-.2.4 0 .5 0-.2-.5-.2-1.6-1-1.6-.8-1-1.8-1.8-2.7-2.8-.7-.3-1.4-.6-2.1-.2-4.1 3.4-9 7.5-14.7 5.7-4-2.6-8.7-4.1-13.2-5.7-1.2-.3-2.4-.2-3.5-.9-.4-.7-.1-1.5.6-2 4.6-2.1 9.1.1 13.9.2 4.4 1 9.5 1.9 13.6 1 .7-.5 2.2-.4 2-1.4l-2.4 1c-1.6 0-4 .8-5-.2-.6-1-1.3-2.1-1-3.4 1-1.4 2.7-2.3 4.6-1.9 0 .2.3.3.2.5 1.4.4 2.6 1.3 3.7 2.4l.2-.4c-.2-.5-.6-.6-1-1-.8-.5-2-.7-2.4-1.6l-.7-1a3 3 0 00-1.5-.8c-2.6 0-4.5-1-7 0-3.2 2.2-6.8 3.6-10.3 5.3-2.3 0-4.5-.2-6.6.6-3.2-.7-6.3-1.6-8.8-3.5 3-2 6.6-1.4 10.1-1.7 5.2-.7 9.5-3.7 14.3-5.3 1.2-.2 2.6-.2 3.8-.5-.6-1-1.5-2-2.4-3-2-.3-3.2 1.7-5.1 2-2.7 2-5 1.4-8 1.7-.6-.2-1 .5-1.5 0l2.2-1.8c1.2-1.2 2.4-2.3 3.4-3.7l.6-1.1h1.3" fill="#1d5c42"/><path d="M329.6 161.9a9 9 0 012.2-2.5c.9.6 1.5 1.2 2 2l-.4.4c-1 .6-1.9 0-2.8 0h-1" fill="#efe8c7"/><path d="M251.4 193.1c0 1.8.3 3.6-.9 4.9-.7-1-1-2.6-1.1-3.6.2.3.4.8.7 1 1.5-1 .5-3 1.7-4.3.3.8-.3 1.4-.4 2" fill="#9a3b26"/><path d="M435.3 191.1c.3 1 .9 2 .8 3-.8-.3-.9-1.6-1.1-2.5 0-.2 0-.6.3-.5"/><path d="M259.2 194c2.7 7 6.7 13.4 10.5 19.8l.2-.2 3.8 5.4c.3.8-1 1.3-1.4 2a98 98 0 01-15.6-28.2c.9.2 1.7.9 2.5 1.2" fill="#9a3b26"/><path d="M398 196c-1-1-1.8-2.5-1.3-4l.2-.1c.5 1.3 2 2.6 1 4M303.7 194l.7-.5 1.3 1.8c-.6.4-1.8 1.1-1.4 2 .3.6 1.5 1.5.4 2.2a529.5 529.5 0 00-23.6 22.7c-4.8 3.9-9.7 8.3-14.4 12.2-.5-1.7-1.4-3.3-1.5-5.1 2.6-2 4.5-5 7.3-7 8.4-9.7 18.2-19 27.2-28.7l.4-.2c1.3.5 2.2 2 3.6.7" fill="#773141"/><path d="M431.7 192.7c.1.7.3 1.9-.4 2.5l-.2-2.8c.2 0 .4 0 .6.3M428.8 194c-.5.2-.8.7-1.4.6.5-.8 1.4-1 2-1.6.6.3-.3.8-.6 1M247.1 203.1l-.2.2a40 40 0 00-1.5-4.7c-.6.2-.7 1-1 1.5v2.6h-.1c-1.3-2.6 1.7-4.3 1.3-7-1 2.8 1.5 4.7 1.5 7.4"/><path d="M397.8 199.3c-.6 0-1.2-.8-1.5-1.2-.4-.8-.2-1.9.2-2.6 1.2 1 1.7 2.2 1.3 3.8" fill="#773141"/><path d="M431.2 197.6c-.4 1.2.4 3-.4 4l-.2-.2c0-1.2-.3-3 .6-3.8"/><path d="M397.4 201c-.3.4-.3 1-.4 1.4-.1-.7-.3-1.8-.2-2.6.6 0 .4.7.6 1.1" fill="#773141"/><path d="M428.7 201.2h-1.1c.6-.5 1.5-.6 2-1.3.4.6-.4 1-.9 1.3"/><path d="M385.8 210.5c-2 0-4 .1-5.1 1.7-.3-.2-.3-1-.8-1-.6-.8-1-1.8-1.7-2.6.8-.5-.3-.8-.2-1.4 1.8-.5 4-1.4 5.4-2.9 1.4-1 2.7-2.5 3.7-4 0 3.7.7 7-1.3 10.2" fill="#b3995d"/><path d="M246.1 207.4l-.2.1c-.5-.4-.3-1.3-.8-1.6-.5.7-.9 1.6-1.5 2 .8-1.7 2.2-3.2 1.8-5.2l.5-1.2c-.1 1.7-1 4 .2 5.9M430.6 203.2c0 .6.1 1.3-.2 1.8h-.4c.2-.5 0-1.4.6-1.8"/><path d="M370 207c-1.7.4-4-.2-5.5.9-2 0-3.8 1.7-5.9 2.2.6-1 1.4-1.8 1.4-2.8.9-.4 2.2 0 3.2-.3 2.2 0 4.1-.9 6.1-1.6l.8 1.5" fill="#b3995d"/><path d="M412.7 207.9v.1c1 1.6 1.2 3.5.8 5.3 0 .2-.3.4-.6.3-1-2-1-4.9-1-7.3.5.4.8 1 .8 1.6M239.6 208.2l.3 3.7c1.4 0 2.6-1.4 3.5-2.6.3 1.1.9 2.3 0 3.4-.7.9-1.8 1-2.6 1.7-1.1 0-1.6 1.2-2.6 1.6-.3-2.2-.1-5.5.4-7.8.3 0 .7-.5 1 0M296.9 210c1.3.2 2.5-.3 3.3.1v7c-1.7.6-3.9-1.1-5 .6.1 2-.4 5-.8 7.4l-5.1.2.2-10.2-.1-.1 6.8-6.6c.4.5-.4 1.5.7 1.6M434 212.3a10.3 10.3 0 01-2.2-4.4c.8 1.4 3.8 2.6 2.3 4.4M336.4 209.5c.4 2.3 0 4 .2 6.1.1.3.4.2.7.2 1.1-.6 1.3 1 2.3 1.4l1.1.3c0 1.6.3 3-.3 4.3-1.9 0-3.3.3-5 .9-.1 2.6-.1 5.1-.4 7.7-2 .3-3.8 0-5.8-.2-.3-2.6.1-6.1.4-9l-.2-.2-3.5-.1c-.4-2.3-.4-5 .4-7 1.6 0 3 .2 4.4-.2l.3-.2.4-3.7c1.6-1 3.2-.1 5-.3M409.5 208.9c.5 3 2.7 7.5-.5 9.7-.3-2.5-.1-5.3-.8-7.8-.4-.9.5-2.2 1.3-2" fill="#9a3b26"/><path d="M427.3 208.6c-.4 1-.7 2-1.6 2.6.4-1 1-2 1.6-2.6"/><path d="M248.6 218.8c-1.3 1.5.1 3.9-1.1 5.3.2.2-.3.5-.3.8l-.2.2c-.1-.8-1.6-.7-1.1-1.8-1.8-1.7-.6-3.8-.8-6l-.3-.3c-.6 1 0 2.5-.9 3.4.2 1.3-.9 2.3-1 3.6 1 .1.7-1.5 1.4-2.2l1.1 2.6c-.5 1-.4 2-.8 3l-.9-.7c-1 .7-.5 2-.6 2.9-1 1-1 3.4-3.2 2.7-.3.1-.6.1-.8.4.1 1 1 .1 1.5.3.7.1 1.3-.3 1.8-.6 0-.4.7-1.1 1-1.7.4.8.6 2 1.6 2.3-.3 2 0 3.9-.4 5.9.3 1.6-2.5 2.5-2.2 4.4-.5.2 0 .8-.5 1a18 18 0 01-1-5c1.4-1.3 2.8-3.3 2-5.4-1 .4-1.1 1.7-2.3 1.8-.2-.4-.4-1-1-1-.5.2-.2.8-.5 1.2-.5-1-.2-2.6.2-3.6 1.7-.8 1.4-3 2.5-4.3 0-1.1.9-2.4-.2-2.9-.4-2-.8-3.9-1.8-5.7-.7 0-.9.5-1.3 1 .2-1-.8-3 .3-4l1.7-1.6.2.3c1.1-.6 2.4-1.2 3.2-2.2.5 1 .8 2.2 1 3.4.2.2.7 0 .7-.3-.1-1.3-.8-2.6-1-4 .7-.2.8-1 1-1.5 1 2.9 1.1 5.6 3 8.3" fill="#efe8c7"/><path d="M249 216.8v1.2c-1.3-2.2-1.8-4.7-2.4-7.2.5.4 1 1.4 1.6.7l.5-.5v.2l.4-.6c-.4 1.9-1.1 4-.2 6.2" fill="#9a3b26"/><path d="M244.9 210.8c0 .2-.1.4-.3.5v-.5h.3" fill="#efe8c7"/><path d="M427.8 211a10 10 0 01-1.5 2.5c-.2-1 .9-1.9 1.5-2.5"/><path d="M374.6 213.2c-1 0-1.8-.2-2.9.4a2 2 0 00-1.1.2l-.4 4.5c-2 .1-4 0-5.6 1v1.3c-3 .5-5.4-.8-8.3-.6.6-.5 1.6-.5 2.3-1.2 2.6-1.2 5-2.6 7.3-4.2 1-.4 1.7-1.5 2.9-1.7 1.4-.9 2.5-1.6 4.2-1.2l1.6 1.5" fill="#b3995d"/><path d="M376.3 215.5c-1 .9-3.2 1.8-2.4 3.5 0 .3.5.6.5 1-2.8 0-6.1 2-9.1.6-.2-.7 0-1.5 1-1.5 1.4 0 3-.4 4.3-.1.9-1.8.4-2.8.7-4.6 1.5 0 4.7-1.9 5 1.1" fill="#9a3b26"/><path d="M383.2 219.7h-.3c-.1-1.1.1-3 .7-3.8-.1 1-.1 2.7-.4 3.8M425.3 217c-1 .2-2 1.1-2.9.5 0-.3.3-.1.5-.1v.1c.7 0 1.5-.7 2.4-.6"/><path d="M239.4 220.4c.4 1.8 1.2 3.3 1.5 5.1 1 .5.2 1.9.1 2.8-.6.3-1.3 1-2 .6 0-2.5.1-5-.6-7.3.2-.6.5-.9 1-1.2" fill="#9a3b26"/><path d="M260.9 222.5l2.8 6c-1.7 1.2-3.5 2.3-4.8 3.8 0 .3-.5.6-.1.9l-.4.1c-2-2.2-6.9-4-5.8-7.5 1-2.4 3.3-4.6 5.7-5 1.2-.2 1.9 1 2.6 1.7" fill="#773141"/><path d="M381.6 221c-.6.2-1.6-.6-2.4-.5v-.4c.8.3 1.9.2 2.4.9"/><path d="M246.8 225.8c-.2 2-.8 4.5-1.6 6.6h-.2a7.6 7.6 0 01-1.1-4.4c.7.4 1.4-.1 1.5-.8l.5-2.2c.4 0 .6.6 1 .8" fill="#9a3b26"/><path d="M278.1 228.4c-.2.5-.2 1-.6 1.5 0 .6-.5 1.2-.4 1.8.3 1-1 2-.5 3 .7 3.1 5.2 5.5 3.3 9 0 .7-.2 2.1.3 3-.5.7-1 .1-1.5.2-1.9 1.5-1.2 3.3-.7 5.2.4 3.9-3.3 6.4-1.6 10.2-1 2.2 0 4.2 0 6.5-.4.8-1.5.9-1.6 1.8 1.1 2.8-1.4 5.3-.8 8.2-2.3 1.8 1 4.4-1.4 6.2 0 1 .2 2.1 0 3-.7-.5-.6-2.7-2-2 .1 1 .2 1.8.1 2.7-.3.2-.9-.6-1.2 0-.2 2.1 1 3.7 2 5.4l.5-.3c.1 1 .4 2.1-.2 3.1l-.7.7.1.1c-.6.3-.6-1-1.4-1-.7 0-.5.3-.9.8-.3.7.1 1.8.2 2.5-.3-.2-.7 0-1 .3-1.5-1.5 1.2-3.4-.6-4.6-.3-.1-.5.3-.9.1-.5-.8.1-1.7-1-2.3 1.8-.2 2.4-2 2.7-3.4-.1-.8.2-1.7-.2-2.4 1-.7 1.5-2 2-3 0-.3-.2-.7-.5-.7l-1.9 3.4c-.6.2-.8.9-1.2 1.3-.2-1.1-1.1-1.9-1.4-3 1.3-.4 2-2.1 3-2.6 1.4-1.2 1.4-3 1.3-4.7-1-1.4-2 .7-3.1.8 0-1 2-3 .4-3.8-.8 0-1 .8-1.7 1.2 0-1-.4-1.8-.8-2.7h-.4c.5-1.2.4-2.6 1.9-3.2 0-.6 1-1 .6-1.6-.8-.2-.8 1-1.4 1.5l-1 .8c-.3-1.5-.3-3 0-4.6 0-2-.3-4.2.4-6.5.4-1.1 2-.7 2.2-2 0-.6.3-1.5 0-2-.6.1-1.3.8-2 .6-.7-2.6 1.1-5 .1-7.1 1.7-1.3 2-3 2.3-4.9.4 0 .6 1.3 1.1.6 0-.7-.7-1.2-1.4-1.4-.5 0-1-.3-1.2-.8.1-1.3 0-3 1.2-3.6.9.2 2 0 2.5-.7-.5-1-1-2.2-.4-3.3 1.6 1 3.2-.2 4.6-.6 2.5-2 2.8-5.2 3.7-8 .4.3 1 .7 1.1 1.2" fill="#efe8c7"/><path d="M381 226.6c1 1 1.6 2.4 2.2 3.6-1.3-.5-2.7-.8-3.8-1.8-.9-.2-1.7-.6-2.6-.7 1.3 0 3-1.2 4.3-1.1" fill="#b3995d"/><path d="M374.7 227.7c-.7.2-1.3.4-2 .2.5-.4 1.3 0 2-.2M371.5 227.8c-.3.4-.9 0-1.4.2.3-.4 1-.1 1.4-.2" fill="#9a3b26"/><path d="M410.6 234.8l.2.1c-.7.2-2 .2-2.6 1-.1 2.3 2 3.1 3.2 4.8.3.5 1.1 1.2.6 2-.5.6-.9 1.3-.7 1.9 1.4.8.7 2 .4 3.2-.4 2-3.7-.5-2.7 2 .5 1.1 2.4 1.5 1.9 2.9-.5.7-.5 2-1.4 2.2-.7-.7-1.4-1-2.2-1.2-.6.6 0 1.4.5 2 1 1.9 1.8 4.1 1.6 6-.4.2-.9.2-1.3.6l-9.7-16.3-.3-1.2c2.4-4.1 6-7.5 8-11.9-.1 2.5-1.1 5.4-2.2 7.8.1.2.3.3.6.3 1.4-2.7 2-6 2.2-8.8h-.4c.5-.9 1-2.7 1.4-4.1.5 2.8 5.1 3.4 3 6.7" fill="#efe8c7"/><path d="M265.2 232.1c.5 1.2 1 2.6 1 3.7.4.2.4 1 .5 1.7-.6-.2-1.5 0-1.7-.8-2-.5-4.1-1.8-5.6-3.2.5-2.2 3-3 4.6-4.4.8.7.9 2 1.2 3" fill="#773141"/><path d="M289.5 231c.3 1-.5 1.2-1.2 1.6-2.6.5-6.3 1-8.2-1.3-.1-.5.1-.9.3-1.1 2.8-.1 6.2-.8 8.9.2l.2.5M288.3 233.4c.4.5 1 .5 1 1-.6.4-1.4.4-2.2.4-.3-.6-1-.6-1.5-1l2.9-.8c-.2 0-.1.3-.2.4M294 235c.2.8-.4 1.6-1.2 2.1-1.7.7-3.7.8-5.6 0-.5-.4-1-.9-1-1.5 2.8.5 4.8-1.5 7.4-1.2l.5.5" fill="#9a3b26"/><path d="M263.7 237.3c-7.8 7.2-14.8 15.3-23.7 21.3-.4-.2-.3-1-.3-1.5l1-1.9c5.3-5.9 10.7-11 16-16.5 1.1-1.2 2-2.6 2.7-4 1.4 1 3 1.6 4.3 2.6" fill="#773141"/><path d="M239.4 239.4c-.9-.2-.5-1.7-.4-2.2.5-.2.3-1 .6-1.3.2.3.8.8 1.4.6l1.2-1c-.1 1.5-1.2 3.4-2.8 3.9M426.3 238c-.6-1.2-1.6-2-2.9-1.7-1.5.4-3 1.3-4.4 2-.1-.5-.5-1-.5-1.6.7-.1 1-1.1 1.5-1.4 1.6 1.3 3 .3 4.7 0 .4.3.8.6 1.4.5.4-.4.8-.6 1.1-1.1 0 1 .1 2.6-.9 3.3M303.2 242.5a68.6 68.6 0 0019.7 7.3c-.7 1-1.8 1-2.4 2 0-.2-.2-.7-.5-.7-4.3-1-9-1.1-12.4-3.8l.1-.1c-1.5-.6-3-1-4.4-1.8-4-1.8-7.6-5.2-11.6-7.3.8-.3 1.6-.5 2.2-1.2 2.8 2.5 6.2 3.7 9.3 5.6" fill="#9a3b26"/><path d="M243.6 239.1c-.2.2-.4.3-.6.2l-.5-1.2c.7-.4.7.7 1 1"/><path d="M426.2 238.7c.4.7.1 1.6 0 2.3-1 .6-2 1.2-2.3 2.3-.3-.6-.9-.9-1.5-.9v.2c-.1-.1 1-2.7-1.1-2-.1-.4-.2-.7-.6-1-.6-.1-.8.3-1.3.3 0-.1 0-.6-.2-.9 1.8-.9 3.3-2 5.3-1.9.7.4 1 1.3 1.7 1.6" fill="#efe8c7"/><path d="M241.6 245.2l-.3 1c-1.5-1.3-1.4-3.4-1.8-5.2 0-.4.1-1 .6-1.1.2 1.9.6 3.6 1.5 5.3" fill="#9a3b26"/><path d="M406 239.4c-.2 1.7-.7 3.3-1.3 4.9h-.3c.6-1.6.5-3.5 1.3-5h.4M271.9 242.7c0 2.7-.5 4.5-.8 7.1-.4.5-.6 1.1-1.2 1.4a2 2 0 01-1 0c.3-.6 1.5-.8 1.6-1.8.2-.8.4-1.6.3-2.4l-.8.6-.4-.5c1.5-.9 1.7-2.5 1.6-4-.5-.1-.8.6-1.1-.2 0-.6.8-.3 1.1-.5l1.5-1.3c.4.8-.5 1-.8 1.6"/><path d="M421.9 241.3c0 1.7-2 1.7-2.8 2.9l.2.1-.4.2c.3-.8.4-2.3 0-3.2-.1-1 1.1-.3 1.6-.8 0 .6.8 1.3 1.4.8" fill="#9a3b26"/><path d="M274.5 243.8c0 .8.8 1.4.2 2.1l-.4-.6c-.6.4-.1 2-1 2.1l-.1-.4c.1-1.9.7-3.5 1.1-5.2.7.5 0 1.3.2 2"/><path d="M421.2 247.7c-.5-1.2.2-2.6-1-3.5l1.6-1.2c-1 1.8 3 3.6-.6 4.7" fill="#efe8c7"/><path d="M423.7 244l.7-.2a5 5 0 01-1 2c0-.9-1.3-1.5-.7-2.7.5.2.5.8 1 1" fill="#9a3b26"/><path d="M407.2 243.4c-.4 3.4.2 7.7-.8 11h-.5c1-3.3.4-7.1.9-10.8.1-.2.3-.3.4-.2"/><path d="M419.9 245c.7 1-.2 3 1.3 3.4.3-.2.8-.4 1-1h.4c-.3 1.7-1.8 3-2.5 4.5-.3-2.3-2.3-4.5-1.4-6.9.3.5.8 0 1.2 0M330 246.4c-1.5 1.8-3.4 3.5-5 5.5-1 .4-1.9 1.3-3 .8l-.6-.6c2.2-1.5 4.8-3.8 6.8-5.6.2-.1.9-.2.6-.6.4.1.8.1 1.1.5" fill="#9a3b26"/><path d="M305.5 247.8c-.6 1 0 2.2-.9 3.2 0 2 .6 4 .9 5.7.3.2.2.6.6.6.3-.7-.3-1.5-.4-2.2l-.4-1.8c.9 1.2 2.4 1 3.8 1.2.6 1.9 0 3.8-.3 5.5-.1 1.6 1.7 2.9 1 4.7.3 2.2-1.3 4-1 6.3 0 1.2 1.6 2.5.2 3.6H308c-.5.8.2 1.4.3 2-1.4-1.3-1-3.7-2.6-5-.9-3.1-.4-6.1-.6-9.2l-.2-.2-.2.4c0 2.2-.5 5.8.4 8.2 0 1.1-.8 2-.7 3.3.2 3-.8 5.1-.4 8.4.3.7 1.2.1 1.6.3.4 2.4 3.6.8 3.3 3.3.4 2.3 0 4.4-.2 6-.4-1.6-.6-3.7-2-4.7a2 2 0 00-.3 1.5l-.1 5.5c-.2-1-.5-2.3-1-2.8-.5 0-.9.4-.9.7-.7 4.2 3.4 8 2.1 12-.2 2.5-.6 5-2.2 7v1c0-.4-.4-1.2-1-1.4-.4.7-.2 1.6-.5 2.3-.6 1-.5 2.3-1.4 3.2-.3-2-.4-4.4-1.2-6.6-.3-.2-.6-.5-1-.2l-.4.4c-.7-2-1.3-5.5-.4-7.6.5-.5.3-1.4.6-2 2.3-2.2 3.6-4.7 4.4-7.7l-.4-.3c-.9.8-2.2 1-2.8 2.1a5.7 5.7 0 00-3-4c0-1.5.5-2.4 1-4 1.9-.8 4.1-2.2 5-4.2l-.3-.4c-1.6.7-3.3 1.7-5.2 1.3.3-1.3.7-1.6 2.2-1.9.6-.3 1.6-.4 2-1.3 0-.7.4-2-.3-2.4-1.4.8-2.6.5-4.2.7l-.2-.2.8-1.8c-2.2-1.4-1-3.8-1.5-6 .4-.1 0-.6.4-.6-.5-.7-1-.7-1.4-1.4.2-1.2 1.4-3-.6-3.8-.2-1.7.4-2.8.4-4.5-.4-.7-1.2-.6-1.5-1.3l.2-2.1a9 9 0 007.4-4.7c.6-1.6 2-3.2 1.3-5.1.4 0 .3-.5.6-.6.7.8 2.3.7 2.3 1.6" fill="#efe8c7"/><path d="M335.7 247c-.5 3.2-3.5 5.8-6.4 6.7-.4 0-1 0-1-.5 1.8-1 3.5-1.9 4.7-3.6.7-1 1.3-2.3 2.4-2.8l.3.2" fill="#9a3b26"/><path d="M301.9 247.5c.7 1.5-1.3 1-1.9 1.8-1 .1-1.9 0-2.6-.6-.3-.4-.4-.9-.4-1.3 1.8-.3 3.5 2.1 4.9.1" fill="#efe8c7"/><path d="M404.5 247.1c0 1.9-.3 3.9-.9 5.7h-.2c-.4-.6 0-1.6.2-2.3l.7-3.3h.2"/><path d="M363 294.8c.4.4.9.7 1 1 .4.5 1 .5 1.4.2.5-.4.8-.7 1.5-.6-.1 2.7-3.6 4.5-2.6 7.3.3.3 1 .8 1.5.4l1.6-1.7c0 2.9-2 5-4 7-1-4.5 1.2-8.8-1.2-13.1l.1-1 .8.5" fill="#9a3b26"/><path d="M362.5 293.6l.4-.6h-.2c.7-3.2 4.5-4.2 3.4-7.8-.4-.4-1.4-.2-2-.5.4-1 1-1.8 1.2-2.7-.5-.9-1.5.1-2.2.2-.6.5-1 1.3-1.4 1.9-.4-2.9-1.5-6.4.8-8.6-.7-.9-2.8.5-2.3-1.6 0-1 .3-1.9 1.1-2.3 1-.8-.2-1.6-.3-2.4-.6-2-.9-3.8-.7-6.2 1 0 1.9-.7 2.4-1.5-.8-.4-2.1-.6-1.8-1.9v-.4c1.3-.1 2.2-1 3.5-1 0-.1.3-.3.3-.5-.4-.4-1.7-.4-1-1.4l1.3-3c1 .6 1.3 2.4 2.8 2.2l.4-.3c.6 1.7.4 3.7.6 5.6l.5.2c.6-.4 0-1.2.1-1.8.2-2-1.1-3.9-.2-5.5.2-1.5.6-3 .6-4.5l.4-.4c0 3.5 1.6 7 .2 10.6.2 1.7 2 2.7 1.6 4.5.3.2.7-.1.7-.4 1.2-2.1-3.1-3.3-.9-5.5 0-2-.3-4-.5-5.7 1.8 2 1.3 5 3.7 6.8.1.5.7.7.7 1.3-1.2 2.1 1.6 3.4 2 5.3-.5.9-1.8 0-2 1.1-.2 1.1 1.2 2.2 0 3.1-.6.3-1.4.4-2 .4-.4.4-1.2-.1-1.6.6.4 2 1.4 3.8 2.3 5.5-.3 1.1-.6 1.9 0 3-.2-.2-.5 0-.5.3l-.1.6c-.2-.3-.6-.8-1-.5-.3.3 0 .3-.1.7-.4-.4-.7-1.1-1.4-1l-.3.3c.5 2.1 1.7 4 3 5.7.3.2.4 0 .6 0 1 2-1.2 4-1.1 6.4-.7.7-.8 1.3-.6 2.3 0 1.5.4 3.8-.4 5.3-.5-1.8-1.6-3.3-2.2-5-.2-.1-.3-.3-.5-.3-.4 1-.3 2.3-.1 3.3.5 1.9 1.2 3.7 2 5.3.3.1.3-.1.5-.2v2c-1.2-1-1.1-2.6-2-3.7-.4-.1-.5.1-.8.3-.2 2.6 1.4 5.1.3 7.5-.7 1.1-2.2 1-3 2-.7-.6-.6-2.3-1.8-1.7v.2c-.2-.3.1-.4 0-.7l-.2-.2c.9-1.2 2-1.8 2.1-3.2 1.1-1.1 1.2-3 1.5-4.4-.1-.3 0-.8-.6-.7l-2.3 2.5c-.7-.3-.4-1.4-.3-2 .4-2.2 3.2-3.3 2.2-5.7-1-.4-1.8.4-2.5.9-.5-.4-.8-1-1.2-1.4l-1-.7" fill="#efe8c7"/><path d="M273.2 253.7c0 .2-.3.3-.5.3-.7-1-.4-2.5-.3-3.6l.4-.4c.6 1-.4 2.6.4 3.7"/><path d="M330.3 251c-1.3.6-2.7 2-4.2 1l1.3-1.6c1 .2 1.8.5 2.9.5" fill="#9a3b26"/><path d="M303 253.2a13 13 0 00.3 5.2c-.7 0-1.5.7-2 1.2-.2-.8 1-1.2 1.5-1.7l-.3-3.7c-.5.2-.5.5-.9 1 0-.7.8-1.5 1.3-2M271 254l-.5 3c-1.2-.4 0-2.1 0-3.3.3 0 .4.2.6.3M404.9 255c0 .1-.1.2-.3.2-.4-.7 0-1.6.2-2.2.7.3 0 1.5.1 2"/><path d="M393.7 293.9c1 2.1 0 4.8-1.1 6.7-.5.6.2.7.6 1 2.3-.2 2.1-3 3.8-4 1-.1 1.4.6 2 1 1.3-1.7-1-3-1-4.7-.1 0-.2.2-.3.1-.4.4-.9 1.4-1.8 1.2l-1.7-1.1-.5-.2" fill="#9a3b26"/><path d="M393.6 293.1c0-.1 0-.3-.2-.4 2.8-.3 3-3.7 4.6-5.5 0-.5.4-1 0-1.5-.2-.4-.7-.2-1-.1-.4.2-.6 1.1-1.2.8l-1.3-1.1c.4-.3.3-.8.4-1.2 2.7-.4 3.9-3.2 4.7-5.3-1-1-2 1.4-2.6-.3-.3-.7-.3-1.4-.9-2-1.1-.4-2.4 1.7-2.8-.2 3.1-1.2 6-3 8.3-6 0-.5.4-1 0-1.6-1.1-1.4-2.3 1.2-3.5 1.7-1.4.5-2.4 1.7-3.7 2.3.2-1.7-.3-3.5 1.7-4.6a.7.7 0 00-.6-.8h-.6c.3-1.5 0-3.3 1.3-4.4.1-1.2-1.9-.7-1.3-2 .3-1.7.8-3.4.5-5 3.1 4.7 5.8 9.4 8.9 14-.1.3-1.2-1-1.5 0-.2 1.6.7 3.2 1.5 4.5-.6-.3-1.1-1.1-1.9-1.2-1.7 1-.2 2.6 0 3.9.7.6 1 1.6 1.8 1.9 0 .8.3 1.7-.2 2.3-1-1.4-1.4-3.5-3.1-4.2-.4 1.2 0 2.9.2 4.2.4 1.4.9 2.8 1.8 4-.7 1.4-.5 3.1-.2 4.7-1.5-1.5-2-3.5-3-5.3-.2 0-.3.2-.5.3l.2.4-.6.3c-1 2.6 0 5.4 2.2 7.2 0 1-.4 2.5-1 3.7-1-1-.9-2.6-1.9-3.6-1 .1-1.1 1.3-2 1.5-.5-.3-1-.6-1.5-1.1l-1-.3" fill="#efe8c7"/><path d="M271.7 257.2c0 1.8.3 4 0 5.6-.2.2-.4.1-.5-.2v-5.3c.2 0 .2-.2.5-.1M304.8 260.5l-.1.1c-.5-.7-.6-2-.5-2.8.4.7.2 1.8.6 2.7M374.9 261.5l-.2.5c-1-.5-1.3-1.7-1.6-2.7l.2-.5c.7.8.7 2 1.6 2.7M333.2 262.8l-.3.4c.8.6 0 1.5.2 2.2-.9 2.3 0 5-.7 7.5h-.5c.5-2.7-.1-6 .9-8.8l-.2-.6-.5.7c-.2-.2-.5-.2-.4-.7l1-1.1c.4 0 .3.4.5.4M303.2 264.7c.2 2 0 4.6-1 6.3h-.3c-.2-.6.5-.9.7-1.4 0-2 .8-4 .1-5.9.3.2.3.7.5 1M368.7 264.9c-.3 3 .3 6 .5 9h-.6c0-2.8-1.1-6.3 0-9h.1M271.7 265.6c-.5 1.7-.2 3.6-1 5.3.1.4.3 1.1-.5 1.2h-.1c.6-2 .4-4.5 1.4-6.5h.2M370.4 268.2c-.5 2.7.5 4.9.4 7.5h-.3l-.2-.1c-.3-2.5-1-5.2-.4-7.7 0-.3.4-.5.7-.5.3.3-.3.5-.2.8"/><path d="M401 270a14.8 14.8 0 01-7.7 5.6c.3-3 3.6-3.8 5.6-5.2l2-1.7c.5.3 0 1 0 1.3" fill="#9a3b26"/><path d="M269.5 270.2c.3 1.3-.6 2.5-1.3 3.2-.1-.5.6-1.4.7-2.2 0-.4 0-1 .6-1M302.9 271.3c-.1.8-.6 1.5-.9 2-.3-.7.5-1.2.6-2h.3M303 272.2c0 1 .1 2.3-.4 3.1l.3-3.1h.1"/><path d="M305.4 272.3c1 1.7.8 4.1 3 5 .3 2-.2 3.4-.7 5.1-.5 0-.6.6-.3 1l.2.2c-1.2.3-1.3-2.1-3-1.4-.1-3.6.6-6.4.6-10h.2" fill="#9a3b26"/><path d="M335.4 273c-.2 1.6-.5 3.6.8 5 .2 0 0 .3-.2.4-.6-.3-.9-1-1.2-1.7-.2-1.4-.3-3 .4-4l.2.2M328.6 273.2l-2 1.4c-.3-.5.4-.7.6-1 .4-.3 1-.5 1.4-.4"/><path d="M264.8 277.4c.7-.1 1.3-.5 1.7-1-.2 1.2-1.6 2.6-.5 3.6 1-.1 1.7-.5 2.4-1.2.1 1 0 2.3-.3 3.3-1.4 1-2 2.8-3.7 3.3-.1-3.8.3-7-.8-10.7.6.8.3 2 1.2 2.7M404.7 276.7c-.3.5-.4 1-.4 1.6-.9-1.2-2.1-2.6-1.8-4.3 1 .6 2.1 1.7 2.2 2.7" fill="#9a3b26"/><path d="M339.6 276.3l-.2.4c-.6-.2-.8-.5-1.3-1l.1-.3c.6.2 1 .6 1.4 1M368.5 278h.6c-.6 3 .5 6.6-1.8 8.6h-.3c1.5-2.6 1.4-5.6 1.5-8.4-.4.7-.4 2-1.4 2-.1-.5.5-1 .6-1.6.5-1.2.2-2.4 1-3.3l-.2 2.7"/><path d="M396.6 279c.3 1 1.4.5 2 .4-.7 1.8-2 3.6-4 4.2-.7-1.4-2-2.8-1-4.4.2-.5.4-1.2.3-1.6.6 0 1.1-.4 1.7-.6l1 2" fill="#9a3b26"/><path d="M370.4 280.3v.6c-.8-.5-.5-1.6-.7-2.5v-.5c.5.6.7 1.6.7 2.4"/><path d="M299.5 280.6c-.6.4-1.4.2-2 .6-.7-.4.2-1.5-.3-2.2 1.3 0 2.8.1 4-.6.9 1.4-.8 1.8-1.7 2.2" fill="#9a3b26"/><path d="M333.5 282.3a8 8 0 01-1.6 4h-.4c0-.8.7-1.3 1-2 .5-1.9.7-4.2.6-6 1 1 0 2.8.4 4"/><path d="M403.8 282.1l-.6 2.3c-1.2-1.8-1.6-4-1.7-6.2.8 1.4 1.3 2.8 2.3 3.9M375 282c.5 1-.7 2.1-.3 3.1-.8-1.3-2-2.5-2.4-4 .4 0 .7.6 1 .4.1-.2.3-.3.3-.5.3.4.5-.1.8-.1.3.4.1 1 .6 1" fill="#9a3b26"/><path d="M418 281.6c.2.4.3 1 .7 1.3 1-.8.9.9 1.6 1 1.3 2 2.2 4 2.8 6.2-3-1.7-6.4-3.4-8.2-6.4-.3-.7.3-1.5 1-1.8.7-.1 1.3-.7 2-.3" fill="#1d5c42"/><path d="M364.1 282.7c0 1-1.6 2-.4 2.8l1.7.2c.6 2-1 3.4-2.4 4.4-.3 0-.7.6-.8 0 .2-2-.5-3.7-.4-5.7 1.1.1 1.1-1.7 2.3-1.7M301.7 283.2c-.8 1.1-2.2 1.7-3.2 2.4-.3-.2-.9-.2-1.1-.7v-.8c1.3 0 3.1-.1 4.3-.9" fill="#9a3b26"/><path d="M369.4 284.3c0 1 .8 2.5-.1 3.2-.4-1.1-.3-2-.2-3.2h.3"/><path d="M402.5 291c0 .5-.2 1-.5 1.3-.9-.2-1.5-1-1.9-1.7-1-1.8-.7-2.9-.6-4.9.3 2 2 3.6 3 5.3" fill="#9a3b26"/><path d="M303 286.4c-.4 2 .3 3.5-.1 5.4h-.2c0-1-.1-1.5-.3-2.4-.3.3-.1 1-.7 1 .5-1.3.8-2.6 1-4h.3"/><path d="M396.5 287l.8-.8v.7c-1.2 1.6-1.8 3.7-3.3 5.1h-.3c2-1.8-.7-4 .6-6 .8.2 1.2 1.6 2.2 1M266.8 289.4l.6-.6c.1 1.2 0 3-1.2 3.8-.3-.1-.6.3-.9.4.4-1.7-.2-3.8-.3-5.7.8.6.1 3.3 1.8 2.1M338.4 291.1c0 2.3 0 4.7-.8 6.6-.5-1.7-1.5-3-2-4.6.9.1 1.2.2 1.6-.4 0-1.8-.8-3.6-.7-5.5.6 1.3 1 2.7 1.9 4M272.3 290.1c-1 1.1 0 2.2-.3 3.4-.7-1.3-1.4-2.5-1.6-4 .3 0 .5.3.8 0 .4-.4.4-1 .4-1.5.5.6.9 1.4.7 2.1" fill="#9a3b26"/><path d="M332.7 287.8c0 .6-.2 1.4-.5 2-.5-.5 0-1.4.1-2h.4"/><path d="M307.2 295.6l-.2 4.2h-.1c-.7-2.4-2.4-4.8-1.9-7 .7.7-.1 2.2 1.2 2.7 1-.6.6-1.6.8-2.5l-.1-4c.6 2 2 4.7.3 6.6" fill="#9a3b26"/><path d="M269.2 291.1c.2.8 1 1.9.6 2.5-.7.2-.4-1.5-1.1-.9.3.3-.1.4-.2.7h-.3c0-1 .2-2.5.7-3.4.5.2.3.5.3 1.1M368.8 290.8c-.2 2.2.5 4 0 6-.3 0-.4-.1-.6-.3.3-2 0-3.7.3-5.7h.3"/><path d="M299.6 295.2l.4.3c.8-.6 1.5-1.5 2.3-1.9-.7 2.2-1.8 4.4-3.5 6l-1-.2c.5-2.8.5-5.3-.4-8 1 1 2.2 2.3 2.2 3.8" fill="#9a3b26"/><path d="M332.7 293.6l-.3.1c-.4-.4-.3-1.1-.2-1.6.7.2.2 1 .5 1.5"/><path d="M266.3 296.5h1c-.5 1.6-.5 3.4.5 4.7l.6-.1c-.7 1.1-.6 2.2-.6 3.5 2.1.4.3 2.8.8 4.1-1.7-1.7-.6-4.5-2.2-6.4-.5-1.5 1.2-3.7-.7-5 0-.7-.5-1.1 0-1.8.1.3.2.7.6 1M372.2 302.1c-.6-1.9-1.6-3.6-1.9-5.7.8 1.8 1.8 3.7 2 5.7M270.8 304c-.2-.9-.4-2.3-.8-3.4 0-.9-.7-2-.3-3 1.7 1.5 1.9 4.4 1.1 6.4" fill="#9a3b26"/><path d="M332.7 300.6c.4 1.9-1.2 3.5-1.8 4.6h-.5c.3-1 1.2-1.6 1.6-2.3.4-1.5.2-3.4 0-4.7.8.3.5 1.5.7 2.4"/><path d="M398.2 303c-.2 2.4-3.4 3.5-2.7 6l-2-.2c-1.1-1.5-.2-3.7-.6-5.4l-.6-1.5c1 .9 1.8-.3 2.7-.3 1.8-.5 1.4-5.3 3.8-2.4l-.6 3.9" fill="#efe8c7"/><path d="M301.6 304.4c-.5-.6.5-1 .6-1.6.1-.8.1-1.6.4-2.3.4 1.3 0 2.9-1 3.9"/><path d="M270.3 305.2l-.7 1c-.3-.6.5-1.8-.7-2l-.2.1c-.2-.4-.2-1.2 0-1.7 0-.8.4-1 .6-1.8.6 1.4.2 3 1 4.4" fill="#efe8c7"/><path d="M330.1 302.3c-1.5 1.4-2.5 3.4-4.6 4-.6-1.2 0-2.5 0-3.8l.6-1c1.3 1 2.6.3 4 .8M371.7 305h.3c-.6 2.7-1 5.1-1.8 7.8.2-1.2-1.6-3.2.3-3.9.7-2 .2-3.5 0-5.5.3.6.5 1.6 1.2 1.6M328.5 311.2c-1 .3-1.9.9-2.7 1.2-1-1-.1-2.4 0-3.7.4.2.6.8 1.3 1 1 0 2-.8 3-1l.2-.2c0 .9-.7 2.2-1.8 2.7M395 309.4v.1l.5.1c.1 1-.3 2-1 2.5-1.3.4-.7-1-1.2-1.5l.2-1.3c.6.1 1 .4 1.6.1M299.6 310c.9 2.6 0 5 1.7 7.1.5.3.7-.4 1-.7.5-1.3 1-2.6 1.2-3.9.5 2.3-.8 4.4-1 6.6-.4.7-.6 1.7-1.5 2-2.3-3-1.7-6.7-2.3-10.4.4 0 .4-.7.9-.7M365.8 310.9c.2.2.5.3.6.2l-.1.1c.9.6 1.3-.8 2-.8.2 2.4-1.3 4.3-2.8 6.2h-.6c-.3-2-.3-4.5-.3-6.5l.7-.4.5 1.2" fill="#9a3b26"/><path d="M370 313.7c.2 2.2-.2 4.7-1.2 6.7-1-.4-1.7.8-2.7.8-.3-.8.2-2-.9-2.3.1-1.4 1.1-2.1 2-3.2a7 7 0 001.7-4.4c.5.6.4 1.8 1.1 2.4" fill="#efe8c7"/><path d="M327 319c.3 2 1.2 4 .7 6-1 .2-1.1-.6-1.2-1.5-.5-1.7-1.5-3.3-1-5.4.7-.3 1 .6 1.4.8M366.1 322.1c.3-.4.6-.3.8-.5.6.4.7-.6 1.3-.6-1.7 2-.1 5.8-3 6.6-.2-2.5-.4-5.5 0-8 .5.7-.6 2.3 1 2.5M332.4 323l.4-.5c-2 3-1 7-2.6 10.2-.4 2-1.4 3.7-2.1 5.6-.3-.8-.3-2.2-.6-3.1-.4-2.3-1.6-4.6-1.2-7.2.3-.3.6-.5.7-.8.3.3.3 1 .5 1.5-.2 1.4.1 2.7.7 3.7.5-.2 1-.7 1.2-1.3 1-2.7 2.2-6.2.6-9.1v-1.2c1 .6 1.1 2.3 2.4 2.1M292.5 80c-.4.5-1.1.7-1.6 1.3v2.5h1c.3-.5.9-.7 1.3-1.2v-2.8l-.7.3.3-.4" fill="#9a3b26"/><path d="M196 353.9c2.6 0 4.7 0 6.2.3 1.5.2 2.8.5 4 1 3.6 1.6 5.8 4.4 6.7 8.5.3 1.7.5 5 .5 10 0 4.3-.1 7.2-.4 8.8-.8 4.4-2.9 7.4-6.3 9-1.3.6-3 1-4.8 1.4a53.3 53.3 0 01-14.4 0c-1.7-.4-3.2-1-4.4-1.7-3-1.8-4.8-4.5-5.4-8-.3-1.6-.5-4-.5-7.6 0-6.5.4-11 1-13.4 1-3.4 3.5-5.8 7.5-7.3 2-.7 5.4-1 10.2-1m-.3 8.9c-2.4 0-4 .2-5 .5-1.1.5-1.9 1.4-2.2 2.7-.3 1.3-.5 4-.5 8.2 0 4 .3 6.5.7 7.8.4.9 1 1.5 2 1.9 1 .3 2.6.4 4.9.4 2.1 0 3.6-.1 4.5-.5.9-.4 1.5-1.1 2-2.2a67.6 67.6 0 00.6-13.9 8 8 0 00-.6-2.5c-.4-1-1-1.6-1.9-1.9-.8-.3-2.3-.5-4.5-.5m33.2-8.6v14.7h3l10.1-14.7h12.5l-13.7 19 14.9 19.8h-12.8L232 377.7h-3.2V393h-10.5v-38.8h10.5m40 0V384h16.3v8.9h-26.7v-38.8h10.4m43 32.1h-14L296 393h-10.8l11.7-38.8h15.7l11.8 38.8H314l-2-6.7m-2.1-7.5l-5-17-4.7 17h9.7m51.8-24.6V393h-10.4v-15.3h-13.5V393h-10.5v-38.8h10.5v14.6h13.5v-14.6h10.4m23.7-.3c2.7 0 4.7 0 6.3.3 1.5.2 2.8.5 4 1 3.6 1.6 5.8 4.4 6.7 8.5.3 1.7.5 5 .5 10 0 4.3-.2 7.2-.4 8.8-.8 4.4-2.9 7.4-6.3 9-1.4.6-3 1-4.9 1.4a53.3 53.3 0 01-14.3 0c-1.7-.4-3.2-1-4.5-1.7-2.9-1.8-4.7-4.5-5.4-8-.3-1.6-.4-4-.4-7.6 0-6.5.3-11 1-13.4 1-3.4 3.5-5.8 7.5-7.3 2-.7 5.4-1 10.2-1m-.3 8.9c-2.5 0-4.1.2-5 .5-1.1.5-1.9 1.4-2.2 2.7-.3 1.3-.5 4-.5 8.2 0 4 .2 6.5.7 7.8.3.9 1 1.5 2 1.9.9.3 2.5.4 4.9.4 2.1 0 3.6-.1 4.5-.5.8-.4 1.5-1.1 2-2.2a67.6 67.6 0 00.6-13.9 8 8 0 00-.6-2.5c-.4-1-1-1.6-2-1.9-.8-.3-2.3-.5-4.4-.5m70.8-8.6V393h-10.3v-11.6c0-3 .2-7.4.5-13.6l.3-4.6h-.3l-1.4 4.5-1.4 4.4-2.9 8.8-4 12h-9l-4.1-12-5.8-17.7h-.3l.2 4.6c.4 6.4.6 11 .6 13.6V393h-10.2v-38.8h16.2l3.7 11 4 13.4h.3l1-3.3c.8-3.5 1.8-6.8 2.7-10l3.6-11.1h16.6m29.4 32.1h-14l-1.9 6.7h-10.8l11.7-38.8H486l11.8 38.8h-10.6l-2-6.7m-2-7.5l-5-17-4.7 17h9.6" style="text-align:center;line-height:125%" font-size="58.3" font-weight="400" text-anchor="middle" fill="#fff" font-family="Eurostile T Black"/></svg>