<svg height="450" width="750" xmlns="http://www.w3.org/2000/svg"><path d="M0 450h750V0H0z" fill="#002a86"/><g fill="#ffea0f"><path d="M330.9 118.7c-5.7.4-12.8 2.8-17.5 6.6.5 1.4 1.6 1.3 2.8 1l.3-.5c.8 0 1.8-.8 2.8-1.3l.2-.2c.8-.5 2.2-.3 2.9-1 .2-.1.3-.3.3-.6 4.8-3 9.4-2 15.4-1.6v1.1c-4-.8-11.4-1.4-15 2.1 3.6 3 8 4.6 12.8 4l3.5-1.5c1.7 6.9 9.1 9.9 14.8 12a9.7 9.7 0 001.3-4c-1.4-1.7-3.8-1.7-4.9-3.6 2 .1 4.5 1 5.7 3a5 5 0 01-1 4.7c.4.5 1.2.5 1.7.3l8.2-6.6h.1c.6-.4 1.4 0 1.6.7l.3-.2c2.6 3.4 7 4.3 9.7 7.3l-.3.4v.1c-.6 0-1.3-.8-2-1-2.8-2.5-6.1-3.8-9-6.2-2.3 3-5.7 4-8.5 6.7-5.4-.3-10.7-3.6-15.2-7-1-1.6-2.4-3.2-2.8-5-1.2-.2-2.3 1-3.4 1.1-4.4-.2-10-.6-13.5-4.8-3.3.6-6.8 5.4-9.9 1.3h-.6c-10.8 10.8-25.8 17.5-34.6 30 1.9 2.5 4.7-1 6.9-1.6 3-2.6 7.7-4 10.6-7.8l.2-1v-.1h-.1c-.5-.2-1.3 0-1.7-.2l-.1-.1v-.1c-.1 0 0 0 0-.1h-.1v-.2-.1-.1c.5-.9 1.7-.7 2.1-1.2l.1-.2v-.1c3.8-2.2 8.3-4.2 11-7.5l5-4.1h.2l.6.3h.1v.1c.1 0 0 0 0 .1.1 0 .1 0 0 0v.3c-5.6 4.3-9.6 9.3-16 11.7v1.3c1.5.4 2.8-1.2 4.4-1.6 3.1-2 6-4.4 9.4-5.9.2.5.4.9.3 1.3-1.2.7-1.9 1.3-3.1 1.7l-.4.4.2.2h-.4c-.4 0-.7.3-1 .5v.3l-.3-.2c-.9 1.6-2.9 2.2-4.5 3.1-1.1.4-2 1.3-3.1 1.5a.8.8 0 00-.4-.4l-.5-.2h-.1l-.2-.3c-1.8 5.7-8.2 6.6-12.4 10v.1c-.2.6.3 1.6 1 1.8h2a150 150 0 0014-10.5c.6-.4 1.5-.8 2-.7.2 0 .3 0 .3.2v.2c-.3.8-1.6 1-2 1.4-4 4-8 6.8-12.5 9.7v.3a1 1 0 000 .1l.1.1 1 .5c5-.7 8.2-5.6 12.2-7.9 4-3.2 7.2-6 10.7-9.3.2.2.6.3.7.5l.2.4v.2l-.2.1-.5.3v.5c-3.4 1.9-5.8 5.1-8.8 7.3-2.5 2-5.6 4-7.9 6.3 2 1.8 4.4-1 6.8-.8a6.4 6.4 0 013.6-3.6l.4.4c-.8 1-1.9 2.1-2.5 3.3 1.3.3 2.8-.2 3.5-1.4 4.9-3.5 5.6-9.9 10.7-13 .9 2.2-2.4 2.3-2.5 4.4a17.2 17.2 0 00-3.1 5.2l-.2-.2-1.8 2.3c.7.8 1.6 1.3 2.6 1.3 2.5-2.4 3.6-5.3 6.2-8l.5.3h.1v.7c-1 1-2.3 2.4-2.7 3.9 3 1.3 3.9-3 5.5-4.4 1-2.5 2.2-5.1 3.7-6.9l.2.2.4.2h.1v.1l.1.1V141.7l-.2.1-.1.1v.1a26.2 26.2 0 00-3.4 6.7c.5.3.8 1 1.2 1.2h.4c.1 0 .2 0 .3-.2l.2-.2c.8-1 1.5-2.4 2.3-3.3l.2.2v.1c.2.3.1.6.1 1-.1.7-.8 1.2-1 1.7l-.1.1v.4c.1.2.3.4.6.5 1.5-.5 2.9-1.4 3.3-3l.4.3v.2c.3.9-1 2.6-1 3.3v.2h.1l.1.1c.3 0 .8 0 1.7-.3l.3-.2.3-.6c0-.2.2-.2.3-.2h.3l.3.2v.1l.1.3c0 .2 0 .5-.2.7l-.2.3c1.2 1.6 3.3 1.2 4.6 2.8l1-1.7h.6v.6h.1v.1h.1v.1l-.2.1-.5 1h-.2v.1h-.1c.2.7.5 1 .8 1h.3l1.1-.5H342l.2.2.2.8 1 .8h.7c.7-.5 1-1.7 1.8-1.8H346.1c.1 1.2-.4 2.5.3 3.5h.8l.7-.4h.3v.6l.1.2.7.3 1.4.8c.7-2 1.7-4.1 1.8-6.3.5-.6.8-1 1-1.5v-.2-.1-.2-.2c-.7-1.3-4-1.6-4.7-3-4.8-2.5-8.9-7.6-12.6-11.7v-.1c-.6-.6-.5-1.4-1-2-2.8 4.4-8 3-12.4 3-3.7-1.2-8.7-3.9-10-8.7l.3-1.5h.6v.1l.1.2c.2.5 0 1.2.1 1.6v.1l.1.1v.1h.1c.8.6.8 2 1.5 2.1h.2c.7-1 1.3-1.5 2-2.3 1.8 1.9-3.4 3.3-.3 4.7l2.2-3 1 .9c-.9.8-1.5 1.8-1.8 2.9.7.4 1.5.7 2 1.2.4-2 1.7-3.7 2.8-5.4 1.3 1.3-1 2.8-1.2 4.4l-.8.8v.2c3.3.2 7.4 2.1 9-2.5.2 0 .4.2.4.3h.1v.4c0 .3 0 .7-.2 1l-1 .8c3 1.3 3.6-2.4 5.5-3.8.9.8.7 2.3 1.3 3.4 5.2 5.4 9.6 11.7 16.7 14.2 1-1.6 2.2-3.5 2.6-5.4 1.7-1 3-1 5-.7 1.7 1 2.7 2.4 3.6 4 .5 2.7.1 5.4-.3 7.9 1.6.8 4.1.3 6-.5-.2-3-2.7-8 1.2-10 2.1-.5 4.2-.4 6.4-.2.7-3.2-.8-6.9-2-9.7-.2-.6-.1-1 .1-1.3l.3-.2c.8-.4 2-.3 2.8-.7 6.7-1.6 14.6-4.1 17-11.2h.4c-.3 7-8.4 9.5-13.7 11.5-2 .5-4.2.5-6 1.7 0 1.4.9 2.6 1.3 3.7 3.2-.1 7.1-2.8 10.1-4.5.8 0 1.6-.8 2-1.3 4-1 6.6-6 10.6-6 1.3.1 2.6 2.2 4 1.6 2.9.7 6.3 0 8.2-2.5l.1-.3c.4-.4 1.3-.3 2-.3 2.4 2.2 5.3 3.5 8 4.7h1l.2-.1.4-.2c-6.7-5.3-13.5-10.4-22.1-10.6-9.4-2.4-13.5 11.6-23 9.6-2.2 0-5.7 0-7-2.4-2 2.1-5.2 3.8-8.3 2.6-2-1.5-4.1-2.3-6-3.8-2 1.4-4 3.3-6.8 2.3-7-2-12.2-9.4-20-9.2h-.4zm15 9.6c1.2.5 2.9 1.4 3.3 2.7h-.4l-.2.1h-.1-.2c-.8-.3-1.4-1.3-2.2-1.7l-.3-.9v-.1z"/><path d="M403 155.8l-.4.2a54.5 54.5 0 01-15.6 9.4 53 53 0 01-13.5 2.5v.1l-.1.2v1c-.2 0-.3.2-.4.3l.2.2c-1.4 2-4 1.2-6 1.1-2-.9-6 .8-7.5-1l-.5-1-.8-1.1c-3-.8-6.3-1-9-2.5l-2.5-.8c-1.6-.6-3.7-1.1-3.3-3.4a.8.8 0 00-.1 0h-.2-.1-.1c-.5.2-.7.7-1 .9h-.1H341.6h-.1-.1l-.2-.2c-.8-.9-.8-2.3-1.8-2.9a2 2 0 00-.3-.1c-.3.7-.3 1.5-.9 2-1.7-.9-3.7-1.8-5-3.4l-.2.7c0 .4 0 .8-.2 1.4-2-.7-2-3.3-4.5-3.2-.3.6-.2 1.6-.2 2.1l-.3.2h-.2-.1-.1-.1c-1 0-2-1.4-3-1.7h-.4l-.2-.2c-.8.9 0 1.7-.8 2.5-1.5-.7-3.2-2.2-4.8-1 .1 1.7.5 3-.9 4.4l.6.3h.4c.7-.2 1.3-1.5 2-1.8 1-.1 1.8-1.3 2.7-1.5.4-.1.8-.1 1.2.2.2.4.2.8 0 1.1-.3.8-1.1 1.3-1.4 2V163.1c.8.4 1.4.5 1.9.3h.2v-.1c1-.7 1-2.8 1.8-3.6v-.1l.2-.1.1-.1h.2c.5-.3 1.2-.1 2.2.5v.1l.1.1v.3c.2.9-.6 1.7-.7 2.3V163l.1.1.2.2.7.2c.9-1 1.5-2.4 3-2.8.5.6.8 1.6.4 2.1l-.4.5v.4c2.2 1.4 3.2-3.2 6-1.2.1 1.2-.3 2 .4 2.9 1.5-.4 2.8-2 4.6-1h.1c.7.7 1 2.7 1.7 3.2.4.1 1 0 1.6-.6 2.2 0 4 2 6.2.7 1.5-.6 2.8-.2 4.8 3.4l31.2 1c5-4.4 11.1-5.7 16.7-5.7l.3-.3.1-.1v-.1c-6-2-9.7 1.7-15.6 1.8-.1-.4-.5-.8-.7-1v-.1-.2-.2c4.4-1.5 7.7-5.3 13-5.2a15 15 0 006.5-3 5.4 5.4 0 00-3.6-.2c-1.9 1.2-4.3 3.8-6.3 2.1.6-1.8 3.1-2.2 4.2-3.7l-.1-.1-.1-.2h-.1-.1l-.2-.1a1.5 1.5 0 01-.2 0h-.1zm-19.9 13.7a2.3 2.3 0 011 0l.1.2.2.1.3.5c-.8.3-2.1.4-2.8 0v-.1l-.2-.1v-.1a1 1 0 01-.2-.4l1.6-.1zm-6 0a1.6 1.6 0 01.2 0H377.6v.1l.1.1v.1l.2.3v.1l-.2.2c-.5.4-1.5 0-2.2.2l-.2-.3h.2c.4-.1 1-.6 1.5-.7l.1-.1zM367.2 112.2c-1.2 0-2.4.3-3 .6-3.5 1-3.9 5.2-4.2 8.6-.2 1.3-1.2 2.6-1.4 3.8l.2-.2h.1l.8.1.2.2V125.6c.8.4 1.7 1 2.5.8h.3l.1-.1.2-.1.6-1 .8.1.2.3c-.2.6 0 1.4-.4 2h-.1v.2l.2.2h.2l.6.2h.1l.2.2c3 1 4.4-1.2 6.5-2.6.5-2.5-2.7-5.2-1.3-8.1 1.3-1.7 3-.7 4.9-1.3a3.1 3.1 0 00.7 1c.2.3.6.4 1 .3.4-1.5 0-3.3-1.4-4.2-1.2-.5-2.8-.2-3.6.6-.4.3-.6.5-.8.5H371v-.1l-.2-.1c-.4-.5-.7-1.4-1-1.7h-.3c-.5.2-.8 0-1.3-.2l.3-.3h-1.4zm.2 2.2c.5-.1 1.2.5 1.6 1 .3.8-.7 1.1-1 1.5a1.8 1.8 0 01-1-2.1v-.2h.1l.1-.1h.1l.1-.1zM416.5 128.7c3 1.3 5.8 4 9.3 3.1 5.7 3.6 11.8 8.6 17.7 11.5 2.8 3.2 7.2 4.5 9.4 8-6.7-4.8-13.9-6.9-20.6-12-2.6-.9-5.4.1-7.7-1.6-3.7-1.5-6.6-5.2-10.2-7.2-.6-1-1.5-2-1-3.2 1.6-1 1.7 1.3 3 1.4M401.9 129.4c-.6 8.8-10.8 14.3-16.7 19.8-1.4.2-2.4 1.6-4.1 1.4a28.4 28.4 0 01-2.5-10.2c6.5-1.8 12-6.3 17.8-9.4.9-1.2 2-2 3.2-2.7.9 0 1.8.4 2.3 1"/><path d="M418.3 135.4c-1.4 1.6-3 1.3-5 1 .3-.7-.5-.7-.5-1.2-1.3.3-2.5 2.9-4 1-2.4-.8-2.7 2.4-5 .8l-2.5.2c-.8 3 2.8.4 3.7 1.5 1.8 1.7 2.8-3.4 4.6-.4 1.4.4 2.2-.8 3.2-1 .7 1.4 2 .5 3.4.8.6-.2 1-.6 1.8-.4 1.1 3 3.7 5.4 6.5 7.3.8-1.9-2-3-3-4.2-1.2-1.4-2.8-3.3-2.5-4.6l-.4-.5c.3.2.6-.4 1 .3l.2-.3-.2.3c3.2 1.5 7.5 5.8 10.6 3.9 0 .2 0 .4-.2.5 3.8-.5 6.4 3.7 9.8 4.7 2.7 1.9 5.5 3.1 8.4 5.1 2.8 1.3 4.6 2.2 6 5.2 0 .8 0 2-.8 2.2l-.8-.1c-5.2-4-10.3-7.9-15.6-11.1-1 .4 0 1.2.3 1.7 4.6 3.4 10 6.5 14 10.2-.5.8-1 2.4-2.3 1.4-3.8-.7-7.4-3.8-10.7-6.3-3.2-4.1-8-6-10.4-10.7-.3.2-.8.2-1 .6v.6c6 5.5 11.4 12.9 18.7 16.3 0 .4.2 1-.3 1.2-1.6-1-3.4-2.3-5.2-2-1.2 1.6-3.3.4-4.6.2-2.8-3.2-7-6.4-9.2-10.1-.3-.1-.6.2-.8.5.8 2.9 4.8 5.9 6.8 8.5-.5.5-.9 1.7-1.6 1.2L427 156c-.1.3-.7.3-.8 0-3.4-3.1-6-6-7.8-10-.3 0-.7 0-1 .4 1.5 4.7 5 7.5 8.3 11.2-.3.2 0 .6 0 1-3.1-1.2-5-4.5-8-5.3-.7-3.1-3-5-3.5-8-.5 0-.6.3-1 .5.4 2.9 3 5.2 3 7.9.2 0 .3 0 .4.2-2.2 0-3.4-2.4-5.5-3.6 0-1.8-.5-4.2-1.3-6h-.7c-.2 1.8 1.2 4.4.4 6-1-.7-1.6-3-3.3-2.7-1.4 2.6-5.6 1-6.5 3.8l.2.2h-.3c0-.7 0-1.3-.7-1.6-1 .8-.5 2.5-1.6 3.4-.8-.7-2.2 0-2.1-1.6-1.9.1-.4 2.4-1.8 3.1-.9-.2-.5-2.5-2-1.6l-.2 3c-.8-.3-2-.5-2.7.1-.6.5-.6 1.2-.8 1.9-.7-.1-1.3-1.2-2.1-.5-.8.5-.6 2.4-1.9 1.8.3-1-1.1-1.3-1-2.1-.2-2-1.4-4-.7-5.7 6.1-1 10-6.6 14.5-10.4 4.4-3 5.6-7 7-11.5 3 1 6 .3 8.6-1 .6 3.1 4.3 4 6.3 6.5M363.8 149c-.1 5.8-1.4 11.4-2 16.8h-1.4c.3-1 .5-2.5-.2-3.3-2 .3.6 5.6-3.3 3.7-1-.7.4-2-1.2-2.1-.2.5-.7 1-.2 1.5-.8.1-1.8-.2-2.6-.5.3-1.8 3-3.6 1.8-5.4-1.3 1.4-2.8 3.2-2.8 5.1h-1c2-4.3 1-9 3.3-13.2l-.2-.2.7-.4c-.1-1 .5-2 1-3.1.2-1 1.2-1.9 2-2 .6.4 1.5 0 1.2-.8 2.4.1 3.9 2 4.9 3.8M374 146.6h-2.3c-1.2.5-1.3 1.8-1.4 2.7 1.4 5.6.5 11.5 2.2 16.9l.2.3.2.1h.1l.2.1c.7.3 1.5-.3 2.3-.3l-.2-.8c0-1-1-2.7-.6-3.6l.3-.3.6-.3c1 1.7.8 3.5 1 5.2l6.6-1.7c-.7-1.2-.4-2.9-1.1-4.2l-.2-.3v-.2-.1-.1-.2h.2l.2-.2c-2.9-4-1-9-4.4-12.8-1.6-.2-2.6-.2-4-.2zm5.4 15.9c1 .4.8 1.7 1 2.6v.1l-.2.1h-.5c-.2-.6-.8-1.5-.7-2.2v-.1-.1l.2-.2.2-.2zM369.8 157.6c.1 3.6.3 7.7 2.3 10.7.4.8-.5 1.2-.8 1.7-1.5.7-2.6-1.7-4.1-1 0-.6.5-1.8 0-2.4-.6.3-1.3.9-1.3 1.4v1.3h-1.7c-.6-1 .5-2.9-1-3.7.3-2.3.3-5.4.8-8.3 1.8 1 4.4-.4 5.8.3M361 169.5v-2c.6.2 1-.5 1.5-.6l.3 2.6z"/></g><path d="M305.7 171.7s-3.8-7-8.7-7.7c-4.9-.5-7.7-.4-11.2 1.7s-10 6-13.7 19.7a69 69 0 00-2.9 29.9s4.7 34.4 22.6 59 32.8 36.4 43.1 42.2c8.9 5 34.2 14.2 34.2 14.2s32-7.8 56.7-33.9c24.6-26 28.2-35.8 35.2-52.6 7-16.8 7.3-29.8 6.2-39.4-1.2-9.5-5-28.9-14-35-8.9-6-14.4-5.2-18.7-3.4s-8.1 6.3-8.1 6.3z" fill="none" stroke="#ffea0f" stroke-width="3.5"/><path d="M346.6 180.7a2.3 2.3 0 01-.2.2c-.2 0-.3.2-.3.4-.2 1 .9 2.5.9 2.5l1.7 27.8-2.7-.2-.6-8.9-4.2.4v7.2H337l-3 2.6-.5-8.3 6-.3-.6-2.5-5.8.6-1.4-14.1h-2l.3 25.4-5.2-.8-3.6-17.1-1.6.2-.8.7-4.2-.3v5.7l5 .8 2.5 11.4s-.7.2-1.2.5h-.1v.1l-.2.2v.2a1.4 1.4 0 000 .2v.1c.3 1 2.3 3.1 2.3 3.1l11-1 1.5-1.7 2 1.6 3.6.2 1.4-2 2.7 1.6s7-2.1 9.8-2.1l53 1.3-1.7 2.7c0 .2.3 1.8 2 2l31.2.1-1.7 5 .7 3.3-3.4 4.9 3.2.2-4.8 6.9 3 .4-3 3 4.4-.2v10.9l2.4-.2v-3.9h3l-.1 4h3v-6l1.8.3v6.2h2l1-17 2.8 1.7-.4-4.6 1.1-.2s-2.7-4.5-2.7-6.4l-.2-4.2 2.2 1 1.3 2.3-1 2.5 2.4-1-.4 17.4-2.7 3.6 2.5-1.1.6 1.3 2.8-5.6v-15.4l.8-4.8 3.1-.4.2-1.5-2.9-1.8 3-1.7-2.2-2.4-.4-4.8 2.9-2.5-3-1-.7-4.7 2-1.4s-1.6-2.5-2-3.5c-.4-1-.8-2.9-.8-2.9l4-1.3s-4.5-3.9-7.2-5.4c-2.6-1.5-7.2-3.3-8.2-4.2h-.1l-3.1-3.3s-2-.7-3-.2h-.2v.1h-.1c-1.2 1.1-13.9 11.5-14.5 12.4-.3.8-1.5 4.9-2 5.8l-3.6 5c-.9 1.3-1.3 2.4-1.3 2.5 0 0 .6.5 1 .6h.5c.6-.2 3.1-1.2 4-.8 1 .4 1.6 1 1.6 1.2h-2.5a13 13 0 00-5.8 2.5c-1.1 1-3.6 2.1-3.6 2.1l-.8-.4 5.4-3.8c-.1-.1-1.1-1-1.7-.6l-5.6 2.7c-1.5.7-2.8 2-3 2.1v.5c-.2-.5-5-8.4-12-8.6-7.2-.2-12 8.1-12.2 8.7l-14.7-2.3.4 1.5-8.5-.6 4.3-1.3.4.8 2.5-.8-13.5-3.5-1.4 3.5-3.7-.4-3-27.8s.5-1.4.1-2.3l-.1-.2h-.1l-.1-.2-.6-.2h-.2-.1a2.3 2.3 0 01-.1 0h-.1zm104.2 10.1l2.1 1c.8.3.8 1.5.8 3.2 0 1.6-.4 2.7-.4 2.9l1.3 2.3 1.4-2.5h1l-2.4 4.6v.1h.1l.1.1h.1l.9.2h.2c.7.3 1 1.4 1 1.5 0 0-.3 2.8-.3 4.9 0 .6 0 1-.3 1.3a1.8 1.8 0 01-.6.6l-.7.2s.5.6 1.3 1.2c.7.5 1 2.3 1 6.5 0 4.1-2.8 5.2-3 5.2l-2.9-5.8 2.3-1.1-3-5.8 3-1.6s-.7-1.5-1.9-3c-1.1-1.6.2-4.9.2-4.9.1-.1.7-1.2.2-2.8-.5-1.6.2-2.6.4-2.7 0 0-.4-1.6-.2-2.7v-.3c-.1-1-1.4-2.3-1.7-2.6zm-2.6 1l-.9 1.5 1.7 1.9s-.6 3.3-.2 4.5v.1c.6 1 2.7 2.2 1.2 6-1.5 3.9-1.8 5.6-1.6 7.1.2 1.6 0 3.7 0 3.7l-1-.2-.5-3.5-.6-1.3s.6-3.3.6-4.9c0-1.5-1.2-4.4-1.2-4.4s-6.1 1.2-7.3 1.8l-3.8 1.5-.4-1.2s8.3-3 9-3.4c.6-.4 2.2-.4 2.2-.4l1.1-4.6s-1.3-1.4-1.3-2v-.1c.4-.6 2.7-2 3-2.2zm-8.8 15H440.2l.1.1.2.3c.2.5.2 1.2.2 1.3l-1.4 2.9.8.8 2.7 1.3 1-4.2 1-.6s.5 1.7.5 2.5-1.2 3.9-2 5.6a3 3 0 00.4 3l-.5 2.2h-1v-1.2a3 3 0 00-.6-2v-.1a2 2 0 01-.2-.2c-.7-.5-1.6 0-2.1 0a1 1 0 01-.1 0h-.1c-.6 0-2.3-1.1-2.3-1.1l-1.4.5v.1h-.1c-.7 0-1.7-1-2.2-2-.6-1.1-1.1-4.2-1.1-4.2l-1 .4-1-1 4-3.3.3 1.6-1.2 1.3s0 1 .4 3.1c.4 2 2.1 2.5 2.3 2.5l1.8-1.3 1.3 1.9 2.7.4 1-2.5s-4.5-2-5.4-3.1l-.3-.4c-.5-1.2.4-2.6 1-3.3.6-.5 1-1 1.5-1.3h.1zm9.3 11.7l-.2 2.9-1.2 3.1-.4-.8-.6-4.2zm-6 5.6l1.1 2.3-1 2.5-1.3 1v-3.3zm4.4 5l1.7.4.2 3.1c0 .8-1.3 4.5-1.3 4.5l-1.4-2.4zm-5.4 3l1 1.5-.8 2.9-1.2-.2V233zm.8 6.1l.7 1.7-.5 1-2-.2zm3.2 2.3l2 .4-1 6.2-1-.2zm-4.4 3.3l2.5.8.2.7-2.9 3-.8-.4-.1-3.2z" fill="#ffea0f"/><path d="M351.5 216.8c-1.8.3-3.3 1.6-4.5 2.5l-.1.1v.1c-1.7 1.8.3 7.1 1.3 11.2 1 4.2 8.5 15.2 8.5 15.2l3.6 7s-1 .8-1.5 1.7c-.6 1-2.2 4.6-1.8 9 .4 4.5 4.5 6.2 6.2 7.2 1.8 1 5.8.4 5.8.4l1.3 1.1-23.7-1.1 1.7-6.8 1.4-3 1 5.3v.2l.1.2h.1v.1l.3.2c.3.2.7.2 1 .2a1.1 1.1 0 00.3-.1v-.1c.5-.6.7-3.2.7-6.4v-14.5c-.2-2.3-2.4-2.7-2.4-2.7l-6-.4s0-1.1-.1-1.7l-.1-.2a9 9 0 00-3.4-1.6c-1.3-.3-9-.9-11.4-.9-2.3 0-8.8 1.1-14 1-5.3-.2-14 1.7-14 1.7l-3.4-2.9-2 1.5-2.5.2.8 3.3s-1.5 7.5-1.9 8.7v.1a1.4 1.4 0 000 .4c0 1.1 1.5 2.7 2.5 3.2 1.2.5 3.3.5 3.3.5l1.9-1.8-.2.9c0 .8.6 1.9.6 1.9s2.6 1 3.6.8l3.5-.6 2.5 5.8c.8 1.7-.2 7.1-.2 7.1s-2.9.5-3.8 1.2l-.2.1a4.9 4.9 0 000 .2v.4l.1.1c.6.7 2.4 1.3 4 1.3 2 0 8 .4 12.9.4 4.8 0 14.2-.4 18.5-.6 4.2-.2 9-.8 13.9-.8 4.8 0 16.4.8 19.3.8 2.9 0 12.5.8 15.2.8 2.7 0 14 .2 16.8.4 2.7.2 17.7 1.9 19 1.7a2.3 2.3 0 001-.4 10 10 0 00.2-.1v-.2l.2-.2v-.1-.1L423 274l-9.3.3 1-.1c4.6-.4 8.7-4.7 9.6-7 1-2.3.4-7.3.4-7.3s2.1.4 3.1.4 3.7-.2 5.4 0c1.7.2 3-.6 4-1.6 1.2-1 2.2-1.5 2.2-1.5l-6.4-.6 1-3.6.4 3.2 2-.6v-8.4l-.7-.4-2.3 2.5.8.6-1.2.7-1.3-2.3-2.7 5h1.3l-.6 3H426l.4-7.6c.2-3.7 6.1-16 8.3-18.1 2-2.1 2.1-4.8 1.7-5.8a3.8 3.8 0 000-.2h-.1l-.1-.1c-1-.8-4.5-1.6-6.4-1.6-2 0-4.2 1.1-6.1.4-1.9-.8-5.9 0-6.9.7h-.1l-.2.2c-1.1.6-4.4.9-7-.6-2.6-1.5-5.3-.5-7.2-.1-2 .3-3.7.2-5.6-1.4-2-1.5-5-.6-5.8 0h-.1c-1 .6-3.7.5-5.3-.6-1.7-1.1-2.9-.8-6.7-.4-4 .4-3.7-.6-6-1.5-2.4-1-8 1-11 1.2-3.1.2-3.3-.4-6.6-3a4.9 4.9 0 00-3.2-1h-.1a1.4 1.4 0 01-.1 0 1.5 1.5 0 01-.1 0h-.1zm-52.7 31h.2v1.5l-.2.2-.3.2a3 3 0 01-.7.3l-.4-.3-.2-.4v-.5c.3-.6 1.3-.9 1.6-1zm7.2 2h.2l.6.1s-.1 1-.7 1.6l-.3.2-.2.1h-.1-.1-.2s-.4-1.4.3-1.8l.5-.2zm116.4 1.7l.4 5.2s-1.4-2.3-2.9-2.9c-1.5-.5-3.5-.7-8-.7-4.6 0-7.5 4.8-7.6 5.1l-1-.3 1.2-5-25.7.8c.3 0 2.4 1 4.3 2.5s3.8 5.5 3.8 5.5l-.6.8 9.9.2s-.8 3.7 0 5.2a36 36 0 002.3 3.7h-16.6s3-3.5 3.5-4.9l1-4.2s-.8-1-1.2-2.1c-.4-1.2-1.8-2.5-3.5-4-1.9-1.6-11-2.4-11-2.4l-2-1.1zm-31.2 2.3l.7 1.2v1.9l-1.3.2V255zm23.1 1l1 1-.8 3.2-.6-.2zm-101 .2l.9 2.1-1 12a74 74 0 00-2-9.4c-.7-.7-1.8-3.4-1.8-3.4zm50 0l4 .7-2.2 1.8-2.3-1.3zm36.4 0l1.3.4-.8 3-.7-2zm12.5 0l.6 3.7-1.8.3-1.1-3.4zm-4.3 1l1.4 2.7-.4.7-2.5-1.1zm-35 .2l1.7.1-.4 3.7-2.5-2.1zm44.5 0l1 1.1-1.6 2.1-.7-.3zm-40.1.3l1.7 1.6-1.2 2.7h-1.1l-.2-1zm-37.6 1l.5 2.7 4 2.3-1.6 8-6.8.1zm21.6.6l3.4 1.1-.4.6-3.6-1zm28.3 0l5 .2.2 1.1h-5zm-19.3 1.1l1.8 1.6-1 1.5-2-.2zm35.7.2l2.7 1.8.2 1.3-2.7 1zm-88.5.6l4.6 3.7v6.7l-5.6-.6zm102.6.2l-.2 1.4-2.7.7-.2-1.9zm-40.5.2h1.1l.2 2.9-2.3.2-.4-1zm-19.5.4l3.9.8-4 .5zm53.4.7h.4l.2.1.4.4h.1l.2.9v.3l-.2.6h-.1l-.1.2-.2.1a1 1 0 01-1 0l-.1-.1-.1-.1-.1-.1a1.6 1.6 0 01-.2-.9c0-.3 0-.7.2-.9l.4-.4h.2zm-78.3.2l-3.6 9-4.3.1s-.8-1.5-1-2.5c-.2-1 0-6.4 0-6.4zm39.3 1.4H375.2l.1.1a1 1 0 01.3.3V264.2a1 1 0 010 .2h-.1v.1l-.2.2h-.1-.2-.2-.1a.9.9 0 01-.5-.2v-.2h-.1v-.1-.1-.1-.2-.1-.1-.1l.2-.1.1-.1h.1v-.1zm-10 .6l.4 1-3.2 1.7-1-1.6zm52.9 0l2 .2-.3 1-1.7-.3zm-48.4.2h2.9l.2 1.1-1.8 2zm31.4.3h1.2l-.2 1.6-1 .8zm8.3.2l.4 1.2-2.5 1.7-.8-2.3zm-30.3.4l2.7.6-.5 1.5-2.5-.5zm37.3 1l1.1 3.3-2.1 1-.4-4zm-50.2.2l.8.7-.8 2-2-.8zm10.8 1h1l.5 2-1.3.7zm-2.7.2l1.6 1.1-.2 1.5-2.5-.1zm36 1.1l-.1 2.3-1.4-.6zm2.2.8l1 .4v1.9H411z" fill="#ffea0f"/><g fill="none" stroke-linecap="round" stroke-width="1.2"><path d="M354.7 234.4s-2.7-4.9-2.9-6.8c-.2-2 1-6 3.7-3.3s3.4 4.5 3.3 5.6c-.2 1.2-.2 3.1-.2 3.1m2.9-9.3l4 10.3c1.2 2.9 1.5 6.7 1.5 6.7m4.1-1l-1.2-11.1m13.5 14l.6-10m11.8 5.6l.6-6.2m9.8 8.7l1.2-9.8m10.2 11.6l3-9.1m-51.6 9s3.3.6 4.2 1.2c1 .6 2.3.8 2.3 1.8v2.8m0-2.8s.2-2.2 3-2c2.6.2 4.4 0 4.6 2.3l.1 3.1m2.6-.2s-.8-4 2-4c3 0 5.9.2 6 1.5l.4 2.7m7.6 0s0-4.2 2.9-4m9.6-1.2s-3.7.6-3.5 2.5c.2 2 .6 2.5.6 2.5m5.6-.4s1-3.2 2.3-3.6l3.1-.8m-62.3.4l3.5-1.6" stroke="#002a86"/><path d="M428 263h2.1m2.3-.1l11-2.3m-14.8 6l2.9-.2m-6.6 2.9l6-1.2m.2 2.5s5.4 1.4 6.4.8" stroke="#ffea0f"/><g stroke="#002a86"><path d="M361 246.1l3.5-1.5m-2.9 3.3l3.5-1.6m-2.3 3.3l3.4-1.6m-2.9 3.3l3.5-1.5M303.6 244.6s6.5-1.8 8.3-1.8c1.7 0 3.4 1.2 4 1l4.3-1.2c1.5-.3 12 .8 12 .8m11.9.4l-2.5.2m-24.9 2.1s-2 .8-1.5 1.8c.3 1 1 2.5.5 3-.4.6-1.9 2.2-.7 2.7 1.1.6 2 .8 2 .8m1.4-3s-.5-2.8.8-3.2c1.4-.3 2.7-.2 2.7-.2m2.9 4.7l2.3 6.5"/></g></g><path d="M287.6 181.5l-1.4.2-.2 1-3.3 1.5 3.3.2v1.5l-2.5 2.2-2 4.2-.1 4.4-8.3 7.7 9.5 11 27.6.6.7-2.9 2-2.5.1-5.2 1 .2.2-1h-5l-.6 2.8 1.5.3-1.3 2.2-2.1.5.5-11 2.7-.7-.2-1.8-6-.3.5 14-5-.2-.3-6.5 3.1.3v-9.6l-2.8-.4v-2.5l2.3.2-.2-5.8-2-.2-.4-2.7h-2l-.5 4.1-2.3 2.5-.4 1.7 3 .4v2.2l-5.5-.4v5.5h-1.7l.2-9.6 3-2.3-4.4-1zm-1.8 18.9l.8 10.6-2.3-.2.2-10.2zm-3.8 2.1v7.5l-2.1-1.9 1.5-5.4zm12.1 0l2.3.2v8.5h-8v-3.6l1 .1v1l4.3-.2zm-16.5 2l-.3 1.7-1.1-1.2z" fill="#ffea0f"/><g stroke="#ffea0f"><path d="M410.4 209.5l11.8-4.9m-13.1 3.3l15.6-8.3L460 182m-1.5-4.8l-49.8 29m43.2-35.4l-44.5 33.6m25.4-36l-26.6 36.3 38.8-37.8m-21.6 6.8l-19.7 30.3m9-30.5L401.7 202m5.4-29l-6.6 29m.2-28.9l-2.5 28.2m-3.7-28.2l1 28.2m-9-28l6.7 27.4m-19.7-27.6l17.6 28-11.4-27.8m-14.5-.2l23.4 29.7M357.8 173l28.7 32m-36.8-32l35.3 32.8M337.7 173l46.9 31.8m-58.8-32l58 33.4M288.1 166l94.8 41.2m-102-36.8l99.5 40.1M276 177.3l103.8 35m-106.3-29.8l96.3 27.4m-97.9-20l10.3 2.6m40.1 8.9l20.4 6.1m-72.9 6.4l12.6.4m27.2 0l11.7.8" fill="none" stroke-width="2.3"/><g fill="#ffea0f"><path d="M280.4 218s-1.9-1.6-2.9-1.4l-3.4 1s1.5.7 2.9 1c1.3.1 3.4-.7 3.4-.7M280.6 222s-2-1.6-3-1.4l-3.4 1s1.5.8 2.9 1 3.5-.6 3.5-.6"/><path d="M286.2 222s-2-1.5-2.9-1.3c-1 .1-3.4 1-3.4 1s1.5.7 2.8.9c1.4.2 3.5-.6 3.5-.6M282 225.5s-2-1.6-3-1.4l-3.4 1s1.6.8 3 1c1.3.1 3.4-.6 3.4-.6"/><path d="M286.2 220s-1.9-1.5-2.8-1.3l-3.5 1s1.5.8 2.9 1c1.3.1 3.4-.6 3.4-.6M293 219.5s-2-1.6-3-1.4l-3.4 1s1.5.8 2.9 1c1.3.2 3.5-.6 3.5-.6M293 222.8s-2-1.6-3-1.4l-3.4 1s1.5.8 2.9 1c1.3.2 3.5-.6 3.5-.6M300 219.4s-2-1.6-3-1.4l-3.4 1s1.5.8 2.8 1c1.4.2 3.5-.6 3.5-.6M292.2 225.1s-1.9-1.5-2.8-1.3l-3.5 1s1.5.7 2.9 1c1.3.1 3.4-.7 3.4-.7M300 226s-2-1.6-2.9-1.4l-3.5 1s1.6.7 3 .9c1.3.2 3.4-.6 3.4-.6M297.4 229.3s-2-1.5-2.9-1.3l-3.5 1s1.6.7 3 1c1.3.1 3.4-.7 3.4-.7M303 221.4s-1.9-1.5-2.9-1.3l-3.4 1s1.5.7 2.9 1 3.4-.7 3.4-.7M307.4 222.8s-1.9-1.6-2.9-1.4l-3.4 1s1.5.8 2.9 1c1.3.2 3.4-.6 3.4-.6M310.7 220.7s-2-1.6-2.9-1.4l-3.4 1s1.5.7 2.8 1 3.5-.6 3.5-.6M319.2 218.7s-2-1.5-2.9-1.3l-3.5 1s1.6.7 3 1c1.3.1 3.4-.7 3.4-.7M318.2 222s-1.9-1.5-2.9-1.3c-1 .1-3.4 1-3.4 1s1.5.7 2.9.9c1.3.2 3.4-.6 3.4-.6M325.2 222.2s-2-1.5-2.9-1.4l-3.5 1s1.6.8 3 1c1.3.2 3.4-.6 3.4-.6M313.6 226.8s-2-1.5-2.9-1.3l-3.5 1s1.6.7 3 1c1.3.1 3.4-.7 3.4-.7M319.6 228.8s-2-1.6-2.9-1.4l-3.5 1s1.6.7 3 1c1.3.1 3.4-.6 3.4-.6M329.1 228.1s-1.9-1.5-2.9-1.3c-1 .1-3.4 1-3.4 1s1.5.7 2.9.9c1.3.2 3.4-.6 3.4-.6"/><path d="M285 260.6l11.2.6-2.6 1.9 4-2.5 11.8-.4" stroke-width="2.3"/><path d="M305.7 265.2s-2-1.5-3-1.3l-3.4 1s1.6.7 3 .9c1.3.2 3.4-.6 3.4-.6M306.9 268s-2-1.6-3-1.4l-3.4 1s1.5.7 2.9.9 3.5-.6 3.5-.6M300 271s-2-1.5-3-1.3c-1 .1-3.4 1-3.4 1s1.5.7 2.8.9c1.4.2 3.5-.6 3.5-.6M308.8 279.3s-2-1.5-2.9-1.4l-3.5 1s1.6.8 3 1c1.3.2 3.4-.6 3.4-.6"/></g><g fill="none" stroke-width="2.3"><path d="M320.6 286s3.9-.8 6.2-1c2.3-.2 3 .2 5.4 1.4 2.3 1.1.6 1.5.7 3.8.2 2.4-5 3.1-9.4 3.5-4.4.4-2.9-3.5-2.7-8.3.2-4.8-1.2-4-5-4-3.9 0-9.9 3.3-9.9 3.3l5.3 2.7-.6 3.4 9.4-1.1" stroke-linecap="round"/><path d="M426.9 287.2s-6-4.9-9.8-5.4c-3.9-.6-6.8-.6-6.2 3.4.6 4 1.3 6.6 1.3 6.6s1-.2 3.9-.2 4.6 1.2 4.6 1.2l.4-4.5zm-98.4-8.5s-2 8 7.2 7.7c9-.4 67.7-.2 67.7-.2s4.2-.6 4-4.3c-.2-3.6 2-6.3-10.2-6.9-12.2-.6-62.7-.6-62.7-.6s-6.4-.5-6 4.3z"/><path d="M402.2 286.6s0 4.5 3 5.8c6.2 2.7 9-.2 9-.2m-3.8-8l-3.2.7" stroke-linecap="round"/></g></g><path d="M358.8 287l2.5 4.3-4.4-1.9-1.2 1.7 3 3-4.9-.9-1.9 4.1 9.4 1.5-1 6.8-8.6-.8-3-8.6-3 .3 2 8.5-11-.2 3 10.4h2.2L340 308l8.7.6 1 3.7-5.2-1.2.3 3.3 9.3 2.9 1.5 4.6s3.1 1.3 8 2c4.8.5 17.9-.6 17.9-.6l-.6-4.3s1.4-1 4-2.1c2.8-1.2 5.7-8.5 5.7-8.5l2.9-1.1-3.3-1.4 4.8-7 8.3-.1v-2l-8.9-.2-3.3 2.2 2.2-3.5 7.3-.8.2-1.5-9-.2-10.1 12.3-2.5-.4.4-6.5 3 .7-1.3-1.9 2.5-.7-1.3-1.2 1.1-2.1-5.8-1.2 2.7-3-2.3-1.4-3.8 3.3.9-3.3h-7.1l-.4 2.9-1.2-3.1h-3.2l-.2 2.7-1-2.5zm-.7 21.1l.3 2-3.4 3-2-4.8z" fill="#ffea0f"/><path d="M360.4 315.3l-2.2 3m8.1 2.2l1.2-2.2m4.4 3l.6-2.2m-8.3-13.7h8.7m5.2 3.5l-4.6 7h6.3" fill="none" stroke="#002a86" stroke-linecap="round" stroke-width="2.3"/><g fill="#ffea0f"><path d="M339 278.5h-2.3v-1.3h6.6v1.3h-2.4v5.4h-2z" stroke="#ffea0f"/><path d="M344 284v-6.8h2v2.7h2.6v-2.7h2v6.7h-2v-2.7H346v2.7zM352 284v-6.8h5.6v1.3H354v1.4h3.3v1.3H354v1.4h3.6v1.3H352M369.2 277.2v4.3c0 1.8-1.6 2.6-3.5 2.6-1.8 0-3.5-.8-3.5-2.6v-4.3h2v4.2c0 .8.6 1.4 1.5 1.4 1 0 1.5-.6 1.5-1.4v-4.2h2M370.6 277.2h2.9l2.4 5v-5h1.9v6.7h-2.9l-2.4-5v5h-1.9zM379 284h2.2v-6.7H379zM382.3 280.6c0-2.2 1.3-3.5 3.8-3.5 2.4 0 3.8 1.3 3.8 3.5s-1.4 3.5-3.8 3.5c-2.5 0-3.8-1.3-3.8-3.5zm3.8-2.2c-1.4 0-1.7 1.2-1.7 2.2 0 1 .3 2.2 1.7 2.2 1.3 0 1.6-1.2 1.6-2.2 0-1-.3-2.2-1.6-2.2M391 277.2h2.8l2.5 5v-5h1.8v6.7h-2.8l-2.5-5v5H391zM258.7 209.8l2 3.1 3 .4-2 2.7.5 3.5-3.2-1.6-3.4 1.2.8-3-2.1-2.8 3-.4zM258.6 196.4l2 3 3 .4-2 2.7.5 3.5-3.1-1.5-3.4 1.1.7-3-2.1-2.8 3.1-.4zM262.7 181.3l1.6 3.3 3 .8-2.4 2.4v3.5l-2.9-1.9-3.5.7 1.1-3-1.7-2.9h3.1l1.7-2.9M267.6 167.4l1.5 3.3 3 .8-2.4 2.4.1 3.5-3-1.9-3.4.7 1.1-3-1.8-2.9h3.2zM259.6 222.8l2 3 3.1.4-2 2.7.5 3.5-3.1-1.5-3.4 1.2.7-3-2.2-2.8 3.2-.4zM261.3 236.7l2 3 3 .4-2 2.7.6 3.5-3.2-1.5-3.4 1.2.8-3-2.2-2.8 3.1-.4zM265.9 249.4l2.1 3 3.1.2-1.9 2.8.7 3.5-3.2-1.4-3.3 1.4.6-3.1-2.3-2.6 3-.6zM270.4 261l2.1 3 3.1.2-1.9 2.9.7 3.4-3.2-1.3-3.3 1.3.6-3.1-2.3-2.6 3-.6zM277.3 273.2l2.2 3 3 .2-1.8 2.8.7 3.4-3.2-1.3-3.4 1.4.6-3.1-2.3-2.6 3.1-.6zM284.9 284.8l2.1 3 3 .2-1.8 2.8.7 3.4-3.2-1.3-3.4 1.3.6-3-2.3-2.7 3.1-.5zM293.3 295.2l2.2 3 3 .2-1.8 2.8.7 3.4-3.2-1.3-3.4 1.4.6-3.2-2.3-2.5 3.1-.6zM304 305l2.1 3 3 .2-1.8 2.9.7 3.4-3.2-1.4-3.4 1.4.6-3.1-2.3-2.6 3.1-.6zM316 312.6l1.8 3 3 .5-2 2.7.4 3.5-3.1-1.6-3.5 1 .9-3-2-2.8 3-.3zM326.6 320.4l2 3 3 .5-2.2 2.7.5 3.5-3.1-1.6-3.5 1 .9-3-2.1-2.8 3.1-.3zM338.8 327.3l1.9 3.1 3 .5-2.1 2.7.4 3.4-3-1.6-3.5 1 .8-3-2-2.7 3-.3 1.5-3.1M353.2 331.5l2 3.2 3 .4-2.1 2.7.4 3.5-3.1-1.6-3.5 1 .9-3-2-2.8 3-.3 1.4-3M368 334.2l2 3.2 3 .4-2 2.7.3 3.4-3-1.5-3.5 1 .8-3-2-2.8 3.1-.3 1.4-3M292.4 409.9H305v-44.4h-12.6zM330.8 387.7c-5.5-.8-7.3-4.2-7.3-10 0-9 7.2-11.6 14.5-11.6 8 0 14 2.5 14 11.6 0 5.4-1.4 9.3-6.2 10v.4c6.2.6 9.7 5.9 9.7 12.7 0 10.5-10.3 11.2-18.7 11.2-7.7 0-16.4-3.2-16.4-12.3 0-7 4-11 10.4-11.8zm14 10c0-4.2-3-6-6.8-6s-6.8 1.8-6.8 6 3 6 6.8 6 6.8-1.8 6.8-6zm-12.7-19.1c0 3.4 2.4 5.4 5.9 5.4 3.5 0 6-2 6-5.4 0-3.5-2.5-5.5-6-5.5s-6 2-6 5.5M372 398.1c1.2.8 5 3.1 8.2 3.1 4.4 0 5.7-1.3 5.7-5 0-4-1.9-7-3.8-6.8-2.2.2-7.8 1-8.1 3.3l-7-2.7 4.4-22.7H396v8.3l-15.4-.2-1.6 7c.4-1.3.8-.5 5.4-.5 8.6 0 13.9 5.3 13.9 13.5 0 10.3-6.2 15.8-16.2 15.8-9.3 0-12-3-13.9-3.8zM418 401.6c0 1.5 4.6.6 5.7 1.2 1 .7 2.2-.6 3.5-.8 2.7-.4 6.3-2.5 6.6-8.1-2.5 3.1-6 2.8-10 2.3-5.8-.8-11.2-6-11.2-14.7 0-10.6 6-15.2 15.6-15.4 13-.4 18 11.3 17.6 24.7-.2 6.1-2.9 13-5.4 15.4A20.5 20.5 0 01427 412c-7.8.7-12.5-1.5-12.5-1.5zm10-27.3c-4.3 0-6.9 2.6-6.9 6.6 0 4.6 3 6.7 6.9 6.7 4.6 0 6.9-3.6 6.9-6.7 0-4.2-2.8-6.6-7-6.6M137.9 68l-6.4 5.2s-3.7-3.8-7.2-3.5c-3.5.3-7.2 4.5.6 9.6a18.1 18.1 0 019.2 17 12.1 12.1 0 01-11.6 11.6c-9 .3-17.9-5.5-17.9-5.5l5.2-8.4 9.6 4s4.6 0 3.7-4.9c-.8-4.9-9.7-13.9-11.8-17.9-3.5-6.4 4.3-16.2 10-15.6 8.7.8 11.7 2 13.1 3.7L138 68M144 62.2v10.7l10.4-.9.3 33.9 10.7-1.2-.3-33.5 9.2-1.8-.5-9.5-29.8 2.3M204.7 56.4l-13.9 1.2-9.8 46.3 10.7-.3 2.6-7.3 11.9-1.1 2.3 4.9 9.5-2zm-6 13.3l5.7 16.8-9.5 1.4zM219.5 53.2v9.9l11.8-1.5.6 35.3 12.7-2-.2-34.7 8.3-2.6V47.4zM262.3 45.7l1.2 44.6 27.7-4.1-.5-9.3-16.2 1.8.2-7.5 7.3-1.5-.3-8.4-6.4.3-.6-9 17.1-3.1-.9-9.3zM338.1 37.9c-9.5.4-19.4 6-18.2 20.8 1.6 21.4 10.1 27.2 20 27.2 9.8 0 17.6-13.3 17-24.9-.6-11.5-4.9-23.7-18.8-23.1zm.3 8.7h.6c8 .3 8 9.2 8 14.4 0 5.2-1 14.2-9.2 13.9-8-.3-7.8-9-8.6-15-.9-5.9 4.2-13 9.2-13.3zM387.3 39l-23.4-.5-.3 45.7h11.3V64.8h5.2l-.3-8.7-5.2-.3v-9l13 .3zM432.7 42c-9.5.2-19.2 5.6-18.6 20.1.8 21.4 9 27.6 18.9 28 9.8.3 18-12.6 18-24.2-.2-11.6-4-24-18-23.9h-.3zm.3 8.7h.6c8.1.6 7.8 9.6 7.6 14.8-.3 5.2-1.8 14.1-9.9 13.5-8-.6-7.4-9.3-8-15.4-.6-5.9 4.7-12.7 9.7-13zM460.3 45.3l-1.5.1-1.2 48.6 9.3 1.7.6-11 15.9 14.8 1.7-10.1L477 81s11.3-6.1 11-13c-.3-7-2-15.4-12.2-19.4-7.2-3-12.9-3.3-15.5-3.3zm10.1 12.4c1.5 0 3.4.2 5.2 1 3.7 1.8 2.6 8.7 1.4 12.2-1.2 3.4-10.1 4-10.1 4l.6-16.8s1.2-.3 2.9-.4zM498.7 54.7l-2.9 44.8 24 5.2.6-9.8-12.7-4 .3-7.3h6.6l.3-9.5-6-1.2V65l11.5 1.4.6-8.6-22.3-3.2M560 73.2l-6.9 5.2s-4-7.5-11.3-3.5c-7.2 4-7.2 11.6-6 16.8 1.1 5.2 2.6 10.3 7.5 11 8.4 1.1 6.3-4 6.3-4l-5.2-.6-.3-9.6 15.7.9s.5 16.9-3.5 20c-5 3.7-16.4 6.7-23.5-.3-6-6.1-8.3-14.6-7.2-23.8.7-5.7 3.5-15.3 9-18.2 5.5-2.9 12.1-3.8 15.6-2.3 3.5 1.4 9.8 8.4 9.8 8.4M585 69.1c-9.6.4-19.4 6.1-18.2 20.9 1.6 21.4 10.1 27.2 20 27.2 9.8 0 17.6-13.3 17-25-.6-11.5-5-23.7-18.8-23zm.4 8.7h.5c8 .3 8 9.3 8 14.5 0 5.2-1 14.1-9.2 13.9-8-.3-7.8-9-8.7-15-.8-6 4.3-13.1 9.4-13.4zM611 70.9l.6 44.8 9.8-.3.3-19 12.7 17.3h11L644 68l-10.2.8 1.2 23.8-16.8-22-7.2.3M476.8 211l-2 3-3 .5 2 2.7-.5 3.4 3.2-1.5 3.4 1.1-.8-3 2.1-2.7-3.1-.4-1.3-3.1M476.9 197.5l-2 3.1-3 .4 2 2.7-.5 3.4 3.1-1.5 3.4 1.2-.7-3.1 2-2.7-3-.4-1.3-3M472.8 182.5l-1.6 3.3-3 .7 2.4 2.5v3.5l2.9-2 3.5.8-1.2-3 1.8-3h-3.1zM468 168.6l-1.6 3.3-3 .7 2.4 2.5-.1 3.5 3-2 3.4.8-1.1-3 1.8-3-3.2.1zM475.9 224l-2 3-3.1.4 2 2.7-.5 3.4 3.1-1.4 3.4 1.1-.7-3 2.1-2.7-3-.4zM474.2 237.9l-2 3-3 .3 2 2.8-.6 3.4 3.2-1.4 3.4 1.2-.8-3.1 2.2-2.7-3.1-.4zM469.6 250.6l-2.1 3-3.1.2 1.9 2.8-.7 3.4 3.2-1.3 3.3 1.3-.6-3 2.3-2.7-3-.5zM465.1 262.2l-2.1 3-3.1.2 1.9 2.8-.7 3.4 3.2-1.3 3.3 1.4-.6-3.1 2.3-2.6-3-.6zM458.2 274.4l-2.2 3-3 .2 1.8 2.8-.7 3.4 3.2-1.3 3.4 1.3-.6-3 2.3-2.7-3.1-.5zM450.6 286l-2.1 3-3 .1 1.8 2.9-.7 3.4 3.2-1.4 3.3 1.4-.5-3.1 2.3-2.6-3.1-.6zM442.2 296.4l-2.2 3-3 .1 1.8 2.9-.7 3.4 3.2-1.3 3.4 1.3-.6-3.1 2.3-2.6-3.1-.6zM431.5 306.2l-2.1 3-3 .2 1.8 2.8-.7 3.4 3.2-1.3 3.4 1.3-.6-3 2.3-2.6-3.1-.6zM419.6 313.7l-2 3.1-3 .5 2.1 2.7-.4 3.4 3.1-1.6 3.5 1.1-.9-3 2-2.8-3-.3zM408.9 321.5l-2 3.1-3 .5 2.1 2.7-.4 3.4 3.1-1.6 3.5 1.1-.9-3 2-2.8-3-.3-1.4-3M396.7 328.4l-1.9 3.2-3 .4 2 2.7-.3 3.5 3-1.6 3.5 1-.8-3 2-2.8-3.1-.3-1.4-3M382.3 332.7l-2 3.1-3 .5 2.1 2.7-.4 3.4 3.1-1.6 3.4 1-.8-3 2-2.7-3-.4z"/></g></svg>