<svg xmlns="http://www.w3.org/2000/svg" xmlns:xlink="http://www.w3.org/1999/xlink" height="580" width="660"><defs><path id="a" transform="matrix(40 0 0 40 0 -205)" d="M0-1L.59.8-.95-.3h1.9L-.59.8z"/></defs><path d="M0 0h660v580H0z" fill="#fff"/><g fill="#fec500" stroke-width="1.5"><path d="M325.78 185.52s-1.06 118.22-1.06 126.82c0 8.6 0 20.42-9.5 18.27-9.48-2.15-21.09-2.15-37.97-13.97-16.87-11.82-16.87-13.97-16.87-13.97l15.82-5.38s-15.82-3.22-26.37-10.74c-10.55-7.53-18.99-13.98-18.99-13.98s-1.05 16.13 4.22 27.95c5.28 11.82 15.82 22.57 15.82 22.57v-13.97s14.77 13.97 20.05 17.2c5.27 3.22 26.37 11.82 34.8 17.2 8.44 5.36 23.9 20.41 23.9 20.41s16.19-17.2 26.74-21.5c10.55-4.3 24.26-10.74 30.59-15.04 6.33-4.3 23.2-20.42 23.2-20.42v18.27s11.6-13.97 14.77-23.65c3.17-9.67 4.22-26.87 4.22-26.87s-8.44 6.45-15.82 9.68a2157.48 2157.48 0 01-28.48 11.82l16.87 4.3s-27.42 21.5-36.91 25.8c-17.29 8.31-29.54 6.44-29.54-4.3s1.06-136.5 1.06-136.5zm1.05-39.77h7.38v32.24h-7.38z" stroke="#fec500"/><path d="M274.1 178s29.53-6.45 56.95-6.45 55.9 6.44 55.9 6.44v11.83s-37.97 5.37-60.12 5.37-52.74-6.45-52.74-6.45z" stroke="#fff"/><path d="M347.92 172.08c0-4.9-1.89-9.33-4.95-12.54a16.88 16.88 0 00-5.36-3.8c-1.01-.45-.83-.62-1.93-.85l.03 6.14c1.33.65 1.63 1.3 2.64 2.47a14 14 0 013.24 9.12c0 7.12-4.96 11.73-11.07 11.73s-11.07-4.61-11.07-11.73a14 14 0 013.24-9.12c1-1.17 1.31-1.82 2.64-2.47l.03-6.14c-1.1.23-.92.4-1.93.85-2.02.9-3.84 2.2-5.36 3.8a18.13 18.13 0 00-4.95 12.54c0 9.8 8.03 17.74 17.4 17.74s17.4-7.94 17.4-17.74z" fill-rule="evenodd" stroke="#fff"/></g><g fill="#003271" stroke="#fff" stroke-linejoin="round"><path d="M427.63 378.37s-14.01 12.8-27.72 14.62c-13.71 1.83-35.3 8.27-35.3 8.27s-.57 19.72.1 21.43c.67 1.71 1.1 2.16 3.07 2.23 6.39.23 21.95.25 38.88-3.69 22.13-5.15 43.84-18.47 43.84-18.47-5.06-2.08-17.3-3.91-25.2-5.87zm-41.03 30.45c1.5 4-22.18 7.7-21.89 13.87m-132.34-44.32s14.01 12.8 27.72 14.62c13.71 1.83 35.3 8.27 35.3 8.27s.57 19.72-.1 21.43c-.67 1.71-1.1 2.16-3.07 2.23-6.39.23-21.95.25-38.88-3.69-22.13-5.15-43.84-18.47-43.84-18.47 5.06-2.08 17.3-3.91 25.2-5.87zm41.03 30.45c-1.5 4 22.18 7.7 21.89 13.87"/><path d="M277.26 407.99c-2.44-.76-3.86.83-3.86.83v-34.16s1.48-1.34 4.06-.21c9.1 3.97 32.56 12.02 52.54 12.02 19.98 0 43.44-8.05 52.54-12.02 2.58-1.13 4.06.2 4.06.2v34.17s-1.42-1.6-3.86-.83c-9.7 3.01-35.06 10.5-52.74 10.5S286.96 411 277.26 408z"/></g><g transform="translate(330 290)" fill="#fec500"><use xlink:href="#a"/><g id="b"><use xlink:href="#a" transform="rotate(27.69)"/><use xlink:href="#a" transform="rotate(55.38)"/><use xlink:href="#a" transform="rotate(83.08)"/><use xlink:href="#a" transform="rotate(110.77)"/><use xlink:href="#a" transform="rotate(138.46)"/><use xlink:href="#a" transform="rotate(166.15)"/></g><use xlink:href="#b" transform="scale(-1 1)"/></g><path d="M363.25 385.22a398.04 398.04 0 0016.79-5.04c.07 1.73.13 3.45.18 5.19a718.45 718.45 0 01-10.61 3.2l.02 3.83c3.29-.95 6.58-1.93 9.88-2.92.02 1.66.03 3.32.02 5-3.31.95-6.61 1.91-9.91 2.84 0 1.6-.02 3.18-.04 4.77 3.65-1.01 7.3-2.05 10.97-3.07-.04 1.87-.1 3.74-.18 5.61-5.74 1.52-11.46 3.15-17.2 4.66.09-8.04.11-16.06.08-24.07zm-26 5.13c3.6-.33 7.2-.88 10.76-1.55 2.33-.45 4.07-.2 5.21.83.42.37.76.81 1.02 1.35.47.96.71 2.2.7 3.71 0 1.5-.23 2.84-.71 4.04-.3.75-.69 1.44-1.17 2.07-1.23 1.64-3.14 2.73-5.72 3.19-1.16.2-2.34.4-3.51.57-.01 2.95-.04 5.91-.08 8.87-2.16.3-4.33.55-6.5.71.1-7.94.1-15.87 0-23.8zm6.59 9.36l1.57-.24c1.24-.2 2.1-.61 2.6-1.2s.75-1.27.75-2.05c0-.75-.22-1.34-.65-1.78-.44-.45-1.26-.55-2.46-.35l-1.84.3c.02 1.77.02 3.55.03 5.32zm-36.93.12c-.02-3.9.91-6.72 2.8-8.5 1.9-1.8 4.54-2.37 7.96-1.9 3.49.48 6.18 1.74 8.1 3.96 1.9 2.21 2.87 5.17 2.87 8.99 0 2.76-.42 5.04-1.26 6.79a8.7 8.7 0 01-3.6 3.95c-1.55.87-3.48 1.19-5.8.9-2.34-.3-4.3-1.04-5.84-2.16a12.17 12.17 0 01-3.76-4.76 17.11 17.11 0 01-1.47-7.27zm6.4 1.28c0 2.4.4 4.2 1.2 5.37a4.45 4.45 0 003.21 2.03c1.39.18 2.47-.22 3.23-1.17.76-.94 1.14-2.75 1.13-5.4 0-2.23-.4-3.9-1.2-5a4.56 4.56 0 00-3.25-1.95 3.3 3.3 0 00-3.15 1.11c-.79.92-1.18 2.59-1.17 5.01zm-34.19-21.32c2.05.74 4.12 1.45 6.19 2.13-.07 2.79-.11 5.59-.13 8.4 2.3.73 4.61 1.43 6.92 2.1 0-2.8 0-5.58.03-8.36 2.1.62 4.2 1.22 6.32 1.78 0 7.94.04 15.92.13 23.93a296.7 296.7 0 01-6.35-1.71c-.05-3.26-.09-6.5-.11-9.75-2.31-.66-4.62-1.35-6.93-2.07.02 3.27.07 6.54.16 9.84l-6.27-1.87c-.34-8.25-.33-16.4.04-24.42z" fill="#fec500"/></svg>