<svg xmlns="http://www.w3.org/2000/svg" viewBox="0 0 317.5 158.75" height="600" width="1200"><path fill="#d40000" fill-rule="evenodd" stroke-width="2.25" d="M0 0h317.5v158.75H0z"/><path style="line-height:1.25;-inkscape-font-specification:'Cambria Math, Normal';font-variant-ligatures:normal;font-variant-caps:normal;font-variant-numeric:normal;font-feature-settings:normal;text-align:start" d="M6.2 102.93l-.26-6.03 2.09-.08c.79 2 1.67 3.38 2.65 4.11 1 .72 2.32 1.04 3.99.97 1.89-.08 3.34-.68 4.36-1.82 1.03-1.15 1.5-2.75 1.41-4.8-.07-1.66-.44-2.93-1.13-3.8a4.31 4.31 0 00-2.44-1.67c-.96-.25-2.21-.34-3.76-.28l-3.44.15-.1-2.56 3.48-.15c2.26-.1 3.88-.66 4.86-1.71.98-1.06 1.42-2.62 1.33-4.69a4.87 4.87 0 00-1.64-3.72 5.38 5.38 0 00-3.87-1.22c-1.59.07-2.86.49-3.8 1.26-.93.77-1.71 2.12-2.35 4.04l-2.09.09-.24-5.66a37.82 37.82 0 019.11-1.65c5.93-.25 8.98 1.88 9.17 6.38.14 3.37-1.65 5.89-5.37 7.55l.01.3c4.24 1.02 6.44 3.37 6.6 7.07.1 2.66-.71 4.75-2.46 6.3-1.73 1.52-4.36 2.35-7.89 2.5a29.4 29.4 0 01-8.22-.88zM33.18 95.94l1.04 4.88-4.25.9-1.04-4.88zM45.1 66.33l2.24 5.53-1.98.8a9.26 9.26 0 00-2.33-2.27 4.6 4.6 0 00-2.31-.78 6.18 6.18 0 00-2.54.52 5.94 5.94 0 00-3.11 2.86 9.69 9.69 0 00-.85 5.13c.12 2.07.71 4.4 1.76 7a27.65 27.65 0 003.47 6.38 9.65 9.65 0 003.92 3.26c1.36.54 2.76.51 4.2-.07a7.19 7.19 0 002.49-1.54c.56-.6.94-1.33 1.13-2.2.2-.87.25-2.05.14-3.54l1.98-.8 2.3 5.7c-1.1.84-2.3 1.6-3.54 2.3-1.24.7-2.64 1.37-4.21 2-3.38 1.37-6.4 1.26-9.05-.33-2.66-1.58-4.9-4.65-6.74-9.18a20.9 20.9 0 01-1.7-8.03c.04-2.5.7-4.7 1.97-6.58a11.8 11.8 0 015.53-4.28 28.18 28.18 0 017.23-1.88zM60.85 83.62l2.62 4.26-3.7 2.28-2.62-4.26zM74.87 71.99l.06.06q1.42 1.41 2.2 1.55.78.13 2.25-.8l.75.74-6.38 6.41-.75-.74q.82-1.28.79-2.04-.03-.76-1.62-2.34l-.06-.07q-4.74 4.52-8.79 5.02-4.05.46-7.71-3.18-3.53-3.51-3.19-7.82.34-4.34 4.6-9.04-1.3-1.29-2.08-1.4-.76-.12-2.13.77l-.74-.74 6.32-6.35.74.74q-.85 1.28-.8 2.06.05.75 1.42 2.11 9.36-8.94 16.36-1.97 3.62 3.6 3.33 7.96-.3 4.32-4.57 9.07zM61.05 58.22l12.48 12.43q5.9-6.4-.13-12.4-3.12-3.1-6.07-3.13-2.97-.04-6.28 3.1zm-2.72 2.83q-5.9 6.42.07 12.38 3.12 3.1 6.1 3.18 2.98.05 6.3-3.15zM84.86 59.43l4.06 2.9-2.53 3.54-4.06-2.91zM74.23 28.34l5.41 2.5-.9 1.93q-1.9-.31-3.24-.05-1.35.25-2.22 1.01-.88.76-1.5 2.11-.93 2.01-.31 4.22.6 2.18 2.88 4.32 2.27 2.14 6.08 3.9 3.83 1.77 6.89 2.29 3.04.5 5.1-.3 2.03-.82 3-2.93.75-1.6.77-2.83 0-1.23-.68-2.37-.67-1.17-2.32-2.69l.9-1.93 5.59 2.58q-.37 2.06-1.03 4.1-.63 2.04-1.7 4.35-2.29 4.96-6.82 5.95-4.54.98-11.2-2.1-4.19-1.93-6.73-4.7-2.53-2.78-3.07-6.13-.53-3.36 1.11-6.92.82-1.77 1.71-3.19.88-1.42 2.28-3.12zM97.48 30.25l4.84 1.23-1.07 4.22-4.84-1.23zM98.74 19.62q1.27.12 2.03.07.76-.08 1.24-.32.46-.26.76-.73.28-.47.62-1.5l1.05.1-.9 9.41-1.05-.1q-.21-1.36-.58-1.85-.38-.49-1.14-.69-.76-.22-2.35-.37l-18.54-1.76q-1.48-.14-2.15-.1-.7.04-1.09.27-.4.2-.66.58-.27.39-.64 1.35l-1.05-.1 1-10.64q.48-5.01 2.64-7.27Q80.07 3.68 84 4.06q2.23.2 3.93 1.15 1.7.94 2.71 2.46 1 1.52 1.31 3.5.31 1.98.11 4.1-.23 2.38-.44 3.68zm-8.9-.84l.24-2.49q.23-2.42-.24-4.04-.5-1.65-1.87-2.63-1.4-.97-3.82-1.2-1.85-.18-3.12.2-1.29.37-2.12 1.18-.83.79-1.25 1.96-.43 1.17-.57 2.58-.2 2.13-.21 3.2zM99.36 3.44l4.99-.29.25 4.34-4.99.3z" font-weight="400" font-size="44.1" font-family="Cambria Math" letter-spacing="0" word-spacing=".25" fill="#fc0" stroke-width="1.06"/><path d="M57.88 35.89l-17.13-8.73 3.01-18.98-13.6 13.59-17.12-8.73 8.73 17.13-13.6 13.6 19-3.02 8.72 17.13 3-18.98zm-7.31-1.16L36.9 36.9l-2.17 13.67-6.28-12.34-13.67 2.17 9.78-9.79-6.28-12.33 12.33 6.28 9.79-9.78-2.17 13.67z" fill="#fc0" stroke-width=".53"/></svg>