<svg height="600" width="1200" xmlns="http://www.w3.org/2000/svg" xmlns:xlink="http://www.w3.org/1999/xlink"><path d="M0 0h1200v600H0z" fill="#006d21"/><path d="M0 200h1200v400H0z" fill="#fff"/><path d="M0 400h1200v200H0z" fill="#df0000"/><g fill="#fff" fill-rule="evenodd"><path d="M381 47.7c-1 14-2.3 38.4 9.5 41 14.3 1.3 6.4-24.3 11.6-28.9 1-2.3 2.8-2.3 3 .6V82c-.2 7 4.4 9.1 8 10.6 3.8-.3 6.3-.2 7.7 3.4l1.8 37.5s8.7 2.5 9-21c.5-13.9-2.7-25.5-.8-28.2 0-2.6 3.4-2.8 5.8-1.5 3.7 2.6 5.4 5.9 11.2 4.6 8.8-2.4 14.1-6.7 14.3-13.5a58.8 58.8 0 00-4-19.4c.3-1.1-1.8-4.2-1.4-5.4 1.6 2.5 4 2.3 4.6 0-1.5-5-3.9-9.7-7.6-11.7-3.2-2.8-7.7-2.2-9.4 3.5a31.3 31.3 0 007.2 21c1 2.4 2.4 6.6 1.8 10.3-2.6 1.5-5.1.9-7.3-1.4 0 0-7-5.2-7-6.4 1.9-12 .4-13.3-.6-16.6-.7-4.6-3-6-4.7-9.2-1.7-1.9-4.1-1.9-5.2 0-3.2 5.4-1.7 17 .5 22.1 1.7 4.8 4.1 7.8 3 7.8-1 2.7-3 2-4.4-1-2.1-6.5-2.5-16-2.5-20.4-.7-5.3-1.3-16.7-4.9-19.6-2.1-3-5.3-1.5-6.4 1.1a96 96 0 00.3 15.6c2.5 8.5 3.2 16 4.4 24.9.3 11.8-6.8 5-6.5-.8a53 53 0 00-.2-22.5c-1.2-3-2.6-3.8-5.4-3.3-2.2-.1-8 6.2-9.6 16.6 0 0-1.4 5.4-2 10.1-.8 5.4-4.3 9.2-6.8-.7-2.1-7.2-3.5-25-7-20.9z"/><path d="M419.8 104.8c-12.6 6.2-24.8 11.9-37.2 17.9.4-8.5 17.7-23.7 29.4-24 7.7.3 5.7 3 7.8 6z"/><path d="M413.3 116.4c-19.6 50.6 46 57.7 53.2 2.1.7-2.3 3.5-4.5 4-.8-1.5 50.3-50.7 53.7-59 38-2.2-3.8-2.8-12.1-3-17-1.2-10-6.4-6.2-7.2 3.6-.9 5.5-.7 7-.7 12.3 2.7 39.7 66 22.6 76.3-10.2 5.5-18.1-.9-31.5 2-31.5 6.4 6.8 15.1 1 17-1.4.9-1.2 3-2 4.4-.4 5 3.5 13.5 1.8 15.3-4.4 1-6 2-12.4 2.1-18.8-4 1.2-7 2-7.2 3.7l-.9 5.4c-.3 1.7-3.8 1.8-3.9-.4-1.5-7-7.8-7.9-11.6 2.9-2.6 2-7.2 2.4-7.7-.7.6-7.1-2.3-8.1-8-4.7l-5.7-42c2.5-.2 4.7 1.6 6.9-1.1-2.4-7.6-7.5-23-10.4-24-1.4-1.7-2.5-.7-4.3-.3-3 1-5.9 3.6-5 8.7 3.6 21.9 6 38.5 9.5 60.3.6 2.6-1.6 6-4.3 5.6-4.7-3.2-5.9-9.6-13.9-9.3-5.8 0-12.4 6.4-13.3 12.4-1 4.9-1.3 10.1 0 14.3 4.1 5 9 4.4 13.3 3.3 3.5-1.4 6.4-5 7.7-4.1.8 1 .2 12.6-16.6 21.5-10.2 4.6-18.2 5.6-22.6-2.6-2.7-5.2.2-25-6.4-20.4z"/><path d="M496.5 65c4-1.4 22.6-22.7 22.6-22.7l-2.8-2.3c-1-1-1-1.8 0-2.7 4.6-2.7 3.1-8.6.7-11.3-4-1.8-7.5-1.2-10 .1-3.3 3.1-4 8-1.5 11.2 2.5 1.2 5 3.7 3.3 5-7.6 8.2-28.5 22.3-26.1 22.8.5.6 13.4.6 13.8 0zM383.8 140.6c-7 11.1-7.6 27.8-3.7 32.7 2 2.4 5.4 3.4 8 2.7 4.3-2 6.2-10.8 5.2-14-1.5-2.4-2.6-2.8-4.1-.8-3 6.3-4.4 2-4.6-1.5-.5-6.7.1-12.8.8-17.7.8-5 0-3.4-1.6-1.4zM682.7 122.7c-6.7-14.5-16-28.9-19-34.4-3-5.6-25.5-38.2-28.8-41.9-7.3-8.6 11.8 3.6-2.5-13.6L622.1 24c-2.2-1.6-7.8-4.5-8.8.4-.5 4.3-.2 6.6.5 10.2.6 2.4 4 6.4 5.8 8.8C642.4 74 662.6 105 682 144c3.1-1.5 2.4-18.8.6-21.3z"/><path d="M653 171.4c-1.3 1.5 3.3 8 9.3 8 10-1.2 18.9-6.9 27-21.7 2.2-3.5 6-10.9 6.2-16.6.8-33.6-1.7-59.8-6.7-84.1-.3-2.4-.1-5.1.3-5.9.6-.7 2.8 0 4-1.9 1.7-1.7-4.6-16.2-8.1-21.8-1.3-2.5-1.8-4.1-3.9.3-2.2 3.6-3.6 10-3.5 15.8 4.8 33.1 6.3 62.1 9.4 95.2.3 3.2-.2 7.9-2.3 9.7a93.3 93.3 0 01-31.6 23zM788.5 171.3c-7.2 4.1-7.2 9-1.4 9 10-1 21.9-2 30-14.2a47.7 47.7 0 005-18.6c.7-33.6-.5-58.7-5.5-83-.3-2.4-1.4-7.8-1-8.6.7-1.6 4 .2 5-1.7 1.8-1.7-8.4-14.8-12-20.4-1.2-2.5-1.7-4.2-3.8.3-2.2 3.6-3 10.1-2 15.8 5.3 36 9.2 63 10 94.9-.4 3-.5 4.6-2 8.4-3 4-6.6 9-9.8 11.5-3.3 2.4-10.2 4.8-12.5 6.6z"/><path d="M793.9 139c0-8.4.1-15.6-.2-22a39.3 39.3 0 00-3.5-15.7c-2-4.8-.8-8.7-1.8-13.7-1-5.1-.7-12.7-2.1-18.8-.4-2.3-1.7-9.9-1.3-10.6.6-1.7 2.9 0 4-1.9 1.6-1.8-5.8-21-9.5-26.4-1.4-2.4-3.8-1.6-6.8 2.4-2.8 2.6-1.8 8.6-.7 14.3 7.2 37.5 12.5 71.5 11.4 107.2-.4 3 10.6-9 10.5-14.8zM740.7 92.5c-4.5-.1-14-8.8-16.7-14-1-2.9-.4-5.7.5-7.4 1.7-1.1 4.3-2.3 6.2-1.2 0 0 2 2.8 1.6 3.2 2.5 1.2 3.5.5 3.8-.5.1-1.8-.8-2.8-.8-4.8 1-5.2 7-6 9.3-2.7 1.7 2 2.3 6.4 2.6 9.3 0 1.5-2.5-.2-3.9.1-1.3.4-1.7 2-1.8 3.4-.2 3.8-.7 10-.8 14.6zM657.2 148.4c1.3-11.5-.4-31.8-.5-38.6-.5-15.9-3.1-46.7-4.3-51.8-1.4-9.7 4 1 3.2-4.6-1.7-9.6-7.1-16.2-13.4-25-2-3-2-3.5-5.1.6-3.5 8-.5 13.4.4 19.5a363 363 0 018.4 56.6c1.3 18.2 1.6 37.9.5 57 3.4.2 9-5.5 10.8-13.7z"/><path d="M809.3 130c-8-13.3-20-27.8-23.2-33.2a768.1 768.1 0 00-34-44c-9.9-10.5 4.6-1.7-1.8-9.8-5.5-6-7.1-8-11.8-11.5-2.3-1.5-3.8-4.4-4.5.5-.3 4.3-.7 9.4-.4 13 0 2 2.1 5.9 4 8.1 24 29.7 50.4 60 71.6 98 3-1.6 2-18.7 0-21z"/><path d="M447.3 105.4c-.6 1-1.9 2.3-1.4 3.6.8 1.2 1.6 1.5 3 1.5 1.3 0 3.2.3 3.5-.4.7-.8 1.3-2.4.7-3.8-1.4-3.4-5.1-2.1-5.8-1z" fill="#006421"/><path d="M524 36.3c-7.2 20.7 4.2 43.4 12.1 41.2 5.8 2.4 9.4-8.5 11.7-20.4 1.6-3.3 2.9-3.7 3.7-2-.2 15.9 1.1 19.4 5.2 24.2 9 7 16.6.9 17.2.3l7-7c1.6-1.7 3.7-1.8 6-.4 2.1 2 1.8 5.4 6.4 7.7 4 1.6 12.2.4 14.2-3 2.6-4.4 3.2-6 4.4-7.6 1.9-2.5 5-1.4 5-.6-.3 1.4-2.1 2.7-.9 5.2 2.2 1.7 2.7.6 4 .2 4.7-2.2 8.1-12.2 8.1-12.2.2-3.7-1.9-3.4-3.2-2.6-1.8 1-2 1.4-3.7 2.5-2.2.3-6.6 1.8-8.8-1.5-2.2-4-2.2-9.7-3.9-13.7 0-.3-3-6.4-.2-6.8 1.4.2 4.3 1 4.8-1.5 1.4-2.4-3.1-9.2-6.2-12.6-2.7-3-6.4-3.3-10-.3-2.6 2.3-2.2 4.9-2.7 7.3-.6 2.9-.5 6.3 2.4 10 2.5 5 7 11.4 5.6 20.4 0 0-2.7 4.2-7.4 3.7-2-.4-5-1.3-6.8-13.7-1.3-9.5.3-22.7-3.7-28.8-1.4-3.8-2.5-7.4-6-1-1 2.5-5 6.3-2 14.2a42 42 0 012.2 22c-1.6 2.5-2 3.4-4.2 6-3 3.3-6.4 2.4-9 1.2-2.4-1.6-4.2-2.5-5.3-7.6.2-8.1.6-21.5-.9-24.3-2.2-4.4-5.8-2.8-7.3-1.5-7.5 6.8-11.1 18.3-13.4 27.4-2 6.7-4.2 4.8-5.8 2.1-3.7-3.5-4-31-8.5-26.5z"/><path d="M546 81.4c3.2-2.3 1.7-4 6.6 1a83.8 83.8 0 0110.8 36.3c-.3 3 1.8 4.9 2.8 4.3.5-7 17.6-16.8 33.2-18.3 2.4-.5 1.3-5 1.6-7.4-.9-8.7 5-16.6 13-17.2 11.2 1.6 14.8 7.6 15 16.6-1.2 17.4-19.2 20.3-29.4 21.7-1.6.6-2.2 1.3 0 2.1l42.6.2 2.1 1.3c.3 1-.6.1-2.3 3a34.4 34.4 0 00-4.3 13.3c-12.6 4-25.7 5.9-39 7.5-4.7 2.3-7 5.5-6 9 1.5 3.9 11.8 7.7 11.8 8 2 1.2 4.2 4-.6 9.8-20.7-.9-36.8-9.7-42.4-22.2-1.7-1.3-3.5 0-4.6 1.7-8.1 10.5-16.1 19.9-30 24.9-8.2 2-16.6-1.3-20.6-6.7-2.6-3-2.5-6.5-3.5-7.2-4.5 2-42.8 18.3-38 10.7 9.4-10 25.5-17.3 39.8-27.2 1-3.3 2.9-14.5 8.5-18.1.3 0-.9 6.6-.7 9.3 0 2.3-.2 3.2.3 2.6 1-.6 18.2-14.2 19.6-18.4 1.7-2.4.5-8.4.5-8.6-3.3-8.4-7.8-9.1-9.5-13.3-1.5-5.5-.8-11.8 2.3-13.5 2.8-2.6 6.1-2.3 9.2.5 3.5 3.2 6.6 9.3 7.5 13.8-.6 1.8-4.6-1.2-6-.3 2.5 2.5 3.6 5.5 4.5 9 2.3 9.6 1.6 13.3-.7 19.5-7.7 16.1-17.5 21-26 26.9-.3 0-.5 4.1 2.8 6.3 1 1.1 5.6 1.7 10.8 0a63.4 63.4 0 0026-27.1c1.5-8.6-.6-17.8-2.8-25.7-3.4-7.8-7.4-19-7.4-19.1 0-4.9.3-6.6 2.4-9zM434.5 36.5c5 2.3 14.1 1.3 13.8-6.6l-.3-3.7c-1-2.3-3.7-1.7-4.3.7-.2.8.3 2-.4 2.5-.4.4-2 .1-2-2 0-.7-.4-1.5-.7-2-.3-.1-.5-.2-1.1-.2-.7 0-.7.2-1 .8-.2.6-.4 1.1-.4 1.8-.1.8-.4 1-1 1.2-.6 0-.5 0-1-.3-.3-.3-.7-.5-.7-1 0-.6-.1-1.6-.3-2-.3-.3-.7-.5-1.2-.6-2.7 0-2.8 3-2.7 4.2-.2.2-.3 5.7 3.3 7.2z"/><path d="M578 97.3c5 2.3 16.6 1 13.8-6.6l-.2-3.7c-1-2.3-3.8-1.7-4.4.7-.2.7.4 2-.3 2.4-.5.4-2 .2-2-2 0-.7-.5-1.4-.8-1.9-.3-.2-.5-.2-1-.2-.7 0-.7.2-1 .7-.3.6-.5 1.2-.5 1.9s-.3 1-1 1.1c-.6 0-.4.1-1-.2-.2-.4-.6-.5-.6-1 0-.7-.2-1.6-.3-2-.3-.4-.7-.5-1.2-.7-2.7 0-2.9 3.1-2.7 4.3-.2.2-.4 5.6 3.3 7.2zM661.8 72.1c4.9 2.3 14.1 1.4 13.7-6.5l-.2-3.7c-1-2.4-3.8-1.8-4.4.6-.2.8.4 2-.3 2.5-.5.4-2 .1-2-2 0-.7-.5-1.5-.8-2l-1-.2c-.7 0-.7.2-1 .8-.2.6-.5 1.2-.5 1.8 0 .8-.3 1-1 1.2-.6 0-.4 0-1-.3-.2-.3-.6-.4-.6-1s-.1-1.6-.3-2c-.3-.3-.7-.5-1.2-.6-2.7 0-2.9 3-2.7 4.2-.2.2-.3 5.7 3.3 7.2zM705.2 135.3c-8.6 9.6-4.8 25.5-2.9 29 2.8 5.6 5 9.2 10.6 12 5 3.6 8.8 1.3 11-1.2 5-5.2 5-18.5 7.4-21.2 1.7-4.8 5.8-4 7.8-1.8 2 2.8 4.3 4.6 7.2 6.1 4.7 4.2 10.3 5 15.8 1.2 3.7-2.2 6.2-4.9 8.4-10.3 2.4-6.5 1-36.8.6-54.7l-4.9-25c0-.2-.6-11.8-1.1-14.6-.1-1-.4-1.4.8-1.3 1.2 1 1.4 1.2 2.2 1.5 1.2.2 2.4-2 1.6-3.9L758 29.6c-1-1-2.1-2-3.6.2a8.5 8.5 0 00-2.9 6.4c.3 5.1 1.2 10.3 1.6 15.4l4.7 26.3c1.4 18.6 1.8 34 3.3 52.6-.2 8-2.7 14.8-5 15.8 0 0-3.5 2-5.9-.2a70.7 70.7 0 01-8.5-11.4c-3.5-3.2-5.8-2.3-8.3 0-7 6.6-10 19-14.7 27.6-1.2 2-4.6 3.6-8.4-.1-9.6-13.1-4-31.7-5.1-27zM664 26.3c4.4 1.8 7.5 10.7 6.5 15-.9 5.4-3.2 11.2-4.9 10.4-1.8-.6 1.2-5.3-.5-10.2-1-3.2-7-9-6.3-10.7-1.3-3.6 2.5-5.2 5.2-4.5z"/><path d="M719.3 140.5c.9-10.6-.7-17.1-1-23.4-.2-6.3-7-54.1-8.4-58.9-1.7-9 6.6-1.2 5.7-6.4-2.9-6.6-10-16.2-12.2-21.9-1.4-2.4-.8-4.6-3.8-.6a49 49 0 00-2.7 22.3c7.1 37.5 14.5 68.8 13.4 104.5 3.4 0 7.3-7.8 9-15.6zM794.2 41.4c4 2 6.4 13.1 6 16.3-.9 5.8-3 12-4.5 11.3-1.7-.8.3-8.7-.5-11.1-.8-3.5-6.3-9.8-5.7-11.6-1.2-3.9 2.3-5.6 4.7-5zM497 120.4c3.8 1.4 6 9.6 5.6 12-.7 4.2-2.8 8.8-4.2 8.2-1.6-.5.3-6.3-.5-8.1-.3-4.4-5.6-6.6-5.5-8.5-1-3.5 2.2-4.1 4.6-3.6z"/><path d="M589.4 132.6c5 .4 7.4 4.2 2.8 5.9-4.6 1.5-9 2.7-9 9.3 1.7 9.2-2.3 6-4.7 4.8-2.8-2-10.7-6.9-11.8-17.4-.2-2.5 1.8-4.6 5-4.6 4.7 1.3 11.7 1.4 17.7 2z" fill="#006421"/><path d="M394.7 23.6c5.7 1.7 6 10 5.6 12.4-.8 4.5-2.8 9.2-4.2 8.6-1.6-.5 0-6.5-.8-8.4-.8-2.6-5.6-7.4-5-8.8-1.1-3 2.1-4.3 4.4-3.8zM506.2 62.7c-4.3 2.4-6 9.4-3.3 13.4 2.5 3.6 6.5 2.3 7 2.3 4.3.5 6.8-8 6.8-8s.1-2.4-5 2.1c-2 .4-2.3-.4-2.8-1.5-.5-2.3-.4-4.5.6-6.7.8-2.1-.9-3-3.3-1.6zM538.7 20.4c-2.2 1.5-6.5 6-6.7 11.1 0 3-.6 3 1.3 4.8 1.4 2 2.8 1.8 5.5.3a6 6 0 002.7-3.9c.7-3.3-3.5 1.6-4-2.1-1-3.4 1.7-4.8 4.3-8.2 0-2.2 0-3.8-3.1-2zM564.9 25c-1 2.1-2.1 13-2 13-.7 3.2 3.5 4.6 5.3.4 2.8-7.6 2.8-10.8 3-14-.8-5-4.1-4.8-6.3.7zM729.9 109c.5-.5 23.2-16.7 23.2-16.7 2.3-.8 1.8 8.3.8 8.3.4 1.8-22.4 17.3-24 16.7-1.2.8-2.3-6.3 0-8.3zM750.6 108.9c4 2 5.5 13.7 5.1 16.9.1 6.1-3.8 11.1-5.4 10.3-1.6-.7.2-7.7-.6-10.1-1-3.5-4.3-10-3.7-11.8-1.2-4 2.1-6 4.6-5.3zM615.6 159.3c1.6-2.3 6.4-5.7 6.6-5.7 2.2-1 4.4 1 4.3.8.3 2.2-1.5 4.3-.9 7.3.5 1.2.9 2.6 3 2 3.7-2.8 7-3 10.6-3.1 2.8.1 2.9 4.8 1.1 4.9-6.6 1.4-9.6 3.2-14.3 5-2.3 1.3-4.2-.4-4.2-.5s-1.3-1.3-.4-4.3c.2-2.4-.8-3.7-2.8-3.4-1.5.8-2.8 1.3-3.6-.4-.3-1.3-.4-1.9.6-2.6zM774.4 165.6c1 1.2 1.6 2.4 0 4.4-1.6 1.4-2.8 2.2-4.4 3.7-.7 1.3-1.2 3.2 1.1 3.8 4.3 1.2 14-5.1 14-5.3 1.7-1.1 1.1-3.4 1-3.4-1-1-3-.4-4.4-.6-.7 0-2.9-.3-1.9-2.3 1-1.2 1.2-2 1.8-3.4.7-1.5.1-2.5-2.3-3.2-2.4-.5-3.4-.3-6 0-1.5.3-2 1-2.3 2.7.1 2.7 1.7 2.5 3.4 3.6z"/><g fill="#006421" transform="matrix(1.2 0 0 1.2 156 -121)"><ellipse cx="381.3" cy="181.4" rx="3.4" ry="3.1" transform="matrix(.86563 .50068 -.30041 .51938 105.3 -103)"/><ellipse cx="381.3" cy="181.4" rx="3.4" ry="3.1" transform="matrix(.31678 .69557 -.5691 .13939 278.8 -161)"/></g></g><g transform="translate(600 310)"><g id="b"><path id="a" d="M0-60V0h30" transform="rotate(18 0 -60)"/><use transform="scale(-1 1)" xlink:href="#a"/></g><use transform="rotate(72)" xlink:href="#b"/><use transform="rotate(144)" xlink:href="#b"/><use transform="rotate(-144)" xlink:href="#b"/><use transform="rotate(-72)" xlink:href="#b"/></g></svg>