<svg xmlns="http://www.w3.org/2000/svg" width="750" height="500"><path fill="#036" d="M0 0h750v500H0z"/><path d="M41.5 93.3c-21.1 70.5 64 127.5 121.8 76.4 60.8-63.8-7-150-77.4-122.4a52.2 52.2 0 0147.4 87.5 53.6 53.6 0 01-91.8-41.5zM412.6 84.6c-2.7 1.3-4.7 4.9-5.9 7.8l-8.1 24-4.3 10.9c-2.6-.4 1-4.8.9-6.7.8-4 2.8-7.8 3-11.8-.7-3 0-6.9-1.5-9.3-2.2 5-5 10-7 15.2-1.4 6.3-3.3 12.5-4.1 19-.5 3.3-1 6.5-2.2 9.7-2.6-.2-2-5-3.5-6.8-1.4-4.6-4.3-8.5-6.3-12.7-1.1-1-3.5-8.4-3.5-4.3l-.7 8.9-17.8-33.2c.5 3.6 0 7.5 1.3 10.9 2.9 6.2 5.5 12.5 8.3 18.7-1.5 1.4-1.8-.9-2.5-1.8l-16.4-29c-2.2 1.6-.7 4.5-1 6.7 1 3.1 3 6 4.4 9l8 14.4c-2 2-3-3.9-4.4-5.2-5-8.6-9.8-17.2-15-25.7-2.1.8-2.8 2.4-2.5 4.6-.3 2.1.6 4 1.8 5.7l11.6 19.9c-1.3 1.5-1.7-.7-2.5-1.6l-18.6-29.5c-1.5-.7-3.7-2.5-3.2.5-.7 3.8 3.4 6.4 4.7 9.7l16.7 25.6c-1.1 1.5-1.6-.5-2.4-1.3L329.4 112c-1.3-.3-3-1.1-2.4 1-.1 1.3-.5 2.7.7 3.7l16.8 25.2c1.7 3.6 3.4 7.4 5.3 11l9.5 9.9c-2.3 1.8-4.6-4-6.9-5.1-2.4-2.7-5.6-4.9-7-8.4-1.6-2.6-2.6-5.7-5.1-7.6-2.9-2-5-6-8.3-7-1.1 2.4-.2 7.7 3 9.5.3.9 4.7 3.9 2.3 3.3-4.8-.6-9.3-2.2-13.8-4-2.7 2.7 6.5 4.8 1.3 5.8-3.7.1-6.6-3.3-10-4.5-8.6-4.7-17.3-9-26-13.3l-5.4-1.6c-.5 3.2 4.4 4 6 6.3l20 10.5c-.2 2-2 .5-3.2.3l-37.1-12c-2.1-.5-1.7.6-.9 2 .2 1.7 1.8 1.7 3 2.2l29.2 9.8 1 4.6c-2.1-1.8-4.3-3.9-7.3-4-6.4-1.6-12.9-.3-19.3-.2-3.4-.9-3.9 2-.5 2.5 2.8 2.1 6.3 1 9.5 1.1l15.5-.5c1 3-5 1-5.2 3.4-.6 2.8 4.7 2.8 6.7 2.2 3 0 5-4.3 7.5-3.6-.7 2.9-5.6 3.5-6.2 6.4-.3 3 5.6 2 7.3.8 2-1.6 5.5-4.1 5.6.3.6 4 6 2.4 8.8 3.8 5.1.8 10.4 1.1 15.4 2 4.9 2.2 9.8 4.3 14.6 6.6-1 2.7-5.2-1.5-7.5-1.3-3.6-1-7-3.1-11-3.1a34 34 0 00-10-.2l-30.8 2.5-28.6 4.7c-2.4.8-7.7 2.2-2.6 3.2 10.8-.5 21.6-1.4 32.4-2.3.7 2-1.6 1.3-2.7 1.6l-27 2.7c-2.7 2-6.4 3.2-8 6.5.5 4.8 6.5.4 9.4.8 7.8-1.3 15.5-2.6 23-5 2.2.2 7.8-3.8 8.2-1-8.5 2.7-17 5.3-25.5 7.7l-5.5 1.3c-.5 4.4 6 1.8 8.8 2.5 5.9-1.4 11.5-3.8 17.4-5.4 3.1-.3 7.9-4 10.1-2.5-2 2.1-6.7 3.2-9.6 4.9-6 2.6-12.1 5-18 8-3.9 4 4.1 3.6 6 1.6l18.7-9c1.6 1.2-.7 1.8-1.5 2.7-3.5 2.7-6.9 5.5-10.8 7.7-1.5 1.2-4 1.6-4.3 3.9 3.5 2 6.7-.5 9.8-2 8-5.2 16.2-10.3 24.4-15.3l10.7-4.4c1.4 1.4-.9 1.9-1.7 2.7l-11.9 7.9c-4.3 4.4-8.2 9.3-13.3 13-2.3 2-4.8 3.7-6.6 6l-11.3 11c-1.1 3.8-3.6 7.4-3.3 11.5 0 4.4-.5 8.9 0 13.2.4 1.9 1.5 6 1.8 1.9.2-2 1.5-8.5 3-3.9.7 1.7 1.5 6.9 2.4 6 1.3-2.6 1.5-6.4 3.7-8.4 2 1.1 3.4 3.9 5.3.7 2.3-2.7 2-6.7 3.1-10l3-12.8c1.8-.6 1.4 1.6 1.8 2.8l1.8 7.9c4-1.8 2.3-7.1 3.6-10.5.3-2.6 1-9.3 3.8-4.1 1.6 3.8 6-.6 6-3.4l2.6-13.3 3.7 6.3c4.1-.2 5.5-4.4 8.2-6.8 2.4-2.5 4.6-5.4 7.3-7.6 3-1.6 5.9-3.7 9-5 3.1 2.8-1.5 6.6-3.3 9-3.8 4.8-8.6 8.8-12.7 13.4-1.6 1.9-4.1 3.5-3.5 6.2 2 1 4.2 1.8 6.3 2.7-3.1 1.5-6.5 2.9-9.3 4.8-2.8 2.4-5.8 4.5-8.7 6.7-.8 2.1-1.3 4.5 1.8 3.6 2.2-.3 8.2.6 3.5 2.8-4.4 3-9.6 4.7-14 7.6-1.2 1.6-4.4 4.2-.5 4 2.7-.3 6.7-4.4 8.7-2.3-2.8 3-6.5 6-9.5 9.1-1.6 1.2-5 4.6-3 5.5 4.9-2.3 8.3-6.7 12.4-10 1.4-2.3 5.3-4.3 4.1.2-4.8 6-9.4 12-14.4 17.9.5 5.8 4.3-1.7 6.1-3.3 3-3.4 5.6-7 9.4-9.5 1.3-.3 4.7-5.2 4.9-3.2 0 1.7.4 3.6-1 4.9-3 4-5 8.6-7.4 12.9-.4 1.9-.8 7.3 1.9 4.7 3.2-6 7.1-11.6 9.7-18 2.6-5.4 4.3-11.3 6.5-16.9 1.9-2.7 2.8-1.8 2.5 1 .3 2.7.2 8.4 2 8.8 3.4-7.6 7.6-14.8 11.1-22.4l4.2-10.8c2-.2 1 1.9 1.3 3-.2 2.5.2 5-.2 7.4-2 6-3.6 12-6.5 17.7-1.8 3.6-4.3 6.9-6 10.5-1.6 2.2-1 2.3.9 1 3.4-1.6 5.7-4.5 8-7.3 3.7-3 1 3.8 0 5.2-2 5.7-3.2 11.7-5.5 17.3 0 1.7-.6 5.6 1.6 2.6 4-3.2 5.5-8.3 8-12.6 1.4 2.1 4.2 3.4 5.6.7-.3-3.3-1.8-6.8-.3-10a141 141 0 003.5-16.4c.5-3.4.7-6.8 1.1-10.1 1.9-1 1 2 1.2 3.1v7.7c1.8.2 5.2-3 6.2-1-1.9 1.6-4.7 2.6-6.4 4.3l-.2 6.5 6.8-4.2c1.7 1.1-.5 2-1.2 2.9l-5.6 5.2-.1 4.5 4.7-1.5c1.3 1.5-.9 1.9-1.8 2.6-1 1-3.4 1.2-3.1 3l-.5 13.8c.9-1.6 3.8-5.6 3.4-5.8-1 1.9-4.5 2-2.1 0 1-1.2 6.4-5 4.5-1.2-1.9 2.7-3.5 6.3-5.5 8.5-.5 0-1.2 3.9.5 3.1 1.4 1 5.7 1.4 2.7 3-1.2 1.3-2.8 2.5-4 3.8.2 3.9-.8 10.3 0 12.5 1.1-1.6 4.8-4.4 4-5.2-1.5.8-6.3.4-3-.8 2-.8 7.8-1 4.2 2.2-2 3.5-6.6 4.6-5.8 8.4 0 2.8-1.1 4.5 2.3 4 4-.4 4.2 3.5.7 4.5-2.4 1.4-4.6 1.4-3.1 4.6.8 2.1 6 3.5 4.7 5.7-.2-2.4-.8 1-2.1-1.5-1.7-1.3-3.8-4.5-3.1-.3l-1 24c1.7-.5 4.6 1.9 4.6 3-1.7 1.5-5.7-5.4-4.7 0 0 2.5-.6 7.1 0 8.2.8-.6 2 1.3 3 1.7l3.5 2.3c-.6 2-2 0-3-.5l-3.9-2.7c.3 3.3-1 9.3.2 11 1.5 1 5.4 4.2 5.3 6-1.9.5-4.7-5.2-6-4.9l-.5 14.6c2 .7 6.2 3.3 7.3 5-1.9 1.5-5.7-4.2-7.3-3.5-.3 4 0 8-.7 11.8-.7 2.8 7 2.1 5.4 5-2.9-1-6.8-5-6.9.3-.6 4.2-4.4 8.5-1.4 12.5 1.1 3.3 4.8 4.7 7.6 6.3 3.2-.5 6.4-2.1 9.8-2.2 5-.8 10-1 15-1.9 2.2-1.5 4.8-3 1.6-5-2.5-3-1.9-7.5-3.4-11 0-3-.6-4.2-3-2-2 .3-5.2 4.5-6.3 1.9 3-1.4 5.7-3.3 8.7-4.7-.4-3.8-1.1-7.5-1-11.3-2.4 1.5-5.9 4.7-8.2 4.3 1-2.1 5.5-3 7.4-5.3 1.4 0 .5-2 .7-3.2V371a13.7 13.7 0 01-8.2 4.8c-2.5-2.2 3.8-1.4 4.6-3.3 1.5-1.6 4.2-2.7 3.5-5.3v-8.7c-2 1.2-5.6 5.8-7.4 4 2-1.9 6.4-3.6 7.3-6.3l-.1-11.3c-2.1 2.8-5 4.7-8.3 5.6-1.7 1.8-5 .2-1.7-.7 3.3-1.1 6.6-2.3 8.6-5.3 1.9-1 1.3-2.7 1.3-4.5v-8c-4 3.4-7.5 7.2-11.4 10.7-2-2.1 3.8-4 4.6-6.1 2-2.3 5.2-4.6 6.7-6.6v-8.8c-1.6 1.4-4 3.2-1 1.5 1.5 1.6-1 1.7-2 2.4l-4.1 2c-1.5-2.8 4.7-4.1 5.9-6.5 1.6.4 1-1.2 1.1-2.8v-6c-2.1 3.6-6.2 1.5-9.4.8-2.4-.2-.2-1 .8-1.5l7.8-4.2c1.4 1.5-1 1.8-2 2.5l-4.5 2.4c2.8 1.6 6.3.6 7.2-2.2 0-4.9-.1-9.7-.4-14.6-2.2 2.2-3.5 4.7-6.3 5.7 1.3-.6 6.7.2 3 1.2-2 .4-9 .6-4.1-2 2.5-1 4-2.8 5.7-4.9 1.9-1 1.8-1.8 1.6-4l-.4-9c-1.1 1.3-6 5.2-4.8 5.2 1.5-1 7.2-1.2 3.8.4-2.2-.1-6.9 3-7.7.3 3-1.8 5.3-4.5 7.8-6.9 1.5.2.6-2 .7-3.3l-1-27.2c-1.5 1.3-7.4 6-5.3 1.3 1.5-1.7 3-4.6 4.6-5.2 1-.5.1-2.5.4-3.6.2-2.8-1.5-5.2-2.3-7.7 0-1-2-2.9-.4-3.2 1.8 1.6 2.7 5.7 4.1 8.2 2.3 5.1 4.8 10.2 6.8 15.4 1 4.4 2.2 8.7 2.4 13.3 1-.4 3.1.2 3-1.5.3-1.7 1.6-3.5.5-5.1-4.9-13.3-10.4-26.3-15.6-39.4 1.2-1.3 1.6.5 2.1 1.5 3 6 5 12.4 7.5 18.6a276 276 0 008.2 19.9c4.7-2.7.8-7.6.2-11.6-2.2-7.3-5.2-14.3-7.7-21.4-.8-1.3-2.4-2-3.5-3l-4.9-3.5c1.3-2.5 4.3 1.9 6.3 2.1 3.5 3.7 4.3-2 7.4-2.6 1 3.2-5 5.8-1.8 9.4 2.2 7.8 4.3 15.5 7.2 23l1.5 4c-1 1.5.5 7.7 2.5 6.1.7-3.3 2.9-6.7 1-10-2.6-10.3-6.3-20.3-9.4-30.4 0-3.7 2.3 1.6 2.6 3.2 3.6 9.6 7.4 19.2 10.6 29-.7 3-.7 9 3 5.6.3-3.9.6-7.8-1-11.4-3.3-8.7-5.9-17.6-8.8-26.4-1.6 1.8-4.8 0-5.2-2 .5-4.3-3.1-4.2-6.4-4-1.4 0 2.5-2 3-2.8 1.8-1 5.5-4 1.9-4.8l-3.5-1.6c1.7-3 3.5-5.9 5.8-8.4 1.4-2.6.4-7.2-2.4-8.8-2-1-1.7-3.6-2.5-5.5-1-1 0-3.2.8-1.6l1.6 5.3c3 1.6 4.3 4.3 4.3 7.6 1.3 3-2.3 5-3.6 7.3l-2.2 3.6 5 2.3c.4 3.1-5 5.2-4.6 6.3 5.2-1.4 2 5.9 6 6.5 1.3 0 2.5-1.4 3.7-2 2.3.5-.9 1.5-.4 2.5 4.3 11.5 8.6 23 12.6 34.6-.4 4.2 3.6 4.7 6 6.4.4 2.3 1.5 6.5 3.8 5.6.1-6 .5-12 .5-17.9.4-2-3-7-.2-7.2 1.5 4.7 3.6 9.2 4.7 14 .8 3.1-.7 8.2 3.7 8.6 2 .8.5-6.3 2.6-4.4l3.5 2.8c4.7 0 1.2-5 1.3-7.7l-4.4-11.2c2.2-.9-1.2.4-.5-2-.6-3.7-3-6.4-5-9.3-1-1.9-.9-4.2-2.6-1.4-2 1.6-1 4.3.3 6 2.3 3.6 2 8.3 5 11.5 1.2 2 2.9 4 2.4 6.6.1 1.2.2 3.5-1.2 2.4-.2-2 .5-4.1-.7-5.7-1.5-3-3.7-4.8-4.3-8.2-.7-3.3-2.5-6.2-4-9.2.4-.7-4.6.4-4.2-1.2 1.3-.2 1-.8 3.4-.3 1.8-1.5 1.8-4.3.6-6.2-2.4-5.3-6-10-8.6-15-.7-3.4.6-7.5-2.6-9.9-3.3-3.2-5-7.6-6.8-11.7-2.2-3-5.7-4.7-8.1-7.4-1.4.4-6.5.6-4-1 3.5-1.4 6 .6 8.2 3 2.5 2 5.2 4 6 7.2 1.6 3.8 3.6 7.3 6.6 10.2 2.5 2.4 1.2 6.2 1.9 9.3 3.2 5.8 7.4 11 9.5 17.3-.4 2.7.8-1 2-.6 0-3 1-7.3-1-10.2-2-3.8-4.5-7.6-6.4-11.6l-4.4-9.4c-1.5-3.6-3.8-6.8-5.9-10 2.1-2.3 3.2 4 4.9 5.2 3.6 6.5 6 13.7 10 20 1.2 2.8 3.7 5.2 4.2 8.2.4 1.8-.7 7.5.7 7l2.2-4.1c1.1-.6 3.4-.2 3.7-1.5.4-3.8-3.5-6.6-4-10.4-1-5.2-3-10.1-5.7-14.7-2.7-6-6.8-11.4-9-17.8-.5-3.7 2.5 1 2.5 2.8 2.1 4.8 5.3 9.2 7.4 14 2.1 3.9 4.1 7.8 5.3 12.2.8 4 2.4 7.8 4.6 11.3.3 1.7 0 3 1.3 3 .6 1.6-2.5.8-1.2 3 .3 1.5-.4 7-1.5 3.8.1-2.5 1.3-6.6-2.3-4.7-1 .9-1.4 2.5-2 3.6-.7 1.5-3 1.4-1.4 3.6 2 3 4.7 5.7 5.2 9.4.5 3.4 3.3 5.7 5 8.6 1.8 1.9 4 7.6 5.8 6.6.8-3.6-2.4-6-3.5-9-2.5-5.3-4.7-10.7-7-16 1.9 1.4 4.3 2.2 5.4 4.4 4.3 5.8 8.6 11.7 13.1 17.4 4.7 2.3 1.8-3.6.4-5.4-3.6-7.2-8.5-13.7-12.7-20.6-1-1-3.9-5.5-1.1-4l14.5 17.8c1.6 1.1 4.5 2 3.6-.7-4.2-7.6-9.5-14.5-14-21.7-4.9-6.9-9-14.2-13.3-21.4 2.2-1.9 5.2 2.8 7.8 3.4 4 2.2 7.7 5 11 8.2 5.6 4.9 11 10 16.8 14.6 2.9 1.6 5.2 4.4 8.3 5.4 0-1-3.2-5-1.8-5 3.2 1 6.3 2.4 9.3 3.9 2 1 8.4 3.4 5.2-.8-1-2-5.8-3.2-5-5.4.9-.5 2.3 1 3.4 1.3 2.6 1.5 5.4 2.2 8.4 2.6 4.2-.1 1.5-4.6-1.3-4.6l-19.8-10.7c1.4-2.8 5.8 1.6 8.4 1.4 1.5-.4 7 .7 5.1-1.9-.8-1-2.5-1-3.7-1.6l-27-9.8-11.6-7.7c.6-2.3 4.4.7 6.3.5 3.4.9 6.8 1.6 10.3 1.5 2.3.1 7 .7 7.8.3-1.5-.8-8-2.7-4.3-3.7 1.9-.2 7.8-.3 2.7-.5-3.5-.3-7.3-.2-10.7-1.2.4-1.2 2.2-.8 4.5-.5 2.6.9 7.8-.6 8.7 1.5 2.6.8 7-.2 10.3 0 4.5-.4 9.4.2 13.7-1 1.4-2.2 5.8-3 5.8-6-.3-2.7-.4-5.5-.8-8.2-1-1-1.2-3.1-2.7-3.2-4.3-.7-8.4-1.9-12.4-3.3-8.4-.3-16.8-.2-25.2-.7-2.7-.2-6 2.3-9 2.1-4.9.5-9.8.1-14.5 1.6-1.8 1.4-4.3-.6-1.4-1 3.6-1 7.3-1.6 11-1.5 3.8-.1 7.6-.4 11.2-2 2.1-1.5 2.6 1 3-1.7 2-.7 8.4-.2 6.9-2.3-7.9.3-15.7.4-23.5.5-2.8-.3-6.4 1.5-9.2 2.8-3.3 1.3-.6-2 1.5-2 3.4-2.1 7.7-1.6 11.1-3.8 5.3-2.5 10.2-5.6 15.3-8.3 1.3-1.2 5-3 1.1-3.4-3-.7-6.3 1-9.5 1.1-4.2.8 0-2.9 1.6-3.6 4.9-2.5 9.7-5.3 14.4-8.2 1.5-1.1 5.8-2 4.4-3.8-4 1.3-7.9 3.2-12 4.3-1.3.4-7.6 1.1-4.5-1.3l17.9-12.1c2-2.7.5-2.7-1.9-1.6-2.7.8-4.8 3-7.3 4.3-1 1.6-5.9 2.9-3.2.2 2.6-2.3 5.2-4.7 8-6.8 1.4-2 2.8-6.6-1-4.4-2.4 1.2-5.6 1.4-7.3 3.8l-9 9.4c-2.3-2 3.4-4.3 4-6.4 2.5-2.8 5.1-5.6 7.3-8.6.5-2.4.6-4.2-2-2.5-1.1.6-2.3 1-3.6 1.6.4 2.6-5 5.2-6.7 7.7-2.9 2.5-6.8 3.5-9.4 6.5-2-2.2 3.6-3.8 5-5.1 4.1-2 6.9-5.7 10.1-8.7-3.6.7-7.7.5-9.8 4.1-5.4 5.2-10.7 10.5-16.3 15.5-6.7 4.7-13.6 9.3-20.6 13.7-3.1 1.3-7.7.2-9.2 4-2.6 3.8-5.8 7.1-8.7 10.6 3.2-.7 6.2 0 9 1.5 2.8 1 5.2 2.8 7.8 4-.6 2.7-4.2 4.7-7 4.2-1.9 0-3.5-1.3-5.2-1.8.2-2 2-.4 3.1-.1 2.3 1.2 5.4.8 7.1-1.3-.9-1.8-5.6-3.6-8.3-4.6-2.5-1.5-5.3-.5-8-.5-3.1.7 1-2 1.4-3.2 3.5-4 6.9-8 9.9-12.3-.2-3.2 3.3-5.4 4.5-8.4 3.4-5 5.2-11 7.9-16.6 1.1-2.3.5-5 .8-7.5 0-1.4.4-2.9 0-4.1l-7.4 13.6c-3 .2-.3-4.5.5-5.7 2.3-4.5 4.8-9 6.9-13.5l.2-5.7c-2-1.7-2.9 4-4.4 5.2-3.2 5.5-6.3 11.1-9.7 16.5-.3 1.8-4 3.1-2.5.6 4.9-9 9.9-18 15-26.9 2-3.5 1.3-7.7 1.6-11.6-2-3-3.3 1.6-4.9 2.8-2 2.5-2.7 5.7-4.2 8.5l-7.5 16c-2.8-1.2 1.6-5.4 1.6-7.7l7.2-18.7c-1.2-2.5-3.9 4.1-5.1 5.6-2.3 5.1-5 10-7.5 15-2.7-1.1 1.7-5.3 1.5-7.5 1.3-3.8 3-7.5 4.3-11.3-.2-1.4 1.8-5 0-5zm17.3 67.7c.6 2.5-3.2 3.6-4.7 5.5-2 .8-8.8 2.5-5.9 4l6-3.1c2.5 2.4 6.3 5 6 8.6-2.4.6-1.4-4.7-4.3-5.2-1.3-2.3-3-1.7-4.7-.4l-4.2 2.2c-2.3-3.2.3-5.8 3.6-6.2 3.4-.5 5.3-3.4 7.9-5.3h.3zm17.8 7c.2 2.7-4.7 1.5-6 3.9-2.2 1-4.4 4.2-6.3 4.2-2.1-.4 2.6-2.5 3.3-3.6 2.7-2.2 5.4-4.2 9-4.6zm22.8 10.9c-.5.5-.2.4 0 0zm-64.5 2.7c3 1.1 6 1.8 8.5 3.8 3.2 1.2 3.3 4.8 4.3 7.6 0 1.7-1.5 7.4-3 6.2.6-2.6 2.9-5.8 1-8.8-.3-3.3-3.7-4.2-6-5.8l-5.3-1.8.5-1.2zm82.2.3c6 .3 12 .5 17.8 1.1.7.7-1.2.7-.9 1.1-7.6-.3-15.3-1.3-22.9-.6-3.6-.5-6.7 2.2-10.3 1.5-2 .3-6.4-.7-3.4-1.5 3.5.4 7 .4 10.3-1 3-.6 6.3-.2 9.4-.6zm-9.1 5c6.1.9 12.3 1.4 18.5 1.3 3.9.3 8.4-.1 12 .5-.6 2.6-6 0-8.4.9-6.9-.1-13.8-.1-20.6-1.3-1.3 0-1.7-.1-1.5-1.4zm6.6 6.9c2.6 2.6 6.2 3 9.8 2.5 4.3-.3 8.6.8 12.8-.7 3.6-.4-.3 2-2.2 1.7-4.2 1-8.4-.2-12.7.3-3.3 1.2-6.1-1.7-8.5-2.3a9.8 9.8 0 01-5.9 1.2h-8.8c-.6-2 1.7-1.1 2.8-1.3h8.9c1.2-.5 2.5-1.2 3.8-1.4zm-120.2 4c3 1.2-2.5 4.2-1.6 6.2.1 2.1.4 3.6 1.3.7l1.4-4c1.2 2 2.9 3.2 5.2 3.2 1 1.7 1.5 5.6 2.6 2 1-1.9 1.7-4 3-5.5 2.4 1.3-.2 5.9.4 8.2-.2 3.8.6 7.5.1 11.2.3 2.2-1.9 7.9 2 5.2 1.5-.6 1.6-2.6 2.5-3.8 1.5-3 1-6.5 2-9.6 2.8-.7.2 8.2 3 5.3.8-3-1.4-5.5-1.6-8.8v-6c2-.5 1 1.7 1.2 2.9a14 14 0 001.2 7c3.2 1.7 2.7-4.4 5.2-5.6 2.8-1 1.3-7 4-6.3-.2 3.6-2.2 6.6-4.7 9-1 1.8-1.4 5.9-4.4 4.2 2.2 2.2-.2 6.7-2.9 6-.5-2-.6-4.2-.9-1 0 2.8-2 5-3 7.5-2.4 1.3-6.6 2.7-5-1.7.2-4.7.6-9.5 0-14.2 0-1.6.8-6.4 0-5.5l-3.2 6.7c-1.4-2-.8-6.8-4-6.3-1.8-.4-2.5-2.5-2.9.4-.8.8-1.8 5.6-3.2 3.4-.3-2.6 0-6.6-3-3.5l-1.7-6.3c1.8-1.1 1.5 1.3 2 2.4-.2 3.6 3.7 0 4.1-1.8l.9-1.6zm49.3 15.9a640 640 0 0010.5 20.2c2 4.7 4.3 9.4 5.1 14.5-.8 2.4 5 5.7 2.2 6.3-3.1-2.4-3.4-6.2-4.3-9.7-2-6.3-4.9-12.3-8.1-18-2.3-4.2-4.3-8.5-6.5-12.7l1.1-.6zm-6.9 7.4c3.2.4-2.9 3.7 1.1 4.1 2 .3 1.5 3.3 3.4 3.8 4.7.2-.5 7 4.3 6 2.4 1.8 0 6.5 3.6 7.7 3 1.5 2.1 5 3.6 7.5.3 2 1.4 1.7 2.7.7 1-.6 3-1.6 2.6.1L424 245a23.3 23.3 0 01-2.8-8.3c-2.7-2-5.1-4.3-4.7-8 .7-2.8-4.7.1-3.3-3.4 1.9-3.6-2.3-3.2-3.1-5.6-.3-2.4-3.9-2-4.1-4.1l2-3zm-19.2 34.7c-.5 1.6-5.5 6.3-1.8 3.3 1.9-1.1 2.2-.4 1.8-3v-.2zm-.7 11.2c3.6.6-4.6 4.1-2.8 4.2 1-.8 3.3-.7 2.2.7l-5.4 1.6c-1.3-2.8 4.5-4.2 5.9-6.4v-.1zm.3 12c3 .1-1.6 3.2-2.4 4.4-3.3 2.7 3.8-2.6 3.3 0-1.4 1-6.4 4.1-8 2.4 2-2.4 5.1-4 7.1-6.8zm-17.9 10.8c-.2 2.3-.6 5.2 1.6 2.4 2.5-1.5-.2-1.5-1.6-2.4zm-1 27.9c-.1 2.1-1 5.6 2 2.9 2-1 3.6-2.6.2-2.6l-2.3-.3zm-.6 23.6c1.9 1.1 6.7 1.4 6.6 3.6-1.3-.2-6.4-1.4-6.6-3v-.6zm-8.6 79.5c-7.5.2-15 0-22.4.2-3.2 2-6.9 3.4-9.4 6.3-1.9 2.7 3.2 5 5.8 4.4 1.3.9 6-.9 5.3 1.6-1.3 3.6-5.3 4.2-8 6.4-1.6 3.4 2.3 7.6 5.2 4.3 1.7-1.6 3.2-1.8 4.5.2 2 1.6-1.5 5.9 3 5.7 2.9-1.5 5.4-4 8.2-6 1.8-2.3 4.7-4.8 5.8-.5 2.7 2.3 6 1.7 9.2 1.5 3.9-.1 8.1-.6 10.4-4.3 3.6-1.7 7 1.8 8.9 4.7 2.5 1.6 6.5 1.8 5.3-2.3-1-2.7-.1-5.5 3-3.8 3.6.7 6.3 3.4 9.7 4.3-.2-2.6-.2-7.4 3.3-4.1 3 2.1 6.2 4.3 9.8 5.2.1-1.5-.3-3.2.2-4.6 2.3-2.4 7 4.7 6-.7.5-1.8-2-6 .5-5.6 3.6 1.5 7.3 2.5 11 3.2-2.4-4.2-6.9-6.5-10.7-9.3a29 29 0 00-11.6-2.6c-4.3-.4-8.8-.3-13-.9-1.9-1.3-1.6-.1-1.3.3-2.5 3.6-7.1 3-11 3.6-5.4.5-10.9 1-16 3-3.5.5-6.7-2.7-9.2-4.9-1.2-1.5-1.7-3.6-2.5-5.3z" fill="#fff" fill-rule="evenodd"/></svg>