<svg height="600" width="1200" overflow="visible" xmlns="http://www.w3.org/2000/svg"><path d="M0 0h1200v600H0z" fill="#de0000"/><path d="M0 225h1200v150H0z" fill="#093"/><path d="M150 30l-6.74 20.73h-21.8l17.64 12.81-6.73 20.73L150 71.46l17.63 12.81-6.73-20.73 17.63-12.81h-21.8zm0 10.8l4.31 13.27h13.95l-11.29 8.2 4.32 13.26-11.29-8.2-11.29 8.2 4.32-13.26-11.29-8.2h13.95z" fill="gold"/><g fill="gold"><path d="M101.84 138.55l14.93 14.99 14.08-13.95c21.41 22.91 43.87 45 65.12 68a8.22 8.22 0 0011.6.03 8.17 8.17 0 00.05-11.57c-22.81-21.46-45.7-43.1-68.5-64.64l18.96-18.8-26.39-3.64z"/><path d="M150 90c12.28 6.9 21.6 16.8 27.1 27.15 5.58 10.49 8.03 21.44 8.08 30.2.1 17.95-14.6 32.5-32.6 32.5-9.6 0-18.23-4.14-24.2-10.73l-3.3 2.77a4.94 4.94 0 00-5.52 1.41 6.18 6.18 0 00-5.06 4.18 21.26 21.26 0 01-12.25 10.7 19.6 19.6 0 00-6.95 4.58c-4.11 4.13-6.12 9.42-4.99 13.13a3.1 3.1 0 004.2 3.84c3.7.84 8.75-1.22 12.7-5.17a19.2 19.2 0 004.73-7.53 20.97 20.97 0 0110.78-11.88c.12-.06.22-.12.3-.18a6.17 6.17 0 003.35-4.11 43.3 43.3 0 0032.07 15.1c23.61.56 41.26-16.78 42.08-41.7.4-12.55-4.46-28.73-15.55-42A69.53 69.53 0 00150 90z"/></g></svg>