<svg xmlns="http://www.w3.org/2000/svg" width="1600" height="1000"><path fill="#012d6a" fill-rule="evenodd" d="M0 0h1600v1000H0z"/><ellipse cx="1351.49" cy="813.07" rx="642.98" ry="643.02" transform="matrix(.61495 0 0 .61495 -31.1 0)" fill="none" stroke="#ffc324" stroke-width="17" stroke-miterlimit="10"/><path d="M560.9 314.73s-12.12 16.99-14.08 24.33c-1.96 7.33 27.86-23.2 14.08-24.33z" fill="#010001" fill-rule="evenodd"/><path d="M1055.52 339.98s-9.4-18.06-15.77-27.74c-6.38-9.67 4.16 24.26 12.1 34.43" fill-rule="evenodd"/><path d="M1051.85 346.67s-5.94-14.27-8.19-7.37c-2.24 6.9 1.6 11.4 2.81 12.33 1.22.91 5.38-4.96 5.38-4.96z" fill="#904b2e" fill-rule="evenodd"/><path fill="#f5f9f7" fill-rule="evenodd" d="M715.8 370.11h163.58v8.48H715.8z"/><path d="M921.25 385.1s-15-3.58-28.38-14c-13.4-10.43 13.3 16.33 28.38 14z" fill="#fac42a" fill-rule="evenodd"/><path d="M931.98 479.81s-.66 2.62 0 6.27c.65 3.65 2.65-8.15 0-6.27zM888.06 372.85s4.82 13.82 10.9 12.1c6.09-1.71 7.55-5.18 7.55-5.18s-20.3-11.2-18.45-6.92zM715.67 366.03s-3.41 8.25-30.02 18.09c0 0 39.5-2.15 30.02-18.1zM938.05 526.3s3.02 17.12 5.28 16.95c2.25-.17-.67-22.9-5.28-16.95zM880.23 647.51s-17.59 3.83-17.82 6.63c-.23 2.8 18.85-1.66 17.82-6.63zM663.86 528.7s-5.55 14.7-3.85 14.8c1.7.12 8.92-18.27 3.85-14.8zM724.25 648.18s11.95 1.31 15.48 5.41c3.53 4.1-13.7-4.13-15.7-6.09" fill="#fec323" fill-rule="evenodd"/><path d="M782.08 371.5s-7-.44-7.07 1.02c-.08 1.45 5.4.98 6.35.45.95-.54.72-1.46.72-1.46z" fill="#fff"/><path d="M624.19 322.05s-19.08 10.36-20.3 41.29c-1.22 30.92 8.38-4.3 15.57-6.83 7.2-2.53 6.57-40.57 4.73-34.46zM1023.01 316.53s-30.63 3.23-36.18 5.27c-5.55 2.05 6.74 36.9 14.27 43.43 7.53 6.54 28.74 32.09 39.72 35.73 0 0-.5 23.9 18.35 32.84 18.86 8.94-11.64-105.72-36.16-117.27z" fill="#904b2e" fill-rule="evenodd"/><path d="M574.37 322.05s33.68 7.35 35.81 14.26c2.13 6.9-7.33 42.9-37.66 38.38-30.32-4.52-6.98-50.35 1.85-52.64z" fill="#904b2e" fill-rule="evenodd"/><path d="M712.9 368.82l2.77-2.79h169.75s16.04 11.02 19.43 12.85l-14.65-4.28-2.78-2.59H720.36l-10.7 6.99 3.25-10.18z" fill="#fac42a" fill-rule="evenodd"/><path d="M736.88 372.38l-16.44.15c-.48.81-1.23.84-2.04.7a7.9 7.9 0 01-2.05-1.15c-1.3-1.15-3.36-1.73-3.07-4.08 1.5-1.64 3.37-2.06 5.55-1.96 5.52.24 11.05.33 16.58.48.38 1.28-1.73 3.35 1.2 3.83.81.58.78 1.27.27 2.03z" opacity=".5" fill="#fac42a" fill-rule="evenodd"/><path d="M594 335.54c2.75 1.32 2.62 3.8 2.5 6.24-.17 3.66.23 7.22 1.65 10.63.93 2.27 2.08 4.37 4.43 5.5l.38 2.44c-5.26-2.3-6.5-7.18-7.69-12.06-.32-1.33.07-2.84-1.04-3.96l-.18-7.3c-.27-.28-.4-.59-.4-.92 0-.35.03-.53.1-.53l.26-.04z" fill="#4f4750" fill-rule="evenodd"/><path d="M570.5 327.1c.54-1.04 1.47-1.28 2.54-1.2a147.5 147.5 0 0013.6 6.39c2.2.9 4.63 1.49 6.17 3.55l-3.56-.21c-7.24-.66-13.25-4.03-18.75-8.53z" fill="#1c3c57" fill-rule="evenodd"/><path d="M611.32 367.75c-.78-.15-1.25-.67-1.6-1.35.8.15 1.37.54 1.6 1.35z" fill="#012d6a" fill-rule="evenodd"/><path d="M593.75 335.59l.3 1.44c-.64-.19-1.2-.46-1.3-1.2.3-.17.64-.25 1-.24z" fill="#1c3c57" fill-rule="evenodd"/><path d="M558.39 355.41c-2.42-4.05-3.46-8.92-7.17-12.22l1-2.52c3.37 4.5 5.72 9.54 7.72 14.76-.52.37-1.04.39-1.55-.02z" fill="#483e4b" fill-rule="evenodd"/><path d="M550.91 338.05c.94.63 1.47 1.47 1.32 2.64-1.13-.53-1.4-1.5-1.32-2.64z" fill="#483e4b" fill-rule="evenodd"/><path d="M561.99 362.6c.57-.33 1.11-.31 1.63.12" fill="#4e404c" fill-rule="evenodd"/><path d="M563.62 362.72l-1.37.04c-.77-.53-.85-1.25-.6-2.08l.63-.5c1 .55 1.1 1.59 1.34 2.54z" fill="#3c3e54" fill-rule="evenodd"/><path d="M560.8 357.64c1.15.47 1.36 1.47 1.47 2.54l-.2.17c-2.16.08-1.95-1.11-1.35-2.51l.08-.2z" fill="#3c3d55" fill-rule="evenodd"/><path d="M543.61 317.32l-.52-.54c.12.03.28 0 .35.08.1.11.13.28.2.43l-.03.03z" fill="#fdc324" fill-rule="evenodd"/><path d="M903.33 378.88h1.65c3.42 2.13 7.2 3.48 10.91 5 .51.15.92.45 1.24.89.25.47.45.96.6 1.48.25 1.09.5 2.18-.47 3.09a5.59 5.59 0 01-4.82 1.23c-5.06-2.52-10.82-3.77-14.82-8.2a1.45 1.45 0 01.4-1.5c.8-.2 1.68-.2 2.36-.78l-.07.04c.83-.83 2.02-.8 3.02-1.25z" fill="#f8c327" fill-rule="evenodd"/><path d="M694.99 380.66l2.44.29c.87-.32 1.7-.37 2.37.42l-.07-.04c.66.72 1.98.23 2.43 1.33.09.26.14.54.16.81-3.3 5.48-9.45 5.9-14.55 8.2-3 .11-5.85-.45-8.43-2.11-1.72-1.92-.34-3.1 1.04-4.29l.81-.27c4.9-.52 9.37-2.33 13.8-4.34z" fill="#f9c326" fill-rule="evenodd"/><path d="M758.85 393.7c-4.02.42-6.16-.7-7.37-3.85a30.2 30.2 0 017.37 3.85z" fill="#734130" fill-rule="evenodd"/><path d="M734.62 380.94c-.56-.26-2.25 1.4-1.58-.93.7 0 1.28.23 1.58.93z" fill="#693a2a" fill-rule="evenodd"/><path d="M745.28 386.43c-.45.56-.9 1.18-1.63.37-.03-.03.4-.48.62-.74.4-.06.74.06 1 .37z" fill="#663a25" fill-rule="evenodd"/><path d="M737.03 382.25c-1.23.18-2.3.1-2.6-1.43 1 .23 2.07.35 2.6 1.43z" fill="#6b3c29" fill-rule="evenodd"/><path d="M729.28 377.85c-.45.55-.9 1.14-1.63.37-.03-.04.39-.49.6-.75.4-.05.75.07 1.03.38z" fill="#673925" fill-rule="evenodd"/><path d="M773.44 400.72l.08 1.53c-1.2-.07-2.05-.55-2.25-1.83l2.17.3z" fill="#623627" fill-rule="evenodd"/><path d="M769.06 399.39c-.56-.26-2.25 1.4-1.59-.94.7.01 1.29.24 1.59.94z" fill="#693928" fill-rule="evenodd"/><path d="M763.72 396.3c-.45.55-.9 1.14-1.63.36-.03-.03.38-.48.6-.74.4-.05.75.07 1.03.38z" fill="#673926" fill-rule="evenodd"/><path d="M737.95 382.58c-.86 1-.97.35-1.01-.46.4 0 .75.15 1.01.46z" fill="#6b3c29" fill-rule="evenodd"/><path d="M839.91 375.04c.22.35.35.74.38 1.15-.74.01-1.21-.38-1.5-1.03.44-.42.87-.41 1.3.02l-.18-.14z" fill="#e5e8e8" fill-rule="evenodd"/><path d="M769.94 399.75c-.92 1.09-.95.3-.98-.47.4 0 .72.16.98.47z" fill="#623627" fill-rule="evenodd"/><path d="M718.88 372.56c-.63-.35-2.35.97-1.82-1.18l1.82 1.18z" fill="#6b371b" fill-rule="evenodd"/><path d="M881.77 370.11c.15.3.44.86.42.87-.66.4-1.09.03-1.44-.5.3-.24.64-.36 1.02-.37z" fill="#67361e" fill-rule="evenodd"/><path d="M817.96 415.55l1.32.18c.18 1.89-1.15 1.97-2.43 2.1l-.57-.07s-.5.32-.43.34c1.01.22 1.89.56 2.48 1.4.19.58.03 1.04-.46 1.4-5.08 2.46-10.48 2.82-15.99 2.36-.45-1.97-3.92.08-3.7-2.78 2.96-3.33 6.97-4.73 11.04-6.03.25-.3.58-.46.98-.46.4.06.67.27.83.62 0-.02.44.23.44.23l.4-.34c.96-.7 2-1.02 3.16-.89l1.42.37c.68.36.91 1.14 1.5 1.57z" fill="#5b3121" fill-rule="evenodd"/><path d="M775.44 415.73c1.53-.08 3.18.24 4.3-1.25 1.81-1.45 3.51-1 5.16.3.4.42 1.1.62 1.08 1.39.3-.38.18-.65-.35-.8-.15-.48-.04-.9.3-1.25a1.2 1.2 0 011.27.33c2.45.44 4.77 1.62 7.36 1.27.48.38 1.22.53 1.28 1.32-1.73 1.79-4.15 2.37-6.2 3.63-.94 0-1.67.58-2.48.98-1.8-.23-3.47-.8-4.94-1.9-.59-2.29-2.86-1.93-4.36-2.78-1.08.12-1.82-.42-2.42-1.24z" fill="#582f20" fill-rule="evenodd"/><path d="M798.18 420.48c1.06 1.16 3.53.43 3.7 2.78l-8.67-.38 2.45-1.2c.49-.29.96-.6 1.4-.96.38-.05.75-.13 1.12-.24z" fill="#23131d" fill-rule="evenodd"/><path d="M777.86 416.97c1.15 0 2.31-.08 3.44.06 2.07.25 2.04 1.32.92 2.7-1.86-.28-3.2-1.38-4.36-2.76z" fill="#17192d" fill-rule="evenodd"/><path d="M681.37 395.7c1.39-1.13 2.65-1.4 3.6.54l-3.6-.53z" fill="#6b382a" fill-rule="evenodd"/><path d="M687.52 397c1.42-1.24 2.66-1.43 3.55.57l-3.55-.57z" fill="#703325" fill-rule="evenodd"/><path d="M698.58 399.42c1.4-1.17 2.66-1.44 3.59.55l-3.59-.55z" fill="#6c3729" fill-rule="evenodd"/><path d="M704.73 400.72c.71-.93 1.62-1.2 2.68-.73.08.04-.1.68-.16 1.04l-2.52-.31z" fill="#713423" fill-rule="evenodd"/><path d="M709.66 401.83c1.39-1.1 2.65-1.36 3.61.51l-3.6-.5z" fill="#6a392b" fill-rule="evenodd"/><path d="M715.8 403.14c1.4-1.22 2.66-1.46 3.58.55l-3.58-.55z" fill="#6e3526" fill-rule="evenodd"/><path d="M721.95 404.43c.58-.82 1.4-1.16 2.34-.9.78.22.47.76.14 1.21l-2.48-.31z" fill="#733323" fill-rule="evenodd"/><path d="M726.87 405.55c1.4-1.14 2.66-1.4 3.6.52l-3.6-.52z" fill="#6b382a" fill-rule="evenodd"/><path d="M733.03 406.85c1.36-1.32 2.6-1.35 3.66.36-1.26.3-2.46-.01-3.66-.36z" fill="#703423" fill-rule="evenodd"/><path d="M736.58 407.23c1.5-.22 2.96-.25 4.04 1.1-1.44 0-3 .42-4.04-1.1z" fill="#694c43" fill-rule="evenodd"/><path d="M744.1 409.26c1.4-1.17 2.65-1.43 3.57.55l-3.58-.55z" fill="#6d3628" fill-rule="evenodd"/><path d="M750.24 410.55c.71-.92 1.62-1.2 2.67-.72.09.04-.1.68-.16 1.04l-2.5-.32z" fill="#713323" fill-rule="evenodd"/><path d="M755.17 411.67c1.38-1.11 2.64-1.36 3.6.5l-3.6-.5z" fill="#6b392b" fill-rule="evenodd"/><path d="M761.31 412.98c1.4-1.22 2.66-1.47 3.57.54l-3.57-.54z" fill="#6e3426" fill-rule="evenodd"/><path d="M767.46 414.26c.58-.81 1.4-1.15 2.33-.89.79.22.47.76.14 1.2l-2.47-.3z" fill="#733323" fill-rule="evenodd"/><path d="M787.16 421.65c.68-.72.91-2.56 2.49-.98l-.04 1.39-2.45-.41z" fill="#4c271a" fill-rule="evenodd"/><path d="M817.69 419.45c.96-.1 1.85-.02 2.48.85l-2.3.6-.18-1.45z" fill="#151c1d" fill-rule="evenodd"/><path d="M693.65 398.29c.93-1.07 1.75-1.14 2.39.29l-2.4-.3z" fill="#6e2e20" fill-rule="evenodd"/><path d="M833.96 402.24c-5.48 3.43-11.1 6.58-17.31 8.55 4.45-4.45 10.22-6.47 15.91-8.63.5-.5.96-.44 1.4.08z" fill="#5b2d1b" fill-rule="evenodd"/><path d="M833.96 402.24l-1.4-.08c1.97-2.43 5.37-2.62 7.5-4.8.84.61 2.66 1.18.6 2.27-2.1 1.11-4.46 1.76-6.7 2.61z" fill="#3c2015" fill-rule="evenodd"/><path d="M795.84 417.04l-1.28-1.32c1.55-1.03-.13-1.63-.33-2.44l5.54 1.27c-1.03 1.27-2.59 1.71-3.93 2.5z" fill="#261b16" fill-rule="evenodd"/><path d="M851.13 393.76l.23-1.25 3.42-1.4-.01 1.17-.19.64a4 4 0 01-.93.96c-.44.2-.86.15-1.26-.09l-1.26-.03z" fill="#daeae8" fill-rule="evenodd"/><path d="M889.19 372.43c-.33.22-.7.35-1.1.38-.18-.28-.58-.75-.53-.8.74-.77 1.2-.2 1.63.42z" fill="#6d3619" fill-rule="evenodd"/><path d="M810.5 414.46h-1.28c.56-.99 1.47-1.24 2.52-1.23l.2.87c-.37.56-.85.68-1.44.36z" fill="#572617" fill-rule="evenodd"/><path d="M811.74 413.23c.5-1.04 1.43-1.23 2.46-1.23l.24.8c-.74 1.15-1.62 1.43-2.7.43z" fill="#552617" fill-rule="evenodd"/><path d="M816.69 410.76l-1.2 1.34c-.47.44-.9.4-1.3-.1.51-1.07 1.47-1.23 2.5-1.24z" fill="#532818" fill-rule="evenodd"/><path d="M797.07 420.72l-1.41.97 1.4-.97z" fill="#5b3121" fill-rule="evenodd"/><path d="M867.12 387.62c2.32-1.13 4.58-2.4 7.19-2.76-1.77 3.09-3.4 3.72-7.19 2.76z" fill="#764534" fill-rule="evenodd"/><path d="M843.5 405.68c-1.94 2.14-4.82 1.72-7.22 2.58-.68-.87-.67-1.73.06-2.57.66-.92 1.63-1.07 2.66-1.03 1.26 1.4 3.28-.52 4.5 1.02z" fill="#714332" fill-rule="evenodd"/><path d="M825.3 410.76c-2.04 2.08-4.63 3.07-7.36 3.8-.46.35-.88.33-1.28-.1-.41-.26-.55-.53-.42-.8.14-.28.28-.42.42-.42 3.06-.2 5.38-2.97 8.64-2.48z" fill="#592a19" fill-rule="evenodd"/><path d="M816.66 413.24c-.03.41-.03.82 0 1.23-2.2-.4-4.03 1.14-6.15 1.22l.01.01-.02-1.24 1.24-1.23c1.01-.02 1.96-.18 2.46-1.23l1.3.1 1.16 1.14z" fill="#7c4329" fill-rule="evenodd"/><path d="M836.34 405.7l-.06 2.56-4.89.08c1.2-1.74 3.07-2.2 4.95-2.65z" fill="#532818" fill-rule="evenodd"/><path d="M831.45 408.3c-1.6 1.98-3.78 2.56-6.21 2.5 1.61-1.98 3.78-2.56 6.21-2.5z" fill="#532818" fill-rule="evenodd"/><path d="M852.39 393.8c.35-.23.73-.31 1.13-.25l.65-.5.63.52c-.7 1.17-1.5 1.37-2.41.22z" fill="#643724" fill-rule="evenodd"/><path d="M854.77 392.28l2.37-.37c-.25 1.3-1.2 1.6-2.34 1.66l-.02-.02c-.3-.24-.39-.44-.25-.62.12-.15.25-.23.37-.23l-.13-.42z" fill="#673624" fill-rule="evenodd"/><path d="M861.02 390.16l1.18-.29c.1.3.3.87.27.88-.66.3-1.09-.07-1.45-.59z" fill="#653524" fill-rule="evenodd"/><path d="M888.06 379.04c.34-.26.71-.35 1.13-.27.11.3.34.88.32.89-.68.3-1.1-.08-1.45-.62z" fill="#633622" fill-rule="evenodd"/><path d="M881.93 381.54l1.16-.28c.1.3.32.86.29.87-.67.3-1.1-.07-1.45-.59z" fill="#653623" fill-rule="evenodd"/><path d="M845.52 402.23c-.76 1.03-1.88 1.16-3.03 1.24.67-1.24 1.85-1.25 3.03-1.24z" fill="#673c32" fill-rule="evenodd"/><path d="M845.34 395.97c.25.02.5.04.75.04l.1.06-1.26 1.13c-.25-.54-.13-.96.41-1.23z" fill="#8d4a2e" fill-rule="evenodd"/><path d="M785.92 415.7c-2.13-.08-3.96-1.64-6.19-1.22l.03.02c-.4-.28-.53-.56-.4-.84.14-.28.28-.42.41-.42l1.19-1.13c.4-.53.83-.56 1.3-.1l-.06-.04c.66.78 1.82.58 2.53 1.27l-.06-.04c.42.42 1.1.59 1.27 1.26l-.03 1.24z" fill="#7c442a" fill-rule="evenodd"/><path d="M745.08 392.52c1.51.5 3.07.93 3.93 2.47l.1.75c-1.33-.54-2.93-.55-3.8-1.96-.36-.22-.51-.48-.46-.78.05-.32.13-.48.23-.48z" fill="#9fa6a6" fill-rule="evenodd"/><path d="M745.08 392.52l.23 1.26-1.27.01a1.3 1.3 0 01-1.18.13c-.51-.33-.63-1.07-1.3-1.25l.1-.45c-.02-.36-.02-.73-.02-1.1l3.44 1.4z" fill="#d9e9e8" fill-rule="evenodd"/><path d="M776.03 413.26l1.33-.04 2.41.02-.01 1.26c-1.38 0-2.8.14-3.73-1.24z" fill="#582f20" fill-rule="evenodd"/><path d="M742.9 393.55c.4-.06.79.02 1.14.24-.84 1.15-1.62 1.1-2.33-.13.35-.53.75-.54 1.19-.1z" fill="#653822" fill-rule="evenodd"/><path d="M733.16 389.32l2.24.85c-1.3 1.2-1.92.57-2.24-.85z" fill="#643624" fill-rule="evenodd"/><path d="M728.12 387.4c.43-.1.8 0 1.15.27-.35.53-.77.9-1.45.6-.02 0 .2-.57.3-.88z" fill="#643622" fill-rule="evenodd"/><path d="M713.32 381.26l1.18.3c-.36.51-.8.88-1.46.58-.03-.01.18-.57.28-.88z" fill="#643624" fill-rule="evenodd"/><path d="M782.27 412.01l-1.31.1-1.22-1.35c1.04 0 2 .19 2.53 1.25z" fill="#532617" fill-rule="evenodd"/><path d="M742.9 393.55c-.4.07-.79.1-1.19.1l-.15-.98 1.34.88z" fill="#8d4a2e" fill-rule="evenodd"/><path d="M751.5 397.2l-.03-1.36c.69.44 1.39.89.02 1.36z" fill="#859d9d" fill-rule="evenodd"/><path d="M749.1 395.73c-.02-.25-.05-.5-.1-.74.76-.04 1.29.19 1.23 1.07a5.17 5.17 0 01-1.12-.33z" fill="#a5cfce" fill-rule="evenodd"/><path d="M785.94 414.46l-1.27-1.26c1.04.03 1.97.26 2.53 1.25h-1.26z" fill="#572617" fill-rule="evenodd"/><path d="M784.73 413.24c-1.04-.02-2-.2-2.53-1.27 1.04.03 2 .23 2.53 1.27z" fill="#542517" fill-rule="evenodd"/><path d="M758.85 398.48c-1-.04-1.93-.25-2.5-1.19 1.03-.02 1.96.18 2.5 1.19z" fill="#8d4a2d" fill-rule="evenodd"/><path d="M884.32 396.18c8.42-1.96 16.79-4.21 25.39-5.3.39.1.84.12 1.16.34.56.38.73.88-.17 1.07L888.24 397c-1.44.3-2.83.45-3.92-.83z" fill="#7a4735" fill-rule="evenodd"/><path d="M861.02 401.22c3.1-.64 6.12-1.82 9.36-1.78l.4.42c-2.71 2.09-5.74 2.51-9.76 1.36z" fill="#6e3d29" fill-rule="evenodd"/><path d="M873.27 398.64l4.89-1.06v.72c-1.5 1.93-3.14 1.93-4.9.34z" fill="#693b25" fill-rule="evenodd"/><path d="M843.59 405.75c0-.34.08-.66.23-.96 1.66-.2 3.44.05 4.8-1.28l1.27.18.01.81c-1.75 2.24-4.15 1.12-6.31 1.25z" fill="#714332" fill-rule="evenodd"/><path d="M878.16 398.3v-.72l3.4-.53c.74.8.5 1.33-.53 1.38-.95.05-1.91-.08-2.87-.13z" fill="#683424" fill-rule="evenodd"/><path d="M849.9 404.5c.01-.27 0-.54-.01-.81l3.37-.5c.72.78.55 1.32-.5 1.4-.95.06-1.9-.05-2.86-.09z" fill="#683323" fill-rule="evenodd"/><path d="M816.66 414.47l1.28.1c-.03.33-.02.66.02.98-.67-.08-1.07-.47-1.3-1.08z" fill="#7c4329" fill-rule="evenodd"/><path d="M692.71 392.19c8.66 1.1 17.07 3.38 25.56 5.3.26.22.35.44.27.66-.1.21-.18.32-.27.32-5.83.41-11.11-2.26-16.76-2.95-3.21-.38-6.52-.89-9.47-2.1-2.1-.86.34-.83.67-1.23z" fill="#794634" fill-rule="evenodd"/><path d="M718.27 398.47v-.97l23.43 5.06c.45.26.93.47 1.43.62h-.14c.33.35.43.68.28.99-.14.3-.27.44-.39.44-7.32-1.62-14.64-3.26-21.98-4.84-1.02-.22-1.99-.38-2.63-1.3z" fill="#7a4735" fill-rule="evenodd"/><path d="M742.88 404.61l.11-1.42 3.5.47c-.96 1.22-2.33.93-3.6.95z" fill="#683422" fill-rule="evenodd"/><path d="M810.51 415.7c-.28.53-1.14 1.12-1.24.86-.5-1.4.82-.54 1.25-.86h-.01zM815.3 416.8l-.49.09-.49-.03c.3-.64.62-.71.98-.05z" fill="#7c4329" fill-rule="evenodd"/><path d="M785.9 415.7l1.63.42c-.87 1.14-1.16.06-1.61-.43l-.01.01z" fill="#7c442a" fill-rule="evenodd"/><path d="M854.9 392.7c-.01.29-.06.57-.12.85h-1.26c.3-.54.7-.93 1.38-.85z" fill="#8d4a2e" fill-rule="evenodd"/><path d="M743.13 403.18l-1.43-.62c.62-.15 1.12.01 1.43.62z" fill="#8e4b2f" fill-rule="evenodd"/><path d="M1018.5 283.87c-11.24-12.54-24.08-23.34-37.4-33.6-5-3.86-9.6-8.37-14.97-11.63-17.15-10.4-34.73-20.06-52.97-28.45-18.03-8.3-36.29-16.07-56.14-18.87-9.76-1.38-19.55-1.5-29.09 1.88-6.12 2.17-10.81 5.97-13.35 11.9-2.7 6.3-3.68 12.95-2.35 19.8.28 1.4.5 2.81.67 4.23.28 2.3-.75 3.34-3.11 3.42-9.2.32-18.38.72-27.57 1.13-4.4.19-4.82-.5-5.26-4.59-.87-8.08-1.7-16.23-5.72-23.65-4.73-8.74-11.99-13.07-21.77-13.53-11.87-.56-23.13 2.18-34.08 6.35a387.37 387.37 0 00-57.49 27.58c-21.62 12.62-41.84 27.17-59.72 44.81-7.58 7.48-15.25 14.9-21.81 23.3-5.03 6.45-9.83 13.08-14.68 19.66-1.49 2.01-2.92 4.13-.67 6.56 1.86 4.43 5.81 4.56 9.73 4.74-.07-15.63 10.86-25.19 19.84-35.8 1-1.18 2.36-2.71 4.15-1.4 1.87 1.36 1.3 3.21.36 4.93a31.64 31.64 0 01-1.99 3.1c-4.74 6.66-8.7 13.8-12.66 20.94-1 1.8-2 3.51-3.6 4.89-4.67 4.02-4.64 4.05.26 7.95a7.1 7.1 0 003.1 1.43 9.24 9.24 0 015.99 2.7 9.65 9.65 0 005.92 2.34c2.69.04 5.12-1.12 7.68-1.65 6.12-1.28 6.77-.37 6.42 5.94-.36 6.5-3.77 12.4-3.42 18.98.57 1.65 1.58 2.8 3.44 2.96 3.22-.96 3.39-3.86 3.85-6.4.94-5.25 2.2-10.48 2.5-15.78.4-6.96 4.17-11.05 10.23-14.32.55 2.91-.03 5.28-.66 7.6a87.69 87.69 0 01-10.46 24.17c-1.52 2.38-3.55 4.66-2.31 7.87a3.8 3.8 0 003.06 1.9c3-.35 4.5-2.62 6.11-4.73 1.12-1.47 2.1-3.09 3.85-3.89 11.73-5.42 19.98-16.75 33.27-19.62 1.7-.37 3.43-1.57 4.7-2.83 7.73-7.59 17.93-8.23 27.7-10.23 3.16-.64 4.06.38 4.16 3.27.09 2.7 1 5.22 2.2 7.62 2.4 4.84 6.89 6.97 11.67 8.24 4.57 1.22 5.64-3.18 7.6-5.8 2.55-3.42 5.79-3.37 9.37-2.4 9.3 2.5 17.28 7.4 24.46 13.66 3.94 3.43 3.69 4.79-1.11 6.77-4.18 1.72-8.54 3.1-10.64 7.67-.78 1.87-.92 3.4-.15 4.43 1.48.13 2.95.24 4.43.34 1.54-1.16 2.85-.89 4.06 0h.01c4.05-.24 8.09-.56 12.11-.14h1.18c.27-.26.57-.3.93 0h14.43c.73-.56 1.31-.46 1.81 0h12.02l.21.02c7.26-1.9 14.92-1.39 22.5-1.45 3.22-.03 6.28.29 9.16 1.33h7.41c.42-.44.91-.76 1.63-.7.3.19.49.43.6.7h13.26c.27-.23.54-.48.79-.77.2.21.33.48.44.76h15.98c.16-.2.4-.4.74-.57.7-.35 1.2.04 1.67.55a2.51 2.51 0 013.13-.72c.37-.08.75-.1 1.17.01l.15.06a9.2 9.2 0 012.67-.35c.15 0 .3.02.45.05-.04-.8-.2-1.8-.45-3.03-1.45-2.39-3.8-3.63-6.09-5.02-5.06-3.09-5.82-6.85-2.34-11.72 1.8-2.5 4.08-4.6 6.34-6.67 7.83-7.15 14.05-15.43 17.83-25.38 1.4-3.67 2.95-3.1 5.93-1.5a102.14 102.14 0 0030.48 10.7c9.59 1.68 17.29 6.85 25.18 11.48 8.02 4.71 15.83 10.02 23.93 14.5 6.03 3.34 12.4 6.03 17.82 10.45 3.26 2.65 6.78 3.8 10.75 1.47a5.14 5.14 0 001.88-2.04c1.34-3.25-.96-5.42-2.34-7.84-4.74-8.23-8.2-16.9-9.65-26.36-.62-4.04 1.23-5.04 4.82-4.9 3.53.14 4.4 2.4 4.8 5.24 1.08 7.5 2.19 15 4.37 22.27.72 2.39.89 5.48 4.58 5.47 4.3-4.79 5.01-10.53 4.4-16.63-.33-1.2-1.17-2.17-1.47-3.33-1-3.88-4.01-7.77-2.57-11.56 1.15-3.01 5.96-1.54 8.64-3.37 3.4-2.32 4.67-1.32 5.46 2.62 1.5 7.4 1.74 7.36 8.64 5.18.54-.21 1.07-.44 1.57-.72 1.24-.75 2.56-1.4 2.74-3.09 2.77-2.66 7.09-2.87 9.83-5.89a198.69 198.69 0 00-25.16-35z" fill="#010001" fill-rule="evenodd"/><path d="M582.86 393.46c-3.7 5.85-6.62 12.25-12.09 16.85-1.57 1.32-2.96 2.9-4.9 3.62-3.59 1.34-4.63 4.13-5.1 7.64a57.26 57.26 0 01-11.15 27.5c-.5.66-.9 1.49-1.56 1.88-5.5 3.26-7.4 8.77-9.63 14.3-2.84 7.03-6.66 13.6-11.95 19.17-.84.89-1.57 1.94-2.57 2.59-1.64 1.08-3.1 3.13-5.4 2.19-2.38-.97-1.76-3.38-2.09-5.35a164.89 164.89 0 01-2.35-29.89c.35-19.3 3.46-38.17 8.77-56.69 5.78-20.12 13.93-39.3 23.76-57.75.97-1.81 1.1-4.62 4.14-4.72 2.9.74 3.44 2.96 3.5 5.5-4.51 12.51-10.49 24.44-14.92 37-10.79 30.6-17.32 61.87-16.16 94.48.08 2.1-.85 5.23 2 5.74 2.33.4 3.62-2.32 4.81-4.22 4.8-7.6 5.08-16.24 5.8-24.83.7-8.08.04-16.4 3.79-24 1.17-.62 1.84.05 2.42.95 1.48 4.37.47 8.9.87 13.34.2 2.16-.36 5.26 2.15 5.84 2.87.66 3.86-2.47 4.97-4.56 1.82-3.45 2.74-7.24 3.34-11.07 2.43-15.72 6.24-31.15 9.67-46.66.57-2.62.27-5.87 3.59-7.2 2.74 2.26 1.82 5.2 1.28 7.91-1.19 6-2.1 12.03-2.78 18.09-.26 2.31-.87 4.84 1.04 7.38 5.18-2.83 7.46-7.87 9.9-12.65 2.5-4.9 3.64-10.34 5.2-15.6.43-1.49.54-3.83 2.53-3.6 1.78.19 1.8 2.4 2.02 4-.44 4.4 1.64 9.37-2.9 12.82zM1052.94 338.5c1.87-.25 2.43 1.2 3.08 2.44 13.13 25.3 23.6 51.5 27.63 79.95 1.43 10.12 2.6 20.23 2.23 30.45a167.95 167.95 0 01-2.8 24.55c-5.53-1.45-9.02-5.31-12.38-8.9-5.65-6.03-9.4-13.33-11.7-21.28-.55-1.85-1.04-3.4-2.86-4.4-10.8-5.88-16.54-15.76-19.74-26.96-1.77-6.18-4.65-10.5-10.34-13.16-.91-.42-1.72-1.09-2.57-1.65-4.05-2.65-3.14-6.55-2.63-10.35.86-2.1 2.3-2.25 3.73-.76 2.92 3.05 6.3 5.6 9.53 8.47-.7-7.85-2.27-15.73-4.05-23.58-.6-2.7-2.07-5.38-.67-8.27a2.63 2.63 0 012.76.15c5.26 14 8.9 28.47 12.5 42.96 1.47 5.95 2.34 12.1 5.77 17.38 1.21 1.86 2.48 4.57 4.9 4.06 2.87-.6 1.84-3.7 1.86-5.75.06-8.86-1.64-17.5-3.56-26.1-.56-2.54-1.74-5.15.26-7.63 4.15.58 3.8 4.28 4.4 6.92 3.08 13.57 5.79 27.23 7.22 41.1.8 7.68 3.22 14.77 7.72 21.08.95 1.34 2.11 2.87 3.95 2.37 1.87-.51 1.97-2.44 2.09-4.08.53-7.2-.88-14.28-1.72-21.37-3.68-30.8-13.26-59.85-26.5-87.78-.7-1.48-1.46-2.93-1.75-4.58-.13-2.69.62-4.78 3.64-5.29z" fill="#020102" fill-rule="evenodd"/><path d="M728 310.05c-2.8-3.19-.55-5.74 1.3-8.05 2.44-3.04 6.04-4.06 9.8-4.41 6.14-.58 12.26.16 18.38.53 7.76.46 15.51 1.05 23.26 1.68 4.78.4 8.85-1.17 12.45-4.16 1.4-1.17 2.68-2.51 4.02-3.77 1.59.51.85 2.07 1.52 2.97.98 1.33 1.93 1.16 3.08.33 2.16-1.56 2.82-3.95 3.5-6.3 1.15-3.94 2.53-7.78 4.97-11.14 1.8-2.46 4.08-3.96 7.32-3.54 2.3.3 3.17 1.6 2.87 3.81-.36 2.56-1.9 4.51-3.45 6.4-2.67 3.27-5.49 6.41-8.55 9.95 4.13 1.05 6.66-1.47 9.7-2.46.51 2.09-1.3 3.35-1.6 5.08-.4 2.32-.54 4.53 1.48 6.2 1.72 1.43 3.06-.29 4.44-.8 3.84-1.44 7.6-2.95 11.83-2.26.16 7.57-2.15 9.12-14.94 10.16 1.57 3.51 1.57 3.51 10.02 7.8-1.2 5.5-5.2 7.85-10.17 9.4-4.72 1.47-9.76.7-15.13 2.53 8.3 3.57 16.46 3.88 24.7 3.9-3.59 5.59-11.57 7.87-30.37 8.55 3 2.55 6.37 1.89 9.23 2.72 3.11.91 6.4 1.24 10.71 2.03-10.98 6.83-22.24 5.67-33.42 5.9 6.82 3.81 14.6 5.13 21.9 8.55-18.9 4.93-40.07-1.16-55.25-15.68.65-3.02 3.44-3.2 5.61-4.04 3.24-1.26 4.28-3.4 2.1-6.07-6.08-7.43-10.53-16.56-21.07-19.39-3.84-1.03-7.3-3.51-10.25-6.42z" fill="#fff" fill-rule="evenodd"/><path d="M771.21 222.58c-.2 11.12-4.5 21.1-8.95 30.98-1.68 3.73-3.87 7.21-5.81 10.81-1.23 2.28-3.1 3.44-5.57 2.4-2.35-1-2.12-3.32-1.76-5.35.24-1.38.94-2.68 1.45-4.02 3.13-8.24 6-16.52 5.87-25.53-.17-11.47-6.56-18.28-18.1-18.96-7.85-.46-15.46 1.03-22.95 3.23-16.2 4.77-31.25 12.16-45.8 20.58a400.28 400.28 0 00-55.83 38.92c-2.5 2.09-5.08 4.24-8.43 4.84-2.95.53-4.47-1.02-3.62-3.83a18 18 0 015.63-8.63c20.63-17.55 42.1-33.91 66.35-46.2 18.46-9.35 37.57-17.23 57.85-21.76 6.54-1.46 13.17-2.47 20.03-1.14 13.87 2.7 19.74 9.51 19.64 23.66zM816.57 219.55c-.87-13.62 7.49-22.69 22.69-23.94 11.4-.94 22.3 1.62 33.23 4.49 39.43 10.35 74.42 29.35 106.55 54.03a88.88 88.88 0 016.58 5.49 11 11 0 013.12 5.22c.95 3.57-.72 5.29-4.18 4.18-2.95-.93-5.5-2.68-8-4.5a400.97 400.97 0 00-68.08-40.19c-14.52-6.69-29.45-12.22-45.38-14.58a51.1 51.1 0 00-16.46.17C834.82 212 830.43 221.9 832 232.3c1.18 7.75 3.79 15.04 7.18 22.07.98 2.02 2.17 3.96 2.05 6.35-.08 1.5-.37 2.93-1.92 3.53-1.38.54-2.85.48-4.04-.56a8.87 8.87 0 01-1.56-1.87c-6.82-10.51-12.85-21.4-16-33.65-.76-3-1.33-6-1.14-8.62z" fill="#904b2e" fill-rule="evenodd"/><path d="M741.36 332.49c-5.1-2.51-9.95-5.52-15.56-6.9-2.22-.56-4.4-.9-6.67-.78-4.8.23-7.93 2.62-9.65 7.16-1.14 3-.81 6.45-2.58 9.2-1.63-.25-2.35-1.33-3.2-2.18-10.58-10.68-7.43-22.68 7.07-26.98 5.22-1.55 10.52-1.21 15.82-.61 14.03 4.4 26.03 11.5 33.4 24.86 1.43 2.57.4 4.3-1.88 5.49-2.54 1.32-5.34 1.88-8.1 2.52-9.7-4.06-18.3-10.08-27.43-15.2 6.39-.18 11.64 3.4 17.55 4.6.81.24 1.7.08 2.5.4-.1-.79-.9-1.01-1.27-1.58z" fill="#fec324" fill-rule="evenodd"/><path d="M958.7 272.75c5.07-1.75 8.15.21 11.02 2.62 3.62 3.05 6.48 6.75 9.03 10.73 3.77 5.85 6.72 12.13 9.61 18.43.83 1.83 1.72 3.72 1.53 5.86-.32 3.5-2.91 4.9-6.03 3.28a8.6 8.6 0 01-3.53-3.3c-7.13-12.33-14.2-24.68-21.63-37.62z" fill="#8f4a2d" fill-rule="evenodd"/><path d="M631.54 282.2c.47 1.25-.12 2.13-.56 3.02-5.63 11.34-11.3 22.66-16.89 34.01a13.43 13.43 0 01-5.2 5.87c-2.36 1.4-4.44.42-5.06-2.29a9.46 9.46 0 01.28-5.45c3.7-9.73 7.4-19.49 13.83-27.86 2-2.6 4.28-4.94 7.3-6.4 2.04-.98 4.09-1.88 6.3-.9z" fill="#8e492d" fill-rule="evenodd"/><path d="M577.73 328.62c-2.66-.07-4.76-1.67-7.08-2.64l-.21-1.34c-1.96-5.49-.39-10.35 2.46-15.11a112.46 112.46 0 0117.41-22.1c1.3-1.3 2.33-4.6 5.24-2.03 3.06 2.7 3.19 4.25.97 7.79-4.14 6.57-8.25 13.16-12.34 19.76-.76 1.21-1.55 2.43-2.09 3.75-1.6 3.95-3.92 7.15-8.3 8.2.77 2.12 3.68 1.44 3.94 3.72z" fill="#8e4a2d" fill-rule="evenodd"/><path d="M1023.4 305.54c.05 5.08-3 6.99-7.28 4.97-1.77-.83-2.81-2.31-3.73-3.91-5.22-9.03-11.34-17.44-17.63-25.73-2.03-2.66-1.33-6.25 1.53-8.18 1.09-.73 1.9-.26 2.68.47 8.65 8.1 17.03 16.45 22.92 26.91a10.85 10.85 0 011.51 5.47zM614.73 282.73c-2.53 5.14-4.6 9.26-6.6 13.4a137.09 137.09 0 00-9.06 24.64c-.79 3-2.6 5.01-4.69 6.96-1.73 1.61-3.8 2.72-6.07 1.26-2.03-1.31-2.8-3.5-2.5-5.88.2-1.61.51-3.28 1.17-4.74 5-11 10.45-21.71 19.55-30.05 2.19-2.01 4.41-3.94 8.2-5.59z" fill="#8e492d" fill-rule="evenodd"/><path d="M977.15 272.8c9.16 3.99 15.37 11.18 20.75 19.12 2.96 4.37 5.28 9.17 7.95 13.75 1.4 2.4 1.78 4.98 1.41 7.67-.47 3.47-2.92 4.89-6.17 3.48a11.94 11.94 0 01-6.85-7.43c-4.13-12.88-10.23-24.82-17.09-36.6z" fill="#8e4a2d" fill-rule="evenodd"/><path d="M965.38 298.65c-.05 3.72-.73 4.26-3.66 3.22a19.19 19.19 0 01-6.78-4.05c-6.67-6.2-10.23-14.08-12.5-22.7-.65-2.45.32-3.43 2.73-3.33 6.25.26 10.7 3.68 14.18 8.46 4.08 5.61 5.17 12.29 6.03 18.4z" fill="#8f4a2d" fill-rule="evenodd"/><path d="M627.31 306.35c.9-7.02 2.37-15.02 8.84-21.03 2.77-2.58 6-4.27 9.76-4.74 2.27-.29 3.5.42 2.95 3.1-1.67 8.14-4.58 15.7-9.9 22.17a18.87 18.87 0 01-6.12 5.04c-4.74 2.38-5.64 1.86-5.53-4.54zM911.69 284.54c6.07-.19 10.88 1.32 14.67 5.6 1.1 1.23 2.07 2.44 2.26 4.2 1.18 11.2 6.13 21.04 11.41 30.82-9.6-2.92-23.87-23.2-28.34-40.62zM654.69 333.77c-.58-1.63.65-2.72 1.2-3.95 3.8-8.61 6.79-17.44 7.98-26.85.8-6.23 7.79-11.66 13.97-11.34 1.53.08 2.35.77 1.94 2.3-.6 2.15-1.32 4.28-2.09 6.39-4.4 12.03-10.5 23-20.13 31.72-.8.73-1.37 2.02-2.87 1.73z" fill="#8e4a2d" fill-rule="evenodd"/><path d="M696.42 290.4l-13.57 29.9a6.46 6.46 0 01-2.81 3.13c-2 1.1-4.25 2.34-6.29.79-2.07-1.58-.64-3.77.07-5.6 3.32-8.56 6.76-17.07 10.06-25.63.8-2.06 2.06-2.76 4.2-2.62 2.42.15 4.86.03 8.34.03z" fill="#8e492d" fill-rule="evenodd"/><path d="M896.16 284.65c.42-.14.8-.35 1.17-.37 3.03-.11 6.47-1.12 8.98-.02 2.67 1.18 2.78 5.2 4.12 7.92 3.22 6.6 6.3 13.28 9.38 19.96.66 1.43 1.72 2.99.18 4.5-1.36 1.33-3.07.93-4.63.53a7.2 7.2 0 01-4.72-3.65c-4.86-9.22-9.67-18.46-14.46-27.7-.16-.31-.02-.78-.02-1.17z" fill="#8e4a2d" fill-rule="evenodd"/><path d="M987.94 354.2c-10.53-12.25-17.55-25.8-19.98-42.4 4.26 1.15 6.65 4.4 9.94 6.02 4.16 2.02 4.34 5.88 5.1 9.73 1.54 7.77 3.5 15.46 5.3 23.17.23.98.61 1.93-.36 3.49z" fill="#8e492d" fill-rule="evenodd"/><path d="M953 330.2c-6.04-2.97-9.45-7.69-12.35-12.93-3.72-6.75-5.4-14.1-6.82-21.56-.43-2.2.42-2.99 2.66-2.65 6.28.93 7.32 1.88 7.9 8.03.84 8.87 3.79 17.13 7.16 25.28.52 1.26.97 2.55 1.45 3.83z" fill="#8c492c" fill-rule="evenodd"/><path d="M848.5 315.88c.75-7 3.91-12.24 8.16-16.97.93-1.04 2-1.25 3.23-.36a78.2 78.2 0 0012.62 7.4c1.71.82 1.86 1.92.97 3.43-1.44 2.44-2.85 4.9-4.2 7.24-2-.1-1.93-1.53-2.28-2.6-.3-.9-1.01-1.6-1.75-1.2-2.73 1.48-5 .99-7.94 0-2.24-.75-4.81 2.6-8.8 3.06z" fill="#8e492d" fill-rule="evenodd"/><path d="M642.31 339.06c-.89-2.46.74-4.38 1.38-6.42 2.48-8 4.73-15.99 4.66-24.48-.03-3.88 4.37-7.32 8.19-6.66 2.05.36 1.64 2.06 1.57 3.4-.6 11.27-3.85 21.6-11.13 30.41-1.25 1.5-2.38 3.35-4.67 3.75z" fill="#8d492c" fill-rule="evenodd"/><path d="M871.05 257c5.44.55 10.39 3.73 13.07 9.83 1.66 3.78 3.9 7.63 1.9 12.05-4.14.04-7.23-2.4-10.32-4.63-4.42-3.18-7.3-7.56-9-12.72-1.36-4.1-.97-4.67 4.35-4.53zM880.39 249.47c7.74 2.85 13.86 6.2 18.18 12.12a14.28 14.28 0 012.76 9.81c-.25 2.84-1.28 3.56-4.06 2.65a19.83 19.83 0 01-9.38-6.6c-4.02-5-6.01-10.83-7.5-17.98z" fill="#8e492d" fill-rule="evenodd"/><path d="M641.2 314.38c.12 14.37-5.06 26.37-14.31 37.03-1.44-1.67-.63-2.97-.31-4.24 1.77-7.16 3.08-14.39 2.9-21.79-.05-2.5.37-4.31 3.06-5.2 3.32-1.08 5.71-3.7 8.66-5.8z" fill="#8d492c" fill-rule="evenodd"/><path d="M951.47 304.5c4.32 3.07 7.19 5.77 11.02 6.7 1.19.3 1.6 1.2 1.6 2.3-.08 9.44 2.65 18.41 4.67 27.58-10.05-9.6-16.38-20.9-17.3-36.57z" fill="#8e492d" fill-rule="evenodd"/><path d="M705 284.36c-1.55-12.27 5.13-21.8 16.24-23.2 2.66-.33 3.47.42 2.9 3.03-2.1 9.79-10.92 19.33-19.14 20.17zM709.13 254.77a43.08 43.08 0 01-5.18 16.35 19.9 19.9 0 01-5.13 6.04c-2.35 1.87-5.26 4.9-8 2.77-2.36-1.82-1.38-5.8-.53-8.72 1.12-3.82 3.61-6.89 6.74-9.3 3.52-2.73 6.95-5.66 12.1-7.14z" fill="#8e4a2d" fill-rule="evenodd"/><path d="M902.41 234.35c-10.58 2.2-20.85-4.26-25.51-13.19-1.12-2.14-.19-3.01 1.96-3.07 11.5-.3 19.62 5.18 23.55 16.26z" fill="#8d492d" fill-rule="evenodd"/><path d="M736.14 219.68c-1.8 11.25-6.67 16.18-15.88 16.47-4.24.13-4.7-.44-4.07-4.42 1.81-11.47 11.54-14.9 19.95-12.05zM686.6 240.77c2.68-11.76 11.23-17.57 24.19-16.74-1.41 10.12-12.04 17.64-24.2 16.74z" fill="#8e492d" fill-rule="evenodd"/><path d="M851.8 215.83c10.75-2.39 17.9 1.26 19.96 10.22 1.04 4.48.3 5.39-4.33 5.36-9.44-.06-14.72-5.33-15.63-15.58z" fill="#8e4a2d" fill-rule="evenodd"/><path d="M670.28 269.47c-1.57 8.26-4.33 14.9-9.82 20.22-.88.85-1.78 1.73-2.81 2.36-1.51.93-3.1 2.7-4.94 1.5-1.5-.96-.9-3.03-.73-4.58.58-5.44 2.44-10.3 6.78-13.98 3.14-2.66 6.42-4.92 11.52-5.52zM709.02 293.83c-3.4 7-7.46 13.37-10.3 20.42-1.46 3.62-5.15 6.06-6.87 4.94-3.17-2.04-1.83-4.97-1-7.72 1.58-5.3 3.27-10.56 6.48-15.17.83-1.18 1.54-2.54 3.39-1.62 2.87 1.42 5.5.56 8.3-.85z" fill="#8d492c" fill-rule="evenodd"/><path d="M881.71 287.9c4.12 1.19 6.76 3.54 9.85.95 1.32-1.1 2.21.32 2.9 1.23a48.2 48.2 0 018.28 17.57c.47 1.93.81 4.36-1.67 5.29-2.23.83-3.87-.74-5.2-2.32a16.41 16.41 0 01-1.92-3.12c-3.36-6.53-7.39-12.66-12.24-19.6z" fill="#8d492d" fill-rule="evenodd"/><path d="M920.36 262.1c11.72 2.11 18.89 9.63 19.2 19.56.13 3.9-.76 4.6-4.12 2.84-5.02-2.64-8.66-6.73-11.3-11.69-1.7-3.19-3.36-6.43-3.78-10.72z" fill="#8d492c" fill-rule="evenodd"/><path d="M728.08 280.45c-4.33.05-4.71-.45-4.21-3.8 1.21-8.07 5.55-13.4 13.52-15.53 3.62-.97 4.77-.01 3.96 3.47-.77 3.36-1.66 6.72-3.54 9.7-2.47 3.9-5.95 6.02-9.73 6.16zM862.81 276.52c-2.83-.47-5.67-1.34-7.94-3.7-3.4-3.53-5-7.91-6.2-12.47-.66-2.44.62-3.54 2.98-3.05 8.15 1.67 13.12 5.6 15.25 14.7.75 3.22-.56 4.6-4.09 4.52z" fill="#8d492d" fill-rule="evenodd"/><path d="M727.4 290.87a58.9 58.9 0 01-9.48 13.8c-1.38 1.5-2.9 2.9-4.81 3.68-2.67 1.07-4.4-.1-4.55-2.97-.22-4.1 6.24-15.4 9.75-17.11 1.04-.5 1.9-.18 2.87.24 1.85.8 3.78 1.44 6.23 2.36z" fill="#8e492d" fill-rule="evenodd"/><path d="M864.72 286.31c.94-.37 1.5-.78 2.07-.77 2.34.03 3.93-3.21 6.04-2.07 2.23 1.2 3.98 3.43 5.7 5.4a23.9 23.9 0 014.89 9.08c.54 1.81 1.23 3.67-.47 5.08-2.02 1.68-3.93.25-5.55-.87-3.37-2.35-6.11-5.4-8.55-8.67-1.54-2.07-3.48-3.97-4.13-7.18z" fill="#8d492d" fill-rule="evenodd"/><path d="M884.78 238.45c1.35-1.3 2.32-.08 3.24.16 3.54.93 6.9 2.38 10.63 2.67 4.71.37 8.9 5.34 8.7 9.92-.08 1.9-1.31 2.33-2.9 2.33-2.16 0-3.88-1.13-5.6-2.24-5.35-3.45-9.63-8.06-14.07-12.84z" fill="#8b482c" fill-rule="evenodd"/><path d="M906.5 264.7c-.09-1.54.3-2.86 1.85-3.48 1.79-.71 3.6-.74 5.23.38 2.1 1.42 3.3 3.56 4.25 5.83 1.09 2.62 2.17 5.24 3.06 7.93.6 1.82-.36 2.63-2.22 2.52-6.14-.34-12.13-6.8-12.16-13.18z" fill="#8c482c" fill-rule="evenodd"/><path d="M683.83 272.54c-.13 6.15-5.29 11.95-11.2 12.65-2 .24-2.7-.76-2.3-2.48.93-3.97 1.97-7.92 4.1-11.44.85-1.39 1.96-2.6 3.63-3.12 3.76-1.16 5.86.42 5.77 4.39z" fill="#8c492c" fill-rule="evenodd"/><path d="M704.06 243.53a71.5 71.5 0 01-12.49 13.5 18.13 18.13 0 01-4.73 2.78c-2.88 1.2-4.4.1-4.3-2.86.17-4.55 2.87-8.11 7.42-9.11 4.78-1.05 9.28-2.87 14.1-4.31z" fill="#8b482c" fill-rule="evenodd"/><path d="M741.1 290.1c-3.74.07-4.76-1.21-3.83-4.77 1.2-4.62 4.18-7.78 8.34-9.87 2.66-1.34 3.5-.85 4.16 2.1 1.48 6.64-2.52 12.44-8.68 12.54z" fill="#89472b" fill-rule="evenodd"/><path d="M813.22 248.85c-.33 4.77-3.19 8.16-6.4 11.29-.92.88-1.8.1-2.47-.78a10.48 10.48 0 01.82-13.86c1.39-1.4 2.82-2.27 4.84-1.35 2.02.93 3.27 2.34 3.21 4.7z" fill="#8c482c" fill-rule="evenodd"/><path d="M922.57 251.45c2.05-.2 3.3.03 4.04-.47 4.54-3.1 7.32-.59 10.14 2.73a43.87 43.87 0 014.42 5.87c.53.9 1 1.89.24 2.82-.75.9-1.84.8-2.82.4a41.49 41.49 0 01-16.02-11.35z" fill="#88462b" fill-rule="evenodd"/><path d="M837.64 236.88c8.5-.47 14.14 2.84 16.05 8.98.92 2.95.28 3.7-2.82 3.21-6.83-1.07-10.24-5.88-13.23-12.19z" fill="#88472b" fill-rule="evenodd"/><path d="M666.31 260.24a42.67 42.67 0 01-13.48 10.63c-1.1.55-2.28 1.26-3.4.27-1.5-1.33-.27-2.69.31-3.87 1.75-3.55 4.6-6.23 7.36-8.99 1.03-1.04 2.14-1.2 3.24-.27 1.62 1.35 3.85 1.02 5.97 2.23z" fill="#8b482b" fill-rule="evenodd"/><path d="M750.73 240.35c-2.02 6.03-5.42 10.5-11.85 12.07-.95.23-2 .86-2.88.01-1.06-1.01-.6-2.27-.24-3.43 2.02-6.48 7.47-9.7 14.97-8.65z" fill="#8b482c" fill-rule="evenodd"/><path d="M841.94 220.24c5.08.26 8.66 3.86 8.94 8.72.16 2.92-.7 3.77-3.5 3.49-5-.5-8.68-4.22-8.75-8.63-.04-2.56.8-3.95 3.3-3.58z" fill="#8b492c" fill-rule="evenodd"/><path d="M859.46 237.76c4.51 1.3 8 2.87 11.7 1.96 2.7-.66 4.34-.31 4.62 2.83.3 3.38-.9 5.51-3.74 6a8.65 8.65 0 01-7.38-2.18c-2.38-2.05-3.8-4.68-5.2-8.6z" fill="#8c482c" fill-rule="evenodd"/><path d="M729.11 242.36c-.88 4.75-3.45 7.62-6.63 9.87-3.78 2.66-8.38 1-9.15-3.04-.66-3.53.75-5.22 4.45-4.67 3.81.56 6.98-1.77 11.33-2.16zM737.79 232.07c.04-5.16 3.97-9.08 8.93-9.07 1.15 0 1.87.42 2.28 1.55 1.88 5.26-3.9 12.3-9.45 11.37-2.36-.4-1.53-2.49-1.76-3.85z" fill="#8b482c" fill-rule="evenodd"/><path d="M860.82 336.24c-1.19 5.37-3.35 9.52-8.95 10.67-3.9.8-5.33-.8-4.43-4.73.8-3.54 3.08-5.73 6.64-6.36 1.98-.36 4.04-.59 6.74.42z" fill="#8d492d" fill-rule="evenodd"/><path d="M782.39 259.02c.04-5.22 5.27-8.7 9.52-6.87 1.12.48 1.29 1.38 1.37 2.41.36 4.2-3.49 8.87-7.79 9.51-1.26.19-1.87-.36-2.16-1.47-.37-1.35-.72-2.71-.94-3.58z" fill="#8b472c" fill-rule="evenodd"/><path d="M874.68 321.87c-2.12 4.92-5.16 8.19-9.6 10.14-1.06.46-2.27 1.13-3.42.13-1.22-1.05-2.8-1.98-3.05-3.64-.3-2.02 1.64-2.64 2.96-3.42a21.22 21.22 0 0113.1-3.2z" fill="#8c482c" fill-rule="evenodd"/><path d="M840.65 348.1c.11 6.42-2.26 11.04-6.07 12.13-1.73.5-3.97 1.2-5.21-.38-1.34-1.7.14-3.56 1.24-4.97 2.47-3.11 5.8-5.05 10.04-6.78z" fill="#89472b" fill-rule="evenodd"/><path d="M774.2 282.45c-1.04-8.49 1-11.57 8.56-13.51 1.8 6.68-.07 9.75-8.57 13.51z" fill="#8a472b" fill-rule="evenodd"/><path d="M857.3 321.66c-.15 3.24-5.9 7.48-8.99 6.57-1.37-.4-1.79-1.6-1.94-2.84-.3-2.4.45-4.52 2.42-5.94 2.14-1.54 4.68-1.29 7.1-.8 1.54.3 1.34 1.8 1.4 3z" fill="#89472b" fill-rule="evenodd"/><path d="M791.14 276.78c-1.2-5.3-1.19-9.74 3.48-12.83 2.16-1.43 3.37-.83 3.7 1.68.68 5-.98 7.74-7.18 11.15z" fill="#8c482c" fill-rule="evenodd"/><path d="M799.58 243.21c-.08 2.83-1.81 5.8-3.38 5.8-1.55 0-5.44-4.32-5.42-6 .02-2.09 3.68-5.7 5.67-5.62 1.9.08 3.21 2.53 3.13 5.82z" fill="#8b482c" fill-rule="evenodd"/><path d="M846.25 278.97c4.55 6.47 4.31 11.05-.35 14.21-.67.45-1.36.92-2.24.55-.9-.39-1.1-1.27-.97-2.02.7-4.14.72-8.47 3.56-12.74z" fill="#834329" fill-rule="evenodd"/><path d="M680.54 238.2c-5.93 5.22-12.33 9.84-17.93 16.08.78-7.8 7.33-13.65 17.93-16.08z" fill="#7d4128" fill-rule="evenodd"/><path d="M907.29 230.97c11.72 2.66 17.3 6.93 19.62 14.8-6.8-5.17-12.94-10.37-19.62-14.8z" fill="#7e4228" fill-rule="evenodd"/><path d="M829.28 278.81c-.62-3.72-.17-7.3-.14-10.85.01-.8.22-1.65 1.09-2 1.12-.44 1.9.27 2.62.98 4.06 4 2.82 8.56-3.57 11.87z" fill="#824329" fill-rule="evenodd"/><path d="M844.62 333.45c-.59 8.24-3.27 10.75-10.46 10.46 1.16-5.68 5.27-8.15 10.46-10.46z" fill="#824429" fill-rule="evenodd"/><path d="M801.2 279.51c-.95-5.42.44-8.42 4.62-10.24 2.16-.94 3.03.04 3.22 2.02.36 3.94-2.25 6.64-7.85 8.22z" fill="#84442a" fill-rule="evenodd"/><path d="M942.83 249.04c7.73 1.51 13.82 5 15.93 13.25a198.14 198.14 0 00-15.93-13.25z" fill="#753d25" fill-rule="evenodd"/><path d="M785.34 242.63c.11 5.72-1.5 8.4-5.44 9.96-2.33.92-2.91-.2-2.87-2.2.08-3.74 2.26-5.83 8.3-7.76z" fill="#89472b" fill-rule="evenodd"/><path d="M631.39 271.96c2.37-7.98 7.83-12.61 15.79-14.5-4.88 5.23-11.15 8.98-15.79 14.5z" fill="#753d26" fill-rule="evenodd"/><path d="M829.62 293.35c-1.3-2.57-.17-4.85.23-7.13.23-1.28-.16-3.05 1.84-3.28a4.2 4.2 0 014.17 1.87c.88 1.3.77 2.78-.14 3.95-1.58 2.04-3.28 4.04-6.1 4.6z" fill="#7e4027" fill-rule="evenodd"/><path d="M758.71 278.52c.03-3.48 1.79-6.43 3.36-5.94 1.44.44 3.08 4.27 2.68 6.4-.1.59-.33 1.18-.62 1.7-.65 1.2-1.05 2.95-2.87 2.56-1.52-.33-2.11-1.8-2.42-3.23-.13-.59-.1-1.21-.13-1.49z" fill="#834429" fill-rule="evenodd"/><path d="M771.77 258.22a11.1 11.1 0 01.5 7.35c-.47 1.77-1.5 3.85-3.59 3.43-1.94-.39-2.38-2.66-2.27-4.48.17-3.17 2.16-4.97 5.36-6.3z" fill="#88472b" fill-rule="evenodd"/><path d="M821.81 259.16c.1 3.94-.98 5.36-4.17 5.42-1.36.02-3.01.23-3.27-1.78-.31-2.44 2.77-6.6 5.11-6.81 2.56-.25 2.13 1.8 2.33 3.17z" fill="#8a482c" fill-rule="evenodd"/><path d="M860.6 293.43c-4.42-.98-6.3-3.87-7.87-7.04-.45-.91-.9-1.98.14-2.77.98-.75 1.96-.12 2.82.38 3.56 2.07 4.17 5.55 4.9 9.43z" fill="#7d4128" fill-rule="evenodd"/><path d="M793.25 285.1c-.03 1.86-3.75 5.26-5.86 5.14-.37-.02-.9-.16-1.05-.42-1.07-1.91-1.1-3.97.33-5.6 1.3-1.47 2.94-2.93 5.22-1.81.94.46 1.32 1.46 1.36 2.69z" fill="#89472c" fill-rule="evenodd"/><path d="M835.9 325.49c.37-3.42 2.61-5.33 5.42-6.68.94-.46 2.1-.35 2.1 1.15-.05 3.45-3.31 5.86-7.53 5.53z" fill="#86462b" fill-rule="evenodd"/><path d="M754.22 282.79c4.67 3.82 4.64 5.13-.01 9.46-.66-3.18-.76-5.98 0-9.46z" fill="#87462a" fill-rule="evenodd"/><path d="M553.57 339.57c2.74 3.98 5.31 8.04 6.9 12.64.07 3.79-1.4 7.16-2.81 10.55-7.31 17.45-12.1 35.6-15.08 54.26-.42 2.6-.7 5.3-2.53 7.45-2.15 11.88-2.28 23.97-3.7 35.93a34.18 34.18 0 01-7.59 17.8c-1.26 1.55-2.69 3.44-5.12 2.36-2.19-.99-2.43-3.21-2.41-5.26.1-9.41-.3-18.88.6-28.22a276.25 276.25 0 0111.8-58.1 357.67 357.67 0 0119.94-49.4z" fill="#904b2e" fill-rule="evenodd"/><path d="M562.3 356.68l1.05 1.2c.08 4.47 4.06 7.24 4.94 11.36.14 1.8.2 3.6-.68 5.27l-.64.64c-2.84 5.9-3.3 12.44-4.83 18.69-3.04 12.43-5.5 25-7.54 37.64a32.23 32.23 0 01-3.74 10.92c-.9 1.6-1.9 3.16-3.42 4.26-2.94 2.12-4.62 1.46-5.61-2.12-.95-3.4-.6-6.88-.7-10.33-.09-2.85.01-5.7.03-8.56.9-18.87 6.54-36.64 12.7-54.27 1.34-3.83 2.8-7.63 4.44-11.35.8-1.8 1.04-4.17 4-3.35z" fill="#904a2e" fill-rule="evenodd"/><path d="M585.7 370.51c1.33 4.51 1.37 9-.23 13.47-.32-1.3.2-2.82-1.01-3.9l-.9-3.01c-2.75 11.44-5.47 22.22-13.3 30.66-1.76 1.9-3.75 3.7-6.88 4.01-.92-7.85.67-15.25 1.66-22.67.62-4.64 2.17-9.16 1.93-13.92l-.06.07c1.35-3.15.43-6.87 2.5-9.84 3.78-2.4 7.84-1.38 11.8-.79 2.57.39 2.9 2.44 2.92 4.67 0 .51-1.25 2.64 1.3 1.87.6-.18-.54-.47.26-.62z" fill="#8e4b2f" fill-rule="evenodd"/><path d="M1042.93 356.67a69.4 69.4 0 017.2-13.4c13.15 25.62 22.48 52.53 27.33 80.96 1.82 10.67 3.35 21.38 3.62 32.22.08 3.03.63 6.88-3.05 7.87-3.48.94-5.27-2.45-6.9-5a47.36 47.36 0 01-7.35-21.2c-1.5-15.04-4.41-29.84-8.11-44.48-.32-1.27-.18-2.95-1.73-3.74l-.68-.64c-2.61-11.12-8.34-21.26-10.33-32.59z" fill="#904b2e" fill-rule="evenodd"/><path d="M1020.68 390.06c-.95-.8-.98-1.83-.74-2.93 1.09-4.74-1.04-9.74 1.14-14.4.2-.34.52-.66.59-1.02 1.12-6.6 1.11-6.6 8.01-6.2 2.8 10.55 5.3 21.15 5.95 32.43-5.2-.71-7.86-4.17-10.9-7.1-.85-.82-.8-3.1-2.96-2.14l-1.09 1.36z" fill="#8f4b2f" fill-rule="evenodd"/><path d="M780.05 310.01c-3.98 4.99-9.02 4.01-13.73 3.28-2.05-.32-3.6-1.66-4.43 1.5-.38 1.45-2.01 2-3.55 1.63-1.56-.36-2.37-1.48-2.47-3.1-.05-.73.5-1.58-.54-2.2-2.03-.2-3.14 1.44-4.44 2.66-1.23 1.15-2.56 1.16-3.97.66-1.2-.43-2.14-1.3-2.37-2.58-.24-1.37.68-2.37 1.75-2.94 1.24-.66 2.63-1.33 3.99-1.42 3.04-.2 6.14-.34 9.15.05 3.4.43 6.63 1.84 10.04 2.56 3.44.73 6.78-.77 10.57-.1z" fill="#0e0a0a" fill-rule="evenodd"/><path d="M749 343.84c2.08-2.24 5.16-2.23 7.73-3.37 2.26-1 2.79-2.36 1.27-4.25-3.83-4.78-7.5-9.73-11.74-14.12-2.42-2.5-5.22-6.04-9.72-3.12-.65.42-1.22-.15-1.46-.63-2-3.98-6.43-4.8-9.5-7.38l1.4-1.34c2.15.03 3.85 1.25 5.5 2.34 2.56 1.7 5.08 3.19 8.18 3.81 2.6.53 4.84 2.1 6.77 3.95 4.88 4.65 8.51 10.35 12.7 15.57 2.46 3.04 1.39 5.5-2.37 7.17-2.37 1.06-5.18 1.11-7.18 3.07l-1.59-1.7z" fill="#010001" fill-rule="evenodd"/><path d="M1052.79 393.34s-11.93-39.02-15.3-42.16c-3.35-3.15 3.11-1.46 3.11-1.46s12.73 32.98 14.8 41.84c0 0 3.28 10.34 5.7 27.21M560.9 399.04s4.65-25.31 9.26-35.06c4.6-9.74-6.57 19.3-6.55 35.26" fill="#020102" fill-rule="evenodd"/><path d="M740.84 332.23s4.39 2.28 5.3 3.25c.93.97-3.16-.94-6.59-1.94" fill="#010001" fill-rule="evenodd"/><path d="M538.38 438.03s11.98-91.18 24.92-89.84c0 0-9.46 4.42-22.45 97.94" fill="#020102" fill-rule="evenodd"/><path fill="#f4c22a" d="M717.06 369.64h160.57v2.92H717.06z"/><path d="M1050.13 343.27s-1.23-2.67-2.31-1.67 2.77 5.02 2.3 1.67z" fill="#904b2e" fill-rule="evenodd"/><path class="st158" fill="#010001" fill-rule="evenodd" d="M850.81 316.48l6.33-7.13 2.71 7.13M869.2 316.98l-2-5.2-4.47 1.98"/><path d="M867.1 364.14s1.95 1.58 1.95 5.5h-6.66l-.53-1.93" fill="#010001" fill-rule="evenodd"/><path d="M778.53 369.84s21.15-6.2 42.96 0" fill="#f4c22a"/><path d="M804.82 691.7s-2.98 2.7-3.5 3.83c-.5 1.13 8.53-.24 3.5-3.83z" fill="#fec323" fill-rule="evenodd"/><path d="M801.86 694.52l2.15-2.06c.07-.05-1.54 2.53-1.96 2.44" fill="#fec323"/><path fill="#bd813d" d="M895.14 658.11l91.62 91.43 10.15-21.22-80.46-78.81z"/><path fill="#904a2e" d="M995.43 731.42l-5.76 12.05-88.06-87.97 11.07-4.47z"/><path fill="#bd813d" d="M706.98 657.9l-91.63 91.41-10.15-21.21 80.46-78.82z"/><path fill="#904a2e" d="M606.69 731.2l5.76 12.04 88.05-87.96-11.06-4.47z"/><path d="M715.85 658.32l-47.35 47.05s2.77 9.22 65.5 42.73l4.91-15.06 33.52 22.14V678.6s-31.37-19.67-56.58-20.29z" fill="#fff"/><path d="M766.38 680.97s-17.37-9.53-18.91-9.53l-1.08 59.96 19.99 13.01v-63.44zM737.94 667.14s-9.69-5.08-20.3-3.08v53.8l19.14 8.93 1.16-59.65z" fill="#e51837" stroke="#000" stroke-width="1.23" stroke-miterlimit="10"/><path fill="#e51837" stroke="#000" stroke-width="1.2299" stroke-miterlimit="10" d="M682.75 695.2l1.23 20.67 21.52 10.92 1.69-52.74z"/><path d="M715.34 723.48v8.76l14.99 8.77v-11.15s-13.92-7.53-15-6.38z" fill="#e51837" stroke="#000" stroke-width="1.23" stroke-miterlimit="10"/><path fill="#fff" fill-rule="evenodd" d="M568.23 530.53l-8.3 72.41 43.1 55.38 41.79 23.74 40.25-40.59-32.4-10.15-22.33-78.28z"/><path d="M643.86 579.83l-99.49-58.03s38.24-102.15 37.21-138.73c-1.03-36.58 6.28-22.2 21.01 9.24 14.73 31.44 47.56 27.32 56.82 74.3 9.25 46.98-12.52 63.66-15.55 113.22z" fill="#fff" fill-rule="evenodd" stroke="#fff" stroke-width="3.6897" stroke-miterlimit="10"/><path d="M544.25 522.12S504.3 636.22 644.3 679.95l2.92-2.97s-45-13.04-70.17-59.25c0 0-20.89-30.14-6.74-80.92l-26.06-14.7z" fill="#fff" fill-rule="evenodd" stroke="#fff" stroke-width="3.6897" stroke-miterlimit="10"/><path d="M650.1 660.96c-64.76-48.52-44.6-103.13-44.6-103.13l-24.94-15.03c-11.53 82.81 63.23 115.66 69.43 118.23l.1-.07z" fill="#fff" fill-rule="evenodd" stroke="#fff" stroke-width="3.6897" stroke-miterlimit="10"/><path d="M624.48 568.75s-12.75 45.98 48.4 81.79l9.08-8.59s-36.98-18.31-38.17-61.83l-19.31-11.37z" fill="#fff" fill-rule="evenodd" stroke="#fff" stroke-width="3.6897" stroke-miterlimit="10"/><path d="M643.86 579.83l-99.49-58.03s38.24-102.15 37.21-138.73c-1.03-36.58 6.28-22.2 21.01 9.24 14.73 31.44 47.56 27.32 56.82 74.3 9.25 46.98-12.52 63.66-15.55 113.22z" fill="#012d6a" fill-rule="evenodd" stroke="#000" stroke-width="1.2299" stroke-miterlimit="10"/><path d="M544.25 522.12S504.3 636.22 644.3 679.95l2.92-2.97s-45-13.04-70.17-59.25c0 0-20.89-30.14-6.74-80.92l-26.06-14.7z" fill="#e51837" fill-rule="evenodd" stroke="#000" stroke-width="1.2299" stroke-miterlimit="10"/><path d="M650.1 660.96c-64.76-48.52-44.6-103.13-44.6-103.13l-24.94-15.03c-11.53 82.81 63.23 115.66 69.43 118.23l.1-.07z" fill="#e51837" fill-rule="evenodd" stroke="#000" stroke-width="1.2299" stroke-miterlimit="10"/><path d="M624.48 568.75s-12.75 45.98 48.4 81.79l9.08-8.59s-36.98-18.31-38.17-61.83l-19.31-11.37z" fill="#e51837" fill-rule="evenodd" stroke="#000" stroke-width="1.2299" stroke-miterlimit="10"/><path d="M647.8 425.49l-50.85-52.67s-17.25-3.63-30.87-2.72l-32.69-60.84 64.92 28.02s-2.72 8.76 4.09 21.02l52.89 50.16-7.5 17.03z" fill="#bb803b"/><path d="M595 347.79l-17.71 17.13s13.16.76 19.52 5.43l51.75 50.53 4.32-8.4-54.25-49.49s-4.77-6.35-3.64-15.2z" fill="#914c2d"/><path class="st90" fill="#ffc323" d="M539.29 313.71l30.47 50.24 11.72-10.25-23-25.8"/><path class="st90" fill="#ffc323" d="M539.29 313.71l53.13 25.1-8.98 12.71-28.05-20.2"/><path class="st33" fill="#bb803b" d="M585.07 352.18l-22.22-17.15 19.48 20.47"/><path fill="#fff" d="M637.65 542.25l-3.79 2.65 1.32-4.43-3.69-2.77 4.62-.11 1.5-4.37 1.54 4.35 4.6.08-3.66 2.8 1.36 4.42zM617.35 542.25l-3.78 2.65 1.32-4.43-3.7-2.77 4.63-.11 1.5-4.37 1.53 4.35 4.61.08-3.66 2.8 1.36 4.42zM623.2 519.5l-3.79 2.65 1.32-4.44-3.69-2.76 4.62-.12 1.5-4.36 1.54 4.35 4.6.08-3.66 2.79 1.36 4.43zM643.1 519.5l-3.78 2.65 1.32-4.44-3.7-2.76 4.63-.12 1.5-4.36 1.53 4.35 4.61.08-3.66 2.79 1.36 4.43zM647.87 497.12l-3.78 2.66 1.32-4.43-3.7-2.77 4.63-.12 1.49-4.36 1.54 4.35 4.6.08-3.65 2.79 1.35 4.43zM628.24 497.32l-3.78 2.65 1.32-4.43-3.7-2.77 4.63-.11 1.5-4.37 1.53 4.35 4.61.08-3.66 2.8 1.35 4.42zM608.72 497.32l-3.78 2.65 1.31-4.43-3.69-2.77 4.62-.11 1.5-4.37 1.54 4.35 4.6.08-3.66 2.8 1.36 4.42zM588.89 497.32l-3.79 2.65 1.32-4.43-3.69-2.77 4.62-.11 1.5-4.37 1.54 4.35 4.6.08-3.66 2.8 1.36 4.42zM603.36 519.5l-3.78 2.65 1.32-4.44-3.7-2.76 4.63-.12 1.5-4.36 1.53 4.35 4.61.08-3.66 2.79 1.36 4.43zM583.56 519.5l-3.79 2.65 1.32-4.44-3.69-2.76 4.62-.12 1.5-4.36 1.54 4.35 4.6.08-3.66 2.79 1.36 4.43zM563.62 519.5l-3.78 2.65 1.32-4.44-3.7-2.76 4.63-.12 1.5-4.36 1.53 4.35 4.61.08-3.66 2.79 1.35 4.43zM569.2 497.47l-3.78 2.65 1.32-4.43-3.69-2.76 4.62-.12 1.5-4.37 1.54 4.35 4.6.08-3.66 2.8 1.36 4.42zM574.33 475.33l-3.78 2.65 1.32-4.43-3.7-2.76 4.63-.12 1.5-4.37 1.53 4.36 4.61.07-3.66 2.8 1.35 4.43zM595.35 475.59l-3.79 2.65 1.32-4.43-3.7-2.76 4.63-.12 1.5-4.37 1.53 4.35 4.61.08-3.66 2.8 1.36 4.42zM615.29 476.9l-3.79 2.66 1.32-4.43-3.7-2.77 4.63-.12 1.5-4.36 1.54 4.35 4.6.08-3.66 2.8 1.36 4.42zM636.2 476.9l-3.79 2.66 1.32-4.43-3.7-2.77 4.63-.12 1.5-4.36 1.53 4.35 4.61.08-3.66 2.8 1.36 4.42zM642.65 454.87l-3.78 2.65 1.32-4.43-3.7-2.76 4.63-.12 1.5-4.37 1.53 4.35 4.61.08-3.66 2.8 1.36 4.42zM622.16 455.18l-3.79 2.65 1.32-4.43-3.7-2.77 4.63-.11 1.5-4.37 1.53 4.35 4.61.08-3.66 2.8 1.36 4.42zM601.5 454.05l-3.79 2.65 1.32-4.43-3.69-2.76 4.62-.12 1.5-4.37 1.54 4.35 4.6.08-3.66 2.8 1.36 4.42zM587.64 431.45l-3.79 2.65 1.32-4.43-3.7-2.76 4.63-.12 1.5-4.37 1.54 4.35 4.6.08-3.66 2.8 1.36 4.42zM592.76 409.82l-3.78 2.66 1.31-4.43-3.69-2.77 4.63-.12 1.49-4.36 1.54 4.35 4.6.08-3.65 2.79 1.35 4.43zM581.02 453.43l-3.78 2.66 1.32-4.43-3.7-2.77 4.63-.12 1.5-4.36 1.53 4.35 4.61.08-3.66 2.79 1.35 4.43zM609.24 432.45l-3.79 2.65 1.32-4.43-3.7-2.76 4.63-.12 1.5-4.37 1.54 4.35 4.6.08-3.66 2.8 1.36 4.42z"/><path fill="#fff" fill-rule="evenodd" d="M1034.84 530.53l8.3 72.41-43.1 55.38-41.8 23.74L918 641.47l32.41-10.15 22.33-78.28z"/><path d="M959.2 579.83l99.5-58.03s-38.24-102.15-37.21-138.73c1.03-36.58-6.28-22.2-21.01 9.24-14.73 31.44-47.57 27.32-56.82 74.3s12.52 63.66 15.54 113.22z" fill="#fff" fill-rule="evenodd" stroke="#fff" stroke-width="3.6897" stroke-miterlimit="10"/><path d="M1058.82 522.12s39.94 114.1-100.05 157.83l-2.92-2.97s45-13.04 70.17-59.25c0 0 20.88-30.14 6.74-80.92l26.06-14.7z" fill="#fff" fill-rule="evenodd" stroke="#fff" stroke-width="3.6897" stroke-miterlimit="10"/><path d="M952.97 660.96c64.75-48.52 44.6-103.13 44.6-103.13l24.94-15.03c11.53 82.81-63.23 115.66-69.43 118.23l-.1-.07z" fill="#fff" fill-rule="evenodd" stroke="#fff" stroke-width="3.6897" stroke-miterlimit="10"/><path d="M978.59 568.75s12.75 45.98-48.4 81.79l-9.08-8.59s36.98-18.31 38.17-61.83l19.31-11.37z" fill="#fff" fill-rule="evenodd" stroke="#fff" stroke-width="3.6897" stroke-miterlimit="10"/><path d="M959.2 579.83l99.5-58.03s-38.24-102.15-37.21-138.73c1.03-36.58-6.28-22.2-21.01 9.24-14.73 31.44-47.57 27.32-56.82 74.3s12.52 63.66 15.54 113.22z" fill="#012d6a" fill-rule="evenodd" stroke="#000" stroke-width="1.2299" stroke-miterlimit="10"/><path d="M1058.82 522.12s39.94 114.1-100.05 157.83l-2.92-2.97s45-13.04 70.17-59.25c0 0 20.88-30.14 6.74-80.92l26.06-14.7z" fill="#e51837" fill-rule="evenodd" stroke="#000" stroke-width="1.2299" stroke-miterlimit="10"/><path d="M952.97 660.96c64.75-48.52 44.6-103.13 44.6-103.13l24.94-15.03c11.53 82.81-63.23 115.66-69.43 118.23l-.1-.07z" fill="#e51837" fill-rule="evenodd" stroke="#000" stroke-width="1.2299" stroke-miterlimit="10"/><path d="M978.59 568.75s12.75 45.98-48.4 81.79l-9.08-8.59s36.98-18.31 38.17-61.83l19.31-11.37z" fill="#e51837" fill-rule="evenodd" stroke="#000" stroke-width="1.2299" stroke-miterlimit="10"/><g fill="#fff"><path d="M965.42 542.25l3.78 2.65-1.31-4.43 3.69-2.77-4.62-.11-1.5-4.37-1.54 4.35-4.6.08 3.66 2.8-1.36 4.42zM985.71 542.25l3.79 2.65-1.32-4.43 3.7-2.77-4.63-.11-1.5-4.37-1.53 4.35-4.61.08 3.66 2.8-1.36 4.42zM979.87 519.5l3.79 2.65-1.32-4.44 3.69-2.76-4.62-.12-1.5-4.36-1.54 4.35-4.6.08 3.66 2.79-1.36 4.43zM959.96 519.5l3.79 2.65-1.32-4.44 3.69-2.76-4.62-.12-1.5-4.36-1.54 4.35-4.6.08 3.66 2.79-1.36 4.43zM955.2 497.12l3.78 2.66-1.32-4.43 3.7-2.77-4.63-.12-1.5-4.36-1.53 4.35-4.61.08 3.66 2.79-1.35 4.43zM974.83 497.32l3.78 2.65-1.32-4.43 3.7-2.77-4.63-.11-1.5-4.37-1.53 4.35-4.61.08 3.66 2.8-1.36 4.42zM994.35 497.32l3.78 2.65-1.32-4.43 3.7-2.77-4.63-.11-1.49-4.37-1.54 4.35-4.6.08 3.65 2.8-1.35 4.42zM1014.18 497.32l3.79 2.65-1.32-4.43 3.69-2.77-4.62-.11-1.5-4.37-1.54 4.35-4.6.08 3.66 2.8-1.36 4.42zM999.7 519.5l3.79 2.65-1.32-4.44 3.7-2.76-4.63-.12-1.5-4.36-1.53 4.35-4.61.08 3.66 2.79-1.36 4.43zM1019.51 519.5l3.79 2.65-1.32-4.44 3.69-2.76-4.63-.12-1.49-4.36-1.54 4.35-4.6.08 3.66 2.79-1.36 4.43zM1039.45 519.5l3.78 2.65-1.32-4.44 3.7-2.76-4.63-.12-1.5-4.36-1.53 4.35-4.61.08 3.66 2.79-1.36 4.43zM1033.86 497.47l3.78 2.65-1.31-4.43 3.69-2.76-4.63-.12-1.49-4.37-1.54 4.35-4.6.08 3.66 2.8-1.36 4.42zM1028.74 475.33l3.78 2.65-1.32-4.43 3.7-2.76-4.63-.12-1.5-4.37-1.53 4.36-4.61.07 3.66 2.8-1.36 4.43zM1007.72 475.59l3.79 2.65-1.32-4.43 3.69-2.76-4.62-.12-1.5-4.37-1.54 4.35-4.6.08 3.66 2.8-1.36 4.42zM987.78 476.9l3.79 2.66-1.32-4.43 3.69-2.77-4.62-.12-1.5-4.36-1.54 4.35-4.6.08 3.66 2.8-1.36 4.42zM966.87 476.9l3.79 2.66-1.32-4.43 3.7-2.77-4.63-.12-1.5-4.36-1.53 4.35-4.61.08 3.66 2.8-1.36 4.42zM960.41 454.87l3.79 2.65-1.32-4.43 3.7-2.76-4.63-.12-1.5-4.37-1.53 4.35-4.61.08 3.66 2.8-1.36 4.42zM980.91 455.18l3.79 2.65-1.32-4.43 3.69-2.77-4.62-.11-1.5-4.37-1.54 4.35-4.6.08 3.66 2.8-1.36 4.42zM1001.57 454.05l3.78 2.65-1.31-4.43 3.69-2.76-4.63-.12-1.49-4.37-1.54 4.35-4.6.08 3.66 2.8-1.36 4.42zM1015.43 431.45l3.79 2.65-1.32-4.43 3.69-2.76-4.62-.12-1.5-4.37-1.54 4.35-4.6.08 3.66 2.8-1.36 4.42zM1010.3 409.82l3.8 2.66-1.33-4.43 3.7-2.77-4.63-.12-1.49-4.36-1.54 4.35-4.61.08 3.66 2.79-1.35 4.43zM1022.05 453.43l3.78 2.66-1.32-4.43 3.7-2.77-4.63-.12-1.5-4.36-1.53 4.35-4.61.08 3.66 2.79-1.36 4.43zM993.83 432.45l3.79 2.65-1.32-4.43 3.69-2.76-4.62-.12-1.5-4.37-1.54 4.35-4.6.08 3.66 2.8-1.36 4.42z"/></g><path d="M952.33 425.96l50.85-52.67s17.25-3.63 30.87-2.72l32.69-60.84-64.92 28.02s2.72 8.76-4.09 21.02l-52.89 50.16 7.5 17.03z" fill="#bb803b"/><path d="M1005.14 348.26l17.7 17.13s-13.16.76-19.52 5.43l-51.75 50.53-4.32-8.4 54.25-49.49s4.77-6.35 3.64-15.2z" fill="#914c2d"/><path class="st90" fill="#ffc323" d="M1060.84 314.18l-30.47 50.24-11.72-10.25 23-25.8"/><path class="st90" fill="#ffc323" d="M1060.84 314.18l-53.13 25.1 8.98 12.71 28.05-20.2"/><path class="st33" fill="#bb803b" d="M1015.06 352.65l22.22-17.15-19.48 20.47"/><path d="M962.6 421.88a2378.49 2378.49 0 01-16.9-31.37c-1.02-1.94-2.23-2.7-4.4-2.74-9.94-.2-19.69-1.88-28.89-5.57-50.69 629.14-153.68-13.98-221.08-.14-9.24 3.85-19.1 5.4-29.1 5.77-1.52.05-2.97-.09-3.94 1.74a3198.27 3198.27 0 01-17.53 32.52c-.64 1.16-.73 1.84.48 2.77 16.48 12.6 23.44 30.01 24.84 50.13 1.06 15.3-.82 30.38-4.52 45.19-2.44 9.75-6.11 19.15-8.2 29.02-3.28 15.51-5.1 31.1-1.75 46.79 5.03 23.57 19.07 39.47 41.66 47.5 13.02 4.63 26.26 8.64 39.36 13.05 25.98 8.76 48.93 22.26 66.98 43.4 2.1 2.44 2.2 2.44 4.25.02 13.16-15.45 29.19-27.07 47.46-35.6 13.9-6.5 28.57-10.91 43.11-15.68 7.46-2.46 15.27-4.1 22.3-7.63 24.32-12.21 36.02-32.54 36.8-59.51.53-18.32-3.6-35.85-9.14-53.14-6.1-19-8.61-38.44-6.46-58.34 1.97-18.21 9.34-33.67 24.1-45.04 1.36-1.05 1.34-1.75.58-3.14" fill="#fec323"/><path d="M716.38 372.81c-26.33 19.75-54.57 20.31-54.57 20.31l-15.47 29.16s24 17.73 25.22 59.78c0 0 .16 27.38-11.12 60.19-11.29 32.81-5.08 66.5 9.62 80.25s19.66 12.9 61.68 29.55c33.7 13.35 48.68 22.03 70.2 42.6 16.04-16.66 46.52-36.22 71.75-44.96 43.59-11.97 44.95-13.44 59.65-27.19 14.7-13.75 20.94-47.44 9.66-80.25-11.28-32.81-11.13-60.19-11.13-60.19 1.22-42.04 25.2-59.78 25.2-59.78l-15.48-29.15s-27.68-.57-53.5-20.32h-86.15z" fill="#fefefe" fill-rule="evenodd"/><path d="M885.8 658.32l47.35 47.05s-2.77 9.22-65.5 42.73l-4.92-15.06-33.51 22.14V678.6s31.36-19.67 56.58-20.29z" fill="#fff"/><path d="M835.27 680.97s17.37-9.53 18.9-9.53l1.08 59.96-19.98 13.01v-63.44zM863.7 667.14s9.7-5.08 20.3-3.08v53.8l-19.14 8.93-1.15-59.65z" fill="#e51837" stroke="#000" stroke-width="1.23" stroke-miterlimit="10"/><path fill="#e51837" stroke="#000" stroke-width="1.2299" stroke-miterlimit="10" d="M918.9 695.2l-1.23 20.67-21.52 10.92-1.7-52.74z"/><path d="M886.3 723.48v8.76l-14.98 8.77v-11.15s13.91-7.53 14.99-6.38z" fill="#e51837" stroke="#000" stroke-width="1.23" stroke-miterlimit="10"/><path d="M751.45 804.17l-7.74-1.9 6.8-27.7a27.58 27.58 0 01-11.36 3.1l1.63-6.64c2.18-.14 4.67-.8 7.46-1.97a14.28 14.28 0 006.39-4.94l6.27 1.54-9.45 38.51zM778.54 786.6c-2-1-3.4-2.27-4.23-3.81a8.73 8.73 0 01-1.02-4.9 9.49 9.49 0 013.84-7.12c2.33-1.77 5.49-2.49 9.48-2.17 3.97.32 6.97 1.53 9 3.64a9.46 9.46 0 012.68 7.65 8.44 8.44 0 01-1.9 4.82 9.46 9.46 0 01-4.51 2.96 11.16 11.16 0 014.99 4.3 9.94 9.94 0 011.33 6.03c-.3 3.7-1.76 6.6-4.4 8.7-2.65 2.1-6.01 3-10.09 2.67-3.78-.3-6.85-1.51-9.22-3.64-2.8-2.47-4.06-5.66-3.74-9.58.17-2.16.89-4.1 2.16-5.81a10.64 10.64 0 015.63-3.74m.16 9.46c-.16 2.1.27 3.78 1.3 5.05a5.63 5.63 0 004.09 2.1 5.42 5.42 0 004.22-1.38c1.18-1.05 1.85-2.64 2.02-4.77a6.19 6.19 0 00-1.29-4.63 5.62 5.62 0 00-4.05-2.03c-1.96-.15-3.47.37-4.52 1.57a6.9 6.9 0 00-1.77 4.09m2.09-17.03a4.66 4.66 0 001.06 3.65c.83.92 2 1.44 3.51 1.56 1.51.12 2.76-.2 3.74-1a4.68 4.68 0 001.65-3.46 4.52 4.52 0 00-1.08-3.52 4.96 4.96 0 00-3.46-1.58c-1.54-.12-2.8.21-3.78 1a4.53 4.53 0 00-1.64 3.35M806.21 800.28l7.42-1.3a5.6 5.6 0 001.7 3.27c.81.68 1.85.99 3.11.9 1.6-.1 2.9-.93 3.93-2.48 1.03-1.54 1.55-4.62 1.54-9.24a9.31 9.31 0 01-7.09 3.86c-3.18.22-6-.82-8.47-3.12-2.46-2.29-3.82-5.4-4.09-9.3-.27-4.06.72-7.42 2.98-10.09 2.25-2.67 5.27-4.13 9.04-4.38a12.6 12.6 0 0110.43 4.04c2.85 2.98 4.51 8.08 5 15.3.5 7.36-.51 12.76-3.04 16.2a13.38 13.38 0 01-10.38 5.6c-3.16.22-5.77-.44-7.83-1.98-2.06-1.54-3.48-3.97-4.25-7.28m16.39-18c-.17-2.5-.88-4.4-2.13-5.68-1.24-1.29-2.61-1.88-4.1-1.78a4.5 4.5 0 00-3.47 1.93c-.87 1.18-1.23 3.05-1.05 5.6.17 2.61.82 4.49 1.93 5.63a4.86 4.86 0 003.97 1.56c1.49-.1 2.7-.78 3.66-2.02.94-1.24 1.34-2.99 1.19-5.24M861.16 770.49l-7.14 2.63c-.54-1.43-1.28-2.42-2.21-2.94-.93-.53-2-.65-3.2-.35a5.14 5.14 0 00-3.54 3.14c-.75 1.69-.71 4.8.12 9.33a9.16 9.16 0 016.22-5.04 11.1 11.1 0 019 1.54c2.82 1.8 4.7 4.59 5.64 8.33.98 3.97.59 7.45-1.19 10.44-1.77 3-4.52 4.95-8.23 5.87a12.7 12.7 0 01-10.98-2.12c-3.33-2.4-5.85-7.08-7.58-14.03-1.76-7.1-1.69-12.56.22-16.37a13.47 13.47 0 019.25-7.3c3.01-.75 5.7-.54 8.07.63 2.37 1.16 4.22 3.24 5.55 6.24m-13.14 20.49c.6 2.41 1.63 4.14 3.09 5.18a5.16 5.16 0 004.36 1.02 4.57 4.57 0 003.1-2.48c.67-1.3.7-3.19.08-5.65-.62-2.52-1.58-4.23-2.88-5.16a4.9 4.9 0 00-4.2-.82 4.91 4.91 0 00-3.27 2.6c-.72 1.37-.82 3.14-.28 5.3" fill="#fff"/><g fill="#012d6a"><path d="M700.13 445.91l5.15-2.35 11.62 25.52-5.14 2.35zM733.49 433.87l7.98 27.26-5.53 1.62-16.18-14.54 5.2 17.75-5.11 1.5-7.99-27.26 5.35-1.56 16.5 14.92-5.34-18.2zM741.47 432.22l10.29-1.38c2.32-.3 4.11-.37 5.38-.17 1.7.27 3.22.95 4.55 2.03a12.3 12.3 0 013.27 4.16 20.6 20.6 0 011.8 6.46c.3 2.3.29 4.32-.06 6.06a12.61 12.61 0 01-2.34 5.32 9.89 9.89 0 01-3.67 2.76c-1.19.56-2.82.98-4.89 1.25l-10.6 1.42-3.73-27.91zm6.27 3.98l2.46 18.47 4.2-.56a15.4 15.4 0 003.37-.72c.89-.35 1.6-.84 2.13-1.46a5.9 5.9 0 001.12-2.88c.21-1.3.17-3.04-.11-5.2a16.8 16.8 0 00-1.24-4.9 6.46 6.46 0 00-1.95-2.48 5.41 5.41 0 00-2.8-.96c-.8-.08-2.36.04-4.66.35l-2.52.34zM769.3 428.68l5.94-.14.35 14.91c.06 2.36.17 3.89.34 4.58a4.47 4.47 0 001.89 2.68c.97.66 2.28.97 3.94.93 1.69-.04 2.95-.4 3.8-1.06a3.75 3.75 0 001.48-2.41c.14-.94.19-2.5.14-4.68l-.37-15.23 5.94-.14.35 14.46c.08 3.3-.02 5.64-.31 7.01a7.51 7.51 0 01-1.68 3.5 9.02 9.02 0 01-3.4 2.32c-1.44.59-3.33.91-5.66.97-2.8.07-4.94-.19-6.4-.76a9.28 9.28 0 01-3.5-2.3 7.27 7.27 0 01-1.74-2.98 31.3 31.3 0 01-.76-6.98l-.35-14.68zM795.87 446.61l5.56-.54c.34 1.88 1.03 3.26 2.05 4.14a6.1 6.1 0 004.13 1.33c1.86 0 3.25-.4 4.19-1.18.93-.78 1.4-1.7 1.4-2.75 0-.67-.2-1.24-.6-1.72a4.63 4.63 0 00-2.07-1.23c-.67-.24-2.19-.65-4.56-1.25-3.08-.76-5.23-1.69-6.46-2.79a7.44 7.44 0 01-1.39-9.8c.82-1.27 2-2.23 3.54-2.9 1.54-.65 3.4-.98 5.57-.98 3.57 0 6.24.79 8.04 2.36a8.33 8.33 0 012.82 6.26l-5.73.27c-.23-1.47-.75-2.52-1.56-3.16-.81-.64-2.02-.96-3.62-.96-1.67 0-2.98.34-3.91 1.03-.6.43-.9 1.02-.9 1.76 0 .67.28 1.25.84 1.73.72.6 2.47 1.23 5.25 1.89 2.78.66 4.84 1.34 6.19 2.04a7.85 7.85 0 013.13 2.9 8.56 8.56 0 011.12 4.53 8.43 8.43 0 01-5.17 7.76c-1.65.7-3.7 1.04-6.17 1.04-3.58 0-6.33-.83-8.25-2.5-1.92-1.65-3.06-4.08-3.44-7.28M830.32 434.16l-8.61-.73.4-4.74 23.1 1.96-.41 4.75-8.61-.74-1.98 23.23-5.87-.5zM883.9 461.03l-5.5 10.71-5.16-2.65 5.52-10.75-1.75-19.6 6.04 3.1.82 13.2 11.09-7.1 5.94 3.05zM866.19 465.35l-6.26-1.66-.59-7.39a6.3 6.3 0 00-1.09-3.45 4.89 4.89 0 00-2.7-1.68l-4.52-1.2-2.74 10.63-5.8-1.55 7.17-27.72 12.13 3.22c1 .27 1.93.56 2.78.88.85.32 1.62.7 2.3 1.12.68.42 1.27.92 1.76 1.48.5.56.87 1.22 1.13 1.98a8 8 0 01.47 2.42c.04.85-.07 1.76-.32 2.73-.5 1.96-1.42 3.4-2.75 4.3a8.19 8.19 0 01-4.88 1.32c.48.39.9.8 1.25 1.22.36.42.66.9.9 1.43.23.53.42 1.13.55 1.8.14.66.24 1.4.33 2.2l.88 7.92zm-13.93-20.11l5.73 1.52c1.72.46 3.04.47 3.95.04.92-.43 1.57-1.35 1.94-2.78.65-2.5-.52-4.15-3.5-4.94l-6.1-1.63-2.02 7.79z"/></g><g><path fill="#01863f" d="M803.64 573.02l.07-3.15-7.07.08-.3 2.15-.78-2.61h-6.53v6.45l2.77-4.15v7.54l2.15-4.92 1.23 6.76 2.24-5.84 2.37 4 4.3-.93 2.16-8.91zM833.36 601.47s-3.9 1.23-10.87-5.33h6.15s-5.33-4.98-4.86-8.51l4.15 5.69-1.08-5.7 4.15 6.97s6.25-3.17 1.85 3.19l5.53.2-5.53 1.54.5 1.95z"/><path d="M828.77 580.33l-9 8.45-4.45-3.84v4.69l-2.69-3.38.7 3.92-3.7 1.2-1.3-3.74-5.45-8.96 5.21 3.27-1.46-4.38 3.54 3.61-1.38-5.84 3.76 3.54-1.07-7.15 4.35 4.53.64-4.07 3.85 7.69v-4.54l3.53 8s-1-5.46 2.92-6.62l2 3.62z" fill="#01863f"/><path d="M740.5 576.79h-2.87l-1.02-1.64-2.87 5.33 1.84 2.87 1.54-1.23 1.33 3.43-6.3-2.92 8.35 9.07-7.28-2.76 7.28 6.45-5.43-2.61 8 8h3.84s-3.54-6.92-2.92-6.92c.61 0 9.83 5.53 9.83 5.53l-.92-5.38 4.15 4.46 1.85-.46v-4.77l3.53 5.23v-5.38l4.46 4.46v-5.39l2.46 4.77 1.54-3.38 2 2v-7.59l-3.23 2.51-.62-4.15 1.08.16-.92-4.3 3.69 4.3v-5.08l2.92 3.23 2 .46v3.7l6.3 6.14v-4.61s6.46-.3 10.92 6.46l4.6-3.39v4.46l2.62-2.92-1.07 3.38 2.92-2.46s2.84 1.16 4.23.7c1.38-.47 4.84-2.7 4.84-2.7l-1.54 4.39 3.38-2.85v3.46l5.3-6-2.84-3.53-2.07 3.23-.85-2.54-6 2.92 2.39-4.97-4.15 1.98 1.3-3.46-3.15 1.92.7-4.46-3.31 2.46.38-6.69-3.53 4.15-.62-3.53-4 7.63-.46-5.02-3 7.46-2.84-5.92-5.38 2.92-1.08-4.46 1.85 2.3-.23-3.22 2.23 2.46.61-5.84 2.39 1.69s-.39-7.74-2.85-11.02h-1.94v2.15l-1.95-2.66 1.02 6.04-3.18-4 .21 4.82-4.2-6.86h-1.33l4.91 11.07-4.5-5.23 1.4 6.05-5.1-2.77-1.22 1.43h-1.85l-.3-1.23 7.17-5.33-7.07.72 4.2-4.71h-5.95l-.82 3.69-2.05 5.53 2.87.2-1.12 2.06-2.67.61-.1 1.64-2.15-.3 4.76-9.39-5.84 3.39 2.61-5.59-4.25.2-.15 13.94h1.92l.61 4.08-2.46-1.54-.84 3-1.08-3-3.69.23-.54 1.62-.76-2-3.23.46 2.53 5-7-6.92-2.17-8.92zM829.46 579.33l-.69 7.53 2.85-2.92 1.23 3.69 2.76-4.92v4.92l4.15-5.23v6.46l3.08-4.77.92 3.54 3.77 7.38-5.77-4.84-.38 3.45-5.07-5.15s2.22 9.84 8.68 11.61l.3-2.92 4.54 5.07v-3.69l2.46 1.93 3.62-5.88v3.65s5.07-2.77.84-7.84l-4.84 5.15-3.92-4.18s2.46-1.43 2.15-3.74c-.3-2.3-5.69-10.46-5.69-10.46l-2.38 2.39-.08-4.61-2.69 2.22-.15-6.68-2.08-2.23-1.23.46-1.23 8.38-2.22-4.7-.08 8.31-2.85-1.38zM706.7 479.87l-2.57-6.19-.77 4.09-8.09-24.32 4.5 27.76s8.1 14.84 6.92-1.34zM733.2 570.49v7.17s-2.06 8-9.23 11.07c0 0-3.28-7.59-1.44-11.07 0 0-7.31 4.4-16.31-.05 0 0 16.51-7.53 21.28-17.53l-8.2-3.22s-2.1 12.3-11.94 13.22c0 0 4.9-8.77 8.06-12.61l-7.9-.61s-4.3 12.91-14.91 11.06c0 0 1.26-5.56 10.76-14.45h-16.45s1.16-5.31 15.1-6.27c13.95-.95 21.8-17.25 21.8-17.25h9.37s.24 5.37 2.43 5.6l-11.2 6.65 5.39 2.5s4.3-2.85 10 2.5c5.68 5.35-6.62 23.29-6.62 23.29zM754.96 475.22s-1.24 8.88-6.66 12.2c-5.42 3.33-1.54 6.83.44 5.6 1.98-1.25 7.39-13.85 6.22-17.8zM747.92 503.87l1.26 2.5s-15.47 2.52-18.65 9.18c0 0 11.26 1.64 19.93-5.33 8.66-6.97 2-5.39 2-5.39l-1.54-.45-2.18-3.87s-3.42 2.02-.82 3.36z" fill="#01863f"/><path d="M711.34 545.52s-4.93 10.26 8.86 10.26c0 0 5.85-2.62 13 1.08 0 0-3.66-5-1.75-11.46 1.9-6.46-3.85-11.84-8.69-10.23 0 0 7.9-4.32.53-14.97 0 0-1.56-4.1-.03-7.64 0 0-5.17 5.07-11.24 4.01-6.07-1.05-10.65 7.96-6.39 12.06 0 0-13.43-7.88-15.75 8.02 0 0-2 6.79-5.84 9.02 0 0 3.63-2.53 14.62 3.36 10.98 5.88 10.85-3.94 12.68-3.5z" fill="#fff" stroke="#000" stroke-width=".922425" stroke-miterlimit="10"/><path d="M706.31 536.3s-4.72.94-6.54 3.7c0 0 2.38-4.58 8.39-4.94 6-.36-1 1.04-1.85 1.25zM715.32 529.81s2.93-3.78 2.43-7c0 0 1.32 4.92-2.97 9.13-4.3 4.2.05-1.43.54-2.13zM718.45 544.6s3.74 2.9 7.04 2.42c0 0-5.06 1.27-9.18-2.97s1.44.06 2.14.55z" fill="#f9bad5"/><path d="M707.83 541.17a4.3 4.3 0 005.73-1.66 4.06 4.06 0 00-1.55-5.63 4.3 4.3 0 00-5.73 1.66 4.06 4.06 0 001.55 5.63z" fill="#ffb72f"/><path d="M713.01 537.75a4.3 4.3 0 005.74-1.67 4.07 4.07 0 00-1.55-5.62 4.29 4.29 0 00-5.74 1.66 4.07 4.07 0 001.55 5.63z" fill="#ffb72f"/><path d="M713.58 545.09a4.29 4.29 0 005.74-1.66 4.06 4.06 0 00-1.55-5.63 4.29 4.29 0 00-5.74 1.66 4.06 4.06 0 001.55 5.63z" fill="#ffb72f"/><g fill="#e62337"><path d="M712.62 534.86s5.28-5.81 4.32 1.48c0 0 2.07-9.9-4.32-1.48z"/><path d="M714.18 537.01c.31.17.75 0 .97-.38.22-.38.14-.83-.18-1-.31-.18-.74 0-.96.38-.22.38-.15.83.17 1z"/></g><g fill="#e62337"><path d="M711.18 540.23s-7.24-2.74-.01-4.55c0 0-10.08 1.75.01 4.55z"/><path d="M712.71 537.99c.07-.36-.24-.7-.68-.76-.43-.06-.83.18-.9.53-.05.36.25.7.69.76.43.06.84-.18.9-.53z"/></g><g fill="#e62337"><path d="M716.97 538.58s1.03 7.63-4 2.35c0 0 6.33 7.75 4-2.35z"/><path d="M714.27 538.42c-.34.13-.5.56-.34.97.15.4.55.63.9.5.34-.14.49-.57.33-.98-.15-.4-.55-.63-.89-.5z"/></g><path d="M700.45 503.54s-9.46 6.23 2.22 13.28c0 0 6.31.74 10.46 7.54 0 0-.53-6.13 4.41-10.67s2.84-12.08-2.1-13.17c0 0 8.93.34 8.15-12.51 0 0 .8-4.3 3.91-6.54 0 0-6.99 1.68-11.59-2.32s-13.1 1.37-11.6 7.05c0 0-7.34-13.59-17.48-1.2 0 0-5.2 4.78-9.58 4.73 0 0 4.37-.3 10.65 10.33s11.22 2.17 12.55 3.48z" fill="#fff" stroke="#000" stroke-width=".922425" stroke-miterlimit="10"/><path d="M700.93 493.1s-4.48-1.62-7.44-.19c0 0 4.37-2.7 9.64.06 5.27 2.76-1.38.38-2.2.13zM711.9 492.15s4.43-1.74 5.67-4.75c0 0-1.43 4.88-7.22 6.28-5.8 1.4.78-1.18 1.55-1.53zM706.95 506.37s1.67 4.39 4.7 5.66c0 0-4.93-1.5-6.24-7.22-1.3-5.72 1.2.8 1.54 1.56z" fill="#f9bad5"/><path d="M699.7 498.03a4.22 4.22 0 005.72 1.5 4.07 4.07 0 001.58-5.6 4.23 4.23 0 00-5.71-1.5 4.07 4.07 0 00-1.58 5.6z" fill="#ffb72f"/><path d="M705.86 497.75a4.22 4.22 0 005.72 1.5 4.07 4.07 0 001.58-5.6 4.22 4.22 0 00-5.71-1.5 4.07 4.07 0 00-1.59 5.6z" fill="#ffb72f"/><path d="M702.57 504.3a4.22 4.22 0 005.71 1.51 4.07 4.07 0 001.59-5.6 4.22 4.22 0 00-5.72-1.5 4.07 4.07 0 00-1.58 5.6z" fill="#ffb72f"/><g fill="#e62337"><path d="M707.01 495.08s7.47-2.27 2.9 3.47c0 0 6.86-7.4-2.9-3.47z"/><path d="M707.23 497.71c.18.31.63.39 1.02.17.38-.21.55-.64.37-.94-.18-.31-.64-.39-1.02-.17-.38.21-.55.64-.37.94z"/></g><g fill="#e62337"><path d="M703.04 498.93s-4.73-6.04 2.32-3.89c0 0-9.43-3.65-2.32 3.9z"/><path d="M705.49 497.8c.23-.27.14-.72-.2-1-.33-.27-.8-.27-1.03 0-.23.27-.14.72.2 1 .33.27.8.27 1.03 0z"/></g><g fill="#e62337"><path d="M708.8 500.48s-3.07 7.04-4.6-.03c0 0 1.36 9.85 4.6.03z"/><path d="M706.58 498.96c-.35-.06-.7.23-.78.66-.08.42.14.82.5.88.35.06.7-.23.79-.66.08-.43-.15-.82-.5-.88z"/></g><g><path d="M740.61 496.25s-6.82-1.27-4.52 7.08c0 0 2.51 3.1 1.54 8.05 0 0 2.31-3.05 6.4-2.98 4.1.07 6.29-4.33 4.54-6.98 0 0 3.84 4.05 8.83-2.2 0 0 2.14-1.64 4.47-1.3 0 0-3.83-2.29-4.22-6.14-.4-3.85-6.43-5.1-8.12-1.83 0 0 2.36-9.46-7.32-8.19 0 0-4.3-.07-6.24-2.01 0 0 2.08 1.76.48 9.4-1.61 7.65 4.1 5.92 4.16 7.1z" fill="#fff" stroke="#000" stroke-width=".922425" stroke-miterlimit="10"/><path d="M745.16 491.65s-1.33-2.7-3.25-3.34c0 0 3.07.67 4.29 4.25 1.2 3.57-.78-.44-1.04-.91zM750.46 496.01s2.7 1.14 4.5.3c0 0-2.66 1.62-5.83-.27-3.18-1.9.84-.2 1.33-.03zM742.34 500.4s-1.07 2.75-.25 4.66c0 0-1.58-2.85.21-6.06 1.8-3.2.2.9.04 1.4z" fill="#f9bad5"/><path d="M742.57 493.39c-.3 1.4.56 2.83 1.93 3.19a2.45 2.45 0 003.03-1.89c.3-1.4-.56-2.83-1.93-3.19a2.45 2.45 0 00-3.03 1.89z" fill="#ffb72f"/><path d="M745.44 495.95c-.3 1.4.55 2.83 1.92 3.2a2.45 2.45 0 003.04-1.9c.3-1.4-.56-2.83-1.93-3.19a2.45 2.45 0 00-3.03 1.89z" fill="#ffb72f"/><path d="M741.24 497.53c-.3 1.4.56 2.83 1.93 3.2a2.45 2.45 0 003.03-1.9c.3-1.4-.56-2.83-1.93-3.19a2.45 2.45 0 00-3.03 1.89z" fill="#ffb72f"/><g fill="#e62337"><path d="M747.05 495.22s4.29 2.22-.14 2.87c0 0 6.14-.41.14-2.87z"/><path d="M746.06 496.53c-.05.22.12.45.38.52.27.07.52-.05.56-.27.05-.22-.12-.45-.38-.52s-.51.05-.56.27z"/></g><g fill="#e62337"><path d="M743.68 495.26s.4-4.85 2.66-.78c0 0-2.7-5.8-2.66.78z"/><path d="M745.25 495.8c.21-.02.36-.26.32-.53-.03-.28-.24-.48-.46-.46-.22.03-.36.27-.32.54.03.28.24.48.46.46z"/></g><g fill="#e62337"><path d="M745.61 498.48s-4.29 1.91-2.04-2.02c0 0-3.48 5.14 2.04 2.02z"/><path d="M745.25 496.82c-.13-.18-.4-.2-.62-.04-.21.16-.28.44-.14.62.13.19.41.2.62.05.21-.16.28-.44.14-.63z"/></g></g><path d="M876.07 512.92s-15.38-14.55-23.99-12.41c0 0 2.82-5.46 12-2.38 0 0-5.23-2.77-4.92-12.5 0 0 5.74.1 11.07 6.45 0 0-1.75-8.94 3.71-11.48l1.08 11.22s9.7 18.88 1.05 21.1zM873.1 515.45s-10.84-1.82-14.23-6.96c0 0-3.3 7.01 8.46 12.31 0 0 5.84 5.46 5.3 6-.53.54 5.8 0 5.8 0l-5.34-11.35zM886.5 491.75s9.2-12.6 10.12-12.84l.38 1.7 5.69-6.93-5.46 13.6.39 8.77s-7.44 7.2-10.37 3.6a7.15 7.15 0 01-.75-7.9zM911.53 507.7s-4.02 15.2-9.94 20.15c0 0-4.1 9.8 3.07 2.75 7.18-7.05 5.95-19.99 6.87-22.9z" fill="#01863f"/><path d="M886.4 539.24s-14.64 1.22-19.45 12.08c-4.82 10.87-4.92 19.17-4.92 19.17v4l.61-.83 2.36-3.17 3.59-1.34-2.26 2.67-3.33 2.1-1.9 2.2 1.08 2.72 1.95-1.8-2.2 3.18-5.44 8.84c-.23.39 4.15 1.77 4.92 1.62.77-.16 7.38-7.61 7.38-7.61l10.38 12.91s2.46-.3 2.84-12.99c0 0 7.61 7.61 12.07 7 0 0-1.38-4.77-1.38-6.23 0 0 10.6 2.61 14.83.3 0 0-3.76-3.91-10.38-6.76 0 0 18.84-.47 19.76-9.7 0 0-12.91 3.63-27.83 4.86l8.23-9.8-.14-4.98-19.46 14.78 9.37-12.6-3.94-2.39-6.15-.51 7.79-2.05s12.77-15.76 1.62-15.67z" fill="#00853e"/><path d="M888.44 540.36s-10.43-2.68-8.14 10.08c0 0 3.44 4.94 1.16 12.22 0 0 4.07-4.3 10.44-3.72 6.38.57 10.47-5.75 8.14-9.92 0 0 5.37 6.51 14.12-2.27 0 0 3.58-2.2 7.16-1.44 0 0-5.6-3.85-5.63-9.66-.02-5.81-9.23-8.38-12.37-3.68 0 0 5.15-13.88-10.14-13.1 0 0-6.7-.6-9.42-3.73 0 0 2.98 2.88-.71 14.13s5.5 9.32 5.4 11.1z" fill="#fff" stroke="#000" stroke-width=".922425" stroke-miterlimit="10"/><g><path d="M896.24 534.01s-1.65-4.2-4.54-5.37c0 0 4.69 1.36 6.02 6.85 1.33 5.49-1.14-.74-1.48-1.48zM903.83 541.15s4.04 2.01 6.97.96c0 0-4.4 2.12-9.05-1.08-4.66-3.19 1.34-.2 2.08.12zM890.5 546.77s-2.1 4-1.11 6.95c0 0-2.03-4.44 1.26-9.04 3.29-4.59.18 1.35-.16 2.09z" fill="#f9bad5"/><g transform="matrix(.61495 0 0 .61495 -31.1 0)"><ellipse cx="1507.12" cy="874.17" rx="6.46" ry="6.41" transform="scale(-1) rotate(18.55 5353.54 -9229.58)" fill="#ffb72f"/><ellipse cx="1513.74" cy="880.94" rx="6.46" ry="6.41" transform="rotate(-161.46 1513.7 880.97)" fill="#ffb72f"/><ellipse cx="1502.71" cy="884" rx="6.46" ry="6.41" transform="rotate(-161.46 1502.68 884.03)" fill="#ffb72f"/><g fill="#e62337"><path d="M1511.91 877.42s10.29 6.21-1.08 6.95c0 0 15.66.15 1.08-6.95z"/><ellipse cx="1510.22" cy="880.81" rx="1.23" ry="1" transform="scale(-1) rotate(18.57 5388.69 -9239.53)"/></g><g fill="#e62337"><path d="M1503.34 876.88s2.22-11.73 6.93-1.39c0 0-5.39-14.64-6.93 1.39z"/><path d="M1507.17 878.5c.56 0 1-.57.97-1.24-.02-.68-.5-1.21-1.05-1.2-.56.02-1 .58-.97 1.26.03.67.5 1.2 1.05 1.19z"/></g><g fill="#e62337"><path d="M1507.43 885.09s-11.36 3.83-4.67-5.31c0 0-10.1 11.84 4.67 5.31z"/><path d="M1506.94 880.98c-.3-.48-1-.57-1.58-.22-.57.35-.8 1.02-.51 1.49.3.47 1 .57 1.58.22.57-.35.8-1.02.5-1.5z"/></g></g></g><path d="M878.26 511.65s-10.6.76-4.46 11.99c0 0 4.77 3.53 4.92 11.07 0 0 2.46-5.3 8.61-6.77 6.15-1.46 8-8.66 4.51-11.84 0 0 7.07 4.41 12.5-6.56 0 0 2.67-3.17 6.26-3.58 0 0-6.46-1.85-8.3-7.28-1.85-5.43-11.28-4.95-12.74.44 0 0 .46-14.6-13.6-9.07 0 0-6.46 1.53-10-.54 0 0 3.7 1.77 3.77 13.45.08 11.68 8.07 7 8.53 8.69z" fill="#fff" stroke="#000" stroke-width=".922425" stroke-miterlimit="10"/><g><path d="M883.57 503.25s-2.87-3.4-5.94-3.6c0 0 4.81-.2 7.79 4.52 2.97 4.72-1.3-.34-1.85-.92zM892.92 507.55s4.4.62 6.82-1.3c0 0-3.45 3.37-8.81 1.85-5.36-1.53 1.2-.62 1.99-.55zM882.19 517s-.7 4.4 1.15 6.85c0 0-3.3-3.52-1.66-8.85s.6 1.2.51 2z" fill="#f9bad5"/><g transform="matrix(.61495 0 0 .61495 -31.1 0)"><ellipse cx="1488.38" cy="824.05" rx="6.38" ry="6.32" fill="#ffb72f"/><ellipse cx="1496.71" cy="828.31" rx="6.38" ry="6.32" fill="#ffb72f"/><ellipse cx="1487.34" cy="834.64" rx="6.38" ry="6.33" fill="#ffb72f"/><g fill="#e62337"><path d="M1493.9 825.6s11.58 2.58 1.17 6.84c0 0 14.7-4.78-1.17-6.85z"/><ellipse cx="1493.37" cy="829.3" rx="1.21" ry=".99"/></g><g fill="#e62337"><path d="M1485.7 827.78s-1.6-11.67 6.05-3.48c0 0-9.64-12-6.05 3.48z"/><path d="M1489.8 828.1c.52-.19.75-.85.51-1.48-.23-.62-.84-.97-1.36-.78-.51.2-.74.85-.5 1.48.23.62.83.97 1.35.78z"/></g><g fill="#e62337"><path d="M1492.1 834.18s-9.43 7.15-6.04-3.5c0 0-5.74 14.25 6.05 3.5z"/><path d="M1490.36 830.48c-.42-.35-1.12-.22-1.55.3-.43.5-.43 1.2-.01 1.55.42.35 1.11.22 1.54-.29.44-.5.44-1.2.02-1.56z"/></g></g></g><g><path d="M861.93 539.18c-.19.04-.38.06-.6.06h-61.47v31.04h73.75v-12.2l-11.68-18.9z" fill="#68321e"/><path class="st97" fill="#68321e" d="M862.97 569.6v16.47l-5.83 2.7h-10.98V569.6"/><path fill="#fff" d="M854.56 570.28h2.71v16.41h-2.7z"/><g><path fill="#68321e" d="M742.76 539.24l-11.62 18.82v12.2h73.75v-31.02z"/><path class="st97" fill="#68321e" d="M741.79 569.57v16.47l5.83 2.7h10.97v-19.17"/><path fill="#fff" d="M733.8 558.1h71.09v2.92H733.8zM747.48 570.25h2.71v16.42h-2.71z"/></g><path fill="#fff" d="M799.25 558.1h71.09v2.92h-71.1z"/><g fill-rule="evenodd"><path d="M803.7 556.83s77.92.8 55.59-33.06c0 0 3.94-6.92-5.09-13.52 0 0 4.07-9.29-7.8-11.07 0 0 4.1-6.25-5.34-11.09 0 0 2.47-7.75-10.06-10.83 0 0-1.7-5.75-12-4.08 0 0-5.86-9.09-18.48-7.8l2 91.45" fill="#933c06"/><path d="M802.12 556.79s-77.92.8-55.6-33.06c0 0-3.93-6.93 5.1-13.52 0 0-4.07-9.3 7.8-11.07 0 0-4.11-6.25 5.33-11.09 0 0-2.46-7.75 10.06-10.83 0 0 1.7-5.76 12.01-4.08 0 0 5.85-9.09 18.48-7.8l-2 91.45" fill="#933c06"/><g fill="#fcb040"><path d="M818.6 473.76s-4.2-5.44-15.86-6.04v9.27s13.07.3 15.86-3.23zM830.27 478.6s-1.2-7.14-13.32-1.6c0 0-6.83 2.71-14.21 2.2l.5 7.06s19.05.1 27.03-7.66z"/><path d="M839.48 487.3s1.34-8.02-8.24-7.49c0 0-5.53 7.71-27.76 8.4v8.91s26.5.45 36-9.83z"/><path d="M840.9 489.49s-9.73 9.67-37.42 9.97v10.74s25.3.1 40.36-10.36c0 0 6.68-3.6-2.94-10.35z"/><path d="M848.38 500.52s-15.31 11.04-44.45 11.94v12.8s40.7-2.01 48.89-15.52c0 0 3.1-4.23-4.44-9.22z"/><path d="M854.21 512.01s-12.86 14.97-50.28 14.67v12.4s37.71.3 52.23-13.54c0 0 5.99-5.67-1.95-13.53z"/><path d="M858.33 526.68s-16.39 14.5-54.4 14.71l-.44 12.9s41.09-1.81 54.84-12.1c0 0 5.6-5.44 0-15.51zM787.47 473.76s4.2-5.44 15.87-6.04v9.27s-13.07.3-15.87-3.23zM775.8 478.6s1.2-7.14 13.32-1.6c0 0 6.83 2.71 14.22 2.2l-.5 7.06s-19.06.1-27.04-7.66z"/><path d="M766.6 487.3s-1.35-8.02 8.23-7.49c0 0 5.54 7.71 27.76 8.4v8.91s-26.49.45-36-9.83z"/><path d="M765.18 489.49s9.72 9.67 37.4 9.97v10.74s-25.28.1-40.35-10.36c0 0-6.68-3.6 2.95-10.35z"/><path d="M757.7 500.52s15.3 11.04 44.44 11.94v12.8s-40.7-2.01-48.89-15.52c0 0-3.09-4.23 4.44-9.22z"/><path d="M751.86 512.01s12.87 14.97 50.28 14.67v12.4s-37.71.3-52.23-13.54c0 0-5.98-5.67 1.95-13.53z"/><path d="M747.75 526.68s16.38 14.5 54.39 14.71l.45 12.9s-41.1-1.81-54.85-12.1c0 0-5.6-5.44 0-15.51zM803.48 488.2s-.66.01-1.34-.01c-.68-.03 0 8.93 0 8.93s1.54.1 1.8 0M803.34 486.26h-1.15c-.16-.01.01-4.91 2.38-2.42"/><path d="M804.68 541.38s-3.66.04-4.56 0c-.9-.03 1.83 12.88 1.83 12.88s1.16.06 2.58-.02M804.68 526.68s-4.96.04-5.9 0c-.94-.04 2.01 12.38 2.01 12.38s3.94.02 4.89 0M804.99 512.43s-3.15.06-5.1-.06c-1.94-.11-1.3 7.05-1.3 7.05l2.76 5.8s1.32.15 3.64-.02M805.5 499.42s-3.75.07-5.84-.03c-2.08-.09.68 9.67.68 9.67l1.8 1.14s1.31.02 2.43-.02"/></g><g fill="#fdf8ee"><path d="M856.63 541.23s6.35-4.8 0-12.92c0 0-1.94 3.33-28.17 13.34 0 0 32.48-9.28 28.17-.42zM852.84 515.18s6.46 5.42.62 9.59c0 0 3.68-7.4-29.5 3.54 0 0 28.99-12.5 28.88-13.13zM848.6 510.75s4.76-3.5-.88-8.8c0 0-10.14 6.66-26.12 10.73 0 0 25.87-4.95 27-1.93zM841.22 499.18s4.22-3.52-.39-8.36c0 0-13.06 7.42-24.2 9.77 0 0 26.5-7.59 24.59-1.41zM834.4 487.25s3.8-5.63-1.33-7.3c0 0-2.76 3.02-22.12 9.07 0 0 23.56-6.98 23.46-1.77zM826.13 478.28s1.33-3.52-17.52 1.08c0 0-1.63 1.99 17.52-1.08zM802.59 469.4s8.68-1.28 10.93 4.85c0 0-6.24-.14-7.7.64-.01 0 2.86-4.06-3.23-5.49zM815.71 477.81s6.3-2.77 9.78-.42"/></g><path d="M804.02 467.8s-1-.15-2.75.08c-1.75.23 2.96-.37 2.96-.37" fill="#933c06"/><path d="M800.88 469.44s-8.63-1.27-10.85 4.81c0 0 6.19-.14 7.65.64 0 0-2.85-4.03 3.2-5.45z" fill="#bb823d"/><g fill="#bb823d"><path d="M749.87 529.27s.61 13.34 26.22 19.7c0 0-18.95-2.3-28.07-8.65 0 0-1.33-8.44 1.85-11.05zM777.11 533.86S751.68 523.8 750.38 522c-1.3-1.8.61-5.16 2.46-4.14 0 0 6.2 7.09 24.27 16zM779.47 519.48s-25.2-13.45-19.57-16.06c0 0-5.63-1.25-4.91 6.15 0 0-.92-2.7 24.48 9.9zM766.67 491.36s-5.46 4.07 22.2 15.09c0 0-23.97-9.23-27.2-8.21 0 0-.61-8.2 5-6.88zM771.58 482.06s5.23 6.25 18.28 13.6c0 0-19.43-8.83-19.81-9.54-.39-.7-2-6.17 1.53-4.06zM795.14 482.27s-9.58-3.34-9.42-6.57c0 0-9.84.63-2.77 3.65s8.55 2.66 12.2 2.92z"/></g><path d="M803.75 542.53h-.57c-.14 0 .3.43.61.43" fill="#923d05"/><g fill="#923d05"><path d="M808.71 555.42s1.77-12.9-5.23-12.9v12.9h5.23zM798.26 555.42s-1.77-12.9 5.22-12.9v12.9h-5.22z"/><path d="M802.9 543.16h1.03v11.72h-1.03z"/><path d="M802.59 543.16l1.34-.42-.05 1.15z"/></g><path d="M818.54 523.73s-19.52 2.15-34.71-.6c-15.2-2.74 5.2 2.98 5.2 2.98s13.6 1.75 29.03-.1c15.44-1.85.48-2.28.48-2.28z" fill="#933c06"/></g></g><g fill-rule="evenodd"><path d="M733.47 521.23c.03-.19.39-2.6.67-3.05 0 0-.1 1.05.05 3.5.14 2.43-.62-.06-.6-.62"/><path d="M734.7 524.69s-2.87-2.56 2.67-6.65c0 0 .54-.55.5-.9-.04-.37.17.82-.84 1.86s-3.3 3.06-1.27 5c2.03 1.95-1.05.69-1.05.69zM728.2 525.55l3.95.16-.03.57z"/><path d="M732.57 526.32s-10.76-10.46-3.04-7.56c0 0 1.85-2.86 5.19 4.59 0 0 1.5 2.02-2.15 2.97z" fill="#fff" stroke="#000" stroke-width=".1537375" stroke-miterlimit="10"/><path d="M727.9 527.1l3.15-.42-.13.64z"/><path d="M729.6 519.82c-.56 1.3 2.9 4.86 2.9 4.86s-1.3-2.12-1.16-4.57" fill="#fff" stroke="#000" stroke-width=".1537375" stroke-miterlimit="10"/><path d="M739.42 526.97c.2-.01 2.62-.18 3.1-.43 0 0-1.06.01-3.48-.31-2.42-.33 0 .61.56.65"/><path d="M736.07 525.47s2.33 3.07 6.83-2.14c0 0 .59-.5.94-.43.36.07-.8-.24-1.92.7-1.11.93-3.3 3.05-5.1.88-1.78-2.17-.75 1-.75 1zM734.76 532.47l.17-4.52-.65-.02z"/><path d="M734.28 527.48s9.6 11.53 7.3 3.6c0 0 3-1.61-4.17-5.51 0 0-1.9-1.66-3.13 1.91z" fill="#fff" stroke="#000" stroke-width=".1537375" stroke-miterlimit="10"/><g><path d="M731.42 529.29s2.32 1.61 3.35-1.07c1.03-2.7 7.31-2.22 6.96-9l-10.6 9.77.29.3z"/><path d="M730.9 528.74s-1.43-2.44 1.33-3.26c2.76-.82 2.77-7.12 9.5-6.25l-10.55 9.83-.28-.32z"/><path d="M740.6 519.15s-.29.88.18.97l-.96.9s-1.06-.86-.47-1.78c0 0 .5-.18 1.25-.1zM738.76 522s-.93-1-.39-2.51c0 0-.63.17-1.16.57-.54.4.47 2.45.7 2.73l.85-.79zM736.93 523.7s-.78-1.73-.7-2.83c0 0-.54.49-1.32 1.67 0 0-.02 1.14.95 2.16l1.07-1zM733.07 525.01s1.08.08 1.72.68l-1.81 1.69s-.63-.7-.46-2.01l.55-.36z" fill="#ffe717"/><path d="M738.74 521.97s.92 1 2.48.58c0 0-.23.62-.66 1.12-.44.5-2.4-.66-2.67-.92l.85-.78zM741.72 520.36s-.9.21-.95-.26l-.96.89s.76 1.12 1.73.6c0 0 .21-.48.18-1.23zM736.9 523.67s1.67.91 2.78.91c0 0-.53.5-1.78 1.18 0 0-1.13-.06-2.07-1.1l1.07-1zM735.3 527.41s.01-1.08-.54-1.77l-1.83 1.68s.65.68 1.97.62l.4-.53z" fill="#ffe717"/><path d="M736.23 520.87s-1.05 3.5 3.45 3.71l.88-.91s-3.44.17-3.4-3.56l-.89.76M740.6 519.15s-.57 1.5 1.13 1.2"/><path d="M733.07 525.01s2.52-.12 2.23 2.4M732.52 525.37s-.65 2.78 2.38 2.57" fill="#ffe717"/></g><path d="M733.13 532.08l.67-3.1-.64.07z"/><path d="M740.53 530.94c-1.33.46-4.62-3.27-4.62-3.27s2 1.47 4.47 1.52" fill="#fff" stroke="#000" stroke-width=".1537375" stroke-miterlimit="10"/><path d="M741.75 519.8s.33-1.17.8-1.31c0 0-1.41.68-1.73.66"/><g><path d="M783.82 553.54c-.02.2-.27 2.73-.53 3.22 0 0 .04-1.1-.24-3.64-.27-2.54.65.02.67.61"/><path d="M782.36 550s3.13 2.52-2.44 7.08c0 0-.53.6-.47.96.06.38-.22-.85.78-1.98 1-1.14 3.27-3.37 1.06-5.3-2.21-1.92 1.07-.76 1.07-.76zM789.1 548.76l-4.13.05v-.6z"/><path d="M784.5 548.2s11.77 10.35 3.56 7.72c0 0-1.78 3.08-5.65-4.52 0 0-1.68-2.03 2.09-3.2z" fill="#fff" stroke="#000" stroke-width=".1537375" stroke-miterlimit="10"/><path d="M789.33 547.13l-3.26.6.1-.67z"/><path d="M787.93 554.82c.52-1.38-3.28-4.92-3.28-4.92s1.48 2.14 1.46 4.7" fill="#fff" stroke="#000" stroke-width=".1537375" stroke-miterlimit="10"/><path d="M777.32 547.86c-.2.03-2.72.33-3.2.61 0 0 1.1-.06 3.64.15 2.54.22-.03-.64-.62-.65"/><path d="M780.9 549.25s-2.59-3.07-7.02 2.6c0 0-.58.54-.96.49-.37-.05.86.2 1.97-.83 1.11-1.03 3.29-3.35 5.26-1.18 1.98 2.17.75-1.08.75-1.08zM781.9 541.88l.05 4.73.68-.01z"/><path d="M782.66 547.07s-10.62-11.53-7.81-3.39c0 0-3.04 1.85 4.65 5.54 0 0 2.07 1.64 3.16-2.15z" fill="#fff" stroke="#000" stroke-width=".1537375" stroke-miterlimit="10"/><g><path d="M785.55 545.03s-2.51-1.56-3.44 1.3c-.93 2.85-7.52 2.69-6.8 9.74l10.56-10.74-.32-.3z"/><path d="M786.12 545.58s1.61 2.47-1.22 3.46c-2.84 1-2.52 7.58-9.6 7.02l10.51-10.8.3.32z"/><path d="M776.5 556.08s.25-.92-.24-1l.95-.98s1.15.83.59 1.83c0 0-.51.2-1.3.15zM778.27 553.01s1.02 1 .53 2.6c0 0 .65-.21 1.19-.65.54-.44-.62-2.53-.88-2.8l-.84.85zM780.1 551.14s.9 1.77.87 2.93c0 0 .54-.55 1.28-1.82 0 0-.03-1.18-1.1-2.2l-1.06 1.1zM784.05 549.58s-1.13-.02-1.84-.62l1.8-1.86s.7.7.6 2.07l-.56.4z" fill="#ffe717"/><path d="M778.3 553.04s-1.02-1-2.62-.47c0 0 .2-.66.63-1.2.43-.55 2.54.56 2.82.81l-.84.86zM775.26 554.88s.92-.27 1.01.22l.96-.97s-.86-1.14-1.84-.55c0 0-.2.52-.13 1.3zM780.12 551.18s-1.79-.86-2.94-.81c0 0 .53-.55 1.79-1.32 0 0 1.18 0 2.22 1.04l-1.07 1.09zM781.6 547.19s.04 1.13.65 1.82l1.82-1.85s-.71-.67-2.08-.54l-.4.57z" fill="#ffe717"/><path d="M780.97 554.07s.9-3.71-3.8-3.7l-.86 1s3.57-.36 3.73 3.53l.88-.84M776.5 556.08s.51-1.58-1.24-1.2"/><path d="M784.05 549.58s-2.63.25-2.45-2.4M784.6 549.18s.53-2.94-2.61-2.56" fill="#ffe717"/></g><path d="M783.61 542.21l-.53 3.28.67-.11z"/><path d="M775.95 543.79c1.37-.55 5 3.16 5 3.16s-2.17-1.43-4.74-1.35" fill="#fff" stroke="#000" stroke-width=".1537375" stroke-miterlimit="10"/><path d="M775.27 555.46s-.29 1.25-.77 1.41c0 0 1.44-.78 1.77-.78"/></g><g><path d="M850.53 561.92c.2.02 2.75.21 3.24.46 0 0-1.1-.02-3.65.27-2.54.3 0-.6.6-.64"/><path d="M847 563.36s2.48-3 7.14 2.2c0 0 .6.5.98.44.37-.06-.86.22-2.01-.71-1.16-.94-3.43-3.06-5.33-.93-1.9 2.12-.78-1-.78-1zM845.65 556.98l.1 3.92-.6.01z"/><path d="M845.15 561.35s10.22-11.29 7.7-3.48c0 0 3.12 1.64-4.45 5.41 0 0-2.01 1.62-3.25-1.93z" fill="#fff" stroke="#000" stroke-width=".1537375" stroke-miterlimit="10"/><path d="M844 556.79l.66 3.08-.67-.08z"/><path d="M851.75 558.01c-1.4-.47-4.9 3.18-4.9 3.18s2.13-1.44 4.71-1.45" fill="#fff" stroke="#000" stroke-width=".1537375" stroke-miterlimit="10"/><path d="M844.93 568.16c.03.19.37 2.57.66 3.03 0 0-.09-1.04.1-3.46.17-2.41-.65.04-.65.6"/><path d="M846.27 564.75s-3.05 2.5 2.7 6.61c0 0 .56.55.52.9-.05.36.19-.81-.86-1.85s-3.42-3.07-1.27-4.97-1.1-.69-1.1-.69zM838.85 563.9l4.75-.11-.02-.65z"/><path d="M844.05 563.12s-11.42 10.22-3.28 7.44c0 0 1.9 2.85 5.49-4.48 0 0 1.61-1.98-2.21-2.96z" fill="#fff" stroke="#000" stroke-width=".1537375" stroke-miterlimit="10"/><g><path d="M841.96 560.4s-1.53 2.4 1.35 3.24c2.88.85 2.81 7.09 9.89 6.3l-10.95-9.85-.3.32z"/><path d="M842.5 559.86s2.46-1.57 3.5 1.1 7.64 2.28 7.18 8.99l-11-9.8.32-.3z"/><path d="M853.2 568.82s-.94-.22-1.01.24l-1-.88s.82-1.11 1.83-.59c0 0 .21.48.17 1.23zM850.08 567.19s.98-.99 2.6-.55c0 0-.22-.6-.67-1.11-.45-.5-2.53.62-2.8.87l.87.79zM848.18 565.49s1.76-.88 2.92-.88c0 0-.55-.5-1.85-1.18 0 0-1.18.04-2.19 1.07l1.12.99zM846.55 561.76s0 1.07-.6 1.75l-1.89-1.69s.7-.66 2.07-.58l.42.52z" fill="#ffe717"/><path d="M850.11 567.17s-.99.97-.44 2.48c0 0-.66-.18-1.21-.58-.56-.4.52-2.42.78-2.7l.87.8zM852 570.01s-.28-.87.21-.96l-1-.9s-1.12.84-.51 1.76c0 0 .52.18 1.3.1zM848.21 565.46s-.84 1.7-.77 2.8c0 0-.56-.5-1.35-1.68 0 0-.02-1.12 1.02-2.12l1.1 1zM844.19 564.12s1.13-.06 1.81-.65l-1.88-1.7s-.67.69-.51 1.99l.58.36z" fill="#ffe717"/><path d="M851.1 564.61s-3.74-.8-3.66 3.65l1.02.8s-.42-3.37 3.5-3.57l-.86-.83M853.2 568.82s-1.6-.46-1.2 1.2"/><path d="M846.55 561.76s.3 2.49-2.37 2.36M846.13 561.24s-2.95-.46-2.52 2.52" fill="#ffe717"/></g><path d="M839.16 562.28l3.3.46-.13-.63z"/><path d="M840.86 569.51c-.58-1.29 3.1-4.77 3.1-4.77s-1.4 2.07-1.29 4.5" fill="#fff" stroke="#000" stroke-width=".1537375" stroke-miterlimit="10"/><path d="M852.59 570s1.25.25 1.43.7c0 0-.81-1.35-.82-1.66"/></g><g><path d="M826.19 507.88c.16.03 2.22.36 2.6.6 0 0-.9-.1-2.98-.01-2.09.09.04-.5.53-.5"/><path d="M823.23 508.86s2.19-2.34 5.67 2.29c0 0 .47.44.77.42.31-.03-.7.13-1.59-.72-.88-.85-2.6-2.76-4.27-1.11-1.67 1.64-.58-.88-.58-.88zM822.5 503.47l-.14 3.26-.48-.02z"/><path d="M821.84 507.07s8.98-8.74 6.48-2.4c0 0 2.43 1.56-3.95 4.21 0 0-1.73 1.23-2.53-1.8z" fill="#fff" stroke="#000" stroke-width=".1537375" stroke-miterlimit="10"/><path d="M821.18 503.2l.36 2.61-.55-.1z"/><path d="M827.4 504.71c-1.1-.48-4.16 2.33-4.16 2.33s1.82-1.05 3.92-.9" fill="#fff" stroke="#000" stroke-width=".1537375" stroke-miterlimit="10"/><path d="M821.26 512.72c.01.16.15 2.16.36 2.56 0 0-.01-.87.28-2.87.29-2-.53 0-.56.46"/><path d="M822.55 509.97s-2.63 1.88 1.81 5.67c0 0 .42.49.36.78-.05.3.2-.67-.58-1.6-.8-.93-2.6-2.76-.74-4.2 1.86-1.45-.85-.65-.85-.65zM816.57 508.8l3.86.2.03-.54z"/><path d="M820.84 508.47s-9.89 7.78-3.1 5.98c0 0 1.37 2.5 4.73-3.38 0 0 1.42-1.54-1.63-2.6z" fill="#fff" stroke="#000" stroke-width=".1537375" stroke-miterlimit="10"/><g><path d="M819.3 506.09s-1.39 1.9.91 2.77c2.3.89 1.87 6.07 7.67 5.87l-8.32-8.88-.26.24z"/><path d="M819.78 505.66s2.09-1.14 2.78 1.14c.69 2.3 6.08 2.38 5.3 7.93l-8.36-8.84.28-.23z"/><path d="M827.94 513.79s-.74-.24-.83.14l-.76-.8s.73-.87 1.52-.37c0 0 .15.41.07 1.03zM825.51 512.24s.85-.76 2.15-.29c0 0-.15-.52-.48-.97-.34-.44-2.1.36-2.34.55l.67.7zM824.06 510.7s1.49-.62 2.43-.54c0 0-.42-.45-1.43-1.1 0 0-.97-.04-1.85.75l.85.9zM822.96 507.5s-.07.9-.59 1.42l-1.44-1.52s.6-.51 1.72-.36l.3.46z" fill="#ffe717"/><path d="M825.53 512.22s-.85.75-.5 2.04c0 0-.52-.2-.95-.56-.43-.37.57-1.97.8-2.19l.65.71zM826.9 514.7s-.18-.74.23-.78l-.76-.8s-.96.61-.52 1.42c0 0 .41.18 1.05.17zM824.1 510.68s-.8 1.37-.8 2.28c0 0-.43-.45-1-1.48 0 0 .05-.93.95-1.7l.84.9zM820.9 509.31s.92.03 1.51-.42l-1.43-1.53s-.58.53-.53 1.62l.44.33z" fill="#ffe717"/><path d="M826.49 510.16s-3-.9-3.2 2.8l.79.74s-.14-2.84 3.05-2.76l-.65-.74M827.94 513.79s-1.27-.48-1.03.92"/><path d="M822.96 507.5s.09 2.09-2.07 1.81M822.65 507.04s-2.37-.57-2.2 1.94" fill="#ffe717"/></g><path d="M816.91 507.47l2.66.59-.06-.54z"/><path d="M817.87 513.59c-.4-1.11 2.8-3.78 2.8-3.78s-1.26 1.64-1.3 3.67" fill="#fff" stroke="#000" stroke-width=".1537375" stroke-miterlimit="10"/><path d="M827.38 514.73s1 .3 1.12.68c0 0-.58-1.17-.56-1.44"/></g><g><path d="M872.03 536.5c-.03.14-.35 1.84-.56 2.15 0 0 .1-.74.07-2.47-.03-1.74.43.04.4.44"/><path d="M871.26 534.02s1.94 1.87-2.07 4.67c0 0-.39.38-.37.63.01.26-.1-.59.64-1.3.75-.72 2.4-2.11 1.04-3.53-1.37-1.43.76-.47.76-.47zM875.86 533.54l-2.77-.19.03-.4z"/><path d="M872.8 532.9s7.26 7.65 1.92 5.44c0 0-1.38 1.99-3.5-3.37 0 0-1-1.46 1.59-2.06z" fill="#fff" stroke="#000" stroke-width=".1537375" stroke-miterlimit="10"/><path d="M876.11 532.44l-2.22.24.1-.45z"/><path d="M874.7 537.58c.43-.9-1.9-3.5-1.9-3.5s.87 1.52.7 3.26" fill="#fff" stroke="#000" stroke-width=".1537375" stroke-miterlimit="10"/><path d="M868.02 532.3c-.14.02-1.85.09-2.19.25 0 0 .74.01 2.43.3 1.7.28.02-.44-.37-.48"/><path d="M870.33 533.44s-1.55-2.22-4.86 1.39c0 0-.43.33-.68.28-.25-.05.56.18 1.37-.46.81-.63 2.41-2.1 3.6-.52 1.2 1.58.57-.7.57-.7zM871.45 528.5l-.25 3.2.45.03z"/><path d="M871.64 532.05s-6.4-8.38-5.02-2.7c0 0-2.15 1.09 2.77 4 0 0 1.29 1.21 2.25-1.3z" fill="#fff" stroke="#000" stroke-width=".1537375" stroke-miterlimit="10"/><g><path d="M873.7 530.82s-1.58-1.19-2.38.7c-.8 1.89-5.2 1.42-5.15 6.25l7.73-6.73-.2-.22z"/><path d="M874.05 531.22s.93 1.76-1.03 2.29c-1.96.52-2.15 5-6.86 4.25l7.7-6.77.2.23z"/><path d="M866.96 537.84s.23-.62-.1-.7l.7-.6s.72.62.28 1.26c0 0-.35.11-.88.04zM868.34 535.85s.62.72.2 1.8c0 0 .44-.12.83-.39.39-.27-.26-1.75-.42-1.95l-.61.54zM869.67 534.68s.5 1.24.41 2.03c0 0 .4-.34.97-1.17 0 0 .05-.8-.6-1.55l-.78.69zM872.42 533.83s-.76-.08-1.2-.52l1.33-1.16s.42.5.27 1.43l-.4.25z" fill="#ffe717"/><path d="M868.35 535.87s-.62-.73-1.72-.46c0 0 .17-.43.5-.78.31-.35 1.66.51 1.84.7l-.62.54zM866.2 536.96s.64-.14.67.2l.7-.61s-.5-.82-1.2-.47c0 0-.16.34-.16.88zM869.7 534.7s-1.16-.68-1.93-.7c0 0 .39-.35 1.28-.8 0 0 .79.06 1.42.82l-.78.68zM870.92 532.08s-.04.76.33 1.26l1.33-1.15s-.43-.5-1.36-.48l-.3.37z" fill="#ffe717"/><path d="M870.08 536.7s.84-2.46-2.31-2.7l-.65.63s2.42-.06 2.28 2.6l.65-.53M866.96 537.84s.44-1.05-.75-.88"/><path d="M872.42 533.83s-1.78.03-1.5-1.75M872.82 533.58s.53-1.96-1.6-1.87" fill="#ffe717"/></g><path d="M872.58 528.8l-.56 2.2.46-.04z"/><path d="M867.35 529.47c.95-.3 3.15 2.41 3.15 2.41s-1.37-1.08-3.1-1.16" fill="#fff" stroke="#000" stroke-width=".1537375" stroke-miterlimit="10"/><path d="M866.17 537.35s-.26.83-.6.92c0 0 1.01-.46 1.24-.44"/></g><g><path d="M767.45 483.7c-.04.18-.43 2.36-.69 2.77 0 0 .12-.96.07-3.18-.04-2.23.54.06.51.57"/><path d="M766.47 480.53s2.45 2.39-2.56 6c0 0-.49.48-.46.8.02.34-.13-.75.8-1.67.92-.92 3-2.72 1.27-4.53-1.71-1.82.95-.6.95-.6zM772.23 479.88l-3.47-.22.04-.52z"/><path d="M768.4 479.09s9.12 9.76 2.43 6.96c0 0-1.72 2.56-4.4-4.3 0 0-1.27-1.88 1.98-2.66z" fill="#fff" stroke="#000" stroke-width=".1537375" stroke-miterlimit="10"/><path d="M772.54 478.47l-2.78.32.13-.57z"/><path d="M770.8 485.08c.54-1.17-2.4-4.5-2.4-4.5s1.1 1.96.89 4.2" fill="#fff" stroke="#000" stroke-width=".1537375" stroke-miterlimit="10"/><path d="M762.4 478.35c-.16 0-2.3.1-2.73.32 0 0 .93.01 3.05.36 2.12.36.02-.56-.48-.6"/><path d="M765.3 479.78s-1.94-2.84-6.08 1.81c0 0-.53.43-.84.37-.3-.07.7.23 1.72-.6 1-.82 3-2.7 4.5-.68 1.5 2.01.7-.9.7-.9zM766.68 473.44l-.3 4.11.57.04z"/><path d="M766.94 478s-8.07-10.71-6.3-3.45c0 0-2.69 1.41 3.49 5.12 0 0 1.62 1.55 2.81-1.68z" fill="#fff" stroke="#000" stroke-width=".1537375" stroke-miterlimit="10"/><g><path d="M769.51 476.4s-1.99-1.51-2.98.91c-.99 2.43-6.5 1.86-6.41 8.05l9.65-8.67-.26-.28z"/><path d="M769.95 476.92s1.18 2.25-1.27 2.94c-2.45.68-2.67 6.43-8.56 5.49l9.6-8.72.23.3z"/><path d="M761.12 485.45s.27-.8-.14-.9l.88-.78s.9.8.36 1.62c0 0-.45.15-1.1.06zM762.82 482.89s.79.92.26 2.3c0 0 .56-.15 1.04-.5.49-.35-.33-2.24-.53-2.5l-.77.7zM764.49 481.38s.63 1.6.52 2.6c0 0 .5-.44 1.21-1.5 0 0 .06-1.03-.76-1.99l-.97.89zM767.92 480.27s-.94-.1-1.49-.66l1.65-1.5s.53.66.34 1.84l-.5.32z" fill="#ffe717"/><path d="M762.84 482.91s-.78-.93-2.16-.58c0 0 .22-.55.62-1 .4-.45 2.09.65 2.31.9l-.77.68zM760.16 484.32s.8-.18.83.26l.88-.8s-.64-1.03-1.5-.58c0 0-.2.43-.2 1.12zM764.51 481.41s-1.44-.87-2.4-.9c0 0 .48-.44 1.59-1.03 0 0 1 .08 1.79 1.05l-.98.88zM766.04 478.03s-.04.99.42 1.63l1.66-1.5s-.55-.62-1.7-.6l-.38.47z" fill="#ffe717"/><path d="M765.01 483.98s1.04-3.17-2.9-3.46l-.81.8s3.02-.08 2.87 3.33l.8-.68M761.12 485.45s.54-1.35-.96-1.13"/><path d="M767.92 480.27s-2.22.05-1.88-2.24M768.42 479.95s.66-2.52-2-2.39" fill="#ffe717"/></g><path d="M768.1 473.83l-.69 2.82.57-.06z"/><path d="M761.56 474.71c1.18-.39 3.95 3.08 3.95 3.08s-1.71-1.39-3.88-1.48" fill="#fff" stroke="#000" stroke-width=".1537375" stroke-miterlimit="10"/><path d="M760.13 484.83s-.34 1.06-.75 1.17c0 0 1.26-.58 1.54-.56"/></g><g><path d="M849.08 472.78c-.18-.04-2.48-.46-2.9-.73 0 0 1 .12 3.34.08 2.35-.04-.06.57-.6.54"/><path d="M852.43 471.76s-2.52 2.57-6.3-2.71c0 0-.51-.52-.86-.5-.35.02.8-.13 1.77.85s2.85 3.16 4.76 1.36c1.92-1.8.63 1 .63 1zM853.09 477.82l.25-3.65.54.04z"/><path d="M853.94 473.8s-10.31 9.57-7.33 2.53c0 0-2.7-1.82 4.53-4.63 0 0 1.98-1.32 2.8 2.1z" fill="#fff" stroke="#000" stroke-width=".1537375" stroke-miterlimit="10"/><path d="M854.57 478.16l-.33-2.93.61.13z"/><path d="M847.63 476.3c1.22.57 4.73-2.5 4.73-2.5s-2.06 1.14-4.41.91" fill="#fff" stroke="#000" stroke-width=".1537375" stroke-miterlimit="10"/><path d="M854.74 467.49c-.01-.18-.11-2.43-.33-2.88 0 0-.02.98-.4 3.2-.37 2.24.6.03.64-.5"/><path d="M853.22 470.53s3-2.03-1.88-6.4c0 0-.46-.56-.39-.89.07-.32-.25.75.62 1.81.86 1.07 2.83 3.17.7 4.74-2.11 1.57.95.74.95.74zM859.9 472.01l-4.34-.33-.04.6z"/><path d="M855.1 472.27s11.3-8.46 3.64-6.63c0 0-1.48-2.83-5.4 3.66 0 0-1.64 1.7 1.75 2.97z" fill="#fff" stroke="#000" stroke-width=".1537375" stroke-miterlimit="10"/><g><path d="M856.75 474.98s1.61-2.09-.94-3.14c-2.55-1.05-1.93-6.85-8.44-6.78l9.09 10.18.3-.26z"/><path d="M856.21 475.44s-2.37 1.23-3.09-1.35c-.7-2.59-6.75-2.83-5.74-9.03l9.14 10.14-.3.24z"/><path d="M847.27 466.1s.83.3.94-.13l.83.92s-.84.96-1.71.38c0 0-.16-.47-.06-1.16zM849.96 467.92s-.98.82-2.42.26c0 0 .15.59.52 1.1.36.5 2.35-.34 2.63-.55l-.73-.81zM851.54 469.67s-1.68.66-2.73.55c0 0 .45.51 1.57 1.27 0 0 1.08.07 2.09-.8l-.93-1.02zM852.7 473.3s.1-1 .7-1.58l1.56 1.75s-.68.55-1.93.35l-.33-.53z" fill="#ffe717"/><path d="M849.93 467.93s.99-.81.62-2.27c0 0 .59.23 1.05.65.47.43-.69 2.2-.94 2.44l-.73-.82zM848.46 465.1s.18.85-.27.88l.82.93s1.1-.67.63-1.58c0 0-.45-.22-1.18-.22zM851.5 469.7s.93-1.52.96-2.54c0 0 .47.51 1.08 1.69 0 0-.09 1.04-1.11 1.88l-.92-1.03zM855.06 471.32s-1.04-.05-1.72.44l1.57 1.75s.66-.58.64-1.8l-.5-.4z" fill="#ffe717"/><path d="M848.8 470.22s3.34 1.1 3.66-3.06l-.86-.85s.08 3.19-3.5 3.01l.71.85M847.27 466.1s1.42.58 1.2-1"/><path d="M852.7 473.3s-.05-2.35 2.36-1.98M853.03 473.82s2.64.7 2.52-2.11" fill="#ffe717"/></g><path d="M859.47 473.5l-2.96-.74.06.6z"/><path d="M858.57 466.6c.4 1.26-3.25 4.16-3.25 4.16s1.46-1.8 1.57-4.07" fill="#fff" stroke="#000" stroke-width=".1537375" stroke-miterlimit="10"/><path d="M847.93 465.07s-1.12-.35-1.24-.8c0 0 .62 1.34.6 1.63"/></g></g></g><g fill="#012d6a"><path d="M728.05 602.94h7.78v18.73c0 2.96.1 4.88.3 5.76a5.63 5.63 0 002.39 3.42c1.25.85 2.96 1.28 5.14 1.28 2.2 0 3.87-.4 5-1.22a4.7 4.7 0 002.02-2.98 36 36 0 00.33-5.87v-19.12h7.78v18.17c0 4.14-.2 7.07-.62 8.78a9.31 9.31 0 01-2.31 4.33 11.9 11.9 0 01-4.54 2.81c-1.9.7-4.38 1.06-7.44 1.06-3.67 0-6.46-.39-8.36-1.16-1.9-.76-3.4-1.76-4.52-2.97a9.02 9.02 0 01-2.18-3.8c-.52-2-.77-4.93-.77-8.8v-18.42zM775.76 608.74h-11.43v-5.94h30.66v5.94h-11.44v29.06h-7.79zM831.06 637.8h-8.52l-3.4-7.93h-15.56l-3.19 7.93h-8.34l15.16-35h8.3l15.55 35zm-14.44-13.83l-5.37-13-5.23 13h10.6zM835.66 602.77h7.74v13.65h15.2v-13.65h7.73v34.71h-7.74v-15.17H843.4v15.17h-7.74z"/></g><g fill="#012d6a"><path d="M782.52 661.88h-3.57V648a12.15 12.15 0 01-4.63 2.78v-3.33c.94-.32 1.95-.92 3.04-1.8a6.9 6.9 0 002.26-3.08h2.9v19.31zM790.6 651.68c-.93-.4-1.6-.96-2.03-1.67a4.43 4.43 0 01-.63-2.31c0-1.45.49-2.63 1.46-3.57.98-.93 2.37-1.4 4.17-1.4 1.8 0 3.18.47 4.16 1.4a4.7 4.7 0 011.48 3.57 4.27 4.27 0 01-2.6 3.98 5.05 5.05 0 012.4 1.87c.54.82.8 1.76.8 2.84 0 1.78-.55 3.23-1.66 4.34a5.97 5.97 0 01-4.42 1.67 6.5 6.5 0 01-4.25-1.4 5.39 5.39 0 01-2.03-4.45c0-1.04.26-2 .76-2.87.51-.87 1.3-1.54 2.4-2m.4 4.53c0 1.01.26 1.8.77 2.37.5.57 1.14.85 1.9.85.74 0 1.35-.27 1.84-.82.5-.55.74-1.34.74-2.37 0-.9-.25-1.63-.74-2.17a2.44 2.44 0 00-1.9-.82c-.88 0-1.53.31-1.96.93-.43.62-.65 1.3-.65 2.03m.33-8.26c0 .74.2 1.3.6 1.72.41.4.95.61 1.63.61.68 0 1.23-.2 1.64-.62.41-.42.62-1 .62-1.72 0-.69-.2-1.24-.61-1.65-.4-.42-.94-.63-1.61-.63-.7 0-1.25.2-1.66.63-.4.41-.61.97-.61 1.66M808.91 661.57v-3.8h-7.83v-3.17l8.3-12.02h3.08v12h2.37v3.2h-2.37v3.8h-3.55zm0-6.99v-6.47l-4.39 6.47h4.4zM815.85 646.13v-3.4h12.39v2.66c-1.02 1-2.06 2.46-3.12 4.37a25.66 25.66 0 00-2.41 6.07 23.29 23.29 0 00-.83 5.74h-3.5c.07-2.64.6-5.34 1.63-8.08a26.94 26.94 0 014.09-7.36h-8.25z"/></g><ellipse cx="1354.65" cy="663.5" rx="49.88" ry="25.89" transform="matrix(.61495 0 0 .61495 -31.1 0)" fill="#022d6a" fill-rule="evenodd"/><g><path d="M812.66 419.52s-111.62-60.88-112.54-60.88c-.92 0-2.15 4.76-2.15 4.76l107.62 57.66s3.53.15 7.07-1.54z" fill="#904b2e" stroke="#000" stroke-miterlimit="10" stroke-width=".61495"/><path d="M817.94 421.14s-138.15-57.21-139.28-57.18c-1.12.03-2.5 4.83-2.5 4.83l133.17 54.12s4.33.04 8.6-1.77z" fill="#904b2e" stroke="#000" stroke-miterlimit="10" stroke-width=".61495"/><path d="M697.75 368.26l1.88-3.8s-2.56-3.96 2.23-4.98l2-3.4-22.1-4.45 16 16.63z" stroke="#000" stroke-miterlimit="10" stroke-width=".61495"/><path d="M685.65 354.05l16.3 2.85s-7.74.9-4.64 9.47l-11.66-12.32z" fill="#9ea5a8"/><path d="M679.82 375.3l1.76-4.36s-3.16-4.22 2.06-5.7l1.94-3.93L660.7 358l19.1 17.3z" stroke="#000" stroke-miterlimit="10" stroke-width=".61495"/><path d="M665.23 360.4l18.3 1.96s-8.5 1.58-4.36 10.87l-13.94-12.83z" fill="#9ea5a8"/><path d="M822.85 419.13s-145.7-33.64-146.8-33.42c-1.1.21-1.67 5.18-1.67 5.18l140.27 31.4s4.28-.67 8.2-3.16z" fill="#904b2e" stroke="#000" stroke-miterlimit="10" stroke-width=".61495"/><g><path d="M679.2 397.7l1.07-4.59s-3.76-3.68 1.17-5.95l1.31-4.17-25.07.52 21.52 14.18z" stroke="#000" stroke-miterlimit="10" stroke-width=".61495"/><path d="M662.5 385.2l18.39-.87s-8.16 2.87-2.65 11.41L662.5 385.2z" fill="#9ea5a8"/></g></g><g><path d="M791 419.52s111.61-60.88 112.53-60.88c.93 0 2.16 4.76 2.16 4.76l-107.62 57.66s-3.54.15-7.07-1.54z" fill="#904b2e" stroke="#000" stroke-miterlimit="10" stroke-width=".61495"/><path d="M785.71 421.14S923.86 363.93 925 363.96c1.13.03 2.5 4.83 2.5 4.83l-133.17 54.12s-4.33.04-8.6-1.77z" fill="#904b2e" stroke="#000" stroke-miterlimit="10" stroke-width=".61495"/><path d="M905.9 368.26l-1.88-3.8s2.56-3.96-2.23-4.98l-2-3.4 22.1-4.45-15.99 16.63z" stroke="#000" stroke-miterlimit="10" stroke-width=".61495"/><path d="M918 354.05l-16.3 2.85s7.74.9 4.64 9.47L918 354.05z" fill="#9ea5a8"/><path d="M923.84 375.3l-1.77-4.36s3.16-4.22-2.06-5.7l-1.93-3.93 24.86-3.31-19.1 17.3z" stroke="#000" stroke-miterlimit="10" stroke-width=".61495"/><path d="M938.43 360.4l-18.3 1.96s8.5 1.58 4.35 10.87l13.95-12.83z" fill="#9ea5a8"/><path d="M780.8 419.13s145.7-33.64 146.8-33.42c1.1.21 1.67 5.18 1.67 5.18L789 422.29s-4.28-.67-8.2-3.16z" fill="#904b2e" stroke="#000" stroke-miterlimit="10" stroke-width=".61495"/><g><path d="M924.45 397.7l-1.07-4.59s3.77-3.68-1.17-5.95L920.9 383l25.08.52-21.53 14.18z" stroke="#000" stroke-miterlimit="10" stroke-width=".61495"/><path d="M941.15 385.2l-18.39-.87s8.16 2.87 2.65 11.41l15.74-10.54z" fill="#9ea5a8"/></g></g><path d="M741.82 367.17s-7.54.54-3.23 6.84c0 0 2 2.39 4.15 3 0 0 1-5.15 3-6.76 0 0 1.23-4.08-3.92-3.08zM756.03 367.17s-7.53.54-3.23 6.84c0 0 2 2.39 4.16 3 0 0 1-5.15 3-6.76 0 0 1.22-4.08-3.93-3.08zM773.77 367.17s-7.53.54-3.23 6.84c0 0 2 2.39 4.15 3 0 0 1-5.15 3-6.76 0 0 1.23-4.08-3.92-3.08zM826.47 367.18s-7.53.54-3.23 6.84c0 0 2 2.39 4.15 3 0 0 1-5.15 3-6.76 0 0 1.23-4.08-3.92-3.08zM841.3 367.18s-7.53.54-3.23 6.84c0 0 2 2.39 4.16 3 0 0 1-5.15 3-6.76 0 0 1.22-4.08-3.93-3.08zM857.81 367.18s-7.53.54-3.23 6.84c0 0 2 2.39 4.15 3 0 0 1-5.15 3-6.76 0 0 1.23-4.08-3.92-3.08z" fill="#fff" fill-rule="evenodd" stroke="#010001" stroke-width="1.23" stroke-miterlimit="10"/></svg>