<svg xmlns="http://www.w3.org/2000/svg" width="1280" height="877.4"><path d="M0 877h1280V0H0v877z" fill="#00297b"/><path d="M643 752c175 4 313-139 313-314S816 124 642 124a311 311 0 00-316 311c0 175 134 313 317 317" fill="#fff"/><path d="M644 727c151-1 289-137 288-290a296 296 0 00-290-291 283 283 0 00-290 289c0 162 118 294 292 292"/><path d="M485 616c42 36 98 57 158 57 113 0 201-78 224-183 4-17 7-36 7-54 0-67-32-122-71-167-27-32-66-44-88-53-20-8-53-15-72-14-47 1-94 15-131 38a235 235 0 00-27 376" fill="#fff"/><path d="M424 317v-1-3l1 1 1 1c0-2 0-3 2-4l2 1-1 3-3 2h-2" fill="#3f863f"/><path d="M424 318c1 1 2 1 1 2 0 1-1 2-3 2v2c2 8-3 15-4 22-4 8-7 16-14 22l-2 3v1c2 2-1 6-1 9 0 1-2 2-1 4 1 1 0 3-1 4-3 0-5 3-8 2l-1-4 2-3-1-1c-3 6-9 8-13 14l1 1c1 1 0 3-1 5-2 0-2 4-5 3l2 6 2-5c0-4 3-5 5-7 2-3 6-4 6-8h2l-1 1c4 2 3 7 3 11 3 2 3 5 3 8-4 4 3 6 1 10l5-4c0-8 2-15 4-24 3-15 6-29 12-42 7-15 13-29 22-41 7-13 17-25 27-36l-9 4c-2 3-5 1-8 3-1 1-3 0-4-1l-7-3-2 2c3 2 6 6 5 10 2 2 0 5 0 8l-5 16-2 2c-1-3 0-6-2-9l-2 3 1 3c0 1 1 2-1 3l-4 2h-2m438 285c-1-2-3 0-4-1 0-1 2 0 2-2-3 0-4 6-6 2l4-8 3-1c0 3 1 5 3 8l-2 2" fill="#fff"/><path d="M869 276c1-1 0-3-1-4-4-2-1-7-5-8-3 1-1-4-3-5-5 1-4-4-7-5-2 0-4-3-5-4l-32-31v-1l-9-7c-2-3-6-1-8-4-2-1-3-3-5-3l-3-2c-1-4-5-7-9-8-4-3-7-5-12-5l-1 2-28-14c-3 0-3-3-5-4-2 1-2-2-4-3l-4 2 1 4c-4 2-1-3-2-4l-4-3c-4-2-9-3-14-2l-5-1-6-1c-4-6-11-8-17-8-2 0-3-2-4 0v4l-12-3c-7-1-15-3-23-3l-1 2h-10c-3 3-4-1-8 0h-1c-8-2-19 0-29 1l-3 1-4 1-5 2h-3l-8 2-10 4c-11 3-22 6-32 11l-2 1-2 1h-3l1-2c-1-4-4 1-5 0-2 3-6 2-6 6-5-2-1 4-5 4l-10 5c-1 5-8 1-11 5-5 0-6 5-9 7-2 2-4 3-5 6h2l-17 10-4 2a9 9 0 00-1 0l-2 4c-8 8-20 14-25 23l-2 4-3 3c-9 6-14 16-21 23v2c-1 2-3 4-3 7l1-2 1 1c-1 3-2 6-5 8l-7 15-2 4-1-2-4 5c0 3-5 5-4 9-1 2 0 5-2 8 3 6-2 10-3 15 1 2-2 3-3 5 0 3-5 3-5 6 2 4 1 8 2 12l-3 20c1 5-2 9-1 15v13l-2 10v7c0 6-1 12 1 18 0 6 0 12 2 17 1 5-2 9 1 12l1 4c-2 3 0 6 2 8v3l4 10c-1 3 1 7 3 10h-1l-1 2c3 7 3 16 7 23 1 1 1 3 3 2v2c3 4 4 9 5 13 4 4 2 8 6 12l6 7c2-1 4-3 4-5l2 2-3 5c3 2 1 6 5 8 0 4 5 4 7 6 1 5 3 11 8 13l1 4 5 4c0 4 4 4 6 5l6 5 9 8c-1 5 8 7 5 12 2 2 3 1 5 1l3 3h2l4 2c1 3 4 5 7 7 1 1 3 3 5 3l16 10 6 4c2 0 3 3 6 4 9 1 10 11 19 13l2 1h11-1c3 3 6 3 9 5h-1l3 2 6 2c3 2 6 2 10 2 1 1 2 4 4 2l5 3 22 4 3-1c6 2 13 2 19 2l4-5c2 4 5 7 10 7h12l2-2 5 1 3-1 2 1h2l3-1 1-1 3 1h9c6 0 11-1 16-3l4-1c2 0 5 0 8-2h1c4 0 8-4 13-4 4-2 9 2 13-1l5-1c3 0 7-2 9-4 1-2 1-3-1-4 4-2 10-2 13-5l17-8 1 1c2 1 3-1 4-2v-3l5-1 2-4v1l2 2c2-1 2-3 2-4 6-4 13-7 18-13 9-5 19-12 25-19l4-4 3-1 19-21 1-1 1-3 1 2 3-1c1-1 3-2 2-4 0-1-1-2-2-1-1-2 1-3 1-5l1-1 2-1a42 42 0 001 2c1 1 2 0 2-1 4-4 4-7 4-11l6-11c2-5 7-5 10-8l11-10-11 18a323 323 0 01-106 104 279 279 0 01-335-33s-20-17-27-27c-21-23-34-49-45-75-8-20-13-40-17-60-2-18-5-34-5-51-2-21 4-53 6-65 2-14 8-29 12-40 7-19 8-26 26-55 4-9 31-42 46-55 0 0 21-20 37-30 15-10 31-17 47-25 19-8 36-12 57-16 12-3 22-4 41-5h26c17 1 29 2 48 7a322 322 0 0196 40c6 4 23 14 36 26a267 267 0 0168 86c6 14 12 26 18 43a272 272 0 01-13 202l-2 5-3-3h-2l2-7c5-14 10-27 13-40l2-5 1-2 3-1c0-2 2-3 1-5-3-3-2-7-3-11l2-4v-11c2-3 3-7 3-10s-2-5-1-7c2-8 3-16 1-24l3-6c-1-2-1-5-4-6l-1-1c3-2 1-6 1-8v-8h2l-1-11c-2-2 1-4-1-6l-4-2c-3-3-5 1-8 0l5-6c0-2 2-4 1-7l-1-2c1-1 2-4 0-6-3-2-1-7-4-9l-5-3-1-3c-2-11-7-20-11-30l-2-4-3-4-4-6c1-2-2-3-3-4v-1h-1l-5-11c-2-1-3-3-3-5" fill="#fff"/><path d="M370 485l17 16 11 13c5 4-3 3-3 5l-1 12 1 4 1 3-4-4c-1-6 3-15 1-22l-6-8c-1-4-6-3-9-6-2-5-8-5-10-10-2 1-1 3-3 5 0 1 0 3 2 4l-2 3-1-2c-1-3-3-5-2-7 3 0 5-3 6-5v-2l2 1" fill="#fff"/><path d="M369 483c2-1 5-1 6-3 2 0 4 4 6 4l4 2c2 1 3 5 5 4-5-9-7-19-9-28 2 0 2 1 3 2 1 9 6 18 12 26l1 2h-1l1 1c1 2-1 3-2 4-1 0-3 0-4-2l1-2c1-1 2 1 3 1v-1h-4l-1 1c0 1 0 2 2 3h5c-1 2 2 3 0 5-1 1 0 3 2 4s4 0 5-2l2 4c-4 1-4 4-6 7l-16-19-13-11-2-2" fill="#3f863f"/><path d="M834 638l1-3 1-1-1 1c-1-2 1-5 1-7l4-5c1-3 3-6 6-8-1 2 3 1 2 3v3l1 1c-4 6-10 10-14 15l-1 1" fill="#fff"/><path d="M862 584c-3 5-1 11 3 16l2 3c7-5 4-16 1-23v-1c7-2 14-1 20-7 4-4 10-8 12-15l-2-2h-2c-6 1-12 4-17 9l-1-1 9-11c4-4 6-9 5-14l-2-17-13 10c-5 6-7 15-5 23 0 5-2 9-4 14l-2 7h-1c1-6 5-13 6-20l-2-6v-1l-7-12-9 12c-2 5-1 11 1 15 2 5 8 7 8 12v3l-1 2 1 4" fill="#ff350f"/><path d="M831 593c0-3 1-5 3-8 0-6 4-14 5-19l-7 11c-9 11-17 22-27 32l1 7v6c2-2 1-5 1-7 4-2 4-6 6-10 3-3 7-4 10-6l7-4 1-2" fill="#fff"/><path d="M832 593c4-7 4-15 7-23 2-6 6-10 9-16-1-2 1-5 2-8l19-30 1 1 3 1c1 0 3 0 5-2 1-2 1-5-1-8 2-1 1-4 1-7v-1c4-2 6-7 10-10 1 6-4 11-4 17l-1 4c0-2 2 0 3-2 5-7 13-10 18-17 3 1 3 4 6 6-8 5-12 14-20 18l-2 3-14 10c-4 2-6 7-10 9l-2-4-1-2v3c-5 8-12 15-10 24-3 4-2 10-4 15 1 4-3 7-5 10l-4 9v6 10l1 2 1-2c3 2-2 3-3 6v3l1-1h-1l1-1c0-2 3-4 5-6 3 0 2-4 5-5 0-3 1-5 3-8h-1l3-4 8-12v3l-1 1v6l-2 2-10 17c-2 1-2 4-4 4v-1h-1c1 0 0 0 0 0 0 3-2 6-4 8v1c-1 1-2 4-4 4l-2 8c-1 7-7 10-11 15l1-2c1-2-2-2-3-4l3-5 2-10c2-2 3-6 3-8l1-3v-2l2-5c-4-3 2-6 1-9v-8" fill="#3f863f"/><path d="M919 401l1 7h-5c2-3 1-6 3-10l1 1v2m-29-89v2c1 2-2 4 0 5 1 3 5 3 5 6l1 1-5-11-1-3" fill="#fff"/><path d="M868 289l-2-6 2-3 1 2-1-2 1-3 1 2 5 8c-1 3 2 5 3 7v2l-1-2c-2-2-4-4-7-4l-2-1" fill="#3f863f"/><path d="M873 305h-2c-1 2-4-2-6-2-2-1-2-4-3-7 0-2-2-2-4-2-4 3 0 6 0 9l-3 6c-3 1-1 5-2 7-2 2-3 4-3 7-3-2-3-7-7-9v-5c-4-3 2-6 0-10 2-3 7-3 10-4-2 6-9 12-5 18 0-3-1-5 1-7 2-4 3-8 6-11l-1-1h-1c-6 1-11 3-17 3l-4-5c-1-2-3 1-5-1v-2h-2c-1-5-4-7-7-9 3-3 8 2 11-1 10-2 17 5 24 11l1 2 1-2-11-9c-5-4-11-2-17-4l-7-2c-4-2-2-6-5-8-4-1 0-8-6-9 3-3 7 1 9-3l5 1c6-3 8 4 14 1 1 2 3 3 5 3l6 11 1 5 1 3c-6-7-14-10-22-14l-3-1-1-1c-1 0-2-1-3 1l5 1c12 6 26 13 30 26h1c-1-2-2-5-1-6-3-2-3-5-5-7v-6c3-5-3-11 1-16l1 1v-2c2 2 2 6 6 5l1 3 3 2 2 2c-2 4 4 4 3 8-2 2-1 7-5 7l1 1c-1 3-5 5-4 9 2 1 3 0 5-1h3v-1h2l5 4c1 1 0 3 2 3-1 3 3 3 2 6 0 2-2 1-3 2h-3" fill="#ff350f"/><path d="M884 415l3-2 1 2c1 2 1 4-1 6-2 0-3 0-4-2a6 6 0 010-3l1-1m-3-6l-1 3c1 1 2 2 4 1 2 0 1-3 1-4l-1-1c-1-1-2 0-2 1a1 1 0 010-1l-1 1" fill="#3f863f"/><path d="M889 419l1-2 2 2c2 1 4-1 5-3l5 5c2 1 3 4 5 4 6 5 7 13 9 20 1 1 0 3 2 3-1-7-3-14-7-20l-4-4-17-15-1-4h-2c-14-13-17-29-18-46l-3-18v-2l1 1-1-3-3-5c-2-2 1-1 2-1l1-3c0-3-3-4-4-5 0-9-1-18-4-26-1-1 0-2 1-2 2-1 2 1 2 2l2 8c2 4 3 10 3 14l3 9c3-7 5-15 3-22h4l3-1 2 4v-1l1 2-3 1v2l-1 1v2l2 3 4-1 2 4c-1 2-2 0-3 2-3 0 1-2 0-4l-2 2v-1h-1l1 3c-4 10-5 22-5 34-1 1-5 0-6 2 2 2 3 4 2 7-1 2 2 1 3 1l1 6 3 1 1 4c1 2 3 0 4 2-1 3 1 5 3 7-2 4 0 8 0 12 2 2 2 6 6 6l2-3 15 18 1 3h3c6 7 8 15 6 23l-8 5c2-12-5-21-12-29l-8-3-3 1v-1" fill="#3f863f"/><path d="M889 422v4c5 2-2 4-2 7 2 1-1 3-1 4 2 2 0 4-2 5v4l-4-4-5 10c1-18 0-37-3-55l-2-9-6-23-17-39-20-31c-14-18-30-37-48-50h3c18 5 37 5 54 11-3 1-5 1-7-1h-12c-2 3-6-1-9 3l4 4c-1 3 2 6 4 7-2 6 6 6 9 9-1 2-3-1-4 0-1 0-4 0-4 2 1 3 6 4 6 8 0 3 4 1 3 4l2 1c3-2 4 2 6 4 3 2 7 0 9 1v1c1 3-3 5-2 9l1 3c-1 1 0 3 1 4 4 2 3 7 8 9v-5c3-2 4-5 3-8 4-1 1-6 5-7 3 6 1 13 1 20v-2c-2-1-4 1-6 2 0-1 0 3 2 4l-2 1c-1 1 1 3 1 5h-1v1l-1 1c1 2 2 2 3 2 2 0 2-1 2-2l1 3c2 2 3 1 6 2l2 7 4 32c2 9 8 18 14 25 0 1-1 2-2 1l-1 1-3 3 1 3 4 1-2 2v2c0 2 1 3 2 3s2 2 4 0l1 1" fill="#fff"/><path d="M855 335l1-1h1v3c-1 1-2 0-3-1l1-1" fill="#3f863f"/><path d="M792 204l2 10 2-3c2 0 2-2 3-2l-5-5h-2m-94-38c1 3 1 7 3 10l3-5 4-3-10-2m-249 78l9-1v1c-2 3-7 1-9 4-1 2-2 1-4 2l-2 1-1-4 7-3" fill="#fff"/><path d="M442 246l-2-8c12-6 26-6 39-9l9-1-2 3 1 1h2c5-1 12-1 17-4l5-5 5-1h5l8-3c5-1 8-5 12-8 9-10 20-20 24-33l3-3 1 1h2l-1-1c1 0 1-2 3-2l1 2c0 2-2 2-4 2l-2-1 2 2h3l2-2-1-4h-1l2-1c-1-2 2-1 3-3l3 1-2 4-3-1v2l5-1v-4l-2-2v-2l-4-1 3-1h2l3 7c-1 2 1 4 1 6h-1l-14 15-3 4h2c10-1 16-10 25-12l9 3-2 1h-1c-4-1-8 1-12 3-9 6-16 14-28 14-5 8-12 11-19 17h1l-3 1c-5 4-12 5-17 9l-16 4c-1-1-3-2-5-1l-2 3-3 1 1-3-3-2c-1-1-1 0-1 1h1l2 2-3 3s-2 1-2-1l1-2h1l-1-1-2 1-3-2c-1 0-2 0-1 1 1-1 3 1 4 2l-4 3h-2v-3h3l-2-1-2 3 1 3h-2l-6-1c-8 0-19 0-27 3l-6 2" fill="#3f863f"/><path d="M446 251l1-1c3-2 5-4 8-3 2-4 5-2 8-2 5-3 10 1 15 0h6c-4 4-9 12-15 13-6 3-13 2-20 5-6 1-8 7-13 10h-4c5-7 11-13 12-21l2-1" fill="#ff350f"/><path d="M572 171l-1-2c-1-1-4-2-6 0 0 1-2 2-1 4l3 2c-4 2-3 7-6 9l-4-1-5-1h-8l-6 1-6 4c-3 0-5 3-7 6l-2 1 2-4a5 5 0 001-2l-2-3v-3l2-1 17-7 6-2 14-4c3-2 8-4 11-4v6l-2 1" fill="#fff"/><path d="M523 193l1-2 1-4c-1-1-4-2-2-4v-2l-2 1v-3c-2 0-3 2-4 1-1 4-5 2-5 6-3 0-4 0-3 2l-2 2c1 4-5 9 2 11-1 1-3-1-4-2-2-1-5-3-8-3-2 3-8 0-11 4-6 0-8 8-13 11 9 2 18 2 27-2h6c-1 3-5 3-8 5v1c-2 0-4 3-5 5-3 3-2 8-5 10l-1 1c6-1 14-1 19-4 3-3 8-6 6-12v-3c5 1 5 8 11 7l1 1c6-2 12-5 17-11l-15-3c-4 0-10 1-13 5 0-3 3-4 5-5l10-1v-1c4-1 9-1 12-3 4 1 6-4 10-5 1-6 8-4 10-10l1-1-6-1c1 2-2 1-3 2-7 5-16 7-23 14h-1l6-5c7-4 14-9 21-11-4-1-8-3-12-1l-8 2c-2 3-7 2-7 6-1 2-5 3-7 4l1-1 1-1" fill="#ff350f"/><path d="M521 194v5c-2 1-6 3-6 6h1l4-5 2-1c-1-3 0-4 1-5"/><path d="M455 223c6-4 14-9 22-9l2-1c6 1 13 0 18-2 2-2 5-1 7-2l-2 3c-2-1-4 1-6 2l-16 4c-5 1-10 5-15 3-1 2-4 0-5 2l-2 3 2 2c0 2-2 2-3 3h-3v-1c1-2 2-1 3 0 1-1 0-1-1-2 2-1 0-3 1-4l-2-1" fill="#3f863f"/><path d="M689 535l2-9c5-11 7-26 8-38l-2-17c2-7 1-14 1-21 2-6-3-9-5-14l-4-7v-12l4-6 5-22c2-8 1-18-5-24 1-16 5-35 8-52-1-4 0-8-2-11-1-4-5-3-8-3-3 2-5 6-6 9l-4 30h-1l-1-2-5-11c-5-7-12-11-19-14-5-4-10-3-15-5v-3l1-3c2 0 4-1 6-4l-1-3v-1l2-6-2-7 2-1c2-1 4-2 4-5-1-4-5-8-8-11 0-2-3-3-2-5a107 107 0 01-8-13c-3-3-7-5-12-4-3 1-7 0-9 3h1c-5 5-10 8-11 15-1 8 1 17 9 22 2 1 1 3 2 4l-2 3v5c3 1 3 4 5 5 1 3-1 5-3 7-3 3-8 1-13 2-8-2-13 6-19 10l-11 6v-35l2-4 2-2c1-2-1-5-2-8 3-1 0-4 0-6 0-1-2-1-1-2v-1-2c-1-4-6-4-9-5l-4 8c-1 2-4 3-4 7 0 7-1 15-7 19-1 8-4 15-6 23-3 8-1 19-1 27 1 3 4 6 7 7l6-1c2 1 3-2 5-1-1 17-1 36-3 53 1 20 0 39-1 57l-2 38-5 5h-8c-6 0-11 1-16 3-14 2-25 12-40 12-2 1-6 0-9-1l-10-3-10-4c-4-2-4-6-7-9-1-3-4 0-6 0-3-1-2 2-5 3-1 10 10 15 12 23 6 8 8 18 16 23 3 1 6 1 7-1 0-2 3-1 4-2 4-5 8-9 14-11l19-1c8 1 17 1 24-1-4 8-10 14-17 20-7 0-15 2-19-5-4-2-5-6-10-6l-4 4-1 2c-2 4-1 9 1 13s4 9 8 12c9 5 18 13 29 14 3 0 4-2 5-4 5-2 7-8 8-13l1-3c4-9 11-16 17-24v4a133 133 0 001 33c-3 1-4 4-6 5-4 6 0 12 1 18-2 0-3 0-4 2-1-2-2 0-3 0l-3 2 6-3-1 5h1v-2h1c1 3-2 4-3 6l1 1 4-1c1-1 2-3 1-4 0-2-2-3-4-3 1-2 3-1 4-2 4 5 2 11 6 16h1c4-4 4-10 7-15l1 2 2 1 2-3 1 2v-1l3 9c1 3 6 4 9 4 5-1 9 4 13 1h1c2-1 4-1 4-4 3 3 7 3 11 4 10 5 23 9 35 8 6-1 11 0 16-4 1-5 7-4 11-5 4-3 10-4 14-5v1l7-2c3-1 5 1 9 1 3 0 6-4 7-6 4-6 10-10 11-18 3-2 7-3 11-3 3 1 5 4 7 6l24 1c3-1 6-1 8-3l1-1 9-5c1-2-1-4-1-5 4-9-2-18-8-25-3-5-12 1-15-7h-4c-6 0-10-4-15-4l-3 3c-3 4 0 6-2 10h-7v-2c1-3 0-8-1-12l-4-1-1 3-2-2-4-1c-2 1 0 2-1 3l-1-2-3 1-1 3-2-2-12-6-2-1"/><path d="M685 587c-1 1-4 1-2 3 1 4 7 5 7 10 2 2 3 6 5 7l1 2h-2-2c-9 2-18 3-28 7-2-1-3 0-5 1-2 6-7 6-12 6-13 2-28 0-39-7-4-2-10-1-13-6h-1c0 2 3 2 2 4-4 2-8 3-12 1-4-1-9 0-13-3l-1-5c2 0 4-2 5-4l-2 1-4 2-2-8c2 0 4-2 7-1 1 0 1-2 2-1l6 1c5 0 9 2 14 4 4 0 7-1 11 1 1-2 2 2 3 2 2 0 3 1 4-1 2 1 4 2 6 1h6l1-1c10-1 20 3 30-2 1-1 2-1 2-3 7-6 15-12 25-11h1" fill="#ffd9c5"/><path d="M639 303a9 9 0 000-1c1-1 1 1 1 1"/><path d="M628 593l1-4c-4-3 0-7-2-10l1-1 1 1v4l1-1v-3l-3-6-1-4 10 9 1 4c-2 3-5 3-8 5l1 1 1-1c2-1 5-2 6-4s1-5-1-7c-3-2-8-5-10-9l3-3c1 1 2 1 2 3 3 4 8 5 12 9 2 3 1 6 0 10-3 3-8 9-13 7h-2" fill="#c5c5c5"/><path d="M627 594c-2 2 1 5-1 8h6c8-1 17 3 24-2l1-1c3-2 4-6 7-7 4-2 8-5 13-6-2 0 0-2 0-3l7-4-7 6c5 2 9 0 14-1l5-4-6-1h-1 4c6-1 11 1 16 5 4 2 3 7 4 11 10-10-3-21 0-32 0-3 1-7 4-8l3-1 2-2-1-1c-2-3-4-4-7-4l-7 1c-4-5-9-7-14-10h-2l-2-1a26 26 0 000 2c4 3 7 6 10 11 1 2 4 0 5 1 3 3 2 6 5 9 1 2-1 3-2 5 0 2-3 0-3 2-3 2-4 1-7 0-1-3-3-3-6-4-4-5-11-6-17-9-6-5 1-11 0-17v-3h-1l-9 3-2 2-4 5c-1-2 1-3 2-4-2 0-6 0-7 3-2 4-6 8-11 9l-2-1-10 12c0 1 2 1 2 3 4 6 17 8 13 18-1 4-5 6-7 9l-2 1c6 3 12 4 19 3h3l-2 1c-8 1-14-2-20-3l-1-1h-8" fill="#a039a8"/><path d="M639 303l-2 9c2-1 1-3 3-5l4 1c5 0 9 4 13 6 11 3 19 14 22 24l1 3-3 25h-2c-7-8-10-18-16-27 0 3 3 6 3 8l-5 13-2 3-11-7-35-47v-2c3-1 6-2 9-5 1 1 2 4 5 4 0-5-2-11 1-15 1-2-2-2-2-4-2-3 3 0 3-2l3-4v-4c3-2 7-2 11-2-3 1-5 3-7 2 1 2 4 5 7 5-1-2 1-4 2-5l-2 1c-1-1 1-2 1-3h7l1 1-3 2 2 8-3 1-1-2-1 1 1 1 2 1h1c0 2-3 2-4 3h3c1 2-2 2-2 3l3 1-1 1c-2 6-8 1-13 1-1 0-4-1-4-3l-1 1 4 3 7 2 1 3" fill="#ffd9c5"/><path d="M562 292a29 29 0 010 3v3l1 3v4m7-19l1-2v3"/><path d="M627 279c-1 1-2 3-4 3-3 1-9 0-10 5v4l1 1c0-2-2-3 0-5-2 4 4 6 4 9 2 1 2 3 2 4-1 2 1 4 2 5-1-5-1-10 1-15l-3-2c0-1-1-3 1-3h3l3-4v-2" fill="#4f4036"/><path d="M570 283v-1c-4 3-4 7-8 10l1 13v5c-2 28-4 55-4 83-2 11-1 24-2 35v28c0 13-4 30-2 44 0 16-3 33-3 47v16h7v-1a614 614 0 013-66v-1c0-14 2-27 3-40l1-29 2-43 2-42v-37l1-18-1-3" fill="#965a46"/><path d="M562 299c-1 8-4 15-1 22l2-19-1-3" fill="#fff"/><path d="M657 360v2h1v-2"/><path d="M684 402l8-36c3 4 6 8 6 12 1 12-5 22-6 34-6 3-3 10-4 15l-1 3c-2 4-6 3-10 4-2 5-8 5-13 6l-1-3c1-3 4-1 5-3 1-5 7-8 4-13h-1l-8 9c-1-7 4-11 8-15l1 1 3-2c4-2 6-6 7-9l2-3" fill="#ffd9c5"/><path d="M683 402c8-28 9-55 16-83v-15c-1-3-4-4-6-4s-3 1-4 3c-5 8-4 18-6 26-2 22-7 44-10 66l-1 4v1l-2 1c-3 2-7 2-10 2v6c4 2 8-2 10 2l1 3h1c5-2 8-5 9-9l2-3" fill="#c8c8c8"/><path d="M670 400l-2-3c1-3 2-6 1-9-2-4-8-6-4-11 1-2-1-4-3-5l-15-6c-5-2-11-5-11-11l-5-14c-6-11-15-21-22-31l-1-2h-15c1 13-2 24-4 37 1 4-3 10 2 12l3 2v-1c3-16 2-32 4-49h1v1l-3 46c-1 3-1 6-4 8h-1c0 3 4 5 4 8 1 1 3 2 4 1 2-1 4-2 4-4 2-1 0-2 0-3-5-4-2-12-2-18 2 5-2 12 2 17l3 3 9 1v2c-3-2-6-1-10-2-1 1 0 2 1 3 2 2 5 1 7 2v1l-5-1-3 4-5 12c-5 10-8 22-7 33l-2 28-5 32c-1 5-3 9-2 14 4 5 11 0 16 0 6 0 12-5 18-3 11 3 22-1 33-4 5-3 11-5 14-10l7-17c1-5 0-11 4-16 3-5 10-2 15-1 2 0 4 2 5 3 2-8-5-13-8-19v1c-3 5-11 1-13 7-3 2-7 2-12 2l-1-4 3-2 2-1c1-4 6-7 4-11l-7 9-2-1c-1-7 4-11 8-15l-1-3-2-2h-7c-2-2-2-5-1-8 3 0 8 1 10-2h1" fill="#97c8f0"/><path d="M645 157c-1 1-2 3-1 5l-3-1 2-4h2" fill="#3f863f"/><path d="M672 161h1l5 1 4 9-7-4-4-5c-3-2-4 3-7 1l-5-2c-2 1-4 4-5 1h-2l1-2c0-1 0-2-2-3l21 4" fill="#fff"/><path d="M622 158l-5 5c-4-1-8 1-12 1-2-3-6-5-10-5 10 0 18-2 27-1m30 1l-1 2h-5c1 2 4 2 6 1-2 3-9 2-7 7l-3-1 3-2v-3c0-2 0-5 2-6l5 2" fill="#3f863f"/><path d="M641 158l-4 9c-3 2-4 6-8 8l-6 2c-2-1-5 0-7 2l1 1c3-5 9 1 13-5h1v1l2-1c6 2 14-1 19 5 3 3 9 3 9 9 1 2 6 3 3 7-3 0-6-2-9 1-2 0-5-1-7 1-3 0-5-6-9-4-3-3-6-6-10-7l-4-3h-11v2c6-1 12-1 16 3 3 1 6 3 7 6-1 2 1 3 2 4l1 1-15-1c-3-1-7-1-9-4l-4-3-1-3c-4 1-3 5-4 8-4 1-4 6-9 8h1c-5 1-11 3-15-1h-3c2-1 4-4 4-7l2-3c5-4 13-3 16-8l2-1-1-1h-2c-5 0-10-3-15-5-3-2-1-5-3-7 1-4-2-6-3-9 5-3 10-4 15-3 3 1 6 2 8 5v1c4 3 3 8 5 12l1 1c2-3-1-7 3-8 0-5 7-5 7-10l5-3h16" fill="#ff350f"/><path d="M666 188c4-3 8-7 15-4h9l-1-2h-5l-5-2c-4-1-9 3-14 1s-14 1-15-6l-4-8c2-1 5-1 7-3h3c2 0 4-2 6 0 2 1 3 2 4 1l5-2c3 6 7 8 12 11l3 2c3 3 7 5 10 5l1 1 1-2c-4-6-15-4-16-13l-4-9c6 1 12 1 16 4 5 5 2 13 8 16l3-6 5-4c4 0 8 0 12 2l-1 2c1 0 2 1 1 2h-1c-2 2-4 6-8 5l-3 1c-2 1-5 2-5 5-1 8 10 5 10 13l3 3c-1 5 4 9 1 13l-6-4-2 1c-1-1-2-4-5-3a2 2 0 01-1 1l-3-3h-1c-2-2-2-6-3-8 0-4 3-7 5-10-4-2-9-2-12 1l-9 10c-4 1-7-1-10 1-3 1-2-5-6-3v-2l-2-5 2-2" fill="#ff350f"/><path d="M662 189l-1-3-2-3-1-1c5-1 8 2 13 0l-6 5-3 2" fill="#fff"/><path d="M644 164l-2 3-3-1 2-3 3 1" fill="#3f863f"/><path d="M632 163v1c-6 3-11 9-17 13 0-2 2-2 3-3 4-4 8-9 14-11"/><path d="M616 164c-3 1-3 5-6 6v6l-4-10 6-1 4-1" fill="#fff"/><path d="M689 167c2 4 5 7 9 9v1c-5-3-9-8-13-13 2 0 3 2 4 3"/><path d="M578 166c0 2-3 1-3 2v-3l3 1" fill="#3f863f"/><path d="M515 222l7-2-5-2-4-5v5a8 8 0 010 4h2" fill="#fff"/><path d="M677 175l7 4c-6-4-15-3-22-6-4-1-8-2-11-5l5 2c7 3 14 5 21 5"/><path d="M641 168l-2 2 3 4 4-2v-2c0 3 2 5 3 7-3-4-9-2-14-3h-2c1-3 4-4 6-6h2" fill="#fff"/><path d="M570 169l1 3-2 2h-3c0-1-2-2-1-3l3-2h2" fill="#3f863f"/><path d="M598 175c3 2 5 4 9 5-5 0-8-4-12-5l-7-6c4 1 6 5 10 6"/><path d="M644 170c1 1 0 2-1 2-1 1-2-1-3-1 1-1 3-2 4-1m82 3l-1 2-2 1v-2c0-1 2-2 1-3l2 2m7 0l-2 3-2-2 2-3 2 2" fill="#3f863f"/><path d="M715 173l-3 1-7 4h-1c3-3 7-5 11-5"/><path d="M737 176l1 2c-2 1-3 0-4-1-2-1 1-1 1-3l2 2" fill="#3f863f"/><path d="M695 180c-2-1-4-1-6-4 2 1 5 2 6 4m33 15c-4-5-8-10-13-13v-1h-5l-2 2 3 3a60 60 0 0116 9h1" fill="#fff"/><path d="M730 197c1-1 0-2-1-3l-11-12-2-2 3-2h1v1h1l-1-2 1-1 3 5c-2 0-4-2-5-1l2 2c6 0 10 6 15 9h1v-1l2-3v4a97 97 0 0015 28c7 7 14 15 24 16l6 2 5 8c-5-1-10-1-14-3-2 1-3-2-4-2-5-5-11-6-16-10l-9-9-1-1-9-12h-1l-20-14c-3-4-10-4-8-10 7 4 13 7 19 12l2 1h2" fill="#3f863f"/><path d="M724 179l-1-3 1 1v2" fill="#fff"/><path d="M726 177l3 1c0 1-1 3-2 2s-2-1-2-3h1" fill="#3f863f"/><path d="M591 182c-8 2-13 10-22 12 4-6 9-12 15-17 1 4 4 4 7 5" fill="#fff"/><path d="M731 177s1 2 1 0c0 1 2 3 4 3l1-1c-1 1-2 3-1 5l-1-3-5-4h1" fill="#3f863f"/><path d="M759 187h1l9 5c2 1 0 2 1 4l-3-1c-3-2-5-5-8-5-3 2-5 0-7-1-2 1-6 0-9 2 2 2 0 4 1 6s3 4 2 7c-1-5-5-11-6-17l2-1h1l1-4c-2-1-3-4-5-3v-1l20 9" fill="#fff"/><path d="M627 181l10 1c5 2 11 4 16 8-8-4-16-8-25-7l-5-2v-1l4 1"/><path d="M734 183l-1 1v1c-2 0-2-2-2-3v-2c2 0 2 2 3 3m8 0c1 1 0 2-1 3l-3-1c-2-1 0-3-1-3 1-3 4-1 5 1m-10 3v1l-4-5h1l3 4" fill="#3f863f"/><path d="M519 182l-6 20h-1c3-6 3-12 5-18 0-1 1-3 2-2m174 2c-6 2-11 8-17 8-4 0-7 1-10-1v-1c9 3 16 0 23-5l4-1"/><path d="M737 187c1 1-1 1-1 2l-2-2 1-2 2 2" fill="#3f863f"/><path d="M628 195l-2-1c-3-5-9-6-15-6h2c-1 0 0 0 0 0 1-2 3 0 5 0 4 0 7 3 10 7"/><path d="M598 188c-4 2-10 2-13 6l-2 4c-1 1 0 4-3 4l-1 3c1 2 3-1 6 1 4 1 0 2 0 2-17 3-28 8-44 13l7-5c4-3 9-6 12-11 14 2 22-15 36-17h2m103 0c-3 4-6 9-4 13 1 2 1 5 3 7 3-3 3 2 5 3l3-2 2 3c3-2 5 2 7 2l2 2 2-2c2-4-2-6-2-9 3-5-5-6-3-10l21 16c3 7 9 12 14 18-15-7-31-12-46-18-19-7-35-9-51-10l-12-1c-1-2-3-1-4-4v-2c2 2 3 1 5 2s3 4 5 3c3-3 8 3 10-2 3-1 6 1 10 1l2 3h9c5 1 8-6 11-10 3-3 7-3 11-3" fill="#fff"/><path d="M603 189c-1 4-6 7-9 8l-5 4-1-1c5-3 11-6 15-11"/><path d="M619 199l7 2-15 1-10 2c4-1 3-5 7-6 2-2 0-5 2-8 0 6 7 5 9 9" fill="#fff"/><path d="M760 191c3 2 6 6 10 7 2 6 6 13 12 16l5 3h-7l-6-3c-4-2-9-1-13 1l-6-1c2-7-8-6-7-13-1-3-4-6-3-9 3 0 6-3 9-1 1 2 4 1 6 0" fill="#ff350f"/><path d="M814 233l1 1 3 1h1l1-3-3-2-2 1-1 2" fill="#3f863f"/><path d="M814 231c-1-2 0-4-3-4-2 0-3 1-3 2-3-3-7-4-11-6h-2l1-3c1-1 2 0 2-2-1-1-2 1-3 1-1 2-2 4-1 6l9 10c-1 3-4 8 0 11l1 2c-4-1-9-1-12-3-3 0-2-3-4-5-1-3-5-5-3-9 2-2 3-7 7-7v-1l-5-1c-3 0-4 8-9 5-1-2-3 0-4 1-4-1-7 3-10-1l-9-9c5-1 10-4 16-4 5 0 8 7 13 5l6-1c1-1-1-2-1-2h-1c-8-5-17-12-16-23l-1-3c6-1 8 6 13 6 7 3 6 9 7 15l3 3-1 2h1c2-2 3-5 7-6 6 0 9 5 13 9-4 4-10 0-15 0 2 2 5 2 7 2 3 4 7 5 10 7 0 1-3 1-2 3" fill="#ff350f"/><path d="M505 197h-3c-1-1-2-3-4-2l7-4v6" fill="#fff"/><path d="M705 192c-1 5 2 11 7 14h1c-5 0-7-6-9-10 0-2 0-5 1-4"/><path d="M556 192l-14 16-5-1c-2-2-6-1-8-1 3-2 8-1 12-4 4 0 6-4 10-5l5-5" fill="#fff"/><path d="M782 205l7 7h-2c-3-4-8-8-9-13v-2l4 8m-17 0c3 3 9 4 12 6-2 1-5-1-7-2-5-3-11-5-16-10v-1l11 7m-262 1c-5-2-12 1-18 0 6-1 10-2 16-1l2 1"/><path d="M753 214c2 3 4 1 5 2 0 0-1 2-2 1l-1-1v1l-7-10c2 2 7 3 5 7m-277-1l-5 1c2-1 3-2 5-1" fill="#fff"/><path d="M520 213v-1 1m9 0l3 1-11-1v-1l8 1m-20 1l-12 12c4-4 7-11 12-13v1m302 3l-3-1h-10l-2 1c0-2 3-1 5-2 4 0 8-1 10 2"/><path d="M606 218c1 2 0 4-1 6l-4 1c-2-2-2-5-3-8l1-1s-1 0 0 0c3 0 5 0 7 2m-112-2l-5 10c-4 2-7 1-12 2 2-1 1-2 1-3l-2-2c-2-2-3 1-5 1l-4 5c1-2-2-3 1-5-1-1 0-2 1-2l3-1a219 219 0 0112-2l10-3m351 32c-3-3-8-4-14-4 2-2 2-4 1-7l-4-2-2 1c1-4-4-5-7-8l-10-6c2 1 4-1 5-2l4 3 27 25" fill="#fff"/><path d="M779 223v1l-15-2 15 1"/><path d="M466 223l-1 2v-1l-3 2-1-2h-1l4-1h2" fill="#3f863f"/><path d="M789 224c-3 3-6 6-6 11-5-1-10-2-14-5 3 0 6-3 9-2l4 1 2-3c1-1 3-3 5-2m18 6c-1 1 0 3 1 4l-3 1c0 2-1 5 2 6l3-1c2 0 1-2 1-4l-1-1c1 0 2-2 3 0l-1 4 2 3c-2-1-7 0-10-2l-2 1c1-3 3-6 1-8-3-2-3-5-6-6l-2-3 12 6" fill="#fff"/><path d="M477 226c-1 2-3 1-3 2l-2-1v2h-3c1-1 2 0 2-2l4-3c1-1 2 1 2 1v1m-21 0c0 2-2 2-3 2h1c-2-1-3 1-4-1l1-2c2 0 4-1 5 1m5 0l-1 1v-1h1" fill="#3f863f"/><path d="M791 226l7 14-5-6c0-3-3-5-3-8h1"/><path d="M466 228l-2 2h-2c0-2 1-3 3-4l1 2m346 2v3h-2c-1-1-2-1-2-3l3-2 1 2" fill="#3f863f"/><path d="M450 231v2l-4 2-6 2 8-7 2 1" fill="#fff"/><path d="M460 231h-1 1m-7 1l-2 1 1-2 1 1m369 1h-1v-2l1 2m-338 9c2 0 4-2 5-3v1l-3 2h-2" fill="#3f863f"/><path d="M482 243l-6-1c-6 1-13-1-17 1 2 1 5 1 7-1l2 1 10 1c2 0 6-1 7 2l-7 8c-4 5-10 5-15 7l1 2 3 1 1 1c3 1 6-1 7 1l3-3c13-11 27-21 41-30l-13 3h-1c0 2-1 2-3 2 0 1-2 1-1 2 0 2-2 3-3 3h-2v1c-3-3-2 3-6 2-2 0-4 0-5-3h-3" fill="#fff"/><path d="M825 235l-1 3c-1 1-3 0-3-2l1-2c1-2 2 0 3 1m-15 2v2l-3 1c-1-1-2-2-1-4h0c1-3 4-1 4 1m-306-2c0 2-1 2-2 3l-2-1h-1l2-2h3m314 3l-1 3c-2 1-2-1-3-2v-3c1 1 4 0 4 2" fill="#3f863f"/><path d="M822 240h2l2 4-7-2v-6l3 4" fill="#fff"/><path d="M831 238c0 2 0 4-2 6l-3-2v-3l1-1c1 0 0-2 2-1l2 1" fill="#3f863f"/><path d="M424 264l4 8c1 0 2 2 3 0 5-6 10-12 12-20l-5-14c-5 5-13 9-14 16v10" fill="#ff350f"/><path d="M423 264l-1 1c-2 1-2 3-5 4l-7 1-2 1 7-8 7-7 1 3v5m77-24l-2 2h-3c0-1-2-1-1-2 2-1 5-2 6 0m-8 0h1-1" fill="#3f863f"/><path d="M605 378l1-3a17 17 0 01-1 3"/><path d="M606 374l-1-2-1-1c-2 2-4 4-7 3-5-1-3-6-7-8l-1-7h1l2 4 1-3-6-5 2-19h-3l2-1c-4 3-9 3-13 4-1 2-4 1-4 3 0 18-3 37-3 56l-2 51-3 33 3-2c2-1 5-5 8-3l11 6c2-18 6-33 6-52v-15c1-3 1-7 3-10 0-9 6-17 9-25l2-3 1-4" fill="#fff"/><path d="M590 334l2-20v-5l-3 2-17 11-1-1v19l15-5 4-1" fill="#ffd9c5"/><path d="M632 243c3 5 5 10 9 14-5-3-11 1-16 2-6 4-5 11-9 17v1c4-5 3-12 9-16l4-2c4-2 8-2 12 0 3 5 10 9 10 16l-2 2c0-2-1-3-2-3-5-2-9 1-15 0-2 2-5 1-6 4-3-1-3 2-5 3l-6 2c-2-6-10-9-10-15-2-10 2-19 10-25l2-1c4-1 11-3 15 1" fill="#97c8f0"/><path d="M493 243l-2 2-4-1c0-2 1-2 2-3 1 0 3 0 4 2m326 0c7 5 17-1 23 5 4 2 6 6 8 9-3 5 2 9 0 14h-1c-1-3-4-6-4-10l1-1c-1-2-4-3-6-4-11-4-23-7-35-8 0-1 0-3-2-3l-1-4 17 2" fill="#3f863f"/><path d="M474 248c-9 1-16 6-23 10v0c-2 0-4 3-6 4 1-4 7-5 10-8l10-4c3-2 6-2 9-2m-38 2l-6 20h-1c1-7 3-14 6-20h1"/><path d="M759 252l-2 5-3-2c0-2 4-1 5-3m92 4l-2-3 2 2v1m-10 3l-3-2 3 2" fill="#fff"/><path d="M571 261c-3 0-6-1-8 2l-5 5 2 1c4-2 4-9 10-7-1 2 2 2 1 4l-10 4v1c1 2 2-1 3-1l7-3c1 2 2 4 1 6l-6 1c2 2 6-2 7 2l1 5-2 1c-1-1-2-2-4-1-3 2-4 6-6 9l-6-2 5 4-2 14c-2 7 2 15 0 22l1 1 1-5-2 20c-3 2-7 3-10 3l-6-4-2-17 8-35c6-4 8-13 7-20 0-1 0-4 3-4 2-3 2-7 5-9 2 1 5 1 7 3" fill="#ffd9c5"/><path d="M469 267c1-1 3 0 2-1v1l1-1h1l-7 8c-4 0-8 2-11 5-2 1-6-1-7 2l-8-4h-4l-1 3c3 2 5 7 5 10 1 3-1 6-1 9l-4 15c-1-5-3-9-6-12-1-3 0-4-3-6l1-11 1-2h-1-1l-2-3-8 3-2 1-15 4-2-1c4-7 11-18 22-17 4-1 7 4 11 3 1 2 3 1 4 2 7-1 8-11 15-11 5 0 11-4 15 1l5 2" fill="#ff350f"/><path d="M425 270c-1 0-3-2-5-1l3-4 2 5" fill="#fff"/><path d="M857 267c2 5 1 12 2 17l-4-19 2 2m-396 5l-22 2 1-1 21-1"/><path d="M850 276v-3 3m-436 10l8-4c-4 10-8 20-7 31-1-8-3-17-2-25l1-2" fill="#fff"/><path d="M412 287c-2 5 0 11 0 15l1 12 2 1 1-3c0-11 4-21 8-30 4 2-2 5-2 7-4 10-4 19-3 30l1 1c0-2 0-2 2-3l2 3-1 2c-1-1 0-3-2-3v2l-1-1c-1 1 1 1 1 2-2 3 1 6 0 9-3 10-6 20-12 30l-6 7-2 1-2-8c5-4 4-11 10-13 2-4 6-6 6-10l2-2v-1c-2-3 3-5 0-8l-7 2c2-7 0-12-1-19-1-2-3 0-5-1l-2-1h-3l-1-9 7 5c-1 1 1 1 1 2h1c0-6-3-12-1-18l6-2v1" fill="#3f863f"/><path d="M400 309l4 7c1 3 0 7-1 10-3 7-10 12-14 20l14-15c2-2 7-1 6-5 0-5 0-11-2-16-2 1-4 0-6-1h-1" fill="#fff"/><path d="M422 277l-10 3h-4v-1l10-2 4-1v1"/><path d="M638 278l-1 1 1-1" fill="#fff"/><g fill="#6eb4f0"><path d="M609 250c-3 3-4 8-4 13 0 7 0 8 4 12l5 6 1 1h3l5-3 2-1 1-1 8-3h7c5-1 8 0 8 1l1 1v-5h-25l-2-1c-1-2-2-2-3 0l-4 8 2-6 1-4-2-3c-4-4-5-7-5-13l-1-5-2 3zm-15 58l-1 8a219 219 0 01-4 33v5l2 2 3 2 2-23a167 167 0 013-26l-2-1h-3z"/><path d="M598 331l-1 12c-1 15-2 19-5 20-1 1-1 1 1 4l2 3 3 3c2 0 4-3 5-5 1-1 1-1-1-2-2-3-3-6-2-15l2-4 1-1-1-2-1-8c0-5 0-5-2-6l-1 1zm7 39c0 1 3 3 6 3l3 1c0 2 1 2 2 1 0-2 9-1 16 2h7c6 0 6 0 9 3l8 5v-1l1-2v-2l-4-3c-2 0-3-1-3-2 1-1-1-1-6-1l-5 1c0 1-1 1-1-1 0-1-3-2-8-2l-5-1-3-1h-1l-2-1-3 1h-11zm-2 14l-6 13c-2 6-4 14-4 24a316 316 0 01-9 73l1 2h10v-3l1-5 1-10v-9-4l-1-18a181 181 0 001-26l2 17a457 457 0 012 43l1-10v-8l2-2c1-2 2-2 5 0l8 9 1 1-1-3-3-14c-2-11-2-16-2-23l-1-13v-8c1-4 2-7 1-14v-7-14l-2-1h-2l-5 10zm3 9l-1 12a54 54 0 000 20c-1 1-2-1-2-5-1-4-1-6 2-23l1-4zm51 13l-9 10c-2 2-4 9-4 14l-1 4v7l1 11 1 12 2 3c1 0 3-2 3-4v-2c-1 0-1-1 1-4 2-2 2-4 5-13 1-4 1-4 4-5l3-3c-1-1 0-3 2-3s3-1 5-5l2-5-4 3c-5 6-6 6-6 1l1-5 6-6v-5l-5-1h-4v-2l-1-3c1-2 0-2-2 1zm3 6l-2 3-3 7-2 4c-2 0 1-8 4-12l3-2zm6 4l-1 1-5 5c-6 10-8 15-10 23l-1 4-1-2 1-1c-1-2 0-6 2-10l10-19c2-2 5-2 5-1z"/></g><path d="M623 281l2-3c1 1-1 2-2 3" fill="#4f4036"/><path d="M826 279v-1l2 1h-2m-189 1l-2-1h1l1 1" fill="#fff"/><path d="M433 287l4 16c-2 0-1-3-2-4l-4-16 2 4m411 1c3 0 6 1 7 3l-10-3c-4-1-9-1-13-4h1l15 4"/><path d="M867 290l-6 1c0-2 2-4 4-6l2 5m-443 1c2 0 1 2 1 3-1 4 3 4 3 8v1h-3c-1 0-3 0-4 2l1 4c-1 0-2 2-1 3l-2 1c1-8 1-16 5-23l1-3c0 1 1 4-1 4m-20-3c-1 1 0 10 1 14-4-1-7-4-9-7v-1c0-2 2-3 3-5h1l4-1" fill="#fff"/><path d="M875 301v1l-12-7v-1c4 2 8 3 12 7"/><path d="M616 295h1-1" fill="#4f4036"/><path d="M882 297l-1 3-1-1-1-4 3 2" fill="#3f863f"/><path d="M402 316c3 4-1 8-2 12l-11 14c0 4-4 4-3 7 1 0 2-3 4-2 3-2 5-5 7-9 4-5 10-9 16-8l4-2c-1 2-2 5-1 7-3 2-2 4-3 6-5 6-13 13-20 10l-4 1 1 1c5 3 10 8 9 15 1 3 4 7 1 10l-2 7h-2v-1c-1 0-3 0-4-2 0-3-2-2-3-3-1-3-1-5-4-7-1-5 4-8 2-13 0-2 0-5-2-6-3 5-10 6-10 12-2 2-5 1-6 4 0 1 1 5-2 4l-3 3c1-5-1-9-2-14 3-2 5-3 5-6 3-2 5-5 10-5l1-2c-4-1-1-6-4-7l-1-6c3-2 0-6 2-8 0-4 4-5 4-9l2-3c2 5-2 9 2 14 3 6 1 12 0 19h1l1-2c2-7 1-15-2-22v-5l1-4c2-7 7-13 10-20 5 5 2 15 8 20" fill="#ff350f"/><path d="M884 303l-3 1v2c1-2-2-5 2-6l1 3m-454 2l-1 4-3 1c0-1 0-2-2-3h-2l2-3c1 1 0 5 2 3l-1-3c2-1 3 0 5 1" fill="#3f863f"/><path d="M869 307h2c0 5 1 11-2 16v2l-2-10c-2-3-1-8-3-11 2 0 4 1 5 3" fill="#fff"/><path d="M887 308l-1 1-3-1-1-2-1 2v-2l4-1 2 3m-462 1l-2 4-1-3c1-1 2-3 3-1m464 4l-2 2-2-1c0-2 3-1 2-2h-2l-1-1 3-1 2 3m-5 0c0 3-2 3-3 4l-3-2c0-2 2-3 3-4l3 2" fill="#3f863f"/><path d="M625 316h3-4c-2-1-5-4-8-4l5 1 4 3m-230-2c1 5-2 13-3 19l-3 8v-1c1-4 3-9 3-14 2-4 3-8 2-13 1-1 1 0 1 1"/><path d="M422 316h-2l1-3c1 1 2 2 1 3" fill="#3f863f"/><path d="M656 315c-5 0-10 0-14 2-2 0-3 1-5-1h7c3-2 6-2 10-2h2v1m-22 1h-3l-1-1 4 1"/><path d="M886 321l-1-5c1 1 3 1 4-1l-3 6" fill="#fff"/><path d="M613 322l10 16c3 9 4 19 11 26 4 3 8 4 12 8v1c-5-5-13-5-16-11-6-11-7-24-15-34l-6-11 4 5"/><path d="M893 324c0 2 1 3 2 3 3 1 3 5 4 7 1 8 3 17-2 24-1 2-2 4-1 6-5-11-6-24-6-34l-1-1-1 9 2 12 1 5 4 11-2-2-1-2v1l-11-11 1-3c-2-2-2-6 0-9 0-3-2-9 2-10 0-4 1-6 4-8v-2l3 3 2 1" fill="#ff350f"/><path d="M859 326h-3v-2l3-1v3" fill="#3f863f"/><path d="M603 345c3 4 8 3 10 8 3 5 7 11 13 10l6 2-2 1c-4-3-11-1-15-7-2-4-5-10-10-11-7-6-3-16-4-24l1-1c0 8-2 15 1 22"/><path d="M883 325c0 1 0 5-2 5-2 3 1 9-2 13-2 3 5 6 0 9 3 5 7 7 11 11-2-1-6-1-8-4-2 1-3-1-4-2 0-10 0-22 4-32h1" fill="#fff"/><path d="M865 327c0 1 0 2-2 3l-2-2v-2s2 0 1-1l3 2m-5 1h-1 1m0 2l-1 3-4-2v-1c1-2 4-1 5 0" fill="#3f863f"/><path d="M379 329c-2 8 6 13 3 20h-1c2-7-5-13-3-20h1"/><path d="M862 331h-1v-1l1 1m3 9h-3l-2-3v-2l-2 1v-2c2 1 3-3 4-2 2 2 4 5 3 8" fill="#3f863f"/><path d="M409 336l-1 1c-4 5-10 9-15 12-1-1 1-1 1-2 2 0 3-2 5-3l9-8h1"/><path d="M646 359c5 1 9 8 15 7l2 2v3h-1c-7-4-16-5-23-11l-7-18c4 5 8 12 14 17" fill="#97c8f0"/><path d="M657 342c1 4 2 8 0 10-1 1-4 4-7 3 2-1 5-2 6-4 1-3 0-7-2-11h1"/><path d="M375 345l-1 2 1 2-4 2 2-8 2 2m528 2c2 6-1 10-5 14v2c-2-2 0-5 1-7 2-3 3-9 3-12l1 3" fill="#fff"/><path d="M905 388h3l8 9-1 6c0 4-4 7 0 11-1-1-3-3-5-2s1 2-1 3c-1-8 1-21-6-27h2" fill="#3f863f"/><path d="M902 387l-4 2c0 4 1 7-1 10l-3 2c-1 2 1 4-2 4-4-4-5-10-4-17l6-5c1-1 0-2-1-2-3-2-7 3-8-2-1-2-4 1-4-2l-1-3c-6 1-1-6-5-7h-2c1-2 0-5-1-6v-1c2 0 6-3 8 0 2 0 3 2 5 3 3 2 7 1 9 5s2 9 5 12l2-2c1-4-3-7-2-11-2-6 6-8 7-13l-1-7 4 4c-1 4 4 7 3 11l-1 3 2 1v2c-2 1 0 4-1 6-2 2-5 3-6 6h5c3-1 7 0 9 2-3 4 2 6 0 10 0 2 2 5 0 6-5-3-8-10-14-12l-4 1" fill="#ff350f"/><path d="M654 348c1 2-1 2-2 2l-1-2h3"/><path d="M399 360l-6-7c3-1 7 0 11-2l-5 9" fill="#fff"/><path d="M378 351c0 2-3 2-4 3l-9 12c2-6 6-13 13-15m530 5l-5 20c0-7 3-15 4-22l1 2"/><path d="M386 358c-1 5-5 10-10 13-4 6-7 13-4 19l1 1c2-6 9-8 12-14l1-1c1 2 1 4 4 5-4 7-11 11-15 18l-3 4c-1 3 0 8 2 11l-1 6h-1l1 1c-2-1-3-4-6-3l-2 6-5-2-1-3c2-3 5-5 3-9 1-3 7-5 4-8l4-2c2-2-2-4 1-6v-1l-2 2c0-1 2-2 1-4-1-1-2-3-4-3-2-10 7-16 13-22 1-2 3-5 2-7l4-4 1 3" fill="#3f863f"/><path d="M395 377h-1c0-7-3-13-6-19h1c4 5 6 12 6 19"/><path d="M377 367c-7 5-13 12-12 21l-4 3c3-3 0-10 3-12 2-1 1-4 3-5l4-1c1-2-1-5 1-5 5 0 4-6 7-8 1 2 0 5-2 7m9 8l-11 11-2 1c-3-4 0-10 3-14 4-3 9-7 10-13 1 5-6 11 0 15" fill="#fff"/><path d="M893 376v1l-14-10v-1l14 10"/><path d="M900 375v3c-3-3-4-7-5-11l1 1v-1h1v-1l3 9" fill="#fff"/><path d="M627 371c4 2 9-2 12 3v2l-4-4c-3-1-8 2-11-1h3m29 8c4 3 5 9 10 12 1 1 2 3 1 5h-1c1-2 0-4-2-6-6-2-5-12-13-13 0-1-2 0-1-1 2 0 5 1 6 3m-43-3c1 6 0 14-2 20l2-11v-9m8 6v-1h1c0 12 3 22 5 33l5 9-2-13v-1l3 11 1 5 1-8c0 6-1 13 3 18l2 8c-1 1-2-1-2-2l-1-5v4h-1l-2-9c-2 0 0-3-1-4-6-9-9-19-10-29l-2-13-1 9c3 11 5 25 5 36-1 7 4 12 8 18 3 7 0 15 2 23 2 3 1 10 6 10v1c-7-1-6-8-7-13-2-7 2-15-2-22-6-6-9-13-9-21 2-11-3-22-4-33l1-16 1 5m296 6v2l-2-2c-2-3-5-4-8-6 4 1 8 3 10 6"/><path d="M892 382v1l-5 4-1-4 6-1" fill="#fff"/><path d="M657 383l-3 10c-1-3 1-7 2-10h1"/><path d="M394 386c1 0 3 2 2 3l-5 1v-4l3-1v1m5 1l-2 1v-2l1 1 1-2v2" fill="#3f863f"/><path d="M897 386c-2 3-3 5-3 9l-1 5-1-3c0-4 1-8 4-11h1"/><path d="M906 394l1 22 2 3c-5-5-8-12-14-17l2-1c3-3 3-8 2-11 4-5 5 2 7 4" fill="#fff"/><path d="M660 389l-1 7v-4l1-3"/><path d="M369 392l-2 4-3-1h-1l-1-1c0-2 2-3 4-4-1 0-1 0 0 0 1-1 2 1 3 2" fill="#3f863f"/><path d="M605 426h-1l-1-5c-1-10 2-20 3-30 0 11-4 24-1 35"/><path d="M391 400c0 2-2 4 0 5s2 3 3 5c-1 3-3 5 0 8v4l-13 15v10c-2-1-1-4-1-5h-1c2-10-7-16-3-25-1-5 3-8 3-13l5-5c3-1 4-3 5-6 2 2 1 5 2 7" fill="#ff350f"/><path d="M638 399c1 2 3 3 5 2l4-2c0 2-3 3-5 3a5 5 0 01-4-1l-2-5 2 3"/><path d="M365 397v3c-1 0-3-1-3 1l-1-4h4m4 0v3h-3l1-3h2" fill="#3f863f"/><path d="M389 397c-3 13-8 26-8 39h-1c0-8 1-13 3-19v-2l5-18h1"/><path d="M378 401l-1 1-1-2 2-2v3" fill="#3f863f"/><path d="M681 401v1l-9-2h2l7 1"/><path d="M375 401c1 1 1 3-1 4h-1l1-2 1-2m-10 3l-1 2v-1c-1 1-2 3-3 2-2 0-1-3 0-4l3-1 1 2" fill="#3f863f"/><path d="M656 405c-3 6-8 9-10 14l-3 15h-1v7c4 10-2 18 4 27-2 1-2-2-3-4-2-7 0-14-1-22-2-6-1-13 0-18l2-10h1l-3 15v1c2-4 1-9 3-13l11-12"/><path d="M888 409l-2-2 2 2m-526 0h-1 1m557 1l-1 3c-2 0-3-1-3-3l3-1 1 1m-558 2l-2 4 1-6 1 2m529-2l2 2c0 2-3 0-3 2l-2-2h-1v-2h4" fill="#3f863f"/><path d="M660 413c-4 4-6 9-8 13 0-5 4-10 8-13"/><path d="M914 415l-1 3h-2c-1-1-2-2-1-3l1-1h-1c1-2 3 0 4 1m-19 1l-1 2-3-2 1-2c1 0 3 0 3 2m24 0h-1c1 1 2 1 1 2 1 1-1 1-1 2-2 1-3 0-3-2l1-1-1-1 1-2 3 2" fill="#3f863f"/><path d="M666 417l-4 2c-6 9-12 18-13 28v2l-1 1v-3l2-9 8-16c2-2 4-6 7-6l1 1"/><path d="M922 424c0 1-1 2-2 1 0-2-3-4 0-5v-4c3 2 3 5 2 8" fill="#3f863f"/><path d="M373 422l2 6c1 5 4 9 2 15-4-6-3-15-12-19 2-1 1-6 4-4l4 2" fill="#fff"/><path d="M914 421l-1 3c-2 0-2-3-1-4 0-2 2 0 2 1" fill="#3f863f"/><path d="M401 437l-3 3c-1 2 0 5-2 6-3 3-7 5-11 6 0 2-4 4-1 5 3 0 8-3 11 1 3 3 5 7 5 12 0 4 3 8 1 13h-6c-1-4-2-9-6-9-4-4-2-9-5-13-2 0-3-2-5-1l-2 1h-1c-1 1 0 2 1 3 1 3-2 6-1 9-2 2 0 7-4 8-2 0-4 0-4 2l-2 4 6-28-1 2c-3 9-6 17-7 27h1l-1 1-1 1-1-4c-1-2-2-4-1-6 2-3 0-6 1-9 0-4 7-6 4-10 0-2 0-4 2-5-8-6-9-15-10-24l1-8 1-1c6 3 13 8 13 15 1 3 3 4 3 7l1 4 1-2c2 1 3 4 3 6h1c1-7-2-14 3-18 4-6 9-12 16-15v17" fill="#ff350f"/><path d="M893 424l-2 2-1-4c2-1 3 0 3 2" fill="#3f863f"/><path d="M918 422c-1 4 4 4 3 8l-1 3c-1-4-2-8-5-10 0-2 1-2 3-1" fill="#fff"/><path d="M597 424c2 10 1 20 3 31-2 10 0 22 0 32l-1 1c-1-11-2-21 0-32l-1-4-1 14-1-1 1-36-1-7 1 2"/><path d="M896 423c-1 2 2 2 3 4 2 2-1 8 4 7 2 2 1 5 2 7 2 4 3 8 1 12-3 6-10 10-9 18 3 0 1 3 3 4l1-7c5-2 1-10 8-10 0-2 2-1 2-2l2-4 6-2c-2 4 3 8 1 13-3 5-4 9-9 13-2-2-4-1-7-1l-5 4h4c5 2 9 8 10 13l1-1c-2-6-5-13-12-13 2-2 5-2 7-2 3 2 6 4 6 7 0 5 0 9 4 12 0 2-2 3-3 4-2-1-4 0-5-2-3-1-4-5-6-6v-2c-1 0-1 2-3 1v-7l-3-2-4 1-5 7h-1c-1-2 0-3 1-5 1-1 2-3 3-2l1-1c0-2-3-3-5-4-3-1-6 2-8 4l-3 7h1c2-3 3-8 8-9 2-1 4 0 5 1-7 3-3 11-10 15-2 2-5 6-9 6 1-2 3-5 3-9-1-6-1-13 6-16 2-2 6-2 9-1l2 1 2 1c0-2-3-3-5-4-3-2-10-1-11-8l-1-7c-3-5 1-9 2-14l3 3 4 2c-1 3 2 4 3 6 4 6 5 13 6 20h1c0-9-2-18-9-25 0-1 0-3-2-4l-1-4 3-2c0-2-2-4 0-5v-3c2-1 4-3 4-5l2-2v-3l2 1" fill="#ff350f"/><path d="M613 424c0 13 1 24 3 36l1 6v6l-4-29-2-20 2 1"/><path d="M909 438c2 6 2 12 0 18-2 0-4 2-6 4 0 3-1 6-3 8l-1 2c-1-7 6-11 9-17 2-7-3-12-3-19 0-2-3-1-3-2 0-4-2-7-5-8 6 3 8 8 12 14" fill="#fff"/><path d="M399 428h-1c-6 5-8 12-12 19-1 2-1 4-3 5-1-2 2-3 2-5 4-6 6-15 13-20h1v1m280 0c-5 2-5 8-10 10l-4 1-1-1 5-1 3-3c2-2 3-7 7-7v1m-313 6c3 8 9 15 11 23l-14-27 3 4m532 3c-2 7-3 13-2 20l-1-2c0-7 0-13 2-19l1 1"/><path d="M426 546c-2-8-5-16-11-22l-5-10c-3-2-1-6-3-8h-1l-2-3 4-3-2-4h-2l-2-3c2-1 1-3 0-4-1-2-3 0-5 0l-9-14c4 1 4 5 6 8 2 2 5 0 8 0 3-1 1-5 1-7-2-4-1-7-2-10-1-5-5-10-10-11l-6 1c1-5 7-5 11-7l1-1c2-2 3-4 2-7l2-2 2 33c3 16 6 31 12 47l16 34c7 13 18 25 26 38l1 2-1 2-1 4c0-5-5-8-4-13-2-4-6-4-8-7-5 0-8-3-13-2-2 1-1 3-2 5l-1-10v-2h2c2 1 4 3 7 2v-2l-1-2-3-5c-1-6-2-11-7-15v-2" fill="#fff"/><path d="M424 547c-2 0-4 0-5-2 0-2-2-1-4-2l-3-11-1-12 8 11 5 15v1m3 24c0 6 2 12-2 17 0 2-3 3-1 6-2 1-1 2-2 3s-2 3-1 5c1 1 3 1 3 3v2c-2-1-3 1-5 3-4-3-7-7-6-12-2-3 1-7-1-10v1l-1-1v-6c2-1-1-2 0-3 0-9-4-16-8-24l-4-2c1-1 3 0 5 1 4 6 9 13 10 21 0 2 1 6 4 6 4-3 3-8 3-13l5 1 1 2" fill="#3f863f"/><path d="M460 594l7 13 1 2h-1c1 2 3 3 2 5-1 4-4 6-4 10l2-1c2-2 5-4 10-3 3 1 6 1 9 4l7 4 2 4c-5 2-13 6-18 1-3-3-5-5-9-5-3-2-6 0-9 2l-1 1c2-1 0 1 2 2 1 4 5 7 6 11v9h-5c-2-2-4-6-8-4l-1-5c-2-2-4-3-5-6h1v-4h1l-1-7c-3-3-8 1-12-1l-9-5c0-5-7-4-6-9v-3c3-1 5-2 8-1s5 4 8 3 7-2 9 1c1 3 3 6 7 6 2 1 2 4 3 6l-10-5c-4-3-9-5-14-6v-1c-1 0-2 1-1 2l21 9 6 3c1-1-1-3-1-5l2 3c2-2-1-2-1-4l-3-6 1-1c-2 0-2-2-2-4 0-4 3-9 5-14v-1" fill="#ff350f"/><path d="M657 444c-2 6-2 14-9 18v-1c7-5 6-14 10-21l1-1-2 5"/><path d="M366 456c-2 2-2 5-1 8-2 2-4 4-4 6-3-9-4-19-3-29 0 6 3 12 8 15" fill="#fff"/><path d="M670 442l-1 3-2 13h-1c1-5-1-12 4-16"/><path d="M697 449c1-2 0-4-1-5 1 1 2 4 1 5" fill="#1846e2"/><path d="M696 451c1 7 2 14 0 21l1 12c0 14-2 27-6 40-1 6-5 12-3 18l1-1c6 2 7 11 14 11l3 4h-4l4 3c2 0 1 1 2 2l-3-1c0 1-2-1-2 1l3 2 1 1-2 1c0-2-2-3-3-4s-1-2-3-2c0 2 1 3 3 4l2 2-2-1h-1v-1h-2c0 2 3 2 3 4-5 1-5-6-10-5-5-5-11-6-17-8l-2-4 2-16v-1c1-12 1-24-3-36 0-6 3-12 4-18l1 1 1-1h-1v-3l-2 1v-4c-2-4 0-9-1-12-1-4 0-9 2-12 1-1 3-3 5-3 5 0 13-1 15 5" fill="#ffd9c5"/><path d="M884 461c2 3 5 4 7 8l-5-5c-4-3-5-10-4-15 1 3 0 8 2 12"/><path d="M881 471l4 2c-4 1-8 4-10 8-1 8 0 14-3 20v5h-4l-2 4 2 3 1 1-14 22-5 8c4-11 9-19 12-30l9-36 4-25c2 6 1 13 6 18" fill="#fff"/><path d="M677 458c-1 2 1 5 2 7-2 0-2-2-3-3 0-3 0-6 2-7l-1 3m12-3l2 7-2-2c0-2-2-4 0-5m227 3c-5 5-7 12-12 16l4-7 8-10v1m-519 20c-2-6-5-12-11-17l1-1c5 5 9 11 10 18m209-16c1 8 4 15 6 21l-1 1c-2-8-7-15-6-24 2 0 0 2 1 2"/><path d="M380 463l5 20 1 2-7-4c-1-1-5-2-3-5l2-12-1-2c2-1 3 0 3 1" fill="#fff"/><path d="M670 477c-3 2-2 6-4 9-3 5-6 9-12 9l-5 6c-9-2-14 4-21 4h-1l-1-8 19-4 1-1c4 0 8-2 12-4 3-2 8-5 8-9h1l5-13c-1 3 4 10-2 11" fill="#4696e6"/><path d="M675 479c-1 7-5 13-4 20 4 12 3 23 3 34l-9 2c-4-3-10-6-16-4-5 2-12 1-17 5-3 4-4 9-2 13-2 1-4-1-5 1l2-6 2-7c0-10-5-21-2-31 4 0 8-1 10-3l1 1 6-2h6c5-7 14-7 17-15 3-4 1-9 7-11l1 3" fill="#fff"/><path d="M602 536c-2 2-6 3-7 6l-1-3 1-1h-1l-7 4c-3 2-6 6-4 10-3 0-7-2-10 1l-2 5c-2-2-1-6-2-8 1-7-2-14 1-21l1-10c2-4 2-10 1-16h-1c0 5 2 12-2 17-1 3-4 6-7 8 2-12 2-23 1-35v-9a19 19 0 018-6c5 0 9 4 13 6 0 5-3 9-2 14 4 3 9 4 14 3 2 6 6 11 6 18l1 16-1 1" fill="#ffd9c5"/><path d="M601 538l-6 5 7 9c0 1 3 3 1 4-2-6-10-10-10-16-4 2-8 5-10 9l2 4c8 3 16 6 23 11-3 0-7-3-11-4-6-4-14-7-22-7-3 2-4 6-4 9h12c6 3 13 4 20 6 3 1 6 0 8 2l-15-2c-9-3-19-7-29-4l-2 5-1 3v2h1c7-4 14-2 22-2s16 2 25 1l1 1h-11c-11 0-24-2-36 1-2 0-3 3-3 5 3 2 1 6 3 8 1 2 2 3 4 3l35-6c2 0 5-2 7-1l-1 1c-14 3-27 6-41 7l1 3c4-2 6-1 10 0 3-4 6 1 8 2l21-6 3-7c-2-3 1-5 1-9-3-9-10-17-11-28v-10l-2 1" fill="#a839a8"/><path d="M900 483c2 1 1 3 1 5l-1 2 2 2c-4 7-14 10-17 17h-1c2-5 3-11 6-16 0-3 4-6 5-9l2-2 3 1" fill="#fff"/><path d="M402 492h-3c-1 0-2-1-1-2l2-1 2 3" fill="#3f863f"/><path d="M378 500c8-1 8 8 13 12 3 6 0 13 0 21 0 3 5 4 5 8l-3-4c-4-5-11 0-13-7-6-6-12-11-11-20-1-3-5-8-2-10 2-4-3-7 1-10 3 4 8 6 10 10" fill="#ff350f"/><path d="M398 493h-1 1" fill="#fff"/><path d="M403 495l-2 4c-1 0-3 2-4-1l2-4c1-1 3 0 4 1" fill="#3f863f"/><path d="M605 504c-2-1-5-3-7-2l5 10 1-5 1-3v3m0 0c1 3 1 6 3 8 1-2-1-3-1-5v-5" fill="#fff"/><path d="M607 505l-1-8 7-2c3 1 7 0 10 2l-1 4v1c2-1 2-3 2-5 1-1 0 0 1 1v17c0 9 5 19 0 28-5 12 1 27 1 40-2 3 5 8-1 10v8c0 2-2 1-3 1h-6l-1-2-1 2h-3c-1-1 3-3 0-4l-2 3v-2c0-1 2-1 1-2s-1 0-2 1c0-4 4-6 5-9 3-3-1-7 2-10v-2c1 1-1 3 2 3 0-10-9-16-10-25-3-8-2-16-3-25-1-7-1-14 1-21l2-4m-55 20c-2 6 2 14-5 18l-3 5c-2 0-3-2-4-3l-9-9 4-7 1-2a657 657 0 0017-31c1 9-1 19-1 29" fill="#ffd9c5"/><path d="M441 501l5 11c2 3 7 4 8 9l2 2 10 16c2 2 3 4 6 5-2 1-6 2-8 0-6-6-9-14-13-20-2-9-13-14-13-24a11 11 0 012-1l1 2" fill="#663d3d"/><path d="M442 499l4-2c5 2 4 9 9 11l9 3c-2 3-7 4-9 8-2-6-10-6-10-12l-3-7v-1" fill="#ffd9c5"/><path d="M605 497v5c-3 0-5-3-8-2h-8c5 0 9-3 15-3h1" fill="#4696e6"/><path d="M406 500l-2 2v-4l1-1c0 1 2 2 1 3" fill="#3f863f"/><path d="M372 498c8 9 13 20 19 30l-1 2-1-1c-2-7-7-13-10-20l-8-12 1 1m74 3c4 2 6 5 7 9 1 1 3 0 2 1s-3 0-3-1c0-6-8-6-7-12l1 3m167-2l4 7h-1l-4-7h1"/><path d="M548 500c-6 9-8 19-14 28-5 0-9 3-14 2h-13v-3l-5-14-1-1 16-7 14-4c6 0 11-2 17-1" fill="#ffd9c5"/><path d="M403 503l-2 3-3-3 1-2c1-1 3 0 4 2m474-1v5l-3-1-1-3 4-1m28 1v3l-3 3 1 1c1-1 1-2 3-2 0 2 1 2 2 3l-1 4c-1-2-4 1-4-2l2-2c-2-2-3 2-4 0l-3 1 7-9m-34 5c-1 1 2 1 1 3-1 0-2 2-4 1v-3c1 0 2-3 3-1" fill="#3f863f"/><path d="M613 513l-3-5c2 0 2 2 4 4l-1 1"/><path d="M877 511c0 2 1 5-2 6h-4v-4l2-5c1 1 4 0 4 3" fill="#3f863f"/><path d="M410 520c-1 6 3 11-2 16-2 2-5 5-5 8 1 1 1 3 3 3 3-3 6 0 9-2 4-2 3 3 7 3s7 5 8 8c0 4 1 9 5 13l1 2c-5-2-9-4-13-4-7-3-11-9-16-14-2-2-4 0-6-2-2 0-3 1-4 3v5l1 2v-1l3 7-2 2c1 4 0 7-2 11v1c-2-6-13-8-8-16-2-5 3-9 1-13-3-1-6-4-10-4-4-2-4-7-6-11l-3-15 12 13 4 1c1 4 4 5 7 7l3-1c0-4 0-8-2-11l1-11c1-2 5-2 5-4 2-3 2-6 5-7 0 4 5 7 4 11" fill="#ff350f"/><path d="M622 509c1 1-1 3-1 4h-1l2-4m177 3c1-1 2 0 3 1 1 2 3-1 4-1 1-1 2-2 4-1 2 0 2 4 3 2 2-1 3 1 4 1l4-3 2 2v2l6-3c-1 3-4 7-4 10l-5 12-7 1c-12 0-23 3-34-2-1-8-1-16-7-22h2l6 4c2-2 3-4 5-4 1 2 4 1 5 3 3-1 4-3 5-4l4 2"/><path d="M908 518c0-2 2-4 1-6l1-2-2 8" fill="#fff"/><path d="M796 515c-1 1-2 2-3 1l-1-2 3-3c2 1 2 3 1 4" fill="#ffd93c"/><path d="M467 511c-2 5-8 6-11 9l-1-1c1-1 3 0 2-2l9-6h1" fill="#c83d25"/><path d="M811 514c-2 1-2 3-4 2l-3-2c2 0 3-1 5-3l2 3m-27 1c-1 0-1 2-2 1l-1-1 3-3c2 0 1 2 0 3" fill="#ffd93c"/><path d="M460 521c2 0 2-2 1-3l-2 2 1 1" fill="#ffd9c5"/><path d="M486 516h-5v3l-2 7c-1 2-3 2-5 1s-2-3-2-5c-1-3 3-5 3-8l-7-2c0 4-7 4-5 9l-3 1h-1l-1-2-1 1c0 3 3 6 5 9v-1c2-2 4-2 5-1 2 1 2 2 2 4l6 1c1 1 2 2 1 3l-3 6-1-1-1 1 3 1c4 0 1-4 2-6v1c2-2 3-3 3-5-3-3-8-2-10-6v-1c3 3 7 3 10 5 1 1 2 2 1 3 0 3-3 4-3 6 3-3 4-5 8-7l-4-5c-1-2 0-5 1-8l1-2 1-1c1 5 5 9 5 14h3l-6-14" fill="#c83d25"/><path d="M488 517l4 11c-1-5-1-9-3-13l-1 1v1" fill="#ffd9c5"/><path d="M505 526l1 4h-4l-4-16-1-1 3-1c3 4 3 9 5 14" fill="#c83d25"/><path d="M809 517c2-1 3-3 5-3 2 1 3 6 6 4l2-1 5-3-2 2-1 2 1-1c-1 2 0 5-2 7-1 2-3 5-3 8 0 2-2 1-4 1-11 0-23 4-32 0h-4v-7h8l-1-1-8-1c0-4-2-8-4-11l7 5 4-4 1 1v-2c4 0 5 7 9 4l4-5c3 1 5 7 9 5" fill="#ffd93c"/><path d="M895 515h-1c2 1 1 4 3 4l2 2-2 2h-3l-1-4c0-1 3-1 1-2l-2 2-1 2v-2l-1-1 7-6-2 3" fill="#3f863f"/><path d="M820 517h-1l-2-2 4-2s2 4-1 4" fill="#ffd93c"/><path d="M901 513c2 1-1 2 1 4l-2 2-3-4c1-1 1-3 3-2h1" fill="#3f863f"/><path d="M496 513c-1 2 2 2 1 3l3 14-1 1-4-17 1-1" fill="#ffd9c5"/><path d="M494 514l3 16h-4c2 0 0-2 0-4l-2-11 3-1" fill="#c83d25"/><path d="M472 514l-5 5 5-5"/><path d="M480 516l-3 10h-3v-6c1-2 3-3 3-5l3 1" fill="#ffd9c5"/><path d="M907 517l-2 6c-1 1-2 2-4 1l-1-3 2-1-1-1c2 0 2-2 2-3 1 1 2 2 4 1" fill="#3f863f"/><path d="M405 518c0 7-1 15-3 21h-1l3-22c1-1 0 1 1 1"/><path d="M464 524h2c1-1 2-2 1-3h-1l-3 2" fill="#ffd9c5"/><path d="M465 520c1-1 3 0 3 1l-2 4-3-1 2-4"/><path d="M486 527c1 2 3 5 1 5-2-2-7-4-4-8l1-4 2 7" fill="#ffd9c5"/><path d="M872 537l-2 10-5-8 2-1c2-2 4-6 7-7 3-4 8-6 12-9-5 6-12 8-14 15m20-15c1 2 3 3 5 2 2-2 4 4 7 1l2-1-10 30-5 1-3 1-4 2 8-10 1-4-1-22m-324 26c-1 4 1 9 1 14-3 1-5 3-6 6v1c-1 3 2 6-1 8v2l-1-2v-6c0-3 1-6-1-9l2-33h1l6-6c-1 9-2 15-1 25" fill="#fff"/><path d="M823 524l-2 1 1 1v-1c-1 1-2 2-3 1l-6 1h-8c0-2 1-1 2-1l14-1 2-1-1-1 1 1m-21 3h-11v-2l11 1v1"/><path d="M469 534c2 0 5-1 6 1l-2 4c-2 0-2 3-3 2-4-3-4-7-7-10 0-1 1-3 3-2 3 0 1 4 3 5" fill="#ffd9c5"/><path d="M886 529c-8 10-4 22-10 32l-7 13h-1c6-8 9-18 11-28 0-6 2-13 6-17h1m-69 1l-1 3v-3h1m-441 1l15 14c-2 0-3-2-5-3-4-3-7-8-11-10v-1h1"/><path d="M633 550c1-1 3-2 2-5l6-1c3 1 1 4 1 6 3-1 5-2 6-4 3-1 3-6 7-7 3 0 5-2 8-3l-3-2c-7-5-14 0-22 0-5 1-6 6-8 9 2 0 3-2 4-3h3l-7 5 2 4 1 1" fill="#ffd9c5"/><path d="M631 551h-4l-1-1h-1a40 40 0 000 10l7-9h-1" fill="#a839a8"/><path d="M414 544c-3 1-6-1-8 1h-1c0-5 5-7 6-11 1 3 3 6 3 10m-25-8l2 2 4 4c-3 0-6-3-7-6h1" fill="#fff"/><path d="M540 550l-11-11 1-1c4 3 9 7 12 12v1l-2-1" fill="#c83d25"/><path d="M539 551l-1-2-9-9h-1l-1 2 13 10v2l1-2-2-1m-8 16l-4-6-2 1c0-2-2-3-1-4l-1-3c4 3 6 7 11 7l-2 6-1-1m-27 3c-6-4-12-7-16-13v-1h5l-1-2c-2 0-5 1-6-1l1-2c1 1 3 0 5 2l1-1c-1-2-4-1-5-2s-4-1-3-3c2-1 3 2 4 1-1-2-5-3-4-6h2c1 1 1 3 3 2 0-1-2-1-1-3l-2-1c4 0 5 3 8 5 4 1 5 6 9 7h12l1 4v14l-3-1c-1-2-2-5-1-7h-2c1 2-1 1-1 1l-4 5-2 2" fill="#ffd9c5"/><path d="M507 569l4-4c0 2 1 4 3 5l3 1 2-1-1-18h-1l1-1c5 1 3 7 5 10 1 1-2 1-2 3 1 1 3-1 4-1h2l3 4 1 3a9 9 0 000 2l-1 1-23-1-2-1 2-2" fill="#c83d25"/><path d="M722 546l1 4-2-1c-2-2-5-4-8-3l-1-5c2-2 3 1 4 2v1l2 2v-6c4-1 3 4 4 6m-12-2l1 2c-2 1-4 0-6-2 1-2 5-4 5 0" fill="#ffd9c5"/><path d="M865 573l-2 1c0-6-2-10-3-15l-1-16 1-1c-2 12 2 21 5 31"/><path d="M526 543l12 10v1h1l-5 7c-5-2-9-6-13-10l-2-1 2-2c4 3 8 8 13 9l2 1c2-5-5-5-7-8-1-3-9-5-3-7" fill="#c83d25"/><path d="M483 549l3 2-1 3c0 2 3 1 2 3 3 7 11 10 18 15 6 2 11 9 19 8-2 2-3 3-5 3-10-2-18-9-27-14-5-5-8-11-10-16-1-3 1-6 2-8 2 1-1 2-1 4" fill="#663d3d"/><path d="M641 545c0 2 1 5-1 5l-14 15c-3-4 2-6 4-9l6-7 1-4h4" fill="#c5c5c5"/><path d="M533 555l-11-7 1-2 10 9" fill="#ffd9c5"/><path d="M389 552c1 5-4 8-2 13-3-5-3-11-6-15 3-1 5 2 8 2" fill="#fff"/><path d="M427 562c-1 1-2-1-3-1l-15-11c6 5 13 7 18 12m-33-7c-1 7 2 12 3 19h-1c-2-6-4-14-2-20v-2 3m119-2l-6 6v-1c1-2 3-5 6-5"/><path d="M411 559c2 5 10 6 9 11 0 3 0 8-3 10-3-6-3-13-7-19l-4-7c3 1 3 4 5 5m-4 7c1 4 3 8 3 13-3-2 0-7-5-8l-2-1-2 2c-2-3 3-4 1-6l-2-5-1-2v-4c4 2 6 7 8 11" fill="#fff"/><path d="M506 560c-2 1-2-2-4-2l-6-1c2-2 5 0 8 0l2 3"/><path d="M861 574c-4-2-9 1-12 1l-1 1c0-5 2-10 4-15 2 5 6 8 9 13" fill="#fff"/><path d="M559 564l1 6h-1c-1 2-3 0-5 1v-1h-2v-6h7" fill="#663d3d"/><path d="M885 567c-1 2-5 3-7 4l-8 5 6-5 9-4"/><path d="M558 572c2 2 0 7 3 9l1 1h1c4 12-5 22-8 33l-1 1c-2-2-2-5-3-8l-6-20c0-2 1-5 3-7l4-3c3-2 0-4 0-6h6" fill="#c5c5c5"/><path d="M406 574l-2 3-2 1c-2-1-1-3-1-4 0-2 1-2 3-2l2 2" fill="#3f863f"/><path d="M521 574h8c0 3-3 5-5 5-6 1-9-4-14-6 3-1 6 2 7 0l4 1" fill="#ffd9c5"/><path d="M861 577c-3 7-7 16-15 18-2 1-5 3-7 2 2-5 2-13 8-16 0-2 2-4 4-5 3-1 8-2 10 1" fill="#ff350f"/><path d="M407 578l-1 1-1-1 2-1v1" fill="#fff"/><path d="M443 580c2 0 3 3 5 3 4 3 2 8 5 11l2 7c-2 3-3 6-2 9-5-9-9-18-15-26v1c6 9 8 18 14 27l-2 1 4 1c-1 2 1 4 2 5-1-3-7-3-8-8-2-1-4-3-6-2-8-6-6-14-12-21l1-10c4-2 8 3 12 2" fill="#ff350f"/><path d="M878 578l-4 7-2 4-3-9 9-2" fill="#fff"/><path d="M404 580v3c-1 1-2 2-3 1l2-2v-3l1 1" fill="#3f863f"/><path d="M612 580c-15 2-28 5-42 3-2 0-3 0-5-2 1-2 1 1 2 1 15 2 30-1 44-3l1 1"/><path d="M410 581l-1 3-3-1 1-3h1l2 1" fill="#3f863f"/><path d="M552 581l3 11c2-2 2-5 2-7l1-1c0 3 0 7-3 9l-1-1c0-4-3-8-2-12"/><path d="M711 587c0 4 2 8-1 12v0l-4 2c-4 1-7 5-11 4l1-1a111 111 0 009-11v-1l-11 11c-2 0-3-3-3-6 5-3 9-5 13-10l1-1h-2l-7 6-6 3c-3-1-5-3-6-6 5-3 10-5 14-9 5 0 9 4 13 7" fill="#a839a8"/><path d="M854 582l-2 1-9 10 3-4 8-8v1"/><path d="M429 589h-3c2-1 1-3 2-4l1-3v7m-19-2l-2-2h2v2" fill="#fff"/><path d="M407 587c0 2-3 2-3 4 0-1-2-3-1-5s4 0 4 1" fill="#3f863f"/><path d="M867 589v8l-2-15 2 7"/><path d="M411 592l-2 3-3-1v-2l2-5c2 1 3 3 3 5" fill="#3f863f"/><path d="M566 590c-2 2 5 5 1 6h-1 1l-4 2 2-9 1 1" fill="#fff"/><path d="M430 590c-2 1 1 3 0 4h-4l-2-2c1-2 4-3 6-2" fill="#3f863f"/><path d="M433 596c-2-1-1-3-2-4l2 4m175-2c-1 1-2 3-1 4l1 3-4-2c-4 0-8 1-12-2l15-3h1m-179 2l-1 1h-4v-3l5 2m75 47v-1l2 1c1 0 4 0 4-2l-2-3c-2 0-3 0-4 2l-3-2h-1l2-1-1-3c-1-2-3-1-4-1l-3-6c-3-4-8-3-11-7-5-1-12-3-16 2 2-3 4-7 3-11-2-3-2-7-5-9 0-3-2-5-4-7 13 11 24 24 38 34 9 6 18 13 28 18-7-3-14 1-20-2h-2l-1-1v-1" fill="#fff"/><path d="M503 644s-2 1-1 2l2-1-1-1" fill="#3f863f"/><path d="M584 595h-1 1" fill="#ffd9c5"/><path d="M411 596h-1l1-1v1" fill="#fff"/><path d="M433 598l-1 1h-1l1-1-2-1 1-1 2 2" fill="#3f863f"/><path d="M849 596l-4 9-1-1h1l-1-2c-2-1-3 1-4 2l-1 2v-7c4 0 7-2 10-3" fill="#fff"/><path d="M757 646l-1 1 1 3 3-2-2-1-1-1" fill="#3f863f"/><path d="M757 645l8-5h6c2-3 6-2 9-2 3 2 7 1 10 3 1 0 2 2 3 0-3-4-6-9-3-15l5-4c4-3 5-8 9-11l1 12c-1 7-5 12-8 18 1 1 2-1 3-2 2-5 6-10 7-16 1-2 2-5 1-7 5-3 4-10 10-12l12-8c-1 3 2 8-2 10 0 4 3 7-1 9 1 7-3 13-8 16l-12 5-8 5c0 1-4 1-2 2h3l-1 1 3-1h-1 1c1-4 5 0 7-1l6-2 3 4v1h1l3 1c-2 4-5 7-9 9l-5 1v-1h-7c-3-3-3-6-6-8-3 1-1 5-2 7 0 4-2 8-5 11-2 0-2 4-5 3-2-1-1-4-1-6v-1h-1c-3-2 1-2 1-4v-2l6-3-1-1h-1l-2 2c2-3 8-3 6-7-3 0-7 3-11 4-1-1-2 1-3 1-3-1-6-4-9-3l-4-1v1l-1 1h-1l1-1-3-3h-2" fill="#ff350f"/><path d="M577 599l1-2c1 1-1 0-1 2"/><path d="M428 598c1 2 2 2 1 4-1 1-4 2-6 0l-1-2 2-3 4 1m6 2h-1l1-1v1" fill="#3f863f"/><path d="M564 599l-1 5c1-2-2-3-1-5h2" fill="#c5c5c5"/><path d="M435 601c0 3 3 5 5 7l-6 1c-2-1-5-4-8-3l-1-2 6-2v-1h4" fill="#fff"/><path d="M824 607h1c-7 9-11 19-20 27v-1l5-6 9-14 8-12c1 2-2 4-3 6"/><path d="M708 602l-4 6-7 1-1-2 12-5" fill="#a839a8"/><path d="M858 603l3 1-2 3c-1 1-2 0-3-1l2-3m-3 1c-1 2 0 4-3 5-1-2 1-4 2-6l1 1m-13 0l2 3-2 2-1-5 1-1v1" fill="#3f863f"/><path d="M463 604c1 6 2 13 1 19l-1 1v-10c0-3-2-7-1-10h1m114 3l1-3v2l-1 1"/><path d="M546 608c-1 1-1 2-3 2h-1c1-2 4-3 3-5l1 3" fill="#c5c5c5"/><path d="M857 611c0-1-3-1-1-3l1 3m5-1l-1 3-2 1v-5l3 1m-11 3c-2 1-2 3-4 2 0-3 2-3 4-5v3m4 0h-1c-1-1 0-2 1-2v2" fill="#3f863f"/><path d="M656 614v1h-7l-6-2v-1c4 2 9 3 13 2"/><path d="M855 615l-2 2-2-1 1-2 3 1" fill="#3f863f"/><path d="M583 623l1 1-4 1c-3-1-3-4-4-6h2c1-1 0-2-1-3 3 2 3 6 6 7"/><path d="M582 618c2 0 4 0 5 2l1 1h5l2 2c1 1 2 0 4-1l-3-1v-1l-2-2h3l1 2h-1l3 2c-1 3-5 2-8 3-2 0-4-1-5-4-2 0-6 2-6-2l-1-2c2-1 1 1 2 1"/><path d="M852 618l-3 3v-4l3 1" fill="#3f863f"/><path d="M797 617l-4 4 4-4" fill="#fff"/><path d="M801 619c-3 4-5 10-6 15v5h-1c-2-8 3-15 7-22v2"/><path d="M581 623l-3-1v-3l3 4m4-3h-2 2m8 3h-3 3" fill="#c5c5c5"/><path d="M486 627l4 3-1 1c-5-4-12-6-19-6l-3 1c7-4 13-1 19 1"/><path d="M788 627c0 4-3 8 1 11v1l-11-2-7 1-1 2-4-1 22-14v2" fill="#fff"/><path d="M443 628l4 4c0 1-2 2-1 4l-8-8h5" fill="#3f863f"/><path d="M447 628v1l-3-2 3 1" fill="#fff"/><path d="M496 662h-1l-4-4 10-2c-2-2-4-1-6-1-10-1-19-1-28-3l1-6h1l10 1 1-1c-5-3-12-6-17-11l-1-2c-1-1-2-2-1-3s3-2 5-1c1 6 8 7 12 11l5 1 2 4h7l2 2c3 1 4-1 6-2 0 2 3 2 4 2h5c8 1 16-1 23 3h2c10 5 20 10 30 13v2c12 6 20 17 27 26 0 2 0 4 2 4l2-2 1 1c4 5 10 5 15 7h-13l-7 2-1 1h-1l1 1c-2 0-1-2-2-3l-3-4c-1 1 1 2 1 2l-3-1c-2 2-3-1-5 0-1-2-1-3-3-3-4 0-9-2-12-1-3 2-4-2-6-3l-5-3 1-1h2c2-2 3 3 5 1l2 1c6 1 14 1 18 5l2 3c1-2-1-4-2-6-3-3-5-7-9-7l-1-3 2-1h-1l2-2c1-4-5-4-6-7-4 0-7-3-10 0l-3-2c-4-3-10-3-10-8l-9-6c-3-2-6-3-8-6-2 0-3 1-4 3v8l-2-2c-7 0-15-2-21 3v-1h-3l-1 1" fill="#3f863f"/><path d="M497 666l2-1v-1l-2-1 1-1h1l-1 1 4-2c5-3 12-1 18 0l2 1c-2 3 2 3 2 6-1 4 3 5 4 8l-6-4c-4-4-8-5-13-7-3-2-4 2-7 1h-5" fill="#fff"/><path d="M496 667h-1c-1 2 0 6 2 9 2-1 2 1 3 1 2 4 7 6 11 8 1 3 5 0 7 1 7-3 17-3 23 1 2 1 4 1 5 3h-2c-6-3-13-6-19-5l-11 2c5 6 13 10 21 9 2 0 4-3 6-4 4 3 3 7 6 10h-1c5 3 11 5 16 5 3 1 0-2 1-4-1-8-9-10-14-14-1-1 0-1 1-1 2 0 4-2 6-1 3 3 6-3 10-1 2-2 2-6 6-6 1-5-4-4-6-7l-6-1-5 2c-2 3-6 6-6 11l-1-1-2-3v-1a112 112 0 00-3-15c-3-8-12-8-17-14-2 2-2 4-2 7 2 3-3 5 0 7 0 6 6 7 6 12h-4c-5-6-11-8-18-12-1 1-2 0-3 2h-9" fill="#ff350f"/><path d="M467 645c0-4-1-7-4-9l5 4c2 3 6 3 9 6l-8-1h-2m20-7c-1 0-3 0-3 2-6-1-10-5-15-8l-1-3c6 2 9 9 15 8 3-1 5 0 7-2l-1 3h-2" fill="#fff"/><path d="M487 639l-3 1 1 1c1 1-1 1-1 1l2 2c2 1 4 2 6 0 1-2-2-3-3-5h-2" fill="#3f863f"/><path d="M823 632l-2-1 2-2v3" fill="#fff"/><path d="M455 632l6 15c-2 0-2-2-3-3-1-4-4-8-3-13v1"/><path d="M823 634c-1 1 0 4-3 5h-2v-5c2 0 2-2 4-1l1 1" fill="#3f863f"/><path d="M817 633l-1 5 2 2h3l-2 3c-1-2-3-6-6-4-2 1-4 2-6 1h-3c3-4 9-4 13-7m-321 1l-1 1-1-1h2" fill="#fff"/><path d="M500 634l-1 1 2 2h-3v-3h2m-5 2c0 1 2 2 1 3-1 2-2 2-3 2-1-2-4-3-2-5l3-1 1 1m3 3v-1 1m5 1l-1 2h-4c0-2 1-2 2-3s2 0 3 1m6 1l-3 1v-3c2 1 3 0 3 2m-12 2l3 1-6 2v-2l2-1h-3v-1l4-2v3" fill="#3f863f"/><path d="M790 642v1c-7 0-13-1-21 2l-3-1c8-2 16-3 24-2"/><path d="M751 652l-2 3c1 1 1 2 3 2 1-1 3-2 3-4l-3-2-1 1" fill="#3f863f"/><path d="M750 651l-2 2v2l-12 3c-3 1-6 2-10 1l19-8 9-5c0 2 0 4 2 5h3l1 3-4-1c0-1-1-3-3-3l-3 1" fill="#fff"/><path d="M790 647l-4 2-5 5-21 6c1-1 1-5 4-3l26-10" fill="#3f863f"/><path d="M807 649l7-1v1l-6 1h-1c-2 1-4-1-6-2 2 0 4 2 6 1"/><path d="M774 652c-4 1-8 4-13 4v-1h3c1-1 2-2 1-4l-2-2 7 1 4 2m25 2v1c1 1 2 2 3 1l8 1v-1l1 1c-2 0-3 3-5 2-1 1-3-1-4 1-3 1-6 2-9 1 3-3 2-8 2-12l4 5" fill="#fff"/><path d="M764 652c1 1-1 1-1 2l-3-2 1-2c2 0 2 1 3 2" fill="#3f863f"/><path d="M792 652c-3 4-3 8-5 13v-2c1-4 1-8 4-11h1"/><path d="M494 656l-7 2-2-2-6 1c-2 1-2 3-2 5 2 1 3 3 6 2 2-1 1 2 3 2v3l-10-6-4-1-7-7 2-1v-1c9 3 18 3 27 3" fill="#fff"/><path d="M760 656l-1 1h1l-2 2h-1l-1-2 1-2 1-1 2 2" fill="#3f863f"/><path d="M781 656c-1 1-3 2-2 5l-20 1v-1l17-4 5-1m-16 21l-1 1 1-3-3-3c-1 1-3-2-4 0l-2-2c9 0 17 1 26-1 1 0 2 2 4 1 3-2 7-1 11-3h1l-13 7-3-2-1 2 1 2-3-2h-4v1c0-2-2-3-3-3h-3l-3 4" fill="#fff"/><path d="M777 674l-2 3 1 3 4-2c2-2-2-2-2-4h-1m-12 4l-1 4 3 1c3-2 0-4-1-5h-1m-10-6l2 1-2 3-3-1v-1-2l1-2h1l1 2m-270-14l-2 5c-2 0-4 0-5-2l2-3h5m5 1v2c1-1 2 0 3 1 1 2-1 3-3 4h-2v-1c-1 1-2 0-3-1l2-4a6 6 0 013-1m316 1c-5 5-10 7-16 7l-3 1 5-5c5 0 9-1 13-3h1" fill="#3f863f"/><path d="M755 662h4c-2-1-4 1-5-1l1 1" fill="#fff"/><path d="M531 663c5 6 12 11 14 18 1 1 0 1-1 1-3-8-9-13-14-19h1"/><path d="M497 665l-1 1-2-1 1-2 2 2" fill="#3f863f"/><path d="M709 703l2 1a156 156 0 014 3l-12 3c2-2 3-6 6-8v1m-65 4c3 0 6 1 8 3l-2 3 2 4c-3 2-5 0-8 0l-6-8 6-2" fill="#fff"/><path d="M692 700c-1 0-9 10-8 14l12-1c8-1 8-10 13-13l1 1v1l7 4h3v1c4 1 8-2 12-2l6-2c1-1 3-2 2-4-4-2-8-4-12-4-6-2-12-1-18 1 0 0-2 0-2-2 9-4 18-12 17-24l-1-6-3 1c-6 4-12 9-15 16v13h-3l-1 1-1-1h1c-5-4-10-3-15-4v-1c5 0 11 0 15 3l-1-6-8-5-15 7c2 2 4 2 5 5 3 4 8 1 12 3 1 1 0 0-1 1h-1l-1 3" fill="#ff350f"/><path d="M692 697c-10-1-17 8-27 7l-1 1-5-1-4-2c3 1 0-3 2-4l4-1c11-4 20-14 32-17 4-2 9-5 14-5 4-3 6-7 10-9l3-1 5-3c2 2 0 5 1 7l2-1h18l4 3 3-2 3-1c9 1 17 1 25-1v1c-2-2 0-4-1-5h-17l-5 1c-2-1-5 0-6-3 0-2 3-1 3-1v-4l-2 2c-2 0-2 2-3 0h-1l-1-2-19 5h-5l-1-1-5 2c-3 0-5 3-8 3l-3 1-14 4-6 2-1 1v-1c0 2-2 1-2 3l-17 10c-8 2-12 8-18 12-3 3-7 4-10 5l-6 3c2 0 3 1 5 3l6-2c3-1 6 0 8 2l6 2v2h1v-1l1-2h2l1-1 1-1c2 1 2 3 2 4 1-3 4-2 6-5 6-1 10-5 16-6 1 0 2 1 3-1l1-2" fill="#3f863f"/><path d="M662 710h-2v3l2 1c2 0 2-1 3-2l-1-3h-1l-1 1" fill="#3f863f"/><path d="M596 671c15 2 32 5 49 4l39-3c-2 0-3 4-6 4-5 3-9 7-15 9v-1l-2-2-5 3-1 1 1-3c1-2 3-6 1-8-6 2-14 2-18 6-4 0-4 5-8 6v-3c-3-3-3-9-8-8l-5 2c-4 2-5 5-5 9-2-4-6-6-9-9-2 0-4-2-5-1v-1h-1c-1-2-5 0-7-1-2 1-4-1-6 1l5 13c-6-10-14-19-24-26 10 4 19 5 30 8" fill="#fff"/><path d="M494 667l1 8-3-2 2-3-1-3h-1v4h-2l-2-2v-2h1c1 1 4-3 5 0" fill="#3f863f"/><path d="M556 672c-4 2-5 5-7 7l-1 3c-2-3 0-8-2-12l-1-3 11 5m175-3h13l5 6h-7c-7 0-13 6-20 10 3-5 5-9 4-15 2-1 4 0 5-2v1" fill="#fff"/><path d="M721 671l-3 2c-4 4-6 10-7 15l-1 4h-1c-1-2 2-5 2-7 1-5 3-9 6-13 1 0 2-2 4-1m-202 7l8 2c-8 0-14-5-21-5l-4-1h-3c-1-2-4-1-3-3 7 5 16 2 23 7"/><path d="M750 674l-3-3c1 1 3 1 3 3m10-1l3 2c0 2-1 3-3 2h-2c0-1 0-4 2-4m11 1l1-1c1 1 2 2 1 3 0 2-2 3-4 3l-1-3 2-3 1 1m13 3h-1v-3c1 1 2 2 1 3" fill="#3f863f"/><path d="M705 693h-2c0-3 1-5-1-7-2-3-6-4-9-5l6-3 4-1 5-2c-6 5-2 11-3 18" fill="#fff"/><path d="M610 685v1l3 3c-1 5 2 9 5 12l-1-3c-4-4-4-11-2-16 3-2 6-5 10-5 2 3 6 6 5 10l-3 5h1l-1 1c2 1 2-1 3-2 0-4 5-2 5-6l7-4 14-4c0 6-5 11-7 17-4 8-14 7-22 7l-2 3c1 0 3-1 5 1a27 27 0 015 2c4 3 4 7 8 10h-1l1 2-17-1c-3-1-4-4-6-7-3 1-3 6-6 6h-9c-2-1-4 0-5-2-2 1-3 0-5-1l2-4c3-3 7-3 11-3l1-1-1 1 4-2 1-4h2l1-1c-6-7-12-17-21-22l-6-2h4c4 0 6 2 9 3l8 6m141-8c1 2 4 0 6 1 0 2 2 2 4 2h1v-1l1 1c-5 5-10 11-17 12-5 4-11 2-16 1-1 2-3 0-5 0-5-1-10 0-14 2l16-11c6-4 11-9 19-8l5 1" fill="#ff350f"/><path d="M594 679l1 1h2c7 5 11 13 17 20l-11-3h-1l-6-4-2-1-7-16 7 3" fill="#ff350f"/><path d="M566 678h-9l-6 4c3-4 10-7 15-4m-34 2l3 1 13 5c-7-1-13-3-19-7v-1c1-1 2 1 3 2"/><path d="M760 679h-1v-1l1 1" fill="#3f863f"/><path d="M775 681l-3-1c-2 1-2 3-2 4l-12 6-18 7-4-1c10 0 20-5 27-14l4 2c1-1 2-1 2-3s3 0 4-2l2 2" fill="#fff"/><path d="M774 683c1 1-1 2-2 3v-3l1-1 1 1" fill="#3f863f"/><path d="M753 683l-1 1c-9-2-18 0-26 4l-3 2c2-4 7-4 11-6 7-1 13-2 19-1"/><path d="M571 687c4-1 5 3 7 4-3 0-7-2-10-1l-1-1c-1 1-4 0-5-1h-1c3-1 7-1 8-5l2 4" fill="#fff"/><path d="M662 685c0 2-3 1-3 3v-1c0-1-3-2-1-3 1-1 3 0 4 1" fill="#3f863f"/><path d="M620 684v17-6l-1-11h1"/><path d="M658 688l-4 3-1-2 1-1h-1l3-2 2 2" fill="#3f863f"/><path d="M530 691h11l-1 1c-4-3-10 3-14-3h1l3 2"/><path d="M685 695l1 1c-6 1-11 6-18 6l1-2-2-2 2 1c0-2-2-2-3-2-1-1-2 1-3 1l-1-1c5-1 10-5 15-8 4 1 5 5 8 6m-92-2l-2-3 3 3h-1m60-1l-3 3 2-4s2 0 1 1" fill="#fff"/><path d="M548 691c4 4 4 9 8 12-1 1-2-1-3-2l-5-9v-1m87 1l-5 5-4 2 9-7"/><path d="M543 697l1 3c-2-1-5-1-6-3l3-3 2 3m30 0c-1-1-3 0-4 2-1 1-3 2-2 4l-1 4 3 2c2 0 3 0 4-2l2 4h3l3-1v1h4c3-1 2-6 5-6l13-3c2-1 6 2 8 0v2c-2 0-4 0-6 2l-3 1-1-1c0 2-1 0-3 1l-4 5v3l2 1-14-2-17-5-1-1c2-1 0-2 1-3 0-3-2-6-3-8h11" fill="#fff"/><path d="M660 698c1 1 3 2 2 4-2 1-3 2-4 1v-4l2-1v-1 1m-84 1l-1 1v-2l1 1m-2 1c-2 0-4 0-6 2l3-4 3 2m94 1c-1 1-3 2-4 1v-3c1-2 2 1 4 1v1" fill="#3f863f"/><path d="M721 700h2v1h1l-12-2c3 0 6 2 9 1"/><path d="M582 702v4l-3-4-3 1v-2l2-1 4 2" fill="#3f863f"/><path d="M705 700l-17 11v-1l7-4v-1l5-3 4-2h1"/><path d="M586 704c0 1 1 4-1 5h-3c0-2 3-4 1-7l-1-1c2-1 4 1 4 3" fill="#3f863f"/><path d="M687 704c-3 3-4 7-5 11v1l-5 1h-3v-2c2 1 3-2 5-1 1-2 4-3 4-5s-1-3-2-3h-3l6-4h2l4-1-3 3" fill="#fff"/><path d="M574 703c1 1-3 3-1 4l-3 1-2-2c-1-2 1-3 2-4 1 0 4-1 4 1" fill="#3f863f"/><path d="M635 702c-3 2-5 1-7 1l6-1h1" fill="#fff"/><path d="M664 703h-2l1-1 1 1m-84 3c0 2 1 3-2 4-1 1-2-1-3-1v-4l2-2 3 3" fill="#3f863f"/><path d="M616 706c0 2-3 3-5 4s-3 3-6 2l11-6"/><path d="M674 709l-2-1c0 2 2 2 3 3v2l-3 3-3 1c0-1 2 0 3-2 1-1 0-2-1-3-1 2 0 3-2 4h-2l1-2h3l-3-2-1 1c-1-1 0-3 2-3s4 1 5 3v-2l-3-2 4-2s-2 1-1 2" fill="#3f863f"/><path d="M634 716v1l-5-4-7-6 12 9"/><path d="M681 710l-1-3 1 1v2m-1-1c1 1-1 2-2 3h-1l-2-3 1-1 1 1 2-2 1 2m-23 2c1 3-3 2-4 3l-1 1c-2-1 0-2 0-3l5-1m9 2v-1 1m-7 2c1 2-3 2-4 3l-2-1h2l-2-1c1-2 3-1 5-3l1 2m7-1l-1 2 1 1h1-4v-2l3-1m-4 2v1l-2-1 1-1 1 1" fill="#3f863f"/><path d="M671 399l3-14 2-16-2-4-11-17-5 12v4c2 1 5-1 6 3 1 2 0 5 2 7 0 3-2 5-1 8 4 3 6 8 5 12l-1 3 2 2" fill="#fff"/><path d="M775 561c2 5 3 11 1 16 0 2 3 3 1 5-8 1-12 10-20 8-9-1-19 3-25-6-4-2-10 0-14 2a12 12 0 000-1l2-1a47 47 0 016-2c4 1 6-2 10-1 3 4 8 2 10 6l1-1-2-1c5-1 11 2 16 0 3-2 8-2 10-6l3-5h-1l1-1c0-2 1-4-1-5 1 2-1 5-1 7 0 6-7 6-11 9-5 2-9 0-14-1h1c0-4-5-4-7-6l1-2c4-1 9 2 12 0l2 3h-1v1c5-1-1-4 0-7l5-5 4 1 6 5c-1-3-3-5-5-6 2-2 5 0 8-1l1-4 1-1" fill="#4f4036"/><path d="M774 560l-7-9c-2-1-2 2-3 2-2-1 2-2 0-3-5 1-8-2-11-5-7 3-13-5-20-2-2 3-1 8-2 11l-9 2-1-1-5 2c-3 3-2 8-2 12 0 5 3 10 4 15l2-1c3-2 9-2 13-3 4-2 6 4 10 4 1 1 2-1 3-2l-3-2-2-2-1-4c3-2 6 1 9 0h5c-1-3 3-5 5-7s5 0 6-2h7l1-2 1-3" fill="#ffd9c5"/><path d="M741 558l5 2c0 2-1 3 1 4 2 0 4-1 5 1 1 1 0 5 2 5l-2 1c-1-1-5 0-6-3-4-1-2-8-7-6-5-3-3-8-5-12l1-2c2 3 3 8 6 10m-10 6c-6 0-12-2-16-3v-1l16 4m-8-10l-1 2m-31-20l-1 1 1 1m-15 4c1 2 1 3 3 3h-2c-2-1-2-4-2-5 2 0 1 2 1 2m-19 7l-3 3c-3 3-7 5-7 9v8c0-5-2-12 4-16 1-1 3-4 6-4m47 5h-2v-1l2 1m-27 6l-1 2c-2 3-1 7 1 10l4 3c1 2 5 1 4 3l-3-1c-4-2-7-5-8-9-1-3 0-7 2-9l1 1m-47 6v1-1"/><path d="M694 574c5 0 10 1 14 4 2 2 5 2 4 5-6-8-17-8-26-8l-2 1v-2h5v-1l5 1"/><path d="M917 479l1-8-6 6c3 1 4 3 4 5l1-3" fill="#fff"/><path d="M914 499h-4l-5 4c2 1 0 4 3 5 1 0 0 2 2 1l2-6h-4v1h-1l2-3c2-1 3 2 4 1l1-3" fill="#3f863f"/><path d="M547 233c0-1 0-3-3-2v-1l9-5 1 1c-2 1-2 3-2 4l2 33-4-2-24-18c-1-1-2-2-4-1l-1-2 13-7 1 1c-2 1-1 2 0 3l12 10v-14m36 7c0 2 1 3 3 3l1 1-13 4v-2c2-1 2-2 1-3l-6-19c-1-1-1-2-3-2l-1-2 12-3 1 2c-2 1-2 2-1 3l6 18m35-7l3 1 4 1-11 2-9-8h-3l1 7c0 2 0 3 2 3v1l-10 2-1-2c2-1 2-2 2-3l-3-19c0-2-1-3-2-3l-1-1 9-3c5-1 12 1 13 6 1 4 3 6-3 9l9 7zm-14-9c3-1 2-3 2-7l-5-2-3 1 2 9 4-1m43 1c0-1 0-3-2-3v-2l11 1v1c-2 1-2 2-2 4v7c0 1-1 2 1 2v2h-8c-17-1-21-10-21-17s7-15 16-14c5 0 11 3 14 7l-6 4-1-1 1-2-7-4c-7 0-9 5-9 10 0 7 2 11 10 12l3-1v-6m27 9c0 2-1 3 2 4v1l-13-1v-2c3 0 3-1 3-3l3-18c0-2 0-3-2-4v-1l13 1v2c-3 0-3 1-3 3l-3 18m22-9l-5 14c0 2-1 3 2 4l-1 1-10-3v-1c3 0 3-1 4-3l6-18c1-1 1-2-1-3v-2l10 4 7 17 4-10c1-2 1-3-1-4v-1l11 3-1 1c-2 0-3 1-3 2l-7 19c0 1-1 2 2 3l-1 2-10-3v-2c3 1 3 0 4-2l-1 2-9-20m33 27c-1 1-1 3 1 4l-1 1-12-4 1-1c2 0 3-1 4-3l7-17c1-2 2-3-1-4l1-2 12 5-1 1c-2-1-3 0-3 2l-8 18m33 24c-1 1-1 2 1 3l-1 1-10-9 1-1c3 1 3 0 3-2l1-6-7-4-5 3c-2 1-2 2 0 4l-1 1-12-7 1-1c2 1 4 0 5-1l27-16 1 1-4 34zm-4-17l3-10-9 6 6 4M463 567l-1 2a4 4 0 00-1 0c-2 2-2 5-1 6s3 2 6 0c5-4-5-9 2-15 4-4 8-2 10 0 1 2 2 5 0 9h-4v-1l1-1c2-1 1-4 0-5s-2-2-4-1c-4 4 5 10-3 17-4 3-8 2-10-1-3-3-2-6 0-10h5" fill="#a85f39"/><path d="M463 567l-1 2a4 4 0 00-1 0c-2 2-2 5-1 6s3 2 6 0c5-4-5-9 2-15 4-4 8-2 10 0 1 2 2 5 0 9h-4v-1l1-1c2-1 1-4 0-5s-2-2-4-1c-4 4 5 10-3 17-4 3-8 2-10-1-3-3-2-6 0-10h5z" fill="none" stroke="#a85f39" stroke-width="1.1"/><path d="M472 587c-1 1-2 2-1 3l-1 1-5-5 1-1c1 1 2 0 3-1l12-12c2-1 2-1 2-3l5 5-1 1c-1-1-2 0-3 1l-12 11" fill="#a85f39"/><path d="M472 587c-1 1-2 2-1 3l-1 1-5-5 1-1c1 1 2 0 3-1l12-12c2-1 2-1 2-3h0l5 5-1 1c-1-1-2 0-3 1l-12 11z" fill="none" stroke="#a85f39" stroke-width="1.1"/><path d="M497 594v-2h2c1-2 1-5-1-6-3-3-8-2-11 1-4 4-5 11-1 15 1 1 3 2 4 1l1 1-3 3c-2 0-3-2-4-3-8-8-4-16 0-20 5-5 12-5 17 0 2 2 3 6 2 10h-6" fill="#a85f39"/><path d="M497 594v-2h2c1-2 1-5-1-6-3-3-8-2-11 1-4 4-5 11-1 15 1 1 3 2 4 1l1 1-3 3c-2 0-3-2-4-3-8-8-4-16 0-20 5-5 12-5 17 0 2 2 3 6 2 10h-6z" fill="none" stroke="#a85f39" stroke-width="1.1"/><path d="M521 631l2-2 8-15v-3l1-1 15 8-2 4h-2c1-2 1-3-1-3l-7-4-3 6 5 2h3l2 1-3 6-2-1c1-2 0-2-1-3l-5-2-5 8 8 4c1 1 2 1 3-1l2 1-3 5-16-9 1-1" fill="#a85f39"/><path d="M521 631l2-2 8-15v-3l1-1 15 8-2 4h-2c1-2 1-3-1-3l-7-4-3 6 5 2h3l2 1-3 6-2-1c1-2 0-2-1-3l-5-2-5 8 8 4c1 1 2 1 3-1l2 1-3 5-16-9 1-1h0z" fill="none" stroke="#a85f39" stroke-width="1.1"/><path d="M564 626l7 3-1 1-2 2-5 17 1 3-1 1-6-3v-1l2-1 5-17-10 12-2-1 2-16-9 16v3l-6-2 1-1 2-2 9-16v-2l1-1 6 3-2 12 8-10" fill="#a85f39"/><path d="M564 626l7 3-1 1-2 2-5 17 1 3-1 1-6-3v-1l2-1 5-17h0l-10 12-2-1 2-16h0l-9 16v3l-6-2 1-1 2-2 9-16v-2l1-1 6 3-2 12 8-10h0z" fill="none" stroke="#a85f39" stroke-width="1.1"/><path d="M576 649l-1 3 1 3v2l-7-2v-2c1 1 2 0 2-2l5-16-1-3v-2l10 3c6 2 7 5 6 9-1 6-7 7-12 7h-3zm1-2c3-1 9-1 10-5 1-3-1-6-4-6l-3-1-3 12" fill="#a85f39"/><path d="M576 649l-1 3 1 3v2l-7-2v-2c1 1 2 0 2-2l5-16-1-3v-2l10 3c6 2 7 5 6 9-1 6-7 7-12 7h-3zm1-2c3-1 9-1 10-5 1-3-1-6-4-6l-3-1-3 12z" fill="none" stroke="#a85f39" stroke-width="1.1"/><path d="M591 660l2-2 2-17c1-2 1-3-1-3l1-1 17 2-1 5h-1c-1-2-1-2-3-2l-7-2-1 7 5 1c1 0 3 0 3-2l2 1-1 6h-2c0-2-1-2-2-2l-6-1-1 9 8 2c2 0 3 0 3-2h2l-1 5-18-2v-2" fill="#a85f39"/><path d="M591 660l2-2 2-17c1-2 1-3-1-3l1-1 17 2-1 5h-1c-1-2-1-2-3-2l-7-2-1 7 5 1c1 0 3 0 3-2l2 1-1 6h-2c0-2-1-2-2-2l-6-1-1 9 8 2c2 0 3 0 3-2h2l-1 5-18-2v-2 0z" fill="none" stroke="#a85f39" stroke-width="1.1"/><path d="M631 662l6 4-9-1-8-11h-1v7l1 3v1l-7-1v-1l2-3v-17l-1-2v-2l12 1c3 0 7 2 7 7-1 3-3 7-7 7l5 8zm-8-11c3 0 5-1 5-4s-2-4-4-4h-4l-1 8h4" fill="#a85f39"/><path d="M631 662l6 4-9-1-8-11h-1v7l1 3v1l-7-1v-1l2-3v-17l-1-2v-2l12 1c3 0 7 2 7 7-1 3-3 7-7 7l5 8zm-8-11c3 0 5-1 5-4s-2-4-4-4h-4l-1 8h4z" fill="none" stroke="#a85f39" stroke-width="1.1"/><path d="M667 639l1 5h-2c0-2-1-2-2-2h-4l1 18 1 3 1 2h-8v-1c2-1 2-2 2-3l-1-18h-4c-1 0-2 0-2 2h-1l-1-5 19-1" fill="#a85f39"/><path d="M667 639l1 5h-2c0-2-1-2-2-2h-4l1 18 1 3 1 2h-8v-1c2-1 2-2 2-3l-1-18h-4c-1 0-2 0-2 2h-1l-1-5 19-1z" fill="none" stroke="#a85f39" stroke-width="1.1"/><path d="M672 643c-1-1-2-3-3-2l-1-2 8-1v1 2l5 7 2-8c0-1 1-3-1-3l-1-1 7-1v1l-1 3-3 12 1 6 2 3v1l-6 1-1-1c2 0 1-1 1-3l-1-6-8-9" fill="#a85f39"/><path d="M672 643c-1-1-2-3-3-2l-1-2 8-1v1 2l5 7 2-8c0-1 1-3-1-3l-1-1 7-1v1l-1 3-3 12 1 6 2 3v1l-6 1-1-1c2 0 1-1 1-3l-1-6-8-9z" fill="none" stroke="#a85f39" stroke-width="1.1"/><path d="M737 639l2 2 1 1-7 2-1-1c2-1 1-2 0-3l-3-4-8 3 1 5c0 2 0 3 1 2l1 2-6 2-1-1c2-1 1-2 1-4l1-22v-3l2 2 16 17zm-10-5l-6-7v9l6-2" fill="#a85f39"/><path d="M737 639l2 2 1 1-7 2-1-1c2-1 1-2 0-3l-3-4-8 3 1 5c0 2 0 3 1 2l1 2-6 2-1-1c2-1 1-2 1-4l1-22v-3l2 2 16 17zm-10-5l-6-7v9l6-2z" fill="none" stroke="#a85f39" stroke-width="1.1"/><path d="M763 613l5 8c1 2 2 2 3 2l1 1-5 3-1-1c1-1 0-1-1-3l-10-13c-1-1-1-2-3-2v-1l4-3 17 6-6-9c-1-1-1-2-3-2v-1l4-3 1 1c-1 1 0 2 1 3l10 13c1 2 2 2 3 2l1 1-5 3-1-1c1-1 0-2-1-3l1 2-15-3" fill="#a85f39"/><path d="M763 613l5 8c1 2 2 2 3 2l1 1-5 3-1-1c1-1 0-1-1-3l-10-13c-1-1-1-2-3-2v-1l4-3 17 6-6-9c-1-1-1-2-3-2v-1l4-3 1 1c-1 1 0 2 1 3l10 13c1 2 2 2 3 2l1 1-5 3-1-1c1-1 0-2-1-3l1 2-15-3z" fill="none" stroke="#a85f39" stroke-width="1.1"/><path d="M790 605c1 1 2 2 3 1l1 1-6 5v-1c1-1 0-2-1-3l-11-14c-1-1-1-2-2-1l-1-1 5-4 1 1c-1 1 0 2 1 3l10 13" fill="#a85f39"/><path d="M790 605c1 1 2 2 3 1l1 1-6 5v-1c1-1 0-2-1-3l-11-14c-1-1-1-2-2-1l-1-1 5-4 1 1c-1 1 0 2 1 3l10 13z" fill="none" stroke="#a85f39" stroke-width="1.1"/><path d="M512 615v2l-2 1c-1 2 0 4 1 5s3 2 5 0c5-5-6-9 1-16 3-4 7-3 9-1s3 5 2 9h-5v-1h1c2-2 1-4 0-5s-3-2-4 0c-4 3 6 8-1 16-4 4-8 3-11 1-2-3-2-6 0-10l4-1" fill="#a85f39"/><path d="M512 615v2l-2 1c-1 2 0 4 1 5s3 2 5 0c5-5-6-9 1-16 3-4 7-3 9-1s3 5 2 9h-5v-1h1c2-2 1-4 0-5s-3-2-4 0c-4 3 6 8-1 16-4 4-8 3-11 1-2-3-2-6 0-10l4-1z" fill="none" stroke="#a85f39" stroke-width="1.1"/><path d="M794 594h1l1 2c2 2 4 1 5 0 2-1 3-3 1-5-5-5-10 5-16-3-4-4-2-7 0-9s5-2 9-1v5l-1-1a3 3 0 00-1 0c-1-2-4-1-5-1-1 1-2 3 0 5 3 4 9-6 16 2 4 4 2 9-1 11-2 2-5 2-10-1l1-4" fill="#a85f39"/><path d="M794 594h1l1 2c2 2 4 1 5 0 2-1 3-3 1-5-5-5-10 5-16-3-4-4-2-7 0-9s5-2 9-1v5l-1-1a3 3 0 00-1 0c-1-2-4-1-5-1-1 1-2 3 0 5 3 4 9-6 16 2 4 4 2 9-1 11-2 2-5 2-10-1l1-4z" fill="none" stroke="#a85f39" stroke-width="1.1"/><path d="M740 626l4 9c1 1 1 2 3 2v1l-5 3-1-2v-3l-8-14c-1-2-1-3-3-2v-1l5-3 15 9-4-11-2-2-1-1 5-3 1 1v4l8 14c1 2 1 3 3 2v1l-5 3v-1c1-1 0-2-1-3l1 2-15-5" fill="#a85f39"/><path d="M740 626l4 9c1 1 1 2 3 2v1l-5 3-1-2v-3l-8-14c-1-2-1-3-3-2v-1l5-3 15 9-4-11-2-2-1-1 5-3 1 1v4l8 14c1 2 1 3 3 2v1l-5 3v-1c1-1 0-2-1-3l1 2-15-5z" fill="none" stroke="#a85f39" stroke-width="1.1"/><path d="M715 648l6 1-8 3-12-7h-1l3 7 2 2 1 1-7 3v-2-3l-6-15c-1-2-1-3-3-2v-2l10-4c4-1 8-1 10 4 1 3 0 7-3 9l8 5zm-12-7c2-1 4-3 3-5-1-3-4-3-6-2l-4 1 3 8 4-2" fill="#a85f39"/><path d="M715 648l6 1-8 3-12-7h-1l3 7 2 2 1 1-7 3v-2-3l-6-15c-1-2-1-3-3-2v-2l10-4c4-1 8-1 10 4 1 3 0 7-3 9l8 5zm-12-7c2-1 4-3 3-5-1-3-4-3-6-2l-4 1 3 8 4-2z" fill="none" stroke="#a85f39" stroke-width="1.1"/><g fill="#00788c"><path d="M643 159v3l1-1 1-3c1-2-1-1-2 1zm4 1l-1 5 3-1c2-1 3-1 1-1s-4-1-3-2h5c0-2-2-3-3-3s-2 0-2 2zm-6 4c-1 2-1 3 1 3l2-2c0-1-2-2-3-1zm-65 2c-1 1-1 2 1 2 1 0 2-1 0-2h-1zm68 2l1 1v-1h-1zm-77 3l-1 2h4c2-1 2-1 1-2-1-2-3-2-4 0zm75 0c-1 1 1 2 2 1 1 0 1-2-1-2l-1 1zm82 2v3h2v-4l-2 1zm7 0v2l2-1c0-2-2-2-2-1zm-159 2l-1 1h-1v1c2 1 5-1 5-3-1-1-2-1-3 1zm163 1c-1 1-1 1 1 2l2-1-1-1h-2zm-14 2l2 3v-1l-2-2zm6 0v2h2v-2h-2zm6 1l2 1v1l1 2 1-2-1-1-3-1c-2-1-2-1 0 0zm-1 2v2c1 1 1 2 2 1v-2l-2-1zm6 1v1c0 2 3 4 5 2 1-1-1-4-3-4l-2 1zm-8 1v0l-1-1 1 1zm5 4c0 2 1 3 2 2v-2c-1-2-2-2-2 0zm-272 37v2h1l2-1 1-1h-4zm12 1l-2 2v1c2 0 5-1 4-2l-2-1zm-23 1c-2 1-1 2 1 2 3 0 4 0 3-2h-4zm6 1v2l-1 1h-2v2c1 0 4-1 5-3v-1l-1-2c-1-1-1-1-1 1zm6 1c-2 2-2 2 0 2s3-2 2-2h-2zm8 1c-1 0 0 0 0 0v-1 1zm338 1c-2 1-2 2 0 3h2v-4l-2 1zm6 1c-1 1-1 3 1 4 3 1 5-2 2-3l-3-1zm-324 3v3c-2 0-2 2 0 2s4-2 4-3l-3-2h-1zm331 1v3c2 1 2 1 2-1s-1-4-2-2zm-337 1v1c1 0 1 1 0 0-2 0-3 2-2 3 0 1 2 1 4-1l1-2-1-1h-2zm16 0c-2 1-2 1 0 1 1 0 3 0 2-1h-2zm306 0l-1 1c-1 1 0 3 1 3 2 0 2 0 2-2s0-3-2-3v1zm7 2c0 2 2 4 3 3 1 0 1-3-1-4l-2 1zm13 0l-1 4a2 2 0 004 1v-5h-3zm-331 2c-2 0-2 2-1 2 1 1 4-1 4-2l-2-1-1 1zm-9 3c-1 1-1 1 2 2l2-1v-2l-4 1zm393 55c0 2 1 3 1 1l-1-2v1zm1 4v2l3-1-1-1h-2zm-455 4v2 1h2l2-1c0-2-2-4-4-4v2zm-4 0l2 2v-1-1l-1-1-1 1zm461 0v2l2 1c2 0 2 0 1-2s-2-2-3-1zm-460 4v3l1-3h-1zm462 1c-2 1-1 1 1 1h1l-1 2-1 1c1 1 3 0 3-1l-1-2-2-1zm-458 1l-1 2c0 2-1 2-1 1h-1v1c-1 1 0 1 1 1 3-1 4-1 4-3s-2-4-2-2zm452 1c-2 2 0 5 3 3 1-1 2-2 0-3h-3zm-459 2l1 2 1-1-1-2c-1-1-1 0-1 1zm1 3l-1 3 1-1h2c0 1 0 1 0 0l-2-2zm435 7c-1 1-1 2 1 2l1-2c0-1-1-2-2 0zm6 1c-2 2 0 5 2 3 1-1 1-1-1-3h-1zm-7 4c-1 1 2 4 3 3v-3h-3zm5 4l-1 1 1 1c-1 2 0 3 2 4h3l-2-6-2-1-1 1zm-5 2v1h2l-1-2-1 1zm-463 50l-1 3h4c1-1-1-3-3-3zm6 1h-1v1c1 1 2 0 2-1h-1zm-34 5c-3 2-3 3-1 3h3l2-1 1-1-2-2-1-1-2 2zm-3 7l2 1h1v-1c1-1 0-1-1-1l-2 1zm6 0v1l1-1c1-2-1-2-1 0zm9 1v1c1 1 2 0 2-1h-2zm-2 3v2l1-1c0-2 0-2-1-1zm-13 0l-1 2c0 3 1 3 3 1 2-1 2-3 0-3h-2zm521 6c-2 2-2 3 0 4s2 0 2-2c0-3-1-3-2-2zm34 1l-1 1 2 2 1-2c0-1 0-2-2-1zm-30 2s0 1 0 0l2 1h2c2 0 2 0 1-1l-3-1c-2-1-2 0-2 1zm-526 1v-2 2zm524 2c-2 3-2 6 2 6l2-4-2-3-2 1zm26 0c-1 2 0 3 2 3s2-2 1-3c-2-2-2-2-3 0zm-19 0l1 2c2 1 3 0 2-2h-3zm24 0l1 2-1 1v2h3v-3-1l-1-1h-2zm6 4l-1 1-1 3c1 2 2 3 3 2l-1-7v1zm-9 1v3l1-1-1-2zm-22 3l1 3c1 0 2-2 1-3h-2zm-492 67c-1 2 0 2 2 2l1-2h-3zm-7 4l2 3c2 1 5-2 3-3h-5zm8 0l-2 4c1 2 3 2 4 0v-3l-2-1zm5 4v3c1 1 2-1 1-2l-1-1zm504 3l-2 4 2 3 1 2 1-2c2-1 1-5 0-5l-2 1h-1l1-2h3l2-1-2-2-3 2zm-509 1v2c1 2 3 2 3 0l-2-3-1 1zm475 1c-1 1-1 3 1 4h1l1-3-3-1zm27 6l-3 3h2l2-1 2 1v1l-1 1h1l2 1 1-2-1-3h-2c-2 1-2 1-2-1l1-2 1-1-3 3zm-33 0c-1 1-1 3 1 3 1 0 2-1 2-3-1-1-1-2-3 0zm5 1l-1 2-1 4 2 1c3 0 4-1 4-4 0-2-1-3-3-4l-1 1z"/><path d="M899 514c-1 1-1 2 1 4 1 1 2 0 2-2 0-3-1-4-3-2zm-6 3c-1 1-2 1-1 2v2l1-2 1-1 1 1c-2 3-1 5 2 4 2-1 2-2 1-3l-2-3h-3zm10 2l-1 2v3c2 1 4 0 4-2 2-3 2-4 0-4l-1-1-2 2zm-500 54l-1 2 1 3c2 0 3-2 3-3 0-2-1-3-3-2zm1 7v1l-1 2v1c1 0 2-1 2-3l-1-1zm3 2l1 2c1 1 2 0 2-2s-2-2-3 0zm-3 5v2h2v-3l-2 1zm4 3v5c3 1 4-2 3-5l-1-2-2 2zm19 1c-2 1-1 4 2 4 1 0 2-1 1-3 0-2-1-2-3-1zm4 6h1l-1-1v1zm-7 2v3h5v-3h-5zm430 6l-1 4c1 0 2-1 2-3 1-3 0-3-1-1zm5-1l-2 2c0 1 3 2 4 0 1-1 0-3-2-2zm-17 1l1 4 1-1v-2l-2-1zm14 4l1 2 1-1-2-1zm-15 2s0 1 0 0v-1 1zm19 0v3l3-3h-3zm-10 1l-2 2 1 1 3-3h-2zm5 0c-1 1 0 2 1 1v-1h-1zm-2 3v1h1l-1-1zm-3 3v2h1l1-2h-2zm-30 17l-1 2 1 2c2 0 2-1 3-2 1-4-1-5-3-2zm-321 0v2c1 1 3 0 2-1l-1-1h-1zm-7 1l-1 1 1 2c2 2 2 2 4 1 1 0 1-3-1-4h-3zm-6 4v3c-2 0 1 2 3 2 3 1 4-1 2-4-1-2-4-2-5-1zm14 0c-1 2-1 2 1 2 2 1 3-1 1-2h-2zm6 0l2 2 1-1v-1h-3zm-11 2l-1 1h1c2-1 3 1 1 1l-1 1h5l-2-1-1-2h-2zm262 6c0 2 1 2 2 2v-2h-2zm4 4c0 2 2 2 3 2v-2c-1-2-3-1-3 0zm-10 1l-1 3h4c2-2 2-2 1-3h-4zm6 4l1 2h1l1-3c-1-1-2-1-3 1zm-277 2v3c2 2 4 1 5-2 1-2-3-3-5-1zm9 1l-3 3c-1 2 5 4 7 2 1-2 0-3-1-4l-1-1h-2zm7 4v2c2 0 2-1 1-2h-1zm-4 3h-2c-2 0-2 3 0 4s3 0 3-2v-2l1 1s0 1 0 0l-1-2-1 1zm261 5c-1 1 0 3 1 4l2-1v-3l-1-1c0-1-2-1-2 1zm-259 1v1l1-1c0-1-1-2-1 0zm266 2c-2 1-2 2 1 2 3 1 4-1 1-3-1-1-1-1-2 1zm10-1c-1 2-1 5 1 5l3-4c0-1-3-2-4-1zm7 2c-1 1-2 3 0 4s5-2 3-4h-3zm7 0l1 1v-1-1l-1 1zm-19 5c0 2 1 2 2 2l1-1c1-1-1-4-2-4l-1 3zm8 3v1l2-1c0-2-1-2-2 0zm-114 1c-1 1 0 2 1 2 2-1 3-1 2-2h-3zm-4 3l-1 3 4-3-1-1-2 1zm4 12c-1 1-1 3 1 3s3-3 2-4-2-1-3 1zm-88 0v1l2-1h1c-1-2-2-1-3 0zm94-1v3h2v-2l-2-1zm-88 2c-1 1-1 2 1 2l3 1h2l-4-4-2 1zm7 2v4 3c2 0 3-2 3-4s-1-5-3-5v2zm-14 0c-2 2-1 6 1 5s4-4 3-5h-4zm6 2c-1 2-1 3 1 4 1 2 2 2 3 0v-4h-4zm102 4h-1-1l3 3c1 0 2-2 1-3h-2zm-16 1l-1 2c0 2 0 2 2 2l2-2v-2h-3zm7 1l-1 2h4l1 2h1l2-3-1-1v1c0 2 0 2-1 1l-4-3-1 1zm-16 2c-1 1-1 2 2 1l2-2-4 1zm4 2l-2 1v1h4v-3l-2 1zm8 0l-1 2c1 1 2 0 2-1l-1-1zm3 0h2-2zm-7 1l1 1v-1h-1z"/></g><g fill="#8c0000"><path d="M631 158l-4 1c-3-1-5 0-7 3l-4 4-3 4-1 2-1 3c0 2 0 2 2 2l5-4c6-6 10-8 12-9l9-6h-8zm50 1l3 3 5 5c4 5 8 8 9 8v-5l-3-6c-1-2-4-3-9-5h-5zm-23 5h-3l-4 1-2 1 4 2c6 3 14 5 20 6s7 2 10 4l3 1h3l-1-2-7-5c-6-3-9-6-10-8h-3l-2 2-3-2h-5zm-76 0l2 3v4l1 1 1 3 1 3 12 5h6c3-2 3-3 0-3a43 43 0 01-17-11l-6-5zm125 6l-4 7c1 1 2 0 4-1l7-4c4-1 6-2 5-3l-5-1c-4 0-4 0-7 2zm-188 13l-3 10c-2 8-2 8-1 9l3-1 2-4 1-3 4-6-1-2-1-3-1-1-1-1-2 2zm102-1c-1 1-1 2 1 2l14 7 4 2 5 2 3 2h4l4-1 5-1h3l-3-1-5-3-9-4c-6-3-10-4-17-5a233 233 0 01-9 0zM544 183l-3 1-6 2-3 2-4 3-3 3c-3 1-3 2-3 3l-1 3-4 4h2l5-3 7-4c2-2 11-8 18-11 3-1 5-2 4-3h-9zm145 4c-9 4-10 5-15 5h-8v3l1 1 2 2c1 1 2 2 3 1h9l3-3 9-9c4-1 4-1 1-2-2 0-3 0-5 2zm-77 1v3l2 3 3 2c2 1 8 3 15 3l6 1-7-4-5-3c-3-3-5-4-9-4l-5-1zm89 3c-3 4-3 6-2 10l2 4 3 2 3 1c2 0 1-1 2 1l3 1 4 2 3 1-7-7c-3-1-4-2-5-4-3-4-3-6-3-10 0-5-1-5-3-1zm-97-1l-3 2a59 59 0 01-16 10l-2 2 2 1 5 1 8-2h1l8-9 1-3c1-3-1-4-4-2zm145 1c-1 1 1 4 3 5a82 82 0 0015 10l10 4-1-1-5-9-2-3-6-3c-3-2-4-3-6-2h-3c-2-1-4-2-5-1zm26 1l3 5 2 4c2 4 8 10 11 12 2 1 2 1 1-1l-2-5c-1-7-3-10-7-11l-5-3-3-1zm-278 5l-5 1-5 1-2 2c-2 0-4 2-7 5l-4 4c1 1 8-3 9-4l12-1 12-2 2-1-2-1-4-3c-4-2-5-2-6-1zm22 10l-5 3 2 1h3l4 1 7 1c5 1 6 1 8-2l3-2-2-1c-5-1-16-2-20-1zm-13 3l-4 2-3 2-1 1c-2 1-6 7-7 10l-2 5h-1c2 0 8-4 11-8l7-7c4-4 4-5 2-6l-2 1zm293 1l-4 5 2-1h6l7 1c2 1 2 0-1-2-4-3-7-5-10-3zm-41 10c3 3 9 8 10 7a86 86 0 0111-2c2 1 2 1 4-2l3-2h-2l-4 1h-9l-7-1-7-3 1 2zm33 3c-1 1 1 4 3 8l5 10c1 3 3 5 4 5v-1c-2-2-2-4-2-8l1-4-4-4-4-5-3-1zm-359 19c-5 5-7 8-8 13 0 5 3 16 5 16l1-2c-1-3 1-10 3-16l2-7 1-7-4 3zm33 1l-4 1-5 1-2 1-6 3-1 1c-2 0-3 1-3 4-1 3-3 7-8 13-2 2-3 5-2 5 3 0 5-2 8-8s10-11 23-15l5-2 5-1 6-1 2-1h-4l-8-1h-6zm352 12l-4 1h-2a96 96 0 0014 6 838 838 0 0123 10l-3-7c-2-4-3-5-5-6l-2-2h-4l-4-1-5-1h-8zm35 1l1 4 2 4 2 3 2 15v4c1 1 1 1 3-1l2-3v-2c1 0 2 0 3-4l1-3-2-3-2-3c0-2-1-4-3-4l-1-1-2-3-3-2-3-1z"/><path d="M452 264c-6 1-7 1-10 6l-3 3 4-1h12c8-1 9-1 13-3l4-2h-1l-6-3-6-2-7 2zm-39 7c-4 1-9 5-12 10-2 3-2 4 0 2l4-2 3-2 15-3 7-1-1-1-4-2c-3-1-4-2-7-1h-5zm416 8l-6 1h-4c3 1 13 5 28 8l3 1 3 2c0-2-11-10-15-11l-9-1zm-397 1v4l5 20 1-2c2-4 2-11 1-15l-2-5-5-2zm433 11c-4 1-4 2 3 5l7 4 4 2-1-2-1-2-1-2a14 14 0 01-1-1c0-2-5-5-6-5l-4 1zm-11 5l-3 6c-3 5-3 5-3 10l1 7 1 2v-2l2-3 1-3 1-4 1-2 1-3 1-5-1-3h-2zm-459 4v13l-3 22-2 5 9-10 4-12-2-4c-2-2-2-4-4-11-1-5-2-6-2-3zm-16 20l-2 3-1 3-1 2-1 11 1 3 1 3 2 3v1c0 2 1 1 3 0v-3l-2-8c-1-5-2-7 0-13l1-7-1 2zm510 4l2 23 4 14 4-10c1-4 1-12-1-17 0-4-1-5-3-6l-2-3-2-2-2-1v2zm-475 9l-18 14c-4 3-5 4-3 4 2 1 5 0 8-1 4-1 11-8 12-11l1-3 2-6-2 3zm494 20l-1 8-2 9c-2 8-1 10 4 5 3-2 3-3 3-5l1-3-1-1-1-3c1-2 1-3-1-7l-1-5-1-1v3zm-533-2l-8 6-2 3-2 2 1 5 1 6v-4c0-3 0-5 2-7 2-5 5-8 8-10 3-1 3-2 0-1zm13 9l-1 5c-2 4-2 6 0 7l2 4c0 2 1 3 2 3l1 2 3 2 2 1-1-3-2-4-1-4c0-5-2-9-4-13l-1-2v2zm486 0l2 3 8 7c4 1 7 4 8 5 3 3 6 4 5 2l-2-5c-2-5-3-7-7-8l-4-2c-4-3-7-3-10-2zm35 20l-1 1 3 2c4 2 6 4 6 6l3 6v-1-2-5l-1-4c1-3-5-4-10-3zm-12 5v1l-2 3-1 7v4l2-1c1-1 2-2 2-6l1-5 2-1v-2h-4zm-511 26l-4 20v4l7-7c5-7 6-9 4-11v-6l-1-5-2-4 1-2-1-4-4 15zm14 14l-1 2-1 2c-3 2-4 4-8 11l-5 11 6-2c6-3 7-4 7-7l1-3 2-4v-11l-1 1zm-41 3c-1 6 1 18 4 22 2 3 6 7 8 7h4c1-1 1-1-5-12a387 387 0 01-10-21l-1 4zm536-2l2 10v5l-1 11 1 10 1 2 4-6c5-7 5-9 3-15l-1-7c0-2-1-2-2-2s-2-1-2-3c0-3-1-4-3-6l-2-1v2zm-14 20v2l2 5c0 5 1 7 5 11l4 7c3 4 3 4 3 0-1-8-4-15-7-18l-2-3-1-3-3-1h-1zm36 8l-1 3-1 2-5 6a56 56 0 01-6 9l4 1h3l2-2 5-7c2-4 2-5 1-7l-1-5v-2l-1 2zm-531 2l-1 1 2 2c6 7 9 11 10 16 1 3 4 7 5 5l-1-4-1-7c0-4-2-8-5-11l-4-2h-5zm-19 2v4l-2 4c-3 3-3 4-3 9v7l2 7v-1l4-19 3-9-1-2h-3zm536 19l1 1c4 0 10 8 10 13l2 3c2 2 3 2 1 0l-2-9c0-3-1-6-4-7-2-2-6-2-8-1zm-19 3l-4 9c-1 2-2 7-4 9-1 3 0 2 5-3l6-8c0-3 2-5 3-6l1-2c-2-1-5-1-7 1zm-517 13c2 5 2 5 0 7l-1 2 2 4 2 8c0 3 3 8 8 13l3 4 6 3c3 0 5 1 7 4l1 1-2-3-3-5v-2l-4-7a136 136 0 00-19-29zm37 17l-2 4c0 2-1 3-5 5-1 1-2 10-1 13l1 5c1 3 2 4 4 2l3-19a88 88 0 012-11l-2 1zm484 15a52 52 0 00-3 6c-2 3-4 8-5 16-2 9-4 15-8 22-3 6-3 7 1 4l8-5a72 72 0 0014-10l3-3c0-1-5 0-8 2l-10 5-2 1 8-10c3-4 6-9 6-12l-2-16v-2l-2 2zm-515 4c3 13 5 19 9 19l5 1c3 2 4 2 5 0s0-3-4-6a119 119 0 01-14-14l-2-2 1 2zm488 10l-1 9c0 6 0 8 2 13l3 11 5-13 1-4-2-4-7-14-1 2zm-454 11c-1 1 1 3 6 8 7 7 8 8 12 9l6 1c4 2 5 2 2 0l-4-3-2-2-1-1-5-3-8-6c-4-3-5-4-6-3zm-15 1l-1 2-1 5-1 8-1 4 4 4 5 5v1c1-1 0-3-2-12-2-5-2-7-2-11 0-7 0-7-1-6zm474 27l1 8v16l1-2c3-3 3-9 1-17l-1-4-1-2c-1-1-1-1-1 1zm-8-1a90 90 0 00-16 18l-1 2 12-7c3-3 9-14 7-14l-2 1zm-426 1l-1 5 1 6 4 9c2 6 4 10 7 10l6 4 5 4-2-3c-2-1-2-1-1-2l-13-26-6-7zm25 23c-3 6-3 10-1 11v2l1 3c3 7 5 8 6 3 0-4-1-17-3-21l-1-4-2 6zm370 0a297 297 0 01-22 34l11-3c6-3 10-8 11-15l1-3 1-5v-4l1-4c0-4-1-4-3 0zm-406 11c0 2 1 3 4 5l2 3 3 2 5 2 3 2c8 0 14-1 15-2l-7-4a139 139 0 00-15-7l-9-3-1 2zm382 3c-2 2-6 12-7 16l-1 6 1 2c1 1 6-8 7-12l1-8c0-5 0-5-1-4zm-334 10l-2 1c-1 1 0 1 3 2l6 3c4 4 7 5 14 2 4-1 4-1 2-2l-6-2c-6-3-13-5-17-4zm-20 4v3l-1 2v4s0 2 3 4l2 4c0 2 0 2 2 2s3 1 4 3l4 2h1l-3-6c-2-2-5-9-6-14l-2-3c-1-2-4-2-4-1zm325 9l-2 1-4 1c-3 0-4 0-7 2l-3 2 12-1 12-1 9-1-14-4-3 1zm22 9l4 6 7 2c6 0 6 0 9-2l4-5h-5c-2 3-9 3-13 0l-6-1zm-4 5l-4 12 4-5 1-10-1 3zm-268 3v9l1 2 2 5 3 5 3 3 13 5c2 0 1-1 0-2l-3-2c0-2-5-9-9-14l-6-8-3-5-1 2zm199 12l-2 3-2 2c-2 1-4 6-7 12l-2 8 11-10c3-4 3-6 3-12v-4l-1 1zm-227 5l2 3 4 3c2 3 4 4 6 5l4 1h9l7-1h6l-3-1-5-2-10-2c-3-2-8-3-10-3l-8-2-2-1zm91 5l3 5c2 6 4 9 6 10l4 3 7 3h5c1 0-2-5-9-12-3-4-7-7-8-6l-1-1-7-2zm34 1c-4 2-5 4-6 6-1 4-1 9 2 13l2 3v-8l1-9 4-6-3 1zm-66 1l-5 4c-2 2-2 2-1 3h5l3 1 4-1 4-1c1 0 7-6 6-7h-6l-10 1zm98 1l-3 2c-1 2-6 5-10 7l-5 3-5 5c-6 4-5 4 6 3 5-1 9-2 11-5 2-1 8-15 8-16l-2 1zm88 3l-12 3-8 5 2 1 4 1h6c5 1 8 1 13-1l6-3 6-5-17-1zm-225 5l8 6 7 1c5 0 6 0 8-2l2-1-2-1h-5l-6-1-11-2h-1zm32 0c-1 1-1 1 1 3l3 5 3 5 7 4 1-2c-1-5-3-7-10-11l-4-4h-1zm132 1l4 3c1 2 3 2 10 3 4 0 7 0 7-2l-8-3-6-1-5-1-4-1 2 2zm27 10l-10 6-9 6-2 2 6-1h6c1 0 5-4 6-7l4-5c2-2 1-2-1-1zm3 1l4 3c2 2 4 2 5 2l2 1c1 1 1 1 10-1l7-3-13-2a49 49 0 01-14-2l-1 2zm-94 7c-2 2-8 5-13 6l-4 1c-1 1 4 2 10 2h6l2-2c3-4 3-4 5-1l4 4 9 1h8l-4-1-5-1-3-2-3-2-6-5c-1-2-4-2-6 0z"/></g><path d="M698 302c-1 2 0 5 1 7-1 1-2-1-2-2 0-2-2-4 1-5m-7-1c0 3-1 5-3 7l3-2c0-2 2-4 0-5m2 0l-2 7c1 1 2-1 2-2 0-2 2-4 0-5"/><path d="M696 302c-1 2-1 5 1 7-2 0-2-1-3-2 1-2 0-5 2-5"/></svg>