<svg xmlns="http://www.w3.org/2000/svg" width="830" height="498"><path fill="#00b140" d="M0 0h830v498H0z"/><path fill="#fff" d="M0 0h830v249H0z"/><g stroke="#000" stroke-width="1.8"><path fill="#c8102e" d="M543 30s0 0 0 0 0 0 0 0h0zm0 0c-52 28-99 59-145 97-22 19-16 34-16 52 0 11-3 22-10 29l-49 10-5-14c2-7 7-10 20-6 0-9-7-12-15-16-3-2-7-4-6-11-2-18 26 1 27 1 0 0-1-18-14-21-7-3-10-10-7-16 5-11 16 1 24 2 0-8-2-13-9-19-3-2-12-3-12-7 0-5 8-7 19-5-2-7-10-11-20-14l-6-11c-3-5-4-5 3-15l19-13-6-1 3-21c-7 8-15 7-22 10 0 0-20 4-27 13l-51-3c-11 1-20 5-22 15-25 3-51 0-69 24 12-1 24-4 38-2 0 0 12 0 15 14h4l5 4 2-5 4 3 1-6 4 3 1-6 5 3v-8s20 0 26 13c1 0-56 10-111 5l16-7c-20-5-39-8-57-22 7 25 41 55 48 54l-6-12 59 3c2 6 2 14 7 20 0 0-3 10 4 15l9-22 5 10c4-20 25-23 25-23l4 11c-6 1-15 14-10 22-5 0-12 13-10 20-4 4-13 9-11 24-7 2-11 15-9 29-11 11-9 30 1 38-4 4-6 7-6 11-4-1-8 0-10 3-5-5-12-10-17-5-1-6-9-12-17-12 0-6-3-14-12-16 0 0-2-30-11-39 0-6 1-9 8-13 8-4 9-7 9-18 2-8 5-15-4-21 0 9-3 13-6 17-5 0-6 5-9 7-4-6 9-14-1-26 0 0-6-16-21-15 7 4 10 11 10 18-5 13-7 23-2 38-6-9-10-27-15-30-4-1-6-11-24-8 8 2 10 8 12 13-4 2-2 8 1 13-1 10 5 15 14 19l-4 41c-4 0-9 13-11 14-4 2-10 8-3 10-2 7-4 12-15 13 0 0 12 7 22-5 10 0 7-13 12-18 0 0 3-2 7-13 2 10 12 40 34 55 20 21 37 41 36 69 8-7 13-18 16-29 11-4 27-5 40-5-2 5-5 10-1 13-10 3-12 10-8 17-10 7-11 12-11 23-19 24-30 23-49 17-6-4-15-9-20-6-8-5-19-6-21 6 6-5 10-4 14 1-1 2-1 5 2 6l-5 5c-8-1-20-1-23 12 5-4 14-5 22-2l5 2v6s-11-2-15 17c11-11 19-8 19-8 4 6 20 5 31-5 16-9 21 4 31-5 8-6 18-2 25 5 8 3 16 6 23 0 0 0 8-5 16 4 0-10-7-15-16-15l-2-2c-9-2-18-1-25-6 3-13 8-24 18-35 12-13 21-18 36-38 0 11 8 23 13 35 0 0 9-15 10-27 0 0 12-5 16-10 10 6 27-5 37-15 7 3 12 3 19 0-6 13 4 24 19 29 2 11 13 13 29 13 1 7 11 8 11 8-6 3-9 6-9 12-7 0-12 2-13 9-9 1-18 1-26 6-8-2-18-5-24-12-4-2-5-6-10-8-4-4-8-3-10 1-3-3-18-5-20 9 7-5 13-7 17-1-3 4 5 7 12 8 5 1 13 5 16 12-6 2-16 2-22-3-5-5-13-4-17-1-5-4-19 3-19 14 5-5 10-8 16-5-3 1-2 1-2 3l13 7c-6 2-12 5-9 17 0 0 5-11 17-7 0 0 1 4 5 1 5-6 16-8 26-9 9-1 17-4 24 1 6-3 13-5 21 0 8 2 14 12 25 8 6-4 12-4 19 3 0-9-7-12-17-14l-7-5c-7-1-13 1-20-2 34-9 58-28 75-55l16 5c4 0 4 2 12 4 0-11-5-23-25-25l-28-10c-6-6-8-19-1-27 7-6 9-6 13-13 6-1 12 5 17 5 3 8 17 14 27 12 6 5 17 8 29 4 7 6 16 8 27 4 2 3 8 5 15 3 1 0 4 8 11 11-3 3-1 17 2 22-2 5-3 10-1 16-7 5-9 8-5 17-10 16-22 17-33 12l-12-7-13-13c-2-2-7-2-8 2 0 0-16-3-17 10 6-6 16 0 16 0s-2 2-1 4l23 9 9 4a442 442 0 00-23-8c-6 0-13-1-15 3-7 3-16 5-16 17 4-7 10-7 17-6v1c8 4 6-1 14-1 6-1 15 1 20 3-6 2-14 1-18 5-1 2-3 1-2 4 0 0-11 0-15 16 12-8 21-7 21-7h4l14-9c1 0 14-6 20 1 6 2 11 3 17-1 11-4 21-5 31 2l9 5 4-2s11-3 18 6c-3-16-14-16-14-16l-3-3-16-6c-3-6-8-10-3-17 6-30 14-53 2-83 11 4 19 19 33 14 0-12-45-35-79-54 56-3 123-44 97-97l12-38c6 12 18 20 28 24-8-16-13-67-8-101-23 27-48 52-74 77 13 3 24 1 37 0l-11 22c-34-21-75-5-75 22 1 31 40 35 62 25-4 28-70 18-70 18-23-8-46-7-70-7 5-16 33-30 55-23-30-34 4-76 46-89-46-15-7-50 27-75 0 0-97 41-106 41-28-2-20-35-10-52zM237 69l7 1c4 1 10 2 9 3-2 3-7 7-11 7-5 0-8-3-10-10l5-1zm411 116c6 0 14 3 21 11-3 10-34 15-37 0 0-5 6-11 16-11z"/><path fill="none" stroke-linejoin="round" d="M269 160l5 7m0 0l1 9m-4 5l5 8m-13 3l6 6m5-5l6 11m-14-4s2 13 4 12m-12 11l6 8m5-17s3 12 5 11m2-18c1 0 6 8 7 7m-1 3l5 10m-13-2l4 12m-14-6s3 13 7 11m-9 7s0 7 4 7m2-11l4 5m6-13l3 5m6-13l4 5m-24-67c0 6 10-2 13-7m-17 27s10-7 18-18m-21 35c7-2 20-18 23-26m-25 42c2 1 27-17 27-30m-27 43s22-5 31-30m-32 49s35-21 37-37m241 73s-2 18-21 21m27 12s17-20 13-25m27 6s0 14-11 23m33-19s0 16-6 23m26-13s-8 15-10 16m10 11s10 2 13-4m-11 26s10 1 14-8m-15 25s8 6 13-2M515 257s-1 33 45 39c52 15 76 7 79 65-2 22-4 47-20 37M466 287s8 13 16 13c12-4 16 3 16 3m-63-3s19 10 36-5m-34-8c2 22-26 35-37 33m38 53c1 0 15-8 12-15m-41 2s25-3 29-11m-41-25s35 0 38 7m9-28s-34 59 29 59m-65-59s-8 21-18 29m-18-37s12 24-1 37m-32-30s4 35-5 44m-12-43s1 22-5 29c-6 8 2 24 2 24m-79 11s5 8 11 5m-3-23s10 5 14 3m-3-40s-15 5-9 23c8 7 17 6 17 6m-38 48s2 15 12 4c6-15 28-55 33-69m10-7s-10-8-10 3c0 7 3 9 3 9 1 5 5 13 9 6 2-7-1-9-1-9m6-12c-10-1-15 20 4 7m6-14s-2 3-6 0c-2-4-9 15 3 16 2-6 9-7 9-7m6-18l-8 2c-6 1-5 17 3 16l6-8m-52-30s-22 33 12 42m256-92s-13 11-1 29c-40-1-61 18-63 30-51-4-42 11-58 16-22-18-55-8-53 11-15-21-38-11-40-6-3 5-2-26-2-26s-15 7-25 19v-25c-13 2-25 2-38 2m-33-10s18 11 41-3m-43-34s15 13 42 9m-33-38s4 10 35 11m-24-36s12 14 27 12m-17-32s4 7 22 9m-12-32s9 10 19 8m35-88s4-4 10-2m-13 23s-13-1-12-6 13-9 13-9 17-11 19-14m-73 57l16 30 7-11 4 7 7-11 11 7-5-14h10s-3-7-11-8l10-7s-5-5-11-5l5-9-7-1s16 5 28-2m-30-25s-1 6-5 10m-56 7s9-3 17-1l17 4s11-2 15-5m-74 8l-1 8c0 2-8 5-8 5m14-22s6 7 6 12c0 4-4 8-4 8m-67 33l-6-11 6-2m117 157c-5-7 4-109 23-136-7 48 16 98 21 98M200 101s8 3 27-11m24 34h13m389-80S437 145 434 150c37-11 191-37 195-34-9 2-197 45-206 55 47-1 146 15 161 31-33-7-133-22-164-15 23 5 108 60 108 69-13-12-116-54-120-50 24 14 57 66 57 79-7-11-66-75-70-71 7 9 19 85 13 88 0-9-23-75-25-77-5 1-34 81-28 88-4-26 0-82 7-79-13 2-54 56-49 64 1-13 3-22 26-67-26 1-79 35-88 47 7-21 52-58 72-60m93-79c23-13 94-38 141-57M372 207s16 0 31-42c16-58 137-122 140-135M166 266s-4 7-8 9m25 2l-5 14m22-9s4 13 1 19m-47-52c-13 6 7 50 65 54m-10-23s-1 8 10 23c-3 17 13 31 19 33m-33-213l1-4 2 5h4l2-5 1 5h4l2-6 3 5 2 1 2-7 4 5 2-1 1-7 4 5 1-1 2-6 3 5 2-1 2-5 3 5m-51 8h24c8-1 21-11 35-8m-110 60s4 8 10 4m-19 2s-8 21 1 25m-13-49s0 5 11-2M98 268s8 3 7 9m-4-105s5 3 10-5m44 246c8 0 10 3 17 3 8 0 17-3 27-6m69 19s-4 8-1 12m-113-11s13-10 19-4l10 2m-22-28s3 8-8 7m-3 12s7 4-1 10m5 7s9 1 4 9m291-64s25 2 26 4c3-3 25-21-2-23-5 18-24 19-24 19zm-9 12c9 8 5 12 35-8m-48 17s13 15 23-3m-49 9l-19 9m-33 14s11-10 16-5c6 6 28-4 28-4m-36-33s4 8-3 9m-11 15s4 7-4 9m12 11s12 0 8 9m102-11s-7 6-2 12m95-51s7 4-2 10m-7 13s5 6 2 10m13 12s8 2 7 9m101-15s-7 5-3 11M554 244c15-2 37 33 48 39m68-87s7 7 1 23m13-49c2 1 11 6 16 16m6-67l-11 29m23-31s-3 26-6 31m-43 48c-3 10-34 15-37 0-1-8 19-20 37 0z"/><path stroke-linejoin="round" d="M236 69l12 2c1 0-8 12-12-2z"/></g></svg>