<svg xmlns="http://www.w3.org/2000/svg" xmlns:xlink="http://www.w3.org/1999/xlink" height="400" width="800"><path fill="#fff" d="M0 0h800v400H0z"/><path d="M200 20l-8.98 27.64h-29.06l23.5 17.08-8.97 27.64L200 75.28l23.51 17.08-8.98-27.64 23.51-17.08h-29.06L200 20z" fill="#e81b39"/><path fill="#e81b39" id="a" d="M0 120h800v80H0z"/><use y="120" xlink:href="#a"/><path d="M400 20l-8.98 27.64h-29.06l23.5 17.08-8.97 27.64L400 75.28l23.51 17.08-8.98-27.64 23.51-17.08h-29.06zM600 20l-8.98 27.64h-29.06l23.5 17.08-8.97 27.64 23.5-17.08 23.52 17.08-8.98-27.64 23.51-17.08h-29.06z" fill="#e81b39"/></svg>