<svg xmlns="http://www.w3.org/2000/svg" width="1106" height="658" viewBox="0 0 553 329"><path fill="#008457" d="M0 0h553v329H0z"/><path fill-rule="evenodd" clip-rule="evenodd" fill="#FFD520" d="M276 268.5c-57.8 0-105-47.2-105-105S218.2 58.6 276 58.6s104.9 47.1 104.9 105c0 57.7-47.1 104.9-105 104.9z"/><path fill="#34C2DE" stroke="#000" stroke-width=".9" stroke-miterlimit="2.6" d="M275.5 85.3a78.5 78.5 0 0178.3 78.3 78.4 78.4 0 01-78.3 78.3 78.4 78.4 0 01-78.3-78.3 78.5 78.5 0 0178.3-78.3h0z"/><path fill-rule="evenodd" clip-rule="evenodd" fill="#FFF" d="M244.6 235.1c16 7.7 33 6.8 33 6.8a74 74 0 0059.7-30l-2.5-2.2c-5.6-5.5-11.3-12.5-16-15.4l-5.8-6.1c-.6-.2-4.4-2.6-4.9-3.2l-1-4.2c.5.5 1-1.8 0-2.5l-.1-5.5 2.2-.6 2.3-1 2.5-2c1.2 0 3.4-1.2 4.9-1.4l.8-2.5c1.3-2.4 3.5-3.6 5.3-5.4l1-1.4c-.5-.6.8-2 .8-2 0-.4-2-.2-2-.6V154c-.2-2.1-.7-.4-1.1-3.2-.4-2.8-1.5-2.3-1.6-3l-.5-.7c0-.4-1-2-1-2l-2.3-.8-1.4-.8 2.7-5.4c.5-1.8.6-2.2 0-2.2-.5 0 0-.7.3-.7s.4-.5.3-.8c-.2-.3-.8-.1-.7-.4l.3-1.4-.1-1.5-.3-1.1c-.1-.4-2-2.4-2-2.9l-2.2.2s-.9-2-2.6-4.4l-2.9-4.6c-.5-.1-4.6-6.5-8.5-6.5-.3-1.1-4.5-3.6-5.5-4.2-.7-.2-2.8-.9-4.6-1.8-1.8-1.8-10.8-3.3-14.6-3.8-4.6 1-2.6 0-6.2 1.5-5.4.4-9 1.6-12.7 4-2.7 2-3.6 3.2-5.9 5.7-.6.6-2.5 3.5-2.8 3.7l-2 3.5c-4.8 6.5-5.2 14-5.2 14a22 22 0 00-4.8 6.7c-.2.6-1.7 5.4-1.9 5.5 0 .7-.8 1.5-1.3 2.2l-4 9.3a12 12 0 006 8.4c.1 0 0 1.7.7 2.1 1 .8 4.7 2.6 5.2 2.8 2.7 1.2 2.3 3 2.5 3.8 2.3 10.5 9 12.4 9 12.4l2.3 3.3s-9.3 1.9-9.3 4c0 3.3 1.2 6.7.1 9.9-1.2 3.3-2.2 5-2 8.4-5.8 3.3-12 7.1-17.8 10.7a88.2 88.2 0 0018.2 11.1z"/><path fill-rule="evenodd" clip-rule="evenodd" fill="#FDD6C6" d="M278.2 113s-1.7-1.5-7-2.1c-3.4-.4-4.3-.4-6.5-.5-2 0-8 1.5-10 2.2-2.2.7-3 2-4.7 3.9-1.4 1.7-2.5 3.6-3.6 5a47 47 0 00-4.4 12.2c-.4 3.7-.3 8.5-.3 10s.7 7.5.7 9.2c0 1.6-.5 6.6-.3 8 .3 1.4.5 4.4.6 7a41.8 41.8 0 004.2 14.6c1.2 2 4.3 4.4 6 5.2 2.2 1.3 7.9 5 19 1.5 11-3.5 14.9-7 17.3-10.7 2.3-3.7 4.3-12.8 4.3-14s.4-10.8 0-11.9c-.3-1-.9-3.4-1.4-4.5-.6-1.1-1-3.2-1.6-4-1.1-1.2-2.6-3.1-2.6-5 0-2.4-.7-3.7-.3-6.4l1-6.8c.3-1.1.2-3.9-.5-5.5-.2-.6-2.3-3.5-3.5-4.7a12.2 12.2 0 00-6.4-2.7z"/><path fill-rule="evenodd" clip-rule="evenodd" fill="none" stroke="#000" stroke-width="5.1" d="M276 56.8c58.7 0 106.5 48 106.5 106.7 0 58.8-47.8 106.7-106.5 106.7s-106.6-48-106.6-106.7S217.3 56.8 276 56.8h0z"/><path fill-rule="evenodd" clip-rule="evenodd" d="M259.9 258.2l2.4-11.7h-.4c-1 .6-2.5.8-4.4.5l-.1.8 1.7.4c.7.1 1 .3.8.8l-1.8 8.7c-.2.9-.5 1-1.5.7l-1.3-.2-.2.8 7.1 1.6.2-1-1.4-.2c-1-.3-1.3-.4-1.1-1.2zM268.5 254.2c-1.5-.7-2.3-1.9-2.2-3.4 0-2.2 1.8-3.7 4.2-3.6 2.3.1 3.7 1.4 3.7 3.3 0 1.2-.8 2.2-2.2 2.9 1.8.8 2.7 2 2.7 3.7-.1 2.5-2.1 4.4-5.1 4.2-2.7 0-4.2-1.6-4.1-3.8 0-1.6 1-2.7 3-3.3zm.8.4c-1.5.5-2.2 1.5-2.3 3 0 1.7 1 2.7 2.9 2.8 1.9 0 3-1 3.2-2.7 0-1.7-1.2-2.2-3.8-3.1zm2-1.5c1-.7 1.5-1.5 1.5-2.6 0-1.5-.9-2.4-2.5-2.5-1.5 0-2.5.8-2.5 2.1 0 1.4 1 2.2 3.5 3zM279.7 254.5c-1.6-.6-2.4-1.6-2.4-3.1-.1-2.2 1.5-3.9 3.9-4 2.3 0 3.8 1.2 3.9 3 0 1.2-.6 2.3-2 3 1.9.7 2.9 1.9 3 3.7 0 2.4-1.8 4.4-4.9 4.5-2.6.1-4.2-1.4-4.3-3.6 0-1.6.9-2.8 2.8-3.5zm.8.4a3 3 0 00-2 3.1c0 1.8 1.1 2.7 3 2.6 1.9 0 3-1.2 3-2.9s-1.3-2.1-4-2.8zm1.9-1.6c1-.9 1.4-1.7 1.3-2.7 0-1.6-1-2.4-2.6-2.4-1.5.1-2.4 1-2.4 2.3 0 1.4 1.2 2 3.7 2.8zM294.4 249.9c.4 1.9-.3 3.3-1.9 3.6-1.3.3-2.4-.6-2.8-2.7-.5-2.2.2-3.5 1.6-3.8 1.5-.4 2.6.7 3.1 2.9zm.7 2.4c.8 4 0 6.4-2 6.9-.8.1-1.3 0-1.4-.4 0-.1.3-.5.2-1.2-.1-.5-.8-1-1.4-.8-.6.1-1 .8-.8 1.5.2 1.4 1.6 2.2 3.5 1.8 3.1-.7 4.8-4.1 3.8-8.6-.8-4-3.1-6-5.9-5.4-2.5.5-4 2.8-3.3 5.5.5 2.4 2.3 3.7 4.4 3.2a4 4 0 002.9-2.5zM235 239.1l-4.5 9.4c-.4.7-.6.8-1.2.6-2-1-2.1-2.2-1-5.8l-.6-.2-2 5 10.1 5 2.6-4.7-.6-.3c-1.8 2.7-3 3.7-4.8 2.8-.8-.4-1-.5-.6-1.5l4.5-9.3c.3-.7.6-.7 1.3-.4l1 .5.4-.8-5.8-2.9-.4.9 1 .5c.8.3 1 .6.6 1.2zM230 235l-4.9-3.6-.5.8.8.5c.6.5.7.8.3 1.4l-2.8 4-5.3-3.7 2.8-4.1c.4-.6.8-.6 1.4-.1l.8.5.5-.7-5-3.5-.5.7.8.5c.6.5.7.9.4 1.4l-5.9 8.5c-.4.6-.7.6-1.4.2l-.8-.6-.5.7 5 3.6.5-.7-.8-.6c-.6-.5-.7-.8-.4-1.4l2.5-3.6 5.3 3.8-2.4 3.5c-.4.6-.8.7-1.3.3l-.9-.6-.5.7 5 3.6.5-.8-.8-.6c-.6-.4-.7-.7-.3-1.4l5.8-8.4c.4-.6.8-.6 1.4-.2l.8.6.5-.7zM217.4 225.4l-8.2-8.5-3.9 3.5.5.5c1.9-1.2 3.2-1.8 4-1.4a9 9 0 013 2.2c.8 1 1 1.3.4 2l-3.6 3.5-.1-.2c-1.4-1.5-1.5-2.5-.2-4l-.5-.6-4.4 4.4.5.5c1.6-1.3 2.6-1.2 4 .3l.1.1-3.1 3.1c-.6.7-.9.4-1.8-.5-1.2-1.3-1.9-2.2-2-3 0-.8.4-2 1.5-3.4l-.6-.6-3.3 3.7 7.7 8 .7-.5-.8-.8c-.4-.5-.5-.8 0-1.4l7.3-7.1c.6-.5.9-.5 1.4 0l.7.8.7-.6zM200.3 205.3c.4-1.3.2-2.8-.5-4.2-1.4-2.8-3.6-3.4-6-2.2-1 .6-1.8 1.5-2 2.5-.3 1.1 0 2.3.3 3.7.6 2.5 1.1 4-.5 4.8-1.3.7-2.5.3-3.3-1.2-1-2-.5-4.1 1.7-6.1l-.4-.6-4.2 2.5.3.6 1.4.2c-.4 1.2-.2 2.6.5 3.8 1.2 2.3 3.2 3 5.3 1.8 2.3-1.2 2.2-2.9 1.5-6-.3-1.5-.6-2.5-.5-3.3a2 2 0 011.2-1.7c1.4-.7 3-.3 4 1.6 1 2.2.4 4.4-2.1 6.5l.3.7 4.8-2.8-.2-.6h-1.6zM197.2 196l-3.8-11.2-5 1.5.2.7c2.2-.4 3.6-.3 4.3.4.6.6 1 1.7 1.6 3.2.4 1.3.6 1.7-.4 2l-4.7 1.7v-.3c-.7-1.9-.3-2.8 1.5-3.6l-.3-.8-5.7 2 .2.8c2-.5 2.8 0 3.5 2v.1l-4 1.5c-1 .3-1 0-1.5-1.2-.5-1.7-.7-2.9-.5-3.7.3-.7 1.2-1.6 2.7-2.4l-.3-.8-4.5 1.9 3.7 10.7.8-.3-.3-1c-.2-.7-.1-1 .5-1.2l9.6-3.4c.7-.2 1 0 1.2.7l.4 1 .8-.3zM178.3 179.7l-.1-.7 11-7.1c.7-.5.9-.8.7-1.5l-.1-.4.9-.2 1 5.7-.9.1v-.7c-.2-.8-.4-1-.8-1l-.6.3-2.2 1.3 1 5.2 1.6.2h1.2c.5-.1.8-.6.6-1.5v-.5l.8-.1 1 4.9-1 .2v-.2c-.2-1.1-.7-1.4-2-1.7l-12-2.3zm8-3.7l-5 3.4 5.9 1-.9-4.4zM190.9 168.7l.4-11.4-5.3-.4v.7c2 .4 3.1 1 3.6 1.6.6.7.7 1.9.6 3.7 0 1.2 0 1.5-1 1.5l-10.1-.4c-.7 0-1-.2-.9-1v-1h-.9l-.1 6.2h.9v-1c0-.8.2-1 1-1l10.1.3c.7 0 1 .3.9 1.1v1h.8zM186.5 143a7.7 7.7 0 01-4.4-3.2 6.3 6.3 0 01-.7-5.2 6 6 0 013.3-4c1.7-.8 3.4-.9 5.4-.3a7 7 0 014.3 3 6 6 0 011 5.4c-.6 2-1.8 3.3-3.6 4a7 7 0 01-5.3.3zm.7-2.3c4.1 1.1 6.5.4 7.2-2.3.8-2.7-.9-4.5-5-5.7-4-1.2-6.4-.6-7.1 2.2-.8 2.7.8 4.5 5 5.8zM197.6 130.9l2.9-5.7-.8-.4-.6 1c-.3.8-.6.9-1.2.6l-4.5-2.4.2-.1c.9-1.8 1.8-2.2 3.6-1.5l.3-.7-5.3-2.8-.4.7c1.6 1.1 2 2.1 1 3.9v.2l-4-2c-.8-.4-.7-.8-.1-1.9.8-1.6 1.5-2.5 2.3-3 .7-.2 1.9-.2 3.5.4l.4-.8-4.5-2-5 10.1.7.4.5-.9c.3-.6.7-.8 1.3-.4l9 4.6c.6.3.7.7.4 1.4l-.5.9.8.4zM213.8 104l-7.2-7.3c-.6-.6-.6-.9 0-1.4 1.5-1.5 2.6-1.2 5.5 1l.5-.6-4-3.6-8 8.2 3.6 4 .5-.5c-2-2.6-2.5-4-1.2-5.4.7-.7 1-1 1.6-.2l7.3 7.3c.5.5.5 1 0 1.5l-1 .8.7.6 4.6-4.6-.7-.6-.8.8c-.6.5-.8.5-1.4 0zM218 101.4l4.8-3.7-.6-.7-.8.6c-.6.4-1 .4-1.3-.1l-3-4 5.2-4 3 4c.4.6.3 1-.3 1.4l-.8.6.5.7 4.9-3.7-.6-.7-.7.6c-.6.5-1 .4-1.4-.1l-6.2-8.3c-.4-.5-.3-1 .3-1.4l.8-.5-.5-.8-4.8 3.8.4.6.9-.5c.6-.5.9-.5 1.3 0l2.6 3.5-5.1 4-2.6-3.5c-.4-.6-.4-.9.2-1.4l.8-.6-.5-.6-4.9 3.7.6.7.8-.7c.5-.4 1-.4 1.3.2l6.1 8.2c.5.6.4 1-.2 1.4l-.8.6.5.7zM231 91.6l10.4-5.3-2.2-5-.6.4c.6 2.2.8 3.6.2 4.5-.5.6-1.5 1.2-3 2-1.1.6-1.5.7-1.9-.1l-2.3-4.5.2-.1c1.8-1 2.8-.7 3.8 1l.7-.3-2.7-5.5-.8.4c.8 1.8.4 2.7-1.4 3.7h-.2l-2-4c-.3-.7 0-.9 1-1.5 1.6-.8 2.7-1.1 3.5-1 .8.2 1.7 1 2.8 2.4l.7-.4-2.5-4.3-10 5.2.5.7.9-.4c.6-.3 1-.3 1.3.4L232 89c.4.6.2 1-.5 1.3l-.9.4.5.8zM255.6 80.6c1 .7 2.5 1 4 .7 3-.5 4.4-2.3 4-5a4 4 0 00-1.8-2.8c-1-.6-2.2-.7-3.6-.8-2.5-.2-4-.1-4.3-2-.3-1.5.5-2.5 2.2-2.7 2.2-.4 4 .7 5.1 3.4l.7-.1-1-5-.7.2-.6 1.3a5 5 0 00-3.7-.8c-2.5.5-3.7 2.3-3.3 4.6.4 2.6 2 3 5.1 3.3 1.5.2 2.5.2 3.3.6.6.2 1 .8 1.2 1.7.2 1.6-.7 2.9-2.7 3.3-2.5.4-4.3-1-5.4-4l-.8.1 1 5.6.7-.1.6-1.5zM273.2 77.7l-.5-10.4c0-.8 0-1 .8-1 2.2-.2 2.8.8 3.6 4.4h.7l-.6-5.4-11.4.6v5.4h.7c.3-3.3.9-4.7 2.8-4.8 1-.1 1.2-.1 1.3 1l.5 10.3c0 .8-.2 1-1 1H269l.1 1 6.5-.4v-1l-1.3.2c-.7 0-1-.1-1-.9zM284 65.4l.8.1 4 12.6c.2.9.5 1 1.2 1.1h.4v.9l-5.7-.4v-1l.8.1c.8 0 1 0 1-.3.2-.2 0-.5 0-.8l-.7-2.5-5.1-.3-.7 1.4c-.3.5-.3 1-.4 1.2 0 .6.4 1 1.4 1h.5l-.1 1-5-.3v-1h.2c1.2 0 1.6-.3 2.2-1.4l5.3-11.4zm1.6 8.8l-2-5.8-2.5 5.5 4.5.3zM297.3 80.3l2.3-10c.1-1 .4-1 1.1-1 2.1.6 2.5 1.8 2.2 5.4l.7.1.9-5.2-11.2-2.7-1.3 5.2.6.2c1.1-3.1 2.2-4.3 4-3.9.9.2 1.2.3 1 1.3l-2.3 10.1c-.2.8-.5 1-1.3.8l-1.1-.3-.2.8 6.3 1.5.2-.9-1.2-.3c-.7-.1-.9-.4-.7-1zM301.6 83.7l10.8 4.2 2.2-5-.7-.1c-1.1 2-2.1 3-3.1 3-.8.1-2-.2-3.5-.7-1.2-.5-1.5-.8-1.2-1.6l1.8-4.8.2.1c1.9.7 2.3 1.7 1.8 3.6l.7.3 2.2-5.8-.8-.3c-.8 1.9-1.8 2.2-3.6 1.4h-.2l1.6-4.2c.2-.8.5-.8 1.8-.3 1.6.7 2.6 1.2 3 2 .4.7.5 1.9.1 3.6l.8.3 1.5-4.7-10.4-4-.3.7.9.4c.7.3.9.6.6 1.2l-3.6 9.7c-.3.7-.6.8-1.3.5l-1-.4-.3.9zM328.7 89.3c1.3-1.6 2.9-2.5 4.7-2.8a6 6 0 015 1.5 5.8 5.8 0 012.2 4.7c0 1.8-.6 3.5-2 5.1a7 7 0 01-4.3 2.9 6 6 0 01-5.2-1.4 6 6 0 01-2.3-5 7 7 0 011.9-5zm1.9 1.7c-2.7 3.2-3 5.7-1 7.6 2.1 1.7 4.5.9 7.2-2.4 2.8-3.3 3.1-5.7 1-7.6-2.1-1.8-4.5-1-7.2 2.4zM335.5 104.3l4.3 4.7.6-.6-.8-.9c-.6-.6-.6-.9 0-1.3l3.7-3.4.1.1c1.4 1.5 1.4 2.5 0 4l.6.6 4.5-4.1-.6-.6c-1.5 1.2-2.6 1-3.9-.4l-.1-.2 3.3-3c.6-.6.9-.4 1.7.6 1.1 1.3 1.8 2.3 1.8 3.1.1.8-.4 2-1.5 3.3l.6.6 3.4-3.5-7.5-8.4-.6.6.6.7c.6.6.6 1 0 1.5l-7.5 6.8c-.5.6-.9.5-1.4 0l-.6-.8-.7.6zM365.2 123.2l-.8.3.2.4c.2.7.2 1-.2 1.4l-1 1-7.7.7 6.6-5.6c.2-.2.4-.4.6-.4.3-.1.6.1.9.9l.1.5.8-.3-2-5.1-.7.3.1.5c.2.5.1.9-.4 1.3l-10 8.5.3.7 10-1-7.8 6.7.3.7 12.1-1.2c1.2 0 1.8.1 2.2 1.1l.8-.3-1.6-4.3-.9.4.2.4c.3.9.2 1.3-.4 1.6l-1.2.3-7.6.7 6.7-5.6c.3-.2.4-.4.6-.4.4-.2.6.1.9.8l.1.4.9-.3-2.1-5.1zM371.5 140.8l.2.7-10.8 7.6c-.6.6-.8.8-.6 1.5l.1.4-.9.3-1.3-5.7 1-.2v.7c.3.8.4 1.1.9 1l.5-.3 2.2-1.4-1.2-5-1.5-.3a3 3 0 00-1.2 0c-.6.1-.8.7-.6 1.6l.1.5-1 .2-1-5 .8-.2.1.2c.3 1.1.8 1.4 2 1.7l12.2 1.7zm-7.9 4l4.9-3.5-5.8-.8 1 4.4zM361 154.7c-.9.9-1.3 2.3-1.3 3.8.2 3.1 1.8 4.8 4.5 4.6 1.2 0 2.2-.5 2.9-1.3.7-1 1-2.2 1.3-3.6.4-2.5.5-4 2.4-4.1 1.5 0 2.3.8 2.4 2.5.2 2.3-1.2 4-4 4.8v.8l5-.5v-.7l-1.3-.7a5 5 0 001.2-3.7c-.1-2.6-1.7-4-4-4-2.6.2-3.3 1.7-4 4.9-.3 1.4-.4 2.5-.9 3.2-.2.5-.9 1-1.7 1-1.7 0-2.8-1-3-3.2 0-2.4 1.5-4.1 4.6-4.9v-.8l-5.6.4.1.7 1.4.8zM361.5 165l-.8 6 .9.2v-1c.2-.8.5-1 1.2-.9l4.8.7-.9 6.5-4.9-.7c-.7-.1-.8-.4-.7-1.2v-1l-.7-.1-.9 6 .9.2.1-1c0-.7.4-1 1-.9l10.1 1.5c.7 0 .9.3.8 1.1l-.1 1 .8.1.9-6-.9-.2-.1 1c-.1.8-.4 1-1.1 1l-4.2-.7 1-6.4 4.1.5c.7.1.9.4.8 1.2l-.1 1h.8l.9-6-.9-.1v1c-.2.7-.5 1-1.2.9l-10-1.5c-.8-.1-1-.4-.8-1.2l.1-1h-.9zM359.1 181l-1.3 6.2.8.2.3-1c.1-.8.3-1 1-.8l10 2.3c.6.2.8.5.6 1.2l-.2 1 .8.2 1.5-6.1-1-.2-.1 1c-.2.8-.5 1-1.2.8l-9.9-2.3c-.7-.2-.9-.5-.6-1.2l.2-1-.9-.2zM357.5 189.4l-2.2 5 .7.3c.8-1.8 1.6-1.9 3.2-1.1l7.3 3.4-14.2 2.8-.3.8 9.8 4.7c1.6.7 2.1 1.3 1.4 2.9l.8.4 2.2-5-.7-.3c-.8 1.7-1.5 1.8-3.2 1l-6.5-3 12.7-2.5 1.5-3.5-.8-.3v.2c-.5 1-.8 1.3-1.4 1.3l-8.1-3.8c-1.6-.7-2-1.3-1.4-3l-.8-.3zM351.4 212.6l-.6 1c-.4.6-.6.7-1.4.2l-.7-.4c-1.5-1-1.8-2.6-.7-4.3 1.5-2.5 4-2.4 7.5 0 3.6 2.3 4.7 4.6 3.1 7-1.2 1.9-3.2 2.2-6.2 1.1l-.5.7 4.8 2.8.4-.7-.7-1.3a5 5 0 003.1-2.3c2-3.1 1-7-2.6-9.4s-7.6-1.7-9.6 1.5c-1 1.5-1.1 3-.5 4.3l-2-.5-.4.6 4.1 2.7c.6.4.6.7.2 1.3l-.6.9.8.5 3.3-5.1-.8-.6zM339.7 222l7.3 7.1c.6.6.6.9.2 1.4-1.6 1.6-2.8 1.4-5.7-.8l-.5.6 4 3.4 8-8.3-3.7-4-.5.6c2 2.6 2.6 4 1.3 5.4-.7.7-.9 1-1.6.2l-7.4-7.2c-.5-.5-.5-.9 0-1.4l.9-1-.7-.5-4.4 4.8.6.6.8-1c.5-.5.8-.5 1.4 0zM337.9 230.5a7.8 7.8 0 011.7 5.3c-.1 1.8-1 3.4-2.5 4.6a5.9 5.9 0 01-5 1.3 7.5 7.5 0 01-4.5-3 7.6 7.6 0 01-1.8-5c0-2 .8-3.7 2.4-4.9a5.9 5.9 0 015.3-1.2c1.7.4 3 1.3 4.4 3zm-2 1.6c-2.6-3.4-5-4.3-7.1-2.5-2.2 1.6-1.9 4.2.7 7.6 2.6 3.4 4.9 4.3 7 2.5 2.3-1.7 2-4.2-.6-7.6zM322.3 234.2l-4.7 2.4.3.8c1.7-.9 2.4-.5 3.2 1.2l3.5 7.3-12.8-6.9-.7.4 4.8 9.9c.7 1.6.7 2.3-.8 3.1l.4.9 4.7-2.5-.3-.7c-1.7.8-2.3.5-3.2-1.2l-3-6.5 11.3 6 3.4-1.6-.4-.8-.3.2c-.8.4-1.3.5-1.8.1l-4-8.2c-.7-1.5-.7-2.2.8-3.1l-.4-.8z"/><path fill-rule="evenodd" clip-rule="evenodd" fill="#FFF" d="M305.5 235.7h-4.6V231h4.6v4.6z"/><path fill-rule="evenodd" clip-rule="evenodd" fill="none" d="M316.8 128s-1.4-3.2-3.8-5.2l-3.3-4.4c-.5-.1-4.6-6.5-8.5-6.5-.3-1.1-4.5-3.6-5.5-4.2-.7-.2-2.8-.9-4.6-1.8-1.8-1.8-10.8-3.3-14.6-3.8-4.6 1-2.6 0-6.2 1.5-5.4.4-9 1.6-12.7 4-2.7 2-3.7 3.8-6.3 6.3l-1.9 2.2c-1.5 2.2-.8 1.6-2.7 4.1-3.7 3.8-3 8-5 11.3l-.2 3"/><path fill-rule="evenodd" clip-rule="evenodd" fill="none" stroke="#000" stroke-width=".7" d="M246.7 121.4a35 35 0 00-5.2 13.2c-.1.5-1.9 2-4.6 6.6l-.6 2.5c-.4.3-1 2.9-1.1 2.9 0 .4-1 1.3-1.5 2.3-.3.8-.3 1.7-.6 1.8l-.6 1.2c-1 2-2.8 5.6-2.8 6.3 0 .9 2.4 6.6 6 8.4.1 0 .2 1.6.7 2.1 1.5 2 6.2 3 6.7 3.4.4.8.5.4 1.3 3.7.7 3.2 3 10.3 8.7 11.9.7.2 2.3 3.3 2.3 3.3s-9.3 1.9-9.3 4c0 3.3 1.2 6.7.1 9.9-1.2 3.3-2.2 5-2 8.4-5.8 3.3-12 7.1-17.8 10.7a88.2 88.2 0 0018.2 11.1h0c16 7.7 33 6.8 33 6.8a74 74 0 0059.7-30l-2.5-2.2c-5.6-5.5-10.9-12-15.5-15l-5.5-6c-.6-.2-4.5-2.3-5-2.9l-1.4-2.5-.1-3.5-.3-4.3.4-3 1.8-.3 4.8-3c1.2 0 3.4-1.2 4.9-1.4l.8-2.5c1.3-2.4 3.5-3.6 5.3-5.4l1-1.4c-.5-.6.8-2 .8-2 0-.4-2.3-.3-2.3-.8l-.2-2c-.2-2.2-.4-.4-.8-3.1-.4-2.8-1.5-2.1-1.6-2.8l-.2-.9c0-.4-.8-.6-1.1-.8v-.8l-2.4-.6-1.3-1.1 2.7-5.4c.5-1.8.6-2.2 0-2.2-.5 0 0-.7.3-.7s.4-.5.3-.8c-.2-.3-.8-.1-.7-.4l.3-1.4-.1-1.5-.3-1.1c-.1-.4-1.4-2.3-2-2.9-.5-.5-2.2.2-2.2.2"/><path fill-rule="evenodd" clip-rule="evenodd" d="M289.9 153.3s.4-.2.4 0c.2 0 0 .7 0 .8-.1.3.8.4.2.9-.1.1-1-1-1.4.1 0 .1.2.1.1.2l-.3.2v.3c-.8 0-1.1-.4-1.8.5-.6.9-1.3.8-1.5 1.7h.6v-.6c.3 0 .5 0 .7.2l.6-.5c1.4-1 .7.7 0 .7-.4 0 .4-.5-.5-.2l.1.4c-1.9.6.2 0 .7.7.5.7-.3.9-1 .9v-.4h-.6v-.3c-.8.8 1.3 1-.8 1.8-.3.1 0 1.2 0 1.8.4 0 0-.6.8-.5.6.1.3 1.1 1.2 1.6.8.4-.1.6-.7.7 0-.8-2.4-2-2.6-2.5-.1.5-.4.6-.5 1.1h.3v-.1c.5-.1 2 1.4 1.9 1.6h-.1c0 .4.3.7.6.7 0 .6-.1.7-.7.7v-.2l-1.1-.5.8 2c-.3.1-.3.4-.7.5 0-.4-.4-.5-.8-.5 0 1.2.7.5.4 2 .7 0 .3.2 1 .2-.1.9-1.2 1.3-1.4 2.4h.4v-.1c.5-.1 1.3 1.2 0 1.3 0-.7-1.7-2.2-2.2-2.2v1c1 0 .9 1.7 1.8 1.7v.3h-.1l-.1.7h.9v.2h.2v.6h-.2l-.1.7h-.1c-.2-.4-2-2.6-2.7-2.6 0 .5 1 2 1.3 2-.1 2.6-1.5-1.4-2.4-1.4 0 1.3 1.3 2 1.1 3.5h.7v.3h.2c0 .7 0 .8-.7.9 0-.8-.9-1.5-.9-1.8-.4 0 0-.3-.8 0l.2.2c0 3.5-.3 1-1.6 1 0 .6.9 1.2 0 1.2 0 .3 1 1.8 1.6 1.8 0 1.7-.7.5-1.3.6-.3.6-.3.9-.7 1.4-.1-.3-.6-.6-.9-.6l-.4.7 1 .8v.4l-.2.7h-.1c-.2-.6-1.9-2.6-2.5-2.6 1 .5 1.2 3 1.8 3-.2 1.3-1.2-.8-1.8-.8 0 .8.7 1.7.6 2.4-.7 0-1.3-1-1.6-1.6v2h-.4c0-.7-1.1-1.5-1.4-2.2 0 .6.4 2.4.8 2.4 0 .3-.2.5-.5.5 0-.3-1.3-2.4-1.7-2.4 0 1.1.9 1.7.8 2.8h-.6c0-.5-1.2-2.6-1.8-2.6 0 1 1 1.7.9 3l-.5.1c0-1-1.5-2.3-1.8-3.1-.2 1.2 1 1.9 1 3.5h-.7c0-1.5-1-1.6-1.5-2.4 0 1 .7 1.3.6 2.6h-.5c0-.3-.9-1.5-1.5-1.4.4.2.5 1 .4 1.4h-.4c0-.4-.6-.7-.8-1l-.3.8h-.7c-.1-.7 0-.6-.3-1.3l-.7.2v.7h-1v-.7l-.9.3v-.5l-.2.9c-1.3 0-1.5 1.6-1.5-.4h-.2l-.2-.3v.5c-1.5 0-2 .3-3 .4v-1l-1.3.2.3.3c-1 .2-.8 0-.7-1h-.4c-.1 1.1.2 1 .2 1.7h.2l.2.7c2.4 1.9 9.7 8 10.5 8.4l1.5.2c2.6 0 16.6-2.9 17.2-6.9.6 0 2.6-1.5 2.7-1.9 1.1-.3 2-2 3-2.3v-.4c1.5-.1 3.8-4.2 5.4-4.7.4-1.5 3-2.7 3.4-4.2 1.1-.3 3.6-6 4.3-6.1l.1-.5h.1c.1 1-1.6 4-2.2 4.2-.4 1.3-2 2.3-2.3 3.5h-.3c0 1.1-4.3 5.5-5 5.7l-1.2 1.1c-.1.4-3.4 3.2-4 3.3 0 .4-4.3 3.8-4.9 4-1.3 3.9-16.5 5.8-17.8 5.8l.2.1v.2h.6a40 40 0 007.6 5.3c0 .1 2.8.4 0 .5v.4c1.5 0 2.5-.3 3.9-.5 2.8-1 2.4-1.2 3.1-1.3v-.2c1.8 0 3-1.8 4.6-2.2.2-.6 5-2 5.4-3.8a10 10 0 002.7-1.9c1-.3 2-2 2.9-2.3-.1 1.1-3.7 4.3-5 4.6-.5 1.6-4.4 3-4.6 3.4-3 .8-5.6 3.6-8.8 4.1v.1l-.4.1c4.2.3 6.9-3.7 10.5-4.3 0-.2 3-2.1 3.3-2.2v.2l-.6.9c-1 .3-8.2 4.6-9 5.4 1.8.3 5.2-3.1 7.2-3.4 0 1-1 1.3-1.3 2.2h-.9c0 1 .2.5 0 1.6h-.1v2.4h.1v1.3h.3v1h.2c0 1 .4 2.3-.9 2.7 0 0-2.5 2-2.7 2-.3 1-3.7 2.3-5 2.4v.1h-.2c-.7 2.6-2.2 6.6-2.5 9.1h.2c-.2 1.5-1.4 1.2-1.4 2.5.3-.5.5-.4 1-.5-.1 1.5-3.3 3.1-1.4 2.6l.7-.1c0 .8-1 1.2-1 2h.6c0 1-.6 1.4-.7 2.4h.2v.9h-.1c-.1 1.1-.6 2.1-1.7 2.7l.6.1v-.1h.3c0 1.3-.9 1.2-1 2.2 4-.1 4-14.5 4.3-13.9 1.3 3.8-1.2 9-1.7 13h-.1l-.1.9h.2v.2c.9 0 1.2-1 1.3-1.8h.2l-.2 1.6h.2v.2c.8 0 1.4-1.2 1.4-.2 1.2-.1 1.4-1.7 1.5-2.7h.2v1.1h-.1v1.6c1-.1.5-.6 1-.7.2-1.9.8-3.5.9-5.3h.3c-.1 2.1-.8 3.9-1 6 2.8 0 5.1-.8 8-1 3.6-.2 6.9-1.2 9.1-1.7 3.9-1 6.4-2.2 12-4.4l14.8-9.2c.7 0 5.4-4.4 5.5-4.8.6-.1 2-1.4 2-2 1.3-.1 1.6-2.4 2.6-2.5 0-.5 2.9-4 3.3-4v-.8l-.2-.2c-1.1 0-23.9-26.2-27.9-26.2v-.2h-.2c0-2-2.7-3.6-.7-7h-.2c0-.8.3-2.5-.9-2.5l.5-2.6h.5c0 1.3.7.8 1 1.5.7-1 1-2 2.3-2.4v.2c.4-.2 1.4-1.7 1.5-2.1l3-1v.2c1.6 0 1.8-.4 3.4-.7l.1-.9h.1l.1-1h.1c.4-2 2.6-1.8 2.8-2.9-.7 0 .5-.7.6-1 1-.2 1.7-2.4 2-3 .3-.5.4.5.6 0 .3-.6 1-2.1 1-2.7.1-.5 0 0 .1 0v-.6c-.8 0-1.3.1-2-.2-.5-.3.1-1.3 0-1.6 0-.3-.1.3-.1 0-.2-1 .1-3-1-3.3-.2 0 .3-.7-.1-.4 1.7 3.9.9 5-1.4 7.7l1.3-2.3c.3-.5.2-2.8 0-3.5 0 0-.1.1-.2 0 0-.5.1-1-.2-1.3-.3-.3-.5-.5.2-.7 0-.4.4-1.3.3-1.7-.2-.5-1.6-1-1.6-1.4-.1-.4 0-1.9-.2-2-.4-.1-1 .3-1.1.3-.3-.3 0-.6 0-.8-1-2.1-2.7 1-3.3-2.8-.3-1.4-.2-1 0-1.7.1-.6-.7.7-.7.1s1.2-1.5 1-2.1c0-.6-.5.4-.6.4-.4.2.4-2 .5-2.3.6-1-.2-.9-.2-1-.2-1 0-1.7.6-2.5.5-.8.9.7.7 1.1-.3.4-.5 1 0 1.8.4.4.1-3.6-.2-3.7-.4-.2-.7 1-1.1 1-.5 0 .4-1.2.4-1.7 0-.6-.9.5-1.1.2-.2-.3.5-.8.6-1.4 0-.3-.4-3.4-.6-3.7-.6-1-1.1 4.4-1.8 3.8-.8-.7 1.7-3.7-.2-5.6 0 0-.4.1-.5-.2-.3-1 0-1.3-.9-1.8-.5-.2 0-.2-.2-.4-.1-.2-1-.4-1.3-.7-.3-.3-.2-1.1-1-.7-1.5.8-.1.9-.8.3l-.7-.2c-.1 0 .5-.7 0-.2-.6.4-.2.7 0 .8.3.1-.7-.2 0 .2 2.4 1.2 3.3 2.3 3.6 4.7.1.5.3-.4.3 0s-2.4 3.7-3 3.3c-.5-.4.5-.9.7-1.4.6-1.9 0-3.2-1.8-3.9-.1 0 .1-.4 0-.2-.3.2.7 1 1 1.3.3.2.5 1.7.3 2.5-.3.7-5.4 3.9-6.1 4l-1.2-.3c-.7-.1 1.8-.5 1.8-.5.7-.1 5.5-3.5 3.3-4.3-.6-.3-.8 1.7-1.5 2.6-1.1 1.3-4 1-4.7.9-1-.2-1 0-.1.4 3.2 1.6-2.8 2-2 3.4.5 1 1.7-1.2 2.4-1.2 1 0-1 1 .4.5.5-.1.7.2 1.6 0 .9 0 3.7-.7 4.6-1.7 1-1-.2-.1-.7.1-.4.3-4.5 1.8-4.8 1-.4-.9 1-.5 1.7-.6.8 0 2.6-1.2 3.2-1 .6.1-.2 0 0 .2s.7-.4 1-.3c.5.2-.2.2 0 .3.3 0 .9-.1 2-.5 1.2-.4 4 0 4.8.7.7.7 0 .4 0 .5 0 0 .3 0 .4.2.2.3.8 3.6 0 2.4l-.5-1.3-.9-.4v-.5l-1.5-.4c-.2 0 1.5-.1 0-.2-1.5-.2-5.1 1.5-6.5 2-1.3.4-1.5-.1-1.9.2-.5.4-.3.4-1.1.6-.9.2-.6-.3-1.1-.1-.6.2-3 .3-2.7.6 1 .9 6 0 7-.2 1.5-.3.8.3 1 .4l2.4-.3c.4 0-.2.2 0 .3.6.1 2.7 1 2.2-.7-.3-.8-.3 0-.4 0-.1 0 .2 0 0-.2-1.3-1.3-3.8.2-4.5-.2-.2-.2 6.3-3 7.6-.5l.2.9c0 .1.2-.2.3 0 1.7 6.9-1.1-1-1.3-.4l-.3 1.3c-1 2.6-7.3 2.6-8.7 1.8-.2 0 .8-.1 0-.2-.7-.2-2.2-.1-2.9-.3-.7 0 1.2-.1 0-.2-1.2 0-4.9.5-5.7.2-1-.2 0-.1 0-.2-.1 0-.1.4-.5 0-.3-.4 1.4-.5.9-.8-.5-.2-1.4.2-1.8.2-.4-.1.3-.2 0-.3h-1.3c-.2 0 0-.5-.6-.2-.5.4.4.6.6.9.3.2 0 1.9.3 2.2.3.3.3 0 .4 0l.4.7c.3.2 1.5.5 1.6.8 0 .3-.3.7 0 1 .8.7 2-.4 2.7-.3 1 .2 1.9-.2 3.7.4.5.2-.2.2 0 .3.2 0 .6 0 1 .2.2.1 1 1.4 1.4 1.3.4-.1-.1 0-.2-.2-.1-.5-.7-1.9.3-1.3l.4.6c.3.3.4-1.2.5.2 0 1.4-4.8 2.7-5.6 2.5-.8 0 .3-.1 0-.2h-1.6c-.3 0 .2-.1 0-.2s-2.4-.6-1.7-1c-.2.3 6.1 0 6.8 0 1.2 0-.3 0-.4-.1v-.3l-.4-.2s.6 0-.3-.4c-.8-.4-4.3-.2-5.3-.5.2-.4-2.4-.7-2.9-.8-.6-.2.5-.1 0-.3l-1.7-.6c-.4-.2-.3-.8-.7-.5-.4.5 2.8 2.2 2.9 2.2 1 .5 5.2.6 6.6.7 1.5 0 0 .1 0 .2 0 0 1.8.1.2.2-1.6 0-5.2 0-5.7-.2-.6-.2.6 0 0-.2-.7-.2-1.3.6-2 .2-.8-.4 0-.4-.2-.4l-1-.2-.1-.5c-.3 0-1.3-.6-1.1-.2 0 .3 2.1 1.3 2.4 1.5.2.1.2.6.4.7.7.3 4.5 1.1 3.8 1.3-.7.1-1.7-.7-2.4-.4-.8.4 2.2 1.2 2.3 1.3.2.3 2.8-.4 3-.5v-.2c1.4 0 5-1.6 5-3.3 0-1.3-.1.1-.2 0v-.4c0-.1-.5-.7.3-.5l1.2 3.4c.3.4.6-1.6.5-1.8 0-.2 0 .3-.2 0l-.2-1.3c-.1-.3-.3 0-.2-.4 0-.4.6.3.7.3.3.7.4 2 .4 3.2 0 .8-1 1.5-.9 2 0 .4.4 0 .7.2.3.1-.2.2.2.4 1.5.7 1.7 1.7 2 3 .1.2 0-.3.2 0 .2.1-3.2 1.3-3.8 2.1-.5.8.2 0-.4-.2l-4-.2c-1.1 0 .3-.2 0-.2h-1.6c-.3 0 .1-.2 0-.2 0 0-2-.3-1.3-.5.7-.3.6.6 1.8 0 1.1-.5-.6-.4-.9-.4-.3 0 .4-.1 0-.2s-.7 0-1.5-.3c-.9-.3 3-.2 3.4-.2.5 0 0-.1-.1-.2-.1 0 .2-.2 0-.2h-1.1c-.3 0 .8-.2 0-.3-2.2-.2-3-.2-5-.6-.4-.1.5-.2 0-.3-1.8-.3-.6 1.7 0 1.2.6-.3 1.5.3.8.6-.7.2.2 1.8.7 2 .5.3.1.6.2.7 0 0 .3-.3.4 0 .2.2.2 1.2.3 1.5 0 .3 0-.3.2 0 0 .3 0 .9.2 1.1.1.3-.3-1 .2 0 .4.8.1-.6.3-1a5 5 0 01-.5-2.2h-.3c-.2-.3 4.9 0 5.8.2.1 0 0 .2 0 .2 2.3.7.4.2-.4.3l-3.1.5h.2c.1 3.1 5 3.5 7 2v-.3c-.6 0-2.7 1.3-3 1-.1 0 0-.1 0-.1-.6-.1-3-.6-2.5-1 1-.6 2.2 0 3.3 0l.3-.3c-.7-.2-1.3.3-1.6.1 0 0 .1-.2 0-.2l-2.2-.4c-.8-1 2.5-.5 2.7-.5v.2c1.5.1 2.6.6 3-1 .1-.3.6-.2.8 0 .2 0-.2.4 0 .6l1.7.2c.1 0 0 .2 0 .2.5 0 2.8.3 2.9-.3 0-.6-1.5 0-1.8 0v-.3c-.8-.1-1.6 0-2.2-.2v-.2c-.1-.1-.3 0-.4 0-.7-.5 2.8-.4 2.6-.4-3-.7-.4-1.4.3-.8.2.3.6 1.3.8.9.5-1-.5-1.1-.9-1.3 0 0 .1-.2 0-.2-.7-.4-1.3.3-1-1.1 0-.3 2-.4 2.3-.5v-.2c2-.4 4.6-2.2 4.3-4.4h-.2c-.5-1.5 1.3-.3 1 .8 0 .1-.8 1.5-.6 1.6.5 0 1.2-1.2.9.2-.2 1-2.7 1.1-3.5 1.4-.9.2 1 1.3 1 1.5.2.2.2.5.3.7l.5.2c0 .2 0 .6.2.9 0 0 .2-.1.2 0v.6h.2c0 4-2.5 3.4-6 3.4v-.2h-.9v-.2s-1.2-.5-.6-.8c.7-.4.8.2.9.2h.9v.3h2.2c.4 0-.4.5.4-.3.2-.2 2-.2 1.4-.8-.1-.1-1 .7-.5-1 .2-.5.2-1.2 0-1.6 0-.1-.2 0-.2 0v-.5l-.7-.4c-.3.7.2.5.3.6.1.3 0 .8.2 1.1h.2c0 2.8-4.2 2.5-5.8 1.4l-.1-.3c0 1 .4 3.2-.3 4-1 .9-.6-.2-.7-.2l-.9.3c-2.4.4-5.8-.5-7.5-2.7-.2.3-.6.4.2.6 1.3.1-.5 1.2-1.4 1-.8 0 0-.3 0-.3 0-.1 0 0-.2 0-.5-.6-.5-1.8-.6-2.7-.1-.6-.2.2-.3 0-.3-1 .1-.7-.8-1.1-.3-.1-1-1.3-1.6-1-.5.2.5.2.7.3.1 0 0 .7.2.9 0 .1.3-.2.4 0 .1 0 0 .3 0 .4 0 0 .4 0 .5.2.3 1 .3 1.4.7 2.3 0 .1.5.3.4.6-.4.7-1.3-1.4-1.3-1.5-.1-.2-.4 0-.5-.2-.4-.9-.2-.9-1-1.6-.5-.6.1 1.3.1 1.3s.2-.2.3 0c.7 1.4-1.6 0-1.1-.2.4-.2 0-1.3 0-1.8-.1 0-.3.2-.3 0l-.3-2.6c-.4.1-.3 1.6-.4 2.2 0 .6-.4-1.9-.4-2s-.2.2-.2 0v-1.1c0-.2-.2.1-.2 0-.2-.4-.1-.8-.3-1.1 0-.1-.1 0-.2 0l-.4-.9c-.1-.1-.3 0-.5-.2-.3-.3-1.8-2.3-2.4-1.8-.2.3 1.4.7.6 1.3-.7.6-1.2-.2-1.3.1-.1.8 2 1.3 1.3 1.4-.7.1-1.4-.5-2-.8s.8 1.4 1.4 1.5c.6.2-.2 1.1-.5.7-.3-.4.6-.7-.6-.6v.1c-1.6.6-.2.3.4.7.7.4 2.6 1 1.3 1.8s-1.5.8-1.5 2.2v.6l.8-1.1zM298.3 114.9c-.4.6-.8 1.5-1.7 1.5-.3-.3-.3-.8-.6-1-.7-.5-.9-1-.9-2 .3 0 .4.5.6.6.7.6 1.3-.3 1.8-.7 2 0-.7-3-.7-3.6.8 0 2.1 2.7 2.1 3.6.4.2 1.8.7 1.8 1.4h.2v.1a5 5 0 01-1 .4c-.2 0 0 .5 0 .5 0-.7-1.7-.7-2-.7l.4-.1z"/><path fill-rule="evenodd" clip-rule="evenodd" d="M251 173.9l-.1.2-.8.3v-.3h-.2l2.1-.8v-.1c.5 0 3.2-.7 3.4-.5.7.7 1.1.3 2.2.2v.2c.9-.1 4.1-1 4.9-.2.4.5-.1-.6.8-.2v.2c.5.2 1 0 1.6.2.2 0-.2.2 0 .2 2.3.2 3.2.4 5.5.4v.2h.5v.3h.2v.2h.2v.2h.2v-.5h-.2v-.2h.4v.3h.3v.2h.2v.4h-.1l-.1-.2h-.4l-.1.4h-.6v-.2h-.2v-.2H269l-.1.2v-.2c-.7 0-1.2.5-1.6.4-.7-.2.3-.6-.4.2-.4.5-.3-1-.6.2 0 .3-.4-.4-.4-.4-.4.2-.5.6-.9.2-.2-.2 0-1-.9-.6-.3 0 .8.5.4 1-.3.5-.5-.5-.6-.6 0 0-.1.2-.2 0 0-.2.2-1.2-.7-.6-.5.3.4.6.5.7.2.8 0 1-.5.1 0 0-.3 0-.4-.2v-.6c-.5-.8-3.6.4-4.1.2-.1 0 0-.4-.4-.2-.4.3-1.6 0-1.5.8 0 .3.5-.4.8-.4.2 0-.2.5 0 .5.3 0 .9-.6 1.2-.5 1.2.5-1.4 1.2-1.8 1.1 0 0-.3-1-.7-.7 0 .1.1.3 0 .4-1.3 1 .3-1 0-1.2-.7-1-.6 1.7-1.5 1-1.1-.7 1-.2-.6-.2-.3 0 0-.8-.5-.6-.7.5-.3-.1-.4-.2l-2.3-.5zM252 164.7v-.3h-.3v-.6c.4.7 1.6.6 2.2.7.2 0-.1.1 0 .2l.6.2c.1 0 .1.4.3.5 2 .4 3.9-1 6.2-1 .4.1-.3.5.4.3.8-.3 1.6 0 2.2 0 2.3-.3 2.6-2.8 1.8-4.3 0-.2-.1.2-.2 0a4 4 0 01-.4-1.2h.4c0 .3.4.3.4.4.8 1.5 2 3.3 2 5.2l-.4.5c-.5.2-4 2-4.4 1.8 0 0 .2-.2 0-.2-.6-.2-3.6 1.5-4 1.3-.1 0 .2-.2 0-.2-1.6-.3-2-.6-4-1.6l-.2-.4c-1-.3-1.6-1.3-2.7-1.3zM277 150l1.3-1c.5-.3.8-2-.3-.8-.4.5-3.2.8-1.5 0l1.4-1h-.3c0-.2.2-.4 0-.5-.7-.4-1 .9-1.6 1-1 .4-4 .7-4.4-1-.2-.8.5-2.8-1.3-1l-.3.3c-1.3.5.5 1 0 1.3-.6.4-.7-.3-.8-.4-.6-.3-2.7.3-2.4-.6.2-.5 5.6-2.7 6.1-2.5.2.1-.2.2 0 .3h1.4c.3 0-.1.2 0 .2l3 1.1c.2 0 0 .2 0 .2.3.2.7.1 1 .3 0 0 0 .4.2.4l1.1.2c.1 0 0 .2 0 .2 1.3.7.2.2.5 1.4 0 .1.1-.1.2 0 .3.7-.7 0-.8.4-.5.8-1.5 1.7-2.5 1.5zM247.7 149.1c-.2 0 .1-.1 0-.2-.4-.1-.8 0-1.1-.2-.1 0 .2-.2 0-.2-.5-.2-1.6.2-1-1.1 1-1.7-1 .3-1.6 0-.6-.3 3.3-2.1 3.4-2.2l1.2-.8c1.5-.4 2.8-.3 4.2.1v.3s.3-.1.4 0c.1 0 0 .3 0 .4l.7.2s0 .4.2.5c.3.1 1.9.6 1.2 1.2-1 1-.7-1.2-1.7-.2-1.2 1.2-4.5 1.7-5-.4-.1-.4.3-2-.7-1-1.9 1.9 2 2.3 1 2.7-.8.4-2-1.1-2.3-.8-.5.5.5.6.6.7l.2.4h.7c.1 0-.1.2 0 .2 1.4.5.9.6-.4.4zM243 172.2c-.5-.8-.2-.4-1.3-.9l-1-.1c-.2-.2-.3-.5-1.1-.6-.8 0-2.5-1-2.7-1.3l-.9-2s.3-.6.2-.7c-1.2-.5-1.1-1-1.5-.5l.9-1.2s-.1.2.1.2h1.4c.6-.1-1.1-.4-1.1-.4l-.3-.5c-.5-.2-1.1-.8-1.6-.2l-1-.4v-.3c-.1 0-.3.2-.4 0-.7-.9 2.3-.6 1-1.3h-1.3s0-.7-.3 0c0 0-1-1-.1-.6 0 0-.2.1 0 .2 1-.8 8.6-5 8.1-6.7 0-.3-.6.8-.7.8-1 .4-.6.2-1 1.2-.3.4-1.3.8-1.6 1-.8.8-3.4 3-4.6 2.5-.7-.2.6-.5.7-.5l.6-.8c-1.6.5-.5-.5 0-.8.3 0 5-2 4.6-3.1 0-.2-2.2 1.4-2.4 1.5-1 .4-1.7.5-2.9.7l-1.8 1.3c-.4-1.7 3.8-2.1 4.3-3 .2-.3-1.7 0-2 0-.2.1 0 .2 0 .3-.7.4-1.3.3-2 1l-1 1.2c-.5-1.3 4.2-4.7 5.2-4.4.5.2-2 1.3.2.8 1-.3 2.9-1.1 3.3-2 .7-1 .8-3 2-3.7.4-.2.7-1.7.6 0l-.7 1.1c-.1.4-1.5 4.9-.3 2.5 0-.1 1.8-4 2-3.1.1.5.1 1.8-.3 2-1 .2-.5 0-.9.8 0 0-1.7 3-1.1 2.7.2 0 1.8-3.5 2.3-2.8.6.7-.9.6-.7 1.3 0 .1.6-.6 1.1-.2 0 0-1 1.6-1.3 1.3-.2-.2.1-1-.4 0-.1.2-.4 1.8 0 1.3.4-.6.3.3.8-.2.5-.6 1.2-.5.6.2-.3.4-.7 1.2-.6 1.8 0 .1.7.2.5.6h-.3l-.2 1.8c.2.3.6-.2.7 0 .2.3-.5 2.4 0 2 0 0 .8-1.7 1-1.5.4.4-1 2.1-.8 2.9 0 0 .9-.2.3.4-.2.3-.9 1.9-.3 1.5 1.4-.8-.6 1.3-.2 2 .1.2.7-.4.4.7-.4 1.7.9-.6.5 1 0 .2-.9 1.5-.7 1.7.1 0 1.4-.2.6.6l-.5.9zM243.7 235v-.1c-.5 0-1.2-.7-1.8-.7v-.2h-.2v-1c1.3-4.4 3.5-8 3.7-13.8l.1-1.6-.2-.1.2-.1v-4l-.1-1.2c.1-3.3 1.7-6.3 2.2-9.5.1-1.6-.1-4.1.4-5.3l.1.2h.2v5l.2-.1c.1-1.5.5-3.6.9-5.3.9 5.7-1.8 10.8-2.2 16.4h.2v.5h.3c.3-5.8 2.2-11.7 2.8-17.6v.3h.3c0 6-1.8 12-2 18l.2-.1c.3-6.1 2.4-12.4 2.5-18.6h.4v.2h.2c0 5.6-1.7 11-2 16.6h-.1v2.3h.1l.1-1.8h.1c.6-5.6 2.2-11.5 2.3-17.3h.4v.2h.2c0 3.1-.4 6.4-.6 9.8h.2c.9-3.4 1-6.2 1.2-9.6.5-1.2 4.6 4 1.9 4.5v.1c-1.6.5.7 2.7 1.8 2.7v.4h-.7v.7h-.2v.7c1.4-.2 2.4 2.4 3 3.3l2.3 1v.1c-.8 0-1 .2-1.3.2l-.5-.8s-2.8 2-.7 2v.2l2.3 1-2.7 1.2h.4s-1.1 1-.4 1v.3c-.6.1-2.7 1-2.6 1.9.4 0 .6 0 .7-.2 2 0-.5.3-.8 1.2l-2.1.9c-.1.5-.3 1-.7 1.1v-1.1l-.3.8c0 .5-2.4 1.9-1.5 1.9.1 0-4.6 4.4-4.9 6.9.5 1.1 1.5-.5 1.8 0 .4.7-3.1 2.6-1.6 3.1v.1h-.6v-.6h-.2c-.2 1 0 1.5-.3 2.4-1.2 0-2.4 2-2.4 1.6z"/><path fill-rule="evenodd" clip-rule="evenodd" d="M226.7 223.8l17.6-10.3h.2v2.3h.2v2.1h-.1l-.1 3.8h-.1c-.4 3.8-2.4 6.7-3 10.1h-.2l-.3.9c-3.8-1.8-11-7.3-14.2-8.9zM315 154.2l.1-.6h.1v-1.1h-.2v-.2h-.2v-.3h-.2v-.2h-.2v-.2l-.2-.1h.4v.1h.2v.2h.2v.3h.2v.2h.3v.6h.2c0 .4-.2 1.3-.7 1.3zM279.7 176.3c0-.2-.3-.4-.5-.4v-.6l.8 1h-.3zM276.5 176.8l.1-.6.3.5h-.4zM278.3 177.4l-.2-.8c.5 0 .6.3.6.8h-.4zM276.3 177.9l-.2-.2c.1-.7.4-.2.4.1h-.2zM277.2 179.5c-.4-.1-.7-.3-.2-.7.4-.4 1.4 1 .2.7zM278 179.9c1 0 1.5.5.6 1.3-.2.2-.7-1.3-.5-1.3zM276.8 181.7c-.3 0-1-.7-.3-.7.6 0 1.2.6.3.7zM260 188.3c-1.5-.2.5-1 .3-.6l-.3.6zM258.1 187.6l.1-.4h.1v-.1c1.3-.2-.2.9-.2.5zM256.1 187.9l.1-.4h.1v-.2h.5l-.7.6zM281.6 138.8h.4v.2l-.4-.2zM283 139.6c-.5-.5.3-.6 0 0zM294.7 150c0-1.3-1.6-3-2-3.5-1.2-1.5-.4-.1-.5-.2l-.6-1.1h-.5c-.1 0-.5-.9-.7-1-.3 0-2-1-2.2-1-.4.1-.6-1.8.2.2s-.5 0-1-.3l-1.8-.6c-.3-.2 0-.4-.2-.5-.2 0-2.3-1.1-2-1.4.2-.2.3.2.6.4 1 .5 2.1 1 3.1 1.3 3.3 1-4-2.2-3.3-2.9.3-.3 2.5 1.3 2.6 1.4.2 0 0 .1 0 .2l1.1.4c.3.1 1.1 1.4 1.4 1.6 1.7.8 2.8 1 3.8 3 0 .2 1 .3 1.3 1 .2.6.9 2 .8 3h-.1z"/><path fill-rule="evenodd" clip-rule="evenodd" d="M288.2 146c-.3-.9-4-3.6-3.9-3.7.3-.3-.3.1.1.2l1.6.5c.4.1-.3.1.2.4 2 1 2.1 2.9 2 2.6zM287.6 146.7l-.2-.4-1-.5-.4-.6h-.4c-.1-.1-.7-1.3.2-.9.8.4 0 .4.2.5l1.5 1c0 .1.3 1.1 0 1zM288.3 137l-3.3-2.5c-.3-.2-.6-1 .2-.4.7.7 2 1.4 2.6 1.9.4.3 4 3.1 2 2.5l-1.5-1.6z"/><path fill-rule="evenodd" clip-rule="evenodd" d="M285.8 136.5l-1.5-1s-1-1.2-.4-.7c1.8 1.3 3.7 2.4 5.4 3.9 1 1 2.8 1.5 3.5 2.6 1 1.3-2.6-1.4-2.1-.6 0 .3.6.3 1 .9.4.6 2.1 4 4.6 5 2.5.8 5.7 2 9.3 1.3 1.9-.4 3.7-.6 4 1.5.2 1.5-.3.5-.2 1.4.2.8-1.5-1.2-4-1.3-2-.1 1.3-.8-.7-.8-5.4 0-9-.8-12.5-5.2-2.5-3.3-6-5.2-7.4-6.2-4-3.1 1.3.2 2.2.9l1.7 1.3c.2 0 .8.1-.1-.7l-2.8-2.3z"/><path fill-rule="evenodd" clip-rule="evenodd" d="M287.8 141s0-.2-.2-.2c-.6-1.6-4.9-1.6-4.9-3.7.3 0 1 .7 1 1 .6 0 1.5.7 2 .7 0 .1 2.6 2.1 2.9 2.1.4.5 1.3.5 1.8 1 .5.4 1 1.1 1.3 1.7.3.3.7.5.7.9-1.3 0-3.2-3.4-4.6-3.4zM307.6 152.2h-1.3l-.3-.2v-.2l1.3-.1v-.4c-.3-.2-1.1-.4-1.6-.4 0-1.5 3 .5 3 .5v.3l-1-.2v.7zM300.4 146.2c-.6-.2 1.8 0 .9 0h-.9z"/><path fill-rule="evenodd" clip-rule="evenodd" d="M301.5 146.3c-.2-.2 0-.4.3-.3 0 .2-.2.4-.3.3zM251.8 187.6c.6.3 2.6.6 1 0h-1zM243.5 173.3c0-.4 0-.4.3-.6v.6h-.3zM246 175v-.6c.7 0 .3-.5 1-.5 0 .6-.5 1-1 1.1zM244.8 173.9c.1-.5.4-.7.9-.8l-.9.8zM254.3 174.8v-.2h.3v.2h-.3zM248.4 175v-.4l.1.4h-.1zM244.4 175v-.4l.1.4h-.1zM269 172.9v-.5l.2.3h.2v.1h-.4zM270.8 172.9v-.3h-.3l.7-.2v.3h.2v.1h-.6zM259.2 175.7c-1.2-.6 1.5-.1.8 0h-.8zM245.3 175.9c-.2-1 .7-.5.1 0 0 0-.1.1-.1 0zM262 176.1c-.3-.2-.9-.8.1-.6.3 0 0 .8-.2.6zM249.5 176c0-.2.5-.4.6-.2.1.2-.5.4-.6.2zM254.1 176.2c0-.4.7-.2.4.1h-.4zM246.6 176.3c0-.4.6-.8.6-.5 0 0-.6.7-.6.5zM247.7 177.2c-.3-.2.2-.6.4-.4.2.2-.2.6-.4.4zM265.4 177.3c0-.4.7-.2.4.1h-.4zM262.8 177.4c-.3-.2.1-.6.4-.4.2.2-.2.7-.4.4zM254.6 177.4c-.3-.6.3-.4.6-.3l-.6.3zM249.5 177.6c0-.2.4-.4.5-.3.6 0-.4.8-.5.3zM253 177.9c-.4-.4.4-.6.7-.3.1.1-.5.4-.7.3zM245.3 177.9c-.1-.2 0-.7.2-.8 1-.4 0 1.1-.2.8zM263.9 178.2c0-.3.4-.3.6-.2 0 0-.6.4-.6.2zM262.6 178.3c-.4-.2.2-.6.6-.4.4.2-.3.6-.6.4zM260.1 178.2c.1-.2.6 0 .4 0 0 0-.4.1-.4 0zM258.8 178.2l.2-.2c.8-.4.5.7-.2.2zM261.5 178.5c-.3-.2.1-.6.4-.4.2.3-.2.7-.4.4zM251.5 178.5c-.1-.6 1.3-1 .1 0 0 0-.1.1-.1 0zM246.2 178.4c0-.2.7-.9.5-.1 0 .3-.6.3-.5.1zM271.6 178.7c0-.5.8-.3.4 0 0 .1-.3 0-.4 0zM265.9 178.8c-.1-.5.2-.6.1 0h-.1zM248.1 179c0-.7 1.8-1.4.2 0h-.2zM250.2 179.4c-.2-.5.3-.6.4-.3l-.4.3zM264.1 179.5h.2v-.5c1-.5 1 1-.2.5zM258.4 179.6c-.5-.2.2-.6.6-.4.3.3-.3.6-.6.4zM257.3 179.6c-.2-.4.3-.5.4-.3 0 .1-.4.5-.4.3zM275.4 179.9c-.4-.6.4-.7.2 0h-.2zM262.6 179.9c-.5-.3.8-1 .8-.4 0 .3-.6.5-.8.4zM261.3 179.8c-.2-.1 0-.2.2-.3.8-.4.4.8-.2.3zM259.7 179.9c-.4-.3.2-.7.6-.4.4.2-.3.6-.6.4zM255.7 179.9c-.3-.3.4-.8.6-.4.2.4-.3.5-.6.4zM266.1 180.1c-.1-.1.1-.5.2-.6 1-.4 0 1-.2.6zM270.5 180.3c-.1-.5.3-.6.4-.3l-.4.3zM251.3 180.3c-.3-.2.1-.7.4-.4.2.2-.2.7-.4.4zM248.8 180.3c-.1-.5.3-.6.4-.3 0 0-.3.5-.4.3zM246.6 180.6v-.4c.9-2 .6 1.1 0 .4zM264.3 180.7c0-.2.4-.3.6-.3.6 0-.5.8-.6.3zM267.7 181c-.2-1.3 1-.6 0 0 0 0 0 .1 0 0zM258.1 181c-1.2-.6 1.5-.1.8 0h-.8zM257 181c-.2-.5.3-.6.4-.3 0 0-.3.4-.4.3zM262.4 181.1c-.2 0 0-.2.2-.2 1.1-.4.8.7-.2.2zM260.8 181.1l.2-.1c.8-.7 1.2.5-.2.1zM259.7 181.2c-.3-.2.1-.6.4-.4.2.2-.2.6-.4.4zM252.8 181.2c-.3-.3.8-.9.6-.2 0 .1-.5.4-.6.2zM274.8 181.4s-.4-.4-.3-.6c.6-.6.5 1 .3.6zM255.7 181.3c0-.4.7-.2.4.1-.1.1-.4 0-.4 0zM250 181.4c0-1 .8-.5 0 0 0 0 0 .1 0 0zM271.2 181.7c-.5-.7.7-.1.4 0h-.4zM247.5 181.9c-.2-.2.3-.9.5-.9s-.2 1.3-.5.9zM273.2 182.1c0-.5.3-.5.2 0h-.2zM254.1 182c-.2-.6 1.4 0 .4 0 0 0-.3.1-.4 0zM251.3 182.1c-.3-.4 1-1.1.6-.3-.1.2-.5.5-.6.3zM267.9 182.3c-.4-.2.2-.6.6-.4.4.2-.3.6-.6.4zM261.3 182.2c0-.2.6 0 .3 0h-.3zM258.8 182.3c-.2-.5.3-.6.4-.3l-.4.3zM257.5 182.2c-.1 0 0-.2.2-.2.8-.4.4.7-.2.2zM248.8 182.5c0-.6 1.4-1 .2 0 0 0-.1.1-.2 0zM262.8 182.8c-.1-.5.2-.6.1 0h-.1zM256.4 182.8c-.1-.5.2-.6.1 0h-.1zM270.3 183s-.3-.5-.2-.6c.4-.5 1 1 .2.6zM266.1 182.9c-.2-.1 0-.2.2-.2 1.2-.4.8.7-.2.2zM263.7 183c-.8-.4 1-.7.3 0h-.3zM252.6 183c-.3-.3.7-1 .6-.3 0 .2-.5.4-.6.3zM272 183.4s-.3-.5-.1-.6c.8-.6.9 1 .2.6zM269 183.4c-.3-.2.2-.6.4-.4.2.2-.2.6-.4.4zM251.7 183.5c0-.4.7-.2.4.1-.1.1-.4 0-.4 0zM274.3 183.9s-.3-.6-.2-.9c.3-.5 1 1.3.2.9zM267.5 183.9c-.4-.3.4-.8.6-.4.2.4-.4.5-.6.4zM267 183.8c0-.2.3 0 .2 0h-.2zM265.7 184c-.8-.3 1-.6.3 0h-.3zM254 184c-.3-.4.2-.5.3-.2 0 0-.3.4-.4.3zM249 184.5c-.4-.5.3-1 .2 0h-.1zM273.4 185c0-.1-.6-1.5.2-1.1.2 0 .6 1.4-.2 1zM271.6 185c-.1-.2 0-.4-.2-.7 0-.1-.3 0-.2-.1 1.2-.5.6 1 .4.8zM252.6 184.9c-.1-.5.7-.3.4 0-.1.1-.4 0-.4 0zM270.3 185.2l.2-.4-.2.4zM267 185.4c-.2 0-.5-.7-.4-.8 0-.1 1.4 1.3.4.8zM269.2 185.6c-.2-.3-.8-.2-.4-.8.5-.7.8 1.3.4.8zM250 185.8c-.1 0-.4-.4-.3-.6.6-.6.5 1 .2.6zM263.9 186.1c-.1-.2.2-.3.1 0h-.1zM265.9 186.5c-.6-.6.6 0 .3 0h-.3zM252.8 186.7c0-.5.7-.3.4 0-.1.1-.4 0-.4 0zM264.8 187.2c-.5-.6.4-.6.1 0h-.1zM254.6 187.2c-.3-.6.5-.6.2 0 0 0-.2.1-.2 0zM251 187.2c-.2-.2-.2-1.9.7-1.3 0 0-.2 1.9-.7 1.3zM262.4 187.4l.6-.3c.1.1-.5.5-.6.3zM252 171.7v-.4l.3.1-.4.3zM251.5 162.6h.4-.4zM255.5 163.3v-.4h.4v.4h-.4zM255.3 164.9v-.2l-.5-.1h1.8l-.3.2h-1zM256.8 164.3l.9-.3v.4h-.9z"/><path fill-rule="evenodd" clip-rule="evenodd" d="M254.3 174.8v-.2h.3v.2h-.3zM260.8 213.7l.6-.3v.4l-.6-.1zM284.7 206v-.4h.6v.4h-.6zM279.2 206.4l1-.2-.4.1v.2l-.6-.1zM283.6 208.5v-.4h.4v-.2h.4c-.4.3-.3.5-.8.6zM281.6 209l.4-.1v-.1h.2l-.2.3h-.4zM284.2 209.2h.4v.1h-.4zM282 210.4h.7-.7zM285.1 210.7v-.4h.5l-.5.4zM283.6 211.6v-.4h.6l-.6.4zM284.5 212.7v-.4l.1.4h-.1zM283 212.8h.3-.4zM270.3 241.3c-.2-.3 1.2-1.5.6-.3 0 .1-.5.4-.6.3zM262.1 240.9c0-.9.8-.6.1 0zM265.7 240.9l.5-1c.3.8-.5 1-.5 1zM268.8 240.5h.2c.6-.8.2.5-.2 0zM267.7 240l-.2-.5c-.4-.6.3-.1.6-.2 0 0 .4-.7.6-.4.3.1-.7 1.2-1 1zM270.3 239.7c0-.5.3-1.5 1-1.2.1 0-1 1.4-1 1.2zM265.2 239.3c-.2-1 .4-.7 1-.6l-1 .6zM266.5 239c0-.3 1.2-2 .9-.4l-.9.5zM269.2 238.5l.7-.9c1-.4-.3 1.3-.7 1zM255 238.3l.2-.1c.7-.7.3.6-.2 0zM271.9 238.2c-.2-.2.3-.7.5-.9 1.3-1.3-.1 1.4-.5.9zM265.9 237.7c-.1-.1.2-.5.3-.6.7-.7 0 1.1-.3.6zM268.3 237.5c-.2-.3 1.3-1.5.6-.2 0 0-.4.4-.6.2zM264.6 237.3c0-.8.7-.6 0 0zM250.2 236.7c-.2 0 1-1.1.6-.1-.1.1-.5.3-.6.1zM255.3 236.9l-.3-.5c-.1 0-1 0-.2-.4.2-.2.5-1 1-1.2 1.2-.7 1.3.6.7 1.1l-.4.1v.6l-.8.3zM271 236.7h.2v-.5c1-.5.8 1-.2.5zM256.8 236.5s1.3-.8.8-.1c0 0-.7.2-.8.1zM259.9 236.5l1.1-.2s-.7.7-1.1.2zM267.5 236.4c0-.2 0-.7.2-.8 1.2-.5-.2 1-.2.8zM253.5 236.2c-.2-.7 1.1-.8.1 0h-.1z"/><path fill-rule="evenodd" clip-rule="evenodd" d="M255.9 236c-.1-.3.2-.8.2-.1l-.2.1zM265.4 235.9l.2-.1c.7-.7.3.5-.2 0zM251.5 235.8c-.1-1.2.7-.7.2-.3l-.2.3zM263.9 235.8c-.3-.7.8-.6.1 0h-.1zM271.9 235.8c-.3-1.2 2-1.2.4-.4l-.4.4zM255.7 235.6c-.2-.3.1-.4.2-.2l-.2.2zM250 235.4c-.2 0 1.1-.8.4 0-.1 0-.2.3-.5 0zM257.5 235.5c-.2-.3 0-.7 0-1 0-.1 0 .2.2.2 1.6.7-.2 1-.2.8zM259.9 235.4s1.6-1 .8-.1c-.2.2-.4.3-.8.1zM268.8 235c-.4-.4 1.7-1.3.5-.1-.1 0-.3.4-.5.2zM249 234.8l.5-.4v-.4c1.1-.7-.5 1.3-.4.8zM252.4 234.9c0-.2.3-1.3.6-.9.3.5-.6 1-.6.9zM266.8 234.9c-.3-.6.8-.6.1 0h-.1zM271 234.7c0-.6 1.3-2.8 1.2-1.4 0 0-1.2 1.6-1.2 1.4zM251 234.4c-.4-.4 1.2-.9.5-.2 0 .1-.2.4-.5.2zM255.3 234c-.3-.7.7-.6.1 0h-.1zM258 233.7c-.4-.7 1.9-.7.1-.1 0 0-.1.3-.2.1zM260.6 233.6c-.1 0 1.4-1 .6-.1-.2.1-.4.3-.6.1zM267.9 233.7c-.4-.5 1.3-.8.4 0-.1 0-.3.1-.4 0zM270.1 233.4c-.1-.1.9-.4.4 0-.1.2-.3 0-.4 0zM253.5 233.3c-.5-.2.2-.9.4-.6.2.2 0 .8-.4.6zM265.9 233.2c-.2-.2.9-.5.3 0h-.3zM257.7 232.7l.4.1h-.4zM255.3 232.5s1.3-.8.8-.1c0 0-.7.2-.8.1zM269 232.3c-.1-.1.9-.4.4 0-.1.2-.3 0-.4 0zM271 232.4c0-.2.5-.9.5-.8.3.6-.5.9-.5.8zM256.6 231.6c-.2-.1.9-.4.4.1-.1.1-.3 0-.4 0zM267.9 231s0-.5.6 0h-.6zM269.9 231c-.1-.1 1.2-.9.5-.1-.2 0-.3.3-.5 0zM272.5 230.9c-.1-1.1 1.2-1 .7-.5l-.7.5zM257.7 230.4c-.1-.6 1.4-1.3.4-.2l-.4.2zM269 229.9l.5-.8c.2.4 0 1.2-.5.8zM271.4 229.8c0-.9 1.2-1 .3-.3l-.3.3zM272.5 228.9c0-.6 1-1 .4-.3l-.4.3zM268.1 228.7s.5-2 .6-1.1c0 0-.1 1.7-.6 1zM270.3 228.4c-.7-.6 1.3-.3.4 0-.1 0-.3.1-.4 0zM259.7 228.2c-.3-.3.1-.7.4-.4.2.2-.2.6-.4.4zM269.2 227.7c-.3-.3.8-1 .4 0 0 .1-.3.1-.4 0zM273.9 227.7c-.5-.4 1-.8.5-.2-.1.1-.3.5-.5.2zM259.5 227.3c-.3-.3.1-.7.4-.4.2.2-.2.6-.4.4zM271.6 227.3c0-.7 1.2-.8.2 0h-.2zM252.4 227c-.1-.5 1.7-1.2 2.1-1.5 1.9-.9-2.1 1.7-2.1 1.6zM261.3 226.6c-.3-.6.7-.5.1 0h-.1zM269 226.6c-.3 0-.1-1.3.2-1.4.5-.1 1 .1.7-.8-.5-1.8.5-.4.6-.6.3-.8-.2-.6-.2-.7 0-.7.4-1.3.2-1.8h-.2c0-.2.7-1.4.9-1.5.1-.2 2-.8 1.1 0-.5.6-.3-.2-.5 1 0 .3-.6.3-.6.3-.3.2.6.6.6.6-.7.5.2.6.2.6.6 1.4-2 2-1.7 3 0 .1.2 0 .2 0l.2 1c-.4 1.3-.8-.5-.8-.5-1-.5 0 1.3-.9.8zM258 226.4c0-.8.7-.6 0 0zM273 226.4c-.5-.4 1.1-.8.5-.2-.1.1-.3.4-.5.2zM260.8 226l.2.2-.2-.1zM274.5 225.8c-.6-.7 1.4-.4.4 0h-.4z"/><path fill-rule="evenodd" clip-rule="evenodd" d="M271.2 225.5v-1l.2.2h.6c.3.2-.7 1.1-.8.8zM272.7 224.9c-.1-.8 1.5-.8.2-.2 0 0-.1.3-.2.2zM255.3 224.3c-.2 0 2.3-.7 1.2-.1-.3.2-.8.3-1.2.1zM274.3 224.2c-.7-.7 1.3-.3.4 0-.1 0-.3.1-.4 0zM255 223.8c0-.5.3-.6.2 0h-.2zM272.7 223.1c-.2-.6.3-.4.7-.3l-.7.3zM271.2 223c-.3-.1-.2-1 .4-.6.6.4.2.7-.4.5zM255.3 222.8s.4-.4.8-.2c0 0-.3.4-.8.2zM273.9 222.7c-.1-.5.2-.6.1 0h-.1zM258.4 222.3l.3.1h-.3zM258.4 222c-.2-.8.6-.8 1.2-1.1.7-.4.2-.7.7-.4.5.3 1 .1.2.6l-2.1 1zM275 222s.6-3 .6-.5c0 0-.4 1-.6.5zM263.9 221.8l-.2-.5h-.5c.8-.9 1 .7.7.5zM256.1 221.4s.5-.4.9-.2c0 0-.4.5-.9.2zM272.3 221.3c-.7-.7 1.3-.3.4 0-.1 0-.3.1-.4 0zM264.3 221.1v-.2c-1.5-1.1 2.8-1.4 1.7-.3-.5.5-.7-.6-1-.2-.2.3.3 1-.7.7zM257.3 220.7c-.3-.3.1-.7.4-.4.2.2-.2.6-.4.4zM273.4 220.7c-.3-.3.6-.8.7-1 .5-1.7.5 1.8-.7 1zM260.8 220.2c-.3-.6 1.2-.5 1.5-.9l.3-.5c2-.2 0 .3 0 .3-.2.2 0 .5-.1.6-.3.2-1 .1-1.5.4 0 0-.1.3-.2.1zM272.7 219.6c-.2-.2.7-1 1-.9 0 0-.3 1.3-1 .9zM266.8 219c-.3 0 2.9-1.4 1.8-.3-.5.5-1 .4-1.8.3zM271.9 219.1v-.2h-.3c0-.1.1-.3 0-.4 0-.1-.2 0-.2 0-.2-1.3.2-.6.9-.7.8-.2 0 .1-.2.7 0 0 0 .8-.2.6zM259.5 218c-.2 0 .2-.7.2-.6.4.4.3 1-.2.6zM260.3 217.5l.2-.1c.3-.7-.4-.4 0-.8a11 11 0 013-.5c.7.3-1.4.4-1.4.4-.1 0 0 .3 0 .4h-.9c-.2.1.2 1-.9.6zM271.6 217.1c-.5-.8 1-.9.4 0 0 0-.3.1-.4 0zM258.8 216.7c-.3-.3.1-.7.4-.4.2.2-.2.6-.4.4zM244 156.3v-.5h.4v.4h-.4zM244.4 158l-.3.2c0-.3 0-.6.5-.6.1.2-.1.3-.1.4zM246.5 158.3l-.2.1c-1 0 .5-.6.2-.1zM245 159.5c0 .2-.2.2-.2.3h-.3c0-.3.1-.4.3-.6.4 0 .5.1.2.3zM245.7 161l-.6.5c0-1 0-.7.8-.7l-.2.2zM244.4 162.3c0 .2-.4.6-.7.6-.2-.6.5-.7.5-1h.4s0 .4-.2.4zM246 162.8c-.2.1-.3.3-.5.3v-.7l.5.1v.3zM244.8 164c-.5 0-.3.4-.9.4 0-.3.6-.8.9-.8v.3zM247 164l-.3.1c0-.2.2-.2.4-.2v.1zM245.6 164.8l.1.5h-.6l.5-.5zM244.5 166c0 .3-.3.4-.4.6l.5-.8v.2zM246.4 166l-.1.3-.4-.1.5-.2zM245 167.4l-.4.5h-.2l.7-.5zM245.8 168.3h.7l-.4.3h-.3v-.3zM244.2 169.8c1.6-1.1.5 1-.2.3l.2-.3zM246.2 170.5c-.6-.3.2-.8.3-.4 0 .3-.3.4-.3.4zM247.7 171.4s0-.4.1-.3c.4.2 0 .5-.1.3zM246.1 172.3c1.3-1 1 1 0 0zM244.4 172s0-.6.3-.7c1.3-.2-.3 1.2-.3.7zM256.4 148h.4-.4zM255.7 149.7l.3-.3v.4l-.3-.1zM255.5 151.2v-.5l.2.5h-.2zM254.3 152.1l.1-.6.1.6h-.2zM254 153.4v-.5l.3.1-.4.4zM254.6 154.2v-.3h.4v.3h-.4zM253.8 155.4h.7v.2l-.7-.2zM254 157.4v-.4.3zM253.2 158.8l.3-.3.1.4-.4-.1zM254.5 159.9h.4v.1l-.4-.1zM252.6 160.7v-.4h.4l-.4.4zM249.3 158.1l.2-.2h.2l-.3.3h-.1zM247.6 157.2h.6v.1h-.6zM250.4 150.3v-.5h.4v.4h-.4zM251 149.1v-.4l.5.1-.5.3zM249.5 149h.8v.2l-.8-.2zM260.1 160s-.3-.6 0-.5c.7 0 .2.2.6.4l-.6.1zM261 159.1c-.2-.3.1-.4.2-.6.1-.2 0 1-.2.6zM259.9 161h.6v.3l-.6-.3zM260.3 162.7l-.2-.6h.4l.2.2-.4.4zM260.3 163.6s.2-.3-.2-.3v-.4h.4l.5.6h-.7zM259.4 163.4c-.1 0 0-1.1.2 0h-.2zM259 162.5s0-1.2.2 0h-.2zM262.8 164c-.3 0 .4-.7-.2-.7v-.4l.6.3v.8h-.4zM263.9 163.8l-.1-1.5.5.4v1h-.4zM264.8 163.1c-.4 0 .5-1-.2-1v-.5h.4l.4.5-.3 1h-.3zM268.6 151.8h-.5v-.9l.4.8h.1zM267.4 153.1c0-.8-1.8-1.5-1.4-2.7 0-.1.1-.1.2 0 0 1.1 2 2.3 2 3.4-.3 0-.6-.4-.8-.7zM267 154.5l-.7-1.1c1 0 1.5 1.5 1.5 2.2h-.2c0-.2-.4-1.1-.6-1.1zM265.6 154.8l-.1-.4v-.3c.6 0 2 2.6 1.5 2.5a9 9 0 01-1.4-1.8zM266.5 158c-.4-.3-.8-.6-.8-1.1 1 0 1 .5 1 1.1h-.2zM261 157.4c-.3-.4-1-.2-1-.9.2 0 3.4 1.4 2.7 2.2l-1.8-1.3zM261 154.4c-.3-.2-1.2-.3-1.2-.9l.4-.1.4.3.7.2c0 .8 3.3 3 2.8 3.4-.5 0-.6-.3-.9-.5-.7 0 .2.7 0 1l-.2.2h-.2c0-.8-3.2-3.2-3.1-3.2.5-.3 2.3 1.4 3 1.4 0-.2-1.5-1.8-1.7-1.8zM262.4 154.3l-2.4-2c1.1-1 4.5 2.9 4.5 4.5 0 0-2-2-2.1-2.5z"/><path fill-rule="evenodd" clip-rule="evenodd" d="M262.2 152.6l-1.3-1.2s-.5-1.1 0-.6c1.3 1.2 3.8 2.6 3.8 4.5 0 .7-.7-.8-.8-.9l-1.7-1.8zM262.6 151.4l-1.4-1s-.7-1.2 0-.8c1.5 1 2.8 2.1 3.7 3.7.5 1-2.1-1.7-2.3-1.9zM262.7 149.9s-1.6-.8-1.6-1.4c1.1 0 2.7 2 3.5 2l-.1-.5c-.3-.3-.8-.5-.8-1h.4c.6.6 1 1.3 1.4 2v.2c-.4 0-.3-.5-1-.5 0 .4.6 1 .8 1.2l.2.6c-.4.4-.5-.6-.7-.6 0-.4-1.8-1.7-2-2l.2.3-.3-.3zM270.5 147.7c-.5-.7 1 0 .6 0-.2 0-.4.2-.6 0zM272.5 149.3l.4-.4v.3h.5c.1 0-.6.3-.9.1zM274.1 149.3l.9-.6s-.1.2 0 .2l.4.1c.2.4-1.2.3-1.3.3zM275 150c-.1 0 0-.1 0-.2 0 0-.3 0-.2-.1 1-.4 3-1 .6 0v.3h-.4zM276 151.8s.1-.2 0-.2c0-.1-.5 0-.4-.1.8-.4 1.4.2.5.3zM277.2 151.6c-.1 0-.1-.4 0-.4 2-1 2-1.8 1.7 0-.6 0-1 .3-1.7.4zM278.3 152c-.1 0 0-.4 0-.4.6.4.5.4 0 .4zM279.2 151.6c0-1.2.7.6 0 0zM280.3 152v-.6c.4 0 0 .9 0 .6zM280.3 151v-.3c-1.4-.5-.7 0-.2-1.5h.6c0 1.3.5 1.2-.4 1.7zM279.2 153c-.6 0 .4-.7.6-.7v.6h-.6zM278.3 153.4h0zM259.9 142.5v-.4l.2.3h-.2zM261 138.7h.9v.2l-.9-.2zM263 138.8l.3-.2.3.2v.1h-.6zM264.8 138.7v-.4l.4.1-.4.3zM248.1 150c.3-.6.7 0 .9 0l-.8.3-.1-.2zM248 150.7c1.4.7-.3.8-.3.3-.4 0 0-.3.4-.3zM243.5 151.1c0 .1-.5.2-.5.5v-.5c0-.3.4-.5.5-.8.8 0 .3.5 0 .8zM243 148.5c.1 1-.9 0 0 0zM243.3 148h-.2v-.2h-.3c0-.5 0-.4.5-.4 0 .3.3.2 0 .4v.1zM239.6 147.3c0-.6.5-1.5.8-2h.1v1l.7.1c0 .4-.3.5-.3.9-.8-.2-.8 0-1.3 0zM233.5 153c0-.7.5-1.6.8-2.1h.1v1l.7.1c0 .4-.3.5-.3.9-.8-.2-.7 0-1.3 0zM236.6 152.8h-1l.3-.3c2 0 2.4-2.3 3.3-3.6l-.1-.1c0-1 1-.9 1.8-.9v.2c-1 0-1.9 4.6-4.3 4.7z"/><path fill-rule="evenodd" clip-rule="evenodd" d="M235.3 149.2s0-.7.8-1.7c2.6-3 1.5-6.4 3.2-10 0 0 1.8-2 1-.4-1.2 2.8-1.1 5.6-2.3 8.4l-.2.7c1.8-3.3 2.2-6.7 4-9.9 0 0-1 .4-1.1.7-1.3 2.7-.2 5.5-1.5 8-.4 1-1.4 2.1-1.4 3 0 .5-.7 3.2-1 3.3-1 .5 1.3-3.9-.2-1.5l-.6 1.5c0-.8-.1-1.9.3-2.6.2-.4-.1-.7-.2-.3l-.7 1.5v-.7zM230.2 156.8v-.5h.3v.5h-.3zM311.7 127.6c0-1-1.3-3-2-3.3-.7-.3.2 0-.2-.4s-2-.6-2.6-1.1 1.4-.2 1.5-.2c0 0 0 .4.2.4h.6c.2 0 0 .2 0 .2.1.1.6.1 1 .5l1.5 2c.6.6.1 2.9 0 2zM303.5 129c.3-.1 1.4-1 1.5-.5.4 1.4-3 1-1.5.5z"/><path fill-rule="evenodd" clip-rule="evenodd" d="M305.6 118c-.1-.6-1-2 .2-.6.5.4.6 3.2.5 3.7 0 .8-1.6 0-1 .9.6.9 2.4 3.6 1.8 4.7-.3.4-.6.8-1 .8s.5-2.8-.1-3.6h-.3c-.2-.6-1-2.2-1-2.6l.1-2.4c0-1.4 1 .6.8-1zM304 118.4c-.2-1-.5 1.6-.6 1.6-1 .2-.5-1.3-.6-2.2 0-.1-.8-1.8-.5-1.8 0-.2.3-.6.3-1h.2c.6 1.4 1.8 3 1.8 4.5 0 .4.1 1.2-.4 1.2-.7 0 0-1.6-.3-2.3zM306.8 117.3c-.2-.3-.7-.4-.8-.8-.1-.2 0-.7.4-.6.9.6 1.8 5 1.8 5 0-1.7-.8 1.5-.6-.4 0-1.4-.1-2-.8-3.2zM305 115.4l-.8-.1c0-.3-.2-.8-.4-1h-1.4l1.6-.3 1 1.4zM318 138c-.5.1.8-2 .7-1.5l-.4 1.5h-.4zM318 140.5c-.5 0 .1-1.3.3-.3l-.2.3h-.2zM307.5 137.6v-.2c-2.6-.8.7-.7 1-.4 1 .6-.7.6-1 .6zM292.8 134.3c-.3-.3-1.2-1.4 0-.6 1 .6 2.5.4 3 1.4.3 0 4-.5 1.7.2-1.9.6-3.3.7-4.7-1zM301.4 121.6v-.7h.2v-.1l.3-.1v.9h-.5z"/><path fill-rule="evenodd" clip-rule="evenodd" d="M300.3 115.2c1.2 1.6 1.4 4.7 2.2 6.6 0 .2.3-.2.4 0 .2 0 0 .6.1.8.1.1.4.1.4.3.5.8.6 2.5-.5 2.3-.2 0 .4-2.1 0-2.1-1 0-1.5 1.4-1.9 1-.4-.4 1.2-1.7.4-2-.5-.3-.6 1.8-1.4 1.4-.2-.1-.1-.7.1-.8 1.3-.5 1-5.2.7-6.2-.2-.6-1-.6-1-1.2h.5zM296.3 111.7v-.7c-.8 0-.2.4 0 .7zM317.6 129.2v-.6c-.8 0-.2.4 0 .6zM292.9 109c-.4-.3-1-1-1-1.4.2-.3 1 .4 1.2.4l.2.6c.2.7 1.6 1.2 1.6 2.2h.1c.2.3.2 1.3-.3 1.3-.3-.3 0-2.1-.6-2.4-.6-.2-1.1 0-1.2-.7zM295.3 109.4c-.4-.2-1.2-.2-1.2-.8l1.2.8z"/><path fill-rule="evenodd" clip-rule="evenodd" d="M294.3 112.9l-2.6-3.5c1.3 0 2.6 2.2 2.6 3.5zM279.7 138l.2-.4.4.3v.1h-.6zM242.9 137.8l.5-1.5c-1-.4 0-2.1 1.2-2.1 1.3 0-1.2.9-.9 1.8.3 1 .2-.3 1.4-.7 0 0-2.3 3.2-2.2 2.5zM256.8 137.8v-.4l.4.3-.4.1zM259.9 137.8v-.4h.4v.4h-.4zM262.6 137.3h.4-.4zM245.5 137.2v-.3h-.2v-.4h.8v.4l-.4.1v.1h-.2zM245.4 134.2v-.2h-.2v-.4h.8v.4h-.4v.2h-.2zM282 137h.4v.1h-.4zM292 137.2v-.3c-.2 0-.6 0-.9-.2l-.2-.4c-1.8-1.8-3.6-3-5.3-4.6l.8.2v.2c1.3.3 4.9 3.5 5.6 4.2v.2c.1.1.3 0 .4 0v.3c1.2.5.5.5-.4.4zM265.9 137v-.7h.4v.6h-.4zM281.2 137v-.5h.4v.4h-.4zM247.7 136.7v-.2h-.4v-.4c1.6 0 .4.7.4.6zM289.3 136.5c-1.7-.9-2.3-2.4-4.6-3.5 0 0-.8-1 0-.7v.3c1.8.4 4.7 4 4.6 3.9z"/><path fill-rule="evenodd" clip-rule="evenodd" d="M243.6 136.3l-.1-.2h.2v.1h-.1zM267.5 136.3v-.4h.6v.3h-.6zM279.7 136.2l.2-.3.4.3h-.6zM262.6 135.7h.4v.1h-.4zM277 135.8v-.4h.4v.4h-.4zM287.6 131.6v-.2l-.7-.2v-.2c-.6-.2-3.3-2-3.3-2 .7-.2 2 1.3 2.8 1.3v.2l1.1.3v.2c.4 0 6.1 4.7 5.8 4.8-1.9.3-3.7-3.5-5.7-4.2zM275 135.5h.6-.6zM265.4 135.4v-.4h.4v.4h-.4zM246.6 134.8l.6-.1v-.1h.2l-.2.3h-.6zM267 134.8h.6v.1h-.6zM281.2 135v-.3h-.2l.6-.1v.2h.2v.1h-.6zM242.1 134.8v-.2l-.2-.1.2-.1v-.6h.2v-.2h.4v-.2l-.6 1.4zM248.6 134.4h.6-.6zM280 134.4h.5-.4zM254.6 134.2h.2-.2zM256.1 134.2h.5-.5zM257.7 134.2h.4-.4zM278.3 134.3v-.4h.4v.2h.2v.2h-.6zM282.7 134.3v-.4h.4v.4h-.4zM260.8 134v-.3h.4l-.4.4zM276.5 134l.3-.3.4.3h-.7zM243 133.7l.6-.2v.3h-.6zM247.5 133.4v-.4h.6l-.6.4zM265.4 133.4v-.4h.4v.4h-.4zM281.8 133.4v-.4l.4.3-.4.1zM244.6 133l.6-.1-.2.3-.4-.1zM267 133.2v-.4h.4v.4h-.4zM281 133v-.4h.4v.3h-.4zM268.6 132.6h.4v.1h-.4zM246.2 132.2h.4-.4zM276.3 132.3v-.2h-.2v-.2h.4v.2l.2.1-.4.1zM279.2 132.2h.6-.6zM287.8 130v-.1h-.2v-.3c-1 0-2.6-1-3.6-1.5-.6-.3 3.3 1.1 3.5 1.1v.2c1.6 0 3.8 2 6 2.5.1 0 0 .2 0 .2s.7.2.4.2c-2.6.1-3.8-1.5-6.1-2.2zM258.8 132v-.1l.1.2h-.1zM283.1 132v-.2h-.2v-.4c.3.4 1.6.6.2.7zM284.9 131.5c1 .2-.2 0 0 0zM283.4 130.7v-.2h-.3l.1-.4c.2.4 1.5.7 1.2 1-.2.2-.8-.4-1-.4zM281.2 131v-.3h-.2l.6-.2v.3h.2v.1h-.6zM251.5 130.7v-.4l.1.4h-.1zM246 130.6v-.4.4zM279.4 130.5v-.2l-.2-.1h.4v.3h-.2zM289.2 128.5c-.1 0-.5 0-.2-.6.3-.7-.1-.4-.1-.5.2-1.5 1.7 1 2 1.2.2 0 .6 0 .9.2 0 0 1.4 1.6 1 1.7-2.2.4-2.5-.8-3.6-2zM257.5 130.3v-.4h.4l-.4.4zM259.5 130v-.3h.4l-.4.4zM247.3 129.7h.4v.1h-.4zM248.6 129.5l.2-.2h.2l-.2.3h-.2zM282 128.9h.4-.4zM278.7 128.4h.4-.4zM284.7 127h1.5v.2l1.6 1-.2.3c-1-.3-1-1-2.2-1.3 0-.6-.9-.2-.7-.2zM246.8 128.3l.1-.4h.1v-.1h.7l-.9.5zM260.8 127.8h.4-.4zM248.1 127.3l.8-.5v.4h-.4v.2h-.4zM246.2 127.1c-.4-.2.7-1.2.8-.6h-.1l-.2.5h-.3v.2l-.2-.1zM244.2 132.5c-.3-.1.7-1.1.8-.5l-.2.4h-.4v.2h-.2zM281.8 127.2v-.4h.4v.2l.2.1-.6.1zM286.3 125.8c-.2 0-1-.1-.6-.6v.2c.5.2 1.4.1 1.4.7h.4l.3.5h.2l-.6.6v-.4h-.3v-.3c-.8-.2-.4-.1-.8-.7zM280.3 126.8v-.3h-.2l.4-.1v.3h-.2zM292.5 126.7c0-.6 1-.2.6 0h-.6zM250.4 126.4h.4v.1h-.4zM252 126.4h.3v.1h-.4zM253.2 126.5v-.4l.7.1-.7.3zM290.9 126.3c-.3-.2-.1-1 .4-.6v.2h.5c.4.3-.6.7-1 .4zM255.3 126.1v-.2h.4v.2h-.4zM244.8 127.9l.8-.3v.4l-.8-.1zM246.4 125.4v-.4h.2v-.1h.6l-.8.5zM283.4 125.4v-.2l-.5-.1c.9-.1 1.4.2.5.3zM287.6 125.4c-1-1.1 1-.5-.5-2-2-2 1.2 0 .9 1 0 .1-.3 1.1-.4 1zM289.8 125.4c-.5-1 1.1-.4.6 0-.2 0-.5.2-.6 0zM291.8 125.4l-.2-.4c-.2-.3-.7-.2-1-.3 0 0-.5-1 .3-.6 0 0-.1.2 0 .2 0 .1.3 0 .4 0v.4c.1.1 2.6.4.5.7z"/><path fill-rule="evenodd" clip-rule="evenodd" d="M293 125.4c-.2 0-.2-.3 0-.4.4-.5.7 1 0 .4zM249.7 125h.4v.2l-.4-.1zM281.6 125v-.3h-.2l.4-.1v.3h-.2zM242 136c0-.4.3-1.1 1-1.4l-1 1.5zM247.7 124.2l.7-.5.1.3-.2.3-.6-.1zM285.8 124.3c-.7-.4 1-.7.4 0h-.4zM289.3 124.3c0-.4.4-.4.3-.9h-.3c.1-.6 1-.1.6.4l-.3.1s-.2.7-.3.4zM291.8 123.8c-.4-.9 1.4 0 .8 0-.3 0-.7.2-.8 0zM293.1 123.9c-.2-.3 0-.6.4-.1 0 0-.3.2-.4 0zM284 123.4c-.1 0 0-.3 0-.4.5-.4.6.5 0 .4zM261.7 123.1h.4-.4zM263.5 123.2v-.4h.6l-.6.4zM287.8 123c-.4-.6.4-.6.2 0h-.2zM282.3 122.7l.3-.3v.3h-.3zM247.4 122l.3-.4v.4h-.3zM288.7 122h.4c0 .5-.4.6-.4 0zM291.8 121.7h.4c-.4.4-.4.7-.4 0zM249 121.8h.5-.4zM258.1 121.7v-.4h.7l-.7.4zM259.9 121.4v-.4h.4v.4h-.4zM283.8 121.4v-.4l.1.4h-.1zM290.7 121.4v-.6h.4v.5h.2v.1h-.6zM248.8 121.2l.1-.4h.1v-.1h.5l-.3.5h-.4zM263.5 121.2v-.2l-.3-.1h.7l-.4.3zM288.2 121.2l.1-.4v.4zM265.2 121v-.4l.2.4h-.2zM286 120.3l.1-.4v.4zM250 120.1l.2-.4.1.1-.4.3zM290 120.1v-.2l-.2-.1.4-.1v.2h.2v.2h-.4zM288.2 119.9v-.3h-.2v-.2h-.2v-.4h.4v.2h.4v.6h-.4zM284.5 119.6v-.4l.1.4h-.1zM283 119.2v-.2l-.3-.1.6-.1v.4h-.4zM288.9 119.2v-.4h.4v.4h-.4zM262.1 119v-.4h.4l-.4.4zM265.7 118.8v-.4h.4l-.4.4zM289.3 118.1v-.2l-.2-.1.4-.1v.4h-.2zM284.5 117.8h.6-.6zM286 117.2l.1-.4v.4zM262.8 116.9h.4-.4zM284.7 116.6v-.4h.4v.3h-.4zM251.5 115.3c-.2 0 1.2-1 .1.1h-.1zM282.3 115.5v-.4h.4v.2h.2v.1h-.6zM255.5 115v-.4h.6l-.6.4zM281 115v-.4l.1.4h-.1zM257.7 114.2l.3-.3v.4h-.3zM279.9 113.8h.4-.4zM280.8 113.9v-.2h-.3v-.9h.4l-.1 1zM267.5 113.7v-.4h.4l-.4.4zM256.1 113.4v-.2h-.2v-.4h.4v.6h-.2zM265 113v-.6l.2.2h.2v.4h-.4zM253.7 112.7c-.3-.2.1-.6.4-.5.3 0-.2.6-.4.5zM258 112.8v-.4.3zM288 112.7l.2-.1.1-.7.1.3h.2l-.2.5h-.4zM266.1 112.6v-.4h.4v.3h-.4zM267.9 112.6v-.4h.2v-.5l.2.8h-.4zM260.3 112.3l.1-.4v.4zM255.5 111.3l.4-.1v-.1h.2l-.2.3h-.4zM266.3 111.5v-.4l.4.2v.1h-.4zM279.4 111.2l.1-.6h.1v-.4l-.2 1zM288.7 111.2v-.4h.4v.4h-.4zM287.1 110.4v-.5h.4v.4h-.4zM265.4 110l.1-.5.3.3-.4.1zM288.2 110v-.3h-.2l.1-.6.1.2h.2v.2h.2v.4h-.4zM280.8 109.7v-.2h-.3v-.4h.4v.6h-.1zM290.2 109.3c-1.4-.5-.6-.7-.9-1.4l-1.5-1.3c-.6-.8 1.5-.4 1.5.4 0 .9 2.3 2.7 1 2.3zM286.3 108.8v-.2h-.3v-.7h.4v.3h.3v.6h-.4z"/><path fill-rule="evenodd" clip-rule="evenodd" d="M290.7 108.2l-1.4-1.6c-1.2 0 1.3-.2 1.3.7 0 .8.6 1.5 0 .9zM284.5 107.9v-.2l-.3-.1.3-.3.1.2h.3v.4h-.4zM280.8 107.1h.4v.1h-.4zM284.5 106h.4-.4zM298.1 123c-.1 0 0-.3.2-.4 1.4-1.2 1.7-3.2 1.7-4.9h.1c1.5 1.6.2 5.4-2 5.4z"/><path fill-rule="evenodd" clip-rule="evenodd" d="M297.5 122c1-.8.7-3.7.7-4.8h.2c.8 1.2.8 3.3 0 4.6-.6 1-1.3.5-1 .2zM295 120.9v.3c-.2 0-.8 0-.7-.2.3 0 0-.3.7-.1zM295.6 127.6c.5-.3 1.8-.8 2-1.5 0 0 .7 0 .3.4-.4.3-1.7 1.7-2.3 1zM293.6 129.3c-.2-.4 1.8.4.5.4-.2 0 0 0-.3-.2l-.2-.2zM295.1 132.5c.4-.6 2.5-.4 3.3-1.3 1.1-1.2 1.3-1.5 1.8-3 0-.1 2.4-.6 2.7-.8.5-.5.5-1.5 1.3-1.5 0 0-.5 1.6-1.6 2-1 .4-1.6.2-2.1 1.2-1 1.6-1.6 3.1-3.9 3.3h-1.5z"/><path fill-rule="evenodd" clip-rule="evenodd" d="M296.2 131l-.5-.3s2.2-.4 3-1.4l1-1.2c.2 1.2-1.2 2.5-2.3 2.6a5 5 0 00-1.2.2zM298.9 134.3v-.4h.4l-.4.4zM290.6 148.4l.2-.2-.2.2zM295.6 154.4c0-.6-.9-2.9-.7-.6 0 .2.5 1.4.7.6zM289 154.7l-.3.4h-.5v.2h-.4c0-.6 1-1.8 1-1l.1.4zM299.2 112.4c0 .5 1.4 1.4 1.9 1.4 0-.7-2-.8-1.9-1.4zM319 132.5c.3-.5-.2-2-.5-2.3-.5.5 1 1.8.4 2.3zM308.2 118.8c0 .5 1.4 1.4 1.8 1.4 0-.7-2-.8-1.8-1.4zM278.5 176.1l-.2-.3.4.1.1.3h-.3zM277 175.9v-.4l.4.2h.2v.2h-.6zM273.9 175.5v-.7l.2.3h.2l-.4.4zM278.5 175l-.4-.4c0-.1-.1-.3 0-.4.2-.2 1 .5.8.8h-.4zM275.9 174.6c-.2-.1-.4-.5-.3-.7.3-.2.8.4.6.6h-.3zM279.9 173.9v-.2c-.2-.1-1.1-.4-1-.7.3-.5 1.1.2 1.2.3v.5c-.1 0-.2.1-.2 0zM273.4 173.7l.1-.4v.3zM277.2 173.7s-.4-.6-.2-.8c.3-.5.4.2.4.2h.2v.5c-.1.1-.3.1-.4 0zM272.5 173c0-.4-.2.1-.1-.6l.3.3v.3h-.2zM281.2 172.9c-.2-.2-.9-.7-.7-1l.6.2c.2.1.3.3.2.7h-.1zM273.2 172.4l.1-.4v.4zM278.3 172.4s-.7-.7-.4-1c.3-.5.5.5.6.6h.2c0 .2-.2.4-.4.4zM275.2 171.6c.4-.2 1.1.2.8.6h-.4s-.5-.5-.4-.6zM270.1 171.9l-.2-.3h.2l.2.3h-.2zM271.6 172v-.3h-.2l.4-.1v.3h-.2zM269 171.3v-.2l-.2-.1.4-.1v.4h-.2zM270.8 171.3v-.2h-.3l.1-.4.1.2h.2v.4h-.1zM272.5 171.3l-.2-.4v-.4c.2 0 .3.2.3.3.2.1.3.1.3.5h-.4zM279.4 170.6v-.4c.6 0 .6.4.9.7h.2c-.2.2-.6.6-.6.4 0-.6 0-.3-.5-.7zM277.2 170.6h-.2c.3-.1.7 0 .6.5h-.2l-.2-.5zM281.4 170.4l-.2-.2v-.8c.6 0 .6.3.5 1h-.3zM283.4 170.4v-.9l-.3-.2h-.4v-.6c2 0 .7 2.2.7 1.7zM269.7 170.2v-.4l.4.3-.4.1zM271.4 170c-.6 0 0-.5.1-.6l.1.2h.2v.4h-.4zM268.8 169.8l-.2-.4h.4v.3h-.2zM275.6 169.8c-.4 0 .5-1 .5-.2h.2v.1h-.7zM278.5 169.8c-.2 0-.7-.7.2-.7v.3h.2v.3h-.4zM270.5 168.9s.1-.2 0-.2l-.2-.1.4-.1v.3h-.2zM280 168.9s-.5-.5-.1-.6c.5 0 .8 0 .8.5h-.6zM277.4 168.7c-.3 0-.7-.7.2-.7v.3h.2v.3h-.4zM282.3 168.4c-.1.1-1.2-1 0-1v.2h.1v.2h.3l-.4.6zM279.2 167.7c-.1 0-1-.8 0-.8v.2h.2v.6h-.2zM272.7 167.5c-.1 0 .6-1.1.5 0h-.5zM275.2 166.8l.4-.1v.2h.2c0 .9-.2 0-.6-.1zM280.8 166.9l-.5-.3v-.4l-.2-.1c.6 0 1 .2 1 .7h-.3zM283.1 166.6c-.3 0 .1-.4-.4-.4v-.4h.6v.2h.2v.6h-.4zM274.1 166.4v-.2l-.2-.1h.4v.3h-.2zM277.2 166.4c-.3 0-.3-1 0-.4h.4v.4h-.4zM275.9 165.3h-.3l.5-.2v.4c-.4 0-.1-.1-.2-.2zM279.2 165.3s-1-.4 0-.6v.2h.2v.4h-.2zM282 165.3c-.3.1 0-.4-.6-.4v-.4c.6 0 .2.2.8.2v.6h-.2zM283.6 164.7s-.2-.3-.7-.3c.1-.4 0-.4 0-.8.8 0 .4.6.9.6l.1.4h-.3zM277.4 164.2c-.6 0 .2-1 .2-.2l.2.1-.4.1zM280 163.8c-.7 0 .5-1 .5-.2h.2v.1h-.6zM281.8 163.1l-.2-.3h.6v.3h-.4zM283.1 161.5s.1-.2 0-.2h-.4v-.4h.6v.2h.2v.4h-.4zM284.2 161.3s.7-.9.3-1l-.3-.2h.7l-.3.7.3.1v.4h-.7zM281.4 160.4c-.4 0 1-.8.6 0h-.6zM283.1 159.6s.2-1.5.2-.4h.2v.3h-.4zM284.9 159.6c-.4.2.2-1.1-.4-1.5l.3-.3v.3c.9 0 .5.3.3 1l.5.1-.7.4zM284.9 156.5c-.4 0 1.3-1 .8 0h-.8zM285.1 154.5c-.2 0 0-.8.5-.5.4.4-.3.4-.5.5zM287.1 153.4c.7-.7.7.8 0 .6-.6-.2-.1-.5 0-.6zM286 153c-.5 0-.3-.5.4-.2l-.4.1zM286.4 151.2l1.5-.5c-1 .2-1.4.8-.6 1v.3c-.9 0-1.5-.6-.9-.8zM287.8 149.1c-.1 0-.1-.7.4 0h-.4zM301.3 140.5v-.2l-.2-.1.4-.1v-.2h1.1l-1.3.6zM243.5 154.7l.3-.6v.3l-.3.3zM243.3 157c-.2.5-.5.5-.5-.2h.6v.2zM243.4 159.1v.4H243.1s0-.5.3-.5v.1zM234 165.4l.1-.5-.7-.3 1.4-.1v.5h-.2z"/><path fill-rule="evenodd" clip-rule="evenodd" fill="#FDD6C6" d="M261.2 189.4v-.2h.3v.2h-.3z"/><path fill-rule="evenodd" clip-rule="evenodd" fill="#FFF" d="M246 221.8l.3-5.4v-4.6c0-.2.4-1.1.3-.2-.5 6.1 1.6 14.4-2.5 19.6-.5.7 2.2-4.5 1.9-9.4zM246.6 230.9v-.5h.2v.5h-.2zM315.7 131.2c-.6-.3 0-1.9.7-2.4.5-.5.4 3-.7 2.4zM300 146.3v-.2c-.2 0-1.2-.2-.6-.3 1.8 0 .6.5.6.5z"/><path fill-rule="evenodd" clip-rule="evenodd" fill="#FDD6C6" d="M283.8 178.6v-.2h-.3c0-.9-.6-.8-.6-1.6h-.2v-.5c1 0 1.7 1.3 1.5 2.2h-.4z"/><path fill-rule="evenodd" clip-rule="evenodd" fill="#FFF" d="M287.6 190.7v-.1c.1-.1.8-.7.8-.9 1.7-.5 3.8-3.7 5.5-4.8 1-.9 2.2-2.2 2.8-3.2.5-.2 5.9-7.3 6.6-10h.1v-.1h.4v.6h-.3v.4h-.1c-.6 2.2-3.2 5-4.3 6.8-1 .3-1.5 2.7-2.4 3-.8 1.3-2.4 2.2-3.2 3.4-1.5.6-3.1 3.8-4.6 4.2 0 .1-1 .7-1.3.7z"/><path fill-rule="evenodd" clip-rule="evenodd" fill="#FFF" d="M286 193.6v-.1c1.2-.7 3-2.4 4-3.5l1.3-1c.7-.8 1.5-1.8 2.4-2.3.5-.2 1.2-1.5 1.7-2 1.1-1.1 2.4-2.3 3-3.7.3-.5 3.7-4.6 3.8-4.4a39.7 39.7 0 01-6.2 8.6c-.3.6-2.2 1.5-2.6 2.3a28 28 0 01-7.3 6.1z"/><path fill-rule="evenodd" clip-rule="evenodd" fill="#FFF" d="M284.2 196.5c.4-1.2 3-2 3.3-2.8 1.2-.3 3-3 3.8-3.2.1-.6 3.7-2.7 4.2-4.1.5-.3.8-1 1.3-1.2 0-.3 3.7-5 3.8-5.1l.5-.7c1.5.7-12.5 15.7-15.7 16.5 0 .2-1 .6-1.2.6z"/><path fill-rule="evenodd" clip-rule="evenodd" fill="#FFF" d="M284.2 198.3v-.5h.2v-.1c2-.9 13-10.6 13.6-12.4l.4-.1v-.2h.2c-.8 3.4-10.7 10-11 11l-3.4 2.3z"/><path fill-rule="evenodd" clip-rule="evenodd" fill="#FFF" d="M288.8 196c3-3 7.6-5.6 9.7-9.5l.1.1c0 .4-1.6 2.8-1.9 3-.6.7-2.3 1.7-2.5 2.5-.2.7-7.5 6.4-8.3 6.4l-.1-.1c.2-.2.4-.3.4-.6.6 0 2.1-1.3 2.6-1.8z"/><path fill-rule="evenodd" clip-rule="evenodd" fill="#FFF" d="M279.5 203.4l-.1-.2 5-2.8c1-.5 2.2-1 3-1.8 1.4-1.5 3.7-2.6 5.2-4.1 1-1 2.8-3.5 4.2-3.8v.2c-.3.3-.5.5-.6 1-.2 0-2 1.8-2.1 2-.8 1.6-3.3 2.4-4.5 3.6-2.3 2.3-4.3 3-7.1 4.4-1 .5-2 1.5-3 1.5zM306.6 160.3v-.3c-.6 0-1.1 0-1.5-.2l-.3-.4h-.4v-.2c-.4-.2-1.7-.9-1.4-1.4.2-.3.5.4.5.4l1 .5s-.1.2 0 .2h.4v.2c.8.4 3 .7 3.9-.2.6-.7.6.2.2.4-.8.5-1.2 1.1-2.4 1zM294.9 155.3c-.5 0-.8-.7-1.2-1v-3.5c.5.5.5 4.3 1.4 4.3.1.2 1.1 2 1.7 1.5.5-.3.4.3.7.6.2.2.9.3 1 .5.7 2.2.5.5.7.4.8-.4 1.5 2 .8 1.5-.2-.1 0-.7-.3-.7-1.3 0 .1.4-.2.8-.5.5-1.7-2-2.4-2-.5 0 1 2.3.2 2.3-.5 0-.5-2.7-1-2.7l-.5-.4c-.5.4 1.3 4.6 1.6 4.8.3.3 1.8 1.5 1.5 1.6-2.8.8-2.6-5.4-3.8-5.4-.6 0 .7 1.6.2 2-.6.5-1-3-1-3.6 0 0 1.3.8 1-.3l-.4-.7zM296.8 138.8l-1-.8c.3-.5 2.6.3 3.3.3.7 0 4.7-1 6.6.5 2.2 1.7 3.9 3 1.7 2.3-1.5-.5-4-.4-5-.2-2.9.6-5-.1-7.2-2 0 0-.5-.6 0-.2 1 .7 3.4 2 4.6 2 .3 0 1.4-.2.3-.5 0 0-2.6-.8-3.3-1.4zM288.3 232.8c-.6 0-.5-.7-.5-1.3.7-.2.5-1 2-1.1 2.8-1.5 5.7-3.6 8.6-5.3 1.4-1.4.7-2.3 3.1-2 .8 1.5-.9 2.2-2.2 2.3-2.3 1.5-7 3.7-8.8 5.5-.3 1-.6 2.5-2.2 1.9z"/><path fill-rule="evenodd" clip-rule="evenodd" fill="#FFF" d="M288.6 232c-.2-.2.6-.8 1-.7.2.2-.4.9-1 .6zM299.8 224.3s.4-.4.6-.3c.4.4-.4.4-.6.3zM314.1 127.8c.2-.2-.6-2.8 0-2 .9 1.5 1.2 3.1-.2 4.5 0 0-.5 0-.3-.4l.5-2zM311.7 130.5c-.7 0 .6-1.1 1.1-.9.9.4-.7 1-1 1zM289.7 128.8v-.5s-.6 0-.2-.2c.3-.1 1 .5 1.2.7 1.3 1.3-.5.5-1 0zM251.2 141.6c-.1-.1.1-.4.3-.2.1.1-.2.4-.3.2zM253.2 142.5c-.1-.1 0-.4.3-.2 0 0-.2.3-.3.2zM273.8 139.2c-.8-.3 1.6-.3.7 0h-.7zM279 140.1c-1-.3 1.5-.4.6 0h-.7zM279.1 143.4c-.9-.3 1.6-.3.7 0h-.7z"/><path fill-rule="evenodd" clip-rule="evenodd" d="M244.2 146.3c-.3-.4-.3 0-.5-.3 0 0 .1-.3 0-.4l-.6-.2c-2.4-2.4.8-3.3-.2-4.9-.4-.6.6-1.9 1-2.6 0-.3 1.5-.2 1.8 0 .2 0-.1.3 0 .4a4 4 0 001.5.2c.6-.1-.8-.4-.8-.4-.5-.3.4-.8.6-.7.1 0 0 .2 0 .2.3.2 1.2.4 1.5.2.3 0-.1-.3 0-.4 1.2-.5 1 .4 1 .5h.6c.2 0-.1.2 0 .2.5.2.9 0 1.4.2 0 0 0 .4.2.5h.6c.1 0 .1.4.3.4h.6c.2 0 0 .2 0 .2l.7.5s-.1.1 0 .2c1 .5 0-.5.4.4.2.4.8.3 1 .5 0 .2 0 .7.2.9l.4.2c.1.4 0 .8.2 1 0 .2.9.3.4 1 0 0-.3-.2-.4 0-.3.4.4.6.5.7 0 0 .3 1.5 0 1.2-.2-.2-.4-1.1-.7-.7-.2.2-.4-.3-.4-.4-.4-.1-.8 0-1.2-.2-.5-.2-.7-1.6-1.3-1.6l-2-1.5c.6-.8-2.6.2-3.1.7-1.3 1.3-1.8 3.3-3.5 3.8 0 0-.1.3-.2.2zm18.8-6.1c.5.3.1 1-.4 1.3-.6.3.4-.2.4.3 0 .6-.7.7-.6 1.3 0 .6.1 0 .2 0 .1.4-.7 1.2-.7 1.8 0 .4.2 0 .2 0 .2.3-.4.2 0 .7.5.4-.3.7-.2 1.3 0 0 1.6.2.9.7-1 .7-.3-1.1-1.3-.1-.2.2.8.3.9.3.1 0-.3.2 0 .2.4 0 .8 1.1 1.2.7.1-.2-.2-.5 0-.7.2-.1 1.8 1.4 1.8 1.6 0 .1 0 .7.2 0 0-.8-.6-1.3.4-1.4 1.2 0-.6-.1-.8-1.2 0-.2-.2.7-.2 0-.1-1.3.5.3.8-.3.1-.3-.1-1.3-.2-1.3-.5-.1.4-1 .2-1.3 0 0-.2.3-.2 0s1.6-1.6 1.8-1.8c.3-.3 0 .3.4 0 .4-.5-.4-.5.3-.3.7.3 2-2.2 2.2-1.5.2.6.9-.3 1.3 0 .5.3 0 0 .2-.2.2-.1 2 .1 2 .2.2.1 0 .3 0 .4h.3c.4.5-1.5.5-1.7 0 0 0-3.8 2-4.1 2h-.6c-.2.2-.2.7-.7.8-.5.1 0 0 0 .1-1 1 1.3-.2 0 1.1-.5.5-1.1.3-.6 1 0 0 2-1.3 1.9-1.8 0-.3-.2 0-.2 0l.7-1.2c0-.1 2.5-1 3.4-1.1.6-.1 0 0 0-.1 1-.3.2 0 .5.1.9 0 3-.3 3.2-.2 0 0-.6.2 0 .2.5 0 2.1 1.9 2.4 2 .2.1 0 .4 0 .5h.2v.2c.4.2.7 0 .5.5l.2.8c.5.5.4-.6.4-.6.2-.5 2 1.7 2.2 2 .8.7 2 .6 3 .6.3 0 1.7-1.1-.2-.7-1.2.3-.7 0-2-.1-.7-.2 1.8-.5 1.8-.6.9-.2 1-1.1-.4-.5 0 0 1.3.1 0 .1s-1.2-.5.2-.7c1.3-.1 0 0 0 0 0-.1.6-.4.4-.5-1.4-.3-2 1-3.7 0-.5-.3 2.3-.5 2.6-.6 1.2-.1-.4-2.7-1.3-2.8-.4 0 .2-.2 0-.2-.6-.1-1.2.3-2.1.2-.3 0 .3-.2 0-.2h-1.8c-.4 0 .2-.2 0-.2-.5-.1-1.8.4-1.4-.5.2-.4.2.2.3.2.2.1.7-.3 1-.2.2 0-.2.2 0 .2h1.9c.3 0-.3.2 0 .2h1.2c.6-.2-2.8-2.5-3.3-2.6-.3 0 .1-.1 0-.2-1.6-.8-3.1-1.2-4.2-1.6 0 0 .8-.2 0-.2l-2.5.9c-.4 0-1.4.2-1 0 .4-.1-.6.7-1.6 1l-.7-.2c-.5.2-.6.5-1 .7-.4 0-.3-.2-.6 0-.4 0-.3-.4-.6-.3-.2 0-1.2 1.1-1.4 1.2l-1.4.6zm8-2.6c-1-.4 2-1 2.2-.9.8.2-1.7 1.2-2.3 1zm9.3 5l2.1-.1c.2 0 .2-.4 0-.5h-3s.1-.2 0-.2c0 0-2.3-.1-1.6.3.5.3 1.7.1 2.5.2v.2zm-33.5-2.5c.3 0 1 0 1-.3.3-.3-1.1-.3-1.4-.4v-.2s-2.7-.1-1.6.5h.9v.2h1c.1 0 0 .2 0 .2zm-2.7.9c.1 0 2.2.2 1.8-.3-.2-.2-.7-.1-1-.2-.1 0 0-.2 0-.2-1-.2-1 .7-.8.7zm0 1c.7.2 2 .3.5-.2v-.2c-1.2-.4-.5.5-.5.5zm0 1.2s.1-.2 0-.2c0-.1-1-.1-.4-.3 1.1-.3 1.6.8.4.5zm-.2 1.1c.7.5.7-.4.5-.5-.5-.2-.8.3-.5.5zm.2 1.1c.4.2.7-.1.5-.5 0 0-.6.4-.5.5zm7.6-3.5c.7.7.2-1 0-.5v.5zm1.7.7s.1-.2.2-.1c.2.3 0 .3-.2.1zm.7.8c-.2-.2 0-.4.3-.3 0 .2-.2.4-.3.3zm17.7-4.8c-.7-.2 2.7-1.1 3.6-1 .3 0-2.4 1.3-3.6 1zm3 .4c2.6.3 2.6-.6 0-.3v.3zm.6.9h3.3v-.3h-3.3v.3zm4.9 3.7c-.1 0-.1-.2 0-.2.8-.2 2.2 0 2.8-.4.2-.1.6.2.4.4-.3.2-2.5.3-3.2.2zm-16.2 4v-.2h-.2v-.3h.1v-.1h.3v.6h-.2zm.6.5v-.3h.3v.2h-.3zm3.5-6.6v-.4h.4v.3h-.4z"/><path fill-rule="evenodd" clip-rule="evenodd" fill="#FFF" d="M292.4 148.5c-.1-.2.1-.4.3-.3.1.2-.2.4-.3.3z"/><path fill-rule="evenodd" clip-rule="evenodd" fill="#FDD6C6" d="M290.9 150c-.2-.1 0-.4.2-.2.1.1-.1.4-.2.3zM291.5 151.2c-.3-.7.6-.7.3 0h-.3zM291.5 152.7c-.1 0 0-.3 0-.4.2-.3.7.3 0 .4zM279.4 185.2v-.5h.7v.5h-.7zM277.8 185.4v-.4h.2v.2h.3v.2h-.5zM278.6 183.2c.6-.3 1 .2.7.8-.3.5-1-.6-.7-.8zM280.5 183.5v-.3h-.2v-.2h-.2c0-2.6.4.8.4.5zM281.8 182.6v-.5h-.2c1-2.1.2 1.2.2.5zM281.2 181v-.2h-.3c0-.5-.4-.8-.4-1.1h-.2v-.7h.9c0 1.3.6.9.6 2h-.6zM282.7 179.7h-.3v-.7h.7v.9l-.4-.2zM283.8 182.6v-.5h.4v.4h-.4zM284.6 179.9v-.2h-.2l.1-.5h.1c.4-1.3 0 1.1 0 .7zM285.6 178.1v-.7h.4v.7h-.4zM286.2 179.9v-1h.5v1h-.5zM287.1 178v-.6h.2v-.1h.3v.6h-.5zM284.5 176l.9-.1v.7c-.6.2-1 0-1-.7zM286.7 176.6c0-.5-.3 0-.2-.5h.1v-.4h.3c0 .2-.2 1.5-.2.9zM285.8 175v-.2h-.2v-.4h.7c0 .4-.5 1.4-.5.7zM285.3 174.2c0-.6-.2 0-.2-.5h-.2v-.4h.7v.8h-.3zM287.1 174v-.7h.5v.1h.2v.5h-.7zM288.4 173.7v-.2h-.3v-.4h.7v.6h-.4zM288.8 175v-.2h-.2v-.2h.5v.4h-.3zM288.6 176.8v-.2h.3v.2h-.3zM289.5 175c0-1.1.3-1 .2 0h-.2zM289.7 173.5v-.2h.2v.1h-.2zM285.3 171.3c0-.6-.2-1.3.5-.7s-.5 1.4-.5.7zM286.2 172.7v-.5h-.2v-.2h.2v-.2h.5v.2h.2v.2h-.1l-.1.4h-.5zM286.2 169.8c-.5 0 .7-1.6.7-.7h.2v.2h-.1l-.1.5h-.7zM285.6 168.7c-.7 0 0-.8 0-1h.1v-.1h.3v.1h.3v.5h-.2l-.1.5h-.4zM287.5 168c-.7 0 0-.7 0-.8.5-.2 1.2.8 0 .8zM289.9 158.3c-.2 0-.5-1 .5-1v1h-.5zM286.9 161.8c-.5 0-.5-.4-.4-.7h.1v-.9h.3v.2h.2v.3h.3v.4h-.2l-.1.7h-.2z"/><path fill-rule="evenodd" clip-rule="evenodd" fill="#FFF" d="M277.2 232.2s.3-1.1.4-.7c.5 2-3.4 1.7-.4.7zM286.2 231c1.3-.2-.2 1.1-.4.8-.3-.4-.9-.8.4-.9zM286.9 206.7c-.7-.7.9-1.3 1.1-.9.3.4-.4 1.7-1.1 1zM284.2 193.5c-.5 0 2.5-2.9 3.3-2.8.8.2-2.8 2.7-3.3 2.8zM285.9 193.9c-.2-.1.1-.3.1-.1 0 .2 0 .1-.1 0zM285.6 194.1c-.1 0 0-.4.2-.2.1.2-.2.3-.2.2zM283.4 194c-.1 0-.3.2 0 0 .1-.3.1.2 0 0z"/><path fill-rule="evenodd" clip-rule="evenodd" fill="#FFF" d="M283.1 194.3s.1-.3.2-.2c.1.2-.1.3-.2.2zM284.3 195c-.1-.2-.3 0 0-.2.1-.2.1.3 0 .2z"/><path fill-rule="evenodd" clip-rule="evenodd" fill="#FFF" d="M284 195.2s0-.4.2-.2c.1.2-.2.3-.2.2zM283.5 195.4c-.1-.1.2-.4.3-.2.1.1-.1.4-.3.2zM283.2 195.6c-.1-.1-.3.1-.1-.1.2-.3.2.3 0 .1zM282.9 195.9c0-.1 0-.4.2-.2.1.2-.2.3-.2.2zM281.6 196.8c-.1-.2.1-.4.2-.3.1.1 0 .4-.2.3zM282.2 197.9c-.2-.2 1-.7.7-.3s-.4.4-.7.3zM285.4 198.7c-.2 0 .4-.3.4 0 0 .2-.2.1-.4 0zM280.7 198.8c-.1-.2.1-.4.3-.3s-.1.4-.3.3zM278.3 198.8c-.2-.2 0-.4.2-.3.2.2-.1.4-.2.3zM285.2 199c-.2-.1.1-.3.2-.1 0 .2 0 .1-.2 0zM285 199.2c-.2-.1 0-.3.1 0s0 0-.2 0zM282.4 199.2c-.3-.1 1.2-.7 1-.2-.3.4-.6.3-1 .2zM284.5 199.4c-.2 0 .4-.3.4 0 0 .2-.2 0-.4 0zM284.3 199.6c-.2 0 .1-.3.2 0 0 .1 0 .1-.2 0zM281.9 199.6c-.4-.1.7-.2.3 0-.3.2 0 .1-.3 0zM284 199.9c0-.1 0-.4.2-.2.1.2-.2.3-.2.2zM281 200.1c-.3-.1-.5-.2.2-.4s0 .5-.3.4zM279 202.3c-.4-.2-.6-.2.1-.4.8-.2.3.5-.1.4zM278.5 202.5c-.2 0 .5-.4.5 0 0 .2-.3.1-.5 0zM277.2 203.2c-.2-.2 0-.4.2-.3.2.2-.1.4-.2.3zM278 204.1c-.2-.1 1.4-.9 1.4-.6 0 .3-1.2.7-1.4.6zM276.3 204.5c-.6-.1 1.5-.2.9 0-.7.2-.3.2-1 0zM275.2 205c-.2-.2 0-.4.2-.3.2.2 0 .4-.2.3zM301.5 183.7c-.2-.2 0-.4.3-.3 0 .1-.2.4-.3.3zM300.6 186.1l.2-.4c1-.4.2.7-.2.4zM299 186.3c-.7-.3.4-1.4.8-1.1.3.2-.2 1.5-.9 1.1zM298.7 185c-.5-.3.2-1.2.6-.8.4.3 0 1-.6.8zM299.6 183.9c0-.5.8-2.3 1-1.7.2.6-.5 1-1 1.7z"/><path fill-rule="evenodd" clip-rule="evenodd" fill="#FFF" d="M300.7 182.1c-.7-.3.2-.8.6-.9.5-.1 0 1.2-.6 1zM301.4 179.4c-.8-.4.3-1.5 1-1.7.7-.2-.3 2.1-1 1.7zM292.7 172.7c-.2-.5-.4-1-.4-1.5.4 0 .5 1.3.8 1.6v.3h-.2c-.1 0-.3-.3-.2-.4zM320.1 158.7c-.1 0 .4-.6.5-.5.2.4-.2.7-.5.5zM319.2 157.8l.3-.6c1.1-.4 0 1-.3.6zM314.6 149c-.1-.1 1-1.3 0-.9-1.3.6.6-.8.6-1.2 0-1.5-.6.5-.8-.2-.2-.5 0-1.2-.3-1.5h-.2c-.4-.9 0-.4-.9-.9 0 0 .2-.2 0-.2h-.6c-.2 0 .2-.2 0-.3-.5 0-1.7 0-2-.2-.2 0-.3-1 0-1 2.5-.3 4.3-.8 6 1 .4.4.3 1.3.4 2 0 .2.2-.2.3 0 .1.6 0 1.8.3.6 1.2-3.5.4 3-.6 1.6-.1-.1.3-1.1-.4-.4-.3.3-1.2 2-1.8 1.5zM318.1 149.8c1.4-.6 2-.2 2.5-2 .5-1.5.5.8.2 1.3-.5.8-2.4 1.2-2.4 1.4-.7 0-1.7-.2-.3-.7zM321.3 149c0-.1.1 0 .1 0 .4 2-2 1.8-2 1.8.8-.3 1.7-1.1 1.9-1.9z"/><path fill-rule="evenodd" clip-rule="evenodd" fill="#FFF" d="M322.2 149.4c.5-1.1.7.2.6.6 0 .2-2.9 2.8-3.6 2.5 0 0-.3-.5 0-.6 1.8-.5 2.1-.8 3-2.5zM318.4 157c1-2 1-1.6 1-3.9h.5v.5h.3v.9h-.2l-.1.8-1.5 1.7zM320.1 157v-.3s-.2.1-.2 0l.6-1.6.1-2.2h.1v-.1l.8-.1v.9h.2v.2h-.2v1.3h-.2v1h-.2l-1 .9zM321.2 157.6c-.3.5.6-1.4.6-1.6.3-1.3.2-2.5.3-4 0-.5.8 1 1 1 0 1.9-.8 2.9-1.9 4.6zM310.4 158c-.1 0 .6-.8.7-.6.2.3-.4.8-.7.7zM312.6 158c-.3 0 0-.7.5-.4 0 0-.1.2 0 .2h.4c.4.2-.6.4-1 .3zM314.8 158c-1-.2 1.8-.2.9 0h-1zM316.8 157.6c-.8-.3 1.5-.3.7 0a1 1 0 01-.7 0zM312.5 145l-1.3-.4h-.5c-.4-1 3 .1 3 1.3l-1.2-1zM312.1 147.2c-1.1-.3.1-.2 0-.2h-.2c-.4-1 0-.5-.9-1 0 0 0-.3-.2-.4 0 0-1.3-.3-.6-.4 2.4-.5 3.1 2.2 2 2zM311.3 148.3c-1.1-.2 0-.2 0-.2-.5-.5.4-.3.8-.4.9-.3.2.7-.8.6zM301.3 159c.2 0-.8.3-.3-.4.7-.8.3.3.2.3h.1z"/><path fill-rule="evenodd" clip-rule="evenodd" fill="#FDD6C6" d="M291.2 156.8l-.7-1 1.2-.8-.5 1.8z"/><path fill-rule="evenodd" clip-rule="evenodd" fill="#FFF" d="M293.4 150.2l-.4-.3v-.1c.1-.2.3-.1.5-.1v.5z"/><path fill-rule="evenodd" clip-rule="evenodd" fill="#FDD6C6" d="M290.8 153.2c.2-.2.7.2.7.4 0 .3-.3 1-.6.7-.3-.2-.3-.8 0-1.1z"/><path fill-rule="evenodd" clip-rule="evenodd" fill="#FFF" d="M312.6 195.9c-.3-.2.2-.4.5-.3s-.2.4-.5.3zM307.7 197.6c-.1-.1.1-.4.3-.2.1.1-.2.4-.3.2zM313.7 198.1c-.2-.1.1-.4.2-.3.2.2 0 .5-.2.3zM314.1 198.3c-.1-.1.1-.4.3-.2.1.1-.1.4-.3.2zM312.6 199.7c-.3-.2.2-.4.5-.3.2.1-.2.4-.5.3zM313.5 200.1c-.4-.2-.6-.3-.2-.5.3-.2.6.7.2.5zM315.5 201c-.2-.2 0-.4.2-.3.2.2-.1.4-.2.3zM313 201.9c-.2-.2.2-.4.5-.3.3.1-.2.4-.5.3zM309.7 202.7c-.4-.2.8-.1.4 0s0 .2-.4 0zM310.2 202.9c-.4-.2 1.1 0 .6 0h-.6zM312 205.9c-.2-.2 0-.5.2-.3.1.1-.2.4-.3.3zM313.5 206.5c-.2-.1 0-.7.2-.5v.3h.5c.2.1-.5.4-.7.2zM314.4 206.7c-.1 0-.1-.2 0-.2.6-.4.6.5 0 .2zM307.3 210c-.2 0 0-.4.2-.2s0 .4-.2.3zM307.7 210.3c-.1-.1.1-.4.3-.3.1.2-.2.4-.3.3zM308.1 210.5c-.3-.2.8-.1.4 0-.3.1 0 .2-.4 0zM313.7 210.7c-.2 0 0-.1 0-.2-.1 0 0 .3-.5 0-.4-.2 1.6 0 1.2.2-.5.2-.6 0-.7 0z"/><path fill-rule="evenodd" clip-rule="evenodd" fill="#FFF" d="M308.6 210.6c-.3-.1 1 0 .6.1h-.6zM309.2 210.9c-.2-.2.8 0 .4 0s-.1.1-.4 0z"/><path fill-rule="evenodd" clip-rule="evenodd" fill="#FFF" d="M309.7 211c-.4-.1-.4 0 0 0 .5-.2.4.3 0 0zM313.5 212.7c-.2 0 .6 0 0-.2-.7-.2-1-.7-.2-.5.8.2 0 .2 0 .3 0 0 1.4.3 1 .4a2 2 0 01-.8 0z"/><path fill-rule="evenodd" clip-rule="evenodd" fill="#FFF" d="M314.5 212.7c.1.2 0 .2-.1.1-.1 0 0-.3.1-.1zM310 213.2c-.2-.2 0-.4.2-.3.1.2-.1.4-.3.3zM315.5 192.8c-.2-.2 0-.4.2-.3.2.2-.1.4-.2.3zM318 195c-.7-.5-.3-.4-.3-.4 0-.1 0 1-.2 0-.3-1 1 .9.4.4zM315.2 213.4c-.3-.2.8-.2.4 0-.4 0 0 .2-.4 0z"/><path fill-rule="evenodd" clip-rule="evenodd" fill="#FFF" d="M315.7 213.5c-.3-.2.8 0 .4 0-.4.1-.2.2-.4 0zM316.8 213.8c-.1.2.3.3.2 0-.4-.6-1.5.3-.2 0zM318.4 214.7c-.3-.1.2-.4.4-.2.3 0-.2.3-.4.2zM308.6 214.7c-.2-.1.1-.4.2-.2.2.1 0 .4-.2.2zM314.1 215c-.2-.1-.2-.2 0-.3.2-.2.2.3 0 .2z"/><path fill-rule="evenodd" clip-rule="evenodd" fill="#FFF" d="M315.5 215.6c-.2 0 .3-.1 0-.2-.4-.1-.7 0-1.1-.4-.5-.3 1.2 0 1.3.1v.2c.7.4.4.5-.2.3zM307.3 216c-.3 0 .2-.3.4-.2.3.2-.2.4-.4.3zM316.8 216.3c-.1 0 .6 0 0-.2-.5-.3-.2-.6.3-.3.4.2-.1.2 0 .2 0 0 .2-.1.4 0 .3.2-.6.3-.7.3z"/><path fill-rule="evenodd" clip-rule="evenodd" fill="#FFF" d="M307.7 216.2c-.2-.2.7 0 .4 0-.4.1-.2.2-.4 0z"/><path fill-rule="evenodd" clip-rule="evenodd" fill="#FFF" d="M308.1 216.4c-.3-.2-.3 0 .1-.1.4-.2.3.3 0 .1zM308.8 216.7c-.1-.1.1-.4.3-.2.1.1-.2.4-.3.2zM310.2 217.4c-.3-.1.2-.4.4-.3.3.2-.2.4-.4.3zM312.1 218c-.2 0-.1 0 0-.2.2-.1.3.3 0 .3z"/><path fill-rule="evenodd" clip-rule="evenodd" fill="#FFF" d="M312.4 218.2c-.3-.2.7 0 .3 0h-.3zM314.6 219.4c-.6-.3.7.3 0-.2-.8-.6.6.5 0 .2z"/><path fill-rule="evenodd" clip-rule="evenodd" fill="#FFF" d="M315.4 219.5c0 .3.4.3.2 0-.4-.6-1 .4-.2 0zM308 220.5c-.6-.4.2-.6.4-.5s0 .8-.5.5zM304.4 220.7c-.3-.1.2-.4.5-.3.2.2-.2.4-.5.3zM315 221.8c-.5-.2.3 0 0-.2s-8-3.5-7.5-3.8c.6-.3-.2.1.9.4 1 .3 5.3 2.2 6.2 2.7 1 .4 0 .2 0 .2h.4c.1 0 .5 1 0 .7zM313 223c-.2-.1-.2-.2 0-.3s.2.3 0 .2zM305 223c-.3-.3.8-.2.4-.1-.3.1 0 .2-.3 0zM313.3 223c-.1 0 0-.3.1-.1.1.2 0 .3-.1.1z"/><path fill-rule="evenodd" clip-rule="evenodd" fill="#FFF" d="M305.5 223s0-.3.1-.1c.2.2 0 .3-.1.1zM310 223.6c-.3 0-.2-.1 0-.3.1-.1.2.4 0 .3z"/><path fill-rule="evenodd" clip-rule="evenodd" fill="#FFF" d="M310.2 223.7c-.3-.2.7 0 .3 0-.3.1-.1.2-.3 0zM310.8 224.3c-.3-.2-.5-.4-.1-.5.3-.1.5.6.1.5zM304.8 224.7c-.1-.1.2-.4.3-.3.1.2-.1.4-.3.3zM313.9 225.6c-.1.4.5-.2 0-.1.1-.3-.7-.3-.8-.4-.3 0 .3.1 0-.2-.3-.3-2-.6-1-.2 1.1.4.1.4.3.4.3.2 1.2.6 1.5.5zM311.5 226.5c-.2-.1-.2-.2 0-.3.2-.1.2.3 0 .3z"/><path fill-rule="evenodd" clip-rule="evenodd" fill="#FFF" d="M312 226.9c-.4-.2-.6-.4-.2-.5.3 0 .5.7.1.5zM308.6 226.9c-.2-.1.1-.4.2-.3.2.2 0 .4-.2.3zM312.4 227c-.3-.2.7 0 .3 0-.3.1-.1.2-.3 0zM312.8 227.2c0-.1.2-.2.3 0 0 0-.2.2-.3 0zM313 227.5c-.3-.2-.3 0 .1-.2.4-.1.3.4 0 .2zM313.7 227.8c-.2 0-.2-.1 0-.3.2-.1.2.3 0 .3zM314 228c-.2 0 0-.3.1 0 0 .2-.1.1-.2 0zM314.1 228.2c0-.2.2-.2.3-.1 0 .1-.2.2-.3 0z"/><path fill-rule="evenodd" clip-rule="evenodd" fill="#FFF" d="M314.4 228.4c-.1-.1 0-.4.1-.2s0 .3-.1.2zM289.7 211.8l-.2-.4c-1.8-1.8 2.1-3 3-3.7 1.8-1.9 4.8-4 6-6.3.3-.6 1.9-1.4 2.4-.9 1.5 1.6-1.3 2.3-2.2 2.8-.6.3-.3.3-.7.8-.3.3-1 .3-1.3.7l-3 3c-.7.8-.4-.5-.8.7-.3.9-.8.3-1.3.7-.6.4.3 3-1.9 2.6z"/><path fill-rule="evenodd" clip-rule="evenodd" fill="#FFF" d="M290 210.6v-.6h.2v-.1l.4-.1v.2c.9.3-.6 1-.6.6zM299.3 202.5c-.3-.5.3-.7.7-1.1 1-1.1-.3 1.6-.7 1zM286.9 229.8v-.7h.2v-.1l.4-.2.5-.1c0 .8-1.2 1.6-1.1 1.1zM287.3 227.6c-.3-.5.3-.8.7-1 .4 0-.3 1.4-.7 1zM287.5 225.6l.1-.5h.1v-.4c1.4 0-.2 1.2-.2.9zM287.8 223.4c-.6-.2.7-1.6.9-1.2.2.5-.4 1.4-1 1.2z"/><path fill-rule="evenodd" clip-rule="evenodd" fill="#FFF" d="M287.5 221.8l.1-.5c.1 0 1.3-1.8 1.3-.4-.1 1.4-1.4 1.4-1.4.9zM287.8 219.6v-.5h.4v-.1c1-.3-.4 1.2-.4.6zM287.3 212l.1-.9h.1v-.1l.5-.1v-.1c1.4-.2-.7 1.6-.7 1.3zM287.1 210c-.5-.5.4-.8 1-.9.4 0-.5 1.6-1 1zM286.9 208.5v-.7h.4v-.1c1.5-.3-.4 1.3-.4.8zM288.2 204.8v-.3h.2v-.1l.5-.1v.4h-.7zM287.5 213.8c.2-.7 1-1.6 1.4-1.8v.7c0 .6-1.5 1.9-1.4 1.1zM287.3 216.3c-.2-.5 1.1-2.1 1.6-1.8.5.2-1.3 2.3-1.6 1.8zM287.3 218c.2-.5.9-2.2 1.4-1.5.5.6-1.5 2.1-1.4 1.6zM297 190.7c-.6-.2.1-1.1.5-.8.4.4 0 1-.6.8zM297.8 192.6v-.3h.2v.2h-.2zM296.2 195.2v-.2h.2v-.5c1.4 0-.4 1.2-.2.7zM294.6 197.6l.1-.4h.1v-.2h.5v.4h-.4v.2h-.3zM293.3 199.4v-.2h.5v.2h-.5zM291 201.4v-.2h1v.2h-1zM289.3 203.2c-.7-.4.7-.7 1.1-.7.5 0-.3 1-1 .7zM291.1 199v-.2c.4-.4 1.2-1 1.8-1.2 0 1-.8 1.4-1.8 1.4zM291 199.2l-.1-.2h.1l.1.1h-.2zM290.7 199.4v-.1l.1-.1v.2h-.1zM299.7 188.6c-.2-.3.5-.9.5-.7.1.3-.1 1-.5.7zM298.9 190.5c-.2-.1 0-.4.2-.2.1.1-.1.4-.2.2zM297.6 189.9c-.3-.3.4-.4.2 0h-.2zM242.1 220v-.2c.3-.2.3.3 0 .2zM242.3 220.1l.3-.1c.2.2-.1.3-.3.1zM239.5 221.6v-.3c.3-.2.3.4 0 .3z"/><path fill-rule="evenodd" clip-rule="evenodd" fill="#FFF" d="M240 222.5l-.3-1c.2-.5 1.2 1.9.2 1zM238.4 222.5v-.3c.3-.2.3.4 0 .3zM238.6 223c-.2-.6.4-.7.2-.1h-.2zM239 223.6s-.3-1 0-.7c.3.3.4 1 0 .7zM233.7 224v-.2c.3-.2.3.3 0 .2zM235.7 224.3l-.4-1c.7-.3.7 1.2.4 1zM237.7 224.5s-.5-1.4 0-1c.4.3.2 1.3 0 1zM234.4 225.1l-.4-1c.1-.6 1 1.6.4 1zM234 225.6v-.3c.6-.3.5.6 0 .3zM238.8 226v-.2c.3-.2.3.3 0 .2zM236.8 226c-.2-.7.6-.7.2 0h-.2zM239 226.1s.1-.2.2-.1c.2.3 0 .3-.2.1zM241 226.5l-.2-.5c-.8-.8.8-.2.4.4 0 0-.1.1-.2 0z"/><path fill-rule="evenodd" clip-rule="evenodd" fill="#FFF" d="M237.3 226.7c-.1 0-.4-1-.1-.7.3.3.4 1 0 .7zM235.5 226.9s-.6-1-.5-1.1c.5-.5 1.5 1.5.5 1.1zM232 226.9v-.3c.3-.2.3.4 0 .3zM232.2 227s0-.2.1-.1c.2.2 0 .3-.1.1zM234.8 228.5v-.3c.3-.2.3.4 0 .3z"/><path fill-rule="evenodd" clip-rule="evenodd" fill="#FFF" d="M235.3 229.1c-.1 0-.4-.9-.1-.7.3.3.4 1 0 .7zM281.9 229.3c-.5-.2.3-1 .1 0h-.1z"/><path fill-rule="evenodd" clip-rule="evenodd" fill="#FFF" d="M281.6 230.5c-.1-1.5.4-1.5.2 0h-.2zM281.4 231.3c-.3-1 .5-1 .2 0 0 0-.2.1-.2 0zM281.2 232.2c-.4-1 .5-1 .2 0h-.2zM279.6 234.2c0-.3 0-2 .2-2.4.9-1.2-.1 3.1-.2 2.4zM287.1 232.6c0 1.3-1 .7-1.1 1.4-.1.7-1.2 1.5-1.6.7-.3-.8 2.8-3.3 2.7-2zM286.5 234.9c0 1.1-.8 1-2 1.7-1.3.7 2-2.9 2-1.7zM282.9 238.9c0-.9 1-1.2 2.2-1.5 1-.4-2.2 2.4-2.2 1.5zM282.2 240.7c-.8-.8 2.6-1.4 3.2-1.4.6 0-2.3 2.1-3.2 1.4z"/><path fill-rule="evenodd" clip-rule="evenodd" fill="#FFF" d="M281.7 235.1l.7-3.6c4.8 0-2 10.2-.7 3.6zM285 217.2v-1.6c2-.5 0 2.2 0 1.6zM283.8 218c0-.3 0-2 .7-1.7l-.7 1.8zM282.4 218.5c0-.3.2-1.5.5-1.7 1-.7-.2 2.5-.5 1.7zM278.3 220.2c-.3-.1 0-2 .7-1.3 0 0-.4 1.4-.7 1.3zM284.4 222c0-.8.6-4 .7-3.5.1.2 0 .6 0 .8 0 0 .5 0 .2.5h-.2c0 .3-.6 3-.7 2.3zM280.7 222.5c-.1-.8.5-4.8.7-5 1.3-1-.6 5.7-.7 5zM279.5 222.7c-.3-.2.4-3.8.9-4 .5-.2-.4 4.3-1 4zM283.1 223l.3-2.6s.3-1.1.4-.6c.1.5-.3 2.6-.5 3.1 0 0-.2.1-.2 0z"/><path fill-rule="evenodd" clip-rule="evenodd" fill="#FFF" d="M280.5 223.2c-.3-.7.6-.7.2 0h-.2zM279.2 223.8c-.6-.3.4-2.4.2 0h-.2zM281.6 224c0-.5 1-6.4.8-2.7 0 .8-.9 3.3-.8 2.7z"/><path fill-rule="evenodd" clip-rule="evenodd" fill="#FFF" d="M279 224.5c-.3-1 .4-.9.1 0h-.2zM276.5 235.6v-.7c2.2-1.1 0 .7 0 .7zM277.6 237.3c-.3-1.2.6-1.3.2 0 0 0-.2.1-.2 0zM277.4 238.7c-.3-1 .5-1 .2 0h-.2zM276 237.8c-.1-.4.5-.4.3 0-.2.3 0 .3-.2 0z"/><path fill-rule="evenodd" clip-rule="evenodd" fill="#FFF" d="M276.3 237.1c-.2-.8.4-.8.2 0s0 .8-.2 0zM278.5 232.2c-.2-.1 0-.4.2-.2.2 0-.1.3-.2.2zM278 234.7c-.3-.7.6-.7.3 0h-.3zM279 238c-.1-.5 0-2.5.1-3h.3v-.6c.3-.7 0 2.5 0 2.7h-.2c0 .1-.2 1.5-.3.9z"/><path fill-rule="evenodd" clip-rule="evenodd" fill="#FFF" d="M278.8 239.3c-.6-.3.3-2.5.1 0h-.1z"/><path fill-rule="evenodd" clip-rule="evenodd" fill="#FDD6C6" d="M287.7 172.4v-.2h-.2v-.5h.5v.7h-.3zM289 172v-.5h.5v.5h-.5zM288.4 170.5v-.5h.4v.4h-.4zM290.1 170.2v-.2h-.2v-.2h.5v.4h-.3zM289.5 169.4c-.4.5 0-.6 0-.7h.4l-.4.7zM287.8 165.6c-.4.5 0-1 0-1.2l.7.3-.7.9zM289.9 163.6c-.7 0 0-1 0-1l.5-.1v1l-.5.1zM291.7 163c-.5 0-.4-.8.5-.8v.7h-.5zM290.8 164.7c-.4 0-.2.6-.2-.5 0-1 .6.5.2.5zM291.7 165.8c-.2 0-.7-.7.3-.7v.7h-.3zM290.6 167.6s-.3 0-.3-.3l.1-.4h.1v-.2h.4v.2h.2l-.5.7zM289.9 166.2c-.6.1 0-.5 0-.6h.3v.6h-.3zM288.8 168c-.3.5 0-.7 0-.8l.3-.1v.2h.2l-.5.7zM287.5 171.1v-.2h-.2v-.7h.5v.9h-.3zM290.6 161.4c-.2 0-.8-1 .3-1v.5h.2l-.5.5zM289.5 160c-.7 0 .5-1.4.4 0h-.4zM289 162c-.5.1-.4-.4-.4-.7h.2v-.4h.5v1.1h-.3zM287.7 162.7l-.4-.5h-.2v-.2l.5-.1c.9-.2 1.2.7 0 .8z"/><path fill-rule="evenodd" clip-rule="evenodd" fill="#FFF" d="M294.3 170.7c0-.5-.8-1-1-1.5 0-.2.1-.6 0-.8v-.1c.2 0 2.5 4 1.6 4-.3-.6-.7-1-.6-1.6zM293.8 171.4c0-.4-.5-1.5-1-1.5 0 .4.4.7.4 1 .4.2.3 1.2.5 1.6h.1v-1.1zM297 168.4c0-.2-.4-.6-.3-.7.5-.3 1 .9 1 1.2h-.4c0-.2-.3-.5-.3-.5zM295.1 168c0-.4-2-2.2-1.1-2.2 1.6 0 2.5 2 2.5 3.7h-.4l-.8-1.5h-.2zM318.8 159.4c-.1 0 .4-.7.7-.5.4.4-.4.6-.7.5zM317.5 160c-.2-.1 0-.4.2-.2.1.1-.1.4-.2.2zM315.7 160.5c-.2-.2 0-.4.3-.3.1.1-.2.4-.3.3zM310.6 159.6c-.1 0 .6-.8.7-.7.2.3-.4.9-.7.7zM314 159.2c-1-.3 1.4-.4.6 0a1 1 0 01-.7 0zM299 162.3c0-.2-2.2-1.3-1.4-1.7.6-.4 1 .8 1.5 1 .7.2.6 0 .6.7h-.6z"/><path fill-rule="evenodd" clip-rule="evenodd" fill="#FFF" d="M298.2 164.3c.2 0-.2 0-.3-.2-1-.7 1.9.1 2-.7V162c.1-.5 1.3-.2 1.2.3-.1.3-.6.5-.7.8-.1.4 0 .8-.4 1.2-.6.5-1.6 1-1.6 0h-.2zM300.1 161c-.5-.5.3-.5.2 0 0 .1-.2 0-.2 0zM295.6 162.7c-.3-.6-.6-2.8-1.4-2.8-.4 0 1.2 3.9 1.8 3.6.4-.2-.4-.7-.4-.8z"/><path fill-rule="evenodd" clip-rule="evenodd" fill="#FFF" d="M297.5 163.9c0-.2-1.1-1-.8-1 1-.1.8 1 .8 1zM295.6 164.4c-1.3-.2-1-3.3-1.6-2.7-1.7 1.6 3.1 5.2 3.3 5 .2 0 .2-.4 0-.4-1-.4-1-1.8-1.7-2zM313.5 139.4c-.3-.3.8-1.2 1.1-.5.2.5-.7 1-1.1.5zM314.6 138.7v-.1h.2v.1h-.2zM314.9 138.5l-.1-.1.2-.1v.2h-.1zM314.1 140.3a15 15 0 012.5-3c.1 1.2-1.3 3.2-2.5 3z"/><path fill-rule="evenodd" clip-rule="evenodd" fill="#FFF" d="M314.4 142v-.1h-.5c0-1.4 1.9-2.8 2-1.2l-1 1.1c.3-.3 1.3-1.6 1.7-.7.7 1.3-.7 1-2.2 1zM316.7 139.4l-.1-.1.2-.1v.2h-.1z"/><path fill-rule="evenodd" clip-rule="evenodd" fill="#FFF" d="M316 140.3c-.2 0 .2-1 .4-.9.8.4.3.9-.4.9zM308.6 139.4c-1.6 0 2.9-.4 2.7-.2-1.2 1-1.4.2-2.7.2zM304.8 142v-.2l.5.1v.1h-.5zM305 174.2c-.1-.2.2-.5.3-.3.1.1-.1.4-.2.3zM306 173.3c-.1-.1 0-.3 0-.4 0 0-.7 0-.3-.3 1-.5.4 1 .2.7zM303 179s.4-1 .5-.7c.1.4 0 1-.5.7zM302.2 181.5c-.2-.1.4-.6.4-.5.2.3-.1.7-.4.5zM302.2 176.6c-.4-.3.6-1.3 1-1.8 0 .5-.5 2-1 1.8zM303.3 174.8c-.3-.2.6-1.8.7-1.5.1.3-.6 1.6-.7 1.5zM318.1 168.7c-.1-.2.1-.4.3-.3.1.2-.1.4-.3.3zM302.8 171v.3c-.4 0-.4-.7 0-.4zM302.9 170.9c-.4-.2.4-1 .1 0h-.1zM318 162.7c-1-.7 1-.6.1 0h-.2zM309.2 161.8c-.1-.2.1-.4.3-.3.1.2-.1.4-.3.3zM307 162.7c-.4-.3.3-.8.7-.5.4.3-.2.8-.7.5zM306.4 161.4c-.4-.2 0-.9.2-.7.1 0 0 .2 0 .2.2 0 .7-.2.4.2 0 .2-.4.4-.6.3zM304.8 161c-.1-.2.1-.5.3-.3.1 0-.1.3-.3.2zM305 162.7c-.8-.7.7-1.3.3 0h-.2zM238 166.4s1.3-.4 1.8-.8l.7-.5c1.4-.6-1.2 2-2.6 1.8-1-.1.2-.5.2-.5zM237.7 160.1s2-2 2.4-2.7l.7-1.1c1.4-1.3-1.5 3.3-2.5 4-.5.2-2.3 1.6-.6-.2zM236.8 162.5l1 .3c2.5.5-1.3 1-1.4 0 0-.5.4-.3.4-.3zM235.9 163s0 .5.6.7c2 .6-1.2 1-1.2-.6h.6zM239.5 161.3s1-.9 1.2-1.3c.1-.2.7-1.6.7-.4 0 2-2.4 2.9-2.1 2.1l.2-.4z"/><path fill="none" d="M166 54.3h221v219.3H166z"/><path fill="none" stroke="#000" stroke-width="2.1" stroke-miterlimit="2.6" d="M276 85.2a78.5 78.5 0 0178.3 78.3 78.4 78.4 0 01-78.3 78.3 78.4 78.4 0 01-78.3-78.3A78.5 78.5 0 01276 85.2h0z"/><path fill-rule="evenodd" clip-rule="evenodd" fill="none" stroke="#FDD6C6" stroke-width=".4" d="M246.7 121.4a45.7 45.7 0 00-4.3 11.2"/><path fill-rule="evenodd" clip-rule="evenodd" d="M244.4 126.5v-.7h.1v-.5h.5v-.1l-.6 1.3zM245.3 124.6c.1-.4.3-1.1 1.1-1.4l-1 1.4zM243.3 128.2c0-.5.2-1.2 1-1.4l-1 1.4zM242.5 131.1c-.5-.7 2.4-3.3 2.6-2.2.1 1-2.1 3-2.6 2.2z"/><path fill-rule="evenodd" clip-rule="evenodd" d="M241.6 133l2-2c1.6.2-2.2 3.3-2 2zM243.2 129.4l.1-.7h.1v-.4h.5l-.6 1.3zM243.5 128.3c0-.5.8-1.2 1.6-1.5l-1.1 1.4-.5.1z"/><path fill-rule="evenodd" clip-rule="evenodd" d="M242.4 132l.4-.8.1.7h-.6z"/><path fill-rule="evenodd" clip-rule="evenodd" fill="none" stroke="#FDD6C6" stroke-width=".4" d="M247 121.6l-.4.5-.5.7"/><path fill-rule="evenodd" clip-rule="evenodd" d="M246.4 121.8l.2-.3h.2l-.3.3h-.1zM246 122.4l.3-.3h.2l-.2.3h-.2zM246.7 121l.4-.1v.3l-.4-.1z"/><path fill-rule="evenodd" clip-rule="evenodd" stroke="#000" stroke-width=".3" stroke-linecap="round" d="M246.5 121.2c.3 0 .4-.4.6-.5"/></svg>