<svg xmlns="http://www.w3.org/2000/svg" width="1000" height="700" viewBox="0 0 3000 2100" shape-rendering="geometricprecision" text-rendering="geometricprecision" fill-rule="evenodd" clip-rule="evenodd"><defs><style>.str0{stroke:#002868;stroke-width:4}.fil4{fill:none}.fil3{fill:#002868}.fil1{fill:#fff}</style></defs><path id="rect2289" fill="#bf0a30" d="M0 0h3000v2100H0z"/><path id="rect2290" class="fil1" d="M150 150h2700v1800H150z"/><path id="rect2291" fill="#002868" d="M225 225h2550v1650H225z"/><path id="path2288" class="fil1" d="M1006.6 1200.7c-10-49.7-41.4-91-51.4-94.4-9.9-3.3-28.1-8.3-28.1-8.3s13.2-10 6.6-28.1c-6.6-18.2-36.4-68-38-96-1.7-28.2 6.6-64.6 0-87.8-6.7-23.2-31.5-43-33.2-86.1-1.6-43 69.6-102.7 111-104.3 41.4-1.7 79.4 13.2 102.6 11.6 23.2-1.7 51.4-31.5 69.6-38.1 18.2-6.7 26.5 3.3 38-1.7 11.6-5 106-82.8 200.4-82.8s165.6 34.8 187.1 34.8 61.3-10 91 0c29.9 10 66.3 54.6 109.4 66.2 43 11.6 291.4 56.3 319.5 101 28.2 44.7 46.4 109.3 46.4 140.8 0 31.4-8.3 115.9-8.3 132.4 0 16.6 8.3 38.1 5 59.6-3.3 21.6-13.3 29.9-13.3 29.9s-6.6-36.5-8.2-58c-1.7-21.5 13.2-81.1 11.6-116-1.7-34.7-16.6-77.7-16.6-77.7s-10 49.6-18.2 81.1c-8.3 31.5-33.1 120.9-33.1 172.2 0 51.3 14.9 125.8 14.9 125.8s-41.4 71.2-44.7 99.4c-3.4 28.1-10 94.4-8.3 102.7 1.6 8.2-10-3.4-13.3 6.6-3.3 10-1.6 23.2-1.6 23.2l-38.1-3.4s1.6-16.5 8.3-28.1c6.6-11.6 16.5-19.9 14.9-34.8-1.7-14.9 1.6-79.5 1.6-79.5s-28.1 48-36.4 66.3c-8.3 18.2-8.3 41.4-11.6 49.7-3.3 8.2-10 8.2-13.2 18.2-3.3 10-8.3 10-8.3 10l-29.8 1.6s58-142.4 61.2-178.9c3.4-36.4-36.4-111-44.7-135.7-8.2-24.9-8.2-44.7-16.5-54.7s-36.4-21.5-46.4-16.5-64.6 56.3-76.1 71.2c-11.6 14.9-41.4 43-41.4 43s-66.3-36.4-101-44.7c-34.8-8.3-121-14.9-121-14.9s6.7 127.5 3.4 147.4c-3.3 19.8-19.9 26.5-19.9 39.7v41.4c0 10-26.5 13.2-33 21.5-6.7 8.3 0 15-8.4 26.5-8.3 11.6-19.8 8.3-24.8 15-5 6.5-1.7 46.3-1.7 46.3l-66.2-1.7s26.5-54.6 24.8-86c-1.6-31.5-28.1-77.9-33-102.7-5-24.9-20-63-39.8-63-19.9 0-36.4 10-36.4 10s5-82.8-23.2-117.6-96-31.4-117.6-26.5c-21.5 5-44.7 36.5-53 39.8-8.3 3.3-14.9 0-28.1 5-13.3 4.9-29.8 18.1-41.4 28z"/><g id="g3286"><g id="g1883"><path id="path1825" class="fil1 str0" d="M1307.6 690c0-13.7 11.7-10 23-15.1 11.3-5.2 21.2-12.7 21.2-12.7l.5 35.3H1309l-1.4-7.6z"/><path id="path1826" class="fil1 str0" d="M1494.3 723.8c-11.7 7-14.6.5-22-6.6-7.6-7-30.2-23.5-30.2-23.5l60.2 9.9-8 20.2z"/><path id="path1824" class="fil1" d="M1307.7 687.9c-1.5 13.5-.6 23.3 6.5 29.8 7 6.6 12.7 4.2 17.8 3.3 5.2-1 68.2-26.4 87.5-26.4 19.3 0 45.7 1 60.2 14.6 6.6 6.2 13.2 10.8 12.3 14.6-1 3.8 23.5-13.2 23-24s-34.3-32.4-70.5-37.6c-36.3-5.2-84.6 24-119.5 26.8-12.5 1.2-17.4 3-17.3-1.1z" stroke="#002868" stroke-width="4" stroke-linejoin="bevel"/><path id="text1827" class="fil3" d="M1493.3 703.2c-1.3 1.7-.8 3.4.8 4.7 1.1.9 3 1.7 4 .4 1.1-1.3.2-2.5-.6-3.6-1-1-2.1-2.2-2.5-3.6-.7-2 1.3-4 3.3-4.1 2.3-.2 4.8 2 5.4 4.2.4 1.1 0 2.2-.8 3.4l-1.3-1c.4-.7.5-1.2.6-1.7 0-1.5-2.1-3.5-3.7-3.4-1.1.1-2.2 1.2-1.7 2.4.5 1.2 1.7 2.4 2.5 3.5 1.2 1.4 1.7 3 .4 4.7-1.9 2.3-4.6 1.5-6.6-.1-2.2-1.8-3-4.5-1.1-6.8l1.3 1z"/><path id="path1848" class="fil3" d="M1494.7 693.3l-.9 1.2-3.5-2.5-6.7 9.4-1.4-1 6.6-9.4-3.6-2.6 1-1.2z"/><path id="path1847" class="fil3" d="M1470.5 680.4l1.6.7-2.2 5 6.2 2.7 2.2-4.8 1.6.7-5.4 11.8-1.6-.7 2.5-5.5-6.1-2.9-2.6 5.6-1.6-.8z"/><path id="path1846" class="fil3" d="M1457.3 677c1.2.4 2.2.9 3 1.6 1 1 1.5 2.3 1.3 4l-1.7-.4c0-1-.2-1.8-.7-2.4-.6-.5-1.3-1-2.3-1.2a4 4 0 00-3.3.5c-1 .7-1.7 2-2.2 3.7a6.5 6.5 0 000 3.9c.5 1 1.4 1.8 3 2.2 1 .3 2.1.2 3-.3 1-.5 1.6-1.4 2-2.9l-4-1 .4-1.4 5.5 1.4-1.7 6.7-1-.2v-1.8l-2 1a6 6 0 01-3-.1 5.7 5.7 0 01-3.5-2.5 7 7 0 01-.5-5.4 7.4 7.4 0 013-4.6c1.4-1 3-1.1 4.7-.7z"/><path id="path1844" class="fil3" d="M1443 674.9l1.8.1-1.3 13-1.8-.2z"/><path id="path1842" class="fil3" d="M1433 680c.9.1 1.5 0 2-.3s.8-1 .8-1.8c0-.9-.2-1.5-.9-2l-1.4-.3-4.3-.2-.2 4.4 4 .3m-5.5-6.3l6 .3c1 0 1.8.3 2.5.6 1.2.6 1.7 1.7 1.6 3.2 0 .7-.2 1.4-.6 1.8-.3.5-.8.9-1.4 1.2.5.2.9.5 1.1.8.3.4.4 1 .4 1.7v2.9c.1.4.3.6.5.8v.3l-2.1-.1-.2-.5v-3.2c0-.8-.3-1.4-.8-1.7a4 4 0 00-1.6-.4l-4-.2-.3 5.6-1.8-.1.7-13z"/><path id="path1840" class="fil3" d="M1377.3 682.6l1.7-.4 2.4 11.2 6.4-1.3.4 1.5-8.2 1.7z"/><path id="path1839" class="fil3" d="M1369.6 693.3l-3.4-5-.6 6 4-1m-4.8-6.6l1.9-.6 8 11.4-2 .5-2.2-3.4-5 1.3-.3 4.1-1.8.5 1.4-13.8z"/><path id="path1836" class="fil3" d="M1348.5 692.8l1.7 7.8c.2 1 .5 1.7 1 2.2.7.8 1.7 1.1 2.9.9 1.4-.3 2.3-1 2.6-2.1.2-.6.2-1.4 0-2.3l-1.6-7.9 1.7-.4 1.5 7.2c.3 1.6.4 2.8.1 3.7-.4 1.7-1.7 2.8-3.9 3.3-2.1.4-3.7 0-4.8-1.4-.6-.8-1-2-1.4-3.5l-1.5-7.2 1.7-.3z"/><path id="path1832" class="fil3" d="M1317.1 703l9-3 .6 1.5-7.4 2.4 1.2 3.8 6.8-2.3.5 1.5-6.9 2.2 1.4 4.2 7.5-2.4.5 1.4-9.1 3z"/><path id="path1849" class="fil3" d="M1345.8 707.4l-.6 1.2-2.3-1a7 7 0 01-3 1.8 6 6 0 01-5.2-.8 7.6 7.6 0 01-2.7-4.2c-.4-1.7-.4-3.3.2-4.7.6-1.9 2-3 4.2-3.6 2.2-.6 4-.3 5.4.8 1.2 1 2 2.2 2.4 4 .5 1.8.5 3.9-.5 5.6l2.1.9m-5.2 0c.3 0 .5-.2.7-.4l-1.6-.8.5-1.2 2 .8c.7-1.4.7-3 .3-4.5-.4-1.4-1.1-2.5-2.1-3.2a4 4 0 00-3.5-.5c-1.4.3-2.4 1-3 2.1-.5 1-.5 2.5 0 4.3.3 1.5 1 2.6 2 3.3 1.4 1 3.2.7 4.7.2z"/></g><g id="use1823"><path id="path2293" class="fil1 str0" d="M1476.8 1013.6s-11.1-9-14-13.2c-2.7-4.2-10.3-17.4-10.3-17.4l19.4-20.1s14.6 18 14.6 21.5-9.7 29.2-9.7 29.2z"/><path id="path2294" class="fil1 str0" d="M1479.5 915.7s-24.3-20.2-26.3-25c-2.1-4.9-2.8-22.3-2.8-22.3l11.8-2.7s4.9 4.1 11.1 7.6c6.2 3.5 15.3 4.2 15.3 4.2l-9 38.2z"/><path id="path2295" class="fil1 str0" d="M1496.4 741.4l-.5-11.6c-.2-3.7-5.3-8.3-5.3-8.3s-6 6-6.3 8.1c-.3 2.3-.5 13.3-.5 13.3l12.6-1.5z"/><path id="path2296" class="fil1 str0" d="M1505.8 1022.1l-4.3-233.8-25.2.9-3.4 234.7z"/><path id="path2297" class="fil4 str0" d="M1481.3 1024.4l2.2-243.7m-2.2 243.7z"/><path id="path2298" class="fil4 str0" d="M1476.9 1024.4l.4-243.7m-.4 243.7z"/><path id="path2299" class="fil4 str0" d="M1494.6 1025.7l1.8-245.9m-1.8 246z"/><path id="path2300" class="fil4 str0" d="M1488 1025.3c-.5-2.2 1.7-245.9 1.7-245.9m-1.7 245.9z"/><path id="path2301" class="fil4 str0" d="M1502.2 1026.2l.4-246.8m-.4 246.8z"/><path id="path2302" class="fil1 str0" d="M1511 1039.5v-14.8l-4.3-3.4h-31.2l-7.8 4.3 1.7 15.6z"/><path id="path2303" class="fil1 str0" d="M1504.8 753.9l-4.6-7.4 9.3-8.1-37.5-.6 8.1 8.7-3.6 7.2z"/><path id="path2304" class="fil1 str0" d="M1501.7 777l-7-7.2s15.2-14.3 17.3-14.3c2 0 3.3 3.3 5.6 3.1 2.2-.1 3.5-1 3.5-3.5 0-2.4-2.3-3.5-5.6-3.3l-49-.6c-3.6.1-4.7 2.2-4.5 4 .1 1.7 2.5 3.4 4.6 3.3 2-.2 2.7-3.5 5-3.4 2.2.2 11.7 13.4 11.7 14.4l-8 7.6 26.4-.1z"/><path id="path2305" class="fil1 str0" d="M1507.4 784.5c6.9 7.6 11.4 12.3 11 24.2 0 12.5-17 31.5-29.7 43-13 11.5-35.6 19.8-35.6 30 0 9.9 2 11.1 4.4 14.3-2-2.3-12.7-9.5-12.7-26.2 0-16.6 14-34.7 29.9-44.4 16-9.7 35.4-23 35.4-29.9.4-6.1-2.7-11-2.7-11z"/><path id="path2306" class="fil1 str0" d="M1504 889.3c.3 6.8 0 12.5.6 18 .6 6.6-20.2 20.2-28.5 28.5-8.4 8.3-29.2 17.4-30.6 29.9-1.4 12.5 11 24.1 13.8 28.8-3.1-6.6 4-14.3 12.3-21 7.3-5.8 23-14.5 30.9-23.1 7.8-8.6 16.6-22.2 16.6-35.4s-8.8-23.7-15-25.7z"/><path id="path2307" class="fil1 str0" d="M1510.2 782.5l-8.8 6.4-25.4.8-8.5-7 8.5-5.7h25.7z"/></g><g id="g1930"><path id="path1927" class="fil1 str0" d="M1387.5 720.1c-18 2.9-22.2 25.8-22.2 25.8s7.9 1.5 7.9 8.7c0 7.1.7 15.7.7 15.7l15.8-17.2-2.2-33z"/><path id="path1928" class="fil1 str0" d="M1366.7 745.2c-6.5 6.5-9.3 14.4-9.3 14.4s-8.7-19.4-6.5-23.7c2.2-4.3 7.9-9.3 7.2-13.6-.7-4.4-4.3-5-8.6-4.4-4.3.8-4.3 25.2-4.3 31.6 0 6.5 1.4 18 5 22.3 3.6 4.3 6.4 10.7 10 11.5 3.6.7 13.7-14.4 13.7-14.4s1.4-14.3-.8-18c-2.1-3.5-6.4-5.7-6.4-5.7z"/><path id="path1926" class="fil1 str0" d="M1433.4 726.6c23.7 13.6 20.9 32.3 20.1 38.7-.7 6.5 0 10.8 0 10.8s10 10 14.4 16.5l16.5 25.1-4.3 4.3s-18-12.9-25.1-21.5c-7.2-8.6-38.8-60.3-38.8-60.3l17.2-13.6z"/><path id="path1929" class="fil4 str0" d="M1373.9 964.9l-18-252.9m18 252.9z"/><path id="path1905" class="fil1 str0" d="M1436.1 960.7H1374c0-1.7 8.4-210 8.4-221.6 0-11.4-1.7-20.2.7-23 2.5-2.6 24.3-1.9 29.1 0 5 2 19.8 6.7 21 9.4 1.3 2.6-2.9 18.8-2.9 24.4 0 5.6 6.4 20.8 5.9 28.6-.5 7.8 6.4 88.4 6.4 93.8 0 6.6-5.5-3.4-8-.2-2.9 3.8 8.7 85.4 1.5 88.6z"/><g id="g1911"><path id="path1904" class="fil1 str0" d="M1400.3 697.6s-.8 15.4-.8 19.5c0 4.2 6.9 11.3 11.3 12 4.4.8 9-4.1 8.5-11-.5-6.8-2.7-5.8-2.7-14 0-8-1.4-13.9-1.4-13.9l-15 7.4z"/><path id="path1899" class="fil1 str0" d="M1397 679.2c-1.1 6.9-.9 18.1-.2 20.8.8 2.7.8 10 5.2 10.8 4.4.7 11.7-8.8 14-13 2.1-4.1 3-9.3 3-9.3l-11.7-17-10.2 7.7z"/><path id="path1902" class="fil1 str0" d="M1397.6 703.7l6.6-.5m-6.6.5z"/><path id="path1903" class="fil1 str0" d="M1404.4 688.8h5.1m-5 0z"/><path id="path1898" class="fil1 str0" d="M1395.9 679.5c-2.2-4.7.7-13.7 9-13.5 8.3.3 17.4 12.3 17.4 18.4 0 6-1.7 11.7-3.2 11.7-1.5 0-8.3-19.3-14-19.5-5.6-.3-5 3.1-9.2 2.9z"/></g><path id="path1906" class="fil1 str0" d="M1411.8 751.4c-12.5 24.4-22 33-26.5 33.2-4.4.3-10-.5-10-.5l2.5 50.8 35.7 1m-1.8-84.5z"/><path id="path1907" class="fil1 str0" d="M1422.5 752.1c-12.2 48.4-49.9 73.8-49.9 73.8l4.7 75.4 37-36.7m8.2-112.5z"/><path id="path1908" class="fil1 str0" d="M1416.4 788.5c-10 78.3-44.5 65.8-44.5 65.8l1.9 69.4c28.8-7 31-29.9 31-29.9s10 2.9 17.2-4.3c7.1-7.2.7-30.9 2.8-41.6 2.2-10.8 2.9-22.3 2.9-22.3m-11.3-37z"/><path id="path1919" class="fil4 str0" d="M1424.8 794c-2.8 12.2-5.7 38-5.7 38m5.7-38z"/><path id="path1920" class="fil4 str0" d="M1384.6 833.5c12.2-5.7 27.3-44.5 27.3-44.5m-27.3 44.5z"/><path id="path1921" class="fil4 str0" d="M1415.5 862.2c-1.4 8 .7 18.7.7 18.7m-.7-18.7z"/><path id="path1922" class="fil4 str0" d="M1416.2 913.9c.7-18-1.4-20.1-1.4-20.1m1.4 20z"/><path id="path1923" class="fil4 str0" d="M1421.2 743c4.3-7.1 5-20 5-20m-5 20z"/><path id="path1925" class="fil4 str0" d="M1437 871.5a94.8 94.8 0 01-12.2-6.4m12.2 6.4z"/></g><g id="g1775"><path id="path1773" class="fil1 str0" d="M1336.1 1015.2s11.1-9 14-13.2c2.7-4.2 10.3-17.4 10.3-17.4l-19.4-20s-14.6 18-14.6 21.4c0 3.5 9.7 29.2 9.7 29.2z"/><path id="path1774" class="fil1 str0" d="M1333.3 917.3s24.3-20.1 26.4-25c2.1-4.9 2.8-22.2 2.8-22.2l-11.8-2.8s-4.9 4.2-11.1 7.6c-6.3 3.5-15.3 4.2-15.3 4.2l9 38.2z"/><path id="path1764" class="fil1 str0" d="M1316.5 743l.5-11.6c.1-3.6 5.2-8.3 5.2-8.3s6.1 6 6.4 8.2c.3 2.2.5 13.2.5 13.2l-12.6-1.4z"/><path id="path1760" class="fil1 str0" d="M1307.1 1023.8l4.3-233.9 25.2 1 3.4 234.6z"/><path id="path1765" class="fil4 str0" d="M1331.6 1026l-2.2-243.6m2.2 243.6z"/><path id="path1769" class="fil4 str0" d="M1336 1026l-.4-243.6m.4 243.6z"/><path id="path1767" class="fil4 str0" d="M1318.3 1027.3l-1.8-245.8m1.8 245.8z"/><path id="path1766" class="fil4 str0" d="M1325 1026.9c.4-2.2-1.8-245.9-1.8-245.9m1.7 245.9z"/><path id="path1768" class="fil4 str0" d="M1310.7 1027.8l-.4-246.8m.4 246.8z"/><path id="path1759" class="fil1 str0" d="M1302 1041v-14.6l4.3-3.5h31.1l7.8 4.3-1.7 15.6z"/><path id="path1763" class="fil1 str0" d="M1308 755.5l4.7-7.3-9.3-8.2 37.5-.6-8.1 8.8 3.6 7.1z"/><path id="path1762" class="fil1 str0" d="M1311.3 778.1l6.8-6.7s-15.1-14.3-17.2-14.3c-2 0-3.3 3.3-5.6 3.2-2.2-.2-3.5-1.1-3.5-3.5s2.3-3.5 5.6-3.4l49-.6c3.6.1 4.7 2.2 4.5 4-.1 1.7-2.5 3.5-4.6 3.3-2-.2-2.7-3.5-5-3.3-2.2.1-11.7 13.3-11.7 14.3l8 7.7-26.3-.7z"/><path id="path1770" class="fil1 str0" d="M1306 786.4c-6.9 8.4-11.7 12.2-11.5 24 0 12.5 17 31.4 29.7 42.9 12.9 11.6 35.6 19.8 35.6 30 0 9.9-2 11.2-4.4 14.3 2-2.3 12.7-9.5 12.7-26.1 0-16.7-14-34.8-29.9-44.5-16-9.7-35.4-22.9-35.4-29.8-.2-6 3.1-10.8 3.1-10.8z"/><path id="path1772" class="fil1 str0" d="M1308.8 890.9c-.2 6.8 0 12.5-.5 18-.6 6.6 20.2 20.2 28.5 28.5 8.4 8.4 29.2 17.4 30.6 29.9 1.4 12.5-11 24.1-13.8 28.9 3.1-6.6-4-14.3-12.3-21-7.3-5.9-23-14.6-30.9-23.2-7.8-8.5-16.6-22.2-16.6-35.4s8.8-23.6 15-25.7z"/><path id="path1761" class="fil1 str0" d="M1302.7 784l8.8 6.5 25.4.8 8.4-7-8.4-5.7h-25.7z"/></g><path id="text1791" class="fil3" d="M1360 860l1 .8-3.2 3.6 6.8-.4 1.4 1.2-5.7.3-.7 7.2-1.3-1.2.6-6-2.1.1-2.3 2.6-1-.9 6.5-7.4m-4-4a4 4 0 011.5 2.7c0 1-.1 1.8-.6 2.5l-1-.9c.3-.6.4-1.1.3-1.7 0-.6-.4-1.1-1-1.7a3 3 0 00-2.4-.8c-1 .2-1.8.7-2.8 1.8-.8.9-1.2 1.7-1.2 2.6-.1 1 .3 1.7 1 2.5.8.6 1.6.8 2.5.6.5-.1 1-.4 1.5-.8l1 .9c-.8.7-1.7 1-2.6 1.2-1.2 0-2.3-.3-3.2-1.2a4.2 4.2 0 01-1.5-2.7c-.2-1.3.4-2.7 1.6-4.2 1-1 2-1.7 3.3-1.9 1.3-.2 2.5.2 3.6 1.2M1348 848.9c1.3 1.2 2 2.5 1.8 3.9 0 1-.6 2.1-1.5 3.1-1 1.1-2 1.8-3.2 2-1.5.3-2.8-.1-4-1.2a4.5 4.5 0 01-1.7-3.5c0-1.2.6-2.4 1.6-3.5.9-1 1.9-1.6 3-2 1.4-.3 2.8.1 4 1.2m-6 7c.9.8 1.8 1 2.8.8 1-.3 1.8-.9 2.5-1.7.8-.8 1.2-1.7 1.2-2.7 0-1-.4-1.7-1.2-2.4-.8-.7-1.6-1-2.6-.9-1 .1-1.8.7-2.7 1.7-.8.8-1.2 1.7-1.3 2.6 0 1 .4 1.8 1.3 2.6M1343.7 845.5l-.7.9-2.5-2.2-5.8 6.5-1-1 5.8-6.4-2.5-2.2.8-1 6 5.4m-16-5.1c-.3.4-.5.8-.5 1.2-.1.8.2 1.6 1 2.3.4.4.8.6 1.2.8.8.3 1.4.2 2-.3.3-.4.4-.8.3-1.2a5 5 0 00-.8-1.5l-.8-1.1a6 6 0 01-1-1.8 2 2 0 01.6-2c.5-.6 1.3-1 2-1 1 0 1.8.3 2.6 1 .8.8 1.3 1.5 1.5 2.4.2.9 0 1.7-.8 2.5l-1-.8c.4-.5.5-.9.6-1.2 0-.7-.4-1.3-1-2-.7-.5-1.2-.7-1.7-.7s-.8.2-1.1.5c-.4.4-.4.8-.3 1.2l1 1.6.8 1.1.8 1.5c.1.8 0 1.5-.7 2.2-.7.8-1.5 1.1-2.4 1-1-.2-1.8-.7-2.6-1.4-.9-.8-1.4-1.7-1.5-2.6 0-1 .2-1.8 1-2.6l.9.9m-3-11.6l5.4 4.8-.8.9-4.4-4-2 2.3 4 3.6-.7.9-4-3.6-2.3 2.5 4.5 4-.8.8-5.5-4.8 6.6-7.4M1318.5 823l-3.5 8.2 7.7-4.5 1.1 1-9.2 5-1.1-.9 3.9-9.8 1 1m-3.2-2.8l1 .8-6.5 7.4-1-.9 6.5-7.3m-5.9-5.3l1 .9-5.7 6.5 3.7 3.3-.8 1-4.7-4.3 6.5-7.4z"/><path id="text1794" class="fil3" d="M1340.6 951.5l1.2 1-1.6 9.3 5.3-6 1 .9-6.6 7.4-1-1 1.4-9.4-5.3 6-1-.8 6.6-7.4m-2.6-2.3l1 .8-6.5 7.4-1-.9 6.5-7.3m-7.2 1.4l1.7-4.3-4 2.2 2.3 2m2.2-5.8l1.1 1-3.8 9.8-1.1-1 1.2-2.9-3-2.5-2.7 1.5-1-1 9.3-4.9m-9.1-2c.5.5 1 .7 1.4.7.4.1.9-.1 1.3-.6.5-.5.6-1 .4-1.6-.1-.3-.4-.6-.7-.9l-2.5-2.1-2.2 2.5 2.3 2m-.3-6.3l3.4 3c.6.6 1 1 1.2 1.5.4 1 .3 1.9-.5 2.7-.4.4-.8.7-1.2.8-.5.2-1 .2-1.4 0 .2.4.3.8.2 1 0 .4-.2.8-.5 1.2l-.9 1a4 4 0 00-.5.7c-.1.3-.1.6 0 .8l-.2.2-1.2-1.1.1-.4.5-.6 1-1.3c.4-.5.5-1 .3-1.4a3 3 0 00-.7-1l-2.3-2-2.8 3.2-1-.9 6.5-7.4m-4.7-4.5a5 5 0 011.5 2c.4 1 .2 2.1-.5 3.3l-1-1c.4-.6.5-1.2.3-1.8-.1-.5-.5-1.1-1-1.6a3 3 0 00-2.5-.8c-1 .1-1.8.7-2.7 1.7-.8.9-1.2 1.8-1.4 2.7 0 .9.3 1.7 1.2 2.5.7.6 1.4.8 2.2.8.8 0 1.5-.4 2.3-1.2l-2.3-2 .7-1 3.3 3-3.5 4-.7-.7.6-1.1a5 5 0 01-1.6 0c-.6-.2-1.3-.6-2-1.2a4.4 4.4 0 01-1.5-2.8c0-1.3.5-2.6 1.6-3.9 1-1.2 2.3-1.9 3.6-2 1.3-.1 2.4.2 3.4 1.1m-.1-.1z"/><path id="text1797" class="fil3" d="M1490.2 832.6c.4.5.8.8 1.2 1 .8.2 1.7 0 2.7-.8l1-1c.5-.8.5-1.5 0-2-.3-.5-.7-.8-1.1-.7-.5 0-1 .2-1.8.5l-1.3.6-2 .7c-.8 0-1.5-.3-2-1a3 3 0 01-.7-2.5 4 4 0 011.7-2.4c.9-.7 1.8-1 2.7-1 1-.1 1.8.3 2.5 1.3l-1 .8c-.4-.4-.8-.7-1.2-.8-.7-.1-1.4 0-2.3.7-.7.5-1 1-1.1 1.6 0 .5 0 .9.3 1.3s.7.6 1.2.5c.3 0 1-.3 1.9-.7l1.4-.7c.7-.3 1.2-.4 1.7-.4.9 0 1.6.3 2.1 1 .7 1 1 2 .5 2.9-.3.9-1 1.7-1.9 2.4-1 .8-2 1.1-3 1-1 0-1.9-.5-2.6-1.5l1.1-.8M1477.4 833.4l6.1-4.7.8 1-5 3.9 2 2.5 4.6-3.5.7 1-4.6 3.5 2.2 2.9 5-4 .8 1-6.2 4.8-6.4-8.4m-8.6 6.5l1.4-1 9.4 3.6-5.2-6.9 1.1-.8 6.5 8.4-1.3 1-9.6-3.5 5.3 6.8-1.1.8-6.5-8.4m-3 2.3l1.2-.9 6.4 8.5-1.1.8-6.5-8.4M1455.7 849.9l1.6-1.2 7.9 5.3-3-9 1.6-1.2 6.4 8.4-1 .8-3.9-5a54.8 54.8 0 01-1.6-2.1l3 9-1.1.8-7.9-5.3.2.3a75.3 75.3 0 001.5 1.9l3.8 5-1 .8-6.5-8.5z"/><path id="text1800" class="fil3" d="M1467.7 951.3l1.2-1 5.7 7.5 4.2-3.2.8 1-5.4 4-6.5-8.3m-3 2.2l1.2-.8 6.4 8.4-1.1.9-6.5-8.5M1458.8 957.7c1.5-1.1 3-1.5 4.4-1 1.1.2 2.1 1 3 2.1 1 1.3 1.5 2.6 1.5 4 0 1.5-.7 2.8-2.1 3.8a4.8 4.8 0 01-4 1.1 6.1 6.1 0 01-3.5-2.4 6.3 6.3 0 01-1.3-3.6c-.1-1.6.6-2.9 2-4m6.1 7.8c1-.8 1.5-1.7 1.4-2.7-.1-1.1-.5-2.1-1.2-3-.8-1-1.7-1.6-2.6-1.8-1-.3-2 0-2.9.7-.8.6-1.3 1.5-1.4 2.5-.1 1 .3 2.1 1.2 3.3a5 5 0 002.5 1.8c1 .3 2 0 3-.8m-6-7.8z"/><g id="g1723"><path id="path1627" class="fil1 str0" d="M1212.2 1036l397 .6-42.3 62.3s-160.6 58.9-167.7 57.7c-7-1.2-168.8-58.8-168.8-58.8l-18.2-61.8z"/><path id="path1634" class="fil1 str0" d="M1362.2 971.3v88.8l8.8-2.3V970z"/><path id="path1635" class="fil1 str0" d="M1442.2 970.1l1.7 90h8.9l-1.2-90z"/><path id="path1630" class="fil1 str0" d="M1354 1058.4l.5 15.3h104.2l-.6-15.3z"/><path id="path1629" class="fil1 str0" d="M1348.7 1067.2v14.1l114 .6-.5-14.7z"/><g id="g1700"><path id="path1653" class="fil1 str0" d="M1490.3 1105.8v25.4l-19.3-1.7.3-30.3z"/><path id="path1652" class="fil1 str0" d="M1339.5 1101.1l-.8 26.9-17-8.9 2-16.5z"/><path id="path1651" class="fil1 str0" d="M1322.5 1112.5c-1-13 4-19.7 7.9-19.7 4 0 142.1-.5 150 0 7.9.5 9.9 8 9.9 12.3v14s-.8-7.6-17-8.6c-16.3-1-6.4 3.4-68.3 3-61.8-.5-60.3-3-69.7-3.7-9.4-.7-11.8.2-12.8 2.7z"/><path id="text1660" class="fil3" d="M1471.7 1095.8c1.5 0 2.7.6 3.4 1.9.5 1 .8 2.3.8 4 0 1.7-.3 3-.8 4-.7 1.6-1.8 2.4-3.4 2.4-1.5 0-2.5-.6-3.3-1.9-.5-1-.8-2.4-.8-4.2 0-1.4.1-2.5.5-3.5.7-1.8 1.9-2.7 3.6-2.7m0 11c.7 0 1.4-.4 1.8-1.1.5-.7.7-2 .7-3.9 0-1.4-.1-2.5-.5-3.4-.3-.8-1-1.3-2-1.3-.8 0-1.5.4-1.9 1.3-.4.8-.6 2-.6 3.7a9 9 0 00.4 3c.4 1 1 1.6 2 1.6z"/><path id="path1677" class="fil3" d="M1459.8 1104.9c0 .8.3 1.4 1 1.7.2.2.6.2 1 .2.7 0 1.3-.3 1.8-.9.5-.6.9-1.8 1-3.6-.3.5-.7.9-1.2 1.1a4 4 0 01-1.6.3c-1.1 0-2-.3-2.7-1a4 4 0 01-1-2.9c0-1 .3-2 1-2.8.6-.9 1.6-1.3 3-1.3 1.7 0 2.9.8 3.5 2.4a10.7 10.7 0 01-.1 7.2c-.7 1.9-2 2.8-3.7 2.8-1.2 0-2-.3-2.7-1-.6-.5-.9-1.3-.9-2.2h1.5m2.3-2.5c.6 0 1.2-.2 1.7-.6.5-.4.7-1 .7-2s-.2-1.6-.6-2c-.5-.5-1-.7-1.7-.7-.8 0-1.4.3-1.8.8-.4.4-.7 1.1-.7 2 0 .7.2 1.3.6 1.8.4.5 1 .7 1.8.7z"/><path id="path1675" class="fil3" d="M1452.6 1100.8c.6 0 1.2-.2 1.5-.6.4-.3.6-.8.6-1.3s-.2-.9-.5-1.2c-.4-.4-1-.6-1.7-.6s-1.2.2-1.5.6a2 2 0 00-.5 1.3c0 .5.2 1 .6 1.3.4.3 1 .5 1.5.5m0 6c.8 0 1.4-.3 1.8-.6.5-.4.7-1 .7-1.7 0-.8-.2-1.4-.7-1.8-.5-.4-1-.6-1.8-.6s-1.3.2-1.8.6c-.5.4-.7 1-.7 1.7 0 .6.2 1.2.6 1.7.5.4 1.1.6 2 .6m-2.2-5.3a3 3 0 01-1-.7c-.4-.4-.6-1-.6-1.7 0-1 .3-1.7 1-2.3.6-.7 1.5-1 2.7-1 1.2 0 2 .3 2.7 1 .7.5 1 1.2 1 2s-.2 1.4-.6 1.9c-.2.2-.5.5-1 .7.5.3 1 .5 1.2.8.6.6.8 1.3.8 2.2 0 1-.3 2-1 2.7a4 4 0 01-3 1.1c-1.2 0-2.2-.3-3-1-.8-.6-1.2-1.5-1.2-2.7 0-.7.1-1.3.5-1.8.3-.6.8-1 1.5-1.2z"/><path id="path1672" class="fil3" d="M1440 1099.3v-1.2c1-.1 1.8-.3 2.3-.5.4-.3.7-.9 1-1.8h1.1v12h-1.6v-8.5h-2.8z"/><path id="path1671" class="fil3" d="M1368.4 1104.6c0 .8.4 1.4 1 1.7.3.2.6.2 1 .2.7 0 1.4-.3 1.9-.9.5-.6.8-1.8 1-3.6-.3.5-.7.9-1.2 1.1a4 4 0 01-1.6.3c-1.2 0-2-.3-2.8-1a4 4 0 01-1-2.8c0-1.1.4-2.1 1-3 .7-.8 1.7-1.2 3-1.2 1.7 0 3 .8 3.6 2.4a10.7 10.7 0 01-.1 7.2c-.7 1.9-2 2.8-3.7 2.8-1.2 0-2-.3-2.7-1-.6-.5-1-1.3-1-2.2h1.6m2.3-2.5c.6 0 1.1-.2 1.6-.6.5-.4.8-1 .8-2s-.2-1.6-.7-2c-.4-.5-1-.7-1.7-.7s-1.3.3-1.7.8c-.5.4-.7 1.1-.7 2 0 .7.2 1.3.6 1.8.4.5 1 .7 1.8.7z"/><path id="path1669" class="fil3" d="M1361.6 1095.4c1.3 0 2.3.3 2.8 1s.8 1.4.8 2.2h-1.5c0-.5-.2-.9-.4-1.1-.4-.5-1-.8-1.7-.8-.8 0-1.5.4-2 1.2-.5.8-.8 1.9-.8 3.3a3.3 3.3 0 012.9-1.4c1 0 1.9.3 2.6 1 .8.6 1.2 1.5 1.2 2.8 0 1.1-.4 2-1.1 3-.7.7-1.7 1.2-3 1.2-1.2 0-2.1-.5-3-1.3-.8-.9-1.2-2.3-1.2-4.3 0-1.5.2-2.8.6-3.8.7-2 2-3 3.8-3m-.1 11c.8 0 1.4-.2 1.8-.8.4-.5.6-1.1.6-1.9 0-.6-.2-1.2-.6-1.7-.3-.6-1-.9-1.9-.9-.6 0-1.2.3-1.7.7-.5.4-.7 1-.7 2 0 .7.2 1.3.6 1.9.5.5 1 .7 1.9.7z"/><path id="path1667" class="fil3" d="M1351.7 1100.5c.6 0 1.2-.2 1.5-.6.4-.3.6-.8.6-1.3s-.2-.9-.5-1.2c-.4-.4-1-.6-1.7-.6s-1.2.2-1.6.6a2 2 0 00-.4 1.3c0 .5.2 1 .6 1.3.4.3.9.5 1.5.5m0 6c.8 0 1.3-.3 1.8-.6.5-.4.7-1 .7-1.7 0-.8-.2-1.4-.7-1.8-.5-.4-1.1-.6-1.8-.6-.8 0-1.4.2-1.8.6-.5.4-.7 1-.7 1.7 0 .6.2 1.2.6 1.7.4.4 1 .6 2 .6m-2.2-5.3a3 3 0 01-1-.7c-.4-.4-.6-1-.6-1.7 0-1 .3-1.7 1-2.3.6-.7 1.5-1 2.7-1 1.2 0 2 .3 2.7 1 .7.5 1 1.2 1 2s-.2 1.4-.6 1.9c-.2.2-.5.5-1 .7.5.3 1 .5 1.2.8.5.6.8 1.3.8 2.2 0 1-.3 2-1 2.7a4 4 0 01-3 1.1c-1.2 0-2.2-.3-3-1-.8-.6-1.3-1.5-1.3-2.7 0-.7.2-1.3.6-1.8.3-.6.8-1 1.5-1.2z"/><path id="path1664" class="fil3" d="M1339 1099v-1.2c1.2-.1 2-.3 2.4-.5.4-.3.7-.9 1-1.8h1.1v12h-1.6v-8.6h-2.8z"/></g><path id="path1628" class="fil1 str0" d="M1244 1076.6l325.2 1.8-5.3 12.3-305.2.6z"/><path id="path1631" class="fil1 str0" d="M1356.3 967.8l.6 6.5h20.6l.6-7.1z"/><path id="path1632" class="fil1 str0" d="M1437.5 967.2l.6 7h17.6l.6-7z"/><path id="path1633" class="fil1 str0" d="M1362.2 957.8l-.6 9.4h88.2v-8.8z"/><path id="path1638" class="fil1 str0" d="M1416.9 1006c-1.2-6.5-4.1-35.3-14.1-35.9-10-.6-13 7.7-13 7.7s14.1 1.7 13 7.6c-1.2 6-7 20.6-10 22.4-3 1.7 18.8-1.2 24-1.8z"/><path id="path1639" class="fil1 str0" d="M1396.9 1003l-2.4 40 28.3.7-1.2-38.9z"/><path id="path1637" class="fil1 str0" d="M1371 1033.5s-.5-24.7 1.2-31.6c1.2-7 5.3-11.8 12.3-11.2 7.1.6 19.4 13.5 19.4 13.5s18.9-17 26-16.4c8 2.3 12.2 8 13 14.6l.5 31.4s-14.6-16.6-19.5-18.4c-4-1.2-12.3-2.3-12.3-2.3l-1.1 32-6.6-.3s-.5-15.3-1.1-21.1c-.6-6-3-11.2-3-11.2s-10.6 5.3-14 9.4a268 268 0 01-14.8 11.6z"/><g id="g1712"><path id="path1640" class="fil1 str0" d="M1371.6 1035.8l70.6.2v29.4c-.6 26-35.7 62.4-35.7 62.4s-35.5-33.5-35.5-63.6c-.6-30 .6-28.4.6-28.4z"/><path id="path1641" class="fil3" d="M1381.5 1069.9v26.4l5 7.9v-34.3z"/><path id="path1642" class="fil3" d="M1392.5 1069.9v42.4l5 6v-48.4z"/><path id="path1643" class="fil3" d="M1403.5 1069.9v55l3 2.9 3-3.3V1070z"/><path id="path1644" class="fil3" d="M1415.5 1069.9v47.6l5-6.3V1070z"/><path id="path1645" class="fil3" d="M1426.5 1069.9v33l5-7.7V1070z"/><path id="path1646" class="fil3" d="M1371.5 1069.9h5v15.8z"/><path id="path1647" class="fil3" d="M1436.5 1069.9v15.9l5.4-16z"/><path id="path1649" class="fil1 str0" d="M1371 1035.3l71.2.7v28l-71.2.3z"/></g><path id="_132303184" class="fil3" d="M1406.6 1038.5l3 9h9.5l-7.7 5.7 3 9-7.8-5.5-7.7 5.6 3-9.1-7.8-5.6h9.6l3-9.1zM1405.2 1043"/></g><g id="g1566"><path id="path1547" class="fil1 str0" d="M1585 1020.6l2.5-95.8h6.6l-.9 96.7z"/><path id="path1548" class="fil1 str0" d="M1594.9 876.9v26.4c0 7.4-11.6 18.2-10.7 24 .8 5.8 8.2 5 10.7 3.3 2.5-1.7 15.7-24 15.7-37.2 0-13.2 1.6-33-1.7-33.9-3.3-.8-14.8 12.4-14.8 12.4l.8 5z"/><path id="path1543" class="fil1 str0" d="M1541.2 1004.1s-1.7 31.4-1.7 39.7c0 8.2-.8 17.3-6.6 22.3s-10.7 3.3-12.4 6.6c-1.6 3.3.9 5.8.9 5.8l37.1-.9s-1.6-29.7-.8-40.5c.8-10.7 8.3-27.2 4.1-30.5-4-3.3-17.3-3.3-20.6-2.5z"/><path id="path1544" class="fil1 str0" d="M1502.4 995s19.8 15.7 19 21.5c-.9 5.8-10 12.4-6.6 15.7 3.3 3.3 5.7 2.5 5.7 2.5l27.3-24.8-31.4-25.6-14 10.7z"/><path id="path1546" class="fil1 str0" d="M1566.8 1007.4s8.3 11.6 19 11.6 24.8-29.8 24.8-29.8-5 40.5-24 39.7c-19-.8-19.8-13.2-19.8-21.5z"/><path id="path1545" class="fil1 str0" d="M1563.5 907.4c5-4 6.6-28 6.6-28l7.4-14s12.4 14 18.2 13.1c5.8-.8 14-.8 14-5.8s2.5-12.3-1.6-16.5a378 378 0 00-29.7-24c-4.2-2.4-47.1-7.4-50.4-7.4-3.3 0-16.5 8.3-18.2 15.7-1.7 7.5-5 32.2-5 38.9 0 6.6.8 16.6.8 16.6l12.5-8.4 4 11.6 41.4 8.2z"/><path id="path1549" class="fil1 str0" d="M1519.7 828.1c9.1 10 11.6 35.6 11.6 35.6s2.5-14 9-19c6.7-5 22.4-5.8 22.4-13.3 0-7.4-17.4-9.9-22.3-9.9-5 0-13.3.8-20.7 6.6z"/><path id="path1550" class="fil1 str0" d="M1531.3 824c0 8.3 3.3 11.6 7.4 12.4 4.1.8 14-4.1 13.2-8.3-.8-4.1-20.6-4.1-20.6-4.1z"/><path id="path1551" class="fil1 str0" d="M1534.6 823.2s0 9.9 5 9c4.9-.8 9-10.7 9-10.7l-14 1.7z"/><path id="path1554" class="fil1 str0" d="M1531.7 784c-.3 5.8-1 12.5-1.9 13.7a28 28 0 00-4.3 8.6c-.3 2.5 2.8 2.2 2.8 2.2s-.6 11.3-1 13.5c-.2 2.1 5 .3 7.1 4 2.2 3.6 2.2 8.8 3.4 8 1.2-1 5.8-5.6 8.3-8.4 2.4-2.7 6.1-.6 7-4.3 1-3.6 1.9-31.2 1.9-31.2l-23.3-6.2z"/><path id="path1542" class="fil1 str0" d="M1551.1 1005c-9 .8-12.4-.9-13.2-5-.8-4.2-.8-30.6-2.5-39.7-1.6-9-4.1-13.2-4.1-13.2s-21.5 15.7-21.5 23.1c0 7.5 6.6 13.3 6.6 13.3l-13.2 11.5s-27.3-15.7-27.3-24.8c0-9 28.1-39.6 33-46.2 5-6.6 6.7-25.6 11.6-26.5 5-.8 35.6 1.7 40.5 5.8 5 4.1 15.7 22.3 14.9 33.9-.8 11.6-5 9.9-5.8 14-.8 4.2 0 7.5-.8 13.2-.8 5.8-5 1.7-5 6.7s1.7 26.4-.8 30.5c-2.5 4.2-4.1 3.3-12.4 3.3z"/><path id="path1552" class="fil1 str0" d="M1535.4 775.3c-5.8 5-9 6.6-7.4 9.9 1.6 3.3 14.8 4.1 16.5 8.2 1.6 4.2 0 10.8 0 10.8l6.6-1.7v19s16.5-13.2 14.9-26.4c-1.7-13.2-18.2-14.9-23.2-15.7-5-.8-5-1.7-7.4-4.1z"/><path id="path1553" class="fil1 str0" d="M1504.7 897.4c.3 4.3 1.2 27-.3 30.4-1.6 3.3-4.3 8.8-.6 13.1 3.6 4.3 8 6.2 9.8 2.8 1.8-3.4-.6-19 1.5-28 2.2-8.8 2.5-24.7 1-26.9-1.6-2.1-10.8-1.2-11.4 8.6z"/><path id="path1555" class="fil4 str0" d="M1531.4 947c-5-9.7-4.3-19.6-4.3-19.6m4.3 19.7z"/><path id="path1556" class="fil4 str0" d="M1518.5 889.1l.3-32.8m-.3 32.8z"/><path id="path1557" class="fil4 str0" d="M1570.3 879.6s-4.9-3.7-6.4-5.5a66 66 0 01-3.4-4.6m9.8 10.1z"/><path id="path1558" class="fil4 str0" d="M1589.3 876.2c-.3-15.6 19.6-18.7 19.6-18.7m-19.6 18.7z"/><path id="path1559" class="fil4 str0" d="M1527.7 814l4.9.3m-5-.3z"/><path id="path1560" class="fil4 str0" d="M1530.4 795l7 6.1m-7-6.1z"/></g><g id="g1607"><path id="path1603" class="fil1 str0" d="M1251.3 800.8s-2.6-9.7-.4-11.7c2.3-1.9 16.8-12.3 21-12 4.3.4 12.3 12.4 12.3 12.4l-33 11.3z"/><path id="path1588" class="fil1 str0" d="M1259.5 831.3s-53.5 39.2-54 49.3c-.7 10.1 23.7 39.3 23.7 39.3l10.1-9.5s-1.2-7.2-3.6-13.7c-2.3-6.5-7.7-13.7-7.7-13.7s1.2.6 7.1-1.8c6-2.3 10.1-5.3 10.1-5.3s-1.7 11.9 1.2 18.4c3 6.6 12.5 22.6 12.5 22.6l35-2.4s1.3-46.3.7-57c-.6-10.7-13.7-31-13.7-31l-21.4 4.8z"/><path id="path1595" class="fil1 str0" d="M1267.8 1008.5s14.3 10 19.7 14.8c5.3 4.8 7 7.2 7 7.2l.7 5.4h-14.9l-15.4-18 3-9.4z"/><path id="path1592" class="fil1 str0" d="M1261 830.3c-.7 2.6 14.6 11.7 18.7 16.5 4.2 4.7 13.1 11.2 13.1 11.2s.6-7.7-4.8-17.8c-5.3-10.1-3-11.7-5.4-12.3-2.4-.6-24-1-21.6 2.4z"/><path id="path1590" class="fil1 str0" d="M1256 923.4s-9.6 39.3-10.8 70.8c-1.1 31.5 6.6 63 6.6 63l22.6-3v-37.4s42.2-43.4 42.2-50c0-6.5-23.2-38-22-42.2 1.2-4.1-.6-10-.6-10l-38 8.8z"/><path id="path1591" class="fil1 str0" d="M1275 990.6s6-19 7.9-24.3c1.7-5.3 2.3-9.5 2.3-9.5s7 5.9 6.4 9.5c-.6 3.5-8.9-1.2-16.6 24.3z"/><path id="path1605" class="fil3 str0" d="M1241.2 1004.6s-.6-17.8-2-23c-1.2-5.1-6-20-6-31.4 0-11.3 2.2-19 9.3-28.1 7.1-9 14.6-12 14.6-12s7 0 17.8-.3c10.6-.3 20.3-1 20.3-1l-.3 11.4s-13.6 3.8-22.3 3.8c-8.7 0-18.1-1.9-18.1-1.9s-14.9 14.2-14.3 27.8c.7 13.6 4.6 33.3 4.3 38.8-.4 5.5-3.3 15.9-3.3 15.9z"/><path id="path1593" class="fil1 str0" d="M1258.7 831.7s-1-14 .2-20 6.6-20.2 6.6-20.2l20.8-.6-.6 28-4.2-.7 1.8 9.5s-7.1 3.6-13.7 4.2c-6.5.6-11-.2-11-.2z"/><path id="path1586" class="fil1 str0" d="M1262.7 810c-13 3-19.8 8.8-24 4.6-4.2-4.1 4.8-16.6 23.8-24.3 19-7.8 36.8-3.6 38 0 1.2 3.5-8.3 10-13 10.7-4.8.6-13.7 0-17.3 2.4-3.6 2.3-7.5 6.7-7.5 6.7z"/><path id="path1587" class="fil1 str0" d="M1258.4 824.9c-7.4.3-8.8-7-5.4-12 3.5-5.4 10-14.9 17.8-17.3 7.7-2.4 14.3 0 14.9 4.2 1.4 4.4.2 7.5.2 7.5s-11-8.6-15.7-4c-4.1 4.8-4.7 13.7-8.3 17.9-1.2 1.7-1.5 3.6-3.5 3.7z"/><path id="path1594" class="fil1 str0" d="M1251.2 911.6A12.8 12.8 0 011263 899c2.2 0 6 11.3 6 19 0 7.7-4.8 23.2-9 23.8-4.2.6-3-20.2-3-20.2h-4.7l-1.2-10.1z"/><path id="path1596" class="fil1 str0" d="M1252.4 1056.6l-.6 21.4 46.4-1.2s1.2-3.5-1.8-6.5-16-4.2-18.5-8.3c-2.3-4.2-3-6.6-3-6.6l-22.5 1.2z"/><path id="path1598" class="fil4 str0" d="M1272.6 831.2c8.7 5.2 19 20.7 19.7 23.3.7 2.6.7 3.6.7 3.6m-20.4-26.9z"/><path id="path1599" class="fil1 str0" d="M1226 916.3c4.2-9 12.3-8.8 12.3-8.8s11.3 5.9 11 8.8c-.3 2.9-9-.3-9.7 1.6-.7 2 4.8 8 2 11-3 3-12.7-5.8-15.6-12.6z"/><path id="path1601" class="fil4 str0" d="M1282.4 823l-3.7-.5m4.9.6z"/><path id="path1602" class="fil4 str0" d="M1274.5 1016.9c.3-9.3-1.1-19.2.7-27.8m-.7 27.8z"/><path id="path1604" class="fil3" d="M1281.7 809.7c0-1.7-1.5-3-3.3-3a3.2 3.2 0 00-3.2 3c0 1.7 1.4 3 3.2 3 1.8 0 3.3-1.3 3.3-3z"/><path id="path1606" class="fil4 str0" d="M1285.2 956.7c2-12 .7-24.2.7-24.2m-.7 24.2z"/></g><path id="path919" class="fil1 str0" d="M1704.6 891a298.1 298.1 0 01-298.2 297.8A298.1 298.1 0 011108 891a298.1 298.1 0 01298.3-297.8A298.1 298.1 0 011704.6 891zm-59.3-.9c0 132.4-107 239.8-239 239.8a239.5 239.5 0 01-238.9-239.8c0-132.4 107-239.8 239-239.8 131.9 0 238.9 107.4 238.9 239.8z"/><path id="text1951" class="fil3" d="M1482.9 612.6c3 1.2 5.6 2.8 7.4 4.8 2.7 3 3.6 6.7 2.7 11.4l-4.4-1.7c.3-2.6-.2-4.8-1.5-6.5-1.3-1.7-3.2-3-5.8-4-3-1.2-6.1-1-9 .6-3 1.5-5.3 4.5-7 9.1-1.5 4-1.8 7.5-1 10.6.9 3.2 3.3 5.4 7.2 6.9 3 1 5.8 1.1 8.4.1 2.6-1 4.6-3.5 6.1-7.3l-10.4-3.9 1.4-3.7 14.6 5.4-6.6 17.7-2.8-1 .4-4.7c-2.1 1.1-3.9 1.8-5.3 2-2.4.4-5.1 0-8.2-1-3.9-1.5-6.8-4-8.7-7.6-2-4.4-1.9-9.3.2-15 2-5.5 5.2-9.4 9.4-11.5 4-2.1 8.3-2.3 12.9-.7z"/><path id="path2004" class="fil3" d="M1249 652.1l5-2.7 29.3 16.7-13.7-25.2 4-2.2 17 31.1-4.8 2.6-29.6-16.5 13.7 25.2-4 2.1z"/><path id="path2002" class="fil3" d="M1222.5 672.7l3.5-3.2 23.9 26.2-3.6 3.3z"/><path id="path2000" class="fil3" d="M1174.2 721.4l4.2-5.5 29.9 10.4-17.4-26.4 4.2-5.3 28 21.7-2.9 3.6-16.5-12.8a196 196 0 01-7-5.6l17.4 26.3-3 3.8-29.8-10.3.9.6a258.8 258.8 0 006.3 4.8l16.5 12.8-2.9 3.6-27.9-21.7z"/><path id="path1999" class="fil3" d="M1151.4 757.9c2.5-5.7 6.2-9.2 11.1-10.3 3.9-.9 8-.3 12.5 1.7a21 21 0 0110.4 9 16 16 0 01.2 14.8c-2.2 5-5.6 8.2-10.2 9.6-4.3 1.1-8.8.6-13.7-1.5a21 21 0 01-9.8-8.3c-2.8-4.5-3-9.6-.5-15m30.5 13c1.7-4 1.6-7.3-.4-10.3-2-3-4.9-5.2-8.5-6.8-3.8-1.7-7.3-2-10.5-1-3.2.9-5.6 3-7 6.5a11.6 11.6 0 00-.3 9.8c1.4 3.1 4.3 5.7 8.8 7.6 3.6 1.6 7 2 10.3 1.4 3.3-.8 5.8-3.2 7.6-7.3z"/><path id="path1996" class="fil3" d="M1131 822.2l1.2-5.4 19-6-14.3-13.8 1.3-5.5 17.5 18 13.9 3.2-1.1 4.7-14-3.3z"/><path id="path1994" class="fil3" d="M1120.8 881l29.2-5.2-28.4-9.4.2-5.2 29.2-6.6-28.5-8 .3-5.3 35 11-.3 5-29.8 6.8 29 9.6-.3 5-35.8 7.6z"/><path id="path1993" class="fil3" d="M1134.1 975.9l-7-23.6 4.2-1.2 5.6 19 10.3-3.1-5-16.7 4.1-1.2 5 16.7 15.4-4.6 1.4 4.6z"/><path id="path1992" class="fil3" d="M1150 1017c-3.8-5-5-10-3.7-14.8 1-3.7 3.5-7 7.4-10a21 21 0 0113-4.9 16 16 0 0113 7c3.3 4.3 4.5 8.8 3.6 13.4-1.1 4.4-3.7 8.1-8 11.4a21 21 0 01-11.9 4.6c-5.3.2-9.8-2-13.4-6.8m26-20.5c-2.6-3.4-5.7-4.9-9.2-4.5-3.6.3-7 1.7-10 4.1a14.9 14.9 0 00-6 8.7c-.7 3.3 0 6.4 2.4 9.4 2.2 3 5 4.5 8.4 4.8 3.4.3 7-1 11-4 3-2.4 5.1-5.2 6-8.4 1-3.2 0-6.6-2.6-10.1z"/><path id="path1989" class="fil3" d="M1207 1094.9l-17-19.5 3.3-2.9 13.9 16 8.1-7-12.8-14.8 3-2.7 12.9 14.7 9-7.9-14-16.2 3.1-2.8 17.2 19.8z"/><path id="path1987" class="fil3" d="M1222 1110l2.4-3.6 9.8 6.7 17.6-25.8 4 2.8-17.5 25.8 9.8 6.7-2.3 3.5z"/><path id="path1986" class="fil3" d="M1273.5 1119.6l-2.8 16.4 12.5-11-9.7-5.4m-3.1 22.2l-4.8-2.6 5.7-37.3 4.7 2.5-2 11 12.3 6.8 8.5-7.5 4.3 2.4-28.7 24.7z"/><path id="path1983" class="fil3" d="M1297.7 1156.2l1.4-4 11.3 3.8 10-29.5 4.7 1.5-10 29.6 11.2 3.8-1.3 4z"/><path id="path1982" class="fil3" d="M1362 1149.3c.2-2 0-3.6-.6-5-1.2-2.6-3.8-4.2-7.8-4.8a15 15 0 00-5 0c-3 .5-4.6 2-5 4.6-.4 1.9 0 3.3 1 4.3 1.2 1 3 2 5.4 3l4.6 1.8c3 1.2 5 2.3 6.2 3.4 2 1.8 2.7 4.2 2.3 7-.5 3.2-2 5.6-4.5 7.3a13.3 13.3 0 01-9.7 1.5c-3.7-.5-6.7-2-9-4.1-2.2-2.2-3-5.2-2.5-9.1l4.5.7c0 2 .2 3.4.8 4.6 1.2 2 3.5 3.3 7 3.9 2.7.4 4.8.1 6.3-.8 1.4-1 2.2-2.3 2.4-3.8a4 4 0 00-1.5-4.1c-.8-.7-2.9-1.7-6-3l-4.8-1.9c-2.3-.9-4-2-5-3-2-2-2.8-4.6-2.3-7.7.6-3.9 2.5-6.4 5.6-7.6 3-1.3 6.5-1.6 10.2-1 4.3.7 7.6 2.4 9.7 5 2 2.6 2.8 5.8 2.2 9.6l-4.5-.8z"/><path id="path1980" class="fil3" d="M1463.3 1171l-25.4 4.6-.8-4.3 20.9-3.7-2-10.6-19.2 3.4-.7-4 19.2-3.4-2-11.9-21.3 3.8-.7-4.1 25.8-4.6z"/><path id="path1978" class="fil3" d="M1520.1 1154l-4.6 1.4-4.6-13.9-17.5 5.8 4.6 14-4.6 1.4-11.1-33.6 4.6-1.5 5.2 15.7 17.5-5.8-5.2-15.7 4.6-1.5z"/><path id="path1977" class="fil3" d="M1545 1141.1l-2.2-3.5 10.2-6.4-16.7-26.4 4.2-2.6 16.6 26.4 10-6.3 2.3 3.5z"/><path id="path1976" class="fil3" d="M1629.9 1071l-16.3 18.5-3.3-2.9 13.2-14.8-8.1-7.1-11.5 13-3.2-2.8 11.5-13-12-10.7 3.2-3.6z"/><path id="path1975" class="fil3" d="M1653.2 1043.7c-4.2 4.6-8.7 6.8-13.7 6.4-4-.4-7.7-2.1-11.4-5.4a21 21 0 01-7.2-11.7c-1-5.1.5-9.9 4.3-14.2 3.6-4.1 7.8-6.1 12.6-6 4.4.2 8.6 2 12.6 5.5a21 21 0 016.9 10.9c1.2 5.2-.2 10-4.1 14.5M1628 1022c-2.8 3.1-3.7 6.4-2.7 9.8 1 3.5 3 6.5 6 9 3 2.8 6.3 4.3 9.6 4.3 3.4 0 6.3-1.3 8.8-4.2 2.4-2.7 3.5-5.8 3.1-9.2-.3-3.4-2.3-6.7-6-10-3-2.5-6-4-9.4-4.3-3.3-.3-6.5 1.2-9.4 4.6z"/><path id="path1972" class="fil3" d="M1687.3 949.6l-1.3 4.6-30-8.3-4.8 17.2-4.1-1 6-22z"/><path id="path1971" class="fil3" d="M1671.5 917.1l16.2-3.4-14.9-7.6-1.3 11m21.7-5.3l-.7 5.4-36.7 8.5.7-5.2 11-2.3 1.6-14-10-5 .6-4.9 33.5 17.5z"/><path id="path1968" class="fil3" d="M1690 853.3l1.8 25.8-4.3.3-1.6-21-10.7.7 1.5 19.5-4.1.3-1.5-19.5-12 1 1.7 21.4-4.3.3-1.9-26.1z"/><path id="path1966" class="fil3" d="M1656.2 810.5a9.7 9.7 0 00-4 3c-1.8 2.3-1.9 5.3-.5 9.1a15 15 0 002.4 4.4c1.9 2.3 4 3 6.5 2.2 1.8-.7 2.9-1.7 3.2-3.1.4-1.4.4-3.5 0-6.1l-.6-4.9c-.4-3.2-.4-5.5 0-7a7.4 7.4 0 015-5.5c3-1 5.9-1 8.5.5 2.7 1.3 4.7 4 6.1 7.7 1.3 3.5 1.5 6.8.7 9.8-.8 3-3 5.3-6.8 6.6l-1.5-4.2a8.9 8.9 0 003.6-3c1.2-2 1.2-4.6 0-8-1-2.6-2.2-4.3-3.7-5-1.5-.8-3-1-4.5-.4a4 4 0 00-2.9 3.4c-.1 1 0 3.3.4 6.7l.6 5c.3 2.5.3 4.5-.2 6a8.4 8.4 0 01-5.6 5.6c-3.7 1.4-6.8 1-9.4-1.1-2.6-2.1-4.5-5-5.8-8.5a14.9 14.9 0 01-.3-10.9c1.2-3.1 3.7-5.3 7.3-6.5l1.5 4.2z"/><path id="path1964" class="fil3" d="M1654 748.3l-3.6 2.2-6.2-10.2-26.7 16.2-2.5-4.2 26.7-16.2-6.2-10.2 3.6-2.1z"/><path id="path1963" class="fil3" d="M1604.2 717l8.8-14-15.8 5.5 7 8.6m11.3-19.3l3.4 4.2-19.4 32.3-3.3-4 6-9.6-8.9-10.8-10.6 3.7-3.1-3.8 35.9-12z"/><path id="path1960" class="fil3" d="M1567 654.5l20.4 15.7-2.6 3.4-16.8-12.8-6.5 8.5 15.5 11.9-2.5 3.2-15.5-11.8-7.3 9.5 17 13-2.5 3.4-20.8-16z"/><path id="path1956" class="fil3" d="M1315.4 618.5c3.2-.9 6.2-1 8.8-.3 3.9 1 6.8 3.6 8.7 7.9l-4.6 1.1a8.6 8.6 0 00-4.9-4.6c-2-.7-4.4-.7-7.1 0-3.2.8-5.6 2.6-7.1 5.6-1.6 2.9-1.8 6.7-.6 11.4 1 4.1 2.7 7.2 5.2 9.4 2.4 2 5.7 2.6 9.7 1.6 3.1-.8 5.5-2.3 7-4.6 1.6-2.3 2-5.5 1-9.6l-10.8 2.7-1-3.8 15.1-3.8 4.6 18.4-3 .7-2.2-4.1a18.2 18.2 0 01-3.3 4.6 16.2 16.2 0 01-7.3 3.7c-4 1-8 .6-11.5-1.3-4-2.5-6.8-6.6-8.2-12.4-1.5-5.7-1-10.7 1.2-14.9 2.2-4 5.6-6.6 10.3-7.8z"/><path id="path2005" class="fil3" d="M1526.8 650.3c2 1 3.7 1.5 5.3 1.3 1.6-.2 3-1.3 4-3.4 1.2-2.3 1.2-4.2 0-5.9a9 9 0 00-3.2-2.4l-10.4-5.5-5.6 10.8 9.9 5.1m-6.6-21.7l14.5 7.6c2.4 1.2 4.2 2.6 5.4 4.1 2.2 2.9 2.4 6.1.5 9.7a9.3 9.3 0 01-3.5 4c-1.4.8-3 1.2-4.8 1.2 1 1.2 1.5 2.3 1.7 3.4.2 1.2-.1 2.7-1 4.5l-2 4.3c-.6 1.2-1 2.2-1.1 2.8-.3 1.2-.2 2 .3 2.7l-.4.7-5.2-2.7.2-1.3 1.1-2.6 2.5-5.3c1-2.1 1-4-.1-5.3-.6-.9-1.8-1.7-3.5-2.6l-9.7-5-7 13.4-4.3-2.3 16.4-31.3z"/></g></svg>