<svg version="1.0" xmlns="http://www.w3.org/2000/svg" width="640" height="358.667" viewBox="0 0 480 269"><path d="M33.5 40.6C19.3 42.6 12.2 47 10 55c-1.9 6.9-.9 22.7 1.6 27 4.3 7.5 11.8 10 29.5 10 12.5 0 17.3 1.4 18.9 5.5.6 1.5 1 7.1 1 12.6 0 9.2-.2 10.2-2.4 12.4-1.3 1.3-4.1 2.8-6.2 3.4-5.5 1.5-20.3 1.3-30.9-.4-5-.8-9.3-1.5-9.7-1.5-.5 0-.8 2.4-.8 5.4v5.4l7.8.9c13.3 1.4 33 .9 39.5-1 7-2.1 12.7-7.4 14.5-13.3 1.4-4.9 1.6-22.5.2-27.5-1.1-4-5.1-8.2-9.5-10-1.6-.6-10.2-1.4-19-1.8C22.9 81.2 22 80.6 22 67c0-14.4 2.7-16.5 21.5-16.5 6.6 0 15.3.4 19.3.9l7.2.8v-5c0-4.7-.1-5-3.1-5.6-4-.8-29.5-1.6-33.4-1zM119.4 40.9c-13.4 2.2-21.8 7.5-25.1 15.9-1.6 4.1-1.8 8-1.8 32.2 0 30.2.3 32.4 5.8 38 4.9 5.1 12 7.8 23.4 9.2 24.4 2.8 44.9-4.4 48.3-17 .7-3 1-13.4.8-32.5-.3-30.7-.4-31-6.4-37.1-5.9-5.9-14.2-8.4-29.4-9.1-5.8-.2-12.8 0-15.6.4zm29 11.1c9.2 4.6 9.1 4.2 9.4 35.8.3 32.2.2 32.8-8.4 37.2-4.4 2.3-6 2.5-17.4 2.5-11.3 0-13-.2-17.4-2.5-9.1-4.5-9.1-4.6-9.4-32.8-.2-13.6 0-26.6.3-29 1.5-9.9 10.5-14.4 27.5-14 8.8.3 11.3.7 15.4 2.8zM193 88.5V136h14V92h46V82h-46V51h51V41h-65v47.5zM12.4 192.9c-5.3 2.4-7.4 5.5-7.4 10.6 0 6.8 3.6 10 15.7 13.9 7.5 2.5 10.3 5 10.3 9.2 0 4.5-4.4 7.4-11.2 7.4-5.6 0-10.8-3.7-10.8-7.6 0-2-.5-2.4-3-2.4-3.5 0-3.7 1-.9 6.6 4.4 9.2 19.8 11.5 27.7 4.1 3.4-3.2 4.6-8.8 2.8-13.2-1.3-2.9-2.7-4.1-7.8-6.4-3.5-1.6-8-3.4-10.1-4.2-5.2-1.8-7.7-4.4-7.7-7.9 0-4 4.1-7 9.4-7 5.6 0 8.9 1.9 10 5.8.7 2.4 1.4 3.2 3.2 3.2 3 0 3.2-3 .4-7.5-3.6-5.8-13.4-8-20.6-4.6zM278.7 193.1c-2 1.5-2.8 3.3-3.3 7-.6 4.3-.9 4.9-3 4.9-1.7 0-2.4.6-2.4 2 0 1.5.7 2 2.5 2h2.5v29h5v-29h3.5c2.8 0 3.5-.4 3.5-2s-.7-2-3.5-2c-3.3 0-3.5-.2-3.5-3.4 0-3.8 2.1-6.6 5.1-6.6 1.2 0 1.9-.7 1.9-2 0-2.7-4.8-2.7-8.3.1zM180 215v23h5v-12.4c0-11.7.1-12.4 2.5-15 3.1-3.3 9.4-3.7 12.5-.6 1.8 1.8 2 3.3 2 15v13h5v-27.2l-3.4-3.4c-4.5-4.5-10.8-4.8-15.5-.8l-3.1 2.6v-8.6c0-8.5 0-8.6-2.5-8.6H180v23zM314 215v23h5v-20h20v-5h-20v-16h23v-5h-28v23zM350 215v23h5v-46h-5v23zM426.2 204.6c-1.9 1.3-2.8 1.4-5.3.4-4.5-1.9-14.5-.8-17.1 1.8-2.7 2.6-2.9 8.3-.5 11 1.5 1.7 1.5 1.9-.3 3.5-2.4 2-2.5 4-.5 5.7 1.4 1.2 1.3 1.5-.5 3.2-2.6 2.4-3.5 6.4-2.2 9.3 1.8 3.8 6.8 5.8 14.7 5.8 10.1 0 15.5-3.1 15.5-9 0-6.9-2.7-8.7-14.8-9.9-7.8-.7-9.7-1.5-8.9-3.7.4-1.1 2.6-1.6 8.2-1.9 9.1-.4 11.5-2.3 11.5-8.9 0-3.5.3-3.9 2.5-3.9 2 0 2.5-.5 2.5-2.5 0-2.9-1.6-3.2-4.8-.9zm-7.4 4c3.2 2.2 3 6.7-.3 8.2-5.4 2.5-12.5.1-12.5-4.1 0-4.8 8.1-7.4 12.8-4.1zm4.8 23.4c.8.7 1.4 2.6 1.4 4.2 0 3.9-5.3 6.3-12.4 5.4-7.8-.9-10.9-5.4-6.8-9.9 1.5-1.7 2.6-1.9 9-1.4 4 .3 8 1.1 8.8 1.7zM49.1 206.6c-1.9 1.5-4 4.3-4.7 6.1-3.2 7.6-.5 20.2 5 23.8 3.5 2.3 10.5 3 15 1.5 3.4-1.1 6.5-4.3 7.9-8.3 1.1-2.9-4.1-2.3-5.4.7-.6 1.3-2.2 2.9-3.6 3.5-7.3 3.4-15.3-1.6-15.3-9.4V222h25v-2.9c0-4-2.3-9.1-5.4-12.1-2.1-1.9-4-2.5-8.9-2.8-5.7-.4-6.6-.2-9.6 2.4zm15.3 3.6c1.5 1.3 2.9 3.8 3.2 5.5l.7 3.3H58.1c-8.5 0-10.1-.3-10.1-1.5 0-2.4 2.8-7.3 4.7-8.4 3.2-1.9 9-1.3 11.7 1.1zM86.4 205.9c-1.7 1.1-3.6 3.3-4.2 5-1 2.9-.9 3.1 1.2 3.1 1.5 0 2.7-.9 3.4-2.5 2.1-4.5 12.1-4.9 15.4-.5 3.6 4.8 2 5.9-12.4 8.9-7.8 1.7-10.3 3.8-10.3 9 0 3.1.7 4.7 2.8 6.9 2.4 2.3 3.5 2.7 8.6 2.7 4.6 0 6.6-.5 9-2.3 3.7-2.7 4.1-2.7 4.1-.2 0 1.6.7 2 3 2 2.7 0 3-.2 2-1.9-.5-1.1-1-7.2-1-13.6 0-6.4-.5-12.5-1-13.6-2.7-4.9-14.6-6.7-20.6-3zm17.6 17.5c0 4.2-1.8 7.5-5.2 9.6-4.3 2.6-9.8 2.6-12.6 0-4.7-4.4-1.8-8.4 7.9-10.5 9.2-2 9.9-1.9 9.9.9zM125.1 206.6c-3 2.5-3.1 2.5-3.1.5 0-1.6-.6-2.1-2.5-2.1H117v33h2.4c2.4 0 2.4-.1 2.8-12.1.3-11.6.4-12.2 3-14.4 1.4-1.2 4.7-2.6 7.2-2.9 3.6-.6 4.6-1.1 4.6-2.7 0-3.1-7.9-2.7-11.9.7zM149 206.2c-6.9 4.7-9.1 15.6-5.1 24.5 2.3 5 5.7 7.4 11.5 8 8.2 1 14.9-3 16.2-9.5.6-3 .4-3.2-2-3.2-1.9 0-2.6.5-2.6 1.9 0 7.9-14.7 9.5-18.5 2-1.9-3.7-1.9-13.2 0-16.9 1.9-3.7 4.3-5 9.5-5 4.6 0 9 3.4 9 7 0 1.5.6 2 2.5 2 3.2 0 3.3-2.5.2-7.1-2.9-4.4-6-5.9-12.3-5.9-3.7 0-6 .6-8.4 2.2zM241.2 206c-9.8 6-9.3 25.9.8 31.2 6.8 3.5 15.6 1.5 19.6-4.7 3.8-5.9 3.6-18.2-.4-23-4.9-5.9-13.6-7.4-20-3.5zm14.3 4.4c6 6 5 19.7-1.6 23.1-7.9 4.1-14.9-1.8-14.9-12.5 0-4.5 1.1-7.3 4.3-10.8 2.9-3.1 9-3 12.2.2zM371.4 204.9c-2.5 1.1-6.4 5.8-6.4 7.7 0 .8 1.1 1.4 2.5 1.4 1.5 0 2.5-.6 2.5-1.4 0-4.1 10.3-6.2 14.8-3 2.4 1.7 2.9 5.6.9 7.2-.7.6-4.4 1.6-8.2 2.3-8 1.3-12 3.1-13.5 5.8-2.4 4.6.1 11.1 5 13.1 4 1.7 11.5.8 15-1.9 2.8-2 2.9-2 3.5-.1.4 1.3 1.5 2 3.2 2 1.9 0 2.4-.4 1.9-1.6-.3-.9-.6-6.9-.6-13.5 0-11.7-.1-11.9-2.9-15.1-2.6-2.9-3.5-3.2-9.2-3.5-3.5-.1-7.4.1-8.5.6zm15.6 19.7c0 4.8-1.5 7.3-5.5 9-7.1 2.9-13.5.5-13.5-5.1 0-3 2.1-4.2 10.3-6 8.8-1.9 8.7-1.9 8.7 2.1zM442.4 204.9c-5.1 2.2-7.2 10.2-3.6 13.4 1 1 5.1 2.8 9.2 4.2 8.5 2.9 10 3.9 10 7s-2.2 4.7-7.3 5.2c-3.3.4-4.8 0-6.9-1.7-1.6-1.2-2.8-2.8-2.8-3.6 0-.8-1-1.4-2.6-1.4-2.2 0-2.4.3-1.9 2.2 2 6.6 7.1 9.4 15.8 8.5 4.1-.3 5.6-1.1 7.9-3.6 5.9-6.6 2.8-12.3-8.8-16.1-8.2-2.7-9.4-3.5-9.4-6.6 0-2.9 2.7-4.4 7.9-4.4 4.1 0 7.1 2 7.1 4.6 0 .8 1 1.4 2.5 1.4 3.3 0 3.3-2.9.1-6.6-2-2.4-3.2-2.8-8.7-3.1-3.5-.1-7.4.1-8.5.6z"/></svg>